<?xml version="1.0" encoding="UTF-8" standalone="no"?>
<!DOCTYPE svg PUBLIC "-//W3C//DTD SVG 1.1//EN"
 "http://www.w3.org/Graphics/SVG/1.1/DTD/svg11.dtd">
<!-- Generated by graphviz version 2.43.0 (0)
 -->
<!-- Title: as_automatics_exceptions.AsObjectError Pages: 1 -->
<svg width="324pt" height="229pt"
 viewBox="0.00 0.00 324.00 229.00" xmlns="http://www.w3.org/2000/svg" xmlns:xlink="http://www.w3.org/1999/xlink">
<g id="graph0" class="graph" transform="scale(1 1) rotate(0) translate(4 225)">
<title>as_automatics_exceptions.AsObjectError</title>
<!-- Node1 -->
<g id="node1" class="node">
<title>Node1</title>
<g id="a_node1"><a xlink:title="Generic Automatics exception class concerning a specific object.">
<polygon fill="#bfbfbf" stroke="black" points="83,-67.5 83,-97.5 232,-97.5 232,-67.5 83,-67.5"/>
<text text-anchor="start" x="91" y="-85.5" font-family="Helvetica,sans-Serif" font-size="10.00">as_automatics_exceptions.</text>
<text text-anchor="middle" x="157.5" y="-74.5" font-family="Helvetica,sans-Serif" font-size="10.00">AsObjectError</text>
</a>
</g>
</g>
<!-- Node4 -->
<g id="node4" class="node">
<title>Node4</title>
<g id="a_node4"><a xlink:href="classas__automatics__exceptions_1_1_as_assign_error.html" target="_top" xlink:title="Automatics error class: AsAssignError Signifies a problem/error while assigning objects to each other...">
<polygon fill="none" stroke="black" points="0,-0.5 0,-30.5 149,-30.5 149,-0.5 0,-0.5"/>
<text text-anchor="start" x="8" y="-18.5" font-family="Helvetica,sans-Serif" font-size="10.00">as_automatics_exceptions.</text>
<text text-anchor="middle" x="74.5" y="-7.5" font-family="Helvetica,sans-Serif" font-size="10.00">AsAssignError</text>
</a>
</g>
</g>
<!-- Node1&#45;&gt;Node4 -->
<g id="edge3" class="edge">
<title>Node1&#45;&gt;Node4</title>
<path fill="none" stroke="midnightblue" d="M131.54,-61.17C118.85,-51.23 103.89,-39.51 92.47,-30.58"/>
<polygon fill="midnightblue" stroke="midnightblue" points="129.46,-63.99 139.49,-67.4 133.78,-58.47 129.46,-63.99"/>
</g>
<!-- Node5 -->
<g id="node5" class="node">
<title>Node5</title>
<g id="a_node5"><a xlink:href="classas__automatics__exceptions_1_1_as_connection_error.html" target="_top" xlink:title="Automatics error class: AsConnectionError Signifies a problem/error with a port, interface or module ...">
<polygon fill="none" stroke="black" points="167,-0.5 167,-30.5 316,-30.5 316,-0.5 167,-0.5"/>
<text text-anchor="start" x="175" y="-18.5" font-family="Helvetica,sans-Serif" font-size="10.00">as_automatics_exceptions.</text>
<text text-anchor="middle" x="241.5" y="-7.5" font-family="Helvetica,sans-Serif" font-size="10.00">AsConnectionError</text>
</a>
</g>
</g>
<!-- Node1&#45;&gt;Node5 -->
<g id="edge4" class="edge">
<title>Node1&#45;&gt;Node5</title>
<path fill="none" stroke="midnightblue" d="M183.78,-61.17C196.62,-51.23 211.76,-39.51 223.31,-30.58"/>
<polygon fill="midnightblue" stroke="midnightblue" points="181.49,-58.51 175.73,-67.4 185.78,-64.04 181.49,-58.51"/>
</g>
<!-- Node2 -->
<g id="node2" class="node">
<title>Node2</title>
<g id="a_node2"><a xlink:href="classas__automatics__exceptions_1_1_as_error.html" target="_top" xlink:title="Base exception class for all Automatics exceptions.">
<polygon fill="none" stroke="black" points="83,-134.5 83,-164.5 232,-164.5 232,-134.5 83,-134.5"/>
<text text-anchor="start" x="91" y="-152.5" font-family="Helvetica,sans-Serif" font-size="10.00">as_automatics_exceptions.</text>
<text text-anchor="middle" x="157.5" y="-141.5" font-family="Helvetica,sans-Serif" font-size="10.00">AsError</text>
</a>
</g>
</g>
<!-- Node2&#45;&gt;Node1 -->
<g id="edge1" class="edge">
<title>Node2&#45;&gt;Node1</title>
<path fill="none" stroke="midnightblue" d="M157.5,-124.11C157.5,-115.15 157.5,-105.32 157.5,-97.58"/>
<polygon fill="midnightblue" stroke="midnightblue" points="154,-124.4 157.5,-134.4 161,-124.4 154,-124.4"/>
</g>
<!-- Node3 -->
<g id="node3" class="node">
<title>Node3</title>
<g id="a_node3"><a xlink:title=" ">
<polygon fill="none" stroke="#bfbfbf" points="125,-201.5 125,-220.5 190,-220.5 190,-201.5 125,-201.5"/>
<text text-anchor="middle" x="157.5" y="-208.5" font-family="Helvetica,sans-Serif" font-size="10.00">Exception</text>
</a>
</g>
</g>
<!-- Node3&#45;&gt;Node2 -->
<g id="edge2" class="edge">
<title>Node3&#45;&gt;Node2</title>
<path fill="none" stroke="midnightblue" d="M157.5,-191.23C157.5,-182.59 157.5,-172.5 157.5,-164.52"/>
<polygon fill="midnightblue" stroke="midnightblue" points="154,-191.48 157.5,-201.48 161,-191.48 154,-191.48"/>
</g>
</g>
</svg>
