<?xml version="1.0" encoding="UTF-8" standalone="no"?>
<!DOCTYPE svg PUBLIC "-//W3C//DTD SVG 1.1//EN"
 "http://www.w3.org/Graphics/SVG/1.1/DTD/svg11.dtd">
<!-- Generated by graphviz version 2.43.0 (0)
 -->
<!-- Title: as_automatics_port.Port Pages: 1 -->
<svg width="368pt" height="162pt"
 viewBox="0.00 0.00 368.00 162.00" xmlns="http://www.w3.org/2000/svg" xmlns:xlink="http://www.w3.org/1999/xlink">
<g id="graph0" class="graph" transform="scale(1 1) rotate(0) translate(4 158)">
<title>as_automatics_port.Port</title>
<!-- Node1 -->
<g id="node1" class="node">
<title>Node1</title>
<g id="a_node1"><a xlink:title="Class representing a VHDL Port.">
<polygon fill="#bfbfbf" stroke="black" points="116,-134.5 116,-153.5 251,-153.5 251,-134.5 116,-134.5"/>
<text text-anchor="middle" x="183.5" y="-141.5" font-family="Helvetica,sans-Serif" font-size="10.00">as_automatics_port.Port</text>
</a>
</g>
</g>
<!-- Node2 -->
<g id="node2" class="node">
<title>Node2</title>
<g id="a_node2"><a xlink:href="classas__automatics__port_1_1_standard_port.html" target="_top" xlink:title="Slight variation of the regular Port class.">
<polygon fill="none" stroke="black" points="0,-73 0,-92 179,-92 179,-73 0,-73"/>
<text text-anchor="middle" x="89.5" y="-80" font-family="Helvetica,sans-Serif" font-size="10.00">as_automatics_port.StandardPort</text>
</a>
</g>
</g>
<!-- Node1&#45;&gt;Node2 -->
<g id="edge1" class="edge">
<title>Node1&#45;&gt;Node2</title>
<path fill="none" stroke="midnightblue" d="M161.27,-128.93C143.15,-117.46 118.15,-101.63 102.94,-92.01"/>
<polygon fill="midnightblue" stroke="midnightblue" points="159.71,-132.08 170.03,-134.48 163.45,-126.17 159.71,-132.08"/>
</g>
<!-- Node3 -->
<g id="node3" class="node">
<title>Node3</title>
<g id="a_node3"><a xlink:href="classas__automatics__signal_1_1_generic_signal.html" target="_top" xlink:title="Variation of the as_automatics_port::Port class, representing a VHDL signal.">
<polygon fill="none" stroke="black" points="197,-67.5 197,-97.5 360,-97.5 360,-67.5 197,-67.5"/>
<text text-anchor="start" x="205" y="-85.5" font-family="Helvetica,sans-Serif" font-size="10.00">as_automatics_signal.Generic</text>
<text text-anchor="middle" x="278.5" y="-74.5" font-family="Helvetica,sans-Serif" font-size="10.00">Signal</text>
</a>
</g>
</g>
<!-- Node1&#45;&gt;Node3 -->
<g id="edge2" class="edge">
<title>Node1&#45;&gt;Node3</title>
<path fill="none" stroke="midnightblue" d="M205.84,-129.01C220.99,-119.52 240.95,-107.02 256.11,-97.52"/>
<polygon fill="midnightblue" stroke="midnightblue" points="203.73,-126.2 197.11,-134.48 207.44,-132.13 203.73,-126.2"/>
</g>
<!-- Node4 -->
<g id="node4" class="node">
<title>Node4</title>
<g id="a_node4"><a xlink:href="classas__automatics__signal_1_1_glue_signal.html" target="_top" xlink:title="Variation of as_automatics_port::Port representing a glue signal.">
<polygon fill="none" stroke="black" points="204.5,-0.5 204.5,-30.5 352.5,-30.5 352.5,-0.5 204.5,-0.5"/>
<text text-anchor="start" x="212.5" y="-18.5" font-family="Helvetica,sans-Serif" font-size="10.00">as_automatics_signal.Glue</text>
<text text-anchor="middle" x="278.5" y="-7.5" font-family="Helvetica,sans-Serif" font-size="10.00">Signal</text>
</a>
</g>
</g>
<!-- Node3&#45;&gt;Node4 -->
<g id="edge3" class="edge">
<title>Node3&#45;&gt;Node4</title>
<path fill="none" stroke="midnightblue" d="M278.5,-57.11C278.5,-48.15 278.5,-38.32 278.5,-30.58"/>
<polygon fill="midnightblue" stroke="midnightblue" points="275,-57.4 278.5,-67.4 282,-57.4 275,-57.4"/>
</g>
</g>
</svg>
