<?xml version="1.0" encoding="UTF-8" standalone="no"?>
<!DOCTYPE svg PUBLIC "-//W3C//DTD SVG 1.1//EN"
 "http://www.w3.org/Graphics/SVG/1.1/DTD/svg11.dtd">
<!-- Generated by graphviz version 2.43.0 (0)
 -->
<!-- Title: as_automatics_exceptions.AsTextError Pages: 1 -->
<svg width="628pt" height="186pt"
 viewBox="0.00 0.00 628.00 186.00" xmlns="http://www.w3.org/2000/svg" xmlns:xlink="http://www.w3.org/1999/xlink">
<g id="graph0" class="graph" transform="scale(1 1) rotate(0) translate(4 182)">
<title>as_automatics_exceptions.AsTextError</title>
<!-- Node1 -->
<g id="node1" class="node">
<title>Node1</title>
<g id="a_node1"><a xlink:title="Generic Automatics exception class with additional textual info.">
<polygon fill="#bfbfbf" stroke="black" points="286,-73.5 286,-103.5 435,-103.5 435,-73.5 286,-73.5"/>
<text text-anchor="start" x="294" y="-91.5" font-family="Helvetica,sans-Serif" font-size="10.00">as_automatics_exceptions.</text>
<text text-anchor="middle" x="360.5" y="-80.5" font-family="Helvetica,sans-Serif" font-size="10.00">AsTextError</text>
</a>
</g>
</g>
<!-- Node4 -->
<g id="node4" class="node">
<title>Node4</title>
<g id="a_node4"><a xlink:href="classas__automatics__exceptions_1_1_as_analysis_error.html" target="_top" xlink:title="Automatics error class: AsAnalysisError Signifies a problem/error while analysing VHDL code.">
<polygon fill="none" stroke="black" points="471,-147.5 471,-177.5 620,-177.5 620,-147.5 471,-147.5"/>
<text text-anchor="start" x="479" y="-165.5" font-family="Helvetica,sans-Serif" font-size="10.00">as_automatics_exceptions.</text>
<text text-anchor="middle" x="545.5" y="-154.5" font-family="Helvetica,sans-Serif" font-size="10.00">AsAnalysisError</text>
</a>
</g>
</g>
<!-- Node1&#45;&gt;Node4 -->
<g id="edge3" class="edge">
<title>Node1&#45;&gt;Node4</title>
<path fill="none" stroke="midnightblue" d="M401.32,-107.99C421.89,-117.73 447.53,-129.34 471,-138.5 478.88,-141.57 487.33,-144.59 495.6,-147.39"/>
<polygon fill="midnightblue" stroke="midnightblue" points="402.78,-104.81 392.25,-103.67 399.77,-111.13 402.78,-104.81"/>
</g>
<!-- Node5 -->
<g id="node5" class="node">
<title>Node5</title>
<g id="a_node5"><a xlink:href="classas__automatics__exceptions_1_1_as_file_error.html" target="_top" xlink:title="Automatics error class: AsFileError Signifies a problem/error with a file object.">
<polygon fill="none" stroke="black" points="471,-98.5 471,-128.5 620,-128.5 620,-98.5 471,-98.5"/>
<text text-anchor="start" x="479" y="-116.5" font-family="Helvetica,sans-Serif" font-size="10.00">as_automatics_exceptions.</text>
<text text-anchor="middle" x="545.5" y="-105.5" font-family="Helvetica,sans-Serif" font-size="10.00">AsFileError</text>
</a>
</g>
</g>
<!-- Node1&#45;&gt;Node5 -->
<g id="edge4" class="edge">
<title>Node1&#45;&gt;Node5</title>
<path fill="none" stroke="midnightblue" d="M445.11,-99.92C453.65,-101.09 462.28,-102.27 470.71,-103.42"/>
<polygon fill="midnightblue" stroke="midnightblue" points="445.52,-96.45 435.14,-98.56 444.58,-103.38 445.52,-96.45"/>
</g>
<!-- Node6 -->
<g id="node6" class="node">
<title>Node6</title>
<g id="a_node6"><a xlink:href="classas__automatics__exceptions_1_1_as_module_error.html" target="_top" xlink:title="Automatics error class: AsModuleError Signifies a problem/error with an AsModule object.">
<polygon fill="none" stroke="black" points="471,-49.5 471,-79.5 620,-79.5 620,-49.5 471,-49.5"/>
<text text-anchor="start" x="479" y="-67.5" font-family="Helvetica,sans-Serif" font-size="10.00">as_automatics_exceptions.</text>
<text text-anchor="middle" x="545.5" y="-56.5" font-family="Helvetica,sans-Serif" font-size="10.00">AsModuleError</text>
</a>
</g>
</g>
<!-- Node1&#45;&gt;Node6 -->
<g id="edge5" class="edge">
<title>Node1&#45;&gt;Node6</title>
<path fill="none" stroke="midnightblue" d="M445.11,-77.53C453.65,-76.41 462.28,-75.28 470.71,-74.18"/>
<polygon fill="midnightblue" stroke="midnightblue" points="444.6,-74.07 435.14,-78.84 445.51,-81.01 444.6,-74.07"/>
</g>
<!-- Node7 -->
<g id="node7" class="node">
<title>Node7</title>
<g id="a_node7"><a xlink:href="classas__automatics__exceptions_1_1_as_name_error.html" target="_top" xlink:title="Automatics error class: AsNameError Signifies a problem/error with a port/module/etc.">
<polygon fill="none" stroke="black" points="471,-0.5 471,-30.5 620,-30.5 620,-0.5 471,-0.5"/>
<text text-anchor="start" x="479" y="-18.5" font-family="Helvetica,sans-Serif" font-size="10.00">as_automatics_exceptions.</text>
<text text-anchor="middle" x="545.5" y="-7.5" font-family="Helvetica,sans-Serif" font-size="10.00">AsNameError</text>
</a>
</g>
</g>
<!-- Node1&#45;&gt;Node7 -->
<g id="edge6" class="edge">
<title>Node1&#45;&gt;Node7</title>
<path fill="none" stroke="midnightblue" d="M402.08,-69.12C422.53,-59.66 447.85,-48.43 471,-39.5 479.02,-36.41 487.62,-33.36 496.01,-30.53"/>
<polygon fill="midnightblue" stroke="midnightblue" points="400.34,-66.06 392.76,-73.46 403.3,-72.41 400.34,-66.06"/>
</g>
<!-- Node2 -->
<g id="node2" class="node">
<title>Node2</title>
<g id="a_node2"><a xlink:href="classas__automatics__exceptions_1_1_as_error.html" target="_top" xlink:title="Base exception class for all Automatics exceptions.">
<polygon fill="none" stroke="black" points="101,-73.5 101,-103.5 250,-103.5 250,-73.5 101,-73.5"/>
<text text-anchor="start" x="109" y="-91.5" font-family="Helvetica,sans-Serif" font-size="10.00">as_automatics_exceptions.</text>
<text text-anchor="middle" x="175.5" y="-80.5" font-family="Helvetica,sans-Serif" font-size="10.00">AsError</text>
</a>
</g>
</g>
<!-- Node2&#45;&gt;Node1 -->
<g id="edge1" class="edge">
<title>Node2&#45;&gt;Node1</title>
<path fill="none" stroke="midnightblue" d="M260.39,-88.5C268.84,-88.5 277.38,-88.5 285.71,-88.5"/>
<polygon fill="midnightblue" stroke="midnightblue" points="260.14,-85 250.14,-88.5 260.14,-92 260.14,-85"/>
</g>
<!-- Node3 -->
<g id="node3" class="node">
<title>Node3</title>
<g id="a_node3"><a xlink:title=" ">
<polygon fill="none" stroke="#bfbfbf" points="0,-79 0,-98 65,-98 65,-79 0,-79"/>
<text text-anchor="middle" x="32.5" y="-86" font-family="Helvetica,sans-Serif" font-size="10.00">Exception</text>
</a>
</g>
</g>
<!-- Node3&#45;&gt;Node2 -->
<g id="edge2" class="edge">
<title>Node3&#45;&gt;Node2</title>
<path fill="none" stroke="midnightblue" d="M75.38,-88.5C83.47,-88.5 92.16,-88.5 100.91,-88.5"/>
<polygon fill="midnightblue" stroke="midnightblue" points="75.14,-85 65.14,-88.5 75.14,-92 75.14,-85"/>
</g>
</g>
</svg>
