<?xml version="1.0" encoding="UTF-8" standalone="no"?>
<!DOCTYPE svg PUBLIC "-//W3C//DTD SVG 1.1//EN"
 "http://www.w3.org/Graphics/SVG/1.1/DTD/svg11.dtd">
<!-- Generated by graphviz version 2.43.0 (0)
 -->
<!-- Title: as_automatics_2d_pipeline.As2DWindowPipeline Pages: 1 -->
<svg width="189pt" height="229pt"
 viewBox="0.00 0.00 189.00 229.00" xmlns="http://www.w3.org/2000/svg" xmlns:xlink="http://www.w3.org/1999/xlink">
<g id="graph0" class="graph" transform="scale(1 1) rotate(0) translate(4 225)">
<title>as_automatics_2d_pipeline.As2DWindowPipeline</title>
<!-- Node1 -->
<g id="node1" class="node">
<title>Node1</title>
<g id="a_node1"><a xlink:title="Class that represents a 2D Window Pipeline of the ASTERICS Framework.">
<polygon fill="#bfbfbf" stroke="black" points="14.5,-67.5 14.5,-97.5 166.5,-97.5 166.5,-67.5 14.5,-67.5"/>
<text text-anchor="start" x="22.5" y="-85.5" font-family="Helvetica,sans-Serif" font-size="10.00">as_automatics_2d_pipeline.</text>
<text text-anchor="middle" x="90.5" y="-74.5" font-family="Helvetica,sans-Serif" font-size="10.00">As2DWindowPipeline</text>
</a>
</g>
</g>
<!-- Node4 -->
<g id="node4" class="node">
<title>Node4</title>
<g id="a_node4"><a xlink:href="classas__automatics__cnn__layer_1_1_as_n_n_layer.html" target="_top" xlink:title="Class representing a CNN layer accelerator subsystem.">
<polygon fill="none" stroke="black" points="19,-0.5 19,-30.5 162,-30.5 162,-0.5 19,-0.5"/>
<text text-anchor="start" x="27" y="-18.5" font-family="Helvetica,sans-Serif" font-size="10.00">as_automatics_cnn_layer.</text>
<text text-anchor="middle" x="90.5" y="-7.5" font-family="Helvetica,sans-Serif" font-size="10.00">AsNNLayer</text>
</a>
</g>
</g>
<!-- Node1&#45;&gt;Node4 -->
<g id="edge3" class="edge">
<title>Node1&#45;&gt;Node4</title>
<path fill="none" stroke="midnightblue" d="M90.5,-57.11C90.5,-48.15 90.5,-38.32 90.5,-30.58"/>
<polygon fill="midnightblue" stroke="midnightblue" points="87,-57.4 90.5,-67.4 94,-57.4 87,-57.4"/>
</g>
<!-- Node2 -->
<g id="node2" class="node">
<title>Node2</title>
<g id="a_node2"><a xlink:href="classas__automatics__module__group_1_1_as_module_group.html" target="_top" xlink:title="Class representing a module containing more modules.">
<polygon fill="none" stroke="black" points="25.5,-134.5 25.5,-164.5 155.5,-164.5 155.5,-134.5 25.5,-134.5"/>
<text text-anchor="start" x="33.5" y="-152.5" font-family="Helvetica,sans-Serif" font-size="10.00">as_automatics_module</text>
<text text-anchor="middle" x="90.5" y="-141.5" font-family="Helvetica,sans-Serif" font-size="10.00">_group.AsModuleGroup</text>
</a>
</g>
</g>
<!-- Node2&#45;&gt;Node1 -->
<g id="edge1" class="edge">
<title>Node2&#45;&gt;Node1</title>
<path fill="none" stroke="midnightblue" d="M90.5,-124.11C90.5,-115.15 90.5,-105.32 90.5,-97.58"/>
<polygon fill="midnightblue" stroke="midnightblue" points="87,-124.4 90.5,-134.4 94,-124.4 87,-124.4"/>
</g>
<!-- Node3 -->
<g id="node3" class="node">
<title>Node3</title>
<g id="a_node3"><a xlink:href="classas__automatics__module_1_1_as_module.html" target="_top" xlink:title="Represents an ASTERICS hardware and/or software module.">
<polygon fill="none" stroke="black" points="0,-201.5 0,-220.5 181,-220.5 181,-201.5 0,-201.5"/>
<text text-anchor="middle" x="90.5" y="-208.5" font-family="Helvetica,sans-Serif" font-size="10.00">as_automatics_module.AsModule</text>
</a>
</g>
</g>
<!-- Node3&#45;&gt;Node2 -->
<g id="edge2" class="edge">
<title>Node3&#45;&gt;Node2</title>
<path fill="none" stroke="midnightblue" d="M90.5,-191.23C90.5,-182.59 90.5,-172.5 90.5,-164.52"/>
<polygon fill="midnightblue" stroke="midnightblue" points="87,-191.48 90.5,-201.48 94,-191.48 87,-191.48"/>
</g>
</g>
</svg>
