<?xml version="1.0" encoding="UTF-8" standalone="no"?>
<!DOCTYPE svg PUBLIC "-//W3C//DTD SVG 1.1//EN"
 "http://www.w3.org/Graphics/SVG/1.1/DTD/svg11.dtd">
<!-- Generated by graphviz version 2.43.0 (0)
 -->
<!-- Title: as_automatics_templates.AsMain Pages: 1 -->
<svg width="189pt" height="162pt"
 viewBox="0.00 0.00 189.00 162.00" xmlns="http://www.w3.org/2000/svg" xmlns:xlink="http://www.w3.org/1999/xlink">
<g id="graph0" class="graph" transform="scale(1 1) rotate(0) translate(4 158)">
<title>as_automatics_templates.AsMain</title>
<!-- Node1 -->
<g id="node1" class="node">
<title>Node1</title>
<g id="a_node1"><a xlink:title="Template for the module group AsMain in which all AsModules are instantiated.">
<polygon fill="#bfbfbf" stroke="black" points="17.5,-0.5 17.5,-30.5 163.5,-30.5 163.5,-0.5 17.5,-0.5"/>
<text text-anchor="start" x="25.5" y="-18.5" font-family="Helvetica,sans-Serif" font-size="10.00">as_automatics_templates.</text>
<text text-anchor="middle" x="90.5" y="-7.5" font-family="Helvetica,sans-Serif" font-size="10.00">AsMain</text>
</a>
</g>
</g>
<!-- Node2 -->
<g id="node2" class="node">
<title>Node2</title>
<g id="a_node2"><a xlink:href="classas__automatics__module__group_1_1_as_module_group.html" target="_top" xlink:title="Class representing a module containing more modules.">
<polygon fill="none" stroke="black" points="25.5,-67.5 25.5,-97.5 155.5,-97.5 155.5,-67.5 25.5,-67.5"/>
<text text-anchor="start" x="33.5" y="-85.5" font-family="Helvetica,sans-Serif" font-size="10.00">as_automatics_module</text>
<text text-anchor="middle" x="90.5" y="-74.5" font-family="Helvetica,sans-Serif" font-size="10.00">_group.AsModuleGroup</text>
</a>
</g>
</g>
<!-- Node2&#45;&gt;Node1 -->
<g id="edge1" class="edge">
<title>Node2&#45;&gt;Node1</title>
<path fill="none" stroke="midnightblue" d="M90.5,-57.11C90.5,-48.15 90.5,-38.32 90.5,-30.58"/>
<polygon fill="midnightblue" stroke="midnightblue" points="87,-57.4 90.5,-67.4 94,-57.4 87,-57.4"/>
</g>
<!-- Node3 -->
<g id="node3" class="node">
<title>Node3</title>
<g id="a_node3"><a xlink:href="classas__automatics__module_1_1_as_module.html" target="_top" xlink:title="Represents an ASTERICS hardware and/or software module.">
<polygon fill="none" stroke="black" points="0,-134.5 0,-153.5 181,-153.5 181,-134.5 0,-134.5"/>
<text text-anchor="middle" x="90.5" y="-141.5" font-family="Helvetica,sans-Serif" font-size="10.00">as_automatics_module.AsModule</text>
</a>
</g>
</g>
<!-- Node3&#45;&gt;Node2 -->
<g id="edge2" class="edge">
<title>Node3&#45;&gt;Node2</title>
<path fill="none" stroke="midnightblue" d="M90.5,-124.23C90.5,-115.59 90.5,-105.5 90.5,-97.52"/>
<polygon fill="midnightblue" stroke="midnightblue" points="87,-124.48 90.5,-134.48 94,-124.48 87,-124.48"/>
</g>
</g>
</svg>
