<?xml version="1.0" encoding="UTF-8" standalone="no"?>
<!DOCTYPE svg PUBLIC "-//W3C//DTD SVG 1.1//EN"
 "http://www.w3.org/Graphics/SVG/1.1/DTD/svg11.dtd">
<!-- Generated by graphviz version 2.43.0 (0)
 -->
<!-- Title: as_automatics_module_group.AsModuleGroup Pages: 1 -->
<svg width="724pt" height="186pt"
 viewBox="0.00 0.00 724.00 186.00" xmlns="http://www.w3.org/2000/svg" xmlns:xlink="http://www.w3.org/1999/xlink">
<g id="graph0" class="graph" transform="scale(1 1) rotate(0) translate(4 182)">
<title>as_automatics_module_group.AsModuleGroup</title>
<!-- Node1 -->
<g id="node1" class="node">
<title>Node1</title>
<g id="a_node1"><a xlink:title="Class representing a module containing more modules.">
<polygon fill="#bfbfbf" stroke="black" points="217,-73.5 217,-103.5 347,-103.5 347,-73.5 217,-73.5"/>
<text text-anchor="start" x="225" y="-91.5" font-family="Helvetica,sans-Serif" font-size="10.00">as_automatics_module</text>
<text text-anchor="middle" x="282" y="-80.5" font-family="Helvetica,sans-Serif" font-size="10.00">_group.AsModuleGroup</text>
</a>
</g>
</g>
<!-- Node3 -->
<g id="node3" class="node">
<title>Node3</title>
<g id="a_node3"><a xlink:href="classas__automatics__2d__pipeline_1_1_as2_d_window_pipeline.html" target="_top" xlink:title="Class that represents a 2D Window Pipeline of the ASTERICS Framework.">
<polygon fill="none" stroke="black" points="384,-147.5 384,-177.5 536,-177.5 536,-147.5 384,-147.5"/>
<text text-anchor="start" x="392" y="-165.5" font-family="Helvetica,sans-Serif" font-size="10.00">as_automatics_2d_pipeline.</text>
<text text-anchor="middle" x="460" y="-154.5" font-family="Helvetica,sans-Serif" font-size="10.00">As2DWindowPipeline</text>
</a>
</g>
</g>
<!-- Node1&#45;&gt;Node3 -->
<g id="edge2" class="edge">
<title>Node1&#45;&gt;Node3</title>
<path fill="none" stroke="midnightblue" d="M320.4,-108.35C338.95,-117.8 361.86,-128.89 383,-137.5 391.62,-141.01 400.93,-144.39 409.99,-147.48"/>
<polygon fill="midnightblue" stroke="midnightblue" points="321.9,-105.18 311.4,-103.72 318.69,-111.41 321.9,-105.18"/>
</g>
<!-- Node5 -->
<g id="node5" class="node">
<title>Node5</title>
<g id="a_node5"><a xlink:href="classas__automatics__module__wrapper_1_1_as_module_wrapper.html" target="_top" xlink:title="Class encapsulating an AsModule to manage generating an out&#45;of&#45;context Vivado run for it.">
<polygon fill="none" stroke="black" points="383,-98.5 383,-128.5 537,-128.5 537,-98.5 383,-98.5"/>
<text text-anchor="start" x="391" y="-116.5" font-family="Helvetica,sans-Serif" font-size="10.00">as_automatics_module</text>
<text text-anchor="middle" x="460" y="-105.5" font-family="Helvetica,sans-Serif" font-size="10.00">_wrapper.AsModuleWrapper</text>
</a>
</g>
</g>
<!-- Node1&#45;&gt;Node5 -->
<g id="edge4" class="edge">
<title>Node1&#45;&gt;Node5</title>
<path fill="none" stroke="midnightblue" d="M356.95,-99C365.47,-100.22 374.18,-101.45 382.74,-102.67"/>
<polygon fill="midnightblue" stroke="midnightblue" points="357.43,-95.54 347.04,-97.6 356.45,-102.47 357.43,-95.54"/>
</g>
<!-- Node6 -->
<g id="node6" class="node">
<title>Node6</title>
<g id="a_node6"><a xlink:href="classas__automatics__templates_1_1_as_main.html" target="_top" xlink:title="Template for the module group AsMain in which all AsModules are instantiated.">
<polygon fill="none" stroke="black" points="387,-49.5 387,-79.5 533,-79.5 533,-49.5 387,-49.5"/>
<text text-anchor="start" x="395" y="-67.5" font-family="Helvetica,sans-Serif" font-size="10.00">as_automatics_templates.</text>
<text text-anchor="middle" x="460" y="-56.5" font-family="Helvetica,sans-Serif" font-size="10.00">AsMain</text>
</a>
</g>
</g>
<!-- Node1&#45;&gt;Node6 -->
<g id="edge5" class="edge">
<title>Node1&#45;&gt;Node6</title>
<path fill="none" stroke="midnightblue" d="M357.2,-78.38C367.06,-77.04 377.15,-75.66 386.97,-74.32"/>
<polygon fill="midnightblue" stroke="midnightblue" points="356.47,-74.95 347.04,-79.77 357.42,-81.88 356.47,-74.95"/>
</g>
<!-- Node7 -->
<g id="node7" class="node">
<title>Node7</title>
<g id="a_node7"><a xlink:href="classas__automatics__templates_1_1_as_top.html" target="_top" xlink:title="Template for the ASTERICS processing chain toplevel module group.">
<polygon fill="none" stroke="black" points="387,-0.5 387,-30.5 533,-30.5 533,-0.5 387,-0.5"/>
<text text-anchor="start" x="395" y="-18.5" font-family="Helvetica,sans-Serif" font-size="10.00">as_automatics_templates.</text>
<text text-anchor="middle" x="460" y="-7.5" font-family="Helvetica,sans-Serif" font-size="10.00">AsTop</text>
</a>
</g>
</g>
<!-- Node1&#45;&gt;Node7 -->
<g id="edge6" class="edge">
<title>Node1&#45;&gt;Node7</title>
<path fill="none" stroke="midnightblue" d="M319.96,-68.74C338.57,-59.22 361.66,-48.04 383,-39.5 390.84,-36.36 399.25,-33.36 407.53,-30.6"/>
<polygon fill="midnightblue" stroke="midnightblue" points="318.21,-65.71 310.94,-73.41 321.43,-71.92 318.21,-65.71"/>
</g>
<!-- Node2 -->
<g id="node2" class="node">
<title>Node2</title>
<g id="a_node2"><a xlink:href="classas__automatics__module_1_1_as_module.html" target="_top" xlink:title="Represents an ASTERICS hardware and/or software module.">
<polygon fill="none" stroke="black" points="0,-79 0,-98 181,-98 181,-79 0,-79"/>
<text text-anchor="middle" x="90.5" y="-86" font-family="Helvetica,sans-Serif" font-size="10.00">as_automatics_module.AsModule</text>
</a>
</g>
</g>
<!-- Node2&#45;&gt;Node1 -->
<g id="edge1" class="edge">
<title>Node2&#45;&gt;Node1</title>
<path fill="none" stroke="midnightblue" d="M191.43,-88.5C200.1,-88.5 208.7,-88.5 216.96,-88.5"/>
<polygon fill="midnightblue" stroke="midnightblue" points="191.26,-85 181.26,-88.5 191.26,-92 191.26,-85"/>
</g>
<!-- Node4 -->
<g id="node4" class="node">
<title>Node4</title>
<g id="a_node4"><a xlink:href="classas__automatics__cnn__layer_1_1_as_n_n_layer.html" target="_top" xlink:title="Class representing a CNN layer accelerator subsystem.">
<polygon fill="none" stroke="black" points="573,-147.5 573,-177.5 716,-177.5 716,-147.5 573,-147.5"/>
<text text-anchor="start" x="581" y="-165.5" font-family="Helvetica,sans-Serif" font-size="10.00">as_automatics_cnn_layer.</text>
<text text-anchor="middle" x="644.5" y="-154.5" font-family="Helvetica,sans-Serif" font-size="10.00">AsNNLayer</text>
</a>
</g>
</g>
<!-- Node3&#45;&gt;Node4 -->
<g id="edge3" class="edge">
<title>Node3&#45;&gt;Node4</title>
<path fill="none" stroke="midnightblue" d="M546.09,-162.5C555.06,-162.5 564.1,-162.5 572.88,-162.5"/>
<polygon fill="midnightblue" stroke="midnightblue" points="546.02,-159 536.02,-162.5 546.02,-166 546.02,-159"/>
</g>
</g>
</svg>
