<?xml version="1.0" encoding="UTF-8" standalone="no"?>
<!DOCTYPE svg PUBLIC "-//W3C//DTD SVG 1.1//EN"
 "http://www.w3.org/Graphics/SVG/1.1/DTD/svg11.dtd">
<!-- Generated by graphviz version 2.43.0 (0)
 -->
<!-- Title: as_automatics_module.AsModule Pages: 1 -->
<svg width="743pt" height="186pt"
 viewBox="0.00 0.00 743.00 186.00" xmlns="http://www.w3.org/2000/svg" xmlns:xlink="http://www.w3.org/1999/xlink">
<g id="graph0" class="graph" transform="scale(1 1) rotate(0) translate(4 182)">
<title>as_automatics_module.AsModule</title>
<!-- Node1 -->
<g id="node1" class="node">
<title>Node1</title>
<g id="a_node1"><a xlink:title="Represents an ASTERICS hardware and/or software module.">
<polygon fill="#bfbfbf" stroke="black" points="0,-103 0,-122 181,-122 181,-103 0,-103"/>
<text text-anchor="middle" x="90.5" y="-110" font-family="Helvetica,sans-Serif" font-size="10.00">as_automatics_module.AsModule</text>
</a>
</g>
</g>
<!-- Node2 -->
<g id="node2" class="node">
<title>Node2</title>
<g id="a_node2"><a xlink:href="classas__automatics__2d__window__module_1_1_as_window_module.html" target="_top" xlink:title="Class representing a module for use in 2D Window Pipelines.">
<polygon fill="none" stroke="black" points="217,-122.5 217,-152.5 366,-152.5 366,-122.5 217,-122.5"/>
<text text-anchor="start" x="225" y="-140.5" font-family="Helvetica,sans-Serif" font-size="10.00">as_automatics_2d_window</text>
<text text-anchor="middle" x="291.5" y="-129.5" font-family="Helvetica,sans-Serif" font-size="10.00">_module.AsWindowModule</text>
</a>
</g>
</g>
<!-- Node1&#45;&gt;Node2 -->
<g id="edge1" class="edge">
<title>Node1&#45;&gt;Node2</title>
<path fill="none" stroke="midnightblue" d="M177.3,-123.28C190.48,-124.94 203.99,-126.63 216.88,-128.25"/>
<polygon fill="midnightblue" stroke="midnightblue" points="177.66,-119.8 167.3,-122.02 176.79,-126.74 177.66,-119.8"/>
</g>
<!-- Node3 -->
<g id="node3" class="node">
<title>Node3</title>
<g id="a_node3"><a xlink:href="classas__automatics__module__group_1_1_as_module_group.html" target="_top" xlink:title="Class representing a module containing more modules.">
<polygon fill="none" stroke="black" points="226.5,-73.5 226.5,-103.5 356.5,-103.5 356.5,-73.5 226.5,-73.5"/>
<text text-anchor="start" x="234.5" y="-91.5" font-family="Helvetica,sans-Serif" font-size="10.00">as_automatics_module</text>
<text text-anchor="middle" x="291.5" y="-80.5" font-family="Helvetica,sans-Serif" font-size="10.00">_group.AsModuleGroup</text>
</a>
</g>
</g>
<!-- Node1&#45;&gt;Node3 -->
<g id="edge2" class="edge">
<title>Node1&#45;&gt;Node3</title>
<path fill="none" stroke="midnightblue" d="M180.52,-101.76C195.96,-99.9 211.75,-98 226.36,-96.24"/>
<polygon fill="midnightblue" stroke="midnightblue" points="179.94,-98.31 170.44,-102.98 180.78,-105.26 179.94,-98.31"/>
</g>
<!-- Node4 -->
<g id="node4" class="node">
<title>Node4</title>
<g id="a_node4"><a xlink:href="classas__automatics__2d__pipeline_1_1_as2_d_window_pipeline.html" target="_top" xlink:title="Class that represents a 2D Window Pipeline of the ASTERICS Framework.">
<polygon fill="none" stroke="black" points="403,-147.5 403,-177.5 555,-177.5 555,-147.5 403,-147.5"/>
<text text-anchor="start" x="411" y="-165.5" font-family="Helvetica,sans-Serif" font-size="10.00">as_automatics_2d_pipeline.</text>
<text text-anchor="middle" x="479" y="-154.5" font-family="Helvetica,sans-Serif" font-size="10.00">As2DWindowPipeline</text>
</a>
</g>
</g>
<!-- Node3&#45;&gt;Node4 -->
<g id="edge3" class="edge">
<title>Node3&#45;&gt;Node4</title>
<path fill="none" stroke="midnightblue" d="M352.6,-107.37C357.2,-109.29 361.71,-111.34 366,-113.5 383.39,-122.28 384.51,-129.91 402,-138.5 408.71,-141.79 415.97,-144.76 423.25,-147.4"/>
<polygon fill="midnightblue" stroke="midnightblue" points="353.67,-104.03 343.08,-103.62 351.1,-110.54 353.67,-104.03"/>
</g>
<!-- Node6 -->
<g id="node6" class="node">
<title>Node6</title>
<g id="a_node6"><a xlink:href="classas__automatics__module__wrapper_1_1_as_module_wrapper.html" target="_top" xlink:title="Class encapsulating an AsModule to manage generating an out&#45;of&#45;context Vivado run for it.">
<polygon fill="none" stroke="black" points="402,-98.5 402,-128.5 556,-128.5 556,-98.5 402,-98.5"/>
<text text-anchor="start" x="410" y="-116.5" font-family="Helvetica,sans-Serif" font-size="10.00">as_automatics_module</text>
<text text-anchor="middle" x="479" y="-105.5" font-family="Helvetica,sans-Serif" font-size="10.00">_wrapper.AsModuleWrapper</text>
</a>
</g>
</g>
<!-- Node3&#45;&gt;Node6 -->
<g id="edge5" class="edge">
<title>Node3&#45;&gt;Node6</title>
<path fill="none" stroke="midnightblue" d="M366.63,-98.49C378.19,-100.05 390.15,-101.66 401.76,-103.23"/>
<polygon fill="midnightblue" stroke="midnightblue" points="366.98,-95.01 356.6,-97.14 366.04,-101.94 366.98,-95.01"/>
</g>
<!-- Node7 -->
<g id="node7" class="node">
<title>Node7</title>
<g id="a_node7"><a xlink:href="classas__automatics__templates_1_1_as_main.html" target="_top" xlink:title="Template for the module group AsMain in which all AsModules are instantiated.">
<polygon fill="none" stroke="black" points="406,-49.5 406,-79.5 552,-79.5 552,-49.5 406,-49.5"/>
<text text-anchor="start" x="414" y="-67.5" font-family="Helvetica,sans-Serif" font-size="10.00">as_automatics_templates.</text>
<text text-anchor="middle" x="479" y="-56.5" font-family="Helvetica,sans-Serif" font-size="10.00">AsMain</text>
</a>
</g>
</g>
<!-- Node3&#45;&gt;Node7 -->
<g id="edge6" class="edge">
<title>Node3&#45;&gt;Node7</title>
<path fill="none" stroke="midnightblue" d="M366.82,-78.88C379.72,-77.22 393.11,-75.48 405.95,-73.82"/>
<polygon fill="midnightblue" stroke="midnightblue" points="366.07,-75.45 356.6,-80.21 366.96,-82.39 366.07,-75.45"/>
</g>
<!-- Node8 -->
<g id="node8" class="node">
<title>Node8</title>
<g id="a_node8"><a xlink:href="classas__automatics__templates_1_1_as_top.html" target="_top" xlink:title="Template for the ASTERICS processing chain toplevel module group.">
<polygon fill="none" stroke="black" points="406,-0.5 406,-30.5 552,-30.5 552,-0.5 406,-0.5"/>
<text text-anchor="start" x="414" y="-18.5" font-family="Helvetica,sans-Serif" font-size="10.00">as_automatics_templates.</text>
<text text-anchor="middle" x="479" y="-7.5" font-family="Helvetica,sans-Serif" font-size="10.00">AsTop</text>
</a>
</g>
</g>
<!-- Node3&#45;&gt;Node8 -->
<g id="edge7" class="edge">
<title>Node3&#45;&gt;Node8</title>
<path fill="none" stroke="midnightblue" d="M334.02,-69.19C354.32,-60.03 379.24,-49.21 402,-40.5 410.95,-37.07 420.6,-33.68 429.92,-30.55"/>
<polygon fill="midnightblue" stroke="midnightblue" points="332.4,-66.08 324.74,-73.4 335.3,-72.45 332.4,-66.08"/>
</g>
<!-- Node5 -->
<g id="node5" class="node">
<title>Node5</title>
<g id="a_node5"><a xlink:href="classas__automatics__cnn__layer_1_1_as_n_n_layer.html" target="_top" xlink:title="Class representing a CNN layer accelerator subsystem.">
<polygon fill="none" stroke="black" points="592,-147.5 592,-177.5 735,-177.5 735,-147.5 592,-147.5"/>
<text text-anchor="start" x="600" y="-165.5" font-family="Helvetica,sans-Serif" font-size="10.00">as_automatics_cnn_layer.</text>
<text text-anchor="middle" x="663.5" y="-154.5" font-family="Helvetica,sans-Serif" font-size="10.00">AsNNLayer</text>
</a>
</g>
</g>
<!-- Node4&#45;&gt;Node5 -->
<g id="edge4" class="edge">
<title>Node4&#45;&gt;Node5</title>
<path fill="none" stroke="midnightblue" d="M565.09,-162.5C574.06,-162.5 583.1,-162.5 591.88,-162.5"/>
<polygon fill="midnightblue" stroke="midnightblue" points="565.02,-159 555.02,-162.5 565.02,-166 565.02,-159"/>
</g>
</g>
</svg>
