<?xml version="1.0" encoding="UTF-8" standalone="no"?>
<!DOCTYPE svg PUBLIC "-//W3C//DTD SVG 1.1//EN"
 "http://www.w3.org/Graphics/SVG/1.1/DTD/svg11.dtd">
<!-- Generated by graphviz version 2.43.0 (0)
 -->
<!-- Title: as_automatics_interface.Interface Pages: 1 -->
<svg width="357pt" height="382pt"
 viewBox="0.00 0.00 357.00 382.00" xmlns="http://www.w3.org/2000/svg" xmlns:xlink="http://www.w3.org/1999/xlink">
<g id="graph0" class="graph" transform="scale(1 1) rotate(0) translate(4 378)">
<title>as_automatics_interface.Interface</title>
<!-- Node1 -->
<g id="node1" class="node">
<title>Node1</title>
<g id="a_node1"><a xlink:title="Class representing an interface comprised of VHDL ports and generics.">
<polygon fill="#bfbfbf" stroke="black" points="0,-171.5 0,-201.5 140,-201.5 140,-171.5 0,-171.5"/>
<text text-anchor="start" x="8" y="-189.5" font-family="Helvetica,sans-Serif" font-size="10.00">as_automatics_interface.</text>
<text text-anchor="middle" x="70" y="-178.5" font-family="Helvetica,sans-Serif" font-size="10.00">Interface</text>
</a>
</g>
</g>
<!-- Node2 -->
<g id="node2" class="node">
<title>Node2</title>
<g id="a_node2"><a xlink:href="classas__automatics__2d__window__interface_1_1_as_window_interface.html" target="_top" xlink:title="Interface definition for interface &#39;as_window&#39;.">
<polygon fill="none" stroke="black" points="181,-343.5 181,-373.5 344,-373.5 344,-343.5 181,-343.5"/>
<text text-anchor="start" x="189" y="-361.5" font-family="Helvetica,sans-Serif" font-size="10.00">as_automatics_2d_window</text>
<text text-anchor="middle" x="262.5" y="-350.5" font-family="Helvetica,sans-Serif" font-size="10.00">_interface.AsWindowInterface</text>
</a>
</g>
</g>
<!-- Node1&#45;&gt;Node2 -->
<g id="edge1" class="edge">
<title>Node1&#45;&gt;Node2</title>
<path fill="none" stroke="midnightblue" d="M81.88,-211.07C97.77,-244.12 130.49,-302.44 176,-334.5 180.92,-337.96 186.32,-340.93 191.94,-343.47"/>
<polygon fill="midnightblue" stroke="midnightblue" points="84.9,-209.26 77.49,-201.68 78.55,-212.22 84.9,-209.26"/>
</g>
<!-- Node3 -->
<g id="node3" class="node">
<title>Node3</title>
<g id="a_node3"><a xlink:href="classas__automatics__register_1_1_slave_register_interface.html" target="_top" xlink:title="Class representing the ASTERICS slave register interface.">
<polygon fill="none" stroke="black" points="182,-294.5 182,-324.5 343,-324.5 343,-294.5 182,-294.5"/>
<text text-anchor="start" x="190" y="-312.5" font-family="Helvetica,sans-Serif" font-size="10.00">as_automatics_register.Slave</text>
<text text-anchor="middle" x="262.5" y="-301.5" font-family="Helvetica,sans-Serif" font-size="10.00">RegisterInterface</text>
</a>
</g>
</g>
<!-- Node1&#45;&gt;Node3 -->
<g id="edge2" class="edge">
<title>Node1&#45;&gt;Node3</title>
<path fill="none" stroke="midnightblue" d="M89.39,-209.37C108.69,-231.89 141.04,-265.72 176,-285.5 182.04,-288.92 188.6,-291.87 195.3,-294.43"/>
<polygon fill="midnightblue" stroke="midnightblue" points="92,-207.03 82.89,-201.62 86.64,-211.53 92,-207.03"/>
</g>
<!-- Node4 -->
<g id="node4" class="node">
<title>Node4</title>
<g id="a_node4"><a xlink:href="classas__automatics__templates_1_1_as_stream.html" target="_top" xlink:title="Template definition for ASTERICS&#39; &#39;as_stream&#39; interface.">
<polygon fill="none" stroke="black" points="189.5,-245.5 189.5,-275.5 335.5,-275.5 335.5,-245.5 189.5,-245.5"/>
<text text-anchor="start" x="197.5" y="-263.5" font-family="Helvetica,sans-Serif" font-size="10.00">as_automatics_templates.</text>
<text text-anchor="middle" x="262.5" y="-252.5" font-family="Helvetica,sans-Serif" font-size="10.00">AsStream</text>
</a>
</g>
</g>
<!-- Node1&#45;&gt;Node4 -->
<g id="edge3" class="edge">
<title>Node1&#45;&gt;Node4</title>
<path fill="none" stroke="midnightblue" d="M108.37,-206.21C128.12,-216.14 152.99,-227.86 176,-236.5 184.52,-239.7 193.65,-242.69 202.66,-245.41"/>
<polygon fill="midnightblue" stroke="midnightblue" points="109.89,-203.06 99.39,-201.65 106.72,-209.3 109.89,-203.06"/>
</g>
<!-- Node5 -->
<g id="node5" class="node">
<title>Node5</title>
<g id="a_node5"><a xlink:href="classas__automatics__templates_1_1_a_x_i_master_memory_internal.html" target="_top" xlink:title="Template definition for the AXI Master Memory interface used in ASTERICS.">
<polygon fill="none" stroke="black" points="189.5,-196.5 189.5,-226.5 335.5,-226.5 335.5,-196.5 189.5,-196.5"/>
<text text-anchor="start" x="197.5" y="-214.5" font-family="Helvetica,sans-Serif" font-size="10.00">as_automatics_templates.</text>
<text text-anchor="middle" x="262.5" y="-203.5" font-family="Helvetica,sans-Serif" font-size="10.00">AXIMasterMemoryInternal</text>
</a>
</g>
</g>
<!-- Node1&#45;&gt;Node5 -->
<g id="edge4" class="edge">
<title>Node1&#45;&gt;Node5</title>
<path fill="none" stroke="midnightblue" d="M150.34,-196.91C163.32,-198.62 176.7,-200.37 189.48,-202.05"/>
<polygon fill="midnightblue" stroke="midnightblue" points="150.41,-193.39 140.04,-195.56 149.5,-200.33 150.41,-193.39"/>
</g>
<!-- Node6 -->
<g id="node6" class="node">
<title>Node6</title>
<g id="a_node6"><a xlink:href="classas__automatics__templates_1_1_a_x_i_slave_interface.html" target="_top" xlink:title="Template definition for the AXI Slave interface used in ASTERICS.">
<polygon fill="none" stroke="black" points="189.5,-147.5 189.5,-177.5 335.5,-177.5 335.5,-147.5 189.5,-147.5"/>
<text text-anchor="start" x="197.5" y="-165.5" font-family="Helvetica,sans-Serif" font-size="10.00">as_automatics_templates.</text>
<text text-anchor="middle" x="262.5" y="-154.5" font-family="Helvetica,sans-Serif" font-size="10.00">AXISlaveInterface</text>
</a>
</g>
</g>
<!-- Node1&#45;&gt;Node6 -->
<g id="edge5" class="edge">
<title>Node1&#45;&gt;Node6</title>
<path fill="none" stroke="midnightblue" d="M150.34,-176.5C163.32,-174.87 176.7,-173.18 189.48,-171.57"/>
<polygon fill="midnightblue" stroke="midnightblue" points="149.53,-173.08 140.04,-177.8 150.4,-180.02 149.53,-173.08"/>
</g>
<!-- Node7 -->
<g id="node7" class="node">
<title>Node7</title>
<g id="a_node7"><a xlink:href="classas__automatics__templates_1_1_a_x_i_slave_register_interface.html" target="_top" xlink:title="Template definition for the AXI Slave Register interface used in ASTERICS.">
<polygon fill="none" stroke="black" points="189.5,-98.5 189.5,-128.5 335.5,-128.5 335.5,-98.5 189.5,-98.5"/>
<text text-anchor="start" x="197.5" y="-116.5" font-family="Helvetica,sans-Serif" font-size="10.00">as_automatics_templates.</text>
<text text-anchor="middle" x="262.5" y="-105.5" font-family="Helvetica,sans-Serif" font-size="10.00">AXISlaveRegisterInterface</text>
</a>
</g>
</g>
<!-- Node1&#45;&gt;Node7 -->
<g id="edge6" class="edge">
<title>Node1&#45;&gt;Node7</title>
<path fill="none" stroke="midnightblue" d="M110.02,-167.03C129.55,-157.71 153.73,-146.8 176,-138.5 185.42,-134.99 195.57,-131.65 205.47,-128.62"/>
<polygon fill="midnightblue" stroke="midnightblue" points="108.33,-163.97 100.84,-171.46 111.37,-170.27 108.33,-163.97"/>
</g>
<!-- Node8 -->
<g id="node8" class="node">
<title>Node8</title>
<g id="a_node8"><a xlink:href="classas__automatics__templates_1_1_camera_input_o_v7670.html" target="_top" xlink:title="Template definition for the Camera interface used by the OmniiVision OV7670 camera sensor.">
<polygon fill="none" stroke="black" points="189.5,-49.5 189.5,-79.5 335.5,-79.5 335.5,-49.5 189.5,-49.5"/>
<text text-anchor="start" x="197.5" y="-67.5" font-family="Helvetica,sans-Serif" font-size="10.00">as_automatics_templates.</text>
<text text-anchor="middle" x="262.5" y="-56.5" font-family="Helvetica,sans-Serif" font-size="10.00">CameraInputOV7670</text>
</a>
</g>
</g>
<!-- Node1&#45;&gt;Node8 -->
<g id="edge7" class="edge">
<title>Node1&#45;&gt;Node8</title>
<path fill="none" stroke="midnightblue" d="M89.86,-163.82C109.3,-141.82 141.57,-108.99 176,-89.5 182.73,-85.69 190.09,-82.42 197.58,-79.61"/>
<polygon fill="midnightblue" stroke="midnightblue" points="87.2,-161.54 83.29,-171.39 92.49,-166.13 87.2,-161.54"/>
</g>
<!-- Node9 -->
<g id="node9" class="node">
<title>Node9</title>
<g id="a_node9"><a xlink:href="classas__automatics__templates_1_1_slave_register_interface_template.html" target="_top" xlink:title="Template definition of the ASTERICS slave register interface.">
<polygon fill="none" stroke="black" points="176,-0.5 176,-30.5 349,-30.5 349,-0.5 176,-0.5"/>
<text text-anchor="start" x="184" y="-18.5" font-family="Helvetica,sans-Serif" font-size="10.00">as_automatics_templates.</text>
<text text-anchor="middle" x="262.5" y="-7.5" font-family="Helvetica,sans-Serif" font-size="10.00">SlaveRegisterInterfaceTemplate</text>
</a>
</g>
</g>
<!-- Node1&#45;&gt;Node9 -->
<g id="edge8" class="edge">
<title>Node1&#45;&gt;Node9</title>
<path fill="none" stroke="midnightblue" d="M82.26,-161.83C98.41,-129.23 131.19,-72.21 176,-40.5 181.43,-36.66 187.45,-33.4 193.7,-30.64"/>
<polygon fill="midnightblue" stroke="midnightblue" points="78.98,-160.59 77.79,-171.11 85.29,-163.62 78.98,-160.59"/>
</g>
</g>
</svg>
