<?xml version="1.0" encoding="UTF-8" standalone="no"?>
<!DOCTYPE svg PUBLIC "-//W3C//DTD SVG 1.1//EN"
 "http://www.w3.org/Graphics/SVG/1.1/DTD/svg11.dtd">
<!-- Generated by graphviz version 2.43.0 (0)
 -->
<!-- Title: Graphical Class Hierarchy Pages: 1 -->
<svg width="628pt" height="284pt"
 viewBox="0.00 0.00 628.00 284.00" xmlns="http://www.w3.org/2000/svg" xmlns:xlink="http://www.w3.org/1999/xlink">
<g id="graph0" class="graph" transform="scale(1 1) rotate(0) translate(4 280)">
<title>Graphical Class Hierarchy</title>
<!-- Node37 -->
<g id="node1" class="node">
<title>Node37</title>
<g id="a_node1"><a xlink:title=" ">
<polygon fill="none" stroke="#bfbfbf" points="0,-153 0,-172 65,-172 65,-153 0,-153"/>
<text text-anchor="middle" x="32.5" y="-160" font-family="Helvetica,sans-Serif" font-size="10.00">Exception</text>
</a>
</g>
</g>
<!-- Node0 -->
<g id="node2" class="node">
<title>Node0</title>
<g id="a_node2"><a xlink:href="classas__automatics__exceptions_1_1_as_error.html" target="_top" xlink:title="Base exception class for all Automatics exceptions.">
<polygon fill="none" stroke="black" points="101,-147.5 101,-177.5 250,-177.5 250,-147.5 101,-147.5"/>
<text text-anchor="start" x="109" y="-165.5" font-family="Helvetica,sans-Serif" font-size="10.00">as_automatics_exceptions.</text>
<text text-anchor="middle" x="175.5" y="-154.5" font-family="Helvetica,sans-Serif" font-size="10.00">AsError</text>
</a>
</g>
</g>
<!-- Node37&#45;&gt;Node0 -->
<g id="edge1" class="edge">
<title>Node37&#45;&gt;Node0</title>
<path fill="none" stroke="midnightblue" d="M75.38,-162.5C83.47,-162.5 92.16,-162.5 100.91,-162.5"/>
<polygon fill="midnightblue" stroke="midnightblue" points="75.14,-159 65.14,-162.5 75.14,-166 75.14,-159"/>
</g>
<!-- Node1 -->
<g id="node3" class="node">
<title>Node1</title>
<g id="a_node3"><a xlink:href="classas__automatics__exceptions_1_1_as_object_error.html" target="_top" xlink:title="Generic Automatics exception class concerning a specific object.">
<polygon fill="none" stroke="black" points="286,-196.5 286,-226.5 435,-226.5 435,-196.5 286,-196.5"/>
<text text-anchor="start" x="294" y="-214.5" font-family="Helvetica,sans-Serif" font-size="10.00">as_automatics_exceptions.</text>
<text text-anchor="middle" x="360.5" y="-203.5" font-family="Helvetica,sans-Serif" font-size="10.00">AsObjectError</text>
</a>
</g>
</g>
<!-- Node0&#45;&gt;Node1 -->
<g id="edge2" class="edge">
<title>Node0&#45;&gt;Node1</title>
<path fill="none" stroke="midnightblue" d="M242.79,-180.25C262.62,-185.56 284.17,-191.33 303.29,-196.45"/>
<polygon fill="midnightblue" stroke="midnightblue" points="243.46,-176.81 232.9,-177.6 241.65,-183.57 243.46,-176.81"/>
</g>
<!-- Node4 -->
<g id="node6" class="node">
<title>Node4</title>
<g id="a_node6"><a xlink:href="classas__automatics__exceptions_1_1_as_text_error.html" target="_top" xlink:title="Generic Automatics exception class with additional textual info.">
<polygon fill="none" stroke="black" points="286,-98.5 286,-128.5 435,-128.5 435,-98.5 286,-98.5"/>
<text text-anchor="start" x="294" y="-116.5" font-family="Helvetica,sans-Serif" font-size="10.00">as_automatics_exceptions.</text>
<text text-anchor="middle" x="360.5" y="-105.5" font-family="Helvetica,sans-Serif" font-size="10.00">AsTextError</text>
</a>
</g>
</g>
<!-- Node0&#45;&gt;Node4 -->
<g id="edge5" class="edge">
<title>Node0&#45;&gt;Node4</title>
<path fill="none" stroke="midnightblue" d="M242.79,-144.75C262.62,-139.44 284.17,-133.67 303.29,-128.55"/>
<polygon fill="midnightblue" stroke="midnightblue" points="241.65,-141.43 232.9,-147.4 243.46,-148.19 241.65,-141.43"/>
</g>
<!-- Node2 -->
<g id="node4" class="node">
<title>Node2</title>
<g id="a_node4"><a xlink:href="classas__automatics__exceptions_1_1_as_assign_error.html" target="_top" xlink:title="Automatics error class: AsAssignError Signifies a problem/error while assigning objects to each other...">
<polygon fill="none" stroke="black" points="471,-245.5 471,-275.5 620,-275.5 620,-245.5 471,-245.5"/>
<text text-anchor="start" x="479" y="-263.5" font-family="Helvetica,sans-Serif" font-size="10.00">as_automatics_exceptions.</text>
<text text-anchor="middle" x="545.5" y="-252.5" font-family="Helvetica,sans-Serif" font-size="10.00">AsAssignError</text>
</a>
</g>
</g>
<!-- Node1&#45;&gt;Node2 -->
<g id="edge3" class="edge">
<title>Node1&#45;&gt;Node2</title>
<path fill="none" stroke="midnightblue" d="M427.79,-229.25C447.62,-234.56 469.17,-240.33 488.29,-245.45"/>
<polygon fill="midnightblue" stroke="midnightblue" points="428.46,-225.81 417.9,-226.6 426.65,-232.57 428.46,-225.81"/>
</g>
<!-- Node3 -->
<g id="node5" class="node">
<title>Node3</title>
<g id="a_node5"><a xlink:href="classas__automatics__exceptions_1_1_as_connection_error.html" target="_top" xlink:title="Automatics error class: AsConnectionError Signifies a problem/error with a port, interface or module ...">
<polygon fill="none" stroke="black" points="471,-196.5 471,-226.5 620,-226.5 620,-196.5 471,-196.5"/>
<text text-anchor="start" x="479" y="-214.5" font-family="Helvetica,sans-Serif" font-size="10.00">as_automatics_exceptions.</text>
<text text-anchor="middle" x="545.5" y="-203.5" font-family="Helvetica,sans-Serif" font-size="10.00">AsConnectionError</text>
</a>
</g>
</g>
<!-- Node1&#45;&gt;Node3 -->
<g id="edge4" class="edge">
<title>Node1&#45;&gt;Node3</title>
<path fill="none" stroke="midnightblue" d="M445.39,-211.5C453.84,-211.5 462.38,-211.5 470.71,-211.5"/>
<polygon fill="midnightblue" stroke="midnightblue" points="445.14,-208 435.14,-211.5 445.14,-215 445.14,-208"/>
</g>
<!-- Node5 -->
<g id="node7" class="node">
<title>Node5</title>
<g id="a_node7"><a xlink:href="classas__automatics__exceptions_1_1_as_analysis_error.html" target="_top" xlink:title="Automatics error class: AsAnalysisError Signifies a problem/error while analysing VHDL code.">
<polygon fill="none" stroke="black" points="471,-147.5 471,-177.5 620,-177.5 620,-147.5 471,-147.5"/>
<text text-anchor="start" x="479" y="-165.5" font-family="Helvetica,sans-Serif" font-size="10.00">as_automatics_exceptions.</text>
<text text-anchor="middle" x="545.5" y="-154.5" font-family="Helvetica,sans-Serif" font-size="10.00">AsAnalysisError</text>
</a>
</g>
</g>
<!-- Node4&#45;&gt;Node5 -->
<g id="edge6" class="edge">
<title>Node4&#45;&gt;Node5</title>
<path fill="none" stroke="midnightblue" d="M427.79,-131.25C447.62,-136.56 469.17,-142.33 488.29,-147.45"/>
<polygon fill="midnightblue" stroke="midnightblue" points="428.46,-127.81 417.9,-128.6 426.65,-134.57 428.46,-127.81"/>
</g>
<!-- Node6 -->
<g id="node8" class="node">
<title>Node6</title>
<g id="a_node8"><a xlink:href="classas__automatics__exceptions_1_1_as_file_error.html" target="_top" xlink:title="Automatics error class: AsFileError Signifies a problem/error with a file object.">
<polygon fill="none" stroke="black" points="471,-98.5 471,-128.5 620,-128.5 620,-98.5 471,-98.5"/>
<text text-anchor="start" x="479" y="-116.5" font-family="Helvetica,sans-Serif" font-size="10.00">as_automatics_exceptions.</text>
<text text-anchor="middle" x="545.5" y="-105.5" font-family="Helvetica,sans-Serif" font-size="10.00">AsFileError</text>
</a>
</g>
</g>
<!-- Node4&#45;&gt;Node6 -->
<g id="edge7" class="edge">
<title>Node4&#45;&gt;Node6</title>
<path fill="none" stroke="midnightblue" d="M445.39,-113.5C453.84,-113.5 462.38,-113.5 470.71,-113.5"/>
<polygon fill="midnightblue" stroke="midnightblue" points="445.14,-110 435.14,-113.5 445.14,-117 445.14,-110"/>
</g>
<!-- Node7 -->
<g id="node9" class="node">
<title>Node7</title>
<g id="a_node9"><a xlink:href="classas__automatics__exceptions_1_1_as_module_error.html" target="_top" xlink:title="Automatics error class: AsModuleError Signifies a problem/error with an AsModule object.">
<polygon fill="none" stroke="black" points="471,-49.5 471,-79.5 620,-79.5 620,-49.5 471,-49.5"/>
<text text-anchor="start" x="479" y="-67.5" font-family="Helvetica,sans-Serif" font-size="10.00">as_automatics_exceptions.</text>
<text text-anchor="middle" x="545.5" y="-56.5" font-family="Helvetica,sans-Serif" font-size="10.00">AsModuleError</text>
</a>
</g>
</g>
<!-- Node4&#45;&gt;Node7 -->
<g id="edge8" class="edge">
<title>Node4&#45;&gt;Node7</title>
<path fill="none" stroke="midnightblue" d="M427.79,-95.75C447.62,-90.44 469.17,-84.67 488.29,-79.55"/>
<polygon fill="midnightblue" stroke="midnightblue" points="426.65,-92.43 417.9,-98.4 428.46,-99.19 426.65,-92.43"/>
</g>
<!-- Node8 -->
<g id="node10" class="node">
<title>Node8</title>
<g id="a_node10"><a xlink:href="classas__automatics__exceptions_1_1_as_name_error.html" target="_top" xlink:title="Automatics error class: AsNameError Signifies a problem/error with a port/module/etc.">
<polygon fill="none" stroke="black" points="471,-0.5 471,-30.5 620,-30.5 620,-0.5 471,-0.5"/>
<text text-anchor="start" x="479" y="-18.5" font-family="Helvetica,sans-Serif" font-size="10.00">as_automatics_exceptions.</text>
<text text-anchor="middle" x="545.5" y="-7.5" font-family="Helvetica,sans-Serif" font-size="10.00">AsNameError</text>
</a>
</g>
</g>
<!-- Node4&#45;&gt;Node8 -->
<g id="edge9" class="edge">
<title>Node4&#45;&gt;Node8</title>
<path fill="none" stroke="midnightblue" d="M389.03,-92.21C410.47,-76.37 441.46,-55.06 471,-40.5 478.37,-36.87 486.41,-33.54 494.37,-30.59"/>
<polygon fill="midnightblue" stroke="midnightblue" points="386.65,-89.62 380.74,-98.41 390.84,-95.22 386.65,-89.62"/>
</g>
</g>
</svg>
