<?xml version="1.0" encoding="UTF-8" standalone="no"?>
<!DOCTYPE svg PUBLIC "-//W3C//DTD SVG 1.1//EN"
 "http://www.w3.org/Graphics/SVG/1.1/DTD/svg11.dtd">
<!-- Generated by graphviz version 2.43.0 (0)
 -->
<!-- Title: Graphical Class Hierarchy Pages: 1 -->
<svg width="324pt" height="218pt"
 viewBox="0.00 0.00 324.00 218.00" xmlns="http://www.w3.org/2000/svg" xmlns:xlink="http://www.w3.org/1999/xlink">
<g id="graph0" class="graph" transform="scale(1 1) rotate(0) translate(4 214)">
<title>Graphical Class Hierarchy</title>
<!-- Node4 -->
<g id="node1" class="node">
<title>Node4</title>
<g id="a_node1"><a xlink:title=" ">
<polygon fill="none" stroke="#bfbfbf" points="0,-95.5 0,-114.5 82,-114.5 82,-95.5 0,-95.5"/>
<text text-anchor="middle" x="41" y="-102.5" font-family="Helvetica,sans-Serif" font-size="10.00">QWizardPage</text>
</a>
</g>
</g>
<!-- Node0 -->
<g id="node2" class="node">
<title>Node0</title>
<g id="a_node2"><a xlink:href="classmain__gui_1_1_wizard_1_1_choose_module_page.html" target="_top" xlink:title=" ">
<polygon fill="none" stroke="black" points="118.5,-190.5 118.5,-209.5 315.5,-209.5 315.5,-190.5 118.5,-190.5"/>
<text text-anchor="middle" x="217" y="-197.5" font-family="Helvetica,sans-Serif" font-size="10.00">main_gui.Wizard.ChooseModulePage</text>
</a>
</g>
</g>
<!-- Node4&#45;&gt;Node0 -->
<g id="edge1" class="edge">
<title>Node4&#45;&gt;Node0</title>
<path fill="none" stroke="midnightblue" d="M54.9,-123.11C68.51,-140.77 91.62,-166.98 118,-181 125.35,-184.9 133.38,-188.01 141.59,-190.48"/>
<polygon fill="midnightblue" stroke="midnightblue" points="57.46,-120.68 48.68,-114.75 51.85,-124.86 57.46,-120.68"/>
</g>
<!-- Node6 -->
<g id="node3" class="node">
<title>Node6</title>
<g id="a_node3"><a xlink:href="classmain__gui_1_1_wizard_1_1_connexion_page.html" target="_top" xlink:title=" ">
<polygon fill="none" stroke="black" points="128.5,-152.5 128.5,-171.5 305.5,-171.5 305.5,-152.5 128.5,-152.5"/>
<text text-anchor="middle" x="217" y="-159.5" font-family="Helvetica,sans-Serif" font-size="10.00">main_gui.Wizard.ConnexionPage</text>
</a>
</g>
</g>
<!-- Node4&#45;&gt;Node6 -->
<g id="edge2" class="edge">
<title>Node4&#45;&gt;Node6</title>
<path fill="none" stroke="midnightblue" d="M66.88,-119.6C81.37,-127.55 100.24,-136.97 118,-143 129.16,-146.79 141.3,-149.91 153.12,-152.44"/>
<polygon fill="midnightblue" stroke="midnightblue" points="68.48,-116.49 58.05,-114.64 65.05,-122.59 68.48,-116.49"/>
</g>
<!-- Node7 -->
<g id="node4" class="node">
<title>Node7</title>
<g id="a_node4"><a xlink:href="classmain__gui_1_1_wizard_1_1_existed_system_page.html" target="_top" xlink:title=" ">
<polygon fill="none" stroke="black" points="118,-114.5 118,-133.5 316,-133.5 316,-114.5 118,-114.5"/>
<text text-anchor="middle" x="217" y="-121.5" font-family="Helvetica,sans-Serif" font-size="10.00">main_gui.Wizard.ExistedSystemPage</text>
</a>
</g>
</g>
<!-- Node4&#45;&gt;Node7 -->
<g id="edge3" class="edge">
<title>Node4&#45;&gt;Node7</title>
<path fill="none" stroke="midnightblue" d="M92.51,-110.52C103.92,-111.76 116.34,-113.12 128.78,-114.48"/>
<polygon fill="midnightblue" stroke="midnightblue" points="92.68,-107.01 82.36,-109.41 91.92,-113.97 92.68,-107.01"/>
</g>
<!-- Node8 -->
<g id="node5" class="node">
<title>Node8</title>
<g id="a_node5"><a xlink:href="classmain__gui_1_1_wizard_1_1_input_page.html" target="_top" xlink:title=" ">
<polygon fill="none" stroke="black" points="142,-76.5 142,-95.5 292,-95.5 292,-76.5 142,-76.5"/>
<text text-anchor="middle" x="217" y="-83.5" font-family="Helvetica,sans-Serif" font-size="10.00">main_gui.Wizard.InputPage</text>
</a>
</g>
</g>
<!-- Node4&#45;&gt;Node8 -->
<g id="edge4" class="edge">
<title>Node4&#45;&gt;Node8</title>
<path fill="none" stroke="midnightblue" d="M92.65,-99.47C107.98,-97.79 125.16,-95.92 141.7,-94.11"/>
<polygon fill="midnightblue" stroke="midnightblue" points="91.92,-96.03 82.36,-100.59 92.68,-102.99 91.92,-96.03"/>
</g>
<!-- Node9 -->
<g id="node6" class="node">
<title>Node9</title>
<g id="a_node6"><a xlink:href="classmain__gui_1_1_wizard_1_1_intro_page.html" target="_top" xlink:title=" ">
<polygon fill="none" stroke="black" points="143,-38.5 143,-57.5 291,-57.5 291,-38.5 143,-38.5"/>
<text text-anchor="middle" x="217" y="-45.5" font-family="Helvetica,sans-Serif" font-size="10.00">main_gui.Wizard.IntroPage</text>
</a>
</g>
</g>
<!-- Node4&#45;&gt;Node9 -->
<g id="edge5" class="edge">
<title>Node4&#45;&gt;Node9</title>
<path fill="none" stroke="midnightblue" d="M66.88,-90.4C81.37,-82.45 100.24,-73.03 118,-67 129.16,-63.21 141.3,-60.09 153.12,-57.56"/>
<polygon fill="midnightblue" stroke="midnightblue" points="65.05,-87.41 58.05,-95.36 68.48,-93.51 65.05,-87.41"/>
</g>
<!-- Node10 -->
<g id="node7" class="node">
<title>Node10</title>
<g id="a_node7"><a xlink:href="classmain__gui_1_1_wizard_1_1_output_page.html" target="_top" xlink:title=" ">
<polygon fill="none" stroke="black" points="138,-0.5 138,-19.5 296,-19.5 296,-0.5 138,-0.5"/>
<text text-anchor="middle" x="217" y="-7.5" font-family="Helvetica,sans-Serif" font-size="10.00">main_gui.Wizard.OutputPage</text>
</a>
</g>
</g>
<!-- Node4&#45;&gt;Node10 -->
<g id="edge6" class="edge">
<title>Node4&#45;&gt;Node10</title>
<path fill="none" stroke="midnightblue" d="M54.9,-86.89C68.51,-69.23 91.62,-43.02 118,-29 125.35,-25.1 133.38,-21.99 141.59,-19.52"/>
<polygon fill="midnightblue" stroke="midnightblue" points="51.85,-85.14 48.68,-95.25 57.46,-89.32 51.85,-85.14"/>
</g>
</g>
</svg>
