<?xml version="1.0" encoding="UTF-8" standalone="no"?>
<!DOCTYPE svg PUBLIC "-//W3C//DTD SVG 1.1//EN"
 "http://www.w3.org/Graphics/SVG/1.1/DTD/svg11.dtd">
<!-- Generated by graphviz version 2.43.0 (0)
 -->
<!-- Title: Graphical Class Hierarchy Pages: 1 -->
<svg width="542pt" height="78pt"
 viewBox="0.00 0.00 542.00 77.50" xmlns="http://www.w3.org/2000/svg" xmlns:xlink="http://www.w3.org/1999/xlink">
<g id="graph0" class="graph" transform="scale(1 1) rotate(0) translate(4 73.5)">
<title>Graphical Class Hierarchy</title>
<!-- Node0 -->
<g id="node1" class="node">
<title>Node0</title>
<g id="a_node1"><a xlink:href="classas__automatics__port_1_1_port.html" target="_top" xlink:title="Class representing a VHDL Port.">
<polygon fill="none" stroke="black" points="0,-28 0,-47 135,-47 135,-28 0,-28"/>
<text text-anchor="middle" x="67.5" y="-35" font-family="Helvetica,sans-Serif" font-size="10.00">as_automatics_port.Port</text>
</a>
</g>
</g>
<!-- Node1 -->
<g id="node2" class="node">
<title>Node1</title>
<g id="a_node2"><a xlink:href="classas__automatics__port_1_1_standard_port.html" target="_top" xlink:title="Slight variation of the regular Port class.">
<polygon fill="none" stroke="black" points="171,-50 171,-69 350,-69 350,-50 171,-50"/>
<text text-anchor="middle" x="260.5" y="-57" font-family="Helvetica,sans-Serif" font-size="10.00">as_automatics_port.StandardPort</text>
</a>
</g>
</g>
<!-- Node0&#45;&gt;Node1 -->
<g id="edge1" class="edge">
<title>Node0&#45;&gt;Node1</title>
<path fill="none" stroke="midnightblue" d="M145.27,-46.34C155.62,-47.53 166.28,-48.76 176.73,-49.97"/>
<polygon fill="midnightblue" stroke="midnightblue" points="145.37,-42.83 135.03,-45.16 144.57,-49.79 145.37,-42.83"/>
</g>
<!-- Node2 -->
<g id="node3" class="node">
<title>Node2</title>
<g id="a_node3"><a xlink:href="classas__automatics__signal_1_1_generic_signal.html" target="_top" xlink:title="Variation of the as_automatics_port::Port class, representing a VHDL signal.">
<polygon fill="none" stroke="black" points="179,-0.5 179,-30.5 342,-30.5 342,-0.5 179,-0.5"/>
<text text-anchor="start" x="187" y="-18.5" font-family="Helvetica,sans-Serif" font-size="10.00">as_automatics_signal.Generic</text>
<text text-anchor="middle" x="260.5" y="-7.5" font-family="Helvetica,sans-Serif" font-size="10.00">Signal</text>
</a>
</g>
</g>
<!-- Node0&#45;&gt;Node2 -->
<g id="edge2" class="edge">
<title>Node0&#45;&gt;Node2</title>
<path fill="none" stroke="midnightblue" d="M145.09,-28.68C156.16,-27.4 167.59,-26.09 178.74,-24.8"/>
<polygon fill="midnightblue" stroke="midnightblue" points="144.57,-25.21 135.03,-29.84 145.37,-32.17 144.57,-25.21"/>
</g>
<!-- Node3 -->
<g id="node4" class="node">
<title>Node3</title>
<g id="a_node4"><a xlink:href="classas__automatics__signal_1_1_glue_signal.html" target="_top" xlink:title="Variation of as_automatics_port::Port representing a glue signal.">
<polygon fill="none" stroke="black" points="386,-0.5 386,-30.5 534,-30.5 534,-0.5 386,-0.5"/>
<text text-anchor="start" x="394" y="-18.5" font-family="Helvetica,sans-Serif" font-size="10.00">as_automatics_signal.Glue</text>
<text text-anchor="middle" x="460" y="-7.5" font-family="Helvetica,sans-Serif" font-size="10.00">Signal</text>
</a>
</g>
</g>
<!-- Node2&#45;&gt;Node3 -->
<g id="edge3" class="edge">
<title>Node2&#45;&gt;Node3</title>
<path fill="none" stroke="midnightblue" d="M352.39,-15.5C363.63,-15.5 375.01,-15.5 385.94,-15.5"/>
<polygon fill="midnightblue" stroke="midnightblue" points="352.12,-12 342.12,-15.5 352.12,-19 352.12,-12"/>
</g>
</g>
</svg>
