<?xml version="1.0" encoding="UTF-8" standalone="no"?>
<!DOCTYPE svg PUBLIC "-//W3C//DTD SVG 1.1//EN"
 "http://www.w3.org/Graphics/SVG/1.1/DTD/svg11.dtd">
<!-- Generated by graphviz version 2.43.0 (0)
 -->
<!-- Title: write_config_picam_iic Pages: 1 -->
<svg width="423pt" height="66pt"
 viewBox="0.00 0.00 423.00 66.00" xmlns="http://www.w3.org/2000/svg" xmlns:xlink="http://www.w3.org/1999/xlink">
<g id="graph0" class="graph" transform="scale(1 1) rotate(0) translate(4 62)">
<title>write_config_picam_iic</title>
<!-- Node1 -->
<g id="node1" class="node">
<title>Node1</title>
<g id="a_node1"><a xlink:title=" ">
<polygon fill="#bfbfbf" stroke="black" points="287,-19.5 287,-38.5 415,-38.5 415,-19.5 287,-19.5"/>
<text text-anchor="middle" x="351" y="-26.5" font-family="Helvetica,sans-Serif" font-size="10.00">write_config_picam_iic</text>
</a>
</g>
</g>
<!-- Node2 -->
<g id="node2" class="node">
<title>Node2</title>
<g id="a_node2"><a xlink:href="as__picam_8c.html#aa33c23d23cf605e74e92736738d8868a" target="_top" xlink:title=" ">
<polygon fill="none" stroke="black" points="120,-38.5 120,-57.5 251,-57.5 251,-38.5 120,-38.5"/>
<text text-anchor="middle" x="185.5" y="-45.5" font-family="Helvetica,sans-Serif" font-size="10.00">configure_picam_v1_iic</text>
</a>
</g>
</g>
<!-- Node1&#45;&gt;Node2 -->
<g id="edge1" class="edge">
<title>Node1&#45;&gt;Node2</title>
<path fill="none" stroke="midnightblue" d="M276.83,-37.5C268.27,-38.5 259.59,-39.51 251.17,-40.49"/>
<polygon fill="midnightblue" stroke="midnightblue" points="277.26,-40.98 286.79,-36.35 276.45,-34.02 277.26,-40.98"/>
</g>
<!-- Node4 -->
<g id="node4" class="node">
<title>Node4</title>
<g id="a_node4"><a xlink:href="as__picam_8c.html#a3c9489873b0ecdb233db0ef89ac1ed56" target="_top" xlink:title=" ">
<polygon fill="none" stroke="black" points="120,-0.5 120,-19.5 251,-19.5 251,-0.5 120,-0.5"/>
<text text-anchor="middle" x="185.5" y="-7.5" font-family="Helvetica,sans-Serif" font-size="10.00">configure_picam_v2_iic</text>
</a>
</g>
</g>
<!-- Node1&#45;&gt;Node4 -->
<g id="edge3" class="edge">
<title>Node1&#45;&gt;Node4</title>
<path fill="none" stroke="midnightblue" d="M276.83,-20.5C268.27,-19.5 259.59,-18.49 251.17,-17.51"/>
<polygon fill="midnightblue" stroke="midnightblue" points="276.45,-23.98 286.79,-21.65 277.26,-17.02 276.45,-23.98"/>
</g>
<!-- Node3 -->
<g id="node3" class="node">
<title>Node3</title>
<g id="a_node3"><a xlink:href="group__as__picam.html#ga1915a83ea7a34b18d53f9ece09cc5bf5" target="_top" xlink:title=" ">
<polygon fill="none" stroke="black" points="0,-19.5 0,-38.5 84,-38.5 84,-19.5 0,-19.5"/>
<text text-anchor="middle" x="42" y="-26.5" font-family="Helvetica,sans-Serif" font-size="10.00">as_picam_init</text>
</a>
</g>
</g>
<!-- Node2&#45;&gt;Node3 -->
<g id="edge2" class="edge">
<title>Node2&#45;&gt;Node3</title>
<path fill="none" stroke="midnightblue" d="M110.01,-38C101.2,-36.81 92.47,-35.64 84.36,-34.55"/>
<polygon fill="midnightblue" stroke="midnightblue" points="109.58,-41.47 119.96,-39.33 110.52,-34.53 109.58,-41.47"/>
</g>
<!-- Node4&#45;&gt;Node3 -->
<g id="edge4" class="edge">
<title>Node4&#45;&gt;Node3</title>
<path fill="none" stroke="midnightblue" d="M110.01,-20C101.2,-21.19 92.47,-22.36 84.36,-23.45"/>
<polygon fill="midnightblue" stroke="midnightblue" points="110.52,-23.47 119.96,-18.67 109.58,-16.53 110.52,-23.47"/>
</g>
</g>
</svg>
