<?xml version="1.0" encoding="UTF-8" standalone="no"?>
<!DOCTYPE svg PUBLIC "-//W3C//DTD SVG 1.1//EN"
 "http://www.w3.org/Graphics/SVG/1.1/DTD/svg11.dtd">
<!-- Generated by graphviz version 2.43.0 (0)
 -->
<!-- Title: as_unmap_single Pages: 1 -->
<svg width="674pt" height="218pt"
 viewBox="0.00 0.00 674.00 218.00" xmlns="http://www.w3.org/2000/svg" xmlns:xlink="http://www.w3.org/1999/xlink">
<g id="graph0" class="graph" transform="scale(1 1) rotate(0) translate(4 214)">
<title>as_unmap_single</title>
<!-- Node1 -->
<g id="node1" class="node">
<title>Node1</title>
<g id="a_node1"><a xlink:title="Unmap DMA address at end of transfer.">
<polygon fill="#bfbfbf" stroke="black" points="565,-76.5 565,-95.5 666,-95.5 666,-76.5 565,-76.5"/>
<text text-anchor="middle" x="615.5" y="-83.5" font-family="Helvetica,sans-Serif" font-size="10.00">as_unmap_single</text>
</a>
</g>
</g>
<!-- Node2 -->
<g id="node2" class="node">
<title>Node2</title>
<g id="a_node2"><a xlink:href="group__as__buffer.html#ga4be2b60d2ac888f473e52f39c9492368" target="_top" xlink:title=" ">
<polygon fill="none" stroke="black" points="385.5,-133.5 385.5,-152.5 516.5,-152.5 516.5,-133.5 385.5,-133.5"/>
<text text-anchor="middle" x="451" y="-140.5" font-family="Helvetica,sans-Serif" font-size="10.00">as_buffer_update_state</text>
</a>
</g>
</g>
<!-- Node1&#45;&gt;Node2 -->
<g id="edge1" class="edge">
<title>Node1&#45;&gt;Node2</title>
<path fill="none" stroke="midnightblue" d="M577.64,-98.93C547.74,-109.42 506.27,-123.96 479.29,-133.43"/>
<polygon fill="midnightblue" stroke="midnightblue" points="579.02,-102.15 587.3,-95.54 576.71,-95.55 579.02,-102.15"/>
</g>
<!-- Node7 -->
<g id="node7" class="node">
<title>Node7</title>
<g id="a_node7"><a xlink:href="as__memio_8c.html#ab93cfbaa1058ea83836b6d052e72ad50" target="_top" xlink:title=" ">
<polygon fill="none" stroke="black" points="374.5,-76.5 374.5,-95.5 527.5,-95.5 527.5,-76.5 374.5,-76.5"/>
<text text-anchor="middle" x="451" y="-83.5" font-family="Helvetica,sans-Serif" font-size="10.00">as_memio_hw_read_update</text>
</a>
</g>
</g>
<!-- Node1&#45;&gt;Node7 -->
<g id="edge8" class="edge">
<title>Node1&#45;&gt;Node7</title>
<path fill="none" stroke="midnightblue" d="M554.72,-86C545.91,-86 536.74,-86 527.67,-86"/>
<polygon fill="midnightblue" stroke="midnightblue" points="554.86,-89.5 564.86,-86 554.86,-82.5 554.86,-89.5"/>
</g>
<!-- Node12 -->
<g id="node12" class="node">
<title>Node12</title>
<g id="a_node12"><a xlink:href="as__memio_8c.html#a3ae0453041c4a6d406955edd9c7e43f3" target="_top" xlink:title=" ">
<polygon fill="none" stroke="black" points="373,-38.5 373,-57.5 529,-57.5 529,-38.5 373,-38.5"/>
<text text-anchor="middle" x="451" y="-45.5" font-family="Helvetica,sans-Serif" font-size="10.00">as_memio_hw_write_update</text>
</a>
</g>
</g>
<!-- Node1&#45;&gt;Node12 -->
<g id="edge13" class="edge">
<title>Node1&#45;&gt;Node12</title>
<path fill="none" stroke="midnightblue" d="M563.63,-74.1C540.79,-68.76 514.2,-62.55 492.71,-57.52"/>
<polygon fill="midnightblue" stroke="midnightblue" points="562.96,-77.54 573.49,-76.41 564.55,-70.73 562.96,-77.54"/>
</g>
<!-- Node3 -->
<g id="node3" class="node">
<title>Node3</title>
<g id="a_node3"><a xlink:href="group__mmap__file__ops.html#gac0196baed6a0a2e62c8c9c3aa2680af4" target="_top" xlink:title=" ">
<polygon fill="none" stroke="black" points="167,-152.5 167,-171.5 337,-171.5 337,-152.5 167,-152.5"/>
<text text-anchor="middle" x="252" y="-159.5" font-family="Helvetica,sans-Serif" font-size="10.00">as_mmap_wait_for_completion</text>
</a>
</g>
</g>
<!-- Node2&#45;&gt;Node3 -->
<g id="edge2" class="edge">
<title>Node2&#45;&gt;Node3</title>
<path fill="none" stroke="midnightblue" d="M375.17,-150.22C362.7,-151.42 349.7,-152.67 337.02,-153.9"/>
<polygon fill="midnightblue" stroke="midnightblue" points="375.88,-153.67 385.49,-149.22 375.2,-146.7 375.88,-153.67"/>
</g>
<!-- Node5 -->
<g id="node5" class="node">
<title>Node5</title>
<g id="a_node5"><a xlink:href="group__mmap__file__ops.html#gae18f99f9774b7224e71d80209ecd0bf4" target="_top" xlink:title=" ">
<polygon fill="none" stroke="black" points="3,-190.5 3,-209.5 128,-209.5 128,-190.5 3,-190.5"/>
<text text-anchor="middle" x="65.5" y="-197.5" font-family="Helvetica,sans-Serif" font-size="10.00">driver_as_mmap_read</text>
</a>
</g>
</g>
<!-- Node2&#45;&gt;Node5 -->
<g id="edge6" class="edge">
<title>Node2&#45;&gt;Node5</title>
<path fill="none" stroke="midnightblue" d="M417.78,-156.28C395.49,-164.85 364.93,-175.42 337,-181 266.25,-195.14 183.27,-199.16 128.06,-200.11"/>
<polygon fill="midnightblue" stroke="midnightblue" points="419.07,-159.53 427.1,-152.62 416.51,-153.02 419.07,-159.53"/>
</g>
<!-- Node6 -->
<g id="node6" class="node">
<title>Node6</title>
<g id="a_node6"><a xlink:href="group__mmap__file__ops.html#gaeea3980f5b633c4b83ff46b2efc2ea10" target="_top" xlink:title=" ">
<polygon fill="none" stroke="black" points="1.5,-114.5 1.5,-133.5 129.5,-133.5 129.5,-114.5 1.5,-114.5"/>
<text text-anchor="middle" x="65.5" y="-121.5" font-family="Helvetica,sans-Serif" font-size="10.00">driver_as_mmap_write</text>
</a>
</g>
</g>
<!-- Node2&#45;&gt;Node6 -->
<g id="edge7" class="edge">
<title>Node2&#45;&gt;Node6</title>
<path fill="none" stroke="midnightblue" d="M375.1,-139.29C303.62,-135.75 197.13,-130.47 129.79,-127.14"/>
<polygon fill="midnightblue" stroke="midnightblue" points="375.22,-142.8 385.38,-139.8 375.56,-135.81 375.22,-142.8"/>
</g>
<!-- Node4 -->
<g id="node4" class="node">
<title>Node4</title>
<g id="a_node4"><a xlink:href="group__mmap__file__ops.html#gab078c489a563497f4da70a9f6115dfce" target="_top" xlink:title=" ">
<polygon fill="none" stroke="black" points="20,-152.5 20,-171.5 111,-171.5 111,-152.5 20,-152.5"/>
<text text-anchor="middle" x="65.5" y="-159.5" font-family="Helvetica,sans-Serif" font-size="10.00">as_mmap_ioctl</text>
</a>
</g>
</g>
<!-- Node3&#45;&gt;Node4 -->
<g id="edge3" class="edge">
<title>Node3&#45;&gt;Node4</title>
<path fill="none" stroke="midnightblue" d="M156.47,-162C140.68,-162 124.97,-162 111.2,-162"/>
<polygon fill="midnightblue" stroke="midnightblue" points="156.85,-165.5 166.85,-162 156.85,-158.5 156.85,-165.5"/>
</g>
<!-- Node3&#45;&gt;Node5 -->
<g id="edge4" class="edge">
<title>Node3&#45;&gt;Node5</title>
<path fill="none" stroke="midnightblue" d="M194.63,-173.61C168.39,-179.01 137.56,-185.36 112.72,-190.48"/>
<polygon fill="midnightblue" stroke="midnightblue" points="195.35,-177.03 204.44,-171.59 193.94,-170.18 195.35,-177.03"/>
</g>
<!-- Node3&#45;&gt;Node6 -->
<g id="edge5" class="edge">
<title>Node3&#45;&gt;Node6</title>
<path fill="none" stroke="midnightblue" d="M194.63,-150.39C168.39,-144.99 137.56,-138.64 112.72,-133.52"/>
<polygon fill="midnightblue" stroke="midnightblue" points="193.94,-153.82 204.44,-152.41 195.35,-146.97 193.94,-153.82"/>
</g>
<!-- Node8 -->
<g id="node8" class="node">
<title>Node8</title>
<g id="a_node8"><a xlink:href="as__memio_8h.html#a8162b54494988ebca0ff03ff23eddbb7" target="_top" xlink:title=" ">
<polygon fill="none" stroke="black" points="189,-38.5 189,-57.5 315,-57.5 315,-38.5 189,-38.5"/>
<text text-anchor="middle" x="252" y="-45.5" font-family="Helvetica,sans-Serif" font-size="10.00">as_memio_hw_update</text>
</a>
</g>
</g>
<!-- Node7&#45;&gt;Node8 -->
<g id="edge9" class="edge">
<title>Node7&#45;&gt;Node8</title>
<path fill="none" stroke="midnightblue" d="M390.44,-74.51C362.33,-69.09 329.18,-62.69 302.48,-57.54"/>
<polygon fill="midnightblue" stroke="midnightblue" points="390.06,-78 400.54,-76.46 391.39,-71.13 390.06,-78"/>
</g>
<!-- Node10 -->
<g id="node10" class="node">
<title>Node10</title>
<g id="a_node10"><a xlink:href="as__memio_8h.html#affb75145f7c6b1a8baea620d47f62a99" target="_top" xlink:title=" ">
<polygon fill="none" stroke="black" points="204.5,-76.5 204.5,-95.5 299.5,-95.5 299.5,-76.5 204.5,-76.5"/>
<text text-anchor="middle" x="252" y="-83.5" font-family="Helvetica,sans-Serif" font-size="10.00">as_memio_read</text>
</a>
</g>
</g>
<!-- Node7&#45;&gt;Node10 -->
<g id="edge11" class="edge">
<title>Node7&#45;&gt;Node10</title>
<path fill="none" stroke="midnightblue" d="M364.27,-86C342.06,-86 318.98,-86 299.62,-86"/>
<polygon fill="midnightblue" stroke="midnightblue" points="364.4,-89.5 374.4,-86 364.4,-82.5 364.4,-89.5"/>
</g>
<!-- Node9 -->
<g id="node9" class="node">
<title>Node9</title>
<g id="a_node9"><a xlink:href="group__memio__file__ops.html#gab0cee6094e9d25645dcab0b9df045467" target="_top" xlink:title=" ">
<polygon fill="none" stroke="black" points="1.5,-38.5 1.5,-57.5 129.5,-57.5 129.5,-38.5 1.5,-38.5"/>
<text text-anchor="middle" x="65.5" y="-45.5" font-family="Helvetica,sans-Serif" font-size="10.00">driver_as_memio_ioctl</text>
</a>
</g>
</g>
<!-- Node8&#45;&gt;Node9 -->
<g id="edge10" class="edge">
<title>Node8&#45;&gt;Node9</title>
<path fill="none" stroke="midnightblue" d="M178.37,-48C162.28,-48 145.36,-48 129.69,-48"/>
<polygon fill="midnightblue" stroke="midnightblue" points="178.79,-51.5 188.79,-48 178.79,-44.5 178.79,-51.5"/>
</g>
<!-- Node11 -->
<g id="node11" class="node">
<title>Node11</title>
<g id="a_node11"><a xlink:href="group__memio__file__ops.html#gabc26947002eedee4c4557faff325074e" target="_top" xlink:title=" ">
<polygon fill="none" stroke="black" points="1.5,-76.5 1.5,-95.5 129.5,-95.5 129.5,-76.5 1.5,-76.5"/>
<text text-anchor="middle" x="65.5" y="-83.5" font-family="Helvetica,sans-Serif" font-size="10.00">driver_as_memio_read</text>
</a>
</g>
</g>
<!-- Node10&#45;&gt;Node11 -->
<g id="edge12" class="edge">
<title>Node10&#45;&gt;Node11</title>
<path fill="none" stroke="midnightblue" d="M194.35,-86C173.91,-86 150.73,-86 129.77,-86"/>
<polygon fill="midnightblue" stroke="midnightblue" points="194.44,-89.5 204.44,-86 194.44,-82.5 194.44,-89.5"/>
</g>
<!-- Node12&#45;&gt;Node8 -->
<g id="edge14" class="edge">
<title>Node12&#45;&gt;Node8</title>
<path fill="none" stroke="midnightblue" d="M362.54,-48C346.53,-48 330.12,-48 315.04,-48"/>
<polygon fill="midnightblue" stroke="midnightblue" points="362.99,-51.5 372.99,-48 362.99,-44.5 362.99,-51.5"/>
</g>
<!-- Node13 -->
<g id="node13" class="node">
<title>Node13</title>
<g id="a_node13"><a xlink:href="as__memio_8h.html#ad5dd4d8bd2c20ea07188bcbb36dd0f87" target="_top" xlink:title=" ">
<polygon fill="none" stroke="black" points="203,-0.5 203,-19.5 301,-19.5 301,-0.5 203,-0.5"/>
<text text-anchor="middle" x="252" y="-7.5" font-family="Helvetica,sans-Serif" font-size="10.00">as_memio_write</text>
</a>
</g>
</g>
<!-- Node12&#45;&gt;Node13 -->
<g id="edge15" class="edge">
<title>Node12&#45;&gt;Node13</title>
<path fill="none" stroke="midnightblue" d="M390.65,-36.55C362.02,-31.03 328.11,-24.49 301.12,-19.28"/>
<polygon fill="midnightblue" stroke="midnightblue" points="390.06,-40 400.54,-38.46 391.39,-33.13 390.06,-40"/>
</g>
<!-- Node14 -->
<g id="node14" class="node">
<title>Node14</title>
<g id="a_node14"><a xlink:href="group__memio__file__ops.html#gafff67fc067850f545e90c7e487f4fbce" target="_top" xlink:title=" ">
<polygon fill="none" stroke="black" points="0,-0.5 0,-19.5 131,-19.5 131,-0.5 0,-0.5"/>
<text text-anchor="middle" x="65.5" y="-7.5" font-family="Helvetica,sans-Serif" font-size="10.00">driver_as_memio_write</text>
</a>
</g>
</g>
<!-- Node13&#45;&gt;Node14 -->
<g id="edge16" class="edge">
<title>Node13&#45;&gt;Node14</title>
<path fill="none" stroke="midnightblue" d="M192.3,-10C172.88,-10 151.16,-10 131.3,-10"/>
<polygon fill="midnightblue" stroke="midnightblue" points="192.52,-13.5 202.52,-10 192.52,-6.5 192.52,-13.5"/>
</g>
</g>
</svg>
