<?xml version="1.0" encoding="UTF-8" standalone="no"?>
<!DOCTYPE svg PUBLIC "-//W3C//DTD SVG 1.1//EN"
 "http://www.w3.org/Graphics/SVG/1.1/DTD/svg11.dtd">
<!-- Generated by graphviz version 2.43.0 (0)
 -->
<!-- Title: as_memio_hw_read_update Pages: 1 -->
<svg width="487pt" height="66pt"
 viewBox="0.00 0.00 487.00 66.00" xmlns="http://www.w3.org/2000/svg" xmlns:xlink="http://www.w3.org/1999/xlink">
<g id="graph0" class="graph" transform="scale(1 1) rotate(0) translate(4 62)">
<title>as_memio_hw_read_update</title>
<!-- Node1 -->
<g id="node1" class="node">
<title>Node1</title>
<g id="a_node1"><a xlink:title=" ">
<polygon fill="#bfbfbf" stroke="black" points="326,-19.5 326,-38.5 479,-38.5 479,-19.5 326,-19.5"/>
<text text-anchor="middle" x="402.5" y="-26.5" font-family="Helvetica,sans-Serif" font-size="10.00">as_memio_hw_read_update</text>
</a>
</g>
</g>
<!-- Node2 -->
<g id="node2" class="node">
<title>Node2</title>
<g id="a_node2"><a xlink:href="as__memio_8h.html#a8162b54494988ebca0ff03ff23eddbb7" target="_top" xlink:title=" ">
<polygon fill="none" stroke="black" points="164,-38.5 164,-57.5 290,-57.5 290,-38.5 164,-38.5"/>
<text text-anchor="middle" x="227" y="-45.5" font-family="Helvetica,sans-Serif" font-size="10.00">as_memio_hw_update</text>
</a>
</g>
</g>
<!-- Node1&#45;&gt;Node2 -->
<g id="edge1" class="edge">
<title>Node1&#45;&gt;Node2</title>
<path fill="none" stroke="midnightblue" d="M315.76,-38.39C307.1,-39.34 298.43,-40.29 290.08,-41.2"/>
<polygon fill="midnightblue" stroke="midnightblue" points="316.35,-41.85 325.91,-37.28 315.58,-34.89 316.35,-41.85"/>
</g>
<!-- Node4 -->
<g id="node4" class="node">
<title>Node4</title>
<g id="a_node4"><a xlink:href="as__memio_8h.html#affb75145f7c6b1a8baea620d47f62a99" target="_top" xlink:title=" ">
<polygon fill="none" stroke="black" points="179.5,-0.5 179.5,-19.5 274.5,-19.5 274.5,-0.5 179.5,-0.5"/>
<text text-anchor="middle" x="227" y="-7.5" font-family="Helvetica,sans-Serif" font-size="10.00">as_memio_read</text>
</a>
</g>
</g>
<!-- Node1&#45;&gt;Node4 -->
<g id="edge3" class="edge">
<title>Node1&#45;&gt;Node4</title>
<path fill="none" stroke="midnightblue" d="M315.69,-19.6C301.63,-18.06 287.53,-16.52 274.88,-15.13"/>
<polygon fill="midnightblue" stroke="midnightblue" points="315.58,-23.11 325.91,-20.72 316.35,-16.15 315.58,-23.11"/>
</g>
<!-- Node3 -->
<g id="node3" class="node">
<title>Node3</title>
<g id="a_node3"><a xlink:href="group__memio__file__ops.html#gab0cee6094e9d25645dcab0b9df045467" target="_top" xlink:title=" ">
<polygon fill="none" stroke="black" points="0,-38.5 0,-57.5 128,-57.5 128,-38.5 0,-38.5"/>
<text text-anchor="middle" x="64" y="-45.5" font-family="Helvetica,sans-Serif" font-size="10.00">driver_as_memio_ioctl</text>
</a>
</g>
</g>
<!-- Node2&#45;&gt;Node3 -->
<g id="edge2" class="edge">
<title>Node2&#45;&gt;Node3</title>
<path fill="none" stroke="midnightblue" d="M153.51,-48C145.05,-48 136.47,-48 128.14,-48"/>
<polygon fill="midnightblue" stroke="midnightblue" points="153.75,-51.5 163.75,-48 153.75,-44.5 153.75,-51.5"/>
</g>
<!-- Node5 -->
<g id="node5" class="node">
<title>Node5</title>
<g id="a_node5"><a xlink:href="group__memio__file__ops.html#gabc26947002eedee4c4557faff325074e" target="_top" xlink:title=" ">
<polygon fill="none" stroke="black" points="0,-0.5 0,-19.5 128,-19.5 128,-0.5 0,-0.5"/>
<text text-anchor="middle" x="64" y="-7.5" font-family="Helvetica,sans-Serif" font-size="10.00">driver_as_memio_read</text>
</a>
</g>
</g>
<!-- Node4&#45;&gt;Node5 -->
<g id="edge4" class="edge">
<title>Node4&#45;&gt;Node5</title>
<path fill="none" stroke="midnightblue" d="M169.06,-10C155.85,-10 141.7,-10 128.23,-10"/>
<polygon fill="midnightblue" stroke="midnightblue" points="169.43,-13.5 179.43,-10 169.43,-6.5 169.43,-13.5"/>
</g>
</g>
</svg>
