<?xml version="1.0" encoding="UTF-8" standalone="no"?>
<!DOCTYPE svg PUBLIC "-//W3C//DTD SVG 1.1//EN"
 "http://www.w3.org/Graphics/SVG/1.1/DTD/svg11.dtd">
<!-- Generated by graphviz version 2.43.0 (0)
 -->
<!-- Title: as_memio_hw_write_update Pages: 1 -->
<svg width="770pt" height="472pt"
 viewBox="0.00 0.00 770.00 471.50" xmlns="http://www.w3.org/2000/svg" xmlns:xlink="http://www.w3.org/1999/xlink">
<g id="graph0" class="graph" transform="scale(1 1) rotate(0) translate(4 467.5)">
<title>as_memio_hw_write_update</title>
<!-- Node1 -->
<g id="node1" class="node">
<title>Node1</title>
<g id="a_node1"><a xlink:title=" ">
<polygon fill="#bfbfbf" stroke="black" points="0,-225 0,-244 156,-244 156,-225 0,-225"/>
<text text-anchor="middle" x="78" y="-232" font-family="Helvetica,sans-Serif" font-size="10.00">as_memio_hw_write_update</text>
</a>
</g>
</g>
<!-- Node2 -->
<g id="node2" class="node">
<title>Node2</title>
<g id="a_node2"><a xlink:href="group__as__buffer.html#ga6016c939a78457aac0650827fdce6ae3" target="_top" xlink:title=" ">
<polygon fill="none" stroke="black" points="207,-444 207,-463 317,-463 317,-444 207,-444"/>
<text text-anchor="middle" x="262" y="-451" font-family="Helvetica,sans-Serif" font-size="10.00">as_buffer_enqueue</text>
</a>
</g>
</g>
<!-- Node1&#45;&gt;Node2 -->
<g id="edge1" class="edge">
<title>Node1&#45;&gt;Node2</title>
<path fill="none" stroke="midnightblue" d="M81.57,-244.19C90.64,-276.54 124.4,-381.75 192,-434.5 194.34,-436.33 196.85,-437.98 199.47,-439.47"/>
<polygon fill="midnightblue" stroke="midnightblue" points="198.21,-442.75 208.74,-443.96 201.26,-436.45 198.21,-442.75"/>
</g>
<!-- Node3 -->
<g id="node3" class="node">
<title>Node3</title>
<g id="a_node3"><a xlink:href="group__as__buffer.html#ga207494f5e874a5db26b0bedf2784bf56" target="_top" xlink:title=" ">
<polygon fill="none" stroke="black" points="198,-394.5 198,-424.5 326,-424.5 326,-394.5 198,-394.5"/>
<text text-anchor="start" x="206" y="-412.5" font-family="Helvetica,sans-Serif" font-size="10.00">as_buffer_find_waiting</text>
<text text-anchor="middle" x="262" y="-401.5" font-family="Helvetica,sans-Serif" font-size="10.00">_buffer</text>
</a>
</g>
</g>
<!-- Node1&#45;&gt;Node3 -->
<g id="edge2" class="edge">
<title>Node1&#45;&gt;Node3</title>
<path fill="none" stroke="midnightblue" d="M83.68,-244.09C96.95,-270.36 137.46,-344.2 192,-384.5 194.48,-386.33 197.11,-388.04 199.84,-389.64"/>
<polygon fill="midnightblue" stroke="midnightblue" points="198.34,-392.8 208.82,-394.34 201.59,-386.6 198.34,-392.8"/>
</g>
<!-- Node4 -->
<g id="node4" class="node">
<title>Node4</title>
<g id="a_node4"><a xlink:href="group__as__buffer.html#ga07ae3ddfeb05316df9cb59b962c29817" target="_top" xlink:title=" ">
<polygon fill="none" stroke="black" points="210.5,-356 210.5,-375 313.5,-375 313.5,-356 210.5,-356"/>
<text text-anchor="middle" x="262" y="-363" font-family="Helvetica,sans-Serif" font-size="10.00">as_buffer_inspect</text>
</a>
</g>
</g>
<!-- Node1&#45;&gt;Node4 -->
<g id="edge3" class="edge">
<title>Node1&#45;&gt;Node4</title>
<path fill="none" stroke="midnightblue" d="M85.99,-244.26C102.11,-266.03 144.19,-318.82 192,-346.5 195.85,-348.73 199.98,-350.71 204.23,-352.46"/>
<polygon fill="midnightblue" stroke="midnightblue" points="203.07,-355.77 213.67,-355.95 205.5,-349.2 203.07,-355.77"/>
</g>
<!-- Node5 -->
<g id="node5" class="node">
<title>Node5</title>
<g id="a_node5"><a xlink:href="as__cache_8c.html#a82dda14c005c5bd0028e5f25fad2923c" target="_top" xlink:title="Map virtual kernel address for DMA.">
<polygon fill="none" stroke="black" points="217.5,-318 217.5,-337 306.5,-337 306.5,-318 217.5,-318"/>
<text text-anchor="middle" x="262" y="-325" font-family="Helvetica,sans-Serif" font-size="10.00">as_map_single</text>
</a>
</g>
</g>
<!-- Node1&#45;&gt;Node5 -->
<g id="edge4" class="edge">
<title>Node1&#45;&gt;Node5</title>
<path fill="none" stroke="midnightblue" d="M90.81,-244.05C110.61,-259.62 152.25,-290.55 192,-308.5 197.3,-310.89 202.96,-313.04 208.68,-314.96"/>
<polygon fill="midnightblue" stroke="midnightblue" points="207.72,-318.33 218.3,-317.98 209.81,-311.65 207.72,-318.33"/>
</g>
<!-- Node7 -->
<g id="node7" class="node">
<title>Node7</title>
<g id="a_node7"><a xlink:href="group__as__reader__writer.html#gaaea10b48e35a224a5870cd3322ffbec2" target="_top" xlink:title="Returns the next address on which the hardware will perform a write operation.">
<polygon fill="none" stroke="black" points="202.5,-268.5 202.5,-298.5 321.5,-298.5 321.5,-268.5 202.5,-268.5"/>
<text text-anchor="start" x="210.5" y="-286.5" font-family="Helvetica,sans-Serif" font-size="10.00">as_reader_writer_get</text>
<text text-anchor="middle" x="262" y="-275.5" font-family="Helvetica,sans-Serif" font-size="10.00">_cur_hw_addr</text>
</a>
</g>
</g>
<!-- Node1&#45;&gt;Node7 -->
<g id="edge6" class="edge">
<title>Node1&#45;&gt;Node7</title>
<path fill="none" stroke="midnightblue" d="M114.52,-244.06C137.46,-250.24 168.01,-258.46 195.27,-265.8"/>
<polygon fill="midnightblue" stroke="midnightblue" points="194.58,-269.24 205.15,-268.46 196.4,-262.48 194.58,-269.24"/>
</g>
<!-- Node11 -->
<g id="node11" class="node">
<title>Node11</title>
<g id="a_node11"><a xlink:href="group__as__reader__writer.html#ga0e0a5b7e0dd6a14cb0f4251d00a783e8" target="_top" xlink:title="Checks if module is busy.">
<polygon fill="none" stroke="black" points="192,-181 192,-200 332,-200 332,-181 192,-181"/>
<text text-anchor="middle" x="262" y="-188" font-family="Helvetica,sans-Serif" font-size="10.00">as_reader_writer_is_busy</text>
</a>
</g>
</g>
<!-- Node1&#45;&gt;Node11 -->
<g id="edge10" class="edge">
<title>Node1&#45;&gt;Node11</title>
<path fill="none" stroke="midnightblue" d="M118.49,-224.95C145.8,-218.35 182.33,-209.52 211.57,-202.45"/>
<polygon fill="midnightblue" stroke="midnightblue" points="212.69,-205.78 221.59,-200.03 211.04,-198.98 212.69,-205.78"/>
</g>
<!-- Node13 -->
<g id="node13" class="node">
<title>Node13</title>
<g id="a_node13"><a xlink:href="group__as__reader__writer.html#gab3f2465225201507d51787478ac5955a" target="_top" xlink:title="Checks if another operation is queued.">
<polygon fill="none" stroke="black" points="206,-219.5 206,-249.5 318,-249.5 318,-219.5 206,-219.5"/>
<text text-anchor="start" x="214" y="-237.5" font-family="Helvetica,sans-Serif" font-size="10.00">as_reader_writer_is</text>
<text text-anchor="middle" x="262" y="-226.5" font-family="Helvetica,sans-Serif" font-size="10.00">_pending_go</text>
</a>
</g>
</g>
<!-- Node1&#45;&gt;Node13 -->
<g id="edge14" class="edge">
<title>Node1&#45;&gt;Node13</title>
<path fill="none" stroke="midnightblue" d="M156.18,-234.5C169.33,-234.5 182.88,-234.5 195.68,-234.5"/>
<polygon fill="midnightblue" stroke="midnightblue" points="195.77,-238 205.77,-234.5 195.77,-231 195.77,-238"/>
</g>
<!-- Node14 -->
<g id="node14" class="node">
<title>Node14</title>
<g id="a_node14"><a xlink:href="group__as__reader__writer.html#ga38bb160b6e30eb5fce6df2e4b4894fad" target="_top" xlink:title="Starts operation of hardware module.">
<polygon fill="none" stroke="black" points="194,-143 194,-162 330,-162 330,-143 194,-143"/>
<text text-anchor="middle" x="262" y="-150" font-family="Helvetica,sans-Serif" font-size="10.00">as_reader_writer_set_go</text>
</a>
</g>
</g>
<!-- Node1&#45;&gt;Node14 -->
<g id="edge17" class="edge">
<title>Node1&#45;&gt;Node14</title>
<path fill="none" stroke="midnightblue" d="M93.42,-224.96C114.37,-211.47 154.79,-186.74 192,-171.5 197.81,-169.12 204.02,-166.94 210.23,-164.97"/>
<polygon fill="midnightblue" stroke="midnightblue" points="211.38,-168.28 219.96,-162.06 209.37,-161.58 211.38,-168.28"/>
</g>
<!-- Node18 -->
<g id="node18" class="node">
<title>Node18</title>
<g id="a_node18"><a xlink:href="group__as__reader__writer.html#ga43d2f73d7d42dd5704160d4ddacfaa1e" target="_top" xlink:title="Sets the start address of the first section to the given value.">
<polygon fill="none" stroke="black" points="202.5,-93.5 202.5,-123.5 321.5,-123.5 321.5,-93.5 202.5,-93.5"/>
<text text-anchor="start" x="210.5" y="-111.5" font-family="Helvetica,sans-Serif" font-size="10.00">as_reader_writer_set</text>
<text text-anchor="middle" x="262" y="-100.5" font-family="Helvetica,sans-Serif" font-size="10.00">_section_addr</text>
</a>
</g>
</g>
<!-- Node1&#45;&gt;Node18 -->
<g id="edge23" class="edge">
<title>Node1&#45;&gt;Node18</title>
<path fill="none" stroke="midnightblue" d="M87.42,-224.81C105.01,-205.1 147.73,-159.95 192,-133.5 195.41,-131.46 199.01,-129.55 202.71,-127.77"/>
<polygon fill="midnightblue" stroke="midnightblue" points="204.35,-130.87 212.04,-123.58 201.48,-124.48 204.35,-130.87"/>
</g>
<!-- Node19 -->
<g id="node19" class="node">
<title>Node19</title>
<g id="a_node19"><a xlink:href="group__as__reader__writer.html#ga06436c5cb6a63439f2e4b7c14c71fb83" target="_top" xlink:title="Sets the size of a single section in bytes.">
<polygon fill="none" stroke="black" points="202.5,-44.5 202.5,-74.5 321.5,-74.5 321.5,-44.5 202.5,-44.5"/>
<text text-anchor="start" x="210.5" y="-62.5" font-family="Helvetica,sans-Serif" font-size="10.00">as_reader_writer_set</text>
<text text-anchor="middle" x="262" y="-51.5" font-family="Helvetica,sans-Serif" font-size="10.00">_section_size</text>
</a>
</g>
</g>
<!-- Node1&#45;&gt;Node19 -->
<g id="edge26" class="edge">
<title>Node1&#45;&gt;Node19</title>
<path fill="none" stroke="midnightblue" d="M83.63,-224.81C96.79,-198.26 137.03,-123.71 192,-83.5 194.06,-81.99 196.22,-80.57 198.46,-79.24"/>
<polygon fill="midnightblue" stroke="midnightblue" points="200.2,-82.28 207.39,-74.5 196.92,-76.1 200.2,-82.28"/>
</g>
<!-- Node20 -->
<g id="node20" class="node">
<title>Node20</title>
<g id="a_node20"><a xlink:href="as__cache_8c.html#ae76087a19400fcaebb8397a8a1ee828b" target="_top" xlink:title="Unmap DMA address at end of transfer.">
<polygon fill="none" stroke="black" points="211.5,-6 211.5,-25 312.5,-25 312.5,-6 211.5,-6"/>
<text text-anchor="middle" x="262" y="-13" font-family="Helvetica,sans-Serif" font-size="10.00">as_unmap_single</text>
</a>
</g>
</g>
<!-- Node1&#45;&gt;Node20 -->
<g id="edge29" class="edge">
<title>Node1&#45;&gt;Node20</title>
<path fill="none" stroke="midnightblue" d="M81.57,-224.81C90.64,-192.46 124.4,-87.25 192,-34.5 195.11,-32.08 198.5,-29.96 202.07,-28.11"/>
<polygon fill="midnightblue" stroke="midnightblue" points="203.49,-31.31 211.22,-24.06 200.66,-24.91 203.49,-31.31"/>
</g>
<!-- Node6 -->
<g id="node6" class="node">
<title>Node6</title>
<g id="a_node6"><a xlink:href="group__asterics__support.html#ga488e796d469c62267d9547fd11f8d764" target="_top" xlink:title=" ">
<polygon fill="none" stroke="black" points="368,-318 368,-337 498,-337 498,-318 368,-318"/>
<text text-anchor="middle" x="433" y="-325" font-family="Helvetica,sans-Serif" font-size="10.00">as_dcache_flush_range</text>
</a>
</g>
</g>
<!-- Node5&#45;&gt;Node6 -->
<g id="edge5" class="edge">
<title>Node5&#45;&gt;Node6</title>
<path fill="none" stroke="midnightblue" d="M306.52,-327.5C322.14,-327.5 340.22,-327.5 357.7,-327.5"/>
<polygon fill="midnightblue" stroke="midnightblue" points="357.91,-331 367.91,-327.5 357.91,-324 357.91,-331"/>
</g>
<!-- Node8 -->
<g id="node8" class="node">
<title>Node8</title>
<g id="a_node8"><a xlink:href="group__asterics__support.html#gaa7520f5b717e163da743500adb2eb0b9" target="_top" xlink:title=" ">
<polygon fill="none" stroke="black" points="387.5,-181 387.5,-200 478.5,-200 478.5,-181 387.5,-181"/>
<text text-anchor="middle" x="433" y="-188" font-family="Helvetica,sans-Serif" font-size="10.00">as_module_reg</text>
</a>
</g>
</g>
<!-- Node7&#45;&gt;Node8 -->
<g id="edge7" class="edge">
<title>Node7&#45;&gt;Node8</title>
<path fill="none" stroke="midnightblue" d="M316.57,-268.45C322.02,-265.88 327.27,-262.92 332,-259.5 353.32,-244.08 346.65,-227.88 368,-212.5 372.53,-209.24 377.58,-206.43 382.8,-204.02"/>
<polygon fill="midnightblue" stroke="midnightblue" points="384.41,-207.14 392.32,-200.09 381.74,-200.67 384.41,-207.14"/>
</g>
<!-- Node9 -->
<g id="node9" class="node">
<title>Node9</title>
<g id="a_node9"><a xlink:href="group__asterics__support.html#ga8e5c2bfd2e4498d10289377bd94cef07" target="_top" xlink:title=" ">
<polygon fill="none" stroke="black" points="535.5,-222 535.5,-241 611.5,-241 611.5,-222 535.5,-222"/>
<text text-anchor="middle" x="573.5" y="-229" font-family="Helvetica,sans-Serif" font-size="10.00">as_reg_read</text>
</a>
</g>
</g>
<!-- Node7&#45;&gt;Node9 -->
<g id="edge8" class="edge">
<title>Node7&#45;&gt;Node9</title>
<path fill="none" stroke="midnightblue" d="M321.73,-277.07C369.45,-271.42 438.38,-262.25 498,-250.5 507.92,-248.54 518.49,-246.08 528.46,-243.59"/>
<polygon fill="midnightblue" stroke="midnightblue" points="529.37,-246.97 538.19,-241.09 527.63,-240.19 529.37,-246.97"/>
</g>
<!-- Node10 -->
<g id="node10" class="node">
<title>Node10</title>
<g id="a_node10"><a xlink:href="group__asterics__support.html#ga4c6d688b840a6e2edc9bc0b8ed961677" target="_top" xlink:title=" ">
<polygon fill="none" stroke="black" points="655.5,-222 655.5,-241 755.5,-241 755.5,-222 655.5,-222"/>
<text text-anchor="middle" x="705.5" y="-229" font-family="Helvetica,sans-Serif" font-size="10.00">as_reg_to_uint32</text>
</a>
</g>
</g>
<!-- Node9&#45;&gt;Node10 -->
<g id="edge9" class="edge">
<title>Node9&#45;&gt;Node10</title>
<path fill="none" stroke="midnightblue" d="M611.75,-231.5C622.09,-231.5 633.59,-231.5 644.86,-231.5"/>
<polygon fill="midnightblue" stroke="midnightblue" points="645.12,-235 655.12,-231.5 645.12,-228 645.12,-235"/>
</g>
<!-- Node11&#45;&gt;Node8 -->
<g id="edge11" class="edge">
<title>Node11&#45;&gt;Node8</title>
<path fill="none" stroke="midnightblue" d="M332.23,-190.5C347.19,-190.5 362.81,-190.5 377.14,-190.5"/>
<polygon fill="midnightblue" stroke="midnightblue" points="377.31,-194 387.31,-190.5 377.31,-187 377.31,-194"/>
</g>
<!-- Node12 -->
<g id="node12" class="node">
<title>Node12</title>
<g id="a_node12"><a xlink:href="group__asterics__support.html#ga36a2ed59c59831bee59daaae3cb6cb35" target="_top" xlink:title=" ">
<polygon fill="none" stroke="black" points="373.5,-222 373.5,-241 492.5,-241 492.5,-222 373.5,-222"/>
<text text-anchor="middle" x="433" y="-229" font-family="Helvetica,sans-Serif" font-size="10.00">as_reg_read_masked</text>
</a>
</g>
</g>
<!-- Node11&#45;&gt;Node12 -->
<g id="edge12" class="edge">
<title>Node11&#45;&gt;Node12</title>
<path fill="none" stroke="midnightblue" d="M302.2,-200.01C326.21,-205.84 357.16,-213.34 382.82,-219.57"/>
<polygon fill="midnightblue" stroke="midnightblue" points="382.18,-223.01 392.72,-221.97 383.83,-216.21 382.18,-223.01"/>
</g>
<!-- Node12&#45;&gt;Node9 -->
<g id="edge13" class="edge">
<title>Node12&#45;&gt;Node9</title>
<path fill="none" stroke="midnightblue" d="M492.74,-231.5C503.57,-231.5 514.76,-231.5 525.21,-231.5"/>
<polygon fill="midnightblue" stroke="midnightblue" points="525.37,-235 535.37,-231.5 525.37,-228 525.37,-235"/>
</g>
<!-- Node13&#45;&gt;Node8 -->
<g id="edge15" class="edge">
<title>Node13&#45;&gt;Node8</title>
<path fill="none" stroke="midnightblue" d="M318.34,-220.09C340.09,-214.43 364.79,-208 385.59,-202.58"/>
<polygon fill="midnightblue" stroke="midnightblue" points="386.67,-205.92 395.46,-200.01 384.9,-199.15 386.67,-205.92"/>
</g>
<!-- Node13&#45;&gt;Node12 -->
<g id="edge16" class="edge">
<title>Node13&#45;&gt;Node12</title>
<path fill="none" stroke="midnightblue" d="M318.34,-233.52C332.65,-233.26 348.24,-232.99 363.15,-232.72"/>
<polygon fill="midnightblue" stroke="midnightblue" points="363.4,-236.22 373.34,-232.54 363.28,-229.22 363.4,-236.22"/>
</g>
<!-- Node14&#45;&gt;Node8 -->
<g id="edge18" class="edge">
<title>Node14&#45;&gt;Node8</title>
<path fill="none" stroke="midnightblue" d="M305.65,-162.09C328.15,-167.15 355.95,-173.4 379.74,-178.75"/>
<polygon fill="midnightblue" stroke="midnightblue" points="379.14,-182.2 389.66,-180.98 380.67,-175.37 379.14,-182.2"/>
</g>
<!-- Node15 -->
<g id="node15" class="node">
<title>Node15</title>
<g id="a_node15"><a xlink:href="group__asterics__support.html#ga0ccb0610d764a95bda989e35fba59490" target="_top" xlink:title=" ">
<polygon fill="none" stroke="black" points="372,-143 372,-162 494,-162 494,-143 372,-143"/>
<text text-anchor="middle" x="433" y="-150" font-family="Helvetica,sans-Serif" font-size="10.00">as_reg_write_masked</text>
</a>
</g>
</g>
<!-- Node14&#45;&gt;Node15 -->
<g id="edge19" class="edge">
<title>Node14&#45;&gt;Node15</title>
<path fill="none" stroke="midnightblue" d="M330.28,-152.5C340.57,-152.5 351.21,-152.5 361.56,-152.5"/>
<polygon fill="midnightblue" stroke="midnightblue" points="361.79,-156 371.79,-152.5 361.79,-149 361.79,-156"/>
</g>
<!-- Node15&#45;&gt;Node9 -->
<g id="edge20" class="edge">
<title>Node15&#45;&gt;Node9</title>
<path fill="none" stroke="midnightblue" d="M474.88,-162.04C482.78,-164.6 490.82,-167.73 498,-171.5 519.63,-182.85 541.01,-200.97 555.28,-214.33"/>
<polygon fill="midnightblue" stroke="midnightblue" points="553.17,-217.16 562.8,-221.56 558.01,-212.11 553.17,-217.16"/>
</g>
<!-- Node16 -->
<g id="node16" class="node">
<title>Node16</title>
<g id="a_node16"><a xlink:href="group__asterics__support.html#ga6345b997e24a6cd5f9143cef27629d49" target="_top" xlink:title=" ">
<polygon fill="none" stroke="black" points="534,-99 534,-118 613,-118 613,-99 534,-99"/>
<text text-anchor="middle" x="573.5" y="-106" font-family="Helvetica,sans-Serif" font-size="10.00">as_reg_write</text>
</a>
</g>
</g>
<!-- Node15&#45;&gt;Node16 -->
<g id="edge21" class="edge">
<title>Node15&#45;&gt;Node16</title>
<path fill="none" stroke="midnightblue" d="M464.05,-142.95C484.2,-136.55 510.94,-128.06 532.83,-121.1"/>
<polygon fill="midnightblue" stroke="midnightblue" points="534.04,-124.39 542.51,-118.03 531.92,-117.72 534.04,-124.39"/>
</g>
<!-- Node17 -->
<g id="node17" class="node">
<title>Node17</title>
<g id="a_node17"><a xlink:href="group__asterics__support.html#gab651cc2c035ce61b354578434e59f822" target="_top" xlink:title=" ">
<polygon fill="none" stroke="black" points="649,-99 649,-118 762,-118 762,-99 649,-99"/>
<text text-anchor="middle" x="705.5" y="-106" font-family="Helvetica,sans-Serif" font-size="10.00">as_reg_from_uint32</text>
</a>
</g>
</g>
<!-- Node16&#45;&gt;Node17 -->
<g id="edge22" class="edge">
<title>Node16&#45;&gt;Node17</title>
<path fill="none" stroke="midnightblue" d="M613.15,-108.5C621.22,-108.5 629.94,-108.5 638.68,-108.5"/>
<polygon fill="midnightblue" stroke="midnightblue" points="638.92,-112 648.92,-108.5 638.92,-105 638.92,-112"/>
</g>
<!-- Node18&#45;&gt;Node8 -->
<g id="edge24" class="edge">
<title>Node18&#45;&gt;Node8</title>
<path fill="none" stroke="midnightblue" d="M313.34,-123.59C319.85,-126.44 326.24,-129.73 332,-133.5 351.46,-146.25 348.17,-159.33 368,-171.5 371.4,-173.59 375.05,-175.46 378.81,-177.13"/>
<polygon fill="midnightblue" stroke="midnightblue" points="377.75,-180.48 388.33,-180.9 380.32,-173.97 377.75,-180.48"/>
</g>
<!-- Node18&#45;&gt;Node16 -->
<g id="edge25" class="edge">
<title>Node18&#45;&gt;Node16</title>
<path fill="none" stroke="midnightblue" d="M321.58,-108.5C380.02,-108.5 468.79,-108.5 523.58,-108.5"/>
<polygon fill="midnightblue" stroke="midnightblue" points="523.74,-112 533.74,-108.5 523.74,-105 523.74,-112"/>
</g>
<!-- Node19&#45;&gt;Node8 -->
<g id="edge27" class="edge">
<title>Node19&#45;&gt;Node8</title>
<path fill="none" stroke="midnightblue" d="M319.95,-74.66C324.31,-77.17 328.41,-80.1 332,-83.5 362.67,-112.57 336.67,-143.15 368,-171.5 371.01,-174.22 374.39,-176.55 377.99,-178.55"/>
<polygon fill="midnightblue" stroke="midnightblue" points="376.74,-181.83 387.28,-182.87 379.68,-175.48 376.74,-181.83"/>
</g>
<!-- Node19&#45;&gt;Node16 -->
<g id="edge28" class="edge">
<title>Node19&#45;&gt;Node16</title>
<path fill="none" stroke="midnightblue" d="M321.58,-68.77C380.02,-78.03 468.79,-92.08 523.58,-100.76"/>
<polygon fill="midnightblue" stroke="midnightblue" points="523.31,-104.26 533.74,-102.36 524.41,-97.34 523.31,-104.26"/>
</g>
<!-- Node21 -->
<g id="node21" class="node">
<title>Node21</title>
<g id="a_node21"><a xlink:href="group__asterics__support.html#ga85ce164597e47f4aaee22c873e899d4b" target="_top" xlink:title=" ">
<polygon fill="none" stroke="black" points="372,-0.5 372,-30.5 494,-30.5 494,-0.5 372,-0.5"/>
<text text-anchor="start" x="380" y="-18.5" font-family="Helvetica,sans-Serif" font-size="10.00">as_dcache_invalidate</text>
<text text-anchor="middle" x="433" y="-7.5" font-family="Helvetica,sans-Serif" font-size="10.00">_range</text>
</a>
</g>
</g>
<!-- Node20&#45;&gt;Node21 -->
<g id="edge30" class="edge">
<title>Node20&#45;&gt;Node21</title>
<path fill="none" stroke="midnightblue" d="M312.79,-15.5C328.11,-15.5 345.27,-15.5 361.7,-15.5"/>
<polygon fill="midnightblue" stroke="midnightblue" points="361.81,-19 371.81,-15.5 361.81,-12 361.81,-19"/>
</g>
</g>
</svg>
