<?xml version="1.0" encoding="UTF-8" standalone="no"?>
<!DOCTYPE svg PUBLIC "-//W3C//DTD SVG 1.1//EN"
 "http://www.w3.org/Graphics/SVG/1.1/DTD/svg11.dtd">
<!-- Generated by graphviz version 2.43.0 (0)
 -->
<!-- Title: as_iic.h Pages: 1 -->
<svg width="218pt" height="140pt"
 viewBox="0.00 0.00 218.00 140.00" xmlns="http://www.w3.org/2000/svg" xmlns:xlink="http://www.w3.org/1999/xlink">
<g id="graph0" class="graph" transform="scale(1 1) rotate(0) translate(4 136)">
<title>as_iic.h</title>
<!-- Node1 -->
<g id="node1" class="node">
<title>Node1</title>
<g id="a_node1"><a xlink:title="Driver (header file) for the as_iic module.">
<polygon fill="#bfbfbf" stroke="black" points="45,-112.5 45,-131.5 98,-131.5 98,-112.5 45,-112.5"/>
<text text-anchor="middle" x="71.5" y="-119.5" font-family="Helvetica,sans-Serif" font-size="10.00">as_iic.h</text>
</a>
</g>
</g>
<!-- Node2 -->
<g id="node2" class="node">
<title>Node2</title>
<g id="a_node2"><a xlink:href="as__iic_8c.html" target="_top" xlink:title="Driver (source file) for as_iic module.">
<polygon fill="none" stroke="black" points="0,-56.5 0,-75.5 53,-75.5 53,-56.5 0,-56.5"/>
<text text-anchor="middle" x="26.5" y="-63.5" font-family="Helvetica,sans-Serif" font-size="10.00">as_iic.c</text>
</a>
</g>
</g>
<!-- Node1&#45;&gt;Node2 -->
<g id="edge1" class="edge">
<title>Node1&#45;&gt;Node2</title>
<path fill="none" stroke="midnightblue" d="M57.45,-104.14C49.61,-94.74 40.17,-83.4 33.79,-75.75"/>
<polygon fill="midnightblue" stroke="midnightblue" points="54.98,-106.64 64.07,-112.08 60.36,-102.16 54.98,-106.64"/>
</g>
<!-- Node3 -->
<g id="node3" class="node">
<title>Node3</title>
<g id="a_node3"><a xlink:href="as__i2c__driver_8h.html" target="_top" xlink:title=" ">
<polygon fill="none" stroke="black" points="71.5,-56.5 71.5,-75.5 161.5,-75.5 161.5,-56.5 71.5,-56.5"/>
<text text-anchor="middle" x="116.5" y="-63.5" font-family="Helvetica,sans-Serif" font-size="10.00">as_i2c_driver.h</text>
</a>
</g>
</g>
<!-- Node1&#45;&gt;Node3 -->
<g id="edge2" class="edge">
<title>Node1&#45;&gt;Node3</title>
<path fill="none" stroke="midnightblue" d="M85.55,-104.14C93.39,-94.74 102.83,-83.4 109.21,-75.75"/>
<polygon fill="midnightblue" stroke="midnightblue" points="82.64,-102.16 78.93,-112.08 88.02,-106.64 82.64,-102.16"/>
</g>
<!-- Node4 -->
<g id="node4" class="node">
<title>Node4</title>
<g id="a_node4"><a xlink:href="as__driver_8c.html" target="_top" xlink:title="Linux driver implementation.">
<polygon fill="none" stroke="black" points="32.5,-0.5 32.5,-19.5 102.5,-19.5 102.5,-0.5 32.5,-0.5"/>
<text text-anchor="middle" x="67.5" y="-7.5" font-family="Helvetica,sans-Serif" font-size="10.00">as_driver.c</text>
</a>
</g>
</g>
<!-- Node3&#45;&gt;Node4 -->
<g id="edge3" class="edge">
<title>Node3&#45;&gt;Node4</title>
<path fill="none" stroke="midnightblue" d="M101.47,-48.43C92.88,-38.97 82.46,-27.48 75.44,-19.75"/>
<polygon fill="midnightblue" stroke="midnightblue" points="99.1,-51.03 108.41,-56.08 104.28,-46.33 99.1,-51.03"/>
</g>
<!-- Node5 -->
<g id="node5" class="node">
<title>Node5</title>
<g id="a_node5"><a xlink:href="as__i2c__driver_8c.html" target="_top" xlink:title=" ">
<polygon fill="none" stroke="black" points="121,-0.5 121,-19.5 210,-19.5 210,-0.5 121,-0.5"/>
<text text-anchor="middle" x="165.5" y="-7.5" font-family="Helvetica,sans-Serif" font-size="10.00">as_i2c_driver.c</text>
</a>
</g>
</g>
<!-- Node3&#45;&gt;Node5 -->
<g id="edge4" class="edge">
<title>Node3&#45;&gt;Node5</title>
<path fill="none" stroke="midnightblue" d="M131.53,-48.43C140.12,-38.97 150.54,-27.48 157.56,-19.75"/>
<polygon fill="midnightblue" stroke="midnightblue" points="128.72,-46.33 124.59,-56.08 133.9,-51.03 128.72,-46.33"/>
</g>
</g>
</svg>
