<?xml version="1.0" encoding="UTF-8" standalone="no"?>
<!DOCTYPE svg PUBLIC "-//W3C//DTD SVG 1.1//EN"
 "http://www.w3.org/Graphics/SVG/1.1/DTD/svg11.dtd">
<!-- Generated by graphviz version 2.43.0 (0)
 -->
<!-- Title: as_driver.h Pages: 1 -->
<svg width="962pt" height="196pt"
 viewBox="0.00 0.00 961.50 196.00" xmlns="http://www.w3.org/2000/svg" xmlns:xlink="http://www.w3.org/1999/xlink">
<g id="graph0" class="graph" transform="scale(1 1) rotate(0) translate(4 192)">
<title>as_driver.h</title>
<!-- Node1 -->
<g id="node1" class="node">
<title>Node1</title>
<g id="a_node1"><a xlink:title="Linux kernel driver header file.">
<polygon fill="#bfbfbf" stroke="black" points="393.5,-168.5 393.5,-187.5 464.5,-187.5 464.5,-168.5 393.5,-168.5"/>
<text text-anchor="middle" x="429" y="-175.5" font-family="Helvetica,sans-Serif" font-size="10.00">as_driver.h</text>
</a>
</g>
</g>
<!-- Node2 -->
<g id="node2" class="node">
<title>Node2</title>
<g id="a_node2"><a xlink:title=" ">
<polygon fill="none" stroke="#bfbfbf" points="296.5,-112.5 296.5,-131.5 371.5,-131.5 371.5,-112.5 296.5,-112.5"/>
<text text-anchor="middle" x="334" y="-119.5" font-family="Helvetica,sans-Serif" font-size="10.00">linux/cdev.h</text>
</a>
</g>
</g>
<!-- Node1&#45;&gt;Node2 -->
<g id="edge1" class="edge">
<title>Node1&#45;&gt;Node2</title>
<path fill="none" stroke="midnightblue" d="M413.74,-168.32C398.78,-159.82 375.75,-146.73 358.27,-136.8"/>
<polygon fill="midnightblue" stroke="midnightblue" points="359.65,-133.55 349.23,-131.65 356.19,-139.64 359.65,-133.55"/>
</g>
<!-- Node3 -->
<g id="node3" class="node">
<title>Node3</title>
<g id="a_node3"><a xlink:href="as__support_8h.html" target="_top" xlink:title="Software support module for ASTERICS systems.">
<polygon fill="none" stroke="black" points="389.5,-112.5 389.5,-131.5 468.5,-131.5 468.5,-112.5 389.5,-112.5"/>
<text text-anchor="middle" x="429" y="-119.5" font-family="Helvetica,sans-Serif" font-size="10.00">as_support.h</text>
</a>
</g>
</g>
<!-- Node1&#45;&gt;Node3 -->
<g id="edge2" class="edge">
<title>Node1&#45;&gt;Node3</title>
<path fill="none" stroke="midnightblue" d="M429,-168.08C429,-161.01 429,-150.86 429,-141.99"/>
<polygon fill="midnightblue" stroke="midnightblue" points="432.5,-141.75 429,-131.75 425.5,-141.75 432.5,-141.75"/>
</g>
<!-- Node15 -->
<g id="node15" class="node">
<title>Node15</title>
<g id="a_node15"><a xlink:href="as__support__linux_8h.html" target="_top" xlink:title=" ">
<polygon fill="none" stroke="black" points="683,-112.5 683,-131.5 791,-131.5 791,-112.5 683,-112.5"/>
<text text-anchor="middle" x="737" y="-119.5" font-family="Helvetica,sans-Serif" font-size="10.00">as_support_linux.h</text>
</a>
</g>
</g>
<!-- Node1&#45;&gt;Node15 -->
<g id="edge14" class="edge">
<title>Node1&#45;&gt;Node15</title>
<path fill="none" stroke="midnightblue" d="M464.63,-170.75C516.91,-161.59 615,-144.39 678.1,-133.33"/>
<polygon fill="midnightblue" stroke="midnightblue" points="679.05,-136.71 688.3,-131.54 677.84,-129.82 679.05,-136.71"/>
</g>
<!-- Node4 -->
<g id="node4" class="node">
<title>Node4</title>
<g id="a_node4"><a xlink:href="asp_2as__config_8h.html" target="_top" xlink:title=" ">
<polygon fill="none" stroke="black" points="0,-56.5 0,-75.5 72,-75.5 72,-56.5 0,-56.5"/>
<text text-anchor="middle" x="36" y="-63.5" font-family="Helvetica,sans-Serif" font-size="10.00">as_config.h</text>
</a>
</g>
</g>
<!-- Node3&#45;&gt;Node4 -->
<g id="edge3" class="edge">
<title>Node3&#45;&gt;Node4</title>
<path fill="none" stroke="midnightblue" d="M389.48,-113.38C386.62,-112.89 383.77,-112.42 381,-112 251.51,-92.11 215.36,-96.93 82.47,-76.12"/>
<polygon fill="midnightblue" stroke="midnightblue" points="82.73,-72.62 72.31,-74.51 81.63,-79.54 82.73,-72.62"/>
</g>
<!-- Node5 -->
<g id="node5" class="node">
<title>Node5</title>
<g id="a_node5"><a xlink:title=" ">
<polygon fill="none" stroke="#bfbfbf" points="90.5,-56.5 90.5,-75.5 143.5,-75.5 143.5,-56.5 90.5,-56.5"/>
<text text-anchor="middle" x="117" y="-63.5" font-family="Helvetica,sans-Serif" font-size="10.00">stdint.h</text>
</a>
</g>
</g>
<!-- Node3&#45;&gt;Node5 -->
<g id="edge4" class="edge">
<title>Node3&#45;&gt;Node5</title>
<path fill="none" stroke="midnightblue" d="M389.46,-113.49C386.6,-112.98 383.76,-112.48 381,-112 283.07,-95.09 255.25,-96.36 153.74,-75.99"/>
<polygon fill="midnightblue" stroke="midnightblue" points="154.17,-72.51 143.68,-73.95 152.78,-79.37 154.17,-72.51"/>
</g>
<!-- Node6 -->
<g id="node6" class="node">
<title>Node6</title>
<g id="a_node6"><a xlink:title=" ">
<polygon fill="none" stroke="#bfbfbf" points="161.5,-56.5 161.5,-75.5 214.5,-75.5 214.5,-56.5 161.5,-56.5"/>
<text text-anchor="middle" x="188" y="-63.5" font-family="Helvetica,sans-Serif" font-size="10.00">stdlib.h</text>
</a>
</g>
</g>
<!-- Node3&#45;&gt;Node6 -->
<g id="edge5" class="edge">
<title>Node3&#45;&gt;Node6</title>
<path fill="none" stroke="midnightblue" d="M389.24,-112.63C349.9,-104.27 287.73,-90.84 224.46,-76.06"/>
<polygon fill="midnightblue" stroke="midnightblue" points="225.25,-72.65 214.72,-73.77 223.65,-79.46 225.25,-72.65"/>
</g>
<!-- Node7 -->
<g id="node7" class="node">
<title>Node7</title>
<g id="a_node7"><a xlink:title=" ">
<polygon fill="none" stroke="#bfbfbf" points="233,-56.5 233,-75.5 283,-75.5 283,-56.5 233,-56.5"/>
<text text-anchor="middle" x="258" y="-63.5" font-family="Helvetica,sans-Serif" font-size="10.00">stdio.h</text>
</a>
</g>
</g>
<!-- Node3&#45;&gt;Node7 -->
<g id="edge6" class="edge">
<title>Node3&#45;&gt;Node7</title>
<path fill="none" stroke="midnightblue" d="M401.9,-112.44C372.42,-103.13 325.18,-88.21 292.92,-78.03"/>
<polygon fill="midnightblue" stroke="midnightblue" points="293.61,-74.58 283.02,-74.9 291.5,-81.25 293.61,-74.58"/>
</g>
<!-- Node8 -->
<g id="node8" class="node">
<title>Node8</title>
<g id="a_node8"><a xlink:title=" ">
<polygon fill="none" stroke="#bfbfbf" points="301.5,-56.5 301.5,-75.5 348.5,-75.5 348.5,-56.5 301.5,-56.5"/>
<text text-anchor="middle" x="325" y="-63.5" font-family="Helvetica,sans-Serif" font-size="10.00">fcntl.h</text>
</a>
</g>
</g>
<!-- Node3&#45;&gt;Node8 -->
<g id="edge7" class="edge">
<title>Node3&#45;&gt;Node8</title>
<path fill="none" stroke="midnightblue" d="M412.29,-112.32C395.69,-103.7 370,-90.36 350.78,-80.39"/>
<polygon fill="midnightblue" stroke="midnightblue" points="352.16,-77.16 341.67,-75.65 348.93,-83.37 352.16,-77.16"/>
</g>
<!-- Node9 -->
<g id="node9" class="node">
<title>Node9</title>
<g id="a_node9"><a xlink:title=" ">
<polygon fill="none" stroke="#bfbfbf" points="366.5,-56.5 366.5,-75.5 419.5,-75.5 419.5,-56.5 366.5,-56.5"/>
<text text-anchor="middle" x="393" y="-63.5" font-family="Helvetica,sans-Serif" font-size="10.00">string.h</text>
</a>
</g>
</g>
<!-- Node3&#45;&gt;Node9 -->
<g id="edge8" class="edge">
<title>Node3&#45;&gt;Node9</title>
<path fill="none" stroke="midnightblue" d="M423.06,-112.08C418.02,-104.53 410.66,-93.49 404.49,-84.23"/>
<polygon fill="midnightblue" stroke="midnightblue" points="407.29,-82.13 398.83,-75.75 401.47,-86.01 407.29,-82.13"/>
</g>
<!-- Node10 -->
<g id="node10" class="node">
<title>Node10</title>
<g id="a_node10"><a xlink:title=" ">
<polygon fill="none" stroke="#bfbfbf" points="438,-56.5 438,-75.5 494,-75.5 494,-56.5 438,-56.5"/>
<text text-anchor="middle" x="466" y="-63.5" font-family="Helvetica,sans-Serif" font-size="10.00">unistd.h</text>
</a>
</g>
</g>
<!-- Node3&#45;&gt;Node10 -->
<g id="edge9" class="edge">
<title>Node3&#45;&gt;Node10</title>
<path fill="none" stroke="midnightblue" d="M435.11,-112.08C440.28,-104.53 447.85,-93.49 454.19,-84.23"/>
<polygon fill="midnightblue" stroke="midnightblue" points="457.24,-85.98 460,-75.75 451.46,-82.02 457.24,-85.98"/>
</g>
<!-- Node11 -->
<g id="node11" class="node">
<title>Node11</title>
<g id="a_node11"><a xlink:title=" ">
<polygon fill="none" stroke="#bfbfbf" points="512.5,-56.5 512.5,-75.5 583.5,-75.5 583.5,-56.5 512.5,-56.5"/>
<text text-anchor="middle" x="548" y="-63.5" font-family="Helvetica,sans-Serif" font-size="10.00">xil_cache.h</text>
</a>
</g>
</g>
<!-- Node3&#45;&gt;Node11 -->
<g id="edge10" class="edge">
<title>Node3&#45;&gt;Node11</title>
<path fill="none" stroke="midnightblue" d="M447.86,-112.44C467.27,-103.64 497.73,-89.81 519.96,-79.72"/>
<polygon fill="midnightblue" stroke="midnightblue" points="521.57,-82.84 529.23,-75.52 518.68,-76.46 521.57,-82.84"/>
</g>
<!-- Node12 -->
<g id="node12" class="node">
<title>Node12</title>
<g id="a_node12"><a xlink:title=" ">
<polygon fill="none" stroke="#bfbfbf" points="602,-56.5 602,-75.5 672,-75.5 672,-56.5 602,-56.5"/>
<text text-anchor="middle" x="637" y="-63.5" font-family="Helvetica,sans-Serif" font-size="10.00">xil_types.h</text>
</a>
</g>
</g>
<!-- Node3&#45;&gt;Node12 -->
<g id="edge11" class="edge">
<title>Node3&#45;&gt;Node12</title>
<path fill="none" stroke="midnightblue" d="M461.96,-112.44C497.79,-103.14 555.16,-88.25 594.39,-78.06"/>
<polygon fill="midnightblue" stroke="midnightblue" points="595.4,-81.42 604.2,-75.52 593.64,-74.64 595.4,-81.42"/>
</g>
<!-- Node13 -->
<g id="node13" class="node">
<title>Node13</title>
<g id="a_node13"><a xlink:title=" ">
<polygon fill="none" stroke="#bfbfbf" points="690,-56.5 690,-75.5 752,-75.5 752,-56.5 690,-56.5"/>
<text text-anchor="middle" x="721" y="-63.5" font-family="Helvetica,sans-Serif" font-size="10.00">xstatus.h</text>
</a>
</g>
</g>
<!-- Node3&#45;&gt;Node13 -->
<g id="edge12" class="edge">
<title>Node3&#45;&gt;Node13</title>
<path fill="none" stroke="midnightblue" d="M468.82,-114.45C516.54,-106.48 599.16,-92.29 679.32,-76.27"/>
<polygon fill="midnightblue" stroke="midnightblue" points="680.47,-79.61 689.59,-74.21 679.09,-72.75 680.47,-79.61"/>
</g>
<!-- Node14 -->
<g id="node14" class="node">
<title>Node14</title>
<g id="a_node14"><a xlink:title=" ">
<polygon fill="none" stroke="#bfbfbf" points="770,-56.5 770,-75.5 822,-75.5 822,-56.5 770,-56.5"/>
<text text-anchor="middle" x="796" y="-63.5" font-family="Helvetica,sans-Serif" font-size="10.00">xil_io.h</text>
</a>
</g>
</g>
<!-- Node3&#45;&gt;Node14 -->
<g id="edge13" class="edge">
<title>Node3&#45;&gt;Node14</title>
<path fill="none" stroke="midnightblue" d="M468.6,-117.15C529.26,-110.92 648.97,-97.32 759.7,-76.06"/>
<polygon fill="midnightblue" stroke="midnightblue" points="760.55,-79.46 769.7,-74.11 759.22,-72.59 760.55,-79.46"/>
</g>
<!-- Node16 -->
<g id="node16" class="node">
<title>Node16</title>
<g id="a_node16"><a xlink:href="as__linux__kernel__if_8h.html" target="_top" xlink:title=" ">
<polygon fill="none" stroke="black" points="840.5,-56.5 840.5,-75.5 953.5,-75.5 953.5,-56.5 840.5,-56.5"/>
<text text-anchor="middle" x="897" y="-63.5" font-family="Helvetica,sans-Serif" font-size="10.00">as_linux_kernel_if.h</text>
</a>
</g>
</g>
<!-- Node15&#45;&gt;Node16 -->
<g id="edge15" class="edge">
<title>Node15&#45;&gt;Node16</title>
<path fill="none" stroke="midnightblue" d="M762.35,-112.44C789.27,-103.36 832,-88.94 862.09,-78.78"/>
<polygon fill="midnightblue" stroke="midnightblue" points="863.41,-82.03 871.77,-75.52 861.17,-75.4 863.41,-82.03"/>
</g>
<!-- Node17 -->
<g id="node17" class="node">
<title>Node17</title>
<g id="a_node17"><a xlink:href="as__buffer_8h.html" target="_top" xlink:title="Header filer containing structure definitions for use of ASTERICS buffer objects.">
<polygon fill="none" stroke="black" points="861.5,-0.5 861.5,-19.5 932.5,-19.5 932.5,-0.5 861.5,-0.5"/>
<text text-anchor="middle" x="897" y="-7.5" font-family="Helvetica,sans-Serif" font-size="10.00">as_buffer.h</text>
</a>
</g>
</g>
<!-- Node16&#45;&gt;Node17 -->
<g id="edge16" class="edge">
<title>Node16&#45;&gt;Node17</title>
<path fill="none" stroke="midnightblue" d="M897,-56.08C897,-49.01 897,-38.86 897,-29.99"/>
<polygon fill="midnightblue" stroke="midnightblue" points="900.5,-29.75 897,-19.75 893.5,-29.75 900.5,-29.75"/>
</g>
</g>
</svg>
