<?xml version="1.0" encoding="UTF-8" standalone="no"?>
<!DOCTYPE svg PUBLIC "-//W3C//DTD SVG 1.1//EN"
 "http://www.w3.org/Graphics/SVG/1.1/DTD/svg11.dtd">
<!-- Generated by graphviz version 2.43.0 (0)
 -->
<!-- Title: ov7670_iic_reg_get Pages: 1 -->
<svg width="503pt" height="180pt"
 viewBox="0.00 0.00 503.00 180.00" xmlns="http://www.w3.org/2000/svg" xmlns:xlink="http://www.w3.org/1999/xlink">
<g id="graph0" class="graph" transform="scale(1 1) rotate(0) translate(4 176)">
<title>ov7670_iic_reg_get</title>
<!-- Node1 -->
<g id="node1" class="node">
<title>Node1</title>
<g id="a_node1"><a xlink:title=" ">
<polygon fill="#bfbfbf" stroke="black" points="384,-76.5 384,-95.5 495,-95.5 495,-76.5 384,-76.5"/>
<text text-anchor="middle" x="439.5" y="-83.5" font-family="Helvetica,sans-Serif" font-size="10.00">ov7670_iic_reg_get</text>
</a>
</g>
</g>
<!-- Node2 -->
<g id="node2" class="node">
<title>Node2</title>
<g id="a_node2"><a xlink:href="group__as__sensor__ov7670.html#ga55b52e2499f96009197bfe90af6c7a41" target="_top" xlink:title=" ">
<polygon fill="none" stroke="black" points="164,-152.5 164,-171.5 348,-171.5 348,-152.5 164,-152.5"/>
<text text-anchor="middle" x="256" y="-159.5" font-family="Helvetica,sans-Serif" font-size="10.00">as_sensor_ov7670_exposure_auto</text>
</a>
</g>
</g>
<!-- Node1&#45;&gt;Node2 -->
<g id="edge1" class="edge">
<title>Node1&#45;&gt;Node2</title>
<path fill="none" stroke="midnightblue" d="M418.04,-101.89C400.41,-114.82 373.8,-132.58 348,-143 338.42,-146.87 327.95,-149.99 317.62,-152.5"/>
<polygon fill="midnightblue" stroke="midnightblue" points="420.48,-104.43 426.39,-95.63 416.29,-98.83 420.48,-104.43"/>
</g>
<!-- Node4 -->
<g id="node4" class="node">
<title>Node4</title>
<g id="a_node4"><a xlink:href="group__as__sensor__ov7670.html#gae1b977db2733432317fee8f0497eb67a" target="_top" xlink:title=" ">
<polygon fill="none" stroke="black" points="167,-114.5 167,-133.5 345,-133.5 345,-114.5 167,-114.5"/>
<text text-anchor="middle" x="256" y="-121.5" font-family="Helvetica,sans-Serif" font-size="10.00">as_sensor_ov7670_exposure_get</text>
</a>
</g>
</g>
<!-- Node1&#45;&gt;Node4 -->
<g id="edge3" class="edge">
<title>Node1&#45;&gt;Node4</title>
<path fill="none" stroke="midnightblue" d="M382.95,-97.67C371.4,-100.1 359.3,-102.63 348,-105 333.31,-108.08 317.28,-111.42 302.83,-114.44"/>
<polygon fill="midnightblue" stroke="midnightblue" points="383.86,-101.06 392.93,-95.58 382.42,-94.21 383.86,-101.06"/>
</g>
<!-- Node5 -->
<g id="node5" class="node">
<title>Node5</title>
<g id="a_node5"><a xlink:href="group__as__sensor__ov7670.html#gadd11863e70497418c9d31c922945cbec" target="_top" xlink:title=" ">
<polygon fill="none" stroke="black" points="176,-76.5 176,-95.5 336,-95.5 336,-76.5 176,-76.5"/>
<text text-anchor="middle" x="256" y="-83.5" font-family="Helvetica,sans-Serif" font-size="10.00">as_sensor_ov7670_gain_auto</text>
</a>
</g>
</g>
<!-- Node1&#45;&gt;Node5 -->
<g id="edge4" class="edge">
<title>Node1&#45;&gt;Node5</title>
<path fill="none" stroke="midnightblue" d="M373.2,-86C361.2,-86 348.55,-86 336.2,-86"/>
<polygon fill="midnightblue" stroke="midnightblue" points="373.55,-89.5 383.55,-86 373.55,-82.5 373.55,-89.5"/>
</g>
<!-- Node6 -->
<g id="node6" class="node">
<title>Node6</title>
<g id="a_node6"><a xlink:href="group__as__sensor__ov7670.html#ga75ee4d998c858b26adae16b8140e8637" target="_top" xlink:title=" ">
<polygon fill="none" stroke="black" points="179,-38.5 179,-57.5 333,-57.5 333,-38.5 179,-38.5"/>
<text text-anchor="middle" x="256" y="-45.5" font-family="Helvetica,sans-Serif" font-size="10.00">as_sensor_ov7670_gain_get</text>
</a>
</g>
</g>
<!-- Node1&#45;&gt;Node6 -->
<g id="edge6" class="edge">
<title>Node1&#45;&gt;Node6</title>
<path fill="none" stroke="midnightblue" d="M382.95,-74.33C371.4,-71.9 359.3,-69.37 348,-67 333.31,-63.92 317.28,-60.58 302.83,-57.56"/>
<polygon fill="midnightblue" stroke="midnightblue" points="382.42,-77.79 392.93,-76.42 383.86,-70.94 382.42,-77.79"/>
</g>
<!-- Node7 -->
<g id="node7" class="node">
<title>Node7</title>
<g id="a_node7"><a xlink:href="as__sensor__ov7670_8c.html#ab5de18dc5dd74817505126a51487b8b1" target="_top" xlink:title=" ">
<polygon fill="none" stroke="black" points="181.5,-0.5 181.5,-19.5 330.5,-19.5 330.5,-0.5 181.5,-0.5"/>
<text text-anchor="middle" x="256" y="-7.5" font-family="Helvetica,sans-Serif" font-size="10.00">as_sensor_ov7670_identify</text>
</a>
</g>
</g>
<!-- Node1&#45;&gt;Node7 -->
<g id="edge7" class="edge">
<title>Node1&#45;&gt;Node7</title>
<path fill="none" stroke="midnightblue" d="M418.04,-70.11C400.41,-57.18 373.8,-39.42 348,-29 338.42,-25.13 327.95,-22.01 317.62,-19.5"/>
<polygon fill="midnightblue" stroke="midnightblue" points="416.29,-73.17 426.39,-76.37 420.48,-67.57 416.29,-73.17"/>
</g>
<!-- Node3 -->
<g id="node3" class="node">
<title>Node3</title>
<g id="a_node3"><a xlink:href="group__as__sensor__ov7670.html#ga419a3339eac0f6abb8eafe24e468ae49" target="_top" xlink:title=" ">
<polygon fill="none" stroke="black" points="0,-76.5 0,-95.5 128,-95.5 128,-76.5 0,-76.5"/>
<text text-anchor="middle" x="64" y="-83.5" font-family="Helvetica,sans-Serif" font-size="10.00">as_sensor_ov7670_init</text>
</a>
</g>
</g>
<!-- Node2&#45;&gt;Node3 -->
<g id="edge2" class="edge">
<title>Node2&#45;&gt;Node3</title>
<path fill="none" stroke="midnightblue" d="M185.71,-149.94C178.28,-147.94 170.92,-145.64 164,-143 131.38,-130.57 96.82,-108.29 78.41,-95.58"/>
<polygon fill="midnightblue" stroke="midnightblue" points="184.92,-153.35 195.48,-152.41 186.64,-146.57 184.92,-153.35"/>
</g>
<!-- Node5&#45;&gt;Node3 -->
<g id="edge5" class="edge">
<title>Node5&#45;&gt;Node3</title>
<path fill="none" stroke="midnightblue" d="M165.68,-86C153.01,-86 140.21,-86 128.17,-86"/>
<polygon fill="midnightblue" stroke="midnightblue" points="165.8,-89.5 175.8,-86 165.8,-82.5 165.8,-89.5"/>
</g>
<!-- Node7&#45;&gt;Node3 -->
<g id="edge8" class="edge">
<title>Node7&#45;&gt;Node3</title>
<path fill="none" stroke="midnightblue" d="M185.71,-22.06C178.28,-24.06 170.92,-26.36 164,-29 131.38,-41.43 96.82,-63.71 78.41,-76.42"/>
<polygon fill="midnightblue" stroke="midnightblue" points="186.64,-25.43 195.48,-19.59 184.92,-18.65 186.64,-25.43"/>
</g>
</g>
</svg>
