<?xml version="1.0" encoding="UTF-8" standalone="no"?>
<!DOCTYPE svg PUBLIC "-//W3C//DTD SVG 1.1//EN"
 "http://www.w3.org/Graphics/SVG/1.1/DTD/svg11.dtd">
<!-- Generated by graphviz version 2.43.0 (0)
 -->
<!-- Title: as_memio_hw_read_update Pages: 1 -->
<svg width="767pt" height="505pt"
 viewBox="0.00 0.00 767.00 504.50" xmlns="http://www.w3.org/2000/svg" xmlns:xlink="http://www.w3.org/1999/xlink">
<g id="graph0" class="graph" transform="scale(1 1) rotate(0) translate(4 500.5)">
<title>as_memio_hw_read_update</title>
<!-- Node1 -->
<g id="node1" class="node">
<title>Node1</title>
<g id="a_node1"><a xlink:title=" ">
<polygon fill="#bfbfbf" stroke="black" points="0,-253 0,-272 153,-272 153,-253 0,-253"/>
<text text-anchor="middle" x="76.5" y="-260" font-family="Helvetica,sans-Serif" font-size="10.00">as_memio_hw_read_update</text>
</a>
</g>
</g>
<!-- Node2 -->
<g id="node2" class="node">
<title>Node2</title>
<g id="a_node2"><a xlink:href="group__as__buffer.html#ga6016c939a78457aac0650827fdce6ae3" target="_top" xlink:title=" ">
<polygon fill="none" stroke="black" points="204,-477 204,-496 314,-496 314,-477 204,-477"/>
<text text-anchor="middle" x="259" y="-484" font-family="Helvetica,sans-Serif" font-size="10.00">as_buffer_enqueue</text>
</a>
</g>
</g>
<!-- Node1&#45;&gt;Node2 -->
<g id="edge1" class="edge">
<title>Node1&#45;&gt;Node2</title>
<path fill="none" stroke="midnightblue" d="M79.91,-272.42C88.5,-305.57 120.76,-413.36 189,-467.5 191.28,-469.31 193.72,-470.95 196.28,-472.43"/>
<polygon fill="midnightblue" stroke="midnightblue" points="194.81,-475.61 205.32,-476.89 197.9,-469.33 194.81,-475.61"/>
</g>
<!-- Node3 -->
<g id="node3" class="node">
<title>Node3</title>
<g id="a_node3"><a xlink:href="group__as__buffer.html#ga207494f5e874a5db26b0bedf2784bf56" target="_top" xlink:title=" ">
<polygon fill="none" stroke="black" points="195,-427.5 195,-457.5 323,-457.5 323,-427.5 195,-427.5"/>
<text text-anchor="start" x="203" y="-445.5" font-family="Helvetica,sans-Serif" font-size="10.00">as_buffer_find_waiting</text>
<text text-anchor="middle" x="259" y="-434.5" font-family="Helvetica,sans-Serif" font-size="10.00">_buffer</text>
</a>
</g>
</g>
<!-- Node1&#45;&gt;Node3 -->
<g id="edge2" class="edge">
<title>Node1&#45;&gt;Node3</title>
<path fill="none" stroke="midnightblue" d="M81.81,-272.03C94.39,-298.85 133.74,-375.72 189,-417.5 191.46,-419.36 194.07,-421.09 196.79,-422.71"/>
<polygon fill="midnightblue" stroke="midnightblue" points="195.27,-425.86 205.74,-427.45 198.54,-419.68 195.27,-425.86"/>
</g>
<!-- Node4 -->
<g id="node4" class="node">
<title>Node4</title>
<g id="a_node4"><a xlink:href="group__as__buffer.html#ga07ae3ddfeb05316df9cb59b962c29817" target="_top" xlink:title=" ">
<polygon fill="none" stroke="black" points="207.5,-389 207.5,-408 310.5,-408 310.5,-389 207.5,-389"/>
<text text-anchor="middle" x="259" y="-396" font-family="Helvetica,sans-Serif" font-size="10.00">as_buffer_inspect</text>
</a>
</g>
</g>
<!-- Node1&#45;&gt;Node4 -->
<g id="edge3" class="edge">
<title>Node1&#45;&gt;Node4</title>
<path fill="none" stroke="midnightblue" d="M84.5,-272.04C100.62,-293.36 142.54,-345.3 189,-374.5 195.87,-378.82 203.62,-382.48 211.37,-385.54"/>
<polygon fill="midnightblue" stroke="midnightblue" points="210.18,-388.83 220.78,-388.98 212.59,-382.26 210.18,-388.83"/>
</g>
<!-- Node5 -->
<g id="node5" class="node">
<title>Node5</title>
<g id="a_node5"><a xlink:href="group__asterics__support.html#ga85ce164597e47f4aaee22c873e899d4b" target="_top" xlink:title=" ">
<polygon fill="none" stroke="black" points="369,-329.5 369,-359.5 491,-359.5 491,-329.5 369,-329.5"/>
<text text-anchor="start" x="377" y="-347.5" font-family="Helvetica,sans-Serif" font-size="10.00">as_dcache_invalidate</text>
<text text-anchor="middle" x="430" y="-336.5" font-family="Helvetica,sans-Serif" font-size="10.00">_range</text>
</a>
</g>
</g>
<!-- Node1&#45;&gt;Node5 -->
<g id="edge4" class="edge">
<title>Node1&#45;&gt;Node5</title>
<path fill="none" stroke="midnightblue" d="M86.8,-272.2C104.62,-290.02 145.68,-327.41 189,-341.5 243.94,-359.37 309.76,-358.76 358.56,-354.45"/>
<polygon fill="midnightblue" stroke="midnightblue" points="359.09,-357.92 368.71,-353.48 358.42,-350.95 359.09,-357.92"/>
</g>
<!-- Node6 -->
<g id="node6" class="node">
<title>Node6</title>
<g id="a_node6"><a xlink:href="as__cache_8c.html#a82dda14c005c5bd0028e5f25fad2923c" target="_top" xlink:title="Map virtual kernel address for DMA.">
<polygon fill="none" stroke="black" points="214.5,-275 214.5,-294 303.5,-294 303.5,-275 214.5,-275"/>
<text text-anchor="middle" x="259" y="-282" font-family="Helvetica,sans-Serif" font-size="10.00">as_map_single</text>
</a>
</g>
</g>
<!-- Node1&#45;&gt;Node6 -->
<g id="edge5" class="edge">
<title>Node1&#45;&gt;Node6</title>
<path fill="none" stroke="midnightblue" d="M153,-271.7C170.2,-273.8 188.13,-275.98 204.21,-277.94"/>
<polygon fill="midnightblue" stroke="midnightblue" points="204.12,-281.46 214.47,-279.2 204.97,-274.51 204.12,-281.46"/>
</g>
<!-- Node8 -->
<g id="node8" class="node">
<title>Node8</title>
<g id="a_node8"><a xlink:href="group__as__reader__writer.html#gaaea10b48e35a224a5870cd3322ffbec2" target="_top" xlink:title="Returns the next address on which the hardware will perform a write operation.">
<polygon fill="none" stroke="black" points="199.5,-225.5 199.5,-255.5 318.5,-255.5 318.5,-225.5 199.5,-225.5"/>
<text text-anchor="start" x="207.5" y="-243.5" font-family="Helvetica,sans-Serif" font-size="10.00">as_reader_writer_get</text>
<text text-anchor="middle" x="259" y="-232.5" font-family="Helvetica,sans-Serif" font-size="10.00">_cur_hw_addr</text>
</a>
</g>
</g>
<!-- Node1&#45;&gt;Node8 -->
<g id="edge7" class="edge">
<title>Node1&#45;&gt;Node8</title>
<path fill="none" stroke="midnightblue" d="M153,-253.3C164.96,-251.84 177.27,-250.34 189.06,-248.9"/>
<polygon fill="midnightblue" stroke="midnightblue" points="189.77,-252.34 199.27,-247.66 188.92,-245.39 189.77,-252.34"/>
</g>
<!-- Node12 -->
<g id="node12" class="node">
<title>Node12</title>
<g id="a_node12"><a xlink:href="group__as__reader__writer.html#ga0e0a5b7e0dd6a14cb0f4251d00a783e8" target="_top" xlink:title="Checks if module is busy.">
<polygon fill="none" stroke="black" points="189,-187 189,-206 329,-206 329,-187 189,-187"/>
<text text-anchor="middle" x="259" y="-194" font-family="Helvetica,sans-Serif" font-size="10.00">as_reader_writer_is_busy</text>
</a>
</g>
</g>
<!-- Node1&#45;&gt;Node12 -->
<g id="edge11" class="edge">
<title>Node1&#45;&gt;Node12</title>
<path fill="none" stroke="midnightblue" d="M98.61,-252.98C120.84,-243.15 156.98,-227.71 189,-216.5 196.53,-213.86 204.61,-211.3 212.49,-208.93"/>
<polygon fill="midnightblue" stroke="midnightblue" points="213.7,-212.22 222.31,-206.04 211.73,-205.5 213.7,-212.22"/>
</g>
<!-- Node14 -->
<g id="node14" class="node">
<title>Node14</title>
<g id="a_node14"><a xlink:href="group__as__reader__writer.html#gab3f2465225201507d51787478ac5955a" target="_top" xlink:title="Checks if another operation is queued.">
<polygon fill="none" stroke="black" points="203,-137.5 203,-167.5 315,-167.5 315,-137.5 203,-137.5"/>
<text text-anchor="start" x="211" y="-155.5" font-family="Helvetica,sans-Serif" font-size="10.00">as_reader_writer_is</text>
<text text-anchor="middle" x="259" y="-144.5" font-family="Helvetica,sans-Serif" font-size="10.00">_pending_go</text>
</a>
</g>
</g>
<!-- Node1&#45;&gt;Node14 -->
<g id="edge15" class="edge">
<title>Node1&#45;&gt;Node14</title>
<path fill="none" stroke="midnightblue" d="M87.82,-252.88C106.65,-235.74 148.4,-199.65 189,-177.5 192.88,-175.38 196.97,-173.38 201.16,-171.5"/>
<polygon fill="midnightblue" stroke="midnightblue" points="202.55,-174.71 210.4,-167.58 199.82,-168.27 202.55,-174.71"/>
</g>
<!-- Node15 -->
<g id="node15" class="node">
<title>Node15</title>
<g id="a_node15"><a xlink:href="group__as__reader__writer.html#ga38bb160b6e30eb5fce6df2e4b4894fad" target="_top" xlink:title="Starts operation of hardware module.">
<polygon fill="none" stroke="black" points="191,-99 191,-118 327,-118 327,-99 191,-99"/>
<text text-anchor="middle" x="259" y="-106" font-family="Helvetica,sans-Serif" font-size="10.00">as_reader_writer_set_go</text>
</a>
</g>
</g>
<!-- Node1&#45;&gt;Node15 -->
<g id="edge18" class="edge">
<title>Node1&#45;&gt;Node15</title>
<path fill="none" stroke="midnightblue" d="M82.83,-252.71C96.82,-227.96 137.09,-162.47 189,-128.5 192.8,-126.01 196.92,-123.83 201.18,-121.91"/>
<polygon fill="midnightblue" stroke="midnightblue" points="202.69,-125.08 210.69,-118.13 200.11,-118.57 202.69,-125.08"/>
</g>
<!-- Node19 -->
<g id="node19" class="node">
<title>Node19</title>
<g id="a_node19"><a xlink:href="group__as__reader__writer.html#ga43d2f73d7d42dd5704160d4ddacfaa1e" target="_top" xlink:title="Sets the start address of the first section to the given value.">
<polygon fill="none" stroke="black" points="199.5,-49.5 199.5,-79.5 318.5,-79.5 318.5,-49.5 199.5,-49.5"/>
<text text-anchor="start" x="207.5" y="-67.5" font-family="Helvetica,sans-Serif" font-size="10.00">as_reader_writer_set</text>
<text text-anchor="middle" x="259" y="-56.5" font-family="Helvetica,sans-Serif" font-size="10.00">_section_addr</text>
</a>
</g>
</g>
<!-- Node1&#45;&gt;Node19 -->
<g id="edge24" class="edge">
<title>Node1&#45;&gt;Node19</title>
<path fill="none" stroke="midnightblue" d="M81.16,-252.7C92.53,-223.55 130.04,-136.49 189,-89.5 191.09,-87.83 193.31,-86.27 195.61,-84.81"/>
<polygon fill="midnightblue" stroke="midnightblue" points="197.82,-87.58 204.84,-79.64 194.4,-81.47 197.82,-87.58"/>
</g>
<!-- Node20 -->
<g id="node20" class="node">
<title>Node20</title>
<g id="a_node20"><a xlink:href="group__as__reader__writer.html#ga06436c5cb6a63439f2e4b7c14c71fb83" target="_top" xlink:title="Sets the size of a single section in bytes.">
<polygon fill="none" stroke="black" points="199.5,-0.5 199.5,-30.5 318.5,-30.5 318.5,-0.5 199.5,-0.5"/>
<text text-anchor="start" x="207.5" y="-18.5" font-family="Helvetica,sans-Serif" font-size="10.00">as_reader_writer_set</text>
<text text-anchor="middle" x="259" y="-7.5" font-family="Helvetica,sans-Serif" font-size="10.00">_section_size</text>
</a>
</g>
</g>
<!-- Node1&#45;&gt;Node20 -->
<g id="edge27" class="edge">
<title>Node1&#45;&gt;Node20</title>
<path fill="none" stroke="midnightblue" d="M79.56,-252.87C87.39,-218.62 118.44,-101.5 189,-39.5 190.34,-38.32 191.75,-37.2 193.2,-36.13"/>
<polygon fill="midnightblue" stroke="midnightblue" points="195.41,-38.88 202.01,-30.59 191.68,-32.95 195.41,-38.88"/>
</g>
<!-- Node21 -->
<g id="node21" class="node">
<title>Node21</title>
<g id="a_node21"><a xlink:href="as__cache_8c.html#ae76087a19400fcaebb8397a8a1ee828b" target="_top" xlink:title="Unmap DMA address at end of transfer.">
<polygon fill="none" stroke="black" points="208.5,-313 208.5,-332 309.5,-332 309.5,-313 208.5,-313"/>
<text text-anchor="middle" x="259" y="-320" font-family="Helvetica,sans-Serif" font-size="10.00">as_unmap_single</text>
</a>
</g>
</g>
<!-- Node1&#45;&gt;Node21 -->
<g id="edge30" class="edge">
<title>Node1&#45;&gt;Node21</title>
<path fill="none" stroke="midnightblue" d="M101.66,-272.05C124.11,-280.76 158.56,-293.73 189,-303.5 196.16,-305.8 203.78,-308.07 211.26,-310.2"/>
<polygon fill="midnightblue" stroke="midnightblue" points="210.37,-313.59 220.95,-312.91 212.26,-306.85 210.37,-313.59"/>
</g>
<!-- Node7 -->
<g id="node7" class="node">
<title>Node7</title>
<g id="a_node7"><a xlink:href="group__asterics__support.html#ga488e796d469c62267d9547fd11f8d764" target="_top" xlink:title=" ">
<polygon fill="none" stroke="black" points="365,-275 365,-294 495,-294 495,-275 365,-275"/>
<text text-anchor="middle" x="430" y="-282" font-family="Helvetica,sans-Serif" font-size="10.00">as_dcache_flush_range</text>
</a>
</g>
</g>
<!-- Node6&#45;&gt;Node7 -->
<g id="edge6" class="edge">
<title>Node6&#45;&gt;Node7</title>
<path fill="none" stroke="midnightblue" d="M303.52,-284.5C319.14,-284.5 337.22,-284.5 354.7,-284.5"/>
<polygon fill="midnightblue" stroke="midnightblue" points="354.91,-288 364.91,-284.5 354.91,-281 354.91,-288"/>
</g>
<!-- Node9 -->
<g id="node9" class="node">
<title>Node9</title>
<g id="a_node9"><a xlink:href="group__asterics__support.html#gaa7520f5b717e163da743500adb2eb0b9" target="_top" xlink:title=" ">
<polygon fill="none" stroke="black" points="384.5,-140 384.5,-159 475.5,-159 475.5,-140 384.5,-140"/>
<text text-anchor="middle" x="430" y="-147" font-family="Helvetica,sans-Serif" font-size="10.00">as_module_reg</text>
</a>
</g>
</g>
<!-- Node8&#45;&gt;Node9 -->
<g id="edge8" class="edge">
<title>Node8&#45;&gt;Node9</title>
<path fill="none" stroke="midnightblue" d="M311.28,-225.41C317.5,-222.59 323.57,-219.3 329,-215.5 349.42,-201.21 344.56,-186.77 365,-172.5 370.34,-168.77 376.34,-165.59 382.48,-162.88"/>
<polygon fill="midnightblue" stroke="midnightblue" points="384.18,-165.97 392.16,-159.01 381.58,-159.47 384.18,-165.97"/>
</g>
<!-- Node10 -->
<g id="node10" class="node">
<title>Node10</title>
<g id="a_node10"><a xlink:href="group__asterics__support.html#ga8e5c2bfd2e4498d10289377bd94cef07" target="_top" xlink:title=" ">
<polygon fill="none" stroke="black" points="532.5,-182 532.5,-201 608.5,-201 608.5,-182 532.5,-182"/>
<text text-anchor="middle" x="570.5" y="-189" font-family="Helvetica,sans-Serif" font-size="10.00">as_reg_read</text>
</a>
</g>
</g>
<!-- Node8&#45;&gt;Node10 -->
<g id="edge9" class="edge">
<title>Node8&#45;&gt;Node10</title>
<path fill="none" stroke="midnightblue" d="M318.74,-235.02C366.47,-230.09 435.41,-221.86 495,-210.5 505.03,-208.59 515.72,-206.12 525.78,-203.6"/>
<polygon fill="midnightblue" stroke="midnightblue" points="526.76,-206.97 535.58,-201.09 525.02,-200.19 526.76,-206.97"/>
</g>
<!-- Node11 -->
<g id="node11" class="node">
<title>Node11</title>
<g id="a_node11"><a xlink:href="group__asterics__support.html#ga4c6d688b840a6e2edc9bc0b8ed961677" target="_top" xlink:title=" ">
<polygon fill="none" stroke="black" points="652.5,-182 652.5,-201 752.5,-201 752.5,-182 652.5,-182"/>
<text text-anchor="middle" x="702.5" y="-189" font-family="Helvetica,sans-Serif" font-size="10.00">as_reg_to_uint32</text>
</a>
</g>
</g>
<!-- Node10&#45;&gt;Node11 -->
<g id="edge10" class="edge">
<title>Node10&#45;&gt;Node11</title>
<path fill="none" stroke="midnightblue" d="M608.75,-191.5C619.09,-191.5 630.59,-191.5 641.86,-191.5"/>
<polygon fill="midnightblue" stroke="midnightblue" points="642.12,-195 652.12,-191.5 642.12,-188 642.12,-195"/>
</g>
<!-- Node12&#45;&gt;Node9 -->
<g id="edge12" class="edge">
<title>Node12&#45;&gt;Node9</title>
<path fill="none" stroke="midnightblue" d="M294.76,-186.96C305.72,-183.94 317.87,-180.59 329,-177.5 347.3,-172.42 367.47,-166.78 384.87,-161.9"/>
<polygon fill="midnightblue" stroke="midnightblue" points="386.08,-165.2 394.76,-159.13 384.19,-158.46 386.08,-165.2"/>
</g>
<!-- Node13 -->
<g id="node13" class="node">
<title>Node13</title>
<g id="a_node13"><a xlink:href="group__asterics__support.html#ga36a2ed59c59831bee59daaae3cb6cb35" target="_top" xlink:title=" ">
<polygon fill="none" stroke="black" points="370.5,-182 370.5,-201 489.5,-201 489.5,-182 370.5,-182"/>
<text text-anchor="middle" x="430" y="-189" font-family="Helvetica,sans-Serif" font-size="10.00">as_reg_read_masked</text>
</a>
</g>
</g>
<!-- Node12&#45;&gt;Node13 -->
<g id="edge13" class="edge">
<title>Node12&#45;&gt;Node13</title>
<path fill="none" stroke="midnightblue" d="M329.23,-194.45C339.48,-194.15 350.05,-193.84 360.29,-193.53"/>
<polygon fill="midnightblue" stroke="midnightblue" points="360.51,-197.03 370.41,-193.23 360.31,-190.03 360.51,-197.03"/>
</g>
<!-- Node13&#45;&gt;Node10 -->
<g id="edge14" class="edge">
<title>Node13&#45;&gt;Node10</title>
<path fill="none" stroke="midnightblue" d="M489.74,-191.5C500.57,-191.5 511.76,-191.5 522.21,-191.5"/>
<polygon fill="midnightblue" stroke="midnightblue" points="522.37,-195 532.37,-191.5 522.37,-188 522.37,-195"/>
</g>
<!-- Node14&#45;&gt;Node9 -->
<g id="edge16" class="edge">
<title>Node14&#45;&gt;Node9</title>
<path fill="none" stroke="midnightblue" d="M315.34,-151.52C334.18,-151.18 355.23,-150.81 374.04,-150.48"/>
<polygon fill="midnightblue" stroke="midnightblue" points="374.3,-153.97 384.24,-150.29 374.18,-146.97 374.3,-153.97"/>
</g>
<!-- Node14&#45;&gt;Node13 -->
<g id="edge17" class="edge">
<title>Node14&#45;&gt;Node13</title>
<path fill="none" stroke="midnightblue" d="M315.34,-165.27C335.51,-169.93 358.22,-175.17 378,-179.73"/>
<polygon fill="midnightblue" stroke="midnightblue" points="377.22,-183.14 387.75,-181.98 378.79,-176.32 377.22,-183.14"/>
</g>
<!-- Node15&#45;&gt;Node9 -->
<g id="edge19" class="edge">
<title>Node15&#45;&gt;Node9</title>
<path fill="none" stroke="midnightblue" d="M299.2,-118.01C323.21,-123.84 354.16,-131.34 379.82,-137.57"/>
<polygon fill="midnightblue" stroke="midnightblue" points="379.18,-141.01 389.72,-139.97 380.83,-134.21 379.18,-141.01"/>
</g>
<!-- Node16 -->
<g id="node16" class="node">
<title>Node16</title>
<g id="a_node16"><a xlink:href="group__asterics__support.html#ga0ccb0610d764a95bda989e35fba59490" target="_top" xlink:title=" ">
<polygon fill="none" stroke="black" points="369,-99 369,-118 491,-118 491,-99 369,-99"/>
<text text-anchor="middle" x="430" y="-106" font-family="Helvetica,sans-Serif" font-size="10.00">as_reg_write_masked</text>
</a>
</g>
</g>
<!-- Node15&#45;&gt;Node16 -->
<g id="edge20" class="edge">
<title>Node15&#45;&gt;Node16</title>
<path fill="none" stroke="midnightblue" d="M327.28,-108.5C337.57,-108.5 348.21,-108.5 358.56,-108.5"/>
<polygon fill="midnightblue" stroke="midnightblue" points="358.79,-112 368.79,-108.5 358.79,-105 358.79,-112"/>
</g>
<!-- Node16&#45;&gt;Node10 -->
<g id="edge21" class="edge">
<title>Node16&#45;&gt;Node10</title>
<path fill="none" stroke="midnightblue" d="M466.18,-118.1C475.82,-121.39 486.07,-125.52 495,-130.5 516.73,-142.61 538.36,-161.25 552.68,-174.74"/>
<polygon fill="midnightblue" stroke="midnightblue" points="550.58,-177.58 560.2,-182 555.44,-172.54 550.58,-177.58"/>
</g>
<!-- Node17 -->
<g id="node17" class="node">
<title>Node17</title>
<g id="a_node17"><a xlink:href="group__asterics__support.html#ga6345b997e24a6cd5f9143cef27629d49" target="_top" xlink:title=" ">
<polygon fill="none" stroke="black" points="531,-55 531,-74 610,-74 610,-55 531,-55"/>
<text text-anchor="middle" x="570.5" y="-62" font-family="Helvetica,sans-Serif" font-size="10.00">as_reg_write</text>
</a>
</g>
</g>
<!-- Node16&#45;&gt;Node17 -->
<g id="edge22" class="edge">
<title>Node16&#45;&gt;Node17</title>
<path fill="none" stroke="midnightblue" d="M461.05,-98.95C481.2,-92.55 507.94,-84.06 529.83,-77.1"/>
<polygon fill="midnightblue" stroke="midnightblue" points="531.04,-80.39 539.51,-74.03 528.92,-73.72 531.04,-80.39"/>
</g>
<!-- Node18 -->
<g id="node18" class="node">
<title>Node18</title>
<g id="a_node18"><a xlink:href="group__asterics__support.html#gab651cc2c035ce61b354578434e59f822" target="_top" xlink:title=" ">
<polygon fill="none" stroke="black" points="646,-55 646,-74 759,-74 759,-55 646,-55"/>
<text text-anchor="middle" x="702.5" y="-62" font-family="Helvetica,sans-Serif" font-size="10.00">as_reg_from_uint32</text>
</a>
</g>
</g>
<!-- Node17&#45;&gt;Node18 -->
<g id="edge23" class="edge">
<title>Node17&#45;&gt;Node18</title>
<path fill="none" stroke="midnightblue" d="M610.15,-64.5C618.22,-64.5 626.94,-64.5 635.68,-64.5"/>
<polygon fill="midnightblue" stroke="midnightblue" points="635.92,-68 645.92,-64.5 635.92,-61 635.92,-68"/>
</g>
<!-- Node19&#45;&gt;Node9 -->
<g id="edge25" class="edge">
<title>Node19&#45;&gt;Node9</title>
<path fill="none" stroke="midnightblue" d="M310.34,-79.59C316.85,-82.44 323.24,-85.73 329,-89.5 348.46,-102.25 345.44,-114.91 365,-127.5 370.25,-130.88 376.08,-133.8 382.02,-136.32"/>
<polygon fill="midnightblue" stroke="midnightblue" points="380.8,-139.59 391.39,-139.93 383.32,-133.07 380.8,-139.59"/>
</g>
<!-- Node19&#45;&gt;Node17 -->
<g id="edge26" class="edge">
<title>Node19&#45;&gt;Node17</title>
<path fill="none" stroke="midnightblue" d="M318.58,-64.5C377.02,-64.5 465.79,-64.5 520.58,-64.5"/>
<polygon fill="midnightblue" stroke="midnightblue" points="520.74,-68 530.74,-64.5 520.74,-61 520.74,-68"/>
</g>
<!-- Node20&#45;&gt;Node9 -->
<g id="edge28" class="edge">
<title>Node20&#45;&gt;Node9</title>
<path fill="none" stroke="midnightblue" d="M316.95,-30.66C321.31,-33.17 325.41,-36.1 329,-39.5 359.67,-68.57 334.28,-98.49 365,-127.5 368.17,-130.49 371.77,-133.08 375.6,-135.32"/>
<polygon fill="midnightblue" stroke="midnightblue" points="374.37,-138.62 384.89,-139.93 377.49,-132.35 374.37,-138.62"/>
</g>
<!-- Node20&#45;&gt;Node17 -->
<g id="edge29" class="edge">
<title>Node20&#45;&gt;Node17</title>
<path fill="none" stroke="midnightblue" d="M318.58,-24.77C377.02,-34.03 465.79,-48.08 520.58,-56.76"/>
<polygon fill="midnightblue" stroke="midnightblue" points="520.31,-60.26 530.74,-58.36 521.41,-53.34 520.31,-60.26"/>
</g>
<!-- Node21&#45;&gt;Node5 -->
<g id="edge31" class="edge">
<title>Node21&#45;&gt;Node5</title>
<path fill="none" stroke="midnightblue" d="M309.79,-328.98C325.11,-330.98 342.27,-333.21 358.7,-335.35"/>
<polygon fill="midnightblue" stroke="midnightblue" points="358.44,-338.84 368.81,-336.66 359.34,-331.9 358.44,-338.84"/>
</g>
</g>
</svg>
