<?xml version="1.0" encoding="UTF-8" standalone="no"?>
<!DOCTYPE svg PUBLIC "-//W3C//DTD SVG 1.1//EN"
 "http://www.w3.org/Graphics/SVG/1.1/DTD/svg11.dtd">
<!-- Generated by graphviz version 2.43.0 (0)
 -->
<!-- Title: as_driver.c Pages: 1 -->
<svg width="1408pt" height="252pt"
 viewBox="0.00 0.00 1407.54 252.00" xmlns="http://www.w3.org/2000/svg" xmlns:xlink="http://www.w3.org/1999/xlink">
<g id="graph0" class="graph" transform="scale(1 1) rotate(0) translate(4 248)">
<title>as_driver.c</title>
<!-- Node1 -->
<g id="node1" class="node">
<title>Node1</title>
<g id="a_node1"><a xlink:title="Linux driver implementation.">
<polygon fill="#bfbfbf" stroke="black" points="511.04,-224.5 511.04,-243.5 581.04,-243.5 581.04,-224.5 511.04,-224.5"/>
<text text-anchor="middle" x="546.04" y="-231.5" font-family="Helvetica,sans-Serif" font-size="10.00">as_driver.c</text>
</a>
</g>
</g>
<!-- Node2 -->
<g id="node2" class="node">
<title>Node2</title>
<g id="a_node2"><a xlink:href="as__driver_8h.html" target="_top" xlink:title="Linux kernel driver header file.">
<polygon fill="none" stroke="black" points="812.54,-168.5 812.54,-187.5 883.54,-187.5 883.54,-168.5 812.54,-168.5"/>
<text text-anchor="middle" x="848.04" y="-175.5" font-family="Helvetica,sans-Serif" font-size="10.00">as_driver.h</text>
</a>
</g>
</g>
<!-- Node1&#45;&gt;Node2 -->
<g id="edge1" class="edge">
<title>Node1&#45;&gt;Node2</title>
<path fill="none" stroke="midnightblue" d="M581.16,-227.21C628.96,-219.25 717.45,-204.26 802.44,-188.26"/>
<polygon fill="midnightblue" stroke="midnightblue" points="803.34,-191.66 812.52,-186.36 802.04,-184.78 803.34,-191.66"/>
</g>
<!-- Node18 -->
<g id="node18" class="node">
<title>Node18</title>
<g id="a_node18"><a xlink:href="as__buffer_8h.html" target="_top" xlink:title="Header filer containing structure definitions for use of ASTERICS buffer objects.">
<polygon fill="none" stroke="black" points="196.54,-0.5 196.54,-19.5 267.54,-19.5 267.54,-0.5 196.54,-0.5"/>
<text text-anchor="middle" x="232.04" y="-7.5" font-family="Helvetica,sans-Serif" font-size="10.00">as_buffer.h</text>
</a>
</g>
</g>
<!-- Node1&#45;&gt;Node18 -->
<g id="edge27" class="edge">
<title>Node1&#45;&gt;Node18</title>
<path fill="none" stroke="midnightblue" d="M510.96,-232.71C397.91,-231.42 48.57,-224.49 15.04,-188 -50.36,-116.82 116.72,-49.44 194.62,-22.89"/>
<polygon fill="midnightblue" stroke="midnightblue" points="196.17,-26.06 204.54,-19.57 193.95,-19.43 196.17,-26.06"/>
</g>
<!-- Node19 -->
<g id="node19" class="node">
<title>Node19</title>
<g id="a_node19"><a xlink:title=" ">
<polygon fill="none" stroke="#bfbfbf" points="37.54,-168.5 37.54,-187.5 96.54,-187.5 96.54,-168.5 37.54,-168.5"/>
<text text-anchor="middle" x="67.04" y="-175.5" font-family="Helvetica,sans-Serif" font-size="10.00">asm/io.h</text>
</a>
</g>
</g>
<!-- Node1&#45;&gt;Node19 -->
<g id="edge18" class="edge">
<title>Node1&#45;&gt;Node19</title>
<path fill="none" stroke="midnightblue" d="M510.77,-230.89C437.46,-226.19 263.17,-213.35 107.03,-187.96"/>
<polygon fill="midnightblue" stroke="midnightblue" points="107.21,-184.44 96.78,-186.26 106.07,-191.34 107.21,-184.44"/>
</g>
<!-- Node20 -->
<g id="node20" class="node">
<title>Node20</title>
<g id="a_node20"><a xlink:title=" ">
<polygon fill="none" stroke="#bfbfbf" points="114.54,-168.5 114.54,-187.5 199.54,-187.5 199.54,-168.5 114.54,-168.5"/>
<text text-anchor="middle" x="157.04" y="-175.5" font-family="Helvetica,sans-Serif" font-size="10.00">linux/device.h</text>
</a>
</g>
</g>
<!-- Node1&#45;&gt;Node20 -->
<g id="edge19" class="edge">
<title>Node1&#45;&gt;Node20</title>
<path fill="none" stroke="midnightblue" d="M510.56,-228.72C450.8,-221.41 326.06,-205.73 209.74,-188.05"/>
<polygon fill="midnightblue" stroke="midnightblue" points="210,-184.55 199.59,-186.5 208.94,-191.47 210,-184.55"/>
</g>
<!-- Node21 -->
<g id="node21" class="node">
<title>Node21</title>
<g id="a_node21"><a xlink:title=" ">
<polygon fill="none" stroke="#bfbfbf" points="218.04,-168.5 218.04,-187.5 280.04,-187.5 280.04,-168.5 218.04,-168.5"/>
<text text-anchor="middle" x="249.04" y="-175.5" font-family="Helvetica,sans-Serif" font-size="10.00">linux/fs.h</text>
</a>
</g>
</g>
<!-- Node1&#45;&gt;Node21 -->
<g id="edge20" class="edge">
<title>Node1&#45;&gt;Node21</title>
<path fill="none" stroke="midnightblue" d="M510.76,-227.28C463.14,-219.46 375.44,-204.67 290.2,-187.96"/>
<polygon fill="midnightblue" stroke="midnightblue" points="290.84,-184.52 280.35,-186.02 289.49,-191.38 290.84,-184.52"/>
</g>
<!-- Node22 -->
<g id="node22" class="node">
<title>Node22</title>
<g id="a_node22"><a xlink:title=" ">
<polygon fill="none" stroke="#bfbfbf" points="298.54,-168.5 298.54,-187.5 393.54,-187.5 393.54,-168.5 298.54,-168.5"/>
<text text-anchor="middle" x="346.04" y="-175.5" font-family="Helvetica,sans-Serif" font-size="10.00">linux/interrupt.h</text>
</a>
</g>
</g>
<!-- Node1&#45;&gt;Node22 -->
<g id="edge21" class="edge">
<title>Node1&#45;&gt;Node22</title>
<path fill="none" stroke="midnightblue" d="M514.35,-224.44C479.98,-215.16 424.97,-200.31 387.25,-190.13"/>
<polygon fill="midnightblue" stroke="midnightblue" points="388.15,-186.74 377.59,-187.52 386.33,-193.5 388.15,-186.74"/>
</g>
<!-- Node23 -->
<g id="node23" class="node">
<title>Node23</title>
<g id="a_node23"><a xlink:title=" ">
<polygon fill="none" stroke="#bfbfbf" points="411.54,-168.5 411.54,-187.5 476.54,-187.5 476.54,-168.5 411.54,-168.5"/>
<text text-anchor="middle" x="444.04" y="-175.5" font-family="Helvetica,sans-Serif" font-size="10.00">linux/irq.h</text>
</a>
</g>
</g>
<!-- Node1&#45;&gt;Node23 -->
<g id="edge22" class="edge">
<title>Node1&#45;&gt;Node23</title>
<path fill="none" stroke="midnightblue" d="M529.66,-224.32C513.37,-215.7 488.18,-202.36 469.33,-192.39"/>
<polygon fill="midnightblue" stroke="midnightblue" points="470.87,-189.24 460.39,-187.65 467.59,-195.43 470.87,-189.24"/>
</g>
<!-- Node24 -->
<g id="node24" class="node">
<title>Node24</title>
<g id="a_node24"><a xlink:title=" ">
<polygon fill="none" stroke="#bfbfbf" points="495.04,-168.5 495.04,-187.5 597.04,-187.5 597.04,-168.5 495.04,-168.5"/>
<text text-anchor="middle" x="546.04" y="-175.5" font-family="Helvetica,sans-Serif" font-size="10.00">linux/irqdomain.h</text>
</a>
</g>
</g>
<!-- Node1&#45;&gt;Node24 -->
<g id="edge23" class="edge">
<title>Node1&#45;&gt;Node24</title>
<path fill="none" stroke="midnightblue" d="M546.04,-224.08C546.04,-217.01 546.04,-206.86 546.04,-197.99"/>
<polygon fill="midnightblue" stroke="midnightblue" points="549.54,-197.75 546.04,-187.75 542.54,-197.75 549.54,-197.75"/>
</g>
<!-- Node25 -->
<g id="node25" class="node">
<title>Node25</title>
<g id="a_node25"><a xlink:title=" ">
<polygon fill="none" stroke="#bfbfbf" points="615.04,-168.5 615.04,-187.5 687.04,-187.5 687.04,-168.5 615.04,-168.5"/>
<text text-anchor="middle" x="651.04" y="-175.5" font-family="Helvetica,sans-Serif" font-size="10.00">linux/mm.h</text>
</a>
</g>
</g>
<!-- Node1&#45;&gt;Node25 -->
<g id="edge24" class="edge">
<title>Node1&#45;&gt;Node25</title>
<path fill="none" stroke="midnightblue" d="M562.91,-224.32C579.75,-215.66 605.85,-202.24 625.28,-192.25"/>
<polygon fill="midnightblue" stroke="midnightblue" points="626.92,-195.34 634.21,-187.65 623.72,-189.12 626.92,-195.34"/>
</g>
<!-- Node26 -->
<g id="node26" class="node">
<title>Node26</title>
<g id="a_node26"><a xlink:title=" ">
<polygon fill="none" stroke="#bfbfbf" points="705.54,-168.5 705.54,-187.5 794.54,-187.5 794.54,-168.5 705.54,-168.5"/>
<text text-anchor="middle" x="750.04" y="-175.5" font-family="Helvetica,sans-Serif" font-size="10.00">linux/module.h</text>
</a>
</g>
</g>
<!-- Node1&#45;&gt;Node26 -->
<g id="edge25" class="edge">
<title>Node1&#45;&gt;Node26</title>
<path fill="none" stroke="midnightblue" d="M578.37,-224.44C613.43,-215.16 669.54,-200.31 708.01,-190.13"/>
<polygon fill="midnightblue" stroke="midnightblue" points="709.1,-193.46 717.87,-187.52 707.31,-186.69 709.1,-193.46"/>
</g>
<!-- Node27 -->
<g id="node27" class="node">
<title>Node27</title>
<g id="a_node27"><a xlink:title=" ">
<polygon fill="none" stroke="#bfbfbf" points="1026.04,-112.5 1026.04,-131.5 1158.04,-131.5 1158.04,-112.5 1026.04,-112.5"/>
<text text-anchor="middle" x="1092.04" y="-119.5" font-family="Helvetica,sans-Serif" font-size="10.00">linux/platform_device.h</text>
</a>
</g>
</g>
<!-- Node1&#45;&gt;Node27 -->
<g id="edge26" class="edge">
<title>Node1&#45;&gt;Node27</title>
<path fill="none" stroke="midnightblue" d="M581.14,-231.96C674.44,-228.81 926.77,-217.71 1004.04,-188 1032.43,-177.09 1059.72,-154.4 1076.19,-138.94"/>
<polygon fill="midnightblue" stroke="midnightblue" points="1079.02,-141.08 1083.77,-131.61 1074.15,-136.05 1079.02,-141.08"/>
</g>
<!-- Node28 -->
<g id="node28" class="node">
<title>Node28</title>
<g id="a_node28"><a xlink:href="as__i2c__driver_8h.html" target="_top" xlink:title=" ">
<polygon fill="none" stroke="black" points="1158.04,-168.5 1158.04,-187.5 1248.04,-187.5 1248.04,-168.5 1158.04,-168.5"/>
<text text-anchor="middle" x="1203.04" y="-175.5" font-family="Helvetica,sans-Serif" font-size="10.00">as_i2c_driver.h</text>
</a>
</g>
</g>
<!-- Node1&#45;&gt;Node28 -->
<g id="edge28" class="edge">
<title>Node1&#45;&gt;Node28</title>
<path fill="none" stroke="midnightblue" d="M581.37,-230.1C689.45,-221.21 1016.31,-194.35 1147.59,-183.56"/>
<polygon fill="midnightblue" stroke="midnightblue" points="1148.13,-187.03 1157.81,-182.72 1147.56,-180.05 1148.13,-187.03"/>
</g>
<!-- Node32 -->
<g id="node32" class="node">
<title>Node32</title>
<g id="a_node32"><a xlink:href="as__memio_8h.html" target="_top" xlink:title=" ">
<polygon fill="none" stroke="black" points="901.54,-168.5 901.54,-187.5 978.54,-187.5 978.54,-168.5 901.54,-168.5"/>
<text text-anchor="middle" x="940.04" y="-175.5" font-family="Helvetica,sans-Serif" font-size="10.00">as_memio.h</text>
</a>
</g>
</g>
<!-- Node1&#45;&gt;Node32 -->
<g id="edge34" class="edge">
<title>Node1&#45;&gt;Node32</title>
<path fill="none" stroke="midnightblue" d="M581.11,-229.16C642.14,-222.32 772.02,-207.1 891.31,-188.2"/>
<polygon fill="midnightblue" stroke="midnightblue" points="892.02,-191.63 901.35,-186.6 890.92,-184.72 892.02,-191.63"/>
</g>
<!-- Node33 -->
<g id="node33" class="node">
<title>Node33</title>
<g id="a_node33"><a xlink:href="as__reader__writer_8h.html" target="_top" xlink:title="Driver (header file) for as_reader_writer module.">
<polygon fill="none" stroke="black" points="900.54,-112.5 900.54,-131.5 1007.54,-131.5 1007.54,-112.5 900.54,-112.5"/>
<text text-anchor="middle" x="954.04" y="-119.5" font-family="Helvetica,sans-Serif" font-size="10.00">as_reader_writer.h</text>
</a>
</g>
</g>
<!-- Node1&#45;&gt;Node33 -->
<g id="edge38" class="edge">
<title>Node1&#45;&gt;Node33</title>
<path fill="none" stroke="midnightblue" d="M581.1,-232.07C680.86,-229.08 960.9,-218.05 988.04,-188 1001.15,-173.49 986.3,-153 972.32,-138.92"/>
<polygon fill="midnightblue" stroke="midnightblue" points="974.49,-136.16 964.82,-131.84 969.69,-141.25 974.49,-136.16"/>
</g>
<!-- Node34 -->
<g id="node34" class="node">
<title>Node34</title>
<g id="a_node34"><a xlink:href="as__cache_8h.html" target="_top" xlink:title=" ">
<polygon fill="none" stroke="black" points="196.54,-112.5 196.54,-131.5 267.54,-131.5 267.54,-112.5 196.54,-112.5"/>
<text text-anchor="middle" x="232.04" y="-119.5" font-family="Helvetica,sans-Serif" font-size="10.00">as_cache.h</text>
</a>
</g>
</g>
<!-- Node1&#45;&gt;Node34 -->
<g id="edge39" class="edge">
<title>Node1&#45;&gt;Node34</title>
<path fill="none" stroke="midnightblue" d="M511.04,-232.63C399.93,-231.11 60.64,-223.55 28.04,-188 -19.07,-136.62 112.31,-125.64 185.96,-123.44"/>
<polygon fill="midnightblue" stroke="midnightblue" points="186.47,-126.92 196.38,-123.17 186.29,-119.93 186.47,-126.92"/>
</g>
<!-- Node3 -->
<g id="node3" class="node">
<title>Node3</title>
<g id="a_node3"><a xlink:title=" ">
<polygon fill="none" stroke="#bfbfbf" points="730.54,-112.5 730.54,-131.5 805.54,-131.5 805.54,-112.5 730.54,-112.5"/>
<text text-anchor="middle" x="768.04" y="-119.5" font-family="Helvetica,sans-Serif" font-size="10.00">linux/cdev.h</text>
</a>
</g>
</g>
<!-- Node2&#45;&gt;Node3 -->
<g id="edge2" class="edge">
<title>Node2&#45;&gt;Node3</title>
<path fill="none" stroke="midnightblue" d="M835.19,-168.32C822.83,-159.98 803.91,-147.21 789.31,-137.35"/>
<polygon fill="midnightblue" stroke="midnightblue" points="791.11,-134.35 780.86,-131.65 787.2,-140.15 791.11,-134.35"/>
</g>
<!-- Node4 -->
<g id="node4" class="node">
<title>Node4</title>
<g id="a_node4"><a xlink:href="as__support_8h.html" target="_top" xlink:title="Software support module for ASTERICS systems.">
<polygon fill="none" stroke="black" points="832.54,-56.5 832.54,-75.5 911.54,-75.5 911.54,-56.5 832.54,-56.5"/>
<text text-anchor="middle" x="872.04" y="-63.5" font-family="Helvetica,sans-Serif" font-size="10.00">as_support.h</text>
</a>
</g>
</g>
<!-- Node2&#45;&gt;Node4 -->
<g id="edge3" class="edge">
<title>Node2&#45;&gt;Node4</title>
<path fill="none" stroke="midnightblue" d="M848.99,-168.09C850.42,-155.49 853.47,-131.8 858.04,-112 860.12,-103.02 863.08,-93.23 865.74,-85.08"/>
<polygon fill="midnightblue" stroke="midnightblue" points="869.09,-86.12 868.97,-75.52 862.46,-83.87 869.09,-86.12"/>
</g>
<!-- Node16 -->
<g id="node16" class="node">
<title>Node16</title>
<g id="a_node16"><a xlink:href="as__support__linux_8h.html" target="_top" xlink:title=" ">
<polygon fill="none" stroke="black" points="536.04,-112.5 536.04,-131.5 644.04,-131.5 644.04,-112.5 536.04,-112.5"/>
<text text-anchor="middle" x="590.04" y="-119.5" font-family="Helvetica,sans-Serif" font-size="10.00">as_support_linux.h</text>
</a>
</g>
</g>
<!-- Node2&#45;&gt;Node16 -->
<g id="edge15" class="edge">
<title>Node2&#45;&gt;Node16</title>
<path fill="none" stroke="midnightblue" d="M812.44,-169.55C767.95,-160.24 691.52,-144.24 640.88,-133.64"/>
<polygon fill="midnightblue" stroke="midnightblue" points="641.31,-130.15 630.8,-131.53 639.87,-137.01 641.31,-130.15"/>
</g>
<!-- Node5 -->
<g id="node5" class="node">
<title>Node5</title>
<g id="a_node5"><a xlink:href="asp_2as__config_8h.html" target="_top" xlink:title=" ">
<polygon fill="none" stroke="black" points="1075.04,-0.5 1075.04,-19.5 1147.04,-19.5 1147.04,-0.5 1075.04,-0.5"/>
<text text-anchor="middle" x="1111.04" y="-7.5" font-family="Helvetica,sans-Serif" font-size="10.00">as_config.h</text>
</a>
</g>
</g>
<!-- Node4&#45;&gt;Node5 -->
<g id="edge4" class="edge">
<title>Node4&#45;&gt;Node5</title>
<path fill="none" stroke="midnightblue" d="M909.91,-56.44C952.01,-46.93 1019.99,-31.57 1065.09,-21.38"/>
<polygon fill="midnightblue" stroke="midnightblue" points="1065.93,-24.78 1074.91,-19.16 1064.39,-17.95 1065.93,-24.78"/>
</g>
<!-- Node6 -->
<g id="node6" class="node">
<title>Node6</title>
<g id="a_node6"><a xlink:title=" ">
<polygon fill="none" stroke="#bfbfbf" points="1165.54,-0.5 1165.54,-19.5 1218.54,-19.5 1218.54,-0.5 1165.54,-0.5"/>
<text text-anchor="middle" x="1192.04" y="-7.5" font-family="Helvetica,sans-Serif" font-size="10.00">stdint.h</text>
</a>
</g>
</g>
<!-- Node4&#45;&gt;Node6 -->
<g id="edge5" class="edge">
<title>Node4&#45;&gt;Node6</title>
<path fill="none" stroke="midnightblue" d="M911.75,-59.83C964.96,-52.66 1062.5,-38.65 1155.51,-19.95"/>
<polygon fill="midnightblue" stroke="midnightblue" points="1156.26,-23.37 1165.37,-17.95 1154.87,-16.51 1156.26,-23.37"/>
</g>
<!-- Node7 -->
<g id="node7" class="node">
<title>Node7</title>
<g id="a_node7"><a xlink:title=" ">
<polygon fill="none" stroke="#bfbfbf" points="1236.54,-0.5 1236.54,-19.5 1289.54,-19.5 1289.54,-0.5 1236.54,-0.5"/>
<text text-anchor="middle" x="1263.04" y="-7.5" font-family="Helvetica,sans-Serif" font-size="10.00">stdlib.h</text>
</a>
</g>
</g>
<!-- Node4&#45;&gt;Node7 -->
<g id="edge6" class="edge">
<title>Node4&#45;&gt;Node7</title>
<path fill="none" stroke="midnightblue" d="M911.54,-61.65C975.7,-55.84 1106.66,-42.52 1226.31,-20.14"/>
<polygon fill="midnightblue" stroke="midnightblue" points="1227.2,-23.53 1236.37,-18.23 1225.89,-16.65 1227.2,-23.53"/>
</g>
<!-- Node8 -->
<g id="node8" class="node">
<title>Node8</title>
<g id="a_node8"><a xlink:title=" ">
<polygon fill="none" stroke="#bfbfbf" points="468.04,-0.5 468.04,-19.5 518.04,-19.5 518.04,-0.5 468.04,-0.5"/>
<text text-anchor="middle" x="493.04" y="-7.5" font-family="Helvetica,sans-Serif" font-size="10.00">stdio.h</text>
</a>
</g>
</g>
<!-- Node4&#45;&gt;Node8 -->
<g id="edge7" class="edge">
<title>Node4&#45;&gt;Node8</title>
<path fill="none" stroke="midnightblue" d="M832.32,-61.39C768.02,-55.19 637.3,-41.11 528.04,-20 527.94,-19.98 527.84,-19.96 527.74,-19.94"/>
<polygon fill="midnightblue" stroke="midnightblue" points="528.71,-16.57 518.2,-17.86 527.22,-23.41 528.71,-16.57"/>
</g>
<!-- Node9 -->
<g id="node9" class="node">
<title>Node9</title>
<g id="a_node9"><a xlink:title=" ">
<polygon fill="none" stroke="#bfbfbf" points="536.54,-0.5 536.54,-19.5 583.54,-19.5 583.54,-0.5 536.54,-0.5"/>
<text text-anchor="middle" x="560.04" y="-7.5" font-family="Helvetica,sans-Serif" font-size="10.00">fcntl.h</text>
</a>
</g>
</g>
<!-- Node4&#45;&gt;Node9 -->
<g id="edge8" class="edge">
<title>Node4&#45;&gt;Node9</title>
<path fill="none" stroke="midnightblue" d="M832.52,-59.97C780.14,-53.02 684.69,-39.32 593.69,-19.93"/>
<polygon fill="midnightblue" stroke="midnightblue" points="594.28,-16.48 583.76,-17.79 592.8,-23.32 594.28,-16.48"/>
</g>
<!-- Node10 -->
<g id="node10" class="node">
<title>Node10</title>
<g id="a_node10"><a xlink:title=" ">
<polygon fill="none" stroke="#bfbfbf" points="601.54,-0.5 601.54,-19.5 654.54,-19.5 654.54,-0.5 601.54,-0.5"/>
<text text-anchor="middle" x="628.04" y="-7.5" font-family="Helvetica,sans-Serif" font-size="10.00">string.h</text>
</a>
</g>
</g>
<!-- Node4&#45;&gt;Node10 -->
<g id="edge9" class="edge">
<title>Node4&#45;&gt;Node10</title>
<path fill="none" stroke="midnightblue" d="M832.47,-56.83C792.61,-48.51 729.1,-35.03 664.68,-20.09"/>
<polygon fill="midnightblue" stroke="midnightblue" points="665.29,-16.64 654.76,-17.78 663.7,-23.46 665.29,-16.64"/>
</g>
<!-- Node11 -->
<g id="node11" class="node">
<title>Node11</title>
<g id="a_node11"><a xlink:title=" ">
<polygon fill="none" stroke="#bfbfbf" points="673.04,-0.5 673.04,-19.5 729.04,-19.5 729.04,-0.5 673.04,-0.5"/>
<text text-anchor="middle" x="701.04" y="-7.5" font-family="Helvetica,sans-Serif" font-size="10.00">unistd.h</text>
</a>
</g>
</g>
<!-- Node4&#45;&gt;Node11 -->
<g id="edge10" class="edge">
<title>Node4&#45;&gt;Node11</title>
<path fill="none" stroke="midnightblue" d="M844.95,-56.44C816.06,-47.32 770.12,-32.81 737.94,-22.65"/>
<polygon fill="midnightblue" stroke="midnightblue" points="738.6,-19.19 728.01,-19.52 736.49,-25.87 738.6,-19.19"/>
</g>
<!-- Node12 -->
<g id="node12" class="node">
<title>Node12</title>
<g id="a_node12"><a xlink:title=" ">
<polygon fill="none" stroke="#bfbfbf" points="747.54,-0.5 747.54,-19.5 818.54,-19.5 818.54,-0.5 747.54,-0.5"/>
<text text-anchor="middle" x="783.04" y="-7.5" font-family="Helvetica,sans-Serif" font-size="10.00">xil_cache.h</text>
</a>
</g>
</g>
<!-- Node4&#45;&gt;Node12 -->
<g id="edge11" class="edge">
<title>Node4&#45;&gt;Node12</title>
<path fill="none" stroke="midnightblue" d="M857.74,-56.32C843.86,-47.9 822.55,-34.97 806.24,-25.07"/>
<polygon fill="midnightblue" stroke="midnightblue" points="807.67,-21.85 797.31,-19.65 804.04,-27.83 807.67,-21.85"/>
</g>
<!-- Node13 -->
<g id="node13" class="node">
<title>Node13</title>
<g id="a_node13"><a xlink:title=" ">
<polygon fill="none" stroke="#bfbfbf" points="837.04,-0.5 837.04,-19.5 907.04,-19.5 907.04,-0.5 837.04,-0.5"/>
<text text-anchor="middle" x="872.04" y="-7.5" font-family="Helvetica,sans-Serif" font-size="10.00">xil_types.h</text>
</a>
</g>
</g>
<!-- Node4&#45;&gt;Node13 -->
<g id="edge12" class="edge">
<title>Node4&#45;&gt;Node13</title>
<path fill="none" stroke="midnightblue" d="M872.04,-56.08C872.04,-49.01 872.04,-38.86 872.04,-29.99"/>
<polygon fill="midnightblue" stroke="midnightblue" points="875.54,-29.75 872.04,-19.75 868.54,-29.75 875.54,-29.75"/>
</g>
<!-- Node14 -->
<g id="node14" class="node">
<title>Node14</title>
<g id="a_node14"><a xlink:title=" ">
<polygon fill="none" stroke="#bfbfbf" points="925.04,-0.5 925.04,-19.5 987.04,-19.5 987.04,-0.5 925.04,-0.5"/>
<text text-anchor="middle" x="956.04" y="-7.5" font-family="Helvetica,sans-Serif" font-size="10.00">xstatus.h</text>
</a>
</g>
</g>
<!-- Node4&#45;&gt;Node14 -->
<g id="edge13" class="edge">
<title>Node4&#45;&gt;Node14</title>
<path fill="none" stroke="midnightblue" d="M885.54,-56.32C898.64,-47.9 918.76,-34.97 934.15,-25.07"/>
<polygon fill="midnightblue" stroke="midnightblue" points="936.06,-28.01 942.58,-19.65 932.28,-22.12 936.06,-28.01"/>
</g>
<!-- Node15 -->
<g id="node15" class="node">
<title>Node15</title>
<g id="a_node15"><a xlink:title=" ">
<polygon fill="none" stroke="#bfbfbf" points="1005.04,-0.5 1005.04,-19.5 1057.04,-19.5 1057.04,-0.5 1005.04,-0.5"/>
<text text-anchor="middle" x="1031.04" y="-7.5" font-family="Helvetica,sans-Serif" font-size="10.00">xil_io.h</text>
</a>
</g>
</g>
<!-- Node4&#45;&gt;Node15 -->
<g id="edge14" class="edge">
<title>Node4&#45;&gt;Node15</title>
<path fill="none" stroke="midnightblue" d="M897.24,-56.44C923.99,-47.36 966.45,-32.94 996.35,-22.78"/>
<polygon fill="midnightblue" stroke="midnightblue" points="997.62,-26.05 1005.97,-19.52 995.37,-19.42 997.62,-26.05"/>
</g>
<!-- Node17 -->
<g id="node17" class="node">
<title>Node17</title>
<g id="a_node17"><a xlink:href="as__linux__kernel__if_8h.html" target="_top" xlink:title=" ">
<polygon fill="none" stroke="black" points="488.54,-56.5 488.54,-75.5 601.54,-75.5 601.54,-56.5 488.54,-56.5"/>
<text text-anchor="middle" x="545.04" y="-63.5" font-family="Helvetica,sans-Serif" font-size="10.00">as_linux_kernel_if.h</text>
</a>
</g>
</g>
<!-- Node16&#45;&gt;Node17 -->
<g id="edge16" class="edge">
<title>Node16&#45;&gt;Node17</title>
<path fill="none" stroke="midnightblue" d="M582.61,-112.08C576.19,-104.38 566.74,-93.03 558.92,-83.65"/>
<polygon fill="midnightblue" stroke="midnightblue" points="561.43,-81.19 552.34,-75.75 556.05,-85.67 561.43,-81.19"/>
</g>
<!-- Node17&#45;&gt;Node18 -->
<g id="edge17" class="edge">
<title>Node17&#45;&gt;Node18</title>
<path fill="none" stroke="midnightblue" d="M495.45,-56.44C435.61,-46.12 335.82,-28.9 277.76,-18.89"/>
<polygon fill="midnightblue" stroke="midnightblue" points="278.23,-15.42 267.78,-17.16 277.04,-22.31 278.23,-15.42"/>
</g>
<!-- Node28&#45;&gt;Node27 -->
<g id="edge31" class="edge">
<title>Node28&#45;&gt;Node27</title>
<path fill="none" stroke="midnightblue" d="M1185.21,-168.32C1167.33,-159.62 1139.57,-146.12 1119,-136.11"/>
<polygon fill="midnightblue" stroke="midnightblue" points="1120.36,-132.88 1109.83,-131.65 1117.29,-139.18 1120.36,-132.88"/>
</g>
<!-- Node29 -->
<g id="node29" class="node">
<title>Node29</title>
<g id="a_node29"><a xlink:title=" ">
<polygon fill="none" stroke="#bfbfbf" points="1247.54,-112.5 1247.54,-131.5 1314.54,-131.5 1314.54,-112.5 1247.54,-112.5"/>
<text text-anchor="middle" x="1281.04" y="-119.5" font-family="Helvetica,sans-Serif" font-size="10.00">linux/i2c.h</text>
</a>
</g>
</g>
<!-- Node28&#45;&gt;Node29 -->
<g id="edge29" class="edge">
<title>Node28&#45;&gt;Node29</title>
<path fill="none" stroke="midnightblue" d="M1215.58,-168.32C1227.63,-159.98 1246.07,-147.21 1260.31,-137.35"/>
<polygon fill="midnightblue" stroke="midnightblue" points="1262.31,-140.22 1268.54,-131.65 1258.33,-134.47 1262.31,-140.22"/>
</g>
<!-- Node30 -->
<g id="node30" class="node">
<title>Node30</title>
<g id="a_node30"><a xlink:title=" ">
<polygon fill="none" stroke="#bfbfbf" points="1332.54,-112.5 1332.54,-131.5 1399.54,-131.5 1399.54,-112.5 1332.54,-112.5"/>
<text text-anchor="middle" x="1366.04" y="-119.5" font-family="Helvetica,sans-Serif" font-size="10.00">linux/clk.h</text>
</a>
</g>
</g>
<!-- Node28&#45;&gt;Node30 -->
<g id="edge30" class="edge">
<title>Node28&#45;&gt;Node30</title>
<path fill="none" stroke="midnightblue" d="M1228.87,-168.44C1256.29,-159.36 1299.82,-144.94 1330.48,-134.78"/>
<polygon fill="midnightblue" stroke="midnightblue" points="1331.94,-137.98 1340.34,-131.52 1329.74,-131.34 1331.94,-137.98"/>
</g>
<!-- Node31 -->
<g id="node31" class="node">
<title>Node31</title>
<g id="a_node31"><a xlink:href="as__iic_8h.html" target="_top" xlink:title="Driver (header file) for the as_iic module.">
<polygon fill="none" stroke="black" points="1176.54,-112.5 1176.54,-131.5 1229.54,-131.5 1229.54,-112.5 1176.54,-112.5"/>
<text text-anchor="middle" x="1203.04" y="-119.5" font-family="Helvetica,sans-Serif" font-size="10.00">as_iic.h</text>
</a>
</g>
</g>
<!-- Node28&#45;&gt;Node31 -->
<g id="edge32" class="edge">
<title>Node28&#45;&gt;Node31</title>
<path fill="none" stroke="midnightblue" d="M1203.04,-168.08C1203.04,-161.01 1203.04,-150.86 1203.04,-141.99"/>
<polygon fill="midnightblue" stroke="midnightblue" points="1206.54,-141.75 1203.04,-131.75 1199.54,-141.75 1206.54,-141.75"/>
</g>
<!-- Node31&#45;&gt;Node4 -->
<g id="edge33" class="edge">
<title>Node31&#45;&gt;Node4</title>
<path fill="none" stroke="midnightblue" d="M1176.37,-114.04C1173.24,-113.31 1170.07,-112.61 1167.04,-112 1081.51,-94.82 980.86,-80.77 921.99,-73.17"/>
<polygon fill="midnightblue" stroke="midnightblue" points="922.22,-69.67 911.85,-71.87 921.33,-76.61 922.22,-69.67"/>
</g>
<!-- Node32&#45;&gt;Node4 -->
<g id="edge35" class="edge">
<title>Node32&#45;&gt;Node4</title>
<path fill="none" stroke="midnightblue" d="M927.69,-168.37C916.84,-160.18 901.36,-146.92 892.04,-132 883.15,-117.76 877.97,-99.29 875.12,-85.67"/>
<polygon fill="midnightblue" stroke="midnightblue" points="878.51,-84.78 873.24,-75.58 871.63,-86.06 878.51,-84.78"/>
</g>
<!-- Node32&#45;&gt;Node33 -->
<g id="edge36" class="edge">
<title>Node32&#45;&gt;Node33</title>
<path fill="none" stroke="midnightblue" d="M942.36,-168.08C944.21,-160.93 946.88,-150.64 949.2,-141.69"/>
<polygon fill="midnightblue" stroke="midnightblue" points="952.65,-142.31 951.77,-131.75 945.88,-140.55 952.65,-142.31"/>
</g>
<!-- Node33&#45;&gt;Node4 -->
<g id="edge37" class="edge">
<title>Node33&#45;&gt;Node4</title>
<path fill="none" stroke="midnightblue" d="M940.87,-112.32C928.2,-103.98 908.81,-91.21 893.84,-81.35"/>
<polygon fill="midnightblue" stroke="midnightblue" points="895.46,-78.23 885.19,-75.65 891.61,-84.08 895.46,-78.23"/>
</g>
<!-- Node34&#45;&gt;Node4 -->
<g id="edge40" class="edge">
<title>Node34&#45;&gt;Node4</title>
<path fill="none" stroke="midnightblue" d="M267.82,-117.98C375.75,-108.88 698.24,-81.66 822.48,-71.18"/>
<polygon fill="midnightblue" stroke="midnightblue" points="822.81,-74.67 832.48,-70.34 822.22,-67.69 822.81,-74.67"/>
</g>
<!-- Node34&#45;&gt;Node18 -->
<g id="edge41" class="edge">
<title>Node34&#45;&gt;Node18</title>
<path fill="none" stroke="midnightblue" d="M232.04,-112.37C232.04,-94.62 232.04,-53.67 232.04,-29.6"/>
<polygon fill="midnightblue" stroke="midnightblue" points="235.54,-29.59 232.04,-19.59 228.54,-29.59 235.54,-29.59"/>
</g>
</g>
</svg>
