<?xml version="1.0" encoding="UTF-8" standalone="no"?>
<!DOCTYPE svg PUBLIC "-//W3C//DTD SVG 1.1//EN"
 "http://www.w3.org/Graphics/SVG/1.1/DTD/svg11.dtd">
<!-- Generated by graphviz version 2.43.0 (0)
 -->
<!-- Title: configure_picam_v1_iic Pages: 1 -->
<svg width="440pt" height="47pt"
 viewBox="0.00 0.00 440.00 47.00" xmlns="http://www.w3.org/2000/svg" xmlns:xlink="http://www.w3.org/1999/xlink">
<g id="graph0" class="graph" transform="scale(1 1) rotate(0) translate(4 43)">
<title>configure_picam_v1_iic</title>
<!-- Node1 -->
<g id="node1" class="node">
<title>Node1</title>
<g id="a_node1"><a xlink:title=" ">
<polygon fill="#bfbfbf" stroke="black" points="0,-0.5 0,-19.5 131,-19.5 131,-0.5 0,-0.5"/>
<text text-anchor="middle" x="65.5" y="-7.5" font-family="Helvetica,sans-Serif" font-size="10.00">configure_picam_v1_iic</text>
</a>
</g>
</g>
<!-- Node2 -->
<g id="node2" class="node">
<title>Node2</title>
<g id="a_node2"><a xlink:href="as__picam_8c.html#ae4f545f6a4b1d4acce3becaf8223909f" target="_top" xlink:title=" ">
<polygon fill="none" stroke="black" points="167,-19.5 167,-38.5 295,-38.5 295,-19.5 167,-19.5"/>
<text text-anchor="middle" x="231" y="-26.5" font-family="Helvetica,sans-Serif" font-size="10.00">write_config_picam_iic</text>
</a>
</g>
</g>
<!-- Node1&#45;&gt;Node2 -->
<g id="edge1" class="edge">
<title>Node1&#45;&gt;Node2</title>
<path fill="none" stroke="midnightblue" d="M131.12,-17.51C139.59,-18.49 148.31,-19.51 156.91,-20.51"/>
<polygon fill="midnightblue" stroke="midnightblue" points="156.58,-23.99 166.92,-21.67 157.39,-17.04 156.58,-23.99"/>
</g>
<!-- Node3 -->
<g id="node3" class="node">
<title>Node3</title>
<g id="a_node3"><a xlink:href="as__picam_8c.html#a0ff2198ba13118bc120a87d4b4df696a" target="_top" xlink:title=" ">
<polygon fill="none" stroke="black" points="331,-0.5 331,-19.5 432,-19.5 432,-0.5 331,-0.5"/>
<text text-anchor="middle" x="381.5" y="-7.5" font-family="Helvetica,sans-Serif" font-size="10.00">write_iic_register</text>
</a>
</g>
</g>
<!-- Node1&#45;&gt;Node3 -->
<g id="edge3" class="edge">
<title>Node1&#45;&gt;Node3</title>
<path fill="none" stroke="midnightblue" d="M131.18,-10C186.84,-10 266.5,-10 320.7,-10"/>
<polygon fill="midnightblue" stroke="midnightblue" points="320.84,-13.5 330.84,-10 320.84,-6.5 320.84,-13.5"/>
</g>
<!-- Node2&#45;&gt;Node3 -->
<g id="edge2" class="edge">
<title>Node2&#45;&gt;Node3</title>
<path fill="none" stroke="midnightblue" d="M295.41,-20.89C303.81,-19.81 312.41,-18.71 320.75,-17.64"/>
<polygon fill="midnightblue" stroke="midnightblue" points="321.3,-21.1 330.77,-16.36 320.41,-14.16 321.3,-21.1"/>
</g>
</g>
</svg>
