<?xml version="1.0" encoding="UTF-8" standalone="no"?>
<!DOCTYPE svg PUBLIC "-//W3C//DTD SVG 1.1//EN"
 "http://www.w3.org/Graphics/SVG/1.1/DTD/svg11.dtd">
<!-- Generated by graphviz version 2.43.0 (0)
 -->
<!-- Title: as_cache.h Pages: 1 -->
<svg width="350pt" height="84pt"
 viewBox="0.00 0.00 350.00 84.00" xmlns="http://www.w3.org/2000/svg" xmlns:xlink="http://www.w3.org/1999/xlink">
<g id="graph0" class="graph" transform="scale(1 1) rotate(0) translate(4 80)">
<title>as_cache.h</title>
<!-- Node1 -->
<g id="node1" class="node">
<title>Node1</title>
<g id="a_node1"><a xlink:title=" ">
<polygon fill="#bfbfbf" stroke="black" points="138.5,-56.5 138.5,-75.5 209.5,-75.5 209.5,-56.5 138.5,-56.5"/>
<text text-anchor="middle" x="174" y="-63.5" font-family="Helvetica,sans-Serif" font-size="10.00">as_cache.h</text>
</a>
</g>
</g>
<!-- Node2 -->
<g id="node2" class="node">
<title>Node2</title>
<g id="a_node2"><a xlink:href="as__memio_8c.html" target="_top" xlink:title=" ">
<polygon fill="none" stroke="black" points="0,-0.5 0,-19.5 76,-19.5 76,-0.5 0,-0.5"/>
<text text-anchor="middle" x="38" y="-7.5" font-family="Helvetica,sans-Serif" font-size="10.00">as_memio.c</text>
</a>
</g>
</g>
<!-- Node1&#45;&gt;Node2 -->
<g id="edge1" class="edge">
<title>Node1&#45;&gt;Node2</title>
<path fill="none" stroke="midnightblue" d="M142.87,-52.64C117.34,-42.5 81.89,-28.43 59.45,-19.52"/>
<polygon fill="midnightblue" stroke="midnightblue" points="141.86,-56.01 152.45,-56.44 144.45,-49.5 141.86,-56.01"/>
</g>
<!-- Node3 -->
<g id="node3" class="node">
<title>Node3</title>
<g id="a_node3"><a xlink:href="as__buffer_8c.html" target="_top" xlink:title="Buffer implementation file.">
<polygon fill="none" stroke="black" points="94.5,-0.5 94.5,-19.5 165.5,-19.5 165.5,-0.5 94.5,-0.5"/>
<text text-anchor="middle" x="130" y="-7.5" font-family="Helvetica,sans-Serif" font-size="10.00">as_buffer.c</text>
</a>
</g>
</g>
<!-- Node1&#45;&gt;Node3 -->
<g id="edge2" class="edge">
<title>Node1&#45;&gt;Node3</title>
<path fill="none" stroke="midnightblue" d="M160.27,-48.14C152.6,-38.74 143.37,-27.4 137.13,-19.75"/>
<polygon fill="midnightblue" stroke="midnightblue" points="157.7,-50.54 166.73,-56.08 163.13,-46.12 157.7,-50.54"/>
</g>
<!-- Node4 -->
<g id="node4" class="node">
<title>Node4</title>
<g id="a_node4"><a xlink:href="as__cache_8c.html" target="_top" xlink:title=" ">
<polygon fill="none" stroke="black" points="184,-0.5 184,-19.5 254,-19.5 254,-0.5 184,-0.5"/>
<text text-anchor="middle" x="219" y="-7.5" font-family="Helvetica,sans-Serif" font-size="10.00">as_cache.c</text>
</a>
</g>
</g>
<!-- Node1&#45;&gt;Node4 -->
<g id="edge3" class="edge">
<title>Node1&#45;&gt;Node4</title>
<path fill="none" stroke="midnightblue" d="M188.05,-48.14C195.89,-38.74 205.33,-27.4 211.71,-19.75"/>
<polygon fill="midnightblue" stroke="midnightblue" points="185.14,-46.16 181.43,-56.08 190.52,-50.64 185.14,-46.16"/>
</g>
<!-- Node5 -->
<g id="node5" class="node">
<title>Node5</title>
<g id="a_node5"><a xlink:href="as__driver_8c.html" target="_top" xlink:title="Linux driver implementation.">
<polygon fill="none" stroke="black" points="272,-0.5 272,-19.5 342,-19.5 342,-0.5 272,-0.5"/>
<text text-anchor="middle" x="307" y="-7.5" font-family="Helvetica,sans-Serif" font-size="10.00">as_driver.c</text>
</a>
</g>
</g>
<!-- Node1&#45;&gt;Node5 -->
<g id="edge4" class="edge">
<title>Node1&#45;&gt;Node5</title>
<path fill="none" stroke="midnightblue" d="M204.45,-52.64C229.41,-42.5 264.08,-28.43 286.02,-19.52"/>
<polygon fill="midnightblue" stroke="midnightblue" points="203.02,-49.44 195.07,-56.44 205.66,-55.92 203.02,-49.44"/>
</g>
</g>
</svg>
