<?xml version="1.0" encoding="UTF-8" standalone="no"?>
<!DOCTYPE svg PUBLIC "-//W3C//DTD SVG 1.1//EN"
 "http://www.w3.org/Graphics/SVG/1.1/DTD/svg11.dtd">
<!-- Generated by graphviz version 2.43.0 (0)
 -->
<!-- Title: write_iic_register Pages: 1 -->
<svg width="560pt" height="66pt"
 viewBox="0.00 0.00 560.00 66.00" xmlns="http://www.w3.org/2000/svg" xmlns:xlink="http://www.w3.org/1999/xlink">
<g id="graph0" class="graph" transform="scale(1 1) rotate(0) translate(4 62)">
<title>write_iic_register</title>
<!-- Node1 -->
<g id="node1" class="node">
<title>Node1</title>
<g id="a_node1"><a xlink:title=" ">
<polygon fill="#bfbfbf" stroke="black" points="451,-19.5 451,-38.5 552,-38.5 552,-19.5 451,-19.5"/>
<text text-anchor="middle" x="501.5" y="-26.5" font-family="Helvetica,sans-Serif" font-size="10.00">write_iic_register</text>
</a>
</g>
</g>
<!-- Node2 -->
<g id="node2" class="node">
<title>Node2</title>
<g id="a_node2"><a xlink:href="as__picam_8c.html#aa33c23d23cf605e74e92736738d8868a" target="_top" xlink:title=" ">
<polygon fill="none" stroke="black" points="120,-38.5 120,-57.5 251,-57.5 251,-38.5 120,-38.5"/>
<text text-anchor="middle" x="185.5" y="-45.5" font-family="Helvetica,sans-Serif" font-size="10.00">configure_picam_v1_iic</text>
</a>
</g>
</g>
<!-- Node1&#45;&gt;Node2 -->
<g id="edge1" class="edge">
<title>Node1&#45;&gt;Node2</title>
<path fill="none" stroke="midnightblue" d="M440.6,-32.62C386.44,-35.9 306.89,-40.72 251.26,-44.08"/>
<polygon fill="midnightblue" stroke="midnightblue" points="440.98,-36.11 450.75,-32.01 440.55,-29.12 440.98,-36.11"/>
</g>
<!-- Node4 -->
<g id="node4" class="node">
<title>Node4</title>
<g id="a_node4"><a xlink:href="as__picam_8c.html#ae4f545f6a4b1d4acce3becaf8223909f" target="_top" xlink:title=" ">
<polygon fill="none" stroke="black" points="287,-0.5 287,-19.5 415,-19.5 415,-0.5 287,-0.5"/>
<text text-anchor="middle" x="351" y="-7.5" font-family="Helvetica,sans-Serif" font-size="10.00">write_config_picam_iic</text>
</a>
</g>
</g>
<!-- Node1&#45;&gt;Node4 -->
<g id="edge3" class="edge">
<title>Node1&#45;&gt;Node4</title>
<path fill="none" stroke="midnightblue" d="M440.59,-21.33C432.22,-20.26 423.6,-19.16 415.18,-18.08"/>
<polygon fill="midnightblue" stroke="midnightblue" points="440.28,-24.82 450.64,-22.62 441.16,-17.88 440.28,-24.82"/>
</g>
<!-- Node3 -->
<g id="node3" class="node">
<title>Node3</title>
<g id="a_node3"><a xlink:href="group__as__picam.html#ga1915a83ea7a34b18d53f9ece09cc5bf5" target="_top" xlink:title=" ">
<polygon fill="none" stroke="black" points="0,-19.5 0,-38.5 84,-38.5 84,-19.5 0,-19.5"/>
<text text-anchor="middle" x="42" y="-26.5" font-family="Helvetica,sans-Serif" font-size="10.00">as_picam_init</text>
</a>
</g>
</g>
<!-- Node2&#45;&gt;Node3 -->
<g id="edge2" class="edge">
<title>Node2&#45;&gt;Node3</title>
<path fill="none" stroke="midnightblue" d="M110.01,-38C101.2,-36.81 92.47,-35.64 84.36,-34.55"/>
<polygon fill="midnightblue" stroke="midnightblue" points="109.58,-41.47 119.96,-39.33 110.52,-34.53 109.58,-41.47"/>
</g>
<!-- Node4&#45;&gt;Node2 -->
<g id="edge4" class="edge">
<title>Node4&#45;&gt;Node2</title>
<path fill="none" stroke="midnightblue" d="M298.82,-21.9C275.83,-27.24 249.09,-33.45 227.46,-38.48"/>
<polygon fill="midnightblue" stroke="midnightblue" points="299.79,-25.26 308.74,-19.59 298.21,-18.44 299.79,-25.26"/>
</g>
<!-- Node5 -->
<g id="node5" class="node">
<title>Node5</title>
<g id="a_node5"><a xlink:href="as__picam_8c.html#a3c9489873b0ecdb233db0ef89ac1ed56" target="_top" xlink:title=" ">
<polygon fill="none" stroke="black" points="120,-0.5 120,-19.5 251,-19.5 251,-0.5 120,-0.5"/>
<text text-anchor="middle" x="185.5" y="-7.5" font-family="Helvetica,sans-Serif" font-size="10.00">configure_picam_v2_iic</text>
</a>
</g>
</g>
<!-- Node4&#45;&gt;Node5 -->
<g id="edge5" class="edge">
<title>Node4&#45;&gt;Node5</title>
<path fill="none" stroke="midnightblue" d="M276.55,-10C268.08,-10 259.5,-10 251.17,-10"/>
<polygon fill="midnightblue" stroke="midnightblue" points="276.79,-13.5 286.79,-10 276.79,-6.5 276.79,-13.5"/>
</g>
<!-- Node5&#45;&gt;Node3 -->
<g id="edge6" class="edge">
<title>Node5&#45;&gt;Node3</title>
<path fill="none" stroke="midnightblue" d="M110.01,-20C101.2,-21.19 92.47,-22.36 84.36,-23.45"/>
<polygon fill="midnightblue" stroke="midnightblue" points="110.52,-23.47 119.96,-18.67 109.58,-16.53 110.52,-23.47"/>
</g>
</g>
</svg>
