<?xml version="1.0" encoding="UTF-8" standalone="no"?>
<!DOCTYPE svg PUBLIC "-//W3C//DTD SVG 1.1//EN"
 "http://www.w3.org/Graphics/SVG/1.1/DTD/svg11.dtd">
<!-- Generated by graphviz version 2.43.0 (0)
 -->
<!-- Title: as_memio_open Pages: 1 -->
<svg width="869pt" height="365pt"
 viewBox="0.00 0.00 869.00 365.25" xmlns="http://www.w3.org/2000/svg" xmlns:xlink="http://www.w3.org/1999/xlink">
<g id="graph0" class="graph" transform="scale(1 1) rotate(0) translate(4 361.25)">
<title>as_memio_open</title>
<!-- Node1 -->
<g id="node1" class="node">
<title>Node1</title>
<g id="a_node1"><a xlink:title=" ">
<polygon fill="#bfbfbf" stroke="black" points="0,-171.5 0,-190.5 97,-190.5 97,-171.5 0,-171.5"/>
<text text-anchor="middle" x="48.5" y="-178.5" font-family="Helvetica,sans-Serif" font-size="10.00">as_memio_open</text>
</a>
</g>
</g>
<!-- Node2 -->
<g id="node2" class="node">
<title>Node2</title>
<g id="a_node2"><a xlink:href="group__as__buffer.html#ga90f980b27c24955418f94f617402c7e7" target="_top" xlink:title=" ">
<polygon fill="none" stroke="black" points="144.5,-304.5 144.5,-323.5 263.5,-323.5 263.5,-304.5 144.5,-304.5"/>
<text text-anchor="middle" x="204" y="-311.5" font-family="Helvetica,sans-Serif" font-size="10.00">as_buffer_obj_create</text>
</a>
</g>
</g>
<!-- Node1&#45;&gt;Node2 -->
<g id="edge1" class="edge">
<title>Node1&#45;&gt;Node2</title>
<path fill="none" stroke="midnightblue" d="M54.35,-190.68C65.4,-211.8 94.49,-262.29 133,-290 138.95,-294.28 145.73,-297.85 152.66,-300.8"/>
<polygon fill="midnightblue" stroke="midnightblue" points="151.57,-304.13 162.16,-304.46 154.09,-297.6 151.57,-304.13"/>
</g>
<!-- Node3 -->
<g id="node3" class="node">
<title>Node3</title>
<g id="a_node3"><a xlink:href="group__asterics__support.html#ga9b562fe5abd06406020981c2f19bcc0c" target="_top" xlink:title=" ">
<polygon fill="none" stroke="black" points="342,-323.5 342,-342.5 408,-342.5 408,-323.5 342,-323.5"/>
<text text-anchor="middle" x="375" y="-330.5" font-family="Helvetica,sans-Serif" font-size="10.00">as_malloc</text>
</a>
</g>
</g>
<!-- Node1&#45;&gt;Node3 -->
<g id="edge7" class="edge">
<title>Node1&#45;&gt;Node3</title>
<path fill="none" stroke="midnightblue" d="M51.35,-190.84C57.26,-219.15 78.58,-300.81 133,-333 194.65,-369.47 281.63,-357.16 332.49,-345"/>
<polygon fill="midnightblue" stroke="midnightblue" points="333.61,-348.33 342.46,-342.51 331.91,-341.54 333.61,-348.33"/>
</g>
<!-- Node4 -->
<g id="node4" class="node">
<title>Node4</title>
<g id="a_node4"><a xlink:href="group__as__buffer.html#ga24266b1c24e9679a68088a917f78ecf8" target="_top" xlink:title=" ">
<polygon fill="none" stroke="black" points="141.5,-228.5 141.5,-247.5 266.5,-247.5 266.5,-228.5 141.5,-228.5"/>
<text text-anchor="middle" x="204" y="-235.5" font-family="Helvetica,sans-Serif" font-size="10.00">as_buffer_obj_destroy</text>
</a>
</g>
</g>
<!-- Node1&#45;&gt;Node4 -->
<g id="edge3" class="edge">
<title>Node1&#45;&gt;Node4</title>
<path fill="none" stroke="midnightblue" d="M68.37,-190.65C85.06,-198.93 110.23,-210.79 133,-219 139.53,-221.35 146.49,-223.57 153.39,-225.61"/>
<polygon fill="midnightblue" stroke="midnightblue" points="152.83,-229.09 163.41,-228.45 154.74,-222.36 152.83,-229.09"/>
</g>
<!-- Node5 -->
<g id="node5" class="node">
<title>Node5</title>
<g id="a_node5"><a xlink:href="group__asterics__support.html#ga3a2ba9ffa2388da78d024646e73441ff" target="_top" xlink:title=" ">
<polygon fill="none" stroke="black" points="348.5,-261.5 348.5,-280.5 401.5,-280.5 401.5,-261.5 348.5,-261.5"/>
<text text-anchor="middle" x="375" y="-268.5" font-family="Helvetica,sans-Serif" font-size="10.00">as_free</text>
</a>
</g>
</g>
<!-- Node1&#45;&gt;Node5 -->
<g id="edge6" class="edge">
<title>Node1&#45;&gt;Node5</title>
<path fill="none" stroke="midnightblue" d="M56.44,-190.67C69.3,-207.69 98.67,-242.56 133,-257 201.2,-285.69 289.95,-281.47 338.47,-276.08"/>
<polygon fill="midnightblue" stroke="midnightblue" points="338.97,-279.55 348.48,-274.89 338.14,-272.6 338.97,-279.55"/>
</g>
<!-- Node6 -->
<g id="node6" class="node">
<title>Node6</title>
<g id="a_node6"><a xlink:href="group__as__buffer.html#ga66ae232a694d9bfaa268551ee060d045" target="_top" xlink:title=" ">
<polygon fill="none" stroke="black" points="144.5,-190.5 144.5,-209.5 263.5,-209.5 263.5,-190.5 144.5,-190.5"/>
<text text-anchor="middle" x="204" y="-197.5" font-family="Helvetica,sans-Serif" font-size="10.00">as_buffer_queue_init</text>
</a>
</g>
</g>
<!-- Node1&#45;&gt;Node6 -->
<g id="edge5" class="edge">
<title>Node1&#45;&gt;Node6</title>
<path fill="none" stroke="midnightblue" d="M97.23,-186.91C109.03,-188.37 121.91,-189.96 134.49,-191.52"/>
<polygon fill="midnightblue" stroke="midnightblue" points="134.14,-195 144.49,-192.76 135,-188.06 134.14,-195"/>
</g>
<!-- Node7 -->
<g id="node7" class="node">
<title>Node7</title>
<g id="a_node7"><a xlink:href="as__memio_8c.html#a6a0f8ec170591d2aeccb065d92f38414" target="_top" xlink:title=" ">
<polygon fill="none" stroke="black" points="142,-152.5 142,-171.5 266,-171.5 266,-152.5 142,-152.5"/>
<text text-anchor="middle" x="204" y="-159.5" font-family="Helvetica,sans-Serif" font-size="10.00">as_memio_config_init</text>
</a>
</g>
</g>
<!-- Node1&#45;&gt;Node7 -->
<g id="edge8" class="edge">
<title>Node1&#45;&gt;Node7</title>
<path fill="none" stroke="midnightblue" d="M97.23,-175.09C108.12,-173.74 119.92,-172.28 131.56,-170.84"/>
<polygon fill="midnightblue" stroke="midnightblue" points="132.23,-174.29 141.73,-169.58 131.37,-167.34 132.23,-174.29"/>
</g>
<!-- Node8 -->
<g id="node8" class="node">
<title>Node8</title>
<g id="a_node8"><a xlink:href="as__memio_8c.html#a31a12ad0b581e08a50188766815dd93d" target="_top" xlink:title=" ">
<polygon fill="none" stroke="black" points="133,-114.5 133,-133.5 275,-133.5 275,-114.5 133,-114.5"/>
<text text-anchor="middle" x="204" y="-121.5" font-family="Helvetica,sans-Serif" font-size="10.00">as_memio_module_setup</text>
</a>
</g>
</g>
<!-- Node1&#45;&gt;Node8 -->
<g id="edge9" class="edge">
<title>Node1&#45;&gt;Node8</title>
<path fill="none" stroke="midnightblue" d="M68.37,-171.35C85.06,-163.07 110.23,-151.21 133,-143 139.53,-140.65 146.49,-138.43 153.39,-136.39"/>
<polygon fill="midnightblue" stroke="midnightblue" points="154.74,-139.64 163.41,-133.55 152.83,-132.91 154.74,-139.64"/>
</g>
<!-- Node20 -->
<g id="node20" class="node">
<title>Node20</title>
<g id="a_node20"><a xlink:href="as__memio_8c.html#a3cef9dc7d8f4d804e4854cb1a081506e" target="_top" xlink:title=" ">
<polygon fill="none" stroke="black" points="146,-76.5 146,-95.5 262,-95.5 262,-76.5 146,-76.5"/>
<text text-anchor="middle" x="204" y="-83.5" font-family="Helvetica,sans-Serif" font-size="10.00">print_buffer_handler</text>
</a>
</g>
</g>
<!-- Node1&#45;&gt;Node20 -->
<g id="edge29" class="edge">
<title>Node1&#45;&gt;Node20</title>
<path fill="none" stroke="midnightblue" d="M57.42,-171.25C71.12,-155.06 100.86,-122.63 133,-105 137.02,-102.79 141.32,-100.83 145.72,-99.09"/>
<polygon fill="midnightblue" stroke="midnightblue" points="147.25,-102.26 155.49,-95.61 144.9,-95.67 147.25,-102.26"/>
</g>
<!-- Node21 -->
<g id="node21" class="node">
<title>Node21</title>
<g id="a_node21"><a xlink:href="as__memio_8c.html#a621bccf5671e074ed0cc54dab2b9efdc" target="_top" xlink:title=" ">
<polygon fill="none" stroke="black" points="152.5,-38.5 152.5,-57.5 255.5,-57.5 255.5,-38.5 152.5,-38.5"/>
<text text-anchor="middle" x="204" y="-45.5" font-family="Helvetica,sans-Serif" font-size="10.00">print_hw_settings</text>
</a>
</g>
</g>
<!-- Node1&#45;&gt;Node21 -->
<g id="edge30" class="edge">
<title>Node1&#45;&gt;Node21</title>
<path fill="none" stroke="midnightblue" d="M53.78,-171.34C64.06,-149.27 92.35,-94.92 133,-67 136.09,-64.88 139.4,-62.99 142.85,-61.32"/>
<polygon fill="midnightblue" stroke="midnightblue" points="144.38,-64.48 152.23,-57.36 141.65,-58.03 144.38,-64.48"/>
</g>
<!-- Node22 -->
<g id="node22" class="node">
<title>Node22</title>
<g id="a_node22"><a xlink:href="as__memio_8c.html#a9b40b11f848707b97421a70f9e6b7968" target="_top" xlink:title=" ">
<polygon fill="none" stroke="black" points="147,-0.5 147,-19.5 261,-19.5 261,-0.5 147,-0.5"/>
<text text-anchor="middle" x="204" y="-7.5" font-family="Helvetica,sans-Serif" font-size="10.00">print_memio_config</text>
</a>
</g>
</g>
<!-- Node1&#45;&gt;Node22 -->
<g id="edge31" class="edge">
<title>Node1&#45;&gt;Node22</title>
<path fill="none" stroke="midnightblue" d="M51.91,-171.45C59.19,-144.6 83.55,-67.92 133,-29 135.32,-27.17 137.8,-25.52 140.39,-24.03"/>
<polygon fill="midnightblue" stroke="midnightblue" points="142.13,-27.08 149.58,-19.54 139.06,-20.79 142.13,-27.08"/>
</g>
<!-- Node2&#45;&gt;Node3 -->
<g id="edge2" class="edge">
<title>Node2&#45;&gt;Node3</title>
<path fill="none" stroke="midnightblue" d="M263.63,-320.59C285.98,-323.1 311,-325.92 331.56,-328.23"/>
<polygon fill="midnightblue" stroke="midnightblue" points="331.23,-331.71 341.56,-329.35 332.01,-324.76 331.23,-331.71"/>
</g>
<!-- Node4&#45;&gt;Node5 -->
<g id="edge4" class="edge">
<title>Node4&#45;&gt;Node5</title>
<path fill="none" stroke="midnightblue" d="M253.88,-247.54C280.84,-252.81 313.71,-259.23 338.25,-264.02"/>
<polygon fill="midnightblue" stroke="midnightblue" points="337.73,-267.48 348.21,-265.96 339.07,-260.61 337.73,-267.48"/>
</g>
<!-- Node9 -->
<g id="node9" class="node">
<title>Node9</title>
<g id="a_node9"><a xlink:href="group__as__reader__writer.html#ga89e42a53f0db5cf22c8583c8e0c8a074" target="_top" xlink:title="Resets the hardware module.">
<polygon fill="none" stroke="black" points="311,-32.5 311,-51.5 439,-51.5 439,-32.5 311,-32.5"/>
<text text-anchor="middle" x="375" y="-39.5" font-family="Helvetica,sans-Serif" font-size="10.00">as_reader_writer_reset</text>
</a>
</g>
</g>
<!-- Node8&#45;&gt;Node9 -->
<g id="edge10" class="edge">
<title>Node8&#45;&gt;Node9</title>
<path fill="none" stroke="midnightblue" d="M255.22,-114.48C262.17,-112.01 268.98,-108.9 275,-105 296.2,-91.26 289.99,-75.04 311,-61 314.08,-58.94 317.39,-57.1 320.82,-55.46"/>
<polygon fill="midnightblue" stroke="midnightblue" points="322.26,-58.65 330.11,-51.54 319.54,-52.2 322.26,-58.65"/>
</g>
<!-- Node16 -->
<g id="node16" class="node">
<title>Node16</title>
<g id="a_node16"><a xlink:href="group__as__reader__writer.html#gae1123634d5cf61d70bcfc7a87cda08bf" target="_top" xlink:title="Sets the maximum possible burst length to be performed by the hardware module.">
<polygon fill="none" stroke="black" points="315.5,-158 315.5,-188 434.5,-188 434.5,-158 315.5,-158"/>
<text text-anchor="start" x="323.5" y="-176" font-family="Helvetica,sans-Serif" font-size="10.00">as_reader_writer_set</text>
<text text-anchor="middle" x="375" y="-165" font-family="Helvetica,sans-Serif" font-size="10.00">_max_burst_length</text>
</a>
</g>
</g>
<!-- Node8&#45;&gt;Node16 -->
<g id="edge17" class="edge">
<title>Node8&#45;&gt;Node16</title>
<path fill="none" stroke="midnightblue" d="M241.03,-133.56C251.96,-136.52 263.99,-139.84 275,-143 288.27,-146.81 302.49,-151.03 315.9,-155.08"/>
<polygon fill="midnightblue" stroke="midnightblue" points="314.91,-158.44 325.49,-157.99 316.94,-151.74 314.91,-158.44"/>
</g>
<!-- Node17 -->
<g id="node17" class="node">
<title>Node17</title>
<g id="a_node17"><a xlink:href="group__as__reader__writer.html#ga4dd1a170b8e16005c286c0c0e7d8406f" target="_top" xlink:title="Sets the number of sections.">
<polygon fill="none" stroke="black" points="315.5,-109 315.5,-139 434.5,-139 434.5,-109 315.5,-109"/>
<text text-anchor="start" x="323.5" y="-127" font-family="Helvetica,sans-Serif" font-size="10.00">as_reader_writer_set</text>
<text text-anchor="middle" x="375" y="-116" font-family="Helvetica,sans-Serif" font-size="10.00">_section_count</text>
</a>
</g>
</g>
<!-- Node8&#45;&gt;Node17 -->
<g id="edge20" class="edge">
<title>Node8&#45;&gt;Node17</title>
<path fill="none" stroke="midnightblue" d="M275.2,-124C285.1,-124 295.26,-124 305.13,-124"/>
<polygon fill="midnightblue" stroke="midnightblue" points="305.28,-127.5 315.28,-124 305.28,-120.5 305.28,-127.5"/>
</g>
<!-- Node18 -->
<g id="node18" class="node">
<title>Node18</title>
<g id="a_node18"><a xlink:href="group__as__reader__writer.html#ga12f11a3d7cff5ea8bdec75dedec35bab" target="_top" xlink:title="Sets the offset in bytes between the start addresses of two subsequent sections.">
<polygon fill="none" stroke="black" points="315.5,-207 315.5,-237 434.5,-237 434.5,-207 315.5,-207"/>
<text text-anchor="start" x="323.5" y="-225" font-family="Helvetica,sans-Serif" font-size="10.00">as_reader_writer_set</text>
<text text-anchor="middle" x="375" y="-214" font-family="Helvetica,sans-Serif" font-size="10.00">_section_offset</text>
</a>
</g>
</g>
<!-- Node8&#45;&gt;Node18 -->
<g id="edge23" class="edge">
<title>Node8&#45;&gt;Node18</title>
<path fill="none" stroke="midnightblue" d="M257.42,-133.64C263.67,-136.08 269.7,-139.15 275,-143 298.64,-160.17 288.24,-179.68 311,-198 312.57,-199.27 314.22,-200.47 315.92,-201.62"/>
<polygon fill="midnightblue" stroke="midnightblue" points="314.45,-204.81 324.84,-206.86 317.99,-198.77 314.45,-204.81"/>
</g>
<!-- Node19 -->
<g id="node19" class="node">
<title>Node19</title>
<g id="a_node19"><a xlink:href="group__as__reader__writer.html#ga1ef22dbd33d87de51113837dd9123c6f" target="_top" xlink:title="Enable module input port.">
<polygon fill="none" stroke="black" points="315,-70.5 315,-89.5 435,-89.5 435,-70.5 315,-70.5"/>
<text text-anchor="middle" x="375" y="-77.5" font-family="Helvetica,sans-Serif" font-size="10.00">as_writer_set_enable</text>
</a>
</g>
</g>
<!-- Node8&#45;&gt;Node19 -->
<g id="edge26" class="edge">
<title>Node8&#45;&gt;Node19</title>
<path fill="none" stroke="midnightblue" d="M241.67,-114.45C266.81,-107.91 300.36,-99.17 327.39,-92.13"/>
<polygon fill="midnightblue" stroke="midnightblue" points="328.61,-95.44 337.4,-89.53 326.84,-88.66 328.61,-95.44"/>
</g>
<!-- Node10 -->
<g id="node10" class="node">
<title>Node10</title>
<g id="a_node10"><a xlink:href="group__asterics__support.html#gaa7520f5b717e163da743500adb2eb0b9" target="_top" xlink:title=" ">
<polygon fill="none" stroke="black" points="490.5,-128.5 490.5,-147.5 581.5,-147.5 581.5,-128.5 490.5,-128.5"/>
<text text-anchor="middle" x="536" y="-135.5" font-family="Helvetica,sans-Serif" font-size="10.00">as_module_reg</text>
</a>
</g>
</g>
<!-- Node9&#45;&gt;Node10 -->
<g id="edge11" class="edge">
<title>Node9&#45;&gt;Node10</title>
<path fill="none" stroke="midnightblue" d="M415.9,-51.51C423.78,-54.08 431.82,-57.22 439,-61 469.66,-77.14 500,-103.73 518.12,-121.05"/>
<polygon fill="midnightblue" stroke="midnightblue" points="515.94,-123.81 525.54,-128.29 520.83,-118.8 515.94,-123.81"/>
</g>
<!-- Node11 -->
<g id="node11" class="node">
<title>Node11</title>
<g id="a_node11"><a xlink:href="group__asterics__support.html#ga0ccb0610d764a95bda989e35fba59490" target="_top" xlink:title=" ">
<polygon fill="none" stroke="black" points="475,-52.5 475,-71.5 597,-71.5 597,-52.5 475,-52.5"/>
<text text-anchor="middle" x="536" y="-59.5" font-family="Helvetica,sans-Serif" font-size="10.00">as_reg_write_masked</text>
</a>
</g>
</g>
<!-- Node9&#45;&gt;Node11 -->
<g id="edge12" class="edge">
<title>Node9&#45;&gt;Node11</title>
<path fill="none" stroke="midnightblue" d="M439.3,-49.96C447.61,-51.01 456.17,-52.08 464.59,-53.14"/>
<polygon fill="midnightblue" stroke="midnightblue" points="464.41,-56.65 474.77,-54.42 465.28,-49.7 464.41,-56.65"/>
</g>
<!-- Node12 -->
<g id="node12" class="node">
<title>Node12</title>
<g id="a_node12"><a xlink:href="group__asterics__support.html#ga8e5c2bfd2e4498d10289377bd94cef07" target="_top" xlink:title=" ">
<polygon fill="none" stroke="black" points="634.5,-52.5 634.5,-71.5 710.5,-71.5 710.5,-52.5 634.5,-52.5"/>
<text text-anchor="middle" x="672.5" y="-59.5" font-family="Helvetica,sans-Serif" font-size="10.00">as_reg_read</text>
</a>
</g>
</g>
<!-- Node11&#45;&gt;Node12 -->
<g id="edge13" class="edge">
<title>Node11&#45;&gt;Node12</title>
<path fill="none" stroke="midnightblue" d="M597.17,-62C606.12,-62 615.24,-62 623.88,-62"/>
<polygon fill="midnightblue" stroke="midnightblue" points="624.15,-65.5 634.15,-62 624.15,-58.5 624.15,-65.5"/>
</g>
<!-- Node14 -->
<g id="node14" class="node">
<title>Node14</title>
<g id="a_node14"><a xlink:href="group__asterics__support.html#ga6345b997e24a6cd5f9143cef27629d49" target="_top" xlink:title=" ">
<polygon fill="none" stroke="black" points="633,-128.5 633,-147.5 712,-147.5 712,-128.5 633,-128.5"/>
<text text-anchor="middle" x="672.5" y="-135.5" font-family="Helvetica,sans-Serif" font-size="10.00">as_reg_write</text>
</a>
</g>
</g>
<!-- Node11&#45;&gt;Node14 -->
<g id="edge15" class="edge">
<title>Node11&#45;&gt;Node14</title>
<path fill="none" stroke="midnightblue" d="M564.78,-71.59C575.13,-75.55 586.83,-80.51 597,-86 616.31,-96.42 636.64,-110.88 651.17,-121.9"/>
<polygon fill="midnightblue" stroke="midnightblue" points="649.35,-124.92 659.41,-128.25 653.63,-119.37 649.35,-124.92"/>
</g>
<!-- Node13 -->
<g id="node13" class="node">
<title>Node13</title>
<g id="a_node13"><a xlink:href="group__asterics__support.html#ga4c6d688b840a6e2edc9bc0b8ed961677" target="_top" xlink:title=" ">
<polygon fill="none" stroke="black" points="754.5,-52.5 754.5,-71.5 854.5,-71.5 854.5,-52.5 754.5,-52.5"/>
<text text-anchor="middle" x="804.5" y="-59.5" font-family="Helvetica,sans-Serif" font-size="10.00">as_reg_to_uint32</text>
</a>
</g>
</g>
<!-- Node12&#45;&gt;Node13 -->
<g id="edge14" class="edge">
<title>Node12&#45;&gt;Node13</title>
<path fill="none" stroke="midnightblue" d="M710.75,-62C721.09,-62 732.59,-62 743.86,-62"/>
<polygon fill="midnightblue" stroke="midnightblue" points="744.12,-65.5 754.12,-62 744.12,-58.5 744.12,-65.5"/>
</g>
<!-- Node15 -->
<g id="node15" class="node">
<title>Node15</title>
<g id="a_node15"><a xlink:href="group__asterics__support.html#gab651cc2c035ce61b354578434e59f822" target="_top" xlink:title=" ">
<polygon fill="none" stroke="black" points="748,-128.5 748,-147.5 861,-147.5 861,-128.5 748,-128.5"/>
<text text-anchor="middle" x="804.5" y="-135.5" font-family="Helvetica,sans-Serif" font-size="10.00">as_reg_from_uint32</text>
</a>
</g>
</g>
<!-- Node14&#45;&gt;Node15 -->
<g id="edge16" class="edge">
<title>Node14&#45;&gt;Node15</title>
<path fill="none" stroke="midnightblue" d="M712.15,-138C720.22,-138 728.94,-138 737.68,-138"/>
<polygon fill="midnightblue" stroke="midnightblue" points="737.92,-141.5 747.92,-138 737.92,-134.5 737.92,-141.5"/>
</g>
<!-- Node16&#45;&gt;Node10 -->
<g id="edge18" class="edge">
<title>Node16&#45;&gt;Node10</title>
<path fill="none" stroke="midnightblue" d="M434.75,-160.07C449.99,-156.71 466.32,-153.12 481.29,-149.82"/>
<polygon fill="midnightblue" stroke="midnightblue" points="482.38,-153.17 491.4,-147.6 480.88,-146.33 482.38,-153.17"/>
</g>
<!-- Node16&#45;&gt;Node14 -->
<g id="edge19" class="edge">
<title>Node16&#45;&gt;Node14</title>
<path fill="none" stroke="midnightblue" d="M434.96,-171.57C479.67,-169.8 542.51,-165.85 597,-157 607.58,-155.28 618.86,-152.77 629.35,-150.13"/>
<polygon fill="midnightblue" stroke="midnightblue" points="630.33,-153.5 639.13,-147.59 628.57,-146.72 630.33,-153.5"/>
</g>
<!-- Node17&#45;&gt;Node10 -->
<g id="edge21" class="edge">
<title>Node17&#45;&gt;Node10</title>
<path fill="none" stroke="midnightblue" d="M434.75,-129.17C449.7,-130.49 465.71,-131.9 480.44,-133.2"/>
<polygon fill="midnightblue" stroke="midnightblue" points="480.14,-136.68 490.41,-134.07 480.75,-129.71 480.14,-136.68"/>
</g>
<!-- Node17&#45;&gt;Node14 -->
<g id="edge22" class="edge">
<title>Node17&#45;&gt;Node14</title>
<path fill="none" stroke="midnightblue" d="M434.87,-117.98C479.53,-114.54 542.36,-112.14 597,-119 608.36,-120.43 620.46,-123.03 631.55,-125.86"/>
<polygon fill="midnightblue" stroke="midnightblue" points="630.82,-129.29 641.38,-128.5 632.63,-122.53 630.82,-129.29"/>
</g>
<!-- Node18&#45;&gt;Node10 -->
<g id="edge24" class="edge">
<title>Node18&#45;&gt;Node10</title>
<path fill="none" stroke="midnightblue" d="M418.85,-206.97C425.68,-204.2 432.61,-201.18 439,-198 465.59,-184.78 494.23,-166.27 513.24,-153.32"/>
<polygon fill="midnightblue" stroke="midnightblue" points="515.25,-156.18 521.5,-147.62 511.28,-150.41 515.25,-156.18"/>
</g>
<!-- Node18&#45;&gt;Node14 -->
<g id="edge25" class="edge">
<title>Node18&#45;&gt;Node14</title>
<path fill="none" stroke="midnightblue" d="M434.91,-214.61C480.15,-207.85 543.69,-195.95 597,-177 614.72,-170.7 633.46,-160.87 647.72,-152.65"/>
<polygon fill="midnightblue" stroke="midnightblue" points="649.55,-155.64 656.38,-147.54 645.99,-149.61 649.55,-155.64"/>
</g>
<!-- Node19&#45;&gt;Node10 -->
<g id="edge27" class="edge">
<title>Node19&#45;&gt;Node10</title>
<path fill="none" stroke="midnightblue" d="M409.86,-89.58C419.35,-92.44 429.63,-95.69 439,-99 460.86,-106.72 485.03,-116.54 503.65,-124.4"/>
<polygon fill="midnightblue" stroke="midnightblue" points="502.54,-127.73 513.11,-128.43 505.28,-121.29 502.54,-127.73"/>
</g>
<!-- Node19&#45;&gt;Node11 -->
<g id="edge28" class="edge">
<title>Node19&#45;&gt;Node11</title>
<path fill="none" stroke="midnightblue" d="M435.21,-73.3C444.84,-72.21 454.9,-71.07 464.76,-69.95"/>
<polygon fill="midnightblue" stroke="midnightblue" points="465.41,-73.4 474.95,-68.8 464.62,-66.45 465.41,-73.4"/>
</g>
</g>
</svg>
