<?xml version="1.0" encoding="UTF-8" standalone="no"?>
<!DOCTYPE svg PUBLIC "-//W3C//DTD SVG 1.1//EN"
 "http://www.w3.org/Graphics/SVG/1.1/DTD/svg11.dtd">
<!-- Generated by graphviz version 2.43.0 (0)
 -->
<!-- Title: as_memio_hw_update Pages: 1 -->
<svg width="932pt" height="501pt"
 viewBox="0.00 0.00 932.00 500.53" xmlns="http://www.w3.org/2000/svg" xmlns:xlink="http://www.w3.org/1999/xlink">
<g id="graph0" class="graph" transform="scale(1 1) rotate(0) translate(4 496.53)">
<title>as_memio_hw_update</title>
<!-- Node1 -->
<g id="node1" class="node">
<title>Node1</title>
<g id="a_node1"><a xlink:title=" ">
<polygon fill="#bfbfbf" stroke="black" points="0,-244 0,-263 126,-263 126,-244 0,-244"/>
<text text-anchor="middle" x="63" y="-251" font-family="Helvetica,sans-Serif" font-size="10.00">as_memio_hw_update</text>
</a>
</g>
</g>
<!-- Node2 -->
<g id="node2" class="node">
<title>Node2</title>
<g id="a_node2"><a xlink:href="as__memio_8c.html#ab93cfbaa1058ea83836b6d052e72ad50" target="_top" xlink:title=" ">
<polygon fill="none" stroke="black" points="163.5,-263 163.5,-282 316.5,-282 316.5,-263 163.5,-263"/>
<text text-anchor="middle" x="240" y="-270" font-family="Helvetica,sans-Serif" font-size="10.00">as_memio_hw_read_update</text>
</a>
</g>
</g>
<!-- Node1&#45;&gt;Node2 -->
<g id="edge1" class="edge">
<title>Node1&#45;&gt;Node2</title>
<path fill="none" stroke="midnightblue" d="M126.19,-260.25C134.9,-261.2 143.97,-262.18 153.03,-263.17"/>
<polygon fill="midnightblue" stroke="midnightblue" points="152.9,-266.67 163.22,-264.27 153.65,-259.71 152.9,-266.67"/>
</g>
<!-- Node23 -->
<g id="node23" class="node">
<title>Node23</title>
<g id="a_node23"><a xlink:href="as__memio_8c.html#a3ae0453041c4a6d406955edd9c7e43f3" target="_top" xlink:title=" ">
<polygon fill="none" stroke="black" points="162,-225 162,-244 318,-244 318,-225 162,-225"/>
<text text-anchor="middle" x="240" y="-232" font-family="Helvetica,sans-Serif" font-size="10.00">as_memio_hw_write_update</text>
</a>
</g>
</g>
<!-- Node1&#45;&gt;Node23 -->
<g id="edge33" class="edge">
<title>Node1&#45;&gt;Node23</title>
<path fill="none" stroke="midnightblue" d="M126.19,-246.75C134.52,-245.84 143.19,-244.9 151.85,-243.96"/>
<polygon fill="midnightblue" stroke="midnightblue" points="152.44,-247.42 162,-242.86 151.68,-240.46 152.44,-247.42"/>
</g>
<!-- Node3 -->
<g id="node3" class="node">
<title>Node3</title>
<g id="a_node3"><a xlink:href="group__as__buffer.html#ga6016c939a78457aac0650827fdce6ae3" target="_top" xlink:title=" ">
<polygon fill="none" stroke="black" points="369,-187 369,-206 479,-206 479,-187 369,-187"/>
<text text-anchor="middle" x="424" y="-194" font-family="Helvetica,sans-Serif" font-size="10.00">as_buffer_enqueue</text>
</a>
</g>
</g>
<!-- Node2&#45;&gt;Node3 -->
<g id="edge2" class="edge">
<title>Node2&#45;&gt;Node3</title>
<path fill="none" stroke="midnightblue" d="M296.36,-262.93C303.9,-260.47 311.34,-257.38 318,-253.5 338.11,-241.8 334.05,-227.47 354,-215.5 357.6,-213.34 361.44,-211.42 365.41,-209.72"/>
<polygon fill="midnightblue" stroke="midnightblue" points="366.75,-212.95 374.83,-206.11 364.24,-206.42 366.75,-212.95"/>
</g>
<!-- Node4 -->
<g id="node4" class="node">
<title>Node4</title>
<g id="a_node4"><a xlink:href="group__as__buffer.html#ga207494f5e874a5db26b0bedf2784bf56" target="_top" xlink:title=" ">
<polygon fill="none" stroke="black" points="360,-137.5 360,-167.5 488,-167.5 488,-137.5 360,-137.5"/>
<text text-anchor="start" x="368" y="-155.5" font-family="Helvetica,sans-Serif" font-size="10.00">as_buffer_find_waiting</text>
<text text-anchor="middle" x="424" y="-144.5" font-family="Helvetica,sans-Serif" font-size="10.00">_buffer</text>
</a>
</g>
</g>
<!-- Node2&#45;&gt;Node4 -->
<g id="edge3" class="edge">
<title>Node2&#45;&gt;Node4</title>
<path fill="none" stroke="midnightblue" d="M302.31,-262.88C307.96,-260.41 313.31,-257.33 318,-253.5 346.94,-229.85 326.35,-202.65 354,-177.5 355.72,-175.93 357.55,-174.46 359.46,-173.08"/>
<polygon fill="midnightblue" stroke="midnightblue" points="361.65,-175.85 368.29,-167.59 357.95,-169.9 361.65,-175.85"/>
</g>
<!-- Node5 -->
<g id="node5" class="node">
<title>Node5</title>
<g id="a_node5"><a xlink:href="group__as__buffer.html#ga07ae3ddfeb05316df9cb59b962c29817" target="_top" xlink:title=" ">
<polygon fill="none" stroke="black" points="372.5,-99 372.5,-118 475.5,-118 475.5,-99 372.5,-99"/>
<text text-anchor="middle" x="424" y="-106" font-family="Helvetica,sans-Serif" font-size="10.00">as_buffer_inspect</text>
</a>
</g>
</g>
<!-- Node2&#45;&gt;Node5 -->
<g id="edge4" class="edge">
<title>Node2&#45;&gt;Node5</title>
<path fill="none" stroke="midnightblue" d="M304.48,-262.91C309.43,-260.42 314.04,-257.32 318,-253.5 359.92,-213.07 312.62,-168.48 354,-127.5 356.72,-124.81 359.78,-122.49 363.07,-120.49"/>
<polygon fill="midnightblue" stroke="midnightblue" points="364.83,-123.52 372.21,-115.92 361.7,-117.26 364.83,-123.52"/>
</g>
<!-- Node6 -->
<g id="node6" class="node">
<title>Node6</title>
<g id="a_node6"><a xlink:href="group__asterics__support.html#ga85ce164597e47f4aaee22c873e899d4b" target="_top" xlink:title=" ">
<polygon fill="none" stroke="black" points="534,-455.5 534,-485.5 656,-485.5 656,-455.5 534,-455.5"/>
<text text-anchor="start" x="542" y="-473.5" font-family="Helvetica,sans-Serif" font-size="10.00">as_dcache_invalidate</text>
<text text-anchor="middle" x="595" y="-462.5" font-family="Helvetica,sans-Serif" font-size="10.00">_range</text>
</a>
</g>
</g>
<!-- Node2&#45;&gt;Node6 -->
<g id="edge5" class="edge">
<title>Node2&#45;&gt;Node6</title>
<path fill="none" stroke="midnightblue" d="M243.07,-282.17C250.75,-315.35 281.04,-424.84 354,-467.5 405.09,-497.37 473.37,-495.02 524.03,-487.01"/>
<polygon fill="midnightblue" stroke="midnightblue" points="524.64,-490.45 533.92,-485.34 523.48,-483.55 524.64,-490.45"/>
</g>
<!-- Node7 -->
<g id="node7" class="node">
<title>Node7</title>
<g id="a_node7"><a xlink:href="as__cache_8c.html#a82dda14c005c5bd0028e5f25fad2923c" target="_top" xlink:title="Map virtual kernel address for DMA.">
<polygon fill="none" stroke="black" points="379.5,-401 379.5,-420 468.5,-420 468.5,-401 379.5,-401"/>
<text text-anchor="middle" x="424" y="-408" font-family="Helvetica,sans-Serif" font-size="10.00">as_map_single</text>
</a>
</g>
</g>
<!-- Node2&#45;&gt;Node7 -->
<g id="edge6" class="edge">
<title>Node2&#45;&gt;Node7</title>
<path fill="none" stroke="midnightblue" d="M247.42,-282.07C262.97,-304.51 304.99,-360.82 354,-390.5 358.8,-393.41 364.05,-395.91 369.43,-398.06"/>
<polygon fill="midnightblue" stroke="midnightblue" points="368.61,-401.49 379.21,-401.57 370.97,-394.9 368.61,-401.49"/>
</g>
<!-- Node9 -->
<g id="node9" class="node">
<title>Node9</title>
<g id="a_node9"><a xlink:href="group__as__reader__writer.html#gaaea10b48e35a224a5870cd3322ffbec2" target="_top" xlink:title="Returns the next address on which the hardware will perform a write operation.">
<polygon fill="none" stroke="black" points="364.5,-351.5 364.5,-381.5 483.5,-381.5 483.5,-351.5 364.5,-351.5"/>
<text text-anchor="start" x="372.5" y="-369.5" font-family="Helvetica,sans-Serif" font-size="10.00">as_reader_writer_get</text>
<text text-anchor="middle" x="424" y="-358.5" font-family="Helvetica,sans-Serif" font-size="10.00">_cur_hw_addr</text>
</a>
</g>
</g>
<!-- Node2&#45;&gt;Node9 -->
<g id="edge8" class="edge">
<title>Node2&#45;&gt;Node9</title>
<path fill="none" stroke="midnightblue" d="M254.76,-282.16C275.54,-296.45 316.5,-323.48 354,-341.5 358.36,-343.6 362.95,-345.62 367.6,-347.55"/>
<polygon fill="midnightblue" stroke="midnightblue" points="366.6,-350.92 377.18,-351.37 369.19,-344.41 366.6,-350.92"/>
</g>
<!-- Node13 -->
<g id="node13" class="node">
<title>Node13</title>
<g id="a_node13"><a xlink:href="group__as__reader__writer.html#ga0e0a5b7e0dd6a14cb0f4251d00a783e8" target="_top" xlink:title="Checks if module is busy.">
<polygon fill="none" stroke="black" points="354,-313 354,-332 494,-332 494,-313 354,-313"/>
<text text-anchor="middle" x="424" y="-320" font-family="Helvetica,sans-Serif" font-size="10.00">as_reader_writer_is_busy</text>
</a>
</g>
</g>
<!-- Node2&#45;&gt;Node13 -->
<g id="edge12" class="edge">
<title>Node2&#45;&gt;Node13</title>
<path fill="none" stroke="midnightblue" d="M275.66,-282.02C304.79,-290.02 346.62,-301.52 378.27,-310.21"/>
<polygon fill="midnightblue" stroke="midnightblue" points="377.59,-313.65 388.16,-312.93 379.44,-306.9 377.59,-313.65"/>
</g>
<!-- Node15 -->
<g id="node15" class="node">
<title>Node15</title>
<g id="a_node15"><a xlink:href="group__as__reader__writer.html#gab3f2465225201507d51787478ac5955a" target="_top" xlink:title="Checks if another operation is queued.">
<polygon fill="none" stroke="black" points="368,-263.5 368,-293.5 480,-293.5 480,-263.5 368,-263.5"/>
<text text-anchor="start" x="376" y="-281.5" font-family="Helvetica,sans-Serif" font-size="10.00">as_reader_writer_is</text>
<text text-anchor="middle" x="424" y="-270.5" font-family="Helvetica,sans-Serif" font-size="10.00">_pending_go</text>
</a>
</g>
</g>
<!-- Node2&#45;&gt;Node15 -->
<g id="edge16" class="edge">
<title>Node2&#45;&gt;Node15</title>
<path fill="none" stroke="midnightblue" d="M316.6,-274.99C330.3,-275.44 344.48,-275.91 357.84,-276.35"/>
<polygon fill="midnightblue" stroke="midnightblue" points="357.77,-279.85 367.88,-276.68 358.01,-272.86 357.77,-279.85"/>
</g>
<!-- Node16 -->
<g id="node16" class="node">
<title>Node16</title>
<g id="a_node16"><a xlink:href="group__as__reader__writer.html#ga38bb160b6e30eb5fce6df2e4b4894fad" target="_top" xlink:title="Starts operation of hardware module.">
<polygon fill="none" stroke="black" points="356,-225 356,-244 492,-244 492,-225 356,-225"/>
<text text-anchor="middle" x="424" y="-232" font-family="Helvetica,sans-Serif" font-size="10.00">as_reader_writer_set_go</text>
</a>
</g>
</g>
<!-- Node2&#45;&gt;Node16 -->
<g id="edge19" class="edge">
<title>Node2&#45;&gt;Node16</title>
<path fill="none" stroke="midnightblue" d="M286.93,-262.91C311.38,-257.81 341.63,-251.49 367.4,-246.11"/>
<polygon fill="midnightblue" stroke="midnightblue" points="368.33,-249.49 377.4,-244.02 366.9,-242.64 368.33,-249.49"/>
</g>
<!-- Node20 -->
<g id="node20" class="node">
<title>Node20</title>
<g id="a_node20"><a xlink:href="group__as__reader__writer.html#ga43d2f73d7d42dd5704160d4ddacfaa1e" target="_top" xlink:title="Sets the start address of the first section to the given value.">
<polygon fill="none" stroke="black" points="364.5,-49.5 364.5,-79.5 483.5,-79.5 483.5,-49.5 364.5,-49.5"/>
<text text-anchor="start" x="372.5" y="-67.5" font-family="Helvetica,sans-Serif" font-size="10.00">as_reader_writer_set</text>
<text text-anchor="middle" x="424" y="-56.5" font-family="Helvetica,sans-Serif" font-size="10.00">_section_addr</text>
</a>
</g>
</g>
<!-- Node2&#45;&gt;Node20 -->
<g id="edge25" class="edge">
<title>Node2&#45;&gt;Node20</title>
<path fill="none" stroke="midnightblue" d="M305.1,-262.98C309.86,-260.46 314.25,-257.35 318,-253.5 370.08,-200.06 304.81,-145.62 354,-89.5 355.15,-88.18 356.38,-86.93 357.68,-85.75"/>
<polygon fill="midnightblue" stroke="midnightblue" points="359.84,-88.5 365.7,-79.67 355.62,-82.92 359.84,-88.5"/>
</g>
<!-- Node21 -->
<g id="node21" class="node">
<title>Node21</title>
<g id="a_node21"><a xlink:href="group__as__reader__writer.html#ga06436c5cb6a63439f2e4b7c14c71fb83" target="_top" xlink:title="Sets the size of a single section in bytes.">
<polygon fill="none" stroke="black" points="364.5,-0.5 364.5,-30.5 483.5,-30.5 483.5,-0.5 364.5,-0.5"/>
<text text-anchor="start" x="372.5" y="-18.5" font-family="Helvetica,sans-Serif" font-size="10.00">as_reader_writer_set</text>
<text text-anchor="middle" x="424" y="-7.5" font-family="Helvetica,sans-Serif" font-size="10.00">_section_size</text>
</a>
</g>
</g>
<!-- Node2&#45;&gt;Node21 -->
<g id="edge28" class="edge">
<title>Node2&#45;&gt;Node21</title>
<path fill="none" stroke="midnightblue" d="M305.67,-262.98C310.24,-260.45 314.44,-257.34 318,-253.5 383.58,-182.78 291.77,-113.18 354,-39.5 354.74,-38.63 355.51,-37.79 356.31,-36.98"/>
<polygon fill="midnightblue" stroke="midnightblue" points="358.72,-39.53 364.24,-30.48 354.28,-34.11 358.72,-39.53"/>
</g>
<!-- Node22 -->
<g id="node22" class="node">
<title>Node22</title>
<g id="a_node22"><a xlink:href="as__cache_8c.html#ae76087a19400fcaebb8397a8a1ee828b" target="_top" xlink:title="Unmap DMA address at end of transfer.">
<polygon fill="none" stroke="black" points="373.5,-439 373.5,-458 474.5,-458 474.5,-439 373.5,-439"/>
<text text-anchor="middle" x="424" y="-446" font-family="Helvetica,sans-Serif" font-size="10.00">as_unmap_single</text>
</a>
</g>
</g>
<!-- Node2&#45;&gt;Node22 -->
<g id="edge31" class="edge">
<title>Node2&#45;&gt;Node22</title>
<path fill="none" stroke="midnightblue" d="M245.2,-282.38C257.53,-310.14 296.38,-389.42 354,-429.5 357.09,-431.65 360.41,-433.55 363.87,-435.25"/>
<polygon fill="midnightblue" stroke="midnightblue" points="362.71,-438.55 373.28,-439.24 365.44,-432.11 362.71,-438.55"/>
</g>
<!-- Node8 -->
<g id="node8" class="node">
<title>Node8</title>
<g id="a_node8"><a xlink:href="group__asterics__support.html#ga488e796d469c62267d9547fd11f8d764" target="_top" xlink:title=" ">
<polygon fill="none" stroke="black" points="530,-401 530,-420 660,-420 660,-401 530,-401"/>
<text text-anchor="middle" x="595" y="-408" font-family="Helvetica,sans-Serif" font-size="10.00">as_dcache_flush_range</text>
</a>
</g>
</g>
<!-- Node7&#45;&gt;Node8 -->
<g id="edge7" class="edge">
<title>Node7&#45;&gt;Node8</title>
<path fill="none" stroke="midnightblue" d="M468.52,-410.5C484.14,-410.5 502.22,-410.5 519.7,-410.5"/>
<polygon fill="midnightblue" stroke="midnightblue" points="519.91,-414 529.91,-410.5 519.91,-407 519.91,-414"/>
</g>
<!-- Node10 -->
<g id="node10" class="node">
<title>Node10</title>
<g id="a_node10"><a xlink:href="group__asterics__support.html#gaa7520f5b717e163da743500adb2eb0b9" target="_top" xlink:title=" ">
<polygon fill="none" stroke="black" points="549.5,-266 549.5,-285 640.5,-285 640.5,-266 549.5,-266"/>
<text text-anchor="middle" x="595" y="-273" font-family="Helvetica,sans-Serif" font-size="10.00">as_module_reg</text>
</a>
</g>
</g>
<!-- Node9&#45;&gt;Node10 -->
<g id="edge9" class="edge">
<title>Node9&#45;&gt;Node10</title>
<path fill="none" stroke="midnightblue" d="M476.28,-351.41C482.5,-348.59 488.57,-345.3 494,-341.5 514.42,-327.21 509.56,-312.77 530,-298.5 535.34,-294.77 541.34,-291.59 547.48,-288.88"/>
<polygon fill="midnightblue" stroke="midnightblue" points="549.18,-291.97 557.16,-285.01 546.58,-285.47 549.18,-291.97"/>
</g>
<!-- Node11 -->
<g id="node11" class="node">
<title>Node11</title>
<g id="a_node11"><a xlink:href="group__asterics__support.html#ga8e5c2bfd2e4498d10289377bd94cef07" target="_top" xlink:title=" ">
<polygon fill="none" stroke="black" points="697.5,-308 697.5,-327 773.5,-327 773.5,-308 697.5,-308"/>
<text text-anchor="middle" x="735.5" y="-315" font-family="Helvetica,sans-Serif" font-size="10.00">as_reg_read</text>
</a>
</g>
</g>
<!-- Node9&#45;&gt;Node11 -->
<g id="edge10" class="edge">
<title>Node9&#45;&gt;Node11</title>
<path fill="none" stroke="midnightblue" d="M483.74,-361.02C531.47,-356.09 600.41,-347.86 660,-336.5 670.03,-334.59 680.72,-332.12 690.78,-329.6"/>
<polygon fill="midnightblue" stroke="midnightblue" points="691.76,-332.97 700.58,-327.09 690.02,-326.19 691.76,-332.97"/>
</g>
<!-- Node12 -->
<g id="node12" class="node">
<title>Node12</title>
<g id="a_node12"><a xlink:href="group__asterics__support.html#ga4c6d688b840a6e2edc9bc0b8ed961677" target="_top" xlink:title=" ">
<polygon fill="none" stroke="black" points="817.5,-308 817.5,-327 917.5,-327 917.5,-308 817.5,-308"/>
<text text-anchor="middle" x="867.5" y="-315" font-family="Helvetica,sans-Serif" font-size="10.00">as_reg_to_uint32</text>
</a>
</g>
</g>
<!-- Node11&#45;&gt;Node12 -->
<g id="edge11" class="edge">
<title>Node11&#45;&gt;Node12</title>
<path fill="none" stroke="midnightblue" d="M773.75,-317.5C784.09,-317.5 795.59,-317.5 806.86,-317.5"/>
<polygon fill="midnightblue" stroke="midnightblue" points="807.12,-321 817.12,-317.5 807.12,-314 807.12,-321"/>
</g>
<!-- Node13&#45;&gt;Node10 -->
<g id="edge13" class="edge">
<title>Node13&#45;&gt;Node10</title>
<path fill="none" stroke="midnightblue" d="M459.2,-312.99C485.34,-305.72 521.58,-295.64 549.9,-287.76"/>
<polygon fill="midnightblue" stroke="midnightblue" points="550.87,-291.13 559.56,-285.08 548.99,-284.38 550.87,-291.13"/>
</g>
<!-- Node14 -->
<g id="node14" class="node">
<title>Node14</title>
<g id="a_node14"><a xlink:href="group__asterics__support.html#ga36a2ed59c59831bee59daaae3cb6cb35" target="_top" xlink:title=" ">
<polygon fill="none" stroke="black" points="535.5,-308 535.5,-327 654.5,-327 654.5,-308 535.5,-308"/>
<text text-anchor="middle" x="595" y="-315" font-family="Helvetica,sans-Serif" font-size="10.00">as_reg_read_masked</text>
</a>
</g>
</g>
<!-- Node13&#45;&gt;Node14 -->
<g id="edge14" class="edge">
<title>Node13&#45;&gt;Node14</title>
<path fill="none" stroke="midnightblue" d="M494.23,-320.45C504.48,-320.15 515.05,-319.84 525.29,-319.53"/>
<polygon fill="midnightblue" stroke="midnightblue" points="525.51,-323.03 535.41,-319.23 525.31,-316.03 525.51,-323.03"/>
</g>
<!-- Node14&#45;&gt;Node11 -->
<g id="edge15" class="edge">
<title>Node14&#45;&gt;Node11</title>
<path fill="none" stroke="midnightblue" d="M654.74,-317.5C665.57,-317.5 676.76,-317.5 687.21,-317.5"/>
<polygon fill="midnightblue" stroke="midnightblue" points="687.37,-321 697.37,-317.5 687.37,-314 687.37,-321"/>
</g>
<!-- Node15&#45;&gt;Node10 -->
<g id="edge17" class="edge">
<title>Node15&#45;&gt;Node10</title>
<path fill="none" stroke="midnightblue" d="M480.34,-277.52C499.18,-277.18 520.23,-276.81 539.04,-276.48"/>
<polygon fill="midnightblue" stroke="midnightblue" points="539.3,-279.97 549.24,-276.29 539.18,-272.97 539.3,-279.97"/>
</g>
<!-- Node15&#45;&gt;Node14 -->
<g id="edge18" class="edge">
<title>Node15&#45;&gt;Node14</title>
<path fill="none" stroke="midnightblue" d="M480.34,-291.27C500.51,-295.93 523.22,-301.17 543,-305.73"/>
<polygon fill="midnightblue" stroke="midnightblue" points="542.22,-309.14 552.75,-307.98 543.79,-302.32 542.22,-309.14"/>
</g>
<!-- Node16&#45;&gt;Node10 -->
<g id="edge20" class="edge">
<title>Node16&#45;&gt;Node10</title>
<path fill="none" stroke="midnightblue" d="M464.2,-244.01C488.21,-249.84 519.16,-257.34 544.82,-263.57"/>
<polygon fill="midnightblue" stroke="midnightblue" points="544.18,-267.01 554.72,-265.97 545.83,-260.21 544.18,-267.01"/>
</g>
<!-- Node17 -->
<g id="node17" class="node">
<title>Node17</title>
<g id="a_node17"><a xlink:href="group__asterics__support.html#ga0ccb0610d764a95bda989e35fba59490" target="_top" xlink:title=" ">
<polygon fill="none" stroke="black" points="534,-225 534,-244 656,-244 656,-225 534,-225"/>
<text text-anchor="middle" x="595" y="-232" font-family="Helvetica,sans-Serif" font-size="10.00">as_reg_write_masked</text>
</a>
</g>
</g>
<!-- Node16&#45;&gt;Node17 -->
<g id="edge21" class="edge">
<title>Node16&#45;&gt;Node17</title>
<path fill="none" stroke="midnightblue" d="M492.28,-234.5C502.57,-234.5 513.21,-234.5 523.56,-234.5"/>
<polygon fill="midnightblue" stroke="midnightblue" points="523.79,-238 533.79,-234.5 523.79,-231 523.79,-238"/>
</g>
<!-- Node17&#45;&gt;Node11 -->
<g id="edge22" class="edge">
<title>Node17&#45;&gt;Node11</title>
<path fill="none" stroke="midnightblue" d="M631.18,-244.1C640.82,-247.39 651.07,-251.52 660,-256.5 681.73,-268.61 703.36,-287.25 717.68,-300.74"/>
<polygon fill="midnightblue" stroke="midnightblue" points="715.58,-303.58 725.2,-308 720.44,-298.54 715.58,-303.58"/>
</g>
<!-- Node18 -->
<g id="node18" class="node">
<title>Node18</title>
<g id="a_node18"><a xlink:href="group__asterics__support.html#ga6345b997e24a6cd5f9143cef27629d49" target="_top" xlink:title=" ">
<polygon fill="none" stroke="black" points="696,-55 696,-74 775,-74 775,-55 696,-55"/>
<text text-anchor="middle" x="735.5" y="-62" font-family="Helvetica,sans-Serif" font-size="10.00">as_reg_write</text>
</a>
</g>
</g>
<!-- Node17&#45;&gt;Node18 -->
<g id="edge23" class="edge">
<title>Node17&#45;&gt;Node18</title>
<path fill="none" stroke="midnightblue" d="M603.84,-224.87C626.32,-197.29 691.18,-117.67 720.19,-82.07"/>
<polygon fill="midnightblue" stroke="midnightblue" points="723.14,-83.98 726.74,-74.02 717.71,-79.56 723.14,-83.98"/>
</g>
<!-- Node19 -->
<g id="node19" class="node">
<title>Node19</title>
<g id="a_node19"><a xlink:href="group__asterics__support.html#gab651cc2c035ce61b354578434e59f822" target="_top" xlink:title=" ">
<polygon fill="none" stroke="black" points="811,-55 811,-74 924,-74 924,-55 811,-55"/>
<text text-anchor="middle" x="867.5" y="-62" font-family="Helvetica,sans-Serif" font-size="10.00">as_reg_from_uint32</text>
</a>
</g>
</g>
<!-- Node18&#45;&gt;Node19 -->
<g id="edge24" class="edge">
<title>Node18&#45;&gt;Node19</title>
<path fill="none" stroke="midnightblue" d="M775.15,-64.5C783.22,-64.5 791.94,-64.5 800.68,-64.5"/>
<polygon fill="midnightblue" stroke="midnightblue" points="800.92,-68 810.92,-64.5 800.92,-61 800.92,-68"/>
</g>
<!-- Node20&#45;&gt;Node10 -->
<g id="edge26" class="edge">
<title>Node20&#45;&gt;Node10</title>
<path fill="none" stroke="midnightblue" d="M482.3,-79.67C486.65,-82.42 490.64,-85.67 494,-89.5 543.19,-145.62 480.35,-197.79 530,-253.5 533.03,-256.9 536.6,-259.77 540.49,-262.2"/>
<polygon fill="midnightblue" stroke="midnightblue" points="538.93,-265.33 549.42,-266.84 542.16,-259.12 538.93,-265.33"/>
</g>
<!-- Node20&#45;&gt;Node18 -->
<g id="edge27" class="edge">
<title>Node20&#45;&gt;Node18</title>
<path fill="none" stroke="midnightblue" d="M483.58,-64.5C542.02,-64.5 630.79,-64.5 685.58,-64.5"/>
<polygon fill="midnightblue" stroke="midnightblue" points="685.74,-68 695.74,-64.5 685.74,-61 685.74,-68"/>
</g>
<!-- Node21&#45;&gt;Node10 -->
<g id="edge29" class="edge">
<title>Node21&#45;&gt;Node10</title>
<path fill="none" stroke="midnightblue" d="M483.76,-30.48C487.57,-33.03 491.05,-36.01 494,-39.5 556.23,-113.18 467.63,-179.93 530,-253.5 532.94,-256.97 536.46,-259.9 540.31,-262.36"/>
<polygon fill="midnightblue" stroke="midnightblue" points="538.7,-265.47 549.18,-267.05 541.98,-259.28 538.7,-265.47"/>
</g>
<!-- Node21&#45;&gt;Node18 -->
<g id="edge30" class="edge">
<title>Node21&#45;&gt;Node18</title>
<path fill="none" stroke="midnightblue" d="M483.58,-24.77C542.02,-34.03 630.79,-48.08 685.58,-56.76"/>
<polygon fill="midnightblue" stroke="midnightblue" points="685.31,-60.26 695.74,-58.36 686.41,-53.34 685.31,-60.26"/>
</g>
<!-- Node22&#45;&gt;Node6 -->
<g id="edge32" class="edge">
<title>Node22&#45;&gt;Node6</title>
<path fill="none" stroke="midnightblue" d="M474.79,-454.98C490.11,-456.98 507.27,-459.21 523.7,-461.35"/>
<polygon fill="midnightblue" stroke="midnightblue" points="523.44,-464.84 533.81,-462.66 524.34,-457.9 523.44,-464.84"/>
</g>
<!-- Node23&#45;&gt;Node3 -->
<g id="edge34" class="edge">
<title>Node23&#45;&gt;Node3</title>
<path fill="none" stroke="midnightblue" d="M286.93,-224.91C311.38,-219.81 341.63,-213.49 367.4,-208.11"/>
<polygon fill="midnightblue" stroke="midnightblue" points="368.33,-211.49 377.4,-206.02 366.9,-204.64 368.33,-211.49"/>
</g>
<!-- Node23&#45;&gt;Node4 -->
<g id="edge35" class="edge">
<title>Node23&#45;&gt;Node4</title>
<path fill="none" stroke="midnightblue" d="M258.31,-224.95C280.22,-213.06 319.3,-192.47 354,-177.5 358.97,-175.35 364.19,-173.23 369.45,-171.18"/>
<polygon fill="midnightblue" stroke="midnightblue" points="370.79,-174.42 378.89,-167.59 368.3,-167.88 370.79,-174.42"/>
</g>
<!-- Node23&#45;&gt;Node5 -->
<g id="edge36" class="edge">
<title>Node23&#45;&gt;Node5</title>
<path fill="none" stroke="midnightblue" d="M248.35,-224.88C264.86,-203.92 307.17,-153.91 354,-127.5 357.94,-125.28 362.16,-123.3 366.49,-121.55"/>
<polygon fill="midnightblue" stroke="midnightblue" points="367.9,-124.76 376.11,-118.06 365.51,-118.18 367.9,-124.76"/>
</g>
<!-- Node23&#45;&gt;Node7 -->
<g id="edge37" class="edge">
<title>Node23&#45;&gt;Node7</title>
<path fill="none" stroke="midnightblue" d="M304.94,-244.19C309.73,-246.67 314.17,-249.73 318,-253.5 362.85,-297.68 310.05,-345.43 354,-390.5 358.46,-395.07 363.89,-398.61 369.73,-401.36"/>
<polygon fill="midnightblue" stroke="midnightblue" points="368.58,-404.66 379.16,-405.04 371.12,-398.14 368.58,-404.66"/>
</g>
<!-- Node23&#45;&gt;Node9 -->
<g id="edge38" class="edge">
<title>Node23&#45;&gt;Node9</title>
<path fill="none" stroke="midnightblue" d="M302.91,-244.04C308.37,-246.53 313.52,-249.63 318,-253.5 349.99,-281.12 323.52,-312.23 354,-341.5 355.64,-343.08 357.39,-344.56 359.23,-345.94"/>
<polygon fill="midnightblue" stroke="midnightblue" points="357.44,-348.95 367.73,-351.45 361.24,-343.08 357.44,-348.95"/>
</g>
<!-- Node23&#45;&gt;Node13 -->
<g id="edge39" class="edge">
<title>Node23&#45;&gt;Node13</title>
<path fill="none" stroke="midnightblue" d="M298.82,-244.03C305.6,-246.49 312.16,-249.6 318,-253.5 340.46,-268.52 331.84,-287.03 354,-302.5 357.51,-304.95 361.32,-307.1 365.28,-308.99"/>
<polygon fill="midnightblue" stroke="midnightblue" points="364.17,-312.32 374.74,-312.95 366.87,-305.86 364.17,-312.32"/>
</g>
<!-- Node23&#45;&gt;Node15 -->
<g id="edge40" class="edge">
<title>Node23&#45;&gt;Node15</title>
<path fill="none" stroke="midnightblue" d="M280.49,-244.05C303.11,-249.52 332.06,-256.51 357.95,-262.77"/>
<polygon fill="midnightblue" stroke="midnightblue" points="357.16,-266.18 367.71,-265.13 358.81,-259.38 357.16,-266.18"/>
</g>
<!-- Node23&#45;&gt;Node16 -->
<g id="edge41" class="edge">
<title>Node23&#45;&gt;Node16</title>
<path fill="none" stroke="midnightblue" d="M318.18,-234.5C327.26,-234.5 336.53,-234.5 345.62,-234.5"/>
<polygon fill="midnightblue" stroke="midnightblue" points="345.77,-238 355.77,-234.5 345.77,-231 345.77,-238"/>
</g>
<!-- Node23&#45;&gt;Node20 -->
<g id="edge42" class="edge">
<title>Node23&#45;&gt;Node20</title>
<path fill="none" stroke="midnightblue" d="M245.96,-224.86C259.66,-199.17 300.55,-128.33 354,-89.5 356.63,-87.59 359.42,-85.81 362.31,-84.16"/>
<polygon fill="midnightblue" stroke="midnightblue" points="363.94,-87.26 371.24,-79.57 360.74,-81.03 363.94,-87.26"/>
</g>
<!-- Node23&#45;&gt;Node21 -->
<g id="edge43" class="edge">
<title>Node23&#45;&gt;Node21</title>
<path fill="none" stroke="midnightblue" d="M243.91,-224.78C253.85,-193.26 289.43,-92.81 354,-39.5 355.54,-38.23 357.15,-37.02 358.82,-35.88"/>
<polygon fill="midnightblue" stroke="midnightblue" points="360.77,-38.79 367.57,-30.66 357.19,-32.78 360.77,-38.79"/>
</g>
<!-- Node23&#45;&gt;Node22 -->
<g id="edge44" class="edge">
<title>Node23&#45;&gt;Node22</title>
<path fill="none" stroke="midnightblue" d="M305.53,-244.16C310.13,-246.65 314.38,-249.73 318,-253.5 373.31,-311.08 299.46,-371.19 354,-429.5 356.96,-432.66 360.39,-435.32 364.12,-437.55"/>
<polygon fill="midnightblue" stroke="midnightblue" points="362.72,-440.76 373.25,-442 365.79,-434.47 362.72,-440.76"/>
</g>
</g>
</svg>
