<?xml version="1.0" encoding="UTF-8" standalone="no"?>
<!DOCTYPE svg PUBLIC "-//W3C//DTD SVG 1.1//EN"
 "http://www.w3.org/Graphics/SVG/1.1/DTD/svg11.dtd">
<!-- Generated by graphviz version 2.43.0 (0)
 -->
<!-- Title: as_buffer.c Pages: 1 -->
<svg width="830pt" height="196pt"
 viewBox="0.00 0.00 830.00 196.00" xmlns="http://www.w3.org/2000/svg" xmlns:xlink="http://www.w3.org/1999/xlink">
<g id="graph0" class="graph" transform="scale(1 1) rotate(0) translate(4 192)">
<title>as_buffer.c</title>
<!-- Node1 -->
<g id="node1" class="node">
<title>Node1</title>
<g id="a_node1"><a xlink:title="Buffer implementation file.">
<polygon fill="#bfbfbf" stroke="black" points="410.5,-168.5 410.5,-187.5 481.5,-187.5 481.5,-168.5 410.5,-168.5"/>
<text text-anchor="middle" x="446" y="-175.5" font-family="Helvetica,sans-Serif" font-size="10.00">as_buffer.c</text>
</a>
</g>
</g>
<!-- Node2 -->
<g id="node2" class="node">
<title>Node2</title>
<g id="a_node2"><a xlink:href="as__support_8h.html" target="_top" xlink:title="Software support module for ASTERICS systems.">
<polygon fill="none" stroke="black" points="353.5,-56.5 353.5,-75.5 432.5,-75.5 432.5,-56.5 353.5,-56.5"/>
<text text-anchor="middle" x="393" y="-63.5" font-family="Helvetica,sans-Serif" font-size="10.00">as_support.h</text>
</a>
</g>
</g>
<!-- Node1&#45;&gt;Node2 -->
<g id="edge1" class="edge">
<title>Node1&#45;&gt;Node2</title>
<path fill="none" stroke="midnightblue" d="M410.3,-173.68C383.28,-169.07 347.88,-158.11 330,-132 316.34,-112.06 341.84,-92.61 364.37,-80.27"/>
<polygon fill="midnightblue" stroke="midnightblue" points="366.13,-83.3 373.4,-75.59 362.91,-77.08 366.13,-83.3"/>
</g>
<!-- Node14 -->
<g id="node14" class="node">
<title>Node14</title>
<g id="a_node14"><a xlink:href="as__buffer_8h.html" target="_top" xlink:title="Header filer containing structure definitions for use of ASTERICS buffer objects.">
<polygon fill="none" stroke="black" points="496.5,-56.5 496.5,-75.5 567.5,-75.5 567.5,-56.5 496.5,-56.5"/>
<text text-anchor="middle" x="532" y="-63.5" font-family="Helvetica,sans-Serif" font-size="10.00">as_buffer.h</text>
</a>
</g>
</g>
<!-- Node1&#45;&gt;Node14 -->
<g id="edge13" class="edge">
<title>Node1&#45;&gt;Node14</title>
<path fill="none" stroke="midnightblue" d="M481.7,-170.84C504.03,-164.94 531.1,-153.59 545,-132 554.12,-117.83 548.55,-98.6 542.12,-84.74"/>
<polygon fill="midnightblue" stroke="midnightblue" points="545.17,-83.02 537.47,-75.74 538.95,-86.23 545.17,-83.02"/>
</g>
<!-- Node15 -->
<g id="node15" class="node">
<title>Node15</title>
<g id="a_node15"><a xlink:href="as__reader__writer_8h.html" target="_top" xlink:title="Driver (header file) for as_reader_writer module.">
<polygon fill="none" stroke="black" points="339.5,-112.5 339.5,-131.5 446.5,-131.5 446.5,-112.5 339.5,-112.5"/>
<text text-anchor="middle" x="393" y="-119.5" font-family="Helvetica,sans-Serif" font-size="10.00">as_reader_writer.h</text>
</a>
</g>
</g>
<!-- Node1&#45;&gt;Node15 -->
<g id="edge14" class="edge">
<title>Node1&#45;&gt;Node15</title>
<path fill="none" stroke="midnightblue" d="M437.25,-168.08C429.53,-160.22 418.1,-148.57 408.78,-139.08"/>
<polygon fill="midnightblue" stroke="midnightblue" points="411.09,-136.44 401.59,-131.75 406.1,-141.34 411.09,-136.44"/>
</g>
<!-- Node16 -->
<g id="node16" class="node">
<title>Node16</title>
<g id="a_node16"><a xlink:href="as__cache_8h.html" target="_top" xlink:title=" ">
<polygon fill="none" stroke="black" points="464.5,-112.5 464.5,-131.5 535.5,-131.5 535.5,-112.5 464.5,-112.5"/>
<text text-anchor="middle" x="500" y="-119.5" font-family="Helvetica,sans-Serif" font-size="10.00">as_cache.h</text>
</a>
</g>
</g>
<!-- Node1&#45;&gt;Node16 -->
<g id="edge16" class="edge">
<title>Node1&#45;&gt;Node16</title>
<path fill="none" stroke="midnightblue" d="M454.92,-168.08C462.78,-160.22 474.43,-148.57 483.92,-139.08"/>
<polygon fill="midnightblue" stroke="midnightblue" points="486.65,-141.3 491.25,-131.75 481.7,-136.35 486.65,-141.3"/>
</g>
<!-- Node3 -->
<g id="node3" class="node">
<title>Node3</title>
<g id="a_node3"><a xlink:href="asp_2as__config_8h.html" target="_top" xlink:title=" ">
<polygon fill="none" stroke="black" points="0,-0.5 0,-19.5 72,-19.5 72,-0.5 0,-0.5"/>
<text text-anchor="middle" x="36" y="-7.5" font-family="Helvetica,sans-Serif" font-size="10.00">as_config.h</text>
</a>
</g>
</g>
<!-- Node2&#45;&gt;Node3 -->
<g id="edge2" class="edge">
<title>Node2&#45;&gt;Node3</title>
<path fill="none" stroke="midnightblue" d="M353.49,-60C296.02,-52.57 185.79,-37.75 82.31,-20.15"/>
<polygon fill="midnightblue" stroke="midnightblue" points="82.77,-16.68 72.32,-18.44 81.58,-23.58 82.77,-16.68"/>
</g>
<!-- Node4 -->
<g id="node4" class="node">
<title>Node4</title>
<g id="a_node4"><a xlink:title=" ">
<polygon fill="none" stroke="#bfbfbf" points="90.5,-0.5 90.5,-19.5 143.5,-19.5 143.5,-0.5 90.5,-0.5"/>
<text text-anchor="middle" x="117" y="-7.5" font-family="Helvetica,sans-Serif" font-size="10.00">stdint.h</text>
</a>
</g>
</g>
<!-- Node2&#45;&gt;Node4 -->
<g id="edge3" class="edge">
<title>Node2&#45;&gt;Node4</title>
<path fill="none" stroke="midnightblue" d="M353.17,-58.41C307.31,-50.63 229.49,-36.86 153.88,-20.31"/>
<polygon fill="midnightblue" stroke="midnightblue" points="154.23,-16.8 143.71,-18.06 152.72,-23.64 154.23,-16.8"/>
</g>
<!-- Node5 -->
<g id="node5" class="node">
<title>Node5</title>
<g id="a_node5"><a xlink:title=" ">
<polygon fill="none" stroke="#bfbfbf" points="161.5,-0.5 161.5,-19.5 214.5,-19.5 214.5,-0.5 161.5,-0.5"/>
<text text-anchor="middle" x="188" y="-7.5" font-family="Helvetica,sans-Serif" font-size="10.00">stdlib.h</text>
</a>
</g>
</g>
<!-- Node2&#45;&gt;Node5 -->
<g id="edge4" class="edge">
<title>Node2&#45;&gt;Node5</title>
<path fill="none" stroke="midnightblue" d="M360.52,-56.44C323.52,-46.7 263.21,-30.81 224.58,-20.64"/>
<polygon fill="midnightblue" stroke="midnightblue" points="225.34,-17.22 214.78,-18.05 223.56,-23.99 225.34,-17.22"/>
</g>
<!-- Node6 -->
<g id="node6" class="node">
<title>Node6</title>
<g id="a_node6"><a xlink:title=" ">
<polygon fill="none" stroke="#bfbfbf" points="233,-0.5 233,-19.5 283,-19.5 283,-0.5 233,-0.5"/>
<text text-anchor="middle" x="258" y="-7.5" font-family="Helvetica,sans-Serif" font-size="10.00">stdio.h</text>
</a>
</g>
</g>
<!-- Node2&#45;&gt;Node6 -->
<g id="edge5" class="edge">
<title>Node2&#45;&gt;Node6</title>
<path fill="none" stroke="midnightblue" d="M371.61,-56.44C349.29,-47.52 314.1,-33.44 288.79,-23.32"/>
<polygon fill="midnightblue" stroke="midnightblue" points="289.88,-19.98 279.29,-19.52 287.28,-26.48 289.88,-19.98"/>
</g>
<!-- Node7 -->
<g id="node7" class="node">
<title>Node7</title>
<g id="a_node7"><a xlink:title=" ">
<polygon fill="none" stroke="#bfbfbf" points="301.5,-0.5 301.5,-19.5 348.5,-19.5 348.5,-0.5 301.5,-0.5"/>
<text text-anchor="middle" x="325" y="-7.5" font-family="Helvetica,sans-Serif" font-size="10.00">fcntl.h</text>
</a>
</g>
</g>
<!-- Node2&#45;&gt;Node7 -->
<g id="edge6" class="edge">
<title>Node2&#45;&gt;Node7</title>
<path fill="none" stroke="midnightblue" d="M382.07,-56.32C371.83,-48.18 356.28,-35.84 344,-26.09"/>
<polygon fill="midnightblue" stroke="midnightblue" points="346.13,-23.31 336.12,-19.83 341.78,-28.79 346.13,-23.31"/>
</g>
<!-- Node8 -->
<g id="node8" class="node">
<title>Node8</title>
<g id="a_node8"><a xlink:title=" ">
<polygon fill="none" stroke="#bfbfbf" points="366.5,-0.5 366.5,-19.5 419.5,-19.5 419.5,-0.5 366.5,-0.5"/>
<text text-anchor="middle" x="393" y="-7.5" font-family="Helvetica,sans-Serif" font-size="10.00">string.h</text>
</a>
</g>
</g>
<!-- Node2&#45;&gt;Node8 -->
<g id="edge7" class="edge">
<title>Node2&#45;&gt;Node8</title>
<path fill="none" stroke="midnightblue" d="M393,-56.08C393,-49.01 393,-38.86 393,-29.99"/>
<polygon fill="midnightblue" stroke="midnightblue" points="396.5,-29.75 393,-19.75 389.5,-29.75 396.5,-29.75"/>
</g>
<!-- Node9 -->
<g id="node9" class="node">
<title>Node9</title>
<g id="a_node9"><a xlink:title=" ">
<polygon fill="none" stroke="#bfbfbf" points="438,-0.5 438,-19.5 494,-19.5 494,-0.5 438,-0.5"/>
<text text-anchor="middle" x="466" y="-7.5" font-family="Helvetica,sans-Serif" font-size="10.00">unistd.h</text>
</a>
</g>
</g>
<!-- Node2&#45;&gt;Node9 -->
<g id="edge8" class="edge">
<title>Node2&#45;&gt;Node9</title>
<path fill="none" stroke="midnightblue" d="M404.73,-56.32C415.84,-48.11 432.74,-35.6 445.98,-25.81"/>
<polygon fill="midnightblue" stroke="midnightblue" points="448.1,-28.59 454.06,-19.83 443.94,-22.97 448.1,-28.59"/>
</g>
<!-- Node10 -->
<g id="node10" class="node">
<title>Node10</title>
<g id="a_node10"><a xlink:title=" ">
<polygon fill="none" stroke="#bfbfbf" points="512.5,-0.5 512.5,-19.5 583.5,-19.5 583.5,-0.5 512.5,-0.5"/>
<text text-anchor="middle" x="548" y="-7.5" font-family="Helvetica,sans-Serif" font-size="10.00">xil_cache.h</text>
</a>
</g>
</g>
<!-- Node2&#45;&gt;Node10 -->
<g id="edge9" class="edge">
<title>Node2&#45;&gt;Node10</title>
<path fill="none" stroke="midnightblue" d="M417.56,-56.44C443.52,-47.4 484.67,-33.06 513.8,-22.92"/>
<polygon fill="midnightblue" stroke="midnightblue" points="515.26,-26.11 523.55,-19.52 512.96,-19.5 515.26,-26.11"/>
</g>
<!-- Node11 -->
<g id="node11" class="node">
<title>Node11</title>
<g id="a_node11"><a xlink:title=" ">
<polygon fill="none" stroke="#bfbfbf" points="602,-0.5 602,-19.5 672,-19.5 672,-0.5 602,-0.5"/>
<text text-anchor="middle" x="637" y="-7.5" font-family="Helvetica,sans-Serif" font-size="10.00">xil_types.h</text>
</a>
</g>
</g>
<!-- Node2&#45;&gt;Node11 -->
<g id="edge10" class="edge">
<title>Node2&#45;&gt;Node11</title>
<path fill="none" stroke="midnightblue" d="M431.66,-56.44C475.14,-46.82 545.66,-31.21 591.69,-21.03"/>
<polygon fill="midnightblue" stroke="midnightblue" points="592.68,-24.39 601.69,-18.82 591.17,-17.56 592.68,-24.39"/>
</g>
<!-- Node12 -->
<g id="node12" class="node">
<title>Node12</title>
<g id="a_node12"><a xlink:title=" ">
<polygon fill="none" stroke="#bfbfbf" points="690,-0.5 690,-19.5 752,-19.5 752,-0.5 690,-0.5"/>
<text text-anchor="middle" x="721" y="-7.5" font-family="Helvetica,sans-Serif" font-size="10.00">xstatus.h</text>
</a>
</g>
</g>
<!-- Node2&#45;&gt;Node12 -->
<g id="edge11" class="edge">
<title>Node2&#45;&gt;Node12</title>
<path fill="none" stroke="midnightblue" d="M432.74,-59.64C486.52,-52.2 585.68,-37.83 679.64,-20.16"/>
<polygon fill="midnightblue" stroke="midnightblue" points="680.43,-23.57 689.6,-18.27 679.12,-16.7 680.43,-23.57"/>
</g>
<!-- Node13 -->
<g id="node13" class="node">
<title>Node13</title>
<g id="a_node13"><a xlink:title=" ">
<polygon fill="none" stroke="#bfbfbf" points="770,-0.5 770,-19.5 822,-19.5 822,-0.5 770,-0.5"/>
<text text-anchor="middle" x="796" y="-7.5" font-family="Helvetica,sans-Serif" font-size="10.00">xil_io.h</text>
</a>
</g>
</g>
<!-- Node2&#45;&gt;Node13 -->
<g id="edge12" class="edge">
<title>Node2&#45;&gt;Node13</title>
<path fill="none" stroke="midnightblue" d="M432.7,-60.81C510.69,-52.46 682.35,-33.57 759.47,-20.03"/>
<polygon fill="midnightblue" stroke="midnightblue" points="760.5,-23.39 769.71,-18.15 759.24,-16.51 760.5,-23.39"/>
</g>
<!-- Node15&#45;&gt;Node2 -->
<g id="edge15" class="edge">
<title>Node15&#45;&gt;Node2</title>
<path fill="none" stroke="midnightblue" d="M393,-112.08C393,-105.01 393,-94.86 393,-85.99"/>
<polygon fill="midnightblue" stroke="midnightblue" points="396.5,-85.75 393,-75.75 389.5,-85.75 396.5,-85.75"/>
</g>
<!-- Node16&#45;&gt;Node2 -->
<g id="edge17" class="edge">
<title>Node16&#45;&gt;Node2</title>
<path fill="none" stroke="midnightblue" d="M482.81,-112.32C465.65,-103.66 439.05,-90.24 419.25,-80.25"/>
<polygon fill="midnightblue" stroke="midnightblue" points="420.65,-77.04 410.15,-75.65 417.5,-83.28 420.65,-77.04"/>
</g>
<!-- Node16&#45;&gt;Node14 -->
<g id="edge18" class="edge">
<title>Node16&#45;&gt;Node14</title>
<path fill="none" stroke="midnightblue" d="M505.28,-112.08C509.71,-104.61 516.16,-93.72 521.62,-84.52"/>
<polygon fill="midnightblue" stroke="midnightblue" points="524.73,-86.14 526.81,-75.75 518.71,-82.57 524.73,-86.14"/>
</g>
</g>
</svg>
