<?xml version="1.0" encoding="UTF-8" standalone="no"?>
<!DOCTYPE svg PUBLIC "-//W3C//DTD SVG 1.1//EN"
 "http://www.w3.org/Graphics/SVG/1.1/DTD/svg11.dtd">
<!-- Generated by graphviz version 2.43.0 (0)
 -->
<!-- Title: as_memio_module_setup Pages: 1 -->
<svg width="736pt" height="214pt"
 viewBox="0.00 0.00 736.00 213.50" xmlns="http://www.w3.org/2000/svg" xmlns:xlink="http://www.w3.org/1999/xlink">
<g id="graph0" class="graph" transform="scale(1 1) rotate(0) translate(4 209.5)">
<title>as_memio_module_setup</title>
<!-- Node1 -->
<g id="node1" class="node">
<title>Node1</title>
<g id="a_node1"><a xlink:title=" ">
<polygon fill="#bfbfbf" stroke="black" points="0,-104 0,-123 142,-123 142,-104 0,-104"/>
<text text-anchor="middle" x="71" y="-111" font-family="Helvetica,sans-Serif" font-size="10.00">as_memio_module_setup</text>
</a>
</g>
</g>
<!-- Node2 -->
<g id="node2" class="node">
<title>Node2</title>
<g id="a_node2"><a xlink:href="group__as__reader__writer.html#ga89e42a53f0db5cf22c8583c8e0c8a074" target="_top" xlink:title="Resets the hardware module.">
<polygon fill="none" stroke="black" points="178,-148 178,-167 306,-167 306,-148 178,-148"/>
<text text-anchor="middle" x="242" y="-155" font-family="Helvetica,sans-Serif" font-size="10.00">as_reader_writer_reset</text>
</a>
</g>
</g>
<!-- Node1&#45;&gt;Node2 -->
<g id="edge1" class="edge">
<title>Node1&#45;&gt;Node2</title>
<path fill="none" stroke="midnightblue" d="M108.67,-123.05C133.81,-129.59 167.36,-138.33 194.39,-145.37"/>
<polygon fill="midnightblue" stroke="midnightblue" points="193.84,-148.84 204.4,-147.97 195.61,-142.06 193.84,-148.84"/>
</g>
<!-- Node9 -->
<g id="node9" class="node">
<title>Node9</title>
<g id="a_node9"><a xlink:href="group__as__reader__writer.html#gae1123634d5cf61d70bcfc7a87cda08bf" target="_top" xlink:title="Sets the maximum possible burst length to be performed by the hardware module.">
<polygon fill="none" stroke="black" points="182.5,-98.5 182.5,-128.5 301.5,-128.5 301.5,-98.5 182.5,-98.5"/>
<text text-anchor="start" x="190.5" y="-116.5" font-family="Helvetica,sans-Serif" font-size="10.00">as_reader_writer_set</text>
<text text-anchor="middle" x="242" y="-105.5" font-family="Helvetica,sans-Serif" font-size="10.00">_max_burst_length</text>
</a>
</g>
</g>
<!-- Node1&#45;&gt;Node9 -->
<g id="edge8" class="edge">
<title>Node1&#45;&gt;Node9</title>
<path fill="none" stroke="midnightblue" d="M142.2,-113.5C152.1,-113.5 162.26,-113.5 172.13,-113.5"/>
<polygon fill="midnightblue" stroke="midnightblue" points="172.28,-117 182.28,-113.5 172.28,-110 172.28,-117"/>
</g>
<!-- Node10 -->
<g id="node10" class="node">
<title>Node10</title>
<g id="a_node10"><a xlink:href="group__as__reader__writer.html#ga4dd1a170b8e16005c286c0c0e7d8406f" target="_top" xlink:title="Sets the number of sections.">
<polygon fill="none" stroke="black" points="182.5,-49.5 182.5,-79.5 301.5,-79.5 301.5,-49.5 182.5,-49.5"/>
<text text-anchor="start" x="190.5" y="-67.5" font-family="Helvetica,sans-Serif" font-size="10.00">as_reader_writer_set</text>
<text text-anchor="middle" x="242" y="-56.5" font-family="Helvetica,sans-Serif" font-size="10.00">_section_count</text>
</a>
</g>
</g>
<!-- Node1&#45;&gt;Node10 -->
<g id="edge11" class="edge">
<title>Node1&#45;&gt;Node10</title>
<path fill="none" stroke="midnightblue" d="M104.99,-103.94C126.1,-97.81 154.16,-89.68 179.3,-82.39"/>
<polygon fill="midnightblue" stroke="midnightblue" points="180.51,-85.68 189.14,-79.54 178.56,-78.96 180.51,-85.68"/>
</g>
<!-- Node11 -->
<g id="node11" class="node">
<title>Node11</title>
<g id="a_node11"><a xlink:href="group__as__reader__writer.html#ga12f11a3d7cff5ea8bdec75dedec35bab" target="_top" xlink:title="Sets the offset in bytes between the start addresses of two subsequent sections.">
<polygon fill="none" stroke="black" points="182.5,-0.5 182.5,-30.5 301.5,-30.5 301.5,-0.5 182.5,-0.5"/>
<text text-anchor="start" x="190.5" y="-18.5" font-family="Helvetica,sans-Serif" font-size="10.00">as_reader_writer_set</text>
<text text-anchor="middle" x="242" y="-7.5" font-family="Helvetica,sans-Serif" font-size="10.00">_section_offset</text>
</a>
</g>
</g>
<!-- Node1&#45;&gt;Node11 -->
<g id="edge14" class="edge">
<title>Node1&#45;&gt;Node11</title>
<path fill="none" stroke="midnightblue" d="M84.14,-103.78C103.26,-88.79 141.93,-59.76 178,-40.5 181.74,-38.5 185.67,-36.58 189.67,-34.74"/>
<polygon fill="midnightblue" stroke="midnightblue" points="191.31,-37.84 199.05,-30.61 188.49,-31.43 191.31,-37.84"/>
</g>
<!-- Node12 -->
<g id="node12" class="node">
<title>Node12</title>
<g id="a_node12"><a xlink:href="group__as__reader__writer.html#ga1ef22dbd33d87de51113837dd9123c6f" target="_top" xlink:title="Enable module input port.">
<polygon fill="none" stroke="black" points="182,-186 182,-205 302,-205 302,-186 182,-186"/>
<text text-anchor="middle" x="242" y="-193" font-family="Helvetica,sans-Serif" font-size="10.00">as_writer_set_enable</text>
</a>
</g>
</g>
<!-- Node1&#45;&gt;Node12 -->
<g id="edge17" class="edge">
<title>Node1&#45;&gt;Node12</title>
<path fill="none" stroke="midnightblue" d="M85.81,-123.21C105.5,-136.69 143.12,-161.15 178,-176.5 183.1,-178.74 188.54,-180.82 194.01,-182.72"/>
<polygon fill="midnightblue" stroke="midnightblue" points="193.22,-186.14 203.81,-185.92 195.39,-179.49 193.22,-186.14"/>
</g>
<!-- Node3 -->
<g id="node3" class="node">
<title>Node3</title>
<g id="a_node3"><a xlink:href="group__asterics__support.html#gaa7520f5b717e163da743500adb2eb0b9" target="_top" xlink:title=" ">
<polygon fill="none" stroke="black" points="357.5,-90 357.5,-109 448.5,-109 448.5,-90 357.5,-90"/>
<text text-anchor="middle" x="403" y="-97" font-family="Helvetica,sans-Serif" font-size="10.00">as_module_reg</text>
</a>
</g>
</g>
<!-- Node2&#45;&gt;Node3 -->
<g id="edge2" class="edge">
<title>Node2&#45;&gt;Node3</title>
<path fill="none" stroke="midnightblue" d="M276.86,-147.92C286.35,-145.06 296.63,-141.81 306,-138.5 327.86,-130.78 352.03,-120.96 370.65,-113.1"/>
<polygon fill="midnightblue" stroke="midnightblue" points="372.28,-116.21 380.11,-109.07 369.54,-109.77 372.28,-116.21"/>
</g>
<!-- Node4 -->
<g id="node4" class="node">
<title>Node4</title>
<g id="a_node4"><a xlink:href="group__asterics__support.html#ga0ccb0610d764a95bda989e35fba59490" target="_top" xlink:title=" ">
<polygon fill="none" stroke="black" points="342,-166 342,-185 464,-185 464,-166 342,-166"/>
<text text-anchor="middle" x="403" y="-173" font-family="Helvetica,sans-Serif" font-size="10.00">as_reg_write_masked</text>
</a>
</g>
</g>
<!-- Node2&#45;&gt;Node4 -->
<g id="edge3" class="edge">
<title>Node2&#45;&gt;Node4</title>
<path fill="none" stroke="midnightblue" d="M306.3,-164.67C314.61,-165.61 323.17,-166.58 331.59,-167.53"/>
<polygon fill="midnightblue" stroke="midnightblue" points="331.44,-171.03 341.77,-168.68 332.22,-164.08 331.44,-171.03"/>
</g>
<!-- Node5 -->
<g id="node5" class="node">
<title>Node5</title>
<g id="a_node5"><a xlink:href="group__asterics__support.html#ga8e5c2bfd2e4498d10289377bd94cef07" target="_top" xlink:title=" ">
<polygon fill="none" stroke="black" points="501.5,-166 501.5,-185 577.5,-185 577.5,-166 501.5,-166"/>
<text text-anchor="middle" x="539.5" y="-173" font-family="Helvetica,sans-Serif" font-size="10.00">as_reg_read</text>
</a>
</g>
</g>
<!-- Node4&#45;&gt;Node5 -->
<g id="edge4" class="edge">
<title>Node4&#45;&gt;Node5</title>
<path fill="none" stroke="midnightblue" d="M464.17,-175.5C473.12,-175.5 482.24,-175.5 490.88,-175.5"/>
<polygon fill="midnightblue" stroke="midnightblue" points="491.15,-179 501.15,-175.5 491.15,-172 491.15,-179"/>
</g>
<!-- Node7 -->
<g id="node7" class="node">
<title>Node7</title>
<g id="a_node7"><a xlink:href="group__asterics__support.html#ga6345b997e24a6cd5f9143cef27629d49" target="_top" xlink:title=" ">
<polygon fill="none" stroke="black" points="500,-90 500,-109 579,-109 579,-90 500,-90"/>
<text text-anchor="middle" x="539.5" y="-97" font-family="Helvetica,sans-Serif" font-size="10.00">as_reg_write</text>
</a>
</g>
</g>
<!-- Node4&#45;&gt;Node7 -->
<g id="edge6" class="edge">
<title>Node4&#45;&gt;Node7</title>
<path fill="none" stroke="midnightblue" d="M431.78,-165.91C442.13,-161.95 453.83,-156.99 464,-151.5 483.31,-141.08 503.64,-126.62 518.17,-115.6"/>
<polygon fill="midnightblue" stroke="midnightblue" points="520.63,-118.13 526.41,-109.25 516.35,-112.58 520.63,-118.13"/>
</g>
<!-- Node6 -->
<g id="node6" class="node">
<title>Node6</title>
<g id="a_node6"><a xlink:href="group__asterics__support.html#ga4c6d688b840a6e2edc9bc0b8ed961677" target="_top" xlink:title=" ">
<polygon fill="none" stroke="black" points="621.5,-166 621.5,-185 721.5,-185 721.5,-166 621.5,-166"/>
<text text-anchor="middle" x="671.5" y="-173" font-family="Helvetica,sans-Serif" font-size="10.00">as_reg_to_uint32</text>
</a>
</g>
</g>
<!-- Node5&#45;&gt;Node6 -->
<g id="edge5" class="edge">
<title>Node5&#45;&gt;Node6</title>
<path fill="none" stroke="midnightblue" d="M577.75,-175.5C588.09,-175.5 599.59,-175.5 610.86,-175.5"/>
<polygon fill="midnightblue" stroke="midnightblue" points="611.12,-179 621.12,-175.5 611.12,-172 611.12,-179"/>
</g>
<!-- Node8 -->
<g id="node8" class="node">
<title>Node8</title>
<g id="a_node8"><a xlink:href="group__asterics__support.html#gab651cc2c035ce61b354578434e59f822" target="_top" xlink:title=" ">
<polygon fill="none" stroke="black" points="615,-90 615,-109 728,-109 728,-90 615,-90"/>
<text text-anchor="middle" x="671.5" y="-97" font-family="Helvetica,sans-Serif" font-size="10.00">as_reg_from_uint32</text>
</a>
</g>
</g>
<!-- Node7&#45;&gt;Node8 -->
<g id="edge7" class="edge">
<title>Node7&#45;&gt;Node8</title>
<path fill="none" stroke="midnightblue" d="M579.15,-99.5C587.22,-99.5 595.94,-99.5 604.68,-99.5"/>
<polygon fill="midnightblue" stroke="midnightblue" points="604.92,-103 614.92,-99.5 604.92,-96 604.92,-103"/>
</g>
<!-- Node9&#45;&gt;Node3 -->
<g id="edge9" class="edge">
<title>Node9&#45;&gt;Node3</title>
<path fill="none" stroke="midnightblue" d="M301.75,-108.33C316.7,-107.01 332.71,-105.6 347.44,-104.3"/>
<polygon fill="midnightblue" stroke="midnightblue" points="347.75,-107.79 357.41,-103.43 347.14,-100.82 347.75,-107.79"/>
</g>
<!-- Node9&#45;&gt;Node7 -->
<g id="edge10" class="edge">
<title>Node9&#45;&gt;Node7</title>
<path fill="none" stroke="midnightblue" d="M301.87,-119.52C346.53,-122.96 409.36,-125.36 464,-118.5 475.36,-117.07 487.46,-114.47 498.55,-111.64"/>
<polygon fill="midnightblue" stroke="midnightblue" points="499.63,-114.97 508.38,-109 497.82,-108.21 499.63,-114.97"/>
</g>
<!-- Node10&#45;&gt;Node3 -->
<g id="edge12" class="edge">
<title>Node10&#45;&gt;Node3</title>
<path fill="none" stroke="midnightblue" d="M301.75,-77.43C316.99,-80.79 333.32,-84.38 348.29,-87.68"/>
<polygon fill="midnightblue" stroke="midnightblue" points="347.88,-91.17 358.4,-89.9 349.38,-84.33 347.88,-91.17"/>
</g>
<!-- Node10&#45;&gt;Node7 -->
<g id="edge13" class="edge">
<title>Node10&#45;&gt;Node7</title>
<path fill="none" stroke="midnightblue" d="M301.96,-65.93C346.67,-67.7 409.51,-71.65 464,-80.5 474.58,-82.22 485.86,-84.73 496.35,-87.37"/>
<polygon fill="midnightblue" stroke="midnightblue" points="495.57,-90.78 506.13,-89.91 497.33,-84 495.57,-90.78"/>
</g>
<!-- Node11&#45;&gt;Node3 -->
<g id="edge15" class="edge">
<title>Node11&#45;&gt;Node3</title>
<path fill="none" stroke="midnightblue" d="M284.12,-30.62C291.51,-33.67 299.06,-37.02 306,-40.5 332.15,-53.6 360.51,-71.53 379.57,-84.17"/>
<polygon fill="midnightblue" stroke="midnightblue" points="377.87,-87.25 388.13,-89.91 381.77,-81.43 377.87,-87.25"/>
</g>
<!-- Node11&#45;&gt;Node7 -->
<g id="edge16" class="edge">
<title>Node11&#45;&gt;Node7</title>
<path fill="none" stroke="midnightblue" d="M301.73,-24.36C346.87,-32.1 410.36,-45.01 464,-63.5 480.66,-69.24 498.46,-77.75 512.49,-85.05"/>
<polygon fill="midnightblue" stroke="midnightblue" points="511.06,-88.26 521.53,-89.87 514.35,-82.08 511.06,-88.26"/>
</g>
<!-- Node12&#45;&gt;Node3 -->
<g id="edge18" class="edge">
<title>Node12&#45;&gt;Node3</title>
<path fill="none" stroke="midnightblue" d="M282.9,-185.99C290.78,-183.42 298.82,-180.28 306,-176.5 336.66,-160.36 367,-133.77 385.12,-116.45"/>
<polygon fill="midnightblue" stroke="midnightblue" points="387.83,-118.7 392.54,-109.21 382.94,-113.69 387.83,-118.7"/>
</g>
<!-- Node12&#45;&gt;Node4 -->
<g id="edge19" class="edge">
<title>Node12&#45;&gt;Node4</title>
<path fill="none" stroke="midnightblue" d="M302.21,-188.05C311.84,-186.84 321.9,-185.58 331.76,-184.33"/>
<polygon fill="midnightblue" stroke="midnightblue" points="332.46,-187.77 341.95,-183.05 331.59,-180.83 332.46,-187.77"/>
</g>
</g>
</svg>
