<?xml version="1.0" encoding="UTF-8" standalone="no"?>
<!DOCTYPE svg PUBLIC "-//W3C//DTD SVG 1.1//EN"
 "http://www.w3.org/Graphics/SVG/1.1/DTD/svg11.dtd">
<!-- Generated by graphviz version 2.43.0 (0)
 -->
<!-- Title: ov7670_iic_reg_get Pages: 1 -->
<svg width="1679pt" height="446pt"
 viewBox="0.00 0.00 1679.00 446.13" xmlns="http://www.w3.org/2000/svg" xmlns:xlink="http://www.w3.org/1999/xlink">
<g id="graph0" class="graph" transform="scale(1 1) rotate(0) translate(4 442.13)">
<title>ov7670_iic_reg_get</title>
<!-- Node1 -->
<g id="node1" class="node">
<title>Node1</title>
<g id="a_node1"><a xlink:title=" ">
<polygon fill="#bfbfbf" stroke="black" points="0,-276.68 0,-295.68 111,-295.68 111,-276.68 0,-276.68"/>
<text text-anchor="middle" x="55.5" y="-283.68" font-family="Helvetica,sans-Serif" font-size="10.00">ov7670_iic_reg_get</text>
</a>
</g>
</g>
<!-- Node2 -->
<g id="node2" class="node">
<title>Node2</title>
<g id="a_node2"><a xlink:href="group__as__iic__user.html#ga812d9e16a61b39777a5fbffc7eccbc8d" target="_top" xlink:title=" ">
<polygon fill="none" stroke="black" points="147,-276.68 147,-295.68 239,-295.68 239,-276.68 147,-276.68"/>
<text text-anchor="middle" x="193" y="-283.68" font-family="Helvetica,sans-Serif" font-size="10.00">as_iic_read_reg</text>
</a>
</g>
</g>
<!-- Node1&#45;&gt;Node2 -->
<g id="edge1" class="edge">
<title>Node1&#45;&gt;Node2</title>
<path fill="none" stroke="midnightblue" d="M111.22,-286.18C119.58,-286.18 128.21,-286.18 136.58,-286.18"/>
<polygon fill="midnightblue" stroke="midnightblue" points="136.62,-289.68 146.62,-286.18 136.62,-282.68 136.62,-289.68"/>
</g>
<!-- Node3 -->
<g id="node3" class="node">
<title>Node3</title>
<g id="a_node3"><a xlink:href="group__as__iic__user.html#gacf3e3b915e1f15ed8bdc60ab4c129996" target="_top" xlink:title=" ">
<polygon fill="none" stroke="black" points="279.5,-238.68 279.5,-257.68 371.5,-257.68 371.5,-238.68 279.5,-238.68"/>
<text text-anchor="middle" x="325.5" y="-245.68" font-family="Helvetica,sans-Serif" font-size="10.00">as_iic_get_byte</text>
</a>
</g>
</g>
<!-- Node2&#45;&gt;Node3 -->
<g id="edge2" class="edge">
<title>Node2&#45;&gt;Node3</title>
<path fill="none" stroke="midnightblue" d="M226.93,-276.59C243.62,-271.73 264.09,-265.77 281.96,-260.56"/>
<polygon fill="midnightblue" stroke="midnightblue" points="282.96,-263.92 291.58,-257.76 281,-257.2 282.96,-263.92"/>
</g>
<!-- Node12 -->
<g id="node12" class="node">
<title>Node12</title>
<g id="a_node12"><a xlink:href="group__asterics__support.html#gab803703ab5b845023ca31b7b2664419c" target="_top" xlink:title=" ">
<polygon fill="none" stroke="black" points="1145,-311.68 1145,-330.68 1204,-330.68 1204,-311.68 1145,-311.68"/>
<text text-anchor="middle" x="1174.5" y="-318.68" font-family="Helvetica,sans-Serif" font-size="10.00">as_sleep</text>
</a>
</g>
</g>
<!-- Node2&#45;&gt;Node12 -->
<g id="edge47" class="edge">
<title>Node2&#45;&gt;Node12</title>
<path fill="none" stroke="midnightblue" d="M204.3,-295.8C239.26,-327.43 357.82,-426.18 475,-426.18 475,-426.18 475,-426.18 825.5,-426.18 941.14,-426.18 983.53,-462.64 1085,-407.18 1108.4,-394.39 1101.98,-377.87 1121,-359.18 1129.51,-350.81 1139.99,-342.85 1149.33,-336.4"/>
<polygon fill="midnightblue" stroke="midnightblue" points="1151.48,-339.18 1157.85,-330.71 1147.59,-333.35 1151.48,-339.18"/>
</g>
<!-- Node27 -->
<g id="node27" class="node">
<title>Node27</title>
<g id="a_node27"><a xlink:href="group__as__iic__user.html#ga35cd65c29b1f4abd1ca87ca51605e5cc" target="_top" xlink:title=" ">
<polygon fill="none" stroke="black" points="275,-276.68 275,-295.68 376,-295.68 376,-276.68 275,-276.68"/>
<text text-anchor="middle" x="325.5" y="-283.68" font-family="Helvetica,sans-Serif" font-size="10.00">as_iic_write_byte</text>
</a>
</g>
</g>
<!-- Node2&#45;&gt;Node27 -->
<g id="edge43" class="edge">
<title>Node2&#45;&gt;Node27</title>
<path fill="none" stroke="midnightblue" d="M239.28,-286.18C247.44,-286.18 256.07,-286.18 264.57,-286.18"/>
<polygon fill="midnightblue" stroke="midnightblue" points="264.85,-289.68 274.85,-286.18 264.85,-282.68 264.85,-289.68"/>
</g>
<!-- Node4 -->
<g id="node4" class="node">
<title>Node4</title>
<g id="a_node4"><a xlink:href="group__as__iic__user.html#ga30385c0c387c1629188745edf9c824c1" target="_top" xlink:title=" ">
<polygon fill="none" stroke="black" points="416.5,-219.68 416.5,-238.68 535.5,-238.68 535.5,-219.68 416.5,-219.68"/>
<text text-anchor="middle" x="476" y="-226.68" font-family="Helvetica,sans-Serif" font-size="10.00">as_iic_get_byte_mod</text>
</a>
</g>
</g>
<!-- Node3&#45;&gt;Node4 -->
<g id="edge3" class="edge">
<title>Node3&#45;&gt;Node4</title>
<path fill="none" stroke="midnightblue" d="M371.86,-242.37C382.75,-240.98 394.61,-239.46 406.3,-237.97"/>
<polygon fill="midnightblue" stroke="midnightblue" points="407.01,-241.41 416.49,-236.66 406.12,-234.46 407.01,-241.41"/>
</g>
<!-- Node5 -->
<g id="node5" class="node">
<title>Node5</title>
<g id="a_node5"><a xlink:href="group__as__iic__helpers.html#ga53e6050a2c66be89ac23084fd9de9c23" target="_top" xlink:title=" ">
<polygon fill="none" stroke="black" points="576,-219.68 576,-238.68 708,-238.68 708,-219.68 576,-219.68"/>
<text text-anchor="middle" x="642" y="-226.68" font-family="Helvetica,sans-Serif" font-size="10.00">as_iic_start_transaction</text>
</a>
</g>
</g>
<!-- Node4&#45;&gt;Node5 -->
<g id="edge4" class="edge">
<title>Node4&#45;&gt;Node5</title>
<path fill="none" stroke="midnightblue" d="M535.74,-229.18C545.53,-229.18 555.8,-229.18 565.93,-229.18"/>
<polygon fill="midnightblue" stroke="midnightblue" points="565.99,-232.68 575.99,-229.18 565.99,-225.68 565.99,-232.68"/>
</g>
<!-- Node25 -->
<g id="node25" class="node">
<title>Node25</title>
<g id="a_node25"><a xlink:href="group__as__iic__helpers.html#gaa8ce9ac10b8c2ca9b614110ca5cbeff5" target="_top" xlink:title=" ">
<polygon fill="none" stroke="black" points="745.5,-62.68 745.5,-81.68 903.5,-81.68 903.5,-62.68 745.5,-62.68"/>
<text text-anchor="middle" x="824.5" y="-69.68" font-family="Helvetica,sans-Serif" font-size="10.00">as_iic_stop_read_transaction</text>
</a>
</g>
</g>
<!-- Node4&#45;&gt;Node25 -->
<g id="edge36" class="edge">
<title>Node4&#45;&gt;Node25</title>
<path fill="none" stroke="midnightblue" d="M493.72,-219.59C535.1,-196.16 646.04,-135.04 744,-96.18 754.57,-91.98 766.17,-88.1 777.16,-84.73"/>
<polygon fill="midnightblue" stroke="midnightblue" points="778.46,-87.99 787.04,-81.78 776.46,-81.28 778.46,-87.99"/>
</g>
<!-- Node6 -->
<g id="node6" class="node">
<title>Node6</title>
<g id="a_node6"><a xlink:href="group__as__iic__bitchecks.html#gaa4e8718c748b5a7e956a38ffd6dbe15d" target="_top" xlink:title=" ">
<polygon fill="none" stroke="black" points="956,-340.68 956,-359.68 1070,-359.68 1070,-340.68 956,-340.68"/>
<text text-anchor="middle" x="1013" y="-347.68" font-family="Helvetica,sans-Serif" font-size="10.00">as_iic_ack_received</text>
</a>
</g>
</g>
<!-- Node5&#45;&gt;Node6 -->
<g id="edge5" class="edge">
<title>Node5&#45;&gt;Node6</title>
<path fill="none" stroke="midnightblue" d="M650.35,-238.88C665.48,-258.03 702.21,-300.44 744,-319.18 808.27,-348 889.52,-353.65 945.62,-353.42"/>
<polygon fill="midnightblue" stroke="midnightblue" points="945.83,-356.92 955.79,-353.31 945.75,-349.92 945.83,-356.92"/>
</g>
<!-- Node10 -->
<g id="node10" class="node">
<title>Node10</title>
<g id="a_node10"><a xlink:href="group__as__iic__wait.html#gad3cfec26b8a73166e060108cf1444a2b" target="_top" xlink:title=" ">
<polygon fill="none" stroke="black" points="954,-253.18 954,-283.18 1072,-283.18 1072,-253.18 954,-253.18"/>
<text text-anchor="start" x="962" y="-271.18" font-family="Helvetica,sans-Serif" font-size="10.00">as_iic_busy_wait_for</text>
<text text-anchor="middle" x="1013" y="-260.18" font-family="Helvetica,sans-Serif" font-size="10.00">_hwready</text>
</a>
</g>
</g>
<!-- Node5&#45;&gt;Node10 -->
<g id="edge9" class="edge">
<title>Node5&#45;&gt;Node10</title>
<path fill="none" stroke="midnightblue" d="M708.12,-236.06C774.34,-243.06 876.52,-253.86 943.83,-260.97"/>
<polygon fill="midnightblue" stroke="midnightblue" points="943.59,-264.47 953.91,-262.04 944.33,-257.51 943.59,-264.47"/>
</g>
<!-- Node11 -->
<g id="node11" class="node">
<title>Node11</title>
<g id="a_node11"><a xlink:href="group__as__iic__user.html#gacdb0c71d0fcfe5e50a7f7316762cd0c0" target="_top" xlink:title=" ">
<polygon fill="none" stroke="black" points="1129,-235.68 1129,-254.68 1220,-254.68 1220,-235.68 1129,-235.68"/>
<text text-anchor="middle" x="1174.5" y="-242.68" font-family="Helvetica,sans-Serif" font-size="10.00">as_iic_is_ready</text>
</a>
</g>
</g>
<!-- Node5&#45;&gt;Node11 -->
<g id="edge21" class="edge">
<title>Node5&#45;&gt;Node11</title>
<path fill="none" stroke="midnightblue" d="M708.05,-231.14C813.6,-234.32 1020.27,-240.56 1118.77,-243.53"/>
<polygon fill="midnightblue" stroke="midnightblue" points="1118.71,-247.03 1128.81,-243.83 1118.92,-240.03 1118.71,-247.03"/>
</g>
<!-- Node16 -->
<g id="node16" class="node">
<title>Node16</title>
<g id="a_node16"><a xlink:href="group__as__iic__wait.html#ga0bc5aad64893b674c42943fb64d17676" target="_top" xlink:title=" ">
<polygon fill="none" stroke="black" points="941,-378.68 941,-397.68 1085,-397.68 1085,-378.68 941,-378.68"/>
<text text-anchor="middle" x="1013" y="-385.68" font-family="Helvetica,sans-Serif" font-size="10.00">as_iic_busy_wait_for_wait</text>
</a>
</g>
</g>
<!-- Node5&#45;&gt;Node16 -->
<g id="edge16" class="edge">
<title>Node5&#45;&gt;Node16</title>
<path fill="none" stroke="midnightblue" d="M647.98,-239.02C660.49,-262.59 695.7,-322.3 744,-349.18 800.95,-380.87 874.81,-389.68 930.56,-391.09"/>
<polygon fill="midnightblue" stroke="midnightblue" points="930.69,-394.59 940.75,-391.27 930.82,-387.59 930.69,-394.59"/>
</g>
<!-- Node18 -->
<g id="node18" class="node">
<title>Node18</title>
<g id="a_node18"><a xlink:href="group__as__iic__bitchecks.html#gad90ab4c2ed7fbca8f768c87cdb5794ee" target="_top" xlink:title=" ">
<polygon fill="none" stroke="black" points="769,-138.68 769,-157.68 880,-157.68 880,-138.68 769,-138.68"/>
<text text-anchor="middle" x="824.5" y="-145.68" font-family="Helvetica,sans-Serif" font-size="10.00">as_iic_is_initialized</text>
</a>
</g>
</g>
<!-- Node5&#45;&gt;Node18 -->
<g id="edge20" class="edge">
<title>Node5&#45;&gt;Node18</title>
<path fill="none" stroke="midnightblue" d="M657.53,-219.61C676.7,-207.32 711.78,-185.93 744,-172.18 754.15,-167.84 765.34,-163.96 776.04,-160.63"/>
<polygon fill="midnightblue" stroke="midnightblue" points="777.11,-163.97 785.69,-157.75 775.1,-157.26 777.11,-163.97"/>
</g>
<!-- Node19 -->
<g id="node19" class="node">
<title>Node19</title>
<g id="a_node19"><a xlink:href="group__as__iic__user.html#gae03c311fae3d6a830878a2b0c2c1c2bf" target="_top" xlink:title=" ">
<polygon fill="none" stroke="black" points="951,-100.68 951,-119.68 1075,-119.68 1075,-100.68 951,-100.68"/>
<text text-anchor="middle" x="1013" y="-107.68" font-family="Helvetica,sans-Serif" font-size="10.00">as_iic_reset_hw_state</text>
</a>
</g>
</g>
<!-- Node5&#45;&gt;Node19 -->
<g id="edge22" class="edge">
<title>Node5&#45;&gt;Node19</title>
<path fill="none" stroke="midnightblue" d="M649.14,-219.53C663.05,-198.63 699.28,-149.45 744,-129.18 806.09,-101.03 884.64,-98.83 940.61,-102.12"/>
<polygon fill="midnightblue" stroke="midnightblue" points="940.58,-105.63 950.79,-102.8 941.04,-98.64 940.58,-105.63"/>
</g>
<!-- Node20 -->
<g id="node20" class="node">
<title>Node20</title>
<g id="a_node20"><a xlink:href="group__as__iic__reg__funcs.html#gac83a48fc09234a7a99adafb1ce565eb0" target="_top" xlink:title=" ">
<polygon fill="none" stroke="black" points="1122.5,-100.68 1122.5,-119.68 1226.5,-119.68 1226.5,-100.68 1122.5,-100.68"/>
<text text-anchor="middle" x="1174.5" y="-107.68" font-family="Helvetica,sans-Serif" font-size="10.00">as_iic_set_control</text>
</a>
</g>
</g>
<!-- Node5&#45;&gt;Node20 -->
<g id="edge26" class="edge">
<title>Node5&#45;&gt;Node20</title>
<path fill="none" stroke="midnightblue" d="M645.18,-219.27C652.59,-188.2 680.04,-92.42 744,-53.18 873.24,26.11 941.27,5.09 1085,-43.18 1114.2,-52.98 1141.44,-76.67 1157.78,-93.07"/>
<polygon fill="midnightblue" stroke="midnightblue" points="1155.43,-95.68 1164.89,-100.45 1160.47,-90.82 1155.43,-95.68"/>
</g>
<!-- Node23 -->
<g id="node23" class="node">
<title>Node23</title>
<g id="a_node23"><a xlink:href="group__as__iic__reg__funcs.html#ga8058473baeded71954aa72ee8df24e9b" target="_top" xlink:title=" ">
<polygon fill="none" stroke="black" points="1121,-138.68 1121,-157.68 1228,-157.68 1228,-138.68 1121,-138.68"/>
<text text-anchor="middle" x="1174.5" y="-145.68" font-family="Helvetica,sans-Serif" font-size="10.00">as_iic_set_data_tx</text>
</a>
</g>
</g>
<!-- Node5&#45;&gt;Node23 -->
<g id="edge27" class="edge">
<title>Node5&#45;&gt;Node23</title>
<path fill="none" stroke="midnightblue" d="M705.42,-219.65C807.36,-204.08 1008.47,-173.38 1110.68,-157.77"/>
<polygon fill="midnightblue" stroke="midnightblue" points="1111.49,-161.19 1120.85,-156.22 1110.44,-154.27 1111.49,-161.19"/>
</g>
<!-- Node24 -->
<g id="node24" class="node">
<title>Node24</title>
<g id="a_node24"><a xlink:href="group__as__iic__helpers.html#ga67cc002a1b20c75dc26f7b328ca5ddc9" target="_top" xlink:title=" ">
<polygon fill="none" stroke="black" points="744,-290.68 744,-309.68 905,-309.68 905,-290.68 744,-290.68"/>
<text text-anchor="middle" x="824.5" y="-297.68" font-family="Helvetica,sans-Serif" font-size="10.00">as_iic_stop_write_transaction</text>
</a>
</g>
</g>
<!-- Node5&#45;&gt;Node24 -->
<g id="edge30" class="edge">
<title>Node5&#45;&gt;Node24</title>
<path fill="none" stroke="midnightblue" d="M661.64,-238.83C681.65,-248.96 714.54,-264.94 744,-276.18 754.94,-280.35 766.94,-284.29 778.22,-287.73"/>
<polygon fill="midnightblue" stroke="midnightblue" points="777.33,-291.11 787.91,-290.61 779.33,-284.4 777.33,-291.11"/>
</g>
<!-- Node7 -->
<g id="node7" class="node">
<title>Node7</title>
<g id="a_node7"><a xlink:href="group__as__iic__reg__funcs.html#ga8daa8fde0a7776aa2f5b335250b5aa2a" target="_top" xlink:title=" ">
<polygon fill="none" stroke="black" points="1264,-254.68 1264,-273.68 1386,-273.68 1386,-254.68 1264,-254.68"/>
<text text-anchor="middle" x="1325" y="-261.68" font-family="Helvetica,sans-Serif" font-size="10.00">as_iic_get_status_reg</text>
</a>
</g>
</g>
<!-- Node6&#45;&gt;Node7 -->
<g id="edge6" class="edge">
<title>Node6&#45;&gt;Node7</title>
<path fill="none" stroke="midnightblue" d="M1032.04,-340.49C1052.9,-329.67 1088.55,-312.33 1121,-302.18 1164.12,-288.68 1213.99,-279.26 1253.5,-273.18"/>
<polygon fill="midnightblue" stroke="midnightblue" points="1254.21,-276.61 1263.58,-271.66 1253.17,-269.69 1254.21,-276.61"/>
</g>
<!-- Node8 -->
<g id="node8" class="node">
<title>Node8</title>
<g id="a_node8"><a xlink:href="group__asterics__support.html#ga8e5c2bfd2e4498d10289377bd94cef07" target="_top" xlink:title=" ">
<polygon fill="none" stroke="black" points="1440.5,-138.68 1440.5,-157.68 1516.5,-157.68 1516.5,-138.68 1440.5,-138.68"/>
<text text-anchor="middle" x="1478.5" y="-145.68" font-family="Helvetica,sans-Serif" font-size="10.00">as_reg_read</text>
</a>
</g>
</g>
<!-- Node7&#45;&gt;Node8 -->
<g id="edge7" class="edge">
<title>Node7&#45;&gt;Node8</title>
<path fill="none" stroke="midnightblue" d="M1338.66,-254.49C1364.79,-234.48 1424.93,-188.43 1456.8,-164.03"/>
<polygon fill="midnightblue" stroke="midnightblue" points="1459.17,-166.62 1464.99,-157.76 1454.92,-161.06 1459.17,-166.62"/>
</g>
<!-- Node9 -->
<g id="node9" class="node">
<title>Node9</title>
<g id="a_node9"><a xlink:href="group__asterics__support.html#ga4c6d688b840a6e2edc9bc0b8ed961677" target="_top" xlink:title=" ">
<polygon fill="none" stroke="black" points="1571,-138.68 1571,-157.68 1671,-157.68 1671,-138.68 1571,-138.68"/>
<text text-anchor="middle" x="1621" y="-145.68" font-family="Helvetica,sans-Serif" font-size="10.00">as_reg_to_uint32</text>
</a>
</g>
</g>
<!-- Node8&#45;&gt;Node9 -->
<g id="edge8" class="edge">
<title>Node8&#45;&gt;Node9</title>
<path fill="none" stroke="midnightblue" d="M1516.78,-148.18C1530.26,-148.18 1545.83,-148.18 1560.72,-148.18"/>
<polygon fill="midnightblue" stroke="midnightblue" points="1560.89,-151.68 1570.89,-148.18 1560.89,-144.68 1560.89,-151.68"/>
</g>
<!-- Node10&#45;&gt;Node11 -->
<g id="edge10" class="edge">
<title>Node10&#45;&gt;Node11</title>
<path fill="none" stroke="midnightblue" d="M1072.03,-259.81C1087.23,-257.62 1103.57,-255.26 1118.6,-253.09"/>
<polygon fill="midnightblue" stroke="midnightblue" points="1119.37,-256.52 1128.76,-251.63 1118.37,-249.59 1119.37,-256.52"/>
</g>
<!-- Node10&#45;&gt;Node12 -->
<g id="edge12" class="edge">
<title>Node10&#45;&gt;Node12</title>
<path fill="none" stroke="midnightblue" d="M1059.28,-283.22C1083.19,-291.17 1112.21,-300.81 1135.02,-308.39"/>
<polygon fill="midnightblue" stroke="midnightblue" points="1134.11,-311.78 1144.7,-311.61 1136.32,-305.13 1134.11,-311.78"/>
</g>
<!-- Node11&#45;&gt;Node7 -->
<g id="edge11" class="edge">
<title>Node11&#45;&gt;Node7</title>
<path fill="none" stroke="midnightblue" d="M1220.05,-250.88C1230.69,-252.24 1242.31,-253.72 1253.79,-255.19"/>
<polygon fill="midnightblue" stroke="midnightblue" points="1253.46,-258.68 1263.82,-256.48 1254.34,-251.74 1253.46,-258.68"/>
</g>
<!-- Node13 -->
<g id="node13" class="node">
<title>Node13</title>
<g id="a_node13"><a xlink:href="group__asterics__support.html#ga284d9e0d170cf7cabc16ccd7e62d95bd" target="_top" xlink:title=" ">
<polygon fill="none" stroke="black" points="1296.5,-311.68 1296.5,-330.68 1353.5,-330.68 1353.5,-311.68 1296.5,-311.68"/>
<text text-anchor="middle" x="1325" y="-318.68" font-family="Helvetica,sans-Serif" font-size="10.00">as_yield</text>
</a>
</g>
</g>
<!-- Node12&#45;&gt;Node13 -->
<g id="edge13" class="edge">
<title>Node12&#45;&gt;Node13</title>
<path fill="none" stroke="midnightblue" d="M1204.13,-321.18C1227.54,-321.18 1260.82,-321.18 1286.38,-321.18"/>
<polygon fill="midnightblue" stroke="midnightblue" points="1286.46,-324.68 1296.46,-321.18 1286.46,-317.68 1286.46,-324.68"/>
</g>
<!-- Node14 -->
<g id="node14" class="node">
<title>Node14</title>
<g id="a_node14"><a xlink:href="group__asterics__support.html#gad294e0c5530bd6fb800a2394179070e1" target="_top" xlink:title=" ">
<polygon fill="none" stroke="black" points="1433.5,-330.68 1433.5,-349.68 1523.5,-349.68 1523.5,-330.68 1433.5,-330.68"/>
<text text-anchor="middle" x="1478.5" y="-337.68" font-family="Helvetica,sans-Serif" font-size="10.00">as_mutex_lock</text>
</a>
</g>
</g>
<!-- Node13&#45;&gt;Node14 -->
<g id="edge14" class="edge">
<title>Node13&#45;&gt;Node14</title>
<path fill="none" stroke="midnightblue" d="M1353.79,-324.66C1373.13,-327.09 1399.57,-330.4 1423.04,-333.35"/>
<polygon fill="midnightblue" stroke="midnightblue" points="1422.88,-336.85 1433.23,-334.63 1423.75,-329.91 1422.88,-336.85"/>
</g>
<!-- Node15 -->
<g id="node15" class="node">
<title>Node15</title>
<g id="a_node15"><a xlink:href="group__asterics__support.html#ga07e09e825f2608339f6213edb9d0c8b3" target="_top" xlink:title=" ">
<polygon fill="none" stroke="black" points="1427.5,-292.68 1427.5,-311.68 1529.5,-311.68 1529.5,-292.68 1427.5,-292.68"/>
<text text-anchor="middle" x="1478.5" y="-299.68" font-family="Helvetica,sans-Serif" font-size="10.00">as_mutex_unlock</text>
</a>
</g>
</g>
<!-- Node13&#45;&gt;Node15 -->
<g id="edge15" class="edge">
<title>Node13&#45;&gt;Node15</title>
<path fill="none" stroke="midnightblue" d="M1353.79,-317.69C1371.57,-315.46 1395.33,-312.48 1417.28,-309.73"/>
<polygon fill="midnightblue" stroke="midnightblue" points="1417.72,-313.2 1427.21,-308.48 1416.85,-306.26 1417.72,-313.2"/>
</g>
<!-- Node16&#45;&gt;Node12 -->
<g id="edge19" class="edge">
<title>Node16&#45;&gt;Node12</title>
<path fill="none" stroke="midnightblue" d="M1056.21,-378.64C1065.81,-375.98 1075.87,-372.81 1085,-369.18 1107.74,-360.11 1132.09,-346.6 1149.48,-336.22"/>
<polygon fill="midnightblue" stroke="midnightblue" points="1151.64,-339 1158.37,-330.82 1148.01,-333.02 1151.64,-339"/>
</g>
<!-- Node17 -->
<g id="node17" class="node">
<title>Node17</title>
<g id="a_node17"><a xlink:href="group__as__iic__bitchecks.html#ga4629e4514c3531d0bcd44ae20abc6bad" target="_top" xlink:title=" ">
<polygon fill="none" stroke="black" points="1125,-368.68 1125,-387.68 1224,-387.68 1224,-368.68 1125,-368.68"/>
<text text-anchor="middle" x="1174.5" y="-375.68" font-family="Helvetica,sans-Serif" font-size="10.00">as_iic_is_waiting</text>
</a>
</g>
</g>
<!-- Node16&#45;&gt;Node17 -->
<g id="edge17" class="edge">
<title>Node16&#45;&gt;Node17</title>
<path fill="none" stroke="midnightblue" d="M1085.35,-383.7C1095.1,-383.09 1105.01,-382.47 1114.51,-381.88"/>
<polygon fill="midnightblue" stroke="midnightblue" points="1114.85,-385.36 1124.62,-381.24 1114.42,-378.37 1114.85,-385.36"/>
</g>
<!-- Node17&#45;&gt;Node7 -->
<g id="edge18" class="edge">
<title>Node17&#45;&gt;Node7</title>
<path fill="none" stroke="midnightblue" d="M1190.31,-368.55C1201.14,-361.25 1215.98,-350.71 1228,-340.18 1245.5,-324.85 1246.04,-316.96 1264,-302.18 1274.41,-293.61 1286.88,-285.43 1297.75,-278.86"/>
<polygon fill="midnightblue" stroke="midnightblue" points="1299.58,-281.85 1306.42,-273.76 1296.02,-275.82 1299.58,-281.85"/>
</g>
<!-- Node19&#45;&gt;Node20 -->
<g id="edge23" class="edge">
<title>Node19&#45;&gt;Node20</title>
<path fill="none" stroke="midnightblue" d="M1075.21,-110.18C1087.36,-110.18 1100.11,-110.18 1112.26,-110.18"/>
<polygon fill="midnightblue" stroke="midnightblue" points="1112.3,-113.68 1122.3,-110.18 1112.3,-106.68 1112.3,-113.68"/>
</g>
<!-- Node21 -->
<g id="node21" class="node">
<title>Node21</title>
<g id="a_node21"><a xlink:href="group__asterics__support.html#ga6345b997e24a6cd5f9143cef27629d49" target="_top" xlink:title=" ">
<polygon fill="none" stroke="black" points="1285.5,-100.68 1285.5,-119.68 1364.5,-119.68 1364.5,-100.68 1285.5,-100.68"/>
<text text-anchor="middle" x="1325" y="-107.68" font-family="Helvetica,sans-Serif" font-size="10.00">as_reg_write</text>
</a>
</g>
</g>
<!-- Node20&#45;&gt;Node21 -->
<g id="edge24" class="edge">
<title>Node20&#45;&gt;Node21</title>
<path fill="none" stroke="midnightblue" d="M1226.61,-110.18C1242.28,-110.18 1259.49,-110.18 1275.02,-110.18"/>
<polygon fill="midnightblue" stroke="midnightblue" points="1275.47,-113.68 1285.47,-110.18 1275.47,-106.68 1275.47,-113.68"/>
</g>
<!-- Node22 -->
<g id="node22" class="node">
<title>Node22</title>
<g id="a_node22"><a xlink:href="group__asterics__support.html#gab651cc2c035ce61b354578434e59f822" target="_top" xlink:title=" ">
<polygon fill="none" stroke="black" points="1422,-100.68 1422,-119.68 1535,-119.68 1535,-100.68 1422,-100.68"/>
<text text-anchor="middle" x="1478.5" y="-107.68" font-family="Helvetica,sans-Serif" font-size="10.00">as_reg_from_uint32</text>
</a>
</g>
</g>
<!-- Node21&#45;&gt;Node22 -->
<g id="edge25" class="edge">
<title>Node21&#45;&gt;Node22</title>
<path fill="none" stroke="midnightblue" d="M1364.62,-110.18C1378.86,-110.18 1395.43,-110.18 1411.41,-110.18"/>
<polygon fill="midnightblue" stroke="midnightblue" points="1411.79,-113.68 1421.79,-110.18 1411.79,-106.68 1411.79,-113.68"/>
</g>
<!-- Node23&#45;&gt;Node8 -->
<g id="edge28" class="edge">
<title>Node23&#45;&gt;Node8</title>
<path fill="none" stroke="midnightblue" d="M1228.1,-148.18C1285.1,-148.18 1375.22,-148.18 1430.1,-148.18"/>
<polygon fill="midnightblue" stroke="midnightblue" points="1430.25,-151.68 1440.25,-148.18 1430.25,-144.68 1430.25,-151.68"/>
</g>
<!-- Node23&#45;&gt;Node21 -->
<g id="edge29" class="edge">
<title>Node23&#45;&gt;Node21</title>
<path fill="none" stroke="midnightblue" d="M1212.97,-138.59C1232.39,-133.62 1256.3,-127.5 1276.95,-122.22"/>
<polygon fill="midnightblue" stroke="midnightblue" points="1277.98,-125.57 1286.8,-119.7 1276.24,-118.79 1277.98,-125.57"/>
</g>
<!-- Node24&#45;&gt;Node6 -->
<g id="edge31" class="edge">
<title>Node24&#45;&gt;Node6</title>
<path fill="none" stroke="midnightblue" d="M861.02,-309.7C891,-317.74 934.1,-329.29 966.58,-338"/>
<polygon fill="midnightblue" stroke="midnightblue" points="965.73,-341.4 976.3,-340.61 967.54,-334.64 965.73,-341.4"/>
</g>
<!-- Node24&#45;&gt;Node10 -->
<g id="edge32" class="edge">
<title>Node24&#45;&gt;Node10</title>
<path fill="none" stroke="midnightblue" d="M880.95,-290.66C900.7,-287.27 923.17,-283.42 943.85,-279.87"/>
<polygon fill="midnightblue" stroke="midnightblue" points="944.58,-283.3 953.85,-278.16 943.4,-276.4 944.58,-283.3"/>
</g>
<!-- Node24&#45;&gt;Node12 -->
<g id="edge35" class="edge">
<title>Node24&#45;&gt;Node12</title>
<path fill="none" stroke="midnightblue" d="M905.34,-305C977.16,-309.33 1079.62,-315.51 1134.78,-318.84"/>
<polygon fill="midnightblue" stroke="midnightblue" points="1134.64,-322.34 1144.83,-319.45 1135.06,-315.35 1134.64,-322.34"/>
</g>
<!-- Node24&#45;&gt;Node19 -->
<g id="edge33" class="edge">
<title>Node24&#45;&gt;Node19</title>
<path fill="none" stroke="midnightblue" d="M833.54,-290.51C851.83,-268.67 898.33,-214.16 941,-172.18 957.58,-155.87 977.63,-138.56 992.19,-126.39"/>
<polygon fill="midnightblue" stroke="midnightblue" points="994.6,-128.94 1000.06,-119.86 990.13,-123.55 994.6,-128.94"/>
</g>
<!-- Node24&#45;&gt;Node20 -->
<g id="edge34" class="edge">
<title>Node24&#45;&gt;Node20</title>
<path fill="none" stroke="midnightblue" d="M840.07,-290.49C882.21,-262.75 1008.44,-181.61 1121,-129.18 1125.38,-127.14 1130.05,-125.17 1134.72,-123.32"/>
<polygon fill="midnightblue" stroke="midnightblue" points="1136.13,-126.54 1144.24,-119.73 1133.65,-119.99 1136.13,-126.54"/>
</g>
<!-- Node25&#45;&gt;Node10 -->
<g id="edge37" class="edge">
<title>Node25&#45;&gt;Node10</title>
<path fill="none" stroke="midnightblue" d="M841.78,-81.86C858.64,-92.31 885.22,-110.06 905,-129.18 942.34,-165.27 977.42,-214.96 996.67,-244.12"/>
<polygon fill="midnightblue" stroke="midnightblue" points="993.96,-246.36 1002.35,-252.82 999.82,-242.53 993.96,-246.36"/>
</g>
<!-- Node25&#45;&gt;Node12 -->
<g id="edge42" class="edge">
<title>Node25&#45;&gt;Node12</title>
<path fill="none" stroke="midnightblue" d="M903.8,-67.91C970.24,-66.04 1058.84,-68.26 1085,-91.18 1144.08,-142.93 1085.1,-194.33 1121,-264.18 1129.02,-279.78 1142.48,-294.27 1153.77,-304.74"/>
<polygon fill="midnightblue" stroke="midnightblue" points="1151.69,-307.58 1161.49,-311.61 1156.35,-302.35 1151.69,-307.58"/>
</g>
<!-- Node25&#45;&gt;Node19 -->
<g id="edge40" class="edge">
<title>Node25&#45;&gt;Node19</title>
<path fill="none" stroke="midnightblue" d="M872.56,-81.77C897.73,-86.89 928.9,-93.24 955.38,-98.64"/>
<polygon fill="midnightblue" stroke="midnightblue" points="954.78,-102.09 965.28,-100.66 956.18,-95.23 954.78,-102.09"/>
</g>
<!-- Node25&#45;&gt;Node20 -->
<g id="edge41" class="edge">
<title>Node25&#45;&gt;Node20</title>
<path fill="none" stroke="midnightblue" d="M864.12,-62.63C915.52,-51.6 1008.81,-37.45 1085,-58.18 1110.77,-65.19 1136.7,-81.81 1153.77,-94.39"/>
<polygon fill="midnightblue" stroke="midnightblue" points="1151.76,-97.26 1161.84,-100.53 1156,-91.69 1151.76,-97.26"/>
</g>
<!-- Node26 -->
<g id="node26" class="node">
<title>Node26</title>
<g id="a_node26"><a xlink:href="group__as__iic__reg__funcs.html#gace5813084165559c81fe11db6b628b5e" target="_top" xlink:title=" ">
<polygon fill="none" stroke="black" points="1271.5,-5.68 1271.5,-24.68 1378.5,-24.68 1378.5,-5.68 1271.5,-5.68"/>
<text text-anchor="middle" x="1325" y="-12.68" font-family="Helvetica,sans-Serif" font-size="10.00">as_iic_get_rx_byte</text>
</a>
</g>
</g>
<!-- Node25&#45;&gt;Node26 -->
<g id="edge38" class="edge">
<title>Node25&#45;&gt;Node26</title>
<path fill="none" stroke="midnightblue" d="M857.55,-62.54C880.56,-56.02 912.42,-47.77 941,-43.18 1052.75,-25.2 1184.71,-18.75 1260.94,-16.45"/>
<polygon fill="midnightblue" stroke="midnightblue" points="1261.42,-19.94 1271.32,-16.15 1261.22,-12.94 1261.42,-19.94"/>
</g>
<!-- Node26&#45;&gt;Node8 -->
<g id="edge39" class="edge">
<title>Node26&#45;&gt;Node8</title>
<path fill="none" stroke="midnightblue" d="M1333.69,-24.9C1354.46,-51.07 1410.9,-121.58 1422,-129.18 1424.86,-131.14 1427.94,-132.91 1431.13,-134.51"/>
<polygon fill="midnightblue" stroke="midnightblue" points="1429.77,-137.74 1440.33,-138.59 1432.61,-131.34 1429.77,-137.74"/>
</g>
<!-- Node28 -->
<g id="node28" class="node">
<title>Node28</title>
<g id="a_node28"><a xlink:href="group__as__iic__user.html#ga08fcff0dba9d6b4898291746d2206408" target="_top" xlink:title=" ">
<polygon fill="none" stroke="black" points="412,-276.68 412,-295.68 540,-295.68 540,-276.68 412,-276.68"/>
<text text-anchor="middle" x="476" y="-283.68" font-family="Helvetica,sans-Serif" font-size="10.00">as_iic_write_byte_mod</text>
</a>
</g>
</g>
<!-- Node27&#45;&gt;Node28 -->
<g id="edge44" class="edge">
<title>Node27&#45;&gt;Node28</title>
<path fill="none" stroke="midnightblue" d="M376.36,-286.18C384.54,-286.18 393.16,-286.18 401.76,-286.18"/>
<polygon fill="midnightblue" stroke="midnightblue" points="401.82,-289.68 411.82,-286.18 401.82,-282.68 401.82,-289.68"/>
</g>
<!-- Node28&#45;&gt;Node5 -->
<g id="edge45" class="edge">
<title>Node28&#45;&gt;Node5</title>
<path fill="none" stroke="midnightblue" d="M504.45,-276.64C531.65,-267.18 573.5,-252.64 603.7,-242.14"/>
<polygon fill="midnightblue" stroke="midnightblue" points="605.16,-245.34 613.46,-238.75 602.87,-238.73 605.16,-245.34"/>
</g>
<!-- Node28&#45;&gt;Node24 -->
<g id="edge46" class="edge">
<title>Node28&#45;&gt;Node24</title>
<path fill="none" stroke="midnightblue" d="M540.15,-288.73C594.22,-290.91 672.71,-294.08 733.38,-296.54"/>
<polygon fill="midnightblue" stroke="midnightblue" points="733.58,-300.05 743.72,-296.95 733.87,-293.05 733.58,-300.05"/>
</g>
</g>
</svg>
