<?xml version="1.0" encoding="UTF-8" standalone="no"?>
<!DOCTYPE svg PUBLIC "-//W3C//DTD SVG 1.1//EN"
 "http://www.w3.org/Graphics/SVG/1.1/DTD/svg11.dtd">
<!-- Generated by graphviz version 2.43.0 (0)
 -->
<!-- Title: as_window_pipeline_common.h Pages: 1 -->
<svg width="240pt" height="162pt"
 viewBox="0.00 0.00 239.50 162.00" xmlns="http://www.w3.org/2000/svg" xmlns:xlink="http://www.w3.org/1999/xlink">
<g id="graph0" class="graph" transform="scale(1 1) rotate(0) translate(4 158)">
<title>as_window_pipeline_common.h</title>
<!-- Node1 -->
<g id="node1" class="node">
<title>Node1</title>
<g id="a_node1"><a xlink:title="Generic driver (header file) for window pipeline modules.">
<polygon fill="#bfbfbf" stroke="black" points="53.5,-123.5 53.5,-153.5 168.5,-153.5 168.5,-123.5 53.5,-123.5"/>
<text text-anchor="start" x="61.5" y="-141.5" font-family="Helvetica,sans-Serif" font-size="10.00">as_window_pipeline</text>
<text text-anchor="middle" x="111" y="-130.5" font-family="Helvetica,sans-Serif" font-size="10.00">_common.h</text>
</a>
</g>
</g>
<!-- Node2 -->
<g id="node2" class="node">
<title>Node2</title>
<g id="a_node2"><a xlink:href="as__canny__pipe_8h.html" target="_top" xlink:title="Driver (header file) for the canny reference systems canny pipeline.">
<polygon fill="none" stroke="black" points="0,-62 0,-81 98,-81 98,-62 0,-62"/>
<text text-anchor="middle" x="49" y="-69" font-family="Helvetica,sans-Serif" font-size="10.00">as_canny_pipe.h</text>
</a>
</g>
</g>
<!-- Node1&#45;&gt;Node2 -->
<g id="edge1" class="edge">
<title>Node1&#45;&gt;Node2</title>
<path fill="none" stroke="midnightblue" d="M90.49,-116C79.17,-104.13 65.74,-90.05 57.29,-81.19"/>
<polygon fill="midnightblue" stroke="midnightblue" points="88.11,-118.58 97.55,-123.4 93.18,-113.74 88.11,-118.58"/>
</g>
<!-- Node4 -->
<g id="node4" class="node">
<title>Node4</title>
<g id="a_node4"><a xlink:href="as__canny__pipe_2software_2driver_2as__window__pipeline__common_8c.html" target="_top" xlink:title="Common driver (source file) for as_window_pipeline modules.">
<polygon fill="none" stroke="black" points="116.5,-56.5 116.5,-86.5 231.5,-86.5 231.5,-56.5 116.5,-56.5"/>
<text text-anchor="start" x="124.5" y="-74.5" font-family="Helvetica,sans-Serif" font-size="10.00">as_window_pipeline</text>
<text text-anchor="middle" x="174" y="-63.5" font-family="Helvetica,sans-Serif" font-size="10.00">_common.c</text>
</a>
</g>
</g>
<!-- Node1&#45;&gt;Node4 -->
<g id="edge3" class="edge">
<title>Node1&#45;&gt;Node4</title>
<path fill="none" stroke="midnightblue" d="M131.81,-116.02C141.2,-106.34 152.02,-95.17 160.36,-86.58"/>
<polygon fill="midnightblue" stroke="midnightblue" points="129.12,-113.78 124.67,-123.4 134.14,-118.65 129.12,-113.78"/>
</g>
<!-- Node3 -->
<g id="node3" class="node">
<title>Node3</title>
<g id="a_node3"><a xlink:href="as__canny__pipe_8c.html" target="_top" xlink:title="Driver (source file) for the canny reference systems canny pipeline.">
<polygon fill="none" stroke="black" points="0.5,-0.5 0.5,-19.5 97.5,-19.5 97.5,-0.5 0.5,-0.5"/>
<text text-anchor="middle" x="49" y="-7.5" font-family="Helvetica,sans-Serif" font-size="10.00">as_canny_pipe.c</text>
</a>
</g>
</g>
<!-- Node2&#45;&gt;Node3 -->
<g id="edge2" class="edge">
<title>Node2&#45;&gt;Node3</title>
<path fill="none" stroke="midnightblue" d="M49,-51.82C49,-41 49,-27.9 49,-19.51"/>
<polygon fill="midnightblue" stroke="midnightblue" points="45.5,-51.98 49,-61.98 52.5,-51.98 45.5,-51.98"/>
</g>
</g>
</svg>
