<?xml version="1.0" encoding="UTF-8" standalone="no"?>
<!DOCTYPE svg PUBLIC "-//W3C//DTD SVG 1.1//EN"
 "http://www.w3.org/Graphics/SVG/1.1/DTD/svg11.dtd">
<!-- Generated by graphviz version 2.43.0 (0)
 -->
<!-- Title: ov7670_get_iic_channel Pages: 1 -->
<svg width="526pt" height="344pt"
 viewBox="0.00 0.00 526.00 343.50" xmlns="http://www.w3.org/2000/svg" xmlns:xlink="http://www.w3.org/1999/xlink">
<g id="graph0" class="graph" transform="scale(1 1) rotate(0) translate(4 339.5)">
<title>ov7670_get_iic_channel</title>
<!-- Node1 -->
<g id="node1" class="node">
<title>Node1</title>
<g id="a_node1"><a xlink:title=" ">
<polygon fill="#bfbfbf" stroke="black" points="384,-164 384,-183 518,-183 518,-164 384,-164"/>
<text text-anchor="middle" x="451" y="-171" font-family="Helvetica,sans-Serif" font-size="10.00">ov7670_get_iic_channel</text>
</a>
</g>
</g>
<!-- Node2 -->
<g id="node2" class="node">
<title>Node2</title>
<g id="a_node2"><a xlink:href="group__as__sensor__ov7670.html#ga55b52e2499f96009197bfe90af6c7a41" target="_top" xlink:title=" ">
<polygon fill="none" stroke="black" points="164,-316 164,-335 348,-335 348,-316 164,-316"/>
<text text-anchor="middle" x="256" y="-323" font-family="Helvetica,sans-Serif" font-size="10.00">as_sensor_ov7670_exposure_auto</text>
</a>
</g>
</g>
<!-- Node1&#45;&gt;Node2 -->
<g id="edge1" class="edge">
<title>Node1&#45;&gt;Node2</title>
<path fill="none" stroke="midnightblue" d="M440.34,-192.1C424.77,-220.19 391.43,-273.17 348,-301.5 338.28,-307.84 326.96,-312.51 315.66,-315.94"/>
<polygon fill="midnightblue" stroke="midnightblue" points="443.43,-193.74 445.09,-183.28 437.27,-190.42 443.43,-193.74"/>
</g>
<!-- Node3 -->
<g id="node3" class="node">
<title>Node3</title>
<g id="a_node3"><a xlink:href="group__as__sensor__ov7670.html#ga419a3339eac0f6abb8eafe24e468ae49" target="_top" xlink:title=" ">
<polygon fill="none" stroke="black" points="0,-164 0,-183 128,-183 128,-164 0,-164"/>
<text text-anchor="middle" x="64" y="-171" font-family="Helvetica,sans-Serif" font-size="10.00">as_sensor_ov7670_init</text>
</a>
</g>
</g>
<!-- Node1&#45;&gt;Node3 -->
<g id="edge11" class="edge">
<title>Node1&#45;&gt;Node3</title>
<path fill="none" stroke="midnightblue" d="M437.6,-191.44C420.52,-214.38 387.36,-253.01 348,-268.5 271.9,-298.45 239.87,-299.01 164,-268.5 120.24,-250.9 84.95,-203.7 71.2,-183.21"/>
<polygon fill="midnightblue" stroke="midnightblue" points="440.52,-193.38 443.53,-183.22 434.84,-189.28 440.52,-193.38"/>
</g>
<!-- Node4 -->
<g id="node4" class="node">
<title>Node4</title>
<g id="a_node4"><a xlink:href="group__as__sensor__ov7670.html#gae1b977db2733432317fee8f0497eb67a" target="_top" xlink:title=" ">
<polygon fill="none" stroke="black" points="167,-240 167,-259 345,-259 345,-240 167,-240"/>
<text text-anchor="middle" x="256" y="-247" font-family="Helvetica,sans-Serif" font-size="10.00">as_sensor_ov7670_exposure_get</text>
</a>
</g>
</g>
<!-- Node1&#45;&gt;Node4 -->
<g id="edge3" class="edge">
<title>Node1&#45;&gt;Node4</title>
<path fill="none" stroke="midnightblue" d="M427.72,-188.57C407.68,-201.48 377,-219.66 348,-230.5 337.87,-234.29 326.81,-237.39 316,-239.91"/>
<polygon fill="midnightblue" stroke="midnightblue" points="429.69,-191.47 436.14,-183.06 425.86,-185.61 429.69,-191.47"/>
</g>
<!-- Node5 -->
<g id="node5" class="node">
<title>Node5</title>
<g id="a_node5"><a xlink:href="group__as__sensor__ov7670.html#ga673b948f323ea0a23896c7dc4b0e05e3" target="_top" xlink:title=" ">
<polygon fill="none" stroke="black" points="167.5,-202 167.5,-221 344.5,-221 344.5,-202 167.5,-202"/>
<text text-anchor="middle" x="256" y="-209" font-family="Helvetica,sans-Serif" font-size="10.00">as_sensor_ov7670_exposure_set</text>
</a>
</g>
</g>
<!-- Node1&#45;&gt;Node5 -->
<g id="edge4" class="edge">
<title>Node1&#45;&gt;Node5</title>
<path fill="none" stroke="midnightblue" d="M391.4,-185.04C363.87,-190.46 331.45,-196.84 305.35,-201.98"/>
<polygon fill="midnightblue" stroke="midnightblue" points="392.16,-188.45 401.3,-183.09 390.81,-181.59 392.16,-188.45"/>
</g>
<!-- Node6 -->
<g id="node6" class="node">
<title>Node6</title>
<g id="a_node6"><a xlink:href="group__as__sensor__ov7670.html#gadd11863e70497418c9d31c922945cbec" target="_top" xlink:title=" ">
<polygon fill="none" stroke="black" points="176,-164 176,-183 336,-183 336,-164 176,-164"/>
<text text-anchor="middle" x="256" y="-171" font-family="Helvetica,sans-Serif" font-size="10.00">as_sensor_ov7670_gain_auto</text>
</a>
</g>
</g>
<!-- Node1&#45;&gt;Node6 -->
<g id="edge5" class="edge">
<title>Node1&#45;&gt;Node6</title>
<path fill="none" stroke="midnightblue" d="M373.61,-173.5C361.26,-173.5 348.46,-173.5 336.05,-173.5"/>
<polygon fill="midnightblue" stroke="midnightblue" points="373.85,-177 383.85,-173.5 373.85,-170 373.85,-177"/>
</g>
<!-- Node7 -->
<g id="node7" class="node">
<title>Node7</title>
<g id="a_node7"><a xlink:href="group__as__sensor__ov7670.html#ga75ee4d998c858b26adae16b8140e8637" target="_top" xlink:title=" ">
<polygon fill="none" stroke="black" points="179,-126 179,-145 333,-145 333,-126 179,-126"/>
<text text-anchor="middle" x="256" y="-133" font-family="Helvetica,sans-Serif" font-size="10.00">as_sensor_ov7670_gain_get</text>
</a>
</g>
</g>
<!-- Node1&#45;&gt;Node7 -->
<g id="edge7" class="edge">
<title>Node1&#45;&gt;Node7</title>
<path fill="none" stroke="midnightblue" d="M391.4,-161.96C363.87,-156.54 331.45,-150.16 305.35,-145.02"/>
<polygon fill="midnightblue" stroke="midnightblue" points="390.81,-165.41 401.3,-163.91 392.16,-158.55 390.81,-165.41"/>
</g>
<!-- Node8 -->
<g id="node8" class="node">
<title>Node8</title>
<g id="a_node8"><a xlink:href="group__as__sensor__ov7670.html#ga45e866e9958d1c7d8e0b0dd206f01a9e" target="_top" xlink:title=" ">
<polygon fill="none" stroke="black" points="179.5,-88 179.5,-107 332.5,-107 332.5,-88 179.5,-88"/>
<text text-anchor="middle" x="256" y="-95" font-family="Helvetica,sans-Serif" font-size="10.00">as_sensor_ov7670_gain_set</text>
</a>
</g>
</g>
<!-- Node1&#45;&gt;Node8 -->
<g id="edge8" class="edge">
<title>Node1&#45;&gt;Node8</title>
<path fill="none" stroke="midnightblue" d="M427.72,-158.43C407.68,-145.52 377,-127.34 348,-116.5 337.87,-112.71 326.81,-109.61 316,-107.09"/>
<polygon fill="midnightblue" stroke="midnightblue" points="425.86,-161.39 436.14,-163.94 429.69,-155.53 425.86,-161.39"/>
</g>
<!-- Node9 -->
<g id="node9" class="node">
<title>Node9</title>
<g id="a_node9"><a xlink:href="as__sensor__ov7670_8c.html#ab5de18dc5dd74817505126a51487b8b1" target="_top" xlink:title=" ">
<polygon fill="none" stroke="black" points="181.5,-50 181.5,-69 330.5,-69 330.5,-50 181.5,-50"/>
<text text-anchor="middle" x="256" y="-57" font-family="Helvetica,sans-Serif" font-size="10.00">as_sensor_ov7670_identify</text>
</a>
</g>
</g>
<!-- Node1&#45;&gt;Node9 -->
<g id="edge9" class="edge">
<title>Node1&#45;&gt;Node9</title>
<path fill="none" stroke="midnightblue" d="M436.28,-155.81C418.4,-134.06 385.02,-97.67 348,-78.5 340.55,-74.64 332.37,-71.57 324.06,-69.11"/>
<polygon fill="midnightblue" stroke="midnightblue" points="433.77,-158.27 442.76,-163.89 439.23,-153.89 433.77,-158.27"/>
</g>
<!-- Node10 -->
<g id="node10" class="node">
<title>Node10</title>
<g id="a_node10"><a xlink:href="as__sensor__ov7670_8c.html#a10bc36e3bfa182ae3dde572ff928f64a" target="_top" xlink:title=" ">
<polygon fill="none" stroke="black" points="195.5,-0.5 195.5,-30.5 316.5,-30.5 316.5,-0.5 195.5,-0.5"/>
<text text-anchor="start" x="203.5" y="-18.5" font-family="Helvetica,sans-Serif" font-size="10.00">ov7670_set_registers</text>
<text text-anchor="middle" x="256" y="-7.5" font-family="Helvetica,sans-Serif" font-size="10.00">_vga_gray</text>
</a>
</g>
</g>
<!-- Node1&#45;&gt;Node10 -->
<g id="edge12" class="edge">
<title>Node1&#45;&gt;Node10</title>
<path fill="none" stroke="midnightblue" d="M440.72,-154.66C425.46,-125.65 392.27,-70.29 348,-40.5 338.62,-34.19 327.69,-29.46 316.72,-25.93"/>
<polygon fill="midnightblue" stroke="midnightblue" points="437.69,-156.42 445.36,-163.73 443.92,-153.24 437.69,-156.42"/>
</g>
<!-- Node2&#45;&gt;Node3 -->
<g id="edge2" class="edge">
<title>Node2&#45;&gt;Node3</title>
<path fill="none" stroke="midnightblue" d="M186.18,-312.61C178.36,-309.64 170.78,-305.99 164,-301.5 116.22,-269.85 81.73,-207.36 69.68,-183.28"/>
<polygon fill="midnightblue" stroke="midnightblue" points="185.2,-315.98 195.79,-315.91 187.46,-309.35 185.2,-315.98"/>
</g>
<!-- Node6&#45;&gt;Node3 -->
<g id="edge6" class="edge">
<title>Node6&#45;&gt;Node3</title>
<path fill="none" stroke="midnightblue" d="M165.68,-173.5C153.01,-173.5 140.21,-173.5 128.17,-173.5"/>
<polygon fill="midnightblue" stroke="midnightblue" points="165.8,-177 175.8,-173.5 165.8,-170 165.8,-177"/>
</g>
<!-- Node9&#45;&gt;Node3 -->
<g id="edge10" class="edge">
<title>Node9&#45;&gt;Node3</title>
<path fill="none" stroke="midnightblue" d="M178.26,-72.2C173.32,-74.03 168.52,-76.11 164,-78.5 122.7,-100.28 86.61,-144.4 71.96,-163.88"/>
<polygon fill="midnightblue" stroke="midnightblue" points="179.49,-75.48 187.88,-69.01 177.29,-68.84 179.49,-75.48"/>
</g>
<!-- Node10&#45;&gt;Node3 -->
<g id="edge13" class="edge">
<title>Node10&#45;&gt;Node3</title>
<path fill="none" stroke="midnightblue" d="M185.75,-29.21C178.07,-32.25 170.64,-35.97 164,-40.5 115.28,-73.8 81.1,-139.05 69.42,-163.73"/>
<polygon fill="midnightblue" stroke="midnightblue" points="186.98,-32.49 195.21,-25.82 184.62,-25.9 186.98,-32.49"/>
</g>
</g>
</svg>
