<?xml version="1.0" encoding="UTF-8" standalone="no"?>
<!DOCTYPE svg PUBLIC "-//W3C//DTD SVG 1.1//EN"
 "http://www.w3.org/Graphics/SVG/1.1/DTD/svg11.dtd">
<!-- Generated by graphviz version 2.43.0 (0)
 -->
<!-- Title: as_memio_close Pages: 1 -->
<svg width="692pt" height="142pt"
 viewBox="0.00 0.00 692.00 142.00" xmlns="http://www.w3.org/2000/svg" xmlns:xlink="http://www.w3.org/1999/xlink">
<g id="graph0" class="graph" transform="scale(1 1) rotate(0) translate(4 138)">
<title>as_memio_close</title>
<!-- Node1 -->
<g id="node1" class="node">
<title>Node1</title>
<g id="a_node1"><a xlink:title=" ">
<polygon fill="#bfbfbf" stroke="black" points="0,-76.5 0,-95.5 98,-95.5 98,-76.5 0,-76.5"/>
<text text-anchor="middle" x="49" y="-83.5" font-family="Helvetica,sans-Serif" font-size="10.00">as_memio_close</text>
</a>
</g>
</g>
<!-- Node2 -->
<g id="node2" class="node">
<title>Node2</title>
<g id="a_node2"><a xlink:href="group__as__buffer.html#ga24266b1c24e9679a68088a917f78ecf8" target="_top" xlink:title=" ">
<polygon fill="none" stroke="black" points="135.5,-114.5 135.5,-133.5 260.5,-133.5 260.5,-114.5 135.5,-114.5"/>
<text text-anchor="middle" x="198" y="-121.5" font-family="Helvetica,sans-Serif" font-size="10.00">as_buffer_obj_destroy</text>
</a>
</g>
</g>
<!-- Node1&#45;&gt;Node2 -->
<g id="edge1" class="edge">
<title>Node1&#45;&gt;Node2</title>
<path fill="none" stroke="midnightblue" d="M87.09,-95.59C106.32,-100.56 129.99,-106.68 150.43,-111.96"/>
<polygon fill="midnightblue" stroke="midnightblue" points="149.61,-115.37 160.17,-114.48 151.37,-108.59 149.61,-115.37"/>
</g>
<!-- Node3 -->
<g id="node3" class="node">
<title>Node3</title>
<g id="a_node3"><a xlink:href="group__asterics__support.html#ga3a2ba9ffa2388da78d024646e73441ff" target="_top" xlink:title=" ">
<polygon fill="none" stroke="black" points="332.5,-104.5 332.5,-123.5 385.5,-123.5 385.5,-104.5 332.5,-104.5"/>
<text text-anchor="middle" x="359" y="-111.5" font-family="Helvetica,sans-Serif" font-size="10.00">as_free</text>
</a>
</g>
</g>
<!-- Node1&#45;&gt;Node3 -->
<g id="edge3" class="edge">
<title>Node1&#45;&gt;Node3</title>
<path fill="none" stroke="midnightblue" d="M98.42,-90.28C141.39,-94.1 205.88,-99.85 262,-105 281.93,-106.83 304.18,-108.91 322.23,-110.61"/>
<polygon fill="midnightblue" stroke="midnightblue" points="322.05,-114.11 332.33,-111.56 322.71,-107.14 322.05,-114.11"/>
</g>
<!-- Node4 -->
<g id="node4" class="node">
<title>Node4</title>
<g id="a_node4"><a xlink:href="group__as__reader__writer.html#ga89e42a53f0db5cf22c8583c8e0c8a074" target="_top" xlink:title="Resets the hardware module.">
<polygon fill="none" stroke="black" points="134,-38.5 134,-57.5 262,-57.5 262,-38.5 134,-38.5"/>
<text text-anchor="middle" x="198" y="-45.5" font-family="Helvetica,sans-Serif" font-size="10.00">as_reader_writer_reset</text>
</a>
</g>
</g>
<!-- Node1&#45;&gt;Node4 -->
<g id="edge4" class="edge">
<title>Node1&#45;&gt;Node4</title>
<path fill="none" stroke="midnightblue" d="M87.09,-76.41C106.32,-71.44 129.99,-65.32 150.43,-60.04"/>
<polygon fill="midnightblue" stroke="midnightblue" points="151.37,-63.41 160.17,-57.52 149.61,-56.63 151.37,-63.41"/>
</g>
<!-- Node2&#45;&gt;Node3 -->
<g id="edge2" class="edge">
<title>Node2&#45;&gt;Node3</title>
<path fill="none" stroke="midnightblue" d="M260.93,-120.11C281.63,-118.8 304,-117.4 322.05,-116.26"/>
<polygon fill="midnightblue" stroke="midnightblue" points="322.37,-119.75 332.13,-115.63 321.93,-112.76 322.37,-119.75"/>
</g>
<!-- Node5 -->
<g id="node5" class="node">
<title>Node5</title>
<g id="a_node5"><a xlink:href="group__asterics__support.html#gaa7520f5b717e163da743500adb2eb0b9" target="_top" xlink:title=" ">
<polygon fill="none" stroke="black" points="313.5,-57.5 313.5,-76.5 404.5,-76.5 404.5,-57.5 313.5,-57.5"/>
<text text-anchor="middle" x="359" y="-64.5" font-family="Helvetica,sans-Serif" font-size="10.00">as_module_reg</text>
</a>
</g>
</g>
<!-- Node4&#45;&gt;Node5 -->
<g id="edge5" class="edge">
<title>Node4&#45;&gt;Node5</title>
<path fill="none" stroke="midnightblue" d="M262.3,-55.56C275.69,-57.16 289.73,-58.84 302.79,-60.4"/>
<polygon fill="midnightblue" stroke="midnightblue" points="302.69,-63.92 313.03,-61.63 303.52,-56.96 302.69,-63.92"/>
</g>
<!-- Node6 -->
<g id="node6" class="node">
<title>Node6</title>
<g id="a_node6"><a xlink:href="group__asterics__support.html#ga0ccb0610d764a95bda989e35fba59490" target="_top" xlink:title=" ">
<polygon fill="none" stroke="black" points="298,-19.5 298,-38.5 420,-38.5 420,-19.5 298,-19.5"/>
<text text-anchor="middle" x="359" y="-26.5" font-family="Helvetica,sans-Serif" font-size="10.00">as_reg_write_masked</text>
</a>
</g>
</g>
<!-- Node4&#45;&gt;Node6 -->
<g id="edge6" class="edge">
<title>Node4&#45;&gt;Node6</title>
<path fill="none" stroke="midnightblue" d="M262.3,-40.44C270.61,-39.44 279.17,-38.42 287.59,-37.41"/>
<polygon fill="midnightblue" stroke="midnightblue" points="288.25,-40.86 297.77,-36.2 287.42,-33.91 288.25,-40.86"/>
</g>
<!-- Node7 -->
<g id="node7" class="node">
<title>Node7</title>
<g id="a_node7"><a xlink:href="group__asterics__support.html#ga8e5c2bfd2e4498d10289377bd94cef07" target="_top" xlink:title=" ">
<polygon fill="none" stroke="black" points="457.5,-38.5 457.5,-57.5 533.5,-57.5 533.5,-38.5 457.5,-38.5"/>
<text text-anchor="middle" x="495.5" y="-45.5" font-family="Helvetica,sans-Serif" font-size="10.00">as_reg_read</text>
</a>
</g>
</g>
<!-- Node6&#45;&gt;Node7 -->
<g id="edge7" class="edge">
<title>Node6&#45;&gt;Node7</title>
<path fill="none" stroke="midnightblue" d="M420.17,-37.5C429.22,-38.78 438.44,-40.08 447.17,-41.31"/>
<polygon fill="midnightblue" stroke="midnightblue" points="446.76,-44.79 457.15,-42.72 447.74,-37.86 446.76,-44.79"/>
</g>
<!-- Node9 -->
<g id="node9" class="node">
<title>Node9</title>
<g id="a_node9"><a xlink:href="group__asterics__support.html#ga6345b997e24a6cd5f9143cef27629d49" target="_top" xlink:title=" ">
<polygon fill="none" stroke="black" points="456,-0.5 456,-19.5 535,-19.5 535,-0.5 456,-0.5"/>
<text text-anchor="middle" x="495.5" y="-7.5" font-family="Helvetica,sans-Serif" font-size="10.00">as_reg_write</text>
</a>
</g>
</g>
<!-- Node6&#45;&gt;Node9 -->
<g id="edge9" class="edge">
<title>Node6&#45;&gt;Node9</title>
<path fill="none" stroke="midnightblue" d="M420.17,-20.5C428.82,-19.28 437.63,-18.03 446.02,-16.85"/>
<polygon fill="midnightblue" stroke="midnightblue" points="446.59,-20.3 456,-15.44 445.61,-13.37 446.59,-20.3"/>
</g>
<!-- Node8 -->
<g id="node8" class="node">
<title>Node8</title>
<g id="a_node8"><a xlink:href="group__asterics__support.html#ga4c6d688b840a6e2edc9bc0b8ed961677" target="_top" xlink:title=" ">
<polygon fill="none" stroke="black" points="577.5,-38.5 577.5,-57.5 677.5,-57.5 677.5,-38.5 577.5,-38.5"/>
<text text-anchor="middle" x="627.5" y="-45.5" font-family="Helvetica,sans-Serif" font-size="10.00">as_reg_to_uint32</text>
</a>
</g>
</g>
<!-- Node7&#45;&gt;Node8 -->
<g id="edge8" class="edge">
<title>Node7&#45;&gt;Node8</title>
<path fill="none" stroke="midnightblue" d="M533.75,-48C544.09,-48 555.59,-48 566.86,-48"/>
<polygon fill="midnightblue" stroke="midnightblue" points="567.12,-51.5 577.12,-48 567.12,-44.5 567.12,-51.5"/>
</g>
<!-- Node10 -->
<g id="node10" class="node">
<title>Node10</title>
<g id="a_node10"><a xlink:href="group__asterics__support.html#gab651cc2c035ce61b354578434e59f822" target="_top" xlink:title=" ">
<polygon fill="none" stroke="black" points="571,-0.5 571,-19.5 684,-19.5 684,-0.5 571,-0.5"/>
<text text-anchor="middle" x="627.5" y="-7.5" font-family="Helvetica,sans-Serif" font-size="10.00">as_reg_from_uint32</text>
</a>
</g>
</g>
<!-- Node9&#45;&gt;Node10 -->
<g id="edge10" class="edge">
<title>Node9&#45;&gt;Node10</title>
<path fill="none" stroke="midnightblue" d="M535.15,-10C543.22,-10 551.94,-10 560.68,-10"/>
<polygon fill="midnightblue" stroke="midnightblue" points="560.92,-13.5 570.92,-10 560.92,-6.5 560.92,-13.5"/>
</g>
</g>
</svg>
