<?xml version="1.0" encoding="UTF-8" standalone="no"?>
<!DOCTYPE svg PUBLIC "-//W3C//DTD SVG 1.1//EN"
 "http://www.w3.org/Graphics/SVG/1.1/DTD/svg11.dtd">
<!-- Generated by graphviz version 2.43.0 (0)
 -->
<!-- Title: ov7670_iic_reg_set Pages: 1 -->
<svg width="1526pt" height="446pt"
 viewBox="0.00 0.00 1526.00 446.00" xmlns="http://www.w3.org/2000/svg" xmlns:xlink="http://www.w3.org/1999/xlink">
<g id="graph0" class="graph" transform="scale(1 1) rotate(0) translate(4 442)">
<title>ov7670_iic_reg_set</title>
<!-- Node1 -->
<g id="node1" class="node">
<title>Node1</title>
<g id="a_node1"><a xlink:title=" ">
<polygon fill="#bfbfbf" stroke="black" points="0,-152.5 0,-171.5 110,-171.5 110,-152.5 0,-152.5"/>
<text text-anchor="middle" x="55" y="-159.5" font-family="Helvetica,sans-Serif" font-size="10.00">ov7670_iic_reg_set</text>
</a>
</g>
</g>
<!-- Node2 -->
<g id="node2" class="node">
<title>Node2</title>
<g id="a_node2"><a xlink:href="group__as__iic__user.html#ga5ae8936ee892843eda5df7b9a418bd52" target="_top" xlink:title=" ">
<polygon fill="none" stroke="black" points="146,-152.5 146,-171.5 241,-171.5 241,-152.5 146,-152.5"/>
<text text-anchor="middle" x="193.5" y="-159.5" font-family="Helvetica,sans-Serif" font-size="10.00">as_iic_write_reg</text>
</a>
</g>
</g>
<!-- Node1&#45;&gt;Node2 -->
<g id="edge1" class="edge">
<title>Node1&#45;&gt;Node2</title>
<path fill="none" stroke="midnightblue" d="M110.34,-162C118.69,-162 127.33,-162 135.74,-162"/>
<polygon fill="midnightblue" stroke="midnightblue" points="135.83,-165.5 145.83,-162 135.83,-158.5 135.83,-165.5"/>
</g>
<!-- Node3 -->
<g id="node3" class="node">
<title>Node3</title>
<g id="a_node3"><a xlink:href="group__as__iic__user.html#ga2a4e5ee19e84cc95de665e29b92ccda1" target="_top" xlink:title=" ">
<polygon fill="none" stroke="black" points="277,-152.5 277,-171.5 384,-171.5 384,-152.5 277,-152.5"/>
<text text-anchor="middle" x="330.5" y="-159.5" font-family="Helvetica,sans-Serif" font-size="10.00">as_iic_write_bytes</text>
</a>
</g>
</g>
<!-- Node2&#45;&gt;Node3 -->
<g id="edge2" class="edge">
<title>Node2&#45;&gt;Node3</title>
<path fill="none" stroke="midnightblue" d="M241.34,-162C249.46,-162 258.02,-162 266.49,-162"/>
<polygon fill="midnightblue" stroke="midnightblue" points="266.74,-165.5 276.74,-162 266.74,-158.5 266.74,-165.5"/>
</g>
<!-- Node4 -->
<g id="node4" class="node">
<title>Node4</title>
<g id="a_node4"><a xlink:href="group__as__iic__helpers.html#ga53e6050a2c66be89ac23084fd9de9c23" target="_top" xlink:title=" ">
<polygon fill="none" stroke="black" points="420,-152.5 420,-171.5 552,-171.5 552,-152.5 420,-152.5"/>
<text text-anchor="middle" x="486" y="-159.5" font-family="Helvetica,sans-Serif" font-size="10.00">as_iic_start_transaction</text>
</a>
</g>
</g>
<!-- Node3&#45;&gt;Node4 -->
<g id="edge3" class="edge">
<title>Node3&#45;&gt;Node4</title>
<path fill="none" stroke="midnightblue" d="M384.33,-162C392.55,-162 401.19,-162 409.8,-162"/>
<polygon fill="midnightblue" stroke="midnightblue" points="409.87,-165.5 419.87,-162 409.87,-158.5 409.87,-165.5"/>
</g>
<!-- Node23 -->
<g id="node23" class="node">
<title>Node23</title>
<g id="a_node23"><a xlink:href="group__as__iic__helpers.html#ga67cc002a1b20c75dc26f7b328ca5ddc9" target="_top" xlink:title=" ">
<polygon fill="none" stroke="black" points="588,-0.5 588,-19.5 749,-19.5 749,-0.5 588,-0.5"/>
<text text-anchor="middle" x="668.5" y="-7.5" font-family="Helvetica,sans-Serif" font-size="10.00">as_iic_stop_write_transaction</text>
</a>
</g>
</g>
<!-- Node3&#45;&gt;Node23 -->
<g id="edge35" class="edge">
<title>Node3&#45;&gt;Node23</title>
<path fill="none" stroke="midnightblue" d="M346.79,-152.36C385.64,-128.27 491.87,-64.8 588,-29 594.77,-26.48 601.98,-24.21 609.2,-22.19"/>
<polygon fill="midnightblue" stroke="midnightblue" points="610.24,-25.54 619.01,-19.6 608.45,-18.77 610.24,-25.54"/>
</g>
<!-- Node24 -->
<g id="node24" class="node">
<title>Node24</title>
<g id="a_node24"><a xlink:href="group__as__iic__helpers.html#gad5e0aa9a71f8f0f65e1fbded8134b11f" target="_top" xlink:title=" ">
<polygon fill="none" stroke="black" points="601.5,-304.5 601.5,-323.5 735.5,-323.5 735.5,-304.5 601.5,-304.5"/>
<text text-anchor="middle" x="668.5" y="-311.5" font-family="Helvetica,sans-Serif" font-size="10.00">as_iic_write_transaction</text>
</a>
</g>
</g>
<!-- Node3&#45;&gt;Node24 -->
<g id="edge36" class="edge">
<title>Node3&#45;&gt;Node24</title>
<path fill="none" stroke="midnightblue" d="M348.15,-171.56C388.36,-194.36 494.34,-252.8 588,-290 598.57,-294.2 610.17,-298.08 621.16,-301.46"/>
<polygon fill="midnightblue" stroke="midnightblue" points="620.46,-304.9 631.04,-304.4 622.46,-298.19 620.46,-304.9"/>
</g>
<!-- Node5 -->
<g id="node5" class="node">
<title>Node5</title>
<g id="a_node5"><a xlink:href="group__as__iic__bitchecks.html#gaa4e8718c748b5a7e956a38ffd6dbe15d" target="_top" xlink:title=" ">
<polygon fill="none" stroke="black" points="800,-152.5 800,-171.5 914,-171.5 914,-152.5 800,-152.5"/>
<text text-anchor="middle" x="857" y="-159.5" font-family="Helvetica,sans-Serif" font-size="10.00">as_iic_ack_received</text>
</a>
</g>
</g>
<!-- Node4&#45;&gt;Node5 -->
<g id="edge4" class="edge">
<title>Node4&#45;&gt;Node5</title>
<path fill="none" stroke="midnightblue" d="M552.12,-162C619.03,-162 722.65,-162 789.91,-162"/>
<polygon fill="midnightblue" stroke="midnightblue" points="789.98,-165.5 799.98,-162 789.98,-158.5 789.98,-165.5"/>
</g>
<!-- Node9 -->
<g id="node9" class="node">
<title>Node9</title>
<g id="a_node9"><a xlink:href="group__as__iic__wait.html#gad3cfec26b8a73166e060108cf1444a2b" target="_top" xlink:title=" ">
<polygon fill="none" stroke="black" points="798,-27 798,-57 916,-57 916,-27 798,-27"/>
<text text-anchor="start" x="806" y="-45" font-family="Helvetica,sans-Serif" font-size="10.00">as_iic_busy_wait_for</text>
<text text-anchor="middle" x="857" y="-34" font-family="Helvetica,sans-Serif" font-size="10.00">_hwready</text>
</a>
</g>
</g>
<!-- Node4&#45;&gt;Node9 -->
<g id="edge8" class="edge">
<title>Node4&#45;&gt;Node9</title>
<path fill="none" stroke="midnightblue" d="M502.92,-152.36C522.39,-140.91 556.64,-121.87 588,-110 606.7,-102.92 714.64,-76.24 787.7,-58.48"/>
<polygon fill="midnightblue" stroke="midnightblue" points="788.87,-61.79 797.76,-56.03 787.22,-54.99 788.87,-61.79"/>
</g>
<!-- Node10 -->
<g id="node10" class="node">
<title>Node10</title>
<g id="a_node10"><a xlink:href="group__as__iic__user.html#gacdb0c71d0fcfe5e50a7f7316762cd0c0" target="_top" xlink:title=" ">
<polygon fill="none" stroke="black" points="973,-76.5 973,-95.5 1064,-95.5 1064,-76.5 973,-76.5"/>
<text text-anchor="middle" x="1018.5" y="-83.5" font-family="Helvetica,sans-Serif" font-size="10.00">as_iic_is_ready</text>
</a>
</g>
</g>
<!-- Node4&#45;&gt;Node10 -->
<g id="edge20" class="edge">
<title>Node4&#45;&gt;Node10</title>
<path fill="none" stroke="midnightblue" d="M552.05,-152.68C657.6,-137.56 864.27,-107.95 962.77,-93.84"/>
<polygon fill="midnightblue" stroke="midnightblue" points="963.41,-97.28 972.81,-92.4 962.42,-90.36 963.41,-97.28"/>
</g>
<!-- Node15 -->
<g id="node15" class="node">
<title>Node15</title>
<g id="a_node15"><a xlink:href="group__as__iic__wait.html#ga0bc5aad64893b674c42943fb64d17676" target="_top" xlink:title=" ">
<polygon fill="none" stroke="black" points="785,-190.5 785,-209.5 929,-209.5 929,-190.5 785,-190.5"/>
<text text-anchor="middle" x="857" y="-197.5" font-family="Helvetica,sans-Serif" font-size="10.00">as_iic_busy_wait_for_wait</text>
</a>
</g>
</g>
<!-- Node4&#45;&gt;Node15 -->
<g id="edge15" class="edge">
<title>Node4&#45;&gt;Node15</title>
<path fill="none" stroke="midnightblue" d="M552.14,-171.5C564.06,-173.1 576.39,-174.68 588,-176 650.57,-183.13 721.56,-189.41 774.75,-193.75"/>
<polygon fill="midnightblue" stroke="midnightblue" points="774.56,-197.25 784.81,-194.57 775.12,-190.27 774.56,-197.25"/>
</g>
<!-- Node17 -->
<g id="node17" class="node">
<title>Node17</title>
<g id="a_node17"><a xlink:href="group__as__iic__bitchecks.html#gad90ab4c2ed7fbca8f768c87cdb5794ee" target="_top" xlink:title=" ">
<polygon fill="none" stroke="black" points="613,-38.5 613,-57.5 724,-57.5 724,-38.5 613,-38.5"/>
<text text-anchor="middle" x="668.5" y="-45.5" font-family="Helvetica,sans-Serif" font-size="10.00">as_iic_is_initialized</text>
</a>
</g>
</g>
<!-- Node4&#45;&gt;Node17 -->
<g id="edge19" class="edge">
<title>Node4&#45;&gt;Node17</title>
<path fill="none" stroke="midnightblue" d="M495.15,-152.36C511.13,-134.06 548.45,-94.15 588,-72 596.04,-67.5 605.01,-63.75 613.96,-60.66"/>
<polygon fill="midnightblue" stroke="midnightblue" points="615.16,-63.95 623.61,-57.56 613.02,-57.28 615.16,-63.95"/>
</g>
<!-- Node18 -->
<g id="node18" class="node">
<title>Node18</title>
<g id="a_node18"><a xlink:href="group__as__iic__user.html#gae03c311fae3d6a830878a2b0c2c1c2bf" target="_top" xlink:title=" ">
<polygon fill="none" stroke="black" points="795,-228.5 795,-247.5 919,-247.5 919,-228.5 795,-228.5"/>
<text text-anchor="middle" x="857" y="-235.5" font-family="Helvetica,sans-Serif" font-size="10.00">as_iic_reset_hw_state</text>
</a>
</g>
</g>
<!-- Node4&#45;&gt;Node18 -->
<g id="edge21" class="edge">
<title>Node4&#45;&gt;Node18</title>
<path fill="none" stroke="midnightblue" d="M509.87,-171.59C530.09,-179.73 560.55,-191.13 588,-198 653.7,-214.45 730.27,-225.05 784.7,-231.17"/>
<polygon fill="midnightblue" stroke="midnightblue" points="784.61,-234.68 794.94,-232.3 785.38,-227.73 784.61,-234.68"/>
</g>
<!-- Node19 -->
<g id="node19" class="node">
<title>Node19</title>
<g id="a_node19"><a xlink:href="group__as__iic__reg__funcs.html#gac83a48fc09234a7a99adafb1ce565eb0" target="_top" xlink:title=" ">
<polygon fill="none" stroke="black" points="966.5,-266.5 966.5,-285.5 1070.5,-285.5 1070.5,-266.5 966.5,-266.5"/>
<text text-anchor="middle" x="1018.5" y="-273.5" font-family="Helvetica,sans-Serif" font-size="10.00">as_iic_set_control</text>
</a>
</g>
</g>
<!-- Node4&#45;&gt;Node19 -->
<g id="edge25" class="edge">
<title>Node4&#45;&gt;Node19</title>
<path fill="none" stroke="midnightblue" d="M500.35,-171.59C523.3,-187.92 569.57,-220.03 588,-227 712.63,-274.12 870.96,-279.45 956.31,-278.29"/>
<polygon fill="midnightblue" stroke="midnightblue" points="956.41,-281.79 966.35,-278.12 956.29,-274.79 956.41,-281.79"/>
</g>
<!-- Node22 -->
<g id="node22" class="node">
<title>Node22</title>
<g id="a_node22"><a xlink:href="group__as__iic__reg__funcs.html#ga8058473baeded71954aa72ee8df24e9b" target="_top" xlink:title=" ">
<polygon fill="none" stroke="black" points="965,-342.5 965,-361.5 1072,-361.5 1072,-342.5 965,-342.5"/>
<text text-anchor="middle" x="1018.5" y="-349.5" font-family="Helvetica,sans-Serif" font-size="10.00">as_iic_set_data_tx</text>
</a>
</g>
</g>
<!-- Node4&#45;&gt;Node22 -->
<g id="edge26" class="edge">
<title>Node4&#45;&gt;Node22</title>
<path fill="none" stroke="midnightblue" d="M489.31,-171.57C497.13,-201.59 525.65,-294.2 588,-333 708.45,-407.95 886.81,-382.08 970.68,-363.78"/>
<polygon fill="midnightblue" stroke="midnightblue" points="971.68,-367.14 980.67,-361.54 970.15,-360.31 971.68,-367.14"/>
</g>
<!-- Node4&#45;&gt;Node23 -->
<g id="edge29" class="edge">
<title>Node4&#45;&gt;Node23</title>
<path fill="none" stroke="midnightblue" d="M495.03,-152.45C507.53,-137.47 532.27,-107.45 552,-81 568.81,-58.47 564.8,-44.87 588,-29 590.9,-27.02 593.98,-25.24 597.18,-23.65"/>
<polygon fill="midnightblue" stroke="midnightblue" points="598.68,-26.81 606.47,-19.63 595.9,-20.39 598.68,-26.81"/>
</g>
<!-- Node6 -->
<g id="node6" class="node">
<title>Node6</title>
<g id="a_node6"><a xlink:href="group__as__iic__reg__funcs.html#ga8daa8fde0a7776aa2f5b335250b5aa2a" target="_top" xlink:title=" ">
<polygon fill="none" stroke="black" points="1109.5,-171.5 1109.5,-190.5 1231.5,-190.5 1231.5,-171.5 1109.5,-171.5"/>
<text text-anchor="middle" x="1170.5" y="-178.5" font-family="Helvetica,sans-Serif" font-size="10.00">as_iic_get_status_reg</text>
</a>
</g>
</g>
<!-- Node5&#45;&gt;Node6 -->
<g id="edge5" class="edge">
<title>Node5&#45;&gt;Node6</title>
<path fill="none" stroke="midnightblue" d="M914.05,-165.42C965.91,-168.58 1043.21,-173.3 1099.19,-176.71"/>
<polygon fill="midnightblue" stroke="midnightblue" points="1099.19,-180.22 1109.38,-177.33 1099.62,-173.23 1099.19,-180.22"/>
</g>
<!-- Node7 -->
<g id="node7" class="node">
<title>Node7</title>
<g id="a_node7"><a xlink:href="group__asterics__support.html#ga8e5c2bfd2e4498d10289377bd94cef07" target="_top" xlink:title=" ">
<polygon fill="none" stroke="black" points="1287.5,-342.5 1287.5,-361.5 1363.5,-361.5 1363.5,-342.5 1287.5,-342.5"/>
<text text-anchor="middle" x="1325.5" y="-349.5" font-family="Helvetica,sans-Serif" font-size="10.00">as_reg_read</text>
</a>
</g>
</g>
<!-- Node6&#45;&gt;Node7 -->
<g id="edge6" class="edge">
<title>Node6&#45;&gt;Node7</title>
<path fill="none" stroke="midnightblue" d="M1176.94,-190.54C1190.4,-213.63 1227.25,-273.57 1269,-314 1277.86,-322.58 1288.86,-330.55 1298.73,-336.96"/>
<polygon fill="midnightblue" stroke="midnightblue" points="1297.04,-340.03 1307.37,-342.37 1300.75,-334.09 1297.04,-340.03"/>
</g>
<!-- Node8 -->
<g id="node8" class="node">
<title>Node8</title>
<g id="a_node8"><a xlink:href="group__asterics__support.html#ga4c6d688b840a6e2edc9bc0b8ed961677" target="_top" xlink:title=" ">
<polygon fill="none" stroke="black" points="1418,-342.5 1418,-361.5 1518,-361.5 1518,-342.5 1418,-342.5"/>
<text text-anchor="middle" x="1468" y="-349.5" font-family="Helvetica,sans-Serif" font-size="10.00">as_reg_to_uint32</text>
</a>
</g>
</g>
<!-- Node7&#45;&gt;Node8 -->
<g id="edge7" class="edge">
<title>Node7&#45;&gt;Node8</title>
<path fill="none" stroke="midnightblue" d="M1363.78,-352C1377.26,-352 1392.83,-352 1407.72,-352"/>
<polygon fill="midnightblue" stroke="midnightblue" points="1407.89,-355.5 1417.89,-352 1407.89,-348.5 1407.89,-355.5"/>
</g>
<!-- Node9&#45;&gt;Node10 -->
<g id="edge9" class="edge">
<title>Node9&#45;&gt;Node10</title>
<path fill="none" stroke="midnightblue" d="M912.44,-57.02C932.18,-62.46 954.22,-68.54 973,-73.72"/>
<polygon fill="midnightblue" stroke="midnightblue" points="972.21,-77.14 982.78,-76.42 974.07,-70.39 972.21,-77.14"/>
</g>
<!-- Node11 -->
<g id="node11" class="node">
<title>Node11</title>
<g id="a_node11"><a xlink:href="group__asterics__support.html#gab803703ab5b845023ca31b7b2664419c" target="_top" xlink:title=" ">
<polygon fill="none" stroke="black" points="989,-32.5 989,-51.5 1048,-51.5 1048,-32.5 989,-32.5"/>
<text text-anchor="middle" x="1018.5" y="-39.5" font-family="Helvetica,sans-Serif" font-size="10.00">as_sleep</text>
</a>
</g>
</g>
<!-- Node9&#45;&gt;Node11 -->
<g id="edge11" class="edge">
<title>Node9&#45;&gt;Node11</title>
<path fill="none" stroke="midnightblue" d="M916.03,-42C936.83,-42 959.76,-42 978.55,-42"/>
<polygon fill="midnightblue" stroke="midnightblue" points="978.81,-45.5 988.81,-42 978.81,-38.5 978.81,-45.5"/>
</g>
<!-- Node10&#45;&gt;Node6 -->
<g id="edge10" class="edge">
<title>Node10&#45;&gt;Node6</title>
<path fill="none" stroke="midnightblue" d="M1034.71,-95.63C1060.88,-112.2 1114.6,-146.23 1145.74,-165.95"/>
<polygon fill="midnightblue" stroke="midnightblue" points="1143.93,-168.95 1154.25,-171.34 1147.68,-163.04 1143.93,-168.95"/>
</g>
<!-- Node12 -->
<g id="node12" class="node">
<title>Node12</title>
<g id="a_node12"><a xlink:href="group__asterics__support.html#ga284d9e0d170cf7cabc16ccd7e62d95bd" target="_top" xlink:title=" ">
<polygon fill="none" stroke="black" points="1142,-32.5 1142,-51.5 1199,-51.5 1199,-32.5 1142,-32.5"/>
<text text-anchor="middle" x="1170.5" y="-39.5" font-family="Helvetica,sans-Serif" font-size="10.00">as_yield</text>
</a>
</g>
</g>
<!-- Node11&#45;&gt;Node12 -->
<g id="edge12" class="edge">
<title>Node11&#45;&gt;Node12</title>
<path fill="none" stroke="midnightblue" d="M1048.07,-42C1071.75,-42 1105.62,-42 1131.57,-42"/>
<polygon fill="midnightblue" stroke="midnightblue" points="1131.8,-45.5 1141.8,-42 1131.8,-38.5 1131.8,-45.5"/>
</g>
<!-- Node13 -->
<g id="node13" class="node">
<title>Node13</title>
<g id="a_node13"><a xlink:href="group__asterics__support.html#gad294e0c5530bd6fb800a2394179070e1" target="_top" xlink:title=" ">
<polygon fill="none" stroke="black" points="1280.5,-51.5 1280.5,-70.5 1370.5,-70.5 1370.5,-51.5 1280.5,-51.5"/>
<text text-anchor="middle" x="1325.5" y="-58.5" font-family="Helvetica,sans-Serif" font-size="10.00">as_mutex_lock</text>
</a>
</g>
</g>
<!-- Node12&#45;&gt;Node13 -->
<g id="edge13" class="edge">
<title>Node12&#45;&gt;Node13</title>
<path fill="none" stroke="midnightblue" d="M1199.21,-45.44C1219.02,-47.9 1246.34,-51.29 1270.41,-54.28"/>
<polygon fill="midnightblue" stroke="midnightblue" points="1270.14,-57.78 1280.49,-55.53 1271,-50.83 1270.14,-57.78"/>
</g>
<!-- Node14 -->
<g id="node14" class="node">
<title>Node14</title>
<g id="a_node14"><a xlink:href="group__asterics__support.html#ga07e09e825f2608339f6213edb9d0c8b3" target="_top" xlink:title=" ">
<polygon fill="none" stroke="black" points="1274.5,-13.5 1274.5,-32.5 1376.5,-32.5 1376.5,-13.5 1274.5,-13.5"/>
<text text-anchor="middle" x="1325.5" y="-20.5" font-family="Helvetica,sans-Serif" font-size="10.00">as_mutex_unlock</text>
</a>
</g>
</g>
<!-- Node12&#45;&gt;Node14 -->
<g id="edge14" class="edge">
<title>Node12&#45;&gt;Node14</title>
<path fill="none" stroke="midnightblue" d="M1199.21,-38.56C1217.35,-36.31 1241.79,-33.27 1264.26,-30.48"/>
<polygon fill="midnightblue" stroke="midnightblue" points="1264.92,-33.93 1274.41,-29.22 1264.06,-26.98 1264.92,-33.93"/>
</g>
<!-- Node15&#45;&gt;Node11 -->
<g id="edge18" class="edge">
<title>Node15&#45;&gt;Node11</title>
<path fill="none" stroke="midnightblue" d="M915.08,-190.48C920.18,-187.99 924.94,-184.88 929,-181 967.4,-144.27 930.12,-107.08 965,-67 969.03,-62.37 974.12,-58.52 979.52,-55.35"/>
<polygon fill="midnightblue" stroke="midnightblue" points="981.46,-58.29 988.79,-50.64 978.29,-52.05 981.46,-58.29"/>
</g>
<!-- Node16 -->
<g id="node16" class="node">
<title>Node16</title>
<g id="a_node16"><a xlink:href="group__as__iic__bitchecks.html#ga4629e4514c3531d0bcd44ae20abc6bad" target="_top" xlink:title=" ">
<polygon fill="none" stroke="black" points="969,-190.5 969,-209.5 1068,-209.5 1068,-190.5 969,-190.5"/>
<text text-anchor="middle" x="1018.5" y="-197.5" font-family="Helvetica,sans-Serif" font-size="10.00">as_iic_is_waiting</text>
</a>
</g>
</g>
<!-- Node15&#45;&gt;Node16 -->
<g id="edge16" class="edge">
<title>Node15&#45;&gt;Node16</title>
<path fill="none" stroke="midnightblue" d="M929.35,-200C939.1,-200 949.01,-200 958.51,-200"/>
<polygon fill="midnightblue" stroke="midnightblue" points="958.62,-203.5 968.62,-200 958.62,-196.5 958.62,-203.5"/>
</g>
<!-- Node16&#45;&gt;Node6 -->
<g id="edge17" class="edge">
<title>Node16&#45;&gt;Node6</title>
<path fill="none" stroke="midnightblue" d="M1068.2,-193.83C1078.12,-192.57 1088.74,-191.23 1099.24,-189.9"/>
<polygon fill="midnightblue" stroke="midnightblue" points="1099.76,-193.36 1109.24,-188.63 1098.88,-186.42 1099.76,-193.36"/>
</g>
<!-- Node18&#45;&gt;Node19 -->
<g id="edge22" class="edge">
<title>Node18&#45;&gt;Node19</title>
<path fill="none" stroke="midnightblue" d="M898.25,-247.59C919.3,-252.6 945.26,-258.79 967.57,-264.11"/>
<polygon fill="midnightblue" stroke="midnightblue" points="967,-267.57 977.54,-266.48 968.62,-260.76 967,-267.57"/>
</g>
<!-- Node20 -->
<g id="node20" class="node">
<title>Node20</title>
<g id="a_node20"><a xlink:href="group__asterics__support.html#ga6345b997e24a6cd5f9143cef27629d49" target="_top" xlink:title=" ">
<polygon fill="none" stroke="black" points="1131,-285.5 1131,-304.5 1210,-304.5 1210,-285.5 1131,-285.5"/>
<text text-anchor="middle" x="1170.5" y="-292.5" font-family="Helvetica,sans-Serif" font-size="10.00">as_reg_write</text>
</a>
</g>
</g>
<!-- Node19&#45;&gt;Node20 -->
<g id="edge23" class="edge">
<title>Node19&#45;&gt;Node20</title>
<path fill="none" stroke="midnightblue" d="M1070.7,-282.49C1086.85,-284.53 1104.65,-286.79 1120.63,-288.81"/>
<polygon fill="midnightblue" stroke="midnightblue" points="1120.48,-292.32 1130.84,-290.1 1121.36,-285.37 1120.48,-292.32"/>
</g>
<!-- Node21 -->
<g id="node21" class="node">
<title>Node21</title>
<g id="a_node21"><a xlink:href="group__asterics__support.html#gab651cc2c035ce61b354578434e59f822" target="_top" xlink:title=" ">
<polygon fill="none" stroke="black" points="1269,-285.5 1269,-304.5 1382,-304.5 1382,-285.5 1269,-285.5"/>
<text text-anchor="middle" x="1325.5" y="-292.5" font-family="Helvetica,sans-Serif" font-size="10.00">as_reg_from_uint32</text>
</a>
</g>
</g>
<!-- Node20&#45;&gt;Node21 -->
<g id="edge24" class="edge">
<title>Node20&#45;&gt;Node21</title>
<path fill="none" stroke="midnightblue" d="M1210.11,-295C1224.84,-295 1242.09,-295 1258.65,-295"/>
<polygon fill="midnightblue" stroke="midnightblue" points="1258.85,-298.5 1268.85,-295 1258.85,-291.5 1258.85,-298.5"/>
</g>
<!-- Node22&#45;&gt;Node7 -->
<g id="edge27" class="edge">
<title>Node22&#45;&gt;Node7</title>
<path fill="none" stroke="midnightblue" d="M1072.28,-352C1129.94,-352 1221.48,-352 1276.98,-352"/>
<polygon fill="midnightblue" stroke="midnightblue" points="1277.24,-355.5 1287.24,-352 1277.24,-348.5 1277.24,-355.5"/>
</g>
<!-- Node22&#45;&gt;Node20 -->
<g id="edge28" class="edge">
<title>Node22&#45;&gt;Node20</title>
<path fill="none" stroke="midnightblue" d="M1044.61,-342.46C1069.27,-333.09 1107.1,-318.71 1134.66,-308.24"/>
<polygon fill="midnightblue" stroke="midnightblue" points="1136.21,-311.4 1144.31,-304.57 1133.72,-304.85 1136.21,-311.4"/>
</g>
<!-- Node23&#45;&gt;Node5 -->
<g id="edge30" class="edge">
<title>Node23&#45;&gt;Node5</title>
<path fill="none" stroke="midnightblue" d="M734.86,-19.55C740.01,-22.05 744.82,-25.16 749,-29 786.57,-63.52 749.05,-101.8 785,-138 788.95,-141.98 793.59,-145.3 798.57,-148.07"/>
<polygon fill="midnightblue" stroke="midnightblue" points="797.29,-151.34 807.82,-152.49 800.3,-145.02 797.29,-151.34"/>
</g>
<!-- Node23&#45;&gt;Node9 -->
<g id="edge31" class="edge">
<title>Node23&#45;&gt;Node9</title>
<path fill="none" stroke="midnightblue" d="M724.95,-19.51C744.7,-22.9 767.17,-26.76 787.85,-30.31"/>
<polygon fill="midnightblue" stroke="midnightblue" points="787.4,-33.78 797.85,-32.02 788.58,-26.88 787.4,-33.78"/>
</g>
<!-- Node23&#45;&gt;Node11 -->
<g id="edge34" class="edge">
<title>Node23&#45;&gt;Node11</title>
<path fill="none" stroke="midnightblue" d="M749.17,-7.06C800.74,-6.41 869.19,-7.89 929,-17 946.22,-19.62 964.84,-24.55 980.53,-29.34"/>
<polygon fill="midnightblue" stroke="midnightblue" points="979.79,-32.78 990.38,-32.45 981.89,-26.1 979.79,-32.78"/>
</g>
<!-- Node23&#45;&gt;Node18 -->
<g id="edge32" class="edge">
<title>Node23&#45;&gt;Node18</title>
<path fill="none" stroke="midnightblue" d="M736.54,-19.58C741.14,-22.1 745.38,-25.2 749,-29 808.32,-91.19 726.52,-156.01 785,-219 786.22,-220.32 787.53,-221.55 788.9,-222.7"/>
<polygon fill="midnightblue" stroke="midnightblue" points="787.16,-225.74 797.41,-228.42 791.07,-219.94 787.16,-225.74"/>
</g>
<!-- Node23&#45;&gt;Node19 -->
<g id="edge33" class="edge">
<title>Node23&#45;&gt;Node19</title>
<path fill="none" stroke="midnightblue" d="M727.02,-19.61C734.68,-22.07 742.21,-25.14 749,-29 768.95,-40.34 766.67,-52.2 785,-66 842.99,-109.64 878.95,-90.45 929,-143 954.78,-170.06 944.1,-188.01 965,-219 974.93,-233.72 988.57,-248.41 999.46,-259.19"/>
<polygon fill="midnightblue" stroke="midnightblue" points="997.19,-261.86 1006.81,-266.29 1002.05,-256.83 997.19,-261.86"/>
</g>
<!-- Node24&#45;&gt;Node5 -->
<g id="edge37" class="edge">
<title>Node24&#45;&gt;Node5</title>
<path fill="none" stroke="midnightblue" d="M675.1,-304.22C689.75,-279.53 731.84,-214.23 785,-181 788.37,-178.89 791.98,-177.02 795.71,-175.35"/>
<polygon fill="midnightblue" stroke="midnightblue" points="797.16,-178.54 805.17,-171.61 794.59,-172.02 797.16,-178.54"/>
</g>
<!-- Node24&#45;&gt;Node15 -->
<g id="edge38" class="edge">
<title>Node24&#45;&gt;Node15</title>
<path fill="none" stroke="midnightblue" d="M678.38,-304.33C696.53,-285.15 739.97,-242.15 785,-219 789.49,-216.69 794.3,-214.64 799.21,-212.82"/>
<polygon fill="midnightblue" stroke="midnightblue" points="800.37,-216.13 808.73,-209.61 798.13,-209.49 800.37,-216.13"/>
</g>
<!-- Node24&#45;&gt;Node18 -->
<g id="edge42" class="edge">
<title>Node24&#45;&gt;Node18</title>
<path fill="none" stroke="midnightblue" d="M693.12,-304.37C726.05,-290.95 785.9,-266.57 823.16,-251.38"/>
<polygon fill="midnightblue" stroke="midnightblue" points="824.63,-254.56 832.57,-247.55 821.99,-248.08 824.63,-254.56"/>
</g>
<!-- Node24&#45;&gt;Node19 -->
<g id="edge43" class="edge">
<title>Node24&#45;&gt;Node19</title>
<path fill="none" stroke="midnightblue" d="M735.76,-309.06C788.27,-304.86 863.46,-298.21 929,-290 937.75,-288.9 946.96,-287.61 956,-286.25"/>
<polygon fill="midnightblue" stroke="midnightblue" points="956.75,-289.68 966.1,-284.71 955.69,-282.76 956.75,-289.68"/>
</g>
<!-- Node24&#45;&gt;Node22 -->
<g id="edge44" class="edge">
<title>Node24&#45;&gt;Node22</title>
<path fill="none" stroke="midnightblue" d="M735.78,-321.24C798.82,-328.12 892.98,-338.4 954.81,-345.15"/>
<polygon fill="midnightblue" stroke="midnightblue" points="954.5,-348.64 964.83,-346.25 955.26,-341.68 954.5,-348.64"/>
</g>
<!-- Node25 -->
<g id="node25" class="node">
<title>Node25</title>
<g id="a_node25"><a xlink:href="group__as__iic__bitchecks.html#ga2ef7a1f9767986f2033697f584cd4feb" target="_top" xlink:title=" ">
<polygon fill="none" stroke="black" points="802,-418.5 802,-437.5 912,-437.5 912,-418.5 802,-418.5"/>
<text text-anchor="middle" x="857" y="-425.5" font-family="Helvetica,sans-Serif" font-size="10.00">as_iic_is_readwrite</text>
</a>
</g>
</g>
<!-- Node24&#45;&gt;Node25 -->
<g id="edge39" class="edge">
<title>Node24&#45;&gt;Node25</title>
<path fill="none" stroke="midnightblue" d="M685.08,-323.52C717.58,-343.39 792.81,-389.37 831.72,-413.16"/>
<polygon fill="midnightblue" stroke="midnightblue" points="829.98,-416.19 840.33,-418.42 833.63,-410.22 829.98,-416.19"/>
</g>
<!-- Node26 -->
<g id="node26" class="node">
<title>Node26</title>
<g id="a_node26"><a xlink:href="group__as__iic__reg__funcs.html#gaca309e97934beed04c02e31ba9cfbd3a" target="_top" xlink:title=" ">
<polygon fill="none" stroke="black" points="1108,-389.5 1108,-408.5 1233,-408.5 1233,-389.5 1108,-389.5"/>
<text text-anchor="middle" x="1170.5" y="-396.5" font-family="Helvetica,sans-Serif" font-size="10.00">as_iic_get_control_reg</text>
</a>
</g>
</g>
<!-- Node25&#45;&gt;Node26 -->
<g id="edge40" class="edge">
<title>Node25&#45;&gt;Node26</title>
<path fill="none" stroke="midnightblue" d="M912.26,-422.95C963.62,-418.17 1041.07,-410.96 1097.56,-405.7"/>
<polygon fill="midnightblue" stroke="midnightblue" points="1098.22,-409.15 1107.85,-404.74 1097.57,-402.18 1098.22,-409.15"/>
</g>
<!-- Node26&#45;&gt;Node7 -->
<g id="edge41" class="edge">
<title>Node26&#45;&gt;Node7</title>
<path fill="none" stroke="midnightblue" d="M1202.46,-389.49C1225.82,-382.31 1258.08,-372.4 1283.57,-364.57"/>
<polygon fill="midnightblue" stroke="midnightblue" points="1284.79,-367.86 1293.32,-361.58 1282.74,-361.17 1284.79,-367.86"/>
</g>
</g>
</svg>
