<?xml version="1.0" encoding="UTF-8" standalone="no"?>
<!DOCTYPE svg PUBLIC "-//W3C//DTD SVG 1.1//EN"
 "http://www.w3.org/Graphics/SVG/1.1/DTD/svg11.dtd">
<!-- Generated by graphviz version 2.43.0 (0)
 -->
<!-- Title: as_buffer.h Pages: 1 -->
<svg width="469pt" height="252pt"
 viewBox="0.00 0.00 469.00 252.00" xmlns="http://www.w3.org/2000/svg" xmlns:xlink="http://www.w3.org/1999/xlink">
<g id="graph0" class="graph" transform="scale(1 1) rotate(0) translate(4 248)">
<title>as_buffer.h</title>
<!-- Node1 -->
<g id="node1" class="node">
<title>Node1</title>
<g id="a_node1"><a xlink:title="Header filer containing structure definitions for use of ASTERICS buffer objects.">
<polygon fill="#bfbfbf" stroke="black" points="233,-224.5 233,-243.5 304,-243.5 304,-224.5 233,-224.5"/>
<text text-anchor="middle" x="268.5" y="-231.5" font-family="Helvetica,sans-Serif" font-size="10.00">as_buffer.h</text>
</a>
</g>
</g>
<!-- Node2 -->
<g id="node2" class="node">
<title>Node2</title>
<g id="a_node2"><a xlink:href="as__buffer_8c.html" target="_top" xlink:title="Buffer implementation file.">
<polygon fill="none" stroke="black" points="0,-112.5 0,-131.5 71,-131.5 71,-112.5 0,-112.5"/>
<text text-anchor="middle" x="35.5" y="-119.5" font-family="Helvetica,sans-Serif" font-size="10.00">as_buffer.c</text>
</a>
</g>
</g>
<!-- Node1&#45;&gt;Node2 -->
<g id="edge1" class="edge">
<title>Node1&#45;&gt;Node2</title>
<path fill="none" stroke="midnightblue" d="M241.01,-220.02C192.82,-197.27 94.37,-150.79 53.7,-131.59"/>
<polygon fill="midnightblue" stroke="midnightblue" points="239.68,-223.26 250.22,-224.37 242.67,-216.93 239.68,-223.26"/>
</g>
<!-- Node3 -->
<g id="node3" class="node">
<title>Node3</title>
<g id="a_node3"><a xlink:href="as__cache_8h.html" target="_top" xlink:title=" ">
<polygon fill="none" stroke="black" points="183,-168.5 183,-187.5 254,-187.5 254,-168.5 183,-168.5"/>
<text text-anchor="middle" x="218.5" y="-175.5" font-family="Helvetica,sans-Serif" font-size="10.00">as_cache.h</text>
</a>
</g>
</g>
<!-- Node1&#45;&gt;Node3 -->
<g id="edge2" class="edge">
<title>Node1&#45;&gt;Node3</title>
<path fill="none" stroke="midnightblue" d="M253.42,-216.72C244.61,-207.2 233.83,-195.56 226.6,-187.75"/>
<polygon fill="midnightblue" stroke="midnightblue" points="250.88,-219.12 260.24,-224.08 256.02,-214.37 250.88,-219.12"/>
</g>
<!-- Node6 -->
<g id="node6" class="node">
<title>Node6</title>
<g id="a_node6"><a xlink:href="as__driver_8c.html" target="_top" xlink:title="Linux driver implementation.">
<polygon fill="none" stroke="black" points="284.5,-0.5 284.5,-19.5 354.5,-19.5 354.5,-0.5 284.5,-0.5"/>
<text text-anchor="middle" x="319.5" y="-7.5" font-family="Helvetica,sans-Serif" font-size="10.00">as_driver.c</text>
</a>
</g>
</g>
<!-- Node1&#45;&gt;Node6 -->
<g id="edge11" class="edge">
<title>Node1&#45;&gt;Node6</title>
<path fill="none" stroke="midnightblue" d="M273.09,-214.05C280.2,-184.57 294.24,-125.92 305.5,-76 310.02,-55.96 315.02,-32.36 317.65,-19.84"/>
<polygon fill="midnightblue" stroke="midnightblue" points="269.59,-213.62 270.65,-224.16 276.4,-215.26 269.59,-213.62"/>
</g>
<!-- Node7 -->
<g id="node7" class="node">
<title>Node7</title>
<g id="a_node7"><a xlink:href="as__linux__kernel__if_8h.html" target="_top" xlink:title=" ">
<polygon fill="none" stroke="black" points="348,-168.5 348,-187.5 461,-187.5 461,-168.5 348,-168.5"/>
<text text-anchor="middle" x="404.5" y="-175.5" font-family="Helvetica,sans-Serif" font-size="10.00">as_linux_kernel_if.h</text>
</a>
</g>
</g>
<!-- Node1&#45;&gt;Node7 -->
<g id="edge7" class="edge">
<title>Node1&#45;&gt;Node7</title>
<path fill="none" stroke="midnightblue" d="M299.63,-220.64C325.16,-210.5 360.61,-196.43 383.05,-187.52"/>
<polygon fill="midnightblue" stroke="midnightblue" points="298.05,-217.5 290.05,-224.44 300.64,-224.01 298.05,-217.5"/>
</g>
<!-- Node3&#45;&gt;Node2 -->
<g id="edge4" class="edge">
<title>Node3&#45;&gt;Node2</title>
<path fill="none" stroke="midnightblue" d="M179.76,-165.57C145.24,-155.38 95.49,-140.7 64.36,-131.52"/>
<polygon fill="midnightblue" stroke="midnightblue" points="178.92,-168.97 189.5,-168.44 180.9,-162.26 178.92,-168.97"/>
</g>
<!-- Node4 -->
<g id="node4" class="node">
<title>Node4</title>
<g id="a_node4"><a xlink:href="as__memio_8c.html" target="_top" xlink:title=" ">
<polygon fill="none" stroke="black" points="89.5,-112.5 89.5,-131.5 165.5,-131.5 165.5,-112.5 89.5,-112.5"/>
<text text-anchor="middle" x="127.5" y="-119.5" font-family="Helvetica,sans-Serif" font-size="10.00">as_memio.c</text>
</a>
</g>
</g>
<!-- Node3&#45;&gt;Node4 -->
<g id="edge3" class="edge">
<title>Node3&#45;&gt;Node4</title>
<path fill="none" stroke="midnightblue" d="M195.21,-163.18C178.46,-153.24 156.4,-140.15 142.08,-131.65"/>
<polygon fill="midnightblue" stroke="midnightblue" points="193.49,-166.23 203.88,-168.32 197.07,-160.21 193.49,-166.23"/>
</g>
<!-- Node5 -->
<g id="node5" class="node">
<title>Node5</title>
<g id="a_node5"><a xlink:href="as__cache_8c.html" target="_top" xlink:title=" ">
<polygon fill="none" stroke="black" points="183.5,-112.5 183.5,-131.5 253.5,-131.5 253.5,-112.5 183.5,-112.5"/>
<text text-anchor="middle" x="218.5" y="-119.5" font-family="Helvetica,sans-Serif" font-size="10.00">as_cache.c</text>
</a>
</g>
</g>
<!-- Node3&#45;&gt;Node5 -->
<g id="edge5" class="edge">
<title>Node3&#45;&gt;Node5</title>
<path fill="none" stroke="midnightblue" d="M218.5,-157.8C218.5,-148.91 218.5,-138.78 218.5,-131.75"/>
<polygon fill="midnightblue" stroke="midnightblue" points="215,-158.08 218.5,-168.08 222,-158.08 215,-158.08"/>
</g>
<!-- Node3&#45;&gt;Node6 -->
<g id="edge6" class="edge">
<title>Node3&#45;&gt;Node6</title>
<path fill="none" stroke="midnightblue" d="M236.02,-161.71C244.72,-153.5 254.96,-142.85 262.5,-132 289.26,-93.48 309.28,-40.41 316.53,-19.74"/>
<polygon fill="midnightblue" stroke="midnightblue" points="233.6,-159.17 228.58,-168.5 238.32,-164.34 233.6,-159.17"/>
</g>
<!-- Node8 -->
<g id="node8" class="node">
<title>Node8</title>
<g id="a_node8"><a xlink:href="as__support__linux_8h.html" target="_top" xlink:title=" ">
<polygon fill="none" stroke="black" points="349.5,-112.5 349.5,-131.5 457.5,-131.5 457.5,-112.5 349.5,-112.5"/>
<text text-anchor="middle" x="403.5" y="-119.5" font-family="Helvetica,sans-Serif" font-size="10.00">as_support_linux.h</text>
</a>
</g>
</g>
<!-- Node7&#45;&gt;Node8 -->
<g id="edge8" class="edge">
<title>Node7&#45;&gt;Node8</title>
<path fill="none" stroke="midnightblue" d="M404.14,-157.8C403.98,-148.91 403.79,-138.78 403.66,-131.75"/>
<polygon fill="midnightblue" stroke="midnightblue" points="400.65,-158.15 404.33,-168.08 407.65,-158.02 400.65,-158.15"/>
</g>
<!-- Node9 -->
<g id="node9" class="node">
<title>Node9</title>
<g id="a_node9"><a xlink:href="as__driver_8h.html" target="_top" xlink:title="Linux kernel driver header file.">
<polygon fill="none" stroke="black" points="358,-56.5 358,-75.5 429,-75.5 429,-56.5 358,-56.5"/>
<text text-anchor="middle" x="393.5" y="-63.5" font-family="Helvetica,sans-Serif" font-size="10.00">as_driver.h</text>
</a>
</g>
</g>
<!-- Node8&#45;&gt;Node9 -->
<g id="edge9" class="edge">
<title>Node8&#45;&gt;Node9</title>
<path fill="none" stroke="midnightblue" d="M400,-102.1C398.34,-93.14 396.44,-82.86 395.12,-75.75"/>
<polygon fill="midnightblue" stroke="midnightblue" points="396.59,-102.89 401.85,-112.08 403.47,-101.61 396.59,-102.89"/>
</g>
<!-- Node9&#45;&gt;Node6 -->
<g id="edge10" class="edge">
<title>Node9&#45;&gt;Node6</title>
<path fill="none" stroke="midnightblue" d="M373.47,-50.38C360.09,-40.62 342.94,-28.11 331.61,-19.83"/>
<polygon fill="midnightblue" stroke="midnightblue" points="371.47,-53.26 381.61,-56.32 375.6,-47.6 371.47,-53.26"/>
</g>
</g>
</svg>
