<?xml version="1.0" encoding="UTF-8" standalone="no"?>
<!DOCTYPE svg PUBLIC "-//W3C//DTD SVG 1.1//EN"
 "http://www.w3.org/Graphics/SVG/1.1/DTD/svg11.dtd">
<!-- Generated by graphviz version 2.43.0 (0)
 -->
<!-- Title: as_sensor_ov7670_identify Pages: 1 -->
<svg width="1887pt" height="446pt"
 viewBox="0.00 0.00 1887.00 446.13" xmlns="http://www.w3.org/2000/svg" xmlns:xlink="http://www.w3.org/1999/xlink">
<g id="graph0" class="graph" transform="scale(1 1) rotate(0) translate(4 442.13)">
<title>as_sensor_ov7670_identify</title>
<!-- Node1 -->
<g id="node1" class="node">
<title>Node1</title>
<g id="a_node1"><a xlink:title=" ">
<polygon fill="#bfbfbf" stroke="black" points="0,-295.68 0,-314.68 149,-314.68 149,-295.68 0,-295.68"/>
<text text-anchor="middle" x="74.5" y="-302.68" font-family="Helvetica,sans-Serif" font-size="10.00">as_sensor_ov7670_identify</text>
</a>
</g>
</g>
<!-- Node2 -->
<g id="node2" class="node">
<title>Node2</title>
<g id="a_node2"><a xlink:href="as__sensor__ov7670_8c.html#a4af880494f665dfc2d878bcd991246d3" target="_top" xlink:title=" ">
<polygon fill="none" stroke="black" points="185,-314.68 185,-333.68 319,-333.68 319,-314.68 185,-314.68"/>
<text text-anchor="middle" x="252" y="-321.68" font-family="Helvetica,sans-Serif" font-size="10.00">ov7670_get_iic_channel</text>
</a>
</g>
</g>
<!-- Node1&#45;&gt;Node2 -->
<g id="edge1" class="edge">
<title>Node1&#45;&gt;Node2</title>
<path fill="none" stroke="midnightblue" d="M149.16,-313.15C157.57,-314.06 166.15,-314.99 174.58,-315.9"/>
<polygon fill="midnightblue" stroke="midnightblue" points="174.47,-319.41 184.78,-317.01 175.22,-312.45 174.47,-319.41"/>
</g>
<!-- Node3 -->
<g id="node3" class="node">
<title>Node3</title>
<g id="a_node3"><a xlink:href="as__sensor__ov7670_8c.html#acb25afaea3e81940c50e327c45921f08" target="_top" xlink:title=" ">
<polygon fill="none" stroke="black" points="196.5,-276.68 196.5,-295.68 307.5,-295.68 307.5,-276.68 196.5,-276.68"/>
<text text-anchor="middle" x="252" y="-283.68" font-family="Helvetica,sans-Serif" font-size="10.00">ov7670_iic_reg_get</text>
</a>
</g>
</g>
<!-- Node1&#45;&gt;Node3 -->
<g id="edge2" class="edge">
<title>Node1&#45;&gt;Node3</title>
<path fill="none" stroke="midnightblue" d="M149.16,-297.2C161.55,-295.86 174.32,-294.48 186.45,-293.17"/>
<polygon fill="midnightblue" stroke="midnightblue" points="186.9,-296.64 196.47,-292.08 186.15,-289.68 186.9,-296.64"/>
</g>
<!-- Node4 -->
<g id="node4" class="node">
<title>Node4</title>
<g id="a_node4"><a xlink:href="group__as__iic__user.html#ga812d9e16a61b39777a5fbffc7eccbc8d" target="_top" xlink:title=" ">
<polygon fill="none" stroke="black" points="355,-276.68 355,-295.68 447,-295.68 447,-276.68 355,-276.68"/>
<text text-anchor="middle" x="401" y="-283.68" font-family="Helvetica,sans-Serif" font-size="10.00">as_iic_read_reg</text>
</a>
</g>
</g>
<!-- Node3&#45;&gt;Node4 -->
<g id="edge3" class="edge">
<title>Node3&#45;&gt;Node4</title>
<path fill="none" stroke="midnightblue" d="M307.74,-286.18C319.73,-286.18 332.44,-286.18 344.47,-286.18"/>
<polygon fill="midnightblue" stroke="midnightblue" points="344.83,-289.68 354.83,-286.18 344.83,-282.68 344.83,-289.68"/>
</g>
<!-- Node5 -->
<g id="node5" class="node">
<title>Node5</title>
<g id="a_node5"><a xlink:href="group__as__iic__user.html#gacf3e3b915e1f15ed8bdc60ab4c129996" target="_top" xlink:title=" ">
<polygon fill="none" stroke="black" points="487.5,-238.68 487.5,-257.68 579.5,-257.68 579.5,-238.68 487.5,-238.68"/>
<text text-anchor="middle" x="533.5" y="-245.68" font-family="Helvetica,sans-Serif" font-size="10.00">as_iic_get_byte</text>
</a>
</g>
</g>
<!-- Node4&#45;&gt;Node5 -->
<g id="edge4" class="edge">
<title>Node4&#45;&gt;Node5</title>
<path fill="none" stroke="midnightblue" d="M434.93,-276.59C451.62,-271.73 472.09,-265.77 489.96,-260.56"/>
<polygon fill="midnightblue" stroke="midnightblue" points="490.96,-263.92 499.58,-257.76 489,-257.2 490.96,-263.92"/>
</g>
<!-- Node14 -->
<g id="node14" class="node">
<title>Node14</title>
<g id="a_node14"><a xlink:href="group__asterics__support.html#gab803703ab5b845023ca31b7b2664419c" target="_top" xlink:title=" ">
<polygon fill="none" stroke="black" points="1353,-311.68 1353,-330.68 1412,-330.68 1412,-311.68 1353,-311.68"/>
<text text-anchor="middle" x="1382.5" y="-318.68" font-family="Helvetica,sans-Serif" font-size="10.00">as_sleep</text>
</a>
</g>
</g>
<!-- Node4&#45;&gt;Node14 -->
<g id="edge49" class="edge">
<title>Node4&#45;&gt;Node14</title>
<path fill="none" stroke="midnightblue" d="M412.3,-295.8C447.26,-327.43 565.82,-426.18 683,-426.18 683,-426.18 683,-426.18 1033.5,-426.18 1149.14,-426.18 1191.53,-462.64 1293,-407.18 1316.4,-394.39 1309.98,-377.87 1329,-359.18 1337.51,-350.81 1347.99,-342.85 1357.33,-336.4"/>
<polygon fill="midnightblue" stroke="midnightblue" points="1359.48,-339.18 1365.85,-330.71 1355.59,-333.35 1359.48,-339.18"/>
</g>
<!-- Node29 -->
<g id="node29" class="node">
<title>Node29</title>
<g id="a_node29"><a xlink:href="group__as__iic__user.html#ga35cd65c29b1f4abd1ca87ca51605e5cc" target="_top" xlink:title=" ">
<polygon fill="none" stroke="black" points="483,-276.68 483,-295.68 584,-295.68 584,-276.68 483,-276.68"/>
<text text-anchor="middle" x="533.5" y="-283.68" font-family="Helvetica,sans-Serif" font-size="10.00">as_iic_write_byte</text>
</a>
</g>
</g>
<!-- Node4&#45;&gt;Node29 -->
<g id="edge45" class="edge">
<title>Node4&#45;&gt;Node29</title>
<path fill="none" stroke="midnightblue" d="M447.28,-286.18C455.44,-286.18 464.07,-286.18 472.57,-286.18"/>
<polygon fill="midnightblue" stroke="midnightblue" points="472.85,-289.68 482.85,-286.18 472.85,-282.68 472.85,-289.68"/>
</g>
<!-- Node6 -->
<g id="node6" class="node">
<title>Node6</title>
<g id="a_node6"><a xlink:href="group__as__iic__user.html#ga30385c0c387c1629188745edf9c824c1" target="_top" xlink:title=" ">
<polygon fill="none" stroke="black" points="624.5,-219.68 624.5,-238.68 743.5,-238.68 743.5,-219.68 624.5,-219.68"/>
<text text-anchor="middle" x="684" y="-226.68" font-family="Helvetica,sans-Serif" font-size="10.00">as_iic_get_byte_mod</text>
</a>
</g>
</g>
<!-- Node5&#45;&gt;Node6 -->
<g id="edge5" class="edge">
<title>Node5&#45;&gt;Node6</title>
<path fill="none" stroke="midnightblue" d="M579.86,-242.37C590.75,-240.98 602.61,-239.46 614.3,-237.97"/>
<polygon fill="midnightblue" stroke="midnightblue" points="615.01,-241.41 624.49,-236.66 614.12,-234.46 615.01,-241.41"/>
</g>
<!-- Node7 -->
<g id="node7" class="node">
<title>Node7</title>
<g id="a_node7"><a xlink:href="group__as__iic__helpers.html#ga53e6050a2c66be89ac23084fd9de9c23" target="_top" xlink:title=" ">
<polygon fill="none" stroke="black" points="784,-219.68 784,-238.68 916,-238.68 916,-219.68 784,-219.68"/>
<text text-anchor="middle" x="850" y="-226.68" font-family="Helvetica,sans-Serif" font-size="10.00">as_iic_start_transaction</text>
</a>
</g>
</g>
<!-- Node6&#45;&gt;Node7 -->
<g id="edge6" class="edge">
<title>Node6&#45;&gt;Node7</title>
<path fill="none" stroke="midnightblue" d="M743.74,-229.18C753.53,-229.18 763.8,-229.18 773.93,-229.18"/>
<polygon fill="midnightblue" stroke="midnightblue" points="773.99,-232.68 783.99,-229.18 773.99,-225.68 773.99,-232.68"/>
</g>
<!-- Node27 -->
<g id="node27" class="node">
<title>Node27</title>
<g id="a_node27"><a xlink:href="group__as__iic__helpers.html#gaa8ce9ac10b8c2ca9b614110ca5cbeff5" target="_top" xlink:title=" ">
<polygon fill="none" stroke="black" points="953.5,-62.68 953.5,-81.68 1111.5,-81.68 1111.5,-62.68 953.5,-62.68"/>
<text text-anchor="middle" x="1032.5" y="-69.68" font-family="Helvetica,sans-Serif" font-size="10.00">as_iic_stop_read_transaction</text>
</a>
</g>
</g>
<!-- Node6&#45;&gt;Node27 -->
<g id="edge38" class="edge">
<title>Node6&#45;&gt;Node27</title>
<path fill="none" stroke="midnightblue" d="M701.72,-219.59C743.1,-196.16 854.04,-135.04 952,-96.18 962.57,-91.98 974.17,-88.1 985.16,-84.73"/>
<polygon fill="midnightblue" stroke="midnightblue" points="986.46,-87.99 995.04,-81.78 984.46,-81.28 986.46,-87.99"/>
</g>
<!-- Node8 -->
<g id="node8" class="node">
<title>Node8</title>
<g id="a_node8"><a xlink:href="group__as__iic__bitchecks.html#gaa4e8718c748b5a7e956a38ffd6dbe15d" target="_top" xlink:title=" ">
<polygon fill="none" stroke="black" points="1164,-340.68 1164,-359.68 1278,-359.68 1278,-340.68 1164,-340.68"/>
<text text-anchor="middle" x="1221" y="-347.68" font-family="Helvetica,sans-Serif" font-size="10.00">as_iic_ack_received</text>
</a>
</g>
</g>
<!-- Node7&#45;&gt;Node8 -->
<g id="edge7" class="edge">
<title>Node7&#45;&gt;Node8</title>
<path fill="none" stroke="midnightblue" d="M858.35,-238.88C873.48,-258.03 910.21,-300.44 952,-319.18 1016.27,-348 1097.52,-353.65 1153.62,-353.42"/>
<polygon fill="midnightblue" stroke="midnightblue" points="1153.83,-356.92 1163.79,-353.31 1153.75,-349.92 1153.83,-356.92"/>
</g>
<!-- Node12 -->
<g id="node12" class="node">
<title>Node12</title>
<g id="a_node12"><a xlink:href="group__as__iic__wait.html#gad3cfec26b8a73166e060108cf1444a2b" target="_top" xlink:title=" ">
<polygon fill="none" stroke="black" points="1162,-253.18 1162,-283.18 1280,-283.18 1280,-253.18 1162,-253.18"/>
<text text-anchor="start" x="1170" y="-271.18" font-family="Helvetica,sans-Serif" font-size="10.00">as_iic_busy_wait_for</text>
<text text-anchor="middle" x="1221" y="-260.18" font-family="Helvetica,sans-Serif" font-size="10.00">_hwready</text>
</a>
</g>
</g>
<!-- Node7&#45;&gt;Node12 -->
<g id="edge11" class="edge">
<title>Node7&#45;&gt;Node12</title>
<path fill="none" stroke="midnightblue" d="M916.12,-236.06C982.34,-243.06 1084.52,-253.86 1151.83,-260.97"/>
<polygon fill="midnightblue" stroke="midnightblue" points="1151.59,-264.47 1161.91,-262.04 1152.33,-257.51 1151.59,-264.47"/>
</g>
<!-- Node13 -->
<g id="node13" class="node">
<title>Node13</title>
<g id="a_node13"><a xlink:href="group__as__iic__user.html#gacdb0c71d0fcfe5e50a7f7316762cd0c0" target="_top" xlink:title=" ">
<polygon fill="none" stroke="black" points="1337,-235.68 1337,-254.68 1428,-254.68 1428,-235.68 1337,-235.68"/>
<text text-anchor="middle" x="1382.5" y="-242.68" font-family="Helvetica,sans-Serif" font-size="10.00">as_iic_is_ready</text>
</a>
</g>
</g>
<!-- Node7&#45;&gt;Node13 -->
<g id="edge23" class="edge">
<title>Node7&#45;&gt;Node13</title>
<path fill="none" stroke="midnightblue" d="M916.05,-231.14C1021.6,-234.32 1228.27,-240.56 1326.77,-243.53"/>
<polygon fill="midnightblue" stroke="midnightblue" points="1326.71,-247.03 1336.81,-243.83 1326.92,-240.03 1326.71,-247.03"/>
</g>
<!-- Node18 -->
<g id="node18" class="node">
<title>Node18</title>
<g id="a_node18"><a xlink:href="group__as__iic__wait.html#ga0bc5aad64893b674c42943fb64d17676" target="_top" xlink:title=" ">
<polygon fill="none" stroke="black" points="1149,-378.68 1149,-397.68 1293,-397.68 1293,-378.68 1149,-378.68"/>
<text text-anchor="middle" x="1221" y="-385.68" font-family="Helvetica,sans-Serif" font-size="10.00">as_iic_busy_wait_for_wait</text>
</a>
</g>
</g>
<!-- Node7&#45;&gt;Node18 -->
<g id="edge18" class="edge">
<title>Node7&#45;&gt;Node18</title>
<path fill="none" stroke="midnightblue" d="M855.98,-239.02C868.49,-262.59 903.7,-322.3 952,-349.18 1008.95,-380.87 1082.81,-389.68 1138.56,-391.09"/>
<polygon fill="midnightblue" stroke="midnightblue" points="1138.69,-394.59 1148.75,-391.27 1138.82,-387.59 1138.69,-394.59"/>
</g>
<!-- Node20 -->
<g id="node20" class="node">
<title>Node20</title>
<g id="a_node20"><a xlink:href="group__as__iic__bitchecks.html#gad90ab4c2ed7fbca8f768c87cdb5794ee" target="_top" xlink:title=" ">
<polygon fill="none" stroke="black" points="977,-138.68 977,-157.68 1088,-157.68 1088,-138.68 977,-138.68"/>
<text text-anchor="middle" x="1032.5" y="-145.68" font-family="Helvetica,sans-Serif" font-size="10.00">as_iic_is_initialized</text>
</a>
</g>
</g>
<!-- Node7&#45;&gt;Node20 -->
<g id="edge22" class="edge">
<title>Node7&#45;&gt;Node20</title>
<path fill="none" stroke="midnightblue" d="M865.53,-219.61C884.7,-207.32 919.78,-185.93 952,-172.18 962.15,-167.84 973.34,-163.96 984.04,-160.63"/>
<polygon fill="midnightblue" stroke="midnightblue" points="985.11,-163.97 993.69,-157.75 983.1,-157.26 985.11,-163.97"/>
</g>
<!-- Node21 -->
<g id="node21" class="node">
<title>Node21</title>
<g id="a_node21"><a xlink:href="group__as__iic__user.html#gae03c311fae3d6a830878a2b0c2c1c2bf" target="_top" xlink:title=" ">
<polygon fill="none" stroke="black" points="1159,-100.68 1159,-119.68 1283,-119.68 1283,-100.68 1159,-100.68"/>
<text text-anchor="middle" x="1221" y="-107.68" font-family="Helvetica,sans-Serif" font-size="10.00">as_iic_reset_hw_state</text>
</a>
</g>
</g>
<!-- Node7&#45;&gt;Node21 -->
<g id="edge24" class="edge">
<title>Node7&#45;&gt;Node21</title>
<path fill="none" stroke="midnightblue" d="M857.14,-219.53C871.05,-198.63 907.28,-149.45 952,-129.18 1014.09,-101.03 1092.64,-98.83 1148.61,-102.12"/>
<polygon fill="midnightblue" stroke="midnightblue" points="1148.58,-105.63 1158.79,-102.8 1149.04,-98.64 1148.58,-105.63"/>
</g>
<!-- Node22 -->
<g id="node22" class="node">
<title>Node22</title>
<g id="a_node22"><a xlink:href="group__as__iic__reg__funcs.html#gac83a48fc09234a7a99adafb1ce565eb0" target="_top" xlink:title=" ">
<polygon fill="none" stroke="black" points="1330.5,-100.68 1330.5,-119.68 1434.5,-119.68 1434.5,-100.68 1330.5,-100.68"/>
<text text-anchor="middle" x="1382.5" y="-107.68" font-family="Helvetica,sans-Serif" font-size="10.00">as_iic_set_control</text>
</a>
</g>
</g>
<!-- Node7&#45;&gt;Node22 -->
<g id="edge28" class="edge">
<title>Node7&#45;&gt;Node22</title>
<path fill="none" stroke="midnightblue" d="M853.18,-219.27C860.59,-188.2 888.04,-92.42 952,-53.18 1081.24,26.11 1149.27,5.09 1293,-43.18 1322.2,-52.98 1349.44,-76.67 1365.78,-93.07"/>
<polygon fill="midnightblue" stroke="midnightblue" points="1363.43,-95.68 1372.89,-100.45 1368.47,-90.82 1363.43,-95.68"/>
</g>
<!-- Node25 -->
<g id="node25" class="node">
<title>Node25</title>
<g id="a_node25"><a xlink:href="group__as__iic__reg__funcs.html#ga8058473baeded71954aa72ee8df24e9b" target="_top" xlink:title=" ">
<polygon fill="none" stroke="black" points="1329,-138.68 1329,-157.68 1436,-157.68 1436,-138.68 1329,-138.68"/>
<text text-anchor="middle" x="1382.5" y="-145.68" font-family="Helvetica,sans-Serif" font-size="10.00">as_iic_set_data_tx</text>
</a>
</g>
</g>
<!-- Node7&#45;&gt;Node25 -->
<g id="edge29" class="edge">
<title>Node7&#45;&gt;Node25</title>
<path fill="none" stroke="midnightblue" d="M913.42,-219.65C1015.36,-204.08 1216.47,-173.38 1318.68,-157.77"/>
<polygon fill="midnightblue" stroke="midnightblue" points="1319.49,-161.19 1328.85,-156.22 1318.44,-154.27 1319.49,-161.19"/>
</g>
<!-- Node26 -->
<g id="node26" class="node">
<title>Node26</title>
<g id="a_node26"><a xlink:href="group__as__iic__helpers.html#ga67cc002a1b20c75dc26f7b328ca5ddc9" target="_top" xlink:title=" ">
<polygon fill="none" stroke="black" points="952,-290.68 952,-309.68 1113,-309.68 1113,-290.68 952,-290.68"/>
<text text-anchor="middle" x="1032.5" y="-297.68" font-family="Helvetica,sans-Serif" font-size="10.00">as_iic_stop_write_transaction</text>
</a>
</g>
</g>
<!-- Node7&#45;&gt;Node26 -->
<g id="edge32" class="edge">
<title>Node7&#45;&gt;Node26</title>
<path fill="none" stroke="midnightblue" d="M869.64,-238.83C889.65,-248.96 922.54,-264.94 952,-276.18 962.94,-280.35 974.94,-284.29 986.22,-287.73"/>
<polygon fill="midnightblue" stroke="midnightblue" points="985.33,-291.11 995.91,-290.61 987.33,-284.4 985.33,-291.11"/>
</g>
<!-- Node9 -->
<g id="node9" class="node">
<title>Node9</title>
<g id="a_node9"><a xlink:href="group__as__iic__reg__funcs.html#ga8daa8fde0a7776aa2f5b335250b5aa2a" target="_top" xlink:title=" ">
<polygon fill="none" stroke="black" points="1472,-254.68 1472,-273.68 1594,-273.68 1594,-254.68 1472,-254.68"/>
<text text-anchor="middle" x="1533" y="-261.68" font-family="Helvetica,sans-Serif" font-size="10.00">as_iic_get_status_reg</text>
</a>
</g>
</g>
<!-- Node8&#45;&gt;Node9 -->
<g id="edge8" class="edge">
<title>Node8&#45;&gt;Node9</title>
<path fill="none" stroke="midnightblue" d="M1240.04,-340.49C1260.9,-329.67 1296.55,-312.33 1329,-302.18 1372.12,-288.68 1421.99,-279.26 1461.5,-273.18"/>
<polygon fill="midnightblue" stroke="midnightblue" points="1462.21,-276.61 1471.58,-271.66 1461.17,-269.69 1462.21,-276.61"/>
</g>
<!-- Node10 -->
<g id="node10" class="node">
<title>Node10</title>
<g id="a_node10"><a xlink:href="group__asterics__support.html#ga8e5c2bfd2e4498d10289377bd94cef07" target="_top" xlink:title=" ">
<polygon fill="none" stroke="black" points="1648.5,-138.68 1648.5,-157.68 1724.5,-157.68 1724.5,-138.68 1648.5,-138.68"/>
<text text-anchor="middle" x="1686.5" y="-145.68" font-family="Helvetica,sans-Serif" font-size="10.00">as_reg_read</text>
</a>
</g>
</g>
<!-- Node9&#45;&gt;Node10 -->
<g id="edge9" class="edge">
<title>Node9&#45;&gt;Node10</title>
<path fill="none" stroke="midnightblue" d="M1546.66,-254.49C1572.79,-234.48 1632.93,-188.43 1664.8,-164.03"/>
<polygon fill="midnightblue" stroke="midnightblue" points="1667.17,-166.62 1672.99,-157.76 1662.92,-161.06 1667.17,-166.62"/>
</g>
<!-- Node11 -->
<g id="node11" class="node">
<title>Node11</title>
<g id="a_node11"><a xlink:href="group__asterics__support.html#ga4c6d688b840a6e2edc9bc0b8ed961677" target="_top" xlink:title=" ">
<polygon fill="none" stroke="black" points="1779,-138.68 1779,-157.68 1879,-157.68 1879,-138.68 1779,-138.68"/>
<text text-anchor="middle" x="1829" y="-145.68" font-family="Helvetica,sans-Serif" font-size="10.00">as_reg_to_uint32</text>
</a>
</g>
</g>
<!-- Node10&#45;&gt;Node11 -->
<g id="edge10" class="edge">
<title>Node10&#45;&gt;Node11</title>
<path fill="none" stroke="midnightblue" d="M1724.78,-148.18C1738.26,-148.18 1753.83,-148.18 1768.72,-148.18"/>
<polygon fill="midnightblue" stroke="midnightblue" points="1768.89,-151.68 1778.89,-148.18 1768.89,-144.68 1768.89,-151.68"/>
</g>
<!-- Node12&#45;&gt;Node13 -->
<g id="edge12" class="edge">
<title>Node12&#45;&gt;Node13</title>
<path fill="none" stroke="midnightblue" d="M1280.03,-259.81C1295.23,-257.62 1311.57,-255.26 1326.6,-253.09"/>
<polygon fill="midnightblue" stroke="midnightblue" points="1327.37,-256.52 1336.76,-251.63 1326.37,-249.59 1327.37,-256.52"/>
</g>
<!-- Node12&#45;&gt;Node14 -->
<g id="edge14" class="edge">
<title>Node12&#45;&gt;Node14</title>
<path fill="none" stroke="midnightblue" d="M1267.28,-283.22C1291.19,-291.17 1320.21,-300.81 1343.02,-308.39"/>
<polygon fill="midnightblue" stroke="midnightblue" points="1342.11,-311.78 1352.7,-311.61 1344.32,-305.13 1342.11,-311.78"/>
</g>
<!-- Node13&#45;&gt;Node9 -->
<g id="edge13" class="edge">
<title>Node13&#45;&gt;Node9</title>
<path fill="none" stroke="midnightblue" d="M1428.05,-250.88C1438.69,-252.24 1450.31,-253.72 1461.79,-255.19"/>
<polygon fill="midnightblue" stroke="midnightblue" points="1461.46,-258.68 1471.82,-256.48 1462.34,-251.74 1461.46,-258.68"/>
</g>
<!-- Node15 -->
<g id="node15" class="node">
<title>Node15</title>
<g id="a_node15"><a xlink:href="group__asterics__support.html#ga284d9e0d170cf7cabc16ccd7e62d95bd" target="_top" xlink:title=" ">
<polygon fill="none" stroke="black" points="1504.5,-311.68 1504.5,-330.68 1561.5,-330.68 1561.5,-311.68 1504.5,-311.68"/>
<text text-anchor="middle" x="1533" y="-318.68" font-family="Helvetica,sans-Serif" font-size="10.00">as_yield</text>
</a>
</g>
</g>
<!-- Node14&#45;&gt;Node15 -->
<g id="edge15" class="edge">
<title>Node14&#45;&gt;Node15</title>
<path fill="none" stroke="midnightblue" d="M1412.13,-321.18C1435.54,-321.18 1468.82,-321.18 1494.38,-321.18"/>
<polygon fill="midnightblue" stroke="midnightblue" points="1494.46,-324.68 1504.46,-321.18 1494.46,-317.68 1494.46,-324.68"/>
</g>
<!-- Node16 -->
<g id="node16" class="node">
<title>Node16</title>
<g id="a_node16"><a xlink:href="group__asterics__support.html#gad294e0c5530bd6fb800a2394179070e1" target="_top" xlink:title=" ">
<polygon fill="none" stroke="black" points="1641.5,-330.68 1641.5,-349.68 1731.5,-349.68 1731.5,-330.68 1641.5,-330.68"/>
<text text-anchor="middle" x="1686.5" y="-337.68" font-family="Helvetica,sans-Serif" font-size="10.00">as_mutex_lock</text>
</a>
</g>
</g>
<!-- Node15&#45;&gt;Node16 -->
<g id="edge16" class="edge">
<title>Node15&#45;&gt;Node16</title>
<path fill="none" stroke="midnightblue" d="M1561.79,-324.66C1581.13,-327.09 1607.57,-330.4 1631.04,-333.35"/>
<polygon fill="midnightblue" stroke="midnightblue" points="1630.88,-336.85 1641.23,-334.63 1631.75,-329.91 1630.88,-336.85"/>
</g>
<!-- Node17 -->
<g id="node17" class="node">
<title>Node17</title>
<g id="a_node17"><a xlink:href="group__asterics__support.html#ga07e09e825f2608339f6213edb9d0c8b3" target="_top" xlink:title=" ">
<polygon fill="none" stroke="black" points="1635.5,-292.68 1635.5,-311.68 1737.5,-311.68 1737.5,-292.68 1635.5,-292.68"/>
<text text-anchor="middle" x="1686.5" y="-299.68" font-family="Helvetica,sans-Serif" font-size="10.00">as_mutex_unlock</text>
</a>
</g>
</g>
<!-- Node15&#45;&gt;Node17 -->
<g id="edge17" class="edge">
<title>Node15&#45;&gt;Node17</title>
<path fill="none" stroke="midnightblue" d="M1561.79,-317.69C1579.57,-315.46 1603.33,-312.48 1625.28,-309.73"/>
<polygon fill="midnightblue" stroke="midnightblue" points="1625.72,-313.2 1635.21,-308.48 1624.85,-306.26 1625.72,-313.2"/>
</g>
<!-- Node18&#45;&gt;Node14 -->
<g id="edge21" class="edge">
<title>Node18&#45;&gt;Node14</title>
<path fill="none" stroke="midnightblue" d="M1264.21,-378.64C1273.81,-375.98 1283.87,-372.81 1293,-369.18 1315.74,-360.11 1340.09,-346.6 1357.48,-336.22"/>
<polygon fill="midnightblue" stroke="midnightblue" points="1359.64,-339 1366.37,-330.82 1356.01,-333.02 1359.64,-339"/>
</g>
<!-- Node19 -->
<g id="node19" class="node">
<title>Node19</title>
<g id="a_node19"><a xlink:href="group__as__iic__bitchecks.html#ga4629e4514c3531d0bcd44ae20abc6bad" target="_top" xlink:title=" ">
<polygon fill="none" stroke="black" points="1333,-368.68 1333,-387.68 1432,-387.68 1432,-368.68 1333,-368.68"/>
<text text-anchor="middle" x="1382.5" y="-375.68" font-family="Helvetica,sans-Serif" font-size="10.00">as_iic_is_waiting</text>
</a>
</g>
</g>
<!-- Node18&#45;&gt;Node19 -->
<g id="edge19" class="edge">
<title>Node18&#45;&gt;Node19</title>
<path fill="none" stroke="midnightblue" d="M1293.35,-383.7C1303.1,-383.09 1313.01,-382.47 1322.51,-381.88"/>
<polygon fill="midnightblue" stroke="midnightblue" points="1322.85,-385.36 1332.62,-381.24 1322.42,-378.37 1322.85,-385.36"/>
</g>
<!-- Node19&#45;&gt;Node9 -->
<g id="edge20" class="edge">
<title>Node19&#45;&gt;Node9</title>
<path fill="none" stroke="midnightblue" d="M1398.31,-368.55C1409.14,-361.25 1423.98,-350.71 1436,-340.18 1453.5,-324.85 1454.04,-316.96 1472,-302.18 1482.41,-293.61 1494.88,-285.43 1505.75,-278.86"/>
<polygon fill="midnightblue" stroke="midnightblue" points="1507.58,-281.85 1514.42,-273.76 1504.02,-275.82 1507.58,-281.85"/>
</g>
<!-- Node21&#45;&gt;Node22 -->
<g id="edge25" class="edge">
<title>Node21&#45;&gt;Node22</title>
<path fill="none" stroke="midnightblue" d="M1283.21,-110.18C1295.36,-110.18 1308.11,-110.18 1320.26,-110.18"/>
<polygon fill="midnightblue" stroke="midnightblue" points="1320.3,-113.68 1330.3,-110.18 1320.3,-106.68 1320.3,-113.68"/>
</g>
<!-- Node23 -->
<g id="node23" class="node">
<title>Node23</title>
<g id="a_node23"><a xlink:href="group__asterics__support.html#ga6345b997e24a6cd5f9143cef27629d49" target="_top" xlink:title=" ">
<polygon fill="none" stroke="black" points="1493.5,-100.68 1493.5,-119.68 1572.5,-119.68 1572.5,-100.68 1493.5,-100.68"/>
<text text-anchor="middle" x="1533" y="-107.68" font-family="Helvetica,sans-Serif" font-size="10.00">as_reg_write</text>
</a>
</g>
</g>
<!-- Node22&#45;&gt;Node23 -->
<g id="edge26" class="edge">
<title>Node22&#45;&gt;Node23</title>
<path fill="none" stroke="midnightblue" d="M1434.61,-110.18C1450.28,-110.18 1467.49,-110.18 1483.02,-110.18"/>
<polygon fill="midnightblue" stroke="midnightblue" points="1483.47,-113.68 1493.47,-110.18 1483.47,-106.68 1483.47,-113.68"/>
</g>
<!-- Node24 -->
<g id="node24" class="node">
<title>Node24</title>
<g id="a_node24"><a xlink:href="group__asterics__support.html#gab651cc2c035ce61b354578434e59f822" target="_top" xlink:title=" ">
<polygon fill="none" stroke="black" points="1630,-100.68 1630,-119.68 1743,-119.68 1743,-100.68 1630,-100.68"/>
<text text-anchor="middle" x="1686.5" y="-107.68" font-family="Helvetica,sans-Serif" font-size="10.00">as_reg_from_uint32</text>
</a>
</g>
</g>
<!-- Node23&#45;&gt;Node24 -->
<g id="edge27" class="edge">
<title>Node23&#45;&gt;Node24</title>
<path fill="none" stroke="midnightblue" d="M1572.62,-110.18C1586.86,-110.18 1603.43,-110.18 1619.41,-110.18"/>
<polygon fill="midnightblue" stroke="midnightblue" points="1619.79,-113.68 1629.79,-110.18 1619.79,-106.68 1619.79,-113.68"/>
</g>
<!-- Node25&#45;&gt;Node10 -->
<g id="edge30" class="edge">
<title>Node25&#45;&gt;Node10</title>
<path fill="none" stroke="midnightblue" d="M1436.1,-148.18C1493.1,-148.18 1583.22,-148.18 1638.1,-148.18"/>
<polygon fill="midnightblue" stroke="midnightblue" points="1638.25,-151.68 1648.25,-148.18 1638.25,-144.68 1638.25,-151.68"/>
</g>
<!-- Node25&#45;&gt;Node23 -->
<g id="edge31" class="edge">
<title>Node25&#45;&gt;Node23</title>
<path fill="none" stroke="midnightblue" d="M1420.97,-138.59C1440.39,-133.62 1464.3,-127.5 1484.95,-122.22"/>
<polygon fill="midnightblue" stroke="midnightblue" points="1485.98,-125.57 1494.8,-119.7 1484.24,-118.79 1485.98,-125.57"/>
</g>
<!-- Node26&#45;&gt;Node8 -->
<g id="edge33" class="edge">
<title>Node26&#45;&gt;Node8</title>
<path fill="none" stroke="midnightblue" d="M1069.02,-309.7C1099,-317.74 1142.1,-329.29 1174.58,-338"/>
<polygon fill="midnightblue" stroke="midnightblue" points="1173.73,-341.4 1184.3,-340.61 1175.54,-334.64 1173.73,-341.4"/>
</g>
<!-- Node26&#45;&gt;Node12 -->
<g id="edge34" class="edge">
<title>Node26&#45;&gt;Node12</title>
<path fill="none" stroke="midnightblue" d="M1088.95,-290.66C1108.7,-287.27 1131.17,-283.42 1151.85,-279.87"/>
<polygon fill="midnightblue" stroke="midnightblue" points="1152.58,-283.3 1161.85,-278.16 1151.4,-276.4 1152.58,-283.3"/>
</g>
<!-- Node26&#45;&gt;Node14 -->
<g id="edge37" class="edge">
<title>Node26&#45;&gt;Node14</title>
<path fill="none" stroke="midnightblue" d="M1113.34,-305C1185.16,-309.33 1287.62,-315.51 1342.78,-318.84"/>
<polygon fill="midnightblue" stroke="midnightblue" points="1342.64,-322.34 1352.83,-319.45 1343.06,-315.35 1342.64,-322.34"/>
</g>
<!-- Node26&#45;&gt;Node21 -->
<g id="edge35" class="edge">
<title>Node26&#45;&gt;Node21</title>
<path fill="none" stroke="midnightblue" d="M1041.54,-290.51C1059.83,-268.67 1106.33,-214.16 1149,-172.18 1165.58,-155.87 1185.63,-138.56 1200.19,-126.39"/>
<polygon fill="midnightblue" stroke="midnightblue" points="1202.6,-128.94 1208.06,-119.86 1198.13,-123.55 1202.6,-128.94"/>
</g>
<!-- Node26&#45;&gt;Node22 -->
<g id="edge36" class="edge">
<title>Node26&#45;&gt;Node22</title>
<path fill="none" stroke="midnightblue" d="M1048.07,-290.49C1090.21,-262.75 1216.44,-181.61 1329,-129.18 1333.38,-127.14 1338.05,-125.17 1342.72,-123.32"/>
<polygon fill="midnightblue" stroke="midnightblue" points="1344.13,-126.54 1352.24,-119.73 1341.65,-119.99 1344.13,-126.54"/>
</g>
<!-- Node27&#45;&gt;Node12 -->
<g id="edge39" class="edge">
<title>Node27&#45;&gt;Node12</title>
<path fill="none" stroke="midnightblue" d="M1049.78,-81.86C1066.64,-92.31 1093.22,-110.06 1113,-129.18 1150.34,-165.27 1185.42,-214.96 1204.67,-244.12"/>
<polygon fill="midnightblue" stroke="midnightblue" points="1201.96,-246.36 1210.35,-252.82 1207.82,-242.53 1201.96,-246.36"/>
</g>
<!-- Node27&#45;&gt;Node14 -->
<g id="edge44" class="edge">
<title>Node27&#45;&gt;Node14</title>
<path fill="none" stroke="midnightblue" d="M1111.8,-67.91C1178.24,-66.04 1266.84,-68.26 1293,-91.18 1352.08,-142.93 1293.1,-194.33 1329,-264.18 1337.02,-279.78 1350.48,-294.27 1361.77,-304.74"/>
<polygon fill="midnightblue" stroke="midnightblue" points="1359.69,-307.58 1369.49,-311.61 1364.35,-302.35 1359.69,-307.58"/>
</g>
<!-- Node27&#45;&gt;Node21 -->
<g id="edge42" class="edge">
<title>Node27&#45;&gt;Node21</title>
<path fill="none" stroke="midnightblue" d="M1080.56,-81.77C1105.73,-86.89 1136.9,-93.24 1163.38,-98.64"/>
<polygon fill="midnightblue" stroke="midnightblue" points="1162.78,-102.09 1173.28,-100.66 1164.18,-95.23 1162.78,-102.09"/>
</g>
<!-- Node27&#45;&gt;Node22 -->
<g id="edge43" class="edge">
<title>Node27&#45;&gt;Node22</title>
<path fill="none" stroke="midnightblue" d="M1072.12,-62.63C1123.52,-51.6 1216.81,-37.45 1293,-58.18 1318.77,-65.19 1344.7,-81.81 1361.77,-94.39"/>
<polygon fill="midnightblue" stroke="midnightblue" points="1359.76,-97.26 1369.84,-100.53 1364,-91.69 1359.76,-97.26"/>
</g>
<!-- Node28 -->
<g id="node28" class="node">
<title>Node28</title>
<g id="a_node28"><a xlink:href="group__as__iic__reg__funcs.html#gace5813084165559c81fe11db6b628b5e" target="_top" xlink:title=" ">
<polygon fill="none" stroke="black" points="1479.5,-5.68 1479.5,-24.68 1586.5,-24.68 1586.5,-5.68 1479.5,-5.68"/>
<text text-anchor="middle" x="1533" y="-12.68" font-family="Helvetica,sans-Serif" font-size="10.00">as_iic_get_rx_byte</text>
</a>
</g>
</g>
<!-- Node27&#45;&gt;Node28 -->
<g id="edge40" class="edge">
<title>Node27&#45;&gt;Node28</title>
<path fill="none" stroke="midnightblue" d="M1065.55,-62.54C1088.56,-56.02 1120.42,-47.77 1149,-43.18 1260.75,-25.2 1392.71,-18.75 1468.94,-16.45"/>
<polygon fill="midnightblue" stroke="midnightblue" points="1469.42,-19.94 1479.32,-16.15 1469.22,-12.94 1469.42,-19.94"/>
</g>
<!-- Node28&#45;&gt;Node10 -->
<g id="edge41" class="edge">
<title>Node28&#45;&gt;Node10</title>
<path fill="none" stroke="midnightblue" d="M1541.69,-24.9C1562.46,-51.07 1618.9,-121.58 1630,-129.18 1632.86,-131.14 1635.94,-132.91 1639.13,-134.51"/>
<polygon fill="midnightblue" stroke="midnightblue" points="1637.77,-137.74 1648.33,-138.59 1640.61,-131.34 1637.77,-137.74"/>
</g>
<!-- Node30 -->
<g id="node30" class="node">
<title>Node30</title>
<g id="a_node30"><a xlink:href="group__as__iic__user.html#ga08fcff0dba9d6b4898291746d2206408" target="_top" xlink:title=" ">
<polygon fill="none" stroke="black" points="620,-276.68 620,-295.68 748,-295.68 748,-276.68 620,-276.68"/>
<text text-anchor="middle" x="684" y="-283.68" font-family="Helvetica,sans-Serif" font-size="10.00">as_iic_write_byte_mod</text>
</a>
</g>
</g>
<!-- Node29&#45;&gt;Node30 -->
<g id="edge46" class="edge">
<title>Node29&#45;&gt;Node30</title>
<path fill="none" stroke="midnightblue" d="M584.36,-286.18C592.54,-286.18 601.16,-286.18 609.76,-286.18"/>
<polygon fill="midnightblue" stroke="midnightblue" points="609.82,-289.68 619.82,-286.18 609.82,-282.68 609.82,-289.68"/>
</g>
<!-- Node30&#45;&gt;Node7 -->
<g id="edge47" class="edge">
<title>Node30&#45;&gt;Node7</title>
<path fill="none" stroke="midnightblue" d="M712.45,-276.64C739.65,-267.18 781.5,-252.64 811.7,-242.14"/>
<polygon fill="midnightblue" stroke="midnightblue" points="813.16,-245.34 821.46,-238.75 810.87,-238.73 813.16,-245.34"/>
</g>
<!-- Node30&#45;&gt;Node26 -->
<g id="edge48" class="edge">
<title>Node30&#45;&gt;Node26</title>
<path fill="none" stroke="midnightblue" d="M748.15,-288.73C802.22,-290.91 880.71,-294.08 941.38,-296.54"/>
<polygon fill="midnightblue" stroke="midnightblue" points="941.58,-300.05 951.72,-296.95 941.87,-293.05 941.58,-300.05"/>
</g>
</g>
</svg>
