<?xml version="1.0" encoding="UTF-8" standalone="no"?>
<!DOCTYPE svg PUBLIC "-//W3C//DTD SVG 1.1//EN"
 "http://www.w3.org/Graphics/SVG/1.1/DTD/svg11.dtd">
<!-- Generated by graphviz version 2.43.0 (0)
 -->
<!-- Title: as_memio_write Pages: 1 -->
<svg width="904pt" height="466pt"
 viewBox="0.00 0.00 904.00 465.50" xmlns="http://www.w3.org/2000/svg" xmlns:xlink="http://www.w3.org/1999/xlink">
<g id="graph0" class="graph" transform="scale(1 1) rotate(0) translate(4 461.5)">
<title>as_memio_write</title>
<!-- Node1 -->
<g id="node1" class="node">
<title>Node1</title>
<g id="a_node1"><a xlink:title=" ">
<polygon fill="#bfbfbf" stroke="black" points="0,-290 0,-309 98,-309 98,-290 0,-290"/>
<text text-anchor="middle" x="49" y="-297" font-family="Helvetica,sans-Serif" font-size="10.00">as_memio_write</text>
</a>
</g>
</g>
<!-- Node2 -->
<g id="node2" class="node">
<title>Node2</title>
<g id="a_node2"><a xlink:href="group__as__buffer.html#gaaaf34c6bc39c06372737bec6b12ad0bf" target="_top" xlink:title=" ">
<polygon fill="none" stroke="black" points="157,-378 157,-397 267,-397 267,-378 157,-378"/>
<text text-anchor="middle" x="212" y="-385" font-family="Helvetica,sans-Serif" font-size="10.00">as_buffer_dequeue</text>
</a>
</g>
</g>
<!-- Node1&#45;&gt;Node2 -->
<g id="edge1" class="edge">
<title>Node1&#45;&gt;Node2</title>
<path fill="none" stroke="midnightblue" d="M58.83,-309.11C73.14,-324.1 102.96,-352.93 134,-368.5 138.65,-370.83 143.6,-372.89 148.67,-374.7"/>
<polygon fill="midnightblue" stroke="midnightblue" points="147.92,-378.14 158.51,-377.9 150.08,-371.48 147.92,-378.14"/>
</g>
<!-- Node3 -->
<g id="node3" class="node">
<title>Node3</title>
<g id="a_node3"><a xlink:href="group__as__buffer.html#ga719a2b2644b1101082e5d05a0cbc1337" target="_top" xlink:title=" ">
<polygon fill="none" stroke="black" points="146.5,-328.5 146.5,-358.5 277.5,-358.5 277.5,-328.5 146.5,-328.5"/>
<text text-anchor="start" x="154.5" y="-346.5" font-family="Helvetica,sans-Serif" font-size="10.00">as_buffer_find_inactive</text>
<text text-anchor="middle" x="212" y="-335.5" font-family="Helvetica,sans-Serif" font-size="10.00">_buffer</text>
</a>
</g>
</g>
<!-- Node1&#45;&gt;Node3 -->
<g id="edge2" class="edge">
<title>Node1&#45;&gt;Node3</title>
<path fill="none" stroke="midnightblue" d="M84.93,-309.05C102.82,-313.93 125.18,-320.05 146.08,-325.76"/>
<polygon fill="midnightblue" stroke="midnightblue" points="145.31,-329.17 155.87,-328.43 147.15,-322.42 145.31,-329.17"/>
</g>
<!-- Node4 -->
<g id="node4" class="node">
<title>Node4</title>
<g id="a_node4"><a xlink:href="group__as__buffer.html#ga07ae3ddfeb05316df9cb59b962c29817" target="_top" xlink:title=" ">
<polygon fill="none" stroke="black" points="344.5,-438 344.5,-457 447.5,-457 447.5,-438 344.5,-438"/>
<text text-anchor="middle" x="396" y="-445" font-family="Helvetica,sans-Serif" font-size="10.00">as_buffer_inspect</text>
</a>
</g>
</g>
<!-- Node1&#45;&gt;Node4 -->
<g id="edge3" class="edge">
<title>Node1&#45;&gt;Node4</title>
<path fill="none" stroke="midnightblue" d="M93.69,-289.94C146.14,-281.15 234.01,-275.37 290,-319.5 330.07,-351.08 289.03,-393.34 326,-428.5 328.77,-431.14 331.88,-433.42 335.2,-435.38"/>
<polygon fill="midnightblue" stroke="midnightblue" points="333.87,-438.63 344.39,-439.9 336.96,-432.35 333.87,-438.63"/>
</g>
<!-- Node5 -->
<g id="node5" class="node">
<title>Node5</title>
<g id="a_node5"><a xlink:href="as__memio_8c.html#ab89034596c6b460597f3955f117efe4c" target="_top" xlink:title=" ">
<polygon fill="none" stroke="black" points="156.5,-214 156.5,-233 267.5,-233 267.5,-214 156.5,-214"/>
<text text-anchor="middle" x="212" y="-221" font-family="Helvetica,sans-Serif" font-size="10.00">as_copy_from_user</text>
</a>
</g>
</g>
<!-- Node1&#45;&gt;Node5 -->
<g id="edge4" class="edge">
<title>Node1&#45;&gt;Node5</title>
<path fill="none" stroke="midnightblue" d="M61.18,-289.98C76.59,-277.33 105.67,-255.12 134,-242.5 139.48,-240.06 145.32,-237.9 151.25,-235.99"/>
<polygon fill="midnightblue" stroke="midnightblue" points="152.66,-239.23 161.25,-233.03 150.67,-232.52 152.66,-239.23"/>
</g>
<!-- Node6 -->
<g id="node6" class="node">
<title>Node6</title>
<g id="a_node6"><a xlink:href="as__memio_8c.html#a3ae0453041c4a6d406955edd9c7e43f3" target="_top" xlink:title=" ">
<polygon fill="none" stroke="black" points="134,-252 134,-271 290,-271 290,-252 134,-252"/>
<text text-anchor="middle" x="212" y="-259" font-family="Helvetica,sans-Serif" font-size="10.00">as_memio_hw_write_update</text>
</a>
</g>
</g>
<!-- Node1&#45;&gt;Node6 -->
<g id="edge5" class="edge">
<title>Node1&#45;&gt;Node6</title>
<path fill="none" stroke="midnightblue" d="M90.63,-289.91C111.97,-284.87 138.31,-278.66 160.91,-273.32"/>
<polygon fill="midnightblue" stroke="midnightblue" points="161.74,-276.72 170.67,-271.02 160.13,-269.91 161.74,-276.72"/>
</g>
<!-- Node6&#45;&gt;Node4 -->
<g id="edge8" class="edge">
<title>Node6&#45;&gt;Node4</title>
<path fill="none" stroke="midnightblue" d="M268.36,-271.09C276.44,-274.53 284.03,-279.19 290,-285.5 335.04,-333.11 280.17,-381.65 326,-428.5 328.8,-431.37 332,-433.81 335.44,-435.9"/>
<polygon fill="midnightblue" stroke="midnightblue" points="333.9,-439.04 344.41,-440.37 337.02,-432.78 333.9,-439.04"/>
</g>
<!-- Node7 -->
<g id="node7" class="node">
<title>Node7</title>
<g id="a_node7"><a xlink:href="group__as__buffer.html#ga6016c939a78457aac0650827fdce6ae3" target="_top" xlink:title=" ">
<polygon fill="none" stroke="black" points="341,-274 341,-293 451,-293 451,-274 341,-274"/>
<text text-anchor="middle" x="396" y="-281" font-family="Helvetica,sans-Serif" font-size="10.00">as_buffer_enqueue</text>
</a>
</g>
</g>
<!-- Node6&#45;&gt;Node7 -->
<g id="edge6" class="edge">
<title>Node6&#45;&gt;Node7</title>
<path fill="none" stroke="midnightblue" d="M290.18,-270.83C303.64,-272.46 317.51,-274.13 330.57,-275.71"/>
<polygon fill="midnightblue" stroke="midnightblue" points="330.51,-279.23 340.86,-276.96 331.35,-272.28 330.51,-279.23"/>
</g>
<!-- Node8 -->
<g id="node8" class="node">
<title>Node8</title>
<g id="a_node8"><a xlink:href="group__as__buffer.html#ga207494f5e874a5db26b0bedf2784bf56" target="_top" xlink:title=" ">
<polygon fill="none" stroke="black" points="332,-224.5 332,-254.5 460,-254.5 460,-224.5 332,-224.5"/>
<text text-anchor="start" x="340" y="-242.5" font-family="Helvetica,sans-Serif" font-size="10.00">as_buffer_find_waiting</text>
<text text-anchor="middle" x="396" y="-231.5" font-family="Helvetica,sans-Serif" font-size="10.00">_buffer</text>
</a>
</g>
</g>
<!-- Node6&#45;&gt;Node8 -->
<g id="edge7" class="edge">
<title>Node6&#45;&gt;Node8</title>
<path fill="none" stroke="midnightblue" d="M290.18,-252.17C300.58,-250.91 311.21,-249.63 321.54,-248.38"/>
<polygon fill="midnightblue" stroke="midnightblue" points="322.23,-251.82 331.73,-247.15 321.39,-244.87 322.23,-251.82"/>
</g>
<!-- Node9 -->
<g id="node9" class="node">
<title>Node9</title>
<g id="a_node9"><a xlink:href="as__cache_8c.html#a82dda14c005c5bd0028e5f25fad2923c" target="_top" xlink:title="Map virtual kernel address for DMA.">
<polygon fill="none" stroke="black" points="351.5,-362 351.5,-381 440.5,-381 440.5,-362 351.5,-362"/>
<text text-anchor="middle" x="396" y="-369" font-family="Helvetica,sans-Serif" font-size="10.00">as_map_single</text>
</a>
</g>
</g>
<!-- Node6&#45;&gt;Node9 -->
<g id="edge9" class="edge">
<title>Node6&#45;&gt;Node9</title>
<path fill="none" stroke="midnightblue" d="M263.5,-271.07C272.99,-274.51 282.33,-279.17 290,-285.5 316.07,-307.02 299.57,-331.42 326,-352.5 330.67,-356.22 336.01,-359.22 341.62,-361.63"/>
<polygon fill="midnightblue" stroke="midnightblue" points="340.63,-364.99 351.22,-365.15 343.04,-358.42 340.63,-364.99"/>
</g>
<!-- Node11 -->
<g id="node11" class="node">
<title>Node11</title>
<g id="a_node11"><a xlink:href="group__as__reader__writer.html#gaaea10b48e35a224a5870cd3322ffbec2" target="_top" xlink:title="Returns the next address on which the hardware will perform a write operation.">
<polygon fill="none" stroke="black" points="336.5,-312.5 336.5,-342.5 455.5,-342.5 455.5,-312.5 336.5,-312.5"/>
<text text-anchor="start" x="344.5" y="-330.5" font-family="Helvetica,sans-Serif" font-size="10.00">as_reader_writer_get</text>
<text text-anchor="middle" x="396" y="-319.5" font-family="Helvetica,sans-Serif" font-size="10.00">_cur_hw_addr</text>
</a>
</g>
</g>
<!-- Node6&#45;&gt;Node11 -->
<g id="edge11" class="edge">
<title>Node6&#45;&gt;Node11</title>
<path fill="none" stroke="midnightblue" d="M247.08,-271.01C260.59,-275.07 276.17,-280.11 290,-285.5 306.49,-291.93 309.66,-295.7 326,-302.5 331.07,-304.61 336.39,-306.72 341.74,-308.77"/>
<polygon fill="midnightblue" stroke="midnightblue" points="340.74,-312.13 351.33,-312.38 343.2,-305.58 340.74,-312.13"/>
</g>
<!-- Node15 -->
<g id="node15" class="node">
<title>Node15</title>
<g id="a_node15"><a xlink:href="group__as__reader__writer.html#ga0e0a5b7e0dd6a14cb0f4251d00a783e8" target="_top" xlink:title="Checks if module is busy.">
<polygon fill="none" stroke="black" points="326,-137 326,-156 466,-156 466,-137 326,-137"/>
<text text-anchor="middle" x="396" y="-144" font-family="Helvetica,sans-Serif" font-size="10.00">as_reader_writer_is_busy</text>
</a>
</g>
</g>
<!-- Node6&#45;&gt;Node15 -->
<g id="edge15" class="edge">
<title>Node6&#45;&gt;Node15</title>
<path fill="none" stroke="midnightblue" d="M274.33,-251.9C279.97,-249.43 285.32,-246.35 290,-242.5 319.19,-218.52 297.13,-189.87 326,-165.5 327.99,-163.82 330.12,-162.28 332.36,-160.88"/>
<polygon fill="midnightblue" stroke="midnightblue" points="334.17,-163.88 341.39,-156.13 330.91,-157.69 334.17,-163.88"/>
</g>
<!-- Node17 -->
<g id="node17" class="node">
<title>Node17</title>
<g id="a_node17"><a xlink:href="group__as__reader__writer.html#gab3f2465225201507d51787478ac5955a" target="_top" xlink:title="Checks if another operation is queued.">
<polygon fill="none" stroke="black" points="340,-175.5 340,-205.5 452,-205.5 452,-175.5 340,-175.5"/>
<text text-anchor="start" x="348" y="-193.5" font-family="Helvetica,sans-Serif" font-size="10.00">as_reader_writer_is</text>
<text text-anchor="middle" x="396" y="-182.5" font-family="Helvetica,sans-Serif" font-size="10.00">_pending_go</text>
</a>
</g>
</g>
<!-- Node6&#45;&gt;Node17 -->
<g id="edge19" class="edge">
<title>Node6&#45;&gt;Node17</title>
<path fill="none" stroke="midnightblue" d="M264.59,-251.96C273.29,-249.45 282.07,-246.34 290,-242.5 308.24,-233.66 308.19,-224.18 326,-214.5 329.1,-212.81 332.35,-211.21 335.66,-209.69"/>
<polygon fill="midnightblue" stroke="midnightblue" points="337.33,-212.78 345.15,-205.64 334.58,-206.35 337.33,-212.78"/>
</g>
<!-- Node18 -->
<g id="node18" class="node">
<title>Node18</title>
<g id="a_node18"><a xlink:href="group__as__reader__writer.html#ga38bb160b6e30eb5fce6df2e4b4894fad" target="_top" xlink:title="Starts operation of hardware module.">
<polygon fill="none" stroke="black" points="328,-99 328,-118 464,-118 464,-99 328,-99"/>
<text text-anchor="middle" x="396" y="-106" font-family="Helvetica,sans-Serif" font-size="10.00">as_reader_writer_set_go</text>
</a>
</g>
</g>
<!-- Node6&#45;&gt;Node18 -->
<g id="edge22" class="edge">
<title>Node6&#45;&gt;Node18</title>
<path fill="none" stroke="midnightblue" d="M276.01,-251.99C281.12,-249.48 285.89,-246.37 290,-242.5 329.02,-205.81 287.48,-164.71 326,-127.5 327.63,-125.92 329.39,-124.47 331.23,-123.14"/>
<polygon fill="midnightblue" stroke="midnightblue" points="333.03,-126.14 339.84,-118.03 329.46,-120.12 333.03,-126.14"/>
</g>
<!-- Node22 -->
<g id="node22" class="node">
<title>Node22</title>
<g id="a_node22"><a xlink:href="group__as__reader__writer.html#ga43d2f73d7d42dd5704160d4ddacfaa1e" target="_top" xlink:title="Sets the start address of the first section to the given value.">
<polygon fill="none" stroke="black" points="336.5,-49.5 336.5,-79.5 455.5,-79.5 455.5,-49.5 336.5,-49.5"/>
<text text-anchor="start" x="344.5" y="-67.5" font-family="Helvetica,sans-Serif" font-size="10.00">as_reader_writer_set</text>
<text text-anchor="middle" x="396" y="-56.5" font-family="Helvetica,sans-Serif" font-size="10.00">_section_addr</text>
</a>
</g>
</g>
<!-- Node6&#45;&gt;Node22 -->
<g id="edge28" class="edge">
<title>Node6&#45;&gt;Node22</title>
<path fill="none" stroke="midnightblue" d="M277.04,-251.92C281.81,-249.41 286.22,-246.32 290,-242.5 339.13,-192.84 279.56,-141.69 326,-89.5 327.19,-88.16 328.47,-86.89 329.8,-85.69"/>
<polygon fill="midnightblue" stroke="midnightblue" points="332.15,-88.3 338.09,-79.52 327.98,-82.68 332.15,-88.3"/>
</g>
<!-- Node23 -->
<g id="node23" class="node">
<title>Node23</title>
<g id="a_node23"><a xlink:href="group__as__reader__writer.html#ga06436c5cb6a63439f2e4b7c14c71fb83" target="_top" xlink:title="Sets the size of a single section in bytes.">
<polygon fill="none" stroke="black" points="336.5,-0.5 336.5,-30.5 455.5,-30.5 455.5,-0.5 336.5,-0.5"/>
<text text-anchor="start" x="344.5" y="-18.5" font-family="Helvetica,sans-Serif" font-size="10.00">as_reader_writer_set</text>
<text text-anchor="middle" x="396" y="-7.5" font-family="Helvetica,sans-Serif" font-size="10.00">_section_size</text>
</a>
</g>
</g>
<!-- Node6&#45;&gt;Node23 -->
<g id="edge31" class="edge">
<title>Node6&#45;&gt;Node23</title>
<path fill="none" stroke="midnightblue" d="M277.64,-251.94C282.21,-249.43 286.43,-246.32 290,-242.5 352.61,-175.59 266.57,-109.24 326,-39.5 326.74,-38.63 327.51,-37.79 328.32,-36.99"/>
<polygon fill="midnightblue" stroke="midnightblue" points="330.73,-39.54 336.27,-30.51 326.31,-34.11 330.73,-39.54"/>
</g>
<!-- Node24 -->
<g id="node24" class="node">
<title>Node24</title>
<g id="a_node24"><a xlink:href="as__cache_8c.html#ae76087a19400fcaebb8397a8a1ee828b" target="_top" xlink:title="Unmap DMA address at end of transfer.">
<polygon fill="none" stroke="black" points="345.5,-400 345.5,-419 446.5,-419 446.5,-400 345.5,-400"/>
<text text-anchor="middle" x="396" y="-407" font-family="Helvetica,sans-Serif" font-size="10.00">as_unmap_single</text>
</a>
</g>
</g>
<!-- Node6&#45;&gt;Node24 -->
<g id="edge34" class="edge">
<title>Node6&#45;&gt;Node24</title>
<path fill="none" stroke="midnightblue" d="M266.73,-271.05C275.3,-274.49 283.47,-279.16 290,-285.5 325.37,-319.89 290.06,-356.71 326,-390.5 329.11,-393.42 332.62,-395.9 336.37,-398"/>
<polygon fill="midnightblue" stroke="midnightblue" points="334.96,-401.2 345.5,-402.26 337.92,-394.86 334.96,-401.2"/>
</g>
<!-- Node10 -->
<g id="node10" class="node">
<title>Node10</title>
<g id="a_node10"><a xlink:href="group__asterics__support.html#ga488e796d469c62267d9547fd11f8d764" target="_top" xlink:title=" ">
<polygon fill="none" stroke="black" points="502,-359 502,-378 632,-378 632,-359 502,-359"/>
<text text-anchor="middle" x="567" y="-366" font-family="Helvetica,sans-Serif" font-size="10.00">as_dcache_flush_range</text>
</a>
</g>
</g>
<!-- Node9&#45;&gt;Node10 -->
<g id="edge10" class="edge">
<title>Node9&#45;&gt;Node10</title>
<path fill="none" stroke="midnightblue" d="M440.52,-370.73C456.14,-370.45 474.22,-370.13 491.7,-369.82"/>
<polygon fill="midnightblue" stroke="midnightblue" points="491.97,-373.31 501.91,-369.64 491.85,-366.32 491.97,-373.31"/>
</g>
<!-- Node12 -->
<g id="node12" class="node">
<title>Node12</title>
<g id="a_node12"><a xlink:href="group__asterics__support.html#gaa7520f5b717e163da743500adb2eb0b9" target="_top" xlink:title=" ">
<polygon fill="none" stroke="black" points="521.5,-137 521.5,-156 612.5,-156 612.5,-137 521.5,-137"/>
<text text-anchor="middle" x="567" y="-144" font-family="Helvetica,sans-Serif" font-size="10.00">as_module_reg</text>
</a>
</g>
</g>
<!-- Node11&#45;&gt;Node12 -->
<g id="edge12" class="edge">
<title>Node11&#45;&gt;Node12</title>
<path fill="none" stroke="midnightblue" d="M453.78,-312.36C458.3,-309.6 462.47,-306.35 466,-302.5 507.71,-257.08 459.92,-213.58 502,-168.5 504.98,-165.31 508.44,-162.59 512.18,-160.25"/>
<polygon fill="midnightblue" stroke="midnightblue" points="514.06,-163.22 521.31,-155.5 510.83,-157.01 514.06,-163.22"/>
</g>
<!-- Node13 -->
<g id="node13" class="node">
<title>Node13</title>
<g id="a_node13"><a xlink:href="group__asterics__support.html#ga8e5c2bfd2e4498d10289377bd94cef07" target="_top" xlink:title=" ">
<polygon fill="none" stroke="black" points="669.5,-178 669.5,-197 745.5,-197 745.5,-178 669.5,-178"/>
<text text-anchor="middle" x="707.5" y="-185" font-family="Helvetica,sans-Serif" font-size="10.00">as_reg_read</text>
</a>
</g>
</g>
<!-- Node11&#45;&gt;Node13 -->
<g id="edge13" class="edge">
<title>Node11&#45;&gt;Node13</title>
<path fill="none" stroke="midnightblue" d="M440.68,-312.41C449.14,-309.28 457.89,-305.9 466,-302.5 544.74,-269.5 634.88,-224.35 679.1,-201.69"/>
<polygon fill="midnightblue" stroke="midnightblue" points="680.78,-204.76 688.07,-197.08 677.58,-198.54 680.78,-204.76"/>
</g>
<!-- Node14 -->
<g id="node14" class="node">
<title>Node14</title>
<g id="a_node14"><a xlink:href="group__asterics__support.html#ga4c6d688b840a6e2edc9bc0b8ed961677" target="_top" xlink:title=" ">
<polygon fill="none" stroke="black" points="789.5,-178 789.5,-197 889.5,-197 889.5,-178 789.5,-178"/>
<text text-anchor="middle" x="839.5" y="-185" font-family="Helvetica,sans-Serif" font-size="10.00">as_reg_to_uint32</text>
</a>
</g>
</g>
<!-- Node13&#45;&gt;Node14 -->
<g id="edge14" class="edge">
<title>Node13&#45;&gt;Node14</title>
<path fill="none" stroke="midnightblue" d="M745.75,-187.5C756.09,-187.5 767.59,-187.5 778.86,-187.5"/>
<polygon fill="midnightblue" stroke="midnightblue" points="779.12,-191 789.12,-187.5 779.12,-184 779.12,-191"/>
</g>
<!-- Node15&#45;&gt;Node12 -->
<g id="edge16" class="edge">
<title>Node15&#45;&gt;Node12</title>
<path fill="none" stroke="midnightblue" d="M466.23,-146.5C481.19,-146.5 496.81,-146.5 511.14,-146.5"/>
<polygon fill="midnightblue" stroke="midnightblue" points="511.31,-150 521.31,-146.5 511.31,-143 511.31,-150"/>
</g>
<!-- Node16 -->
<g id="node16" class="node">
<title>Node16</title>
<g id="a_node16"><a xlink:href="group__asterics__support.html#ga36a2ed59c59831bee59daaae3cb6cb35" target="_top" xlink:title=" ">
<polygon fill="none" stroke="black" points="507.5,-178 507.5,-197 626.5,-197 626.5,-178 507.5,-178"/>
<text text-anchor="middle" x="567" y="-185" font-family="Helvetica,sans-Serif" font-size="10.00">as_reg_read_masked</text>
</a>
</g>
</g>
<!-- Node15&#45;&gt;Node16 -->
<g id="edge17" class="edge">
<title>Node15&#45;&gt;Node16</title>
<path fill="none" stroke="midnightblue" d="M436.2,-156.01C460.21,-161.84 491.16,-169.34 516.82,-175.57"/>
<polygon fill="midnightblue" stroke="midnightblue" points="516.18,-179.01 526.72,-177.97 517.83,-172.21 516.18,-179.01"/>
</g>
<!-- Node16&#45;&gt;Node13 -->
<g id="edge18" class="edge">
<title>Node16&#45;&gt;Node13</title>
<path fill="none" stroke="midnightblue" d="M626.74,-187.5C637.57,-187.5 648.76,-187.5 659.21,-187.5"/>
<polygon fill="midnightblue" stroke="midnightblue" points="659.37,-191 669.37,-187.5 659.37,-184 659.37,-191"/>
</g>
<!-- Node17&#45;&gt;Node12 -->
<g id="edge20" class="edge">
<title>Node17&#45;&gt;Node12</title>
<path fill="none" stroke="midnightblue" d="M452.34,-176.09C474.09,-170.43 498.79,-164 519.59,-158.58"/>
<polygon fill="midnightblue" stroke="midnightblue" points="520.67,-161.92 529.46,-156.01 518.9,-155.15 520.67,-161.92"/>
</g>
<!-- Node17&#45;&gt;Node16 -->
<g id="edge21" class="edge">
<title>Node17&#45;&gt;Node16</title>
<path fill="none" stroke="midnightblue" d="M452.34,-189.52C466.65,-189.26 482.24,-188.99 497.15,-188.72"/>
<polygon fill="midnightblue" stroke="midnightblue" points="497.4,-192.22 507.34,-188.54 497.28,-185.22 497.4,-192.22"/>
</g>
<!-- Node18&#45;&gt;Node12 -->
<g id="edge23" class="edge">
<title>Node18&#45;&gt;Node12</title>
<path fill="none" stroke="midnightblue" d="M439.65,-118.09C462.15,-123.15 489.95,-129.4 513.74,-134.75"/>
<polygon fill="midnightblue" stroke="midnightblue" points="513.14,-138.2 523.66,-136.98 514.67,-131.37 513.14,-138.2"/>
</g>
<!-- Node19 -->
<g id="node19" class="node">
<title>Node19</title>
<g id="a_node19"><a xlink:href="group__asterics__support.html#ga0ccb0610d764a95bda989e35fba59490" target="_top" xlink:title=" ">
<polygon fill="none" stroke="black" points="506,-99 506,-118 628,-118 628,-99 506,-99"/>
<text text-anchor="middle" x="567" y="-106" font-family="Helvetica,sans-Serif" font-size="10.00">as_reg_write_masked</text>
</a>
</g>
</g>
<!-- Node18&#45;&gt;Node19 -->
<g id="edge24" class="edge">
<title>Node18&#45;&gt;Node19</title>
<path fill="none" stroke="midnightblue" d="M464.28,-108.5C474.57,-108.5 485.21,-108.5 495.56,-108.5"/>
<polygon fill="midnightblue" stroke="midnightblue" points="495.79,-112 505.79,-108.5 495.79,-105 495.79,-112"/>
</g>
<!-- Node19&#45;&gt;Node13 -->
<g id="edge25" class="edge">
<title>Node19&#45;&gt;Node13</title>
<path fill="none" stroke="midnightblue" d="M608.88,-118.04C616.78,-120.6 624.82,-123.73 632,-127.5 653.63,-138.85 675.01,-156.97 689.28,-170.33"/>
<polygon fill="midnightblue" stroke="midnightblue" points="687.17,-173.16 696.8,-177.56 692.01,-168.11 687.17,-173.16"/>
</g>
<!-- Node20 -->
<g id="node20" class="node">
<title>Node20</title>
<g id="a_node20"><a xlink:href="group__asterics__support.html#ga6345b997e24a6cd5f9143cef27629d49" target="_top" xlink:title=" ">
<polygon fill="none" stroke="black" points="668,-55 668,-74 747,-74 747,-55 668,-55"/>
<text text-anchor="middle" x="707.5" y="-62" font-family="Helvetica,sans-Serif" font-size="10.00">as_reg_write</text>
</a>
</g>
</g>
<!-- Node19&#45;&gt;Node20 -->
<g id="edge26" class="edge">
<title>Node19&#45;&gt;Node20</title>
<path fill="none" stroke="midnightblue" d="M598.05,-98.95C618.2,-92.55 644.94,-84.06 666.83,-77.1"/>
<polygon fill="midnightblue" stroke="midnightblue" points="668.04,-80.39 676.51,-74.03 665.92,-73.72 668.04,-80.39"/>
</g>
<!-- Node21 -->
<g id="node21" class="node">
<title>Node21</title>
<g id="a_node21"><a xlink:href="group__asterics__support.html#gab651cc2c035ce61b354578434e59f822" target="_top" xlink:title=" ">
<polygon fill="none" stroke="black" points="783,-55 783,-74 896,-74 896,-55 783,-55"/>
<text text-anchor="middle" x="839.5" y="-62" font-family="Helvetica,sans-Serif" font-size="10.00">as_reg_from_uint32</text>
</a>
</g>
</g>
<!-- Node20&#45;&gt;Node21 -->
<g id="edge27" class="edge">
<title>Node20&#45;&gt;Node21</title>
<path fill="none" stroke="midnightblue" d="M747.15,-64.5C755.22,-64.5 763.94,-64.5 772.68,-64.5"/>
<polygon fill="midnightblue" stroke="midnightblue" points="772.92,-68 782.92,-64.5 772.92,-61 772.92,-68"/>
</g>
<!-- Node22&#45;&gt;Node12 -->
<g id="edge29" class="edge">
<title>Node22&#45;&gt;Node12</title>
<path fill="none" stroke="midnightblue" d="M447.34,-79.59C453.85,-82.44 460.24,-85.73 466,-89.5 485.46,-102.25 482.17,-115.33 502,-127.5 505.4,-129.59 509.05,-131.46 512.81,-133.13"/>
<polygon fill="midnightblue" stroke="midnightblue" points="511.75,-136.48 522.33,-136.9 514.32,-129.97 511.75,-136.48"/>
</g>
<!-- Node22&#45;&gt;Node20 -->
<g id="edge30" class="edge">
<title>Node22&#45;&gt;Node20</title>
<path fill="none" stroke="midnightblue" d="M455.58,-64.5C514.02,-64.5 602.79,-64.5 657.58,-64.5"/>
<polygon fill="midnightblue" stroke="midnightblue" points="657.74,-68 667.74,-64.5 657.74,-61 657.74,-68"/>
</g>
<!-- Node23&#45;&gt;Node12 -->
<g id="edge32" class="edge">
<title>Node23&#45;&gt;Node12</title>
<path fill="none" stroke="midnightblue" d="M453.95,-30.66C458.31,-33.17 462.41,-36.1 466,-39.5 496.67,-68.57 470.67,-99.15 502,-127.5 505.01,-130.22 508.39,-132.55 511.99,-134.55"/>
<polygon fill="midnightblue" stroke="midnightblue" points="510.74,-137.83 521.28,-138.87 513.68,-131.48 510.74,-137.83"/>
</g>
<!-- Node23&#45;&gt;Node20 -->
<g id="edge33" class="edge">
<title>Node23&#45;&gt;Node20</title>
<path fill="none" stroke="midnightblue" d="M455.58,-24.77C514.02,-34.03 602.79,-48.08 657.58,-56.76"/>
<polygon fill="midnightblue" stroke="midnightblue" points="657.31,-60.26 667.74,-58.36 658.41,-53.34 657.31,-60.26"/>
</g>
<!-- Node25 -->
<g id="node25" class="node">
<title>Node25</title>
<g id="a_node25"><a xlink:href="group__asterics__support.html#ga85ce164597e47f4aaee22c873e899d4b" target="_top" xlink:title=" ">
<polygon fill="none" stroke="black" points="506,-397.5 506,-427.5 628,-427.5 628,-397.5 506,-397.5"/>
<text text-anchor="start" x="514" y="-415.5" font-family="Helvetica,sans-Serif" font-size="10.00">as_dcache_invalidate</text>
<text text-anchor="middle" x="567" y="-404.5" font-family="Helvetica,sans-Serif" font-size="10.00">_range</text>
</a>
</g>
</g>
<!-- Node24&#45;&gt;Node25 -->
<g id="edge35" class="edge">
<title>Node24&#45;&gt;Node25</title>
<path fill="none" stroke="midnightblue" d="M446.79,-410.38C462.11,-410.66 479.27,-410.96 495.7,-411.25"/>
<polygon fill="midnightblue" stroke="midnightblue" points="495.75,-414.75 505.81,-411.43 495.87,-407.75 495.75,-414.75"/>
</g>
</g>
</svg>
