<?xml version="1.0" encoding="UTF-8" standalone="no"?>
<!DOCTYPE svg PUBLIC "-//W3C//DTD SVG 1.1//EN"
 "http://www.w3.org/Graphics/SVG/1.1/DTD/svg11.dtd">
<!-- Generated by graphviz version 2.43.0 (0)
 -->
<!-- Title: as_memio_read Pages: 1 -->
<svg width="898pt" height="542pt"
 viewBox="0.00 0.00 898.00 542.00" xmlns="http://www.w3.org/2000/svg" xmlns:xlink="http://www.w3.org/1999/xlink">
<g id="graph0" class="graph" transform="scale(1 1) rotate(0) translate(4 538)">
<title>as_memio_read</title>
<!-- Node1 -->
<g id="node1" class="node">
<title>Node1</title>
<g id="a_node1"><a xlink:title=" ">
<polygon fill="#bfbfbf" stroke="black" points="0,-304.5 0,-323.5 95,-323.5 95,-304.5 0,-304.5"/>
<text text-anchor="middle" x="47.5" y="-311.5" font-family="Helvetica,sans-Serif" font-size="10.00">as_memio_read</text>
</a>
</g>
</g>
<!-- Node2 -->
<g id="node2" class="node">
<title>Node2</title>
<g id="a_node2"><a xlink:href="group__as__buffer.html#gaaaf34c6bc39c06372737bec6b12ad0bf" target="_top" xlink:title=" ">
<polygon fill="none" stroke="black" points="152.5,-411.5 152.5,-430.5 262.5,-430.5 262.5,-411.5 152.5,-411.5"/>
<text text-anchor="middle" x="207.5" y="-418.5" font-family="Helvetica,sans-Serif" font-size="10.00">as_buffer_dequeue</text>
</a>
</g>
</g>
<!-- Node1&#45;&gt;Node2 -->
<g id="edge1" class="edge">
<title>Node1&#45;&gt;Node2</title>
<path fill="none" stroke="midnightblue" d="M54.7,-323.64C66.97,-341.89 96.17,-381.49 131,-402 134.84,-404.26 138.94,-406.25 143.17,-408.01"/>
<polygon fill="midnightblue" stroke="midnightblue" points="142,-411.31 152.6,-411.49 144.43,-404.74 142,-411.31"/>
</g>
<!-- Node3 -->
<g id="node3" class="node">
<title>Node3</title>
<g id="a_node3"><a xlink:href="group__as__buffer.html#ga719a2b2644b1101082e5d05a0cbc1337" target="_top" xlink:title=" ">
<polygon fill="none" stroke="black" points="142,-362 142,-392 273,-392 273,-362 142,-362"/>
<text text-anchor="start" x="150" y="-380" font-family="Helvetica,sans-Serif" font-size="10.00">as_buffer_find_inactive</text>
<text text-anchor="middle" x="207.5" y="-369" font-family="Helvetica,sans-Serif" font-size="10.00">_buffer</text>
</a>
</g>
</g>
<!-- Node1&#45;&gt;Node3 -->
<g id="edge2" class="edge">
<title>Node1&#45;&gt;Node3</title>
<path fill="none" stroke="midnightblue" d="M72.32,-323.55C88.8,-330.14 111.23,-339.12 131,-347 140.04,-350.61 149.7,-354.45 158.98,-358.14"/>
<polygon fill="midnightblue" stroke="midnightblue" points="157.89,-361.47 168.47,-361.91 160.47,-354.96 157.89,-361.47"/>
</g>
<!-- Node4 -->
<g id="node4" class="node">
<title>Node4</title>
<g id="a_node4"><a xlink:href="group__as__buffer.html#ga07ae3ddfeb05316df9cb59b962c29817" target="_top" xlink:title=" ">
<polygon fill="none" stroke="black" points="338.5,-514.5 338.5,-533.5 441.5,-533.5 441.5,-514.5 338.5,-514.5"/>
<text text-anchor="middle" x="390" y="-521.5" font-family="Helvetica,sans-Serif" font-size="10.00">as_buffer_inspect</text>
</a>
</g>
</g>
<!-- Node1&#45;&gt;Node4 -->
<g id="edge3" class="edge">
<title>Node1&#45;&gt;Node4</title>
<path fill="none" stroke="midnightblue" d="M95.05,-315.74C155.74,-318.98 257.31,-328.07 284,-353 334.74,-400.38 271.8,-455.03 320,-505 322.78,-507.89 325.96,-510.35 329.39,-512.44"/>
<polygon fill="midnightblue" stroke="midnightblue" points="327.84,-515.58 338.35,-516.94 330.98,-509.32 327.84,-515.58"/>
</g>
<!-- Node5 -->
<g id="node5" class="node">
<title>Node5</title>
<g id="a_node5"><a xlink:href="as__memio_8c.html#ab62efd7dea09ea32fde790ab4a0e51c6" target="_top" xlink:title=" ">
<polygon fill="none" stroke="black" points="158.5,-209.5 158.5,-228.5 256.5,-228.5 256.5,-209.5 158.5,-209.5"/>
<text text-anchor="middle" x="207.5" y="-216.5" font-family="Helvetica,sans-Serif" font-size="10.00">as_copy_to_user</text>
</a>
</g>
</g>
<!-- Node1&#45;&gt;Node5 -->
<g id="edge4" class="edge">
<title>Node1&#45;&gt;Node5</title>
<path fill="none" stroke="midnightblue" d="M57.2,-304.33C71.3,-289.21 100.64,-259.95 131,-243 138.85,-238.62 147.62,-234.91 156.32,-231.81"/>
<polygon fill="midnightblue" stroke="midnightblue" points="157.68,-235.05 166.07,-228.58 155.47,-228.4 157.68,-235.05"/>
</g>
<!-- Node6 -->
<g id="node6" class="node">
<title>Node6</title>
<g id="a_node6"><a xlink:href="as__memio_8c.html#ab93cfbaa1058ea83836b6d052e72ad50" target="_top" xlink:title=" ">
<polygon fill="none" stroke="black" points="131,-285.5 131,-304.5 284,-304.5 284,-285.5 131,-285.5"/>
<text text-anchor="middle" x="207.5" y="-292.5" font-family="Helvetica,sans-Serif" font-size="10.00">as_memio_hw_read_update</text>
</a>
</g>
</g>
<!-- Node1&#45;&gt;Node6 -->
<g id="edge5" class="edge">
<title>Node1&#45;&gt;Node6</title>
<path fill="none" stroke="midnightblue" d="M95.05,-308.4C103.25,-307.42 112.02,-306.36 120.9,-305.29"/>
<polygon fill="midnightblue" stroke="midnightblue" points="121.43,-308.76 130.94,-304.09 120.6,-301.81 121.43,-308.76"/>
</g>
<!-- Node26 -->
<g id="node26" class="node">
<title>Node26</title>
<g id="a_node26"><a xlink:href="group__as__reader__writer.html#ga8ffa108d758f416593d508d00fdbfed6" target="_top" xlink:title="Checks if module has dropped data.">
<polygon fill="none" stroke="black" points="324.5,-0.5 324.5,-19.5 455.5,-19.5 455.5,-0.5 324.5,-0.5"/>
<text text-anchor="middle" x="390" y="-7.5" font-family="Helvetica,sans-Serif" font-size="10.00">as_writer_is_sync_error</text>
</a>
</g>
</g>
<!-- Node1&#45;&gt;Node26 -->
<g id="edge37" class="edge">
<title>Node1&#45;&gt;Node26</title>
<path fill="none" stroke="midnightblue" d="M66.76,-304.38C83.21,-296 108.23,-283.99 131,-276 197.11,-252.8 236.27,-289.3 284,-238 347.91,-169.31 257.43,-99.91 320,-30 321.55,-28.26 323.25,-26.67 325.06,-25.22"/>
<polygon fill="midnightblue" stroke="midnightblue" points="327.13,-28.05 333.61,-19.66 323.31,-22.18 327.13,-28.05"/>
</g>
<!-- Node6&#45;&gt;Node4 -->
<g id="edge8" class="edge">
<title>Node6&#45;&gt;Node4</title>
<path fill="none" stroke="midnightblue" d="M263.48,-304.65C271.22,-308.09 278.42,-312.73 284,-319 339.97,-381.91 262.81,-443.2 320,-505 322.77,-507.99 325.96,-510.53 329.42,-512.68"/>
<polygon fill="midnightblue" stroke="midnightblue" points="327.99,-515.88 338.5,-517.26 331.15,-509.63 327.99,-515.88"/>
</g>
<!-- Node7 -->
<g id="node7" class="node">
<title>Node7</title>
<g id="a_node7"><a xlink:href="group__as__buffer.html#ga6016c939a78457aac0650827fdce6ae3" target="_top" xlink:title=" ">
<polygon fill="none" stroke="black" points="335,-225.5 335,-244.5 445,-244.5 445,-225.5 335,-225.5"/>
<text text-anchor="middle" x="390" y="-232.5" font-family="Helvetica,sans-Serif" font-size="10.00">as_buffer_enqueue</text>
</a>
</g>
</g>
<!-- Node6&#45;&gt;Node7 -->
<g id="edge6" class="edge">
<title>Node6&#45;&gt;Node7</title>
<path fill="none" stroke="midnightblue" d="M241.91,-285.43C255.15,-281.36 270.43,-276.33 284,-271 300.47,-264.53 303.41,-260.15 320,-254 326.34,-251.65 333.1,-249.44 339.82,-247.42"/>
<polygon fill="midnightblue" stroke="midnightblue" points="340.95,-250.74 349.58,-244.59 339,-244.01 340.95,-250.74"/>
</g>
<!-- Node8 -->
<g id="node8" class="node">
<title>Node8</title>
<g id="a_node8"><a xlink:href="group__as__buffer.html#ga207494f5e874a5db26b0bedf2784bf56" target="_top" xlink:title=" ">
<polygon fill="none" stroke="black" points="326,-176 326,-206 454,-206 454,-176 326,-176"/>
<text text-anchor="start" x="334" y="-194" font-family="Helvetica,sans-Serif" font-size="10.00">as_buffer_find_waiting</text>
<text text-anchor="middle" x="390" y="-183" font-family="Helvetica,sans-Serif" font-size="10.00">_buffer</text>
</a>
</g>
</g>
<!-- Node6&#45;&gt;Node8 -->
<g id="edge7" class="edge">
<title>Node6&#45;&gt;Node8</title>
<path fill="none" stroke="midnightblue" d="M255.64,-285.47C265.64,-282.01 275.68,-277.32 284,-271 307.27,-253.33 297.09,-234.13 320,-216 322.29,-214.18 324.73,-212.49 327.27,-210.92"/>
<polygon fill="midnightblue" stroke="midnightblue" points="329.14,-213.89 336.22,-206 325.77,-207.75 329.14,-213.89"/>
</g>
<!-- Node9 -->
<g id="node9" class="node">
<title>Node9</title>
<g id="a_node9"><a xlink:href="group__asterics__support.html#ga85ce164597e47f4aaee22c873e899d4b" target="_top" xlink:title=" ">
<polygon fill="none" stroke="black" points="500,-455 500,-485 622,-485 622,-455 500,-455"/>
<text text-anchor="start" x="508" y="-473" font-family="Helvetica,sans-Serif" font-size="10.00">as_dcache_invalidate</text>
<text text-anchor="middle" x="561" y="-462" font-family="Helvetica,sans-Serif" font-size="10.00">_range</text>
</a>
</g>
</g>
<!-- Node6&#45;&gt;Node9 -->
<g id="edge9" class="edge">
<title>Node6&#45;&gt;Node9</title>
<path fill="none" stroke="midnightblue" d="M261.27,-304.63C269.66,-308.06 277.65,-312.71 284,-319 320.53,-355.22 281.05,-395.4 320,-429 344.9,-450.48 428.18,-461 489.69,-465.94"/>
<polygon fill="midnightblue" stroke="midnightblue" points="489.5,-469.44 499.74,-466.71 490.04,-462.46 489.5,-469.44"/>
</g>
<!-- Node10 -->
<g id="node10" class="node">
<title>Node10</title>
<g id="a_node10"><a xlink:href="as__cache_8c.html#a82dda14c005c5bd0028e5f25fad2923c" target="_top" xlink:title="Map virtual kernel address for DMA.">
<polygon fill="none" stroke="black" points="345.5,-400.5 345.5,-419.5 434.5,-419.5 434.5,-400.5 345.5,-400.5"/>
<text text-anchor="middle" x="390" y="-407.5" font-family="Helvetica,sans-Serif" font-size="10.00">as_map_single</text>
</a>
</g>
</g>
<!-- Node6&#45;&gt;Node10 -->
<g id="edge10" class="edge">
<title>Node6&#45;&gt;Node10</title>
<path fill="none" stroke="midnightblue" d="M258.17,-304.54C267.47,-307.98 276.58,-312.65 284,-319 311.19,-342.25 292.36,-368.28 320,-391 324.67,-394.84 330.07,-397.91 335.73,-400.36"/>
<polygon fill="midnightblue" stroke="midnightblue" points="334.86,-403.76 345.45,-403.92 337.27,-397.19 334.86,-403.76"/>
</g>
<!-- Node12 -->
<g id="node12" class="node">
<title>Node12</title>
<g id="a_node12"><a xlink:href="group__as__reader__writer.html#gaaea10b48e35a224a5870cd3322ffbec2" target="_top" xlink:title="Returns the next address on which the hardware will perform a write operation.">
<polygon fill="none" stroke="black" points="330.5,-39 330.5,-69 449.5,-69 449.5,-39 330.5,-39"/>
<text text-anchor="start" x="338.5" y="-57" font-family="Helvetica,sans-Serif" font-size="10.00">as_reader_writer_get</text>
<text text-anchor="middle" x="390" y="-46" font-family="Helvetica,sans-Serif" font-size="10.00">_cur_hw_addr</text>
</a>
</g>
</g>
<!-- Node6&#45;&gt;Node12 -->
<g id="edge12" class="edge">
<title>Node6&#45;&gt;Node12</title>
<path fill="none" stroke="midnightblue" d="M263.51,-285.38C271.25,-281.94 278.44,-277.28 284,-271 341.52,-205.97 263.79,-145.16 320,-79 321.13,-77.66 322.35,-76.4 323.62,-75.2"/>
<polygon fill="midnightblue" stroke="midnightblue" points="325.8,-77.95 331.57,-69.06 321.52,-72.41 325.8,-77.95"/>
</g>
<!-- Node16 -->
<g id="node16" class="node">
<title>Node16</title>
<g id="a_node16"><a xlink:href="group__as__reader__writer.html#ga0e0a5b7e0dd6a14cb0f4251d00a783e8" target="_top" xlink:title="Checks if module is busy.">
<polygon fill="none" stroke="black" points="320,-137.5 320,-156.5 460,-156.5 460,-137.5 320,-137.5"/>
<text text-anchor="middle" x="390" y="-144.5" font-family="Helvetica,sans-Serif" font-size="10.00">as_reader_writer_is_busy</text>
</a>
</g>
</g>
<!-- Node6&#45;&gt;Node16 -->
<g id="edge16" class="edge">
<title>Node6&#45;&gt;Node16</title>
<path fill="none" stroke="midnightblue" d="M260.79,-285.43C269.33,-282 277.5,-277.34 284,-271 319.02,-236.86 284.54,-200.69 320,-167 322.16,-164.95 324.52,-163.1 327.02,-161.45"/>
<polygon fill="midnightblue" stroke="midnightblue" points="328.92,-164.39 336,-156.51 325.55,-158.26 328.92,-164.39"/>
</g>
<!-- Node18 -->
<g id="node18" class="node">
<title>Node18</title>
<g id="a_node18"><a xlink:href="group__as__reader__writer.html#gab3f2465225201507d51787478ac5955a" target="_top" xlink:title="Checks if another operation is queued.">
<polygon fill="none" stroke="black" points="334,-88 334,-118 446,-118 446,-88 334,-88"/>
<text text-anchor="start" x="342" y="-106" font-family="Helvetica,sans-Serif" font-size="10.00">as_reader_writer_is</text>
<text text-anchor="middle" x="390" y="-95" font-family="Helvetica,sans-Serif" font-size="10.00">_pending_go</text>
</a>
</g>
</g>
<!-- Node6&#45;&gt;Node18 -->
<g id="edge20" class="edge">
<title>Node6&#45;&gt;Node18</title>
<path fill="none" stroke="midnightblue" d="M262.41,-285.41C270.48,-281.97 278.06,-277.31 284,-271 328.9,-223.26 276.06,-176.62 320,-128 321.6,-126.23 323.33,-124.59 325.17,-123.07"/>
<polygon fill="midnightblue" stroke="midnightblue" points="327.58,-125.65 333.82,-117.09 323.6,-119.89 327.58,-125.65"/>
</g>
<!-- Node19 -->
<g id="node19" class="node">
<title>Node19</title>
<g id="a_node19"><a xlink:href="group__as__reader__writer.html#ga38bb160b6e30eb5fce6df2e4b4894fad" target="_top" xlink:title="Starts operation of hardware module.">
<polygon fill="none" stroke="black" points="322,-263.5 322,-282.5 458,-282.5 458,-263.5 322,-263.5"/>
<text text-anchor="middle" x="390" y="-270.5" font-family="Helvetica,sans-Serif" font-size="10.00">as_reader_writer_set_go</text>
</a>
</g>
</g>
<!-- Node6&#45;&gt;Node19 -->
<g id="edge23" class="edge">
<title>Node6&#45;&gt;Node19</title>
<path fill="none" stroke="midnightblue" d="M284,-285.8C293.23,-284.67 302.66,-283.52 311.9,-282.4"/>
<polygon fill="midnightblue" stroke="midnightblue" points="312.34,-285.87 321.84,-281.19 311.49,-278.92 312.34,-285.87"/>
</g>
<!-- Node23 -->
<g id="node23" class="node">
<title>Node23</title>
<g id="a_node23"><a xlink:href="group__as__reader__writer.html#ga43d2f73d7d42dd5704160d4ddacfaa1e" target="_top" xlink:title="Sets the start address of the first section to the given value.">
<polygon fill="none" stroke="black" points="330.5,-351 330.5,-381 449.5,-381 449.5,-351 330.5,-351"/>
<text text-anchor="start" x="338.5" y="-369" font-family="Helvetica,sans-Serif" font-size="10.00">as_reader_writer_set</text>
<text text-anchor="middle" x="390" y="-358" font-family="Helvetica,sans-Serif" font-size="10.00">_section_addr</text>
</a>
</g>
</g>
<!-- Node6&#45;&gt;Node23 -->
<g id="edge29" class="edge">
<title>Node6&#45;&gt;Node23</title>
<path fill="none" stroke="midnightblue" d="M245.33,-304.61C257.87,-308.42 271.79,-313.28 284,-319 301.19,-327.06 302.92,-333.71 320,-342 323.72,-343.81 327.62,-345.54 331.58,-347.19"/>
<polygon fill="midnightblue" stroke="midnightblue" points="330.31,-350.46 340.9,-350.9 332.9,-343.95 330.31,-350.46"/>
</g>
<!-- Node24 -->
<g id="node24" class="node">
<title>Node24</title>
<g id="a_node24"><a xlink:href="group__as__reader__writer.html#ga06436c5cb6a63439f2e4b7c14c71fb83" target="_top" xlink:title="Sets the size of a single section in bytes.">
<polygon fill="none" stroke="black" points="330.5,-302 330.5,-332 449.5,-332 449.5,-302 330.5,-302"/>
<text text-anchor="start" x="338.5" y="-320" font-family="Helvetica,sans-Serif" font-size="10.00">as_reader_writer_set</text>
<text text-anchor="middle" x="390" y="-309" font-family="Helvetica,sans-Serif" font-size="10.00">_section_size</text>
</a>
</g>
</g>
<!-- Node6&#45;&gt;Node24 -->
<g id="edge32" class="edge">
<title>Node6&#45;&gt;Node24</title>
<path fill="none" stroke="midnightblue" d="M284,-304.2C295.96,-305.66 308.27,-307.16 320.06,-308.6"/>
<polygon fill="midnightblue" stroke="midnightblue" points="319.92,-312.11 330.27,-309.84 320.77,-305.16 319.92,-312.11"/>
</g>
<!-- Node25 -->
<g id="node25" class="node">
<title>Node25</title>
<g id="a_node25"><a xlink:href="as__cache_8c.html#ae76087a19400fcaebb8397a8a1ee828b" target="_top" xlink:title="Unmap DMA address at end of transfer.">
<polygon fill="none" stroke="black" points="339.5,-476.5 339.5,-495.5 440.5,-495.5 440.5,-476.5 339.5,-476.5"/>
<text text-anchor="middle" x="390" y="-483.5" font-family="Helvetica,sans-Serif" font-size="10.00">as_unmap_single</text>
</a>
</g>
</g>
<!-- Node6&#45;&gt;Node25 -->
<g id="edge35" class="edge">
<title>Node6&#45;&gt;Node25</title>
<path fill="none" stroke="midnightblue" d="M262.41,-304.59C270.48,-308.03 278.06,-312.69 284,-319 328.9,-366.74 275.74,-413.66 320,-462 323.55,-465.88 327.76,-469.13 332.32,-471.85"/>
<polygon fill="midnightblue" stroke="midnightblue" points="330.94,-475.08 341.44,-476.47 334.1,-468.83 330.94,-475.08"/>
</g>
<!-- Node11 -->
<g id="node11" class="node">
<title>Node11</title>
<g id="a_node11"><a xlink:href="group__asterics__support.html#ga488e796d469c62267d9547fd11f8d764" target="_top" xlink:title=" ">
<polygon fill="none" stroke="black" points="496,-400.5 496,-419.5 626,-419.5 626,-400.5 496,-400.5"/>
<text text-anchor="middle" x="561" y="-407.5" font-family="Helvetica,sans-Serif" font-size="10.00">as_dcache_flush_range</text>
</a>
</g>
</g>
<!-- Node10&#45;&gt;Node11 -->
<g id="edge11" class="edge">
<title>Node10&#45;&gt;Node11</title>
<path fill="none" stroke="midnightblue" d="M434.52,-410C450.14,-410 468.22,-410 485.7,-410"/>
<polygon fill="midnightblue" stroke="midnightblue" points="485.91,-413.5 495.91,-410 485.91,-406.5 485.91,-413.5"/>
</g>
<!-- Node13 -->
<g id="node13" class="node">
<title>Node13</title>
<g id="a_node13"><a xlink:href="group__asterics__support.html#gaa7520f5b717e163da743500adb2eb0b9" target="_top" xlink:title=" ">
<polygon fill="none" stroke="black" points="515.5,-137.5 515.5,-156.5 606.5,-156.5 606.5,-137.5 515.5,-137.5"/>
<text text-anchor="middle" x="561" y="-144.5" font-family="Helvetica,sans-Serif" font-size="10.00">as_module_reg</text>
</a>
</g>
</g>
<!-- Node12&#45;&gt;Node13 -->
<g id="edge13" class="edge">
<title>Node12&#45;&gt;Node13</title>
<path fill="none" stroke="midnightblue" d="M442.28,-69.09C448.5,-71.91 454.57,-75.2 460,-79 480.42,-93.29 475.76,-107.46 496,-122 502.4,-126.6 509.77,-130.49 517.17,-133.73"/>
<polygon fill="midnightblue" stroke="midnightblue" points="515.91,-137 526.49,-137.5 518.53,-130.51 515.91,-137"/>
</g>
<!-- Node14 -->
<g id="node14" class="node">
<title>Node14</title>
<g id="a_node14"><a xlink:href="group__asterics__support.html#ga8e5c2bfd2e4498d10289377bd94cef07" target="_top" xlink:title=" ">
<polygon fill="none" stroke="black" points="663.5,-93.5 663.5,-112.5 739.5,-112.5 739.5,-93.5 663.5,-93.5"/>
<text text-anchor="middle" x="701.5" y="-100.5" font-family="Helvetica,sans-Serif" font-size="10.00">as_reg_read</text>
</a>
</g>
</g>
<!-- Node12&#45;&gt;Node14 -->
<g id="edge14" class="edge">
<title>Node12&#45;&gt;Node14</title>
<path fill="none" stroke="midnightblue" d="M449.74,-59.48C497.47,-64.41 566.41,-72.64 626,-84 636.03,-85.91 646.72,-88.38 656.78,-90.9"/>
<polygon fill="midnightblue" stroke="midnightblue" points="656.02,-94.31 666.58,-93.41 657.76,-87.53 656.02,-94.31"/>
</g>
<!-- Node15 -->
<g id="node15" class="node">
<title>Node15</title>
<g id="a_node15"><a xlink:href="group__asterics__support.html#ga4c6d688b840a6e2edc9bc0b8ed961677" target="_top" xlink:title=" ">
<polygon fill="none" stroke="black" points="783.5,-93.5 783.5,-112.5 883.5,-112.5 883.5,-93.5 783.5,-93.5"/>
<text text-anchor="middle" x="833.5" y="-100.5" font-family="Helvetica,sans-Serif" font-size="10.00">as_reg_to_uint32</text>
</a>
</g>
</g>
<!-- Node14&#45;&gt;Node15 -->
<g id="edge15" class="edge">
<title>Node14&#45;&gt;Node15</title>
<path fill="none" stroke="midnightblue" d="M739.75,-103C750.09,-103 761.59,-103 772.86,-103"/>
<polygon fill="midnightblue" stroke="midnightblue" points="773.12,-106.5 783.12,-103 773.12,-99.5 773.12,-106.5"/>
</g>
<!-- Node16&#45;&gt;Node13 -->
<g id="edge17" class="edge">
<title>Node16&#45;&gt;Node13</title>
<path fill="none" stroke="midnightblue" d="M460.23,-147C475.19,-147 490.81,-147 505.14,-147"/>
<polygon fill="midnightblue" stroke="midnightblue" points="505.31,-150.5 515.31,-147 505.31,-143.5 505.31,-150.5"/>
</g>
<!-- Node17 -->
<g id="node17" class="node">
<title>Node17</title>
<g id="a_node17"><a xlink:href="group__asterics__support.html#ga36a2ed59c59831bee59daaae3cb6cb35" target="_top" xlink:title=" ">
<polygon fill="none" stroke="black" points="501.5,-93.5 501.5,-112.5 620.5,-112.5 620.5,-93.5 501.5,-93.5"/>
<text text-anchor="middle" x="561" y="-100.5" font-family="Helvetica,sans-Serif" font-size="10.00">as_reg_read_masked</text>
</a>
</g>
</g>
<!-- Node16&#45;&gt;Node17 -->
<g id="edge18" class="edge">
<title>Node16&#45;&gt;Node17</title>
<path fill="none" stroke="midnightblue" d="M427.67,-137.45C452.81,-130.91 486.36,-122.17 513.39,-115.13"/>
<polygon fill="midnightblue" stroke="midnightblue" points="514.61,-118.44 523.4,-112.53 512.84,-111.66 514.61,-118.44"/>
</g>
<!-- Node17&#45;&gt;Node14 -->
<g id="edge19" class="edge">
<title>Node17&#45;&gt;Node14</title>
<path fill="none" stroke="midnightblue" d="M620.74,-103C631.57,-103 642.76,-103 653.21,-103"/>
<polygon fill="midnightblue" stroke="midnightblue" points="653.37,-106.5 663.37,-103 653.37,-99.5 653.37,-106.5"/>
</g>
<!-- Node18&#45;&gt;Node13 -->
<g id="edge21" class="edge">
<title>Node18&#45;&gt;Node13</title>
<path fill="none" stroke="midnightblue" d="M446.34,-117.41C468.09,-123.07 492.79,-129.5 513.59,-134.92"/>
<polygon fill="midnightblue" stroke="midnightblue" points="512.9,-138.35 523.46,-137.49 514.67,-131.58 512.9,-138.35"/>
</g>
<!-- Node18&#45;&gt;Node17 -->
<g id="edge22" class="edge">
<title>Node18&#45;&gt;Node17</title>
<path fill="none" stroke="midnightblue" d="M446.34,-103C460.65,-103 476.24,-103 491.15,-103"/>
<polygon fill="midnightblue" stroke="midnightblue" points="491.34,-106.5 501.34,-103 491.34,-99.5 491.34,-106.5"/>
</g>
<!-- Node19&#45;&gt;Node13 -->
<g id="edge24" class="edge">
<title>Node19&#45;&gt;Node13</title>
<path fill="none" stroke="midnightblue" d="M439.19,-263.43C446.44,-260.95 453.62,-257.86 460,-254 498.22,-230.88 531.08,-189.1 547.93,-165.16"/>
<polygon fill="midnightblue" stroke="midnightblue" points="551,-166.88 553.77,-156.66 545.23,-162.92 551,-166.88"/>
</g>
<!-- Node20 -->
<g id="node20" class="node">
<title>Node20</title>
<g id="a_node20"><a xlink:href="group__asterics__support.html#ga0ccb0610d764a95bda989e35fba59490" target="_top" xlink:title=" ">
<polygon fill="none" stroke="black" points="500,-263.5 500,-282.5 622,-282.5 622,-263.5 500,-263.5"/>
<text text-anchor="middle" x="561" y="-270.5" font-family="Helvetica,sans-Serif" font-size="10.00">as_reg_write_masked</text>
</a>
</g>
</g>
<!-- Node19&#45;&gt;Node20 -->
<g id="edge25" class="edge">
<title>Node19&#45;&gt;Node20</title>
<path fill="none" stroke="midnightblue" d="M458.28,-273C468.57,-273 479.21,-273 489.56,-273"/>
<polygon fill="midnightblue" stroke="midnightblue" points="489.79,-276.5 499.79,-273 489.79,-269.5 489.79,-276.5"/>
</g>
<!-- Node20&#45;&gt;Node14 -->
<g id="edge26" class="edge">
<title>Node20&#45;&gt;Node14</title>
<path fill="none" stroke="midnightblue" d="M569.84,-263.37C592.32,-235.79 657.18,-156.17 686.19,-120.57"/>
<polygon fill="midnightblue" stroke="midnightblue" points="689.14,-122.48 692.74,-112.52 683.71,-118.06 689.14,-122.48"/>
</g>
<!-- Node21 -->
<g id="node21" class="node">
<title>Node21</title>
<g id="a_node21"><a xlink:href="group__asterics__support.html#ga6345b997e24a6cd5f9143cef27629d49" target="_top" xlink:title=" ">
<polygon fill="none" stroke="black" points="662,-307.5 662,-326.5 741,-326.5 741,-307.5 662,-307.5"/>
<text text-anchor="middle" x="701.5" y="-314.5" font-family="Helvetica,sans-Serif" font-size="10.00">as_reg_write</text>
</a>
</g>
</g>
<!-- Node20&#45;&gt;Node21 -->
<g id="edge27" class="edge">
<title>Node20&#45;&gt;Node21</title>
<path fill="none" stroke="midnightblue" d="M592.05,-282.55C612.2,-288.95 638.94,-297.44 660.83,-304.4"/>
<polygon fill="midnightblue" stroke="midnightblue" points="659.92,-307.78 670.51,-307.47 662.04,-301.11 659.92,-307.78"/>
</g>
<!-- Node22 -->
<g id="node22" class="node">
<title>Node22</title>
<g id="a_node22"><a xlink:href="group__asterics__support.html#gab651cc2c035ce61b354578434e59f822" target="_top" xlink:title=" ">
<polygon fill="none" stroke="black" points="777,-307.5 777,-326.5 890,-326.5 890,-307.5 777,-307.5"/>
<text text-anchor="middle" x="833.5" y="-314.5" font-family="Helvetica,sans-Serif" font-size="10.00">as_reg_from_uint32</text>
</a>
</g>
</g>
<!-- Node21&#45;&gt;Node22 -->
<g id="edge28" class="edge">
<title>Node21&#45;&gt;Node22</title>
<path fill="none" stroke="midnightblue" d="M741.15,-317C749.22,-317 757.94,-317 766.68,-317"/>
<polygon fill="midnightblue" stroke="midnightblue" points="766.92,-320.5 776.92,-317 766.92,-313.5 766.92,-320.5"/>
</g>
<!-- Node23&#45;&gt;Node13 -->
<g id="edge30" class="edge">
<title>Node23&#45;&gt;Node13</title>
<path fill="none" stroke="midnightblue" d="M447.95,-350.84C452.31,-348.33 456.41,-345.4 460,-342 490.67,-312.93 477.1,-291.8 496,-254 512.12,-221.77 534.34,-186.2 547.91,-165.27"/>
<polygon fill="midnightblue" stroke="midnightblue" points="550.94,-167.03 553.49,-156.75 545.08,-163.2 550.94,-167.03"/>
</g>
<!-- Node23&#45;&gt;Node21 -->
<g id="edge31" class="edge">
<title>Node23&#45;&gt;Node21</title>
<path fill="none" stroke="midnightblue" d="M449.53,-357.91C497.13,-351.18 566,-341.1 626,-331 634.39,-329.59 643.3,-327.99 651.93,-326.4"/>
<polygon fill="midnightblue" stroke="midnightblue" points="652.69,-329.82 661.88,-324.55 651.41,-322.94 652.69,-329.82"/>
</g>
<!-- Node24&#45;&gt;Node13 -->
<g id="edge33" class="edge">
<title>Node24&#45;&gt;Node13</title>
<path fill="none" stroke="midnightblue" d="M443.69,-301.88C449.48,-299.08 455.06,-295.81 460,-292 483.46,-273.9 528.7,-200.12 549.31,-165.32"/>
<polygon fill="midnightblue" stroke="midnightblue" points="552.37,-167.02 554.43,-156.62 546.34,-163.47 552.37,-167.02"/>
</g>
<!-- Node24&#45;&gt;Node21 -->
<g id="edge34" class="edge">
<title>Node24&#45;&gt;Node21</title>
<path fill="none" stroke="midnightblue" d="M449.58,-317C508.02,-317 596.79,-317 651.58,-317"/>
<polygon fill="midnightblue" stroke="midnightblue" points="651.74,-320.5 661.74,-317 651.74,-313.5 651.74,-320.5"/>
</g>
<!-- Node25&#45;&gt;Node9 -->
<g id="edge36" class="edge">
<title>Node25&#45;&gt;Node9</title>
<path fill="none" stroke="midnightblue" d="M440.79,-481.29C456.11,-479.84 473.27,-478.21 489.7,-476.66"/>
<polygon fill="midnightblue" stroke="midnightblue" points="490.18,-480.13 499.81,-475.7 489.52,-473.16 490.18,-480.13"/>
</g>
<!-- Node26&#45;&gt;Node13 -->
<g id="edge38" class="edge">
<title>Node26&#45;&gt;Node13</title>
<path fill="none" stroke="midnightblue" d="M443.49,-19.53C449.52,-22.21 455.21,-25.63 460,-30 492.43,-59.61 464.94,-90.96 496,-122 500.48,-126.48 505.87,-130.18 511.58,-133.23"/>
<polygon fill="midnightblue" stroke="midnightblue" points="510.21,-136.45 520.75,-137.5 513.16,-130.1 510.21,-136.45"/>
</g>
<!-- Node26&#45;&gt;Node17 -->
<g id="edge39" class="edge">
<title>Node26&#45;&gt;Node17</title>
<path fill="none" stroke="midnightblue" d="M432.75,-19.56C441.95,-22.36 451.49,-25.82 460,-30 491.09,-45.26 522.67,-70.24 541.8,-86.65"/>
<polygon fill="midnightblue" stroke="midnightblue" points="539.59,-89.37 549.43,-93.31 544.2,-84.1 539.59,-89.37"/>
</g>
</g>
</svg>
