<?xml version="1.0" encoding="UTF-8" standalone="no"?>
<!DOCTYPE svg PUBLIC "-//W3C//DTD SVG 1.1//EN"
 "http://www.w3.org/Graphics/SVG/1.1/DTD/svg11.dtd">
<!-- Generated by graphviz version 2.43.0 (0)
 -->
<!-- Title: as_reader_writer.h Pages: 1 -->
<svg width="362pt" height="140pt"
 viewBox="0.00 0.00 361.50 140.00" xmlns="http://www.w3.org/2000/svg" xmlns:xlink="http://www.w3.org/1999/xlink">
<g id="graph0" class="graph" transform="scale(1 1) rotate(0) translate(4 136)">
<title>as_reader_writer.h</title>
<!-- Node1 -->
<g id="node1" class="node">
<title>Node1</title>
<g id="a_node1"><a xlink:title="Driver (header file) for as_reader_writer module.">
<polygon fill="#bfbfbf" stroke="black" points="116.5,-112.5 116.5,-131.5 223.5,-131.5 223.5,-112.5 116.5,-112.5"/>
<text text-anchor="middle" x="170" y="-119.5" font-family="Helvetica,sans-Serif" font-size="10.00">as_reader_writer.h</text>
</a>
</g>
</g>
<!-- Node2 -->
<g id="node2" class="node">
<title>Node2</title>
<g id="a_node2"><a xlink:href="as__memio_8h.html" target="_top" xlink:title=" ">
<polygon fill="none" stroke="black" points="23.5,-56.5 23.5,-75.5 100.5,-75.5 100.5,-56.5 23.5,-56.5"/>
<text text-anchor="middle" x="62" y="-63.5" font-family="Helvetica,sans-Serif" font-size="10.00">as_memio.h</text>
</a>
</g>
</g>
<!-- Node1&#45;&gt;Node2 -->
<g id="edge1" class="edge">
<title>Node1&#45;&gt;Node2</title>
<path fill="none" stroke="midnightblue" d="M143.45,-107.73C123.45,-97.73 96.61,-84.31 79.31,-75.65"/>
<polygon fill="midnightblue" stroke="midnightblue" points="142.14,-110.98 152.65,-112.32 145.27,-104.72 142.14,-110.98"/>
</g>
<!-- Node4 -->
<g id="node4" class="node">
<title>Node4</title>
<g id="a_node4"><a xlink:href="as__driver_8c.html" target="_top" xlink:title="Linux driver implementation.">
<polygon fill="none" stroke="black" points="94,-0.5 94,-19.5 164,-19.5 164,-0.5 94,-0.5"/>
<text text-anchor="middle" x="129" y="-7.5" font-family="Helvetica,sans-Serif" font-size="10.00">as_driver.c</text>
</a>
</g>
</g>
<!-- Node1&#45;&gt;Node4 -->
<g id="edge6" class="edge">
<title>Node1&#45;&gt;Node4</title>
<path fill="none" stroke="midnightblue" d="M160.89,-102.97C156.96,-94.84 152.49,-85.05 149,-76 141.36,-56.17 134.58,-32.09 131.22,-19.54"/>
<polygon fill="midnightblue" stroke="midnightblue" points="157.88,-104.78 165.45,-112.19 164.15,-101.68 157.88,-104.78"/>
</g>
<!-- Node5 -->
<g id="node5" class="node">
<title>Node5</title>
<g id="a_node5"><a xlink:href="as__reader__writer_8c.html" target="_top" xlink:title="Driver (source file) for as_reader_writer module.">
<polygon fill="none" stroke="black" points="157.5,-56.5 157.5,-75.5 264.5,-75.5 264.5,-56.5 157.5,-56.5"/>
<text text-anchor="middle" x="211" y="-63.5" font-family="Helvetica,sans-Serif" font-size="10.00">as_reader_writer.c</text>
</a>
</g>
</g>
<!-- Node1&#45;&gt;Node5 -->
<g id="edge4" class="edge">
<title>Node1&#45;&gt;Node5</title>
<path fill="none" stroke="midnightblue" d="M183.02,-103.86C190.12,-94.5 198.6,-83.33 204.36,-75.75"/>
<polygon fill="midnightblue" stroke="midnightblue" points="180.03,-102 176.77,-112.08 185.61,-106.24 180.03,-102"/>
</g>
<!-- Node6 -->
<g id="node6" class="node">
<title>Node6</title>
<g id="a_node6"><a xlink:href="as__buffer_8c.html" target="_top" xlink:title="Buffer implementation file.">
<polygon fill="none" stroke="black" points="282.5,-56.5 282.5,-75.5 353.5,-75.5 353.5,-56.5 282.5,-56.5"/>
<text text-anchor="middle" x="318" y="-63.5" font-family="Helvetica,sans-Serif" font-size="10.00">as_buffer.c</text>
</a>
</g>
</g>
<!-- Node1&#45;&gt;Node6 -->
<g id="edge5" class="edge">
<title>Node1&#45;&gt;Node6</title>
<path fill="none" stroke="midnightblue" d="M203.15,-108.91C230.97,-98.75 270.02,-84.51 294.66,-75.52"/>
<polygon fill="midnightblue" stroke="midnightblue" points="201.65,-105.73 193.45,-112.44 204.04,-112.3 201.65,-105.73"/>
</g>
<!-- Node3 -->
<g id="node3" class="node">
<title>Node3</title>
<g id="a_node3"><a xlink:href="as__memio_8c.html" target="_top" xlink:title=" ">
<polygon fill="none" stroke="black" points="0,-0.5 0,-19.5 76,-19.5 76,-0.5 0,-0.5"/>
<text text-anchor="middle" x="38" y="-7.5" font-family="Helvetica,sans-Serif" font-size="10.00">as_memio.c</text>
</a>
</g>
</g>
<!-- Node2&#45;&gt;Node3 -->
<g id="edge2" class="edge">
<title>Node2&#45;&gt;Node3</title>
<path fill="none" stroke="midnightblue" d="M53.86,-46.69C49.82,-37.59 45.12,-27.01 41.89,-19.75"/>
<polygon fill="midnightblue" stroke="midnightblue" points="50.78,-48.37 58.04,-56.08 57.17,-45.52 50.78,-48.37"/>
</g>
<!-- Node2&#45;&gt;Node4 -->
<g id="edge3" class="edge">
<title>Node2&#45;&gt;Node4</title>
<path fill="none" stroke="midnightblue" d="M80.83,-49.82C92.84,-40.15 107.97,-27.95 118.04,-19.83"/>
<polygon fill="midnightblue" stroke="midnightblue" points="78.35,-47.32 72.76,-56.32 82.75,-52.77 78.35,-47.32"/>
</g>
</g>
</svg>
