<?xml version="1.0" encoding="UTF-8" standalone="no"?>
<!DOCTYPE svg PUBLIC "-//W3C//DTD SVG 1.1//EN"
 "http://www.w3.org/Graphics/SVG/1.1/DTD/svg11.dtd">
<!-- Generated by graphviz version 2.43.0 (0)
 -->
<!-- Title: as_config.h Pages: 1 -->
<svg width="2157pt" height="274pt"
 viewBox="0.00 0.00 2156.50 274.00" xmlns="http://www.w3.org/2000/svg" xmlns:xlink="http://www.w3.org/1999/xlink">
<g id="graph0" class="graph" transform="scale(1 1) rotate(0) translate(4 270)">
<title>as_config.h</title>
<!-- Node1 -->
<g id="node1" class="node">
<title>Node1</title>
<g id="a_node1"><a xlink:title=" ">
<polygon fill="#bfbfbf" stroke="black" points="1037.5,-246.5 1037.5,-265.5 1109.5,-265.5 1109.5,-246.5 1037.5,-246.5"/>
<text text-anchor="middle" x="1073.5" y="-253.5" font-family="Helvetica,sans-Serif" font-size="10.00">as_config.h</text>
</a>
</g>
</g>
<!-- Node2 -->
<g id="node2" class="node">
<title>Node2</title>
<g id="a_node2"><a xlink:href="as__support_8h.html" target="_top" xlink:title="Software support module for ASTERICS systems.">
<polygon fill="none" stroke="black" points="1034,-190.5 1034,-209.5 1113,-209.5 1113,-190.5 1034,-190.5"/>
<text text-anchor="middle" x="1073.5" y="-197.5" font-family="Helvetica,sans-Serif" font-size="10.00">as_support.h</text>
</a>
</g>
</g>
<!-- Node1&#45;&gt;Node2 -->
<g id="edge1" class="edge">
<title>Node1&#45;&gt;Node2</title>
<path fill="none" stroke="midnightblue" d="M1073.5,-235.8C1073.5,-226.91 1073.5,-216.78 1073.5,-209.75"/>
<polygon fill="midnightblue" stroke="midnightblue" points="1070,-236.08 1073.5,-246.08 1077,-236.08 1070,-236.08"/>
</g>
<!-- Node3 -->
<g id="node3" class="node">
<title>Node3</title>
<g id="a_node3"><a xlink:href="as__base__registers_8h.html" target="_top" xlink:title="Driver (header file) for as_base_registers module.">
<polygon fill="none" stroke="black" points="20,-129 20,-148 133,-148 133,-129 20,-129"/>
<text text-anchor="middle" x="76.5" y="-136" font-family="Helvetica,sans-Serif" font-size="10.00">as_base_registers.h</text>
</a>
</g>
</g>
<!-- Node2&#45;&gt;Node3 -->
<g id="edge2" class="edge">
<title>Node2&#45;&gt;Node3</title>
<path fill="none" stroke="midnightblue" d="M1023.59,-197.87C888.51,-194.52 504.52,-182.98 186.5,-154 169.14,-152.42 150.31,-150.14 133.21,-147.86"/>
<polygon fill="midnightblue" stroke="midnightblue" points="1023.55,-201.37 1033.64,-198.12 1023.72,-194.38 1023.55,-201.37"/>
</g>
<!-- Node5 -->
<g id="node5" class="node">
<title>Node5</title>
<g id="a_node5"><a xlink:href="as__canny__pipe_8h.html" target="_top" xlink:title="Driver (header file) for the canny reference systems canny pipeline.">
<polygon fill="none" stroke="black" points="131.5,-62 131.5,-81 229.5,-81 229.5,-62 131.5,-62"/>
<text text-anchor="middle" x="180.5" y="-69" font-family="Helvetica,sans-Serif" font-size="10.00">as_canny_pipe.h</text>
</a>
</g>
</g>
<!-- Node2&#45;&gt;Node5 -->
<g id="edge4" class="edge">
<title>Node2&#45;&gt;Node5</title>
<path fill="none" stroke="midnightblue" d="M1023.69,-198.82C854.3,-197.85 307.18,-191.79 238.5,-154 208.68,-137.59 190.52,-98.53 183.65,-81.13"/>
<polygon fill="midnightblue" stroke="midnightblue" points="1023.81,-202.32 1033.83,-198.87 1023.85,-195.32 1023.81,-202.32"/>
</g>
<!-- Node7 -->
<g id="node7" class="node">
<title>Node7</title>
<g id="a_node7"><a xlink:href="as__canny__pipe_2software_2driver_2as__window__pipeline__common_8h.html" target="_top" xlink:title="Generic driver (header file) for window pipeline modules.">
<polygon fill="none" stroke="black" points="248,-123.5 248,-153.5 363,-153.5 363,-123.5 248,-123.5"/>
<text text-anchor="start" x="256" y="-141.5" font-family="Helvetica,sans-Serif" font-size="10.00">as_window_pipeline</text>
<text text-anchor="middle" x="305.5" y="-130.5" font-family="Helvetica,sans-Serif" font-size="10.00">_common.h</text>
</a>
</g>
</g>
<!-- Node2&#45;&gt;Node7 -->
<g id="edge6" class="edge">
<title>Node2&#45;&gt;Node7</title>
<path fill="none" stroke="midnightblue" d="M1023.95,-197.34C911.65,-193.21 629.26,-180.84 394.5,-154 384.39,-152.84 373.68,-151.34 363.32,-149.74"/>
<polygon fill="midnightblue" stroke="midnightblue" points="1023.84,-200.83 1033.96,-197.7 1024.1,-193.84 1023.84,-200.83"/>
</g>
<!-- Node9 -->
<g id="node9" class="node">
<title>Node9</title>
<g id="a_node9"><a xlink:href="as__crop_8h.html" target="_top" xlink:title="Driver (header file) for as_crop module.">
<polygon fill="none" stroke="black" points="404,-129 404,-148 467,-148 467,-129 404,-129"/>
<text text-anchor="middle" x="435.5" y="-136" font-family="Helvetica,sans-Serif" font-size="10.00">as_crop.h</text>
</a>
</g>
</g>
<!-- Node2&#45;&gt;Node9 -->
<g id="edge9" class="edge">
<title>Node2&#45;&gt;Node9</title>
<path fill="none" stroke="midnightblue" d="M1023.61,-196.45C926.35,-191.16 704.7,-177.46 519.5,-154 502.18,-151.81 482.98,-148.55 467.31,-145.68"/>
<polygon fill="midnightblue" stroke="midnightblue" points="1023.57,-199.96 1033.74,-197 1023.94,-192.97 1023.57,-199.96"/>
</g>
<!-- Node11 -->
<g id="node11" class="node">
<title>Node11</title>
<g id="a_node11"><a xlink:href="as__gensync_8h.html" target="_top" xlink:title="Driver (header file) for as_gensync module.">
<polygon fill="none" stroke="black" points="529,-129 529,-148 612,-148 612,-129 529,-129"/>
<text text-anchor="middle" x="570.5" y="-136" font-family="Helvetica,sans-Serif" font-size="10.00">as_gensync.h</text>
</a>
</g>
</g>
<!-- Node2&#45;&gt;Node11 -->
<g id="edge11" class="edge">
<title>Node2&#45;&gt;Node11</title>
<path fill="none" stroke="midnightblue" d="M1023.49,-195.33C942.96,-189.06 779.69,-174.93 642.5,-154 631.66,-152.35 619.98,-150.17 609.24,-148"/>
<polygon fill="midnightblue" stroke="midnightblue" points="1023.58,-198.84 1033.82,-196.12 1024.12,-191.86 1023.58,-198.84"/>
</g>
<!-- Node13 -->
<g id="node13" class="node">
<title>Node13</title>
<g id="a_node13"><a xlink:href="as__iic_8h.html" target="_top" xlink:title="Driver (header file) for the as_iic module.">
<polygon fill="none" stroke="black" points="652,-129 652,-148 705,-148 705,-129 652,-129"/>
<text text-anchor="middle" x="678.5" y="-136" font-family="Helvetica,sans-Serif" font-size="10.00">as_iic.h</text>
</a>
</g>
</g>
<!-- Node2&#45;&gt;Node13 -->
<g id="edge13" class="edge">
<title>Node2&#45;&gt;Node13</title>
<path fill="none" stroke="midnightblue" d="M1023.55,-192.52C961.18,-184.28 851.27,-169.28 757.5,-154 740.02,-151.15 720.44,-147.56 705.15,-144.67"/>
<polygon fill="midnightblue" stroke="midnightblue" points="1023.14,-195.99 1033.52,-193.83 1024.06,-189.05 1023.14,-195.99"/>
</g>
<!-- Node18 -->
<g id="node18" class="node">
<title>Node18</title>
<g id="a_node18"><a xlink:href="as__invert_8h.html" target="_top" xlink:title="Driver (header file) for as_invert module.">
<polygon fill="none" stroke="black" points="1191,-129 1191,-148 1262,-148 1262,-129 1191,-129"/>
<text text-anchor="middle" x="1226.5" y="-136" font-family="Helvetica,sans-Serif" font-size="10.00">as_invert.h</text>
</a>
</g>
</g>
<!-- Node2&#45;&gt;Node18 -->
<g id="edge18" class="edge">
<title>Node2&#45;&gt;Node18</title>
<path fill="none" stroke="midnightblue" d="M1104.92,-186.78C1134.65,-175.22 1178.51,-158.16 1204.62,-148.01"/>
<polygon fill="midnightblue" stroke="midnightblue" points="1103.47,-183.59 1095.42,-190.48 1106.01,-190.11 1103.47,-183.59"/>
</g>
<!-- Node20 -->
<g id="node20" class="node">
<title>Node20</title>
<g id="a_node20"><a xlink:href="as__memio_8h.html" target="_top" xlink:title=" ">
<polygon fill="none" stroke="black" points="943,-62 943,-81 1020,-81 1020,-62 943,-62"/>
<text text-anchor="middle" x="981.5" y="-69" font-family="Helvetica,sans-Serif" font-size="10.00">as_memio.h</text>
</a>
</g>
</g>
<!-- Node2&#45;&gt;Node20 -->
<g id="edge20" class="edge">
<title>Node2&#45;&gt;Node20</title>
<path fill="none" stroke="midnightblue" d="M1061.22,-182.12C1041.39,-154.86 1003.01,-102.08 987.87,-81.26"/>
<polygon fill="midnightblue" stroke="midnightblue" points="1058.46,-184.28 1067.18,-190.31 1064.13,-180.16 1058.46,-184.28"/>
</g>
<!-- Node22 -->
<g id="node22" class="node">
<title>Node22</title>
<g id="a_node22"><a xlink:href="as__picam_8h.html" target="_top" xlink:title="Driver (header file) for as_picam module.">
<polygon fill="none" stroke="black" points="1280.5,-129 1280.5,-148 1352.5,-148 1352.5,-129 1280.5,-129"/>
<text text-anchor="middle" x="1316.5" y="-136" font-family="Helvetica,sans-Serif" font-size="10.00">as_picam.h</text>
</a>
</g>
</g>
<!-- Node2&#45;&gt;Node22 -->
<g id="edge23" class="edge">
<title>Node2&#45;&gt;Node22</title>
<path fill="none" stroke="midnightblue" d="M1123.38,-188.77C1163.37,-180.29 1220.82,-167.48 1270.5,-154 1276.97,-152.25 1283.88,-150.17 1290.34,-148.15"/>
<polygon fill="midnightblue" stroke="midnightblue" points="1122.42,-185.4 1113.35,-190.88 1123.86,-192.25 1122.42,-185.4"/>
</g>
<!-- Node24 -->
<g id="node24" class="node">
<title>Node24</title>
<g id="a_node24"><a xlink:href="as__reader__writer_8h.html" target="_top" xlink:title="Driver (header file) for as_reader_writer module.">
<polygon fill="none" stroke="black" points="900,-129 900,-148 1007,-148 1007,-129 900,-129"/>
<text text-anchor="middle" x="953.5" y="-136" font-family="Helvetica,sans-Serif" font-size="10.00">as_reader_writer.h</text>
</a>
</g>
</g>
<!-- Node2&#45;&gt;Node24 -->
<g id="edge25" class="edge">
<title>Node2&#45;&gt;Node24</title>
<path fill="none" stroke="midnightblue" d="M1047.32,-186.02C1024.05,-174.48 990.7,-157.94 970.66,-148.01"/>
<polygon fill="midnightblue" stroke="midnightblue" points="1045.79,-189.17 1056.31,-190.48 1048.9,-182.9 1045.79,-189.17"/>
</g>
<!-- Node26 -->
<g id="node26" class="node">
<title>Node26</title>
<g id="a_node26"><a xlink:href="as__buffer_8c.html" target="_top" xlink:title="Buffer implementation file.">
<polygon fill="none" stroke="black" points="1038,-62 1038,-81 1109,-81 1109,-62 1038,-62"/>
<text text-anchor="middle" x="1073.5" y="-69" font-family="Helvetica,sans-Serif" font-size="10.00">as_buffer.c</text>
</a>
</g>
</g>
<!-- Node2&#45;&gt;Node26 -->
<g id="edge38" class="edge">
<title>Node2&#45;&gt;Node26</title>
<path fill="none" stroke="midnightblue" d="M1073.5,-179.94C1073.5,-152.12 1073.5,-101.54 1073.5,-81.26"/>
<polygon fill="midnightblue" stroke="midnightblue" points="1070,-180.31 1073.5,-190.31 1077,-180.31 1070,-180.31"/>
</g>
<!-- Node27 -->
<g id="node27" class="node">
<title>Node27</title>
<g id="a_node27"><a xlink:href="as__stream__adapter_8h.html" target="_top" xlink:title="Driver (header file) for as_stream_adapter module.">
<polygon fill="none" stroke="black" points="1371,-129 1371,-148 1490,-148 1490,-129 1371,-129"/>
<text text-anchor="middle" x="1430.5" y="-136" font-family="Helvetica,sans-Serif" font-size="10.00">as_stream_adapter.h</text>
</a>
</g>
</g>
<!-- Node2&#45;&gt;Node27 -->
<g id="edge30" class="edge">
<title>Node2&#45;&gt;Node27</title>
<path fill="none" stroke="midnightblue" d="M1123.12,-192.05C1180.62,-183.81 1278.15,-169.26 1361.5,-154 1371.25,-152.21 1381.74,-150.11 1391.52,-148.06"/>
<polygon fill="midnightblue" stroke="midnightblue" points="1122.61,-188.59 1113.21,-193.46 1123.6,-195.52 1122.61,-188.59"/>
</g>
<!-- Node29 -->
<g id="node29" class="node">
<title>Node29</title>
<g id="a_node29"><a xlink:href="as__stream__strobe__counter_8h.html" target="_top" xlink:title="Driver (header file) for as_stream_strobe_counter module.">
<polygon fill="none" stroke="black" points="1508,-129 1508,-148 1663,-148 1663,-129 1508,-129"/>
<text text-anchor="middle" x="1585.5" y="-136" font-family="Helvetica,sans-Serif" font-size="10.00">as_stream_strobe_counter.h</text>
</a>
</g>
</g>
<!-- Node2&#45;&gt;Node29 -->
<g id="edge32" class="edge">
<title>Node2&#45;&gt;Node29</title>
<path fill="none" stroke="midnightblue" d="M1123.36,-194.69C1202.87,-187.61 1363.23,-172.42 1498.5,-154 1511.09,-152.29 1524.67,-150.16 1537.26,-148.07"/>
<polygon fill="midnightblue" stroke="midnightblue" points="1122.8,-191.23 1113.15,-195.6 1123.42,-198.2 1122.8,-191.23"/>
</g>
<!-- Node31 -->
<g id="node31" class="node">
<title>Node31</title>
<g id="a_node31"><a xlink:href="as__threshold_8h.html" target="_top" xlink:title="Driver (header file) for as_threshold module.">
<polygon fill="none" stroke="black" points="1681.5,-129 1681.5,-148 1769.5,-148 1769.5,-129 1681.5,-129"/>
<text text-anchor="middle" x="1725.5" y="-136" font-family="Helvetica,sans-Serif" font-size="10.00">as_threshold.h</text>
</a>
</g>
</g>
<!-- Node2&#45;&gt;Node31 -->
<g id="edge34" class="edge">
<title>Node2&#45;&gt;Node31</title>
<path fill="none" stroke="midnightblue" d="M1123.47,-198.39C1226.62,-196.44 1470.32,-188.27 1671.5,-154 1680.11,-152.53 1689.34,-150.31 1697.69,-148.03"/>
<polygon fill="midnightblue" stroke="midnightblue" points="1123.28,-194.89 1113.35,-198.57 1123.41,-201.89 1123.28,-194.89"/>
</g>
<!-- Node33 -->
<g id="node33" class="node">
<title>Node33</title>
<g id="a_node33"><a xlink:href="as__window__pipeline_2software_2driver_2as__window__pipeline__common_8h.html" target="_top" xlink:title="Generic driver (header file) for window pipeline modules.">
<polygon fill="none" stroke="black" points="1787,-123.5 1787,-153.5 1902,-153.5 1902,-123.5 1787,-123.5"/>
<text text-anchor="start" x="1795" y="-141.5" font-family="Helvetica,sans-Serif" font-size="10.00">as_window_pipeline</text>
<text text-anchor="middle" x="1844.5" y="-130.5" font-family="Helvetica,sans-Serif" font-size="10.00">_common.h</text>
</a>
</g>
</g>
<!-- Node2&#45;&gt;Node33 -->
<g id="edge36" class="edge">
<title>Node2&#45;&gt;Node33</title>
<path fill="none" stroke="midnightblue" d="M1123.38,-198.42C1239.07,-196.52 1534.43,-188.4 1778.5,-154 1781.17,-153.62 1783.9,-153.2 1786.64,-152.73"/>
<polygon fill="midnightblue" stroke="midnightblue" points="1123.02,-194.93 1113.08,-198.58 1123.13,-201.93 1123.02,-194.93"/>
</g>
<!-- Node35 -->
<g id="node35" class="node">
<title>Node35</title>
<g id="a_node35"><a xlink:href="as__cache_8h.html" target="_top" xlink:title=" ">
<polygon fill="none" stroke="black" points="1102,-129 1102,-148 1173,-148 1173,-129 1102,-129"/>
<text text-anchor="middle" x="1137.5" y="-136" font-family="Helvetica,sans-Serif" font-size="10.00">as_cache.h</text>
</a>
</g>
</g>
<!-- Node2&#45;&gt;Node35 -->
<g id="edge39" class="edge">
<title>Node2&#45;&gt;Node35</title>
<path fill="none" stroke="midnightblue" d="M1090.01,-183.65C1102.21,-172.31 1118.37,-157.28 1128.35,-148.01"/>
<polygon fill="midnightblue" stroke="midnightblue" points="1087.61,-181.1 1082.67,-190.48 1092.38,-186.23 1087.61,-181.1"/>
</g>
<!-- Node37 -->
<g id="node37" class="node">
<title>Node37</title>
<g id="a_node37"><a xlink:href="as__driver_8h.html" target="_top" xlink:title="Linux kernel driver header file.">
<polygon fill="none" stroke="black" points="767,-129 767,-148 838,-148 838,-129 767,-129"/>
<text text-anchor="middle" x="802.5" y="-136" font-family="Helvetica,sans-Serif" font-size="10.00">as_driver.h</text>
</a>
</g>
</g>
<!-- Node2&#45;&gt;Node37 -->
<g id="edge44" class="edge">
<title>Node2&#45;&gt;Node37</title>
<path fill="none" stroke="midnightblue" d="M1024.7,-188.29C971.02,-176.5 886.04,-157.84 838.23,-147.35"/>
<polygon fill="midnightblue" stroke="midnightblue" points="1024.15,-191.75 1034.67,-190.48 1025.66,-184.91 1024.15,-191.75"/>
</g>
<!-- Node38 -->
<g id="node38" class="node">
<title>Node38</title>
<g id="a_node38"><a xlink:href="trace__events__asterics_8h.html" target="_top" xlink:title=" ">
<polygon fill="none" stroke="black" points="1920.5,-129 1920.5,-148 2052.5,-148 2052.5,-129 1920.5,-129"/>
<text text-anchor="middle" x="1986.5" y="-136" font-family="Helvetica,sans-Serif" font-size="10.00">trace_events_asterics.h</text>
</a>
</g>
</g>
<!-- Node2&#45;&gt;Node38 -->
<g id="edge46" class="edge">
<title>Node2&#45;&gt;Node38</title>
<path fill="none" stroke="midnightblue" d="M1123.43,-198.71C1253.63,-197.42 1614.07,-190.56 1911.5,-154 1923.35,-152.54 1936.13,-150.32 1947.73,-148.05"/>
<polygon fill="midnightblue" stroke="midnightblue" points="1123.33,-195.21 1113.36,-198.8 1123.4,-202.21 1123.33,-195.21"/>
</g>
<!-- Node40 -->
<g id="node40" class="node">
<title>Node40</title>
<g id="a_node40"><a xlink:href="as__support_8c.html" target="_top" xlink:title=" ">
<polygon fill="none" stroke="black" points="2070.5,-129 2070.5,-148 2148.5,-148 2148.5,-129 2070.5,-129"/>
<text text-anchor="middle" x="2109.5" y="-136" font-family="Helvetica,sans-Serif" font-size="10.00">as_support.c</text>
</a>
</g>
</g>
<!-- Node2&#45;&gt;Node40 -->
<g id="edge48" class="edge">
<title>Node2&#45;&gt;Node40</title>
<path fill="none" stroke="midnightblue" d="M1123.24,-198.36C1297.27,-195.88 1878.12,-185.37 2061.5,-154 2069.39,-152.65 2077.81,-150.4 2085.36,-148.07"/>
<polygon fill="midnightblue" stroke="midnightblue" points="1123.04,-194.86 1113.09,-198.5 1123.14,-201.86 1123.04,-194.86"/>
</g>
<!-- Node4 -->
<g id="node4" class="node">
<title>Node4</title>
<g id="a_node4"><a xlink:href="as__base__registers_8c.html" target="_top" xlink:title="Driver (source file) for as_base_registers module.">
<polygon fill="none" stroke="black" points="0,-62 0,-81 113,-81 113,-62 0,-62"/>
<text text-anchor="middle" x="56.5" y="-69" font-family="Helvetica,sans-Serif" font-size="10.00">as_base_registers.c</text>
</a>
</g>
</g>
<!-- Node3&#45;&gt;Node4 -->
<g id="edge3" class="edge">
<title>Node3&#45;&gt;Node4</title>
<path fill="none" stroke="midnightblue" d="M70.78,-118.91C66.96,-106.49 62.11,-90.72 59.15,-81.13"/>
<polygon fill="midnightblue" stroke="midnightblue" points="67.52,-120.21 73.8,-128.73 74.21,-118.15 67.52,-120.21"/>
</g>
<!-- Node6 -->
<g id="node6" class="node">
<title>Node6</title>
<g id="a_node6"><a xlink:href="as__canny__pipe_8c.html" target="_top" xlink:title="Driver (source file) for the canny reference systems canny pipeline.">
<polygon fill="none" stroke="black" points="132,-0.5 132,-19.5 229,-19.5 229,-0.5 132,-0.5"/>
<text text-anchor="middle" x="180.5" y="-7.5" font-family="Helvetica,sans-Serif" font-size="10.00">as_canny_pipe.c</text>
</a>
</g>
</g>
<!-- Node5&#45;&gt;Node6 -->
<g id="edge5" class="edge">
<title>Node5&#45;&gt;Node6</title>
<path fill="none" stroke="midnightblue" d="M180.5,-51.82C180.5,-41 180.5,-27.9 180.5,-19.51"/>
<polygon fill="midnightblue" stroke="midnightblue" points="177,-51.98 180.5,-61.98 184,-51.98 177,-51.98"/>
</g>
<!-- Node7&#45;&gt;Node5 -->
<g id="edge7" class="edge">
<title>Node7&#45;&gt;Node5</title>
<path fill="none" stroke="midnightblue" d="M269.23,-118.64C245.31,-106.2 215.14,-90.51 196.86,-81.01"/>
<polygon fill="midnightblue" stroke="midnightblue" points="267.89,-121.89 278.38,-123.4 271.12,-115.68 267.89,-121.89"/>
</g>
<!-- Node8 -->
<g id="node8" class="node">
<title>Node8</title>
<g id="a_node8"><a xlink:href="as__canny__pipe_2software_2driver_2as__window__pipeline__common_8c.html" target="_top" xlink:title="Common driver (source file) for as_window_pipeline modules.">
<polygon fill="none" stroke="black" points="248,-56.5 248,-86.5 363,-86.5 363,-56.5 248,-56.5"/>
<text text-anchor="start" x="256" y="-74.5" font-family="Helvetica,sans-Serif" font-size="10.00">as_window_pipeline</text>
<text text-anchor="middle" x="305.5" y="-63.5" font-family="Helvetica,sans-Serif" font-size="10.00">_common.c</text>
</a>
</g>
</g>
<!-- Node7&#45;&gt;Node8 -->
<g id="edge8" class="edge">
<title>Node7&#45;&gt;Node8</title>
<path fill="none" stroke="midnightblue" d="M305.5,-113.11C305.5,-104.15 305.5,-94.32 305.5,-86.58"/>
<polygon fill="midnightblue" stroke="midnightblue" points="302,-113.4 305.5,-123.4 309,-113.4 302,-113.4"/>
</g>
<!-- Node10 -->
<g id="node10" class="node">
<title>Node10</title>
<g id="a_node10"><a xlink:href="as__crop_8c.html" target="_top" xlink:title="Driver (source file) for as_crop module.">
<polygon fill="none" stroke="black" points="381.5,-62 381.5,-81 443.5,-81 443.5,-62 381.5,-62"/>
<text text-anchor="middle" x="412.5" y="-69" font-family="Helvetica,sans-Serif" font-size="10.00">as_crop.c</text>
</a>
</g>
</g>
<!-- Node9&#45;&gt;Node10 -->
<g id="edge10" class="edge">
<title>Node9&#45;&gt;Node10</title>
<path fill="none" stroke="midnightblue" d="M429.06,-119.29C424.64,-106.81 418.98,-90.81 415.55,-81.13"/>
<polygon fill="midnightblue" stroke="midnightblue" points="425.76,-120.47 432.4,-128.73 432.36,-118.14 425.76,-120.47"/>
</g>
<!-- Node12 -->
<g id="node12" class="node">
<title>Node12</title>
<g id="a_node12"><a xlink:href="as__gensync_8c.html" target="_top" xlink:title="Driver (source file) for as_gensync module.">
<polygon fill="none" stroke="black" points="461.5,-62 461.5,-81 543.5,-81 543.5,-62 461.5,-62"/>
<text text-anchor="middle" x="502.5" y="-69" font-family="Helvetica,sans-Serif" font-size="10.00">as_gensync.c</text>
</a>
</g>
</g>
<!-- Node11&#45;&gt;Node12 -->
<g id="edge12" class="edge">
<title>Node11&#45;&gt;Node12</title>
<path fill="none" stroke="midnightblue" d="M553.76,-121.5C540.42,-108.75 522.27,-91.39 511.53,-81.13"/>
<polygon fill="midnightblue" stroke="midnightblue" points="551.68,-124.35 561.33,-128.73 556.52,-119.29 551.68,-124.35"/>
</g>
<!-- Node14 -->
<g id="node14" class="node">
<title>Node14</title>
<g id="a_node14"><a xlink:href="as__iic_8c.html" target="_top" xlink:title="Driver (source file) for as_iic module.">
<polygon fill="none" stroke="black" points="562,-62 562,-81 615,-81 615,-62 562,-62"/>
<text text-anchor="middle" x="588.5" y="-69" font-family="Helvetica,sans-Serif" font-size="10.00">as_iic.c</text>
</a>
</g>
</g>
<!-- Node13&#45;&gt;Node14 -->
<g id="edge14" class="edge">
<title>Node13&#45;&gt;Node14</title>
<path fill="none" stroke="midnightblue" d="M657.82,-122.57C640.06,-109.74 615.06,-91.69 600.45,-81.13"/>
<polygon fill="midnightblue" stroke="midnightblue" points="656.21,-125.72 666.36,-128.73 660.3,-120.04 656.21,-125.72"/>
</g>
<!-- Node15 -->
<g id="node15" class="node">
<title>Node15</title>
<g id="a_node15"><a xlink:href="as__i2c__driver_8h.html" target="_top" xlink:title=" ">
<polygon fill="none" stroke="black" points="633.5,-62 633.5,-81 723.5,-81 723.5,-62 633.5,-62"/>
<text text-anchor="middle" x="678.5" y="-69" font-family="Helvetica,sans-Serif" font-size="10.00">as_i2c_driver.h</text>
</a>
</g>
</g>
<!-- Node13&#45;&gt;Node15 -->
<g id="edge15" class="edge">
<title>Node13&#45;&gt;Node15</title>
<path fill="none" stroke="midnightblue" d="M678.5,-118.54C678.5,-106.17 678.5,-90.62 678.5,-81.13"/>
<polygon fill="midnightblue" stroke="midnightblue" points="675,-118.73 678.5,-128.73 682,-118.73 675,-118.73"/>
</g>
<!-- Node16 -->
<g id="node16" class="node">
<title>Node16</title>
<g id="a_node16"><a xlink:href="as__driver_8c.html" target="_top" xlink:title="Linux driver implementation.">
<polygon fill="none" stroke="black" points="754.5,-0.5 754.5,-19.5 824.5,-19.5 824.5,-0.5 754.5,-0.5"/>
<text text-anchor="middle" x="789.5" y="-7.5" font-family="Helvetica,sans-Serif" font-size="10.00">as_driver.c</text>
</a>
</g>
</g>
<!-- Node15&#45;&gt;Node16 -->
<g id="edge16" class="edge">
<title>Node15&#45;&gt;Node16</title>
<path fill="none" stroke="midnightblue" d="M703.29,-57.21C724.79,-45.69 755.26,-29.36 773.63,-19.51"/>
<polygon fill="midnightblue" stroke="midnightblue" points="701.56,-54.17 694.4,-61.98 704.87,-60.34 701.56,-54.17"/>
</g>
<!-- Node17 -->
<g id="node17" class="node">
<title>Node17</title>
<g id="a_node17"><a xlink:href="as__i2c__driver_8c.html" target="_top" xlink:title=" ">
<polygon fill="none" stroke="black" points="634,-0.5 634,-19.5 723,-19.5 723,-0.5 634,-0.5"/>
<text text-anchor="middle" x="678.5" y="-7.5" font-family="Helvetica,sans-Serif" font-size="10.00">as_i2c_driver.c</text>
</a>
</g>
</g>
<!-- Node15&#45;&gt;Node17 -->
<g id="edge17" class="edge">
<title>Node15&#45;&gt;Node17</title>
<path fill="none" stroke="midnightblue" d="M678.5,-51.82C678.5,-41 678.5,-27.9 678.5,-19.51"/>
<polygon fill="midnightblue" stroke="midnightblue" points="675,-51.98 678.5,-61.98 682,-51.98 675,-51.98"/>
</g>
<!-- Node19 -->
<g id="node19" class="node">
<title>Node19</title>
<g id="a_node19"><a xlink:href="as__invert_8c.html" target="_top" xlink:title="Driver (source file) for as_invert module.">
<polygon fill="none" stroke="black" points="1291.5,-62 1291.5,-81 1361.5,-81 1361.5,-62 1291.5,-62"/>
<text text-anchor="middle" x="1326.5" y="-69" font-family="Helvetica,sans-Serif" font-size="10.00">as_invert.c</text>
</a>
</g>
</g>
<!-- Node18&#45;&gt;Node19 -->
<g id="edge19" class="edge">
<title>Node18&#45;&gt;Node19</title>
<path fill="none" stroke="midnightblue" d="M1248.39,-123.27C1268.19,-110.4 1296.69,-91.88 1313.23,-81.13"/>
<polygon fill="midnightblue" stroke="midnightblue" points="1246.46,-120.35 1239.99,-128.73 1250.28,-126.22 1246.46,-120.35"/>
</g>
<!-- Node20&#45;&gt;Node16 -->
<g id="edge22" class="edge">
<title>Node20&#45;&gt;Node16</title>
<path fill="none" stroke="midnightblue" d="M944.01,-58.88C906.69,-47.32 850.3,-29.84 816.96,-19.51"/>
<polygon fill="midnightblue" stroke="midnightblue" points="943.4,-62.36 953.99,-61.98 945.48,-55.67 943.4,-62.36"/>
</g>
<!-- Node21 -->
<g id="node21" class="node">
<title>Node21</title>
<g id="a_node21"><a xlink:href="as__memio_8c.html" target="_top" xlink:title=" ">
<polygon fill="none" stroke="black" points="1084.5,-0.5 1084.5,-19.5 1160.5,-19.5 1160.5,-0.5 1084.5,-0.5"/>
<text text-anchor="middle" x="1122.5" y="-7.5" font-family="Helvetica,sans-Serif" font-size="10.00">as_memio.c</text>
</a>
</g>
</g>
<!-- Node20&#45;&gt;Node21 -->
<g id="edge21" class="edge">
<title>Node20&#45;&gt;Node21</title>
<path fill="none" stroke="midnightblue" d="M1011.17,-57.98C1038.55,-46.42 1078.48,-29.58 1102.34,-19.51"/>
<polygon fill="midnightblue" stroke="midnightblue" points="1009.55,-54.86 1001.7,-61.98 1012.28,-61.31 1009.55,-54.86"/>
</g>
<!-- Node23 -->
<g id="node23" class="node">
<title>Node23</title>
<g id="a_node23"><a xlink:href="as__picam_8c.html" target="_top" xlink:title="Driver (source file) for as_picam module.">
<polygon fill="none" stroke="black" points="1380,-62 1380,-81 1451,-81 1451,-62 1380,-62"/>
<text text-anchor="middle" x="1415.5" y="-69" font-family="Helvetica,sans-Serif" font-size="10.00">as_picam.c</text>
</a>
</g>
</g>
<!-- Node22&#45;&gt;Node23 -->
<g id="edge24" class="edge">
<title>Node22&#45;&gt;Node23</title>
<path fill="none" stroke="midnightblue" d="M1338.44,-123.09C1358.03,-110.24 1386.06,-91.83 1402.36,-81.13"/>
<polygon fill="midnightblue" stroke="midnightblue" points="1336.29,-120.32 1329.85,-128.73 1340.13,-126.17 1336.29,-120.32"/>
</g>
<!-- Node24&#45;&gt;Node16 -->
<g id="edge29" class="edge">
<title>Node24&#45;&gt;Node16</title>
<path fill="none" stroke="midnightblue" d="M889.76,-129.24C861.24,-122.4 829.41,-109.88 808.5,-87 791.07,-67.92 789.05,-35.3 789.16,-19.75"/>
<polygon fill="midnightblue" stroke="midnightblue" points="889.17,-132.7 899.69,-131.43 890.68,-125.86 889.17,-132.7"/>
</g>
<!-- Node24&#45;&gt;Node20 -->
<g id="edge26" class="edge">
<title>Node24&#45;&gt;Node20</title>
<path fill="none" stroke="midnightblue" d="M961.34,-119.29C966.72,-106.81 973.61,-90.81 977.78,-81.13"/>
<polygon fill="midnightblue" stroke="midnightblue" points="958.02,-118.16 957.28,-128.73 964.45,-120.93 958.02,-118.16"/>
</g>
<!-- Node25 -->
<g id="node25" class="node">
<title>Node25</title>
<g id="a_node25"><a xlink:href="as__reader__writer_8c.html" target="_top" xlink:title="Driver (source file) for as_reader_writer module.">
<polygon fill="none" stroke="black" points="818,-62 818,-81 925,-81 925,-62 818,-62"/>
<text text-anchor="middle" x="871.5" y="-69" font-family="Helvetica,sans-Serif" font-size="10.00">as_reader_writer.c</text>
</a>
</g>
</g>
<!-- Node24&#45;&gt;Node25 -->
<g id="edge27" class="edge">
<title>Node24&#45;&gt;Node25</title>
<path fill="none" stroke="midnightblue" d="M934.22,-122.21C918.06,-109.41 895.58,-91.59 882.38,-81.13"/>
<polygon fill="midnightblue" stroke="midnightblue" points="932.43,-125.26 942.44,-128.73 936.78,-119.78 932.43,-125.26"/>
</g>
<!-- Node24&#45;&gt;Node26 -->
<g id="edge28" class="edge">
<title>Node24&#45;&gt;Node26</title>
<path fill="none" stroke="midnightblue" d="M978.5,-123.96C1002.29,-111.07 1037.37,-92.07 1057.57,-81.13"/>
<polygon fill="midnightblue" stroke="midnightblue" points="976.81,-120.89 969.68,-128.73 980.14,-127.05 976.81,-120.89"/>
</g>
<!-- Node28 -->
<g id="node28" class="node">
<title>Node28</title>
<g id="a_node28"><a xlink:href="as__stream__adapter_8c.html" target="_top" xlink:title="Driver (source file) for as_stream_adapter module.">
<polygon fill="none" stroke="black" points="1469,-62 1469,-81 1588,-81 1588,-62 1469,-62"/>
<text text-anchor="middle" x="1528.5" y="-69" font-family="Helvetica,sans-Serif" font-size="10.00">as_stream_adapter.c</text>
</a>
</g>
</g>
<!-- Node27&#45;&gt;Node28 -->
<g id="edge31" class="edge">
<title>Node27&#45;&gt;Node28</title>
<path fill="none" stroke="midnightblue" d="M1452.22,-123.09C1471.61,-110.24 1499.36,-91.83 1515.49,-81.13"/>
<polygon fill="midnightblue" stroke="midnightblue" points="1450.12,-120.29 1443.72,-128.73 1453.98,-126.12 1450.12,-120.29"/>
</g>
<!-- Node30 -->
<g id="node30" class="node">
<title>Node30</title>
<g id="a_node30"><a xlink:href="as__stream__strobe__counter_8c.html" target="_top" xlink:title="Driver (source file) for as_stream_strobe_counter module.">
<polygon fill="none" stroke="black" points="1606.5,-62 1606.5,-81 1760.5,-81 1760.5,-62 1606.5,-62"/>
<text text-anchor="middle" x="1683.5" y="-69" font-family="Helvetica,sans-Serif" font-size="10.00">as_stream_strobe_counter.c</text>
</a>
</g>
</g>
<!-- Node29&#45;&gt;Node30 -->
<g id="edge33" class="edge">
<title>Node29&#45;&gt;Node30</title>
<path fill="none" stroke="midnightblue" d="M1607.22,-123.09C1626.61,-110.24 1654.36,-91.83 1670.49,-81.13"/>
<polygon fill="midnightblue" stroke="midnightblue" points="1605.12,-120.29 1598.72,-128.73 1608.98,-126.12 1605.12,-120.29"/>
</g>
<!-- Node32 -->
<g id="node32" class="node">
<title>Node32</title>
<g id="a_node32"><a xlink:href="as__threshold_8c.html" target="_top" xlink:title="Driver (source file) for as_threshold module.">
<polygon fill="none" stroke="black" points="1779,-62 1779,-81 1866,-81 1866,-62 1779,-62"/>
<text text-anchor="middle" x="1822.5" y="-69" font-family="Helvetica,sans-Serif" font-size="10.00">as_threshold.c</text>
</a>
</g>
</g>
<!-- Node31&#45;&gt;Node32 -->
<g id="edge35" class="edge">
<title>Node31&#45;&gt;Node32</title>
<path fill="none" stroke="midnightblue" d="M1747,-123.09C1766.19,-110.24 1793.65,-91.83 1809.63,-81.13"/>
<polygon fill="midnightblue" stroke="midnightblue" points="1744.94,-120.26 1738.58,-128.73 1748.84,-126.07 1744.94,-120.26"/>
</g>
<!-- Node34 -->
<g id="node34" class="node">
<title>Node34</title>
<g id="a_node34"><a xlink:href="as__window__pipeline_2software_2driver_2as__window__pipeline__common_8c.html" target="_top" xlink:title="Common driver (source file) for as_window_pipeline modules.">
<polygon fill="none" stroke="black" points="1884,-56.5 1884,-86.5 1999,-86.5 1999,-56.5 1884,-56.5"/>
<text text-anchor="start" x="1892" y="-74.5" font-family="Helvetica,sans-Serif" font-size="10.00">as_window_pipeline</text>
<text text-anchor="middle" x="1941.5" y="-63.5" font-family="Helvetica,sans-Serif" font-size="10.00">_common.c</text>
</a>
</g>
</g>
<!-- Node33&#45;&gt;Node34 -->
<g id="edge37" class="edge">
<title>Node33&#45;&gt;Node34</title>
<path fill="none" stroke="midnightblue" d="M1874,-117.73C1889.01,-107.68 1906.9,-95.68 1920.49,-86.58"/>
<polygon fill="midnightblue" stroke="midnightblue" points="1871.91,-114.92 1865.55,-123.4 1875.8,-120.74 1871.91,-114.92"/>
</g>
<!-- Node35&#45;&gt;Node16 -->
<g id="edge43" class="edge">
<title>Node35&#45;&gt;Node16</title>
<path fill="none" stroke="midnightblue" d="M1138.48,-118.79C1138.36,-100.03 1134.97,-71.74 1117.5,-56 1075.01,-17.72 900.38,-11.76 824.72,-11.01"/>
<polygon fill="midnightblue" stroke="midnightblue" points="1134.98,-118.72 1138.24,-128.8 1141.98,-118.89 1134.98,-118.72"/>
</g>
<!-- Node35&#45;&gt;Node21 -->
<g id="edge40" class="edge">
<title>Node35&#45;&gt;Node21</title>
<path fill="none" stroke="midnightblue" d="M1172.7,-125.54C1200.59,-115.26 1236.21,-100.08 1244.5,-87 1251.88,-75.36 1252.38,-67.3 1244.5,-56 1225.72,-29.05 1188.88,-18.2 1160.57,-13.85"/>
<polygon fill="midnightblue" stroke="midnightblue" points="1171.43,-122.27 1163.21,-128.96 1173.8,-128.86 1171.43,-122.27"/>
</g>
<!-- Node35&#45;&gt;Node26 -->
<g id="edge41" class="edge">
<title>Node35&#45;&gt;Node26</title>
<path fill="none" stroke="midnightblue" d="M1121.74,-121.5C1109.19,-108.75 1092.1,-91.39 1081.99,-81.13"/>
<polygon fill="midnightblue" stroke="midnightblue" points="1119.36,-124.06 1128.87,-128.73 1124.35,-119.15 1119.36,-124.06"/>
</g>
<!-- Node36 -->
<g id="node36" class="node">
<title>Node36</title>
<g id="a_node36"><a xlink:href="as__cache_8c.html" target="_top" xlink:title=" ">
<polygon fill="none" stroke="black" points="1165.5,-62 1165.5,-81 1235.5,-81 1235.5,-62 1165.5,-62"/>
<text text-anchor="middle" x="1200.5" y="-69" font-family="Helvetica,sans-Serif" font-size="10.00">as_cache.c</text>
</a>
</g>
</g>
<!-- Node35&#45;&gt;Node36 -->
<g id="edge42" class="edge">
<title>Node35&#45;&gt;Node36</title>
<path fill="none" stroke="midnightblue" d="M1153.01,-121.5C1165.37,-108.75 1182.19,-91.39 1192.14,-81.13"/>
<polygon fill="midnightblue" stroke="midnightblue" points="1150.44,-119.12 1146,-128.73 1155.47,-123.99 1150.44,-119.12"/>
</g>
<!-- Node37&#45;&gt;Node16 -->
<g id="edge45" class="edge">
<title>Node37&#45;&gt;Node16</title>
<path fill="none" stroke="midnightblue" d="M790.43,-120.08C784.69,-110.73 778.44,-98.74 775.5,-87 769.44,-62.79 779.57,-33.64 785.57,-19.51"/>
<polygon fill="midnightblue" stroke="midnightblue" points="787.69,-122.28 796.08,-128.75 793.56,-118.46 787.69,-122.28"/>
</g>
<!-- Node39 -->
<g id="node39" class="node">
<title>Node39</title>
<g id="a_node39"><a xlink:href="trace__events__asterics_8c.html" target="_top" xlink:title=" ">
<polygon fill="none" stroke="black" points="2017,-62 2017,-81 2148,-81 2148,-62 2017,-62"/>
<text text-anchor="middle" x="2082.5" y="-69" font-family="Helvetica,sans-Serif" font-size="10.00">trace_events_asterics.c</text>
</a>
</g>
</g>
<!-- Node38&#45;&gt;Node39 -->
<g id="edge47" class="edge">
<title>Node38&#45;&gt;Node39</title>
<path fill="none" stroke="midnightblue" d="M2007.78,-123.09C2026.77,-110.24 2053.95,-91.83 2069.76,-81.13"/>
<polygon fill="midnightblue" stroke="midnightblue" points="2005.77,-120.23 1999.45,-128.73 2009.69,-126.03 2005.77,-120.23"/>
</g>
</g>
</svg>
