<?xml version="1.0" encoding="UTF-8" standalone="no"?>
<!DOCTYPE svg PUBLIC "-//W3C//DTD SVG 1.1//EN"
 "http://www.w3.org/Graphics/SVG/1.1/DTD/svg11.dtd">
<!-- Generated by graphviz version 2.43.0 (0)
 -->
<!-- Title: ea_draw_filled_circle Pages: 1 -->
<svg width="388pt" height="28pt"
 viewBox="0.00 0.00 388.00 28.00" xmlns="http://www.w3.org/2000/svg" xmlns:xlink="http://www.w3.org/1999/xlink">
<g id="graph0" class="graph" transform="scale(1 1) rotate(0) translate(4 24)">
<title>ea_draw_filled_circle</title>
<!-- Node1 -->
<g id="node1" class="node">
<title>Node1</title>
<g id="a_node1"><a xlink:title=" ">
<polygon fill="#bfbfbf" stroke="black" points="0,-0.5 0,-19.5 119,-19.5 119,-0.5 0,-0.5"/>
<text text-anchor="middle" x="59.5" y="-7.5" font-family="Helvetica,sans-Serif" font-size="10.00">ea_draw_filled_circle</text>
</a>
</g>
</g>
<!-- Node2 -->
<g id="node2" class="node">
<title>Node2</title>
<g id="a_node2"><a xlink:href="ea__draw__quick__line__h_8c.html#a822ca7b402ab5d265e9736ef4d0d6736" target="_top" xlink:title=" ">
<polygon fill="none" stroke="black" points="155,-0.5 155,-19.5 279,-19.5 279,-0.5 155,-0.5"/>
<text text-anchor="middle" x="217" y="-7.5" font-family="Helvetica,sans-Serif" font-size="10.00">ea_draw_quick_line_h</text>
</a>
</g>
</g>
<!-- Node1&#45;&gt;Node2 -->
<g id="edge1" class="edge">
<title>Node1&#45;&gt;Node2</title>
<path fill="none" stroke="midnightblue" d="M119.29,-10C127.54,-10 136.1,-10 144.56,-10"/>
<polygon fill="midnightblue" stroke="midnightblue" points="144.8,-13.5 154.8,-10 144.8,-6.5 144.8,-13.5"/>
</g>
<!-- Node3 -->
<g id="node3" class="node">
<title>Node3</title>
<g id="a_node3"><a xlink:href="ea__draw__quick__line__h_8c.html#a57780e02c723be87fd9cac22302de8a0" target="_top" xlink:title=" ">
<polygon fill="none" stroke="black" points="315,-0.5 315,-19.5 380,-19.5 380,-0.5 315,-0.5"/>
<text text-anchor="middle" x="347.5" y="-7.5" font-family="Helvetica,sans-Serif" font-size="10.00">get_mask</text>
</a>
</g>
</g>
<!-- Node2&#45;&gt;Node3 -->
<g id="edge2" class="edge">
<title>Node2&#45;&gt;Node3</title>
<path fill="none" stroke="midnightblue" d="M279.24,-10C287.78,-10 296.39,-10 304.47,-10"/>
<polygon fill="midnightblue" stroke="midnightblue" points="304.73,-13.5 314.73,-10 304.73,-6.5 304.73,-13.5"/>
</g>
</g>
</svg>
