<?xml version="1.0" encoding="UTF-8" standalone="no"?>
<!DOCTYPE svg PUBLIC "-//W3C//DTD SVG 1.1//EN"
 "http://www.w3.org/Graphics/SVG/1.1/DTD/svg11.dtd">
<!-- Generated by graphviz version 2.43.0 (0)
 -->
<!-- Title: ea_draw_int Pages: 1 -->
<svg width="353pt" height="28pt"
 viewBox="0.00 0.00 353.00 28.00" xmlns="http://www.w3.org/2000/svg" xmlns:xlink="http://www.w3.org/1999/xlink">
<g id="graph0" class="graph" transform="scale(1 1) rotate(0) translate(4 24)">
<title>ea_draw_int</title>
<!-- Node1 -->
<g id="node1" class="node">
<title>Node1</title>
<g id="a_node1"><a xlink:title=" ">
<polygon fill="#bfbfbf" stroke="black" points="269,-0.5 269,-19.5 345,-19.5 345,-0.5 269,-0.5"/>
<text text-anchor="middle" x="307" y="-7.5" font-family="Helvetica,sans-Serif" font-size="10.00">ea_draw_int</text>
</a>
</g>
</g>
<!-- Node2 -->
<g id="node2" class="node">
<title>Node2</title>
<g id="a_node2"><a xlink:href="embedded__augmenter__lib_8h.html#a4ebb8d922d13904756e57fdf46e5e730" target="_top" xlink:title=" ">
<polygon fill="none" stroke="black" points="142,-0.5 142,-19.5 233,-19.5 233,-0.5 142,-0.5"/>
<text text-anchor="middle" x="187.5" y="-7.5" font-family="Helvetica,sans-Serif" font-size="10.00">ea_draw_string</text>
</a>
</g>
</g>
<!-- Node1&#45;&gt;Node2 -->
<g id="edge1" class="edge">
<title>Node1&#45;&gt;Node2</title>
<path fill="none" stroke="midnightblue" d="M258.77,-10C250.35,-10 241.6,-10 233.26,-10"/>
<polygon fill="midnightblue" stroke="midnightblue" points="258.82,-13.5 268.82,-10 258.82,-6.5 258.82,-13.5"/>
</g>
<!-- Node3 -->
<g id="node3" class="node">
<title>Node3</title>
<g id="a_node3"><a xlink:href="group__vears__overlay.html#ga8b0b54001ab7c14d763be8ac65ed3150" target="_top" xlink:title="Draw a text string.">
<polygon fill="none" stroke="black" points="0,-0.5 0,-19.5 106,-19.5 106,-0.5 0,-0.5"/>
<text text-anchor="middle" x="53" y="-7.5" font-family="Helvetica,sans-Serif" font-size="10.00">vears_draw_string</text>
</a>
</g>
</g>
<!-- Node2&#45;&gt;Node3 -->
<g id="edge2" class="edge">
<title>Node2&#45;&gt;Node3</title>
<path fill="none" stroke="midnightblue" d="M131.55,-10C123.14,-10 114.48,-10 106.13,-10"/>
<polygon fill="midnightblue" stroke="midnightblue" points="131.64,-13.5 141.64,-10 131.64,-6.5 131.64,-13.5"/>
</g>
</g>
</svg>
