<?xml version="1.0" encoding="UTF-8" standalone="no"?>
<!DOCTYPE svg PUBLIC "-//W3C//DTD SVG 1.1//EN"
 "http://www.w3.org/Graphics/SVG/1.1/DTD/svg11.dtd">
<!-- Generated by graphviz version 2.43.0 (0)
 -->
<!-- Title: ea_set_overlay_software_address Pages: 1 -->
<svg width="447pt" height="39pt"
 viewBox="0.00 0.00 447.00 39.00" xmlns="http://www.w3.org/2000/svg" xmlns:xlink="http://www.w3.org/1999/xlink">
<g id="graph0" class="graph" transform="scale(1 1) rotate(0) translate(4 35)">
<title>ea_set_overlay_software_address</title>
<!-- Node1 -->
<g id="node1" class="node">
<title>Node1</title>
<g id="a_node1"><a xlink:title=" ">
<polygon fill="#bfbfbf" stroke="black" points="300,-0.5 300,-30.5 439,-30.5 439,-0.5 300,-0.5"/>
<text text-anchor="start" x="308" y="-18.5" font-family="Helvetica,sans-Serif" font-size="10.00">ea_set_overlay_software</text>
<text text-anchor="middle" x="369.5" y="-7.5" font-family="Helvetica,sans-Serif" font-size="10.00">_address</text>
</a>
</g>
</g>
<!-- Node2 -->
<g id="node2" class="node">
<title>Node2</title>
<g id="a_node2"><a xlink:href="group__vears__overlay.html#gac2bbf918679083cde66d20cbd14d5c7d" target="_top" xlink:title="Set the current target overlay for subsequent drawing.">
<polygon fill="none" stroke="black" points="139,-6 139,-25 264,-25 264,-6 139,-6"/>
<text text-anchor="middle" x="201.5" y="-13" font-family="Helvetica,sans-Serif" font-size="10.00">vears_overlay_drawto</text>
</a>
</g>
</g>
<!-- Node1&#45;&gt;Node2 -->
<g id="edge1" class="edge">
<title>Node1&#45;&gt;Node2</title>
<path fill="none" stroke="midnightblue" d="M289.27,-15.5C280.81,-15.5 272.3,-15.5 264.09,-15.5"/>
<polygon fill="midnightblue" stroke="midnightblue" points="289.54,-19 299.54,-15.5 289.54,-12 289.54,-19"/>
</g>
<!-- Node3 -->
<g id="node3" class="node">
<title>Node3</title>
<g id="a_node3"><a xlink:href="group__vears__driver.html#ga20c8ad70484fc5d6ad1d06b1d8330b49" target="_top" xlink:title="Enable the VEARS modules overlay operation.">
<polygon fill="none" stroke="black" points="0,-6 0,-25 103,-25 103,-6 0,-6"/>
<text text-anchor="middle" x="51.5" y="-13" font-family="Helvetica,sans-Serif" font-size="10.00">vears_overlay_on</text>
</a>
</g>
</g>
<!-- Node2&#45;&gt;Node3 -->
<g id="edge2" class="edge">
<title>Node2&#45;&gt;Node3</title>
<path fill="none" stroke="midnightblue" d="M128.35,-15.5C119.92,-15.5 111.45,-15.5 103.39,-15.5"/>
<polygon fill="midnightblue" stroke="midnightblue" points="128.59,-19 138.59,-15.5 128.59,-12 128.59,-19"/>
</g>
</g>
</svg>
