<?xml version="1.0" encoding="UTF-8" standalone="no"?>
<!DOCTYPE svg PUBLIC "-//W3C//DTD SVG 1.1//EN"
 "http://www.w3.org/Graphics/SVG/1.1/DTD/svg11.dtd">
<!-- Generated by graphviz version 2.43.0 (0)
 -->
<!-- Title: ea_present.c Pages: 1 -->
<svg width="241pt" height="162pt"
 viewBox="0.00 0.00 241.00 162.00" xmlns="http://www.w3.org/2000/svg" xmlns:xlink="http://www.w3.org/1999/xlink">
<g id="graph0" class="graph" transform="scale(1 1) rotate(0) translate(4 158)">
<title>ea_present.c</title>
<!-- Node1 -->
<g id="node1" class="node">
<title>Node1</title>
<g id="a_node1"><a xlink:title=" ">
<polygon fill="#bfbfbf" stroke="black" points="99,-134.5 99,-153.5 178,-153.5 178,-134.5 99,-134.5"/>
<text text-anchor="middle" x="138.5" y="-141.5" font-family="Helvetica,sans-Serif" font-size="10.00">ea_present.c</text>
</a>
</g>
</g>
<!-- Node2 -->
<g id="node2" class="node">
<title>Node2</title>
<g id="a_node2"><a xlink:href="embedded__augmenter__lib_8h.html" target="_top" xlink:title=" ">
<polygon fill="none" stroke="black" points="17,-67.5 17,-97.5 144,-97.5 144,-67.5 17,-67.5"/>
<text text-anchor="start" x="25" y="-85.5" font-family="Helvetica,sans-Serif" font-size="10.00">embedded_augmenter</text>
<text text-anchor="middle" x="80.5" y="-74.5" font-family="Helvetica,sans-Serif" font-size="10.00">_lib.h</text>
</a>
</g>
</g>
<!-- Node1&#45;&gt;Node2 -->
<g id="edge1" class="edge">
<title>Node1&#45;&gt;Node2</title>
<path fill="none" stroke="midnightblue" d="M130.19,-134.48C122.7,-126.79 111.37,-115.17 101.42,-104.96"/>
<polygon fill="midnightblue" stroke="midnightblue" points="103.66,-102.24 94.17,-97.52 98.64,-107.13 103.66,-102.24"/>
</g>
<!-- Node5 -->
<g id="node5" class="node">
<title>Node5</title>
<g id="a_node5"><a xlink:title=" ">
<polygon fill="none" stroke="#bfbfbf" points="162,-73 162,-92 233,-92 233,-73 162,-73"/>
<text text-anchor="middle" x="197.5" y="-80" font-family="Helvetica,sans-Serif" font-size="10.00">xil_cache.h</text>
</a>
</g>
</g>
<!-- Node1&#45;&gt;Node5 -->
<g id="edge4" class="edge">
<title>Node1&#45;&gt;Node5</title>
<path fill="none" stroke="midnightblue" d="M146.95,-134.48C156.07,-125.28 170.77,-110.46 181.98,-99.16"/>
<polygon fill="midnightblue" stroke="midnightblue" points="184.51,-101.57 189.06,-92.01 179.54,-96.65 184.51,-101.57"/>
</g>
<!-- Node3 -->
<g id="node3" class="node">
<title>Node3</title>
<g id="a_node3"><a xlink:title=" ">
<polygon fill="none" stroke="#bfbfbf" points="0,-6 0,-25 53,-25 53,-6 0,-6"/>
<text text-anchor="middle" x="26.5" y="-13" font-family="Helvetica,sans-Serif" font-size="10.00">stdint.h</text>
</a>
</g>
</g>
<!-- Node2&#45;&gt;Node3 -->
<g id="edge2" class="edge">
<title>Node2&#45;&gt;Node3</title>
<path fill="none" stroke="midnightblue" d="M68.78,-67.4C60.36,-57.26 48.99,-43.57 40.16,-32.94"/>
<polygon fill="midnightblue" stroke="midnightblue" points="42.81,-30.65 33.72,-25.19 37.42,-35.12 42.81,-30.65"/>
</g>
<!-- Node4 -->
<g id="node4" class="node">
<title>Node4</title>
<g id="a_node4"><a xlink:href="embedded__augmenter__font_8h.html" target="_top" xlink:title=" ">
<polygon fill="none" stroke="black" points="71,-0.5 71,-30.5 198,-30.5 198,-0.5 71,-0.5"/>
<text text-anchor="start" x="79" y="-18.5" font-family="Helvetica,sans-Serif" font-size="10.00">embedded_augmenter</text>
<text text-anchor="middle" x="134.5" y="-7.5" font-family="Helvetica,sans-Serif" font-size="10.00">_font.h</text>
</a>
</g>
</g>
<!-- Node2&#45;&gt;Node4 -->
<g id="edge3" class="edge">
<title>Node2&#45;&gt;Node4</title>
<path fill="none" stroke="midnightblue" d="M92.22,-67.4C99.22,-58.96 108.27,-48.07 116.21,-38.52"/>
<polygon fill="midnightblue" stroke="midnightblue" points="119.11,-40.51 122.81,-30.58 113.72,-36.03 119.11,-40.51"/>
</g>
</g>
</svg>
