<?xml version="1.0" encoding="UTF-8" standalone="no"?>
<!DOCTYPE svg PUBLIC "-//W3C//DTD SVG 1.1//EN"
 "http://www.w3.org/Graphics/SVG/1.1/DTD/svg11.dtd">
<!-- Generated by graphviz version 2.43.0 (0)
 -->
<!-- Title: ea_draw_filled_rectangle.c Pages: 1 -->
<svg width="280pt" height="162pt"
 viewBox="0.00 0.00 280.00 162.00" xmlns="http://www.w3.org/2000/svg" xmlns:xlink="http://www.w3.org/1999/xlink">
<g id="graph0" class="graph" transform="scale(1 1) rotate(0) translate(4 158)">
<title>ea_draw_filled_rectangle.c</title>
<!-- Node1 -->
<g id="node1" class="node">
<title>Node1</title>
<g id="a_node1"><a xlink:title=" ">
<polygon fill="#bfbfbf" stroke="black" points="62,-134.5 62,-153.5 209,-153.5 209,-134.5 62,-134.5"/>
<text text-anchor="middle" x="135.5" y="-141.5" font-family="Helvetica,sans-Serif" font-size="10.00">ea_draw_filled_rectangle.c</text>
</a>
</g>
</g>
<!-- Node2 -->
<g id="node2" class="node">
<title>Node2</title>
<g id="a_node2"><a xlink:href="embedded__augmenter__lib_8h.html" target="_top" xlink:title=" ">
<polygon fill="none" stroke="black" points="145,-67.5 145,-97.5 272,-97.5 272,-67.5 145,-67.5"/>
<text text-anchor="start" x="153" y="-85.5" font-family="Helvetica,sans-Serif" font-size="10.00">embedded_augmenter</text>
<text text-anchor="middle" x="208.5" y="-74.5" font-family="Helvetica,sans-Serif" font-size="10.00">_lib.h</text>
</a>
</g>
</g>
<!-- Node1&#45;&gt;Node2 -->
<g id="edge1" class="edge">
<title>Node1&#45;&gt;Node2</title>
<path fill="none" stroke="midnightblue" d="M145.96,-134.48C155.66,-126.57 170.49,-114.48 183.27,-104.07"/>
<polygon fill="midnightblue" stroke="midnightblue" points="185.76,-106.55 191.3,-97.52 181.33,-101.13 185.76,-106.55"/>
</g>
<!-- Node5 -->
<g id="node5" class="node">
<title>Node5</title>
<g id="a_node5"><a xlink:href="embedded__augmenter__helpers_8h.html" target="_top" xlink:title=" ">
<polygon fill="none" stroke="black" points="0,-67.5 0,-97.5 127,-97.5 127,-67.5 0,-67.5"/>
<text text-anchor="start" x="8" y="-85.5" font-family="Helvetica,sans-Serif" font-size="10.00">embedded_augmenter</text>
<text text-anchor="middle" x="63.5" y="-74.5" font-family="Helvetica,sans-Serif" font-size="10.00">_helpers.h</text>
</a>
</g>
</g>
<!-- Node1&#45;&gt;Node5 -->
<g id="edge4" class="edge">
<title>Node1&#45;&gt;Node5</title>
<path fill="none" stroke="midnightblue" d="M125.18,-134.48C115.62,-126.57 100.99,-114.48 88.39,-104.07"/>
<polygon fill="midnightblue" stroke="midnightblue" points="90.41,-101.2 80.47,-97.52 85.95,-106.59 90.41,-101.2"/>
</g>
<!-- Node3 -->
<g id="node3" class="node">
<title>Node3</title>
<g id="a_node3"><a xlink:title=" ">
<polygon fill="none" stroke="#bfbfbf" points="56,-6 56,-25 109,-25 109,-6 56,-6"/>
<text text-anchor="middle" x="82.5" y="-13" font-family="Helvetica,sans-Serif" font-size="10.00">stdint.h</text>
</a>
</g>
</g>
<!-- Node2&#45;&gt;Node3 -->
<g id="edge2" class="edge">
<title>Node2&#45;&gt;Node3</title>
<path fill="none" stroke="midnightblue" d="M181.16,-67.4C159.44,-56.19 129.3,-40.64 108.06,-29.69"/>
<polygon fill="midnightblue" stroke="midnightblue" points="109.48,-26.48 98.99,-25.01 106.27,-32.7 109.48,-26.48"/>
</g>
<!-- Node4 -->
<g id="node4" class="node">
<title>Node4</title>
<g id="a_node4"><a xlink:href="embedded__augmenter__font_8h.html" target="_top" xlink:title=" ">
<polygon fill="none" stroke="black" points="145,-0.5 145,-30.5 272,-30.5 272,-0.5 145,-0.5"/>
<text text-anchor="start" x="153" y="-18.5" font-family="Helvetica,sans-Serif" font-size="10.00">embedded_augmenter</text>
<text text-anchor="middle" x="208.5" y="-7.5" font-family="Helvetica,sans-Serif" font-size="10.00">_font.h</text>
</a>
</g>
</g>
<!-- Node2&#45;&gt;Node4 -->
<g id="edge3" class="edge">
<title>Node2&#45;&gt;Node4</title>
<path fill="none" stroke="midnightblue" d="M208.5,-67.4C208.5,-59.64 208.5,-49.81 208.5,-40.86"/>
<polygon fill="midnightblue" stroke="midnightblue" points="212,-40.58 208.5,-30.58 205,-40.58 212,-40.58"/>
</g>
<!-- Node5&#45;&gt;Node3 -->
<g id="edge5" class="edge">
<title>Node5&#45;&gt;Node3</title>
<path fill="none" stroke="midnightblue" d="M67.62,-67.4C70.41,-57.86 74.12,-45.18 77.13,-34.86"/>
<polygon fill="midnightblue" stroke="midnightblue" points="80.51,-35.77 79.96,-25.19 73.79,-33.81 80.51,-35.77"/>
</g>
</g>
</svg>
