<?xml version="1.0" encoding="UTF-8" standalone="no"?>
<!DOCTYPE svg PUBLIC "-//W3C//DTD SVG 1.1//EN"
 "http://www.w3.org/Graphics/SVG/1.1/DTD/svg11.dtd">
<!-- Generated by graphviz version 2.43.0 (0)
 -->
<!-- Title: ea_set_overlay_hardware_address.c Pages: 1 -->
<svg width="376pt" height="173pt"
 viewBox="0.00 0.00 376.00 173.00" xmlns="http://www.w3.org/2000/svg" xmlns:xlink="http://www.w3.org/1999/xlink">
<g id="graph0" class="graph" transform="scale(1 1) rotate(0) translate(4 169)">
<title>ea_set_overlay_hardware_address.c</title>
<!-- Node1 -->
<g id="node1" class="node">
<title>Node1</title>
<g id="a_node1"><a xlink:title=" ">
<polygon fill="#bfbfbf" stroke="black" points="137.5,-134.5 137.5,-164.5 279.5,-164.5 279.5,-134.5 137.5,-134.5"/>
<text text-anchor="start" x="145.5" y="-152.5" font-family="Helvetica,sans-Serif" font-size="10.00">ea_set_overlay_hardware</text>
<text text-anchor="middle" x="208.5" y="-141.5" font-family="Helvetica,sans-Serif" font-size="10.00">_address.c</text>
</a>
</g>
</g>
<!-- Node2 -->
<g id="node2" class="node">
<title>Node2</title>
<g id="a_node2"><a xlink:href="embedded__augmenter__lib_8h.html" target="_top" xlink:title=" ">
<polygon fill="none" stroke="black" points="0,-67.5 0,-97.5 127,-97.5 127,-67.5 0,-67.5"/>
<text text-anchor="start" x="8" y="-85.5" font-family="Helvetica,sans-Serif" font-size="10.00">embedded_augmenter</text>
<text text-anchor="middle" x="63.5" y="-74.5" font-family="Helvetica,sans-Serif" font-size="10.00">_lib.h</text>
</a>
</g>
</g>
<!-- Node1&#45;&gt;Node2 -->
<g id="edge1" class="edge">
<title>Node1&#45;&gt;Node2</title>
<path fill="none" stroke="midnightblue" d="M177.04,-134.4C155.66,-124.81 127.19,-112.05 104.1,-101.7"/>
<polygon fill="midnightblue" stroke="midnightblue" points="105.46,-98.47 94.9,-97.58 102.59,-104.86 105.46,-98.47"/>
</g>
<!-- Node5 -->
<g id="node5" class="node">
<title>Node5</title>
<g id="a_node5"><a xlink:href="embedded__augmenter__helpers_8h.html" target="_top" xlink:title=" ">
<polygon fill="none" stroke="black" points="145,-67.5 145,-97.5 272,-97.5 272,-67.5 145,-67.5"/>
<text text-anchor="start" x="153" y="-85.5" font-family="Helvetica,sans-Serif" font-size="10.00">embedded_augmenter</text>
<text text-anchor="middle" x="208.5" y="-74.5" font-family="Helvetica,sans-Serif" font-size="10.00">_helpers.h</text>
</a>
</g>
</g>
<!-- Node1&#45;&gt;Node5 -->
<g id="edge4" class="edge">
<title>Node1&#45;&gt;Node5</title>
<path fill="none" stroke="midnightblue" d="M208.5,-134.4C208.5,-126.64 208.5,-116.81 208.5,-107.86"/>
<polygon fill="midnightblue" stroke="midnightblue" points="212,-107.58 208.5,-97.58 205,-107.58 212,-107.58"/>
</g>
<!-- Node6 -->
<g id="node6" class="node">
<title>Node6</title>
<g id="a_node6"><a xlink:href="vears_8h.html" target="_top" xlink:title="VEARS API for hardware configuration.">
<polygon fill="none" stroke="black" points="290,-73 290,-92 343,-92 343,-73 290,-73"/>
<text text-anchor="middle" x="316.5" y="-80" font-family="Helvetica,sans-Serif" font-size="10.00">vears.h</text>
</a>
</g>
</g>
<!-- Node1&#45;&gt;Node6 -->
<g id="edge6" class="edge">
<title>Node1&#45;&gt;Node6</title>
<path fill="none" stroke="midnightblue" d="M231.93,-134.4C250.21,-123.39 275.46,-108.2 293.6,-97.28"/>
<polygon fill="midnightblue" stroke="midnightblue" points="295.6,-100.16 302.37,-92.01 291.99,-94.16 295.6,-100.16"/>
</g>
<!-- Node3 -->
<g id="node3" class="node">
<title>Node3</title>
<g id="a_node3"><a xlink:title=" ">
<polygon fill="none" stroke="#bfbfbf" points="182,-6 182,-25 235,-25 235,-6 182,-6"/>
<text text-anchor="middle" x="208.5" y="-13" font-family="Helvetica,sans-Serif" font-size="10.00">stdint.h</text>
</a>
</g>
</g>
<!-- Node2&#45;&gt;Node3 -->
<g id="edge2" class="edge">
<title>Node2&#45;&gt;Node3</title>
<path fill="none" stroke="midnightblue" d="M94.96,-67.4C120.4,-55.99 155.9,-40.08 180.4,-29.1"/>
<polygon fill="midnightblue" stroke="midnightblue" points="181.83,-32.29 189.52,-25.01 178.97,-25.9 181.83,-32.29"/>
</g>
<!-- Node4 -->
<g id="node4" class="node">
<title>Node4</title>
<g id="a_node4"><a xlink:href="embedded__augmenter__font_8h.html" target="_top" xlink:title=" ">
<polygon fill="none" stroke="black" points="0,-0.5 0,-30.5 127,-30.5 127,-0.5 0,-0.5"/>
<text text-anchor="start" x="8" y="-18.5" font-family="Helvetica,sans-Serif" font-size="10.00">embedded_augmenter</text>
<text text-anchor="middle" x="63.5" y="-7.5" font-family="Helvetica,sans-Serif" font-size="10.00">_font.h</text>
</a>
</g>
</g>
<!-- Node2&#45;&gt;Node4 -->
<g id="edge3" class="edge">
<title>Node2&#45;&gt;Node4</title>
<path fill="none" stroke="midnightblue" d="M63.5,-67.4C63.5,-59.64 63.5,-49.81 63.5,-40.86"/>
<polygon fill="midnightblue" stroke="midnightblue" points="67,-40.58 63.5,-30.58 60,-40.58 67,-40.58"/>
</g>
<!-- Node5&#45;&gt;Node3 -->
<g id="edge5" class="edge">
<title>Node5&#45;&gt;Node3</title>
<path fill="none" stroke="midnightblue" d="M208.5,-67.4C208.5,-58.06 208.5,-45.71 208.5,-35.52"/>
<polygon fill="midnightblue" stroke="midnightblue" points="212,-35.19 208.5,-25.19 205,-35.19 212,-35.19"/>
</g>
<!-- Node6&#45;&gt;Node3 -->
<g id="edge8" class="edge">
<title>Node6&#45;&gt;Node3</title>
<path fill="none" stroke="midnightblue" d="M301.93,-72.73C283.88,-61.87 252.89,-43.22 231.58,-30.39"/>
<polygon fill="midnightblue" stroke="midnightblue" points="233.21,-27.29 222.83,-25.13 229.6,-33.28 233.21,-27.29"/>
</g>
<!-- Node7 -->
<g id="node7" class="node">
<title>Node7</title>
<g id="a_node7"><a xlink:href="vears__baseaddr_8h.html" target="_top" xlink:title=" ">
<polygon fill="none" stroke="black" points="265,-6 265,-25 368,-25 368,-6 265,-6"/>
<text text-anchor="middle" x="316.5" y="-13" font-family="Helvetica,sans-Serif" font-size="10.00">vears_baseaddr.h</text>
</a>
</g>
</g>
<!-- Node6&#45;&gt;Node7 -->
<g id="edge7" class="edge">
<title>Node6&#45;&gt;Node7</title>
<path fill="none" stroke="midnightblue" d="M316.5,-72.73C316.5,-63.18 316.5,-47.62 316.5,-35.28"/>
<polygon fill="midnightblue" stroke="midnightblue" points="320,-35.13 316.5,-25.13 313,-35.13 320,-35.13"/>
</g>
</g>
</svg>
