<?xml version="1.0" encoding="UTF-8" standalone="no"?>
<!DOCTYPE svg PUBLIC "-//W3C//DTD SVG 1.1//EN"
 "http://www.w3.org/Graphics/SVG/1.1/DTD/svg11.dtd">
<!-- Generated by graphviz version 2.43.0 (0)
 -->
<!-- Title: ea_draw_quick_line_v Pages: 1 -->
<svg width="437pt" height="66pt"
 viewBox="0.00 0.00 437.00 66.00" xmlns="http://www.w3.org/2000/svg" xmlns:xlink="http://www.w3.org/1999/xlink">
<g id="graph0" class="graph" transform="scale(1 1) rotate(0) translate(4 62)">
<title>ea_draw_quick_line_v</title>
<!-- Node1 -->
<g id="node1" class="node">
<title>Node1</title>
<g id="a_node1"><a xlink:title=" ">
<polygon fill="#bfbfbf" stroke="black" points="305,-19.5 305,-38.5 429,-38.5 429,-19.5 305,-19.5"/>
<text text-anchor="middle" x="367" y="-26.5" font-family="Helvetica,sans-Serif" font-size="10.00">ea_draw_quick_line_v</text>
</a>
</g>
</g>
<!-- Node2 -->
<g id="node2" class="node">
<title>Node2</title>
<g id="a_node2"><a xlink:href="embedded__augmenter__lib_8h.html#acff31533f1e3855601782c6d7c4b44b1" target="_top" xlink:title=" ">
<polygon fill="none" stroke="black" points="174,-38.5 174,-57.5 255,-57.5 255,-38.5 174,-38.5"/>
<text text-anchor="middle" x="214.5" y="-45.5" font-family="Helvetica,sans-Serif" font-size="10.00">ea_draw_line</text>
</a>
</g>
</g>
<!-- Node1&#45;&gt;Node2 -->
<g id="edge1" class="edge">
<title>Node1&#45;&gt;Node2</title>
<path fill="none" stroke="midnightblue" d="M294.48,-38.03C280.92,-39.74 267.21,-41.47 255.09,-43"/>
<polygon fill="midnightblue" stroke="midnightblue" points="295.3,-41.45 304.79,-36.73 294.43,-34.51 295.3,-41.45"/>
</g>
<!-- Node4 -->
<g id="node4" class="node">
<title>Node4</title>
<g id="a_node4"><a xlink:href="embedded__augmenter__lib_8h.html#a1e52ff893d4fa672d5f76efe07c95907" target="_top" xlink:title=" ">
<polygon fill="none" stroke="black" points="160,-0.5 160,-19.5 269,-19.5 269,-0.5 160,-0.5"/>
<text text-anchor="middle" x="214.5" y="-7.5" font-family="Helvetica,sans-Serif" font-size="10.00">ea_draw_rectangle</text>
</a>
</g>
</g>
<!-- Node1&#45;&gt;Node4 -->
<g id="edge3" class="edge">
<title>Node1&#45;&gt;Node4</title>
<path fill="none" stroke="midnightblue" d="M294.81,-20.01C286.27,-18.93 277.65,-17.85 269.41,-16.81"/>
<polygon fill="midnightblue" stroke="midnightblue" points="294.43,-23.49 304.79,-21.27 295.3,-16.55 294.43,-23.49"/>
</g>
<!-- Node3 -->
<g id="node3" class="node">
<title>Node3</title>
<g id="a_node3"><a xlink:href="group__vears__overlay.html#gac6917c882481994db3dd32e3a40f0326" target="_top" xlink:title="Draw a line from (x0, y0) to (x1, y1).">
<polygon fill="none" stroke="black" points="14,-38.5 14,-57.5 110,-57.5 110,-38.5 14,-38.5"/>
<text text-anchor="middle" x="62" y="-45.5" font-family="Helvetica,sans-Serif" font-size="10.00">vears_draw_line</text>
</a>
</g>
</g>
<!-- Node2&#45;&gt;Node3 -->
<g id="edge2" class="edge">
<title>Node2&#45;&gt;Node3</title>
<path fill="none" stroke="midnightblue" d="M163.52,-48C146.28,-48 127.03,-48 110.04,-48"/>
<polygon fill="midnightblue" stroke="midnightblue" points="163.96,-51.5 173.96,-48 163.96,-44.5 163.96,-51.5"/>
</g>
<!-- Node5 -->
<g id="node5" class="node">
<title>Node5</title>
<g id="a_node5"><a xlink:href="group__vears__overlay.html#ga8b400f489bc9781ef111507a9265a3cf" target="_top" xlink:title="Draw a rectangle. (x0, y0) is the upper&#45;left, (x1, y1) is the lower&#45;right corner, respectively.">
<polygon fill="none" stroke="black" points="0,-0.5 0,-19.5 124,-19.5 124,-0.5 0,-0.5"/>
<text text-anchor="middle" x="62" y="-7.5" font-family="Helvetica,sans-Serif" font-size="10.00">vears_draw_rectangle</text>
</a>
</g>
</g>
<!-- Node4&#45;&gt;Node5 -->
<g id="edge4" class="edge">
<title>Node4&#45;&gt;Node5</title>
<path fill="none" stroke="midnightblue" d="M149.49,-10C141.11,-10 132.54,-10 124.21,-10"/>
<polygon fill="midnightblue" stroke="midnightblue" points="149.59,-13.5 159.59,-10 149.59,-6.5 149.59,-13.5"/>
</g>
</g>
</svg>
