<?xml version="1.0" encoding="UTF-8" standalone="no"?>
<!DOCTYPE svg PUBLIC "-//W3C//DTD SVG 1.1//EN"
 "http://www.w3.org/Graphics/SVG/1.1/DTD/svg11.dtd">
<!-- Generated by graphviz version 2.43.0 (0)
 -->
<!-- Title: ea_draw_line Pages: 1 -->
<svg width="350pt" height="180pt"
 viewBox="0.00 0.00 350.00 180.00" xmlns="http://www.w3.org/2000/svg" xmlns:xlink="http://www.w3.org/1999/xlink">
<g id="graph0" class="graph" transform="scale(1 1) rotate(0) translate(4 176)">
<title>ea_draw_line</title>
<!-- Node1 -->
<g id="node1" class="node">
<title>Node1</title>
<g id="a_node1"><a xlink:title=" ">
<polygon fill="#bfbfbf" stroke="black" points="0,-76.5 0,-95.5 81,-95.5 81,-76.5 0,-76.5"/>
<text text-anchor="middle" x="40.5" y="-83.5" font-family="Helvetica,sans-Serif" font-size="10.00">ea_draw_line</text>
</a>
</g>
</g>
<!-- Node2 -->
<g id="node2" class="node">
<title>Node2</title>
<g id="a_node2"><a xlink:href="ea__draw__line_8c.html#a0fa8eda05ff510ff4b7781763bf9c9ee" target="_top" xlink:title=" ">
<polygon fill="none" stroke="black" points="162,-152.5 162,-171.5 196,-171.5 196,-152.5 162,-152.5"/>
<text text-anchor="middle" x="179" y="-159.5" font-family="Helvetica,sans-Serif" font-size="10.00">abs</text>
</a>
</g>
</g>
<!-- Node1&#45;&gt;Node2 -->
<g id="edge1" class="edge">
<title>Node1&#45;&gt;Node2</title>
<path fill="none" stroke="midnightblue" d="M51.95,-95.78C65.83,-108.31 91.58,-129.95 117,-143 127.92,-148.61 140.79,-152.91 151.89,-156"/>
<polygon fill="midnightblue" stroke="midnightblue" points="151.31,-159.47 161.87,-158.59 153.07,-152.69 151.31,-159.47"/>
</g>
<!-- Node3 -->
<g id="node3" class="node">
<title>Node3</title>
<g id="a_node3"><a xlink:href="ea__draw__point_8c.html#a061e9dc2b155528bc460f9c692659ed2" target="_top" xlink:title=" ">
<polygon fill="none" stroke="black" points="135,-114.5 135,-133.5 223,-133.5 223,-114.5 135,-114.5"/>
<text text-anchor="middle" x="179" y="-121.5" font-family="Helvetica,sans-Serif" font-size="10.00">ea_draw_point</text>
</a>
</g>
</g>
<!-- Node1&#45;&gt;Node3 -->
<g id="edge2" class="edge">
<title>Node1&#45;&gt;Node3</title>
<path fill="none" stroke="midnightblue" d="M75.94,-95.59C93.48,-100.47 115.01,-106.46 133.76,-111.68"/>
<polygon fill="midnightblue" stroke="midnightblue" points="132.99,-115.1 143.57,-114.41 134.87,-108.36 132.99,-115.1"/>
</g>
<!-- Node4 -->
<g id="node4" class="node">
<title>Node4</title>
<g id="a_node4"><a xlink:href="ea__draw__quick__line__h_8c.html#a822ca7b402ab5d265e9736ef4d0d6736" target="_top" xlink:title=" ">
<polygon fill="none" stroke="black" points="117,-76.5 117,-95.5 241,-95.5 241,-76.5 117,-76.5"/>
<text text-anchor="middle" x="179" y="-83.5" font-family="Helvetica,sans-Serif" font-size="10.00">ea_draw_quick_line_h</text>
</a>
</g>
</g>
<!-- Node1&#45;&gt;Node4 -->
<g id="edge3" class="edge">
<title>Node1&#45;&gt;Node4</title>
<path fill="none" stroke="midnightblue" d="M81.35,-86C89.32,-86 97.93,-86 106.6,-86"/>
<polygon fill="midnightblue" stroke="midnightblue" points="106.78,-89.5 116.78,-86 106.78,-82.5 106.78,-89.5"/>
</g>
<!-- Node6 -->
<g id="node6" class="node">
<title>Node6</title>
<g id="a_node6"><a xlink:href="ea__draw__quick__line__v_8c.html#a6796003d1cfc808748bf7157c949bfda" target="_top" xlink:title=" ">
<polygon fill="none" stroke="black" points="117,-38.5 117,-57.5 241,-57.5 241,-38.5 117,-38.5"/>
<text text-anchor="middle" x="179" y="-45.5" font-family="Helvetica,sans-Serif" font-size="10.00">ea_draw_quick_line_v</text>
</a>
</g>
</g>
<!-- Node1&#45;&gt;Node6 -->
<g id="edge5" class="edge">
<title>Node1&#45;&gt;Node6</title>
<path fill="none" stroke="midnightblue" d="M75.94,-76.41C93.48,-71.53 115.01,-65.54 133.76,-60.32"/>
<polygon fill="midnightblue" stroke="midnightblue" points="134.87,-63.64 143.57,-57.59 132.99,-56.9 134.87,-63.64"/>
</g>
<!-- Node7 -->
<g id="node7" class="node">
<title>Node7</title>
<g id="a_node7"><a xlink:href="ea__draw__line_8c.html#a745efbe628f8334a6278c11bb78c819a" target="_top" xlink:title=" ">
<polygon fill="none" stroke="black" points="162,-0.5 162,-19.5 196,-19.5 196,-0.5 162,-0.5"/>
<text text-anchor="middle" x="179" y="-7.5" font-family="Helvetica,sans-Serif" font-size="10.00">sgn</text>
</a>
</g>
</g>
<!-- Node1&#45;&gt;Node7 -->
<g id="edge6" class="edge">
<title>Node1&#45;&gt;Node7</title>
<path fill="none" stroke="midnightblue" d="M51.95,-76.22C65.83,-63.69 91.58,-42.05 117,-29 127.92,-23.39 140.79,-19.09 151.89,-16"/>
<polygon fill="midnightblue" stroke="midnightblue" points="153.07,-19.31 161.87,-13.41 151.31,-12.53 153.07,-19.31"/>
</g>
<!-- Node5 -->
<g id="node5" class="node">
<title>Node5</title>
<g id="a_node5"><a xlink:href="ea__draw__quick__line__h_8c.html#a57780e02c723be87fd9cac22302de8a0" target="_top" xlink:title=" ">
<polygon fill="none" stroke="black" points="277,-76.5 277,-95.5 342,-95.5 342,-76.5 277,-76.5"/>
<text text-anchor="middle" x="309.5" y="-83.5" font-family="Helvetica,sans-Serif" font-size="10.00">get_mask</text>
</a>
</g>
</g>
<!-- Node4&#45;&gt;Node5 -->
<g id="edge4" class="edge">
<title>Node4&#45;&gt;Node5</title>
<path fill="none" stroke="midnightblue" d="M241.24,-86C249.78,-86 258.39,-86 266.47,-86"/>
<polygon fill="midnightblue" stroke="midnightblue" points="266.73,-89.5 276.73,-86 266.73,-82.5 266.73,-89.5"/>
</g>
</g>
</svg>
