<?xml version="1.0" encoding="UTF-8" standalone="no"?>
<!DOCTYPE svg PUBLIC "-//W3C//DTD SVG 1.1//EN"
 "http://www.w3.org/Graphics/SVG/1.1/DTD/svg11.dtd">
<!-- Generated by graphviz version 2.43.0 (0)
 -->
<!-- Title: ea_draw_point Pages: 1 -->
<svg width="374pt" height="180pt"
 viewBox="0.00 0.00 374.00 180.00" xmlns="http://www.w3.org/2000/svg" xmlns:xlink="http://www.w3.org/1999/xlink">
<g id="graph0" class="graph" transform="scale(1 1) rotate(0) translate(4 176)">
<title>ea_draw_point</title>
<!-- Node1 -->
<g id="node1" class="node">
<title>Node1</title>
<g id="a_node1"><a xlink:title=" ">
<polygon fill="#bfbfbf" stroke="black" points="278,-76.5 278,-95.5 366,-95.5 366,-76.5 278,-76.5"/>
<text text-anchor="middle" x="322" y="-83.5" font-family="Helvetica,sans-Serif" font-size="10.00">ea_draw_point</text>
</a>
</g>
</g>
<!-- Node2 -->
<g id="node2" class="node">
<title>Node2</title>
<g id="a_node2"><a xlink:href="embedded__augmenter__lib_8h.html#a7a54f616eb848471bdb163b0a510b2d1" target="_top" xlink:title=" ">
<polygon fill="none" stroke="black" points="146.5,-152.5 146.5,-171.5 235.5,-171.5 235.5,-152.5 146.5,-152.5"/>
<text text-anchor="middle" x="191" y="-159.5" font-family="Helvetica,sans-Serif" font-size="10.00">ea_draw_circle</text>
</a>
</g>
</g>
<!-- Node1&#45;&gt;Node2 -->
<g id="edge1" class="edge">
<title>Node1&#45;&gt;Node2</title>
<path fill="none" stroke="midnightblue" d="M302.08,-101.84C286.63,-114.21 263.86,-131.23 242,-143 235.46,-146.52 228.12,-149.7 221.13,-152.4"/>
<polygon fill="midnightblue" stroke="midnightblue" points="304.31,-104.53 309.85,-95.5 299.89,-99.1 304.31,-104.53"/>
</g>
<!-- Node4 -->
<g id="node4" class="node">
<title>Node4</title>
<g id="a_node4"><a xlink:href="embedded__augmenter__lib_8h.html#aa0e061e7b18c3f6992341e386faff8fd" target="_top" xlink:title=" ">
<polygon fill="none" stroke="black" points="149.5,-114.5 149.5,-133.5 232.5,-133.5 232.5,-114.5 149.5,-114.5"/>
<text text-anchor="middle" x="191" y="-121.5" font-family="Helvetica,sans-Serif" font-size="10.00">ea_draw_icon</text>
</a>
</g>
</g>
<!-- Node1&#45;&gt;Node4 -->
<g id="edge3" class="edge">
<title>Node1&#45;&gt;Node4</title>
<path fill="none" stroke="midnightblue" d="M278.45,-98.54C260.9,-103.7 240.89,-109.6 224.54,-114.41"/>
<polygon fill="midnightblue" stroke="midnightblue" points="279.84,-101.77 288.45,-95.59 277.87,-95.06 279.84,-101.77"/>
</g>
<!-- Node5 -->
<g id="node5" class="node">
<title>Node5</title>
<g id="a_node5"><a xlink:href="embedded__augmenter__lib_8h.html#acff31533f1e3855601782c6d7c4b44b1" target="_top" xlink:title=" ">
<polygon fill="none" stroke="black" points="150.5,-76.5 150.5,-95.5 231.5,-95.5 231.5,-76.5 150.5,-76.5"/>
<text text-anchor="middle" x="191" y="-83.5" font-family="Helvetica,sans-Serif" font-size="10.00">ea_draw_line</text>
</a>
</g>
</g>
<!-- Node1&#45;&gt;Node5 -->
<g id="edge4" class="edge">
<title>Node1&#45;&gt;Node5</title>
<path fill="none" stroke="midnightblue" d="M267.68,-86C255.57,-86 242.92,-86 231.51,-86"/>
<polygon fill="midnightblue" stroke="midnightblue" points="267.69,-89.5 277.69,-86 267.69,-82.5 267.69,-89.5"/>
</g>
<!-- Node7 -->
<g id="node7" class="node">
<title>Node7</title>
<g id="a_node7"><a xlink:href="group__vears__overlay.html#ga62fecfe47def2effb3232a01175d40f4" target="_top" xlink:title="Draw an icon (sprite) which is defined in a two dimensional char array (experimental!...">
<polygon fill="none" stroke="black" points="142,-38.5 142,-57.5 240,-57.5 240,-38.5 142,-38.5"/>
<text text-anchor="middle" x="191" y="-45.5" font-family="Helvetica,sans-Serif" font-size="10.00">vears_draw_icon</text>
</a>
</g>
</g>
<!-- Node1&#45;&gt;Node7 -->
<g id="edge6" class="edge">
<title>Node1&#45;&gt;Node7</title>
<path fill="none" stroke="midnightblue" d="M278.45,-73.46C260.9,-68.3 240.89,-62.4 224.54,-57.59"/>
<polygon fill="midnightblue" stroke="midnightblue" points="277.87,-76.94 288.45,-76.41 279.84,-70.23 277.87,-76.94"/>
</g>
<!-- Node8 -->
<g id="node8" class="node">
<title>Node8</title>
<g id="a_node8"><a xlink:href="group__vears__overlay.html#gae246c7c9e713947ee5086eccc7d15075" target="_top" xlink:title="Draw a single pixel. &#39;color&#39; is an index to the color table (0, 1, 2). A value of 3 means &quot;transparen...">
<polygon fill="none" stroke="black" points="140,-0.5 140,-19.5 242,-19.5 242,-0.5 140,-0.5"/>
<text text-anchor="middle" x="191" y="-7.5" font-family="Helvetica,sans-Serif" font-size="10.00">vears_draw_pixel</text>
</a>
</g>
</g>
<!-- Node1&#45;&gt;Node8 -->
<g id="edge7" class="edge">
<title>Node1&#45;&gt;Node8</title>
<path fill="none" stroke="midnightblue" d="M302.08,-70.16C286.63,-57.79 263.86,-40.77 242,-29 235.46,-25.48 228.12,-22.3 221.13,-19.6"/>
<polygon fill="midnightblue" stroke="midnightblue" points="299.89,-72.9 309.85,-76.5 304.31,-67.47 299.89,-72.9"/>
</g>
<!-- Node3 -->
<g id="node3" class="node">
<title>Node3</title>
<g id="a_node3"><a xlink:href="group__vears__overlay.html#ga15c553979a63e96c70fe61774e97e30e" target="_top" xlink:title="Draw a circle of radius r around (x, y).">
<polygon fill="none" stroke="black" points="0,-152.5 0,-171.5 104,-171.5 104,-152.5 0,-152.5"/>
<text text-anchor="middle" x="52" y="-159.5" font-family="Helvetica,sans-Serif" font-size="10.00">vears_draw_circle</text>
</a>
</g>
</g>
<!-- Node2&#45;&gt;Node3 -->
<g id="edge2" class="edge">
<title>Node2&#45;&gt;Node3</title>
<path fill="none" stroke="midnightblue" d="M136.06,-162C125.65,-162 114.76,-162 104.44,-162"/>
<polygon fill="midnightblue" stroke="midnightblue" points="136.28,-165.5 146.28,-162 136.28,-158.5 136.28,-165.5"/>
</g>
<!-- Node6 -->
<g id="node6" class="node">
<title>Node6</title>
<g id="a_node6"><a xlink:href="group__vears__overlay.html#gac6917c882481994db3dd32e3a40f0326" target="_top" xlink:title="Draw a line from (x0, y0) to (x1, y1).">
<polygon fill="none" stroke="black" points="4,-76.5 4,-95.5 100,-95.5 100,-76.5 4,-76.5"/>
<text text-anchor="middle" x="52" y="-83.5" font-family="Helvetica,sans-Serif" font-size="10.00">vears_draw_line</text>
</a>
</g>
</g>
<!-- Node5&#45;&gt;Node6 -->
<g id="edge5" class="edge">
<title>Node5&#45;&gt;Node6</title>
<path fill="none" stroke="midnightblue" d="M140.18,-86C127.17,-86 113.18,-86 100.29,-86"/>
<polygon fill="midnightblue" stroke="midnightblue" points="140.37,-89.5 150.37,-86 140.37,-82.5 140.37,-89.5"/>
</g>
</g>
</svg>
