<?xml version="1.0" encoding="UTF-8" standalone="no"?>
<!DOCTYPE svg PUBLIC "-//W3C//DTD SVG 1.1//EN"
 "http://www.w3.org/Graphics/SVG/1.1/DTD/svg11.dtd">
<!-- Generated by graphviz version 2.43.0 (0)
 -->
<!-- Title: embedded_augmenter_font.h Pages: 1 -->
<svg width="2518pt" height="173pt"
 viewBox="0.00 0.00 2517.50 173.00" xmlns="http://www.w3.org/2000/svg" xmlns:xlink="http://www.w3.org/1999/xlink">
<g id="graph0" class="graph" transform="scale(1 1) rotate(0) translate(4 169)">
<title>embedded_augmenter_font.h</title>
<!-- Node1 -->
<g id="node1" class="node">
<title>Node1</title>
<g id="a_node1"><a xlink:title=" ">
<polygon fill="#bfbfbf" stroke="black" points="1172,-134.5 1172,-164.5 1299,-164.5 1299,-134.5 1172,-134.5"/>
<text text-anchor="start" x="1180" y="-152.5" font-family="Helvetica,sans-Serif" font-size="10.00">embedded_augmenter</text>
<text text-anchor="middle" x="1235.5" y="-141.5" font-family="Helvetica,sans-Serif" font-size="10.00">_font.h</text>
</a>
</g>
</g>
<!-- Node2 -->
<g id="node2" class="node">
<title>Node2</title>
<g id="a_node2"><a xlink:href="embedded__augmenter__lib_8h.html" target="_top" xlink:title=" ">
<polygon fill="none" stroke="black" points="1172,-67.5 1172,-97.5 1299,-97.5 1299,-67.5 1172,-67.5"/>
<text text-anchor="start" x="1180" y="-85.5" font-family="Helvetica,sans-Serif" font-size="10.00">embedded_augmenter</text>
<text text-anchor="middle" x="1235.5" y="-74.5" font-family="Helvetica,sans-Serif" font-size="10.00">_lib.h</text>
</a>
</g>
</g>
<!-- Node1&#45;&gt;Node2 -->
<g id="edge1" class="edge">
<title>Node1&#45;&gt;Node2</title>
<path fill="none" stroke="midnightblue" d="M1235.5,-124.11C1235.5,-115.15 1235.5,-105.32 1235.5,-97.58"/>
<polygon fill="midnightblue" stroke="midnightblue" points="1232,-124.4 1235.5,-134.4 1239,-124.4 1232,-124.4"/>
</g>
<!-- Node12 -->
<g id="node12" class="node">
<title>Node12</title>
<g id="a_node12"><a xlink:href="ea__draw__string_8c.html" target="_top" xlink:title=" ">
<polygon fill="none" stroke="black" points="0,-6 0,-25 99,-25 99,-6 0,-6"/>
<text text-anchor="middle" x="49.5" y="-13" font-family="Helvetica,sans-Serif" font-size="10.00">ea_draw_string.c</text>
</a>
</g>
</g>
<!-- Node1&#45;&gt;Node12 -->
<g id="edge22" class="edge">
<title>Node1&#45;&gt;Node12</title>
<path fill="none" stroke="midnightblue" d="M1161.66,-144.32C980.91,-133.32 502.27,-99.58 108.5,-31 99.46,-29.43 89.75,-27.25 80.87,-25.06"/>
<polygon fill="midnightblue" stroke="midnightblue" points="1161.65,-147.82 1171.84,-144.93 1162.07,-140.84 1161.65,-147.82"/>
</g>
<!-- Node23 -->
<g id="node23" class="node">
<title>Node23</title>
<g id="a_node23"><a xlink:href="ea__font_8c.html" target="_top" xlink:title=" ">
<polygon fill="none" stroke="black" points="1317.5,-73 1317.5,-92 1379.5,-92 1379.5,-73 1317.5,-73"/>
<text text-anchor="middle" x="1348.5" y="-80" font-family="Helvetica,sans-Serif" font-size="10.00">ea_font.c</text>
</a>
</g>
</g>
<!-- Node1&#45;&gt;Node23 -->
<g id="edge23" class="edge">
<title>Node1&#45;&gt;Node23</title>
<path fill="none" stroke="midnightblue" d="M1268.87,-129.31C1290.39,-116.93 1317.33,-101.43 1333.71,-92.01"/>
<polygon fill="midnightblue" stroke="midnightblue" points="1266.94,-126.38 1260.02,-134.4 1270.43,-132.44 1266.94,-126.38"/>
</g>
<!-- Node3 -->
<g id="node3" class="node">
<title>Node3</title>
<g id="a_node3"><a xlink:href="ea__draw__circle_8c.html" target="_top" xlink:title=" ">
<polygon fill="none" stroke="black" points="117.5,-6 117.5,-25 215.5,-25 215.5,-6 117.5,-6"/>
<text text-anchor="middle" x="166.5" y="-13" font-family="Helvetica,sans-Serif" font-size="10.00">ea_draw_circle.c</text>
</a>
</g>
</g>
<!-- Node2&#45;&gt;Node3 -->
<g id="edge2" class="edge">
<title>Node2&#45;&gt;Node3</title>
<path fill="none" stroke="midnightblue" d="M1161.65,-79.68C960.41,-74.43 405.4,-57.87 224.5,-31 215.05,-29.6 204.91,-27.33 195.78,-25"/>
<polygon fill="midnightblue" stroke="midnightblue" points="1161.73,-83.18 1171.82,-79.95 1161.91,-76.19 1161.73,-83.18"/>
</g>
<!-- Node4 -->
<g id="node4" class="node">
<title>Node4</title>
<g id="a_node4"><a xlink:href="ea__draw__filled__circle_8c.html" target="_top" xlink:title=" ">
<polygon fill="none" stroke="black" points="233.5,-6 233.5,-25 361.5,-25 361.5,-6 233.5,-6"/>
<text text-anchor="middle" x="297.5" y="-13" font-family="Helvetica,sans-Serif" font-size="10.00">ea_draw_filled_circle.c</text>
</a>
</g>
</g>
<!-- Node2&#45;&gt;Node4 -->
<g id="edge3" class="edge">
<title>Node2&#45;&gt;Node4</title>
<path fill="none" stroke="midnightblue" d="M1161.38,-80.54C1011.58,-77.85 662.28,-67.82 371.5,-31 359.81,-29.52 347.19,-27.29 335.75,-25.02"/>
<polygon fill="midnightblue" stroke="midnightblue" points="1161.76,-84.04 1171.82,-80.72 1161.88,-77.04 1161.76,-84.04"/>
</g>
<!-- Node5 -->
<g id="node5" class="node">
<title>Node5</title>
<g id="a_node5"><a xlink:href="ea__draw__filled__rectangle_8c.html" target="_top" xlink:title=" ">
<polygon fill="none" stroke="black" points="380,-6 380,-25 527,-25 527,-6 380,-6"/>
<text text-anchor="middle" x="453.5" y="-13" font-family="Helvetica,sans-Serif" font-size="10.00">ea_draw_filled_rectangle.c</text>
</a>
</g>
</g>
<!-- Node2&#45;&gt;Node5 -->
<g id="edge4" class="edge">
<title>Node2&#45;&gt;Node5</title>
<path fill="none" stroke="midnightblue" d="M1161.62,-78.61C1033.83,-73.07 763.42,-58.95 536.5,-31 523.72,-29.43 509.92,-27.22 497.31,-25"/>
<polygon fill="midnightblue" stroke="midnightblue" points="1161.54,-82.11 1171.68,-79.05 1161.84,-75.12 1161.54,-82.11"/>
</g>
<!-- Node6 -->
<g id="node6" class="node">
<title>Node6</title>
<g id="a_node6"><a xlink:href="ea__draw__icon_8c.html" target="_top" xlink:title=" ">
<polygon fill="none" stroke="black" points="545.5,-6 545.5,-25 637.5,-25 637.5,-6 545.5,-6"/>
<text text-anchor="middle" x="591.5" y="-13" font-family="Helvetica,sans-Serif" font-size="10.00">ea_draw_icon.c</text>
</a>
</g>
</g>
<!-- Node2&#45;&gt;Node6 -->
<g id="edge5" class="edge">
<title>Node2&#45;&gt;Node6</title>
<path fill="none" stroke="midnightblue" d="M1161.81,-79.14C1049.94,-74.66 830.88,-62.39 647.5,-31 638.69,-29.49 629.24,-27.28 620.65,-25.04"/>
<polygon fill="midnightblue" stroke="midnightblue" points="1161.84,-82.64 1171.97,-79.53 1162.11,-75.64 1161.84,-82.64"/>
</g>
<!-- Node7 -->
<g id="node7" class="node">
<title>Node7</title>
<g id="a_node7"><a xlink:href="ea__draw__line_8c.html" target="_top" xlink:title=" ">
<polygon fill="none" stroke="black" points="656,-6 656,-25 745,-25 745,-6 656,-6"/>
<text text-anchor="middle" x="700.5" y="-13" font-family="Helvetica,sans-Serif" font-size="10.00">ea_draw_line.c</text>
</a>
</g>
</g>
<!-- Node2&#45;&gt;Node7 -->
<g id="edge6" class="edge">
<title>Node2&#45;&gt;Node7</title>
<path fill="none" stroke="midnightblue" d="M1161.56,-77.37C1066.67,-71.24 897.28,-57.49 754.5,-31 746.1,-29.44 737.1,-27.24 728.89,-25.02"/>
<polygon fill="midnightblue" stroke="midnightblue" points="1161.42,-80.87 1171.63,-78.01 1161.87,-73.88 1161.42,-80.87"/>
</g>
<!-- Node8 -->
<g id="node8" class="node">
<title>Node8</title>
<g id="a_node8"><a xlink:href="ea__draw__point_8c.html" target="_top" xlink:title=" ">
<polygon fill="none" stroke="black" points="763.5,-6 763.5,-25 859.5,-25 859.5,-6 763.5,-6"/>
<text text-anchor="middle" x="811.5" y="-13" font-family="Helvetica,sans-Serif" font-size="10.00">ea_draw_point.c</text>
</a>
</g>
</g>
<!-- Node2&#45;&gt;Node8 -->
<g id="edge7" class="edge">
<title>Node2&#45;&gt;Node8</title>
<path fill="none" stroke="midnightblue" d="M1161.62,-73.8C1087.22,-65.48 969.33,-50.7 868.5,-31 859.98,-29.34 850.84,-27.18 842.42,-25.04"/>
<polygon fill="midnightblue" stroke="midnightblue" points="1161.5,-77.31 1171.82,-74.94 1162.27,-70.35 1161.5,-77.31"/>
</g>
<!-- Node9 -->
<g id="node9" class="node">
<title>Node9</title>
<g id="a_node9"><a xlink:href="ea__draw__quick__line__h_8c.html" target="_top" xlink:title=" ">
<polygon fill="none" stroke="black" points="877.5,-6 877.5,-25 1009.5,-25 1009.5,-6 877.5,-6"/>
<text text-anchor="middle" x="943.5" y="-13" font-family="Helvetica,sans-Serif" font-size="10.00">ea_draw_quick_line_h.c</text>
</a>
</g>
</g>
<!-- Node2&#45;&gt;Node9 -->
<g id="edge8" class="edge">
<title>Node2&#45;&gt;Node9</title>
<path fill="none" stroke="midnightblue" d="M1162.4,-65.23C1105.07,-52.47 1027.56,-35.21 981.81,-25.03"/>
<polygon fill="midnightblue" stroke="midnightblue" points="1161.98,-68.72 1172.5,-67.48 1163.5,-61.89 1161.98,-68.72"/>
</g>
<!-- Node10 -->
<g id="node10" class="node">
<title>Node10</title>
<g id="a_node10"><a xlink:href="ea__draw__quick__line__v_8c.html" target="_top" xlink:title=" ">
<polygon fill="none" stroke="black" points="1028,-6 1028,-25 1159,-25 1159,-6 1028,-6"/>
<text text-anchor="middle" x="1093.5" y="-13" font-family="Helvetica,sans-Serif" font-size="10.00">ea_draw_quick_line_v.c</text>
</a>
</g>
</g>
<!-- Node2&#45;&gt;Node10 -->
<g id="edge9" class="edge">
<title>Node2&#45;&gt;Node10</title>
<path fill="none" stroke="midnightblue" d="M1195.37,-63.13C1168.04,-50.62 1133.13,-34.64 1112.08,-25.01"/>
<polygon fill="midnightblue" stroke="midnightblue" points="1194.14,-66.42 1204.69,-67.4 1197.05,-60.05 1194.14,-66.42"/>
</g>
<!-- Node11 -->
<g id="node11" class="node">
<title>Node11</title>
<g id="a_node11"><a xlink:href="ea__draw__rectangle_8c.html" target="_top" xlink:title=" ">
<polygon fill="none" stroke="black" points="1177,-6 1177,-25 1294,-25 1294,-6 1177,-6"/>
<text text-anchor="middle" x="1235.5" y="-13" font-family="Helvetica,sans-Serif" font-size="10.00">ea_draw_rectangle.c</text>
</a>
</g>
</g>
<!-- Node2&#45;&gt;Node11 -->
<g id="edge10" class="edge">
<title>Node2&#45;&gt;Node11</title>
<path fill="none" stroke="midnightblue" d="M1235.5,-57.25C1235.5,-46.02 1235.5,-33.38 1235.5,-25.19"/>
<polygon fill="midnightblue" stroke="midnightblue" points="1232,-57.4 1235.5,-67.4 1239,-57.4 1232,-57.4"/>
</g>
<!-- Node2&#45;&gt;Node12 -->
<g id="edge11" class="edge">
<title>Node2&#45;&gt;Node12</title>
<path fill="none" stroke="midnightblue" d="M1161.61,-80.08C944.8,-75.62 312.83,-60.4 108.5,-31 98.89,-29.62 88.57,-27.36 79.29,-25.03"/>
<polygon fill="midnightblue" stroke="midnightblue" points="1161.85,-83.59 1171.92,-80.29 1162,-76.59 1161.85,-83.59"/>
</g>
<!-- Node13 -->
<g id="node13" class="node">
<title>Node13</title>
<g id="a_node13"><a xlink:href="ea__erase_8c.html" target="_top" xlink:title=" ">
<polygon fill="none" stroke="black" points="1312,-6 1312,-25 1381,-25 1381,-6 1312,-6"/>
<text text-anchor="middle" x="1346.5" y="-13" font-family="Helvetica,sans-Serif" font-size="10.00">ea_erase.c</text>
</a>
</g>
</g>
<!-- Node2&#45;&gt;Node13 -->
<g id="edge12" class="edge">
<title>Node2&#45;&gt;Node13</title>
<path fill="none" stroke="midnightblue" d="M1268.28,-62.31C1289.42,-49.93 1315.88,-34.43 1331.97,-25.01"/>
<polygon fill="midnightblue" stroke="midnightblue" points="1266.45,-59.32 1259.59,-67.4 1269.98,-65.36 1266.45,-59.32"/>
</g>
<!-- Node14 -->
<g id="node14" class="node">
<title>Node14</title>
<g id="a_node14"><a xlink:href="ea__get__overlay__hardware__address_8c.html" target="_top" xlink:title=" ">
<polygon fill="none" stroke="black" points="1399,-0.5 1399,-30.5 1542,-30.5 1542,-0.5 1399,-0.5"/>
<text text-anchor="start" x="1407" y="-18.5" font-family="Helvetica,sans-Serif" font-size="10.00">ea_get_overlay_hardware</text>
<text text-anchor="middle" x="1470.5" y="-7.5" font-family="Helvetica,sans-Serif" font-size="10.00">_address.c</text>
</a>
</g>
</g>
<!-- Node2&#45;&gt;Node14 -->
<g id="edge13" class="edge">
<title>Node2&#45;&gt;Node14</title>
<path fill="none" stroke="midnightblue" d="M1296.18,-64.71C1334.43,-54.14 1383.24,-40.63 1419.48,-30.61"/>
<polygon fill="midnightblue" stroke="midnightblue" points="1294.91,-61.44 1286.2,-67.48 1296.77,-68.18 1294.91,-61.44"/>
</g>
<!-- Node15 -->
<g id="node15" class="node">
<title>Node15</title>
<g id="a_node15"><a xlink:href="ea__get__overlay__software__address_8c.html" target="_top" xlink:title=" ">
<polygon fill="none" stroke="black" points="1560.5,-0.5 1560.5,-30.5 1700.5,-30.5 1700.5,-0.5 1560.5,-0.5"/>
<text text-anchor="start" x="1568.5" y="-18.5" font-family="Helvetica,sans-Serif" font-size="10.00">ea_get_overlay_software</text>
<text text-anchor="middle" x="1630.5" y="-7.5" font-family="Helvetica,sans-Serif" font-size="10.00">_address.c</text>
</a>
</g>
</g>
<!-- Node2&#45;&gt;Node15 -->
<g id="edge14" class="edge">
<title>Node2&#45;&gt;Node15</title>
<path fill="none" stroke="midnightblue" d="M1309.22,-66.93C1417.77,-48.37 1446.95,-48.33 1551.5,-31 1554.39,-30.52 1557.34,-30.02 1560.31,-29.51"/>
<polygon fill="midnightblue" stroke="midnightblue" points="1308.43,-63.52 1299.17,-68.66 1309.62,-70.41 1308.43,-63.52"/>
</g>
<!-- Node16 -->
<g id="node16" class="node">
<title>Node16</title>
<g id="a_node16"><a xlink:href="ea__init_8c.html" target="_top" xlink:title=" ">
<polygon fill="none" stroke="black" points="1718.5,-6 1718.5,-25 1776.5,-25 1776.5,-6 1718.5,-6"/>
<text text-anchor="middle" x="1747.5" y="-13" font-family="Helvetica,sans-Serif" font-size="10.00">ea_init.c</text>
</a>
</g>
</g>
<!-- Node2&#45;&gt;Node16 -->
<g id="edge15" class="edge">
<title>Node2&#45;&gt;Node16</title>
<path fill="none" stroke="midnightblue" d="M1309.11,-67.04C1487.45,-42.58 1538.3,-70.55 1709.5,-31 1715.69,-29.57 1722.23,-27.35 1728.1,-25.08"/>
<polygon fill="midnightblue" stroke="midnightblue" points="1308.55,-63.59 1299.13,-68.45 1309.52,-70.52 1308.55,-63.59"/>
</g>
<!-- Node17 -->
<g id="node17" class="node">
<title>Node17</title>
<g id="a_node17"><a xlink:href="ea__present_8c.html" target="_top" xlink:title=" ">
<polygon fill="none" stroke="black" points="1795,-6 1795,-25 1874,-25 1874,-6 1795,-6"/>
<text text-anchor="middle" x="1834.5" y="-13" font-family="Helvetica,sans-Serif" font-size="10.00">ea_present.c</text>
</a>
</g>
</g>
<!-- Node2&#45;&gt;Node17 -->
<g id="edge16" class="edge">
<title>Node2&#45;&gt;Node17</title>
<path fill="none" stroke="midnightblue" d="M1309.32,-67.02C1520.97,-39.19 1579.66,-68.78 1785.5,-31 1793.35,-29.56 1801.74,-27.34 1809.32,-25.07"/>
<polygon fill="midnightblue" stroke="midnightblue" points="1308.57,-63.59 1299.13,-68.39 1309.5,-70.53 1308.57,-63.59"/>
</g>
<!-- Node18 -->
<g id="node18" class="node">
<title>Node18</title>
<g id="a_node18"><a xlink:href="ea__set__clipped__area_8c.html" target="_top" xlink:title=" ">
<polygon fill="none" stroke="black" points="1892,-6 1892,-25 2017,-25 2017,-6 1892,-6"/>
<text text-anchor="middle" x="1954.5" y="-13" font-family="Helvetica,sans-Serif" font-size="10.00">ea_set_clipped_area.c</text>
</a>
</g>
</g>
<!-- Node2&#45;&gt;Node18 -->
<g id="edge17" class="edge">
<title>Node2&#45;&gt;Node18</title>
<path fill="none" stroke="midnightblue" d="M1309.05,-67.07C1564.16,-34.75 1632.89,-64.27 1883.5,-31 1894.72,-29.51 1906.83,-27.28 1917.81,-25"/>
<polygon fill="midnightblue" stroke="midnightblue" points="1308.59,-63.6 1299.12,-68.34 1309.48,-70.54 1308.59,-63.6"/>
</g>
<!-- Node19 -->
<g id="node19" class="node">
<title>Node19</title>
<g id="a_node19"><a xlink:href="ea__set__color_8c.html" target="_top" xlink:title=" ">
<polygon fill="none" stroke="black" points="2035.5,-6 2035.5,-25 2121.5,-25 2121.5,-6 2035.5,-6"/>
<text text-anchor="middle" x="2078.5" y="-13" font-family="Helvetica,sans-Serif" font-size="10.00">ea_set_color.c</text>
</a>
</g>
</g>
<!-- Node2&#45;&gt;Node19 -->
<g id="edge18" class="edge">
<title>Node2&#45;&gt;Node19</title>
<path fill="none" stroke="midnightblue" d="M1309.08,-67.08C1627.37,-28.88 1714.35,-81.7 2026.5,-31 2035.01,-29.62 2044.12,-27.36 2052.3,-25.03"/>
<polygon fill="midnightblue" stroke="midnightblue" points="1308.61,-63.61 1299.11,-68.3 1309.46,-70.56 1308.61,-63.61"/>
</g>
<!-- Node20 -->
<g id="node20" class="node">
<title>Node20</title>
<g id="a_node20"><a xlink:href="ea__set__overlay__hardware__address_8c.html" target="_top" xlink:title=" ">
<polygon fill="none" stroke="black" points="2139.5,-0.5 2139.5,-30.5 2281.5,-30.5 2281.5,-0.5 2139.5,-0.5"/>
<text text-anchor="start" x="2147.5" y="-18.5" font-family="Helvetica,sans-Serif" font-size="10.00">ea_set_overlay_hardware</text>
<text text-anchor="middle" x="2210.5" y="-7.5" font-family="Helvetica,sans-Serif" font-size="10.00">_address.c</text>
</a>
</g>
</g>
<!-- Node2&#45;&gt;Node20 -->
<g id="edge19" class="edge">
<title>Node2&#45;&gt;Node20</title>
<path fill="none" stroke="midnightblue" d="M1309.14,-67.08C1673.3,-24.12 1770.37,-71.33 2130.5,-31 2133.45,-30.67 2136.45,-30.3 2139.47,-29.89"/>
<polygon fill="midnightblue" stroke="midnightblue" points="1308.62,-63.61 1299.11,-68.27 1309.45,-70.56 1308.62,-63.61"/>
</g>
<!-- Node21 -->
<g id="node21" class="node">
<title>Node21</title>
<g id="a_node21"><a xlink:href="ea__set__overlay__software__address_8c.html" target="_top" xlink:title=" ">
<polygon fill="none" stroke="black" points="2300,-0.5 2300,-30.5 2439,-30.5 2439,-0.5 2300,-0.5"/>
<text text-anchor="start" x="2308" y="-18.5" font-family="Helvetica,sans-Serif" font-size="10.00">ea_set_overlay_software</text>
<text text-anchor="middle" x="2369.5" y="-7.5" font-family="Helvetica,sans-Serif" font-size="10.00">_address.c</text>
</a>
</g>
</g>
<!-- Node2&#45;&gt;Node21 -->
<g id="edge20" class="edge">
<title>Node2&#45;&gt;Node21</title>
<path fill="none" stroke="midnightblue" d="M1309.11,-67.09C1744.03,-17.23 1859.64,-78.19 2290.5,-31 2293.55,-30.67 2296.66,-30.28 2299.79,-29.86"/>
<polygon fill="midnightblue" stroke="midnightblue" points="1308.64,-63.62 1299.11,-68.25 1309.44,-70.57 1308.64,-63.62"/>
</g>
<!-- Node22 -->
<g id="node22" class="node">
<title>Node22</title>
<g id="a_node22"><a xlink:href="vears_8c.html" target="_top" xlink:title=" ">
<polygon fill="none" stroke="black" points="2457.5,-6 2457.5,-25 2509.5,-25 2509.5,-6 2457.5,-6"/>
<text text-anchor="middle" x="2483.5" y="-13" font-family="Helvetica,sans-Serif" font-size="10.00">vears.c</text>
</a>
</g>
</g>
<!-- Node2&#45;&gt;Node22 -->
<g id="edge21" class="edge">
<title>Node2&#45;&gt;Node22</title>
<path fill="none" stroke="midnightblue" d="M1309.23,-67.12C1576.52,-39.37 2203.87,-83.7 2448.5,-31 2454.54,-29.7 2460.87,-27.4 2466.45,-25.01"/>
<polygon fill="midnightblue" stroke="midnightblue" points="1308.67,-63.66 1299.1,-68.23 1309.43,-70.62 1308.67,-63.66"/>
</g>
</g>
</svg>
