<?xml version="1.0" encoding="UTF-8" standalone="no"?>
<!DOCTYPE svg PUBLIC "-//W3C//DTD SVG 1.1//EN"
 "http://www.w3.org/Graphics/SVG/1.1/DTD/svg11.dtd">
<!-- Generated by graphviz version 2.43.0 (0)
 -->
<!-- Title: embedded_augmenter_helpers.h Pages: 1 -->
<svg width="2495pt" height="106pt"
 viewBox="0.00 0.00 2494.50 106.00" xmlns="http://www.w3.org/2000/svg" xmlns:xlink="http://www.w3.org/1999/xlink">
<g id="graph0" class="graph" transform="scale(1 1) rotate(0) translate(4 102)">
<title>embedded_augmenter_helpers.h</title>
<!-- Node1 -->
<g id="node1" class="node">
<title>Node1</title>
<g id="a_node1"><a xlink:title=" ">
<polygon fill="#bfbfbf" stroke="black" points="1180.5,-67.5 1180.5,-97.5 1307.5,-97.5 1307.5,-67.5 1180.5,-67.5"/>
<text text-anchor="start" x="1188.5" y="-85.5" font-family="Helvetica,sans-Serif" font-size="10.00">embedded_augmenter</text>
<text text-anchor="middle" x="1244" y="-74.5" font-family="Helvetica,sans-Serif" font-size="10.00">_helpers.h</text>
</a>
</g>
</g>
<!-- Node2 -->
<g id="node2" class="node">
<title>Node2</title>
<g id="a_node2"><a xlink:href="ea__draw__circle_8c.html" target="_top" xlink:title=" ">
<polygon fill="none" stroke="black" points="0,-6 0,-25 98,-25 98,-6 0,-6"/>
<text text-anchor="middle" x="49" y="-13" font-family="Helvetica,sans-Serif" font-size="10.00">ea_draw_circle.c</text>
</a>
</g>
</g>
<!-- Node1&#45;&gt;Node2 -->
<g id="edge1" class="edge">
<title>Node1&#45;&gt;Node2</title>
<path fill="none" stroke="midnightblue" d="M1170.15,-80.15C952.08,-75.88 313.3,-61.06 107,-31 97.55,-29.62 87.4,-27.36 78.28,-25.03"/>
<polygon fill="midnightblue" stroke="midnightblue" points="1170.15,-83.66 1180.22,-80.35 1170.29,-76.66 1170.15,-83.66"/>
</g>
<!-- Node3 -->
<g id="node3" class="node">
<title>Node3</title>
<g id="a_node3"><a xlink:href="ea__draw__filled__circle_8c.html" target="_top" xlink:title=" ">
<polygon fill="none" stroke="black" points="116,-6 116,-25 244,-25 244,-6 116,-6"/>
<text text-anchor="middle" x="180" y="-13" font-family="Helvetica,sans-Serif" font-size="10.00">ea_draw_filled_circle.c</text>
</a>
</g>
</g>
<!-- Node1&#45;&gt;Node3 -->
<g id="edge2" class="edge">
<title>Node1&#45;&gt;Node3</title>
<path fill="none" stroke="midnightblue" d="M1170.21,-81.39C1005.18,-80.35 593.98,-73.32 253,-31 241.33,-29.55 228.73,-27.3 217.34,-25"/>
<polygon fill="midnightblue" stroke="midnightblue" points="1170.23,-84.89 1180.25,-81.45 1170.27,-77.89 1170.23,-84.89"/>
</g>
<!-- Node4 -->
<g id="node4" class="node">
<title>Node4</title>
<g id="a_node4"><a xlink:href="ea__draw__filled__rectangle_8c.html" target="_top" xlink:title=" ">
<polygon fill="none" stroke="black" points="262.5,-6 262.5,-25 409.5,-25 409.5,-6 262.5,-6"/>
<text text-anchor="middle" x="336" y="-13" font-family="Helvetica,sans-Serif" font-size="10.00">ea_draw_filled_rectangle.c</text>
</a>
</g>
</g>
<!-- Node1&#45;&gt;Node4 -->
<g id="edge3" class="edge">
<title>Node1&#45;&gt;Node4</title>
<path fill="none" stroke="midnightblue" d="M1170.31,-79.75C1025.76,-75.71 695.09,-63.46 419,-31 406.07,-29.48 392.1,-27.26 379.37,-25.02"/>
<polygon fill="midnightblue" stroke="midnightblue" points="1170.3,-83.25 1180.39,-80.03 1170.49,-76.26 1170.3,-83.25"/>
</g>
<!-- Node5 -->
<g id="node5" class="node">
<title>Node5</title>
<g id="a_node5"><a xlink:href="ea__draw__icon_8c.html" target="_top" xlink:title=" ">
<polygon fill="none" stroke="black" points="428,-6 428,-25 520,-25 520,-6 428,-6"/>
<text text-anchor="middle" x="474" y="-13" font-family="Helvetica,sans-Serif" font-size="10.00">ea_draw_icon.c</text>
</a>
</g>
</g>
<!-- Node1&#45;&gt;Node5 -->
<g id="edge4" class="edge">
<title>Node1&#45;&gt;Node5</title>
<path fill="none" stroke="midnightblue" d="M1170.15,-80.83C1039.83,-78.63 760.89,-69.41 529,-31 520.23,-29.55 510.83,-27.32 502.33,-25.05"/>
<polygon fill="midnightblue" stroke="midnightblue" points="1170.35,-84.33 1180.41,-80.99 1170.47,-77.33 1170.35,-84.33"/>
</g>
<!-- Node6 -->
<g id="node6" class="node">
<title>Node6</title>
<g id="a_node6"><a xlink:href="ea__draw__line_8c.html" target="_top" xlink:title=" ">
<polygon fill="none" stroke="black" points="538.5,-6 538.5,-25 627.5,-25 627.5,-6 538.5,-6"/>
<text text-anchor="middle" x="583" y="-13" font-family="Helvetica,sans-Serif" font-size="10.00">ea_draw_line.c</text>
</a>
</g>
</g>
<!-- Node1&#45;&gt;Node6 -->
<g id="edge5" class="edge">
<title>Node1&#45;&gt;Node6</title>
<path fill="none" stroke="midnightblue" d="M1170.08,-79.62C1055.24,-75.73 827.36,-64.2 637,-31 628.49,-29.52 619.37,-27.31 611.09,-25.07"/>
<polygon fill="midnightblue" stroke="midnightblue" points="1170.06,-83.12 1180.17,-79.95 1170.29,-76.12 1170.06,-83.12"/>
</g>
<!-- Node7 -->
<g id="node7" class="node">
<title>Node7</title>
<g id="a_node7"><a xlink:href="ea__draw__point_8c.html" target="_top" xlink:title=" ">
<polygon fill="none" stroke="black" points="646,-6 646,-25 742,-25 742,-6 646,-6"/>
<text text-anchor="middle" x="694" y="-13" font-family="Helvetica,sans-Serif" font-size="10.00">ea_draw_point.c</text>
</a>
</g>
</g>
<!-- Node1&#45;&gt;Node7 -->
<g id="edge6" class="edge">
<title>Node1&#45;&gt;Node7</title>
<path fill="none" stroke="midnightblue" d="M1170.18,-77.33C1073.36,-71.1 898.48,-57.17 751,-31 742.15,-29.43 732.65,-27.23 723.99,-25.01"/>
<polygon fill="midnightblue" stroke="midnightblue" points="1169.96,-80.83 1180.16,-77.97 1170.4,-73.84 1169.96,-80.83"/>
</g>
<!-- Node8 -->
<g id="node8" class="node">
<title>Node8</title>
<g id="a_node8"><a xlink:href="ea__draw__quick__line__h_8c.html" target="_top" xlink:title=" ">
<polygon fill="none" stroke="black" points="760,-6 760,-25 892,-25 892,-6 760,-6"/>
<text text-anchor="middle" x="826" y="-13" font-family="Helvetica,sans-Serif" font-size="10.00">ea_draw_quick_line_h.c</text>
</a>
</g>
</g>
<!-- Node1&#45;&gt;Node8 -->
<g id="edge7" class="edge">
<title>Node1&#45;&gt;Node8</title>
<path fill="none" stroke="midnightblue" d="M1170.35,-71.63C1100.79,-62.08 993.61,-46.76 901,-31 890.41,-29.2 879.01,-27.08 868.38,-25.04"/>
<polygon fill="midnightblue" stroke="midnightblue" points="1169.95,-75.11 1180.33,-73 1170.9,-68.17 1169.95,-75.11"/>
</g>
<!-- Node9 -->
<g id="node9" class="node">
<title>Node9</title>
<g id="a_node9"><a xlink:href="ea__draw__quick__line__v_8c.html" target="_top" xlink:title=" ">
<polygon fill="none" stroke="black" points="910.5,-6 910.5,-25 1041.5,-25 1041.5,-6 910.5,-6"/>
<text text-anchor="middle" x="976" y="-13" font-family="Helvetica,sans-Serif" font-size="10.00">ea_draw_quick_line_v.c</text>
</a>
</g>
</g>
<!-- Node1&#45;&gt;Node9 -->
<g id="edge8" class="edge">
<title>Node1&#45;&gt;Node9</title>
<path fill="none" stroke="midnightblue" d="M1176.26,-65.07C1123.7,-52.32 1052.98,-35.17 1011.16,-25.03"/>
<polygon fill="midnightblue" stroke="midnightblue" points="1175.63,-68.52 1186.18,-67.48 1177.28,-61.72 1175.63,-68.52"/>
</g>
<!-- Node10 -->
<g id="node10" class="node">
<title>Node10</title>
<g id="a_node10"><a xlink:href="ea__draw__rectangle_8c.html" target="_top" xlink:title=" ">
<polygon fill="none" stroke="black" points="1059.5,-6 1059.5,-25 1176.5,-25 1176.5,-6 1059.5,-6"/>
<text text-anchor="middle" x="1118" y="-13" font-family="Helvetica,sans-Serif" font-size="10.00">ea_draw_rectangle.c</text>
</a>
</g>
</g>
<!-- Node1&#45;&gt;Node10 -->
<g id="edge9" class="edge">
<title>Node1&#45;&gt;Node10</title>
<path fill="none" stroke="midnightblue" d="M1207.76,-62.8C1183.6,-50.34 1153,-34.56 1134.49,-25.01"/>
<polygon fill="midnightblue" stroke="midnightblue" points="1206.17,-65.92 1216.66,-67.4 1209.38,-59.7 1206.17,-65.92"/>
</g>
<!-- Node11 -->
<g id="node11" class="node">
<title>Node11</title>
<g id="a_node11"><a xlink:href="ea__draw__string_8c.html" target="_top" xlink:title=" ">
<polygon fill="none" stroke="black" points="1194.5,-6 1194.5,-25 1293.5,-25 1293.5,-6 1194.5,-6"/>
<text text-anchor="middle" x="1244" y="-13" font-family="Helvetica,sans-Serif" font-size="10.00">ea_draw_string.c</text>
</a>
</g>
</g>
<!-- Node1&#45;&gt;Node11 -->
<g id="edge10" class="edge">
<title>Node1&#45;&gt;Node11</title>
<path fill="none" stroke="midnightblue" d="M1244,-57.25C1244,-46.02 1244,-33.38 1244,-25.19"/>
<polygon fill="midnightblue" stroke="midnightblue" points="1240.5,-57.4 1244,-67.4 1247.5,-57.4 1240.5,-57.4"/>
</g>
<!-- Node12 -->
<g id="node12" class="node">
<title>Node12</title>
<g id="a_node12"><a xlink:href="ea__erase_8c.html" target="_top" xlink:title=" ">
<polygon fill="none" stroke="black" points="1311.5,-6 1311.5,-25 1380.5,-25 1380.5,-6 1311.5,-6"/>
<text text-anchor="middle" x="1346" y="-13" font-family="Helvetica,sans-Serif" font-size="10.00">ea_erase.c</text>
</a>
</g>
</g>
<!-- Node1&#45;&gt;Node12 -->
<g id="edge11" class="edge">
<title>Node1&#45;&gt;Node12</title>
<path fill="none" stroke="midnightblue" d="M1274.64,-61.97C1293.98,-49.65 1318,-34.35 1332.65,-25.01"/>
<polygon fill="midnightblue" stroke="midnightblue" points="1272.68,-59.07 1266.13,-67.4 1276.45,-64.97 1272.68,-59.07"/>
</g>
<!-- Node13 -->
<g id="node13" class="node">
<title>Node13</title>
<g id="a_node13"><a xlink:href="ea__get__overlay__hardware__address_8c.html" target="_top" xlink:title=" ">
<polygon fill="none" stroke="black" points="1398.5,-0.5 1398.5,-30.5 1541.5,-30.5 1541.5,-0.5 1398.5,-0.5"/>
<text text-anchor="start" x="1406.5" y="-18.5" font-family="Helvetica,sans-Serif" font-size="10.00">ea_get_overlay_hardware</text>
<text text-anchor="middle" x="1470" y="-7.5" font-family="Helvetica,sans-Serif" font-size="10.00">_address.c</text>
</a>
</g>
</g>
<!-- Node1&#45;&gt;Node13 -->
<g id="edge12" class="edge">
<title>Node1&#45;&gt;Node13</title>
<path fill="none" stroke="midnightblue" d="M1302.83,-64.58C1339.54,-54.02 1386.23,-40.59 1420.94,-30.61"/>
<polygon fill="midnightblue" stroke="midnightblue" points="1301.4,-61.35 1292.76,-67.48 1303.34,-68.08 1301.4,-61.35"/>
</g>
<!-- Node14 -->
<g id="node14" class="node">
<title>Node14</title>
<g id="a_node14"><a xlink:href="ea__get__overlay__software__address_8c.html" target="_top" xlink:title=" ">
<polygon fill="none" stroke="black" points="1560,-0.5 1560,-30.5 1700,-30.5 1700,-0.5 1560,-0.5"/>
<text text-anchor="start" x="1568" y="-18.5" font-family="Helvetica,sans-Serif" font-size="10.00">ea_get_overlay_software</text>
<text text-anchor="middle" x="1630" y="-7.5" font-family="Helvetica,sans-Serif" font-size="10.00">_address.c</text>
</a>
</g>
</g>
<!-- Node1&#45;&gt;Node14 -->
<g id="edge13" class="edge">
<title>Node1&#45;&gt;Node14</title>
<path fill="none" stroke="midnightblue" d="M1317.67,-69.77C1379.9,-59.77 1471.35,-44.86 1551,-31 1553.88,-30.5 1556.83,-29.98 1559.8,-29.45"/>
<polygon fill="midnightblue" stroke="midnightblue" points="1316.88,-66.36 1307.56,-71.4 1317.99,-73.27 1316.88,-66.36"/>
</g>
<!-- Node15 -->
<g id="node15" class="node">
<title>Node15</title>
<g id="a_node15"><a xlink:href="ea__init_8c.html" target="_top" xlink:title=" ">
<polygon fill="none" stroke="black" points="1718,-6 1718,-25 1776,-25 1776,-6 1718,-6"/>
<text text-anchor="middle" x="1747" y="-13" font-family="Helvetica,sans-Serif" font-size="10.00">ea_init.c</text>
</a>
</g>
</g>
<!-- Node1&#45;&gt;Node15 -->
<g id="edge14" class="edge">
<title>Node1&#45;&gt;Node15</title>
<path fill="none" stroke="midnightblue" d="M1317.79,-79.31C1410.34,-75.23 1573.36,-63.67 1709,-31 1715.18,-29.51 1721.71,-27.28 1727.58,-25.01"/>
<polygon fill="midnightblue" stroke="midnightblue" points="1317.52,-75.81 1307.68,-79.73 1317.82,-82.81 1317.52,-75.81"/>
</g>
<!-- Node16 -->
<g id="node16" class="node">
<title>Node16</title>
<g id="a_node16"><a xlink:href="ea__set__clipped__area_8c.html" target="_top" xlink:title=" ">
<polygon fill="none" stroke="black" points="1794.5,-6 1794.5,-25 1919.5,-25 1919.5,-6 1794.5,-6"/>
<text text-anchor="middle" x="1857" y="-13" font-family="Helvetica,sans-Serif" font-size="10.00">ea_set_clipped_area.c</text>
</a>
</g>
</g>
<!-- Node1&#45;&gt;Node16 -->
<g id="edge15" class="edge">
<title>Node1&#45;&gt;Node16</title>
<path fill="none" stroke="midnightblue" d="M1317.67,-77.1C1422.06,-70.3 1618.81,-55.42 1785,-31 1795.98,-29.39 1807.81,-27.2 1818.64,-25.01"/>
<polygon fill="midnightblue" stroke="midnightblue" points="1317.31,-73.62 1307.56,-77.75 1317.76,-80.6 1317.31,-73.62"/>
</g>
<!-- Node17 -->
<g id="node17" class="node">
<title>Node17</title>
<g id="a_node17"><a xlink:href="ea__set__color_8c.html" target="_top" xlink:title=" ">
<polygon fill="none" stroke="black" points="1938,-6 1938,-25 2024,-25 2024,-6 1938,-6"/>
<text text-anchor="middle" x="1981" y="-13" font-family="Helvetica,sans-Serif" font-size="10.00">ea_set_color.c</text>
</a>
</g>
</g>
<!-- Node1&#45;&gt;Node17 -->
<g id="edge16" class="edge">
<title>Node1&#45;&gt;Node17</title>
<path fill="none" stroke="midnightblue" d="M1318.11,-80.83C1444.41,-78.63 1709.05,-69.38 1929,-31 1937.31,-29.55 1946.2,-27.33 1954.24,-25.05"/>
<polygon fill="midnightblue" stroke="midnightblue" points="1317.73,-77.34 1307.79,-81 1317.85,-84.34 1317.73,-77.34"/>
</g>
<!-- Node18 -->
<g id="node18" class="node">
<title>Node18</title>
<g id="a_node18"><a xlink:href="ea__set__overlay__hardware__address_8c.html" target="_top" xlink:title=" ">
<polygon fill="none" stroke="black" points="2042,-0.5 2042,-30.5 2184,-30.5 2184,-0.5 2042,-0.5"/>
<text text-anchor="start" x="2050" y="-18.5" font-family="Helvetica,sans-Serif" font-size="10.00">ea_set_overlay_hardware</text>
<text text-anchor="middle" x="2113" y="-7.5" font-family="Helvetica,sans-Serif" font-size="10.00">_address.c</text>
</a>
</g>
</g>
<!-- Node1&#45;&gt;Node18 -->
<g id="edge17" class="edge">
<title>Node1&#45;&gt;Node18</title>
<path fill="none" stroke="midnightblue" d="M1317.82,-79.62C1457.77,-75.42 1771.15,-63 2033,-31 2035.94,-30.64 2038.94,-30.24 2041.96,-29.81"/>
<polygon fill="midnightblue" stroke="midnightblue" points="1317.53,-76.12 1307.64,-79.92 1317.74,-83.12 1317.53,-76.12"/>
</g>
<!-- Node19 -->
<g id="node19" class="node">
<title>Node19</title>
<g id="a_node19"><a xlink:href="ea__set__overlay__software__address_8c.html" target="_top" xlink:title=" ">
<polygon fill="none" stroke="black" points="2202.5,-0.5 2202.5,-30.5 2341.5,-30.5 2341.5,-0.5 2202.5,-0.5"/>
<text text-anchor="start" x="2210.5" y="-18.5" font-family="Helvetica,sans-Serif" font-size="10.00">ea_set_overlay_software</text>
<text text-anchor="middle" x="2272" y="-7.5" font-family="Helvetica,sans-Serif" font-size="10.00">_address.c</text>
</a>
</g>
</g>
<!-- Node1&#45;&gt;Node19 -->
<g id="edge18" class="edge">
<title>Node1&#45;&gt;Node19</title>
<path fill="none" stroke="midnightblue" d="M1317.74,-80.79C1477.7,-78.55 1868.32,-69.27 2193,-31 2196.05,-30.64 2199.15,-30.24 2202.29,-29.8"/>
<polygon fill="midnightblue" stroke="midnightblue" points="1317.49,-77.3 1307.54,-80.93 1317.59,-84.29 1317.49,-77.3"/>
</g>
<!-- Node20 -->
<g id="node20" class="node">
<title>Node20</title>
<g id="a_node20"><a xlink:href="embedded__augmenter__helpers_8c.html" target="_top" xlink:title=" ">
<polygon fill="none" stroke="black" points="2359.5,-0.5 2359.5,-30.5 2486.5,-30.5 2486.5,-0.5 2359.5,-0.5"/>
<text text-anchor="start" x="2367.5" y="-18.5" font-family="Helvetica,sans-Serif" font-size="10.00">embedded_augmenter</text>
<text text-anchor="middle" x="2423" y="-7.5" font-family="Helvetica,sans-Serif" font-size="10.00">_helpers.c</text>
</a>
</g>
</g>
<!-- Node1&#45;&gt;Node20 -->
<g id="edge19" class="edge">
<title>Node1&#45;&gt;Node20</title>
<path fill="none" stroke="midnightblue" d="M1317.67,-82.02C1495.84,-82.45 1963.96,-78.52 2351,-31 2353.78,-30.66 2356.62,-30.27 2359.48,-29.84"/>
<polygon fill="midnightblue" stroke="midnightblue" points="1317.63,-78.52 1307.62,-81.99 1317.61,-85.52 1317.63,-78.52"/>
</g>
</g>
</svg>
