<?xml version="1.0" encoding="UTF-8" standalone="no"?>
<!DOCTYPE svg PUBLIC "-//W3C//DTD SVG 1.1//EN"
 "http://www.w3.org/Graphics/SVG/1.1/DTD/svg11.dtd">
<!-- Generated by graphviz version 2.43.0 (0)
 -->
<!-- Title: ea_draw_quick_line_h Pages: 1 -->
<svg width="497pt" height="142pt"
 viewBox="0.00 0.00 497.00 142.00" xmlns="http://www.w3.org/2000/svg" xmlns:xlink="http://www.w3.org/1999/xlink">
<g id="graph0" class="graph" transform="scale(1 1) rotate(0) translate(4 138)">
<title>ea_draw_quick_line_h</title>
<!-- Node1 -->
<g id="node1" class="node">
<title>Node1</title>
<g id="a_node1"><a xlink:title=" ">
<polygon fill="#bfbfbf" stroke="black" points="365,-57.5 365,-76.5 489,-76.5 489,-57.5 365,-57.5"/>
<text text-anchor="middle" x="427" y="-64.5" font-family="Helvetica,sans-Serif" font-size="10.00">ea_draw_quick_line_h</text>
</a>
</g>
</g>
<!-- Node2 -->
<g id="node2" class="node">
<title>Node2</title>
<g id="a_node2"><a xlink:href="embedded__augmenter__lib_8h.html#a8293632e46c200ee9eb4e2546ef2c7a5" target="_top" xlink:title=" ">
<polygon fill="none" stroke="black" points="200,-114.5 200,-133.5 319,-133.5 319,-114.5 200,-114.5"/>
<text text-anchor="middle" x="259.5" y="-121.5" font-family="Helvetica,sans-Serif" font-size="10.00">ea_draw_filled_circle</text>
</a>
</g>
</g>
<!-- Node1&#45;&gt;Node2 -->
<g id="edge1" class="edge">
<title>Node1&#45;&gt;Node2</title>
<path fill="none" stroke="midnightblue" d="M394.23,-80.4C375.43,-88.09 351.06,-97.64 329,-105 318.93,-108.36 307.9,-111.6 297.68,-114.44"/>
<polygon fill="midnightblue" stroke="midnightblue" points="395.6,-83.62 403.51,-76.57 392.93,-77.15 395.6,-83.62"/>
</g>
<!-- Node4 -->
<g id="node4" class="node">
<title>Node4</title>
<g id="a_node4"><a xlink:href="embedded__augmenter__lib_8h.html#acff0686844917b78ce1855f5637ac805" target="_top" xlink:title=" ">
<polygon fill="none" stroke="black" points="190,-76.5 190,-95.5 329,-95.5 329,-76.5 190,-76.5"/>
<text text-anchor="middle" x="259.5" y="-83.5" font-family="Helvetica,sans-Serif" font-size="10.00">ea_draw_filled_rectangle</text>
</a>
</g>
</g>
<!-- Node1&#45;&gt;Node4 -->
<g id="edge3" class="edge">
<title>Node1&#45;&gt;Node4</title>
<path fill="none" stroke="midnightblue" d="M354.65,-75.19C346.22,-76.16 337.62,-77.15 329.21,-78.11"/>
<polygon fill="midnightblue" stroke="midnightblue" points="355.31,-78.64 364.84,-74.02 354.51,-71.68 355.31,-78.64"/>
</g>
<!-- Node6 -->
<g id="node6" class="node">
<title>Node6</title>
<g id="a_node6"><a xlink:href="embedded__augmenter__lib_8h.html#acff31533f1e3855601782c6d7c4b44b1" target="_top" xlink:title=" ">
<polygon fill="none" stroke="black" points="219,-38.5 219,-57.5 300,-57.5 300,-38.5 219,-38.5"/>
<text text-anchor="middle" x="259.5" y="-45.5" font-family="Helvetica,sans-Serif" font-size="10.00">ea_draw_line</text>
</a>
</g>
</g>
<!-- Node1&#45;&gt;Node6 -->
<g id="edge5" class="edge">
<title>Node1&#45;&gt;Node6</title>
<path fill="none" stroke="midnightblue" d="M354.87,-58.83C336.19,-56.69 316.71,-54.45 300.32,-52.57"/>
<polygon fill="midnightblue" stroke="midnightblue" points="354.51,-62.32 364.84,-59.98 355.31,-55.36 354.51,-62.32"/>
</g>
<!-- Node8 -->
<g id="node8" class="node">
<title>Node8</title>
<g id="a_node8"><a xlink:href="embedded__augmenter__lib_8h.html#a1e52ff893d4fa672d5f76efe07c95907" target="_top" xlink:title=" ">
<polygon fill="none" stroke="black" points="205,-0.5 205,-19.5 314,-19.5 314,-0.5 205,-0.5"/>
<text text-anchor="middle" x="259.5" y="-7.5" font-family="Helvetica,sans-Serif" font-size="10.00">ea_draw_rectangle</text>
</a>
</g>
</g>
<!-- Node1&#45;&gt;Node8 -->
<g id="edge7" class="edge">
<title>Node1&#45;&gt;Node8</title>
<path fill="none" stroke="midnightblue" d="M394.23,-53.6C375.43,-45.91 351.06,-36.36 329,-29 318.93,-25.64 307.9,-22.4 297.68,-19.56"/>
<polygon fill="midnightblue" stroke="midnightblue" points="392.93,-56.85 403.51,-57.43 395.6,-50.38 392.93,-56.85"/>
</g>
<!-- Node3 -->
<g id="node3" class="node">
<title>Node3</title>
<g id="a_node3"><a xlink:href="group__vears__overlay.html#ga9ae919e4ba1dbc284c2c950956d90f77" target="_top" xlink:title="Draw a filled circle of radius r around (x, y).">
<polygon fill="none" stroke="black" points="10,-114.5 10,-133.5 144,-133.5 144,-114.5 10,-114.5"/>
<text text-anchor="middle" x="77" y="-121.5" font-family="Helvetica,sans-Serif" font-size="10.00">vears_draw_filled_circle</text>
</a>
</g>
</g>
<!-- Node2&#45;&gt;Node3 -->
<g id="edge2" class="edge">
<title>Node2&#45;&gt;Node3</title>
<path fill="none" stroke="midnightblue" d="M189.7,-124C174.75,-124 158.97,-124 144.13,-124"/>
<polygon fill="midnightblue" stroke="midnightblue" points="189.9,-127.5 199.9,-124 189.9,-120.5 189.9,-127.5"/>
</g>
<!-- Node5 -->
<g id="node5" class="node">
<title>Node5</title>
<g id="a_node5"><a xlink:href="group__vears__overlay.html#ga54e4da81a207af560f9c93aa38d2b5e2" target="_top" xlink:title="Draw a filled rectangle. (x0, y0) is the upper&#45;left, (x1, y1) is the lower&#45;right corner,...">
<polygon fill="none" stroke="black" points="0,-76.5 0,-95.5 154,-95.5 154,-76.5 0,-76.5"/>
<text text-anchor="middle" x="77" y="-83.5" font-family="Helvetica,sans-Serif" font-size="10.00">vears_draw_filled_rectangle</text>
</a>
</g>
</g>
<!-- Node4&#45;&gt;Node5 -->
<g id="edge4" class="edge">
<title>Node4&#45;&gt;Node5</title>
<path fill="none" stroke="midnightblue" d="M179.53,-86C171.08,-86 162.5,-86 154.09,-86"/>
<polygon fill="midnightblue" stroke="midnightblue" points="179.75,-89.5 189.75,-86 179.75,-82.5 179.75,-89.5"/>
</g>
<!-- Node7 -->
<g id="node7" class="node">
<title>Node7</title>
<g id="a_node7"><a xlink:href="group__vears__overlay.html#gac6917c882481994db3dd32e3a40f0326" target="_top" xlink:title="Draw a line from (x0, y0) to (x1, y1).">
<polygon fill="none" stroke="black" points="29,-38.5 29,-57.5 125,-57.5 125,-38.5 29,-38.5"/>
<text text-anchor="middle" x="77" y="-45.5" font-family="Helvetica,sans-Serif" font-size="10.00">vears_draw_line</text>
</a>
</g>
</g>
<!-- Node6&#45;&gt;Node7 -->
<g id="edge6" class="edge">
<title>Node6&#45;&gt;Node7</title>
<path fill="none" stroke="midnightblue" d="M208.83,-48C182.73,-48 150.92,-48 125.2,-48"/>
<polygon fill="midnightblue" stroke="midnightblue" points="208.89,-51.5 218.89,-48 208.89,-44.5 208.89,-51.5"/>
</g>
<!-- Node9 -->
<g id="node9" class="node">
<title>Node9</title>
<g id="a_node9"><a xlink:href="group__vears__overlay.html#ga8b400f489bc9781ef111507a9265a3cf" target="_top" xlink:title="Draw a rectangle. (x0, y0) is the upper&#45;left, (x1, y1) is the lower&#45;right corner, respectively.">
<polygon fill="none" stroke="black" points="15,-0.5 15,-19.5 139,-19.5 139,-0.5 15,-0.5"/>
<text text-anchor="middle" x="77" y="-7.5" font-family="Helvetica,sans-Serif" font-size="10.00">vears_draw_rectangle</text>
</a>
</g>
</g>
<!-- Node8&#45;&gt;Node9 -->
<g id="edge8" class="edge">
<title>Node8&#45;&gt;Node9</title>
<path fill="none" stroke="midnightblue" d="M194.68,-10C176.6,-10 156.97,-10 139.06,-10"/>
<polygon fill="midnightblue" stroke="midnightblue" points="194.83,-13.5 204.83,-10 194.83,-6.5 194.83,-13.5"/>
</g>
</g>
</svg>
