<?xml version="1.0" encoding="UTF-8" standalone="no"?>
<!DOCTYPE svg PUBLIC "-//W3C//DTD SVG 1.1//EN"
 "http://www.w3.org/Graphics/SVG/1.1/DTD/svg11.dtd">
<!-- Generated by graphviz version 2.43.0 (0)
 -->
<!-- Title: ea_set_clipped_area Pages: 1 -->
<svg width="368pt" height="66pt"
 viewBox="0.00 0.00 368.00 66.00" xmlns="http://www.w3.org/2000/svg" xmlns:xlink="http://www.w3.org/1999/xlink">
<g id="graph0" class="graph" transform="scale(1 1) rotate(0) translate(4 62)">
<title>ea_set_clipped_area</title>
<!-- Node1 -->
<g id="node1" class="node">
<title>Node1</title>
<g id="a_node1"><a xlink:title=" ">
<polygon fill="#bfbfbf" stroke="black" points="244,-19.5 244,-38.5 360,-38.5 360,-19.5 244,-19.5"/>
<text text-anchor="middle" x="302" y="-26.5" font-family="Helvetica,sans-Serif" font-size="10.00">ea_set_clipped_area</text>
</a>
</g>
</g>
<!-- Node2 -->
<g id="node2" class="node">
<title>Node2</title>
<g id="a_node2"><a xlink:href="embedded__augmenter__lib_8h.html#a9bbd3aea6cfae13690dfb8986318add3" target="_top" xlink:title=" ">
<polygon fill="none" stroke="black" points="129.5,-38.5 129.5,-57.5 179.5,-57.5 179.5,-38.5 129.5,-38.5"/>
<text text-anchor="middle" x="154.5" y="-45.5" font-family="Helvetica,sans-Serif" font-size="10.00">ea_init</text>
</a>
</g>
</g>
<!-- Node1&#45;&gt;Node2 -->
<g id="edge1" class="edge">
<title>Node1&#45;&gt;Node2</title>
<path fill="none" stroke="midnightblue" d="M233.88,-37.77C214.54,-40.29 194.67,-42.88 179.78,-44.83"/>
<polygon fill="midnightblue" stroke="midnightblue" points="234.45,-41.22 243.91,-36.45 233.54,-34.28 234.45,-41.22"/>
</g>
<!-- Node4 -->
<g id="node4" class="node">
<title>Node4</title>
<g id="a_node4"><a xlink:href="group__vears__overlay.html#gacbedd463a87c151032214a354c0f7835" target="_top" xlink:title="Set clipping rectangle. (x0, y0) is the upper&#45;left and (x1, y1) is the lower&#45;right corner of the clip...">
<polygon fill="none" stroke="black" points="101,-0.5 101,-19.5 208,-19.5 208,-0.5 101,-0.5"/>
<text text-anchor="middle" x="154.5" y="-7.5" font-family="Helvetica,sans-Serif" font-size="10.00">vears_set_clipping</text>
</a>
</g>
</g>
<!-- Node1&#45;&gt;Node4 -->
<g id="edge3" class="edge">
<title>Node1&#45;&gt;Node4</title>
<path fill="none" stroke="midnightblue" d="M233.86,-20.23C225.24,-19.11 216.5,-17.97 208.15,-16.88"/>
<polygon fill="midnightblue" stroke="midnightblue" points="233.54,-23.72 243.91,-21.55 234.45,-16.78 233.54,-23.72"/>
</g>
<!-- Node3 -->
<g id="node3" class="node">
<title>Node3</title>
<g id="a_node3"><a xlink:href="group__vears__driver.html#ga37c9f106f54f6984a44897e5db7674a4" target="_top" xlink:title="Initialize and reset the VEARS module.">
<polygon fill="none" stroke="black" points="0,-38.5 0,-57.5 65,-57.5 65,-38.5 0,-38.5"/>
<text text-anchor="middle" x="32.5" y="-45.5" font-family="Helvetica,sans-Serif" font-size="10.00">vears_init</text>
</a>
</g>
</g>
<!-- Node2&#45;&gt;Node3 -->
<g id="edge2" class="edge">
<title>Node2&#45;&gt;Node3</title>
<path fill="none" stroke="midnightblue" d="M119.12,-48C102.09,-48 81.67,-48 65.04,-48"/>
<polygon fill="midnightblue" stroke="midnightblue" points="119.22,-51.5 129.22,-48 119.22,-44.5 119.22,-51.5"/>
</g>
</g>
</svg>
