<?xml version="1.0" encoding="UTF-8" standalone="no"?>
<!DOCTYPE svg PUBLIC "-//W3C//DTD SVG 1.1//EN"
 "http://www.w3.org/Graphics/SVG/1.1/DTD/svg11.dtd">
<!-- Generated by graphviz version 2.43.0 (0)
 -->
<!-- Title: embedded_augmenter_lib.h Pages: 1 -->
<svg width="2517pt" height="106pt"
 viewBox="0.00 0.00 2517.00 106.00" xmlns="http://www.w3.org/2000/svg" xmlns:xlink="http://www.w3.org/1999/xlink">
<g id="graph0" class="graph" transform="scale(1 1) rotate(0) translate(4 102)">
<title>embedded_augmenter_lib.h</title>
<!-- Node1 -->
<g id="node1" class="node">
<title>Node1</title>
<g id="a_node1"><a xlink:title=" ">
<polygon fill="#bfbfbf" stroke="black" points="1231.5,-67.5 1231.5,-97.5 1358.5,-97.5 1358.5,-67.5 1231.5,-67.5"/>
<text text-anchor="start" x="1239.5" y="-85.5" font-family="Helvetica,sans-Serif" font-size="10.00">embedded_augmenter</text>
<text text-anchor="middle" x="1295" y="-74.5" font-family="Helvetica,sans-Serif" font-size="10.00">_lib.h</text>
</a>
</g>
</g>
<!-- Node2 -->
<g id="node2" class="node">
<title>Node2</title>
<g id="a_node2"><a xlink:href="ea__draw__circle_8c.html" target="_top" xlink:title=" ">
<polygon fill="none" stroke="black" points="0,-6 0,-25 98,-25 98,-6 0,-6"/>
<text text-anchor="middle" x="49" y="-13" font-family="Helvetica,sans-Serif" font-size="10.00">ea_draw_circle.c</text>
</a>
</g>
</g>
<!-- Node1&#45;&gt;Node2 -->
<g id="edge1" class="edge">
<title>Node1&#45;&gt;Node2</title>
<path fill="none" stroke="midnightblue" d="M1221.34,-80.32C996.89,-76.42 323.68,-62.36 107,-31 97.55,-29.63 87.4,-27.37 78.28,-25.04"/>
<polygon fill="midnightblue" stroke="midnightblue" points="1221.31,-83.82 1231.36,-80.49 1221.43,-76.82 1221.31,-83.82"/>
</g>
<!-- Node3 -->
<g id="node3" class="node">
<title>Node3</title>
<g id="a_node3"><a xlink:href="ea__draw__filled__circle_8c.html" target="_top" xlink:title=" ">
<polygon fill="none" stroke="black" points="116,-6 116,-25 244,-25 244,-6 116,-6"/>
<text text-anchor="middle" x="180" y="-13" font-family="Helvetica,sans-Serif" font-size="10.00">ea_draw_filled_circle.c</text>
</a>
</g>
</g>
<!-- Node1&#45;&gt;Node3 -->
<g id="edge2" class="edge">
<title>Node1&#45;&gt;Node3</title>
<path fill="none" stroke="midnightblue" d="M1221.15,-81.66C1050.17,-81.2 614.14,-75.37 253,-31 241.33,-29.57 228.73,-27.32 217.34,-25.02"/>
<polygon fill="midnightblue" stroke="midnightblue" points="1221.28,-85.16 1231.29,-81.68 1221.3,-78.16 1221.28,-85.16"/>
</g>
<!-- Node4 -->
<g id="node4" class="node">
<title>Node4</title>
<g id="a_node4"><a xlink:href="ea__draw__filled__rectangle_8c.html" target="_top" xlink:title=" ">
<polygon fill="none" stroke="black" points="262.5,-6 262.5,-25 409.5,-25 409.5,-6 262.5,-6"/>
<text text-anchor="middle" x="336" y="-13" font-family="Helvetica,sans-Serif" font-size="10.00">ea_draw_filled_rectangle.c</text>
</a>
</g>
</g>
<!-- Node1&#45;&gt;Node4 -->
<g id="edge3" class="edge">
<title>Node1&#45;&gt;Node4</title>
<path fill="none" stroke="midnightblue" d="M1221.22,-80.12C1070.18,-76.66 715.04,-65.28 419,-31 406.07,-29.5 392.1,-27.29 379.37,-25.05"/>
<polygon fill="midnightblue" stroke="midnightblue" points="1221.23,-83.62 1231.3,-80.34 1221.38,-76.62 1221.23,-83.62"/>
</g>
<!-- Node5 -->
<g id="node5" class="node">
<title>Node5</title>
<g id="a_node5"><a xlink:href="ea__draw__icon_8c.html" target="_top" xlink:title=" ">
<polygon fill="none" stroke="black" points="428,-6 428,-25 520,-25 520,-6 428,-6"/>
<text text-anchor="middle" x="474" y="-13" font-family="Helvetica,sans-Serif" font-size="10.00">ea_draw_icon.c</text>
</a>
</g>
</g>
<!-- Node1&#45;&gt;Node5 -->
<g id="edge4" class="edge">
<title>Node1&#45;&gt;Node5</title>
<path fill="none" stroke="midnightblue" d="M1221.09,-81.32C1083.82,-79.96 780.58,-72.07 529,-31 520.13,-29.55 510.62,-27.3 502.04,-25"/>
<polygon fill="midnightblue" stroke="midnightblue" points="1221.45,-84.83 1231.48,-81.42 1221.51,-77.83 1221.45,-84.83"/>
</g>
<!-- Node6 -->
<g id="node6" class="node">
<title>Node6</title>
<g id="a_node6"><a xlink:href="ea__draw__line_8c.html" target="_top" xlink:title=" ">
<polygon fill="none" stroke="black" points="538.5,-6 538.5,-25 627.5,-25 627.5,-6 538.5,-6"/>
<text text-anchor="middle" x="583" y="-13" font-family="Helvetica,sans-Serif" font-size="10.00">ea_draw_line.c</text>
</a>
</g>
</g>
<!-- Node1&#45;&gt;Node6 -->
<g id="edge5" class="edge">
<title>Node1&#45;&gt;Node6</title>
<path fill="none" stroke="midnightblue" d="M1221.1,-80.29C1098.77,-77.3 846.86,-66.91 637,-31 628.39,-29.53 619.16,-27.3 610.81,-25.03"/>
<polygon fill="midnightblue" stroke="midnightblue" points="1221.38,-83.8 1231.46,-80.53 1221.55,-76.8 1221.38,-83.8"/>
</g>
<!-- Node7 -->
<g id="node7" class="node">
<title>Node7</title>
<g id="a_node7"><a xlink:href="ea__draw__point_8c.html" target="_top" xlink:title=" ">
<polygon fill="none" stroke="black" points="646,-6 646,-25 742,-25 742,-6 646,-6"/>
<text text-anchor="middle" x="694" y="-13" font-family="Helvetica,sans-Serif" font-size="10.00">ea_draw_point.c</text>
</a>
</g>
</g>
<!-- Node1&#45;&gt;Node7 -->
<g id="edge6" class="edge">
<title>Node1&#45;&gt;Node7</title>
<path fill="none" stroke="midnightblue" d="M1221.16,-78.31C1116.08,-72.95 917.67,-59.75 751,-31 742.15,-29.47 732.64,-27.28 723.98,-25.06"/>
<polygon fill="midnightblue" stroke="midnightblue" points="1221.18,-81.82 1231.34,-78.82 1221.53,-74.83 1221.18,-81.82"/>
</g>
<!-- Node8 -->
<g id="node8" class="node">
<title>Node8</title>
<g id="a_node8"><a xlink:href="ea__draw__quick__line__h_8c.html" target="_top" xlink:title=" ">
<polygon fill="none" stroke="black" points="760,-6 760,-25 892,-25 892,-6 760,-6"/>
<text text-anchor="middle" x="826" y="-13" font-family="Helvetica,sans-Serif" font-size="10.00">ea_draw_quick_line_h.c</text>
</a>
</g>
</g>
<!-- Node1&#45;&gt;Node8 -->
<g id="edge7" class="edge">
<title>Node1&#45;&gt;Node8</title>
<path fill="none" stroke="midnightblue" d="M1220.98,-73.43C1141.65,-64.46 1012.11,-48.84 901,-31 890.13,-29.25 878.43,-27.12 867.57,-25.02"/>
<polygon fill="midnightblue" stroke="midnightblue" points="1221.03,-76.96 1231.36,-74.6 1221.81,-70 1221.03,-76.96"/>
</g>
<!-- Node9 -->
<g id="node9" class="node">
<title>Node9</title>
<g id="a_node9"><a xlink:href="ea__draw__quick__line__v_8c.html" target="_top" xlink:title=" ">
<polygon fill="none" stroke="black" points="910.5,-6 910.5,-25 1041.5,-25 1041.5,-6 910.5,-6"/>
<text text-anchor="middle" x="976" y="-13" font-family="Helvetica,sans-Serif" font-size="10.00">ea_draw_quick_line_v.c</text>
</a>
</g>
</g>
<!-- Node1&#45;&gt;Node9 -->
<g id="edge8" class="edge">
<title>Node1&#45;&gt;Node9</title>
<path fill="none" stroke="midnightblue" d="M1221.31,-66.48C1158.16,-53.62 1069.47,-35.54 1017.84,-25.02"/>
<polygon fill="midnightblue" stroke="midnightblue" points="1220.71,-69.94 1231.21,-68.5 1222.11,-63.08 1220.71,-69.94"/>
</g>
<!-- Node10 -->
<g id="node10" class="node">
<title>Node10</title>
<g id="a_node10"><a xlink:href="ea__draw__rectangle_8c.html" target="_top" xlink:title=" ">
<polygon fill="none" stroke="black" points="1059.5,-6 1059.5,-25 1176.5,-25 1176.5,-6 1059.5,-6"/>
<text text-anchor="middle" x="1118" y="-13" font-family="Helvetica,sans-Serif" font-size="10.00">ea_draw_rectangle.c</text>
</a>
</g>
</g>
<!-- Node1&#45;&gt;Node10 -->
<g id="edge9" class="edge">
<title>Node1&#45;&gt;Node10</title>
<path fill="none" stroke="midnightblue" d="M1247.2,-63.95C1212.82,-51.32 1167.97,-34.85 1141.17,-25.01"/>
<polygon fill="midnightblue" stroke="midnightblue" points="1246,-67.23 1256.59,-67.4 1248.41,-60.66 1246,-67.23"/>
</g>
<!-- Node11 -->
<g id="node11" class="node">
<title>Node11</title>
<g id="a_node11"><a xlink:href="ea__draw__string_8c.html" target="_top" xlink:title=" ">
<polygon fill="none" stroke="black" points="1194.5,-6 1194.5,-25 1293.5,-25 1293.5,-6 1194.5,-6"/>
<text text-anchor="middle" x="1244" y="-13" font-family="Helvetica,sans-Serif" font-size="10.00">ea_draw_string.c</text>
</a>
</g>
</g>
<!-- Node1&#45;&gt;Node11 -->
<g id="edge10" class="edge">
<title>Node1&#45;&gt;Node11</title>
<path fill="none" stroke="midnightblue" d="M1277.59,-59.32C1268.4,-47.6 1257.64,-33.88 1250.82,-25.19"/>
<polygon fill="midnightblue" stroke="midnightblue" points="1275.01,-61.69 1283.93,-67.4 1280.51,-57.37 1275.01,-61.69"/>
</g>
<!-- Node12 -->
<g id="node12" class="node">
<title>Node12</title>
<g id="a_node12"><a xlink:href="ea__erase_8c.html" target="_top" xlink:title=" ">
<polygon fill="none" stroke="black" points="1311.5,-6 1311.5,-25 1380.5,-25 1380.5,-6 1311.5,-6"/>
<text text-anchor="middle" x="1346" y="-13" font-family="Helvetica,sans-Serif" font-size="10.00">ea_erase.c</text>
</a>
</g>
</g>
<!-- Node1&#45;&gt;Node12 -->
<g id="edge11" class="edge">
<title>Node1&#45;&gt;Node12</title>
<path fill="none" stroke="midnightblue" d="M1312.41,-59.32C1321.6,-47.6 1332.36,-33.88 1339.18,-25.19"/>
<polygon fill="midnightblue" stroke="midnightblue" points="1309.49,-57.37 1306.07,-67.4 1314.99,-61.69 1309.49,-57.37"/>
</g>
<!-- Node13 -->
<g id="node13" class="node">
<title>Node13</title>
<g id="a_node13"><a xlink:href="ea__get__overlay__hardware__address_8c.html" target="_top" xlink:title=" ">
<polygon fill="none" stroke="black" points="1398.5,-0.5 1398.5,-30.5 1541.5,-30.5 1541.5,-0.5 1398.5,-0.5"/>
<text text-anchor="start" x="1406.5" y="-18.5" font-family="Helvetica,sans-Serif" font-size="10.00">ea_get_overlay_hardware</text>
<text text-anchor="middle" x="1470" y="-7.5" font-family="Helvetica,sans-Serif" font-size="10.00">_address.c</text>
</a>
</g>
</g>
<!-- Node1&#45;&gt;Node13 -->
<g id="edge12" class="edge">
<title>Node1&#45;&gt;Node13</title>
<path fill="none" stroke="midnightblue" d="M1342.6,-63.82C1370.73,-53.37 1405.86,-40.32 1432.1,-30.58"/>
<polygon fill="midnightblue" stroke="midnightblue" points="1341.13,-60.63 1332.97,-67.4 1343.57,-67.2 1341.13,-60.63"/>
</g>
<!-- Node14 -->
<g id="node14" class="node">
<title>Node14</title>
<g id="a_node14"><a xlink:href="ea__get__overlay__software__address_8c.html" target="_top" xlink:title=" ">
<polygon fill="none" stroke="black" points="1560,-0.5 1560,-30.5 1700,-30.5 1700,-0.5 1560,-0.5"/>
<text text-anchor="start" x="1568" y="-18.5" font-family="Helvetica,sans-Serif" font-size="10.00">ea_get_overlay_software</text>
<text text-anchor="middle" x="1630" y="-7.5" font-family="Helvetica,sans-Serif" font-size="10.00">_address.c</text>
</a>
</g>
</g>
<!-- Node1&#45;&gt;Node14 -->
<g id="edge13" class="edge">
<title>Node1&#45;&gt;Node14</title>
<path fill="none" stroke="midnightblue" d="M1368.81,-67.18C1425.69,-56.14 1503.82,-40.98 1559.78,-30.12"/>
<polygon fill="midnightblue" stroke="midnightblue" points="1367.95,-63.78 1358.8,-69.12 1369.28,-70.65 1367.95,-63.78"/>
</g>
<!-- Node15 -->
<g id="node15" class="node">
<title>Node15</title>
<g id="a_node15"><a xlink:href="ea__init_8c.html" target="_top" xlink:title=" ">
<polygon fill="none" stroke="black" points="1718,-6 1718,-25 1776,-25 1776,-6 1718,-6"/>
<text text-anchor="middle" x="1747" y="-13" font-family="Helvetica,sans-Serif" font-size="10.00">ea_init.c</text>
</a>
</g>
</g>
<!-- Node1&#45;&gt;Node15 -->
<g id="edge14" class="edge">
<title>Node1&#45;&gt;Node15</title>
<path fill="none" stroke="midnightblue" d="M1368.8,-77.92C1452.37,-72.61 1592.11,-59.97 1709,-31 1715.03,-29.51 1721.41,-27.32 1727.18,-25.11"/>
<polygon fill="midnightblue" stroke="midnightblue" points="1368.4,-74.43 1358.64,-78.54 1368.84,-81.42 1368.4,-74.43"/>
</g>
<!-- Node16 -->
<g id="node16" class="node">
<title>Node16</title>
<g id="a_node16"><a xlink:href="ea__present_8c.html" target="_top" xlink:title=" ">
<polygon fill="none" stroke="black" points="1794.5,-6 1794.5,-25 1873.5,-25 1873.5,-6 1794.5,-6"/>
<text text-anchor="middle" x="1834" y="-13" font-family="Helvetica,sans-Serif" font-size="10.00">ea_present.c</text>
</a>
</g>
</g>
<!-- Node1&#45;&gt;Node16 -->
<g id="edge15" class="edge">
<title>Node1&#45;&gt;Node16</title>
<path fill="none" stroke="midnightblue" d="M1368.83,-78.15C1465.29,-72.81 1639.09,-59.85 1785,-31 1792.75,-29.47 1801.03,-27.25 1808.54,-25.01"/>
<polygon fill="midnightblue" stroke="midnightblue" points="1368.39,-74.67 1358.6,-78.71 1368.77,-81.66 1368.39,-74.67"/>
</g>
<!-- Node17 -->
<g id="node17" class="node">
<title>Node17</title>
<g id="a_node17"><a xlink:href="ea__set__clipped__area_8c.html" target="_top" xlink:title=" ">
<polygon fill="none" stroke="black" points="1891.5,-6 1891.5,-25 2016.5,-25 2016.5,-6 1891.5,-6"/>
<text text-anchor="middle" x="1954" y="-13" font-family="Helvetica,sans-Serif" font-size="10.00">ea_set_clipped_area.c</text>
</a>
</g>
</g>
<!-- Node1&#45;&gt;Node17 -->
<g id="edge16" class="edge">
<title>Node1&#45;&gt;Node17</title>
<path fill="none" stroke="midnightblue" d="M1368.95,-77.9C1480.7,-71.84 1699.11,-57.58 1883,-31 1893.83,-29.43 1905.5,-27.26 1916.19,-25.07"/>
<polygon fill="midnightblue" stroke="midnightblue" points="1368.59,-74.42 1358.79,-78.45 1368.97,-81.41 1368.59,-74.42"/>
</g>
<!-- Node18 -->
<g id="node18" class="node">
<title>Node18</title>
<g id="a_node18"><a xlink:href="ea__set__color_8c.html" target="_top" xlink:title=" ">
<polygon fill="none" stroke="black" points="2035,-6 2035,-25 2121,-25 2121,-6 2035,-6"/>
<text text-anchor="middle" x="2078" y="-13" font-family="Helvetica,sans-Serif" font-size="10.00">ea_set_color.c</text>
</a>
</g>
</g>
<!-- Node1&#45;&gt;Node18 -->
<g id="edge17" class="edge">
<title>Node1&#45;&gt;Node18</title>
<path fill="none" stroke="midnightblue" d="M1368.62,-81.33C1501.1,-79.94 1788.04,-71.96 2026,-31 2034.41,-29.55 2043.41,-27.3 2051.52,-25"/>
<polygon fill="midnightblue" stroke="midnightblue" points="1368.55,-77.83 1358.58,-81.43 1368.62,-84.83 1368.55,-77.83"/>
</g>
<!-- Node19 -->
<g id="node19" class="node">
<title>Node19</title>
<g id="a_node19"><a xlink:href="ea__set__overlay__hardware__address_8c.html" target="_top" xlink:title=" ">
<polygon fill="none" stroke="black" points="2139,-0.5 2139,-30.5 2281,-30.5 2281,-0.5 2139,-0.5"/>
<text text-anchor="start" x="2147" y="-18.5" font-family="Helvetica,sans-Serif" font-size="10.00">ea_set_overlay_hardware</text>
<text text-anchor="middle" x="2210" y="-7.5" font-family="Helvetica,sans-Serif" font-size="10.00">_address.c</text>
</a>
</g>
</g>
<!-- Node1&#45;&gt;Node19 -->
<g id="edge18" class="edge">
<title>Node1&#45;&gt;Node19</title>
<path fill="none" stroke="midnightblue" d="M1368.78,-79.98C1514.67,-76.33 1850.14,-64.7 2130,-31 2132.94,-30.65 2135.94,-30.25 2138.97,-29.83"/>
<polygon fill="midnightblue" stroke="midnightblue" points="1368.52,-76.49 1358.61,-80.23 1368.69,-83.48 1368.52,-76.49"/>
</g>
<!-- Node20 -->
<g id="node20" class="node">
<title>Node20</title>
<g id="a_node20"><a xlink:href="ea__set__overlay__software__address_8c.html" target="_top" xlink:title=" ">
<polygon fill="none" stroke="black" points="2299.5,-0.5 2299.5,-30.5 2438.5,-30.5 2438.5,-0.5 2299.5,-0.5"/>
<text text-anchor="start" x="2307.5" y="-18.5" font-family="Helvetica,sans-Serif" font-size="10.00">ea_set_overlay_software</text>
<text text-anchor="middle" x="2369" y="-7.5" font-family="Helvetica,sans-Serif" font-size="10.00">_address.c</text>
</a>
</g>
</g>
<!-- Node1&#45;&gt;Node20 -->
<g id="edge19" class="edge">
<title>Node1&#45;&gt;Node20</title>
<path fill="none" stroke="midnightblue" d="M1368.74,-81.05C1534.15,-79.32 1947.13,-70.99 2290,-31 2293.05,-30.64 2296.15,-30.24 2299.29,-29.81"/>
<polygon fill="midnightblue" stroke="midnightblue" points="1368.65,-77.55 1358.68,-81.15 1368.72,-84.55 1368.65,-77.55"/>
</g>
<!-- Node21 -->
<g id="node21" class="node">
<title>Node21</title>
<g id="a_node21"><a xlink:href="vears_8c.html" target="_top" xlink:title=" ">
<polygon fill="none" stroke="black" points="2457,-6 2457,-25 2509,-25 2509,-6 2457,-6"/>
<text text-anchor="middle" x="2483" y="-13" font-family="Helvetica,sans-Serif" font-size="10.00">vears.c</text>
</a>
</g>
</g>
<!-- Node1&#45;&gt;Node21 -->
<g id="edge20" class="edge">
<title>Node1&#45;&gt;Node21</title>
<path fill="none" stroke="midnightblue" d="M1368.98,-81.61C1589.74,-81.42 2241.24,-76.86 2448,-31 2453.91,-29.69 2460.09,-27.45 2465.59,-25.11"/>
<polygon fill="midnightblue" stroke="midnightblue" points="1368.8,-78.11 1358.8,-81.62 1368.8,-85.11 1368.8,-78.11"/>
</g>
</g>
</svg>
