<?xml version="1.0" encoding="UTF-8" standalone="no"?>
<!DOCTYPE svg PUBLIC "-//W3C//DTD SVG 1.1//EN"
 "http://www.w3.org/Graphics/SVG/1.1/DTD/svg11.dtd">
<!-- Generated by graphviz version 2.43.0 (0)
 -->
<!-- Title: ea_init Pages: 1 -->
<svg width="381pt" height="66pt"
 viewBox="0.00 0.00 381.00 66.00" xmlns="http://www.w3.org/2000/svg" xmlns:xlink="http://www.w3.org/1999/xlink">
<g id="graph0" class="graph" transform="scale(1 1) rotate(0) translate(4 62)">
<title>ea_init</title>
<!-- Node1 -->
<g id="node1" class="node">
<title>Node1</title>
<g id="a_node1"><a xlink:title=" ">
<polygon fill="#bfbfbf" stroke="black" points="0,-19.5 0,-38.5 50,-38.5 50,-19.5 0,-19.5"/>
<text text-anchor="middle" x="25" y="-26.5" font-family="Helvetica,sans-Serif" font-size="10.00">ea_init</text>
</a>
</g>
</g>
<!-- Node2 -->
<g id="node2" class="node">
<title>Node2</title>
<g id="a_node2"><a xlink:href="ea__set__clipped__area_8c.html#ac3e09747f980f8bea054fc16753fa914" target="_top" xlink:title=" ">
<polygon fill="none" stroke="black" points="86,-38.5 86,-57.5 202,-57.5 202,-38.5 86,-38.5"/>
<text text-anchor="middle" x="144" y="-45.5" font-family="Helvetica,sans-Serif" font-size="10.00">ea_set_clipped_area</text>
</a>
</g>
</g>
<!-- Node1&#45;&gt;Node2 -->
<g id="edge1" class="edge">
<title>Node1&#45;&gt;Node2</title>
<path fill="none" stroke="midnightblue" d="M50.24,-32.94C57.91,-34.18 66.79,-35.62 75.96,-37.11"/>
<polygon fill="midnightblue" stroke="midnightblue" points="75.54,-40.59 85.97,-38.74 76.66,-33.68 75.54,-40.59"/>
</g>
<!-- Node3 -->
<g id="node3" class="node">
<title>Node3</title>
<g id="a_node3"><a xlink:href="ea__set__color_8c.html#a1fa21c96fad23ab0fe0544c383441edc" target="_top" xlink:title=" ">
<polygon fill="none" stroke="black" points="105,-0.5 105,-19.5 183,-19.5 183,-0.5 105,-0.5"/>
<text text-anchor="middle" x="144" y="-7.5" font-family="Helvetica,sans-Serif" font-size="10.00">ea_set_color</text>
</a>
</g>
</g>
<!-- Node1&#45;&gt;Node3 -->
<g id="edge2" class="edge">
<title>Node1&#45;&gt;Node3</title>
<path fill="none" stroke="midnightblue" d="M50.24,-25.06C63.2,-22.96 79.62,-20.29 95.03,-17.79"/>
<polygon fill="midnightblue" stroke="midnightblue" points="95.66,-21.23 104.97,-16.18 94.54,-14.32 95.66,-21.23"/>
</g>
<!-- Node4 -->
<g id="node4" class="node">
<title>Node4</title>
<g id="a_node4"><a xlink:href="group__vears__driver.html#ga131ffd2ca121aea36286568e3c8a57c7" target="_top" xlink:title="Set entry of the overlay color map.">
<polygon fill="none" stroke="black" points="238,-0.5 238,-19.5 373,-19.5 373,-0.5 238,-0.5"/>
<text text-anchor="middle" x="305.5" y="-7.5" font-family="Helvetica,sans-Serif" font-size="10.00">vears_overlay_set_color</text>
</a>
</g>
</g>
<!-- Node3&#45;&gt;Node4 -->
<g id="edge3" class="edge">
<title>Node3&#45;&gt;Node4</title>
<path fill="none" stroke="midnightblue" d="M183.2,-10C196.66,-10 212.31,-10 227.8,-10"/>
<polygon fill="midnightblue" stroke="midnightblue" points="227.94,-13.5 237.94,-10 227.94,-6.5 227.94,-13.5"/>
</g>
</g>
</svg>
