<?xml version="1.0" encoding="UTF-8" standalone="no"?>
<!DOCTYPE svg PUBLIC "-//W3C//DTD SVG 1.1//EN"
 "http://www.w3.org/Graphics/SVG/1.1/DTD/svg11.dtd">
<!-- Generated by graphviz version 2.43.0 (0)
 -->
<!-- Title: as_sensor_ov7670_reset Pages: 1 -->
<svg width="567pt" height="85pt"
 viewBox="0.00 0.00 567.00 85.00" xmlns="http://www.w3.org/2000/svg" xmlns:xlink="http://www.w3.org/1999/xlink">
<g id="graph0" class="graph" transform="scale(1 1) rotate(0) translate(4 81)">
<title>as_sensor_ov7670_reset</title>
<!-- Node1 -->
<g id="node1" class="node">
<title>Node1</title>
<g id="a_node1"><a xlink:title=" ">
<polygon fill="#bfbfbf" stroke="black" points="0,-38.5 0,-57.5 137,-57.5 137,-38.5 0,-38.5"/>
<text text-anchor="middle" x="68.5" y="-45.5" font-family="Helvetica,sans-Serif" font-size="10.00">as_sensor_ov7670_reset</text>
</a>
</g>
</g>
<!-- Node2 -->
<g id="node2" class="node">
<title>Node2</title>
<g id="a_node2"><a xlink:href="group__asterics__support.html#gaa7520f5b717e163da743500adb2eb0b9" target="_top" xlink:title=" ">
<polygon fill="none" stroke="black" points="188.5,-57.5 188.5,-76.5 279.5,-76.5 279.5,-57.5 188.5,-57.5"/>
<text text-anchor="middle" x="234" y="-64.5" font-family="Helvetica,sans-Serif" font-size="10.00">as_module_reg</text>
</a>
</g>
</g>
<!-- Node1&#45;&gt;Node2 -->
<g id="edge1" class="edge">
<title>Node1&#45;&gt;Node2</title>
<path fill="none" stroke="midnightblue" d="M137.42,-55.89C150.99,-57.47 165.08,-59.11 178.14,-60.63"/>
<polygon fill="midnightblue" stroke="midnightblue" points="178.03,-64.14 188.37,-61.81 178.84,-57.18 178.03,-64.14"/>
</g>
<!-- Node3 -->
<g id="node3" class="node">
<title>Node3</title>
<g id="a_node3"><a xlink:href="group__asterics__support.html#ga0ccb0610d764a95bda989e35fba59490" target="_top" xlink:title=" ">
<polygon fill="none" stroke="black" points="173,-19.5 173,-38.5 295,-38.5 295,-19.5 173,-19.5"/>
<text text-anchor="middle" x="234" y="-26.5" font-family="Helvetica,sans-Serif" font-size="10.00">as_reg_write_masked</text>
</a>
</g>
</g>
<!-- Node1&#45;&gt;Node3 -->
<g id="edge2" class="edge">
<title>Node1&#45;&gt;Node3</title>
<path fill="none" stroke="midnightblue" d="M137.42,-40.11C145.78,-39.14 154.33,-38.14 162.73,-37.17"/>
<polygon fill="midnightblue" stroke="midnightblue" points="163.33,-40.62 172.86,-35.99 162.52,-33.67 163.33,-40.62"/>
</g>
<!-- Node4 -->
<g id="node4" class="node">
<title>Node4</title>
<g id="a_node4"><a xlink:href="group__asterics__support.html#ga8e5c2bfd2e4498d10289377bd94cef07" target="_top" xlink:title=" ">
<polygon fill="none" stroke="black" points="332.5,-38.5 332.5,-57.5 408.5,-57.5 408.5,-38.5 332.5,-38.5"/>
<text text-anchor="middle" x="370.5" y="-45.5" font-family="Helvetica,sans-Serif" font-size="10.00">as_reg_read</text>
</a>
</g>
</g>
<!-- Node3&#45;&gt;Node4 -->
<g id="edge3" class="edge">
<title>Node3&#45;&gt;Node4</title>
<path fill="none" stroke="midnightblue" d="M295.17,-37.5C304.22,-38.78 313.44,-40.08 322.17,-41.31"/>
<polygon fill="midnightblue" stroke="midnightblue" points="321.76,-44.79 332.15,-42.72 322.74,-37.86 321.76,-44.79"/>
</g>
<!-- Node6 -->
<g id="node6" class="node">
<title>Node6</title>
<g id="a_node6"><a xlink:href="group__asterics__support.html#ga6345b997e24a6cd5f9143cef27629d49" target="_top" xlink:title=" ">
<polygon fill="none" stroke="black" points="331,-0.5 331,-19.5 410,-19.5 410,-0.5 331,-0.5"/>
<text text-anchor="middle" x="370.5" y="-7.5" font-family="Helvetica,sans-Serif" font-size="10.00">as_reg_write</text>
</a>
</g>
</g>
<!-- Node3&#45;&gt;Node6 -->
<g id="edge5" class="edge">
<title>Node3&#45;&gt;Node6</title>
<path fill="none" stroke="midnightblue" d="M295.17,-20.5C303.82,-19.28 312.63,-18.03 321.02,-16.85"/>
<polygon fill="midnightblue" stroke="midnightblue" points="321.59,-20.3 331,-15.44 320.61,-13.37 321.59,-20.3"/>
</g>
<!-- Node5 -->
<g id="node5" class="node">
<title>Node5</title>
<g id="a_node5"><a xlink:href="group__asterics__support.html#ga4c6d688b840a6e2edc9bc0b8ed961677" target="_top" xlink:title=" ">
<polygon fill="none" stroke="black" points="452.5,-38.5 452.5,-57.5 552.5,-57.5 552.5,-38.5 452.5,-38.5"/>
<text text-anchor="middle" x="502.5" y="-45.5" font-family="Helvetica,sans-Serif" font-size="10.00">as_reg_to_uint32</text>
</a>
</g>
</g>
<!-- Node4&#45;&gt;Node5 -->
<g id="edge4" class="edge">
<title>Node4&#45;&gt;Node5</title>
<path fill="none" stroke="midnightblue" d="M408.75,-48C419.09,-48 430.59,-48 441.86,-48"/>
<polygon fill="midnightblue" stroke="midnightblue" points="442.12,-51.5 452.12,-48 442.12,-44.5 442.12,-51.5"/>
</g>
<!-- Node7 -->
<g id="node7" class="node">
<title>Node7</title>
<g id="a_node7"><a xlink:href="group__asterics__support.html#gab651cc2c035ce61b354578434e59f822" target="_top" xlink:title=" ">
<polygon fill="none" stroke="black" points="446,-0.5 446,-19.5 559,-19.5 559,-0.5 446,-0.5"/>
<text text-anchor="middle" x="502.5" y="-7.5" font-family="Helvetica,sans-Serif" font-size="10.00">as_reg_from_uint32</text>
</a>
</g>
</g>
<!-- Node6&#45;&gt;Node7 -->
<g id="edge6" class="edge">
<title>Node6&#45;&gt;Node7</title>
<path fill="none" stroke="midnightblue" d="M410.15,-10C418.22,-10 426.94,-10 435.68,-10"/>
<polygon fill="midnightblue" stroke="midnightblue" points="435.92,-13.5 445.92,-10 435.92,-6.5 435.92,-13.5"/>
</g>
</g>
</svg>
