<?xml version="1.0" encoding="UTF-8" standalone="no"?>
<!DOCTYPE svg PUBLIC "-//W3C//DTD SVG 1.1//EN"
 "http://www.w3.org/Graphics/SVG/1.1/DTD/svg11.dtd">
<!-- Generated by graphviz version 2.43.0 (0)
 -->
<!-- Title: as_buffer_find_inactive_buffer Pages: 1 -->
<svg width="440pt" height="66pt"
 viewBox="0.00 0.00 440.00 66.00" xmlns="http://www.w3.org/2000/svg" xmlns:xlink="http://www.w3.org/1999/xlink">
<g id="graph0" class="graph" transform="scale(1 1) rotate(0) translate(4 62)">
<title>as_buffer_find_inactive_buffer</title>
<!-- Node1 -->
<g id="node1" class="node">
<title>Node1</title>
<g id="a_node1"><a xlink:title=" ">
<polygon fill="#bfbfbf" stroke="black" points="301,-14 301,-44 432,-44 432,-14 301,-14"/>
<text text-anchor="start" x="309" y="-32" font-family="Helvetica,sans-Serif" font-size="10.00">as_buffer_find_inactive</text>
<text text-anchor="middle" x="366.5" y="-21" font-family="Helvetica,sans-Serif" font-size="10.00">_buffer</text>
</a>
</g>
</g>
<!-- Node2 -->
<g id="node2" class="node">
<title>Node2</title>
<g id="a_node2"><a xlink:href="as__memio_8h.html#affb75145f7c6b1a8baea620d47f62a99" target="_top" xlink:title=" ">
<polygon fill="none" stroke="black" points="168.5,-38.5 168.5,-57.5 263.5,-57.5 263.5,-38.5 168.5,-38.5"/>
<text text-anchor="middle" x="216" y="-45.5" font-family="Helvetica,sans-Serif" font-size="10.00">as_memio_read</text>
</a>
</g>
</g>
<!-- Node1&#45;&gt;Node2 -->
<g id="edge1" class="edge">
<title>Node1&#45;&gt;Node2</title>
<path fill="none" stroke="midnightblue" d="M290.78,-38.56C281.53,-39.74 272.29,-40.93 263.63,-42.03"/>
<polygon fill="midnightblue" stroke="midnightblue" points="291.32,-42.02 300.8,-37.28 290.43,-35.08 291.32,-42.02"/>
</g>
<!-- Node4 -->
<g id="node4" class="node">
<title>Node4</title>
<g id="a_node4"><a xlink:href="as__memio_8h.html#ad5dd4d8bd2c20ea07188bcbb36dd0f87" target="_top" xlink:title=" ">
<polygon fill="none" stroke="black" points="167,-0.5 167,-19.5 265,-19.5 265,-0.5 167,-0.5"/>
<text text-anchor="middle" x="216" y="-7.5" font-family="Helvetica,sans-Serif" font-size="10.00">as_memio_write</text>
</a>
</g>
</g>
<!-- Node1&#45;&gt;Node4 -->
<g id="edge3" class="edge">
<title>Node1&#45;&gt;Node4</title>
<path fill="none" stroke="midnightblue" d="M290.72,-19.43C282.12,-18.33 273.53,-17.23 265.41,-16.19"/>
<polygon fill="midnightblue" stroke="midnightblue" points="290.43,-22.92 300.8,-20.72 291.32,-15.98 290.43,-22.92"/>
</g>
<!-- Node3 -->
<g id="node3" class="node">
<title>Node3</title>
<g id="a_node3"><a xlink:href="group__memio__file__ops.html#gabc26947002eedee4c4557faff325074e" target="_top" xlink:title=" ">
<polygon fill="none" stroke="black" points="1.5,-38.5 1.5,-57.5 129.5,-57.5 129.5,-38.5 1.5,-38.5"/>
<text text-anchor="middle" x="65.5" y="-45.5" font-family="Helvetica,sans-Serif" font-size="10.00">driver_as_memio_read</text>
</a>
</g>
</g>
<!-- Node2&#45;&gt;Node3 -->
<g id="edge2" class="edge">
<title>Node2&#45;&gt;Node3</title>
<path fill="none" stroke="midnightblue" d="M158.37,-48C148.94,-48 139.1,-48 129.52,-48"/>
<polygon fill="midnightblue" stroke="midnightblue" points="158.42,-51.5 168.42,-48 158.42,-44.5 158.42,-51.5"/>
</g>
<!-- Node5 -->
<g id="node5" class="node">
<title>Node5</title>
<g id="a_node5"><a xlink:href="group__memio__file__ops.html#gafff67fc067850f545e90c7e487f4fbce" target="_top" xlink:title=" ">
<polygon fill="none" stroke="black" points="0,-0.5 0,-19.5 131,-19.5 131,-0.5 0,-0.5"/>
<text text-anchor="middle" x="65.5" y="-7.5" font-family="Helvetica,sans-Serif" font-size="10.00">driver_as_memio_write</text>
</a>
</g>
</g>
<!-- Node4&#45;&gt;Node5 -->
<g id="edge4" class="edge">
<title>Node4&#45;&gt;Node5</title>
<path fill="none" stroke="midnightblue" d="M156.74,-10C148.37,-10 139.71,-10 131.22,-10"/>
<polygon fill="midnightblue" stroke="midnightblue" points="156.79,-13.5 166.79,-10 156.79,-6.5 156.79,-13.5"/>
</g>
</g>
</svg>
