<?xml version="1.0" encoding="UTF-8" standalone="no"?>
<!DOCTYPE svg PUBLIC "-//W3C//DTD SVG 1.1//EN"
 "http://www.w3.org/Graphics/SVG/1.1/DTD/svg11.dtd">
<!-- Generated by graphviz version 2.43.0 (0)
 -->
<!-- Title: vears_draw_pixel Pages: 1 -->
<svg width="281pt" height="66pt"
 viewBox="0.00 0.00 281.00 66.00" xmlns="http://www.w3.org/2000/svg" xmlns:xlink="http://www.w3.org/1999/xlink">
<g id="graph0" class="graph" transform="scale(1 1) rotate(0) translate(4 62)">
<title>vears_draw_pixel</title>
<!-- Node1 -->
<g id="node1" class="node">
<title>Node1</title>
<g id="a_node1"><a xlink:title="Draw a single pixel. &#39;color&#39; is an index to the color table (0, 1, 2). A value of 3 means &quot;transparen...">
<polygon fill="#bfbfbf" stroke="black" points="0,-19.5 0,-38.5 102,-38.5 102,-19.5 0,-19.5"/>
<text text-anchor="middle" x="51" y="-26.5" font-family="Helvetica,sans-Serif" font-size="10.00">vears_draw_pixel</text>
</a>
</g>
</g>
<!-- Node2 -->
<g id="node2" class="node">
<title>Node2</title>
<g id="a_node2"><a xlink:href="ea__draw__point_8c.html#a061e9dc2b155528bc460f9c692659ed2" target="_top" xlink:title=" ">
<polygon fill="none" stroke="black" points="161.5,-38.5 161.5,-57.5 249.5,-57.5 249.5,-38.5 161.5,-38.5"/>
<text text-anchor="middle" x="205.5" y="-45.5" font-family="Helvetica,sans-Serif" font-size="10.00">ea_draw_point</text>
</a>
</g>
</g>
<!-- Node1&#45;&gt;Node2 -->
<g id="edge1" class="edge">
<title>Node1&#45;&gt;Node2</title>
<path fill="none" stroke="midnightblue" d="M102.36,-35.27C118.01,-37.22 135.32,-39.38 151.18,-41.36"/>
<polygon fill="midnightblue" stroke="midnightblue" points="150.99,-44.86 161.35,-42.62 151.86,-37.91 150.99,-44.86"/>
</g>
<!-- Node3 -->
<g id="node3" class="node">
<title>Node3</title>
<g id="a_node3"><a xlink:href="vears_8c.html#a5c9f2a05f3fe62106f55e90dbcc9cf53" target="_top" xlink:title=" ">
<polygon fill="none" stroke="black" points="138,-0.5 138,-19.5 273,-19.5 273,-0.5 138,-0.5"/>
<text text-anchor="middle" x="205.5" y="-7.5" font-family="Helvetica,sans-Serif" font-size="10.00">flush_cache_for_overlay</text>
</a>
</g>
</g>
<!-- Node1&#45;&gt;Node3 -->
<g id="edge2" class="edge">
<title>Node1&#45;&gt;Node3</title>
<path fill="none" stroke="midnightblue" d="M102.36,-22.73C110.53,-21.71 119.14,-20.63 127.77,-19.56"/>
<polygon fill="midnightblue" stroke="midnightblue" points="128.39,-23.01 137.88,-18.3 127.52,-16.06 128.39,-23.01"/>
</g>
</g>
</svg>
