<?xml version="1.0" encoding="UTF-8" standalone="no"?>
<!DOCTYPE svg PUBLIC "-//W3C//DTD SVG 1.1//EN"
 "http://www.w3.org/Graphics/SVG/1.1/DTD/svg11.dtd">
<!-- Generated by graphviz version 2.43.0 (0)
 -->
<!-- Title: as_reg_from_uint32 Pages: 1 -->
<svg width="1010pt" height="1514pt"
 viewBox="0.00 0.00 1010.00 1514.00" xmlns="http://www.w3.org/2000/svg" xmlns:xlink="http://www.w3.org/1999/xlink">
<g id="graph0" class="graph" transform="scale(1 1) rotate(0) translate(4 1510)">
<title>as_reg_from_uint32</title>
<!-- Node1 -->
<g id="node1" class="node">
<title>Node1</title>
<g id="a_node1"><a xlink:title=" ">
<polygon fill="#bfbfbf" stroke="black" points="889,-662.5 889,-681.5 1002,-681.5 1002,-662.5 889,-662.5"/>
<text text-anchor="middle" x="945.5" y="-669.5" font-family="Helvetica,sans-Serif" font-size="10.00">as_reg_from_uint32</text>
</a>
</g>
</g>
<!-- Node2 -->
<g id="node2" class="node">
<title>Node2</title>
<g id="a_node2"><a xlink:href="group__asterics__support.html#ga6345b997e24a6cd5f9143cef27629d49" target="_top" xlink:title=" ">
<polygon fill="none" stroke="black" points="774,-662.5 774,-681.5 853,-681.5 853,-662.5 774,-662.5"/>
<text text-anchor="middle" x="813.5" y="-669.5" font-family="Helvetica,sans-Serif" font-size="10.00">as_reg_write</text>
</a>
</g>
</g>
<!-- Node1&#45;&gt;Node2 -->
<g id="edge1" class="edge">
<title>Node1&#45;&gt;Node2</title>
<path fill="none" stroke="midnightblue" d="M878.79,-672C870.08,-672 861.38,-672 853.33,-672"/>
<polygon fill="midnightblue" stroke="midnightblue" points="878.99,-675.5 888.99,-672 878.99,-668.5 878.99,-675.5"/>
</g>
<!-- Node3 -->
<g id="node3" class="node">
<title>Node3</title>
<g id="a_node3"><a xlink:href="group__as__canny.html#ga4d90ccf9bb249d47708602a7bdacd36f" target="_top" xlink:title=" ">
<polygon fill="none" stroke="black" points="565,-1341.5 565,-1360.5 730,-1360.5 730,-1341.5 565,-1341.5"/>
<text text-anchor="middle" x="647.5" y="-1348.5" font-family="Helvetica,sans-Serif" font-size="10.00">as_canny_pipe_set_thresholds</text>
</a>
</g>
</g>
<!-- Node2&#45;&gt;Node3 -->
<g id="edge2" class="edge">
<title>Node2&#45;&gt;Node3</title>
<path fill="none" stroke="midnightblue" d="M811.63,-691.61C806.85,-795.97 782.26,-1283.24 738,-1332 734.58,-1335.76 730.62,-1338.88 726.31,-1341.46"/>
<polygon fill="midnightblue" stroke="midnightblue" points="815.13,-691.68 812.09,-681.53 808.14,-691.36 815.13,-691.68"/>
</g>
<!-- Node4 -->
<g id="node4" class="node">
<title>Node4</title>
<g id="a_node4"><a xlink:href="group__as__crop.html#ga968c01e2f32ccc8d87bd25288ee0bdfd" target="_top" xlink:title=" ">
<polygon fill="none" stroke="black" points="610,-1303.5 610,-1322.5 685,-1322.5 685,-1303.5 610,-1303.5"/>
<text text-anchor="middle" x="647.5" y="-1310.5" font-family="Helvetica,sans-Serif" font-size="10.00">as_crop_init</text>
</a>
</g>
</g>
<!-- Node2&#45;&gt;Node4 -->
<g id="edge3" class="edge">
<title>Node2&#45;&gt;Node4</title>
<path fill="none" stroke="midnightblue" d="M811.47,-692.06C806.07,-793.65 779.68,-1248.39 738,-1294 724.82,-1308.42 703.64,-1313.37 685.2,-1314.62"/>
<polygon fill="midnightblue" stroke="midnightblue" points="814.97,-692.1 812,-681.93 807.98,-691.73 814.97,-692.1"/>
</g>
<!-- Node5 -->
<g id="node5" class="node">
<title>Node5</title>
<g id="a_node5"><a xlink:href="group__as__gensync.html#ga562d2890e05a11b212146addc4dd931d" target="_top" xlink:title=" ">
<polygon fill="none" stroke="black" points="571,-1265.5 571,-1284.5 724,-1284.5 724,-1265.5 571,-1265.5"/>
<text text-anchor="middle" x="647.5" y="-1272.5" font-family="Helvetica,sans-Serif" font-size="10.00">as_gensync_set_frame_size</text>
</a>
</g>
</g>
<!-- Node2&#45;&gt;Node5 -->
<g id="edge4" class="edge">
<title>Node2&#45;&gt;Node5</title>
<path fill="none" stroke="midnightblue" d="M812.92,-692.04C814.42,-784.8 815.85,-1171.46 738,-1256 734.02,-1260.32 729.32,-1263.79 724.19,-1266.57"/>
<polygon fill="midnightblue" stroke="midnightblue" points="816.41,-691.73 812.73,-681.8 809.41,-691.86 816.41,-691.73"/>
</g>
<!-- Node7 -->
<g id="node7" class="node">
<title>Node7</title>
<g id="a_node7"><a xlink:href="group__as__gensync.html#ga8370bdc6799c035ab16c3e79985550be" target="_top" xlink:title=" ">
<polygon fill="none" stroke="black" points="585,-1227.5 585,-1246.5 710,-1246.5 710,-1227.5 585,-1227.5"/>
<text text-anchor="middle" x="647.5" y="-1234.5" font-family="Helvetica,sans-Serif" font-size="10.00">as_gensync_set_x_res</text>
</a>
</g>
</g>
<!-- Node2&#45;&gt;Node7 -->
<g id="edge6" class="edge">
<title>Node2&#45;&gt;Node7</title>
<path fill="none" stroke="midnightblue" d="M812.59,-692.14C812.58,-780.57 808.08,-1133.56 738,-1213 730.66,-1221.32 720.77,-1226.91 710.25,-1230.62"/>
<polygon fill="midnightblue" stroke="midnightblue" points="816.09,-691.87 812.57,-681.88 809.09,-691.89 816.09,-691.87"/>
</g>
<!-- Node8 -->
<g id="node8" class="node">
<title>Node8</title>
<g id="a_node8"><a xlink:href="group__as__iic__reg__funcs.html#gac83a48fc09234a7a99adafb1ce565eb0" target="_top" xlink:title=" ">
<polygon fill="none" stroke="black" points="595.5,-1151.5 595.5,-1170.5 699.5,-1170.5 699.5,-1151.5 595.5,-1151.5"/>
<text text-anchor="middle" x="647.5" y="-1158.5" font-family="Helvetica,sans-Serif" font-size="10.00">as_iic_set_control</text>
</a>
</g>
</g>
<!-- Node2&#45;&gt;Node8 -->
<g id="edge8" class="edge">
<title>Node2&#45;&gt;Node8</title>
<path fill="none" stroke="midnightblue" d="M812.54,-692.1C811.88,-752.17 804.19,-934.32 738,-1065 719.05,-1102.4 681.11,-1135.63 661.26,-1151.37"/>
<polygon fill="midnightblue" stroke="midnightblue" points="816.04,-691.78 812.59,-681.76 809.04,-691.74 816.04,-691.78"/>
</g>
<!-- Node42 -->
<g id="node22" class="node">
<title>Node42</title>
<g id="a_node22"><a xlink:href="group__as__iic__reg__funcs.html#ga4074423c4c97e7492eca0175ad5d6a6e" target="_top" xlink:title=" ">
<polygon fill="none" stroke="black" points="376,-980.5 376,-999.5 510,-999.5 510,-980.5 376,-980.5"/>
<text text-anchor="middle" x="443" y="-987.5" font-family="Helvetica,sans-Serif" font-size="10.00">as_iic_set_data_register</text>
</a>
</g>
</g>
<!-- Node2&#45;&gt;Node42 -->
<g id="edge28" class="edge">
<title>Node2&#45;&gt;Node42</title>
<path fill="none" stroke="midnightblue" d="M811.48,-692.15C807.54,-760.87 790.8,-984.13 738,-1027 663.01,-1087.88 612.75,-1045.19 521,-1015 505.38,-1009.86 487.95,-1004.2 473.64,-999.56"/>
<polygon fill="midnightblue" stroke="midnightblue" points="814.99,-692.01 812.04,-681.84 808,-691.63 814.99,-692.01"/>
</g>
<!-- Node43 -->
<g id="node23" class="node">
<title>Node43</title>
<g id="a_node23"><a xlink:href="group__as__iic__reg__funcs.html#ga8058473baeded71954aa72ee8df24e9b" target="_top" xlink:title=" ">
<polygon fill="none" stroke="black" points="389.5,-1448.5 389.5,-1467.5 496.5,-1467.5 496.5,-1448.5 389.5,-1448.5"/>
<text text-anchor="middle" x="443" y="-1455.5" font-family="Helvetica,sans-Serif" font-size="10.00">as_iic_set_data_tx</text>
</a>
</g>
</g>
<!-- Node2&#45;&gt;Node43 -->
<g id="edge30" class="edge">
<title>Node2&#45;&gt;Node43</title>
<path fill="none" stroke="midnightblue" d="M812.5,-691.81C812.07,-776.57 806.02,-1107.68 738,-1180 681.69,-1239.88 613.9,-1158.68 557,-1218 489.63,-1288.24 584.95,-1360.63 521,-1434 514.56,-1441.39 505.88,-1446.53 496.68,-1450.1"/>
<polygon fill="midnightblue" stroke="midnightblue" points="816,-691.74 812.53,-681.73 809,-691.72 816,-691.74"/>
</g>
<!-- Node44 -->
<g id="node24" class="node">
<title>Node44</title>
<g id="a_node24"><a xlink:href="group__as__iic__reg__funcs.html#ga9fc4b532c67bb8f2d999583a900d741b" target="_top" xlink:title=" ">
<polygon fill="none" stroke="black" points="196.5,-942.5 196.5,-961.5 300.5,-961.5 300.5,-942.5 196.5,-942.5"/>
<text text-anchor="middle" x="248.5" y="-949.5" font-family="Helvetica,sans-Serif" font-size="10.00">as_iic_set_scl_div</text>
</a>
</g>
</g>
<!-- Node2&#45;&gt;Node44 -->
<g id="edge33" class="edge">
<title>Node2&#45;&gt;Node44</title>
<path fill="none" stroke="midnightblue" d="M811.04,-691.92C805.86,-756.14 786.1,-955.76 738,-994 675.03,-1044.06 634.22,-1016.56 557,-994 538.78,-988.68 539.03,-976.96 521,-971 447.31,-946.65 356.42,-945.72 300.73,-948.19"/>
<polygon fill="midnightblue" stroke="midnightblue" points="814.55,-691.81 811.84,-681.57 807.57,-691.27 814.55,-691.81"/>
</g>
<!-- Node45 -->
<g id="node25" class="node">
<title>Node45</title>
<g id="a_node25"><a xlink:href="group__as__reader__writer.html#gae1123634d5cf61d70bcfc7a87cda08bf" target="_top" xlink:title="Sets the maximum possible burst length to be performed by the hardware module.">
<polygon fill="none" stroke="black" points="588,-954 588,-984 707,-984 707,-954 588,-954"/>
<text text-anchor="start" x="596" y="-972" font-family="Helvetica,sans-Serif" font-size="10.00">as_reader_writer_set</text>
<text text-anchor="middle" x="647.5" y="-961" font-family="Helvetica,sans-Serif" font-size="10.00">_max_burst_length</text>
</a>
</g>
</g>
<!-- Node2&#45;&gt;Node45 -->
<g id="edge35" class="edge">
<title>Node2&#45;&gt;Node45</title>
<path fill="none" stroke="midnightblue" d="M813.31,-691.71C814.21,-741.59 809.38,-873.93 738,-945 729.56,-953.4 718.53,-958.95 707.1,-962.59"/>
<polygon fill="midnightblue" stroke="midnightblue" points="816.8,-691.51 813.02,-681.62 809.8,-691.71 816.8,-691.51"/>
</g>
<!-- Node54 -->
<g id="node28" class="node">
<title>Node54</title>
<g id="a_node28"><a xlink:href="group__as__reader__writer.html#ga43d2f73d7d42dd5704160d4ddacfaa1e" target="_top" xlink:title="Sets the start address of the first section to the given value.">
<polygon fill="none" stroke="red" points="588,-758 588,-788 707,-788 707,-758 588,-758"/>
<text text-anchor="start" x="596" y="-776" font-family="Helvetica,sans-Serif" font-size="10.00">as_reader_writer_set</text>
<text text-anchor="middle" x="647.5" y="-765" font-family="Helvetica,sans-Serif" font-size="10.00">_section_addr</text>
</a>
</g>
</g>
<!-- Node2&#45;&gt;Node54 -->
<g id="edge38" class="edge">
<title>Node2&#45;&gt;Node54</title>
<path fill="none" stroke="midnightblue" d="M799.47,-689.95C785.97,-707.28 763.33,-733.03 738,-748 728.56,-753.58 717.81,-757.96 707.13,-761.39"/>
<polygon fill="midnightblue" stroke="midnightblue" points="802.43,-691.84 805.66,-681.76 796.84,-687.62 802.43,-691.84"/>
</g>
<!-- Node63 -->
<g id="node31" class="node">
<title>Node63</title>
<g id="a_node31"><a xlink:href="group__as__reader__writer.html#ga4dd1a170b8e16005c286c0c0e7d8406f" target="_top" xlink:title="Sets the number of sections.">
<polygon fill="none" stroke="black" points="588,-905 588,-935 707,-935 707,-905 588,-905"/>
<text text-anchor="start" x="596" y="-923" font-family="Helvetica,sans-Serif" font-size="10.00">as_reader_writer_set</text>
<text text-anchor="middle" x="647.5" y="-912" font-family="Helvetica,sans-Serif" font-size="10.00">_section_count</text>
</a>
</g>
</g>
<!-- Node2&#45;&gt;Node63 -->
<g id="edge42" class="edge">
<title>Node2&#45;&gt;Node63</title>
<path fill="none" stroke="midnightblue" d="M811.83,-691.79C809.25,-735.11 796.92,-838.96 738,-895 729.47,-903.12 718.52,-908.64 707.24,-912.38"/>
<polygon fill="midnightblue" stroke="midnightblue" points="815.33,-691.86 812.31,-681.7 808.33,-691.52 815.33,-691.86"/>
</g>
<!-- Node64 -->
<g id="node32" class="node">
<title>Node64</title>
<g id="a_node32"><a xlink:href="group__as__reader__writer.html#ga12f11a3d7cff5ea8bdec75dedec35bab" target="_top" xlink:title="Sets the offset in bytes between the start addresses of two subsequent sections.">
<polygon fill="none" stroke="black" points="588,-856 588,-886 707,-886 707,-856 588,-856"/>
<text text-anchor="start" x="596" y="-874" font-family="Helvetica,sans-Serif" font-size="10.00">as_reader_writer_set</text>
<text text-anchor="middle" x="647.5" y="-863" font-family="Helvetica,sans-Serif" font-size="10.00">_section_offset</text>
</a>
</g>
</g>
<!-- Node2&#45;&gt;Node64 -->
<g id="edge45" class="edge">
<title>Node2&#45;&gt;Node64</title>
<path fill="none" stroke="midnightblue" d="M809.69,-691.79C803.5,-727.9 785.29,-804.58 738,-846 729.26,-853.65 718.36,-858.98 707.2,-862.68"/>
<polygon fill="midnightblue" stroke="midnightblue" points="813.2,-692.01 811.3,-681.59 806.28,-690.92 813.2,-692.01"/>
</g>
<!-- Node65 -->
<g id="node33" class="node">
<title>Node65</title>
<g id="a_node33"><a xlink:href="group__as__reader__writer.html#ga06436c5cb6a63439f2e4b7c14c71fb83" target="_top" xlink:title="Sets the size of a single section in bytes.">
<polygon fill="none" stroke="red" points="588,-807 588,-837 707,-837 707,-807 588,-807"/>
<text text-anchor="start" x="596" y="-825" font-family="Helvetica,sans-Serif" font-size="10.00">as_reader_writer_set</text>
<text text-anchor="middle" x="647.5" y="-814" font-family="Helvetica,sans-Serif" font-size="10.00">_section_size</text>
</a>
</g>
</g>
<!-- Node2&#45;&gt;Node65 -->
<g id="edge48" class="edge">
<title>Node2&#45;&gt;Node65</title>
<path fill="none" stroke="midnightblue" d="M806.27,-691.16C796.3,-718.75 774.14,-769.36 738,-797 729.03,-803.86 718.27,-808.84 707.38,-812.45"/>
<polygon fill="midnightblue" stroke="midnightblue" points="809.65,-692.1 809.59,-681.5 803.03,-689.82 809.65,-692.1"/>
</g>
<!-- Node66 -->
<g id="node34" class="node">
<title>Node66</title>
<g id="a_node34"><a xlink:href="group__asterics__support.html#ga0ccb0610d764a95bda989e35fba59490" target="_top" xlink:title=" ">
<polygon fill="none" stroke="red" points="586.5,-719.5 586.5,-738.5 708.5,-738.5 708.5,-719.5 586.5,-719.5"/>
<text text-anchor="middle" x="647.5" y="-726.5" font-family="Helvetica,sans-Serif" font-size="10.00">as_reg_write_masked</text>
</a>
</g>
</g>
<!-- Node2&#45;&gt;Node66 -->
<g id="edge52" class="edge">
<title>Node2&#45;&gt;Node66</title>
<path fill="none" stroke="midnightblue" d="M787.7,-686.73C773.54,-694.6 755.24,-703.89 738,-710 727.37,-713.77 715.75,-716.9 704.51,-719.47"/>
<polygon fill="midnightblue" stroke="midnightblue" points="789.81,-689.56 796.77,-681.57 786.35,-683.47 789.81,-689.56"/>
</g>
<!-- Node87 -->
<g id="node35" class="node">
<title>Node87</title>
<g id="a_node35"><a xlink:href="as__sensor__ov7670_8c.html#afa584132cfb864262d6910ce365472ba" target="_top" xlink:title=" ">
<polygon fill="none" stroke="red" points="557,-681.5 557,-700.5 738,-700.5 738,-681.5 557,-681.5"/>
<text text-anchor="middle" x="647.5" y="-688.5" font-family="Helvetica,sans-Serif" font-size="10.00">as_sensor_ov7670_resolution_set</text>
</a>
</g>
</g>
<!-- Node2&#45;&gt;Node87 -->
<g id="edge53" class="edge">
<title>Node2&#45;&gt;Node87</title>
<path fill="none" stroke="midnightblue" d="M763.56,-677.67C753.16,-678.87 741.92,-680.18 730.67,-681.48"/>
<polygon fill="midnightblue" stroke="midnightblue" points="764.1,-681.13 773.63,-676.5 763.3,-674.18 764.1,-681.13"/>
</g>
<!-- Node88 -->
<g id="node36" class="node">
<title>Node88</title>
<g id="a_node36"><a xlink:href="group__as__stream__adapter.html#ga3a34f284090dd6d08fc9fa109275b1ee" target="_top" xlink:title=" ">
<polygon fill="none" stroke="black" points="577.5,-643.5 577.5,-662.5 717.5,-662.5 717.5,-643.5 577.5,-643.5"/>
<text text-anchor="middle" x="647.5" y="-650.5" font-family="Helvetica,sans-Serif" font-size="10.00">as_stream_adapter_reset</text>
</a>
</g>
</g>
<!-- Node2&#45;&gt;Node88 -->
<g id="edge54" class="edge">
<title>Node2&#45;&gt;Node88</title>
<path fill="none" stroke="midnightblue" d="M763.46,-666.32C749.04,-664.65 733,-662.79 717.58,-661"/>
<polygon fill="midnightblue" stroke="midnightblue" points="763.3,-669.82 773.63,-667.5 764.1,-662.87 763.3,-669.82"/>
</g>
<!-- Node89 -->
<g id="node37" class="node">
<title>Node89</title>
<g id="a_node37"><a xlink:href="group__as__stream__adapter.html#gae1717dd1028537f766483cbb3c46a12c" target="_top" xlink:title=" ">
<polygon fill="none" stroke="black" points="574.5,-594 574.5,-624 720.5,-624 720.5,-594 574.5,-594"/>
<text text-anchor="start" x="582.5" y="-612" font-family="Helvetica,sans-Serif" font-size="10.00">as_stream_adapter_strobe</text>
<text text-anchor="middle" x="647.5" y="-601" font-family="Helvetica,sans-Serif" font-size="10.00">_counters_reset</text>
</a>
</g>
</g>
<!-- Node2&#45;&gt;Node89 -->
<g id="edge55" class="edge">
<title>Node2&#45;&gt;Node89</title>
<path fill="none" stroke="midnightblue" d="M786.99,-657.39C772.87,-649.71 754.81,-640.56 738,-634 728.68,-630.36 718.63,-627.02 708.74,-624.05"/>
<polygon fill="midnightblue" stroke="midnightblue" points="785.63,-660.64 796.07,-662.42 789.02,-654.51 785.63,-660.64"/>
</g>
<!-- Node90 -->
<g id="node38" class="node">
<title>Node90</title>
<g id="a_node38"><a xlink:href="group__as__stream__strobe__counter.html#gae4f47ae76c9a93bf799428084219d34f" target="_top" xlink:title=" ">
<polygon fill="none" stroke="black" points="574.5,-545 574.5,-575 720.5,-575 720.5,-545 574.5,-545"/>
<text text-anchor="start" x="582.5" y="-563" font-family="Helvetica,sans-Serif" font-size="10.00">as_stream_strobe_counter</text>
<text text-anchor="middle" x="647.5" y="-552" font-family="Helvetica,sans-Serif" font-size="10.00">_reset</text>
</a>
</g>
</g>
<!-- Node2&#45;&gt;Node90 -->
<g id="edge56" class="edge">
<title>Node2&#45;&gt;Node90</title>
<path fill="none" stroke="midnightblue" d="M801.9,-653.84C789.23,-633.75 766.17,-601.86 738,-584 732.57,-580.55 726.64,-577.6 720.52,-575.07"/>
<polygon fill="midnightblue" stroke="midnightblue" points="798.92,-655.68 807.11,-662.39 804.89,-652.03 798.92,-655.68"/>
</g>
<!-- Node91 -->
<g id="node39" class="node">
<title>Node91</title>
<g id="a_node39"><a xlink:href="group__as__stream__strobe__counter.html#gac4870412d05612b5f9e405e86f14dab9" target="_top" xlink:title="Disable counting of the strobe signal.">
<polygon fill="none" stroke="black" points="574.5,-496 574.5,-526 720.5,-526 720.5,-496 574.5,-496"/>
<text text-anchor="start" x="582.5" y="-514" font-family="Helvetica,sans-Serif" font-size="10.00">as_stream_strobe_counter</text>
<text text-anchor="middle" x="647.5" y="-503" font-family="Helvetica,sans-Serif" font-size="10.00">_strobe_disable</text>
</a>
</g>
</g>
<!-- Node2&#45;&gt;Node91 -->
<g id="edge57" class="edge">
<title>Node2&#45;&gt;Node91</title>
<path fill="none" stroke="midnightblue" d="M807.34,-652.64C798.37,-622.79 777.02,-565.74 738,-535 732.82,-530.92 727,-527.53 720.89,-524.71"/>
<polygon fill="midnightblue" stroke="midnightblue" points="803.99,-653.65 810.1,-662.31 810.72,-651.74 803.99,-653.65"/>
</g>
<!-- Node92 -->
<g id="node40" class="node">
<title>Node92</title>
<g id="a_node40"><a xlink:href="group__as__stream__strobe__counter.html#ga9ddb48d74b214587ee37096e76644580" target="_top" xlink:title="Enable counting of the strobe signal.">
<polygon fill="none" stroke="black" points="574.5,-447 574.5,-477 720.5,-477 720.5,-447 574.5,-447"/>
<text text-anchor="start" x="582.5" y="-465" font-family="Helvetica,sans-Serif" font-size="10.00">as_stream_strobe_counter</text>
<text text-anchor="middle" x="647.5" y="-454" font-family="Helvetica,sans-Serif" font-size="10.00">_strobe_enable</text>
</a>
</g>
</g>
<!-- Node2&#45;&gt;Node92 -->
<g id="edge58" class="edge">
<title>Node2&#45;&gt;Node92</title>
<path fill="none" stroke="midnightblue" d="M810.31,-651.87C805.06,-613.68 788.22,-530.57 738,-486 732.83,-481.41 726.87,-477.68 720.53,-474.66"/>
<polygon fill="midnightblue" stroke="midnightblue" points="806.89,-652.69 811.59,-662.18 813.83,-651.83 806.89,-652.69"/>
</g>
<!-- Node93 -->
<g id="node41" class="node">
<title>Node93</title>
<g id="a_node41"><a xlink:href="group__as__threshold.html#gab57ae4379fa2b76f65c85e29a4235067" target="_top" xlink:title=" ">
<polygon fill="none" stroke="black" points="589,-398 589,-428 706,-428 706,-398 589,-398"/>
<text text-anchor="start" x="597" y="-416" font-family="Helvetica,sans-Serif" font-size="10.00">as_threshold_enable</text>
<text text-anchor="middle" x="647.5" y="-405" font-family="Helvetica,sans-Serif" font-size="10.00">_a_value</text>
</a>
</g>
</g>
<!-- Node2&#45;&gt;Node93 -->
<g id="edge59" class="edge">
<title>Node2&#45;&gt;Node93</title>
<path fill="none" stroke="midnightblue" d="M812.26,-652.04C810.6,-606.91 800.04,-496.31 738,-437 729.28,-428.66 717.99,-423.15 706.38,-419.52"/>
<polygon fill="midnightblue" stroke="midnightblue" points="808.77,-652.36 812.52,-662.27 815.77,-652.18 808.77,-652.36"/>
</g>
<!-- Node94 -->
<g id="node42" class="node">
<title>Node94</title>
<g id="a_node42"><a xlink:href="group__as__threshold.html#ga821aa37f9a20d976605e06cbc17e631f" target="_top" xlink:title=" ">
<polygon fill="none" stroke="black" points="589,-349 589,-379 706,-379 706,-349 589,-349"/>
<text text-anchor="start" x="597" y="-367" font-family="Helvetica,sans-Serif" font-size="10.00">as_threshold_enable</text>
<text text-anchor="middle" x="647.5" y="-356" font-family="Helvetica,sans-Serif" font-size="10.00">_b_value</text>
</a>
</g>
</g>
<!-- Node2&#45;&gt;Node94 -->
<g id="edge60" class="edge">
<title>Node2&#45;&gt;Node94</title>
<path fill="none" stroke="midnightblue" d="M809.91,-652.24C801.93,-594.24 775.91,-426.12 738,-388 729.38,-379.33 717.99,-373.69 706.23,-370.05"/>
<polygon fill="midnightblue" stroke="midnightblue" points="806.46,-652.86 811.27,-662.3 813.4,-651.93 806.46,-652.86"/>
</g>
<!-- Node95 -->
<g id="node43" class="node">
<title>Node95</title>
<g id="a_node43"><a xlink:href="group__as__threshold.html#gac427effb1fd260c777dc5ea58be9e77f" target="_top" xlink:title=" ">
<polygon fill="none" stroke="black" points="589,-300 589,-330 706,-330 706,-300 589,-300"/>
<text text-anchor="start" x="597" y="-318" font-family="Helvetica,sans-Serif" font-size="10.00">as_threshold_enable</text>
<text text-anchor="middle" x="647.5" y="-307" font-family="Helvetica,sans-Serif" font-size="10.00">_c_value</text>
</a>
</g>
</g>
<!-- Node2&#45;&gt;Node95 -->
<g id="edge61" class="edge">
<title>Node2&#45;&gt;Node95</title>
<path fill="none" stroke="midnightblue" d="M810.74,-652.3C804.59,-587.87 782,-384.88 738,-339 729.43,-330.06 717.91,-324.33 706,-320.68"/>
<polygon fill="midnightblue" stroke="midnightblue" points="807.26,-652.71 811.67,-662.35 814.23,-652.07 807.26,-652.71"/>
</g>
<!-- Node96 -->
<g id="node44" class="node">
<title>Node96</title>
<g id="a_node44"><a xlink:href="group__as__threshold.html#gae62d1dc97502916e642b1f22d94907a7" target="_top" xlink:title=" ">
<polygon fill="none" stroke="black" points="592.5,-251 592.5,-281 702.5,-281 702.5,-251 592.5,-251"/>
<text text-anchor="start" x="600.5" y="-269" font-family="Helvetica,sans-Serif" font-size="10.00">as_threshold_set_a</text>
<text text-anchor="middle" x="647.5" y="-258" font-family="Helvetica,sans-Serif" font-size="10.00">_value</text>
</a>
</g>
</g>
<!-- Node2&#45;&gt;Node96 -->
<g id="edge62" class="edge">
<title>Node2&#45;&gt;Node96</title>
<path fill="none" stroke="midnightblue" d="M811.35,-652.23C806.84,-581.68 788.1,-343.7 738,-290 728.78,-280.12 715.98,-274.14 702.93,-270.56"/>
<polygon fill="midnightblue" stroke="midnightblue" points="807.86,-652.62 811.97,-662.39 814.85,-652.19 807.86,-652.62"/>
</g>
<!-- Node97 -->
<g id="node45" class="node">
<title>Node97</title>
<g id="a_node45"><a xlink:href="group__as__threshold.html#gaacde349094d858c0e0cb7de97b7a0b02" target="_top" xlink:title=" ">
<polygon fill="none" stroke="black" points="592.5,-202 592.5,-232 702.5,-232 702.5,-202 592.5,-202"/>
<text text-anchor="start" x="600.5" y="-220" font-family="Helvetica,sans-Serif" font-size="10.00">as_threshold_set_b</text>
<text text-anchor="middle" x="647.5" y="-209" font-family="Helvetica,sans-Serif" font-size="10.00">_value</text>
</a>
</g>
</g>
<!-- Node2&#45;&gt;Node97 -->
<g id="edge63" class="edge">
<title>Node2&#45;&gt;Node97</title>
<path fill="none" stroke="midnightblue" d="M811.82,-652.2C808.82,-575.96 794.25,-302.61 738,-241 728.78,-230.9 715.82,-224.86 702.61,-221.3"/>
<polygon fill="midnightblue" stroke="midnightblue" points="808.33,-652.46 812.2,-662.32 815.33,-652.2 808.33,-652.46"/>
</g>
<!-- Node98 -->
<g id="node46" class="node">
<title>Node98</title>
<g id="a_node46"><a xlink:href="group__as__threshold.html#gabe357fa631d024a9be6c410c404b51f1" target="_top" xlink:title=" ">
<polygon fill="none" stroke="black" points="592.5,-153 592.5,-183 702.5,-183 702.5,-153 592.5,-153"/>
<text text-anchor="start" x="600.5" y="-171" font-family="Helvetica,sans-Serif" font-size="10.00">as_threshold_set_c</text>
<text text-anchor="middle" x="647.5" y="-160" font-family="Helvetica,sans-Serif" font-size="10.00">_value</text>
</a>
</g>
</g>
<!-- Node2&#45;&gt;Node98 -->
<g id="edge64" class="edge">
<title>Node2&#45;&gt;Node98</title>
<path fill="none" stroke="midnightblue" d="M812.21,-652.1C810.6,-570.36 800.41,-261.54 738,-192 728.87,-181.82 715.93,-175.76 702.73,-172.2"/>
<polygon fill="midnightblue" stroke="midnightblue" points="808.71,-652.52 812.39,-662.45 815.71,-652.39 808.71,-652.52"/>
</g>
<!-- Node99 -->
<g id="node47" class="node">
<title>Node99</title>
<g id="a_node47"><a xlink:href="group__as__threshold.html#ga6810bb581bbb6a0ac417fdc69b171b2d" target="_top" xlink:title=" ">
<polygon fill="none" stroke="black" points="590.5,-114.5 590.5,-133.5 704.5,-133.5 704.5,-114.5 590.5,-114.5"/>
<text text-anchor="middle" x="647.5" y="-121.5" font-family="Helvetica,sans-Serif" font-size="10.00">as_threshold_set_t1</text>
</a>
</g>
</g>
<!-- Node2&#45;&gt;Node99 -->
<g id="edge65" class="edge">
<title>Node2&#45;&gt;Node99</title>
<path fill="none" stroke="midnightblue" d="M812.62,-652.21C812.74,-565.35 808.7,-218.77 738,-143 729.33,-133.71 717.34,-128.37 704.95,-125.42"/>
<polygon fill="midnightblue" stroke="midnightblue" points="809.12,-652.28 812.59,-662.29 816.12,-652.31 809.12,-652.28"/>
</g>
<!-- Node100 -->
<g id="node48" class="node">
<title>Node100</title>
<g id="a_node48"><a xlink:href="group__as__threshold.html#gad7125c18114253bc9aabc77c982748f6" target="_top" xlink:title=" ">
<polygon fill="none" stroke="black" points="590.5,-76.5 590.5,-95.5 704.5,-95.5 704.5,-76.5 590.5,-76.5"/>
<text text-anchor="middle" x="647.5" y="-83.5" font-family="Helvetica,sans-Serif" font-size="10.00">as_threshold_set_t2</text>
</a>
</g>
</g>
<!-- Node2&#45;&gt;Node100 -->
<g id="edge66" class="edge">
<title>Node2&#45;&gt;Node100</title>
<path fill="none" stroke="midnightblue" d="M812.83,-652.26C813.91,-561.7 813.7,-186.89 738,-105 729.27,-95.55 717.1,-90.18 704.55,-87.25"/>
<polygon fill="midnightblue" stroke="midnightblue" points="809.32,-652.43 812.68,-662.48 816.32,-652.53 809.32,-652.43"/>
</g>
<!-- Node101 -->
<g id="node49" class="node">
<title>Node101</title>
<g id="a_node49"><a xlink:href="group__as__window__pipeline__common.html#gad4fb44553f295a6f818b9d89cc352b82" target="_top" xlink:title=" ">
<polygon fill="none" stroke="red" points="584.5,-38.5 584.5,-57.5 710.5,-57.5 710.5,-38.5 584.5,-38.5"/>
<text text-anchor="middle" x="647.5" y="-45.5" font-family="Helvetica,sans-Serif" font-size="10.00">as_window_pipe_flush</text>
</a>
</g>
</g>
<!-- Node2&#45;&gt;Node101 -->
<g id="edge67" class="edge">
<title>Node2&#45;&gt;Node101</title>
<path fill="none" stroke="midnightblue" d="M811.41,-652.19C805.78,-552.77 778.59,-111.27 738,-67 730.7,-59.04 720.96,-53.97 710.6,-50.81"/>
<polygon fill="midnightblue" stroke="midnightblue" points="807.93,-652.55 811.98,-662.34 814.92,-652.16 807.93,-652.55"/>
</g>
<!-- Node103 -->
<g id="node50" class="node">
<title>Node103</title>
<g id="a_node50"><a xlink:href="group__as__window__pipeline__common.html#gaaff058bc42a8f86e996da468935a33be" target="_top" xlink:title=" ">
<polygon fill="none" stroke="red" points="584,-0.5 584,-19.5 711,-19.5 711,-0.5 584,-0.5"/>
<text text-anchor="middle" x="647.5" y="-7.5" font-family="Helvetica,sans-Serif" font-size="10.00">as_window_pipe_reset</text>
</a>
</g>
</g>
<!-- Node2&#45;&gt;Node103 -->
<g id="edge68" class="edge">
<title>Node2&#45;&gt;Node103</title>
<path fill="none" stroke="midnightblue" d="M811.55,-651.93C806.47,-548.25 781.07,-76.31 738,-29 730.84,-21.13 721.29,-16.08 711.1,-12.91"/>
<polygon fill="midnightblue" stroke="midnightblue" points="808.07,-652.41 812.05,-662.23 815.06,-652.07 808.07,-652.41"/>
</g>
<!-- Node6 -->
<g id="node6" class="node">
<title>Node6</title>
<g id="a_node6"><a xlink:href="group__as__gensync.html#ga471165ace4958548c722f223f04eee07" target="_top" xlink:title=" ">
<polygon fill="none" stroke="black" points="395.5,-1486.5 395.5,-1505.5 490.5,-1505.5 490.5,-1486.5 395.5,-1486.5"/>
<text text-anchor="middle" x="443" y="-1493.5" font-family="Helvetica,sans-Serif" font-size="10.00">as_gensync_init</text>
</a>
</g>
</g>
<!-- Node5&#45;&gt;Node6 -->
<g id="edge5" class="edge">
<title>Node5&#45;&gt;Node6</title>
<path fill="none" stroke="midnightblue" d="M562.19,-1289.41C560.37,-1290.82 558.63,-1292.35 557,-1294 498.83,-1353.05 578.2,-1417.01 521,-1477 513.02,-1485.37 501.99,-1490.29 490.76,-1493.13"/>
<polygon fill="midnightblue" stroke="midnightblue" points="564.17,-1292.3 570.7,-1283.95 560.4,-1286.4 564.17,-1292.3"/>
</g>
<!-- Node7&#45;&gt;Node6 -->
<g id="edge7" class="edge">
<title>Node7&#45;&gt;Node6</title>
<path fill="none" stroke="midnightblue" d="M575.13,-1243.56C568.36,-1246.58 562.12,-1250.63 557,-1256 488.33,-1328.03 588.48,-1403.86 521,-1477 513.06,-1485.6 501.91,-1490.59 490.55,-1493.41"/>
<polygon fill="midnightblue" stroke="midnightblue" points="576.48,-1246.79 584.65,-1240.04 574.06,-1240.23 576.48,-1246.79"/>
</g>
<!-- Node9 -->
<g id="node9" class="node">
<title>Node9</title>
<g id="a_node9"><a xlink:href="group__as__iic__helpers.html#ga1662a1a0b29536bf7d74ede3f73598be" target="_top" xlink:title=" ">
<polygon fill="none" stroke="red" points="183,-1132.5 183,-1151.5 314,-1151.5 314,-1132.5 183,-1132.5"/>
<text text-anchor="middle" x="248.5" y="-1139.5" font-family="Helvetica,sans-Serif" font-size="10.00">as_iic_read_transaction</text>
</a>
</g>
</g>
<!-- Node8&#45;&gt;Node9 -->
<g id="edge9" class="edge">
<title>Node8&#45;&gt;Node9</title>
<path fill="none" stroke="midnightblue" d="M585.38,-1158.08C511.93,-1154.56 389.22,-1148.69 314.2,-1145.1"/>
<polygon fill="midnightblue" stroke="midnightblue" points="585.26,-1161.57 595.41,-1158.55 585.59,-1154.58 585.26,-1161.57"/>
</g>
<!-- Node12 -->
<g id="node10" class="node">
<title>Node12</title>
<g id="a_node10"><a xlink:href="group__as__iic__user.html#gae03c311fae3d6a830878a2b0c2c1c2bf" target="_top" xlink:title=" ">
<polygon fill="none" stroke="black" points="381,-1056.5 381,-1075.5 505,-1075.5 505,-1056.5 381,-1056.5"/>
<text text-anchor="middle" x="443" y="-1063.5" font-family="Helvetica,sans-Serif" font-size="10.00">as_iic_reset_hw_state</text>
</a>
</g>
</g>
<!-- Node8&#45;&gt;Node12 -->
<g id="edge10" class="edge">
<title>Node8&#45;&gt;Node12</title>
<path fill="none" stroke="midnightblue" d="M623.34,-1145.91C598.72,-1130.34 558.28,-1106.14 521,-1090 508.02,-1084.38 493.3,-1079.46 480.23,-1075.56"/>
<polygon fill="midnightblue" stroke="midnightblue" points="621.65,-1148.98 631.96,-1151.41 625.42,-1143.08 621.65,-1148.98"/>
</g>
<!-- Node15 -->
<g id="node13" class="node">
<title>Node15</title>
<g id="a_node13"><a xlink:href="group__as__iic__helpers.html#ga53e6050a2c66be89ac23084fd9de9c23" target="_top" xlink:title=" ">
<polygon fill="none" stroke="red" points="0,-1252.5 0,-1271.5 132,-1271.5 132,-1252.5 0,-1252.5"/>
<text text-anchor="middle" x="66" y="-1259.5" font-family="Helvetica,sans-Serif" font-size="10.00">as_iic_start_transaction</text>
</a>
</g>
</g>
<!-- Node8&#45;&gt;Node15 -->
<g id="edge24" class="edge">
<title>Node8&#45;&gt;Node15</title>
<path fill="none" stroke="midnightblue" d="M585.59,-1160.91C574.9,-1163.56 564.74,-1168.22 557,-1176 486.79,-1246.53 596.14,-1331.75 521,-1397 461.77,-1448.44 237.9,-1436.61 168,-1401 112.72,-1372.83 80.59,-1298.68 70.49,-1271.86"/>
<polygon fill="midnightblue" stroke="midnightblue" points="586.34,-1164.33 595.49,-1159 585.01,-1157.45 586.34,-1164.33"/>
</g>
<!-- Node34 -->
<g id="node14" class="node">
<title>Node34</title>
<g id="a_node14"><a xlink:href="group__as__iic__helpers.html#gaa8ce9ac10b8c2ca9b614110ca5cbeff5" target="_top" xlink:title=" ">
<polygon fill="none" stroke="red" points="169.5,-1018.5 169.5,-1037.5 327.5,-1037.5 327.5,-1018.5 169.5,-1018.5"/>
<text text-anchor="middle" x="248.5" y="-1025.5" font-family="Helvetica,sans-Serif" font-size="10.00">as_iic_stop_read_transaction</text>
</a>
</g>
</g>
<!-- Node8&#45;&gt;Node34 -->
<g id="edge25" class="edge">
<title>Node8&#45;&gt;Node34</title>
<path fill="none" stroke="midnightblue" d="M633.58,-1143.37C613.09,-1116.99 570.37,-1068.09 521,-1047 459.73,-1020.83 383.59,-1017.73 327.55,-1020.22"/>
<polygon fill="midnightblue" stroke="midnightblue" points="630.83,-1145.53 639.66,-1151.38 636.4,-1141.3 630.83,-1145.53"/>
</g>
<!-- Node35 -->
<g id="node15" class="node">
<title>Node35</title>
<g id="a_node15"><a xlink:href="group__as__iic__helpers.html#ga67cc002a1b20c75dc26f7b328ca5ddc9" target="_top" xlink:title=" ">
<polygon fill="none" stroke="red" points="168,-1094.5 168,-1113.5 329,-1113.5 329,-1094.5 168,-1094.5"/>
<text text-anchor="middle" x="248.5" y="-1101.5" font-family="Helvetica,sans-Serif" font-size="10.00">as_iic_stop_write_transaction</text>
</a>
</g>
</g>
<!-- Node8&#45;&gt;Node35 -->
<g id="edge26" class="edge">
<title>Node8&#45;&gt;Node35</title>
<path fill="none" stroke="midnightblue" d="M585.46,-1152.24C512.58,-1141.77 391.12,-1124.33 315.93,-1113.54"/>
<polygon fill="midnightblue" stroke="midnightblue" points="585.02,-1155.71 595.41,-1153.66 586.01,-1148.78 585.02,-1155.71"/>
</g>
<!-- Node36 -->
<g id="node16" class="node">
<title>Node36</title>
<g id="a_node16"><a xlink:href="group__as__iic__helpers.html#gad5e0aa9a71f8f0f65e1fbded8134b11f" target="_top" xlink:title=" ">
<polygon fill="none" stroke="red" points="181.5,-1372.5 181.5,-1391.5 315.5,-1391.5 315.5,-1372.5 181.5,-1372.5"/>
<text text-anchor="middle" x="248.5" y="-1379.5" font-family="Helvetica,sans-Serif" font-size="10.00">as_iic_write_transaction</text>
</a>
</g>
</g>
<!-- Node8&#45;&gt;Node36 -->
<g id="edge27" class="edge">
<title>Node8&#45;&gt;Node36</title>
<path fill="none" stroke="midnightblue" d="M585.48,-1167.65C574.8,-1171.33 564.67,-1176.83 557,-1185 501.74,-1243.83 581.65,-1309.75 521,-1363 454.96,-1420.99 341.56,-1404.74 284.48,-1391.52"/>
<polygon fill="midnightblue" stroke="midnightblue" points="586.76,-1170.92 595.38,-1164.76 584.8,-1164.2 586.76,-1170.92"/>
</g>
<!-- Node37 -->
<g id="node17" class="node">
<title>Node37</title>
<g id="a_node17"><a xlink:href="as__iic_8c.html#afea64b05722568dd3faeb338cfa059bc" target="_top" xlink:title=" ">
<polygon fill="none" stroke="black" points="386,-1334.5 386,-1353.5 500,-1353.5 500,-1334.5 386,-1334.5"/>
<text text-anchor="middle" x="443" y="-1341.5" font-family="Helvetica,sans-Serif" font-size="10.00">as_iic_set_ack_mod</text>
</a>
</g>
</g>
<!-- Node8&#45;&gt;Node37 -->
<g id="edge19" class="edge">
<title>Node8&#45;&gt;Node37</title>
<path fill="none" stroke="midnightblue" d="M585.46,-1168.1C574.88,-1171.75 564.8,-1177.12 557,-1185 511.81,-1230.66 566.65,-1279.79 521,-1325 515.23,-1330.72 508.03,-1334.81 500.36,-1337.72"/>
<polygon fill="midnightblue" stroke="midnightblue" points="586.65,-1171.39 595.26,-1165.21 584.67,-1164.68 586.65,-1171.39"/>
</g>
<!-- Node38 -->
<g id="node18" class="node">
<title>Node38</title>
<g id="a_node18"><a xlink:href="group__as__iic__user.html#ga01d635936dc80ddaa19a8d189603ead3" target="_top" xlink:title=" ">
<polygon fill="none" stroke="black" points="380.5,-1296.5 380.5,-1315.5 505.5,-1315.5 505.5,-1296.5 380.5,-1296.5"/>
<text text-anchor="middle" x="443" y="-1303.5" font-family="Helvetica,sans-Serif" font-size="10.00">as_iic_set_data_ready</text>
</a>
</g>
</g>
<!-- Node8&#45;&gt;Node38 -->
<g id="edge20" class="edge">
<title>Node8&#45;&gt;Node38</title>
<path fill="none" stroke="midnightblue" d="M585.64,-1168.78C575.15,-1172.37 565.04,-1177.55 557,-1185 521.72,-1217.65 556.61,-1254.7 521,-1287 516.51,-1291.07 511.29,-1294.3 505.73,-1296.87"/>
<polygon fill="midnightblue" stroke="midnightblue" points="586.75,-1172.1 595.35,-1165.9 584.76,-1165.39 586.75,-1172.1"/>
</g>
<!-- Node39 -->
<g id="node19" class="node">
<title>Node39</title>
<g id="a_node19"><a xlink:href="group__as__iic__bitsetters.html#ga0fa3aeeb6d2854f9b27c344047bd820e" target="_top" xlink:title=" ">
<polygon fill="none" stroke="black" points="385,-1258.5 385,-1277.5 501,-1277.5 501,-1258.5 385,-1258.5"/>
<text text-anchor="middle" x="443" y="-1265.5" font-family="Helvetica,sans-Serif" font-size="10.00">as_iic_set_readwrite</text>
</a>
</g>
</g>
<!-- Node8&#45;&gt;Node39 -->
<g id="edge21" class="edge">
<title>Node8&#45;&gt;Node39</title>
<path fill="none" stroke="midnightblue" d="M585.61,-1170.29C575.38,-1173.75 565.38,-1178.5 557,-1185 531.22,-1205.01 546.98,-1229.25 521,-1249 515.08,-1253.5 508.23,-1256.95 501.11,-1259.59"/>
<polygon fill="midnightblue" stroke="midnightblue" points="586.86,-1173.57 595.44,-1167.35 584.85,-1166.86 586.86,-1173.57"/>
</g>
<!-- Node40 -->
<g id="node20" class="node">
<title>Node40</title>
<g id="a_node20"><a xlink:href="group__as__iic__bitsetters.html#gaa51d06d83796c60001b40bff2dc35b68" target="_top" xlink:title=" ">
<polygon fill="none" stroke="black" points="387.5,-1209 387.5,-1239 498.5,-1239 498.5,-1209 387.5,-1209"/>
<text text-anchor="start" x="395.5" y="-1227" font-family="Helvetica,sans-Serif" font-size="10.00">as_iic_set_transmit</text>
<text text-anchor="middle" x="443" y="-1216" font-family="Helvetica,sans-Serif" font-size="10.00">_start</text>
</a>
</g>
</g>
<!-- Node8&#45;&gt;Node40 -->
<g id="edge22" class="edge">
<title>Node8&#45;&gt;Node40</title>
<path fill="none" stroke="midnightblue" d="M597.2,-1173.19C584.05,-1176.72 569.91,-1180.77 557,-1185 540.69,-1190.34 537.17,-1193.24 521,-1199 511.6,-1202.35 501.49,-1205.77 491.79,-1208.95"/>
<polygon fill="midnightblue" stroke="midnightblue" points="598.24,-1176.53 607.02,-1170.6 596.46,-1169.77 598.24,-1176.53"/>
</g>
<!-- Node41 -->
<g id="node21" class="node">
<title>Node41</title>
<g id="a_node21"><a xlink:href="group__as__iic__bitsetters.html#ga3e0050e31ef365ba7813edd7fbcfa724" target="_top" xlink:title=" ">
<polygon fill="none" stroke="black" points="374.5,-1170.5 374.5,-1189.5 511.5,-1189.5 511.5,-1170.5 374.5,-1170.5"/>
<text text-anchor="middle" x="443" y="-1177.5" font-family="Helvetica,sans-Serif" font-size="10.00">as_iic_set_transmit_stop</text>
</a>
</g>
</g>
<!-- Node8&#45;&gt;Node41 -->
<g id="edge23" class="edge">
<title>Node8&#45;&gt;Node41</title>
<path fill="none" stroke="midnightblue" d="M585.31,-1166.74C562.03,-1168.93 535.38,-1171.43 511.54,-1173.66"/>
<polygon fill="midnightblue" stroke="midnightblue" points="585.77,-1170.21 595.4,-1165.79 585.12,-1163.24 585.77,-1170.21"/>
</g>
<!-- Node12&#45;&gt;Node9 -->
<g id="edge11" class="edge">
<title>Node12&#45;&gt;Node9</title>
<path fill="none" stroke="midnightblue" d="M417.23,-1080.61C394.82,-1093.31 360.6,-1111.43 329,-1123 319.01,-1126.66 308.04,-1129.8 297.54,-1132.42"/>
<polygon fill="midnightblue" stroke="midnightblue" points="419.14,-1083.55 426.07,-1075.54 415.65,-1077.48 419.14,-1083.55"/>
</g>
<!-- Node13 -->
<g id="node11" class="node">
<title>Node13</title>
<g id="a_node11"><a xlink:href="group__as__iic__bitsetters.html#ga9ad6dd95074bf372355b39032fce62b7" target="_top" xlink:title=" ">
<polygon fill="none" stroke="black" points="211.5,-980.5 211.5,-999.5 285.5,-999.5 285.5,-980.5 211.5,-980.5"/>
<text text-anchor="middle" x="248.5" y="-987.5" font-family="Helvetica,sans-Serif" font-size="10.00">as_iic_reset</text>
</a>
</g>
</g>
<!-- Node12&#45;&gt;Node13 -->
<g id="edge12" class="edge">
<title>Node12&#45;&gt;Node13</title>
<path fill="none" stroke="midnightblue" d="M417.23,-1051.39C394.82,-1038.69 360.6,-1020.57 329,-1009 315.14,-1003.93 299.42,-999.84 285.64,-996.78"/>
<polygon fill="midnightblue" stroke="midnightblue" points="415.65,-1054.52 426.07,-1056.46 419.14,-1048.45 415.65,-1054.52"/>
</g>
<!-- Node12&#45;&gt;Node15 -->
<g id="edge14" class="edge">
<title>Node12&#45;&gt;Node15</title>
<path fill="none" stroke="midnightblue" d="M383.86,-1055.07C324.83,-1047.19 233.08,-1044.13 168,-1085 104.18,-1125.08 76.64,-1221 69.19,-1252.09"/>
<polygon fill="midnightblue" stroke="midnightblue" points="383.37,-1058.53 393.76,-1056.47 384.36,-1051.6 383.37,-1058.53"/>
</g>
<!-- Node12&#45;&gt;Node34 -->
<g id="edge15" class="edge">
<title>Node12&#45;&gt;Node34</title>
<path fill="none" stroke="midnightblue" d="M383.55,-1054.46C356.09,-1049.04 323.76,-1042.66 297.73,-1037.52"/>
<polygon fill="midnightblue" stroke="midnightblue" points="382.94,-1057.91 393.42,-1056.41 384.29,-1051.04 382.94,-1057.91"/>
</g>
<!-- Node12&#45;&gt;Node35 -->
<g id="edge16" class="edge">
<title>Node12&#45;&gt;Node35</title>
<path fill="none" stroke="midnightblue" d="M383.55,-1077.54C356.09,-1082.96 323.76,-1089.34 297.73,-1094.48"/>
<polygon fill="midnightblue" stroke="midnightblue" points="384.29,-1080.96 393.42,-1075.59 382.94,-1074.09 384.29,-1080.96"/>
</g>
<!-- Node12&#45;&gt;Node36 -->
<g id="edge18" class="edge">
<title>Node12&#45;&gt;Node36</title>
<path fill="none" stroke="midnightblue" d="M426.17,-1083.34C409.76,-1101.79 383.91,-1132.23 365,-1161 314.12,-1238.43 267.6,-1340.84 253.7,-1372.36"/>
<polygon fill="midnightblue" stroke="midnightblue" points="428.9,-1085.53 432.99,-1075.75 423.7,-1080.85 428.9,-1085.53"/>
</g>
<!-- Node14 -->
<g id="node12" class="node">
<title>Node14</title>
<g id="a_node12"><a xlink:href="group__as__iic__user.html#ga77245afd24eadd52f5845e23d82e777a" target="_top" xlink:title=" ">
<polygon fill="none" stroke="black" points="33.5,-961.5 33.5,-980.5 98.5,-980.5 98.5,-961.5 33.5,-961.5"/>
<text text-anchor="middle" x="66" y="-968.5" font-family="Helvetica,sans-Serif" font-size="10.00">as_iic_init</text>
</a>
</g>
</g>
<!-- Node13&#45;&gt;Node14 -->
<g id="edge13" class="edge">
<title>Node13&#45;&gt;Node14</title>
<path fill="none" stroke="midnightblue" d="M201.32,-985.14C169.09,-981.75 126.93,-977.31 98.51,-974.32"/>
<polygon fill="midnightblue" stroke="midnightblue" points="201.1,-988.63 211.41,-986.2 201.83,-981.67 201.1,-988.63"/>
</g>
<!-- Node35&#45;&gt;Node15 -->
<g id="edge17" class="edge">
<title>Node35&#45;&gt;Node15</title>
<path fill="none" stroke="midnightblue" d="M177.74,-1117.49C174.34,-1119.12 171.07,-1120.95 168,-1123 116.64,-1157.28 82.3,-1227 71.04,-1252.44"/>
<polygon fill="midnightblue" stroke="midnightblue" points="179.1,-1120.71 186.97,-1113.61 176.39,-1114.25 179.1,-1120.71"/>
</g>
<!-- Node42&#45;&gt;Node13 -->
<g id="edge29" class="edge">
<title>Node42&#45;&gt;Node13</title>
<path fill="none" stroke="midnightblue" d="M365.69,-990C338.06,-990 308.12,-990 285.56,-990"/>
<polygon fill="midnightblue" stroke="midnightblue" points="365.75,-993.5 375.75,-990 365.75,-986.5 365.75,-993.5"/>
</g>
<!-- Node43&#45;&gt;Node15 -->
<g id="edge31" class="edge">
<title>Node43&#45;&gt;Node15</title>
<path fill="none" stroke="midnightblue" d="M379.37,-1467.96C320.25,-1474 231.44,-1474.09 168,-1434 105.65,-1394.6 77.13,-1301.69 69.31,-1271.59"/>
<polygon fill="midnightblue" stroke="midnightblue" points="379.77,-1471.44 389.33,-1466.86 379,-1464.48 379.77,-1471.44"/>
</g>
<!-- Node43&#45;&gt;Node36 -->
<g id="edge32" class="edge">
<title>Node43&#45;&gt;Node36</title>
<path fill="none" stroke="midnightblue" d="M407.88,-1444.53C369.33,-1429.31 307.56,-1404.92 273.68,-1391.55"/>
<polygon fill="midnightblue" stroke="midnightblue" points="407.03,-1447.96 417.62,-1448.37 409.6,-1441.45 407.03,-1447.96"/>
</g>
<!-- Node44&#45;&gt;Node14 -->
<g id="edge34" class="edge">
<title>Node44&#45;&gt;Node14</title>
<path fill="none" stroke="midnightblue" d="M186.06,-958.47C156.63,-961.57 122.62,-965.14 98.51,-967.68"/>
<polygon fill="midnightblue" stroke="midnightblue" points="186.68,-961.92 196.26,-957.39 185.95,-954.96 186.68,-961.92"/>
</g>
<!-- Node46 -->
<g id="node26" class="node">
<title>Node46</title>
<g id="a_node26"><a xlink:href="as__memio_8c.html#a31a12ad0b581e08a50188766815dd93d" target="_top" xlink:title=" ">
<polygon fill="none" stroke="red" points="372,-904.5 372,-923.5 514,-923.5 514,-904.5 372,-904.5"/>
<text text-anchor="middle" x="443" y="-911.5" font-family="Helvetica,sans-Serif" font-size="10.00">as_memio_module_setup</text>
</a>
</g>
</g>
<!-- Node45&#45;&gt;Node46 -->
<g id="edge36" class="edge">
<title>Node45&#45;&gt;Node46</title>
<path fill="none" stroke="midnightblue" d="M580.27,-951.29C572.42,-949.17 564.53,-947.04 557,-945 530.69,-937.86 500.96,-929.7 478.61,-923.55"/>
<polygon fill="midnightblue" stroke="midnightblue" points="579.58,-954.73 590.15,-953.94 581.4,-947.97 579.58,-954.73"/>
</g>
<!-- Node49 -->
<g id="node27" class="node">
<title>Node49</title>
<g id="a_node27"><a xlink:href="group__as__reader__writer.html#ga5c0bd52e53c8e68de80b1712c12d9a4a" target="_top" xlink:title="Initializes the hardware module with values provided by config.">
<polygon fill="none" stroke="red" points="383.5,-861.5 383.5,-880.5 502.5,-880.5 502.5,-861.5 383.5,-861.5"/>
<text text-anchor="middle" x="443" y="-868.5" font-family="Helvetica,sans-Serif" font-size="10.00">as_reader_writer_init</text>
</a>
</g>
</g>
<!-- Node45&#45;&gt;Node49 -->
<g id="edge37" class="edge">
<title>Node45&#45;&gt;Node49</title>
<path fill="none" stroke="midnightblue" d="M578.08,-956C570.62,-953.05 563.42,-949.44 557,-945 534.47,-929.44 543.22,-911.01 521,-895 512.25,-888.7 501.8,-884.01 491.46,-880.55"/>
<polygon fill="midnightblue" stroke="midnightblue" points="577.03,-959.34 587.62,-959.39 579.37,-952.74 577.03,-959.34"/>
</g>
<!-- Node54&#45;&gt;Node49 -->
<g id="edge41" class="edge">
<title>Node54&#45;&gt;Node49</title>
<path fill="none" stroke="midnightblue" d="M578.26,-786.91C570.83,-789.69 563.58,-793.02 557,-797 536.81,-809.2 540.12,-822.18 521,-836 506.01,-846.84 487.12,-855.49 471.8,-861.48"/>
<polygon fill="midnightblue" stroke="midnightblue" points="579.41,-790.21 587.74,-783.66 577.14,-783.59 579.41,-790.21"/>
</g>
<!-- Node55 -->
<g id="node29" class="node">
<title>Node55</title>
<g id="a_node29"><a xlink:href="as__memio_8c.html#ab93cfbaa1058ea83836b6d052e72ad50" target="_top" xlink:title=" ">
<polygon fill="none" stroke="red" points="366.5,-807.5 366.5,-826.5 519.5,-826.5 519.5,-807.5 366.5,-807.5"/>
<text text-anchor="middle" x="443" y="-814.5" font-family="Helvetica,sans-Serif" font-size="10.00">as_memio_hw_read_update</text>
</a>
</g>
</g>
<!-- Node54&#45;&gt;Node55 -->
<g id="edge39" class="edge">
<title>Node54&#45;&gt;Node55</title>
<path fill="none" stroke="midnightblue" d="M578.02,-787.88C548.26,-794.35 514.26,-801.73 487.96,-807.45"/>
<polygon fill="midnightblue" stroke="midnightblue" points="578.9,-791.27 587.93,-785.73 577.41,-784.43 578.9,-791.27"/>
</g>
<!-- Node60 -->
<g id="node30" class="node">
<title>Node60</title>
<g id="a_node30"><a xlink:href="as__memio_8c.html#a3ae0453041c4a6d406955edd9c7e43f3" target="_top" xlink:title=" ">
<polygon fill="none" stroke="red" points="365,-766.5 365,-785.5 521,-785.5 521,-766.5 365,-766.5"/>
<text text-anchor="middle" x="443" y="-773.5" font-family="Helvetica,sans-Serif" font-size="10.00">as_memio_hw_write_update</text>
</a>
</g>
</g>
<!-- Node54&#45;&gt;Node60 -->
<g id="edge40" class="edge">
<title>Node54&#45;&gt;Node60</title>
<path fill="none" stroke="midnightblue" d="M577.73,-774.02C559.58,-774.29 539.86,-774.58 521.29,-774.85"/>
<polygon fill="midnightblue" stroke="midnightblue" points="577.98,-777.52 587.93,-773.87 577.88,-770.52 577.98,-777.52"/>
</g>
<!-- Node63&#45;&gt;Node46 -->
<g id="edge43" class="edge">
<title>Node63&#45;&gt;Node46</title>
<path fill="none" stroke="midnightblue" d="M577.74,-917.96C557.28,-917.36 534.83,-916.69 514.27,-916.08"/>
<polygon fill="midnightblue" stroke="midnightblue" points="577.83,-921.47 587.93,-918.26 578.04,-914.47 577.83,-921.47"/>
</g>
<!-- Node63&#45;&gt;Node49 -->
<g id="edge44" class="edge">
<title>Node63&#45;&gt;Node49</title>
<path fill="none" stroke="midnightblue" d="M577.91,-903.4C546.47,-895.8 510.34,-887.05 483.53,-880.57"/>
<polygon fill="midnightblue" stroke="midnightblue" points="577.39,-906.88 587.93,-905.83 579.03,-900.07 577.39,-906.88"/>
</g>
<!-- Node64&#45;&gt;Node46 -->
<g id="edge46" class="edge">
<title>Node64&#45;&gt;Node46</title>
<path fill="none" stroke="midnightblue" d="M578.13,-885.52C548.7,-891.77 515.13,-898.9 488.93,-904.46"/>
<polygon fill="midnightblue" stroke="midnightblue" points="578.87,-888.94 587.93,-883.44 577.42,-882.09 578.87,-888.94"/>
</g>
<!-- Node64&#45;&gt;Node49 -->
<g id="edge47" class="edge">
<title>Node64&#45;&gt;Node49</title>
<path fill="none" stroke="midnightblue" d="M577.69,-871C553.35,-871 526.22,-871 502.79,-871"/>
<polygon fill="midnightblue" stroke="midnightblue" points="577.93,-874.5 587.93,-871 577.93,-867.5 577.93,-874.5"/>
</g>
<!-- Node65&#45;&gt;Node49 -->
<g id="edge51" class="edge">
<title>Node65&#45;&gt;Node49</title>
<path fill="none" stroke="midnightblue" d="M577.91,-838.6C546.47,-846.2 510.34,-854.95 483.53,-861.43"/>
<polygon fill="midnightblue" stroke="midnightblue" points="579.03,-841.93 587.93,-836.17 577.39,-835.12 579.03,-841.93"/>
</g>
<!-- Node65&#45;&gt;Node55 -->
<g id="edge49" class="edge">
<title>Node65&#45;&gt;Node55</title>
<path fill="none" stroke="midnightblue" d="M577.76,-820.3C559.11,-819.84 538.82,-819.34 519.8,-818.87"/>
<polygon fill="midnightblue" stroke="midnightblue" points="577.85,-823.81 587.93,-820.55 578.02,-816.81 577.85,-823.81"/>
</g>
<!-- Node65&#45;&gt;Node60 -->
<g id="edge50" class="edge">
<title>Node65&#45;&gt;Node60</title>
<path fill="none" stroke="midnightblue" d="M577.79,-806.39C547.36,-799.48 512.53,-791.57 486.04,-785.55"/>
<polygon fill="midnightblue" stroke="midnightblue" points="577.4,-809.89 587.93,-808.69 578.95,-803.07 577.4,-809.89"/>
</g>
</g>
</svg>
