<?xml version="1.0" encoding="UTF-8" standalone="no"?>
<!DOCTYPE svg PUBLIC "-//W3C//DTD SVG 1.1//EN"
 "http://www.w3.org/Graphics/SVG/1.1/DTD/svg11.dtd">
<!-- Generated by graphviz version 2.43.0 (0)
 -->
<!-- Title: as_iic_stop_write_transaction Pages: 1 -->
<svg width="912pt" height="181pt"
 viewBox="0.00 0.00 912.00 181.00" xmlns="http://www.w3.org/2000/svg" xmlns:xlink="http://www.w3.org/1999/xlink">
<g id="graph0" class="graph" transform="scale(1 1) rotate(0) translate(4 177)">
<title>as_iic_stop_write_transaction</title>
<!-- Node1 -->
<g id="node1" class="node">
<title>Node1</title>
<g id="a_node1"><a xlink:title=" ">
<polygon fill="#bfbfbf" stroke="black" points="0,-65.5 0,-84.5 161,-84.5 161,-65.5 0,-65.5"/>
<text text-anchor="middle" x="80.5" y="-72.5" font-family="Helvetica,sans-Serif" font-size="10.00">as_iic_stop_write_transaction</text>
</a>
</g>
</g>
<!-- Node2 -->
<g id="node2" class="node">
<title>Node2</title>
<g id="a_node2"><a xlink:href="group__as__iic__bitchecks.html#gaa4e8718c748b5a7e956a38ffd6dbe15d" target="_top" xlink:title=" ">
<polygon fill="none" stroke="black" points="202,-153.5 202,-172.5 316,-172.5 316,-153.5 202,-153.5"/>
<text text-anchor="middle" x="259" y="-160.5" font-family="Helvetica,sans-Serif" font-size="10.00">as_iic_ack_received</text>
</a>
</g>
</g>
<!-- Node1&#45;&gt;Node2 -->
<g id="edge1" class="edge">
<title>Node1&#45;&gt;Node2</title>
<path fill="none" stroke="midnightblue" d="M95.14,-84.62C116.18,-99.1 158.19,-126.66 197,-144 202,-146.23 207.34,-148.31 212.7,-150.21"/>
<polygon fill="midnightblue" stroke="midnightblue" points="211.72,-153.58 222.32,-153.44 213.95,-146.94 211.72,-153.58"/>
</g>
<!-- Node6 -->
<g id="node6" class="node">
<title>Node6</title>
<g id="a_node6"><a xlink:href="group__as__iic__wait.html#gad3cfec26b8a73166e060108cf1444a2b" target="_top" xlink:title=" ">
<polygon fill="none" stroke="black" points="200,-104 200,-134 318,-134 318,-104 200,-104"/>
<text text-anchor="start" x="208" y="-122" font-family="Helvetica,sans-Serif" font-size="10.00">as_iic_busy_wait_for</text>
<text text-anchor="middle" x="259" y="-111" font-family="Helvetica,sans-Serif" font-size="10.00">_hwready</text>
</a>
</g>
</g>
<!-- Node1&#45;&gt;Node6 -->
<g id="edge5" class="edge">
<title>Node1&#45;&gt;Node6</title>
<path fill="none" stroke="midnightblue" d="M119.8,-84.55C140.38,-89.68 166.37,-96.16 190.25,-102.11"/>
<polygon fill="midnightblue" stroke="midnightblue" points="189.42,-105.51 199.97,-104.53 191.12,-98.72 189.42,-105.51"/>
</g>
<!-- Node8 -->
<g id="node8" class="node">
<title>Node8</title>
<g id="a_node8"><a xlink:href="group__asterics__support.html#gab803703ab5b845023ca31b7b2664419c" target="_top" xlink:title=" ">
<polygon fill="none" stroke="black" points="379.5,-68.5 379.5,-87.5 438.5,-87.5 438.5,-68.5 379.5,-68.5"/>
<text text-anchor="middle" x="409" y="-75.5" font-family="Helvetica,sans-Serif" font-size="10.00">as_sleep</text>
</a>
</g>
</g>
<!-- Node1&#45;&gt;Node8 -->
<g id="edge17" class="edge">
<title>Node1&#45;&gt;Node8</title>
<path fill="none" stroke="midnightblue" d="M161.37,-75.73C227.29,-76.34 318,-77.17 369.03,-77.64"/>
<polygon fill="midnightblue" stroke="midnightblue" points="369.26,-81.14 379.3,-77.74 369.33,-74.14 369.26,-81.14"/>
</g>
<!-- Node12 -->
<g id="node12" class="node">
<title>Node12</title>
<g id="a_node12"><a xlink:href="group__as__iic__user.html#gae03c311fae3d6a830878a2b0c2c1c2bf" target="_top" xlink:title=" ">
<polygon fill="none" stroke="black" points="197,-27.5 197,-46.5 321,-46.5 321,-27.5 197,-27.5"/>
<text text-anchor="middle" x="259" y="-34.5" font-family="Helvetica,sans-Serif" font-size="10.00">as_iic_reset_hw_state</text>
</a>
</g>
</g>
<!-- Node1&#45;&gt;Node12 -->
<g id="edge12" class="edge">
<title>Node1&#45;&gt;Node12</title>
<path fill="none" stroke="midnightblue" d="M126.04,-65.41C149.64,-60.33 178.83,-54.04 203.75,-48.68"/>
<polygon fill="midnightblue" stroke="midnightblue" points="204.74,-52.05 213.78,-46.52 203.27,-45.2 204.74,-52.05"/>
</g>
<!-- Node13 -->
<g id="node13" class="node">
<title>Node13</title>
<g id="a_node13"><a xlink:href="group__as__iic__reg__funcs.html#gac83a48fc09234a7a99adafb1ce565eb0" target="_top" xlink:title=" ">
<polygon fill="none" stroke="black" points="357,-0.5 357,-19.5 461,-19.5 461,-0.5 357,-0.5"/>
<text text-anchor="middle" x="409" y="-7.5" font-family="Helvetica,sans-Serif" font-size="10.00">as_iic_set_control</text>
</a>
</g>
</g>
<!-- Node1&#45;&gt;Node13 -->
<g id="edge16" class="edge">
<title>Node1&#45;&gt;Node13</title>
<path fill="none" stroke="midnightblue" d="M96.03,-65.3C117.19,-51.78 158.2,-27.83 197,-18 246.24,-5.52 304,-4.21 346.63,-5.63"/>
<polygon fill="midnightblue" stroke="midnightblue" points="346.72,-9.14 356.85,-6.03 346.99,-2.14 346.72,-9.14"/>
</g>
<!-- Node3 -->
<g id="node3" class="node">
<title>Node3</title>
<g id="a_node3"><a xlink:href="group__as__iic__reg__funcs.html#ga8daa8fde0a7776aa2f5b335250b5aa2a" target="_top" xlink:title=" ">
<polygon fill="none" stroke="black" points="497,-136.5 497,-155.5 619,-155.5 619,-136.5 497,-136.5"/>
<text text-anchor="middle" x="558" y="-143.5" font-family="Helvetica,sans-Serif" font-size="10.00">as_iic_get_status_reg</text>
</a>
</g>
</g>
<!-- Node2&#45;&gt;Node3 -->
<g id="edge2" class="edge">
<title>Node2&#45;&gt;Node3</title>
<path fill="none" stroke="midnightblue" d="M316.21,-159.78C364.61,-157.01 434.69,-153 486.77,-150.02"/>
<polygon fill="midnightblue" stroke="midnightblue" points="487.15,-153.5 496.94,-149.44 486.75,-146.52 487.15,-153.5"/>
</g>
<!-- Node4 -->
<g id="node4" class="node">
<title>Node4</title>
<g id="a_node4"><a xlink:href="group__asterics__support.html#ga8e5c2bfd2e4498d10289377bd94cef07" target="_top" xlink:title=" ">
<polygon fill="none" stroke="black" points="673.5,-136.5 673.5,-155.5 749.5,-155.5 749.5,-136.5 673.5,-136.5"/>
<text text-anchor="middle" x="711.5" y="-143.5" font-family="Helvetica,sans-Serif" font-size="10.00">as_reg_read</text>
</a>
</g>
</g>
<!-- Node3&#45;&gt;Node4 -->
<g id="edge3" class="edge">
<title>Node3&#45;&gt;Node4</title>
<path fill="none" stroke="midnightblue" d="M619.31,-146C633.78,-146 649.03,-146 662.83,-146"/>
<polygon fill="midnightblue" stroke="midnightblue" points="663.07,-149.5 673.07,-146 663.07,-142.5 663.07,-149.5"/>
</g>
<!-- Node5 -->
<g id="node5" class="node">
<title>Node5</title>
<g id="a_node5"><a xlink:href="group__asterics__support.html#ga4c6d688b840a6e2edc9bc0b8ed961677" target="_top" xlink:title=" ">
<polygon fill="none" stroke="black" points="804,-136.5 804,-155.5 904,-155.5 904,-136.5 804,-136.5"/>
<text text-anchor="middle" x="854" y="-143.5" font-family="Helvetica,sans-Serif" font-size="10.00">as_reg_to_uint32</text>
</a>
</g>
</g>
<!-- Node4&#45;&gt;Node5 -->
<g id="edge4" class="edge">
<title>Node4&#45;&gt;Node5</title>
<path fill="none" stroke="midnightblue" d="M749.78,-146C763.26,-146 778.83,-146 793.72,-146"/>
<polygon fill="midnightblue" stroke="midnightblue" points="793.89,-149.5 803.89,-146 793.89,-142.5 793.89,-149.5"/>
</g>
<!-- Node7 -->
<g id="node7" class="node">
<title>Node7</title>
<g id="a_node7"><a xlink:href="group__as__iic__user.html#gacdb0c71d0fcfe5e50a7f7316762cd0c0" target="_top" xlink:title=" ">
<polygon fill="none" stroke="black" points="363.5,-110.5 363.5,-129.5 454.5,-129.5 454.5,-110.5 363.5,-110.5"/>
<text text-anchor="middle" x="409" y="-117.5" font-family="Helvetica,sans-Serif" font-size="10.00">as_iic_is_ready</text>
</a>
</g>
</g>
<!-- Node6&#45;&gt;Node7 -->
<g id="edge6" class="edge">
<title>Node6&#45;&gt;Node7</title>
<path fill="none" stroke="midnightblue" d="M318.07,-119.39C329.6,-119.47 341.68,-119.55 353.1,-119.63"/>
<polygon fill="midnightblue" stroke="midnightblue" points="353.35,-123.13 363.37,-119.7 353.39,-116.13 353.35,-123.13"/>
</g>
<!-- Node6&#45;&gt;Node8 -->
<g id="edge8" class="edge">
<title>Node6&#45;&gt;Node8</title>
<path fill="none" stroke="midnightblue" d="M314.27,-103.97C332.58,-98.89 352.63,-93.34 369.47,-88.68"/>
<polygon fill="midnightblue" stroke="midnightblue" points="370.79,-91.94 379.49,-85.9 368.92,-85.19 370.79,-91.94"/>
</g>
<!-- Node7&#45;&gt;Node3 -->
<g id="edge7" class="edge">
<title>Node7&#45;&gt;Node3</title>
<path fill="none" stroke="midnightblue" d="M454.5,-127.87C466.69,-130.03 480.15,-132.41 493.19,-134.71"/>
<polygon fill="midnightblue" stroke="midnightblue" points="492.6,-138.16 503.05,-136.46 493.82,-131.27 492.6,-138.16"/>
</g>
<!-- Node9 -->
<g id="node9" class="node">
<title>Node9</title>
<g id="a_node9"><a xlink:href="group__asterics__support.html#ga284d9e0d170cf7cabc16ccd7e62d95bd" target="_top" xlink:title=" ">
<polygon fill="none" stroke="black" points="529.5,-68.5 529.5,-87.5 586.5,-87.5 586.5,-68.5 529.5,-68.5"/>
<text text-anchor="middle" x="558" y="-75.5" font-family="Helvetica,sans-Serif" font-size="10.00">as_yield</text>
</a>
</g>
</g>
<!-- Node8&#45;&gt;Node9 -->
<g id="edge9" class="edge">
<title>Node8&#45;&gt;Node9</title>
<path fill="none" stroke="midnightblue" d="M438.69,-78C461.65,-78 494.04,-78 519.12,-78"/>
<polygon fill="midnightblue" stroke="midnightblue" points="519.38,-81.5 529.38,-78 519.38,-74.5 519.38,-81.5"/>
</g>
<!-- Node10 -->
<g id="node10" class="node">
<title>Node10</title>
<g id="a_node10"><a xlink:href="group__asterics__support.html#gad294e0c5530bd6fb800a2394179070e1" target="_top" xlink:title=" ">
<polygon fill="none" stroke="black" points="666.5,-95.5 666.5,-114.5 756.5,-114.5 756.5,-95.5 666.5,-95.5"/>
<text text-anchor="middle" x="711.5" y="-102.5" font-family="Helvetica,sans-Serif" font-size="10.00">as_mutex_lock</text>
</a>
</g>
</g>
<!-- Node9&#45;&gt;Node10 -->
<g id="edge10" class="edge">
<title>Node9&#45;&gt;Node10</title>
<path fill="none" stroke="midnightblue" d="M586.79,-82.95C606.22,-86.42 632.81,-91.15 656.36,-95.35"/>
<polygon fill="midnightblue" stroke="midnightblue" points="655.78,-98.8 666.23,-97.11 657,-91.91 655.78,-98.8"/>
</g>
<!-- Node11 -->
<g id="node11" class="node">
<title>Node11</title>
<g id="a_node11"><a xlink:href="group__asterics__support.html#ga07e09e825f2608339f6213edb9d0c8b3" target="_top" xlink:title=" ">
<polygon fill="none" stroke="black" points="660.5,-57.5 660.5,-76.5 762.5,-76.5 762.5,-57.5 660.5,-57.5"/>
<text text-anchor="middle" x="711.5" y="-64.5" font-family="Helvetica,sans-Serif" font-size="10.00">as_mutex_unlock</text>
</a>
</g>
</g>
<!-- Node9&#45;&gt;Node11 -->
<g id="edge11" class="edge">
<title>Node9&#45;&gt;Node11</title>
<path fill="none" stroke="midnightblue" d="M586.79,-75.98C604.49,-74.7 628.12,-72.98 649.99,-71.39"/>
<polygon fill="midnightblue" stroke="midnightblue" points="650.49,-74.87 660.21,-70.65 649.98,-67.88 650.49,-74.87"/>
</g>
<!-- Node12&#45;&gt;Node13 -->
<g id="edge13" class="edge">
<title>Node12&#45;&gt;Node13</title>
<path fill="none" stroke="midnightblue" d="M312.18,-27.48C323.38,-25.44 335.31,-23.26 346.82,-21.16"/>
<polygon fill="midnightblue" stroke="midnightblue" points="347.58,-24.58 356.79,-19.34 346.32,-17.69 347.58,-24.58"/>
</g>
<!-- Node14 -->
<g id="node14" class="node">
<title>Node14</title>
<g id="a_node14"><a xlink:href="group__asterics__support.html#ga6345b997e24a6cd5f9143cef27629d49" target="_top" xlink:title=" ">
<polygon fill="none" stroke="black" points="518.5,-0.5 518.5,-19.5 597.5,-19.5 597.5,-0.5 518.5,-0.5"/>
<text text-anchor="middle" x="558" y="-7.5" font-family="Helvetica,sans-Serif" font-size="10.00">as_reg_write</text>
</a>
</g>
</g>
<!-- Node13&#45;&gt;Node14 -->
<g id="edge14" class="edge">
<title>Node13&#45;&gt;Node14</title>
<path fill="none" stroke="midnightblue" d="M461,-10C476.23,-10 492.88,-10 507.98,-10"/>
<polygon fill="midnightblue" stroke="midnightblue" points="508.14,-13.5 518.14,-10 508.14,-6.5 508.14,-13.5"/>
</g>
<!-- Node15 -->
<g id="node15" class="node">
<title>Node15</title>
<g id="a_node15"><a xlink:href="group__asterics__support.html#gab651cc2c035ce61b354578434e59f822" target="_top" xlink:title=" ">
<polygon fill="none" stroke="black" points="655,-0.5 655,-19.5 768,-19.5 768,-0.5 655,-0.5"/>
<text text-anchor="middle" x="711.5" y="-7.5" font-family="Helvetica,sans-Serif" font-size="10.00">as_reg_from_uint32</text>
</a>
</g>
</g>
<!-- Node14&#45;&gt;Node15 -->
<g id="edge15" class="edge">
<title>Node14&#45;&gt;Node15</title>
<path fill="none" stroke="midnightblue" d="M597.62,-10C611.86,-10 628.43,-10 644.41,-10"/>
<polygon fill="midnightblue" stroke="midnightblue" points="644.79,-13.5 654.79,-10 644.79,-6.5 644.79,-13.5"/>
</g>
</g>
</svg>
