<?xml version="1.0" encoding="UTF-8" standalone="no"?>
<!DOCTYPE svg PUBLIC "-//W3C//DTD SVG 1.1//EN"
 "http://www.w3.org/Graphics/SVG/1.1/DTD/svg11.dtd">
<!-- Generated by graphviz version 2.43.0 (0)
 -->
<!-- Title: as_module_reg Pages: 1 -->
<svg width="447pt" height="2020pt"
 viewBox="0.00 0.00 447.00 2020.00" xmlns="http://www.w3.org/2000/svg" xmlns:xlink="http://www.w3.org/1999/xlink">
<g id="graph0" class="graph" transform="scale(1 1) rotate(0) translate(4 2016)">
<title>as_module_reg</title>
<!-- Node1 -->
<g id="node1" class="node">
<title>Node1</title>
<g id="a_node1"><a xlink:title=" ">
<polygon fill="#bfbfbf" stroke="black" points="348,-1008.5 348,-1027.5 439,-1027.5 439,-1008.5 348,-1008.5"/>
<text text-anchor="middle" x="393.5" y="-1015.5" font-family="Helvetica,sans-Serif" font-size="10.00">as_module_reg</text>
</a>
</g>
</g>
<!-- Node2 -->
<g id="node2" class="node">
<title>Node2</title>
<g id="a_node2"><a xlink:href="group__as__crop.html#ga968c01e2f32ccc8d87bd25288ee0bdfd" target="_top" xlink:title=" ">
<polygon fill="none" stroke="black" points="184,-1992.5 184,-2011.5 259,-2011.5 259,-1992.5 184,-1992.5"/>
<text text-anchor="middle" x="221.5" y="-1999.5" font-family="Helvetica,sans-Serif" font-size="10.00">as_crop_init</text>
</a>
</g>
</g>
<!-- Node1&#45;&gt;Node2 -->
<g id="edge1" class="edge">
<title>Node1&#45;&gt;Node2</title>
<path fill="none" stroke="midnightblue" d="M392.24,-1037.83C390.34,-1169.07 376.81,-1909.47 312,-1983 299.08,-1997.66 277.92,-2002.62 259.41,-2003.81"/>
<polygon fill="midnightblue" stroke="midnightblue" points="395.74,-1037.7 392.38,-1027.65 388.74,-1037.6 395.74,-1037.7"/>
</g>
<!-- Node3 -->
<g id="node3" class="node">
<title>Node3</title>
<g id="a_node3"><a xlink:href="group__as__gensync.html#ga5746539d52622a4ab76a6814d68715f4" target="_top" xlink:title=" ">
<polygon fill="none" stroke="black" points="164.5,-1954.5 164.5,-1973.5 278.5,-1973.5 278.5,-1954.5 164.5,-1954.5"/>
<text text-anchor="middle" x="221.5" y="-1961.5" font-family="Helvetica,sans-Serif" font-size="10.00">as_gensync_disable</text>
</a>
</g>
</g>
<!-- Node1&#45;&gt;Node3 -->
<g id="edge2" class="edge">
<title>Node1&#45;&gt;Node3</title>
<path fill="none" stroke="midnightblue" d="M392.17,-1037.83C389.85,-1166.04 374.27,-1874.59 312,-1945 303.48,-1954.64 291.39,-1960.08 278.84,-1963.01"/>
<polygon fill="midnightblue" stroke="midnightblue" points="395.67,-1037.62 392.35,-1027.56 388.67,-1037.5 395.67,-1037.62"/>
</g>
<!-- Node4 -->
<g id="node4" class="node">
<title>Node4</title>
<g id="a_node4"><a xlink:href="group__as__gensync.html#ga3256f1a305daeafd58601ba3b0dc9823" target="_top" xlink:title=" ">
<polygon fill="none" stroke="black" points="165.5,-1916.5 165.5,-1935.5 277.5,-1935.5 277.5,-1916.5 165.5,-1916.5"/>
<text text-anchor="middle" x="221.5" y="-1923.5" font-family="Helvetica,sans-Serif" font-size="10.00">as_gensync_enable</text>
</a>
</g>
</g>
<!-- Node1&#45;&gt;Node4 -->
<g id="edge3" class="edge">
<title>Node1&#45;&gt;Node4</title>
<path fill="none" stroke="midnightblue" d="M392.09,-1037.8C389.34,-1162.82 371.73,-1839.71 312,-1907 303.25,-1916.86 290.76,-1922.32 277.89,-1925.21"/>
<polygon fill="midnightblue" stroke="midnightblue" points="395.59,-1037.81 392.31,-1027.74 388.59,-1037.66 395.59,-1037.81"/>
</g>
<!-- Node5 -->
<g id="node5" class="node">
<title>Node5</title>
<g id="a_node5"><a xlink:href="group__as__gensync.html#ga562d2890e05a11b212146addc4dd931d" target="_top" xlink:title=" ">
<polygon fill="none" stroke="black" points="145,-1878.5 145,-1897.5 298,-1897.5 298,-1878.5 145,-1878.5"/>
<text text-anchor="middle" x="221.5" y="-1885.5" font-family="Helvetica,sans-Serif" font-size="10.00">as_gensync_set_frame_size</text>
</a>
</g>
</g>
<!-- Node1&#45;&gt;Node5 -->
<g id="edge4" class="edge">
<title>Node1&#45;&gt;Node5</title>
<path fill="none" stroke="midnightblue" d="M392.01,-1037.7C388.81,-1159.3 369.21,-1804.81 312,-1869 308.09,-1873.39 303.44,-1876.9 298.35,-1879.71"/>
<polygon fill="midnightblue" stroke="midnightblue" points="395.51,-1037.69 392.27,-1027.6 388.51,-1037.51 395.51,-1037.69"/>
</g>
<!-- Node7 -->
<g id="node7" class="node">
<title>Node7</title>
<g id="a_node7"><a xlink:href="group__as__gensync.html#ga8370bdc6799c035ab16c3e79985550be" target="_top" xlink:title=" ">
<polygon fill="none" stroke="black" points="159,-1840.5 159,-1859.5 284,-1859.5 284,-1840.5 159,-1840.5"/>
<text text-anchor="middle" x="221.5" y="-1847.5" font-family="Helvetica,sans-Serif" font-size="10.00">as_gensync_set_x_res</text>
</a>
</g>
</g>
<!-- Node1&#45;&gt;Node7 -->
<g id="edge6" class="edge">
<title>Node1&#45;&gt;Node7</title>
<path fill="none" stroke="midnightblue" d="M391.91,-1037.91C388.23,-1156.82 366.65,-1769.96 312,-1831 304.69,-1839.17 294.82,-1844.31 284.3,-1847.47"/>
<polygon fill="midnightblue" stroke="midnightblue" points="395.42,-1037.82 392.22,-1027.72 388.42,-1037.61 395.42,-1037.82"/>
</g>
<!-- Node8 -->
<g id="node8" class="node">
<title>Node8</title>
<g id="a_node8"><a xlink:href="group__as__invert.html#ga3c3e0caa36e278b72fab458ba28087a1" target="_top" xlink:title=" ">
<polygon fill="none" stroke="black" points="171.5,-1802.5 171.5,-1821.5 271.5,-1821.5 271.5,-1802.5 171.5,-1802.5"/>
<text text-anchor="middle" x="221.5" y="-1809.5" font-family="Helvetica,sans-Serif" font-size="10.00">as_invert_enable</text>
</a>
</g>
</g>
<!-- Node1&#45;&gt;Node8 -->
<g id="edge8" class="edge">
<title>Node1&#45;&gt;Node8</title>
<path fill="none" stroke="midnightblue" d="M391.82,-1037.69C387.66,-1152.75 364.15,-1735.03 312,-1793 301.8,-1804.34 286.67,-1809.84 271.73,-1812.3"/>
<polygon fill="midnightblue" stroke="midnightblue" points="395.32,-1037.65 392.18,-1027.53 388.33,-1037.4 395.32,-1037.65"/>
</g>
<!-- Node9 -->
<g id="node9" class="node">
<title>Node9</title>
<g id="a_node9"><a xlink:href="group__as__picam.html#gad933d1c5700c7acef787d1a3f95384e8" target="_top" xlink:title=" ">
<polygon fill="none" stroke="black" points="135,-1764.5 135,-1783.5 308,-1783.5 308,-1764.5 135,-1764.5"/>
<text text-anchor="middle" x="221.5" y="-1771.5" font-family="Helvetica,sans-Serif" font-size="10.00">as_picam_frame_is_transmitted</text>
</a>
</g>
</g>
<!-- Node1&#45;&gt;Node9 -->
<g id="edge9" class="edge">
<title>Node1&#45;&gt;Node9</title>
<path fill="none" stroke="midnightblue" d="M391.71,-1037.76C387.03,-1149.6 361.61,-1700.14 312,-1755 308.59,-1758.77 304.64,-1761.89 300.32,-1764.48"/>
<polygon fill="midnightblue" stroke="midnightblue" points="395.21,-1037.71 392.12,-1027.58 388.22,-1037.42 395.21,-1037.71"/>
</g>
<!-- Node10 -->
<g id="node10" class="node">
<title>Node10</title>
<g id="a_node10"><a xlink:href="group__as__picam.html#gaa8192e9e074c9992f0af0584f69c1009" target="_top" xlink:title=" ">
<polygon fill="none" stroke="black" points="179.5,-1726.5 179.5,-1745.5 263.5,-1745.5 263.5,-1726.5 179.5,-1726.5"/>
<text text-anchor="middle" x="221.5" y="-1733.5" font-family="Helvetica,sans-Serif" font-size="10.00">as_picam_run</text>
</a>
</g>
</g>
<!-- Node1&#45;&gt;Node10 -->
<g id="edge10" class="edge">
<title>Node1&#45;&gt;Node10</title>
<path fill="none" stroke="midnightblue" d="M391.58,-1037.75C386.38,-1146.08 359.09,-1665.23 312,-1717 299.92,-1730.28 281.07,-1735.54 263.77,-1737.27"/>
<polygon fill="midnightblue" stroke="midnightblue" points="395.09,-1037.74 392.06,-1027.58 388.1,-1037.41 395.09,-1037.74"/>
</g>
<!-- Node11 -->
<g id="node11" class="node">
<title>Node11</title>
<g id="a_node11"><a xlink:href="group__as__picam.html#ga01b04fc64709419ac1d06df422efa021" target="_top" xlink:title=" ">
<polygon fill="none" stroke="black" points="165,-1688.5 165,-1707.5 278,-1707.5 278,-1688.5 165,-1688.5"/>
<text text-anchor="middle" x="221.5" y="-1695.5" font-family="Helvetica,sans-Serif" font-size="10.00">as_picam_run_once</text>
</a>
</g>
</g>
<!-- Node1&#45;&gt;Node11 -->
<g id="edge11" class="edge">
<title>Node1&#45;&gt;Node11</title>
<path fill="none" stroke="midnightblue" d="M391.45,-1037.64C385.7,-1142.19 356.59,-1630.31 312,-1679 303.2,-1688.61 290.86,-1694.01 278.14,-1696.91"/>
<polygon fill="midnightblue" stroke="midnightblue" points="394.95,-1037.72 392,-1027.55 387.96,-1037.34 394.95,-1037.72"/>
</g>
<!-- Node12 -->
<g id="node12" class="node">
<title>Node12</title>
<g id="a_node12"><a xlink:href="group__as__picam.html#ga30b57eabe3cec87f9626b1e39f244a98" target="_top" xlink:title=" ">
<polygon fill="none" stroke="black" points="177,-1650.5 177,-1669.5 266,-1669.5 266,-1650.5 177,-1650.5"/>
<text text-anchor="middle" x="221.5" y="-1657.5" font-family="Helvetica,sans-Serif" font-size="10.00">as_picam_stop</text>
</a>
</g>
</g>
<!-- Node1&#45;&gt;Node12 -->
<g id="edge12" class="edge">
<title>Node1&#45;&gt;Node12</title>
<path fill="none" stroke="midnightblue" d="M392.88,-1037.55C394.32,-1133.12 395.67,-1550.29 312,-1641 300.48,-1653.49 282.95,-1658.86 266.45,-1660.88"/>
<polygon fill="midnightblue" stroke="midnightblue" points="396.38,-1037.47 392.71,-1027.53 389.38,-1037.59 396.38,-1037.47"/>
</g>
<!-- Node13 -->
<g id="node13" class="node">
<title>Node13</title>
<g id="a_node13"><a xlink:href="group__as__reader__writer.html#gaaea10b48e35a224a5870cd3322ffbec2" target="_top" xlink:title="Returns the next address on which the hardware will perform a write operation.">
<polygon fill="none" stroke="red" points="162,-1601 162,-1631 281,-1631 281,-1601 162,-1601"/>
<text text-anchor="start" x="170" y="-1619" font-family="Helvetica,sans-Serif" font-size="10.00">as_reader_writer_get</text>
<text text-anchor="middle" x="221.5" y="-1608" font-family="Helvetica,sans-Serif" font-size="10.00">_cur_hw_addr</text>
</a>
</g>
</g>
<!-- Node1&#45;&gt;Node13 -->
<g id="edge13" class="edge">
<title>Node1&#45;&gt;Node13</title>
<path fill="none" stroke="midnightblue" d="M392.52,-1037.57C392.21,-1128.17 386.39,-1506.01 312,-1591 303.92,-1600.23 292.76,-1606.18 281.04,-1609.99"/>
<polygon fill="midnightblue" stroke="midnightblue" points="396.02,-1037.58 392.53,-1027.57 389.02,-1037.57 396.02,-1037.58"/>
</g>
<!-- Node27 -->
<g id="node14" class="node">
<title>Node27</title>
<g id="a_node14"><a xlink:href="group__as__reader__writer.html#ga0e0a5b7e0dd6a14cb0f4251d00a783e8" target="_top" xlink:title="Checks if module is busy.">
<polygon fill="none" stroke="red" points="151.5,-1562.5 151.5,-1581.5 291.5,-1581.5 291.5,-1562.5 151.5,-1562.5"/>
<text text-anchor="middle" x="221.5" y="-1569.5" font-family="Helvetica,sans-Serif" font-size="10.00">as_reader_writer_is_busy</text>
</a>
</g>
</g>
<!-- Node1&#45;&gt;Node27 -->
<g id="edge14" class="edge">
<title>Node1&#45;&gt;Node27</title>
<path fill="none" stroke="midnightblue" d="M392.42,-1038.02C391.63,-1125.92 383.96,-1476.6 312,-1553 306.34,-1559.01 299.28,-1563.37 291.63,-1566.49"/>
<polygon fill="midnightblue" stroke="midnightblue" points="395.92,-1037.85 392.49,-1027.82 388.92,-1037.8 395.92,-1037.85"/>
</g>
<!-- Node28 -->
<g id="node15" class="node">
<title>Node28</title>
<g id="a_node15"><a xlink:href="group__as__reader__writer.html#ga8f344f9ba6800171909327c670d9f0f0" target="_top" xlink:title="Checks if module is ready for operation.">
<polygon fill="none" stroke="black" points="151,-1524.5 151,-1543.5 292,-1543.5 292,-1524.5 151,-1524.5"/>
<text text-anchor="middle" x="221.5" y="-1531.5" font-family="Helvetica,sans-Serif" font-size="10.00">as_reader_writer_is_done</text>
</a>
</g>
</g>
<!-- Node1&#45;&gt;Node28 -->
<g id="edge15" class="edge">
<title>Node1&#45;&gt;Node28</title>
<path fill="none" stroke="midnightblue" d="M392.17,-1037.65C390.37,-1121.04 379.08,-1444.58 312,-1515 306.41,-1520.87 299.5,-1525.15 292.01,-1528.25"/>
<polygon fill="midnightblue" stroke="midnightblue" points="395.67,-1037.59 392.37,-1027.53 388.67,-1037.46 395.67,-1037.59"/>
</g>
<!-- Node29 -->
<g id="node16" class="node">
<title>Node29</title>
<g id="a_node16"><a xlink:href="group__as__reader__writer.html#gab3f2465225201507d51787478ac5955a" target="_top" xlink:title="Checks if another operation is queued.">
<polygon fill="none" stroke="red" points="165.5,-1475 165.5,-1505 277.5,-1505 277.5,-1475 165.5,-1475"/>
<text text-anchor="start" x="173.5" y="-1493" font-family="Helvetica,sans-Serif" font-size="10.00">as_reader_writer_is</text>
<text text-anchor="middle" x="221.5" y="-1482" font-family="Helvetica,sans-Serif" font-size="10.00">_pending_go</text>
</a>
</g>
</g>
<!-- Node1&#45;&gt;Node29 -->
<g id="edge16" class="edge">
<title>Node1&#45;&gt;Node29</title>
<path fill="none" stroke="midnightblue" d="M391.65,-1038.02C387.9,-1116.33 370.43,-1400.79 312,-1465 302.99,-1474.9 290.41,-1481.01 277.53,-1484.75"/>
<polygon fill="midnightblue" stroke="midnightblue" points="395.16,-1037.79 392.12,-1027.64 388.17,-1037.47 395.16,-1037.79"/>
</g>
<!-- Node30 -->
<g id="node17" class="node">
<title>Node30</title>
<g id="a_node17"><a xlink:href="group__as__reader__writer.html#ga89e42a53f0db5cf22c8583c8e0c8a074" target="_top" xlink:title="Resets the hardware module.">
<polygon fill="none" stroke="red" points="157.5,-1436.5 157.5,-1455.5 285.5,-1455.5 285.5,-1436.5 157.5,-1436.5"/>
<text text-anchor="middle" x="221.5" y="-1443.5" font-family="Helvetica,sans-Serif" font-size="10.00">as_reader_writer_reset</text>
</a>
</g>
</g>
<!-- Node1&#45;&gt;Node30 -->
<g id="edge17" class="edge">
<title>Node1&#45;&gt;Node30</title>
<path fill="none" stroke="midnightblue" d="M391.41,-1037.83C386.95,-1111.85 367.56,-1370.6 312,-1427 304.75,-1434.35 295.42,-1439.2 285.52,-1442.33"/>
<polygon fill="midnightblue" stroke="midnightblue" points="394.92,-1037.78 392.01,-1027.6 387.93,-1037.38 394.92,-1037.78"/>
</g>
<!-- Node38 -->
<g id="node18" class="node">
<title>Node38</title>
<g id="a_node18"><a xlink:href="group__as__reader__writer.html#ga38bb160b6e30eb5fce6df2e4b4894fad" target="_top" xlink:title="Starts operation of hardware module.">
<polygon fill="none" stroke="red" points="153.5,-1398.5 153.5,-1417.5 289.5,-1417.5 289.5,-1398.5 153.5,-1398.5"/>
<text text-anchor="middle" x="221.5" y="-1405.5" font-family="Helvetica,sans-Serif" font-size="10.00">as_reader_writer_set_go</text>
</a>
</g>
</g>
<!-- Node1&#45;&gt;Node38 -->
<g id="edge18" class="edge">
<title>Node1&#45;&gt;Node38</title>
<path fill="none" stroke="midnightblue" d="M390.99,-1037.77C385.27,-1107.22 362.66,-1338.57 312,-1389 305.81,-1395.16 298.15,-1399.56 289.93,-1402.65"/>
<polygon fill="midnightblue" stroke="midnightblue" points="394.48,-1037.98 391.79,-1027.73 387.5,-1037.42 394.48,-1037.98"/>
</g>
<!-- Node39 -->
<g id="node19" class="node">
<title>Node39</title>
<g id="a_node19"><a xlink:href="group__as__reader__writer.html#gae1123634d5cf61d70bcfc7a87cda08bf" target="_top" xlink:title="Sets the maximum possible burst length to be performed by the hardware module.">
<polygon fill="none" stroke="red" points="162,-1349 162,-1379 281,-1379 281,-1349 162,-1349"/>
<text text-anchor="start" x="170" y="-1367" font-family="Helvetica,sans-Serif" font-size="10.00">as_reader_writer_set</text>
<text text-anchor="middle" x="221.5" y="-1356" font-family="Helvetica,sans-Serif" font-size="10.00">_max_burst_length</text>
</a>
</g>
</g>
<!-- Node1&#45;&gt;Node39 -->
<g id="edge19" class="edge">
<title>Node1&#45;&gt;Node39</title>
<path fill="none" stroke="midnightblue" d="M390.17,-1037.87C382.36,-1101.11 355.16,-1296.09 312,-1340 303.65,-1348.49 292.65,-1354.08 281.23,-1357.73"/>
<polygon fill="midnightblue" stroke="midnightblue" points="393.68,-1038.01 391.4,-1027.66 386.73,-1037.17 393.68,-1038.01"/>
</g>
<!-- Node40 -->
<g id="node20" class="node">
<title>Node40</title>
<g id="a_node20"><a xlink:href="group__as__reader__writer.html#ga43d2f73d7d42dd5704160d4ddacfaa1e" target="_top" xlink:title="Sets the start address of the first section to the given value.">
<polygon fill="none" stroke="red" points="162,-1300 162,-1330 281,-1330 281,-1300 162,-1300"/>
<text text-anchor="start" x="170" y="-1318" font-family="Helvetica,sans-Serif" font-size="10.00">as_reader_writer_set</text>
<text text-anchor="middle" x="221.5" y="-1307" font-family="Helvetica,sans-Serif" font-size="10.00">_section_addr</text>
</a>
</g>
</g>
<!-- Node1&#45;&gt;Node40 -->
<g id="edge20" class="edge">
<title>Node1&#45;&gt;Node40</title>
<path fill="none" stroke="midnightblue" d="M392.82,-1037.74C392.51,-1087.72 384.52,-1220.25 312,-1291 303.59,-1299.2 292.7,-1304.68 281.43,-1308.31"/>
<polygon fill="midnightblue" stroke="midnightblue" points="396.32,-1037.62 392.78,-1027.64 389.32,-1037.65 396.32,-1037.62"/>
</g>
<!-- Node41 -->
<g id="node21" class="node">
<title>Node41</title>
<g id="a_node21"><a xlink:href="group__as__reader__writer.html#ga4dd1a170b8e16005c286c0c0e7d8406f" target="_top" xlink:title="Sets the number of sections.">
<polygon fill="none" stroke="red" points="162,-1251 162,-1281 281,-1281 281,-1251 162,-1251"/>
<text text-anchor="start" x="170" y="-1269" font-family="Helvetica,sans-Serif" font-size="10.00">as_reader_writer_set</text>
<text text-anchor="middle" x="221.5" y="-1258" font-family="Helvetica,sans-Serif" font-size="10.00">_section_count</text>
</a>
</g>
</g>
<!-- Node1&#45;&gt;Node41 -->
<g id="edge21" class="edge">
<title>Node1&#45;&gt;Node41</title>
<path fill="none" stroke="midnightblue" d="M391.32,-1037.96C387.62,-1081.64 372.57,-1186.26 312,-1242 303.36,-1249.95 292.37,-1255.32 281.07,-1258.93"/>
<polygon fill="midnightblue" stroke="midnightblue" points="394.82,-1038.01 392.06,-1027.78 387.84,-1037.5 394.82,-1038.01"/>
</g>
<!-- Node42 -->
<g id="node22" class="node">
<title>Node42</title>
<g id="a_node22"><a xlink:href="group__as__reader__writer.html#ga12f11a3d7cff5ea8bdec75dedec35bab" target="_top" xlink:title="Sets the offset in bytes between the start addresses of two subsequent sections.">
<polygon fill="none" stroke="red" points="162,-1202 162,-1232 281,-1232 281,-1202 162,-1202"/>
<text text-anchor="start" x="170" y="-1220" font-family="Helvetica,sans-Serif" font-size="10.00">as_reader_writer_set</text>
<text text-anchor="middle" x="221.5" y="-1209" font-family="Helvetica,sans-Serif" font-size="10.00">_section_offset</text>
</a>
</g>
</g>
<!-- Node1&#45;&gt;Node42 -->
<g id="edge22" class="edge">
<title>Node1&#45;&gt;Node42</title>
<path fill="none" stroke="midnightblue" d="M389.14,-1037.51C381.85,-1073.76 361.11,-1151.57 312,-1193 303.15,-1200.47 292.19,-1205.64 281.02,-1209.2"/>
<polygon fill="midnightblue" stroke="midnightblue" points="392.58,-1038.15 390.99,-1027.68 385.7,-1036.86 392.58,-1038.15"/>
</g>
<!-- Node43 -->
<g id="node23" class="node">
<title>Node43</title>
<g id="a_node23"><a xlink:href="group__as__reader__writer.html#ga06436c5cb6a63439f2e4b7c14c71fb83" target="_top" xlink:title="Sets the size of a single section in bytes.">
<polygon fill="none" stroke="red" points="162,-1153 162,-1183 281,-1183 281,-1153 162,-1153"/>
<text text-anchor="start" x="170" y="-1171" font-family="Helvetica,sans-Serif" font-size="10.00">as_reader_writer_set</text>
<text text-anchor="middle" x="221.5" y="-1160" font-family="Helvetica,sans-Serif" font-size="10.00">_section_size</text>
</a>
</g>
</g>
<!-- Node1&#45;&gt;Node43 -->
<g id="edge23" class="edge">
<title>Node1&#45;&gt;Node43</title>
<path fill="none" stroke="midnightblue" d="M385.56,-1037.01C374.42,-1064.81 349.88,-1116.26 312,-1144 302.91,-1150.65 292.11,-1155.46 281.2,-1158.94"/>
<polygon fill="midnightblue" stroke="midnightblue" points="388.85,-1038.2 389.17,-1027.61 382.32,-1035.69 388.85,-1038.2"/>
</g>
<!-- Node44 -->
<g id="node24" class="node">
<title>Node44</title>
<g id="a_node24"><a xlink:href="group__as__sensor__ov7670.html#gaf89fa4859a31595f7a27f73514c109a3" target="_top" xlink:title=" ">
<polygon fill="none" stroke="black" points="151,-1104 151,-1134 292,-1134 292,-1104 151,-1104"/>
<text text-anchor="start" x="159" y="-1122" font-family="Helvetica,sans-Serif" font-size="10.00">as_sensor_ov7670_frame</text>
<text text-anchor="middle" x="221.5" y="-1111" font-family="Helvetica,sans-Serif" font-size="10.00">_is_transmitted</text>
</a>
</g>
</g>
<!-- Node1&#45;&gt;Node44 -->
<g id="edge24" class="edge">
<title>Node1&#45;&gt;Node44</title>
<path fill="none" stroke="midnightblue" d="M378.52,-1035.43C363.74,-1052.73 338.89,-1078.8 312,-1094 305.26,-1097.81 297.9,-1101.07 290.39,-1103.85"/>
<polygon fill="midnightblue" stroke="midnightblue" points="381.22,-1037.66 384.93,-1027.73 375.84,-1033.18 381.22,-1037.66"/>
</g>
<!-- Node45 -->
<g id="node25" class="node">
<title>Node45</title>
<g id="a_node25"><a xlink:href="group__as__sensor__ov7670.html#ga3392b840d710dcb57d9e7ce2221210dc" target="_top" xlink:title=" ">
<polygon fill="none" stroke="red" points="153,-1065.5 153,-1084.5 290,-1084.5 290,-1065.5 153,-1065.5"/>
<text text-anchor="middle" x="221.5" y="-1072.5" font-family="Helvetica,sans-Serif" font-size="10.00">as_sensor_ov7670_reset</text>
</a>
</g>
</g>
<!-- Node1&#45;&gt;Node45 -->
<g id="edge25" class="edge">
<title>Node1&#45;&gt;Node45</title>
<path fill="none" stroke="midnightblue" d="M366.44,-1032.19C350.98,-1040.13 330.8,-1049.66 312,-1056 301.01,-1059.7 289.01,-1062.84 277.47,-1065.43"/>
<polygon fill="midnightblue" stroke="midnightblue" points="368.16,-1035.24 375.4,-1027.5 364.91,-1029.04 368.16,-1035.24"/>
</g>
<!-- Node47 -->
<g id="node26" class="node">
<title>Node47</title>
<g id="a_node26"><a xlink:href="as__sensor__ov7670_8c.html#afa584132cfb864262d6910ce365472ba" target="_top" xlink:title=" ">
<polygon fill="none" stroke="red" points="131,-1027.5 131,-1046.5 312,-1046.5 312,-1027.5 131,-1027.5"/>
<text text-anchor="middle" x="221.5" y="-1034.5" font-family="Helvetica,sans-Serif" font-size="10.00">as_sensor_ov7670_resolution_set</text>
</a>
</g>
</g>
<!-- Node1&#45;&gt;Node47 -->
<g id="edge26" class="edge">
<title>Node1&#45;&gt;Node47</title>
<path fill="none" stroke="midnightblue" d="M337.67,-1024.13C328.06,-1025.2 317.86,-1026.34 307.66,-1027.48"/>
<polygon fill="midnightblue" stroke="midnightblue" points="338.29,-1027.58 347.83,-1022.99 337.51,-1020.62 338.29,-1027.58"/>
</g>
<!-- Node48 -->
<g id="node27" class="node">
<title>Node48</title>
<g id="a_node27"><a xlink:href="group__as__sensor__ov7670.html#ga8338b7849d9c82ef37edbdfe6e8fa632" target="_top" xlink:title=" ">
<polygon fill="none" stroke="black" points="157.5,-989.5 157.5,-1008.5 285.5,-1008.5 285.5,-989.5 157.5,-989.5"/>
<text text-anchor="middle" x="221.5" y="-996.5" font-family="Helvetica,sans-Serif" font-size="10.00">as_sensor_ov7670_run</text>
</a>
</g>
</g>
<!-- Node1&#45;&gt;Node48 -->
<g id="edge27" class="edge">
<title>Node1&#45;&gt;Node48</title>
<path fill="none" stroke="midnightblue" d="M337.76,-1011.88C321.17,-1010.03 302.82,-1007.98 285.72,-1006.07"/>
<polygon fill="midnightblue" stroke="midnightblue" points="337.51,-1015.38 347.83,-1013.01 338.29,-1008.42 337.51,-1015.38"/>
</g>
<!-- Node49 -->
<g id="node28" class="node">
<title>Node49</title>
<g id="a_node28"><a xlink:href="group__as__sensor__ov7670.html#ga13ad34ba60cebaf4c5392288b4da428c" target="_top" xlink:title=" ">
<polygon fill="none" stroke="black" points="143.5,-951.5 143.5,-970.5 299.5,-970.5 299.5,-951.5 143.5,-951.5"/>
<text text-anchor="middle" x="221.5" y="-958.5" font-family="Helvetica,sans-Serif" font-size="10.00">as_sensor_ov7670_run_once</text>
</a>
</g>
</g>
<!-- Node1&#45;&gt;Node49 -->
<g id="edge28" class="edge">
<title>Node1&#45;&gt;Node49</title>
<path fill="none" stroke="midnightblue" d="M366.44,-1003.81C350.98,-995.87 330.8,-986.34 312,-980 301.01,-976.3 289.01,-973.16 277.47,-970.57"/>
<polygon fill="midnightblue" stroke="midnightblue" points="364.91,-1006.96 375.4,-1008.5 368.16,-1000.76 364.91,-1006.96"/>
</g>
<!-- Node50 -->
<g id="node29" class="node">
<title>Node50</title>
<g id="a_node29"><a xlink:href="group__as__sensor__ov7670.html#gade1f741182323bec3bf92be7a17b3bcc" target="_top" xlink:title=" ">
<polygon fill="none" stroke="black" points="155,-913.5 155,-932.5 288,-932.5 288,-913.5 155,-913.5"/>
<text text-anchor="middle" x="221.5" y="-920.5" font-family="Helvetica,sans-Serif" font-size="10.00">as_sensor_ov7670_stop</text>
</a>
</g>
</g>
<!-- Node1&#45;&gt;Node50 -->
<g id="edge29" class="edge">
<title>Node1&#45;&gt;Node50</title>
<path fill="none" stroke="midnightblue" d="M378.95,-1000.49C364.35,-982.91 339.5,-956.42 312,-942 304.54,-938.09 296.34,-934.99 288.01,-932.52"/>
<polygon fill="midnightblue" stroke="midnightblue" points="376.25,-1002.72 385.25,-1008.31 381.7,-998.33 376.25,-1002.72"/>
</g>
<!-- Node51 -->
<g id="node30" class="node">
<title>Node51</title>
<g id="a_node30"><a xlink:href="group__as__threshold.html#gab57ae4379fa2b76f65c85e29a4235067" target="_top" xlink:title=" ">
<polygon fill="none" stroke="black" points="163,-864 163,-894 280,-894 280,-864 163,-864"/>
<text text-anchor="start" x="171" y="-882" font-family="Helvetica,sans-Serif" font-size="10.00">as_threshold_enable</text>
<text text-anchor="middle" x="221.5" y="-871" font-family="Helvetica,sans-Serif" font-size="10.00">_a_value</text>
</a>
</g>
</g>
<!-- Node1&#45;&gt;Node51 -->
<g id="edge30" class="edge">
<title>Node1&#45;&gt;Node51</title>
<path fill="none" stroke="midnightblue" d="M384.18,-999.05C372.02,-973.58 346.98,-928.67 312,-904 302.51,-897.31 291.27,-892.4 280.03,-888.81"/>
<polygon fill="midnightblue" stroke="midnightblue" points="381.1,-1000.74 388.46,-1008.36 387.46,-997.81 381.1,-1000.74"/>
</g>
<!-- Node52 -->
<g id="node31" class="node">
<title>Node52</title>
<g id="a_node31"><a xlink:href="group__as__threshold.html#ga821aa37f9a20d976605e06cbc17e631f" target="_top" xlink:title=" ">
<polygon fill="none" stroke="black" points="163,-815 163,-845 280,-845 280,-815 163,-815"/>
<text text-anchor="start" x="171" y="-833" font-family="Helvetica,sans-Serif" font-size="10.00">as_threshold_enable</text>
<text text-anchor="middle" x="221.5" y="-822" font-family="Helvetica,sans-Serif" font-size="10.00">_b_value</text>
</a>
</g>
</g>
<!-- Node1&#45;&gt;Node52 -->
<g id="edge31" class="edge">
<title>Node1&#45;&gt;Node52</title>
<path fill="none" stroke="midnightblue" d="M388.35,-998.44C380.03,-964.14 358.04,-893.17 312,-855 302.93,-847.48 291.76,-842.22 280.42,-838.54"/>
<polygon fill="midnightblue" stroke="midnightblue" points="384.94,-999.23 390.58,-1008.2 391.76,-997.67 384.94,-999.23"/>
</g>
<!-- Node53 -->
<g id="node32" class="node">
<title>Node53</title>
<g id="a_node32"><a xlink:href="group__as__threshold.html#gac427effb1fd260c777dc5ea58be9e77f" target="_top" xlink:title=" ">
<polygon fill="none" stroke="black" points="163,-766 163,-796 280,-796 280,-766 163,-766"/>
<text text-anchor="start" x="171" y="-784" font-family="Helvetica,sans-Serif" font-size="10.00">as_threshold_enable</text>
<text text-anchor="middle" x="221.5" y="-773" font-family="Helvetica,sans-Serif" font-size="10.00">_c_value</text>
</a>
</g>
</g>
<!-- Node1&#45;&gt;Node53 -->
<g id="edge32" class="edge">
<title>Node1&#45;&gt;Node53</title>
<path fill="none" stroke="midnightblue" d="M390.83,-998.29C386.21,-956.5 369.52,-858.53 312,-806 303.07,-797.84 291.68,-792.32 280.06,-788.58"/>
<polygon fill="midnightblue" stroke="midnightblue" points="387.35,-998.68 391.82,-1008.29 394.32,-997.99 387.35,-998.68"/>
</g>
<!-- Node54 -->
<g id="node33" class="node">
<title>Node54</title>
<g id="a_node33"><a xlink:href="group__as__threshold.html#ga9f720ebbf29d212931203c0839371be6" target="_top" xlink:title=" ">
<polygon fill="none" stroke="black" points="164,-727.5 164,-746.5 279,-746.5 279,-727.5 164,-727.5"/>
<text text-anchor="middle" x="221.5" y="-734.5" font-family="Helvetica,sans-Serif" font-size="10.00">as_threshold_get_t1</text>
</a>
</g>
</g>
<!-- Node1&#45;&gt;Node54 -->
<g id="edge33" class="edge">
<title>Node1&#45;&gt;Node54</title>
<path fill="none" stroke="midnightblue" d="M392.68,-998.29C392,-949.57 383.11,-822.68 312,-757 302.99,-748.68 291.31,-743.56 279.37,-740.46"/>
<polygon fill="midnightblue" stroke="midnightblue" points="389.18,-998.44 392.72,-1008.43 396.18,-998.42 389.18,-998.44"/>
</g>
<!-- Node55 -->
<g id="node34" class="node">
<title>Node55</title>
<g id="a_node34"><a xlink:href="group__as__threshold.html#ga4c241f45b820cc45b132f0c4f08e43a0" target="_top" xlink:title=" ">
<polygon fill="none" stroke="black" points="164,-689.5 164,-708.5 279,-708.5 279,-689.5 164,-689.5"/>
<text text-anchor="middle" x="221.5" y="-696.5" font-family="Helvetica,sans-Serif" font-size="10.00">as_threshold_get_t2</text>
</a>
</g>
</g>
<!-- Node1&#45;&gt;Node55 -->
<g id="edge34" class="edge">
<title>Node1&#45;&gt;Node55</title>
<path fill="none" stroke="midnightblue" d="M389.9,-998.22C381.55,-937.8 353.54,-757.39 312,-718 303.01,-709.47 291.19,-704.38 279.1,-701.42"/>
<polygon fill="midnightblue" stroke="midnightblue" points="386.46,-998.89 391.26,-1008.33 393.39,-997.95 386.46,-998.89"/>
</g>
<!-- Node56 -->
<g id="node35" class="node">
<title>Node56</title>
<g id="a_node35"><a xlink:href="group__as__threshold.html#gae62d1dc97502916e642b1f22d94907a7" target="_top" xlink:title=" ">
<polygon fill="none" stroke="black" points="166.5,-640 166.5,-670 276.5,-670 276.5,-640 166.5,-640"/>
<text text-anchor="start" x="174.5" y="-658" font-family="Helvetica,sans-Serif" font-size="10.00">as_threshold_set_a</text>
<text text-anchor="middle" x="221.5" y="-647" font-family="Helvetica,sans-Serif" font-size="10.00">_value</text>
</a>
</g>
</g>
<!-- Node1&#45;&gt;Node56 -->
<g id="edge35" class="edge">
<title>Node1&#45;&gt;Node56</title>
<path fill="none" stroke="midnightblue" d="M390.39,-998.01C383.09,-932.63 356.88,-726.65 312,-680 302.6,-670.23 289.74,-664.19 276.69,-660.47"/>
<polygon fill="midnightblue" stroke="midnightblue" points="386.94,-998.64 391.5,-1008.2 393.89,-997.88 386.94,-998.64"/>
</g>
<!-- Node57 -->
<g id="node36" class="node">
<title>Node57</title>
<g id="a_node36"><a xlink:href="group__as__threshold.html#gaacde349094d858c0e0cb7de97b7a0b02" target="_top" xlink:title=" ">
<polygon fill="none" stroke="black" points="166.5,-591 166.5,-621 276.5,-621 276.5,-591 166.5,-591"/>
<text text-anchor="start" x="174.5" y="-609" font-family="Helvetica,sans-Serif" font-size="10.00">as_threshold_set_b</text>
<text text-anchor="middle" x="221.5" y="-598" font-family="Helvetica,sans-Serif" font-size="10.00">_value</text>
</a>
</g>
</g>
<!-- Node1&#45;&gt;Node57 -->
<g id="edge36" class="edge">
<title>Node1&#45;&gt;Node57</title>
<path fill="none" stroke="midnightblue" d="M391.04,-997.97C385.42,-926.52 362.94,-685.49 312,-631 302.75,-621.1 289.93,-615.01 276.88,-611.29"/>
<polygon fill="midnightblue" stroke="midnightblue" points="387.57,-998.56 391.82,-1008.27 394.55,-998.03 387.57,-998.56"/>
</g>
<!-- Node58 -->
<g id="node37" class="node">
<title>Node58</title>
<g id="a_node37"><a xlink:href="group__as__threshold.html#gabe357fa631d024a9be6c410c404b51f1" target="_top" xlink:title=" ">
<polygon fill="none" stroke="black" points="166.5,-542 166.5,-572 276.5,-572 276.5,-542 166.5,-542"/>
<text text-anchor="start" x="174.5" y="-560" font-family="Helvetica,sans-Serif" font-size="10.00">as_threshold_set_c</text>
<text text-anchor="middle" x="221.5" y="-549" font-family="Helvetica,sans-Serif" font-size="10.00">_value</text>
</a>
</g>
</g>
<!-- Node1&#45;&gt;Node58 -->
<g id="edge37" class="edge">
<title>Node1&#45;&gt;Node58</title>
<path fill="none" stroke="midnightblue" d="M391.55,-997.97C387.47,-920.87 369.05,-644.42 312,-582 302.75,-571.88 289.77,-565.72 276.57,-562.01"/>
<polygon fill="midnightblue" stroke="midnightblue" points="388.06,-998.4 392.06,-1008.22 395.05,-998.05 388.06,-998.4"/>
</g>
<!-- Node59 -->
<g id="node38" class="node">
<title>Node59</title>
<g id="a_node38"><a xlink:href="group__as__threshold.html#ga6810bb581bbb6a0ac417fdc69b171b2d" target="_top" xlink:title=" ">
<polygon fill="none" stroke="black" points="164.5,-503.5 164.5,-522.5 278.5,-522.5 278.5,-503.5 164.5,-503.5"/>
<text text-anchor="middle" x="221.5" y="-510.5" font-family="Helvetica,sans-Serif" font-size="10.00">as_threshold_set_t1</text>
</a>
</g>
</g>
<!-- Node1&#45;&gt;Node59 -->
<g id="edge38" class="edge">
<title>Node1&#45;&gt;Node59</title>
<path fill="none" stroke="midnightblue" d="M392.06,-998.31C389.84,-916.17 377.13,-601.84 312,-533 303.25,-523.75 291.22,-518.32 278.83,-515.24"/>
<polygon fill="midnightblue" stroke="midnightblue" points="388.57,-998.4 392.31,-1008.31 395.56,-998.23 388.57,-998.4"/>
</g>
<!-- Node60 -->
<g id="node39" class="node">
<title>Node60</title>
<g id="a_node39"><a xlink:href="group__as__threshold.html#gad7125c18114253bc9aabc77c982748f6" target="_top" xlink:title=" ">
<polygon fill="none" stroke="black" points="164.5,-465.5 164.5,-484.5 278.5,-484.5 278.5,-465.5 164.5,-465.5"/>
<text text-anchor="middle" x="221.5" y="-472.5" font-family="Helvetica,sans-Serif" font-size="10.00">as_threshold_set_t2</text>
</a>
</g>
</g>
<!-- Node1&#45;&gt;Node60 -->
<g id="edge39" class="edge">
<title>Node1&#45;&gt;Node60</title>
<path fill="none" stroke="midnightblue" d="M392.35,-998.12C391.27,-911.58 382.55,-568.68 312,-494 303.27,-484.76 291.26,-479.44 278.87,-476.5"/>
<polygon fill="midnightblue" stroke="midnightblue" points="388.85,-998.41 392.45,-1008.38 395.85,-998.34 388.85,-998.41"/>
</g>
<!-- Node61 -->
<g id="node40" class="node">
<title>Node61</title>
<g id="a_node40"><a xlink:href="group__as__reader__writer.html#ga3a166cc3d15dae4f4d7ba9ddc2fd1ca6" target="_top" xlink:title="Returns the number of received units by the reader_writer.">
<polygon fill="none" stroke="black" points="158,-416 158,-446 285,-446 285,-416 158,-416"/>
<text text-anchor="start" x="166" y="-434" font-family="Helvetica,sans-Serif" font-size="10.00">as_writer_get_cur_unit</text>
<text text-anchor="middle" x="221.5" y="-423" font-family="Helvetica,sans-Serif" font-size="10.00">_count</text>
</a>
</g>
</g>
<!-- Node1&#45;&gt;Node61 -->
<g id="edge40" class="edge">
<title>Node1&#45;&gt;Node61</title>
<path fill="none" stroke="midnightblue" d="M392.46,-997.95C391.85,-907.6 384.88,-539.03 312,-456 304.87,-447.88 295.34,-442.29 285.16,-438.48"/>
<polygon fill="midnightblue" stroke="midnightblue" points="388.96,-998.2 392.5,-1008.18 395.96,-998.17 388.96,-998.2"/>
</g>
<!-- Node62 -->
<g id="node41" class="node">
<title>Node62</title>
<g id="a_node41"><a xlink:href="group__as__reader__writer.html#ga1ed314dbb9e93fbcbab70d4db197e3b6" target="_top" xlink:title="Returns the first address after the last successfully written unit.">
<polygon fill="none" stroke="red" points="148.5,-367 148.5,-397 294.5,-397 294.5,-367 148.5,-367"/>
<text text-anchor="start" x="156.5" y="-385" font-family="Helvetica,sans-Serif" font-size="10.00">as_writer_get_last</text>
<text text-anchor="middle" x="221.5" y="-374" font-family="Helvetica,sans-Serif" font-size="10.00">_data_unit_complete_addr</text>
</a>
</g>
</g>
<!-- Node1&#45;&gt;Node62 -->
<g id="edge41" class="edge">
<title>Node1&#45;&gt;Node62</title>
<path fill="none" stroke="midnightblue" d="M392.71,-998.04C393.3,-903.12 391.1,-498.15 312,-407 307.14,-401.39 301.13,-397 294.55,-393.55"/>
<polygon fill="midnightblue" stroke="midnightblue" points="389.21,-998.23 392.63,-1008.26 396.21,-998.29 389.21,-998.23"/>
</g>
<!-- Node63 -->
<g id="node42" class="node">
<title>Node63</title>
<g id="a_node42"><a xlink:href="group__as__reader__writer.html#ga40ca99b7af59a16e22779352f77a3faf" target="_top" xlink:title="Checks if there is buffered data.">
<polygon fill="none" stroke="black" points="145.5,-328.5 145.5,-347.5 297.5,-347.5 297.5,-328.5 145.5,-328.5"/>
<text text-anchor="middle" x="221.5" y="-335.5" font-family="Helvetica,sans-Serif" font-size="10.00">as_writer_is_flushable_data</text>
</a>
</g>
</g>
<!-- Node1&#45;&gt;Node63 -->
<g id="edge42" class="edge">
<title>Node1&#45;&gt;Node63</title>
<path fill="none" stroke="midnightblue" d="M391.44,-998.39C385.63,-894.05 356.26,-406.85 312,-358 307.94,-353.52 303.11,-349.92 297.83,-347.06"/>
<polygon fill="midnightblue" stroke="midnightblue" points="387.95,-998.68 391.99,-1008.47 394.94,-998.29 387.95,-998.68"/>
</g>
<!-- Node64 -->
<g id="node43" class="node">
<title>Node64</title>
<g id="a_node43"><a xlink:href="group__as__reader__writer.html#ga51f9bb06fb4dce80f58545f9cb080d3c" target="_top" xlink:title="Checks if the module accepts data.">
<polygon fill="none" stroke="black" points="154.5,-290.5 154.5,-309.5 288.5,-309.5 288.5,-290.5 154.5,-290.5"/>
<text text-anchor="middle" x="221.5" y="-297.5" font-family="Helvetica,sans-Serif" font-size="10.00">as_writer_is_set_enable</text>
</a>
</g>
</g>
<!-- Node1&#45;&gt;Node64 -->
<g id="edge43" class="edge">
<title>Node1&#45;&gt;Node64</title>
<path fill="none" stroke="midnightblue" d="M391.58,-998.25C386.38,-889.92 359.09,-370.77 312,-319 305.69,-312.07 297.54,-307.32 288.73,-304.12"/>
<polygon fill="midnightblue" stroke="midnightblue" points="388.1,-998.59 392.06,-1008.42 395.09,-998.26 388.1,-998.59"/>
</g>
<!-- Node65 -->
<g id="node44" class="node">
<title>Node65</title>
<g id="a_node44"><a xlink:href="group__as__reader__writer.html#ga8ffa108d758f416593d508d00fdbfed6" target="_top" xlink:title="Checks if module has dropped data.">
<polygon fill="none" stroke="red" points="156,-252.5 156,-271.5 287,-271.5 287,-252.5 156,-252.5"/>
<text text-anchor="middle" x="221.5" y="-259.5" font-family="Helvetica,sans-Serif" font-size="10.00">as_writer_is_sync_error</text>
</a>
</g>
</g>
<!-- Node1&#45;&gt;Node65 -->
<g id="edge44" class="edge">
<title>Node1&#45;&gt;Node65</title>
<path fill="none" stroke="midnightblue" d="M391.71,-998.24C387.03,-886.4 361.61,-335.86 312,-281 305.39,-273.7 296.74,-268.81 287.41,-265.61"/>
<polygon fill="midnightblue" stroke="midnightblue" points="388.22,-998.58 392.12,-1008.42 395.21,-998.29 388.22,-998.58"/>
</g>
<!-- Node66 -->
<g id="node45" class="node">
<title>Node66</title>
<g id="a_node45"><a xlink:href="group__as__reader__writer.html#ga8daf0ef0b9d732e9388ba62e69842c8d" target="_top" xlink:title="Disable module input port.">
<polygon fill="none" stroke="black" points="160.5,-214.5 160.5,-233.5 282.5,-233.5 282.5,-214.5 160.5,-214.5"/>
<text text-anchor="middle" x="221.5" y="-221.5" font-family="Helvetica,sans-Serif" font-size="10.00">as_writer_set_disable</text>
</a>
</g>
</g>
<!-- Node1&#45;&gt;Node66 -->
<g id="edge45" class="edge">
<title>Node1&#45;&gt;Node66</title>
<path fill="none" stroke="midnightblue" d="M391.82,-998.31C387.66,-883.25 364.15,-300.97 312,-243 304.35,-234.5 293.93,-229.27 282.89,-226.16"/>
<polygon fill="midnightblue" stroke="midnightblue" points="388.33,-998.6 392.18,-1008.47 395.32,-998.35 388.33,-998.6"/>
</g>
<!-- Node67 -->
<g id="node46" class="node">
<title>Node67</title>
<g id="a_node46"><a xlink:href="group__as__reader__writer.html#ga2c3650318b12edaf3f4473fed557cc74" target="_top" xlink:title="Disable module if no operation is queued.">
<polygon fill="none" stroke="red" points="160.5,-165 160.5,-195 282.5,-195 282.5,-165 160.5,-165"/>
<text text-anchor="start" x="168.5" y="-183" font-family="Helvetica,sans-Serif" font-size="10.00">as_writer_set_disable</text>
<text text-anchor="middle" x="221.5" y="-172" font-family="Helvetica,sans-Serif" font-size="10.00">_on_no_go</text>
</a>
</g>
</g>
<!-- Node1&#45;&gt;Node67 -->
<g id="edge46" class="edge">
<title>Node1&#45;&gt;Node67</title>
<path fill="none" stroke="midnightblue" d="M391.86,-998.13C387.84,-879.51 364.69,-267.74 312,-205 304.43,-195.98 293.89,-190.07 282.71,-186.24"/>
<polygon fill="midnightblue" stroke="midnightblue" points="388.36,-998.43 392.19,-1008.31 395.36,-998.2 388.36,-998.43"/>
</g>
<!-- Node68 -->
<g id="node47" class="node">
<title>Node68</title>
<g id="a_node47"><a xlink:href="group__as__reader__writer.html#ga1ef22dbd33d87de51113837dd9123c6f" target="_top" xlink:title="Enable module input port.">
<polygon fill="none" stroke="red" points="161.5,-126.5 161.5,-145.5 281.5,-145.5 281.5,-126.5 161.5,-126.5"/>
<text text-anchor="middle" x="221.5" y="-133.5" font-family="Helvetica,sans-Serif" font-size="10.00">as_writer_set_enable</text>
</a>
</g>
</g>
<!-- Node1&#45;&gt;Node68 -->
<g id="edge47" class="edge">
<title>Node1&#45;&gt;Node68</title>
<path fill="none" stroke="midnightblue" d="M392.02,-998.06C388.88,-874.94 369.56,-221.36 312,-156 304.11,-147.04 293.16,-141.61 281.62,-138.42"/>
<polygon fill="midnightblue" stroke="midnightblue" points="388.53,-998.37 392.27,-1008.28 395.52,-998.19 388.53,-998.37"/>
</g>
<!-- Node69 -->
<g id="node48" class="node">
<title>Node69</title>
<g id="a_node48"><a xlink:href="group__as__reader__writer.html#ga4756adb209e0fcf64abc204b21ea8095" target="_top" xlink:title="Enable module input port on data unit complete.">
<polygon fill="none" stroke="black" points="153.5,-77 153.5,-107 289.5,-107 289.5,-77 153.5,-77"/>
<text text-anchor="start" x="161.5" y="-95" font-family="Helvetica,sans-Serif" font-size="10.00">as_writer_set_enable</text>
<text text-anchor="middle" x="221.5" y="-84" font-family="Helvetica,sans-Serif" font-size="10.00">_on_data_unit_complete</text>
</a>
</g>
</g>
<!-- Node1&#45;&gt;Node69 -->
<g id="edge48" class="edge">
<title>Node1&#45;&gt;Node69</title>
<path fill="none" stroke="midnightblue" d="M392.06,-998.38C389.11,-873.01 370.37,-187.18 312,-117 306.02,-109.81 298.15,-104.59 289.56,-100.82"/>
<polygon fill="midnightblue" stroke="midnightblue" points="388.57,-998.53 392.3,-1008.44 395.57,-998.37 388.57,-998.53"/>
</g>
<!-- Node70 -->
<g id="node49" class="node">
<title>Node70</title>
<g id="a_node49"><a xlink:href="group__as__reader__writer.html#ga9215e95a07cc87392a5f12f73c981b1a" target="_top" xlink:title="Flush data to memory.">
<polygon fill="none" stroke="black" points="166,-38.5 166,-57.5 277,-57.5 277,-38.5 166,-38.5"/>
<text text-anchor="middle" x="221.5" y="-45.5" font-family="Helvetica,sans-Serif" font-size="10.00">as_writer_set_flush</text>
</a>
</g>
</g>
<!-- Node1&#45;&gt;Node70 -->
<g id="edge49" class="edge">
<title>Node1&#45;&gt;Node70</title>
<path fill="none" stroke="midnightblue" d="M392.2,-998.08C390.08,-867.82 375.4,-140.62 312,-68 303.1,-57.81 290.24,-52.18 277.04,-49.2"/>
<polygon fill="midnightblue" stroke="midnightblue" points="388.7,-998.26 392.36,-1008.21 395.7,-998.15 388.7,-998.26"/>
</g>
<!-- Node71 -->
<g id="node50" class="node">
<title>Node71</title>
<g id="a_node50"><a xlink:href="group__as__reader__writer.html#ga98542cb8dd5f6f0ee3b1cae12a1422e2" target="_top" xlink:title="Transfer single data unit to memory.">
<polygon fill="none" stroke="black" points="150,-0.5 150,-19.5 293,-19.5 293,-0.5 150,-0.5"/>
<text text-anchor="middle" x="221.5" y="-7.5" font-family="Helvetica,sans-Serif" font-size="10.00">as_writer_set_single_shot</text>
</a>
</g>
</g>
<!-- Node1&#45;&gt;Node71 -->
<g id="edge50" class="edge">
<title>Node1&#45;&gt;Node71</title>
<path fill="none" stroke="midnightblue" d="M392.28,-998.09C390.64,-864.77 378.4,-104.49 312,-29 306.86,-23.16 300.41,-18.85 293.34,-15.71"/>
<polygon fill="midnightblue" stroke="midnightblue" points="388.79,-998.46 392.4,-1008.42 395.79,-998.38 388.79,-998.46"/>
</g>
<!-- Node6 -->
<g id="node6" class="node">
<title>Node6</title>
<g id="a_node6"><a xlink:href="group__as__gensync.html#ga471165ace4958548c722f223f04eee07" target="_top" xlink:title=" ">
<polygon fill="none" stroke="black" points="0,-1859.5 0,-1878.5 95,-1878.5 95,-1859.5 0,-1859.5"/>
<text text-anchor="middle" x="47.5" y="-1866.5" font-family="Helvetica,sans-Serif" font-size="10.00">as_gensync_init</text>
</a>
</g>
</g>
<!-- Node5&#45;&gt;Node6 -->
<g id="edge5" class="edge">
<title>Node5&#45;&gt;Node6</title>
<path fill="none" stroke="midnightblue" d="M134.84,-1878.54C121.12,-1877.02 107.38,-1875.5 95.03,-1874.14"/>
<polygon fill="midnightblue" stroke="midnightblue" points="134.48,-1882.02 144.81,-1879.64 135.25,-1875.06 134.48,-1882.02"/>
</g>
<!-- Node7&#45;&gt;Node6 -->
<g id="edge7" class="edge">
<title>Node7&#45;&gt;Node6</title>
<path fill="none" stroke="midnightblue" d="M148.91,-1857.91C130.73,-1859.92 111.68,-1862.02 95.11,-1863.85"/>
<polygon fill="midnightblue" stroke="midnightblue" points="149.33,-1861.38 158.89,-1856.81 148.57,-1854.42 149.33,-1861.38"/>
</g>
</g>
</svg>
