<?xml version="1.0" encoding="UTF-8" standalone="no"?>
<!DOCTYPE svg PUBLIC "-//W3C//DTD SVG 1.1//EN"
 "http://www.w3.org/Graphics/SVG/1.1/DTD/svg11.dtd">
<!-- Generated by graphviz version 2.43.0 (0)
 -->
<!-- Title: as_iic_read_reg Pages: 1 -->
<svg width="1532pt" height="446pt"
 viewBox="0.00 0.00 1532.00 446.13" xmlns="http://www.w3.org/2000/svg" xmlns:xlink="http://www.w3.org/1999/xlink">
<g id="graph0" class="graph" transform="scale(1 1) rotate(0) translate(4 442.13)">
<title>as_iic_read_reg</title>
<!-- Node1 -->
<g id="node1" class="node">
<title>Node1</title>
<g id="a_node1"><a xlink:title=" ">
<polygon fill="#bfbfbf" stroke="black" points="0,-276.68 0,-295.68 92,-295.68 92,-276.68 0,-276.68"/>
<text text-anchor="middle" x="46" y="-283.68" font-family="Helvetica,sans-Serif" font-size="10.00">as_iic_read_reg</text>
</a>
</g>
</g>
<!-- Node2 -->
<g id="node2" class="node">
<title>Node2</title>
<g id="a_node2"><a xlink:href="group__as__iic__user.html#gacf3e3b915e1f15ed8bdc60ab4c129996" target="_top" xlink:title=" ">
<polygon fill="none" stroke="black" points="132.5,-238.68 132.5,-257.68 224.5,-257.68 224.5,-238.68 132.5,-238.68"/>
<text text-anchor="middle" x="178.5" y="-245.68" font-family="Helvetica,sans-Serif" font-size="10.00">as_iic_get_byte</text>
</a>
</g>
</g>
<!-- Node1&#45;&gt;Node2 -->
<g id="edge1" class="edge">
<title>Node1&#45;&gt;Node2</title>
<path fill="none" stroke="midnightblue" d="M79.93,-276.59C96.62,-271.73 117.09,-265.77 134.96,-260.56"/>
<polygon fill="midnightblue" stroke="midnightblue" points="135.96,-263.92 144.58,-257.76 134,-257.2 135.96,-263.92"/>
</g>
<!-- Node11 -->
<g id="node11" class="node">
<title>Node11</title>
<g id="a_node11"><a xlink:href="group__asterics__support.html#gab803703ab5b845023ca31b7b2664419c" target="_top" xlink:title=" ">
<polygon fill="none" stroke="black" points="998,-311.68 998,-330.68 1057,-330.68 1057,-311.68 998,-311.68"/>
<text text-anchor="middle" x="1027.5" y="-318.68" font-family="Helvetica,sans-Serif" font-size="10.00">as_sleep</text>
</a>
</g>
</g>
<!-- Node1&#45;&gt;Node11 -->
<g id="edge46" class="edge">
<title>Node1&#45;&gt;Node11</title>
<path fill="none" stroke="midnightblue" d="M57.3,-295.8C92.26,-327.43 210.82,-426.18 328,-426.18 328,-426.18 328,-426.18 678.5,-426.18 794.14,-426.18 836.53,-462.64 938,-407.18 961.4,-394.39 954.98,-377.87 974,-359.18 982.51,-350.81 992.99,-342.85 1002.33,-336.4"/>
<polygon fill="midnightblue" stroke="midnightblue" points="1004.48,-339.18 1010.85,-330.71 1000.59,-333.35 1004.48,-339.18"/>
</g>
<!-- Node26 -->
<g id="node26" class="node">
<title>Node26</title>
<g id="a_node26"><a xlink:href="group__as__iic__user.html#ga35cd65c29b1f4abd1ca87ca51605e5cc" target="_top" xlink:title=" ">
<polygon fill="none" stroke="black" points="128,-276.68 128,-295.68 229,-295.68 229,-276.68 128,-276.68"/>
<text text-anchor="middle" x="178.5" y="-283.68" font-family="Helvetica,sans-Serif" font-size="10.00">as_iic_write_byte</text>
</a>
</g>
</g>
<!-- Node1&#45;&gt;Node26 -->
<g id="edge42" class="edge">
<title>Node1&#45;&gt;Node26</title>
<path fill="none" stroke="midnightblue" d="M92.28,-286.18C100.44,-286.18 109.07,-286.18 117.57,-286.18"/>
<polygon fill="midnightblue" stroke="midnightblue" points="117.85,-289.68 127.85,-286.18 117.85,-282.68 117.85,-289.68"/>
</g>
<!-- Node3 -->
<g id="node3" class="node">
<title>Node3</title>
<g id="a_node3"><a xlink:href="group__as__iic__user.html#ga30385c0c387c1629188745edf9c824c1" target="_top" xlink:title=" ">
<polygon fill="none" stroke="black" points="269.5,-219.68 269.5,-238.68 388.5,-238.68 388.5,-219.68 269.5,-219.68"/>
<text text-anchor="middle" x="329" y="-226.68" font-family="Helvetica,sans-Serif" font-size="10.00">as_iic_get_byte_mod</text>
</a>
</g>
</g>
<!-- Node2&#45;&gt;Node3 -->
<g id="edge2" class="edge">
<title>Node2&#45;&gt;Node3</title>
<path fill="none" stroke="midnightblue" d="M224.86,-242.37C235.75,-240.98 247.61,-239.46 259.3,-237.97"/>
<polygon fill="midnightblue" stroke="midnightblue" points="260.01,-241.41 269.49,-236.66 259.12,-234.46 260.01,-241.41"/>
</g>
<!-- Node4 -->
<g id="node4" class="node">
<title>Node4</title>
<g id="a_node4"><a xlink:href="group__as__iic__helpers.html#ga53e6050a2c66be89ac23084fd9de9c23" target="_top" xlink:title=" ">
<polygon fill="none" stroke="black" points="429,-219.68 429,-238.68 561,-238.68 561,-219.68 429,-219.68"/>
<text text-anchor="middle" x="495" y="-226.68" font-family="Helvetica,sans-Serif" font-size="10.00">as_iic_start_transaction</text>
</a>
</g>
</g>
<!-- Node3&#45;&gt;Node4 -->
<g id="edge3" class="edge">
<title>Node3&#45;&gt;Node4</title>
<path fill="none" stroke="midnightblue" d="M388.74,-229.18C398.53,-229.18 408.8,-229.18 418.93,-229.18"/>
<polygon fill="midnightblue" stroke="midnightblue" points="418.99,-232.68 428.99,-229.18 418.99,-225.68 418.99,-232.68"/>
</g>
<!-- Node24 -->
<g id="node24" class="node">
<title>Node24</title>
<g id="a_node24"><a xlink:href="group__as__iic__helpers.html#gaa8ce9ac10b8c2ca9b614110ca5cbeff5" target="_top" xlink:title=" ">
<polygon fill="none" stroke="black" points="598.5,-62.68 598.5,-81.68 756.5,-81.68 756.5,-62.68 598.5,-62.68"/>
<text text-anchor="middle" x="677.5" y="-69.68" font-family="Helvetica,sans-Serif" font-size="10.00">as_iic_stop_read_transaction</text>
</a>
</g>
</g>
<!-- Node3&#45;&gt;Node24 -->
<g id="edge35" class="edge">
<title>Node3&#45;&gt;Node24</title>
<path fill="none" stroke="midnightblue" d="M346.72,-219.59C388.1,-196.16 499.04,-135.04 597,-96.18 607.57,-91.98 619.17,-88.1 630.16,-84.73"/>
<polygon fill="midnightblue" stroke="midnightblue" points="631.46,-87.99 640.04,-81.78 629.46,-81.28 631.46,-87.99"/>
</g>
<!-- Node5 -->
<g id="node5" class="node">
<title>Node5</title>
<g id="a_node5"><a xlink:href="group__as__iic__bitchecks.html#gaa4e8718c748b5a7e956a38ffd6dbe15d" target="_top" xlink:title=" ">
<polygon fill="none" stroke="black" points="809,-340.68 809,-359.68 923,-359.68 923,-340.68 809,-340.68"/>
<text text-anchor="middle" x="866" y="-347.68" font-family="Helvetica,sans-Serif" font-size="10.00">as_iic_ack_received</text>
</a>
</g>
</g>
<!-- Node4&#45;&gt;Node5 -->
<g id="edge4" class="edge">
<title>Node4&#45;&gt;Node5</title>
<path fill="none" stroke="midnightblue" d="M503.35,-238.88C518.48,-258.03 555.21,-300.44 597,-319.18 661.27,-348 742.52,-353.65 798.62,-353.42"/>
<polygon fill="midnightblue" stroke="midnightblue" points="798.83,-356.92 808.79,-353.31 798.75,-349.92 798.83,-356.92"/>
</g>
<!-- Node9 -->
<g id="node9" class="node">
<title>Node9</title>
<g id="a_node9"><a xlink:href="group__as__iic__wait.html#gad3cfec26b8a73166e060108cf1444a2b" target="_top" xlink:title=" ">
<polygon fill="none" stroke="black" points="807,-253.18 807,-283.18 925,-283.18 925,-253.18 807,-253.18"/>
<text text-anchor="start" x="815" y="-271.18" font-family="Helvetica,sans-Serif" font-size="10.00">as_iic_busy_wait_for</text>
<text text-anchor="middle" x="866" y="-260.18" font-family="Helvetica,sans-Serif" font-size="10.00">_hwready</text>
</a>
</g>
</g>
<!-- Node4&#45;&gt;Node9 -->
<g id="edge8" class="edge">
<title>Node4&#45;&gt;Node9</title>
<path fill="none" stroke="midnightblue" d="M561.12,-236.06C627.34,-243.06 729.52,-253.86 796.83,-260.97"/>
<polygon fill="midnightblue" stroke="midnightblue" points="796.59,-264.47 806.91,-262.04 797.33,-257.51 796.59,-264.47"/>
</g>
<!-- Node10 -->
<g id="node10" class="node">
<title>Node10</title>
<g id="a_node10"><a xlink:href="group__as__iic__user.html#gacdb0c71d0fcfe5e50a7f7316762cd0c0" target="_top" xlink:title=" ">
<polygon fill="none" stroke="black" points="982,-235.68 982,-254.68 1073,-254.68 1073,-235.68 982,-235.68"/>
<text text-anchor="middle" x="1027.5" y="-242.68" font-family="Helvetica,sans-Serif" font-size="10.00">as_iic_is_ready</text>
</a>
</g>
</g>
<!-- Node4&#45;&gt;Node10 -->
<g id="edge20" class="edge">
<title>Node4&#45;&gt;Node10</title>
<path fill="none" stroke="midnightblue" d="M561.05,-231.14C666.6,-234.32 873.27,-240.56 971.77,-243.53"/>
<polygon fill="midnightblue" stroke="midnightblue" points="971.71,-247.03 981.81,-243.83 971.92,-240.03 971.71,-247.03"/>
</g>
<!-- Node15 -->
<g id="node15" class="node">
<title>Node15</title>
<g id="a_node15"><a xlink:href="group__as__iic__wait.html#ga0bc5aad64893b674c42943fb64d17676" target="_top" xlink:title=" ">
<polygon fill="none" stroke="black" points="794,-378.68 794,-397.68 938,-397.68 938,-378.68 794,-378.68"/>
<text text-anchor="middle" x="866" y="-385.68" font-family="Helvetica,sans-Serif" font-size="10.00">as_iic_busy_wait_for_wait</text>
</a>
</g>
</g>
<!-- Node4&#45;&gt;Node15 -->
<g id="edge15" class="edge">
<title>Node4&#45;&gt;Node15</title>
<path fill="none" stroke="midnightblue" d="M500.98,-239.02C513.49,-262.59 548.7,-322.3 597,-349.18 653.95,-380.87 727.81,-389.68 783.56,-391.09"/>
<polygon fill="midnightblue" stroke="midnightblue" points="783.69,-394.59 793.75,-391.27 783.82,-387.59 783.69,-394.59"/>
</g>
<!-- Node17 -->
<g id="node17" class="node">
<title>Node17</title>
<g id="a_node17"><a xlink:href="group__as__iic__bitchecks.html#gad90ab4c2ed7fbca8f768c87cdb5794ee" target="_top" xlink:title=" ">
<polygon fill="none" stroke="black" points="622,-138.68 622,-157.68 733,-157.68 733,-138.68 622,-138.68"/>
<text text-anchor="middle" x="677.5" y="-145.68" font-family="Helvetica,sans-Serif" font-size="10.00">as_iic_is_initialized</text>
</a>
</g>
</g>
<!-- Node4&#45;&gt;Node17 -->
<g id="edge19" class="edge">
<title>Node4&#45;&gt;Node17</title>
<path fill="none" stroke="midnightblue" d="M510.53,-219.61C529.7,-207.32 564.78,-185.93 597,-172.18 607.15,-167.84 618.34,-163.96 629.04,-160.63"/>
<polygon fill="midnightblue" stroke="midnightblue" points="630.11,-163.97 638.69,-157.75 628.1,-157.26 630.11,-163.97"/>
</g>
<!-- Node18 -->
<g id="node18" class="node">
<title>Node18</title>
<g id="a_node18"><a xlink:href="group__as__iic__user.html#gae03c311fae3d6a830878a2b0c2c1c2bf" target="_top" xlink:title=" ">
<polygon fill="none" stroke="black" points="804,-100.68 804,-119.68 928,-119.68 928,-100.68 804,-100.68"/>
<text text-anchor="middle" x="866" y="-107.68" font-family="Helvetica,sans-Serif" font-size="10.00">as_iic_reset_hw_state</text>
</a>
</g>
</g>
<!-- Node4&#45;&gt;Node18 -->
<g id="edge21" class="edge">
<title>Node4&#45;&gt;Node18</title>
<path fill="none" stroke="midnightblue" d="M502.14,-219.53C516.05,-198.63 552.28,-149.45 597,-129.18 659.09,-101.03 737.64,-98.83 793.61,-102.12"/>
<polygon fill="midnightblue" stroke="midnightblue" points="793.58,-105.63 803.79,-102.8 794.04,-98.64 793.58,-105.63"/>
</g>
<!-- Node19 -->
<g id="node19" class="node">
<title>Node19</title>
<g id="a_node19"><a xlink:href="group__as__iic__reg__funcs.html#gac83a48fc09234a7a99adafb1ce565eb0" target="_top" xlink:title=" ">
<polygon fill="none" stroke="black" points="975.5,-100.68 975.5,-119.68 1079.5,-119.68 1079.5,-100.68 975.5,-100.68"/>
<text text-anchor="middle" x="1027.5" y="-107.68" font-family="Helvetica,sans-Serif" font-size="10.00">as_iic_set_control</text>
</a>
</g>
</g>
<!-- Node4&#45;&gt;Node19 -->
<g id="edge25" class="edge">
<title>Node4&#45;&gt;Node19</title>
<path fill="none" stroke="midnightblue" d="M498.18,-219.27C505.59,-188.2 533.04,-92.42 597,-53.18 726.24,26.11 794.27,5.09 938,-43.18 967.2,-52.98 994.44,-76.67 1010.78,-93.07"/>
<polygon fill="midnightblue" stroke="midnightblue" points="1008.43,-95.68 1017.89,-100.45 1013.47,-90.82 1008.43,-95.68"/>
</g>
<!-- Node22 -->
<g id="node22" class="node">
<title>Node22</title>
<g id="a_node22"><a xlink:href="group__as__iic__reg__funcs.html#ga8058473baeded71954aa72ee8df24e9b" target="_top" xlink:title=" ">
<polygon fill="none" stroke="black" points="974,-138.68 974,-157.68 1081,-157.68 1081,-138.68 974,-138.68"/>
<text text-anchor="middle" x="1027.5" y="-145.68" font-family="Helvetica,sans-Serif" font-size="10.00">as_iic_set_data_tx</text>
</a>
</g>
</g>
<!-- Node4&#45;&gt;Node22 -->
<g id="edge26" class="edge">
<title>Node4&#45;&gt;Node22</title>
<path fill="none" stroke="midnightblue" d="M558.42,-219.65C660.36,-204.08 861.47,-173.38 963.68,-157.77"/>
<polygon fill="midnightblue" stroke="midnightblue" points="964.49,-161.19 973.85,-156.22 963.44,-154.27 964.49,-161.19"/>
</g>
<!-- Node23 -->
<g id="node23" class="node">
<title>Node23</title>
<g id="a_node23"><a xlink:href="group__as__iic__helpers.html#ga67cc002a1b20c75dc26f7b328ca5ddc9" target="_top" xlink:title=" ">
<polygon fill="none" stroke="black" points="597,-290.68 597,-309.68 758,-309.68 758,-290.68 597,-290.68"/>
<text text-anchor="middle" x="677.5" y="-297.68" font-family="Helvetica,sans-Serif" font-size="10.00">as_iic_stop_write_transaction</text>
</a>
</g>
</g>
<!-- Node4&#45;&gt;Node23 -->
<g id="edge29" class="edge">
<title>Node4&#45;&gt;Node23</title>
<path fill="none" stroke="midnightblue" d="M514.64,-238.83C534.65,-248.96 567.54,-264.94 597,-276.18 607.94,-280.35 619.94,-284.29 631.22,-287.73"/>
<polygon fill="midnightblue" stroke="midnightblue" points="630.33,-291.11 640.91,-290.61 632.33,-284.4 630.33,-291.11"/>
</g>
<!-- Node6 -->
<g id="node6" class="node">
<title>Node6</title>
<g id="a_node6"><a xlink:href="group__as__iic__reg__funcs.html#ga8daa8fde0a7776aa2f5b335250b5aa2a" target="_top" xlink:title=" ">
<polygon fill="none" stroke="black" points="1117,-254.68 1117,-273.68 1239,-273.68 1239,-254.68 1117,-254.68"/>
<text text-anchor="middle" x="1178" y="-261.68" font-family="Helvetica,sans-Serif" font-size="10.00">as_iic_get_status_reg</text>
</a>
</g>
</g>
<!-- Node5&#45;&gt;Node6 -->
<g id="edge5" class="edge">
<title>Node5&#45;&gt;Node6</title>
<path fill="none" stroke="midnightblue" d="M885.04,-340.49C905.9,-329.67 941.55,-312.33 974,-302.18 1017.12,-288.68 1066.99,-279.26 1106.5,-273.18"/>
<polygon fill="midnightblue" stroke="midnightblue" points="1107.21,-276.61 1116.58,-271.66 1106.17,-269.69 1107.21,-276.61"/>
</g>
<!-- Node7 -->
<g id="node7" class="node">
<title>Node7</title>
<g id="a_node7"><a xlink:href="group__asterics__support.html#ga8e5c2bfd2e4498d10289377bd94cef07" target="_top" xlink:title=" ">
<polygon fill="none" stroke="black" points="1293.5,-138.68 1293.5,-157.68 1369.5,-157.68 1369.5,-138.68 1293.5,-138.68"/>
<text text-anchor="middle" x="1331.5" y="-145.68" font-family="Helvetica,sans-Serif" font-size="10.00">as_reg_read</text>
</a>
</g>
</g>
<!-- Node6&#45;&gt;Node7 -->
<g id="edge6" class="edge">
<title>Node6&#45;&gt;Node7</title>
<path fill="none" stroke="midnightblue" d="M1191.66,-254.49C1217.79,-234.48 1277.93,-188.43 1309.8,-164.03"/>
<polygon fill="midnightblue" stroke="midnightblue" points="1312.17,-166.62 1317.99,-157.76 1307.92,-161.06 1312.17,-166.62"/>
</g>
<!-- Node8 -->
<g id="node8" class="node">
<title>Node8</title>
<g id="a_node8"><a xlink:href="group__asterics__support.html#ga4c6d688b840a6e2edc9bc0b8ed961677" target="_top" xlink:title=" ">
<polygon fill="none" stroke="black" points="1424,-138.68 1424,-157.68 1524,-157.68 1524,-138.68 1424,-138.68"/>
<text text-anchor="middle" x="1474" y="-145.68" font-family="Helvetica,sans-Serif" font-size="10.00">as_reg_to_uint32</text>
</a>
</g>
</g>
<!-- Node7&#45;&gt;Node8 -->
<g id="edge7" class="edge">
<title>Node7&#45;&gt;Node8</title>
<path fill="none" stroke="midnightblue" d="M1369.78,-148.18C1383.26,-148.18 1398.83,-148.18 1413.72,-148.18"/>
<polygon fill="midnightblue" stroke="midnightblue" points="1413.89,-151.68 1423.89,-148.18 1413.89,-144.68 1413.89,-151.68"/>
</g>
<!-- Node9&#45;&gt;Node10 -->
<g id="edge9" class="edge">
<title>Node9&#45;&gt;Node10</title>
<path fill="none" stroke="midnightblue" d="M925.03,-259.81C940.23,-257.62 956.57,-255.26 971.6,-253.09"/>
<polygon fill="midnightblue" stroke="midnightblue" points="972.37,-256.52 981.76,-251.63 971.37,-249.59 972.37,-256.52"/>
</g>
<!-- Node9&#45;&gt;Node11 -->
<g id="edge11" class="edge">
<title>Node9&#45;&gt;Node11</title>
<path fill="none" stroke="midnightblue" d="M912.28,-283.22C936.19,-291.17 965.21,-300.81 988.02,-308.39"/>
<polygon fill="midnightblue" stroke="midnightblue" points="987.11,-311.78 997.7,-311.61 989.32,-305.13 987.11,-311.78"/>
</g>
<!-- Node10&#45;&gt;Node6 -->
<g id="edge10" class="edge">
<title>Node10&#45;&gt;Node6</title>
<path fill="none" stroke="midnightblue" d="M1073.05,-250.88C1083.69,-252.24 1095.31,-253.72 1106.79,-255.19"/>
<polygon fill="midnightblue" stroke="midnightblue" points="1106.46,-258.68 1116.82,-256.48 1107.34,-251.74 1106.46,-258.68"/>
</g>
<!-- Node12 -->
<g id="node12" class="node">
<title>Node12</title>
<g id="a_node12"><a xlink:href="group__asterics__support.html#ga284d9e0d170cf7cabc16ccd7e62d95bd" target="_top" xlink:title=" ">
<polygon fill="none" stroke="black" points="1149.5,-311.68 1149.5,-330.68 1206.5,-330.68 1206.5,-311.68 1149.5,-311.68"/>
<text text-anchor="middle" x="1178" y="-318.68" font-family="Helvetica,sans-Serif" font-size="10.00">as_yield</text>
</a>
</g>
</g>
<!-- Node11&#45;&gt;Node12 -->
<g id="edge12" class="edge">
<title>Node11&#45;&gt;Node12</title>
<path fill="none" stroke="midnightblue" d="M1057.13,-321.18C1080.54,-321.18 1113.82,-321.18 1139.38,-321.18"/>
<polygon fill="midnightblue" stroke="midnightblue" points="1139.46,-324.68 1149.46,-321.18 1139.46,-317.68 1139.46,-324.68"/>
</g>
<!-- Node13 -->
<g id="node13" class="node">
<title>Node13</title>
<g id="a_node13"><a xlink:href="group__asterics__support.html#gad294e0c5530bd6fb800a2394179070e1" target="_top" xlink:title=" ">
<polygon fill="none" stroke="black" points="1286.5,-330.68 1286.5,-349.68 1376.5,-349.68 1376.5,-330.68 1286.5,-330.68"/>
<text text-anchor="middle" x="1331.5" y="-337.68" font-family="Helvetica,sans-Serif" font-size="10.00">as_mutex_lock</text>
</a>
</g>
</g>
<!-- Node12&#45;&gt;Node13 -->
<g id="edge13" class="edge">
<title>Node12&#45;&gt;Node13</title>
<path fill="none" stroke="midnightblue" d="M1206.79,-324.66C1226.13,-327.09 1252.57,-330.4 1276.04,-333.35"/>
<polygon fill="midnightblue" stroke="midnightblue" points="1275.88,-336.85 1286.23,-334.63 1276.75,-329.91 1275.88,-336.85"/>
</g>
<!-- Node14 -->
<g id="node14" class="node">
<title>Node14</title>
<g id="a_node14"><a xlink:href="group__asterics__support.html#ga07e09e825f2608339f6213edb9d0c8b3" target="_top" xlink:title=" ">
<polygon fill="none" stroke="black" points="1280.5,-292.68 1280.5,-311.68 1382.5,-311.68 1382.5,-292.68 1280.5,-292.68"/>
<text text-anchor="middle" x="1331.5" y="-299.68" font-family="Helvetica,sans-Serif" font-size="10.00">as_mutex_unlock</text>
</a>
</g>
</g>
<!-- Node12&#45;&gt;Node14 -->
<g id="edge14" class="edge">
<title>Node12&#45;&gt;Node14</title>
<path fill="none" stroke="midnightblue" d="M1206.79,-317.69C1224.57,-315.46 1248.33,-312.48 1270.28,-309.73"/>
<polygon fill="midnightblue" stroke="midnightblue" points="1270.72,-313.2 1280.21,-308.48 1269.85,-306.26 1270.72,-313.2"/>
</g>
<!-- Node15&#45;&gt;Node11 -->
<g id="edge18" class="edge">
<title>Node15&#45;&gt;Node11</title>
<path fill="none" stroke="midnightblue" d="M909.21,-378.64C918.81,-375.98 928.87,-372.81 938,-369.18 960.74,-360.11 985.09,-346.6 1002.48,-336.22"/>
<polygon fill="midnightblue" stroke="midnightblue" points="1004.64,-339 1011.37,-330.82 1001.01,-333.02 1004.64,-339"/>
</g>
<!-- Node16 -->
<g id="node16" class="node">
<title>Node16</title>
<g id="a_node16"><a xlink:href="group__as__iic__bitchecks.html#ga4629e4514c3531d0bcd44ae20abc6bad" target="_top" xlink:title=" ">
<polygon fill="none" stroke="black" points="978,-368.68 978,-387.68 1077,-387.68 1077,-368.68 978,-368.68"/>
<text text-anchor="middle" x="1027.5" y="-375.68" font-family="Helvetica,sans-Serif" font-size="10.00">as_iic_is_waiting</text>
</a>
</g>
</g>
<!-- Node15&#45;&gt;Node16 -->
<g id="edge16" class="edge">
<title>Node15&#45;&gt;Node16</title>
<path fill="none" stroke="midnightblue" d="M938.35,-383.7C948.1,-383.09 958.01,-382.47 967.51,-381.88"/>
<polygon fill="midnightblue" stroke="midnightblue" points="967.85,-385.36 977.62,-381.24 967.42,-378.37 967.85,-385.36"/>
</g>
<!-- Node16&#45;&gt;Node6 -->
<g id="edge17" class="edge">
<title>Node16&#45;&gt;Node6</title>
<path fill="none" stroke="midnightblue" d="M1043.31,-368.55C1054.14,-361.25 1068.98,-350.71 1081,-340.18 1098.5,-324.85 1099.04,-316.96 1117,-302.18 1127.41,-293.61 1139.88,-285.43 1150.75,-278.86"/>
<polygon fill="midnightblue" stroke="midnightblue" points="1152.58,-281.85 1159.42,-273.76 1149.02,-275.82 1152.58,-281.85"/>
</g>
<!-- Node18&#45;&gt;Node19 -->
<g id="edge22" class="edge">
<title>Node18&#45;&gt;Node19</title>
<path fill="none" stroke="midnightblue" d="M928.21,-110.18C940.36,-110.18 953.11,-110.18 965.26,-110.18"/>
<polygon fill="midnightblue" stroke="midnightblue" points="965.3,-113.68 975.3,-110.18 965.3,-106.68 965.3,-113.68"/>
</g>
<!-- Node20 -->
<g id="node20" class="node">
<title>Node20</title>
<g id="a_node20"><a xlink:href="group__asterics__support.html#ga6345b997e24a6cd5f9143cef27629d49" target="_top" xlink:title=" ">
<polygon fill="none" stroke="black" points="1138.5,-100.68 1138.5,-119.68 1217.5,-119.68 1217.5,-100.68 1138.5,-100.68"/>
<text text-anchor="middle" x="1178" y="-107.68" font-family="Helvetica,sans-Serif" font-size="10.00">as_reg_write</text>
</a>
</g>
</g>
<!-- Node19&#45;&gt;Node20 -->
<g id="edge23" class="edge">
<title>Node19&#45;&gt;Node20</title>
<path fill="none" stroke="midnightblue" d="M1079.61,-110.18C1095.28,-110.18 1112.49,-110.18 1128.02,-110.18"/>
<polygon fill="midnightblue" stroke="midnightblue" points="1128.47,-113.68 1138.47,-110.18 1128.47,-106.68 1128.47,-113.68"/>
</g>
<!-- Node21 -->
<g id="node21" class="node">
<title>Node21</title>
<g id="a_node21"><a xlink:href="group__asterics__support.html#gab651cc2c035ce61b354578434e59f822" target="_top" xlink:title=" ">
<polygon fill="none" stroke="black" points="1275,-100.68 1275,-119.68 1388,-119.68 1388,-100.68 1275,-100.68"/>
<text text-anchor="middle" x="1331.5" y="-107.68" font-family="Helvetica,sans-Serif" font-size="10.00">as_reg_from_uint32</text>
</a>
</g>
</g>
<!-- Node20&#45;&gt;Node21 -->
<g id="edge24" class="edge">
<title>Node20&#45;&gt;Node21</title>
<path fill="none" stroke="midnightblue" d="M1217.62,-110.18C1231.86,-110.18 1248.43,-110.18 1264.41,-110.18"/>
<polygon fill="midnightblue" stroke="midnightblue" points="1264.79,-113.68 1274.79,-110.18 1264.79,-106.68 1264.79,-113.68"/>
</g>
<!-- Node22&#45;&gt;Node7 -->
<g id="edge27" class="edge">
<title>Node22&#45;&gt;Node7</title>
<path fill="none" stroke="midnightblue" d="M1081.1,-148.18C1138.1,-148.18 1228.22,-148.18 1283.1,-148.18"/>
<polygon fill="midnightblue" stroke="midnightblue" points="1283.25,-151.68 1293.25,-148.18 1283.25,-144.68 1283.25,-151.68"/>
</g>
<!-- Node22&#45;&gt;Node20 -->
<g id="edge28" class="edge">
<title>Node22&#45;&gt;Node20</title>
<path fill="none" stroke="midnightblue" d="M1065.97,-138.59C1085.39,-133.62 1109.3,-127.5 1129.95,-122.22"/>
<polygon fill="midnightblue" stroke="midnightblue" points="1130.98,-125.57 1139.8,-119.7 1129.24,-118.79 1130.98,-125.57"/>
</g>
<!-- Node23&#45;&gt;Node5 -->
<g id="edge30" class="edge">
<title>Node23&#45;&gt;Node5</title>
<path fill="none" stroke="midnightblue" d="M714.02,-309.7C744,-317.74 787.1,-329.29 819.58,-338"/>
<polygon fill="midnightblue" stroke="midnightblue" points="818.73,-341.4 829.3,-340.61 820.54,-334.64 818.73,-341.4"/>
</g>
<!-- Node23&#45;&gt;Node9 -->
<g id="edge31" class="edge">
<title>Node23&#45;&gt;Node9</title>
<path fill="none" stroke="midnightblue" d="M733.95,-290.66C753.7,-287.27 776.17,-283.42 796.85,-279.87"/>
<polygon fill="midnightblue" stroke="midnightblue" points="797.58,-283.3 806.85,-278.16 796.4,-276.4 797.58,-283.3"/>
</g>
<!-- Node23&#45;&gt;Node11 -->
<g id="edge34" class="edge">
<title>Node23&#45;&gt;Node11</title>
<path fill="none" stroke="midnightblue" d="M758.34,-305C830.16,-309.33 932.62,-315.51 987.78,-318.84"/>
<polygon fill="midnightblue" stroke="midnightblue" points="987.64,-322.34 997.83,-319.45 988.06,-315.35 987.64,-322.34"/>
</g>
<!-- Node23&#45;&gt;Node18 -->
<g id="edge32" class="edge">
<title>Node23&#45;&gt;Node18</title>
<path fill="none" stroke="midnightblue" d="M686.54,-290.51C704.83,-268.67 751.33,-214.16 794,-172.18 810.58,-155.87 830.63,-138.56 845.19,-126.39"/>
<polygon fill="midnightblue" stroke="midnightblue" points="847.6,-128.94 853.06,-119.86 843.13,-123.55 847.6,-128.94"/>
</g>
<!-- Node23&#45;&gt;Node19 -->
<g id="edge33" class="edge">
<title>Node23&#45;&gt;Node19</title>
<path fill="none" stroke="midnightblue" d="M693.07,-290.49C735.21,-262.75 861.44,-181.61 974,-129.18 978.38,-127.14 983.05,-125.17 987.72,-123.32"/>
<polygon fill="midnightblue" stroke="midnightblue" points="989.13,-126.54 997.24,-119.73 986.65,-119.99 989.13,-126.54"/>
</g>
<!-- Node24&#45;&gt;Node9 -->
<g id="edge36" class="edge">
<title>Node24&#45;&gt;Node9</title>
<path fill="none" stroke="midnightblue" d="M694.78,-81.86C711.64,-92.31 738.22,-110.06 758,-129.18 795.34,-165.27 830.42,-214.96 849.67,-244.12"/>
<polygon fill="midnightblue" stroke="midnightblue" points="846.96,-246.36 855.35,-252.82 852.82,-242.53 846.96,-246.36"/>
</g>
<!-- Node24&#45;&gt;Node11 -->
<g id="edge41" class="edge">
<title>Node24&#45;&gt;Node11</title>
<path fill="none" stroke="midnightblue" d="M756.8,-67.91C823.24,-66.04 911.84,-68.26 938,-91.18 997.08,-142.93 938.1,-194.33 974,-264.18 982.02,-279.78 995.48,-294.27 1006.77,-304.74"/>
<polygon fill="midnightblue" stroke="midnightblue" points="1004.69,-307.58 1014.49,-311.61 1009.35,-302.35 1004.69,-307.58"/>
</g>
<!-- Node24&#45;&gt;Node18 -->
<g id="edge39" class="edge">
<title>Node24&#45;&gt;Node18</title>
<path fill="none" stroke="midnightblue" d="M725.56,-81.77C750.73,-86.89 781.9,-93.24 808.38,-98.64"/>
<polygon fill="midnightblue" stroke="midnightblue" points="807.78,-102.09 818.28,-100.66 809.18,-95.23 807.78,-102.09"/>
</g>
<!-- Node24&#45;&gt;Node19 -->
<g id="edge40" class="edge">
<title>Node24&#45;&gt;Node19</title>
<path fill="none" stroke="midnightblue" d="M717.12,-62.63C768.52,-51.6 861.81,-37.45 938,-58.18 963.77,-65.19 989.7,-81.81 1006.77,-94.39"/>
<polygon fill="midnightblue" stroke="midnightblue" points="1004.76,-97.26 1014.84,-100.53 1009,-91.69 1004.76,-97.26"/>
</g>
<!-- Node25 -->
<g id="node25" class="node">
<title>Node25</title>
<g id="a_node25"><a xlink:href="group__as__iic__reg__funcs.html#gace5813084165559c81fe11db6b628b5e" target="_top" xlink:title=" ">
<polygon fill="none" stroke="black" points="1124.5,-5.68 1124.5,-24.68 1231.5,-24.68 1231.5,-5.68 1124.5,-5.68"/>
<text text-anchor="middle" x="1178" y="-12.68" font-family="Helvetica,sans-Serif" font-size="10.00">as_iic_get_rx_byte</text>
</a>
</g>
</g>
<!-- Node24&#45;&gt;Node25 -->
<g id="edge37" class="edge">
<title>Node24&#45;&gt;Node25</title>
<path fill="none" stroke="midnightblue" d="M710.55,-62.54C733.56,-56.02 765.42,-47.77 794,-43.18 905.75,-25.2 1037.71,-18.75 1113.94,-16.45"/>
<polygon fill="midnightblue" stroke="midnightblue" points="1114.42,-19.94 1124.32,-16.15 1114.22,-12.94 1114.42,-19.94"/>
</g>
<!-- Node25&#45;&gt;Node7 -->
<g id="edge38" class="edge">
<title>Node25&#45;&gt;Node7</title>
<path fill="none" stroke="midnightblue" d="M1186.69,-24.9C1207.46,-51.07 1263.9,-121.58 1275,-129.18 1277.86,-131.14 1280.94,-132.91 1284.13,-134.51"/>
<polygon fill="midnightblue" stroke="midnightblue" points="1282.77,-137.74 1293.33,-138.59 1285.61,-131.34 1282.77,-137.74"/>
</g>
<!-- Node27 -->
<g id="node27" class="node">
<title>Node27</title>
<g id="a_node27"><a xlink:href="group__as__iic__user.html#ga08fcff0dba9d6b4898291746d2206408" target="_top" xlink:title=" ">
<polygon fill="none" stroke="black" points="265,-276.68 265,-295.68 393,-295.68 393,-276.68 265,-276.68"/>
<text text-anchor="middle" x="329" y="-283.68" font-family="Helvetica,sans-Serif" font-size="10.00">as_iic_write_byte_mod</text>
</a>
</g>
</g>
<!-- Node26&#45;&gt;Node27 -->
<g id="edge43" class="edge">
<title>Node26&#45;&gt;Node27</title>
<path fill="none" stroke="midnightblue" d="M229.36,-286.18C237.54,-286.18 246.16,-286.18 254.76,-286.18"/>
<polygon fill="midnightblue" stroke="midnightblue" points="254.82,-289.68 264.82,-286.18 254.82,-282.68 254.82,-289.68"/>
</g>
<!-- Node27&#45;&gt;Node4 -->
<g id="edge44" class="edge">
<title>Node27&#45;&gt;Node4</title>
<path fill="none" stroke="midnightblue" d="M357.45,-276.64C384.65,-267.18 426.5,-252.64 456.7,-242.14"/>
<polygon fill="midnightblue" stroke="midnightblue" points="458.16,-245.34 466.46,-238.75 455.87,-238.73 458.16,-245.34"/>
</g>
<!-- Node27&#45;&gt;Node23 -->
<g id="edge45" class="edge">
<title>Node27&#45;&gt;Node23</title>
<path fill="none" stroke="midnightblue" d="M393.15,-288.73C447.22,-290.91 525.71,-294.08 586.38,-296.54"/>
<polygon fill="midnightblue" stroke="midnightblue" points="586.58,-300.05 596.72,-296.95 586.87,-293.05 586.58,-300.05"/>
</g>
</g>
</svg>
