<?xml version="1.0" encoding="UTF-8" standalone="no"?>
<!DOCTYPE svg PUBLIC "-//W3C//DTD SVG 1.1//EN"
 "http://www.w3.org/Graphics/SVG/1.1/DTD/svg11.dtd">
<!-- Generated by graphviz version 2.43.0 (0)
 -->
<!-- Title: vears_overlay_on Pages: 1 -->
<svg width="457pt" height="183pt"
 viewBox="0.00 0.00 457.00 183.00" xmlns="http://www.w3.org/2000/svg" xmlns:xlink="http://www.w3.org/1999/xlink">
<g id="graph0" class="graph" transform="scale(1 1) rotate(0) translate(4 179)">
<title>vears_overlay_on</title>
<!-- Node1 -->
<g id="node1" class="node">
<title>Node1</title>
<g id="a_node1"><a xlink:title="Enable the VEARS modules overlay operation.">
<polygon fill="#bfbfbf" stroke="black" points="0,-57.5 0,-76.5 103,-76.5 103,-57.5 0,-57.5"/>
<text text-anchor="middle" x="51.5" y="-64.5" font-family="Helvetica,sans-Serif" font-size="10.00">vears_overlay_on</text>
</a>
</g>
</g>
<!-- Node2 -->
<g id="node2" class="node">
<title>Node2</title>
<g id="a_node2"><a xlink:href="group__vears__overlay.html#ga0694011d30f43e2c4c614119c81c74a0" target="_top" xlink:title="Clear the current draw overlay.">
<polygon fill="none" stroke="black" points="149,-117.5 149,-136.5 264,-136.5 264,-117.5 149,-117.5"/>
<text text-anchor="middle" x="206.5" y="-124.5" font-family="Helvetica,sans-Serif" font-size="10.00">vears_overlay_clear</text>
</a>
</g>
</g>
<!-- Node1&#45;&gt;Node2 -->
<g id="edge1" class="edge">
<title>Node1&#45;&gt;Node2</title>
<path fill="none" stroke="midnightblue" d="M72.9,-76.61C90.28,-84.65 116.03,-96.18 139,-105 147.33,-108.2 156.35,-111.37 164.98,-114.27"/>
<polygon fill="midnightblue" stroke="midnightblue" points="163.9,-117.6 174.5,-117.41 166.1,-110.95 163.9,-117.6"/>
</g>
<!-- Node5 -->
<g id="node5" class="node">
<title>Node5</title>
<g id="a_node5"><a xlink:href="group__vears__overlay.html#gac2bbf918679083cde66d20cbd14d5c7d" target="_top" xlink:title="Set the current target overlay for subsequent drawing.">
<polygon fill="none" stroke="black" points="144,-76.5 144,-95.5 269,-95.5 269,-76.5 144,-76.5"/>
<text text-anchor="middle" x="206.5" y="-83.5" font-family="Helvetica,sans-Serif" font-size="10.00">vears_overlay_drawto</text>
</a>
</g>
</g>
<!-- Node1&#45;&gt;Node5 -->
<g id="edge4" class="edge">
<title>Node1&#45;&gt;Node5</title>
<path fill="none" stroke="midnightblue" d="M103.02,-73.27C112.92,-74.5 123.47,-75.81 133.9,-77.11"/>
<polygon fill="midnightblue" stroke="midnightblue" points="133.48,-80.58 143.84,-78.34 134.34,-73.64 133.48,-80.58"/>
</g>
<!-- Node7 -->
<g id="node7" class="node">
<title>Node7</title>
<g id="a_node7"><a xlink:href="group__vears__driver.html#ga131ffd2ca121aea36286568e3c8a57c7" target="_top" xlink:title="Set entry of the overlay color map.">
<polygon fill="none" stroke="black" points="139,-38.5 139,-57.5 274,-57.5 274,-38.5 139,-38.5"/>
<text text-anchor="middle" x="206.5" y="-45.5" font-family="Helvetica,sans-Serif" font-size="10.00">vears_overlay_set_color</text>
</a>
</g>
</g>
<!-- Node1&#45;&gt;Node7 -->
<g id="edge6" class="edge">
<title>Node1&#45;&gt;Node7</title>
<path fill="none" stroke="midnightblue" d="M103.02,-60.73C111.37,-59.69 120.19,-58.59 129,-57.5"/>
<polygon fill="midnightblue" stroke="midnightblue" points="129.44,-60.97 138.93,-56.27 128.58,-54.03 129.44,-60.97"/>
</g>
<!-- Node8 -->
<g id="node8" class="node">
<title>Node8</title>
<g id="a_node8"><a xlink:href="group__vears__driver.html#gabaf6a60417efd2efa949667b2ddfd154" target="_top" xlink:title="Set the overlay base address.">
<polygon fill="none" stroke="black" points="148.5,-0.5 148.5,-19.5 264.5,-19.5 264.5,-0.5 148.5,-0.5"/>
<text text-anchor="middle" x="206.5" y="-7.5" font-family="Helvetica,sans-Serif" font-size="10.00">vears_overlay_show</text>
</a>
</g>
</g>
<!-- Node1&#45;&gt;Node8 -->
<g id="edge7" class="edge">
<title>Node1&#45;&gt;Node8</title>
<path fill="none" stroke="midnightblue" d="M72.12,-57.47C89.45,-49.27 115.55,-37.46 139,-29 145.37,-26.7 152.17,-24.49 158.89,-22.45"/>
<polygon fill="midnightblue" stroke="midnightblue" points="160.03,-25.76 168.63,-19.57 158.05,-19.05 160.03,-25.76"/>
</g>
<!-- Node3 -->
<g id="node3" class="node">
<title>Node3</title>
<g id="a_node3"><a xlink:href="ea__erase_8c.html#a89724ca74b21a55c1b456c12f36e92ea" target="_top" xlink:title=" ">
<polygon fill="none" stroke="black" points="349,-155.5 349,-174.5 410,-174.5 410,-155.5 349,-155.5"/>
<text text-anchor="middle" x="379.5" y="-162.5" font-family="Helvetica,sans-Serif" font-size="10.00">ea_erase</text>
</a>
</g>
</g>
<!-- Node2&#45;&gt;Node3 -->
<g id="edge2" class="edge">
<title>Node2&#45;&gt;Node3</title>
<path fill="none" stroke="midnightblue" d="M250.65,-136.59C277.73,-142.61 312.39,-150.31 338.78,-156.17"/>
<polygon fill="midnightblue" stroke="midnightblue" points="338.3,-159.65 348.82,-158.41 339.82,-152.82 338.3,-159.65"/>
</g>
<!-- Node4 -->
<g id="node4" class="node">
<title>Node4</title>
<g id="a_node4"><a xlink:href="vears_8c.html#a5c9f2a05f3fe62106f55e90dbcc9cf53" target="_top" xlink:title=" ">
<polygon fill="none" stroke="black" points="312,-117.5 312,-136.5 447,-136.5 447,-117.5 312,-117.5"/>
<text text-anchor="middle" x="379.5" y="-124.5" font-family="Helvetica,sans-Serif" font-size="10.00">flush_cache_for_overlay</text>
</a>
</g>
</g>
<!-- Node2&#45;&gt;Node4 -->
<g id="edge3" class="edge">
<title>Node2&#45;&gt;Node4</title>
<path fill="none" stroke="midnightblue" d="M264.44,-127C276.28,-127 288.95,-127 301.38,-127"/>
<polygon fill="midnightblue" stroke="midnightblue" points="301.74,-130.5 311.74,-127 301.74,-123.5 301.74,-130.5"/>
</g>
<!-- Node6 -->
<g id="node6" class="node">
<title>Node6</title>
<g id="a_node6"><a xlink:href="ea__set__overlay__software__address_8c.html#a0fe824df3698fa1c4032b3acd1220a5d" target="_top" xlink:title=" ">
<polygon fill="none" stroke="black" points="310,-68 310,-98 449,-98 449,-68 310,-68"/>
<text text-anchor="start" x="318" y="-86" font-family="Helvetica,sans-Serif" font-size="10.00">ea_set_overlay_software</text>
<text text-anchor="middle" x="379.5" y="-75" font-family="Helvetica,sans-Serif" font-size="10.00">_address</text>
</a>
</g>
</g>
<!-- Node5&#45;&gt;Node6 -->
<g id="edge5" class="edge">
<title>Node5&#45;&gt;Node6</title>
<path fill="none" stroke="midnightblue" d="M269.23,-84.92C279.14,-84.74 289.5,-84.56 299.73,-84.38"/>
<polygon fill="midnightblue" stroke="midnightblue" points="299.97,-87.88 309.9,-84.2 299.84,-80.88 299.97,-87.88"/>
</g>
</g>
</svg>
