<?xml version="1.0" encoding="UTF-8" standalone="no"?>
<!DOCTYPE svg PUBLIC "-//W3C//DTD SVG 1.1//EN"
 "http://www.w3.org/Graphics/SVG/1.1/DTD/svg11.dtd">
<!-- Generated by graphviz version 2.43.0 (0)
 -->
<!-- Title: as_buffer_obj_destroy Pages: 1 -->
<svg width="435pt" height="142pt"
 viewBox="0.00 0.00 435.00 142.00" xmlns="http://www.w3.org/2000/svg" xmlns:xlink="http://www.w3.org/1999/xlink">
<g id="graph0" class="graph" transform="scale(1 1) rotate(0) translate(4 138)">
<title>as_buffer_obj_destroy</title>
<!-- Node1 -->
<g id="node1" class="node">
<title>Node1</title>
<g id="a_node1"><a xlink:title=" ">
<polygon fill="#bfbfbf" stroke="black" points="302,-57.5 302,-76.5 427,-76.5 427,-57.5 302,-57.5"/>
<text text-anchor="middle" x="364.5" y="-64.5" font-family="Helvetica,sans-Serif" font-size="10.00">as_buffer_obj_destroy</text>
</a>
</g>
</g>
<!-- Node2 -->
<g id="node2" class="node">
<title>Node2</title>
<g id="a_node2"><a xlink:href="group__ctrl__file__ops.html#gae869fa3bd595179fcf2a22ff931aee9c" target="_top" xlink:title=" ">
<polygon fill="none" stroke="black" points="170.5,-114.5 170.5,-133.5 263.5,-133.5 263.5,-114.5 170.5,-114.5"/>
<text text-anchor="middle" x="217" y="-121.5" font-family="Helvetica,sans-Serif" font-size="10.00">as_control_ioctl</text>
</a>
</g>
</g>
<!-- Node1&#45;&gt;Node2 -->
<g id="edge1" class="edge">
<title>Node1&#45;&gt;Node2</title>
<path fill="none" stroke="midnightblue" d="M329.8,-80.2C303.08,-90.67 266.38,-105.05 242.43,-114.43"/>
<polygon fill="midnightblue" stroke="midnightblue" points="331.11,-83.45 339.15,-76.54 328.56,-76.93 331.11,-83.45"/>
</g>
<!-- Node3 -->
<g id="node3" class="node">
<title>Node3</title>
<g id="a_node3"><a xlink:href="as__memio_8h.html#a80ef9367a40bd09868b8faea1884a5a8" target="_top" xlink:title=" ">
<polygon fill="none" stroke="black" points="168,-76.5 168,-95.5 266,-95.5 266,-76.5 168,-76.5"/>
<text text-anchor="middle" x="217" y="-83.5" font-family="Helvetica,sans-Serif" font-size="10.00">as_memio_close</text>
</a>
</g>
</g>
<!-- Node1&#45;&gt;Node3 -->
<g id="edge2" class="edge">
<title>Node1&#45;&gt;Node3</title>
<path fill="none" stroke="midnightblue" d="M291.66,-76.38C283,-77.51 274.32,-78.65 266.12,-79.72"/>
<polygon fill="midnightblue" stroke="midnightblue" points="292.33,-79.82 301.79,-75.06 291.43,-72.88 292.33,-79.82"/>
</g>
<!-- Node5 -->
<g id="node5" class="node">
<title>Node5</title>
<g id="a_node5"><a xlink:href="as__memio_8h.html#acb0c0a633ce7890008c6f6f1f2eca285" target="_top" xlink:title=" ">
<polygon fill="none" stroke="black" points="168.5,-38.5 168.5,-57.5 265.5,-57.5 265.5,-38.5 168.5,-38.5"/>
<text text-anchor="middle" x="217" y="-45.5" font-family="Helvetica,sans-Serif" font-size="10.00">as_memio_open</text>
</a>
</g>
</g>
<!-- Node1&#45;&gt;Node5 -->
<g id="edge4" class="edge">
<title>Node1&#45;&gt;Node5</title>
<path fill="none" stroke="midnightblue" d="M291.82,-57.64C282.95,-56.48 274.06,-55.32 265.67,-54.23"/>
<polygon fill="midnightblue" stroke="midnightblue" points="291.43,-61.12 301.79,-58.94 292.33,-54.18 291.43,-61.12"/>
</g>
<!-- Node7 -->
<g id="node7" class="node">
<title>Node7</title>
<g id="a_node7"><a xlink:href="group__as__driver.html#ga3091544216659d5fd39db7f976a8840d" target="_top" xlink:title=" ">
<polygon fill="none" stroke="black" points="168,-0.5 168,-19.5 266,-19.5 266,-0.5 168,-0.5"/>
<text text-anchor="middle" x="217" y="-7.5" font-family="Helvetica,sans-Serif" font-size="10.00">asterics_remove</text>
</a>
</g>
</g>
<!-- Node1&#45;&gt;Node7 -->
<g id="edge6" class="edge">
<title>Node1&#45;&gt;Node7</title>
<path fill="none" stroke="midnightblue" d="M329.8,-53.8C303.08,-43.33 266.38,-28.95 242.43,-19.57"/>
<polygon fill="midnightblue" stroke="midnightblue" points="328.56,-57.07 339.15,-57.46 331.11,-50.55 328.56,-57.07"/>
</g>
<!-- Node4 -->
<g id="node4" class="node">
<title>Node4</title>
<g id="a_node4"><a xlink:href="group__memio__file__ops.html#gacbc077ab5c70f951062f1a7bbd311957" target="_top" xlink:title=" ">
<polygon fill="none" stroke="black" points="0,-76.5 0,-95.5 132,-95.5 132,-76.5 0,-76.5"/>
<text text-anchor="middle" x="66" y="-83.5" font-family="Helvetica,sans-Serif" font-size="10.00">driver_as_memio_close</text>
</a>
</g>
</g>
<!-- Node3&#45;&gt;Node4 -->
<g id="edge3" class="edge">
<title>Node3&#45;&gt;Node4</title>
<path fill="none" stroke="midnightblue" d="M157.62,-86C149.28,-86 140.66,-86 132.2,-86"/>
<polygon fill="midnightblue" stroke="midnightblue" points="157.62,-89.5 167.62,-86 157.62,-82.5 157.62,-89.5"/>
</g>
<!-- Node6 -->
<g id="node6" class="node">
<title>Node6</title>
<g id="a_node6"><a xlink:href="group__memio__file__ops.html#ga6a581341bc6e2a1ed45c56c0fc7bcece" target="_top" xlink:title=" ">
<polygon fill="none" stroke="black" points="0.5,-38.5 0.5,-57.5 131.5,-57.5 131.5,-38.5 0.5,-38.5"/>
<text text-anchor="middle" x="66" y="-45.5" font-family="Helvetica,sans-Serif" font-size="10.00">driver_as_memio_open</text>
</a>
</g>
</g>
<!-- Node5&#45;&gt;Node6 -->
<g id="edge5" class="edge">
<title>Node5&#45;&gt;Node6</title>
<path fill="none" stroke="midnightblue" d="M158.39,-48C149.67,-48 140.62,-48 131.77,-48"/>
<polygon fill="midnightblue" stroke="midnightblue" points="158.45,-51.5 168.45,-48 158.45,-44.5 158.45,-51.5"/>
</g>
</g>
</svg>
