<?xml version="1.0" encoding="UTF-8" standalone="no"?>
<!DOCTYPE svg PUBLIC "-//W3C//DTD SVG 1.1//EN"
 "http://www.w3.org/Graphics/SVG/1.1/DTD/svg11.dtd">
<!-- Generated by graphviz version 2.43.0 (0)
 -->
<!-- Title: driver_as_memio_read Pages: 1 -->
<svg width="1069pt" height="542pt"
 viewBox="0.00 0.00 1069.00 542.00" xmlns="http://www.w3.org/2000/svg" xmlns:xlink="http://www.w3.org/1999/xlink">
<g id="graph0" class="graph" transform="scale(1 1) rotate(0) translate(4 538)">
<title>driver_as_memio_read</title>
<!-- Node1 -->
<g id="node1" class="node">
<title>Node1</title>
<g id="a_node1"><a xlink:title=" ">
<polygon fill="#bfbfbf" stroke="black" points="0,-266.5 0,-285.5 128,-285.5 128,-266.5 0,-266.5"/>
<text text-anchor="middle" x="64" y="-273.5" font-family="Helvetica,sans-Serif" font-size="10.00">driver_as_memio_read</text>
</a>
</g>
</g>
<!-- Node2 -->
<g id="node2" class="node">
<title>Node2</title>
<g id="a_node2"><a xlink:href="as__memio_8c.html#ae26886688375b0c299ac4ce257ce92f5" target="_top" xlink:title=" ">
<polygon fill="none" stroke="black" points="167.5,-304.5 167.5,-323.5 262.5,-323.5 262.5,-304.5 167.5,-304.5"/>
<text text-anchor="middle" x="215" y="-311.5" font-family="Helvetica,sans-Serif" font-size="10.00">as_memio_read</text>
</a>
</g>
</g>
<!-- Node1&#45;&gt;Node2 -->
<g id="edge1" class="edge">
<title>Node1&#45;&gt;Node2</title>
<path fill="none" stroke="midnightblue" d="M102.6,-285.59C122.08,-290.56 146.07,-296.68 166.8,-301.96"/>
<polygon fill="midnightblue" stroke="midnightblue" points="166.12,-305.4 176.67,-304.48 167.85,-298.62 166.12,-305.4"/>
</g>
<!-- Node28 -->
<g id="node28" class="node">
<title>Node28</title>
<g id="a_node28"><a xlink:href="group__asterics__support.html#gad294e0c5530bd6fb800a2394179070e1" target="_top" xlink:title=" ">
<polygon fill="none" stroke="black" points="170,-266.5 170,-285.5 260,-285.5 260,-266.5 170,-266.5"/>
<text text-anchor="middle" x="215" y="-273.5" font-family="Helvetica,sans-Serif" font-size="10.00">as_mutex_lock</text>
</a>
</g>
</g>
<!-- Node1&#45;&gt;Node28 -->
<g id="edge41" class="edge">
<title>Node1&#45;&gt;Node28</title>
<path fill="none" stroke="midnightblue" d="M128.19,-276C138.66,-276 149.43,-276 159.66,-276"/>
<polygon fill="midnightblue" stroke="midnightblue" points="159.67,-279.5 169.67,-276 159.67,-272.5 159.67,-279.5"/>
</g>
<!-- Node29 -->
<g id="node29" class="node">
<title>Node29</title>
<g id="a_node29"><a xlink:href="group__asterics__support.html#ga07e09e825f2608339f6213edb9d0c8b3" target="_top" xlink:title=" ">
<polygon fill="none" stroke="black" points="164,-228.5 164,-247.5 266,-247.5 266,-228.5 164,-228.5"/>
<text text-anchor="middle" x="215" y="-235.5" font-family="Helvetica,sans-Serif" font-size="10.00">as_mutex_unlock</text>
</a>
</g>
</g>
<!-- Node1&#45;&gt;Node29 -->
<g id="edge42" class="edge">
<title>Node1&#45;&gt;Node29</title>
<path fill="none" stroke="midnightblue" d="M102.6,-266.41C122.08,-261.44 146.07,-255.32 166.8,-250.04"/>
<polygon fill="midnightblue" stroke="midnightblue" points="167.85,-253.38 176.67,-247.52 166.12,-246.6 167.85,-253.38"/>
</g>
<!-- Node3 -->
<g id="node3" class="node">
<title>Node3</title>
<g id="a_node3"><a xlink:href="group__as__buffer.html#gaaaf34c6bc39c06372737bec6b12ad0bf" target="_top" xlink:title=" ">
<polygon fill="none" stroke="black" points="323.5,-411.5 323.5,-430.5 433.5,-430.5 433.5,-411.5 323.5,-411.5"/>
<text text-anchor="middle" x="378.5" y="-418.5" font-family="Helvetica,sans-Serif" font-size="10.00">as_buffer_dequeue</text>
</a>
</g>
</g>
<!-- Node2&#45;&gt;Node3 -->
<g id="edge2" class="edge">
<title>Node2&#45;&gt;Node3</title>
<path fill="none" stroke="midnightblue" d="M222.57,-323.63C235.53,-341.87 266.26,-381.45 302,-402 305.93,-404.26 310.12,-406.25 314.45,-408.01"/>
<polygon fill="midnightblue" stroke="midnightblue" points="313.47,-411.38 324.07,-411.5 315.86,-404.8 313.47,-411.38"/>
</g>
<!-- Node4 -->
<g id="node4" class="node">
<title>Node4</title>
<g id="a_node4"><a xlink:href="group__as__buffer.html#ga719a2b2644b1101082e5d05a0cbc1337" target="_top" xlink:title=" ">
<polygon fill="none" stroke="black" points="313,-362 313,-392 444,-392 444,-362 313,-362"/>
<text text-anchor="start" x="321" y="-380" font-family="Helvetica,sans-Serif" font-size="10.00">as_buffer_find_inactive</text>
<text text-anchor="middle" x="378.5" y="-369" font-family="Helvetica,sans-Serif" font-size="10.00">_buffer</text>
</a>
</g>
</g>
<!-- Node2&#45;&gt;Node4 -->
<g id="edge3" class="edge">
<title>Node2&#45;&gt;Node4</title>
<path fill="none" stroke="midnightblue" d="M240.53,-323.57C263.99,-332.72 300.04,-346.78 329.26,-358.18"/>
<polygon fill="midnightblue" stroke="midnightblue" points="328.29,-361.56 338.88,-361.93 330.84,-355.04 328.29,-361.56"/>
</g>
<!-- Node5 -->
<g id="node5" class="node">
<title>Node5</title>
<g id="a_node5"><a xlink:href="group__as__buffer.html#ga07ae3ddfeb05316df9cb59b962c29817" target="_top" xlink:title=" ">
<polygon fill="none" stroke="black" points="509.5,-514.5 509.5,-533.5 612.5,-533.5 612.5,-514.5 509.5,-514.5"/>
<text text-anchor="middle" x="561" y="-521.5" font-family="Helvetica,sans-Serif" font-size="10.00">as_buffer_inspect</text>
</a>
</g>
</g>
<!-- Node2&#45;&gt;Node5 -->
<g id="edge4" class="edge">
<title>Node2&#45;&gt;Node5</title>
<path fill="none" stroke="midnightblue" d="M262.72,-315.62C324.24,-318.73 427.81,-327.67 455,-353 505.8,-400.32 442.8,-455.03 491,-505 493.78,-507.89 496.96,-510.35 500.39,-512.44"/>
<polygon fill="midnightblue" stroke="midnightblue" points="498.84,-515.58 509.35,-516.94 501.98,-509.32 498.84,-515.58"/>
</g>
<!-- Node6 -->
<g id="node6" class="node">
<title>Node6</title>
<g id="a_node6"><a xlink:href="as__memio_8c.html#ab62efd7dea09ea32fde790ab4a0e51c6" target="_top" xlink:title=" ">
<polygon fill="none" stroke="black" points="329.5,-209.5 329.5,-228.5 427.5,-228.5 427.5,-209.5 329.5,-209.5"/>
<text text-anchor="middle" x="378.5" y="-216.5" font-family="Helvetica,sans-Serif" font-size="10.00">as_copy_to_user</text>
</a>
</g>
</g>
<!-- Node2&#45;&gt;Node6 -->
<g id="edge5" class="edge">
<title>Node2&#45;&gt;Node6</title>
<path fill="none" stroke="midnightblue" d="M249.51,-304.49C255.34,-301.96 261.1,-298.84 266,-295 288.13,-277.67 279.4,-259.71 302,-243 307.86,-238.67 314.52,-235.11 321.4,-232.18"/>
<polygon fill="midnightblue" stroke="midnightblue" points="322.78,-235.4 330.87,-228.56 320.28,-228.86 322.78,-235.4"/>
</g>
<!-- Node7 -->
<g id="node7" class="node">
<title>Node7</title>
<g id="a_node7"><a xlink:href="as__memio_8c.html#ab93cfbaa1058ea83836b6d052e72ad50" target="_top" xlink:title=" ">
<polygon fill="none" stroke="black" points="302,-285.5 302,-304.5 455,-304.5 455,-285.5 302,-285.5"/>
<text text-anchor="middle" x="378.5" y="-292.5" font-family="Helvetica,sans-Serif" font-size="10.00">as_memio_hw_read_update</text>
</a>
</g>
</g>
<!-- Node2&#45;&gt;Node7 -->
<g id="edge6" class="edge">
<title>Node2&#45;&gt;Node7</title>
<path fill="none" stroke="midnightblue" d="M262.71,-308.5C271.94,-307.42 281.88,-306.25 291.93,-305.07"/>
<polygon fill="midnightblue" stroke="midnightblue" points="292.47,-308.53 301.99,-303.88 291.65,-301.58 292.47,-308.53"/>
</g>
<!-- Node27 -->
<g id="node27" class="node">
<title>Node27</title>
<g id="a_node27"><a xlink:href="group__as__reader__writer.html#ga8ffa108d758f416593d508d00fdbfed6" target="_top" xlink:title="Checks if module has dropped data.">
<polygon fill="none" stroke="black" points="495.5,-0.5 495.5,-19.5 626.5,-19.5 626.5,-0.5 495.5,-0.5"/>
<text text-anchor="middle" x="561" y="-7.5" font-family="Helvetica,sans-Serif" font-size="10.00">as_writer_is_sync_error</text>
</a>
</g>
</g>
<!-- Node2&#45;&gt;Node27 -->
<g id="edge38" class="edge">
<title>Node2&#45;&gt;Node27</title>
<path fill="none" stroke="midnightblue" d="M242.98,-304.44C250.5,-301.59 258.64,-298.33 266,-295 282.49,-287.55 285.1,-282.45 302,-276 367.46,-251.02 407.27,-289.3 455,-238 518.91,-169.31 428.43,-99.91 491,-30 492.55,-28.26 494.25,-26.67 496.06,-25.22"/>
<polygon fill="midnightblue" stroke="midnightblue" points="498.13,-28.05 504.61,-19.66 494.31,-22.18 498.13,-28.05"/>
</g>
<!-- Node7&#45;&gt;Node5 -->
<g id="edge9" class="edge">
<title>Node7&#45;&gt;Node5</title>
<path fill="none" stroke="midnightblue" d="M434.48,-304.65C442.22,-308.09 449.42,-312.73 455,-319 510.97,-381.91 433.81,-443.2 491,-505 493.77,-507.99 496.96,-510.53 500.42,-512.68"/>
<polygon fill="midnightblue" stroke="midnightblue" points="498.99,-515.88 509.5,-517.26 502.15,-509.63 498.99,-515.88"/>
</g>
<!-- Node8 -->
<g id="node8" class="node">
<title>Node8</title>
<g id="a_node8"><a xlink:href="group__as__buffer.html#ga6016c939a78457aac0650827fdce6ae3" target="_top" xlink:title=" ">
<polygon fill="none" stroke="black" points="506,-225.5 506,-244.5 616,-244.5 616,-225.5 506,-225.5"/>
<text text-anchor="middle" x="561" y="-232.5" font-family="Helvetica,sans-Serif" font-size="10.00">as_buffer_enqueue</text>
</a>
</g>
</g>
<!-- Node7&#45;&gt;Node8 -->
<g id="edge7" class="edge">
<title>Node7&#45;&gt;Node8</title>
<path fill="none" stroke="midnightblue" d="M412.91,-285.43C426.15,-281.36 441.43,-276.33 455,-271 471.47,-264.53 474.41,-260.15 491,-254 497.34,-251.65 504.1,-249.44 510.82,-247.42"/>
<polygon fill="midnightblue" stroke="midnightblue" points="511.95,-250.74 520.58,-244.59 510,-244.01 511.95,-250.74"/>
</g>
<!-- Node9 -->
<g id="node9" class="node">
<title>Node9</title>
<g id="a_node9"><a xlink:href="group__as__buffer.html#ga207494f5e874a5db26b0bedf2784bf56" target="_top" xlink:title=" ">
<polygon fill="none" stroke="black" points="497,-176 497,-206 625,-206 625,-176 497,-176"/>
<text text-anchor="start" x="505" y="-194" font-family="Helvetica,sans-Serif" font-size="10.00">as_buffer_find_waiting</text>
<text text-anchor="middle" x="561" y="-183" font-family="Helvetica,sans-Serif" font-size="10.00">_buffer</text>
</a>
</g>
</g>
<!-- Node7&#45;&gt;Node9 -->
<g id="edge8" class="edge">
<title>Node7&#45;&gt;Node9</title>
<path fill="none" stroke="midnightblue" d="M426.64,-285.47C436.64,-282.01 446.68,-277.32 455,-271 478.27,-253.33 468.09,-234.13 491,-216 493.29,-214.18 495.73,-212.49 498.27,-210.92"/>
<polygon fill="midnightblue" stroke="midnightblue" points="500.14,-213.89 507.22,-206 496.77,-207.75 500.14,-213.89"/>
</g>
<!-- Node10 -->
<g id="node10" class="node">
<title>Node10</title>
<g id="a_node10"><a xlink:href="group__asterics__support.html#ga85ce164597e47f4aaee22c873e899d4b" target="_top" xlink:title=" ">
<polygon fill="none" stroke="black" points="671,-455 671,-485 793,-485 793,-455 671,-455"/>
<text text-anchor="start" x="679" y="-473" font-family="Helvetica,sans-Serif" font-size="10.00">as_dcache_invalidate</text>
<text text-anchor="middle" x="732" y="-462" font-family="Helvetica,sans-Serif" font-size="10.00">_range</text>
</a>
</g>
</g>
<!-- Node7&#45;&gt;Node10 -->
<g id="edge10" class="edge">
<title>Node7&#45;&gt;Node10</title>
<path fill="none" stroke="midnightblue" d="M432.27,-304.63C440.66,-308.06 448.65,-312.71 455,-319 491.53,-355.22 452.05,-395.4 491,-429 515.9,-450.48 599.18,-461 660.69,-465.94"/>
<polygon fill="midnightblue" stroke="midnightblue" points="660.5,-469.44 670.74,-466.71 661.04,-462.46 660.5,-469.44"/>
</g>
<!-- Node11 -->
<g id="node11" class="node">
<title>Node11</title>
<g id="a_node11"><a xlink:href="as__cache_8c.html#a82dda14c005c5bd0028e5f25fad2923c" target="_top" xlink:title="Map virtual kernel address for DMA.">
<polygon fill="none" stroke="black" points="516.5,-400.5 516.5,-419.5 605.5,-419.5 605.5,-400.5 516.5,-400.5"/>
<text text-anchor="middle" x="561" y="-407.5" font-family="Helvetica,sans-Serif" font-size="10.00">as_map_single</text>
</a>
</g>
</g>
<!-- Node7&#45;&gt;Node11 -->
<g id="edge11" class="edge">
<title>Node7&#45;&gt;Node11</title>
<path fill="none" stroke="midnightblue" d="M429.17,-304.54C438.47,-307.98 447.58,-312.65 455,-319 482.19,-342.25 463.36,-368.28 491,-391 495.67,-394.84 501.07,-397.91 506.73,-400.36"/>
<polygon fill="midnightblue" stroke="midnightblue" points="505.86,-403.76 516.45,-403.92 508.27,-397.19 505.86,-403.76"/>
</g>
<!-- Node13 -->
<g id="node13" class="node">
<title>Node13</title>
<g id="a_node13"><a xlink:href="group__as__reader__writer.html#gaaea10b48e35a224a5870cd3322ffbec2" target="_top" xlink:title="Returns the next address on which the hardware will perform a write operation.">
<polygon fill="none" stroke="black" points="501.5,-39 501.5,-69 620.5,-69 620.5,-39 501.5,-39"/>
<text text-anchor="start" x="509.5" y="-57" font-family="Helvetica,sans-Serif" font-size="10.00">as_reader_writer_get</text>
<text text-anchor="middle" x="561" y="-46" font-family="Helvetica,sans-Serif" font-size="10.00">_cur_hw_addr</text>
</a>
</g>
</g>
<!-- Node7&#45;&gt;Node13 -->
<g id="edge13" class="edge">
<title>Node7&#45;&gt;Node13</title>
<path fill="none" stroke="midnightblue" d="M434.51,-285.38C442.25,-281.94 449.44,-277.28 455,-271 512.52,-205.97 434.79,-145.16 491,-79 492.13,-77.66 493.35,-76.4 494.62,-75.2"/>
<polygon fill="midnightblue" stroke="midnightblue" points="496.8,-77.95 502.57,-69.06 492.52,-72.41 496.8,-77.95"/>
</g>
<!-- Node17 -->
<g id="node17" class="node">
<title>Node17</title>
<g id="a_node17"><a xlink:href="group__as__reader__writer.html#ga0e0a5b7e0dd6a14cb0f4251d00a783e8" target="_top" xlink:title="Checks if module is busy.">
<polygon fill="none" stroke="black" points="491,-137.5 491,-156.5 631,-156.5 631,-137.5 491,-137.5"/>
<text text-anchor="middle" x="561" y="-144.5" font-family="Helvetica,sans-Serif" font-size="10.00">as_reader_writer_is_busy</text>
</a>
</g>
</g>
<!-- Node7&#45;&gt;Node17 -->
<g id="edge17" class="edge">
<title>Node7&#45;&gt;Node17</title>
<path fill="none" stroke="midnightblue" d="M431.79,-285.43C440.33,-282 448.5,-277.34 455,-271 490.02,-236.86 455.54,-200.69 491,-167 493.16,-164.95 495.52,-163.1 498.02,-161.45"/>
<polygon fill="midnightblue" stroke="midnightblue" points="499.92,-164.39 507,-156.51 496.55,-158.26 499.92,-164.39"/>
</g>
<!-- Node19 -->
<g id="node19" class="node">
<title>Node19</title>
<g id="a_node19"><a xlink:href="group__as__reader__writer.html#gab3f2465225201507d51787478ac5955a" target="_top" xlink:title="Checks if another operation is queued.">
<polygon fill="none" stroke="black" points="505,-88 505,-118 617,-118 617,-88 505,-88"/>
<text text-anchor="start" x="513" y="-106" font-family="Helvetica,sans-Serif" font-size="10.00">as_reader_writer_is</text>
<text text-anchor="middle" x="561" y="-95" font-family="Helvetica,sans-Serif" font-size="10.00">_pending_go</text>
</a>
</g>
</g>
<!-- Node7&#45;&gt;Node19 -->
<g id="edge21" class="edge">
<title>Node7&#45;&gt;Node19</title>
<path fill="none" stroke="midnightblue" d="M433.41,-285.41C441.48,-281.97 449.06,-277.31 455,-271 499.9,-223.26 447.06,-176.62 491,-128 492.6,-126.23 494.33,-124.59 496.17,-123.07"/>
<polygon fill="midnightblue" stroke="midnightblue" points="498.58,-125.65 504.82,-117.09 494.6,-119.89 498.58,-125.65"/>
</g>
<!-- Node20 -->
<g id="node20" class="node">
<title>Node20</title>
<g id="a_node20"><a xlink:href="group__as__reader__writer.html#ga38bb160b6e30eb5fce6df2e4b4894fad" target="_top" xlink:title="Starts operation of hardware module.">
<polygon fill="none" stroke="black" points="493,-263.5 493,-282.5 629,-282.5 629,-263.5 493,-263.5"/>
<text text-anchor="middle" x="561" y="-270.5" font-family="Helvetica,sans-Serif" font-size="10.00">as_reader_writer_set_go</text>
</a>
</g>
</g>
<!-- Node7&#45;&gt;Node20 -->
<g id="edge24" class="edge">
<title>Node7&#45;&gt;Node20</title>
<path fill="none" stroke="midnightblue" d="M455,-285.8C464.23,-284.67 473.66,-283.52 482.9,-282.4"/>
<polygon fill="midnightblue" stroke="midnightblue" points="483.34,-285.87 492.84,-281.19 482.49,-278.92 483.34,-285.87"/>
</g>
<!-- Node24 -->
<g id="node24" class="node">
<title>Node24</title>
<g id="a_node24"><a xlink:href="group__as__reader__writer.html#ga43d2f73d7d42dd5704160d4ddacfaa1e" target="_top" xlink:title="Sets the start address of the first section to the given value.">
<polygon fill="none" stroke="black" points="501.5,-351 501.5,-381 620.5,-381 620.5,-351 501.5,-351"/>
<text text-anchor="start" x="509.5" y="-369" font-family="Helvetica,sans-Serif" font-size="10.00">as_reader_writer_set</text>
<text text-anchor="middle" x="561" y="-358" font-family="Helvetica,sans-Serif" font-size="10.00">_section_addr</text>
</a>
</g>
</g>
<!-- Node7&#45;&gt;Node24 -->
<g id="edge30" class="edge">
<title>Node7&#45;&gt;Node24</title>
<path fill="none" stroke="midnightblue" d="M416.33,-304.61C428.87,-308.42 442.79,-313.28 455,-319 472.19,-327.06 473.92,-333.71 491,-342 494.72,-343.81 498.62,-345.54 502.58,-347.19"/>
<polygon fill="midnightblue" stroke="midnightblue" points="501.31,-350.46 511.9,-350.9 503.9,-343.95 501.31,-350.46"/>
</g>
<!-- Node25 -->
<g id="node25" class="node">
<title>Node25</title>
<g id="a_node25"><a xlink:href="group__as__reader__writer.html#ga06436c5cb6a63439f2e4b7c14c71fb83" target="_top" xlink:title="Sets the size of a single section in bytes.">
<polygon fill="none" stroke="black" points="501.5,-302 501.5,-332 620.5,-332 620.5,-302 501.5,-302"/>
<text text-anchor="start" x="509.5" y="-320" font-family="Helvetica,sans-Serif" font-size="10.00">as_reader_writer_set</text>
<text text-anchor="middle" x="561" y="-309" font-family="Helvetica,sans-Serif" font-size="10.00">_section_size</text>
</a>
</g>
</g>
<!-- Node7&#45;&gt;Node25 -->
<g id="edge33" class="edge">
<title>Node7&#45;&gt;Node25</title>
<path fill="none" stroke="midnightblue" d="M455,-304.2C466.96,-305.66 479.27,-307.16 491.06,-308.6"/>
<polygon fill="midnightblue" stroke="midnightblue" points="490.92,-312.11 501.27,-309.84 491.77,-305.16 490.92,-312.11"/>
</g>
<!-- Node26 -->
<g id="node26" class="node">
<title>Node26</title>
<g id="a_node26"><a xlink:href="as__cache_8c.html#ae76087a19400fcaebb8397a8a1ee828b" target="_top" xlink:title="Unmap DMA address at end of transfer.">
<polygon fill="none" stroke="black" points="510.5,-476.5 510.5,-495.5 611.5,-495.5 611.5,-476.5 510.5,-476.5"/>
<text text-anchor="middle" x="561" y="-483.5" font-family="Helvetica,sans-Serif" font-size="10.00">as_unmap_single</text>
</a>
</g>
</g>
<!-- Node7&#45;&gt;Node26 -->
<g id="edge36" class="edge">
<title>Node7&#45;&gt;Node26</title>
<path fill="none" stroke="midnightblue" d="M433.41,-304.59C441.48,-308.03 449.06,-312.69 455,-319 499.9,-366.74 446.74,-413.66 491,-462 494.55,-465.88 498.76,-469.13 503.32,-471.85"/>
<polygon fill="midnightblue" stroke="midnightblue" points="501.94,-475.08 512.44,-476.47 505.1,-468.83 501.94,-475.08"/>
</g>
<!-- Node12 -->
<g id="node12" class="node">
<title>Node12</title>
<g id="a_node12"><a xlink:href="group__asterics__support.html#ga488e796d469c62267d9547fd11f8d764" target="_top" xlink:title=" ">
<polygon fill="none" stroke="black" points="667,-400.5 667,-419.5 797,-419.5 797,-400.5 667,-400.5"/>
<text text-anchor="middle" x="732" y="-407.5" font-family="Helvetica,sans-Serif" font-size="10.00">as_dcache_flush_range</text>
</a>
</g>
</g>
<!-- Node11&#45;&gt;Node12 -->
<g id="edge12" class="edge">
<title>Node11&#45;&gt;Node12</title>
<path fill="none" stroke="midnightblue" d="M605.52,-410C621.14,-410 639.22,-410 656.7,-410"/>
<polygon fill="midnightblue" stroke="midnightblue" points="656.91,-413.5 666.91,-410 656.91,-406.5 656.91,-413.5"/>
</g>
<!-- Node14 -->
<g id="node14" class="node">
<title>Node14</title>
<g id="a_node14"><a xlink:href="group__asterics__support.html#gaa7520f5b717e163da743500adb2eb0b9" target="_top" xlink:title=" ">
<polygon fill="none" stroke="black" points="686.5,-137.5 686.5,-156.5 777.5,-156.5 777.5,-137.5 686.5,-137.5"/>
<text text-anchor="middle" x="732" y="-144.5" font-family="Helvetica,sans-Serif" font-size="10.00">as_module_reg</text>
</a>
</g>
</g>
<!-- Node13&#45;&gt;Node14 -->
<g id="edge14" class="edge">
<title>Node13&#45;&gt;Node14</title>
<path fill="none" stroke="midnightblue" d="M613.28,-69.09C619.5,-71.91 625.57,-75.2 631,-79 651.42,-93.29 646.76,-107.46 667,-122 673.4,-126.6 680.77,-130.49 688.17,-133.73"/>
<polygon fill="midnightblue" stroke="midnightblue" points="686.91,-137 697.49,-137.5 689.53,-130.51 686.91,-137"/>
</g>
<!-- Node15 -->
<g id="node15" class="node">
<title>Node15</title>
<g id="a_node15"><a xlink:href="group__asterics__support.html#ga8e5c2bfd2e4498d10289377bd94cef07" target="_top" xlink:title=" ">
<polygon fill="none" stroke="black" points="834.5,-93.5 834.5,-112.5 910.5,-112.5 910.5,-93.5 834.5,-93.5"/>
<text text-anchor="middle" x="872.5" y="-100.5" font-family="Helvetica,sans-Serif" font-size="10.00">as_reg_read</text>
</a>
</g>
</g>
<!-- Node13&#45;&gt;Node15 -->
<g id="edge15" class="edge">
<title>Node13&#45;&gt;Node15</title>
<path fill="none" stroke="midnightblue" d="M620.74,-59.48C668.47,-64.41 737.41,-72.64 797,-84 807.03,-85.91 817.72,-88.38 827.78,-90.9"/>
<polygon fill="midnightblue" stroke="midnightblue" points="827.02,-94.31 837.58,-93.41 828.76,-87.53 827.02,-94.31"/>
</g>
<!-- Node16 -->
<g id="node16" class="node">
<title>Node16</title>
<g id="a_node16"><a xlink:href="group__asterics__support.html#ga4c6d688b840a6e2edc9bc0b8ed961677" target="_top" xlink:title=" ">
<polygon fill="none" stroke="black" points="954.5,-93.5 954.5,-112.5 1054.5,-112.5 1054.5,-93.5 954.5,-93.5"/>
<text text-anchor="middle" x="1004.5" y="-100.5" font-family="Helvetica,sans-Serif" font-size="10.00">as_reg_to_uint32</text>
</a>
</g>
</g>
<!-- Node15&#45;&gt;Node16 -->
<g id="edge16" class="edge">
<title>Node15&#45;&gt;Node16</title>
<path fill="none" stroke="midnightblue" d="M910.75,-103C921.09,-103 932.59,-103 943.86,-103"/>
<polygon fill="midnightblue" stroke="midnightblue" points="944.12,-106.5 954.12,-103 944.12,-99.5 944.12,-106.5"/>
</g>
<!-- Node17&#45;&gt;Node14 -->
<g id="edge18" class="edge">
<title>Node17&#45;&gt;Node14</title>
<path fill="none" stroke="midnightblue" d="M631.23,-147C646.19,-147 661.81,-147 676.14,-147"/>
<polygon fill="midnightblue" stroke="midnightblue" points="676.31,-150.5 686.31,-147 676.31,-143.5 676.31,-150.5"/>
</g>
<!-- Node18 -->
<g id="node18" class="node">
<title>Node18</title>
<g id="a_node18"><a xlink:href="group__asterics__support.html#ga36a2ed59c59831bee59daaae3cb6cb35" target="_top" xlink:title=" ">
<polygon fill="none" stroke="black" points="672.5,-93.5 672.5,-112.5 791.5,-112.5 791.5,-93.5 672.5,-93.5"/>
<text text-anchor="middle" x="732" y="-100.5" font-family="Helvetica,sans-Serif" font-size="10.00">as_reg_read_masked</text>
</a>
</g>
</g>
<!-- Node17&#45;&gt;Node18 -->
<g id="edge19" class="edge">
<title>Node17&#45;&gt;Node18</title>
<path fill="none" stroke="midnightblue" d="M598.67,-137.45C623.81,-130.91 657.36,-122.17 684.39,-115.13"/>
<polygon fill="midnightblue" stroke="midnightblue" points="685.61,-118.44 694.4,-112.53 683.84,-111.66 685.61,-118.44"/>
</g>
<!-- Node18&#45;&gt;Node15 -->
<g id="edge20" class="edge">
<title>Node18&#45;&gt;Node15</title>
<path fill="none" stroke="midnightblue" d="M791.74,-103C802.57,-103 813.76,-103 824.21,-103"/>
<polygon fill="midnightblue" stroke="midnightblue" points="824.37,-106.5 834.37,-103 824.37,-99.5 824.37,-106.5"/>
</g>
<!-- Node19&#45;&gt;Node14 -->
<g id="edge22" class="edge">
<title>Node19&#45;&gt;Node14</title>
<path fill="none" stroke="midnightblue" d="M617.34,-117.41C639.09,-123.07 663.79,-129.5 684.59,-134.92"/>
<polygon fill="midnightblue" stroke="midnightblue" points="683.9,-138.35 694.46,-137.49 685.67,-131.58 683.9,-138.35"/>
</g>
<!-- Node19&#45;&gt;Node18 -->
<g id="edge23" class="edge">
<title>Node19&#45;&gt;Node18</title>
<path fill="none" stroke="midnightblue" d="M617.34,-103C631.65,-103 647.24,-103 662.15,-103"/>
<polygon fill="midnightblue" stroke="midnightblue" points="662.34,-106.5 672.34,-103 662.34,-99.5 662.34,-106.5"/>
</g>
<!-- Node20&#45;&gt;Node14 -->
<g id="edge25" class="edge">
<title>Node20&#45;&gt;Node14</title>
<path fill="none" stroke="midnightblue" d="M610.19,-263.43C617.44,-260.95 624.62,-257.86 631,-254 669.22,-230.88 702.08,-189.1 718.93,-165.16"/>
<polygon fill="midnightblue" stroke="midnightblue" points="722,-166.88 724.77,-156.66 716.23,-162.92 722,-166.88"/>
</g>
<!-- Node21 -->
<g id="node21" class="node">
<title>Node21</title>
<g id="a_node21"><a xlink:href="group__asterics__support.html#ga0ccb0610d764a95bda989e35fba59490" target="_top" xlink:title=" ">
<polygon fill="none" stroke="black" points="671,-263.5 671,-282.5 793,-282.5 793,-263.5 671,-263.5"/>
<text text-anchor="middle" x="732" y="-270.5" font-family="Helvetica,sans-Serif" font-size="10.00">as_reg_write_masked</text>
</a>
</g>
</g>
<!-- Node20&#45;&gt;Node21 -->
<g id="edge26" class="edge">
<title>Node20&#45;&gt;Node21</title>
<path fill="none" stroke="midnightblue" d="M629.28,-273C639.57,-273 650.21,-273 660.56,-273"/>
<polygon fill="midnightblue" stroke="midnightblue" points="660.79,-276.5 670.79,-273 660.79,-269.5 660.79,-276.5"/>
</g>
<!-- Node21&#45;&gt;Node15 -->
<g id="edge27" class="edge">
<title>Node21&#45;&gt;Node15</title>
<path fill="none" stroke="midnightblue" d="M740.84,-263.37C763.32,-235.79 828.18,-156.17 857.19,-120.57"/>
<polygon fill="midnightblue" stroke="midnightblue" points="860.14,-122.48 863.74,-112.52 854.71,-118.06 860.14,-122.48"/>
</g>
<!-- Node22 -->
<g id="node22" class="node">
<title>Node22</title>
<g id="a_node22"><a xlink:href="group__asterics__support.html#ga6345b997e24a6cd5f9143cef27629d49" target="_top" xlink:title=" ">
<polygon fill="none" stroke="black" points="833,-307.5 833,-326.5 912,-326.5 912,-307.5 833,-307.5"/>
<text text-anchor="middle" x="872.5" y="-314.5" font-family="Helvetica,sans-Serif" font-size="10.00">as_reg_write</text>
</a>
</g>
</g>
<!-- Node21&#45;&gt;Node22 -->
<g id="edge28" class="edge">
<title>Node21&#45;&gt;Node22</title>
<path fill="none" stroke="midnightblue" d="M763.05,-282.55C783.2,-288.95 809.94,-297.44 831.83,-304.4"/>
<polygon fill="midnightblue" stroke="midnightblue" points="830.92,-307.78 841.51,-307.47 833.04,-301.11 830.92,-307.78"/>
</g>
<!-- Node23 -->
<g id="node23" class="node">
<title>Node23</title>
<g id="a_node23"><a xlink:href="group__asterics__support.html#gab651cc2c035ce61b354578434e59f822" target="_top" xlink:title=" ">
<polygon fill="none" stroke="black" points="948,-307.5 948,-326.5 1061,-326.5 1061,-307.5 948,-307.5"/>
<text text-anchor="middle" x="1004.5" y="-314.5" font-family="Helvetica,sans-Serif" font-size="10.00">as_reg_from_uint32</text>
</a>
</g>
</g>
<!-- Node22&#45;&gt;Node23 -->
<g id="edge29" class="edge">
<title>Node22&#45;&gt;Node23</title>
<path fill="none" stroke="midnightblue" d="M912.15,-317C920.22,-317 928.94,-317 937.68,-317"/>
<polygon fill="midnightblue" stroke="midnightblue" points="937.92,-320.5 947.92,-317 937.92,-313.5 937.92,-320.5"/>
</g>
<!-- Node24&#45;&gt;Node14 -->
<g id="edge31" class="edge">
<title>Node24&#45;&gt;Node14</title>
<path fill="none" stroke="midnightblue" d="M618.95,-350.84C623.31,-348.33 627.41,-345.4 631,-342 661.67,-312.93 648.1,-291.8 667,-254 683.12,-221.77 705.34,-186.2 718.91,-165.27"/>
<polygon fill="midnightblue" stroke="midnightblue" points="721.94,-167.03 724.49,-156.75 716.08,-163.2 721.94,-167.03"/>
</g>
<!-- Node24&#45;&gt;Node22 -->
<g id="edge32" class="edge">
<title>Node24&#45;&gt;Node22</title>
<path fill="none" stroke="midnightblue" d="M620.53,-357.91C668.13,-351.18 737,-341.1 797,-331 805.39,-329.59 814.3,-327.99 822.93,-326.4"/>
<polygon fill="midnightblue" stroke="midnightblue" points="823.69,-329.82 832.88,-324.55 822.41,-322.94 823.69,-329.82"/>
</g>
<!-- Node25&#45;&gt;Node14 -->
<g id="edge34" class="edge">
<title>Node25&#45;&gt;Node14</title>
<path fill="none" stroke="midnightblue" d="M614.69,-301.88C620.48,-299.08 626.06,-295.81 631,-292 654.46,-273.9 699.7,-200.12 720.31,-165.32"/>
<polygon fill="midnightblue" stroke="midnightblue" points="723.37,-167.02 725.43,-156.62 717.34,-163.47 723.37,-167.02"/>
</g>
<!-- Node25&#45;&gt;Node22 -->
<g id="edge35" class="edge">
<title>Node25&#45;&gt;Node22</title>
<path fill="none" stroke="midnightblue" d="M620.58,-317C679.02,-317 767.79,-317 822.58,-317"/>
<polygon fill="midnightblue" stroke="midnightblue" points="822.74,-320.5 832.74,-317 822.74,-313.5 822.74,-320.5"/>
</g>
<!-- Node26&#45;&gt;Node10 -->
<g id="edge37" class="edge">
<title>Node26&#45;&gt;Node10</title>
<path fill="none" stroke="midnightblue" d="M611.79,-481.29C627.11,-479.84 644.27,-478.21 660.7,-476.66"/>
<polygon fill="midnightblue" stroke="midnightblue" points="661.18,-480.13 670.81,-475.7 660.52,-473.16 661.18,-480.13"/>
</g>
<!-- Node27&#45;&gt;Node14 -->
<g id="edge39" class="edge">
<title>Node27&#45;&gt;Node14</title>
<path fill="none" stroke="midnightblue" d="M614.49,-19.53C620.52,-22.21 626.21,-25.63 631,-30 663.43,-59.61 635.94,-90.96 667,-122 671.48,-126.48 676.87,-130.18 682.58,-133.23"/>
<polygon fill="midnightblue" stroke="midnightblue" points="681.21,-136.45 691.75,-137.5 684.16,-130.1 681.21,-136.45"/>
</g>
<!-- Node27&#45;&gt;Node18 -->
<g id="edge40" class="edge">
<title>Node27&#45;&gt;Node18</title>
<path fill="none" stroke="midnightblue" d="M603.75,-19.56C612.95,-22.36 622.49,-25.82 631,-30 662.09,-45.26 693.67,-70.24 712.8,-86.65"/>
<polygon fill="midnightblue" stroke="midnightblue" points="710.59,-89.37 720.43,-93.31 715.2,-84.1 710.59,-89.37"/>
</g>
</g>
</svg>
