<?xml version="1.0" encoding="UTF-8" standalone="no"?>
<!DOCTYPE svg PUBLIC "-//W3C//DTD SVG 1.1//EN"
 "http://www.w3.org/Graphics/SVG/1.1/DTD/svg11.dtd">
<!-- Generated by graphviz version 2.43.0 (0)
 -->
<!-- Title: driver_as_memio_write Pages: 1 -->
<svg width="1075pt" height="466pt"
 viewBox="0.00 0.00 1075.00 465.50" xmlns="http://www.w3.org/2000/svg" xmlns:xlink="http://www.w3.org/1999/xlink">
<g id="graph0" class="graph" transform="scale(1 1) rotate(0) translate(4 461.5)">
<title>driver_as_memio_write</title>
<!-- Node1 -->
<g id="node1" class="node">
<title>Node1</title>
<g id="a_node1"><a xlink:title=" ">
<polygon fill="#bfbfbf" stroke="black" points="0,-252 0,-271 131,-271 131,-252 0,-252"/>
<text text-anchor="middle" x="65.5" y="-259" font-family="Helvetica,sans-Serif" font-size="10.00">driver_as_memio_write</text>
</a>
</g>
</g>
<!-- Node2 -->
<g id="node2" class="node">
<title>Node2</title>
<g id="a_node2"><a xlink:href="as__memio_8c.html#a1d306d68268eb68703b595cb416c5024" target="_top" xlink:title=" ">
<polygon fill="none" stroke="black" points="169,-290 169,-309 267,-309 267,-290 169,-290"/>
<text text-anchor="middle" x="218" y="-297" font-family="Helvetica,sans-Serif" font-size="10.00">as_memio_write</text>
</a>
</g>
</g>
<!-- Node1&#45;&gt;Node2 -->
<g id="edge1" class="edge">
<title>Node1&#45;&gt;Node2</title>
<path fill="none" stroke="midnightblue" d="M104.48,-271.09C124.16,-276.06 148.39,-282.18 169.32,-287.46"/>
<polygon fill="midnightblue" stroke="midnightblue" points="168.74,-290.93 179.3,-289.98 170.46,-284.14 168.74,-290.93"/>
</g>
<!-- Node27 -->
<g id="node27" class="node">
<title>Node27</title>
<g id="a_node27"><a xlink:href="group__asterics__support.html#gad294e0c5530bd6fb800a2394179070e1" target="_top" xlink:title=" ">
<polygon fill="none" stroke="black" points="173,-252 173,-271 263,-271 263,-252 173,-252"/>
<text text-anchor="middle" x="218" y="-259" font-family="Helvetica,sans-Serif" font-size="10.00">as_mutex_lock</text>
</a>
</g>
</g>
<!-- Node1&#45;&gt;Node27 -->
<g id="edge37" class="edge">
<title>Node1&#45;&gt;Node27</title>
<path fill="none" stroke="midnightblue" d="M131.2,-261.5C141.72,-261.5 152.51,-261.5 162.75,-261.5"/>
<polygon fill="midnightblue" stroke="midnightblue" points="162.76,-265 172.76,-261.5 162.76,-258 162.76,-265"/>
</g>
<!-- Node28 -->
<g id="node28" class="node">
<title>Node28</title>
<g id="a_node28"><a xlink:href="group__asterics__support.html#ga07e09e825f2608339f6213edb9d0c8b3" target="_top" xlink:title=" ">
<polygon fill="none" stroke="black" points="167,-214 167,-233 269,-233 269,-214 167,-214"/>
<text text-anchor="middle" x="218" y="-221" font-family="Helvetica,sans-Serif" font-size="10.00">as_mutex_unlock</text>
</a>
</g>
</g>
<!-- Node1&#45;&gt;Node28 -->
<g id="edge38" class="edge">
<title>Node1&#45;&gt;Node28</title>
<path fill="none" stroke="midnightblue" d="M104.48,-251.91C124.16,-246.94 148.39,-240.82 169.32,-235.54"/>
<polygon fill="midnightblue" stroke="midnightblue" points="170.46,-238.86 179.3,-233.02 168.74,-232.07 170.46,-238.86"/>
</g>
<!-- Node3 -->
<g id="node3" class="node">
<title>Node3</title>
<g id="a_node3"><a xlink:href="group__as__buffer.html#gaaaf34c6bc39c06372737bec6b12ad0bf" target="_top" xlink:title=" ">
<polygon fill="none" stroke="black" points="328,-378 328,-397 438,-397 438,-378 328,-378"/>
<text text-anchor="middle" x="383" y="-385" font-family="Helvetica,sans-Serif" font-size="10.00">as_buffer_dequeue</text>
</a>
</g>
</g>
<!-- Node2&#45;&gt;Node3 -->
<g id="edge2" class="edge">
<title>Node2&#45;&gt;Node3</title>
<path fill="none" stroke="midnightblue" d="M228.09,-309.1C242.81,-324.08 273.42,-352.89 305,-368.5 309.86,-370.9 315.05,-373.01 320.34,-374.87"/>
<polygon fill="midnightblue" stroke="midnightblue" points="319.36,-378.23 329.95,-377.94 321.49,-371.56 319.36,-378.23"/>
</g>
<!-- Node4 -->
<g id="node4" class="node">
<title>Node4</title>
<g id="a_node4"><a xlink:href="group__as__buffer.html#ga719a2b2644b1101082e5d05a0cbc1337" target="_top" xlink:title=" ">
<polygon fill="none" stroke="black" points="317.5,-328.5 317.5,-358.5 448.5,-358.5 448.5,-328.5 317.5,-328.5"/>
<text text-anchor="start" x="325.5" y="-346.5" font-family="Helvetica,sans-Serif" font-size="10.00">as_buffer_find_inactive</text>
<text text-anchor="middle" x="383" y="-335.5" font-family="Helvetica,sans-Serif" font-size="10.00">_buffer</text>
</a>
</g>
</g>
<!-- Node2&#45;&gt;Node4 -->
<g id="edge3" class="edge">
<title>Node2&#45;&gt;Node4</title>
<path fill="none" stroke="midnightblue" d="M254.37,-309.05C272.47,-313.93 295.11,-320.05 316.27,-325.76"/>
<polygon fill="midnightblue" stroke="midnightblue" points="315.62,-329.21 326.19,-328.43 317.45,-322.45 315.62,-329.21"/>
</g>
<!-- Node5 -->
<g id="node5" class="node">
<title>Node5</title>
<g id="a_node5"><a xlink:href="group__as__buffer.html#ga07ae3ddfeb05316df9cb59b962c29817" target="_top" xlink:title=" ">
<polygon fill="none" stroke="black" points="515.5,-438 515.5,-457 618.5,-457 618.5,-438 515.5,-438"/>
<text text-anchor="middle" x="567" y="-445" font-family="Helvetica,sans-Serif" font-size="10.00">as_buffer_inspect</text>
</a>
</g>
</g>
<!-- Node2&#45;&gt;Node5 -->
<g id="edge4" class="edge">
<title>Node2&#45;&gt;Node5</title>
<path fill="none" stroke="midnightblue" d="M262.13,-289.98C314.9,-280.99 404.2,-274.77 461,-319.5 501.08,-351.07 460.03,-393.34 497,-428.5 499.77,-431.14 502.88,-433.42 506.2,-435.38"/>
<polygon fill="midnightblue" stroke="midnightblue" points="504.87,-438.63 515.39,-439.9 507.96,-432.35 504.87,-438.63"/>
</g>
<!-- Node6 -->
<g id="node6" class="node">
<title>Node6</title>
<g id="a_node6"><a xlink:href="as__memio_8c.html#ab89034596c6b460597f3955f117efe4c" target="_top" xlink:title=" ">
<polygon fill="none" stroke="black" points="327.5,-214 327.5,-233 438.5,-233 438.5,-214 327.5,-214"/>
<text text-anchor="middle" x="383" y="-221" font-family="Helvetica,sans-Serif" font-size="10.00">as_copy_from_user</text>
</a>
</g>
</g>
<!-- Node2&#45;&gt;Node6 -->
<g id="edge5" class="edge">
<title>Node2&#45;&gt;Node6</title>
<path fill="none" stroke="midnightblue" d="M250.74,-289.91C257.05,-287.33 263.44,-284.21 269,-280.5 288.36,-267.6 284.89,-254.2 305,-242.5 309.1,-240.11 313.49,-238.03 318.01,-236.2"/>
<polygon fill="midnightblue" stroke="midnightblue" points="319.23,-239.48 327.45,-232.81 316.86,-232.9 319.23,-239.48"/>
</g>
<!-- Node7 -->
<g id="node7" class="node">
<title>Node7</title>
<g id="a_node7"><a xlink:href="as__memio_8c.html#a3ae0453041c4a6d406955edd9c7e43f3" target="_top" xlink:title=" ">
<polygon fill="none" stroke="black" points="305,-252 305,-271 461,-271 461,-252 305,-252"/>
<text text-anchor="middle" x="383" y="-259" font-family="Helvetica,sans-Serif" font-size="10.00">as_memio_hw_write_update</text>
</a>
</g>
</g>
<!-- Node2&#45;&gt;Node7 -->
<g id="edge6" class="edge">
<title>Node2&#45;&gt;Node7</title>
<path fill="none" stroke="midnightblue" d="M260.13,-289.91C281.74,-284.87 308.41,-278.66 331.29,-273.32"/>
<polygon fill="midnightblue" stroke="midnightblue" points="332.22,-276.7 341.16,-271.02 330.63,-269.88 332.22,-276.7"/>
</g>
<!-- Node7&#45;&gt;Node5 -->
<g id="edge9" class="edge">
<title>Node7&#45;&gt;Node5</title>
<path fill="none" stroke="midnightblue" d="M439.36,-271.09C447.44,-274.53 455.03,-279.19 461,-285.5 506.04,-333.11 451.17,-381.65 497,-428.5 499.8,-431.37 503,-433.81 506.44,-435.9"/>
<polygon fill="midnightblue" stroke="midnightblue" points="504.9,-439.04 515.41,-440.37 508.02,-432.78 504.9,-439.04"/>
</g>
<!-- Node8 -->
<g id="node8" class="node">
<title>Node8</title>
<g id="a_node8"><a xlink:href="group__as__buffer.html#ga6016c939a78457aac0650827fdce6ae3" target="_top" xlink:title=" ">
<polygon fill="none" stroke="black" points="512,-274 512,-293 622,-293 622,-274 512,-274"/>
<text text-anchor="middle" x="567" y="-281" font-family="Helvetica,sans-Serif" font-size="10.00">as_buffer_enqueue</text>
</a>
</g>
</g>
<!-- Node7&#45;&gt;Node8 -->
<g id="edge7" class="edge">
<title>Node7&#45;&gt;Node8</title>
<path fill="none" stroke="midnightblue" d="M461.18,-270.83C474.64,-272.46 488.51,-274.13 501.57,-275.71"/>
<polygon fill="midnightblue" stroke="midnightblue" points="501.51,-279.23 511.86,-276.96 502.35,-272.28 501.51,-279.23"/>
</g>
<!-- Node9 -->
<g id="node9" class="node">
<title>Node9</title>
<g id="a_node9"><a xlink:href="group__as__buffer.html#ga207494f5e874a5db26b0bedf2784bf56" target="_top" xlink:title=" ">
<polygon fill="none" stroke="black" points="503,-224.5 503,-254.5 631,-254.5 631,-224.5 503,-224.5"/>
<text text-anchor="start" x="511" y="-242.5" font-family="Helvetica,sans-Serif" font-size="10.00">as_buffer_find_waiting</text>
<text text-anchor="middle" x="567" y="-231.5" font-family="Helvetica,sans-Serif" font-size="10.00">_buffer</text>
</a>
</g>
</g>
<!-- Node7&#45;&gt;Node9 -->
<g id="edge8" class="edge">
<title>Node7&#45;&gt;Node9</title>
<path fill="none" stroke="midnightblue" d="M461.18,-252.17C471.58,-250.91 482.21,-249.63 492.54,-248.38"/>
<polygon fill="midnightblue" stroke="midnightblue" points="493.23,-251.82 502.73,-247.15 492.39,-244.87 493.23,-251.82"/>
</g>
<!-- Node10 -->
<g id="node10" class="node">
<title>Node10</title>
<g id="a_node10"><a xlink:href="as__cache_8c.html#a82dda14c005c5bd0028e5f25fad2923c" target="_top" xlink:title="Map virtual kernel address for DMA.">
<polygon fill="none" stroke="black" points="522.5,-362 522.5,-381 611.5,-381 611.5,-362 522.5,-362"/>
<text text-anchor="middle" x="567" y="-369" font-family="Helvetica,sans-Serif" font-size="10.00">as_map_single</text>
</a>
</g>
</g>
<!-- Node7&#45;&gt;Node10 -->
<g id="edge10" class="edge">
<title>Node7&#45;&gt;Node10</title>
<path fill="none" stroke="midnightblue" d="M434.5,-271.07C443.99,-274.51 453.33,-279.17 461,-285.5 487.07,-307.02 470.57,-331.42 497,-352.5 501.67,-356.22 507.01,-359.22 512.62,-361.63"/>
<polygon fill="midnightblue" stroke="midnightblue" points="511.63,-364.99 522.22,-365.15 514.04,-358.42 511.63,-364.99"/>
</g>
<!-- Node12 -->
<g id="node12" class="node">
<title>Node12</title>
<g id="a_node12"><a xlink:href="group__as__reader__writer.html#gaaea10b48e35a224a5870cd3322ffbec2" target="_top" xlink:title="Returns the next address on which the hardware will perform a write operation.">
<polygon fill="none" stroke="black" points="507.5,-312.5 507.5,-342.5 626.5,-342.5 626.5,-312.5 507.5,-312.5"/>
<text text-anchor="start" x="515.5" y="-330.5" font-family="Helvetica,sans-Serif" font-size="10.00">as_reader_writer_get</text>
<text text-anchor="middle" x="567" y="-319.5" font-family="Helvetica,sans-Serif" font-size="10.00">_cur_hw_addr</text>
</a>
</g>
</g>
<!-- Node7&#45;&gt;Node12 -->
<g id="edge12" class="edge">
<title>Node7&#45;&gt;Node12</title>
<path fill="none" stroke="midnightblue" d="M418.08,-271.01C431.59,-275.07 447.17,-280.11 461,-285.5 477.49,-291.93 480.66,-295.7 497,-302.5 502.07,-304.61 507.39,-306.72 512.74,-308.77"/>
<polygon fill="midnightblue" stroke="midnightblue" points="511.74,-312.13 522.33,-312.38 514.2,-305.58 511.74,-312.13"/>
</g>
<!-- Node16 -->
<g id="node16" class="node">
<title>Node16</title>
<g id="a_node16"><a xlink:href="group__as__reader__writer.html#ga0e0a5b7e0dd6a14cb0f4251d00a783e8" target="_top" xlink:title="Checks if module is busy.">
<polygon fill="none" stroke="black" points="497,-137 497,-156 637,-156 637,-137 497,-137"/>
<text text-anchor="middle" x="567" y="-144" font-family="Helvetica,sans-Serif" font-size="10.00">as_reader_writer_is_busy</text>
</a>
</g>
</g>
<!-- Node7&#45;&gt;Node16 -->
<g id="edge16" class="edge">
<title>Node7&#45;&gt;Node16</title>
<path fill="none" stroke="midnightblue" d="M445.33,-251.9C450.97,-249.43 456.32,-246.35 461,-242.5 490.19,-218.52 468.13,-189.87 497,-165.5 498.99,-163.82 501.12,-162.28 503.36,-160.88"/>
<polygon fill="midnightblue" stroke="midnightblue" points="505.17,-163.88 512.39,-156.13 501.91,-157.69 505.17,-163.88"/>
</g>
<!-- Node18 -->
<g id="node18" class="node">
<title>Node18</title>
<g id="a_node18"><a xlink:href="group__as__reader__writer.html#gab3f2465225201507d51787478ac5955a" target="_top" xlink:title="Checks if another operation is queued.">
<polygon fill="none" stroke="black" points="511,-175.5 511,-205.5 623,-205.5 623,-175.5 511,-175.5"/>
<text text-anchor="start" x="519" y="-193.5" font-family="Helvetica,sans-Serif" font-size="10.00">as_reader_writer_is</text>
<text text-anchor="middle" x="567" y="-182.5" font-family="Helvetica,sans-Serif" font-size="10.00">_pending_go</text>
</a>
</g>
</g>
<!-- Node7&#45;&gt;Node18 -->
<g id="edge20" class="edge">
<title>Node7&#45;&gt;Node18</title>
<path fill="none" stroke="midnightblue" d="M435.59,-251.96C444.29,-249.45 453.07,-246.34 461,-242.5 479.24,-233.66 479.19,-224.18 497,-214.5 500.1,-212.81 503.35,-211.21 506.66,-209.69"/>
<polygon fill="midnightblue" stroke="midnightblue" points="508.33,-212.78 516.15,-205.64 505.58,-206.35 508.33,-212.78"/>
</g>
<!-- Node19 -->
<g id="node19" class="node">
<title>Node19</title>
<g id="a_node19"><a xlink:href="group__as__reader__writer.html#ga38bb160b6e30eb5fce6df2e4b4894fad" target="_top" xlink:title="Starts operation of hardware module.">
<polygon fill="none" stroke="black" points="499,-99 499,-118 635,-118 635,-99 499,-99"/>
<text text-anchor="middle" x="567" y="-106" font-family="Helvetica,sans-Serif" font-size="10.00">as_reader_writer_set_go</text>
</a>
</g>
</g>
<!-- Node7&#45;&gt;Node19 -->
<g id="edge23" class="edge">
<title>Node7&#45;&gt;Node19</title>
<path fill="none" stroke="midnightblue" d="M447.01,-251.99C452.12,-249.48 456.89,-246.37 461,-242.5 500.02,-205.81 458.48,-164.71 497,-127.5 498.63,-125.92 500.39,-124.47 502.23,-123.14"/>
<polygon fill="midnightblue" stroke="midnightblue" points="504.03,-126.14 510.84,-118.03 500.46,-120.12 504.03,-126.14"/>
</g>
<!-- Node23 -->
<g id="node23" class="node">
<title>Node23</title>
<g id="a_node23"><a xlink:href="group__as__reader__writer.html#ga43d2f73d7d42dd5704160d4ddacfaa1e" target="_top" xlink:title="Sets the start address of the first section to the given value.">
<polygon fill="none" stroke="black" points="507.5,-49.5 507.5,-79.5 626.5,-79.5 626.5,-49.5 507.5,-49.5"/>
<text text-anchor="start" x="515.5" y="-67.5" font-family="Helvetica,sans-Serif" font-size="10.00">as_reader_writer_set</text>
<text text-anchor="middle" x="567" y="-56.5" font-family="Helvetica,sans-Serif" font-size="10.00">_section_addr</text>
</a>
</g>
</g>
<!-- Node7&#45;&gt;Node23 -->
<g id="edge29" class="edge">
<title>Node7&#45;&gt;Node23</title>
<path fill="none" stroke="midnightblue" d="M448.04,-251.92C452.81,-249.41 457.22,-246.32 461,-242.5 510.13,-192.84 450.56,-141.69 497,-89.5 498.19,-88.16 499.47,-86.89 500.8,-85.69"/>
<polygon fill="midnightblue" stroke="midnightblue" points="503.15,-88.3 509.09,-79.52 498.98,-82.68 503.15,-88.3"/>
</g>
<!-- Node24 -->
<g id="node24" class="node">
<title>Node24</title>
<g id="a_node24"><a xlink:href="group__as__reader__writer.html#ga06436c5cb6a63439f2e4b7c14c71fb83" target="_top" xlink:title="Sets the size of a single section in bytes.">
<polygon fill="none" stroke="black" points="507.5,-0.5 507.5,-30.5 626.5,-30.5 626.5,-0.5 507.5,-0.5"/>
<text text-anchor="start" x="515.5" y="-18.5" font-family="Helvetica,sans-Serif" font-size="10.00">as_reader_writer_set</text>
<text text-anchor="middle" x="567" y="-7.5" font-family="Helvetica,sans-Serif" font-size="10.00">_section_size</text>
</a>
</g>
</g>
<!-- Node7&#45;&gt;Node24 -->
<g id="edge32" class="edge">
<title>Node7&#45;&gt;Node24</title>
<path fill="none" stroke="midnightblue" d="M448.64,-251.94C453.21,-249.43 457.43,-246.32 461,-242.5 523.61,-175.59 437.57,-109.24 497,-39.5 497.74,-38.63 498.51,-37.79 499.32,-36.99"/>
<polygon fill="midnightblue" stroke="midnightblue" points="501.73,-39.54 507.27,-30.51 497.31,-34.11 501.73,-39.54"/>
</g>
<!-- Node25 -->
<g id="node25" class="node">
<title>Node25</title>
<g id="a_node25"><a xlink:href="as__cache_8c.html#ae76087a19400fcaebb8397a8a1ee828b" target="_top" xlink:title="Unmap DMA address at end of transfer.">
<polygon fill="none" stroke="black" points="516.5,-400 516.5,-419 617.5,-419 617.5,-400 516.5,-400"/>
<text text-anchor="middle" x="567" y="-407" font-family="Helvetica,sans-Serif" font-size="10.00">as_unmap_single</text>
</a>
</g>
</g>
<!-- Node7&#45;&gt;Node25 -->
<g id="edge35" class="edge">
<title>Node7&#45;&gt;Node25</title>
<path fill="none" stroke="midnightblue" d="M437.73,-271.05C446.3,-274.49 454.47,-279.16 461,-285.5 496.37,-319.89 461.06,-356.71 497,-390.5 500.11,-393.42 503.62,-395.9 507.37,-398"/>
<polygon fill="midnightblue" stroke="midnightblue" points="505.96,-401.2 516.5,-402.26 508.92,-394.86 505.96,-401.2"/>
</g>
<!-- Node11 -->
<g id="node11" class="node">
<title>Node11</title>
<g id="a_node11"><a xlink:href="group__asterics__support.html#ga488e796d469c62267d9547fd11f8d764" target="_top" xlink:title=" ">
<polygon fill="none" stroke="black" points="673,-359 673,-378 803,-378 803,-359 673,-359"/>
<text text-anchor="middle" x="738" y="-366" font-family="Helvetica,sans-Serif" font-size="10.00">as_dcache_flush_range</text>
</a>
</g>
</g>
<!-- Node10&#45;&gt;Node11 -->
<g id="edge11" class="edge">
<title>Node10&#45;&gt;Node11</title>
<path fill="none" stroke="midnightblue" d="M611.52,-370.73C627.14,-370.45 645.22,-370.13 662.7,-369.82"/>
<polygon fill="midnightblue" stroke="midnightblue" points="662.97,-373.31 672.91,-369.64 662.85,-366.32 662.97,-373.31"/>
</g>
<!-- Node13 -->
<g id="node13" class="node">
<title>Node13</title>
<g id="a_node13"><a xlink:href="group__asterics__support.html#gaa7520f5b717e163da743500adb2eb0b9" target="_top" xlink:title=" ">
<polygon fill="none" stroke="black" points="692.5,-137 692.5,-156 783.5,-156 783.5,-137 692.5,-137"/>
<text text-anchor="middle" x="738" y="-144" font-family="Helvetica,sans-Serif" font-size="10.00">as_module_reg</text>
</a>
</g>
</g>
<!-- Node12&#45;&gt;Node13 -->
<g id="edge13" class="edge">
<title>Node12&#45;&gt;Node13</title>
<path fill="none" stroke="midnightblue" d="M624.78,-312.36C629.3,-309.6 633.47,-306.35 637,-302.5 678.71,-257.08 630.92,-213.58 673,-168.5 675.98,-165.31 679.44,-162.59 683.18,-160.25"/>
<polygon fill="midnightblue" stroke="midnightblue" points="685.06,-163.22 692.31,-155.5 681.83,-157.01 685.06,-163.22"/>
</g>
<!-- Node14 -->
<g id="node14" class="node">
<title>Node14</title>
<g id="a_node14"><a xlink:href="group__asterics__support.html#ga8e5c2bfd2e4498d10289377bd94cef07" target="_top" xlink:title=" ">
<polygon fill="none" stroke="black" points="840.5,-178 840.5,-197 916.5,-197 916.5,-178 840.5,-178"/>
<text text-anchor="middle" x="878.5" y="-185" font-family="Helvetica,sans-Serif" font-size="10.00">as_reg_read</text>
</a>
</g>
</g>
<!-- Node12&#45;&gt;Node14 -->
<g id="edge14" class="edge">
<title>Node12&#45;&gt;Node14</title>
<path fill="none" stroke="midnightblue" d="M611.68,-312.41C620.14,-309.28 628.89,-305.9 637,-302.5 715.74,-269.5 805.88,-224.35 850.1,-201.69"/>
<polygon fill="midnightblue" stroke="midnightblue" points="851.78,-204.76 859.07,-197.08 848.58,-198.54 851.78,-204.76"/>
</g>
<!-- Node15 -->
<g id="node15" class="node">
<title>Node15</title>
<g id="a_node15"><a xlink:href="group__asterics__support.html#ga4c6d688b840a6e2edc9bc0b8ed961677" target="_top" xlink:title=" ">
<polygon fill="none" stroke="black" points="960.5,-178 960.5,-197 1060.5,-197 1060.5,-178 960.5,-178"/>
<text text-anchor="middle" x="1010.5" y="-185" font-family="Helvetica,sans-Serif" font-size="10.00">as_reg_to_uint32</text>
</a>
</g>
</g>
<!-- Node14&#45;&gt;Node15 -->
<g id="edge15" class="edge">
<title>Node14&#45;&gt;Node15</title>
<path fill="none" stroke="midnightblue" d="M916.75,-187.5C927.09,-187.5 938.59,-187.5 949.86,-187.5"/>
<polygon fill="midnightblue" stroke="midnightblue" points="950.12,-191 960.12,-187.5 950.12,-184 950.12,-191"/>
</g>
<!-- Node16&#45;&gt;Node13 -->
<g id="edge17" class="edge">
<title>Node16&#45;&gt;Node13</title>
<path fill="none" stroke="midnightblue" d="M637.23,-146.5C652.19,-146.5 667.81,-146.5 682.14,-146.5"/>
<polygon fill="midnightblue" stroke="midnightblue" points="682.31,-150 692.31,-146.5 682.31,-143 682.31,-150"/>
</g>
<!-- Node17 -->
<g id="node17" class="node">
<title>Node17</title>
<g id="a_node17"><a xlink:href="group__asterics__support.html#ga36a2ed59c59831bee59daaae3cb6cb35" target="_top" xlink:title=" ">
<polygon fill="none" stroke="black" points="678.5,-178 678.5,-197 797.5,-197 797.5,-178 678.5,-178"/>
<text text-anchor="middle" x="738" y="-185" font-family="Helvetica,sans-Serif" font-size="10.00">as_reg_read_masked</text>
</a>
</g>
</g>
<!-- Node16&#45;&gt;Node17 -->
<g id="edge18" class="edge">
<title>Node16&#45;&gt;Node17</title>
<path fill="none" stroke="midnightblue" d="M607.2,-156.01C631.21,-161.84 662.16,-169.34 687.82,-175.57"/>
<polygon fill="midnightblue" stroke="midnightblue" points="687.18,-179.01 697.72,-177.97 688.83,-172.21 687.18,-179.01"/>
</g>
<!-- Node17&#45;&gt;Node14 -->
<g id="edge19" class="edge">
<title>Node17&#45;&gt;Node14</title>
<path fill="none" stroke="midnightblue" d="M797.74,-187.5C808.57,-187.5 819.76,-187.5 830.21,-187.5"/>
<polygon fill="midnightblue" stroke="midnightblue" points="830.37,-191 840.37,-187.5 830.37,-184 830.37,-191"/>
</g>
<!-- Node18&#45;&gt;Node13 -->
<g id="edge21" class="edge">
<title>Node18&#45;&gt;Node13</title>
<path fill="none" stroke="midnightblue" d="M623.34,-176.09C645.09,-170.43 669.79,-164 690.59,-158.58"/>
<polygon fill="midnightblue" stroke="midnightblue" points="691.67,-161.92 700.46,-156.01 689.9,-155.15 691.67,-161.92"/>
</g>
<!-- Node18&#45;&gt;Node17 -->
<g id="edge22" class="edge">
<title>Node18&#45;&gt;Node17</title>
<path fill="none" stroke="midnightblue" d="M623.34,-189.52C637.65,-189.26 653.24,-188.99 668.15,-188.72"/>
<polygon fill="midnightblue" stroke="midnightblue" points="668.4,-192.22 678.34,-188.54 668.28,-185.22 668.4,-192.22"/>
</g>
<!-- Node19&#45;&gt;Node13 -->
<g id="edge24" class="edge">
<title>Node19&#45;&gt;Node13</title>
<path fill="none" stroke="midnightblue" d="M610.65,-118.09C633.15,-123.15 660.95,-129.4 684.74,-134.75"/>
<polygon fill="midnightblue" stroke="midnightblue" points="684.14,-138.2 694.66,-136.98 685.67,-131.37 684.14,-138.2"/>
</g>
<!-- Node20 -->
<g id="node20" class="node">
<title>Node20</title>
<g id="a_node20"><a xlink:href="group__asterics__support.html#ga0ccb0610d764a95bda989e35fba59490" target="_top" xlink:title=" ">
<polygon fill="none" stroke="black" points="677,-99 677,-118 799,-118 799,-99 677,-99"/>
<text text-anchor="middle" x="738" y="-106" font-family="Helvetica,sans-Serif" font-size="10.00">as_reg_write_masked</text>
</a>
</g>
</g>
<!-- Node19&#45;&gt;Node20 -->
<g id="edge25" class="edge">
<title>Node19&#45;&gt;Node20</title>
<path fill="none" stroke="midnightblue" d="M635.28,-108.5C645.57,-108.5 656.21,-108.5 666.56,-108.5"/>
<polygon fill="midnightblue" stroke="midnightblue" points="666.79,-112 676.79,-108.5 666.79,-105 666.79,-112"/>
</g>
<!-- Node20&#45;&gt;Node14 -->
<g id="edge26" class="edge">
<title>Node20&#45;&gt;Node14</title>
<path fill="none" stroke="midnightblue" d="M779.88,-118.04C787.78,-120.6 795.82,-123.73 803,-127.5 824.63,-138.85 846.01,-156.97 860.28,-170.33"/>
<polygon fill="midnightblue" stroke="midnightblue" points="858.17,-173.16 867.8,-177.56 863.01,-168.11 858.17,-173.16"/>
</g>
<!-- Node21 -->
<g id="node21" class="node">
<title>Node21</title>
<g id="a_node21"><a xlink:href="group__asterics__support.html#ga6345b997e24a6cd5f9143cef27629d49" target="_top" xlink:title=" ">
<polygon fill="none" stroke="black" points="839,-55 839,-74 918,-74 918,-55 839,-55"/>
<text text-anchor="middle" x="878.5" y="-62" font-family="Helvetica,sans-Serif" font-size="10.00">as_reg_write</text>
</a>
</g>
</g>
<!-- Node20&#45;&gt;Node21 -->
<g id="edge27" class="edge">
<title>Node20&#45;&gt;Node21</title>
<path fill="none" stroke="midnightblue" d="M769.05,-98.95C789.2,-92.55 815.94,-84.06 837.83,-77.1"/>
<polygon fill="midnightblue" stroke="midnightblue" points="839.04,-80.39 847.51,-74.03 836.92,-73.72 839.04,-80.39"/>
</g>
<!-- Node22 -->
<g id="node22" class="node">
<title>Node22</title>
<g id="a_node22"><a xlink:href="group__asterics__support.html#gab651cc2c035ce61b354578434e59f822" target="_top" xlink:title=" ">
<polygon fill="none" stroke="black" points="954,-55 954,-74 1067,-74 1067,-55 954,-55"/>
<text text-anchor="middle" x="1010.5" y="-62" font-family="Helvetica,sans-Serif" font-size="10.00">as_reg_from_uint32</text>
</a>
</g>
</g>
<!-- Node21&#45;&gt;Node22 -->
<g id="edge28" class="edge">
<title>Node21&#45;&gt;Node22</title>
<path fill="none" stroke="midnightblue" d="M918.15,-64.5C926.22,-64.5 934.94,-64.5 943.68,-64.5"/>
<polygon fill="midnightblue" stroke="midnightblue" points="943.92,-68 953.92,-64.5 943.92,-61 943.92,-68"/>
</g>
<!-- Node23&#45;&gt;Node13 -->
<g id="edge30" class="edge">
<title>Node23&#45;&gt;Node13</title>
<path fill="none" stroke="midnightblue" d="M618.34,-79.59C624.85,-82.44 631.24,-85.73 637,-89.5 656.46,-102.25 653.17,-115.33 673,-127.5 676.4,-129.59 680.05,-131.46 683.81,-133.13"/>
<polygon fill="midnightblue" stroke="midnightblue" points="682.75,-136.48 693.33,-136.9 685.32,-129.97 682.75,-136.48"/>
</g>
<!-- Node23&#45;&gt;Node21 -->
<g id="edge31" class="edge">
<title>Node23&#45;&gt;Node21</title>
<path fill="none" stroke="midnightblue" d="M626.58,-64.5C685.02,-64.5 773.79,-64.5 828.58,-64.5"/>
<polygon fill="midnightblue" stroke="midnightblue" points="828.74,-68 838.74,-64.5 828.74,-61 828.74,-68"/>
</g>
<!-- Node24&#45;&gt;Node13 -->
<g id="edge33" class="edge">
<title>Node24&#45;&gt;Node13</title>
<path fill="none" stroke="midnightblue" d="M624.95,-30.66C629.31,-33.17 633.41,-36.1 637,-39.5 667.67,-68.57 641.67,-99.15 673,-127.5 676.01,-130.22 679.39,-132.55 682.99,-134.55"/>
<polygon fill="midnightblue" stroke="midnightblue" points="681.74,-137.83 692.28,-138.87 684.68,-131.48 681.74,-137.83"/>
</g>
<!-- Node24&#45;&gt;Node21 -->
<g id="edge34" class="edge">
<title>Node24&#45;&gt;Node21</title>
<path fill="none" stroke="midnightblue" d="M626.58,-24.77C685.02,-34.03 773.79,-48.08 828.58,-56.76"/>
<polygon fill="midnightblue" stroke="midnightblue" points="828.31,-60.26 838.74,-58.36 829.41,-53.34 828.31,-60.26"/>
</g>
<!-- Node26 -->
<g id="node26" class="node">
<title>Node26</title>
<g id="a_node26"><a xlink:href="group__asterics__support.html#ga85ce164597e47f4aaee22c873e899d4b" target="_top" xlink:title=" ">
<polygon fill="none" stroke="black" points="677,-397.5 677,-427.5 799,-427.5 799,-397.5 677,-397.5"/>
<text text-anchor="start" x="685" y="-415.5" font-family="Helvetica,sans-Serif" font-size="10.00">as_dcache_invalidate</text>
<text text-anchor="middle" x="738" y="-404.5" font-family="Helvetica,sans-Serif" font-size="10.00">_range</text>
</a>
</g>
</g>
<!-- Node25&#45;&gt;Node26 -->
<g id="edge36" class="edge">
<title>Node25&#45;&gt;Node26</title>
<path fill="none" stroke="midnightblue" d="M617.79,-410.38C633.11,-410.66 650.27,-410.96 666.7,-411.25"/>
<polygon fill="midnightblue" stroke="midnightblue" points="666.75,-414.75 676.81,-411.43 666.87,-407.75 666.75,-414.75"/>
</g>
</g>
</svg>
