<?xml version="1.0" encoding="UTF-8" standalone="no"?>
<!DOCTYPE svg PUBLIC "-//W3C//DTD SVG 1.1//EN"
 "http://www.w3.org/Graphics/SVG/1.1/DTD/svg11.dtd">
<!-- Generated by graphviz version 2.43.0 (0)
 -->
<!-- Title: as_iic_write_transaction Pages: 1 -->
<svg width="946pt" height="142pt"
 viewBox="0.00 0.00 946.00 142.00" xmlns="http://www.w3.org/2000/svg" xmlns:xlink="http://www.w3.org/1999/xlink">
<g id="graph0" class="graph" transform="scale(1 1) rotate(0) translate(4 138)">
<title>as_iic_write_transaction</title>
<!-- Node1 -->
<g id="node1" class="node">
<title>Node1</title>
<g id="a_node1"><a xlink:title=" ">
<polygon fill="#bfbfbf" stroke="black" points="804,-57.5 804,-76.5 938,-76.5 938,-57.5 804,-57.5"/>
<text text-anchor="middle" x="871" y="-64.5" font-family="Helvetica,sans-Serif" font-size="10.00">as_iic_write_transaction</text>
</a>
</g>
</g>
<!-- Node2 -->
<g id="node2" class="node">
<title>Node2</title>
<g id="a_node2"><a xlink:href="group__as__iic__user.html#ga2a4e5ee19e84cc95de665e29b92ccda1" target="_top" xlink:title=" ">
<polygon fill="none" stroke="black" points="661,-57.5 661,-76.5 768,-76.5 768,-57.5 661,-57.5"/>
<text text-anchor="middle" x="714.5" y="-64.5" font-family="Helvetica,sans-Serif" font-size="10.00">as_iic_write_bytes</text>
</a>
</g>
</g>
<!-- Node1&#45;&gt;Node2 -->
<g id="edge1" class="edge">
<title>Node1&#45;&gt;Node2</title>
<path fill="none" stroke="midnightblue" d="M793.31,-67C784.86,-67 776.41,-67 768.35,-67"/>
<polygon fill="midnightblue" stroke="midnightblue" points="793.58,-70.5 803.58,-67 793.58,-63.5 793.58,-70.5"/>
</g>
<!-- Node3 -->
<g id="node3" class="node">
<title>Node3</title>
<g id="a_node3"><a xlink:href="group__as__iic__user.html#ga5ae8936ee892843eda5df7b9a418bd52" target="_top" xlink:title=" ">
<polygon fill="none" stroke="black" points="530,-57.5 530,-76.5 625,-76.5 625,-57.5 530,-57.5"/>
<text text-anchor="middle" x="577.5" y="-64.5" font-family="Helvetica,sans-Serif" font-size="10.00">as_iic_write_reg</text>
</a>
</g>
</g>
<!-- Node2&#45;&gt;Node3 -->
<g id="edge2" class="edge">
<title>Node2&#45;&gt;Node3</title>
<path fill="none" stroke="midnightblue" d="M650.81,-67C642.12,-67 633.33,-67 625.01,-67"/>
<polygon fill="midnightblue" stroke="midnightblue" points="650.92,-70.5 660.92,-67 650.92,-63.5 650.92,-70.5"/>
</g>
<!-- Node4 -->
<g id="node4" class="node">
<title>Node4</title>
<g id="a_node4"><a xlink:href="as__sensor__ov7670_8c.html#ad5b49e677d2124f73482764e3270bb42" target="_top" xlink:title=" ">
<polygon fill="none" stroke="black" points="384,-57.5 384,-76.5 494,-76.5 494,-57.5 384,-57.5"/>
<text text-anchor="middle" x="439" y="-64.5" font-family="Helvetica,sans-Serif" font-size="10.00">ov7670_iic_reg_set</text>
</a>
</g>
</g>
<!-- Node3&#45;&gt;Node4 -->
<g id="edge3" class="edge">
<title>Node3&#45;&gt;Node4</title>
<path fill="none" stroke="midnightblue" d="M519.8,-67C511.39,-67 502.74,-67 494.38,-67"/>
<polygon fill="midnightblue" stroke="midnightblue" points="519.91,-70.5 529.91,-67 519.91,-63.5 519.91,-70.5"/>
</g>
<!-- Node5 -->
<g id="node5" class="node">
<title>Node5</title>
<g id="a_node5"><a xlink:href="group__as__sensor__ov7670.html#ga55b52e2499f96009197bfe90af6c7a41" target="_top" xlink:title=" ">
<polygon fill="none" stroke="black" points="164,-114.5 164,-133.5 348,-133.5 348,-114.5 164,-114.5"/>
<text text-anchor="middle" x="256" y="-121.5" font-family="Helvetica,sans-Serif" font-size="10.00">as_sensor_ov7670_exposure_auto</text>
</a>
</g>
</g>
<!-- Node4&#45;&gt;Node5 -->
<g id="edge4" class="edge">
<title>Node4&#45;&gt;Node5</title>
<path fill="none" stroke="midnightblue" d="M408.84,-81.01C391.48,-88.92 368.84,-98.49 348,-105 336.29,-108.66 323.51,-111.82 311.34,-114.45"/>
<polygon fill="midnightblue" stroke="midnightblue" points="410.79,-83.96 418.4,-76.58 407.85,-77.61 410.79,-83.96"/>
</g>
<!-- Node7 -->
<g id="node7" class="node">
<title>Node7</title>
<g id="a_node7"><a xlink:href="group__as__sensor__ov7670.html#ga673b948f323ea0a23896c7dc4b0e05e3" target="_top" xlink:title=" ">
<polygon fill="none" stroke="black" points="167.5,-76.5 167.5,-95.5 344.5,-95.5 344.5,-76.5 167.5,-76.5"/>
<text text-anchor="middle" x="256" y="-83.5" font-family="Helvetica,sans-Serif" font-size="10.00">as_sensor_ov7670_exposure_set</text>
</a>
</g>
</g>
<!-- Node4&#45;&gt;Node7 -->
<g id="edge6" class="edge">
<title>Node4&#45;&gt;Node7</title>
<path fill="none" stroke="midnightblue" d="M373.7,-73.75C364.32,-74.73 354.53,-75.76 344.78,-76.79"/>
<polygon fill="midnightblue" stroke="midnightblue" points="374.11,-77.23 383.69,-72.7 373.38,-70.26 374.11,-77.23"/>
</g>
<!-- Node8 -->
<g id="node8" class="node">
<title>Node8</title>
<g id="a_node8"><a xlink:href="group__as__sensor__ov7670.html#gadd11863e70497418c9d31c922945cbec" target="_top" xlink:title=" ">
<polygon fill="none" stroke="black" points="176,-38.5 176,-57.5 336,-57.5 336,-38.5 176,-38.5"/>
<text text-anchor="middle" x="256" y="-45.5" font-family="Helvetica,sans-Serif" font-size="10.00">as_sensor_ov7670_gain_auto</text>
</a>
</g>
</g>
<!-- Node4&#45;&gt;Node8 -->
<g id="edge7" class="edge">
<title>Node4&#45;&gt;Node8</title>
<path fill="none" stroke="midnightblue" d="M373.65,-60.24C361.47,-58.97 348.6,-57.62 336.03,-56.3"/>
<polygon fill="midnightblue" stroke="midnightblue" points="373.38,-63.74 383.69,-61.3 374.11,-56.77 373.38,-63.74"/>
</g>
<!-- Node9 -->
<g id="node9" class="node">
<title>Node9</title>
<g id="a_node9"><a xlink:href="group__as__sensor__ov7670.html#ga45e866e9958d1c7d8e0b0dd206f01a9e" target="_top" xlink:title=" ">
<polygon fill="none" stroke="black" points="179.5,-0.5 179.5,-19.5 332.5,-19.5 332.5,-0.5 179.5,-0.5"/>
<text text-anchor="middle" x="256" y="-7.5" font-family="Helvetica,sans-Serif" font-size="10.00">as_sensor_ov7670_gain_set</text>
</a>
</g>
</g>
<!-- Node4&#45;&gt;Node9 -->
<g id="edge9" class="edge">
<title>Node4&#45;&gt;Node9</title>
<path fill="none" stroke="midnightblue" d="M408.84,-52.99C391.48,-45.08 368.84,-35.51 348,-29 336.29,-25.34 323.51,-22.18 311.34,-19.55"/>
<polygon fill="midnightblue" stroke="midnightblue" points="407.85,-56.39 418.4,-57.42 410.79,-50.04 407.85,-56.39"/>
</g>
<!-- Node6 -->
<g id="node6" class="node">
<title>Node6</title>
<g id="a_node6"><a xlink:href="group__as__sensor__ov7670.html#ga419a3339eac0f6abb8eafe24e468ae49" target="_top" xlink:title=" ">
<polygon fill="none" stroke="black" points="0,-76.5 0,-95.5 128,-95.5 128,-76.5 0,-76.5"/>
<text text-anchor="middle" x="64" y="-83.5" font-family="Helvetica,sans-Serif" font-size="10.00">as_sensor_ov7670_init</text>
</a>
</g>
</g>
<!-- Node5&#45;&gt;Node6 -->
<g id="edge5" class="edge">
<title>Node5&#45;&gt;Node6</title>
<path fill="none" stroke="midnightblue" d="M196.95,-112.39C169.93,-106.99 138.18,-100.64 112.6,-95.52"/>
<polygon fill="midnightblue" stroke="midnightblue" points="196.56,-115.88 207.05,-114.41 197.94,-109.02 196.56,-115.88"/>
</g>
<!-- Node8&#45;&gt;Node6 -->
<g id="edge8" class="edge">
<title>Node8&#45;&gt;Node6</title>
<path fill="none" stroke="midnightblue" d="M196.95,-59.61C169.93,-65.01 138.18,-71.36 112.6,-76.48"/>
<polygon fill="midnightblue" stroke="midnightblue" points="197.94,-62.98 207.05,-57.59 196.56,-56.12 197.94,-62.98"/>
</g>
</g>
</svg>
