<?xml version="1.0" encoding="UTF-8" standalone="no"?>
<!DOCTYPE svg PUBLIC "-//W3C//DTD SVG 1.1//EN"
 "http://www.w3.org/Graphics/SVG/1.1/DTD/svg11.dtd">
<!-- Generated by graphviz version 2.43.0 (0)
 -->
<!-- Title: as_iic_start_transaction Pages: 1 -->
<svg width="1103pt" height="382pt"
 viewBox="0.00 0.00 1103.00 382.48" xmlns="http://www.w3.org/2000/svg" xmlns:xlink="http://www.w3.org/1999/xlink">
<g id="graph0" class="graph" transform="scale(1 1) rotate(0) translate(4 378.48)">
<title>as_iic_start_transaction</title>
<!-- Node1 -->
<g id="node1" class="node">
<title>Node1</title>
<g id="a_node1"><a xlink:title=" ">
<polygon fill="#bfbfbf" stroke="black" points="0,-190.5 0,-209.5 132,-209.5 132,-190.5 0,-190.5"/>
<text text-anchor="middle" x="66" y="-197.5" font-family="Helvetica,sans-Serif" font-size="10.00">as_iic_start_transaction</text>
</a>
</g>
</g>
<!-- Node2 -->
<g id="node2" class="node">
<title>Node2</title>
<g id="a_node2"><a xlink:href="group__as__iic__bitchecks.html#gaa4e8718c748b5a7e956a38ffd6dbe15d" target="_top" xlink:title=" ">
<polygon fill="none" stroke="black" points="380,-354.5 380,-373.5 494,-373.5 494,-354.5 380,-354.5"/>
<text text-anchor="middle" x="437" y="-361.5" font-family="Helvetica,sans-Serif" font-size="10.00">as_iic_ack_received</text>
</a>
</g>
</g>
<!-- Node1&#45;&gt;Node2 -->
<g id="edge1" class="edge">
<title>Node1&#45;&gt;Node2</title>
<path fill="none" stroke="midnightblue" d="M70.61,-209.67C81.01,-236.01 113.83,-309.16 168,-340 229.75,-375.16 312.74,-377.01 369.93,-372.72"/>
<polygon fill="midnightblue" stroke="midnightblue" points="370.26,-376.2 379.94,-371.89 369.68,-369.23 370.26,-376.2"/>
</g>
<!-- Node6 -->
<g id="node6" class="node">
<title>Node6</title>
<g id="a_node6"><a xlink:href="group__as__iic__wait.html#gad3cfec26b8a73166e060108cf1444a2b" target="_top" xlink:title=" ">
<polygon fill="none" stroke="black" points="378,-267 378,-297 496,-297 496,-267 378,-267"/>
<text text-anchor="start" x="386" y="-285" font-family="Helvetica,sans-Serif" font-size="10.00">as_iic_busy_wait_for</text>
<text text-anchor="middle" x="437" y="-274" font-family="Helvetica,sans-Serif" font-size="10.00">_hwready</text>
</a>
</g>
</g>
<!-- Node1&#45;&gt;Node6 -->
<g id="edge5" class="edge">
<title>Node1&#45;&gt;Node6</title>
<path fill="none" stroke="midnightblue" d="M87.43,-209.65C107.52,-218.76 139.25,-232.16 168,-240 234.7,-258.19 313.02,-269.33 367.71,-275.52"/>
<polygon fill="midnightblue" stroke="midnightblue" points="367.65,-279.04 377.98,-276.66 368.42,-272.08 367.65,-279.04"/>
</g>
<!-- Node7 -->
<g id="node7" class="node">
<title>Node7</title>
<g id="a_node7"><a xlink:href="group__as__iic__user.html#gacdb0c71d0fcfe5e50a7f7316762cd0c0" target="_top" xlink:title=" ">
<polygon fill="none" stroke="black" points="553,-283.5 553,-302.5 644,-302.5 644,-283.5 553,-283.5"/>
<text text-anchor="middle" x="598.5" y="-290.5" font-family="Helvetica,sans-Serif" font-size="10.00">as_iic_is_ready</text>
</a>
</g>
</g>
<!-- Node1&#45;&gt;Node7 -->
<g id="edge17" class="edge">
<title>Node1&#45;&gt;Node7</title>
<path fill="none" stroke="midnightblue" d="M77.92,-209.74C95.54,-224.9 131.93,-253.97 168,-269 308.75,-327.67 356.98,-318.95 509,-307 519.92,-306.14 531.54,-304.7 542.63,-303.05"/>
<polygon fill="midnightblue" stroke="midnightblue" points="543.3,-306.49 552.64,-301.49 542.22,-299.57 543.3,-306.49"/>
</g>
<!-- Node12 -->
<g id="node12" class="node">
<title>Node12</title>
<g id="a_node12"><a xlink:href="group__as__iic__wait.html#ga0bc5aad64893b674c42943fb64d17676" target="_top" xlink:title=" ">
<polygon fill="none" stroke="black" points="365,-228.5 365,-247.5 509,-247.5 509,-228.5 365,-228.5"/>
<text text-anchor="middle" x="437" y="-235.5" font-family="Helvetica,sans-Serif" font-size="10.00">as_iic_busy_wait_for_wait</text>
</a>
</g>
</g>
<!-- Node1&#45;&gt;Node12 -->
<g id="edge12" class="edge">
<title>Node1&#45;&gt;Node12</title>
<path fill="none" stroke="midnightblue" d="M111.57,-209.53C129.09,-212.97 149.42,-216.6 168,-219 230.47,-227.06 301.61,-231.91 354.89,-234.68"/>
<polygon fill="midnightblue" stroke="midnightblue" points="354.8,-238.18 364.96,-235.2 355.15,-231.19 354.8,-238.18"/>
</g>
<!-- Node14 -->
<g id="node14" class="node">
<title>Node14</title>
<g id="a_node14"><a xlink:href="group__as__iic__bitchecks.html#gad90ab4c2ed7fbca8f768c87cdb5794ee" target="_top" xlink:title=" ">
<polygon fill="none" stroke="black" points="193,-0.5 193,-19.5 304,-19.5 304,-0.5 193,-0.5"/>
<text text-anchor="middle" x="248.5" y="-7.5" font-family="Helvetica,sans-Serif" font-size="10.00">as_iic_is_initialized</text>
</a>
</g>
</g>
<!-- Node1&#45;&gt;Node14 -->
<g id="edge16" class="edge">
<title>Node1&#45;&gt;Node14</title>
<path fill="none" stroke="midnightblue" d="M70.05,-190.45C79.6,-162.09 111.71,-77.57 168,-34 173.52,-29.73 179.78,-26.22 186.33,-23.33"/>
<polygon fill="midnightblue" stroke="midnightblue" points="188.01,-26.43 196.05,-19.53 185.46,-19.91 188.01,-26.43"/>
</g>
<!-- Node15 -->
<g id="node15" class="node">
<title>Node15</title>
<g id="a_node15"><a xlink:href="group__as__iic__user.html#gae03c311fae3d6a830878a2b0c2c1c2bf" target="_top" xlink:title=" ">
<polygon fill="none" stroke="black" points="375,-76.5 375,-95.5 499,-95.5 499,-76.5 375,-76.5"/>
<text text-anchor="middle" x="437" y="-83.5" font-family="Helvetica,sans-Serif" font-size="10.00">as_iic_reset_hw_state</text>
</a>
</g>
</g>
<!-- Node1&#45;&gt;Node15 -->
<g id="edge18" class="edge">
<title>Node1&#45;&gt;Node15</title>
<path fill="none" stroke="midnightblue" d="M74.08,-190.5C88.99,-171.33 125.76,-128.29 168,-110 230.55,-82.92 308.87,-78.91 364.65,-80.47"/>
<polygon fill="midnightblue" stroke="midnightblue" points="364.68,-83.98 374.8,-80.83 364.93,-76.98 364.68,-83.98"/>
</g>
<!-- Node16 -->
<g id="node16" class="node">
<title>Node16</title>
<g id="a_node16"><a xlink:href="group__as__iic__reg__funcs.html#gac83a48fc09234a7a99adafb1ce565eb0" target="_top" xlink:title=" ">
<polygon fill="none" stroke="black" points="546.5,-76.5 546.5,-95.5 650.5,-95.5 650.5,-76.5 546.5,-76.5"/>
<text text-anchor="middle" x="598.5" y="-83.5" font-family="Helvetica,sans-Serif" font-size="10.00">as_iic_set_control</text>
</a>
</g>
</g>
<!-- Node1&#45;&gt;Node16 -->
<g id="edge22" class="edge">
<title>Node1&#45;&gt;Node16</title>
<path fill="none" stroke="midnightblue" d="M71.41,-190.34C83.08,-166.03 117.42,-102.5 168,-77 297.86,-11.52 479.08,-51.02 558.08,-73.56"/>
<polygon fill="midnightblue" stroke="midnightblue" points="557.51,-77.03 568.09,-76.48 559.47,-70.32 557.51,-77.03"/>
</g>
<!-- Node19 -->
<g id="node19" class="node">
<title>Node19</title>
<g id="a_node19"><a xlink:href="group__as__iic__reg__funcs.html#ga8058473baeded71954aa72ee8df24e9b" target="_top" xlink:title=" ">
<polygon fill="none" stroke="black" points="545,-114.5 545,-133.5 652,-133.5 652,-114.5 545,-114.5"/>
<text text-anchor="middle" x="598.5" y="-121.5" font-family="Helvetica,sans-Serif" font-size="10.00">as_iic_set_data_tx</text>
</a>
</g>
</g>
<!-- Node1&#45;&gt;Node19 -->
<g id="edge23" class="edge">
<title>Node1&#45;&gt;Node19</title>
<path fill="none" stroke="midnightblue" d="M114.69,-190.48C131.5,-187.27 150.56,-183.8 168,-181 297.94,-160.17 450.87,-141.19 534.68,-131.26"/>
<polygon fill="midnightblue" stroke="midnightblue" points="535.28,-134.71 544.8,-130.06 534.46,-127.76 535.28,-134.71"/>
</g>
<!-- Node20 -->
<g id="node20" class="node">
<title>Node20</title>
<g id="a_node20"><a xlink:href="group__as__iic__helpers.html#ga67cc002a1b20c75dc26f7b328ca5ddc9" target="_top" xlink:title=" ">
<polygon fill="none" stroke="black" points="168,-190.5 168,-209.5 329,-209.5 329,-190.5 168,-190.5"/>
<text text-anchor="middle" x="248.5" y="-197.5" font-family="Helvetica,sans-Serif" font-size="10.00">as_iic_stop_write_transaction</text>
</a>
</g>
</g>
<!-- Node1&#45;&gt;Node20 -->
<g id="edge26" class="edge">
<title>Node1&#45;&gt;Node20</title>
<path fill="none" stroke="midnightblue" d="M132.16,-200C140.51,-200 149.17,-200 157.82,-200"/>
<polygon fill="midnightblue" stroke="midnightblue" points="157.95,-203.5 167.95,-200 157.95,-196.5 157.95,-203.5"/>
</g>
<!-- Node3 -->
<g id="node3" class="node">
<title>Node3</title>
<g id="a_node3"><a xlink:href="group__as__iic__reg__funcs.html#ga8daa8fde0a7776aa2f5b335250b5aa2a" target="_top" xlink:title=" ">
<polygon fill="none" stroke="black" points="688,-283.5 688,-302.5 810,-302.5 810,-283.5 688,-283.5"/>
<text text-anchor="middle" x="749" y="-290.5" font-family="Helvetica,sans-Serif" font-size="10.00">as_iic_get_status_reg</text>
</a>
</g>
</g>
<!-- Node2&#45;&gt;Node3 -->
<g id="edge2" class="edge">
<title>Node2&#45;&gt;Node3</title>
<path fill="none" stroke="midnightblue" d="M479.49,-354.5C535.59,-341.65 635.62,-318.74 696.48,-304.8"/>
<polygon fill="midnightblue" stroke="midnightblue" points="697.3,-308.2 706.26,-302.56 695.74,-301.38 697.3,-308.2"/>
</g>
<!-- Node4 -->
<g id="node4" class="node">
<title>Node4</title>
<g id="a_node4"><a xlink:href="group__asterics__support.html#ga8e5c2bfd2e4498d10289377bd94cef07" target="_top" xlink:title=" ">
<polygon fill="none" stroke="black" points="864.5,-283.5 864.5,-302.5 940.5,-302.5 940.5,-283.5 864.5,-283.5"/>
<text text-anchor="middle" x="902.5" y="-290.5" font-family="Helvetica,sans-Serif" font-size="10.00">as_reg_read</text>
</a>
</g>
</g>
<!-- Node3&#45;&gt;Node4 -->
<g id="edge3" class="edge">
<title>Node3&#45;&gt;Node4</title>
<path fill="none" stroke="midnightblue" d="M810.31,-293C824.78,-293 840.03,-293 853.83,-293"/>
<polygon fill="midnightblue" stroke="midnightblue" points="854.07,-296.5 864.07,-293 854.07,-289.5 854.07,-296.5"/>
</g>
<!-- Node5 -->
<g id="node5" class="node">
<title>Node5</title>
<g id="a_node5"><a xlink:href="group__asterics__support.html#ga4c6d688b840a6e2edc9bc0b8ed961677" target="_top" xlink:title=" ">
<polygon fill="none" stroke="black" points="995,-283.5 995,-302.5 1095,-302.5 1095,-283.5 995,-283.5"/>
<text text-anchor="middle" x="1045" y="-290.5" font-family="Helvetica,sans-Serif" font-size="10.00">as_reg_to_uint32</text>
</a>
</g>
</g>
<!-- Node4&#45;&gt;Node5 -->
<g id="edge4" class="edge">
<title>Node4&#45;&gt;Node5</title>
<path fill="none" stroke="midnightblue" d="M940.78,-293C954.26,-293 969.83,-293 984.72,-293"/>
<polygon fill="midnightblue" stroke="midnightblue" points="984.89,-296.5 994.89,-293 984.89,-289.5 984.89,-296.5"/>
</g>
<!-- Node6&#45;&gt;Node7 -->
<g id="edge6" class="edge">
<title>Node6&#45;&gt;Node7</title>
<path fill="none" stroke="midnightblue" d="M496.03,-286C511.23,-287.05 527.57,-288.18 542.6,-289.21"/>
<polygon fill="midnightblue" stroke="midnightblue" points="542.55,-292.72 552.76,-289.91 543.03,-285.73 542.55,-292.72"/>
</g>
<!-- Node8 -->
<g id="node8" class="node">
<title>Node8</title>
<g id="a_node8"><a xlink:href="group__asterics__support.html#gab803703ab5b845023ca31b7b2664419c" target="_top" xlink:title=" ">
<polygon fill="none" stroke="black" points="569,-207.5 569,-226.5 628,-226.5 628,-207.5 569,-207.5"/>
<text text-anchor="middle" x="598.5" y="-214.5" font-family="Helvetica,sans-Serif" font-size="10.00">as_sleep</text>
</a>
</g>
</g>
<!-- Node6&#45;&gt;Node8 -->
<g id="edge8" class="edge">
<title>Node6&#45;&gt;Node8</title>
<path fill="none" stroke="midnightblue" d="M484.72,-266.97C492.92,-263.93 501.29,-260.57 509,-257 525.81,-249.22 528.22,-243.85 545,-236 549.48,-233.9 554.27,-231.89 559.05,-230"/>
<polygon fill="midnightblue" stroke="midnightblue" points="560.66,-233.14 568.78,-226.33 558.19,-226.59 560.66,-233.14"/>
</g>
<!-- Node7&#45;&gt;Node3 -->
<g id="edge7" class="edge">
<title>Node7&#45;&gt;Node3</title>
<path fill="none" stroke="midnightblue" d="M644.05,-293C654.69,-293 666.31,-293 677.79,-293"/>
<polygon fill="midnightblue" stroke="midnightblue" points="677.82,-296.5 687.82,-293 677.82,-289.5 677.82,-296.5"/>
</g>
<!-- Node9 -->
<g id="node9" class="node">
<title>Node9</title>
<g id="a_node9"><a xlink:href="group__asterics__support.html#ga284d9e0d170cf7cabc16ccd7e62d95bd" target="_top" xlink:title=" ">
<polygon fill="none" stroke="black" points="720.5,-207.5 720.5,-226.5 777.5,-226.5 777.5,-207.5 720.5,-207.5"/>
<text text-anchor="middle" x="749" y="-214.5" font-family="Helvetica,sans-Serif" font-size="10.00">as_yield</text>
</a>
</g>
</g>
<!-- Node8&#45;&gt;Node9 -->
<g id="edge9" class="edge">
<title>Node8&#45;&gt;Node9</title>
<path fill="none" stroke="midnightblue" d="M628.13,-217C651.54,-217 684.82,-217 710.38,-217"/>
<polygon fill="midnightblue" stroke="midnightblue" points="710.46,-220.5 720.46,-217 710.46,-213.5 710.46,-220.5"/>
</g>
<!-- Node10 -->
<g id="node10" class="node">
<title>Node10</title>
<g id="a_node10"><a xlink:href="group__asterics__support.html#gad294e0c5530bd6fb800a2394179070e1" target="_top" xlink:title=" ">
<polygon fill="none" stroke="black" points="857.5,-188.5 857.5,-207.5 947.5,-207.5 947.5,-188.5 857.5,-188.5"/>
<text text-anchor="middle" x="902.5" y="-195.5" font-family="Helvetica,sans-Serif" font-size="10.00">as_mutex_lock</text>
</a>
</g>
</g>
<!-- Node9&#45;&gt;Node10 -->
<g id="edge10" class="edge">
<title>Node9&#45;&gt;Node10</title>
<path fill="none" stroke="midnightblue" d="M777.79,-213.52C797.13,-211.09 823.57,-207.77 847.04,-204.83"/>
<polygon fill="midnightblue" stroke="midnightblue" points="847.75,-208.27 857.23,-203.55 846.88,-201.32 847.75,-208.27"/>
</g>
<!-- Node11 -->
<g id="node11" class="node">
<title>Node11</title>
<g id="a_node11"><a xlink:href="group__asterics__support.html#ga07e09e825f2608339f6213edb9d0c8b3" target="_top" xlink:title=" ">
<polygon fill="none" stroke="black" points="851.5,-226.5 851.5,-245.5 953.5,-245.5 953.5,-226.5 851.5,-226.5"/>
<text text-anchor="middle" x="902.5" y="-233.5" font-family="Helvetica,sans-Serif" font-size="10.00">as_mutex_unlock</text>
</a>
</g>
</g>
<!-- Node9&#45;&gt;Node11 -->
<g id="edge11" class="edge">
<title>Node9&#45;&gt;Node11</title>
<path fill="none" stroke="midnightblue" d="M777.79,-220.48C795.57,-222.71 819.33,-225.7 841.28,-228.45"/>
<polygon fill="midnightblue" stroke="midnightblue" points="840.85,-231.92 851.21,-229.69 841.72,-224.98 840.85,-231.92"/>
</g>
<!-- Node12&#45;&gt;Node8 -->
<g id="edge15" class="edge">
<title>Node12&#45;&gt;Node8</title>
<path fill="none" stroke="midnightblue" d="M509.35,-228.61C526.31,-226.37 543.77,-224.07 558.64,-222.12"/>
<polygon fill="midnightblue" stroke="midnightblue" points="559.5,-225.53 568.96,-220.76 558.59,-218.59 559.5,-225.53"/>
</g>
<!-- Node13 -->
<g id="node13" class="node">
<title>Node13</title>
<g id="a_node13"><a xlink:href="group__as__iic__bitchecks.html#ga4629e4514c3531d0bcd44ae20abc6bad" target="_top" xlink:title=" ">
<polygon fill="none" stroke="black" points="549,-245.5 549,-264.5 648,-264.5 648,-245.5 549,-245.5"/>
<text text-anchor="middle" x="598.5" y="-252.5" font-family="Helvetica,sans-Serif" font-size="10.00">as_iic_is_waiting</text>
</a>
</g>
</g>
<!-- Node12&#45;&gt;Node13 -->
<g id="edge13" class="edge">
<title>Node12&#45;&gt;Node13</title>
<path fill="none" stroke="midnightblue" d="M509.35,-245.6C519.1,-246.64 529.01,-247.7 538.51,-248.71"/>
<polygon fill="midnightblue" stroke="midnightblue" points="538.3,-252.21 548.62,-249.79 539.04,-245.25 538.3,-252.21"/>
</g>
<!-- Node13&#45;&gt;Node3 -->
<g id="edge14" class="edge">
<title>Node13&#45;&gt;Node3</title>
<path fill="none" stroke="midnightblue" d="M636.97,-264.59C656.39,-269.56 680.3,-275.68 700.95,-280.96"/>
<polygon fill="midnightblue" stroke="midnightblue" points="700.24,-284.39 710.8,-283.48 701.98,-277.61 700.24,-284.39"/>
</g>
<!-- Node15&#45;&gt;Node16 -->
<g id="edge19" class="edge">
<title>Node15&#45;&gt;Node16</title>
<path fill="none" stroke="midnightblue" d="M499.21,-86C511.36,-86 524.11,-86 536.26,-86"/>
<polygon fill="midnightblue" stroke="midnightblue" points="536.3,-89.5 546.3,-86 536.3,-82.5 536.3,-89.5"/>
</g>
<!-- Node17 -->
<g id="node17" class="node">
<title>Node17</title>
<g id="a_node17"><a xlink:href="group__asterics__support.html#ga6345b997e24a6cd5f9143cef27629d49" target="_top" xlink:title=" ">
<polygon fill="none" stroke="black" points="709.5,-95.5 709.5,-114.5 788.5,-114.5 788.5,-95.5 709.5,-95.5"/>
<text text-anchor="middle" x="749" y="-102.5" font-family="Helvetica,sans-Serif" font-size="10.00">as_reg_write</text>
</a>
</g>
</g>
<!-- Node16&#45;&gt;Node17 -->
<g id="edge20" class="edge">
<title>Node16&#45;&gt;Node17</title>
<path fill="none" stroke="midnightblue" d="M650.61,-92.54C666.43,-94.56 683.82,-96.79 699.47,-98.79"/>
<polygon fill="midnightblue" stroke="midnightblue" points="699.11,-102.27 709.47,-100.07 700,-95.33 699.11,-102.27"/>
</g>
<!-- Node18 -->
<g id="node18" class="node">
<title>Node18</title>
<g id="a_node18"><a xlink:href="group__asterics__support.html#gab651cc2c035ce61b354578434e59f822" target="_top" xlink:title=" ">
<polygon fill="none" stroke="black" points="846,-95.5 846,-114.5 959,-114.5 959,-95.5 846,-95.5"/>
<text text-anchor="middle" x="902.5" y="-102.5" font-family="Helvetica,sans-Serif" font-size="10.00">as_reg_from_uint32</text>
</a>
</g>
</g>
<!-- Node17&#45;&gt;Node18 -->
<g id="edge21" class="edge">
<title>Node17&#45;&gt;Node18</title>
<path fill="none" stroke="midnightblue" d="M788.62,-105C802.86,-105 819.43,-105 835.41,-105"/>
<polygon fill="midnightblue" stroke="midnightblue" points="835.79,-108.5 845.79,-105 835.79,-101.5 835.79,-108.5"/>
</g>
<!-- Node19&#45;&gt;Node4 -->
<g id="edge24" class="edge">
<title>Node19&#45;&gt;Node4</title>
<path fill="none" stroke="midnightblue" d="M605.87,-133.54C622.36,-158 666.67,-221.98 688,-236 701.98,-245.19 796.01,-268.31 854.52,-282.12"/>
<polygon fill="midnightblue" stroke="midnightblue" points="853.76,-285.54 864.3,-284.42 855.37,-278.72 853.76,-285.54"/>
</g>
<!-- Node19&#45;&gt;Node17 -->
<g id="edge25" class="edge">
<title>Node19&#45;&gt;Node17</title>
<path fill="none" stroke="midnightblue" d="M652.27,-117.25C667.58,-115.29 684.22,-113.16 699.27,-111.23"/>
<polygon fill="midnightblue" stroke="midnightblue" points="699.92,-114.68 709.4,-109.94 699.03,-107.74 699.92,-114.68"/>
</g>
<!-- Node20&#45;&gt;Node2 -->
<g id="edge27" class="edge">
<title>Node20&#45;&gt;Node2</title>
<path fill="none" stroke="midnightblue" d="M259.48,-209.69C279.22,-228.77 324.85,-272.36 365,-307 381.55,-321.28 400.94,-336.77 415.27,-347.99"/>
<polygon fill="midnightblue" stroke="midnightblue" points="413.43,-350.99 423.47,-354.37 417.73,-345.47 413.43,-350.99"/>
</g>
<!-- Node20&#45;&gt;Node6 -->
<g id="edge28" class="edge">
<title>Node20&#45;&gt;Node6</title>
<path fill="none" stroke="midnightblue" d="M267.2,-209.56C289.6,-221.48 329.55,-242.08 365,-257 370.12,-259.16 375.49,-261.28 380.9,-263.34"/>
<polygon fill="midnightblue" stroke="midnightblue" points="380.03,-266.74 390.62,-266.93 382.46,-260.18 380.03,-266.74"/>
</g>
<!-- Node20&#45;&gt;Node8 -->
<g id="edge31" class="edge">
<title>Node20&#45;&gt;Node8</title>
<path fill="none" stroke="midnightblue" d="M329.34,-203.9C401.16,-207.41 503.62,-212.41 558.78,-215.11"/>
<polygon fill="midnightblue" stroke="midnightblue" points="558.67,-218.61 568.83,-215.6 559.02,-211.62 558.67,-218.61"/>
</g>
<!-- Node20&#45;&gt;Node15 -->
<g id="edge29" class="edge">
<title>Node20&#45;&gt;Node15</title>
<path fill="none" stroke="midnightblue" d="M265.08,-190.48C297.58,-170.61 372.81,-124.63 411.72,-100.84"/>
<polygon fill="midnightblue" stroke="midnightblue" points="413.63,-103.78 420.33,-95.58 409.98,-97.81 413.63,-103.78"/>
</g>
<!-- Node20&#45;&gt;Node16 -->
<g id="edge30" class="edge">
<title>Node20&#45;&gt;Node16</title>
<path fill="none" stroke="midnightblue" d="M278.57,-190.48C341.01,-170.02 487.95,-121.89 558.44,-98.8"/>
<polygon fill="midnightblue" stroke="midnightblue" points="559.85,-102.02 568.27,-95.58 557.67,-95.36 559.85,-102.02"/>
</g>
</g>
</svg>
