<?xml version="1.0" encoding="UTF-8" standalone="no"?>
<!DOCTYPE svg PUBLIC "-//W3C//DTD SVG 1.1//EN"
 "http://www.w3.org/Graphics/SVG/1.1/DTD/svg11.dtd">
<!-- Generated by graphviz version 2.43.0 (0)
 -->
<!-- Title: as_reg_to_uint32 Pages: 1 -->
<svg width="767pt" height="1610pt"
 viewBox="0.00 0.00 767.00 1610.00" xmlns="http://www.w3.org/2000/svg" xmlns:xlink="http://www.w3.org/1999/xlink">
<g id="graph0" class="graph" transform="scale(1 1) rotate(0) translate(4 1606)">
<title>as_reg_to_uint32</title>
<!-- Node1 -->
<g id="node1" class="node">
<title>Node1</title>
<g id="a_node1"><a xlink:title=" ">
<polygon fill="#bfbfbf" stroke="black" points="659,-761.5 659,-780.5 759,-780.5 759,-761.5 659,-761.5"/>
<text text-anchor="middle" x="709" y="-768.5" font-family="Helvetica,sans-Serif" font-size="10.00">as_reg_to_uint32</text>
</a>
</g>
</g>
<!-- Node2 -->
<g id="node2" class="node">
<title>Node2</title>
<g id="a_node2"><a xlink:href="group__asterics__support.html#ga8e5c2bfd2e4498d10289377bd94cef07" target="_top" xlink:title=" ">
<polygon fill="none" stroke="black" points="547,-761.5 547,-780.5 623,-780.5 623,-761.5 547,-761.5"/>
<text text-anchor="middle" x="585" y="-768.5" font-family="Helvetica,sans-Serif" font-size="10.00">as_reg_read</text>
</a>
</g>
</g>
<!-- Node1&#45;&gt;Node2 -->
<g id="edge1" class="edge">
<title>Node1&#45;&gt;Node2</title>
<path fill="none" stroke="midnightblue" d="M648.58,-771C639.88,-771 631.14,-771 623.07,-771"/>
<polygon fill="midnightblue" stroke="midnightblue" points="648.73,-774.5 658.73,-771 648.73,-767.5 648.73,-774.5"/>
</g>
<!-- Node3 -->
<g id="node3" class="node">
<title>Node3</title>
<g id="a_node3"><a xlink:href="group__as__canny.html#ga5a7a8da32b17cbc118a2fcc020ed7397" target="_top" xlink:title=" ">
<polygon fill="none" stroke="black" points="361,-1485 361,-1515 511,-1515 511,-1485 361,-1485"/>
<text text-anchor="start" x="369" y="-1503" font-family="Helvetica,sans-Serif" font-size="10.00">as_canny_pipe_get_feature</text>
<text text-anchor="middle" x="436" y="-1492" font-family="Helvetica,sans-Serif" font-size="10.00">_count</text>
</a>
</g>
</g>
<!-- Node2&#45;&gt;Node3 -->
<g id="edge2" class="edge">
<title>Node2&#45;&gt;Node3</title>
<path fill="none" stroke="midnightblue" d="M583.21,-790.79C578.71,-899.39 554.94,-1420.01 511,-1475 507.95,-1478.81 504.3,-1482.05 500.27,-1484.79"/>
<polygon fill="midnightblue" stroke="midnightblue" points="586.71,-790.74 583.62,-780.61 579.72,-790.45 586.71,-790.74"/>
</g>
<!-- Node4 -->
<g id="node4" class="node">
<title>Node4</title>
<g id="a_node4"><a xlink:href="group__as__iic__reg__funcs.html#gaca309e97934beed04c02e31ba9cfbd3a" target="_top" xlink:title=" ">
<polygon fill="none" stroke="black" points="373.5,-1446.5 373.5,-1465.5 498.5,-1465.5 498.5,-1446.5 373.5,-1446.5"/>
<text text-anchor="middle" x="436" y="-1453.5" font-family="Helvetica,sans-Serif" font-size="10.00">as_iic_get_control_reg</text>
</a>
</g>
</g>
<!-- Node2&#45;&gt;Node4 -->
<g id="edge3" class="edge">
<title>Node2&#45;&gt;Node4</title>
<path fill="none" stroke="midnightblue" d="M583.98,-791.06C583.55,-887.4 577.81,-1302.31 511,-1409 499.93,-1426.67 479.52,-1438.89 462.93,-1446.43"/>
<polygon fill="midnightblue" stroke="midnightblue" points="587.48,-790.94 584.01,-780.93 580.48,-790.92 587.48,-790.94"/>
</g>
<!-- Node23 -->
<g id="node12" class="node">
<title>Node23</title>
<g id="a_node12"><a xlink:href="group__as__iic__reg__funcs.html#ga2dad585c29bd8cff3a81e9b34ff83d6c" target="_top" xlink:title=" ">
<polygon fill="none" stroke="black" points="382.5,-1380.5 382.5,-1399.5 489.5,-1399.5 489.5,-1380.5 382.5,-1380.5"/>
<text text-anchor="middle" x="436" y="-1387.5" font-family="Helvetica,sans-Serif" font-size="10.00">as_iic_get_data_rx</text>
</a>
</g>
</g>
<!-- Node2&#45;&gt;Node23 -->
<g id="edge11" class="edge">
<title>Node2&#45;&gt;Node23</title>
<path fill="none" stroke="midnightblue" d="M582.91,-790.62C577.3,-889.05 550.28,-1326.24 511,-1371 505.31,-1377.48 497.74,-1381.89 489.61,-1384.87"/>
<polygon fill="midnightblue" stroke="midnightblue" points="586.41,-790.74 583.48,-780.56 579.42,-790.35 586.41,-790.74"/>
</g>
<!-- Node24 -->
<g id="node13" class="node">
<title>Node24</title>
<g id="a_node13"><a xlink:href="group__as__iic__reg__funcs.html#ga9e077d3e462ddbce6703f881f2fee772" target="_top" xlink:title=" ">
<polygon fill="none" stroke="black" points="382.5,-1342.5 382.5,-1361.5 489.5,-1361.5 489.5,-1342.5 382.5,-1342.5"/>
<text text-anchor="middle" x="436" y="-1349.5" font-family="Helvetica,sans-Serif" font-size="10.00">as_iic_get_data_tx</text>
</a>
</g>
</g>
<!-- Node2&#45;&gt;Node24 -->
<g id="edge12" class="edge">
<title>Node2&#45;&gt;Node24</title>
<path fill="none" stroke="midnightblue" d="M584.28,-791.07C585.15,-881.51 584.08,-1250.4 511,-1333 505.29,-1339.46 497.7,-1343.86 489.57,-1346.84"/>
<polygon fill="midnightblue" stroke="midnightblue" points="587.78,-790.79 584.17,-780.83 580.78,-790.87 587.78,-790.79"/>
</g>
<!-- Node25 -->
<g id="node14" class="node">
<title>Node25</title>
<g id="a_node14"><a xlink:href="group__as__iic__reg__funcs.html#gace5813084165559c81fe11db6b628b5e" target="_top" xlink:title=" ">
<polygon fill="none" stroke="black" points="382.5,-1304.5 382.5,-1323.5 489.5,-1323.5 489.5,-1304.5 382.5,-1304.5"/>
<text text-anchor="middle" x="436" y="-1311.5" font-family="Helvetica,sans-Serif" font-size="10.00">as_iic_get_rx_byte</text>
</a>
</g>
</g>
<!-- Node2&#45;&gt;Node25 -->
<g id="edge13" class="edge">
<title>Node2&#45;&gt;Node25</title>
<path fill="none" stroke="midnightblue" d="M584.07,-790.79C583.99,-876.96 579.29,-1218.53 511,-1295 505.26,-1301.43 497.66,-1305.82 489.52,-1308.79"/>
<polygon fill="midnightblue" stroke="midnightblue" points="587.57,-790.57 584.06,-780.58 580.57,-790.58 587.57,-790.57"/>
</g>
<!-- Node34 -->
<g id="node16" class="node">
<title>Node34</title>
<g id="a_node16"><a xlink:href="group__as__iic__reg__funcs.html#ga8e5ac0f5aaa3e8373eeb8553c00c8fd8" target="_top" xlink:title=" ">
<polygon fill="none" stroke="black" points="385.5,-1266.5 385.5,-1285.5 486.5,-1285.5 486.5,-1266.5 385.5,-1266.5"/>
<text text-anchor="middle" x="436" y="-1273.5" font-family="Helvetica,sans-Serif" font-size="10.00">as_iic_get_status</text>
</a>
</g>
</g>
<!-- Node2&#45;&gt;Node34 -->
<g id="edge16" class="edge">
<title>Node2&#45;&gt;Node34</title>
<path fill="none" stroke="midnightblue" d="M583.83,-790.91C582.74,-873.33 574.41,-1186.75 511,-1257 504.6,-1264.09 495.95,-1268.69 486.81,-1271.65"/>
<polygon fill="midnightblue" stroke="midnightblue" points="587.34,-790.71 583.95,-780.67 580.34,-790.63 587.34,-790.71"/>
</g>
<!-- Node35 -->
<g id="node17" class="node">
<title>Node35</title>
<g id="a_node17"><a xlink:href="group__as__iic__reg__funcs.html#ga8daa8fde0a7776aa2f5b335250b5aa2a" target="_top" xlink:title=" ">
<polygon fill="none" stroke="black" points="375,-1228.5 375,-1247.5 497,-1247.5 497,-1228.5 375,-1228.5"/>
<text text-anchor="middle" x="436" y="-1235.5" font-family="Helvetica,sans-Serif" font-size="10.00">as_iic_get_status_reg</text>
</a>
</g>
</g>
<!-- Node2&#45;&gt;Node35 -->
<g id="edge17" class="edge">
<title>Node2&#45;&gt;Node35</title>
<path fill="none" stroke="midnightblue" d="M583.55,-791.08C581.38,-869.64 569.53,-1154.96 511,-1219 507.06,-1223.31 502.29,-1226.7 497.09,-1229.35"/>
<polygon fill="midnightblue" stroke="midnightblue" points="587.06,-790.76 583.81,-780.67 580.06,-790.58 587.06,-790.76"/>
</g>
<!-- Node51 -->
<g id="node24" class="node">
<title>Node51</title>
<g id="a_node24"><a xlink:href="group__as__iic__reg__funcs.html#ga8058473baeded71954aa72ee8df24e9b" target="_top" xlink:title=" ">
<polygon fill="none" stroke="red" points="382.5,-1190.5 382.5,-1209.5 489.5,-1209.5 489.5,-1190.5 382.5,-1190.5"/>
<text text-anchor="middle" x="436" y="-1197.5" font-family="Helvetica,sans-Serif" font-size="10.00">as_iic_set_data_tx</text>
</a>
</g>
</g>
<!-- Node2&#45;&gt;Node51 -->
<g id="edge25" class="edge">
<title>Node2&#45;&gt;Node51</title>
<path fill="none" stroke="midnightblue" d="M583.23,-790.79C579.96,-864.66 564.79,-1123.01 511,-1181 505.23,-1187.22 497.72,-1191.52 489.7,-1194.47"/>
<polygon fill="midnightblue" stroke="midnightblue" points="586.74,-790.71 583.66,-780.58 579.74,-790.42 586.74,-790.71"/>
</g>
<!-- Node52 -->
<g id="node25" class="node">
<title>Node52</title>
<g id="a_node25"><a xlink:href="group__as__iic__reg__funcs.html#ga9fc4b532c67bb8f2d999583a900d741b" target="_top" xlink:title=" ">
<polygon fill="none" stroke="red" points="384,-1152.5 384,-1171.5 488,-1171.5 488,-1152.5 384,-1152.5"/>
<text text-anchor="middle" x="436" y="-1159.5" font-family="Helvetica,sans-Serif" font-size="10.00">as_iic_set_scl_div</text>
</a>
</g>
</g>
<!-- Node2&#45;&gt;Node52 -->
<g id="edge26" class="edge">
<title>Node2&#45;&gt;Node52</title>
<path fill="none" stroke="midnightblue" d="M582.84,-790.73C578.38,-860.05 560,-1091.09 511,-1143 504.81,-1149.56 496.68,-1153.97 488.09,-1156.92"/>
<polygon fill="midnightblue" stroke="midnightblue" points="586.34,-790.91 583.46,-780.71 579.35,-790.48 586.34,-790.91"/>
</g>
<!-- Node53 -->
<g id="node26" class="node">
<title>Node53</title>
<g id="a_node26"><a xlink:href="group__as__reader__writer.html#gaaea10b48e35a224a5870cd3322ffbec2" target="_top" xlink:title="Returns the next address on which the hardware will perform a write operation.">
<polygon fill="none" stroke="red" points="376.5,-1103 376.5,-1133 495.5,-1133 495.5,-1103 376.5,-1103"/>
<text text-anchor="start" x="384.5" y="-1121" font-family="Helvetica,sans-Serif" font-size="10.00">as_reader_writer_get</text>
<text text-anchor="middle" x="436" y="-1110" font-family="Helvetica,sans-Serif" font-size="10.00">_cur_hw_addr</text>
</a>
</g>
</g>
<!-- Node2&#45;&gt;Node53 -->
<g id="edge27" class="edge">
<title>Node2&#45;&gt;Node53</title>
<path fill="none" stroke="midnightblue" d="M582.04,-790.74C575.43,-853.59 552.03,-1047.52 511,-1093 506.64,-1097.83 501.31,-1101.73 495.54,-1104.88"/>
<polygon fill="midnightblue" stroke="midnightblue" points="585.54,-790.91 583.08,-780.6 578.58,-790.19 585.54,-790.91"/>
</g>
<!-- Node67 -->
<g id="node27" class="node">
<title>Node67</title>
<g id="a_node27"><a xlink:href="group__asterics__support.html#ga36a2ed59c59831bee59daaae3cb6cb35" target="_top" xlink:title=" ">
<polygon fill="none" stroke="red" points="376.5,-1064.5 376.5,-1083.5 495.5,-1083.5 495.5,-1064.5 376.5,-1064.5"/>
<text text-anchor="middle" x="436" y="-1071.5" font-family="Helvetica,sans-Serif" font-size="10.00">as_reg_read_masked</text>
</a>
</g>
</g>
<!-- Node2&#45;&gt;Node67 -->
<g id="edge28" class="edge">
<title>Node2&#45;&gt;Node67</title>
<path fill="none" stroke="midnightblue" d="M581.54,-790.77C573.93,-848.82 548.97,-1017.04 511,-1055 506.59,-1059.41 501.31,-1062.84 495.62,-1065.5"/>
<polygon fill="midnightblue" stroke="midnightblue" points="585.03,-791.07 582.83,-780.7 578.09,-790.18 585.03,-791.07"/>
</g>
<!-- Node76 -->
<g id="node28" class="node">
<title>Node76</title>
<g id="a_node28"><a xlink:href="group__asterics__support.html#ga0ccb0610d764a95bda989e35fba59490" target="_top" xlink:title=" ">
<polygon fill="none" stroke="red" points="375,-1026.5 375,-1045.5 497,-1045.5 497,-1026.5 375,-1026.5"/>
<text text-anchor="middle" x="436" y="-1033.5" font-family="Helvetica,sans-Serif" font-size="10.00">as_reg_write_masked</text>
</a>
</g>
</g>
<!-- Node2&#45;&gt;Node76 -->
<g id="edge29" class="edge">
<title>Node2&#45;&gt;Node76</title>
<path fill="none" stroke="midnightblue" d="M584.19,-790.83C583.53,-837.18 575.17,-953.46 511,-1016 506.62,-1020.27 501.42,-1023.66 495.84,-1026.33"/>
<polygon fill="midnightblue" stroke="midnightblue" points="587.7,-790.63 584.23,-780.62 580.7,-790.61 587.7,-790.63"/>
</g>
<!-- Node102 -->
<g id="node29" class="node">
<title>Node102</title>
<g id="a_node29"><a xlink:href="group__as__stream__adapter.html#ga949f37184fec3d0fed81cbf05daeb3a7" target="_top" xlink:title=" ">
<polygon fill="none" stroke="black" points="370.5,-977 370.5,-1007 501.5,-1007 501.5,-977 370.5,-977"/>
<text text-anchor="start" x="378.5" y="-995" font-family="Helvetica,sans-Serif" font-size="10.00">as_stream_adapter_get</text>
<text text-anchor="middle" x="436" y="-984" font-family="Helvetica,sans-Serif" font-size="10.00">_buffer_size</text>
</a>
</g>
</g>
<!-- Node2&#45;&gt;Node102 -->
<g id="edge30" class="edge">
<title>Node2&#45;&gt;Node102</title>
<path fill="none" stroke="midnightblue" d="M582.18,-790.82C577.54,-829.99 561.77,-917.76 511,-967 507.01,-970.87 502.4,-974.14 497.47,-976.91"/>
<polygon fill="midnightblue" stroke="midnightblue" points="585.68,-791.04 583.25,-780.73 578.72,-790.3 585.68,-791.04"/>
</g>
<!-- Node103 -->
<g id="node30" class="node">
<title>Node103</title>
<g id="a_node30"><a xlink:href="group__as__stream__adapter.html#ga71ce0201761b81a2f572d833189f4507" target="_top" xlink:title=" ">
<polygon fill="none" stroke="black" points="370.5,-928 370.5,-958 501.5,-958 501.5,-928 370.5,-928"/>
<text text-anchor="start" x="378.5" y="-946" font-family="Helvetica,sans-Serif" font-size="10.00">as_stream_adapter_get</text>
<text text-anchor="middle" x="436" y="-935" font-family="Helvetica,sans-Serif" font-size="10.00">_strobe_in_count</text>
</a>
</g>
</g>
<!-- Node2&#45;&gt;Node103 -->
<g id="edge31" class="edge">
<title>Node2&#45;&gt;Node103</title>
<path fill="none" stroke="midnightblue" d="M579.45,-790.56C571.18,-821.89 550.74,-883.3 511,-918 506.61,-921.84 501.6,-925.09 496.32,-927.84"/>
<polygon fill="midnightblue" stroke="midnightblue" points="582.86,-791.38 581.88,-780.83 576.07,-789.69 582.86,-791.38"/>
</g>
<!-- Node104 -->
<g id="node31" class="node">
<title>Node104</title>
<g id="a_node31"><a xlink:href="group__as__stream__adapter.html#ga23bc1355f217edcbd1e48b944c1f481a" target="_top" xlink:title=" ">
<polygon fill="none" stroke="black" points="370.5,-879 370.5,-909 501.5,-909 501.5,-879 370.5,-879"/>
<text text-anchor="start" x="378.5" y="-897" font-family="Helvetica,sans-Serif" font-size="10.00">as_stream_adapter_get</text>
<text text-anchor="middle" x="436" y="-886" font-family="Helvetica,sans-Serif" font-size="10.00">_strobe_out_count</text>
</a>
</g>
</g>
<!-- Node2&#45;&gt;Node104 -->
<g id="edge32" class="edge">
<title>Node2&#45;&gt;Node104</title>
<path fill="none" stroke="midnightblue" d="M574.69,-789.58C562.79,-811.56 540.18,-847.81 511,-869 505.73,-872.83 499.84,-876.09 493.74,-878.88"/>
<polygon fill="midnightblue" stroke="midnightblue" points="577.86,-791.08 579.39,-780.6 571.66,-787.84 577.86,-791.08"/>
</g>
<!-- Node105 -->
<g id="node32" class="node">
<title>Node105</title>
<g id="a_node32"><a xlink:href="group__as__stream__adapter.html#ga046c0c820ff8e65dc3c4bb43ab9e5d0c" target="_top" xlink:title=" ">
<polygon fill="none" stroke="black" points="374,-830 374,-860 498,-860 498,-830 374,-830"/>
<text text-anchor="start" x="382" y="-848" font-family="Helvetica,sans-Serif" font-size="10.00">as_stream_adapter_is</text>
<text text-anchor="middle" x="436" y="-837" font-family="Helvetica,sans-Serif" font-size="10.00">_buffer_empty</text>
</a>
</g>
</g>
<!-- Node2&#45;&gt;Node105 -->
<g id="edge33" class="edge">
<title>Node2&#45;&gt;Node105</title>
<path fill="none" stroke="midnightblue" d="M563.9,-786.62C549.71,-797.11 529.93,-810.66 511,-820 503.58,-823.66 495.5,-827 487.49,-829.95"/>
<polygon fill="midnightblue" stroke="midnightblue" points="566.07,-789.37 571.95,-780.56 561.86,-783.78 566.07,-789.37"/>
</g>
<!-- Node106 -->
<g id="node33" class="node">
<title>Node106</title>
<g id="a_node33"><a xlink:href="group__as__stream__adapter.html#ga681755aebf19414cd12621272d00abdd" target="_top" xlink:title=" ">
<polygon fill="none" stroke="black" points="374,-781 374,-811 498,-811 498,-781 374,-781"/>
<text text-anchor="start" x="382" y="-799" font-family="Helvetica,sans-Serif" font-size="10.00">as_stream_adapter_is</text>
<text text-anchor="middle" x="436" y="-788" font-family="Helvetica,sans-Serif" font-size="10.00">_buffer_full</text>
</a>
</g>
</g>
<!-- Node2&#45;&gt;Node106 -->
<g id="edge34" class="edge">
<title>Node2&#45;&gt;Node106</title>
<path fill="none" stroke="midnightblue" d="M536.85,-779.02C524.52,-781.12 511.05,-783.41 498.1,-785.61"/>
<polygon fill="midnightblue" stroke="midnightblue" points="537.63,-782.44 546.91,-777.31 536.46,-775.53 537.63,-782.44"/>
</g>
<!-- Node107 -->
<g id="node34" class="node">
<title>Node107</title>
<g id="a_node34"><a xlink:href="group__as__stream__adapter.html#ga5c6c97e9564049dcdb051977b0430cbf" target="_top" xlink:title=" ">
<polygon fill="none" stroke="black" points="364,-732 364,-762 508,-762 508,-732 364,-732"/>
<text text-anchor="start" x="372" y="-750" font-family="Helvetica,sans-Serif" font-size="10.00">as_stream_adapter_is</text>
<text text-anchor="middle" x="436" y="-739" font-family="Helvetica,sans-Serif" font-size="10.00">_strobe_counting_enabled</text>
</a>
</g>
</g>
<!-- Node2&#45;&gt;Node107 -->
<g id="edge35" class="edge">
<title>Node2&#45;&gt;Node107</title>
<path fill="none" stroke="midnightblue" d="M536.87,-763.3C527.71,-761.81 517.92,-760.21 508.18,-758.62"/>
<polygon fill="midnightblue" stroke="midnightblue" points="536.47,-766.79 546.91,-764.94 537.6,-759.88 536.47,-766.79"/>
</g>
<!-- Node108 -->
<g id="node35" class="node">
<title>Node108</title>
<g id="a_node35"><a xlink:href="group__as__stream__strobe__counter.html#gae9ff16c03d532084146ef8c4dabf44e8" target="_top" xlink:title="Retrieve the current strobe counter value.">
<polygon fill="none" stroke="black" points="363,-683 363,-713 509,-713 509,-683 363,-683"/>
<text text-anchor="start" x="371" y="-701" font-family="Helvetica,sans-Serif" font-size="10.00">as_stream_strobe_counter</text>
<text text-anchor="middle" x="436" y="-690" font-family="Helvetica,sans-Serif" font-size="10.00">_get_count_value</text>
</a>
</g>
</g>
<!-- Node2&#45;&gt;Node108 -->
<g id="edge36" class="edge">
<title>Node2&#45;&gt;Node108</title>
<path fill="none" stroke="midnightblue" d="M563.94,-755.3C549.76,-744.79 529.99,-731.23 511,-722 504.2,-718.69 496.83,-715.69 489.47,-713"/>
<polygon fill="midnightblue" stroke="midnightblue" points="561.89,-758.15 571.98,-761.39 566.12,-752.56 561.89,-758.15"/>
</g>
<!-- Node109 -->
<g id="node36" class="node">
<title>Node109</title>
<g id="a_node36"><a xlink:href="group__as__threshold.html#gab57ae4379fa2b76f65c85e29a4235067" target="_top" xlink:title=" ">
<polygon fill="none" stroke="black" points="377.5,-634 377.5,-664 494.5,-664 494.5,-634 377.5,-634"/>
<text text-anchor="start" x="385.5" y="-652" font-family="Helvetica,sans-Serif" font-size="10.00">as_threshold_enable</text>
<text text-anchor="middle" x="436" y="-641" font-family="Helvetica,sans-Serif" font-size="10.00">_a_value</text>
</a>
</g>
</g>
<!-- Node2&#45;&gt;Node109 -->
<g id="edge37" class="edge">
<title>Node2&#45;&gt;Node109</title>
<path fill="none" stroke="midnightblue" d="M574.74,-752.36C562.88,-730.32 540.3,-694.01 511,-673 506.06,-669.46 500.57,-666.42 494.88,-663.82"/>
<polygon fill="midnightblue" stroke="midnightblue" points="571.7,-754.11 579.42,-761.37 577.91,-750.88 571.7,-754.11"/>
</g>
<!-- Node110 -->
<g id="node37" class="node">
<title>Node110</title>
<g id="a_node37"><a xlink:href="group__as__threshold.html#ga821aa37f9a20d976605e06cbc17e631f" target="_top" xlink:title=" ">
<polygon fill="none" stroke="black" points="377.5,-585 377.5,-615 494.5,-615 494.5,-585 377.5,-585"/>
<text text-anchor="start" x="385.5" y="-603" font-family="Helvetica,sans-Serif" font-size="10.00">as_threshold_enable</text>
<text text-anchor="middle" x="436" y="-592" font-family="Helvetica,sans-Serif" font-size="10.00">_b_value</text>
</a>
</g>
</g>
<!-- Node2&#45;&gt;Node110 -->
<g id="edge38" class="edge">
<title>Node2&#45;&gt;Node110</title>
<path fill="none" stroke="midnightblue" d="M579.5,-751.38C571.3,-719.98 550.95,-658.46 511,-624 506.19,-619.85 500.66,-616.42 494.82,-613.58"/>
<polygon fill="midnightblue" stroke="midnightblue" points="576.12,-752.27 581.91,-761.14 582.91,-750.59 576.12,-752.27"/>
</g>
<!-- Node111 -->
<g id="node38" class="node">
<title>Node111</title>
<g id="a_node38"><a xlink:href="group__as__threshold.html#gac427effb1fd260c777dc5ea58be9e77f" target="_top" xlink:title=" ">
<polygon fill="none" stroke="black" points="377.5,-536 377.5,-566 494.5,-566 494.5,-536 377.5,-536"/>
<text text-anchor="start" x="385.5" y="-554" font-family="Helvetica,sans-Serif" font-size="10.00">as_threshold_enable</text>
<text text-anchor="middle" x="436" y="-543" font-family="Helvetica,sans-Serif" font-size="10.00">_c_value</text>
</a>
</g>
</g>
<!-- Node2&#45;&gt;Node111 -->
<g id="edge39" class="edge">
<title>Node2&#45;&gt;Node111</title>
<path fill="none" stroke="midnightblue" d="M582.23,-751.12C577.69,-711.86 562.07,-623.93 511,-575 506.22,-570.42 500.56,-566.72 494.53,-563.72"/>
<polygon fill="midnightblue" stroke="midnightblue" points="578.77,-751.66 583.28,-761.24 585.73,-750.94 578.77,-751.66"/>
</g>
<!-- Node112 -->
<g id="node39" class="node">
<title>Node112</title>
<g id="a_node39"><a xlink:href="group__as__threshold.html#ga9f720ebbf29d212931203c0839371be6" target="_top" xlink:title=" ">
<polygon fill="none" stroke="black" points="378.5,-497.5 378.5,-516.5 493.5,-516.5 493.5,-497.5 378.5,-497.5"/>
<text text-anchor="middle" x="436" y="-504.5" font-family="Helvetica,sans-Serif" font-size="10.00">as_threshold_get_t1</text>
</a>
</g>
</g>
<!-- Node2&#45;&gt;Node112 -->
<g id="edge40" class="edge">
<title>Node2&#45;&gt;Node112</title>
<path fill="none" stroke="midnightblue" d="M584.25,-751.12C583.69,-704.64 575.56,-588.14 511,-526 506.03,-521.22 500.03,-517.59 493.61,-514.86"/>
<polygon fill="midnightblue" stroke="midnightblue" points="580.75,-751.35 584.25,-761.35 587.75,-751.35 580.75,-751.35"/>
</g>
<!-- Node113 -->
<g id="node40" class="node">
<title>Node113</title>
<g id="a_node40"><a xlink:href="group__as__threshold.html#ga4c241f45b820cc45b132f0c4f08e43a0" target="_top" xlink:title=" ">
<polygon fill="none" stroke="black" points="378.5,-459.5 378.5,-478.5 493.5,-478.5 493.5,-459.5 378.5,-459.5"/>
<text text-anchor="middle" x="436" y="-466.5" font-family="Helvetica,sans-Serif" font-size="10.00">as_threshold_get_t2</text>
</a>
</g>
</g>
<!-- Node2&#45;&gt;Node113 -->
<g id="edge41" class="edge">
<title>Node2&#45;&gt;Node113</title>
<path fill="none" stroke="midnightblue" d="M581.53,-751.3C573.89,-693.45 548.86,-525.82 511,-488 506.12,-483.13 500.17,-479.45 493.78,-476.68"/>
<polygon fill="midnightblue" stroke="midnightblue" points="578.07,-751.86 582.82,-761.33 585.02,-750.96 578.07,-751.86"/>
</g>
<!-- Node114 -->
<g id="node41" class="node">
<title>Node114</title>
<g id="a_node41"><a xlink:href="group__as__threshold.html#gae62d1dc97502916e642b1f22d94907a7" target="_top" xlink:title=" ">
<polygon fill="none" stroke="black" points="381,-410 381,-440 491,-440 491,-410 381,-410"/>
<text text-anchor="start" x="389" y="-428" font-family="Helvetica,sans-Serif" font-size="10.00">as_threshold_set_a</text>
<text text-anchor="middle" x="436" y="-417" font-family="Helvetica,sans-Serif" font-size="10.00">_value</text>
</a>
</g>
</g>
<!-- Node2&#45;&gt;Node114 -->
<g id="edge42" class="edge">
<title>Node2&#45;&gt;Node114</title>
<path fill="none" stroke="midnightblue" d="M582.03,-751.32C575.39,-688.66 551.92,-495.33 511,-450 505.55,-443.96 498.59,-439.38 491.12,-435.9"/>
<polygon fill="midnightblue" stroke="midnightblue" points="578.57,-751.84 583.08,-761.43 585.53,-751.12 578.57,-751.84"/>
</g>
<!-- Node115 -->
<g id="node42" class="node">
<title>Node115</title>
<g id="a_node42"><a xlink:href="group__as__threshold.html#gaacde349094d858c0e0cb7de97b7a0b02" target="_top" xlink:title=" ">
<polygon fill="none" stroke="black" points="381,-361 381,-391 491,-391 491,-361 381,-361"/>
<text text-anchor="start" x="389" y="-379" font-family="Helvetica,sans-Serif" font-size="10.00">as_threshold_set_b</text>
<text text-anchor="middle" x="436" y="-368" font-family="Helvetica,sans-Serif" font-size="10.00">_value</text>
</a>
</g>
</g>
<!-- Node2&#45;&gt;Node115 -->
<g id="edge43" class="edge">
<title>Node2&#45;&gt;Node115</title>
<path fill="none" stroke="midnightblue" d="M582.69,-751C577.76,-681.7 558.16,-453.15 511,-400 505.62,-393.94 498.7,-389.4 491.25,-386"/>
<polygon fill="midnightblue" stroke="midnightblue" points="579.22,-751.63 583.4,-761.37 586.21,-751.15 579.22,-751.63"/>
</g>
<!-- Node116 -->
<g id="node43" class="node">
<title>Node116</title>
<g id="a_node43"><a xlink:href="group__as__threshold.html#gabe357fa631d024a9be6c410c404b51f1" target="_top" xlink:title=" ">
<polygon fill="none" stroke="black" points="381,-312 381,-342 491,-342 491,-312 381,-312"/>
<text text-anchor="start" x="389" y="-330" font-family="Helvetica,sans-Serif" font-size="10.00">as_threshold_set_c</text>
<text text-anchor="middle" x="436" y="-319" font-family="Helvetica,sans-Serif" font-size="10.00">_value</text>
</a>
</g>
</g>
<!-- Node2&#45;&gt;Node116 -->
<g id="edge44" class="edge">
<title>Node2&#45;&gt;Node116</title>
<path fill="none" stroke="midnightblue" d="M583.18,-750.84C579.75,-675.57 564.06,-412.16 511,-351 505.69,-344.88 498.8,-340.31 491.37,-336.9"/>
<polygon fill="midnightblue" stroke="midnightblue" points="579.71,-751.41 583.64,-761.25 586.7,-751.1 579.71,-751.41"/>
</g>
<!-- Node117 -->
<g id="node44" class="node">
<title>Node117</title>
<g id="a_node44"><a xlink:href="group__as__threshold.html#ga6810bb581bbb6a0ac417fdc69b171b2d" target="_top" xlink:title=" ">
<polygon fill="none" stroke="black" points="379,-273.5 379,-292.5 493,-292.5 493,-273.5 379,-273.5"/>
<text text-anchor="middle" x="436" y="-280.5" font-family="Helvetica,sans-Serif" font-size="10.00">as_threshold_set_t1</text>
</a>
</g>
</g>
<!-- Node2&#45;&gt;Node117 -->
<g id="edge45" class="edge">
<title>Node2&#45;&gt;Node117</title>
<path fill="none" stroke="midnightblue" d="M583.71,-751.02C582.15,-670.3 572.23,-369.47 511,-302 506.1,-296.6 499.89,-292.64 493.15,-289.75"/>
<polygon fill="midnightblue" stroke="midnightblue" points="580.22,-751.33 583.89,-761.27 587.22,-751.21 580.22,-751.33"/>
</g>
<!-- Node118 -->
<g id="node45" class="node">
<title>Node118</title>
<g id="a_node45"><a xlink:href="group__as__threshold.html#gad7125c18114253bc9aabc77c982748f6" target="_top" xlink:title=" ">
<polygon fill="none" stroke="black" points="379,-235.5 379,-254.5 493,-254.5 493,-235.5 379,-235.5"/>
<text text-anchor="middle" x="436" y="-242.5" font-family="Helvetica,sans-Serif" font-size="10.00">as_threshold_set_t2</text>
</a>
</g>
</g>
<!-- Node2&#45;&gt;Node118 -->
<g id="edge46" class="edge">
<title>Node2&#45;&gt;Node118</title>
<path fill="none" stroke="midnightblue" d="M583.97,-751.31C583.45,-667.03 577.14,-337.73 511,-264 506.13,-258.57 499.93,-254.6 493.21,-251.7"/>
<polygon fill="midnightblue" stroke="midnightblue" points="580.47,-751.34 584.01,-761.33 587.47,-751.31 580.47,-751.34"/>
</g>
<!-- Node119 -->
<g id="node46" class="node">
<title>Node119</title>
<g id="a_node46"><a xlink:href="group__as__window__pipeline__common.html#ga6ac59a1b0cc45527bf2bd88d403d9dc0" target="_top" xlink:title=" ">
<polygon fill="none" stroke="red" points="377,-186 377,-216 495,-216 495,-186 377,-186"/>
<text text-anchor="start" x="385" y="-204" font-family="Helvetica,sans-Serif" font-size="10.00">as_window_pipe_get</text>
<text text-anchor="middle" x="436" y="-193" font-family="Helvetica,sans-Serif" font-size="10.00">_control_reg</text>
</a>
</g>
</g>
<!-- Node2&#45;&gt;Node119 -->
<g id="edge47" class="edge">
<title>Node2&#45;&gt;Node119</title>
<path fill="none" stroke="midnightblue" d="M584.05,-751.09C583.87,-662.93 578.89,-308.41 511,-226 506.69,-220.77 501.24,-216.62 495.26,-213.35"/>
<polygon fill="midnightblue" stroke="midnightblue" points="580.55,-751.1 584.05,-761.1 587.55,-751.1 580.55,-751.1"/>
</g>
<!-- Node121 -->
<g id="node47" class="node">
<title>Node121</title>
<g id="a_node47"><a xlink:href="group__as__window__pipeline__common.html#ga0c96edb41167e2c09e4c76401fa36c4a" target="_top" xlink:title=" ">
<polygon fill="none" stroke="red" points="377,-137 377,-167 495,-167 495,-137 377,-137"/>
<text text-anchor="start" x="385" y="-155" font-family="Helvetica,sans-Serif" font-size="10.00">as_window_pipe_get</text>
<text text-anchor="middle" x="436" y="-144" font-family="Helvetica,sans-Serif" font-size="10.00">_state_reg</text>
</a>
</g>
</g>
<!-- Node2&#45;&gt;Node121 -->
<g id="edge48" class="edge">
<title>Node2&#45;&gt;Node121</title>
<path fill="none" stroke="midnightblue" d="M584.32,-751.05C585.43,-657.88 585.53,-266.37 511,-176 506.7,-170.79 501.26,-166.7 495.29,-163.49"/>
<polygon fill="midnightblue" stroke="midnightblue" points="580.82,-751.06 584.18,-761.11 587.82,-751.16 580.82,-751.06"/>
</g>
<!-- Node123 -->
<g id="node48" class="node">
<title>Node123</title>
<g id="a_node48"><a xlink:href="group__as__reader__writer.html#ga3a166cc3d15dae4f4d7ba9ddc2fd1ca6" target="_top" xlink:title="Returns the number of received units by the reader_writer.">
<polygon fill="none" stroke="black" points="372.5,-88 372.5,-118 499.5,-118 499.5,-88 372.5,-88"/>
<text text-anchor="start" x="380.5" y="-106" font-family="Helvetica,sans-Serif" font-size="10.00">as_writer_get_cur_unit</text>
<text text-anchor="middle" x="436" y="-95" font-family="Helvetica,sans-Serif" font-size="10.00">_count</text>
</a>
</g>
</g>
<!-- Node2&#45;&gt;Node123 -->
<g id="edge49" class="edge">
<title>Node2&#45;&gt;Node123</title>
<path fill="none" stroke="midnightblue" d="M583.01,-750.98C577.72,-647.55 551.53,-176.61 511,-127 507.75,-123.03 503.84,-119.7 499.53,-116.92"/>
<polygon fill="midnightblue" stroke="midnightblue" points="579.53,-751.45 583.53,-761.26 586.52,-751.09 579.53,-751.45"/>
</g>
<!-- Node124 -->
<g id="node49" class="node">
<title>Node124</title>
<g id="a_node49"><a xlink:href="group__as__reader__writer.html#ga1ed314dbb9e93fbcbab70d4db197e3b6" target="_top" xlink:title="Returns the first address after the last successfully written unit.">
<polygon fill="none" stroke="red" points="363,-39 363,-69 509,-69 509,-39 363,-39"/>
<text text-anchor="start" x="371" y="-57" font-family="Helvetica,sans-Serif" font-size="10.00">as_writer_get_last</text>
<text text-anchor="middle" x="436" y="-46" font-family="Helvetica,sans-Serif" font-size="10.00">_data_unit_complete_addr</text>
</a>
</g>
</g>
<!-- Node2&#45;&gt;Node124 -->
<g id="edge50" class="edge">
<title>Node2&#45;&gt;Node124</title>
<path fill="none" stroke="midnightblue" d="M583.18,-751.17C578.59,-643.47 554.59,-131.79 511,-78 508.19,-74.54 504.88,-71.57 501.24,-69.02"/>
<polygon fill="midnightblue" stroke="midnightblue" points="579.69,-751.44 583.61,-761.29 586.69,-751.15 579.69,-751.44"/>
</g>
<!-- Node125 -->
<g id="node50" class="node">
<title>Node125</title>
<g id="a_node50"><a xlink:href="group__as__window__pipeline__common.html#ga46bf67f4d3583063c1aaf32a0f8470c2" target="_top" xlink:title=" ">
<polygon fill="none" stroke="red" points="364.5,-0.5 364.5,-19.5 507.5,-19.5 507.5,-0.5 364.5,-0.5"/>
<text text-anchor="middle" x="436" y="-7.5" font-family="Helvetica,sans-Serif" font-size="10.00">is_as_window_pipe_ready</text>
</a>
</g>
</g>
<!-- Node2&#45;&gt;Node125 -->
<g id="edge51" class="edge">
<title>Node2&#45;&gt;Node125</title>
<path fill="none" stroke="midnightblue" d="M583.39,-751.14C579.74,-638.76 559.42,-85.47 511,-29 507.72,-25.17 503.78,-22.06 499.46,-19.54"/>
<polygon fill="midnightblue" stroke="midnightblue" points="579.9,-751.49 583.71,-761.38 586.89,-751.27 579.9,-751.49"/>
</g>
<!-- Node5 -->
<g id="node5" class="node">
<title>Node5</title>
<g id="a_node5"><a xlink:href="group__as__iic__bitchecks.html#ga2ef7a1f9767986f2033697f584cd4feb" target="_top" xlink:title=" ">
<polygon fill="none" stroke="red" points="191,-1582.5 191,-1601.5 301,-1601.5 301,-1582.5 191,-1582.5"/>
<text text-anchor="middle" x="246" y="-1589.5" font-family="Helvetica,sans-Serif" font-size="10.00">as_iic_is_readwrite</text>
</a>
</g>
</g>
<!-- Node4&#45;&gt;Node5 -->
<g id="edge4" class="edge">
<title>Node4&#45;&gt;Node5</title>
<path fill="none" stroke="midnightblue" d="M368.13,-1470.53C365.61,-1472.16 363.21,-1473.98 361,-1476 327.03,-1507 359.35,-1542.43 325,-1573 318.23,-1579.02 309.87,-1583.21 301.17,-1586.11"/>
<polygon fill="midnightblue" stroke="midnightblue" points="370.05,-1473.47 377.17,-1465.63 366.71,-1467.31 370.05,-1473.47"/>
</g>
<!-- Node18 -->
<g id="node7" class="node">
<title>Node18</title>
<g id="a_node7"><a xlink:href="as__iic_8c.html#afea64b05722568dd3faeb338cfa059bc" target="_top" xlink:title=" ">
<polygon fill="none" stroke="black" points="189,-1544.5 189,-1563.5 303,-1563.5 303,-1544.5 189,-1544.5"/>
<text text-anchor="middle" x="246" y="-1551.5" font-family="Helvetica,sans-Serif" font-size="10.00">as_iic_set_ack_mod</text>
</a>
</g>
</g>
<!-- Node4&#45;&gt;Node18 -->
<g id="edge6" class="edge">
<title>Node4&#45;&gt;Node18</title>
<path fill="none" stroke="midnightblue" d="M371.31,-1469.63C367.67,-1471.49 364.2,-1473.6 361,-1476 336.42,-1494.43 349.8,-1516.88 325,-1535 318.47,-1539.77 310.9,-1543.35 303.09,-1546.04"/>
<polygon fill="midnightblue" stroke="midnightblue" points="372.88,-1472.76 380.61,-1465.51 370.05,-1466.35 372.88,-1472.76"/>
</g>
<!-- Node19 -->
<g id="node8" class="node">
<title>Node19</title>
<g id="a_node8"><a xlink:href="group__as__iic__user.html#ga01d635936dc80ddaa19a8d189603ead3" target="_top" xlink:title=" ">
<polygon fill="none" stroke="black" points="183.5,-1506.5 183.5,-1525.5 308.5,-1525.5 308.5,-1506.5 183.5,-1506.5"/>
<text text-anchor="middle" x="246" y="-1513.5" font-family="Helvetica,sans-Serif" font-size="10.00">as_iic_set_data_ready</text>
</a>
</g>
</g>
<!-- Node4&#45;&gt;Node19 -->
<g id="edge7" class="edge">
<title>Node4&#45;&gt;Node19</title>
<path fill="none" stroke="midnightblue" d="M382.27,-1468.41C375.02,-1470.64 367.75,-1473.18 361,-1476 343.91,-1483.15 342.18,-1490.07 325,-1497 315.69,-1500.75 305.45,-1503.9 295.54,-1506.48"/>
<polygon fill="midnightblue" stroke="midnightblue" points="383.47,-1471.7 392.09,-1465.54 381.51,-1464.98 383.47,-1471.7"/>
</g>
<!-- Node20 -->
<g id="node9" class="node">
<title>Node20</title>
<g id="a_node9"><a xlink:href="group__as__iic__bitsetters.html#ga0fa3aeeb6d2854f9b27c344047bd820e" target="_top" xlink:title=" ">
<polygon fill="none" stroke="black" points="188,-1468.5 188,-1487.5 304,-1487.5 304,-1468.5 188,-1468.5"/>
<text text-anchor="middle" x="246" y="-1475.5" font-family="Helvetica,sans-Serif" font-size="10.00">as_iic_set_readwrite</text>
</a>
</g>
</g>
<!-- Node4&#45;&gt;Node20 -->
<g id="edge8" class="edge">
<title>Node4&#45;&gt;Node20</title>
<path fill="none" stroke="midnightblue" d="M363.36,-1464.38C343.8,-1466.67 322.87,-1469.12 304.24,-1471.3"/>
<polygon fill="midnightblue" stroke="midnightblue" points="363.92,-1467.84 373.44,-1463.2 363.1,-1460.89 363.92,-1467.84"/>
</g>
<!-- Node21 -->
<g id="node10" class="node">
<title>Node21</title>
<g id="a_node10"><a xlink:href="group__as__iic__bitsetters.html#gaa51d06d83796c60001b40bff2dc35b68" target="_top" xlink:title=" ">
<polygon fill="none" stroke="black" points="190.5,-1419 190.5,-1449 301.5,-1449 301.5,-1419 190.5,-1419"/>
<text text-anchor="start" x="198.5" y="-1437" font-family="Helvetica,sans-Serif" font-size="10.00">as_iic_set_transmit</text>
<text text-anchor="middle" x="246" y="-1426" font-family="Helvetica,sans-Serif" font-size="10.00">_start</text>
</a>
</g>
</g>
<!-- Node4&#45;&gt;Node21 -->
<g id="edge9" class="edge">
<title>Node4&#45;&gt;Node21</title>
<path fill="none" stroke="midnightblue" d="M363.25,-1447.6C342.84,-1445.22 320.95,-1442.65 301.72,-1440.4"/>
<polygon fill="midnightblue" stroke="midnightblue" points="363.1,-1451.11 373.44,-1448.8 363.92,-1444.16 363.1,-1451.11"/>
</g>
<!-- Node22 -->
<g id="node11" class="node">
<title>Node22</title>
<g id="a_node11"><a xlink:href="group__as__iic__bitsetters.html#ga3e0050e31ef365ba7813edd7fbcfa724" target="_top" xlink:title=" ">
<polygon fill="none" stroke="black" points="177.5,-1380.5 177.5,-1399.5 314.5,-1399.5 314.5,-1380.5 177.5,-1380.5"/>
<text text-anchor="middle" x="246" y="-1387.5" font-family="Helvetica,sans-Serif" font-size="10.00">as_iic_set_transmit_stop</text>
</a>
</g>
</g>
<!-- Node4&#45;&gt;Node22 -->
<g id="edge10" class="edge">
<title>Node4&#45;&gt;Node22</title>
<path fill="none" stroke="midnightblue" d="M405.27,-1442.18C383.38,-1432.36 352.74,-1419.3 325,-1410 313.47,-1406.13 300.77,-1402.58 289.02,-1399.58"/>
<polygon fill="midnightblue" stroke="midnightblue" points="404.11,-1445.5 414.66,-1446.45 407,-1439.13 404.11,-1445.5"/>
</g>
<!-- Node6 -->
<g id="node6" class="node">
<title>Node6</title>
<g id="a_node6"><a xlink:href="group__as__iic__helpers.html#ga1662a1a0b29536bf7d74ede3f73598be" target="_top" xlink:title=" ">
<polygon fill="none" stroke="red" points="0,-1342.5 0,-1361.5 131,-1361.5 131,-1342.5 0,-1342.5"/>
<text text-anchor="middle" x="65.5" y="-1349.5" font-family="Helvetica,sans-Serif" font-size="10.00">as_iic_read_transaction</text>
</a>
</g>
</g>
<!-- Node5&#45;&gt;Node6 -->
<g id="edge5" class="edge">
<title>Node5&#45;&gt;Node6</title>
<path fill="none" stroke="midnightblue" d="M181.29,-1581.84C176.15,-1579.46 171.29,-1576.56 167,-1573 96.54,-1514.68 73.32,-1396.44 67.88,-1361.76"/>
<polygon fill="midnightblue" stroke="midnightblue" points="180.2,-1585.17 190.78,-1585.57 182.75,-1578.65 180.2,-1585.17"/>
</g>
<!-- Node25&#45;&gt;Node6 -->
<g id="edge14" class="edge">
<title>Node25&#45;&gt;Node6</title>
<path fill="none" stroke="midnightblue" d="M375.86,-1325.31C359.44,-1328.15 341.57,-1330.97 325,-1333 259.23,-1341.08 183.6,-1346.15 131.21,-1349"/>
<polygon fill="midnightblue" stroke="midnightblue" points="376.63,-1328.73 385.87,-1323.54 375.41,-1321.83 376.63,-1328.73"/>
</g>
<!-- Node26 -->
<g id="node15" class="node">
<title>Node26</title>
<g id="a_node15"><a xlink:href="group__as__iic__helpers.html#gaa8ce9ac10b8c2ca9b614110ca5cbeff5" target="_top" xlink:title=" ">
<polygon fill="none" stroke="red" points="167,-1304.5 167,-1323.5 325,-1323.5 325,-1304.5 167,-1304.5"/>
<text text-anchor="middle" x="246" y="-1311.5" font-family="Helvetica,sans-Serif" font-size="10.00">as_iic_stop_read_transaction</text>
</a>
</g>
</g>
<!-- Node25&#45;&gt;Node26 -->
<g id="edge15" class="edge">
<title>Node25&#45;&gt;Node26</title>
<path fill="none" stroke="midnightblue" d="M372.19,-1314C357.15,-1314 340.91,-1314 325.27,-1314"/>
<polygon fill="midnightblue" stroke="midnightblue" points="372.38,-1317.5 382.38,-1314 372.38,-1310.5 372.38,-1317.5"/>
</g>
<!-- Node36 -->
<g id="node18" class="node">
<title>Node36</title>
<g id="a_node18"><a xlink:href="group__as__iic__bitchecks.html#gaa4e8718c748b5a7e956a38ffd6dbe15d" target="_top" xlink:title=" ">
<polygon fill="none" stroke="red" points="189,-1266.5 189,-1285.5 303,-1285.5 303,-1266.5 189,-1266.5"/>
<text text-anchor="middle" x="246" y="-1273.5" font-family="Helvetica,sans-Serif" font-size="10.00">as_iic_ack_received</text>
</a>
</g>
</g>
<!-- Node35&#45;&gt;Node36 -->
<g id="edge18" class="edge">
<title>Node35&#45;&gt;Node36</title>
<path fill="none" stroke="midnightblue" d="M377.56,-1249.61C350.83,-1255.01 319.41,-1261.36 294.1,-1266.48"/>
<polygon fill="midnightblue" stroke="midnightblue" points="378.45,-1253 387.56,-1247.59 377.06,-1246.14 378.45,-1253"/>
</g>
<!-- Node42 -->
<g id="node19" class="node">
<title>Node42</title>
<g id="a_node19"><a xlink:href="group__as__iic__bitchecks.html#gacddb2a75c1c325afe2ec4d25a60e27ba" target="_top" xlink:title=" ">
<polygon fill="none" stroke="black" points="199.5,-1228.5 199.5,-1247.5 292.5,-1247.5 292.5,-1228.5 199.5,-1228.5"/>
<text text-anchor="middle" x="246" y="-1235.5" font-family="Helvetica,sans-Serif" font-size="10.00">as_iic_is_active</text>
</a>
</g>
</g>
<!-- Node35&#45;&gt;Node42 -->
<g id="edge20" class="edge">
<title>Node35&#45;&gt;Node42</title>
<path fill="none" stroke="midnightblue" d="M364.83,-1238C340.73,-1238 314.39,-1238 292.74,-1238"/>
<polygon fill="midnightblue" stroke="midnightblue" points="365,-1241.5 375,-1238 365,-1234.5 365,-1241.5"/>
</g>
<!-- Node43 -->
<g id="node20" class="node">
<title>Node43</title>
<g id="a_node20"><a xlink:href="group__as__iic__bitchecks.html#ga031fa9683d4d6a0a68e65917d5a0610a" target="_top" xlink:title=" ">
<polygon fill="none" stroke="red" points="193.5,-1190.5 193.5,-1209.5 298.5,-1209.5 298.5,-1190.5 193.5,-1190.5"/>
<text text-anchor="middle" x="246" y="-1197.5" font-family="Helvetica,sans-Serif" font-size="10.00">as_iic_is_io_ready</text>
</a>
</g>
</g>
<!-- Node35&#45;&gt;Node43 -->
<g id="edge21" class="edge">
<title>Node35&#45;&gt;Node43</title>
<path fill="none" stroke="midnightblue" d="M377.56,-1226.39C350.83,-1220.99 319.41,-1214.64 294.1,-1209.52"/>
<polygon fill="midnightblue" stroke="midnightblue" points="377.06,-1229.86 387.56,-1228.41 378.45,-1223 377.06,-1229.86"/>
</g>
<!-- Node45 -->
<g id="node21" class="node">
<title>Node45</title>
<g id="a_node21"><a xlink:href="group__as__iic__user.html#gacdb0c71d0fcfe5e50a7f7316762cd0c0" target="_top" xlink:title=" ">
<polygon fill="none" stroke="red" points="200.5,-1152.5 200.5,-1171.5 291.5,-1171.5 291.5,-1152.5 200.5,-1152.5"/>
<text text-anchor="middle" x="246" y="-1159.5" font-family="Helvetica,sans-Serif" font-size="10.00">as_iic_is_ready</text>
</a>
</g>
</g>
<!-- Node35&#45;&gt;Node45 -->
<g id="edge22" class="edge">
<title>Node35&#45;&gt;Node45</title>
<path fill="none" stroke="midnightblue" d="M373.16,-1225C368.93,-1223.25 364.83,-1221.26 361,-1219 340.95,-1207.2 345.12,-1192.67 325,-1181 314.87,-1175.13 302.99,-1171.06 291.6,-1168.25"/>
<polygon fill="midnightblue" stroke="midnightblue" points="371.98,-1228.3 382.57,-1228.49 374.41,-1221.73 371.98,-1228.3"/>
</g>
<!-- Node48 -->
<g id="node22" class="node">
<title>Node48</title>
<g id="a_node22"><a xlink:href="group__as__iic__bitchecks.html#gad7ffbce42c3f192281052fced93b7ee7" target="_top" xlink:title=" ">
<polygon fill="none" stroke="black" points="198,-1114.5 198,-1133.5 294,-1133.5 294,-1114.5 198,-1114.5"/>
<text text-anchor="middle" x="246" y="-1121.5" font-family="Helvetica,sans-Serif" font-size="10.00">as_iic_is_stalled</text>
</a>
</g>
</g>
<!-- Node35&#45;&gt;Node48 -->
<g id="edge23" class="edge">
<title>Node35&#45;&gt;Node48</title>
<path fill="none" stroke="midnightblue" d="M367.54,-1223.66C365.25,-1222.25 363.06,-1220.7 361,-1219 332.17,-1195.21 353.98,-1166.61 325,-1143 316.25,-1135.87 305.23,-1131.35 294.25,-1128.5"/>
<polygon fill="midnightblue" stroke="midnightblue" points="366.32,-1226.97 376.81,-1228.46 369.54,-1220.75 366.32,-1226.97"/>
</g>
<!-- Node49 -->
<g id="node23" class="node">
<title>Node49</title>
<g id="a_node23"><a xlink:href="group__as__iic__bitchecks.html#ga4629e4514c3531d0bcd44ae20abc6bad" target="_top" xlink:title=" ">
<polygon fill="none" stroke="red" points="196.5,-1076.5 196.5,-1095.5 295.5,-1095.5 295.5,-1076.5 196.5,-1076.5"/>
<text text-anchor="middle" x="246" y="-1083.5" font-family="Helvetica,sans-Serif" font-size="10.00">as_iic_is_waiting</text>
</a>
</g>
</g>
<!-- Node35&#45;&gt;Node49 -->
<g id="edge24" class="edge">
<title>Node35&#45;&gt;Node49</title>
<path fill="none" stroke="midnightblue" d="M365.81,-1223C364.13,-1221.77 362.52,-1220.44 361,-1219 322.42,-1182.47 363.81,-1141.29 325,-1105 316.96,-1097.48 306.45,-1092.79 295.77,-1089.9"/>
<polygon fill="midnightblue" stroke="midnightblue" points="364.43,-1226.25 374.8,-1228.4 368.03,-1220.25 364.43,-1226.25"/>
</g>
<!-- Node36&#45;&gt;Node6 -->
<g id="edge19" class="edge">
<title>Node36&#45;&gt;Node6</title>
<path fill="none" stroke="midnightblue" d="M186.67,-1288.32C179.95,-1290.29 173.27,-1292.52 167,-1295 134.37,-1307.94 99.39,-1329.82 80.52,-1342.38"/>
<polygon fill="midnightblue" stroke="midnightblue" points="187.79,-1291.64 196.5,-1285.61 185.93,-1284.89 187.79,-1291.64"/>
</g>
</g>
</svg>
