<?xml version="1.0" encoding="UTF-8" standalone="no"?>
<!DOCTYPE svg PUBLIC "-//W3C//DTD SVG 1.1//EN"
 "http://www.w3.org/Graphics/SVG/1.1/DTD/svg11.dtd">
<!-- Generated by graphviz version 2.43.0 (0)
 -->
<!-- Title: as_iic_set_regpointer Pages: 1 -->
<svg width="1259pt" height="342pt"
 viewBox="0.00 0.00 1259.00 342.00" xmlns="http://www.w3.org/2000/svg" xmlns:xlink="http://www.w3.org/1999/xlink">
<g id="graph0" class="graph" transform="scale(1 1) rotate(0) translate(4 338)">
<title>as_iic_set_regpointer</title>
<!-- Node1 -->
<g id="node1" class="node">
<title>Node1</title>
<g id="a_node1"><a xlink:title=" ">
<polygon fill="#bfbfbf" stroke="black" points="0,-188.5 0,-207.5 120,-207.5 120,-188.5 0,-188.5"/>
<text text-anchor="middle" x="60" y="-195.5" font-family="Helvetica,sans-Serif" font-size="10.00">as_iic_set_regpointer</text>
</a>
</g>
</g>
<!-- Node2 -->
<g id="node2" class="node">
<title>Node2</title>
<g id="a_node2"><a xlink:href="group__as__iic__helpers.html#ga53e6050a2c66be89ac23084fd9de9c23" target="_top" xlink:title=" ">
<polygon fill="none" stroke="black" points="156,-169.5 156,-188.5 288,-188.5 288,-169.5 156,-169.5"/>
<text text-anchor="middle" x="222" y="-176.5" font-family="Helvetica,sans-Serif" font-size="10.00">as_iic_start_transaction</text>
</a>
</g>
</g>
<!-- Node1&#45;&gt;Node2 -->
<g id="edge1" class="edge">
<title>Node1&#45;&gt;Node2</title>
<path fill="none" stroke="midnightblue" d="M120.12,-190.98C128.51,-189.98 137.22,-188.95 145.85,-187.92"/>
<polygon fill="midnightblue" stroke="midnightblue" points="146.41,-191.38 155.93,-186.72 145.59,-184.43 146.41,-191.38"/>
</g>
<!-- Node21 -->
<g id="node21" class="node">
<title>Node21</title>
<g id="a_node21"><a xlink:href="group__as__iic__helpers.html#ga67cc002a1b20c75dc26f7b328ca5ddc9" target="_top" xlink:title=" ">
<polygon fill="none" stroke="black" points="324,-226.5 324,-245.5 485,-245.5 485,-226.5 324,-226.5"/>
<text text-anchor="middle" x="404.5" y="-233.5" font-family="Helvetica,sans-Serif" font-size="10.00">as_iic_stop_write_transaction</text>
</a>
</g>
</g>
<!-- Node1&#45;&gt;Node21 -->
<g id="edge33" class="edge">
<title>Node1&#45;&gt;Node21</title>
<path fill="none" stroke="midnightblue" d="M120.27,-204.57C173.59,-210.49 252.7,-219.27 313.77,-226.04"/>
<polygon fill="midnightblue" stroke="midnightblue" points="313.47,-229.53 323.8,-227.15 314.25,-222.57 313.47,-229.53"/>
</g>
<!-- Node3 -->
<g id="node3" class="node">
<title>Node3</title>
<g id="a_node3"><a xlink:href="group__as__iic__bitchecks.html#gaa4e8718c748b5a7e956a38ffd6dbe15d" target="_top" xlink:title=" ">
<polygon fill="none" stroke="black" points="536,-188.5 536,-207.5 650,-207.5 650,-188.5 536,-188.5"/>
<text text-anchor="middle" x="593" y="-195.5" font-family="Helvetica,sans-Serif" font-size="10.00">as_iic_ack_received</text>
</a>
</g>
</g>
<!-- Node2&#45;&gt;Node3 -->
<g id="edge2" class="edge">
<title>Node2&#45;&gt;Node3</title>
<path fill="none" stroke="midnightblue" d="M288.12,-182.35C355.03,-185.79 458.65,-191.13 525.91,-194.59"/>
<polygon fill="midnightblue" stroke="midnightblue" points="525.81,-198.09 535.98,-195.11 526.17,-191.1 525.81,-198.09"/>
</g>
<!-- Node7 -->
<g id="node7" class="node">
<title>Node7</title>
<g id="a_node7"><a xlink:href="group__as__iic__wait.html#gad3cfec26b8a73166e060108cf1444a2b" target="_top" xlink:title=" ">
<polygon fill="none" stroke="black" points="534,-227 534,-257 652,-257 652,-227 534,-227"/>
<text text-anchor="start" x="542" y="-245" font-family="Helvetica,sans-Serif" font-size="10.00">as_iic_busy_wait_for</text>
<text text-anchor="middle" x="593" y="-234" font-family="Helvetica,sans-Serif" font-size="10.00">_hwready</text>
</a>
</g>
</g>
<!-- Node2&#45;&gt;Node7 -->
<g id="edge6" class="edge">
<title>Node2&#45;&gt;Node7</title>
<path fill="none" stroke="midnightblue" d="M231.54,-188.64C247.59,-205.94 284.25,-241.71 324,-255 389.3,-276.82 468.53,-269.11 523.84,-258.7"/>
<polygon fill="midnightblue" stroke="midnightblue" points="524.74,-262.09 533.88,-256.73 523.39,-255.22 524.74,-262.09"/>
</g>
<!-- Node8 -->
<g id="node8" class="node">
<title>Node8</title>
<g id="a_node8"><a xlink:href="group__as__iic__user.html#gacdb0c71d0fcfe5e50a7f7316762cd0c0" target="_top" xlink:title=" ">
<polygon fill="none" stroke="black" points="709,-226.5 709,-245.5 800,-245.5 800,-226.5 709,-226.5"/>
<text text-anchor="middle" x="754.5" y="-233.5" font-family="Helvetica,sans-Serif" font-size="10.00">as_iic_is_ready</text>
</a>
</g>
</g>
<!-- Node2&#45;&gt;Node8 -->
<g id="edge18" class="edge">
<title>Node2&#45;&gt;Node8</title>
<path fill="none" stroke="midnightblue" d="M276.42,-169.49C360.93,-156.54 529.73,-139.2 665,-179 691.87,-186.9 718.29,-205.78 735.17,-219.65"/>
<polygon fill="midnightblue" stroke="midnightblue" points="733.19,-222.56 743.08,-226.36 737.72,-217.22 733.19,-222.56"/>
</g>
<!-- Node13 -->
<g id="node13" class="node">
<title>Node13</title>
<g id="a_node13"><a xlink:href="group__as__iic__wait.html#ga0bc5aad64893b674c42943fb64d17676" target="_top" xlink:title=" ">
<polygon fill="none" stroke="black" points="521,-314.5 521,-333.5 665,-333.5 665,-314.5 521,-314.5"/>
<text text-anchor="middle" x="593" y="-321.5" font-family="Helvetica,sans-Serif" font-size="10.00">as_iic_busy_wait_for_wait</text>
</a>
</g>
</g>
<!-- Node2&#45;&gt;Node13 -->
<g id="edge13" class="edge">
<title>Node2&#45;&gt;Node13</title>
<path fill="none" stroke="midnightblue" d="M229.85,-188.5C244.61,-208.19 281.52,-253.39 324,-275 382.15,-304.56 455.43,-316.5 510.66,-321.21"/>
<polygon fill="midnightblue" stroke="midnightblue" points="510.5,-324.71 520.75,-322.01 511.06,-317.73 510.5,-324.71"/>
</g>
<!-- Node15 -->
<g id="node15" class="node">
<title>Node15</title>
<g id="a_node15"><a xlink:href="group__as__iic__bitchecks.html#gad90ab4c2ed7fbca8f768c87cdb5794ee" target="_top" xlink:title=" ">
<polygon fill="none" stroke="black" points="349,-112.5 349,-131.5 460,-131.5 460,-112.5 349,-112.5"/>
<text text-anchor="middle" x="404.5" y="-119.5" font-family="Helvetica,sans-Serif" font-size="10.00">as_iic_is_initialized</text>
</a>
</g>
</g>
<!-- Node2&#45;&gt;Node15 -->
<g id="edge17" class="edge">
<title>Node2&#45;&gt;Node15</title>
<path fill="none" stroke="midnightblue" d="M251.68,-169.44C271.86,-162.75 299.54,-153.68 324,-146 336.14,-142.18 349.36,-138.14 361.48,-134.49"/>
<polygon fill="midnightblue" stroke="midnightblue" points="362.77,-137.75 371.34,-131.52 360.76,-131.05 362.77,-137.75"/>
</g>
<!-- Node16 -->
<g id="node16" class="node">
<title>Node16</title>
<g id="a_node16"><a xlink:href="group__as__iic__user.html#gae03c311fae3d6a830878a2b0c2c1c2bf" target="_top" xlink:title=" ">
<polygon fill="none" stroke="black" points="531,-74.5 531,-93.5 655,-93.5 655,-74.5 531,-74.5"/>
<text text-anchor="middle" x="593" y="-81.5" font-family="Helvetica,sans-Serif" font-size="10.00">as_iic_reset_hw_state</text>
</a>
</g>
</g>
<!-- Node2&#45;&gt;Node16 -->
<g id="edge19" class="edge">
<title>Node2&#45;&gt;Node16</title>
<path fill="none" stroke="midnightblue" d="M231.89,-169.36C248.23,-152.39 284.95,-117.6 324,-103 387.54,-79.23 465.39,-76.33 520.78,-78.27"/>
<polygon fill="midnightblue" stroke="midnightblue" points="520.72,-81.77 530.85,-78.68 521,-74.77 520.72,-81.77"/>
</g>
<!-- Node17 -->
<g id="node17" class="node">
<title>Node17</title>
<g id="a_node17"><a xlink:href="group__as__iic__reg__funcs.html#gac83a48fc09234a7a99adafb1ce565eb0" target="_top" xlink:title=" ">
<polygon fill="none" stroke="black" points="702.5,-74.5 702.5,-93.5 806.5,-93.5 806.5,-74.5 702.5,-74.5"/>
<text text-anchor="middle" x="754.5" y="-81.5" font-family="Helvetica,sans-Serif" font-size="10.00">as_iic_set_control</text>
</a>
</g>
</g>
<!-- Node2&#45;&gt;Node17 -->
<g id="edge23" class="edge">
<title>Node2&#45;&gt;Node17</title>
<path fill="none" stroke="midnightblue" d="M228.54,-169.34C241.74,-147.4 277.45,-94.07 324,-73 455.37,-13.53 633.26,-50.15 712.49,-71.65"/>
<polygon fill="midnightblue" stroke="midnightblue" points="711.98,-75.14 722.55,-74.44 713.85,-68.39 711.98,-75.14"/>
</g>
<!-- Node20 -->
<g id="node20" class="node">
<title>Node20</title>
<g id="a_node20"><a xlink:href="group__as__iic__reg__funcs.html#ga8058473baeded71954aa72ee8df24e9b" target="_top" xlink:title=" ">
<polygon fill="none" stroke="black" points="701,-36.5 701,-55.5 808,-55.5 808,-36.5 701,-36.5"/>
<text text-anchor="middle" x="754.5" y="-43.5" font-family="Helvetica,sans-Serif" font-size="10.00">as_iic_set_data_tx</text>
</a>
</g>
</g>
<!-- Node2&#45;&gt;Node20 -->
<g id="edge24" class="edge">
<title>Node2&#45;&gt;Node20</title>
<path fill="none" stroke="midnightblue" d="M226.28,-169.33C236.05,-142.29 267.81,-65.98 324,-37 453.56,29.84 635.68,-10.64 714.55,-33.52"/>
<polygon fill="midnightblue" stroke="midnightblue" points="713.96,-36.99 724.54,-36.48 715.95,-30.28 713.96,-36.99"/>
</g>
<!-- Node2&#45;&gt;Node21 -->
<g id="edge27" class="edge">
<title>Node2&#45;&gt;Node21</title>
<path fill="none" stroke="midnightblue" d="M251.68,-188.56C271.86,-195.24 299.54,-204.31 324,-212 336.14,-215.81 349.36,-219.85 361.48,-223.5"/>
<polygon fill="midnightblue" stroke="midnightblue" points="360.76,-226.94 371.34,-226.47 362.77,-220.24 360.76,-226.94"/>
</g>
<!-- Node4 -->
<g id="node4" class="node">
<title>Node4</title>
<g id="a_node4"><a xlink:href="group__as__iic__reg__funcs.html#ga8daa8fde0a7776aa2f5b335250b5aa2a" target="_top" xlink:title=" ">
<polygon fill="none" stroke="black" points="844,-203.5 844,-222.5 966,-222.5 966,-203.5 844,-203.5"/>
<text text-anchor="middle" x="905" y="-210.5" font-family="Helvetica,sans-Serif" font-size="10.00">as_iic_get_status_reg</text>
</a>
</g>
</g>
<!-- Node3&#45;&gt;Node4 -->
<g id="edge3" class="edge">
<title>Node3&#45;&gt;Node4</title>
<path fill="none" stroke="midnightblue" d="M650.14,-200.71C701.63,-203.2 778.11,-206.9 833.66,-209.59"/>
<polygon fill="midnightblue" stroke="midnightblue" points="833.62,-213.09 843.78,-210.08 833.96,-206.1 833.62,-213.09"/>
</g>
<!-- Node5 -->
<g id="node5" class="node">
<title>Node5</title>
<g id="a_node5"><a xlink:href="group__asterics__support.html#ga8e5c2bfd2e4498d10289377bd94cef07" target="_top" xlink:title=" ">
<polygon fill="none" stroke="black" points="1020.5,-170.5 1020.5,-189.5 1096.5,-189.5 1096.5,-170.5 1020.5,-170.5"/>
<text text-anchor="middle" x="1058.5" y="-177.5" font-family="Helvetica,sans-Serif" font-size="10.00">as_reg_read</text>
</a>
</g>
</g>
<!-- Node4&#45;&gt;Node5 -->
<g id="edge4" class="edge">
<title>Node4&#45;&gt;Node5</title>
<path fill="none" stroke="midnightblue" d="M949.82,-203.45C968.87,-199.3 991.22,-194.43 1010.61,-190.21"/>
<polygon fill="midnightblue" stroke="midnightblue" points="1011.41,-193.62 1020.44,-188.07 1009.92,-186.78 1011.41,-193.62"/>
</g>
<!-- Node6 -->
<g id="node6" class="node">
<title>Node6</title>
<g id="a_node6"><a xlink:href="group__asterics__support.html#ga4c6d688b840a6e2edc9bc0b8ed961677" target="_top" xlink:title=" ">
<polygon fill="none" stroke="black" points="1151,-170.5 1151,-189.5 1251,-189.5 1251,-170.5 1151,-170.5"/>
<text text-anchor="middle" x="1201" y="-177.5" font-family="Helvetica,sans-Serif" font-size="10.00">as_reg_to_uint32</text>
</a>
</g>
</g>
<!-- Node5&#45;&gt;Node6 -->
<g id="edge5" class="edge">
<title>Node5&#45;&gt;Node6</title>
<path fill="none" stroke="midnightblue" d="M1096.78,-180C1110.26,-180 1125.83,-180 1140.72,-180"/>
<polygon fill="midnightblue" stroke="midnightblue" points="1140.89,-183.5 1150.89,-180 1140.89,-176.5 1140.89,-183.5"/>
</g>
<!-- Node7&#45;&gt;Node8 -->
<g id="edge7" class="edge">
<title>Node7&#45;&gt;Node8</title>
<path fill="none" stroke="midnightblue" d="M652.03,-239.81C667.23,-239.24 683.57,-238.63 698.6,-238.06"/>
<polygon fill="midnightblue" stroke="midnightblue" points="698.9,-241.55 708.76,-237.68 698.64,-234.56 698.9,-241.55"/>
</g>
<!-- Node9 -->
<g id="node9" class="node">
<title>Node9</title>
<g id="a_node9"><a xlink:href="group__asterics__support.html#gab803703ab5b845023ca31b7b2664419c" target="_top" xlink:title=" ">
<polygon fill="none" stroke="black" points="725,-276.5 725,-295.5 784,-295.5 784,-276.5 725,-276.5"/>
<text text-anchor="middle" x="754.5" y="-283.5" font-family="Helvetica,sans-Serif" font-size="10.00">as_sleep</text>
</a>
</g>
</g>
<!-- Node7&#45;&gt;Node9 -->
<g id="edge9" class="edge">
<title>Node7&#45;&gt;Node9</title>
<path fill="none" stroke="midnightblue" d="M648.44,-257.02C670.37,-263.06 695.14,-269.9 715.12,-275.41"/>
<polygon fill="midnightblue" stroke="midnightblue" points="714.23,-278.79 724.8,-278.08 716.09,-272.05 714.23,-278.79"/>
</g>
<!-- Node8&#45;&gt;Node4 -->
<g id="edge8" class="edge">
<title>Node8&#45;&gt;Node4</title>
<path fill="none" stroke="midnightblue" d="M800.05,-229.1C810.69,-227.45 822.31,-225.65 833.79,-223.87"/>
<polygon fill="midnightblue" stroke="midnightblue" points="834.47,-227.31 843.82,-222.32 833.4,-220.39 834.47,-227.31"/>
</g>
<!-- Node10 -->
<g id="node10" class="node">
<title>Node10</title>
<g id="a_node10"><a xlink:href="group__asterics__support.html#ga284d9e0d170cf7cabc16ccd7e62d95bd" target="_top" xlink:title=" ">
<polygon fill="none" stroke="black" points="876.5,-276.5 876.5,-295.5 933.5,-295.5 933.5,-276.5 876.5,-276.5"/>
<text text-anchor="middle" x="905" y="-283.5" font-family="Helvetica,sans-Serif" font-size="10.00">as_yield</text>
</a>
</g>
</g>
<!-- Node9&#45;&gt;Node10 -->
<g id="edge10" class="edge">
<title>Node9&#45;&gt;Node10</title>
<path fill="none" stroke="midnightblue" d="M784.13,-286C807.54,-286 840.82,-286 866.38,-286"/>
<polygon fill="midnightblue" stroke="midnightblue" points="866.46,-289.5 876.46,-286 866.46,-282.5 866.46,-289.5"/>
</g>
<!-- Node11 -->
<g id="node11" class="node">
<title>Node11</title>
<g id="a_node11"><a xlink:href="group__asterics__support.html#gad294e0c5530bd6fb800a2394179070e1" target="_top" xlink:title=" ">
<polygon fill="none" stroke="black" points="1013.5,-295.5 1013.5,-314.5 1103.5,-314.5 1103.5,-295.5 1013.5,-295.5"/>
<text text-anchor="middle" x="1058.5" y="-302.5" font-family="Helvetica,sans-Serif" font-size="10.00">as_mutex_lock</text>
</a>
</g>
</g>
<!-- Node10&#45;&gt;Node11 -->
<g id="edge11" class="edge">
<title>Node10&#45;&gt;Node11</title>
<path fill="none" stroke="midnightblue" d="M933.79,-289.48C953.13,-291.91 979.57,-295.22 1003.04,-298.17"/>
<polygon fill="midnightblue" stroke="midnightblue" points="1002.88,-301.67 1013.23,-299.44 1003.75,-294.73 1002.88,-301.67"/>
</g>
<!-- Node12 -->
<g id="node12" class="node">
<title>Node12</title>
<g id="a_node12"><a xlink:href="group__asterics__support.html#ga07e09e825f2608339f6213edb9d0c8b3" target="_top" xlink:title=" ">
<polygon fill="none" stroke="black" points="1007.5,-257.5 1007.5,-276.5 1109.5,-276.5 1109.5,-257.5 1007.5,-257.5"/>
<text text-anchor="middle" x="1058.5" y="-264.5" font-family="Helvetica,sans-Serif" font-size="10.00">as_mutex_unlock</text>
</a>
</g>
</g>
<!-- Node10&#45;&gt;Node12 -->
<g id="edge12" class="edge">
<title>Node10&#45;&gt;Node12</title>
<path fill="none" stroke="midnightblue" d="M933.79,-282.51C951.57,-280.28 975.33,-277.3 997.28,-274.55"/>
<polygon fill="midnightblue" stroke="midnightblue" points="997.72,-278.02 1007.21,-273.3 996.85,-271.07 997.72,-278.02"/>
</g>
<!-- Node13&#45;&gt;Node9 -->
<g id="edge16" class="edge">
<title>Node13&#45;&gt;Node9</title>
<path fill="none" stroke="midnightblue" d="M634.25,-314.41C658.96,-308.52 690.44,-301.02 714.85,-295.21"/>
<polygon fill="midnightblue" stroke="midnightblue" points="715.92,-298.55 724.83,-292.83 714.3,-291.74 715.92,-298.55"/>
</g>
<!-- Node14 -->
<g id="node14" class="node">
<title>Node14</title>
<g id="a_node14"><a xlink:href="group__as__iic__bitchecks.html#ga4629e4514c3531d0bcd44ae20abc6bad" target="_top" xlink:title=" ">
<polygon fill="none" stroke="black" points="705,-314.5 705,-333.5 804,-333.5 804,-314.5 705,-314.5"/>
<text text-anchor="middle" x="754.5" y="-321.5" font-family="Helvetica,sans-Serif" font-size="10.00">as_iic_is_waiting</text>
</a>
</g>
</g>
<!-- Node13&#45;&gt;Node14 -->
<g id="edge14" class="edge">
<title>Node13&#45;&gt;Node14</title>
<path fill="none" stroke="midnightblue" d="M665.35,-324C675.1,-324 685.01,-324 694.51,-324"/>
<polygon fill="midnightblue" stroke="midnightblue" points="694.62,-327.5 704.62,-324 694.62,-320.5 694.62,-327.5"/>
</g>
<!-- Node14&#45;&gt;Node4 -->
<g id="edge15" class="edge">
<title>Node14&#45;&gt;Node4</title>
<path fill="none" stroke="midnightblue" d="M789.11,-314.48C795.64,-311.91 802.24,-308.77 808,-305 827.46,-292.25 827.34,-283.24 844,-267 857.37,-253.96 873.08,-239.87 885.07,-229.35"/>
<polygon fill="midnightblue" stroke="midnightblue" points="887.46,-231.9 892.7,-222.69 882.86,-226.63 887.46,-231.9"/>
</g>
<!-- Node16&#45;&gt;Node17 -->
<g id="edge20" class="edge">
<title>Node16&#45;&gt;Node17</title>
<path fill="none" stroke="midnightblue" d="M655.21,-84C667.36,-84 680.11,-84 692.26,-84"/>
<polygon fill="midnightblue" stroke="midnightblue" points="692.3,-87.5 702.3,-84 692.3,-80.5 692.3,-87.5"/>
</g>
<!-- Node18 -->
<g id="node18" class="node">
<title>Node18</title>
<g id="a_node18"><a xlink:href="group__asterics__support.html#ga6345b997e24a6cd5f9143cef27629d49" target="_top" xlink:title=" ">
<polygon fill="none" stroke="black" points="865.5,-55.5 865.5,-74.5 944.5,-74.5 944.5,-55.5 865.5,-55.5"/>
<text text-anchor="middle" x="905" y="-62.5" font-family="Helvetica,sans-Serif" font-size="10.00">as_reg_write</text>
</a>
</g>
</g>
<!-- Node17&#45;&gt;Node18 -->
<g id="edge21" class="edge">
<title>Node17&#45;&gt;Node18</title>
<path fill="none" stroke="midnightblue" d="M806.61,-77.46C822.43,-75.43 839.82,-73.21 855.47,-71.21"/>
<polygon fill="midnightblue" stroke="midnightblue" points="856,-74.67 865.47,-69.93 855.11,-67.72 856,-74.67"/>
</g>
<!-- Node19 -->
<g id="node19" class="node">
<title>Node19</title>
<g id="a_node19"><a xlink:href="group__asterics__support.html#gab651cc2c035ce61b354578434e59f822" target="_top" xlink:title=" ">
<polygon fill="none" stroke="black" points="1002,-55.5 1002,-74.5 1115,-74.5 1115,-55.5 1002,-55.5"/>
<text text-anchor="middle" x="1058.5" y="-62.5" font-family="Helvetica,sans-Serif" font-size="10.00">as_reg_from_uint32</text>
</a>
</g>
</g>
<!-- Node18&#45;&gt;Node19 -->
<g id="edge22" class="edge">
<title>Node18&#45;&gt;Node19</title>
<path fill="none" stroke="midnightblue" d="M944.62,-65C958.86,-65 975.43,-65 991.41,-65"/>
<polygon fill="midnightblue" stroke="midnightblue" points="991.79,-68.5 1001.79,-65 991.79,-61.5 991.79,-68.5"/>
</g>
<!-- Node20&#45;&gt;Node5 -->
<g id="edge25" class="edge">
<title>Node20&#45;&gt;Node5</title>
<path fill="none" stroke="midnightblue" d="M784.12,-55.54C791.95,-58.37 800.38,-61.62 808,-65 824.55,-72.31 827.74,-76.06 844,-84 907.57,-115.02 983.38,-148.24 1025.41,-166.32"/>
<polygon fill="midnightblue" stroke="midnightblue" points="1024.27,-169.64 1034.84,-170.37 1027.04,-163.21 1024.27,-169.64"/>
</g>
<!-- Node20&#45;&gt;Node18 -->
<g id="edge26" class="edge">
<title>Node20&#45;&gt;Node18</title>
<path fill="none" stroke="midnightblue" d="M808.27,-52.75C823.58,-54.71 840.22,-56.84 855.27,-58.76"/>
<polygon fill="midnightblue" stroke="midnightblue" points="855.03,-62.26 865.4,-60.06 855.92,-55.32 855.03,-62.26"/>
</g>
<!-- Node21&#45;&gt;Node3 -->
<g id="edge28" class="edge">
<title>Node21&#45;&gt;Node3</title>
<path fill="none" stroke="midnightblue" d="M452.56,-226.41C477.73,-221.28 508.9,-214.93 535.38,-209.53"/>
<polygon fill="midnightblue" stroke="midnightblue" points="536.18,-212.94 545.28,-207.52 534.78,-206.08 536.18,-212.94"/>
</g>
<!-- Node21&#45;&gt;Node7 -->
<g id="edge29" class="edge">
<title>Node21&#45;&gt;Node7</title>
<path fill="none" stroke="midnightblue" d="M485.13,-238.56C497.9,-238.97 511.01,-239.39 523.48,-239.79"/>
<polygon fill="midnightblue" stroke="midnightblue" points="523.68,-243.3 533.79,-240.12 523.9,-236.3 523.68,-243.3"/>
</g>
<!-- Node21&#45;&gt;Node9 -->
<g id="edge32" class="edge">
<title>Node21&#45;&gt;Node9</title>
<path fill="none" stroke="midnightblue" d="M435.08,-245.52C458.22,-252.59 491.34,-261.85 521,-267 588.37,-278.69 668.02,-283.22 714.43,-284.96"/>
<polygon fill="midnightblue" stroke="midnightblue" points="714.54,-288.46 724.65,-285.31 714.78,-281.47 714.54,-288.46"/>
</g>
<!-- Node21&#45;&gt;Node16 -->
<g id="edge30" class="edge">
<title>Node21&#45;&gt;Node16</title>
<path fill="none" stroke="midnightblue" d="M413.11,-226.37C434.42,-199.62 494.86,-125.17 521,-108 527.58,-103.68 535.01,-100.06 542.52,-97.05"/>
<polygon fill="midnightblue" stroke="midnightblue" points="543.84,-100.29 552.03,-93.56 541.43,-93.72 543.84,-100.29"/>
</g>
<!-- Node21&#45;&gt;Node17 -->
<g id="edge31" class="edge">
<title>Node21&#45;&gt;Node17</title>
<path fill="none" stroke="midnightblue" d="M424.11,-226.31C446.78,-214.62 486.34,-194.61 521,-179 590.45,-147.72 673.37,-114.89 719.05,-97.19"/>
<polygon fill="midnightblue" stroke="midnightblue" points="720.41,-100.42 728.48,-93.55 717.89,-93.89 720.41,-100.42"/>
</g>
</g>
</svg>
