<?xml version="1.0" encoding="UTF-8" standalone="no"?>
<!DOCTYPE svg PUBLIC "-//W3C//DTD SVG 1.1//EN"
 "http://www.w3.org/Graphics/SVG/1.1/DTD/svg11.dtd">
<!-- Generated by graphviz version 2.43.0 (0)
 -->
<!-- Title: as_iic_get_control_reg Pages: 1 -->
<svg width="1280pt" height="287pt"
 viewBox="0.00 0.00 1280.00 287.00" xmlns="http://www.w3.org/2000/svg" xmlns:xlink="http://www.w3.org/1999/xlink">
<g id="graph0" class="graph" transform="scale(1 1) rotate(0) translate(4 283)">
<title>as_iic_get_control_reg</title>
<!-- Node1 -->
<g id="node1" class="node">
<title>Node1</title>
<g id="a_node1"><a xlink:title=" ">
<polygon fill="#bfbfbf" stroke="black" points="1147,-107.5 1147,-126.5 1272,-126.5 1272,-107.5 1147,-107.5"/>
<text text-anchor="middle" x="1209.5" y="-114.5" font-family="Helvetica,sans-Serif" font-size="10.00">as_iic_get_control_reg</text>
</a>
</g>
</g>
<!-- Node2 -->
<g id="node2" class="node">
<title>Node2</title>
<g id="a_node2"><a xlink:href="group__as__iic__bitchecks.html#ga2ef7a1f9767986f2033697f584cd4feb" target="_top" xlink:title=" ">
<polygon fill="none" stroke="black" points="987.5,-202.5 987.5,-221.5 1097.5,-221.5 1097.5,-202.5 987.5,-202.5"/>
<text text-anchor="middle" x="1042.5" y="-209.5" font-family="Helvetica,sans-Serif" font-size="10.00">as_iic_is_readwrite</text>
</a>
</g>
</g>
<!-- Node1&#45;&gt;Node2 -->
<g id="edge1" class="edge">
<title>Node1&#45;&gt;Node2</title>
<path fill="none" stroke="midnightblue" d="M1191.57,-133.58C1173.17,-150.75 1142.2,-177.22 1111,-193 1103.5,-196.79 1095.15,-199.92 1086.93,-202.47"/>
<polygon fill="midnightblue" stroke="midnightblue" points="1194.04,-136.07 1198.87,-126.64 1189.22,-130.99 1194.04,-136.07"/>
</g>
<!-- Node15 -->
<g id="node15" class="node">
<title>Node15</title>
<g id="a_node15"><a xlink:href="as__iic_8c.html#afea64b05722568dd3faeb338cfa059bc" target="_top" xlink:title=" ">
<polygon fill="none" stroke="black" points="985.5,-164.5 985.5,-183.5 1099.5,-183.5 1099.5,-164.5 985.5,-164.5"/>
<text text-anchor="middle" x="1042.5" y="-171.5" font-family="Helvetica,sans-Serif" font-size="10.00">as_iic_set_ack_mod</text>
</a>
</g>
</g>
<!-- Node1&#45;&gt;Node15 -->
<g id="edge15" class="edge">
<title>Node1&#45;&gt;Node15</title>
<path fill="none" stroke="midnightblue" d="M1176.55,-130.36C1157.65,-138.03 1133.15,-147.58 1111,-155 1100.96,-158.36 1089.94,-161.63 1079.78,-164.49"/>
<polygon fill="midnightblue" stroke="midnightblue" points="1177.95,-133.57 1185.88,-126.54 1175.3,-127.09 1177.95,-133.57"/>
</g>
<!-- Node16 -->
<g id="node16" class="node">
<title>Node16</title>
<g id="a_node16"><a xlink:href="group__as__iic__user.html#ga01d635936dc80ddaa19a8d189603ead3" target="_top" xlink:title=" ">
<polygon fill="none" stroke="black" points="980,-126.5 980,-145.5 1105,-145.5 1105,-126.5 980,-126.5"/>
<text text-anchor="middle" x="1042.5" y="-133.5" font-family="Helvetica,sans-Serif" font-size="10.00">as_iic_set_data_ready</text>
</a>
</g>
</g>
<!-- Node1&#45;&gt;Node16 -->
<g id="edge16" class="edge">
<title>Node1&#45;&gt;Node16</title>
<path fill="none" stroke="midnightblue" d="M1136.64,-125.27C1126.17,-126.48 1115.46,-127.71 1105.21,-128.89"/>
<polygon fill="midnightblue" stroke="midnightblue" points="1137.06,-128.75 1146.59,-124.13 1136.26,-121.8 1137.06,-128.75"/>
</g>
<!-- Node17 -->
<g id="node17" class="node">
<title>Node17</title>
<g id="a_node17"><a xlink:href="group__as__iic__bitsetters.html#ga0fa3aeeb6d2854f9b27c344047bd820e" target="_top" xlink:title=" ">
<polygon fill="none" stroke="black" points="984.5,-88.5 984.5,-107.5 1100.5,-107.5 1100.5,-88.5 984.5,-88.5"/>
<text text-anchor="middle" x="1042.5" y="-95.5" font-family="Helvetica,sans-Serif" font-size="10.00">as_iic_set_readwrite</text>
</a>
</g>
</g>
<!-- Node1&#45;&gt;Node17 -->
<g id="edge17" class="edge">
<title>Node1&#45;&gt;Node17</title>
<path fill="none" stroke="midnightblue" d="M1136.57,-108.72C1124.53,-107.33 1112.18,-105.91 1100.58,-104.57"/>
<polygon fill="midnightblue" stroke="midnightblue" points="1136.26,-112.2 1146.59,-109.87 1137.06,-105.25 1136.26,-112.2"/>
</g>
<!-- Node18 -->
<g id="node18" class="node">
<title>Node18</title>
<g id="a_node18"><a xlink:href="group__as__iic__bitsetters.html#gaa51d06d83796c60001b40bff2dc35b68" target="_top" xlink:title=" ">
<polygon fill="none" stroke="black" points="987,-39 987,-69 1098,-69 1098,-39 987,-39"/>
<text text-anchor="start" x="995" y="-57" font-family="Helvetica,sans-Serif" font-size="10.00">as_iic_set_transmit</text>
<text text-anchor="middle" x="1042.5" y="-46" font-family="Helvetica,sans-Serif" font-size="10.00">_start</text>
</a>
</g>
</g>
<!-- Node1&#45;&gt;Node18 -->
<g id="edge18" class="edge">
<title>Node1&#45;&gt;Node18</title>
<path fill="none" stroke="midnightblue" d="M1174.79,-103.7C1156.04,-96.34 1132.26,-87.08 1111,-79 1102.47,-75.76 1093.32,-72.33 1084.59,-69.09"/>
<polygon fill="midnightblue" stroke="midnightblue" points="1173.51,-106.96 1184.1,-107.36 1176.07,-100.44 1173.51,-106.96"/>
</g>
<!-- Node19 -->
<g id="node19" class="node">
<title>Node19</title>
<g id="a_node19"><a xlink:href="group__as__iic__bitsetters.html#ga3e0050e31ef365ba7813edd7fbcfa724" target="_top" xlink:title=" ">
<polygon fill="none" stroke="black" points="974,-0.5 974,-19.5 1111,-19.5 1111,-0.5 974,-0.5"/>
<text text-anchor="middle" x="1042.5" y="-7.5" font-family="Helvetica,sans-Serif" font-size="10.00">as_iic_set_transmit_stop</text>
</a>
</g>
</g>
<!-- Node1&#45;&gt;Node19 -->
<g id="edge19" class="edge">
<title>Node1&#45;&gt;Node19</title>
<path fill="none" stroke="midnightblue" d="M1194.02,-99.83C1176.38,-79.96 1144.71,-47.61 1111,-29 1104.07,-25.18 1096.31,-22.07 1088.59,-19.56"/>
<polygon fill="midnightblue" stroke="midnightblue" points="1191.49,-102.25 1200.69,-107.5 1196.77,-97.65 1191.49,-102.25"/>
</g>
<!-- Node3 -->
<g id="node3" class="node">
<title>Node3</title>
<g id="a_node3"><a xlink:href="group__as__iic__helpers.html#ga1662a1a0b29536bf7d74ede3f73598be" target="_top" xlink:title=" ">
<polygon fill="none" stroke="black" points="805.5,-221.5 805.5,-240.5 936.5,-240.5 936.5,-221.5 805.5,-221.5"/>
<text text-anchor="middle" x="871" y="-228.5" font-family="Helvetica,sans-Serif" font-size="10.00">as_iic_read_transaction</text>
</a>
</g>
</g>
<!-- Node2&#45;&gt;Node3 -->
<g id="edge2" class="edge">
<title>Node2&#45;&gt;Node3</title>
<path fill="none" stroke="midnightblue" d="M977.35,-219.19C964,-220.69 949.91,-222.27 936.54,-223.77"/>
<polygon fill="midnightblue" stroke="midnightblue" points="977.86,-222.66 987.4,-218.06 977.08,-215.7 977.86,-222.66"/>
</g>
<!-- Node6 -->
<g id="node6" class="node">
<title>Node6</title>
<g id="a_node6"><a xlink:href="group__as__iic__helpers.html#gad5e0aa9a71f8f0f65e1fbded8134b11f" target="_top" xlink:title=" ">
<polygon fill="none" stroke="black" points="804,-183.5 804,-202.5 938,-202.5 938,-183.5 804,-183.5"/>
<text text-anchor="middle" x="871" y="-190.5" font-family="Helvetica,sans-Serif" font-size="10.00">as_iic_write_transaction</text>
</a>
</g>
</g>
<!-- Node2&#45;&gt;Node6 -->
<g id="edge5" class="edge">
<title>Node2&#45;&gt;Node6</title>
<path fill="none" stroke="midnightblue" d="M977.28,-204.8C964.45,-203.36 950.94,-201.85 938.05,-200.4"/>
<polygon fill="midnightblue" stroke="midnightblue" points="977.08,-208.3 987.4,-205.94 977.86,-201.34 977.08,-208.3"/>
</g>
<!-- Node4 -->
<g id="node4" class="node">
<title>Node4</title>
<g id="a_node4"><a xlink:href="group__as__iic__user.html#ga76b6915b73f14abb8a200df4eefde6f3" target="_top" xlink:title=" ">
<polygon fill="none" stroke="black" points="665.5,-259.5 665.5,-278.5 763.5,-278.5 763.5,-259.5 665.5,-259.5"/>
<text text-anchor="middle" x="714.5" y="-266.5" font-family="Helvetica,sans-Serif" font-size="10.00">as_iic_get_bytes</text>
</a>
</g>
</g>
<!-- Node3&#45;&gt;Node4 -->
<g id="edge3" class="edge">
<title>Node3&#45;&gt;Node4</title>
<path fill="none" stroke="midnightblue" d="M821.05,-243.04C799.46,-248.35 774.46,-254.5 754.21,-259.48"/>
<polygon fill="midnightblue" stroke="midnightblue" points="822.14,-246.38 831.01,-240.59 820.47,-239.58 822.14,-246.38"/>
</g>
<!-- Node5 -->
<g id="node5" class="node">
<title>Node5</title>
<g id="a_node5"><a xlink:href="group__as__iic__user.html#ga987a7c89e5d900225a42f04583e0cfe7" target="_top" xlink:title=" ">
<polygon fill="none" stroke="black" points="665.5,-221.5 665.5,-240.5 763.5,-240.5 763.5,-221.5 665.5,-221.5"/>
<text text-anchor="middle" x="714.5" y="-228.5" font-family="Helvetica,sans-Serif" font-size="10.00">as_iic_read_regs</text>
</a>
</g>
</g>
<!-- Node3&#45;&gt;Node5 -->
<g id="edge4" class="edge">
<title>Node3&#45;&gt;Node5</title>
<path fill="none" stroke="midnightblue" d="M795.21,-231C784.56,-231 773.85,-231 763.88,-231"/>
<polygon fill="midnightblue" stroke="midnightblue" points="795.37,-234.5 805.37,-231 795.37,-227.5 795.37,-234.5"/>
</g>
<!-- Node7 -->
<g id="node7" class="node">
<title>Node7</title>
<g id="a_node7"><a xlink:href="group__as__iic__user.html#ga2a4e5ee19e84cc95de665e29b92ccda1" target="_top" xlink:title=" ">
<polygon fill="none" stroke="black" points="661,-183.5 661,-202.5 768,-202.5 768,-183.5 661,-183.5"/>
<text text-anchor="middle" x="714.5" y="-190.5" font-family="Helvetica,sans-Serif" font-size="10.00">as_iic_write_bytes</text>
</a>
</g>
</g>
<!-- Node6&#45;&gt;Node7 -->
<g id="edge6" class="edge">
<title>Node6&#45;&gt;Node7</title>
<path fill="none" stroke="midnightblue" d="M793.31,-193C784.86,-193 776.41,-193 768.35,-193"/>
<polygon fill="midnightblue" stroke="midnightblue" points="793.58,-196.5 803.58,-193 793.58,-189.5 793.58,-196.5"/>
</g>
<!-- Node8 -->
<g id="node8" class="node">
<title>Node8</title>
<g id="a_node8"><a xlink:href="group__as__iic__user.html#ga5ae8936ee892843eda5df7b9a418bd52" target="_top" xlink:title=" ">
<polygon fill="none" stroke="black" points="530,-183.5 530,-202.5 625,-202.5 625,-183.5 530,-183.5"/>
<text text-anchor="middle" x="577.5" y="-190.5" font-family="Helvetica,sans-Serif" font-size="10.00">as_iic_write_reg</text>
</a>
</g>
</g>
<!-- Node7&#45;&gt;Node8 -->
<g id="edge7" class="edge">
<title>Node7&#45;&gt;Node8</title>
<path fill="none" stroke="midnightblue" d="M650.81,-193C642.12,-193 633.33,-193 625.01,-193"/>
<polygon fill="midnightblue" stroke="midnightblue" points="650.92,-196.5 660.92,-193 650.92,-189.5 650.92,-196.5"/>
</g>
<!-- Node9 -->
<g id="node9" class="node">
<title>Node9</title>
<g id="a_node9"><a xlink:href="as__sensor__ov7670_8c.html#ad5b49e677d2124f73482764e3270bb42" target="_top" xlink:title=" ">
<polygon fill="none" stroke="black" points="384,-183.5 384,-202.5 494,-202.5 494,-183.5 384,-183.5"/>
<text text-anchor="middle" x="439" y="-190.5" font-family="Helvetica,sans-Serif" font-size="10.00">ov7670_iic_reg_set</text>
</a>
</g>
</g>
<!-- Node8&#45;&gt;Node9 -->
<g id="edge8" class="edge">
<title>Node8&#45;&gt;Node9</title>
<path fill="none" stroke="midnightblue" d="M519.8,-193C511.39,-193 502.74,-193 494.38,-193"/>
<polygon fill="midnightblue" stroke="midnightblue" points="519.91,-196.5 529.91,-193 519.91,-189.5 519.91,-196.5"/>
</g>
<!-- Node10 -->
<g id="node10" class="node">
<title>Node10</title>
<g id="a_node10"><a xlink:href="group__as__sensor__ov7670.html#ga55b52e2499f96009197bfe90af6c7a41" target="_top" xlink:title=" ">
<polygon fill="none" stroke="black" points="164,-240.5 164,-259.5 348,-259.5 348,-240.5 164,-240.5"/>
<text text-anchor="middle" x="256" y="-247.5" font-family="Helvetica,sans-Serif" font-size="10.00">as_sensor_ov7670_exposure_auto</text>
</a>
</g>
</g>
<!-- Node9&#45;&gt;Node10 -->
<g id="edge9" class="edge">
<title>Node9&#45;&gt;Node10</title>
<path fill="none" stroke="midnightblue" d="M408.84,-207.01C391.48,-214.92 368.84,-224.49 348,-231 336.29,-234.66 323.51,-237.82 311.34,-240.45"/>
<polygon fill="midnightblue" stroke="midnightblue" points="410.79,-209.96 418.4,-202.58 407.85,-203.61 410.79,-209.96"/>
</g>
<!-- Node12 -->
<g id="node12" class="node">
<title>Node12</title>
<g id="a_node12"><a xlink:href="group__as__sensor__ov7670.html#ga673b948f323ea0a23896c7dc4b0e05e3" target="_top" xlink:title=" ">
<polygon fill="none" stroke="black" points="167.5,-202.5 167.5,-221.5 344.5,-221.5 344.5,-202.5 167.5,-202.5"/>
<text text-anchor="middle" x="256" y="-209.5" font-family="Helvetica,sans-Serif" font-size="10.00">as_sensor_ov7670_exposure_set</text>
</a>
</g>
</g>
<!-- Node9&#45;&gt;Node12 -->
<g id="edge11" class="edge">
<title>Node9&#45;&gt;Node12</title>
<path fill="none" stroke="midnightblue" d="M373.7,-199.75C364.32,-200.73 354.53,-201.76 344.78,-202.79"/>
<polygon fill="midnightblue" stroke="midnightblue" points="374.11,-203.23 383.69,-198.7 373.38,-196.26 374.11,-203.23"/>
</g>
<!-- Node13 -->
<g id="node13" class="node">
<title>Node13</title>
<g id="a_node13"><a xlink:href="group__as__sensor__ov7670.html#gadd11863e70497418c9d31c922945cbec" target="_top" xlink:title=" ">
<polygon fill="none" stroke="black" points="176,-164.5 176,-183.5 336,-183.5 336,-164.5 176,-164.5"/>
<text text-anchor="middle" x="256" y="-171.5" font-family="Helvetica,sans-Serif" font-size="10.00">as_sensor_ov7670_gain_auto</text>
</a>
</g>
</g>
<!-- Node9&#45;&gt;Node13 -->
<g id="edge12" class="edge">
<title>Node9&#45;&gt;Node13</title>
<path fill="none" stroke="midnightblue" d="M373.65,-186.24C361.47,-184.97 348.6,-183.62 336.03,-182.3"/>
<polygon fill="midnightblue" stroke="midnightblue" points="373.38,-189.74 383.69,-187.3 374.11,-182.77 373.38,-189.74"/>
</g>
<!-- Node14 -->
<g id="node14" class="node">
<title>Node14</title>
<g id="a_node14"><a xlink:href="group__as__sensor__ov7670.html#ga45e866e9958d1c7d8e0b0dd206f01a9e" target="_top" xlink:title=" ">
<polygon fill="none" stroke="black" points="179.5,-126.5 179.5,-145.5 332.5,-145.5 332.5,-126.5 179.5,-126.5"/>
<text text-anchor="middle" x="256" y="-133.5" font-family="Helvetica,sans-Serif" font-size="10.00">as_sensor_ov7670_gain_set</text>
</a>
</g>
</g>
<!-- Node9&#45;&gt;Node14 -->
<g id="edge14" class="edge">
<title>Node9&#45;&gt;Node14</title>
<path fill="none" stroke="midnightblue" d="M408.84,-178.99C391.48,-171.08 368.84,-161.51 348,-155 336.29,-151.34 323.51,-148.18 311.34,-145.55"/>
<polygon fill="midnightblue" stroke="midnightblue" points="407.85,-182.39 418.4,-183.42 410.79,-176.04 407.85,-182.39"/>
</g>
<!-- Node11 -->
<g id="node11" class="node">
<title>Node11</title>
<g id="a_node11"><a xlink:href="group__as__sensor__ov7670.html#ga419a3339eac0f6abb8eafe24e468ae49" target="_top" xlink:title=" ">
<polygon fill="none" stroke="black" points="0,-202.5 0,-221.5 128,-221.5 128,-202.5 0,-202.5"/>
<text text-anchor="middle" x="64" y="-209.5" font-family="Helvetica,sans-Serif" font-size="10.00">as_sensor_ov7670_init</text>
</a>
</g>
</g>
<!-- Node10&#45;&gt;Node11 -->
<g id="edge10" class="edge">
<title>Node10&#45;&gt;Node11</title>
<path fill="none" stroke="midnightblue" d="M196.95,-238.39C169.93,-232.99 138.18,-226.64 112.6,-221.52"/>
<polygon fill="midnightblue" stroke="midnightblue" points="196.56,-241.88 207.05,-240.41 197.94,-235.02 196.56,-241.88"/>
</g>
<!-- Node13&#45;&gt;Node11 -->
<g id="edge13" class="edge">
<title>Node13&#45;&gt;Node11</title>
<path fill="none" stroke="midnightblue" d="M196.95,-185.61C169.93,-191.01 138.18,-197.36 112.6,-202.48"/>
<polygon fill="midnightblue" stroke="midnightblue" points="197.94,-188.98 207.05,-183.59 196.56,-182.12 197.94,-188.98"/>
</g>
</g>
</svg>
