<?xml version="1.0" encoding="UTF-8" standalone="no"?>
<!DOCTYPE svg PUBLIC "-//W3C//DTD SVG 1.1//EN"
 "http://www.w3.org/Graphics/SVG/1.1/DTD/svg11.dtd">
<!-- Generated by graphviz version 2.43.0 (0)
 -->
<!-- Title: as_iic_get_bytes Pages: 1 -->
<svg width="1240pt" height="505pt"
 viewBox="0.00 0.00 1240.00 505.18" xmlns="http://www.w3.org/2000/svg" xmlns:xlink="http://www.w3.org/1999/xlink">
<g id="graph0" class="graph" transform="scale(1 1) rotate(0) translate(4 501.18)">
<title>as_iic_get_bytes</title>
<!-- Node1 -->
<g id="node1" class="node">
<title>Node1</title>
<g id="a_node1"><a xlink:title=" ">
<polygon fill="#bfbfbf" stroke="black" points="0,-251.8 0,-270.8 98,-270.8 98,-251.8 0,-251.8"/>
<text text-anchor="middle" x="49" y="-258.8" font-family="Helvetica,sans-Serif" font-size="10.00">as_iic_get_bytes</text>
</a>
</g>
</g>
<!-- Node2 -->
<g id="node2" class="node">
<title>Node2</title>
<g id="a_node2"><a xlink:href="group__as__iic__helpers.html#ga1662a1a0b29536bf7d74ede3f73598be" target="_top" xlink:title=" ">
<polygon fill="none" stroke="black" points="317,-327.8 317,-346.8 448,-346.8 448,-327.8 317,-327.8"/>
<text text-anchor="middle" x="382.5" y="-334.8" font-family="Helvetica,sans-Serif" font-size="10.00">as_iic_read_transaction</text>
</a>
</g>
</g>
<!-- Node1&#45;&gt;Node2 -->
<g id="edge1" class="edge">
<title>Node1&#45;&gt;Node2</title>
<path fill="none" stroke="midnightblue" d="M91.65,-270.85C152.15,-284.72 264.25,-310.42 329.9,-325.47"/>
<polygon fill="midnightblue" stroke="midnightblue" points="329.49,-328.97 340.02,-327.79 331.06,-322.15 329.49,-328.97"/>
</g>
<!-- Node20 -->
<g id="node20" class="node">
<title>Node20</title>
<g id="a_node20"><a xlink:href="group__as__iic__helpers.html#ga53e6050a2c66be89ac23084fd9de9c23" target="_top" xlink:title=" ">
<polygon fill="none" stroke="black" points="134,-251.8 134,-270.8 266,-270.8 266,-251.8 134,-251.8"/>
<text text-anchor="middle" x="200" y="-258.8" font-family="Helvetica,sans-Serif" font-size="10.00">as_iic_start_transaction</text>
</a>
</g>
</g>
<!-- Node1&#45;&gt;Node20 -->
<g id="edge23" class="edge">
<title>Node1&#45;&gt;Node20</title>
<path fill="none" stroke="midnightblue" d="M98.38,-261.3C106.5,-261.3 115.1,-261.3 123.71,-261.3"/>
<polygon fill="midnightblue" stroke="midnightblue" points="123.8,-264.8 133.8,-261.3 123.8,-257.8 123.8,-264.8"/>
</g>
<!-- Node26 -->
<g id="node26" class="node">
<title>Node26</title>
<g id="a_node26"><a xlink:href="group__as__iic__helpers.html#gaa8ce9ac10b8c2ca9b614110ca5cbeff5" target="_top" xlink:title=" ">
<polygon fill="none" stroke="black" points="303.5,-94.8 303.5,-113.8 461.5,-113.8 461.5,-94.8 303.5,-94.8"/>
<text text-anchor="middle" x="382.5" y="-101.8" font-family="Helvetica,sans-Serif" font-size="10.00">as_iic_stop_read_transaction</text>
</a>
</g>
</g>
<!-- Node1&#45;&gt;Node26 -->
<g id="edge43" class="edge">
<title>Node1&#45;&gt;Node26</title>
<path fill="none" stroke="midnightblue" d="M65.74,-251.79C104.69,-228.52 209.18,-167.85 302,-129.3 313.06,-124.71 325.27,-120.47 336.75,-116.84"/>
<polygon fill="midnightblue" stroke="midnightblue" points="338.06,-120.1 346.59,-113.82 336,-113.41 338.06,-120.1"/>
</g>
<!-- Node3 -->
<g id="node3" class="node">
<title>Node3</title>
<g id="a_node3"><a xlink:href="group__as__iic__bitchecks.html#gaa4e8718c748b5a7e956a38ffd6dbe15d" target="_top" xlink:title=" ">
<polygon fill="none" stroke="black" points="514,-371.8 514,-390.8 628,-390.8 628,-371.8 514,-371.8"/>
<text text-anchor="middle" x="571" y="-378.8" font-family="Helvetica,sans-Serif" font-size="10.00">as_iic_ack_received</text>
</a>
</g>
</g>
<!-- Node2&#45;&gt;Node3 -->
<g id="edge2" class="edge">
<title>Node2&#45;&gt;Node3</title>
<path fill="none" stroke="midnightblue" d="M423.97,-346.85C452.07,-353.48 489.72,-362.36 519.74,-369.45"/>
<polygon fill="midnightblue" stroke="midnightblue" points="519.07,-372.88 529.61,-371.77 520.68,-366.07 519.07,-372.88"/>
</g>
<!-- Node7 -->
<g id="node7" class="node">
<title>Node7</title>
<g id="a_node7"><a xlink:href="group__as__iic__wait.html#ga0bc5aad64893b674c42943fb64d17676" target="_top" xlink:title=" ">
<polygon fill="none" stroke="black" points="499,-333.8 499,-352.8 643,-352.8 643,-333.8 499,-333.8"/>
<text text-anchor="middle" x="571" y="-340.8" font-family="Helvetica,sans-Serif" font-size="10.00">as_iic_busy_wait_for_wait</text>
</a>
</g>
</g>
<!-- Node2&#45;&gt;Node7 -->
<g id="edge6" class="edge">
<title>Node2&#45;&gt;Node7</title>
<path fill="none" stroke="midnightblue" d="M448.21,-339.38C461.2,-339.8 475.01,-340.25 488.49,-340.68"/>
<polygon fill="midnightblue" stroke="midnightblue" points="488.61,-344.19 498.72,-341.01 488.84,-337.19 488.61,-344.19"/>
</g>
<!-- Node13 -->
<g id="node13" class="node">
<title>Node13</title>
<g id="a_node13"><a xlink:href="group__as__iic__reg__funcs.html#gace5813084165559c81fe11db6b628b5e" target="_top" xlink:title=" ">
<polygon fill="none" stroke="black" points="517.5,-257.8 517.5,-276.8 624.5,-276.8 624.5,-257.8 517.5,-257.8"/>
<text text-anchor="middle" x="571" y="-264.8" font-family="Helvetica,sans-Serif" font-size="10.00">as_iic_get_rx_byte</text>
</a>
</g>
</g>
<!-- Node2&#45;&gt;Node13 -->
<g id="edge13" class="edge">
<title>Node2&#45;&gt;Node13</title>
<path fill="none" stroke="midnightblue" d="M406.37,-327.78C429.57,-318.21 466.59,-303.22 499,-291.3 509.27,-287.52 520.46,-283.64 530.85,-280.12"/>
<polygon fill="midnightblue" stroke="midnightblue" points="532.15,-283.38 540.52,-276.88 529.92,-276.74 532.15,-283.38"/>
</g>
<!-- Node14 -->
<g id="node14" class="node">
<title>Node14</title>
<g id="a_node14"><a xlink:href="group__as__iic__bitchecks.html#ga2ef7a1f9767986f2033697f584cd4feb" target="_top" xlink:title=" ">
<polygon fill="none" stroke="black" points="516,-447.8 516,-466.8 626,-466.8 626,-447.8 516,-447.8"/>
<text text-anchor="middle" x="571" y="-454.8" font-family="Helvetica,sans-Serif" font-size="10.00">as_iic_is_readwrite</text>
</a>
</g>
</g>
<!-- Node2&#45;&gt;Node14 -->
<g id="edge15" class="edge">
<title>Node2&#45;&gt;Node14</title>
<path fill="none" stroke="midnightblue" d="M398.45,-346.92C430.78,-367.72 507.42,-417.03 546.38,-442.1"/>
<polygon fill="midnightblue" stroke="midnightblue" points="544.68,-445.17 554.98,-447.64 548.47,-439.28 544.68,-445.17"/>
</g>
<!-- Node16 -->
<g id="node16" class="node">
<title>Node16</title>
<g id="a_node16"><a xlink:href="group__as__iic__user.html#gae03c311fae3d6a830878a2b0c2c1c2bf" target="_top" xlink:title=" ">
<polygon fill="none" stroke="black" points="509,-93.8 509,-112.8 633,-112.8 633,-93.8 509,-93.8"/>
<text text-anchor="middle" x="571" y="-100.8" font-family="Helvetica,sans-Serif" font-size="10.00">as_iic_reset_hw_state</text>
</a>
</g>
</g>
<!-- Node2&#45;&gt;Node16 -->
<g id="edge18" class="edge">
<title>Node2&#45;&gt;Node16</title>
<path fill="none" stroke="midnightblue" d="M402.1,-327.8C419.78,-317.97 446.1,-301.15 463,-280.3 488.07,-249.38 478.96,-232.69 499,-198.3 515.74,-169.58 539.6,-139.31 554.95,-120.86"/>
<polygon fill="midnightblue" stroke="midnightblue" points="557.77,-122.94 561.53,-113.04 552.41,-118.43 557.77,-122.94"/>
</g>
<!-- Node17 -->
<g id="node17" class="node">
<title>Node17</title>
<g id="a_node17"><a xlink:href="group__as__iic__reg__funcs.html#gac83a48fc09234a7a99adafb1ce565eb0" target="_top" xlink:title=" ">
<polygon fill="none" stroke="black" points="680.5,-112.8 680.5,-131.8 784.5,-131.8 784.5,-112.8 680.5,-112.8"/>
<text text-anchor="middle" x="732.5" y="-119.8" font-family="Helvetica,sans-Serif" font-size="10.00">as_iic_set_control</text>
</a>
</g>
</g>
<!-- Node2&#45;&gt;Node17 -->
<g id="edge22" class="edge">
<title>Node2&#45;&gt;Node17</title>
<path fill="none" stroke="midnightblue" d="M448.04,-328.13C520.1,-317.34 628.57,-299.27 643,-286.3 683.15,-250.22 650.07,-215.88 679,-170.3 686.83,-157.96 698.65,-146.77 709.08,-138.31"/>
<polygon fill="midnightblue" stroke="midnightblue" points="711.29,-141.02 717.06,-132.13 707.01,-135.49 711.29,-141.02"/>
</g>
<!-- Node4 -->
<g id="node4" class="node">
<title>Node4</title>
<g id="a_node4"><a xlink:href="group__as__iic__reg__funcs.html#ga8daa8fde0a7776aa2f5b335250b5aa2a" target="_top" xlink:title=" ">
<polygon fill="none" stroke="black" points="823.5,-355.8 823.5,-374.8 945.5,-374.8 945.5,-355.8 823.5,-355.8"/>
<text text-anchor="middle" x="884.5" y="-362.8" font-family="Helvetica,sans-Serif" font-size="10.00">as_iic_get_status_reg</text>
</a>
</g>
</g>
<!-- Node3&#45;&gt;Node4 -->
<g id="edge3" class="edge">
<title>Node3&#45;&gt;Node4</title>
<path fill="none" stroke="midnightblue" d="M628.05,-378.42C679.91,-375.76 757.21,-371.79 813.19,-368.91"/>
<polygon fill="midnightblue" stroke="midnightblue" points="813.58,-372.4 823.38,-368.39 813.22,-365.41 813.58,-372.4"/>
</g>
<!-- Node5 -->
<g id="node5" class="node">
<title>Node5</title>
<g id="a_node5"><a xlink:href="group__asterics__support.html#ga8e5c2bfd2e4498d10289377bd94cef07" target="_top" xlink:title=" ">
<polygon fill="none" stroke="black" points="1001.5,-374.8 1001.5,-393.8 1077.5,-393.8 1077.5,-374.8 1001.5,-374.8"/>
<text text-anchor="middle" x="1039.5" y="-381.8" font-family="Helvetica,sans-Serif" font-size="10.00">as_reg_read</text>
</a>
</g>
</g>
<!-- Node4&#45;&gt;Node5 -->
<g id="edge4" class="edge">
<title>Node4&#45;&gt;Node5</title>
<path fill="none" stroke="midnightblue" d="M945.53,-372.76C960.62,-374.63 976.61,-376.62 990.99,-378.4"/>
<polygon fill="midnightblue" stroke="midnightblue" points="990.79,-381.9 1001.15,-379.66 991.65,-374.96 990.79,-381.9"/>
</g>
<!-- Node6 -->
<g id="node6" class="node">
<title>Node6</title>
<g id="a_node6"><a xlink:href="group__asterics__support.html#ga4c6d688b840a6e2edc9bc0b8ed961677" target="_top" xlink:title=" ">
<polygon fill="none" stroke="black" points="1132,-374.8 1132,-393.8 1232,-393.8 1232,-374.8 1132,-374.8"/>
<text text-anchor="middle" x="1182" y="-381.8" font-family="Helvetica,sans-Serif" font-size="10.00">as_reg_to_uint32</text>
</a>
</g>
</g>
<!-- Node5&#45;&gt;Node6 -->
<g id="edge5" class="edge">
<title>Node5&#45;&gt;Node6</title>
<path fill="none" stroke="midnightblue" d="M1077.78,-384.3C1091.26,-384.3 1106.83,-384.3 1121.72,-384.3"/>
<polygon fill="midnightblue" stroke="midnightblue" points="1121.89,-387.8 1131.89,-384.3 1121.89,-380.8 1121.89,-387.8"/>
</g>
<!-- Node8 -->
<g id="node8" class="node">
<title>Node8</title>
<g id="a_node8"><a xlink:href="group__as__iic__bitchecks.html#ga4629e4514c3531d0bcd44ae20abc6bad" target="_top" xlink:title=" ">
<polygon fill="none" stroke="black" points="683,-312.8 683,-331.8 782,-331.8 782,-312.8 683,-312.8"/>
<text text-anchor="middle" x="732.5" y="-319.8" font-family="Helvetica,sans-Serif" font-size="10.00">as_iic_is_waiting</text>
</a>
</g>
</g>
<!-- Node7&#45;&gt;Node8 -->
<g id="edge7" class="edge">
<title>Node7&#45;&gt;Node8</title>
<path fill="none" stroke="midnightblue" d="M643.35,-333.91C653.1,-332.62 663.01,-331.32 672.51,-330.07"/>
<polygon fill="midnightblue" stroke="midnightblue" points="673.16,-333.51 682.62,-328.74 672.24,-326.57 673.16,-333.51"/>
</g>
<!-- Node9 -->
<g id="node9" class="node">
<title>Node9</title>
<g id="a_node9"><a xlink:href="group__asterics__support.html#gab803703ab5b845023ca31b7b2664419c" target="_top" xlink:title=" ">
<polygon fill="none" stroke="black" points="703,-179.8 703,-198.8 762,-198.8 762,-179.8 703,-179.8"/>
<text text-anchor="middle" x="732.5" y="-186.8" font-family="Helvetica,sans-Serif" font-size="10.00">as_sleep</text>
</a>
</g>
</g>
<!-- Node7&#45;&gt;Node9 -->
<g id="edge9" class="edge">
<title>Node7&#45;&gt;Node9</title>
<path fill="none" stroke="midnightblue" d="M614.78,-333.8C624.67,-330.3 634.71,-325.6 643,-319.3 682.5,-289.3 710.51,-236.4 723.44,-208.22"/>
<polygon fill="midnightblue" stroke="midnightblue" points="726.66,-209.6 727.52,-199.04 720.26,-206.76 726.66,-209.6"/>
</g>
<!-- Node8&#45;&gt;Node4 -->
<g id="edge8" class="edge">
<title>Node8&#45;&gt;Node4</title>
<path fill="none" stroke="midnightblue" d="M766.79,-331.84C788.54,-338.08 817.15,-346.28 840.6,-353"/>
<polygon fill="midnightblue" stroke="midnightblue" points="839.73,-356.39 850.3,-355.79 841.65,-349.67 839.73,-356.39"/>
</g>
<!-- Node10 -->
<g id="node10" class="node">
<title>Node10</title>
<g id="a_node10"><a xlink:href="group__asterics__support.html#ga284d9e0d170cf7cabc16ccd7e62d95bd" target="_top" xlink:title=" ">
<polygon fill="none" stroke="black" points="856,-179.8 856,-198.8 913,-198.8 913,-179.8 856,-179.8"/>
<text text-anchor="middle" x="884.5" y="-186.8" font-family="Helvetica,sans-Serif" font-size="10.00">as_yield</text>
</a>
</g>
</g>
<!-- Node9&#45;&gt;Node10 -->
<g id="edge10" class="edge">
<title>Node9&#45;&gt;Node10</title>
<path fill="none" stroke="midnightblue" d="M762.07,-189.3C785.75,-189.3 819.62,-189.3 845.57,-189.3"/>
<polygon fill="midnightblue" stroke="midnightblue" points="845.8,-192.8 855.8,-189.3 845.8,-185.8 845.8,-192.8"/>
</g>
<!-- Node11 -->
<g id="node11" class="node">
<title>Node11</title>
<g id="a_node11"><a xlink:href="group__asterics__support.html#gad294e0c5530bd6fb800a2394179070e1" target="_top" xlink:title=" ">
<polygon fill="none" stroke="black" points="994.5,-189.8 994.5,-208.8 1084.5,-208.8 1084.5,-189.8 994.5,-189.8"/>
<text text-anchor="middle" x="1039.5" y="-196.8" font-family="Helvetica,sans-Serif" font-size="10.00">as_mutex_lock</text>
</a>
</g>
</g>
<!-- Node10&#45;&gt;Node11 -->
<g id="edge11" class="edge">
<title>Node10&#45;&gt;Node11</title>
<path fill="none" stroke="midnightblue" d="M913.21,-191.11C933.02,-192.41 960.34,-194.19 984.41,-195.77"/>
<polygon fill="midnightblue" stroke="midnightblue" points="984.29,-199.27 994.49,-196.43 984.74,-192.28 984.29,-199.27"/>
</g>
<!-- Node12 -->
<g id="node12" class="node">
<title>Node12</title>
<g id="a_node12"><a xlink:href="group__asterics__support.html#ga07e09e825f2608339f6213edb9d0c8b3" target="_top" xlink:title=" ">
<polygon fill="none" stroke="black" points="988.5,-151.8 988.5,-170.8 1090.5,-170.8 1090.5,-151.8 988.5,-151.8"/>
<text text-anchor="middle" x="1039.5" y="-158.8" font-family="Helvetica,sans-Serif" font-size="10.00">as_mutex_unlock</text>
</a>
</g>
</g>
<!-- Node10&#45;&gt;Node12 -->
<g id="edge12" class="edge">
<title>Node10&#45;&gt;Node12</title>
<path fill="none" stroke="midnightblue" d="M913.21,-184.23C931.44,-180.9 956.01,-176.4 978.56,-172.27"/>
<polygon fill="midnightblue" stroke="midnightblue" points="979.21,-175.71 988.41,-170.47 977.95,-168.83 979.21,-175.71"/>
</g>
<!-- Node13&#45;&gt;Node5 -->
<g id="edge14" class="edge">
<title>Node13&#45;&gt;Node5</title>
<path fill="none" stroke="midnightblue" d="M624.61,-274.32C698.14,-285.04 835.17,-308.33 947,-346.3 967.89,-353.39 990.81,-362.92 1008.49,-370.66"/>
<polygon fill="midnightblue" stroke="midnightblue" points="1007.16,-373.9 1017.72,-374.74 1010,-367.5 1007.16,-373.9"/>
</g>
<!-- Node15 -->
<g id="node15" class="node">
<title>Node15</title>
<g id="a_node15"><a xlink:href="group__as__iic__reg__funcs.html#gaca309e97934beed04c02e31ba9cfbd3a" target="_top" xlink:title=" ">
<polygon fill="none" stroke="black" points="822,-459.8 822,-478.8 947,-478.8 947,-459.8 822,-459.8"/>
<text text-anchor="middle" x="884.5" y="-466.8" font-family="Helvetica,sans-Serif" font-size="10.00">as_iic_get_control_reg</text>
</a>
</g>
</g>
<!-- Node14&#45;&gt;Node15 -->
<g id="edge16" class="edge">
<title>Node14&#45;&gt;Node15</title>
<path fill="none" stroke="midnightblue" d="M626.26,-459.39C677.62,-461.37 755.07,-464.35 811.56,-466.53"/>
<polygon fill="midnightblue" stroke="midnightblue" points="811.73,-470.04 821.85,-466.93 812,-463.04 811.73,-470.04"/>
</g>
<!-- Node15&#45;&gt;Node5 -->
<g id="edge17" class="edge">
<title>Node15&#45;&gt;Node5</title>
<path fill="none" stroke="midnightblue" d="M903.59,-459.74C915.88,-453.21 932.47,-444.33 947,-436.3 969.47,-423.89 994.84,-409.44 1013.16,-398.92"/>
<polygon fill="midnightblue" stroke="midnightblue" points="1015.11,-401.84 1022.04,-393.82 1011.62,-395.77 1015.11,-401.84"/>
</g>
<!-- Node16&#45;&gt;Node17 -->
<g id="edge19" class="edge">
<title>Node16&#45;&gt;Node17</title>
<path fill="none" stroke="midnightblue" d="M633.21,-110.59C645.36,-112.04 658.11,-113.56 670.26,-115.01"/>
<polygon fill="midnightblue" stroke="midnightblue" points="669.96,-118.5 680.3,-116.2 670.78,-111.54 669.96,-118.5"/>
</g>
<!-- Node18 -->
<g id="node18" class="node">
<title>Node18</title>
<g id="a_node18"><a xlink:href="group__asterics__support.html#ga6345b997e24a6cd5f9143cef27629d49" target="_top" xlink:title=" ">
<polygon fill="none" stroke="black" points="845,-230.8 845,-249.8 924,-249.8 924,-230.8 845,-230.8"/>
<text text-anchor="middle" x="884.5" y="-237.8" font-family="Helvetica,sans-Serif" font-size="10.00">as_reg_write</text>
</a>
</g>
</g>
<!-- Node17&#45;&gt;Node18 -->
<g id="edge20" class="edge">
<title>Node17&#45;&gt;Node18</title>
<path fill="none" stroke="midnightblue" d="M744.57,-132.01C755.34,-141.55 772.08,-156.63 786,-170.3 802.6,-186.61 803.42,-194.29 822,-208.3 831.03,-215.11 841.72,-221.23 851.63,-226.26"/>
<polygon fill="midnightblue" stroke="midnightblue" points="850.29,-229.5 860.81,-230.72 853.35,-223.2 850.29,-229.5"/>
</g>
<!-- Node19 -->
<g id="node19" class="node">
<title>Node19</title>
<g id="a_node19"><a xlink:href="group__asterics__support.html#gab651cc2c035ce61b354578434e59f822" target="_top" xlink:title=" ">
<polygon fill="none" stroke="black" points="983,-230.8 983,-249.8 1096,-249.8 1096,-230.8 983,-230.8"/>
<text text-anchor="middle" x="1039.5" y="-237.8" font-family="Helvetica,sans-Serif" font-size="10.00">as_reg_from_uint32</text>
</a>
</g>
</g>
<!-- Node18&#45;&gt;Node19 -->
<g id="edge21" class="edge">
<title>Node18&#45;&gt;Node19</title>
<path fill="none" stroke="midnightblue" d="M924.11,-240.3C938.84,-240.3 956.09,-240.3 972.65,-240.3"/>
<polygon fill="midnightblue" stroke="midnightblue" points="972.85,-243.8 982.85,-240.3 972.85,-236.8 972.85,-243.8"/>
</g>
<!-- Node20&#45;&gt;Node3 -->
<g id="edge24" class="edge">
<title>Node20&#45;&gt;Node3</title>
<path fill="none" stroke="midnightblue" d="M207.73,-271.01C222.27,-291.05 258.77,-336.8 302,-356.3 366.16,-385.25 447.6,-388.79 503.77,-386.8"/>
<polygon fill="midnightblue" stroke="midnightblue" points="504.11,-390.29 513.95,-386.37 503.81,-383.29 504.11,-390.29"/>
</g>
<!-- Node20&#45;&gt;Node7 -->
<g id="edge29" class="edge">
<title>Node20&#45;&gt;Node7</title>
<path fill="none" stroke="midnightblue" d="M246.02,-270.88C298.25,-282.04 386.94,-301.14 463,-318.3 481.6,-322.5 501.98,-327.23 519.92,-331.43"/>
<polygon fill="midnightblue" stroke="midnightblue" points="519.36,-334.9 529.89,-333.78 520.96,-328.08 519.36,-334.9"/>
</g>
<!-- Node20&#45;&gt;Node16 -->
<g id="edge32" class="edge">
<title>Node20&#45;&gt;Node16</title>
<path fill="none" stroke="midnightblue" d="M210.02,-251.51C230.54,-229.43 280.59,-176.82 302,-165.3 320.45,-155.37 439.55,-129.92 512.63,-114.89"/>
<polygon fill="midnightblue" stroke="midnightblue" points="513.53,-118.28 522.63,-112.85 512.13,-111.43 513.53,-118.28"/>
</g>
<!-- Node20&#45;&gt;Node17 -->
<g id="edge33" class="edge">
<title>Node20&#45;&gt;Node17</title>
<path fill="none" stroke="midnightblue" d="M203.66,-251.51C212.32,-221.57 242.61,-130.59 302,-85.3 423.85,7.63 501.34,24.14 643,-34.3 677.2,-48.41 705.15,-82.84 719.97,-104.21"/>
<polygon fill="midnightblue" stroke="midnightblue" points="717.2,-106.37 725.66,-112.73 723.02,-102.48 717.2,-106.37"/>
</g>
<!-- Node21 -->
<g id="node21" class="node">
<title>Node21</title>
<g id="a_node21"><a xlink:href="group__as__iic__wait.html#gad3cfec26b8a73166e060108cf1444a2b" target="_top" xlink:title=" ">
<polygon fill="none" stroke="black" points="512,-208.3 512,-238.3 630,-238.3 630,-208.3 512,-208.3"/>
<text text-anchor="start" x="520" y="-226.3" font-family="Helvetica,sans-Serif" font-size="10.00">as_iic_busy_wait_for</text>
<text text-anchor="middle" x="571" y="-215.3" font-family="Helvetica,sans-Serif" font-size="10.00">_hwready</text>
</a>
</g>
</g>
<!-- Node20&#45;&gt;Node21 -->
<g id="edge25" class="edge">
<title>Node20&#45;&gt;Node21</title>
<path fill="none" stroke="midnightblue" d="M245.57,-251.77C263.09,-248.33 283.42,-244.7 302,-242.3 369.58,-233.58 447.3,-228.62 501.58,-225.98"/>
<polygon fill="midnightblue" stroke="midnightblue" points="501.96,-229.46 511.78,-225.49 501.62,-222.47 501.96,-229.46"/>
</g>
<!-- Node22 -->
<g id="node22" class="node">
<title>Node22</title>
<g id="a_node22"><a xlink:href="group__as__iic__user.html#gacdb0c71d0fcfe5e50a7f7316762cd0c0" target="_top" xlink:title=" ">
<polygon fill="none" stroke="black" points="687,-388.8 687,-407.8 778,-407.8 778,-388.8 687,-388.8"/>
<text text-anchor="middle" x="732.5" y="-395.8" font-family="Helvetica,sans-Serif" font-size="10.00">as_iic_is_ready</text>
</a>
</g>
</g>
<!-- Node20&#45;&gt;Node22 -->
<g id="edge31" class="edge">
<title>Node20&#45;&gt;Node22</title>
<path fill="none" stroke="midnightblue" d="M205.39,-271.06C217.03,-295.6 251.3,-359.84 302,-386.3 426.26,-451.16 599.52,-427.27 682.89,-409.97"/>
<polygon fill="midnightblue" stroke="midnightblue" points="683.79,-413.36 692.84,-407.85 682.33,-406.51 683.79,-413.36"/>
</g>
<!-- Node23 -->
<g id="node23" class="node">
<title>Node23</title>
<g id="a_node23"><a xlink:href="group__as__iic__bitchecks.html#gad90ab4c2ed7fbca8f768c87cdb5794ee" target="_top" xlink:title=" ">
<polygon fill="none" stroke="black" points="327,-251.8 327,-270.8 438,-270.8 438,-251.8 327,-251.8"/>
<text text-anchor="middle" x="382.5" y="-258.8" font-family="Helvetica,sans-Serif" font-size="10.00">as_iic_is_initialized</text>
</a>
</g>
</g>
<!-- Node20&#45;&gt;Node23 -->
<g id="edge30" class="edge">
<title>Node20&#45;&gt;Node23</title>
<path fill="none" stroke="midnightblue" d="M266.16,-261.3C282.64,-261.3 300.32,-261.3 316.78,-261.3"/>
<polygon fill="midnightblue" stroke="midnightblue" points="316.84,-264.8 326.84,-261.3 316.84,-257.8 316.84,-264.8"/>
</g>
<!-- Node24 -->
<g id="node24" class="node">
<title>Node24</title>
<g id="a_node24"><a xlink:href="group__as__iic__reg__funcs.html#ga8058473baeded71954aa72ee8df24e9b" target="_top" xlink:title=" ">
<polygon fill="none" stroke="black" points="679,-426.8 679,-445.8 786,-445.8 786,-426.8 679,-426.8"/>
<text text-anchor="middle" x="732.5" y="-433.8" font-family="Helvetica,sans-Serif" font-size="10.00">as_iic_set_data_tx</text>
</a>
</g>
</g>
<!-- Node20&#45;&gt;Node24 -->
<g id="edge34" class="edge">
<title>Node20&#45;&gt;Node24</title>
<path fill="none" stroke="midnightblue" d="M204.28,-270.88C214.25,-298.55 246.95,-379.24 302,-420.3 425.11,-512.14 492.86,-508.66 643,-476.3 665.81,-471.39 689.82,-460.1 707.06,-450.76"/>
<polygon fill="midnightblue" stroke="midnightblue" points="708.87,-453.76 715.9,-445.83 705.46,-447.65 708.87,-453.76"/>
</g>
<!-- Node25 -->
<g id="node25" class="node">
<title>Node25</title>
<g id="a_node25"><a xlink:href="group__as__iic__helpers.html#ga67cc002a1b20c75dc26f7b328ca5ddc9" target="_top" xlink:title=" ">
<polygon fill="none" stroke="black" points="302,-174.8 302,-193.8 463,-193.8 463,-174.8 302,-174.8"/>
<text text-anchor="middle" x="382.5" y="-181.8" font-family="Helvetica,sans-Serif" font-size="10.00">as_iic_stop_write_transaction</text>
</a>
</g>
</g>
<!-- Node20&#45;&gt;Node25 -->
<g id="edge37" class="edge">
<title>Node20&#45;&gt;Node25</title>
<path fill="none" stroke="midnightblue" d="M217.39,-251.76C237.03,-240.58 271.17,-221.98 302,-209.3 313.07,-204.75 325.3,-200.53 336.77,-196.9"/>
<polygon fill="midnightblue" stroke="midnightblue" points="338.08,-200.16 346.61,-193.87 336.02,-193.47 338.08,-200.16"/>
</g>
<!-- Node21&#45;&gt;Node9 -->
<g id="edge28" class="edge">
<title>Node21&#45;&gt;Node9</title>
<path fill="none" stroke="midnightblue" d="M630.03,-210.93C650.93,-206.48 673.97,-201.56 692.81,-197.55"/>
<polygon fill="midnightblue" stroke="midnightblue" points="693.76,-200.93 702.81,-195.42 692.3,-194.08 693.76,-200.93"/>
</g>
<!-- Node21&#45;&gt;Node22 -->
<g id="edge26" class="edge">
<title>Node21&#45;&gt;Node22</title>
<path fill="none" stroke="midnightblue" d="M629.63,-238.49C634.5,-241.24 639.06,-244.48 643,-248.3 674.82,-279.16 655.58,-303.68 679,-341.3 688.38,-356.37 702.04,-371.05 713.08,-381.74"/>
<polygon fill="midnightblue" stroke="midnightblue" points="710.87,-384.47 720.55,-388.77 715.66,-379.37 710.87,-384.47"/>
</g>
<!-- Node22&#45;&gt;Node4 -->
<g id="edge27" class="edge">
<title>Node22&#45;&gt;Node4</title>
<path fill="none" stroke="midnightblue" d="M776.89,-388.76C793.52,-385.1 812.7,-380.88 830.16,-377.04"/>
<polygon fill="midnightblue" stroke="midnightblue" points="831.2,-380.39 840.21,-374.83 829.69,-373.56 831.2,-380.39"/>
</g>
<!-- Node24&#45;&gt;Node5 -->
<g id="edge35" class="edge">
<title>Node24&#45;&gt;Node5</title>
<path fill="none" stroke="midnightblue" d="M786.28,-427.3C844.06,-417.45 935.86,-401.8 991.32,-392.35"/>
<polygon fill="midnightblue" stroke="midnightblue" points="991.97,-395.79 1001.24,-390.65 990.79,-388.88 991.97,-395.79"/>
</g>
<!-- Node24&#45;&gt;Node18 -->
<g id="edge36" class="edge">
<title>Node24&#45;&gt;Node18</title>
<path fill="none" stroke="midnightblue" d="M771.04,-426.72C776.45,-424.25 781.64,-421.16 786,-417.3 812.5,-393.86 805.12,-377.39 822,-346.3 838.92,-315.15 859.86,-279.65 872.43,-258.65"/>
<polygon fill="midnightblue" stroke="midnightblue" points="875.57,-260.22 877.72,-249.84 869.57,-256.62 875.57,-260.22"/>
</g>
<!-- Node25&#45;&gt;Node3 -->
<g id="edge38" class="edge">
<title>Node25&#45;&gt;Node3</title>
<path fill="none" stroke="midnightblue" d="M403.37,-193.98C421.45,-203.77 447.6,-220.55 463,-242.3 495.17,-287.75 459.04,-323.52 499,-362.3 500.88,-364.13 502.92,-365.79 505.08,-367.29"/>
<polygon fill="midnightblue" stroke="midnightblue" points="503.49,-370.41 513.91,-372.34 506.97,-364.33 503.49,-370.41"/>
</g>
<!-- Node25&#45;&gt;Node9 -->
<g id="edge42" class="edge">
<title>Node25&#45;&gt;Node9</title>
<path fill="none" stroke="midnightblue" d="M463.34,-185.45C535.16,-186.48 637.62,-187.95 692.78,-188.75"/>
<polygon fill="midnightblue" stroke="midnightblue" points="692.78,-192.25 702.83,-188.89 692.88,-185.25 692.78,-192.25"/>
</g>
<!-- Node25&#45;&gt;Node16 -->
<g id="edge40" class="edge">
<title>Node25&#45;&gt;Node16</title>
<path fill="none" stroke="midnightblue" d="M420.71,-174.77C434.48,-170.45 449.9,-164.65 463,-157.3 481.17,-147.11 480.83,-137.48 499,-127.3 506.59,-123.05 515.06,-119.39 523.42,-116.29"/>
<polygon fill="midnightblue" stroke="midnightblue" points="524.85,-119.5 533.14,-112.91 522.55,-112.89 524.85,-119.5"/>
</g>
<!-- Node25&#45;&gt;Node17 -->
<g id="edge41" class="edge">
<title>Node25&#45;&gt;Node17</title>
<path fill="none" stroke="midnightblue" d="M437.11,-174.75C500.13,-163.52 604.47,-144.93 670.52,-133.17"/>
<polygon fill="midnightblue" stroke="midnightblue" points="671.15,-136.61 680.38,-131.41 669.92,-129.72 671.15,-136.61"/>
</g>
<!-- Node25&#45;&gt;Node21 -->
<g id="edge39" class="edge">
<title>Node25&#45;&gt;Node21</title>
<path fill="none" stroke="midnightblue" d="M429.12,-193.84C451.02,-198.42 477.7,-204 501.93,-209.07"/>
<polygon fill="midnightblue" stroke="midnightblue" points="501.28,-212.51 511.79,-211.13 502.71,-205.66 501.28,-212.51"/>
</g>
<!-- Node26&#45;&gt;Node9 -->
<g id="edge48" class="edge">
<title>Node26&#45;&gt;Node9</title>
<path fill="none" stroke="midnightblue" d="M406.07,-94.76C453.4,-76.34 565.04,-41.33 643,-84.3 669.24,-98.77 659.77,-118.32 679,-141.3 688.63,-152.81 700.95,-164.21 711.23,-173.01"/>
<polygon fill="midnightblue" stroke="midnightblue" points="709.03,-175.73 718.95,-179.46 713.52,-170.36 709.03,-175.73"/>
</g>
<!-- Node26&#45;&gt;Node13 -->
<g id="edge45" class="edge">
<title>Node26&#45;&gt;Node13</title>
<path fill="none" stroke="midnightblue" d="M400.75,-113.96C418.39,-124.59 445.61,-143.12 463,-165.3 487.56,-196.62 468.97,-221.18 499,-247.3 501.82,-249.76 504.93,-251.91 508.21,-253.8"/>
<polygon fill="midnightblue" stroke="midnightblue" points="506.73,-256.98 517.25,-258.22 509.8,-250.69 506.73,-256.98"/>
</g>
<!-- Node26&#45;&gt;Node16 -->
<g id="edge46" class="edge">
<title>Node26&#45;&gt;Node16</title>
<path fill="none" stroke="midnightblue" d="M461.51,-103.88C473.83,-103.82 486.52,-103.75 498.68,-103.68"/>
<polygon fill="midnightblue" stroke="midnightblue" points="498.77,-107.18 508.75,-103.63 498.73,-100.18 498.77,-107.18"/>
</g>
<!-- Node26&#45;&gt;Node17 -->
<g id="edge47" class="edge">
<title>Node26&#45;&gt;Node17</title>
<path fill="none" stroke="midnightblue" d="M398.81,-94.66C420.24,-81.78 460.85,-59.64 499,-51.3 561.53,-37.64 582.62,-30.08 643,-51.3 673.18,-61.91 700.69,-87.64 716.77,-105.03"/>
<polygon fill="midnightblue" stroke="midnightblue" points="714.43,-107.67 723.7,-112.79 719.65,-103.01 714.43,-107.67"/>
</g>
<!-- Node26&#45;&gt;Node21 -->
<g id="edge44" class="edge">
<title>Node26&#45;&gt;Node21</title>
<path fill="none" stroke="midnightblue" d="M398.45,-113.84C428.56,-133.06 497.14,-176.81 537.88,-202.81"/>
<polygon fill="midnightblue" stroke="midnightblue" points="536.06,-205.8 546.38,-208.23 539.83,-199.9 536.06,-205.8"/>
</g>
</g>
</svg>
