<?xml version="1.0" encoding="UTF-8" standalone="no"?>
<!DOCTYPE svg PUBLIC "-//W3C//DTD SVG 1.1//EN"
 "http://www.w3.org/Graphics/SVG/1.1/DTD/svg11.dtd">
<!-- Generated by graphviz version 2.43.0 (0)
 -->
<!-- Title: as_iic_busy_wait_for_wait Pages: 1 -->
<svg width="1288pt" height="308pt"
 viewBox="0.00 0.00 1288.00 307.89" xmlns="http://www.w3.org/2000/svg" xmlns:xlink="http://www.w3.org/1999/xlink">
<g id="graph0" class="graph" transform="scale(1 1) rotate(0) translate(4 303.89)">
<title>as_iic_busy_wait_for_wait</title>
<!-- Node1 -->
<g id="node1" class="node">
<title>Node1</title>
<g id="a_node1"><a xlink:title=" ">
<polygon fill="#bfbfbf" stroke="black" points="1136,-171.5 1136,-190.5 1280,-190.5 1280,-171.5 1136,-171.5"/>
<text text-anchor="middle" x="1208" y="-178.5" font-family="Helvetica,sans-Serif" font-size="10.00">as_iic_busy_wait_for_wait</text>
</a>
</g>
</g>
<!-- Node2 -->
<g id="node2" class="node">
<title>Node2</title>
<g id="a_node2"><a xlink:href="group__as__iic__helpers.html#ga1662a1a0b29536bf7d74ede3f73598be" target="_top" xlink:title=" ">
<polygon fill="none" stroke="black" points="967.5,-266.5 967.5,-285.5 1098.5,-285.5 1098.5,-266.5 967.5,-266.5"/>
<text text-anchor="middle" x="1033" y="-273.5" font-family="Helvetica,sans-Serif" font-size="10.00">as_iic_read_transaction</text>
</a>
</g>
</g>
<!-- Node1&#45;&gt;Node2 -->
<g id="edge1" class="edge">
<title>Node1&#45;&gt;Node2</title>
<path fill="none" stroke="midnightblue" d="M1180.54,-195.53C1144.7,-215.21 1081.7,-249.81 1051.33,-266.48"/>
<polygon fill="midnightblue" stroke="midnightblue" points="1182.38,-198.51 1189.46,-190.63 1179.01,-192.38 1182.38,-198.51"/>
</g>
<!-- Node5 -->
<g id="node5" class="node">
<title>Node5</title>
<g id="a_node5"><a xlink:href="group__as__iic__helpers.html#ga53e6050a2c66be89ac23084fd9de9c23" target="_top" xlink:title=" ">
<polygon fill="none" stroke="black" points="967,-171.5 967,-190.5 1099,-190.5 1099,-171.5 967,-171.5"/>
<text text-anchor="middle" x="1033" y="-178.5" font-family="Helvetica,sans-Serif" font-size="10.00">as_iic_start_transaction</text>
</a>
</g>
</g>
<!-- Node1&#45;&gt;Node5 -->
<g id="edge4" class="edge">
<title>Node1&#45;&gt;Node5</title>
<path fill="none" stroke="midnightblue" d="M1125.35,-181C1116.55,-181 1107.67,-181 1099.1,-181"/>
<polygon fill="midnightblue" stroke="midnightblue" points="1125.64,-184.5 1135.64,-181 1125.64,-177.5 1125.64,-184.5"/>
</g>
<!-- Node24 -->
<g id="node24" class="node">
<title>Node24</title>
<g id="a_node24"><a xlink:href="group__as__iic__helpers.html#gad5e0aa9a71f8f0f65e1fbded8134b11f" target="_top" xlink:title=" ">
<polygon fill="none" stroke="black" points="966,-95.5 966,-114.5 1100,-114.5 1100,-95.5 966,-95.5"/>
<text text-anchor="middle" x="1033" y="-102.5" font-family="Helvetica,sans-Serif" font-size="10.00">as_iic_write_transaction</text>
</a>
</g>
</g>
<!-- Node1&#45;&gt;Node24 -->
<g id="edge31" class="edge">
<title>Node1&#45;&gt;Node24</title>
<path fill="none" stroke="midnightblue" d="M1175.89,-167.33C1141.22,-152.1 1086.05,-127.87 1055.73,-114.55"/>
<polygon fill="midnightblue" stroke="midnightblue" points="1174.53,-170.56 1185.09,-171.37 1177.34,-164.15 1174.53,-170.56"/>
</g>
<!-- Node3 -->
<g id="node3" class="node">
<title>Node3</title>
<g id="a_node3"><a xlink:href="group__as__iic__user.html#ga76b6915b73f14abb8a200df4eefde6f3" target="_top" xlink:title=" ">
<polygon fill="none" stroke="black" points="817,-266.5 817,-285.5 915,-285.5 915,-266.5 817,-266.5"/>
<text text-anchor="middle" x="866" y="-273.5" font-family="Helvetica,sans-Serif" font-size="10.00">as_iic_get_bytes</text>
</a>
</g>
</g>
<!-- Node2&#45;&gt;Node3 -->
<g id="edge2" class="edge">
<title>Node2&#45;&gt;Node3</title>
<path fill="none" stroke="midnightblue" d="M957,-276C942.81,-276 928.32,-276 915.22,-276"/>
<polygon fill="midnightblue" stroke="midnightblue" points="957.26,-279.5 967.26,-276 957.26,-272.5 957.26,-279.5"/>
</g>
<!-- Node4 -->
<g id="node4" class="node">
<title>Node4</title>
<g id="a_node4"><a xlink:href="group__as__iic__user.html#ga987a7c89e5d900225a42f04583e0cfe7" target="_top" xlink:title=" ">
<polygon fill="none" stroke="black" points="531,-228.5 531,-247.5 629,-247.5 629,-228.5 531,-228.5"/>
<text text-anchor="middle" x="580" y="-235.5" font-family="Helvetica,sans-Serif" font-size="10.00">as_iic_read_regs</text>
</a>
</g>
</g>
<!-- Node2&#45;&gt;Node4 -->
<g id="edge3" class="edge">
<title>Node2&#45;&gt;Node4</title>
<path fill="none" stroke="midnightblue" d="M980.3,-287.54C964.27,-290.6 946.48,-293.48 930,-295 873.35,-300.23 858.44,-302.16 802,-295 731.05,-286 650.28,-261.35 608.81,-247.6"/>
<polygon fill="midnightblue" stroke="midnightblue" points="981.43,-290.88 990.56,-285.51 980.07,-284.02 981.43,-290.88"/>
</g>
<!-- Node5&#45;&gt;Node3 -->
<g id="edge17" class="edge">
<title>Node5&#45;&gt;Node3</title>
<path fill="none" stroke="midnightblue" d="M1012.38,-196.83C992.5,-212.35 960.41,-235.93 930,-252 919.44,-257.58 907.3,-262.52 896.51,-266.45"/>
<polygon fill="midnightblue" stroke="midnightblue" points="1014.69,-199.47 1020.36,-190.53 1010.35,-193.98 1014.69,-199.47"/>
</g>
<!-- Node5&#45;&gt;Node4 -->
<g id="edge18" class="edge">
<title>Node5&#45;&gt;Node4</title>
<path fill="none" stroke="midnightblue" d="M1002.64,-194.64C982.63,-203.26 955.28,-213.73 930,-219 824.26,-241.04 696.84,-241.62 629.01,-239.92"/>
<polygon fill="midnightblue" stroke="midnightblue" points="1004.09,-197.83 1011.83,-190.59 1001.27,-191.42 1004.09,-197.83"/>
</g>
<!-- Node6 -->
<g id="node6" class="node">
<title>Node6</title>
<g id="a_node6"><a xlink:href="group__as__iic__user.html#ga30385c0c387c1629188745edf9c824c1" target="_top" xlink:title=" ">
<polygon fill="none" stroke="black" points="806.5,-114.5 806.5,-133.5 925.5,-133.5 925.5,-114.5 806.5,-114.5"/>
<text text-anchor="middle" x="866" y="-121.5" font-family="Helvetica,sans-Serif" font-size="10.00">as_iic_get_byte_mod</text>
</a>
</g>
</g>
<!-- Node5&#45;&gt;Node6 -->
<g id="edge5" class="edge">
<title>Node5&#45;&gt;Node6</title>
<path fill="none" stroke="midnightblue" d="M997.94,-167.69C978.21,-160.14 952.83,-150.69 930,-143 920.36,-139.76 909.81,-136.47 900.15,-133.57"/>
<polygon fill="midnightblue" stroke="midnightblue" points="996.83,-171.02 1007.42,-171.34 999.35,-164.48 996.83,-171.02"/>
</g>
<!-- Node16 -->
<g id="node16" class="node">
<title>Node16</title>
<g id="a_node16"><a xlink:href="group__as__iic__user.html#ga5c5233652491e648a88292ae73b49ace" target="_top" xlink:title=" ">
<polygon fill="none" stroke="black" points="806,-190.5 806,-209.5 926,-209.5 926,-190.5 806,-190.5"/>
<text text-anchor="middle" x="866" y="-197.5" font-family="Helvetica,sans-Serif" font-size="10.00">as_iic_set_regpointer</text>
</a>
</g>
</g>
<!-- Node5&#45;&gt;Node16 -->
<g id="edge19" class="edge">
<title>Node5&#45;&gt;Node16</title>
<path fill="none" stroke="midnightblue" d="M956.63,-189.68C946.39,-190.86 936.01,-192.05 926.11,-193.19"/>
<polygon fill="midnightblue" stroke="midnightblue" points="957.25,-193.13 966.79,-188.51 956.45,-186.18 957.25,-193.13"/>
</g>
<!-- Node17 -->
<g id="node17" class="node">
<title>Node17</title>
<g id="a_node17"><a xlink:href="group__as__iic__user.html#ga08fcff0dba9d6b4898291746d2206408" target="_top" xlink:title=" ">
<polygon fill="none" stroke="black" points="802,-152.5 802,-171.5 930,-171.5 930,-152.5 802,-152.5"/>
<text text-anchor="middle" x="866" y="-159.5" font-family="Helvetica,sans-Serif" font-size="10.00">as_iic_write_byte_mod</text>
</a>
</g>
</g>
<!-- Node5&#45;&gt;Node17 -->
<g id="edge20" class="edge">
<title>Node5&#45;&gt;Node17</title>
<path fill="none" stroke="midnightblue" d="M956.79,-172.34C947.88,-171.31 938.85,-170.27 930.12,-169.27"/>
<polygon fill="midnightblue" stroke="midnightblue" points="956.45,-175.82 966.79,-173.49 957.25,-168.87 956.45,-175.82"/>
</g>
<!-- Node19 -->
<g id="node19" class="node">
<title>Node19</title>
<g id="a_node19"><a xlink:href="group__as__iic__user.html#ga2a4e5ee19e84cc95de665e29b92ccda1" target="_top" xlink:title=" ">
<polygon fill="none" stroke="black" points="812.5,-76.5 812.5,-95.5 919.5,-95.5 919.5,-76.5 812.5,-76.5"/>
<text text-anchor="middle" x="866" y="-83.5" font-family="Helvetica,sans-Serif" font-size="10.00">as_iic_write_bytes</text>
</a>
</g>
</g>
<!-- Node5&#45;&gt;Node19 -->
<g id="edge24" class="edge">
<title>Node5&#45;&gt;Node19</title>
<path fill="none" stroke="midnightblue" d="M1014.09,-164.58C994.67,-147.54 962.13,-121.18 930,-105 922.65,-101.3 914.46,-98.18 906.47,-95.6"/>
<polygon fill="midnightblue" stroke="midnightblue" points="1012.01,-167.41 1021.8,-171.46 1016.67,-162.19 1012.01,-167.41"/>
</g>
<!-- Node7 -->
<g id="node7" class="node">
<title>Node7</title>
<g id="a_node7"><a xlink:href="group__as__iic__user.html#gacf3e3b915e1f15ed8bdc60ab4c129996" target="_top" xlink:title=" ">
<polygon fill="none" stroke="black" points="669.5,-114.5 669.5,-133.5 761.5,-133.5 761.5,-114.5 669.5,-114.5"/>
<text text-anchor="middle" x="715.5" y="-121.5" font-family="Helvetica,sans-Serif" font-size="10.00">as_iic_get_byte</text>
</a>
</g>
</g>
<!-- Node6&#45;&gt;Node7 -->
<g id="edge6" class="edge">
<title>Node6&#45;&gt;Node7</title>
<path fill="none" stroke="midnightblue" d="M796.18,-124C784.56,-124 772.77,-124 761.94,-124"/>
<polygon fill="midnightblue" stroke="midnightblue" points="796.31,-127.5 806.31,-124 796.31,-120.5 796.31,-127.5"/>
</g>
<!-- Node8 -->
<g id="node8" class="node">
<title>Node8</title>
<g id="a_node8"><a xlink:href="group__as__iic__user.html#ga812d9e16a61b39777a5fbffc7eccbc8d" target="_top" xlink:title=" ">
<polygon fill="none" stroke="black" points="534,-152.5 534,-171.5 626,-171.5 626,-152.5 534,-152.5"/>
<text text-anchor="middle" x="580" y="-159.5" font-family="Helvetica,sans-Serif" font-size="10.00">as_iic_read_reg</text>
</a>
</g>
</g>
<!-- Node7&#45;&gt;Node8 -->
<g id="edge7" class="edge">
<title>Node7&#45;&gt;Node8</title>
<path fill="none" stroke="midnightblue" d="M670.97,-136.39C652.69,-141.59 631.75,-147.55 614.68,-152.41"/>
<polygon fill="midnightblue" stroke="midnightblue" points="672.15,-139.69 680.81,-133.59 670.24,-132.96 672.15,-139.69"/>
</g>
<!-- Node9 -->
<g id="node9" class="node">
<title>Node9</title>
<g id="a_node9"><a xlink:href="as__sensor__ov7670_8c.html#acb25afaea3e81940c50e327c45921f08" target="_top" xlink:title=" ">
<polygon fill="none" stroke="black" points="384,-152.5 384,-171.5 495,-171.5 495,-152.5 384,-152.5"/>
<text text-anchor="middle" x="439.5" y="-159.5" font-family="Helvetica,sans-Serif" font-size="10.00">ov7670_iic_reg_get</text>
</a>
</g>
</g>
<!-- Node8&#45;&gt;Node9 -->
<g id="edge8" class="edge">
<title>Node8&#45;&gt;Node9</title>
<path fill="none" stroke="midnightblue" d="M523.63,-162C514.24,-162 504.5,-162 495.13,-162"/>
<polygon fill="midnightblue" stroke="midnightblue" points="523.65,-165.5 533.65,-162 523.65,-158.5 523.65,-165.5"/>
</g>
<!-- Node10 -->
<g id="node10" class="node">
<title>Node10</title>
<g id="a_node10"><a xlink:href="group__as__sensor__ov7670.html#ga55b52e2499f96009197bfe90af6c7a41" target="_top" xlink:title=" ">
<polygon fill="none" stroke="black" points="164,-76.5 164,-95.5 348,-95.5 348,-76.5 164,-76.5"/>
<text text-anchor="middle" x="256" y="-83.5" font-family="Helvetica,sans-Serif" font-size="10.00">as_sensor_ov7670_exposure_auto</text>
</a>
</g>
</g>
<!-- Node9&#45;&gt;Node10 -->
<g id="edge9" class="edge">
<title>Node9&#45;&gt;Node10</title>
<path fill="none" stroke="midnightblue" d="M418.04,-146.11C400.41,-133.18 373.8,-115.42 348,-105 338.42,-101.13 327.95,-98.01 317.62,-95.5"/>
<polygon fill="midnightblue" stroke="midnightblue" points="416.29,-149.17 426.39,-152.37 420.48,-143.57 416.29,-149.17"/>
</g>
<!-- Node12 -->
<g id="node12" class="node">
<title>Node12</title>
<g id="a_node12"><a xlink:href="group__as__sensor__ov7670.html#gae1b977db2733432317fee8f0497eb67a" target="_top" xlink:title=" ">
<polygon fill="none" stroke="black" points="167,-190.5 167,-209.5 345,-209.5 345,-190.5 167,-190.5"/>
<text text-anchor="middle" x="256" y="-197.5" font-family="Helvetica,sans-Serif" font-size="10.00">as_sensor_ov7670_exposure_get</text>
</a>
</g>
</g>
<!-- Node9&#45;&gt;Node12 -->
<g id="edge11" class="edge">
<title>Node9&#45;&gt;Node12</title>
<path fill="none" stroke="midnightblue" d="M382.95,-173.67C371.4,-176.1 359.3,-178.63 348,-181 333.31,-184.08 317.28,-187.42 302.83,-190.44"/>
<polygon fill="midnightblue" stroke="midnightblue" points="383.86,-177.06 392.93,-171.58 382.42,-170.21 383.86,-177.06"/>
</g>
<!-- Node13 -->
<g id="node13" class="node">
<title>Node13</title>
<g id="a_node13"><a xlink:href="group__as__sensor__ov7670.html#gadd11863e70497418c9d31c922945cbec" target="_top" xlink:title=" ">
<polygon fill="none" stroke="black" points="176,-114.5 176,-133.5 336,-133.5 336,-114.5 176,-114.5"/>
<text text-anchor="middle" x="256" y="-121.5" font-family="Helvetica,sans-Serif" font-size="10.00">as_sensor_ov7670_gain_auto</text>
</a>
</g>
</g>
<!-- Node9&#45;&gt;Node13 -->
<g id="edge12" class="edge">
<title>Node9&#45;&gt;Node13</title>
<path fill="none" stroke="midnightblue" d="M382.95,-150.33C371.4,-147.9 359.3,-145.37 348,-143 333.31,-139.92 317.28,-136.58 302.83,-133.56"/>
<polygon fill="midnightblue" stroke="midnightblue" points="382.42,-153.79 392.93,-152.42 383.86,-146.94 382.42,-153.79"/>
</g>
<!-- Node14 -->
<g id="node14" class="node">
<title>Node14</title>
<g id="a_node14"><a xlink:href="group__as__sensor__ov7670.html#ga75ee4d998c858b26adae16b8140e8637" target="_top" xlink:title=" ">
<polygon fill="none" stroke="black" points="179,-228.5 179,-247.5 333,-247.5 333,-228.5 179,-228.5"/>
<text text-anchor="middle" x="256" y="-235.5" font-family="Helvetica,sans-Serif" font-size="10.00">as_sensor_ov7670_gain_get</text>
</a>
</g>
</g>
<!-- Node9&#45;&gt;Node14 -->
<g id="edge14" class="edge">
<title>Node9&#45;&gt;Node14</title>
<path fill="none" stroke="midnightblue" d="M418.04,-177.89C400.41,-190.82 373.8,-208.58 348,-219 338.42,-222.87 327.95,-225.99 317.62,-228.5"/>
<polygon fill="midnightblue" stroke="midnightblue" points="420.48,-180.43 426.39,-171.63 416.29,-174.83 420.48,-180.43"/>
</g>
<!-- Node15 -->
<g id="node15" class="node">
<title>Node15</title>
<g id="a_node15"><a xlink:href="as__sensor__ov7670_8c.html#ab5de18dc5dd74817505126a51487b8b1" target="_top" xlink:title=" ">
<polygon fill="none" stroke="black" points="181.5,-152.5 181.5,-171.5 330.5,-171.5 330.5,-152.5 181.5,-152.5"/>
<text text-anchor="middle" x="256" y="-159.5" font-family="Helvetica,sans-Serif" font-size="10.00">as_sensor_ov7670_identify</text>
</a>
</g>
</g>
<!-- Node9&#45;&gt;Node15 -->
<g id="edge15" class="edge">
<title>Node9&#45;&gt;Node15</title>
<path fill="none" stroke="midnightblue" d="M373.16,-162C359.33,-162 344.64,-162 330.53,-162"/>
<polygon fill="midnightblue" stroke="midnightblue" points="373.55,-165.5 383.55,-162 373.55,-158.5 373.55,-165.5"/>
</g>
<!-- Node11 -->
<g id="node11" class="node">
<title>Node11</title>
<g id="a_node11"><a xlink:href="group__as__sensor__ov7670.html#ga419a3339eac0f6abb8eafe24e468ae49" target="_top" xlink:title=" ">
<polygon fill="none" stroke="black" points="0,-114.5 0,-133.5 128,-133.5 128,-114.5 0,-114.5"/>
<text text-anchor="middle" x="64" y="-121.5" font-family="Helvetica,sans-Serif" font-size="10.00">as_sensor_ov7670_init</text>
</a>
</g>
</g>
<!-- Node10&#45;&gt;Node11 -->
<g id="edge10" class="edge">
<title>Node10&#45;&gt;Node11</title>
<path fill="none" stroke="midnightblue" d="M196.95,-97.61C169.93,-103.01 138.18,-109.36 112.6,-114.48"/>
<polygon fill="midnightblue" stroke="midnightblue" points="197.94,-100.98 207.05,-95.59 196.56,-94.12 197.94,-100.98"/>
</g>
<!-- Node13&#45;&gt;Node11 -->
<g id="edge13" class="edge">
<title>Node13&#45;&gt;Node11</title>
<path fill="none" stroke="midnightblue" d="M165.68,-124C153.01,-124 140.21,-124 128.17,-124"/>
<polygon fill="midnightblue" stroke="midnightblue" points="165.8,-127.5 175.8,-124 165.8,-120.5 165.8,-127.5"/>
</g>
<!-- Node15&#45;&gt;Node11 -->
<g id="edge16" class="edge">
<title>Node15&#45;&gt;Node11</title>
<path fill="none" stroke="midnightblue" d="M196.95,-150.39C169.93,-144.99 138.18,-138.64 112.6,-133.52"/>
<polygon fill="midnightblue" stroke="midnightblue" points="196.56,-153.88 207.05,-152.41 197.94,-147.02 196.56,-153.88"/>
</g>
<!-- Node18 -->
<g id="node18" class="node">
<title>Node18</title>
<g id="a_node18"><a xlink:href="group__as__iic__user.html#ga35cd65c29b1f4abd1ca87ca51605e5cc" target="_top" xlink:title=" ">
<polygon fill="none" stroke="black" points="665,-152.5 665,-171.5 766,-171.5 766,-152.5 665,-152.5"/>
<text text-anchor="middle" x="715.5" y="-159.5" font-family="Helvetica,sans-Serif" font-size="10.00">as_iic_write_byte</text>
</a>
</g>
</g>
<!-- Node17&#45;&gt;Node18 -->
<g id="edge21" class="edge">
<title>Node17&#45;&gt;Node18</title>
<path fill="none" stroke="midnightblue" d="M791.55,-162C782.97,-162 774.38,-162 766.23,-162"/>
<polygon fill="midnightblue" stroke="midnightblue" points="791.59,-165.5 801.59,-162 791.59,-158.5 791.59,-165.5"/>
</g>
<!-- Node18&#45;&gt;Node4 -->
<g id="edge23" class="edge">
<title>Node18&#45;&gt;Node4</title>
<path fill="none" stroke="midnightblue" d="M688.76,-176.65C661.93,-191.93 620.67,-215.42 597.77,-228.45"/>
<polygon fill="midnightblue" stroke="midnightblue" points="690.63,-179.61 697.59,-171.63 687.17,-173.53 690.63,-179.61"/>
</g>
<!-- Node18&#45;&gt;Node8 -->
<g id="edge22" class="edge">
<title>Node18&#45;&gt;Node8</title>
<path fill="none" stroke="midnightblue" d="M654.6,-162C645.11,-162 635.43,-162 626.34,-162"/>
<polygon fill="midnightblue" stroke="midnightblue" points="654.79,-165.5 664.79,-162 654.79,-158.5 654.79,-165.5"/>
</g>
<!-- Node20 -->
<g id="node20" class="node">
<title>Node20</title>
<g id="a_node20"><a xlink:href="group__as__iic__user.html#ga5ae8936ee892843eda5df7b9a418bd52" target="_top" xlink:title=" ">
<polygon fill="none" stroke="black" points="668,-76.5 668,-95.5 763,-95.5 763,-76.5 668,-76.5"/>
<text text-anchor="middle" x="715.5" y="-83.5" font-family="Helvetica,sans-Serif" font-size="10.00">as_iic_write_reg</text>
</a>
</g>
</g>
<!-- Node19&#45;&gt;Node20 -->
<g id="edge25" class="edge">
<title>Node19&#45;&gt;Node20</title>
<path fill="none" stroke="midnightblue" d="M801.93,-86C788.94,-86 775.47,-86 763.18,-86"/>
<polygon fill="midnightblue" stroke="midnightblue" points="802.23,-89.5 812.23,-86 802.23,-82.5 802.23,-89.5"/>
</g>
<!-- Node21 -->
<g id="node21" class="node">
<title>Node21</title>
<g id="a_node21"><a xlink:href="as__sensor__ov7670_8c.html#ad5b49e677d2124f73482764e3270bb42" target="_top" xlink:title=" ">
<polygon fill="none" stroke="black" points="384.5,-76.5 384.5,-95.5 494.5,-95.5 494.5,-76.5 384.5,-76.5"/>
<text text-anchor="middle" x="439.5" y="-83.5" font-family="Helvetica,sans-Serif" font-size="10.00">ov7670_iic_reg_set</text>
</a>
</g>
</g>
<!-- Node20&#45;&gt;Node21 -->
<g id="edge26" class="edge">
<title>Node20&#45;&gt;Node21</title>
<path fill="none" stroke="midnightblue" d="M657.51,-86C609.63,-86 541.68,-86 494.62,-86"/>
<polygon fill="midnightblue" stroke="midnightblue" points="657.71,-89.5 667.71,-86 657.71,-82.5 657.71,-89.5"/>
</g>
<!-- Node21&#45;&gt;Node10 -->
<g id="edge27" class="edge">
<title>Node21&#45;&gt;Node10</title>
<path fill="none" stroke="midnightblue" d="M373.97,-86C365.55,-86 356.81,-86 348.07,-86"/>
<polygon fill="midnightblue" stroke="midnightblue" points="374.04,-89.5 384.04,-86 374.04,-82.5 374.04,-89.5"/>
</g>
<!-- Node21&#45;&gt;Node13 -->
<g id="edge29" class="edge">
<title>Node21&#45;&gt;Node13</title>
<path fill="none" stroke="midnightblue" d="M382.95,-97.67C371.4,-100.1 359.3,-102.63 348,-105 333.31,-108.08 317.28,-111.42 302.83,-114.44"/>
<polygon fill="midnightblue" stroke="midnightblue" points="383.86,-101.06 392.93,-95.58 382.42,-94.21 383.86,-101.06"/>
</g>
<!-- Node22 -->
<g id="node22" class="node">
<title>Node22</title>
<g id="a_node22"><a xlink:href="group__as__sensor__ov7670.html#ga673b948f323ea0a23896c7dc4b0e05e3" target="_top" xlink:title=" ">
<polygon fill="none" stroke="black" points="167.5,-38.5 167.5,-57.5 344.5,-57.5 344.5,-38.5 167.5,-38.5"/>
<text text-anchor="middle" x="256" y="-45.5" font-family="Helvetica,sans-Serif" font-size="10.00">as_sensor_ov7670_exposure_set</text>
</a>
</g>
</g>
<!-- Node21&#45;&gt;Node22 -->
<g id="edge28" class="edge">
<title>Node21&#45;&gt;Node22</title>
<path fill="none" stroke="midnightblue" d="M382.95,-74.33C371.4,-71.9 359.3,-69.37 348,-67 333.31,-63.92 317.28,-60.58 302.83,-57.56"/>
<polygon fill="midnightblue" stroke="midnightblue" points="382.42,-77.79 392.93,-76.42 383.86,-70.94 382.42,-77.79"/>
</g>
<!-- Node23 -->
<g id="node23" class="node">
<title>Node23</title>
<g id="a_node23"><a xlink:href="group__as__sensor__ov7670.html#ga45e866e9958d1c7d8e0b0dd206f01a9e" target="_top" xlink:title=" ">
<polygon fill="none" stroke="black" points="179.5,-0.5 179.5,-19.5 332.5,-19.5 332.5,-0.5 179.5,-0.5"/>
<text text-anchor="middle" x="256" y="-7.5" font-family="Helvetica,sans-Serif" font-size="10.00">as_sensor_ov7670_gain_set</text>
</a>
</g>
</g>
<!-- Node21&#45;&gt;Node23 -->
<g id="edge30" class="edge">
<title>Node21&#45;&gt;Node23</title>
<path fill="none" stroke="midnightblue" d="M418.04,-70.11C400.41,-57.18 373.8,-39.42 348,-29 338.42,-25.13 327.95,-22.01 317.62,-19.5"/>
<polygon fill="midnightblue" stroke="midnightblue" points="416.29,-73.17 426.39,-76.37 420.48,-67.57 416.29,-73.17"/>
</g>
<!-- Node24&#45;&gt;Node19 -->
<g id="edge32" class="edge">
<title>Node24&#45;&gt;Node19</title>
<path fill="none" stroke="midnightblue" d="M955.69,-96.21C943.53,-94.81 931.18,-93.39 919.73,-92.07"/>
<polygon fill="midnightblue" stroke="midnightblue" points="955.5,-99.71 965.84,-97.38 956.3,-92.76 955.5,-99.71"/>
</g>
</g>
</svg>
