<?xml version="1.0" encoding="UTF-8" standalone="no"?>
<!DOCTYPE svg PUBLIC "-//W3C//DTD SVG 1.1//EN"
 "http://www.w3.org/Graphics/SVG/1.1/DTD/svg11.dtd">
<!-- Generated by graphviz version 2.43.0 (0)
 -->
<!-- Title: as_iic_get_byte Pages: 1 -->
<svg width="1386pt" height="422pt"
 viewBox="0.00 0.00 1386.00 421.83" xmlns="http://www.w3.org/2000/svg" xmlns:xlink="http://www.w3.org/1999/xlink">
<g id="graph0" class="graph" transform="scale(1 1) rotate(0) translate(4 417.83)">
<title>as_iic_get_byte</title>
<!-- Node1 -->
<g id="node1" class="node">
<title>Node1</title>
<g id="a_node1"><a xlink:title=" ">
<polygon fill="#bfbfbf" stroke="black" points="0,-156.42 0,-175.42 92,-175.42 92,-156.42 0,-156.42"/>
<text text-anchor="middle" x="46" y="-163.42" font-family="Helvetica,sans-Serif" font-size="10.00">as_iic_get_byte</text>
</a>
</g>
</g>
<!-- Node2 -->
<g id="node2" class="node">
<title>Node2</title>
<g id="a_node2"><a xlink:href="group__as__iic__user.html#ga30385c0c387c1629188745edf9c824c1" target="_top" xlink:title=" ">
<polygon fill="none" stroke="black" points="128,-156.42 128,-175.42 247,-175.42 247,-156.42 128,-156.42"/>
<text text-anchor="middle" x="187.5" y="-163.42" font-family="Helvetica,sans-Serif" font-size="10.00">as_iic_get_byte_mod</text>
</a>
</g>
</g>
<!-- Node1&#45;&gt;Node2 -->
<g id="edge1" class="edge">
<title>Node1&#45;&gt;Node2</title>
<path fill="none" stroke="midnightblue" d="M92.29,-165.92C100.47,-165.92 109.16,-165.92 117.83,-165.92"/>
<polygon fill="midnightblue" stroke="midnightblue" points="117.96,-169.42 127.96,-165.92 117.96,-162.42 117.96,-169.42"/>
</g>
<!-- Node3 -->
<g id="node3" class="node">
<title>Node3</title>
<g id="a_node3"><a xlink:href="group__as__iic__helpers.html#ga53e6050a2c66be89ac23084fd9de9c23" target="_top" xlink:title=" ">
<polygon fill="none" stroke="black" points="283,-232.42 283,-251.42 415,-251.42 415,-232.42 283,-232.42"/>
<text text-anchor="middle" x="349" y="-239.42" font-family="Helvetica,sans-Serif" font-size="10.00">as_iic_start_transaction</text>
</a>
</g>
</g>
<!-- Node2&#45;&gt;Node3 -->
<g id="edge2" class="edge">
<title>Node2&#45;&gt;Node3</title>
<path fill="none" stroke="midnightblue" d="M208.7,-175.54C236.51,-188.79 286.75,-212.73 318.68,-227.95"/>
<polygon fill="midnightblue" stroke="midnightblue" points="317.43,-231.23 327.96,-232.37 320.44,-224.91 317.43,-231.23"/>
</g>
<!-- Node23 -->
<g id="node23" class="node">
<title>Node23</title>
<g id="a_node23"><a xlink:href="group__as__iic__helpers.html#gaa8ce9ac10b8c2ca9b614110ca5cbeff5" target="_top" xlink:title=" ">
<polygon fill="none" stroke="black" points="452.5,-67.42 452.5,-86.42 610.5,-86.42 610.5,-67.42 452.5,-67.42"/>
<text text-anchor="middle" x="531.5" y="-74.42" font-family="Helvetica,sans-Serif" font-size="10.00">as_iic_stop_read_transaction</text>
</a>
</g>
</g>
<!-- Node2&#45;&gt;Node23 -->
<g id="edge34" class="edge">
<title>Node2&#45;&gt;Node23</title>
<path fill="none" stroke="midnightblue" d="M225.1,-156.39C287.76,-140.09 415.45,-106.86 484.2,-88.96"/>
<polygon fill="midnightblue" stroke="midnightblue" points="485.11,-92.35 493.91,-86.44 483.35,-85.57 485.11,-92.35"/>
</g>
<!-- Node4 -->
<g id="node4" class="node">
<title>Node4</title>
<g id="a_node4"><a xlink:href="group__as__iic__bitchecks.html#gaa4e8718c748b5a7e956a38ffd6dbe15d" target="_top" xlink:title=" ">
<polygon fill="none" stroke="black" points="663,-335.42 663,-354.42 777,-354.42 777,-335.42 663,-335.42"/>
<text text-anchor="middle" x="720" y="-342.42" font-family="Helvetica,sans-Serif" font-size="10.00">as_iic_ack_received</text>
</a>
</g>
</g>
<!-- Node3&#45;&gt;Node4 -->
<g id="edge3" class="edge">
<title>Node3&#45;&gt;Node4</title>
<path fill="none" stroke="midnightblue" d="M354.9,-251.72C367.22,-275.11 402.05,-333.89 451,-355.92 526,-389.67 625.08,-371.61 679.31,-357.17"/>
<polygon fill="midnightblue" stroke="midnightblue" points="680.51,-360.47 689.22,-354.44 678.65,-353.72 680.51,-360.47"/>
</g>
<!-- Node8 -->
<g id="node8" class="node">
<title>Node8</title>
<g id="a_node8"><a xlink:href="group__as__iic__wait.html#gad3cfec26b8a73166e060108cf1444a2b" target="_top" xlink:title=" ">
<polygon fill="none" stroke="black" points="661,-209.92 661,-239.92 779,-239.92 779,-209.92 661,-209.92"/>
<text text-anchor="start" x="669" y="-227.92" font-family="Helvetica,sans-Serif" font-size="10.00">as_iic_busy_wait_for</text>
<text text-anchor="middle" x="720" y="-216.92" font-family="Helvetica,sans-Serif" font-size="10.00">_hwready</text>
</a>
</g>
</g>
<!-- Node3&#45;&gt;Node8 -->
<g id="edge7" class="edge">
<title>Node3&#45;&gt;Node8</title>
<path fill="none" stroke="midnightblue" d="M415.12,-238.92C481.34,-235.87 583.52,-231.16 650.83,-228.06"/>
<polygon fill="midnightblue" stroke="midnightblue" points="651.08,-231.55 660.91,-227.59 650.75,-224.56 651.08,-231.55"/>
</g>
<!-- Node9 -->
<g id="node9" class="node">
<title>Node9</title>
<g id="a_node9"><a xlink:href="group__as__iic__user.html#gacdb0c71d0fcfe5e50a7f7316762cd0c0" target="_top" xlink:title=" ">
<polygon fill="none" stroke="black" points="836,-354.42 836,-373.42 927,-373.42 927,-354.42 836,-354.42"/>
<text text-anchor="middle" x="881.5" y="-361.42" font-family="Helvetica,sans-Serif" font-size="10.00">as_iic_is_ready</text>
</a>
</g>
</g>
<!-- Node3&#45;&gt;Node9 -->
<g id="edge19" class="edge">
<title>Node3&#45;&gt;Node9</title>
<path fill="none" stroke="midnightblue" d="M353.53,-251.64C363.75,-278.08 396.14,-351.2 451,-378.92 582.14,-445.16 765.64,-400.62 843.37,-376.53"/>
<polygon fill="midnightblue" stroke="midnightblue" points="844.71,-379.78 853.19,-373.42 842.6,-373.11 844.71,-379.78"/>
</g>
<!-- Node14 -->
<g id="node14" class="node">
<title>Node14</title>
<g id="a_node14"><a xlink:href="group__as__iic__wait.html#ga0bc5aad64893b674c42943fb64d17676" target="_top" xlink:title=" ">
<polygon fill="none" stroke="black" points="648,-259.42 648,-278.42 792,-278.42 792,-259.42 648,-259.42"/>
<text text-anchor="middle" x="720" y="-266.42" font-family="Helvetica,sans-Serif" font-size="10.00">as_iic_busy_wait_for_wait</text>
</a>
</g>
</g>
<!-- Node3&#45;&gt;Node14 -->
<g id="edge14" class="edge">
<title>Node3&#45;&gt;Node14</title>
<path fill="none" stroke="midnightblue" d="M415.12,-246.68C477.21,-251.23 570.91,-258.08 637.84,-262.98"/>
<polygon fill="midnightblue" stroke="midnightblue" points="637.69,-266.48 647.92,-263.72 638.2,-259.5 637.69,-266.48"/>
</g>
<!-- Node16 -->
<g id="node16" class="node">
<title>Node16</title>
<g id="a_node16"><a xlink:href="group__as__iic__bitchecks.html#gad90ab4c2ed7fbca8f768c87cdb5794ee" target="_top" xlink:title=" ">
<polygon fill="none" stroke="black" points="476,-327.42 476,-346.42 587,-346.42 587,-327.42 476,-327.42"/>
<text text-anchor="middle" x="531.5" y="-334.42" font-family="Helvetica,sans-Serif" font-size="10.00">as_iic_is_initialized</text>
</a>
</g>
</g>
<!-- Node3&#45;&gt;Node16 -->
<g id="edge18" class="edge">
<title>Node3&#45;&gt;Node16</title>
<path fill="none" stroke="midnightblue" d="M361.06,-251.51C378.88,-266.53 415.54,-295.66 451,-312.92 460.14,-317.37 470.27,-321.18 480.16,-324.38"/>
<polygon fill="midnightblue" stroke="midnightblue" points="479.34,-327.79 489.92,-327.37 481.39,-321.1 479.34,-327.79"/>
</g>
<!-- Node17 -->
<g id="node17" class="node">
<title>Node17</title>
<g id="a_node17"><a xlink:href="group__as__iic__user.html#gae03c311fae3d6a830878a2b0c2c1c2bf" target="_top" xlink:title=" ">
<polygon fill="none" stroke="black" points="658,-95.42 658,-114.42 782,-114.42 782,-95.42 658,-95.42"/>
<text text-anchor="middle" x="720" y="-102.42" font-family="Helvetica,sans-Serif" font-size="10.00">as_iic_reset_hw_state</text>
</a>
</g>
</g>
<!-- Node3&#45;&gt;Node17 -->
<g id="edge20" class="edge">
<title>Node3&#45;&gt;Node17</title>
<path fill="none" stroke="midnightblue" d="M359.31,-232.19C376.01,-215.33 412.91,-180.78 451,-162.92 513.89,-133.43 592.16,-118.71 647.84,-111.51"/>
<polygon fill="midnightblue" stroke="midnightblue" points="648.48,-114.96 657.97,-110.25 647.61,-108.01 648.48,-114.96"/>
</g>
<!-- Node18 -->
<g id="node18" class="node">
<title>Node18</title>
<g id="a_node18"><a xlink:href="group__as__iic__reg__funcs.html#gac83a48fc09234a7a99adafb1ce565eb0" target="_top" xlink:title=" ">
<polygon fill="none" stroke="black" points="829.5,-95.42 829.5,-114.42 933.5,-114.42 933.5,-95.42 829.5,-95.42"/>
<text text-anchor="middle" x="881.5" y="-102.42" font-family="Helvetica,sans-Serif" font-size="10.00">as_iic_set_control</text>
</a>
</g>
</g>
<!-- Node3&#45;&gt;Node18 -->
<g id="edge24" class="edge">
<title>Node3&#45;&gt;Node18</title>
<path fill="none" stroke="midnightblue" d="M352,-232.13C359.02,-200.52 385.77,-100.65 451,-57.92 577.95,25.25 647.78,7.35 792,-39.92 820.64,-49.31 847.67,-71.9 864.14,-87.8"/>
<polygon fill="midnightblue" stroke="midnightblue" points="861.79,-90.39 871.35,-94.98 866.74,-85.44 861.79,-90.39"/>
</g>
<!-- Node21 -->
<g id="node21" class="node">
<title>Node21</title>
<g id="a_node21"><a xlink:href="group__as__iic__reg__funcs.html#ga8058473baeded71954aa72ee8df24e9b" target="_top" xlink:title=" ">
<polygon fill="none" stroke="black" points="828,-240.42 828,-259.42 935,-259.42 935,-240.42 828,-240.42"/>
<text text-anchor="middle" x="881.5" y="-247.42" font-family="Helvetica,sans-Serif" font-size="10.00">as_iic_set_data_tx</text>
</a>
</g>
</g>
<!-- Node3&#45;&gt;Node21 -->
<g id="edge25" class="edge">
<title>Node3&#45;&gt;Node21</title>
<path fill="none" stroke="midnightblue" d="M378.13,-251.44C448.8,-273.95 639.04,-325.8 792,-287.92 809.56,-283.57 811.45,-276.24 828,-268.92 832.53,-266.91 837.34,-264.96 842.14,-263.1"/>
<polygon fill="midnightblue" stroke="midnightblue" points="843.74,-266.24 851.88,-259.46 841.29,-259.68 843.74,-266.24"/>
</g>
<!-- Node22 -->
<g id="node22" class="node">
<title>Node22</title>
<g id="a_node22"><a xlink:href="group__as__iic__helpers.html#ga67cc002a1b20c75dc26f7b328ca5ddc9" target="_top" xlink:title=" ">
<polygon fill="none" stroke="black" points="451,-172.42 451,-191.42 612,-191.42 612,-172.42 451,-172.42"/>
<text text-anchor="middle" x="531.5" y="-179.42" font-family="Helvetica,sans-Serif" font-size="10.00">as_iic_stop_write_transaction</text>
</a>
</g>
</g>
<!-- Node3&#45;&gt;Node22 -->
<g id="edge28" class="edge">
<title>Node3&#45;&gt;Node22</title>
<path fill="none" stroke="midnightblue" d="M378.6,-232.41C409.27,-222.21 458.14,-205.97 492.13,-194.67"/>
<polygon fill="midnightblue" stroke="midnightblue" points="493.35,-197.95 501.73,-191.48 491.14,-191.31 493.35,-197.95"/>
</g>
<!-- Node5 -->
<g id="node5" class="node">
<title>Node5</title>
<g id="a_node5"><a xlink:href="group__as__iic__reg__funcs.html#ga8daa8fde0a7776aa2f5b335250b5aa2a" target="_top" xlink:title=" ">
<polygon fill="none" stroke="black" points="971,-306.42 971,-325.42 1093,-325.42 1093,-306.42 971,-306.42"/>
<text text-anchor="middle" x="1032" y="-313.42" font-family="Helvetica,sans-Serif" font-size="10.00">as_iic_get_status_reg</text>
</a>
</g>
</g>
<!-- Node4&#45;&gt;Node5 -->
<g id="edge4" class="edge">
<title>Node4&#45;&gt;Node5</title>
<path fill="none" stroke="midnightblue" d="M777.14,-339.67C828.63,-334.85 905.11,-327.69 960.66,-322.5"/>
<polygon fill="midnightblue" stroke="midnightblue" points="961.15,-325.97 970.78,-321.55 960.5,-319 961.15,-325.97"/>
</g>
<!-- Node6 -->
<g id="node6" class="node">
<title>Node6</title>
<g id="a_node6"><a xlink:href="group__asterics__support.html#ga8e5c2bfd2e4498d10289377bd94cef07" target="_top" xlink:title=" ">
<polygon fill="none" stroke="black" points="1147.5,-249.42 1147.5,-268.42 1223.5,-268.42 1223.5,-249.42 1147.5,-249.42"/>
<text text-anchor="middle" x="1185.5" y="-256.42" font-family="Helvetica,sans-Serif" font-size="10.00">as_reg_read</text>
</a>
</g>
</g>
<!-- Node5&#45;&gt;Node6 -->
<g id="edge5" class="edge">
<title>Node5&#45;&gt;Node6</title>
<path fill="none" stroke="midnightblue" d="M1058.36,-306.38C1083.37,-296.96 1121.81,-282.5 1149.68,-272.02"/>
<polygon fill="midnightblue" stroke="midnightblue" points="1150.93,-275.29 1159.06,-268.49 1148.47,-268.73 1150.93,-275.29"/>
</g>
<!-- Node7 -->
<g id="node7" class="node">
<title>Node7</title>
<g id="a_node7"><a xlink:href="group__asterics__support.html#ga4c6d688b840a6e2edc9bc0b8ed961677" target="_top" xlink:title=" ">
<polygon fill="none" stroke="black" points="1278,-249.42 1278,-268.42 1378,-268.42 1378,-249.42 1278,-249.42"/>
<text text-anchor="middle" x="1328" y="-256.42" font-family="Helvetica,sans-Serif" font-size="10.00">as_reg_to_uint32</text>
</a>
</g>
</g>
<!-- Node6&#45;&gt;Node7 -->
<g id="edge6" class="edge">
<title>Node6&#45;&gt;Node7</title>
<path fill="none" stroke="midnightblue" d="M1223.78,-258.92C1237.26,-258.92 1252.83,-258.92 1267.72,-258.92"/>
<polygon fill="midnightblue" stroke="midnightblue" points="1267.89,-262.42 1277.89,-258.92 1267.89,-255.42 1267.89,-262.42"/>
</g>
<!-- Node8&#45;&gt;Node9 -->
<g id="edge8" class="edge">
<title>Node8&#45;&gt;Node9</title>
<path fill="none" stroke="midnightblue" d="M776.1,-240.04C781.76,-242.82 787.2,-246.09 792,-249.92 815.43,-268.59 809.78,-283.13 828,-306.92 838.93,-321.18 852.75,-336.08 863.46,-347.07"/>
<polygon fill="midnightblue" stroke="midnightblue" points="861.11,-349.66 870.63,-354.31 866.09,-344.74 861.11,-349.66"/>
</g>
<!-- Node10 -->
<g id="node10" class="node">
<title>Node10</title>
<g id="a_node10"><a xlink:href="group__asterics__support.html#gab803703ab5b845023ca31b7b2664419c" target="_top" xlink:title=" ">
<polygon fill="none" stroke="black" points="852,-171.42 852,-190.42 911,-190.42 911,-171.42 852,-171.42"/>
<text text-anchor="middle" x="881.5" y="-178.42" font-family="Helvetica,sans-Serif" font-size="10.00">as_sleep</text>
</a>
</g>
</g>
<!-- Node8&#45;&gt;Node10 -->
<g id="edge10" class="edge">
<title>Node8&#45;&gt;Node10</title>
<path fill="none" stroke="midnightblue" d="M775.44,-209.9C797.37,-203.85 822.14,-197.02 842.12,-191.5"/>
<polygon fill="midnightblue" stroke="midnightblue" points="843.09,-194.87 851.8,-188.83 841.23,-188.12 843.09,-194.87"/>
</g>
<!-- Node9&#45;&gt;Node5 -->
<g id="edge9" class="edge">
<title>Node9&#45;&gt;Node5</title>
<path fill="none" stroke="midnightblue" d="M912.19,-354.32C935.06,-346.93 966.87,-336.65 991.82,-328.58"/>
<polygon fill="midnightblue" stroke="midnightblue" points="992.92,-331.9 1001.36,-325.5 990.77,-325.24 992.92,-331.9"/>
</g>
<!-- Node11 -->
<g id="node11" class="node">
<title>Node11</title>
<g id="a_node11"><a xlink:href="group__asterics__support.html#ga284d9e0d170cf7cabc16ccd7e62d95bd" target="_top" xlink:title=" ">
<polygon fill="none" stroke="black" points="1003.5,-135.42 1003.5,-154.42 1060.5,-154.42 1060.5,-135.42 1003.5,-135.42"/>
<text text-anchor="middle" x="1032" y="-142.42" font-family="Helvetica,sans-Serif" font-size="10.00">as_yield</text>
</a>
</g>
</g>
<!-- Node10&#45;&gt;Node11 -->
<g id="edge11" class="edge">
<title>Node10&#45;&gt;Node11</title>
<path fill="none" stroke="midnightblue" d="M911.13,-173.98C934.64,-168.28 968.12,-160.16 993.72,-153.95"/>
<polygon fill="midnightblue" stroke="midnightblue" points="994.57,-157.35 1003.46,-151.59 992.92,-150.55 994.57,-157.35"/>
</g>
<!-- Node12 -->
<g id="node12" class="node">
<title>Node12</title>
<g id="a_node12"><a xlink:href="group__asterics__support.html#gad294e0c5530bd6fb800a2394179070e1" target="_top" xlink:title=" ">
<polygon fill="none" stroke="black" points="1140.5,-154.42 1140.5,-173.42 1230.5,-173.42 1230.5,-154.42 1140.5,-154.42"/>
<text text-anchor="middle" x="1185.5" y="-161.42" font-family="Helvetica,sans-Serif" font-size="10.00">as_mutex_lock</text>
</a>
</g>
</g>
<!-- Node11&#45;&gt;Node12 -->
<g id="edge12" class="edge">
<title>Node11&#45;&gt;Node12</title>
<path fill="none" stroke="midnightblue" d="M1060.79,-148.4C1080.13,-150.83 1106.57,-154.14 1130.04,-157.09"/>
<polygon fill="midnightblue" stroke="midnightblue" points="1129.88,-160.59 1140.23,-158.37 1130.75,-153.65 1129.88,-160.59"/>
</g>
<!-- Node13 -->
<g id="node13" class="node">
<title>Node13</title>
<g id="a_node13"><a xlink:href="group__asterics__support.html#ga07e09e825f2608339f6213edb9d0c8b3" target="_top" xlink:title=" ">
<polygon fill="none" stroke="black" points="1134.5,-116.42 1134.5,-135.42 1236.5,-135.42 1236.5,-116.42 1134.5,-116.42"/>
<text text-anchor="middle" x="1185.5" y="-123.42" font-family="Helvetica,sans-Serif" font-size="10.00">as_mutex_unlock</text>
</a>
</g>
</g>
<!-- Node11&#45;&gt;Node13 -->
<g id="edge13" class="edge">
<title>Node11&#45;&gt;Node13</title>
<path fill="none" stroke="midnightblue" d="M1060.79,-141.43C1078.57,-139.2 1102.33,-136.22 1124.28,-133.47"/>
<polygon fill="midnightblue" stroke="midnightblue" points="1124.72,-136.94 1134.21,-132.22 1123.85,-130 1124.72,-136.94"/>
</g>
<!-- Node14&#45;&gt;Node10 -->
<g id="edge17" class="edge">
<title>Node14&#45;&gt;Node10</title>
<path fill="none" stroke="midnightblue" d="M767.44,-259.37C775.84,-256.84 784.35,-253.73 792,-249.92 819.58,-236.19 846.85,-213.1 863.68,-197.44"/>
<polygon fill="midnightblue" stroke="midnightblue" points="866.22,-199.86 871.05,-190.43 861.39,-194.78 866.22,-199.86"/>
</g>
<!-- Node15 -->
<g id="node15" class="node">
<title>Node15</title>
<g id="a_node15"><a xlink:href="group__as__iic__bitchecks.html#ga4629e4514c3531d0bcd44ae20abc6bad" target="_top" xlink:title=" ">
<polygon fill="none" stroke="black" points="832,-278.42 832,-297.42 931,-297.42 931,-278.42 832,-278.42"/>
<text text-anchor="middle" x="881.5" y="-285.42" font-family="Helvetica,sans-Serif" font-size="10.00">as_iic_is_waiting</text>
</a>
</g>
</g>
<!-- Node14&#45;&gt;Node15 -->
<g id="edge15" class="edge">
<title>Node14&#45;&gt;Node15</title>
<path fill="none" stroke="midnightblue" d="M792.35,-277.42C802.1,-278.58 812.01,-279.76 821.51,-280.89"/>
<polygon fill="midnightblue" stroke="midnightblue" points="821.27,-284.39 831.62,-282.09 822.1,-277.44 821.27,-284.39"/>
</g>
<!-- Node15&#45;&gt;Node5 -->
<g id="edge16" class="edge">
<title>Node15&#45;&gt;Node5</title>
<path fill="none" stroke="midnightblue" d="M931.12,-297.09C943.73,-299.46 957.46,-302.05 970.59,-304.53"/>
<polygon fill="midnightblue" stroke="midnightblue" points="970.01,-307.98 980.48,-306.39 971.3,-301.1 970.01,-307.98"/>
</g>
<!-- Node17&#45;&gt;Node18 -->
<g id="edge21" class="edge">
<title>Node17&#45;&gt;Node18</title>
<path fill="none" stroke="midnightblue" d="M782.21,-104.92C794.36,-104.92 807.11,-104.92 819.26,-104.92"/>
<polygon fill="midnightblue" stroke="midnightblue" points="819.3,-108.42 829.3,-104.92 819.3,-101.42 819.3,-108.42"/>
</g>
<!-- Node19 -->
<g id="node19" class="node">
<title>Node19</title>
<g id="a_node19"><a xlink:href="group__asterics__support.html#ga6345b997e24a6cd5f9143cef27629d49" target="_top" xlink:title=" ">
<polygon fill="none" stroke="black" points="992.5,-211.42 992.5,-230.42 1071.5,-230.42 1071.5,-211.42 992.5,-211.42"/>
<text text-anchor="middle" x="1032" y="-218.42" font-family="Helvetica,sans-Serif" font-size="10.00">as_reg_write</text>
</a>
</g>
</g>
<!-- Node18&#45;&gt;Node19 -->
<g id="edge22" class="edge">
<title>Node18&#45;&gt;Node19</title>
<path fill="none" stroke="midnightblue" d="M891.45,-114.57C901.93,-125.88 919.78,-145.2 935,-161.92 951.1,-179.6 950.89,-188.96 971,-201.92 974.62,-204.25 978.54,-206.31 982.59,-208.13"/>
<polygon fill="midnightblue" stroke="midnightblue" points="981.6,-211.51 992.19,-211.96 984.2,-205.01 981.6,-211.51"/>
</g>
<!-- Node20 -->
<g id="node20" class="node">
<title>Node20</title>
<g id="a_node20"><a xlink:href="group__asterics__support.html#gab651cc2c035ce61b354578434e59f822" target="_top" xlink:title=" ">
<polygon fill="none" stroke="black" points="1129,-211.42 1129,-230.42 1242,-230.42 1242,-211.42 1129,-211.42"/>
<text text-anchor="middle" x="1185.5" y="-218.42" font-family="Helvetica,sans-Serif" font-size="10.00">as_reg_from_uint32</text>
</a>
</g>
</g>
<!-- Node19&#45;&gt;Node20 -->
<g id="edge23" class="edge">
<title>Node19&#45;&gt;Node20</title>
<path fill="none" stroke="midnightblue" d="M1071.62,-220.92C1085.86,-220.92 1102.43,-220.92 1118.41,-220.92"/>
<polygon fill="midnightblue" stroke="midnightblue" points="1118.79,-224.42 1128.79,-220.92 1118.79,-217.42 1118.79,-224.42"/>
</g>
<!-- Node21&#45;&gt;Node6 -->
<g id="edge26" class="edge">
<title>Node21&#45;&gt;Node6</title>
<path fill="none" stroke="midnightblue" d="M935.1,-251.48C992.1,-253.18 1082.22,-255.87 1137.1,-257.5"/>
<polygon fill="midnightblue" stroke="midnightblue" points="1137.15,-261.01 1147.25,-257.81 1137.36,-254.01 1137.15,-261.01"/>
</g>
<!-- Node21&#45;&gt;Node19 -->
<g id="edge27" class="edge">
<title>Node21&#45;&gt;Node19</title>
<path fill="none" stroke="midnightblue" d="M931.54,-240.34C947.91,-237.14 966.13,-233.58 982.47,-230.4"/>
<polygon fill="midnightblue" stroke="midnightblue" points="983.21,-233.82 992.36,-228.46 981.87,-226.95 983.21,-233.82"/>
</g>
<!-- Node22&#45;&gt;Node4 -->
<g id="edge29" class="edge">
<title>Node22&#45;&gt;Node4</title>
<path fill="none" stroke="midnightblue" d="M542.49,-191.51C562.27,-210.38 607.94,-253.52 648,-287.92 664.59,-302.16 683.97,-317.65 698.29,-328.88"/>
<polygon fill="midnightblue" stroke="midnightblue" points="696.45,-331.88 706.48,-335.27 700.76,-326.36 696.45,-331.88"/>
</g>
<!-- Node22&#45;&gt;Node8 -->
<g id="edge30" class="edge">
<title>Node22&#45;&gt;Node8</title>
<path fill="none" stroke="midnightblue" d="M573.89,-191.46C596.54,-196.68 625.17,-203.28 651,-209.24"/>
<polygon fill="midnightblue" stroke="midnightblue" points="650.22,-212.65 660.75,-211.49 651.79,-205.83 650.22,-212.65"/>
</g>
<!-- Node22&#45;&gt;Node10 -->
<g id="edge33" class="edge">
<title>Node22&#45;&gt;Node10</title>
<path fill="none" stroke="midnightblue" d="M612.34,-181.69C684.16,-181.48 786.62,-181.19 841.78,-181.03"/>
<polygon fill="midnightblue" stroke="midnightblue" points="841.84,-184.53 851.83,-181 841.82,-177.53 841.84,-184.53"/>
</g>
<!-- Node22&#45;&gt;Node17 -->
<g id="edge31" class="edge">
<title>Node22&#45;&gt;Node17</title>
<path fill="none" stroke="midnightblue" d="M551.85,-172.28C574.58,-161.15 613.55,-142.6 648,-128.92 657.79,-125.03 668.5,-121.2 678.56,-117.78"/>
<polygon fill="midnightblue" stroke="midnightblue" points="679.97,-120.99 688.34,-114.51 677.75,-114.36 679.97,-120.99"/>
</g>
<!-- Node22&#45;&gt;Node18 -->
<g id="edge32" class="edge">
<title>Node22&#45;&gt;Node18</title>
<path fill="none" stroke="midnightblue" d="M575.52,-172.4C639.22,-158.3 758.5,-131.91 827.5,-116.64"/>
<polygon fill="midnightblue" stroke="midnightblue" points="828.3,-120.05 837.3,-114.47 826.78,-113.22 828.3,-120.05"/>
</g>
<!-- Node23&#45;&gt;Node8 -->
<g id="edge35" class="edge">
<title>Node23&#45;&gt;Node8</title>
<path fill="none" stroke="midnightblue" d="M544.74,-86.63C574.46,-110.21 651.01,-170.96 692.05,-203.53"/>
<polygon fill="midnightblue" stroke="midnightblue" points="690,-206.37 700,-209.84 694.35,-200.89 690,-206.37"/>
</g>
<!-- Node23&#45;&gt;Node10 -->
<g id="edge40" class="edge">
<title>Node23&#45;&gt;Node10</title>
<path fill="none" stroke="midnightblue" d="M584.89,-67.41C639.28,-60.07 725.55,-55.62 792,-85.92 793.19,-86.46 839.26,-136.25 864.45,-163.52"/>
<polygon fill="midnightblue" stroke="midnightblue" points="862.16,-166.21 871.52,-171.18 867.31,-161.46 862.16,-166.21"/>
</g>
<!-- Node23&#45;&gt;Node17 -->
<g id="edge38" class="edge">
<title>Node23&#45;&gt;Node17</title>
<path fill="none" stroke="midnightblue" d="M595.9,-86.44C612.67,-88.95 630.88,-91.69 648.03,-94.26"/>
<polygon fill="midnightblue" stroke="midnightblue" points="647.57,-97.73 657.98,-95.76 648.61,-90.81 647.57,-97.73"/>
</g>
<!-- Node23&#45;&gt;Node18 -->
<g id="edge39" class="edge">
<title>Node23&#45;&gt;Node18</title>
<path fill="none" stroke="midnightblue" d="M562.67,-67.33C611.68,-53.26 711.23,-30.95 792,-52.92 817.77,-59.93 843.7,-76.55 860.77,-89.13"/>
<polygon fill="midnightblue" stroke="midnightblue" points="858.76,-92 868.84,-95.27 863,-86.43 858.76,-92"/>
</g>
<!-- Node24 -->
<g id="node24" class="node">
<title>Node24</title>
<g id="a_node24"><a xlink:href="group__as__iic__reg__funcs.html#gace5813084165559c81fe11db6b628b5e" target="_top" xlink:title=" ">
<polygon fill="none" stroke="black" points="978.5,-173.42 978.5,-192.42 1085.5,-192.42 1085.5,-173.42 978.5,-173.42"/>
<text text-anchor="middle" x="1032" y="-180.42" font-family="Helvetica,sans-Serif" font-size="10.00">as_iic_get_rx_byte</text>
</a>
</g>
</g>
<!-- Node23&#45;&gt;Node24 -->
<g id="edge36" class="edge">
<title>Node23&#45;&gt;Node24</title>
<path fill="none" stroke="midnightblue" d="M555,-67.4C577.92,-58.27 614.71,-45.12 648,-39.92 711.23,-30.04 728.77,-30 792,-39.92 857.96,-50.26 885.02,-41.65 935,-85.92 963.58,-111.23 942.36,-138.67 971,-163.92 972.94,-165.62 975.03,-167.18 977.23,-168.59"/>
<polygon fill="midnightblue" stroke="midnightblue" points="975.68,-171.74 986.15,-173.38 979,-165.57 975.68,-171.74"/>
</g>
<!-- Node24&#45;&gt;Node6 -->
<g id="edge37" class="edge">
<title>Node24&#45;&gt;Node6</title>
<path fill="none" stroke="midnightblue" d="M1072.99,-192.45C1079.94,-194.97 1086.89,-198.09 1093,-201.92 1112.72,-214.27 1109.43,-227.34 1129,-239.92 1132.14,-241.94 1135.52,-243.76 1139,-245.42"/>
<polygon fill="midnightblue" stroke="midnightblue" points="1137.81,-248.71 1148.39,-249.39 1140.54,-242.27 1137.81,-248.71"/>
</g>
</g>
</svg>
