<?xml version="1.0" encoding="UTF-8" standalone="no"?>
<!DOCTYPE svg PUBLIC "-//W3C//DTD SVG 1.1//EN"
 "http://www.w3.org/Graphics/SVG/1.1/DTD/svg11.dtd">
<!-- Generated by graphviz version 2.43.0 (0)
 -->
<!-- Title: as_iic_reset_hw_state Pages: 1 -->
<svg width="1489pt" height="359pt"
 viewBox="0.00 0.00 1489.00 359.38" xmlns="http://www.w3.org/2000/svg" xmlns:xlink="http://www.w3.org/1999/xlink">
<g id="graph0" class="graph" transform="scale(1 1) rotate(0) translate(4 355.38)">
<title>as_iic_reset_hw_state</title>
<!-- Node1 -->
<g id="node1" class="node">
<title>Node1</title>
<g id="a_node1"><a xlink:title=" ">
<polygon fill="#bfbfbf" stroke="black" points="1357,-171.5 1357,-190.5 1481,-190.5 1481,-171.5 1357,-171.5"/>
<text text-anchor="middle" x="1419" y="-178.5" font-family="Helvetica,sans-Serif" font-size="10.00">as_iic_reset_hw_state</text>
</a>
</g>
</g>
<!-- Node2 -->
<g id="node2" class="node">
<title>Node2</title>
<g id="a_node2"><a xlink:href="group__as__iic__helpers.html#ga1662a1a0b29536bf7d74ede3f73598be" target="_top" xlink:title=" ">
<polygon fill="none" stroke="black" points="979.5,-266.5 979.5,-285.5 1110.5,-285.5 1110.5,-266.5 979.5,-266.5"/>
<text text-anchor="middle" x="1045" y="-273.5" font-family="Helvetica,sans-Serif" font-size="10.00">as_iic_read_transaction</text>
</a>
</g>
</g>
<!-- Node1&#45;&gt;Node2 -->
<g id="edge1" class="edge">
<title>Node1&#45;&gt;Node2</title>
<path fill="none" stroke="midnightblue" d="M1392.82,-195.62C1373.7,-206.11 1346.44,-219.79 1321,-228 1250.89,-250.61 1167.09,-263.29 1110.57,-269.87"/>
<polygon fill="midnightblue" stroke="midnightblue" points="1394.74,-198.55 1401.76,-190.61 1391.33,-192.44 1394.74,-198.55"/>
</g>
<!-- Node5 -->
<g id="node5" class="node">
<title>Node5</title>
<g id="a_node5"><a xlink:href="group__as__iic__bitsetters.html#ga9ad6dd95074bf372355b39032fce62b7" target="_top" xlink:title=" ">
<polygon fill="none" stroke="black" points="1203.5,-19.5 1203.5,-38.5 1277.5,-38.5 1277.5,-19.5 1203.5,-19.5"/>
<text text-anchor="middle" x="1240.5" y="-26.5" font-family="Helvetica,sans-Serif" font-size="10.00">as_iic_reset</text>
</a>
</g>
</g>
<!-- Node1&#45;&gt;Node5 -->
<g id="edge4" class="edge">
<title>Node1&#45;&gt;Node5</title>
<path fill="none" stroke="midnightblue" d="M1406.25,-162.92C1389.67,-138.54 1357.34,-94.96 1321,-67 1305.12,-54.78 1284.67,-45.12 1268.49,-38.59"/>
<polygon fill="midnightblue" stroke="midnightblue" points="1403.35,-164.88 1411.81,-171.25 1409.17,-160.99 1403.35,-164.88"/>
</g>
<!-- Node7 -->
<g id="node7" class="node">
<title>Node7</title>
<g id="a_node7"><a xlink:href="group__as__iic__helpers.html#ga53e6050a2c66be89ac23084fd9de9c23" target="_top" xlink:title=" ">
<polygon fill="none" stroke="black" points="979,-190.5 979,-209.5 1111,-209.5 1111,-190.5 979,-190.5"/>
<text text-anchor="middle" x="1045" y="-197.5" font-family="Helvetica,sans-Serif" font-size="10.00">as_iic_start_transaction</text>
</a>
</g>
</g>
<!-- Node1&#45;&gt;Node7 -->
<g id="edge6" class="edge">
<title>Node1&#45;&gt;Node7</title>
<path fill="none" stroke="midnightblue" d="M1346.78,-184.64C1278.74,-188.11 1177.05,-193.31 1111.11,-196.67"/>
<polygon fill="midnightblue" stroke="midnightblue" points="1347.18,-188.12 1356.99,-184.12 1346.82,-181.13 1347.18,-188.12"/>
</g>
<!-- Node26 -->
<g id="node26" class="node">
<title>Node26</title>
<g id="a_node26"><a xlink:href="group__as__iic__helpers.html#gaa8ce9ac10b8c2ca9b614110ca5cbeff5" target="_top" xlink:title=" ">
<polygon fill="none" stroke="black" points="966,-228.5 966,-247.5 1124,-247.5 1124,-228.5 966,-228.5"/>
<text text-anchor="middle" x="1045" y="-235.5" font-family="Helvetica,sans-Serif" font-size="10.00">as_iic_stop_read_transaction</text>
</a>
</g>
</g>
<!-- Node1&#45;&gt;Node26 -->
<g id="edge33" class="edge">
<title>Node1&#45;&gt;Node26</title>
<path fill="none" stroke="midnightblue" d="M1370,-192.85C1354.43,-196.43 1337.04,-200.17 1321,-203 1255,-214.66 1179.44,-223.99 1124.24,-230.07"/>
<polygon fill="midnightblue" stroke="midnightblue" points="1370.99,-196.21 1379.93,-190.53 1369.4,-189.4 1370.99,-196.21"/>
</g>
<!-- Node27 -->
<g id="node27" class="node">
<title>Node27</title>
<g id="a_node27"><a xlink:href="group__as__iic__helpers.html#ga67cc002a1b20c75dc26f7b328ca5ddc9" target="_top" xlink:title=" ">
<polygon fill="none" stroke="black" points="1160,-152.5 1160,-171.5 1321,-171.5 1321,-152.5 1160,-152.5"/>
<text text-anchor="middle" x="1240.5" y="-159.5" font-family="Helvetica,sans-Serif" font-size="10.00">as_iic_stop_write_transaction</text>
</a>
</g>
</g>
<!-- Node1&#45;&gt;Node27 -->
<g id="edge37" class="edge">
<title>Node1&#45;&gt;Node27</title>
<path fill="none" stroke="midnightblue" d="M1346.69,-173.32C1338.32,-172.42 1329.75,-171.5 1321.28,-170.59"/>
<polygon fill="midnightblue" stroke="midnightblue" points="1346.45,-176.82 1356.76,-174.41 1347.2,-169.86 1346.45,-176.82"/>
</g>
<!-- Node28 -->
<g id="node28" class="node">
<title>Node28</title>
<g id="a_node28"><a xlink:href="group__as__iic__helpers.html#gad5e0aa9a71f8f0f65e1fbded8134b11f" target="_top" xlink:title=" ">
<polygon fill="none" stroke="black" points="1173.5,-76.5 1173.5,-95.5 1307.5,-95.5 1307.5,-76.5 1173.5,-76.5"/>
<text text-anchor="middle" x="1240.5" y="-83.5" font-family="Helvetica,sans-Serif" font-size="10.00">as_iic_write_transaction</text>
</a>
</g>
</g>
<!-- Node1&#45;&gt;Node28 -->
<g id="edge42" class="edge">
<title>Node1&#45;&gt;Node28</title>
<path fill="none" stroke="midnightblue" d="M1391.01,-166.47C1354.44,-146.79 1290.16,-112.19 1259.18,-95.52"/>
<polygon fill="midnightblue" stroke="midnightblue" points="1389.64,-169.71 1400.1,-171.37 1392.96,-163.55 1389.64,-169.71"/>
</g>
<!-- Node3 -->
<g id="node3" class="node">
<title>Node3</title>
<g id="a_node3"><a xlink:href="group__as__iic__user.html#ga76b6915b73f14abb8a200df4eefde6f3" target="_top" xlink:title=" ">
<polygon fill="none" stroke="black" points="817,-266.5 817,-285.5 915,-285.5 915,-266.5 817,-266.5"/>
<text text-anchor="middle" x="866" y="-273.5" font-family="Helvetica,sans-Serif" font-size="10.00">as_iic_get_bytes</text>
</a>
</g>
</g>
<!-- Node2&#45;&gt;Node3 -->
<g id="edge2" class="edge">
<title>Node2&#45;&gt;Node3</title>
<path fill="none" stroke="midnightblue" d="M969.27,-276C950.95,-276 931.81,-276 915.12,-276"/>
<polygon fill="midnightblue" stroke="midnightblue" points="969.35,-279.5 979.35,-276 969.35,-272.5 969.35,-279.5"/>
</g>
<!-- Node4 -->
<g id="node4" class="node">
<title>Node4</title>
<g id="a_node4"><a xlink:href="group__as__iic__user.html#ga987a7c89e5d900225a42f04583e0cfe7" target="_top" xlink:title=" ">
<polygon fill="none" stroke="black" points="531,-257.5 531,-276.5 629,-276.5 629,-257.5 531,-257.5"/>
<text text-anchor="middle" x="580" y="-264.5" font-family="Helvetica,sans-Serif" font-size="10.00">as_iic_read_regs</text>
</a>
</g>
</g>
<!-- Node2&#45;&gt;Node4 -->
<g id="edge3" class="edge">
<title>Node2&#45;&gt;Node4</title>
<path fill="none" stroke="midnightblue" d="M1019.72,-290.8C997.34,-303.51 962.74,-320.89 930,-328 814.91,-353.01 777.02,-364.38 665,-328 633.8,-317.87 604.51,-291.31 590.18,-276.8"/>
<polygon fill="midnightblue" stroke="midnightblue" points="1021.64,-293.73 1028.52,-285.68 1018.12,-287.68 1021.64,-293.73"/>
</g>
<!-- Node6 -->
<g id="node6" class="node">
<title>Node6</title>
<g id="a_node6"><a xlink:href="group__as__iic__user.html#ga77245afd24eadd52f5845e23d82e777a" target="_top" xlink:title=" ">
<polygon fill="none" stroke="black" points="1012.5,-0.5 1012.5,-19.5 1077.5,-19.5 1077.5,-0.5 1012.5,-0.5"/>
<text text-anchor="middle" x="1045" y="-7.5" font-family="Helvetica,sans-Serif" font-size="10.00">as_iic_init</text>
</a>
</g>
</g>
<!-- Node5&#45;&gt;Node6 -->
<g id="edge5" class="edge">
<title>Node5&#45;&gt;Node6</title>
<path fill="none" stroke="midnightblue" d="M1192.94,-24.43C1157.29,-20.93 1109.06,-16.19 1077.75,-13.12"/>
<polygon fill="midnightblue" stroke="midnightblue" points="1192.81,-27.93 1203.1,-25.43 1193.49,-20.97 1192.81,-27.93"/>
</g>
<!-- Node7&#45;&gt;Node3 -->
<g id="edge19" class="edge">
<title>Node7&#45;&gt;Node3</title>
<path fill="none" stroke="midnightblue" d="M977.79,-213.22C973.7,-214.92 969.73,-216.84 966,-219 945.88,-230.67 949.8,-244.79 930,-257 923.78,-260.84 916.73,-263.94 909.66,-266.45"/>
<polygon fill="midnightblue" stroke="midnightblue" points="979.34,-216.37 987.52,-209.63 976.92,-209.81 979.34,-216.37"/>
</g>
<!-- Node7&#45;&gt;Node4 -->
<g id="edge20" class="edge">
<title>Node7&#45;&gt;Node4</title>
<path fill="none" stroke="midnightblue" d="M968.48,-203.29C920.6,-206.03 857.45,-210.84 802,-219 736.35,-228.66 661.07,-246.48 617.48,-257.48"/>
<polygon fill="midnightblue" stroke="midnightblue" points="968.98,-206.77 978.77,-202.72 968.59,-199.78 968.98,-206.77"/>
</g>
<!-- Node8 -->
<g id="node8" class="node">
<title>Node8</title>
<g id="a_node8"><a xlink:href="group__as__iic__user.html#ga30385c0c387c1629188745edf9c824c1" target="_top" xlink:title=" ">
<polygon fill="none" stroke="black" points="806.5,-228.5 806.5,-247.5 925.5,-247.5 925.5,-228.5 806.5,-228.5"/>
<text text-anchor="middle" x="866" y="-235.5" font-family="Helvetica,sans-Serif" font-size="10.00">as_iic_get_byte_mod</text>
</a>
</g>
</g>
<!-- Node7&#45;&gt;Node8 -->
<g id="edge7" class="edge">
<title>Node7&#45;&gt;Node8</title>
<path fill="none" stroke="midnightblue" d="M989.26,-211.75C964.23,-217.13 934.97,-223.41 911.34,-228.48"/>
<polygon fill="midnightblue" stroke="midnightblue" points="990.29,-215.11 999.34,-209.59 988.82,-208.27 990.29,-215.11"/>
</g>
<!-- Node18 -->
<g id="node18" class="node">
<title>Node18</title>
<g id="a_node18"><a xlink:href="group__as__iic__user.html#ga5c5233652491e648a88292ae73b49ace" target="_top" xlink:title=" ">
<polygon fill="none" stroke="black" points="806,-114.5 806,-133.5 926,-133.5 926,-114.5 806,-114.5"/>
<text text-anchor="middle" x="866" y="-121.5" font-family="Helvetica,sans-Serif" font-size="10.00">as_iic_set_regpointer</text>
</a>
</g>
</g>
<!-- Node7&#45;&gt;Node18 -->
<g id="edge21" class="edge">
<title>Node7&#45;&gt;Node18</title>
<path fill="none" stroke="midnightblue" d="M1018.04,-185.42C995.3,-173.04 961.13,-155.37 930,-143 921.19,-139.5 911.47,-136.27 902.35,-133.51"/>
<polygon fill="midnightblue" stroke="midnightblue" points="1016.59,-188.62 1027.04,-190.37 1019.96,-182.48 1016.59,-188.62"/>
</g>
<!-- Node19 -->
<g id="node19" class="node">
<title>Node19</title>
<g id="a_node19"><a xlink:href="group__as__iic__user.html#ga08fcff0dba9d6b4898291746d2206408" target="_top" xlink:title=" ">
<polygon fill="none" stroke="black" points="802,-152.5 802,-171.5 930,-171.5 930,-152.5 802,-152.5"/>
<text text-anchor="middle" x="866" y="-159.5" font-family="Helvetica,sans-Serif" font-size="10.00">as_iic_write_byte_mod</text>
</a>
</g>
</g>
<!-- Node7&#45;&gt;Node19 -->
<g id="edge22" class="edge">
<title>Node7&#45;&gt;Node19</title>
<path fill="none" stroke="midnightblue" d="M989.26,-188.25C964.23,-182.87 934.97,-176.59 911.34,-171.52"/>
<polygon fill="midnightblue" stroke="midnightblue" points="988.82,-191.73 999.34,-190.41 990.29,-184.89 988.82,-191.73"/>
</g>
<!-- Node21 -->
<g id="node21" class="node">
<title>Node21</title>
<g id="a_node21"><a xlink:href="group__as__iic__user.html#ga2a4e5ee19e84cc95de665e29b92ccda1" target="_top" xlink:title=" ">
<polygon fill="none" stroke="black" points="812.5,-76.5 812.5,-95.5 919.5,-95.5 919.5,-76.5 812.5,-76.5"/>
<text text-anchor="middle" x="866" y="-83.5" font-family="Helvetica,sans-Serif" font-size="10.00">as_iic_write_bytes</text>
</a>
</g>
</g>
<!-- Node7&#45;&gt;Node21 -->
<g id="edge26" class="edge">
<title>Node7&#45;&gt;Node21</title>
<path fill="none" stroke="midnightblue" d="M1028.16,-183.15C1007.47,-162.05 969.22,-126.12 930,-105 922.96,-101.21 915.06,-98.07 907.29,-95.51"/>
<polygon fill="midnightblue" stroke="midnightblue" points="1025.74,-185.68 1035.2,-190.44 1030.78,-180.82 1025.74,-185.68"/>
</g>
<!-- Node9 -->
<g id="node9" class="node">
<title>Node9</title>
<g id="a_node9"><a xlink:href="group__as__iic__user.html#gacf3e3b915e1f15ed8bdc60ab4c129996" target="_top" xlink:title=" ">
<polygon fill="none" stroke="black" points="669.5,-181.5 669.5,-200.5 761.5,-200.5 761.5,-181.5 669.5,-181.5"/>
<text text-anchor="middle" x="715.5" y="-188.5" font-family="Helvetica,sans-Serif" font-size="10.00">as_iic_get_byte</text>
</a>
</g>
</g>
<!-- Node8&#45;&gt;Node9 -->
<g id="edge8" class="edge">
<title>Node8&#45;&gt;Node9</title>
<path fill="none" stroke="midnightblue" d="M825.17,-225.39C800.53,-217.59 769.38,-207.74 746.76,-200.58"/>
<polygon fill="midnightblue" stroke="midnightblue" points="824.36,-228.81 834.95,-228.49 826.47,-222.13 824.36,-228.81"/>
</g>
<!-- Node10 -->
<g id="node10" class="node">
<title>Node10</title>
<g id="a_node10"><a xlink:href="group__as__iic__user.html#ga812d9e16a61b39777a5fbffc7eccbc8d" target="_top" xlink:title=" ">
<polygon fill="none" stroke="black" points="534,-171.5 534,-190.5 626,-190.5 626,-171.5 534,-171.5"/>
<text text-anchor="middle" x="580" y="-178.5" font-family="Helvetica,sans-Serif" font-size="10.00">as_iic_read_reg</text>
</a>
</g>
</g>
<!-- Node9&#45;&gt;Node10 -->
<g id="edge9" class="edge">
<title>Node9&#45;&gt;Node10</title>
<path fill="none" stroke="midnightblue" d="M659.32,-186.87C648.28,-186.04 636.8,-185.18 626.15,-184.38"/>
<polygon fill="midnightblue" stroke="midnightblue" points="659.07,-190.36 669.3,-187.61 659.59,-183.38 659.07,-190.36"/>
</g>
<!-- Node11 -->
<g id="node11" class="node">
<title>Node11</title>
<g id="a_node11"><a xlink:href="as__sensor__ov7670_8c.html#acb25afaea3e81940c50e327c45921f08" target="_top" xlink:title=" ">
<polygon fill="none" stroke="black" points="384,-171.5 384,-190.5 495,-190.5 495,-171.5 384,-171.5"/>
<text text-anchor="middle" x="439.5" y="-178.5" font-family="Helvetica,sans-Serif" font-size="10.00">ov7670_iic_reg_get</text>
</a>
</g>
</g>
<!-- Node10&#45;&gt;Node11 -->
<g id="edge10" class="edge">
<title>Node10&#45;&gt;Node11</title>
<path fill="none" stroke="midnightblue" d="M523.63,-181C514.24,-181 504.5,-181 495.13,-181"/>
<polygon fill="midnightblue" stroke="midnightblue" points="523.65,-184.5 533.65,-181 523.65,-177.5 523.65,-184.5"/>
</g>
<!-- Node12 -->
<g id="node12" class="node">
<title>Node12</title>
<g id="a_node12"><a xlink:href="group__as__sensor__ov7670.html#ga55b52e2499f96009197bfe90af6c7a41" target="_top" xlink:title=" ">
<polygon fill="none" stroke="black" points="164,-133.5 164,-152.5 348,-152.5 348,-133.5 164,-133.5"/>
<text text-anchor="middle" x="256" y="-140.5" font-family="Helvetica,sans-Serif" font-size="10.00">as_sensor_ov7670_exposure_auto</text>
</a>
</g>
</g>
<!-- Node11&#45;&gt;Node12 -->
<g id="edge11" class="edge">
<title>Node11&#45;&gt;Node12</title>
<path fill="none" stroke="midnightblue" d="M382.95,-169.33C371.4,-166.9 359.3,-164.37 348,-162 333.31,-158.92 317.28,-155.58 302.83,-152.56"/>
<polygon fill="midnightblue" stroke="midnightblue" points="382.42,-172.79 392.93,-171.42 383.86,-165.94 382.42,-172.79"/>
</g>
<!-- Node14 -->
<g id="node14" class="node">
<title>Node14</title>
<g id="a_node14"><a xlink:href="group__as__sensor__ov7670.html#gae1b977db2733432317fee8f0497eb67a" target="_top" xlink:title=" ">
<polygon fill="none" stroke="black" points="167,-209.5 167,-228.5 345,-228.5 345,-209.5 167,-209.5"/>
<text text-anchor="middle" x="256" y="-216.5" font-family="Helvetica,sans-Serif" font-size="10.00">as_sensor_ov7670_exposure_get</text>
</a>
</g>
</g>
<!-- Node11&#45;&gt;Node14 -->
<g id="edge13" class="edge">
<title>Node11&#45;&gt;Node14</title>
<path fill="none" stroke="midnightblue" d="M382.95,-192.67C371.4,-195.1 359.3,-197.63 348,-200 333.31,-203.08 317.28,-206.42 302.83,-209.44"/>
<polygon fill="midnightblue" stroke="midnightblue" points="383.86,-196.06 392.93,-190.58 382.42,-189.21 383.86,-196.06"/>
</g>
<!-- Node15 -->
<g id="node15" class="node">
<title>Node15</title>
<g id="a_node15"><a xlink:href="group__as__sensor__ov7670.html#gadd11863e70497418c9d31c922945cbec" target="_top" xlink:title=" ">
<polygon fill="none" stroke="black" points="176,-95.5 176,-114.5 336,-114.5 336,-95.5 176,-95.5"/>
<text text-anchor="middle" x="256" y="-102.5" font-family="Helvetica,sans-Serif" font-size="10.00">as_sensor_ov7670_gain_auto</text>
</a>
</g>
</g>
<!-- Node11&#45;&gt;Node15 -->
<g id="edge14" class="edge">
<title>Node11&#45;&gt;Node15</title>
<path fill="none" stroke="midnightblue" d="M418.04,-165.11C400.41,-152.18 373.8,-134.42 348,-124 338.42,-120.13 327.95,-117.01 317.62,-114.5"/>
<polygon fill="midnightblue" stroke="midnightblue" points="416.29,-168.17 426.39,-171.37 420.48,-162.57 416.29,-168.17"/>
</g>
<!-- Node16 -->
<g id="node16" class="node">
<title>Node16</title>
<g id="a_node16"><a xlink:href="group__as__sensor__ov7670.html#ga75ee4d998c858b26adae16b8140e8637" target="_top" xlink:title=" ">
<polygon fill="none" stroke="black" points="179,-247.5 179,-266.5 333,-266.5 333,-247.5 179,-247.5"/>
<text text-anchor="middle" x="256" y="-254.5" font-family="Helvetica,sans-Serif" font-size="10.00">as_sensor_ov7670_gain_get</text>
</a>
</g>
</g>
<!-- Node11&#45;&gt;Node16 -->
<g id="edge16" class="edge">
<title>Node11&#45;&gt;Node16</title>
<path fill="none" stroke="midnightblue" d="M418.04,-196.89C400.41,-209.82 373.8,-227.58 348,-238 338.42,-241.87 327.95,-244.99 317.62,-247.5"/>
<polygon fill="midnightblue" stroke="midnightblue" points="420.48,-199.43 426.39,-190.63 416.29,-193.83 420.48,-199.43"/>
</g>
<!-- Node17 -->
<g id="node17" class="node">
<title>Node17</title>
<g id="a_node17"><a xlink:href="as__sensor__ov7670_8c.html#ab5de18dc5dd74817505126a51487b8b1" target="_top" xlink:title=" ">
<polygon fill="none" stroke="black" points="181.5,-171.5 181.5,-190.5 330.5,-190.5 330.5,-171.5 181.5,-171.5"/>
<text text-anchor="middle" x="256" y="-178.5" font-family="Helvetica,sans-Serif" font-size="10.00">as_sensor_ov7670_identify</text>
</a>
</g>
</g>
<!-- Node11&#45;&gt;Node17 -->
<g id="edge17" class="edge">
<title>Node11&#45;&gt;Node17</title>
<path fill="none" stroke="midnightblue" d="M373.16,-181C359.33,-181 344.64,-181 330.53,-181"/>
<polygon fill="midnightblue" stroke="midnightblue" points="373.55,-184.5 383.55,-181 373.55,-177.5 373.55,-184.5"/>
</g>
<!-- Node13 -->
<g id="node13" class="node">
<title>Node13</title>
<g id="a_node13"><a xlink:href="group__as__sensor__ov7670.html#ga419a3339eac0f6abb8eafe24e468ae49" target="_top" xlink:title=" ">
<polygon fill="none" stroke="black" points="0,-133.5 0,-152.5 128,-152.5 128,-133.5 0,-133.5"/>
<text text-anchor="middle" x="64" y="-140.5" font-family="Helvetica,sans-Serif" font-size="10.00">as_sensor_ov7670_init</text>
</a>
</g>
</g>
<!-- Node12&#45;&gt;Node13 -->
<g id="edge12" class="edge">
<title>Node12&#45;&gt;Node13</title>
<path fill="none" stroke="midnightblue" d="M153.69,-143C145,-143 136.39,-143 128.14,-143"/>
<polygon fill="midnightblue" stroke="midnightblue" points="153.9,-146.5 163.9,-143 153.9,-139.5 153.9,-146.5"/>
</g>
<!-- Node15&#45;&gt;Node13 -->
<g id="edge15" class="edge">
<title>Node15&#45;&gt;Node13</title>
<path fill="none" stroke="midnightblue" d="M196.95,-116.61C169.93,-122.01 138.18,-128.36 112.6,-133.48"/>
<polygon fill="midnightblue" stroke="midnightblue" points="197.94,-119.98 207.05,-114.59 196.56,-113.12 197.94,-119.98"/>
</g>
<!-- Node17&#45;&gt;Node13 -->
<g id="edge18" class="edge">
<title>Node17&#45;&gt;Node13</title>
<path fill="none" stroke="midnightblue" d="M196.95,-169.39C169.93,-163.99 138.18,-157.64 112.6,-152.52"/>
<polygon fill="midnightblue" stroke="midnightblue" points="196.56,-172.88 207.05,-171.41 197.94,-166.02 196.56,-172.88"/>
</g>
<!-- Node20 -->
<g id="node20" class="node">
<title>Node20</title>
<g id="a_node20"><a xlink:href="group__as__iic__user.html#ga35cd65c29b1f4abd1ca87ca51605e5cc" target="_top" xlink:title=" ">
<polygon fill="none" stroke="black" points="665,-143.5 665,-162.5 766,-162.5 766,-143.5 665,-143.5"/>
<text text-anchor="middle" x="715.5" y="-150.5" font-family="Helvetica,sans-Serif" font-size="10.00">as_iic_write_byte</text>
</a>
</g>
</g>
<!-- Node19&#45;&gt;Node20 -->
<g id="edge23" class="edge">
<title>Node19&#45;&gt;Node20</title>
<path fill="none" stroke="midnightblue" d="M791.55,-157.55C782.97,-157.03 774.38,-156.51 766.23,-156.01"/>
<polygon fill="midnightblue" stroke="midnightblue" points="791.4,-161.05 801.59,-158.16 791.82,-154.06 791.4,-161.05"/>
</g>
<!-- Node20&#45;&gt;Node4 -->
<g id="edge25" class="edge">
<title>Node20&#45;&gt;Node4</title>
<path fill="none" stroke="midnightblue" d="M673.57,-166.86C670.58,-168.43 667.68,-170.14 665,-172 629.91,-196.35 599.76,-238.35 587.22,-257.27"/>
<polygon fill="midnightblue" stroke="midnightblue" points="675.14,-169.99 682.72,-162.59 672.18,-163.64 675.14,-169.99"/>
</g>
<!-- Node20&#45;&gt;Node10 -->
<g id="edge24" class="edge">
<title>Node20&#45;&gt;Node10</title>
<path fill="none" stroke="midnightblue" d="M659.08,-164.62C648.19,-166.91 636.88,-169.28 626.36,-171.49"/>
<polygon fill="midnightblue" stroke="midnightblue" points="659.86,-168.04 668.93,-162.56 658.42,-161.19 659.86,-168.04"/>
</g>
<!-- Node22 -->
<g id="node22" class="node">
<title>Node22</title>
<g id="a_node22"><a xlink:href="group__as__iic__user.html#ga5ae8936ee892843eda5df7b9a418bd52" target="_top" xlink:title=" ">
<polygon fill="none" stroke="black" points="668,-76.5 668,-95.5 763,-95.5 763,-76.5 668,-76.5"/>
<text text-anchor="middle" x="715.5" y="-83.5" font-family="Helvetica,sans-Serif" font-size="10.00">as_iic_write_reg</text>
</a>
</g>
</g>
<!-- Node21&#45;&gt;Node22 -->
<g id="edge27" class="edge">
<title>Node21&#45;&gt;Node22</title>
<path fill="none" stroke="midnightblue" d="M801.93,-86C788.94,-86 775.47,-86 763.18,-86"/>
<polygon fill="midnightblue" stroke="midnightblue" points="802.23,-89.5 812.23,-86 802.23,-82.5 802.23,-89.5"/>
</g>
<!-- Node23 -->
<g id="node23" class="node">
<title>Node23</title>
<g id="a_node23"><a xlink:href="as__sensor__ov7670_8c.html#ad5b49e677d2124f73482764e3270bb42" target="_top" xlink:title=" ">
<polygon fill="none" stroke="black" points="384.5,-76.5 384.5,-95.5 494.5,-95.5 494.5,-76.5 384.5,-76.5"/>
<text text-anchor="middle" x="439.5" y="-83.5" font-family="Helvetica,sans-Serif" font-size="10.00">ov7670_iic_reg_set</text>
</a>
</g>
</g>
<!-- Node22&#45;&gt;Node23 -->
<g id="edge28" class="edge">
<title>Node22&#45;&gt;Node23</title>
<path fill="none" stroke="midnightblue" d="M657.51,-86C609.63,-86 541.68,-86 494.62,-86"/>
<polygon fill="midnightblue" stroke="midnightblue" points="657.71,-89.5 667.71,-86 657.71,-82.5 657.71,-89.5"/>
</g>
<!-- Node23&#45;&gt;Node12 -->
<g id="edge29" class="edge">
<title>Node23&#45;&gt;Node12</title>
<path fill="none" stroke="midnightblue" d="M409.66,-99.78C392.14,-107.73 369.14,-117.42 348,-124 336.29,-127.64 323.51,-130.8 311.33,-133.43"/>
<polygon fill="midnightblue" stroke="midnightblue" points="411.16,-102.94 418.78,-95.58 408.23,-96.58 411.16,-102.94"/>
</g>
<!-- Node23&#45;&gt;Node15 -->
<g id="edge31" class="edge">
<title>Node23&#45;&gt;Node15</title>
<path fill="none" stroke="midnightblue" d="M373.97,-92.76C361.76,-94.03 348.85,-95.38 336.25,-96.7"/>
<polygon fill="midnightblue" stroke="midnightblue" points="374.46,-96.22 384.04,-91.7 373.73,-89.26 374.46,-96.22"/>
</g>
<!-- Node24 -->
<g id="node24" class="node">
<title>Node24</title>
<g id="a_node24"><a xlink:href="group__as__sensor__ov7670.html#ga673b948f323ea0a23896c7dc4b0e05e3" target="_top" xlink:title=" ">
<polygon fill="none" stroke="black" points="167.5,-57.5 167.5,-76.5 344.5,-76.5 344.5,-57.5 167.5,-57.5"/>
<text text-anchor="middle" x="256" y="-64.5" font-family="Helvetica,sans-Serif" font-size="10.00">as_sensor_ov7670_exposure_set</text>
</a>
</g>
</g>
<!-- Node23&#45;&gt;Node24 -->
<g id="edge30" class="edge">
<title>Node23&#45;&gt;Node24</title>
<path fill="none" stroke="midnightblue" d="M373.93,-79.24C364.45,-78.25 354.54,-77.21 344.68,-76.18"/>
<polygon fill="midnightblue" stroke="midnightblue" points="373.73,-82.74 384.04,-80.3 374.46,-75.78 373.73,-82.74"/>
</g>
<!-- Node25 -->
<g id="node25" class="node">
<title>Node25</title>
<g id="a_node25"><a xlink:href="group__as__sensor__ov7670.html#ga45e866e9958d1c7d8e0b0dd206f01a9e" target="_top" xlink:title=" ">
<polygon fill="none" stroke="black" points="179.5,-19.5 179.5,-38.5 332.5,-38.5 332.5,-19.5 179.5,-19.5"/>
<text text-anchor="middle" x="256" y="-26.5" font-family="Helvetica,sans-Serif" font-size="10.00">as_sensor_ov7670_gain_set</text>
</a>
</g>
</g>
<!-- Node23&#45;&gt;Node25 -->
<g id="edge32" class="edge">
<title>Node23&#45;&gt;Node25</title>
<path fill="none" stroke="midnightblue" d="M409.66,-72.22C392.14,-64.27 369.14,-54.58 348,-48 336.29,-44.36 323.51,-41.2 311.33,-38.57"/>
<polygon fill="midnightblue" stroke="midnightblue" points="408.23,-75.42 418.78,-76.42 411.16,-69.06 408.23,-75.42"/>
</g>
<!-- Node26&#45;&gt;Node3 -->
<g id="edge35" class="edge">
<title>Node26&#45;&gt;Node3</title>
<path fill="none" stroke="midnightblue" d="M989.26,-249.75C964.23,-255.13 934.97,-261.41 911.34,-266.48"/>
<polygon fill="midnightblue" stroke="midnightblue" points="990.29,-253.11 999.34,-247.59 988.82,-246.27 990.29,-253.11"/>
</g>
<!-- Node26&#45;&gt;Node4 -->
<g id="edge36" class="edge">
<title>Node26&#45;&gt;Node4</title>
<path fill="none" stroke="midnightblue" d="M977.79,-251.22C973.7,-252.92 969.73,-254.84 966,-257 945.88,-268.67 951.37,-285.81 930,-295 816.93,-343.64 664.37,-297.81 605.54,-276.53"/>
<polygon fill="midnightblue" stroke="midnightblue" points="979.34,-254.37 987.52,-247.63 976.92,-247.81 979.34,-254.37"/>
</g>
<!-- Node26&#45;&gt;Node8 -->
<g id="edge34" class="edge">
<title>Node26&#45;&gt;Node8</title>
<path fill="none" stroke="midnightblue" d="M955.67,-238C945.47,-238 935.26,-238 925.59,-238"/>
<polygon fill="midnightblue" stroke="midnightblue" points="955.85,-241.5 965.85,-238 955.85,-234.5 955.85,-241.5"/>
</g>
<!-- Node27&#45;&gt;Node7 -->
<g id="edge39" class="edge">
<title>Node27&#45;&gt;Node7</title>
<path fill="none" stroke="midnightblue" d="M1180.75,-173.54C1153.15,-178.96 1120.65,-185.34 1094.48,-190.48"/>
<polygon fill="midnightblue" stroke="midnightblue" points="1181.53,-176.95 1190.67,-171.59 1180.18,-170.08 1181.53,-176.95"/>
</g>
<!-- Node27&#45;&gt;Node18 -->
<g id="edge38" class="edge">
<title>Node27&#45;&gt;Node18</title>
<path fill="none" stroke="midnightblue" d="M1149.54,-152.82C1080.14,-145.74 986.16,-136.16 926.04,-130.02"/>
<polygon fill="midnightblue" stroke="midnightblue" points="1149.29,-156.32 1159.59,-153.85 1150,-149.35 1149.29,-156.32"/>
</g>
<!-- Node27&#45;&gt;Node19 -->
<g id="edge40" class="edge">
<title>Node27&#45;&gt;Node19</title>
<path fill="none" stroke="midnightblue" d="M1149.34,-162C1081.52,-162 990.29,-162 930.13,-162"/>
<polygon fill="midnightblue" stroke="midnightblue" points="1149.59,-165.5 1159.59,-162 1149.59,-158.5 1149.59,-165.5"/>
</g>
<!-- Node27&#45;&gt;Node21 -->
<g id="edge41" class="edge">
<title>Node27&#45;&gt;Node21</title>
<path fill="none" stroke="midnightblue" d="M1198.67,-149.61C1176.68,-143.21 1149.01,-135.59 1124,-130 1053.98,-114.35 972.15,-101.21 919.97,-93.47"/>
<polygon fill="midnightblue" stroke="midnightblue" points="1197.76,-152.99 1208.34,-152.45 1199.73,-146.27 1197.76,-152.99"/>
</g>
<!-- Node28&#45;&gt;Node21 -->
<g id="edge43" class="edge">
<title>Node28&#45;&gt;Node21</title>
<path fill="none" stroke="midnightblue" d="M1163.42,-75.46C1150.3,-74.02 1136.77,-72.77 1124,-72 1053.91,-67.77 1036.05,-67.07 966,-72 950.85,-73.07 934.49,-75.04 919.52,-77.17"/>
<polygon fill="midnightblue" stroke="midnightblue" points="1163.02,-78.94 1173.36,-76.59 1163.82,-71.98 1163.02,-78.94"/>
</g>
</g>
</svg>
