<?xml version="1.0" encoding="UTF-8" standalone="no"?>
<!DOCTYPE svg PUBLIC "-//W3C//DTD SVG 1.1//EN"
 "http://www.w3.org/Graphics/SVG/1.1/DTD/svg11.dtd">
<!-- Generated by graphviz version 2.43.0 (0)
 -->
<!-- Title: as_picam_run Pages: 1 -->
<svg width="514pt" height="85pt"
 viewBox="0.00 0.00 514.00 85.00" xmlns="http://www.w3.org/2000/svg" xmlns:xlink="http://www.w3.org/1999/xlink">
<g id="graph0" class="graph" transform="scale(1 1) rotate(0) translate(4 81)">
<title>as_picam_run</title>
<!-- Node1 -->
<g id="node1" class="node">
<title>Node1</title>
<g id="a_node1"><a xlink:title=" ">
<polygon fill="#bfbfbf" stroke="black" points="0,-38.5 0,-57.5 84,-57.5 84,-38.5 0,-38.5"/>
<text text-anchor="middle" x="42" y="-45.5" font-family="Helvetica,sans-Serif" font-size="10.00">as_picam_run</text>
</a>
</g>
</g>
<!-- Node2 -->
<g id="node2" class="node">
<title>Node2</title>
<g id="a_node2"><a xlink:href="group__asterics__support.html#gaa7520f5b717e163da743500adb2eb0b9" target="_top" xlink:title=" ">
<polygon fill="none" stroke="black" points="135.5,-57.5 135.5,-76.5 226.5,-76.5 226.5,-57.5 135.5,-57.5"/>
<text text-anchor="middle" x="181" y="-64.5" font-family="Helvetica,sans-Serif" font-size="10.00">as_module_reg</text>
</a>
</g>
</g>
<!-- Node1&#45;&gt;Node2 -->
<g id="edge1" class="edge">
<title>Node1&#45;&gt;Node2</title>
<path fill="none" stroke="midnightblue" d="M84.1,-53.7C96.92,-55.48 111.26,-57.47 124.87,-59.35"/>
<polygon fill="midnightblue" stroke="midnightblue" points="124.71,-62.87 135.1,-60.77 125.68,-55.93 124.71,-62.87"/>
</g>
<!-- Node3 -->
<g id="node3" class="node">
<title>Node3</title>
<g id="a_node3"><a xlink:href="group__asterics__support.html#ga0ccb0610d764a95bda989e35fba59490" target="_top" xlink:title=" ">
<polygon fill="none" stroke="black" points="120,-19.5 120,-38.5 242,-38.5 242,-19.5 120,-19.5"/>
<text text-anchor="middle" x="181" y="-26.5" font-family="Helvetica,sans-Serif" font-size="10.00">as_reg_write_masked</text>
</a>
</g>
</g>
<!-- Node1&#45;&gt;Node3 -->
<g id="edge2" class="edge">
<title>Node1&#45;&gt;Node3</title>
<path fill="none" stroke="midnightblue" d="M84.1,-42.3C92.29,-41.16 101.11,-39.94 109.96,-38.71"/>
<polygon fill="midnightblue" stroke="midnightblue" points="110.51,-42.17 119.93,-37.33 109.54,-35.24 110.51,-42.17"/>
</g>
<!-- Node4 -->
<g id="node4" class="node">
<title>Node4</title>
<g id="a_node4"><a xlink:href="group__asterics__support.html#ga8e5c2bfd2e4498d10289377bd94cef07" target="_top" xlink:title=" ">
<polygon fill="none" stroke="black" points="279.5,-38.5 279.5,-57.5 355.5,-57.5 355.5,-38.5 279.5,-38.5"/>
<text text-anchor="middle" x="317.5" y="-45.5" font-family="Helvetica,sans-Serif" font-size="10.00">as_reg_read</text>
</a>
</g>
</g>
<!-- Node3&#45;&gt;Node4 -->
<g id="edge3" class="edge">
<title>Node3&#45;&gt;Node4</title>
<path fill="none" stroke="midnightblue" d="M242.17,-37.5C251.22,-38.78 260.44,-40.08 269.17,-41.31"/>
<polygon fill="midnightblue" stroke="midnightblue" points="268.76,-44.79 279.15,-42.72 269.74,-37.86 268.76,-44.79"/>
</g>
<!-- Node6 -->
<g id="node6" class="node">
<title>Node6</title>
<g id="a_node6"><a xlink:href="group__asterics__support.html#ga6345b997e24a6cd5f9143cef27629d49" target="_top" xlink:title=" ">
<polygon fill="none" stroke="black" points="278,-0.5 278,-19.5 357,-19.5 357,-0.5 278,-0.5"/>
<text text-anchor="middle" x="317.5" y="-7.5" font-family="Helvetica,sans-Serif" font-size="10.00">as_reg_write</text>
</a>
</g>
</g>
<!-- Node3&#45;&gt;Node6 -->
<g id="edge5" class="edge">
<title>Node3&#45;&gt;Node6</title>
<path fill="none" stroke="midnightblue" d="M242.17,-20.5C250.82,-19.28 259.63,-18.03 268.02,-16.85"/>
<polygon fill="midnightblue" stroke="midnightblue" points="268.59,-20.3 278,-15.44 267.61,-13.37 268.59,-20.3"/>
</g>
<!-- Node5 -->
<g id="node5" class="node">
<title>Node5</title>
<g id="a_node5"><a xlink:href="group__asterics__support.html#ga4c6d688b840a6e2edc9bc0b8ed961677" target="_top" xlink:title=" ">
<polygon fill="none" stroke="black" points="399.5,-38.5 399.5,-57.5 499.5,-57.5 499.5,-38.5 399.5,-38.5"/>
<text text-anchor="middle" x="449.5" y="-45.5" font-family="Helvetica,sans-Serif" font-size="10.00">as_reg_to_uint32</text>
</a>
</g>
</g>
<!-- Node4&#45;&gt;Node5 -->
<g id="edge4" class="edge">
<title>Node4&#45;&gt;Node5</title>
<path fill="none" stroke="midnightblue" d="M355.75,-48C366.09,-48 377.59,-48 388.86,-48"/>
<polygon fill="midnightblue" stroke="midnightblue" points="389.12,-51.5 399.12,-48 389.12,-44.5 389.12,-51.5"/>
</g>
<!-- Node7 -->
<g id="node7" class="node">
<title>Node7</title>
<g id="a_node7"><a xlink:href="group__asterics__support.html#gab651cc2c035ce61b354578434e59f822" target="_top" xlink:title=" ">
<polygon fill="none" stroke="black" points="393,-0.5 393,-19.5 506,-19.5 506,-0.5 393,-0.5"/>
<text text-anchor="middle" x="449.5" y="-7.5" font-family="Helvetica,sans-Serif" font-size="10.00">as_reg_from_uint32</text>
</a>
</g>
</g>
<!-- Node6&#45;&gt;Node7 -->
<g id="edge6" class="edge">
<title>Node6&#45;&gt;Node7</title>
<path fill="none" stroke="midnightblue" d="M357.15,-10C365.22,-10 373.94,-10 382.68,-10"/>
<polygon fill="midnightblue" stroke="midnightblue" points="382.92,-13.5 392.92,-10 382.92,-6.5 382.92,-13.5"/>
</g>
</g>
</svg>
