<?xml version="1.0" encoding="UTF-8" standalone="no"?>
<!DOCTYPE svg PUBLIC "-//W3C//DTD SVG 1.1//EN"
 "http://www.w3.org/Graphics/SVG/1.1/DTD/svg11.dtd">
<!-- Generated by graphviz version 2.43.0 (0)
 -->
<!-- Title: driver_as_mmap_read Pages: 1 -->
<svg width="1110pt" height="708pt"
 viewBox="0.00 0.00 1110.00 707.50" xmlns="http://www.w3.org/2000/svg" xmlns:xlink="http://www.w3.org/1999/xlink">
<g id="graph0" class="graph" transform="scale(1 1) rotate(0) translate(4 703.5)">
<title>driver_as_mmap_read</title>
<!-- Node1 -->
<g id="node1" class="node">
<title>Node1</title>
<g id="a_node1"><a xlink:title=" ">
<polygon fill="#bfbfbf" stroke="black" points="0,-455.5 0,-474.5 125,-474.5 125,-455.5 0,-455.5"/>
<text text-anchor="middle" x="62.5" y="-462.5" font-family="Helvetica,sans-Serif" font-size="10.00">driver_as_mmap_read</text>
</a>
</g>
</g>
<!-- Node2 -->
<g id="node2" class="node">
<title>Node2</title>
<g id="a_node2"><a xlink:href="group__as__buffer.html#ga4be2b60d2ac888f473e52f39c9492368" target="_top" xlink:title=" ">
<polygon fill="none" stroke="black" points="367,-579.5 367,-598.5 498,-598.5 498,-579.5 367,-579.5"/>
<text text-anchor="middle" x="432.5" y="-586.5" font-family="Helvetica,sans-Serif" font-size="10.00">as_buffer_update_state</text>
</a>
</g>
</g>
<!-- Node1&#45;&gt;Node2 -->
<g id="edge1" class="edge">
<title>Node1&#45;&gt;Node2</title>
<path fill="none" stroke="midnightblue" d="M77.76,-474.65C96.24,-486.76 129.8,-507.48 161,-520 181.46,-528.21 309.47,-559.6 381.82,-577.08"/>
<polygon fill="midnightblue" stroke="midnightblue" points="381.1,-580.51 391.64,-579.45 382.74,-573.7 381.1,-580.51"/>
</g>
<!-- Node12 -->
<g id="node12" class="node">
<title>Node12</title>
<g id="a_node12"><a xlink:href="group__mmap__file__ops.html#ga93a1477871ee8b3e8071b60442a0ceb3" target="_top" xlink:title=" ">
<polygon fill="none" stroke="black" points="178,-344.5 178,-363.5 314,-363.5 314,-344.5 178,-344.5"/>
<text text-anchor="middle" x="246" y="-351.5" font-family="Helvetica,sans-Serif" font-size="10.00">as_mmap_start_transfer</text>
</a>
</g>
</g>
<!-- Node1&#45;&gt;Node12 -->
<g id="edge15" class="edge">
<title>Node1&#45;&gt;Node12</title>
<path fill="none" stroke="midnightblue" d="M79.29,-455.34C111.01,-435.94 182.68,-392.11 220.53,-368.97"/>
<polygon fill="midnightblue" stroke="midnightblue" points="222.67,-371.76 229.38,-363.55 219.02,-365.79 222.67,-371.76"/>
</g>
<!-- Node28 -->
<g id="node28" class="node">
<title>Node28</title>
<g id="a_node28"><a xlink:href="group__mmap__file__ops.html#gac0196baed6a0a2e62c8c9c3aa2680af4" target="_top" xlink:title=" ">
<polygon fill="none" stroke="black" points="161,-575.5 161,-594.5 331,-594.5 331,-575.5 161,-575.5"/>
<text text-anchor="middle" x="246" y="-582.5" font-family="Helvetica,sans-Serif" font-size="10.00">as_mmap_wait_for_completion</text>
</a>
</g>
</g>
<!-- Node1&#45;&gt;Node28 -->
<g id="edge51" class="edge">
<title>Node1&#45;&gt;Node28</title>
<path fill="none" stroke="midnightblue" d="M70.7,-474.64C85.49,-493.76 121.26,-536.67 161,-560 169.56,-565.03 179.22,-569.11 188.85,-572.42"/>
<polygon fill="midnightblue" stroke="midnightblue" points="187.85,-575.77 198.44,-575.46 189.96,-569.1 187.85,-575.77"/>
</g>
<!-- Node29 -->
<g id="node29" class="node">
<title>Node29</title>
<g id="a_node29"><a xlink:href="group__asterics__support.html#gad294e0c5530bd6fb800a2394179070e1" target="_top" xlink:title=" ">
<polygon fill="none" stroke="black" points="201,-306.5 201,-325.5 291,-325.5 291,-306.5 201,-306.5"/>
<text text-anchor="middle" x="246" y="-313.5" font-family="Helvetica,sans-Serif" font-size="10.00">as_mutex_lock</text>
</a>
</g>
</g>
<!-- Node1&#45;&gt;Node29 -->
<g id="edge53" class="edge">
<title>Node1&#45;&gt;Node29</title>
<path fill="none" stroke="midnightblue" d="M67.79,-455.32C79.14,-430.89 112.46,-366.45 161,-335 169.94,-329.21 180.41,-325.17 190.86,-322.36"/>
<polygon fill="midnightblue" stroke="midnightblue" points="191.89,-325.71 200.83,-320.02 190.29,-318.89 191.89,-325.71"/>
</g>
<!-- Node30 -->
<g id="node30" class="node">
<title>Node30</title>
<g id="a_node30"><a xlink:href="group__asterics__support.html#ga07e09e825f2608339f6213edb9d0c8b3" target="_top" xlink:title=" ">
<polygon fill="none" stroke="black" points="195,-268.5 195,-287.5 297,-287.5 297,-268.5 195,-268.5"/>
<text text-anchor="middle" x="246" y="-275.5" font-family="Helvetica,sans-Serif" font-size="10.00">as_mutex_unlock</text>
</a>
</g>
</g>
<!-- Node1&#45;&gt;Node30 -->
<g id="edge54" class="edge">
<title>Node1&#45;&gt;Node30</title>
<path fill="none" stroke="midnightblue" d="M66.16,-455.16C74.61,-425.94 103.66,-339.13 161,-297 168.09,-291.79 176.36,-287.97 184.89,-285.18"/>
<polygon fill="midnightblue" stroke="midnightblue" points="185.91,-288.53 194.59,-282.44 184.01,-281.79 185.91,-288.53"/>
</g>
<!-- Node31 -->
<g id="node31" class="node">
<title>Node31</title>
<g id="a_node31"><a xlink:href="group__as__reader__writer.html#gab3f2465225201507d51787478ac5955a" target="_top" xlink:title="Checks if another operation is queued.">
<polygon fill="none" stroke="black" points="551,-450 551,-480 663,-480 663,-450 551,-450"/>
<text text-anchor="start" x="559" y="-468" font-family="Helvetica,sans-Serif" font-size="10.00">as_reader_writer_is</text>
<text text-anchor="middle" x="607" y="-457" font-family="Helvetica,sans-Serif" font-size="10.00">_pending_go</text>
</a>
</g>
</g>
<!-- Node1&#45;&gt;Node31 -->
<g id="edge55" class="edge">
<title>Node1&#45;&gt;Node31</title>
<path fill="none" stroke="midnightblue" d="M125.2,-465C228.41,-465 435.09,-465 540.67,-465"/>
<polygon fill="midnightblue" stroke="midnightblue" points="540.87,-468.5 550.87,-465 540.87,-461.5 540.87,-468.5"/>
</g>
<!-- Node32 -->
<g id="node32" class="node">
<title>Node32</title>
<g id="a_node32"><a xlink:href="group__as__reader__writer.html#ga8ffa108d758f416593d508d00fdbfed6" target="_top" xlink:title="Checks if module has dropped data.">
<polygon fill="none" stroke="black" points="541.5,-499.5 541.5,-518.5 672.5,-518.5 672.5,-499.5 541.5,-499.5"/>
<text text-anchor="middle" x="607" y="-506.5" font-family="Helvetica,sans-Serif" font-size="10.00">as_writer_is_sync_error</text>
</a>
</g>
</g>
<!-- Node1&#45;&gt;Node32 -->
<g id="edge58" class="edge">
<title>Node1&#45;&gt;Node32</title>
<path fill="none" stroke="midnightblue" d="M124.78,-474.52C136.77,-476.18 149.27,-477.76 161,-479 290.81,-492.68 442.62,-501.35 531.17,-505.68"/>
<polygon fill="midnightblue" stroke="midnightblue" points="531.23,-509.19 541.39,-506.17 531.57,-502.19 531.23,-509.19"/>
</g>
<!-- Node3 -->
<g id="node3" class="node">
<title>Node3</title>
<g id="a_node3"><a xlink:href="group__as__reader__writer.html#gaaea10b48e35a224a5870cd3322ffbec2" target="_top" xlink:title="Returns the next address on which the hardware will perform a write operation.">
<polygon fill="none" stroke="black" points="547.5,-576 547.5,-606 666.5,-606 666.5,-576 547.5,-576"/>
<text text-anchor="start" x="555.5" y="-594" font-family="Helvetica,sans-Serif" font-size="10.00">as_reader_writer_get</text>
<text text-anchor="middle" x="607" y="-583" font-family="Helvetica,sans-Serif" font-size="10.00">_cur_hw_addr</text>
</a>
</g>
</g>
<!-- Node2&#45;&gt;Node3 -->
<g id="edge2" class="edge">
<title>Node2&#45;&gt;Node3</title>
<path fill="none" stroke="midnightblue" d="M498.22,-589.75C510.97,-589.9 524.39,-590.05 537.27,-590.2"/>
<polygon fill="midnightblue" stroke="midnightblue" points="537.41,-593.7 547.45,-590.32 537.49,-586.71 537.41,-593.7"/>
</g>
<!-- Node7 -->
<g id="node7" class="node">
<title>Node7</title>
<g id="a_node7"><a xlink:href="group__as__reader__writer.html#ga0e0a5b7e0dd6a14cb0f4251d00a783e8" target="_top" xlink:title="Checks if module is busy.">
<polygon fill="none" stroke="black" points="537,-537.5 537,-556.5 677,-556.5 677,-537.5 537,-537.5"/>
<text text-anchor="middle" x="607" y="-544.5" font-family="Helvetica,sans-Serif" font-size="10.00">as_reader_writer_is_busy</text>
</a>
</g>
</g>
<!-- Node2&#45;&gt;Node7 -->
<g id="edge6" class="edge">
<title>Node2&#45;&gt;Node7</title>
<path fill="none" stroke="midnightblue" d="M472.64,-579.47C497.59,-573.4 530.12,-565.48 556.8,-558.98"/>
<polygon fill="midnightblue" stroke="midnightblue" points="557.83,-562.33 566.71,-556.57 556.17,-555.53 557.83,-562.33"/>
</g>
<!-- Node9 -->
<g id="node9" class="node">
<title>Node9</title>
<g id="a_node9"><a xlink:href="as__cache_8c.html#ae76087a19400fcaebb8397a8a1ee828b" target="_top" xlink:title="Unmap DMA address at end of transfer.">
<polygon fill="none" stroke="black" points="556.5,-674.5 556.5,-693.5 657.5,-693.5 657.5,-674.5 556.5,-674.5"/>
<text text-anchor="middle" x="607" y="-681.5" font-family="Helvetica,sans-Serif" font-size="10.00">as_unmap_single</text>
</a>
</g>
</g>
<!-- Node2&#45;&gt;Node9 -->
<g id="edge10" class="edge">
<title>Node2&#45;&gt;Node9</title>
<path fill="none" stroke="midnightblue" d="M443.5,-598.5C460.67,-614.32 497.45,-646.07 534,-664 539.66,-666.77 545.76,-669.22 551.93,-671.35"/>
<polygon fill="midnightblue" stroke="midnightblue" points="551.05,-674.74 561.64,-674.46 553.18,-668.08 551.05,-674.74"/>
</g>
<!-- Node11 -->
<g id="node11" class="node">
<title>Node11</title>
<g id="a_node11"><a xlink:href="group__as__reader__writer.html#ga1ed314dbb9e93fbcbab70d4db197e3b6" target="_top" xlink:title="Returns the first address after the last successfully written unit.">
<polygon fill="none" stroke="black" points="534,-625 534,-655 680,-655 680,-625 534,-625"/>
<text text-anchor="start" x="542" y="-643" font-family="Helvetica,sans-Serif" font-size="10.00">as_writer_get_last</text>
<text text-anchor="middle" x="607" y="-632" font-family="Helvetica,sans-Serif" font-size="10.00">_data_unit_complete_addr</text>
</a>
</g>
</g>
<!-- Node2&#45;&gt;Node11 -->
<g id="edge12" class="edge">
<title>Node2&#45;&gt;Node11</title>
<path fill="none" stroke="midnightblue" d="M465.95,-598.59C488.28,-605.2 518.64,-614.17 545.38,-622.08"/>
<polygon fill="midnightblue" stroke="midnightblue" points="544.47,-625.46 555.05,-624.94 546.45,-618.74 544.47,-625.46"/>
</g>
<!-- Node4 -->
<g id="node4" class="node">
<title>Node4</title>
<g id="a_node4"><a xlink:href="group__asterics__support.html#gaa7520f5b717e163da743500adb2eb0b9" target="_top" xlink:title=" ">
<polygon fill="none" stroke="black" points="731.5,-366.5 731.5,-385.5 822.5,-385.5 822.5,-366.5 731.5,-366.5"/>
<text text-anchor="middle" x="777" y="-373.5" font-family="Helvetica,sans-Serif" font-size="10.00">as_module_reg</text>
</a>
</g>
</g>
<!-- Node3&#45;&gt;Node4 -->
<g id="edge3" class="edge">
<title>Node3&#45;&gt;Node4</title>
<path fill="none" stroke="midnightblue" d="M665.33,-575.85C670.61,-573.09 675.62,-569.83 680,-566 687.13,-559.77 744.38,-441.72 766.92,-394.9"/>
<polygon fill="midnightblue" stroke="midnightblue" points="770.11,-396.35 771.29,-385.82 763.8,-393.31 770.11,-396.35"/>
</g>
<!-- Node5 -->
<g id="node5" class="node">
<title>Node5</title>
<g id="a_node5"><a xlink:href="group__asterics__support.html#ga8e5c2bfd2e4498d10289377bd94cef07" target="_top" xlink:title=" ">
<polygon fill="none" stroke="black" points="875.5,-540.5 875.5,-559.5 951.5,-559.5 951.5,-540.5 875.5,-540.5"/>
<text text-anchor="middle" x="913.5" y="-547.5" font-family="Helvetica,sans-Serif" font-size="10.00">as_reg_read</text>
</a>
</g>
</g>
<!-- Node3&#45;&gt;Node5 -->
<g id="edge4" class="edge">
<title>Node3&#45;&gt;Node5</title>
<path fill="none" stroke="midnightblue" d="M666.71,-583.09C724.39,-575.33 811.31,-563.62 864.84,-556.42"/>
<polygon fill="midnightblue" stroke="midnightblue" points="865.64,-559.84 875.09,-555.04 864.71,-552.9 865.64,-559.84"/>
</g>
<!-- Node6 -->
<g id="node6" class="node">
<title>Node6</title>
<g id="a_node6"><a xlink:href="group__asterics__support.html#ga4c6d688b840a6e2edc9bc0b8ed961677" target="_top" xlink:title=" ">
<polygon fill="none" stroke="black" points="995.5,-540.5 995.5,-559.5 1095.5,-559.5 1095.5,-540.5 995.5,-540.5"/>
<text text-anchor="middle" x="1045.5" y="-547.5" font-family="Helvetica,sans-Serif" font-size="10.00">as_reg_to_uint32</text>
</a>
</g>
</g>
<!-- Node5&#45;&gt;Node6 -->
<g id="edge5" class="edge">
<title>Node5&#45;&gt;Node6</title>
<path fill="none" stroke="midnightblue" d="M951.75,-550C962.09,-550 973.59,-550 984.86,-550"/>
<polygon fill="midnightblue" stroke="midnightblue" points="985.12,-553.5 995.12,-550 985.12,-546.5 985.12,-553.5"/>
</g>
<!-- Node7&#45;&gt;Node4 -->
<g id="edge7" class="edge">
<title>Node7&#45;&gt;Node4</title>
<path fill="none" stroke="midnightblue" d="M662.34,-537.46C668.63,-535 674.68,-531.9 680,-528 727.26,-493.34 756.84,-427.75 769.25,-395.25"/>
<polygon fill="midnightblue" stroke="midnightblue" points="772.64,-396.18 772.8,-385.59 766.06,-393.77 772.64,-396.18"/>
</g>
<!-- Node8 -->
<g id="node8" class="node">
<title>Node8</title>
<g id="a_node8"><a xlink:href="group__asterics__support.html#ga36a2ed59c59831bee59daaae3cb6cb35" target="_top" xlink:title=" ">
<polygon fill="none" stroke="black" points="717.5,-510.5 717.5,-529.5 836.5,-529.5 836.5,-510.5 717.5,-510.5"/>
<text text-anchor="middle" x="777" y="-517.5" font-family="Helvetica,sans-Serif" font-size="10.00">as_reg_read_masked</text>
</a>
</g>
</g>
<!-- Node7&#45;&gt;Node8 -->
<g id="edge8" class="edge">
<title>Node7&#45;&gt;Node8</title>
<path fill="none" stroke="midnightblue" d="M667.23,-537.48C680.18,-535.4 693.99,-533.18 707.27,-531.05"/>
<polygon fill="midnightblue" stroke="midnightblue" points="707.99,-534.48 717.3,-529.43 706.88,-527.56 707.99,-534.48"/>
</g>
<!-- Node8&#45;&gt;Node5 -->
<g id="edge9" class="edge">
<title>Node8&#45;&gt;Node5</title>
<path fill="none" stroke="midnightblue" d="M820.93,-529.57C835.17,-532.75 851.09,-536.3 865.62,-539.54"/>
<polygon fill="midnightblue" stroke="midnightblue" points="864.89,-542.97 875.41,-541.73 866.41,-536.13 864.89,-542.97"/>
</g>
<!-- Node10 -->
<g id="node10" class="node">
<title>Node10</title>
<g id="a_node10"><a xlink:href="group__asterics__support.html#ga85ce164597e47f4aaee22c873e899d4b" target="_top" xlink:title=" ">
<polygon fill="none" stroke="black" points="716,-669 716,-699 838,-699 838,-669 716,-669"/>
<text text-anchor="start" x="724" y="-687" font-family="Helvetica,sans-Serif" font-size="10.00">as_dcache_invalidate</text>
<text text-anchor="middle" x="777" y="-676" font-family="Helvetica,sans-Serif" font-size="10.00">_range</text>
</a>
</g>
</g>
<!-- Node9&#45;&gt;Node10 -->
<g id="edge11" class="edge">
<title>Node9&#45;&gt;Node10</title>
<path fill="none" stroke="midnightblue" d="M657.95,-684C672.87,-684 689.51,-684 705.48,-684"/>
<polygon fill="midnightblue" stroke="midnightblue" points="705.86,-687.5 715.86,-684 705.86,-680.5 705.86,-687.5"/>
</g>
<!-- Node11&#45;&gt;Node4 -->
<g id="edge13" class="edge">
<title>Node11&#45;&gt;Node4</title>
<path fill="none" stroke="midnightblue" d="M667.05,-624.95C671.8,-622.18 676.22,-618.89 680,-615 717.03,-576.9 696.45,-550.41 716,-501 731.34,-462.22 753.4,-418.68 766.05,-394.58"/>
<polygon fill="midnightblue" stroke="midnightblue" points="769.27,-395.99 770.86,-385.52 763.08,-392.72 769.27,-395.99"/>
</g>
<!-- Node11&#45;&gt;Node5 -->
<g id="edge14" class="edge">
<title>Node11&#45;&gt;Node5</title>
<path fill="none" stroke="midnightblue" d="M680.16,-625.5C725.95,-615.48 786.14,-600.76 838,-583 853.51,-577.69 870.24,-570.42 883.91,-564.06"/>
<polygon fill="midnightblue" stroke="midnightblue" points="885.73,-567.08 893.26,-559.63 882.73,-560.75 885.73,-567.08"/>
</g>
<!-- Node13 -->
<g id="node13" class="node">
<title>Node13</title>
<g id="a_node13"><a xlink:href="as__cache_8c.html#a82dda14c005c5bd0028e5f25fad2923c" target="_top" xlink:title="Map virtual kernel address for DMA.">
<polygon fill="none" stroke="black" points="388,-57.5 388,-76.5 477,-76.5 477,-57.5 388,-57.5"/>
<text text-anchor="middle" x="432.5" y="-64.5" font-family="Helvetica,sans-Serif" font-size="10.00">as_map_single</text>
</a>
</g>
</g>
<!-- Node12&#45;&gt;Node13 -->
<g id="edge16" class="edge">
<title>Node12&#45;&gt;Node13</title>
<path fill="none" stroke="midnightblue" d="M314.39,-346.79C320.61,-343.88 326.32,-340.04 331,-335 404.69,-255.63 300.49,-179.47 367,-94 371.01,-88.84 376.19,-84.66 381.86,-81.28"/>
<polygon fill="midnightblue" stroke="midnightblue" points="383.76,-84.23 391.09,-76.58 380.59,-78 383.76,-84.23"/>
</g>
<!-- Node15 -->
<g id="node15" class="node">
<title>Node15</title>
<g id="a_node15"><a xlink:href="group__as__reader__writer.html#ga5c0bd52e53c8e68de80b1712c12d9a4a" target="_top" xlink:title="Initializes the hardware module with values provided by config.">
<polygon fill="none" stroke="black" points="373,-191.5 373,-210.5 492,-210.5 492,-191.5 373,-191.5"/>
<text text-anchor="middle" x="432.5" y="-198.5" font-family="Helvetica,sans-Serif" font-size="10.00">as_reader_writer_init</text>
</a>
</g>
</g>
<!-- Node12&#45;&gt;Node15 -->
<g id="edge18" class="edge">
<title>Node12&#45;&gt;Node15</title>
<path fill="none" stroke="midnightblue" d="M312.93,-344.47C319.35,-341.99 325.5,-338.88 331,-335 355.47,-317.71 349.34,-302.21 367,-278 382.61,-256.6 402.4,-233.49 415.92,-218.23"/>
<polygon fill="midnightblue" stroke="midnightblue" points="418.66,-220.41 422.71,-210.63 413.44,-215.75 418.66,-220.41"/>
</g>
<!-- Node21 -->
<g id="node21" class="node">
<title>Node21</title>
<g id="a_node21"><a xlink:href="group__as__reader__writer.html#ga43d2f73d7d42dd5704160d4ddacfaa1e" target="_top" xlink:title="Sets the start address of the first section to the given value.">
<polygon fill="none" stroke="black" points="547.5,-274 547.5,-304 666.5,-304 666.5,-274 547.5,-274"/>
<text text-anchor="start" x="555.5" y="-292" font-family="Helvetica,sans-Serif" font-size="10.00">as_reader_writer_set</text>
<text text-anchor="middle" x="607" y="-281" font-family="Helvetica,sans-Serif" font-size="10.00">_section_addr</text>
</a>
</g>
</g>
<!-- Node12&#45;&gt;Node21 -->
<g id="edge43" class="edge">
<title>Node12&#45;&gt;Node21</title>
<path fill="none" stroke="midnightblue" d="M299.59,-344.48C362.51,-333.09 468.05,-313.98 537.35,-301.43"/>
<polygon fill="midnightblue" stroke="midnightblue" points="538.09,-304.85 547.3,-299.63 536.84,-297.96 538.09,-304.85"/>
</g>
<!-- Node24 -->
<g id="node24" class="node">
<title>Node24</title>
<g id="a_node24"><a xlink:href="group__as__reader__writer.html#ga06436c5cb6a63439f2e4b7c14c71fb83" target="_top" xlink:title="Sets the size of a single section in bytes.">
<polygon fill="none" stroke="black" points="547.5,-39 547.5,-69 666.5,-69 666.5,-39 547.5,-39"/>
<text text-anchor="start" x="555.5" y="-57" font-family="Helvetica,sans-Serif" font-size="10.00">as_reader_writer_set</text>
<text text-anchor="middle" x="607" y="-46" font-family="Helvetica,sans-Serif" font-size="10.00">_section_size</text>
</a>
</g>
</g>
<!-- Node12&#45;&gt;Node24 -->
<g id="edge44" class="edge">
<title>Node12&#45;&gt;Node24</title>
<path fill="none" stroke="midnightblue" d="M314.39,-346.21C320.53,-343.4 326.22,-339.74 331,-335 380.61,-285.82 326.27,-238.76 367,-182 408.16,-124.64 483.14,-90.55 538.17,-72.16"/>
<polygon fill="midnightblue" stroke="midnightblue" points="539.43,-75.43 547.86,-69.02 537.26,-68.78 539.43,-75.43"/>
</g>
<!-- Node25 -->
<g id="node25" class="node">
<title>Node25</title>
<g id="a_node25"><a xlink:href="group__as__reader__writer.html#ga38bb160b6e30eb5fce6df2e4b4894fad" target="_top" xlink:title="Starts operation of hardware module.">
<polygon fill="none" stroke="black" points="539,-411.5 539,-430.5 675,-430.5 675,-411.5 539,-411.5"/>
<text text-anchor="middle" x="607" y="-418.5" font-family="Helvetica,sans-Serif" font-size="10.00">as_reader_writer_set_go</text>
</a>
</g>
</g>
<!-- Node12&#45;&gt;Node25 -->
<g id="edge40" class="edge">
<title>Node12&#45;&gt;Node25</title>
<path fill="none" stroke="midnightblue" d="M288.84,-363.53C311.85,-368.66 340.95,-374.95 367,-380 423.72,-391 488.31,-401.99 536.03,-409.82"/>
<polygon fill="midnightblue" stroke="midnightblue" points="535.52,-413.28 545.95,-411.44 536.65,-406.37 535.52,-413.28"/>
</g>
<!-- Node26 -->
<g id="node26" class="node">
<title>Node26</title>
<g id="a_node26"><a xlink:href="group__as__reader__writer.html#ga2c3650318b12edaf3f4473fed557cc74" target="_top" xlink:title="Disable module if no operation is queued.">
<polygon fill="none" stroke="black" points="546,-362 546,-392 668,-392 668,-362 546,-362"/>
<text text-anchor="start" x="554" y="-380" font-family="Helvetica,sans-Serif" font-size="10.00">as_writer_set_disable</text>
<text text-anchor="middle" x="607" y="-369" font-family="Helvetica,sans-Serif" font-size="10.00">_on_no_go</text>
</a>
</g>
</g>
<!-- Node12&#45;&gt;Node26 -->
<g id="edge45" class="edge">
<title>Node12&#45;&gt;Node26</title>
<path fill="none" stroke="midnightblue" d="M314.1,-358.3C377.29,-362.35 471.57,-368.39 535.76,-372.5"/>
<polygon fill="midnightblue" stroke="midnightblue" points="535.59,-376 545.79,-373.14 536.04,-369.01 535.59,-376"/>
</g>
<!-- Node27 -->
<g id="node27" class="node">
<title>Node27</title>
<g id="a_node27"><a xlink:href="group__as__reader__writer.html#ga1ef22dbd33d87de51113837dd9123c6f" target="_top" xlink:title="Enable module input port.">
<polygon fill="none" stroke="black" points="547,-323.5 547,-342.5 667,-342.5 667,-323.5 547,-323.5"/>
<text text-anchor="middle" x="607" y="-330.5" font-family="Helvetica,sans-Serif" font-size="10.00">as_writer_set_enable</text>
</a>
</g>
</g>
<!-- Node12&#45;&gt;Node27 -->
<g id="edge48" class="edge">
<title>Node12&#45;&gt;Node27</title>
<path fill="none" stroke="midnightblue" d="M314.1,-350.07C377.67,-346.36 472.72,-340.8 536.93,-337.04"/>
<polygon fill="midnightblue" stroke="midnightblue" points="537.18,-340.53 546.96,-336.45 536.77,-333.54 537.18,-340.53"/>
</g>
<!-- Node14 -->
<g id="node14" class="node">
<title>Node14</title>
<g id="a_node14"><a xlink:href="group__asterics__support.html#ga488e796d469c62267d9547fd11f8d764" target="_top" xlink:title=" ">
<polygon fill="none" stroke="black" points="542,-0.5 542,-19.5 672,-19.5 672,-0.5 542,-0.5"/>
<text text-anchor="middle" x="607" y="-7.5" font-family="Helvetica,sans-Serif" font-size="10.00">as_dcache_flush_range</text>
</a>
</g>
</g>
<!-- Node13&#45;&gt;Node14 -->
<g id="edge17" class="edge">
<title>Node13&#45;&gt;Node14</title>
<path fill="none" stroke="midnightblue" d="M456.81,-57.4C477.03,-49.26 507.17,-37.59 534,-29 541.45,-26.62 549.39,-24.3 557.18,-22.15"/>
<polygon fill="midnightblue" stroke="midnightblue" points="558.18,-25.51 566.93,-19.52 556.36,-18.75 558.18,-25.51"/>
</g>
<!-- Node16 -->
<g id="node16" class="node">
<title>Node16</title>
<g id="a_node16"><a xlink:href="group__as__reader__writer.html#ga89e42a53f0db5cf22c8583c8e0c8a074" target="_top" xlink:title="Resets the hardware module.">
<polygon fill="none" stroke="black" points="543,-235.5 543,-254.5 671,-254.5 671,-235.5 543,-235.5"/>
<text text-anchor="middle" x="607" y="-242.5" font-family="Helvetica,sans-Serif" font-size="10.00">as_reader_writer_reset</text>
</a>
</g>
</g>
<!-- Node15&#45;&gt;Node16 -->
<g id="edge19" class="edge">
<title>Node15&#45;&gt;Node16</title>
<path fill="none" stroke="midnightblue" d="M470.93,-210.55C496.7,-217.12 531.14,-225.9 558.79,-232.96"/>
<polygon fill="midnightblue" stroke="midnightblue" points="558.09,-236.39 568.64,-235.47 559.82,-229.61 558.09,-236.39"/>
</g>
<!-- Node20 -->
<g id="node20" class="node">
<title>Node20</title>
<g id="a_node20"><a xlink:href="group__as__reader__writer.html#gae1123634d5cf61d70bcfc7a87cda08bf" target="_top" xlink:title="Sets the maximum possible burst length to be performed by the hardware module.">
<polygon fill="none" stroke="black" points="547.5,-88 547.5,-118 666.5,-118 666.5,-88 547.5,-88"/>
<text text-anchor="start" x="555.5" y="-106" font-family="Helvetica,sans-Serif" font-size="10.00">as_reader_writer_set</text>
<text text-anchor="middle" x="607" y="-95" font-family="Helvetica,sans-Serif" font-size="10.00">_max_burst_length</text>
</a>
</g>
</g>
<!-- Node15&#45;&gt;Node20 -->
<g id="edge25" class="edge">
<title>Node15&#45;&gt;Node20</title>
<path fill="none" stroke="midnightblue" d="M444.19,-191.34C461.78,-175.88 498.41,-145.45 534,-127 537.45,-125.21 541.07,-123.51 544.76,-121.91"/>
<polygon fill="midnightblue" stroke="midnightblue" points="546.11,-125.14 554.06,-118.13 543.48,-118.66 546.11,-125.14"/>
</g>
<!-- Node15&#45;&gt;Node21 -->
<g id="edge28" class="edge">
<title>Node15&#45;&gt;Node21</title>
<path fill="none" stroke="midnightblue" d="M446.6,-210.57C465.27,-223.89 500.95,-248.15 534,-264 538.58,-266.2 543.41,-268.3 548.3,-270.28"/>
<polygon fill="midnightblue" stroke="midnightblue" points="547.16,-273.59 557.75,-273.94 549.69,-267.06 547.16,-273.59"/>
</g>
<!-- Node22 -->
<g id="node22" class="node">
<title>Node22</title>
<g id="a_node22"><a xlink:href="group__as__reader__writer.html#ga4dd1a170b8e16005c286c0c0e7d8406f" target="_top" xlink:title="Sets the number of sections.">
<polygon fill="none" stroke="black" points="547.5,-186 547.5,-216 666.5,-216 666.5,-186 547.5,-186"/>
<text text-anchor="start" x="555.5" y="-204" font-family="Helvetica,sans-Serif" font-size="10.00">as_reader_writer_set</text>
<text text-anchor="middle" x="607" y="-193" font-family="Helvetica,sans-Serif" font-size="10.00">_section_count</text>
</a>
</g>
</g>
<!-- Node15&#45;&gt;Node22 -->
<g id="edge31" class="edge">
<title>Node15&#45;&gt;Node22</title>
<path fill="none" stroke="midnightblue" d="M492.38,-201C506.82,-201 522.39,-201 537.24,-201"/>
<polygon fill="midnightblue" stroke="midnightblue" points="537.38,-204.5 547.38,-201 537.38,-197.5 537.38,-204.5"/>
</g>
<!-- Node23 -->
<g id="node23" class="node">
<title>Node23</title>
<g id="a_node23"><a xlink:href="group__as__reader__writer.html#ga12f11a3d7cff5ea8bdec75dedec35bab" target="_top" xlink:title="Sets the offset in bytes between the start addresses of two subsequent sections.">
<polygon fill="none" stroke="black" points="547.5,-137 547.5,-167 666.5,-167 666.5,-137 547.5,-137"/>
<text text-anchor="start" x="555.5" y="-155" font-family="Helvetica,sans-Serif" font-size="10.00">as_reader_writer_set</text>
<text text-anchor="middle" x="607" y="-144" font-family="Helvetica,sans-Serif" font-size="10.00">_section_offset</text>
</a>
</g>
</g>
<!-- Node15&#45;&gt;Node23 -->
<g id="edge34" class="edge">
<title>Node15&#45;&gt;Node23</title>
<path fill="none" stroke="midnightblue" d="M467.17,-191.44C488.82,-185.29 517.61,-177.11 543.36,-169.79"/>
<polygon fill="midnightblue" stroke="midnightblue" points="544.4,-173.14 553.06,-167.04 542.49,-166.4 544.4,-173.14"/>
</g>
<!-- Node15&#45;&gt;Node24 -->
<g id="edge37" class="edge">
<title>Node15&#45;&gt;Node24</title>
<path fill="none" stroke="midnightblue" d="M441.37,-191.36C465.01,-162.4 533.81,-78.13 534,-78 536.26,-76.44 538.63,-74.98 541.08,-73.6"/>
<polygon fill="midnightblue" stroke="midnightblue" points="542.85,-76.63 550.21,-69.01 539.7,-70.37 542.85,-76.63"/>
</g>
<!-- Node16&#45;&gt;Node4 -->
<g id="edge20" class="edge">
<title>Node16&#45;&gt;Node4</title>
<path fill="none" stroke="midnightblue" d="M665.23,-254.59C670.59,-257.06 675.64,-260.15 680,-264 712.27,-292.54 685.1,-323.98 716,-354 719.09,-357 722.62,-359.6 726.39,-361.84"/>
<polygon fill="midnightblue" stroke="midnightblue" points="725.02,-365.07 735.52,-366.47 728.18,-358.83 725.02,-365.07"/>
</g>
<!-- Node17 -->
<g id="node17" class="node">
<title>Node17</title>
<g id="a_node17"><a xlink:href="group__asterics__support.html#ga0ccb0610d764a95bda989e35fba59490" target="_top" xlink:title=" ">
<polygon fill="none" stroke="black" points="716,-325.5 716,-344.5 838,-344.5 838,-325.5 716,-325.5"/>
<text text-anchor="middle" x="777" y="-332.5" font-family="Helvetica,sans-Serif" font-size="10.00">as_reg_write_masked</text>
</a>
</g>
</g>
<!-- Node16&#45;&gt;Node17 -->
<g id="edge21" class="edge">
<title>Node16&#45;&gt;Node17</title>
<path fill="none" stroke="midnightblue" d="M654.64,-254.54C663.28,-257.07 672.07,-260.2 680,-264 709.98,-278.39 740.09,-302.63 758.39,-318.72"/>
<polygon fill="midnightblue" stroke="midnightblue" points="756.14,-321.4 765.92,-325.47 760.81,-316.19 756.14,-321.4"/>
</g>
<!-- Node17&#45;&gt;Node5 -->
<g id="edge22" class="edge">
<title>Node17&#45;&gt;Node5</title>
<path fill="none" stroke="midnightblue" d="M818.84,-344.61C825.87,-347.68 832.62,-351.71 838,-357 887.67,-405.84 904.84,-491.44 910.24,-530.08"/>
<polygon fill="midnightblue" stroke="midnightblue" points="906.83,-530.99 911.57,-540.47 913.78,-530.11 906.83,-530.99"/>
</g>
<!-- Node18 -->
<g id="node18" class="node">
<title>Node18</title>
<g id="a_node18"><a xlink:href="group__asterics__support.html#ga6345b997e24a6cd5f9143cef27629d49" target="_top" xlink:title=" ">
<polygon fill="none" stroke="black" points="874,-170.5 874,-189.5 953,-189.5 953,-170.5 874,-170.5"/>
<text text-anchor="middle" x="913.5" y="-177.5" font-family="Helvetica,sans-Serif" font-size="10.00">as_reg_write</text>
</a>
</g>
</g>
<!-- Node17&#45;&gt;Node18 -->
<g id="edge23" class="edge">
<title>Node17&#45;&gt;Node18</title>
<path fill="none" stroke="midnightblue" d="M789.13,-325.41C801.58,-314.46 822.09,-295.76 838,-278 861.74,-251.5 886.12,-218.01 900.26,-197.84"/>
<polygon fill="midnightblue" stroke="midnightblue" points="903.16,-199.79 905.99,-189.58 897.41,-195.8 903.16,-199.79"/>
</g>
<!-- Node19 -->
<g id="node19" class="node">
<title>Node19</title>
<g id="a_node19"><a xlink:href="group__asterics__support.html#gab651cc2c035ce61b354578434e59f822" target="_top" xlink:title=" ">
<polygon fill="none" stroke="black" points="989,-170.5 989,-189.5 1102,-189.5 1102,-170.5 989,-170.5"/>
<text text-anchor="middle" x="1045.5" y="-177.5" font-family="Helvetica,sans-Serif" font-size="10.00">as_reg_from_uint32</text>
</a>
</g>
</g>
<!-- Node18&#45;&gt;Node19 -->
<g id="edge24" class="edge">
<title>Node18&#45;&gt;Node19</title>
<path fill="none" stroke="midnightblue" d="M953.15,-180C961.22,-180 969.94,-180 978.68,-180"/>
<polygon fill="midnightblue" stroke="midnightblue" points="978.92,-183.5 988.92,-180 978.92,-176.5 978.92,-183.5"/>
</g>
<!-- Node20&#45;&gt;Node4 -->
<g id="edge26" class="edge">
<title>Node20&#45;&gt;Node4</title>
<path fill="none" stroke="midnightblue" d="M666.64,-116.02C671.66,-118.97 676.25,-122.58 680,-127 746.05,-204.92 651.11,-275.11 716,-354 718.25,-356.74 720.88,-359.14 723.75,-361.24"/>
<polygon fill="midnightblue" stroke="midnightblue" points="722,-364.27 732.38,-366.4 725.6,-358.26 722,-364.27"/>
</g>
<!-- Node20&#45;&gt;Node18 -->
<g id="edge27" class="edge">
<title>Node20&#45;&gt;Node18</title>
<path fill="none" stroke="midnightblue" d="M666.76,-116.69C713.32,-127.69 779.97,-143.76 838,-159 848.34,-161.72 859.45,-164.77 869.85,-167.69"/>
<polygon fill="midnightblue" stroke="midnightblue" points="868.99,-171.09 879.56,-170.44 870.89,-164.35 868.99,-171.09"/>
</g>
<!-- Node21&#45;&gt;Node4 -->
<g id="edge29" class="edge">
<title>Node21&#45;&gt;Node4</title>
<path fill="none" stroke="midnightblue" d="M661.37,-304.07C667.89,-306.9 674.27,-310.19 680,-314 699.93,-327.23 696.19,-340.6 716,-354 720.83,-357.27 726.2,-360.12 731.69,-362.59"/>
<polygon fill="midnightblue" stroke="midnightblue" points="730.39,-365.84 740.97,-366.39 733.04,-359.36 730.39,-365.84"/>
</g>
<!-- Node21&#45;&gt;Node18 -->
<g id="edge30" class="edge">
<title>Node21&#45;&gt;Node18</title>
<path fill="none" stroke="midnightblue" d="M651.82,-273.88C661.13,-270.64 670.89,-267.23 680,-264 749.91,-239.23 831.39,-209.62 876.96,-193"/>
<polygon fill="midnightblue" stroke="midnightblue" points="878.19,-196.27 886.39,-189.55 875.79,-189.7 878.19,-196.27"/>
</g>
<!-- Node22&#45;&gt;Node4 -->
<g id="edge32" class="edge">
<title>Node22&#45;&gt;Node4</title>
<path fill="none" stroke="midnightblue" d="M666.83,-215.72C671.69,-218.56 676.19,-221.95 680,-226 720.51,-269.02 675.86,-310.63 716,-354 718.6,-356.81 721.59,-359.27 724.82,-361.41"/>
<polygon fill="midnightblue" stroke="midnightblue" points="723.37,-364.6 733.82,-366.37 726.76,-358.48 723.37,-364.6"/>
</g>
<!-- Node22&#45;&gt;Node18 -->
<g id="edge33" class="edge">
<title>Node22&#45;&gt;Node18</title>
<path fill="none" stroke="midnightblue" d="M666.71,-196.95C723.9,-193.01 809.85,-187.08 863.48,-183.38"/>
<polygon fill="midnightblue" stroke="midnightblue" points="864.03,-186.85 873.76,-182.67 863.54,-179.87 864.03,-186.85"/>
</g>
<!-- Node23&#45;&gt;Node4 -->
<g id="edge35" class="edge">
<title>Node23&#45;&gt;Node4</title>
<path fill="none" stroke="midnightblue" d="M666.79,-165.38C671.72,-168.26 676.25,-171.76 680,-176 733.48,-236.45 663.42,-292.76 716,-354 718.35,-356.73 721.07,-359.13 724.02,-361.23"/>
<polygon fill="midnightblue" stroke="midnightblue" points="722.47,-364.37 732.88,-366.38 726,-358.33 722.47,-364.37"/>
</g>
<!-- Node23&#45;&gt;Node18 -->
<g id="edge36" class="edge">
<title>Node23&#45;&gt;Node18</title>
<path fill="none" stroke="midnightblue" d="M666.71,-157.4C723.9,-162.66 809.85,-170.56 863.48,-175.49"/>
<polygon fill="midnightblue" stroke="midnightblue" points="863.48,-179.01 873.76,-176.44 864.12,-172.04 863.48,-179.01"/>
</g>
<!-- Node24&#45;&gt;Node4 -->
<g id="edge38" class="edge">
<title>Node24&#45;&gt;Node4</title>
<path fill="none" stroke="midnightblue" d="M666.76,-66.91C671.77,-69.88 676.31,-73.53 680,-78 758.68,-173.46 638.74,-257.39 716,-354 718.11,-356.64 720.57,-358.97 723.27,-361.01"/>
<polygon fill="midnightblue" stroke="midnightblue" points="721.6,-364.1 731.95,-366.35 725.27,-358.13 721.6,-364.1"/>
</g>
<!-- Node24&#45;&gt;Node18 -->
<g id="edge39" class="edge">
<title>Node24&#45;&gt;Node18</title>
<path fill="none" stroke="midnightblue" d="M666.72,-66.8C714.43,-78.49 782.66,-98.22 838,-126 858.53,-136.31 879.5,-152.07 893.94,-163.91"/>
<polygon fill="midnightblue" stroke="midnightblue" points="891.72,-166.62 901.63,-170.36 896.21,-161.25 891.72,-166.62"/>
</g>
<!-- Node25&#45;&gt;Node4 -->
<g id="edge41" class="edge">
<title>Node25&#45;&gt;Node4</title>
<path fill="none" stroke="midnightblue" d="M643.63,-411.46C669.02,-404.66 703.36,-395.46 730.7,-388.13"/>
<polygon fill="midnightblue" stroke="midnightblue" points="731.67,-391.5 740.42,-385.53 729.86,-384.74 731.67,-391.5"/>
</g>
<!-- Node25&#45;&gt;Node17 -->
<g id="edge42" class="edge">
<title>Node25&#45;&gt;Node17</title>
<path fill="none" stroke="midnightblue" d="M658.15,-411.39C665.81,-408.72 673.37,-405.32 680,-401 701.16,-387.2 695.41,-371.65 716,-357 720.52,-353.78 725.56,-350.99 730.75,-348.56"/>
<polygon fill="midnightblue" stroke="midnightblue" points="732.31,-351.71 740.17,-344.6 729.6,-345.25 732.31,-351.71"/>
</g>
<!-- Node26&#45;&gt;Node4 -->
<g id="edge46" class="edge">
<title>Node26&#45;&gt;Node4</title>
<path fill="none" stroke="midnightblue" d="M668.18,-376.64C685.41,-376.54 704.1,-376.43 721,-376.33"/>
<polygon fill="midnightblue" stroke="midnightblue" points="721.29,-379.83 731.27,-376.27 721.25,-372.83 721.29,-379.83"/>
</g>
<!-- Node26&#45;&gt;Node17 -->
<g id="edge47" class="edge">
<title>Node26&#45;&gt;Node17</title>
<path fill="none" stroke="midnightblue" d="M668.18,-361.96C687.89,-357.03 709.51,-351.62 728.18,-346.95"/>
<polygon fill="midnightblue" stroke="midnightblue" points="729.08,-350.34 737.94,-344.52 727.39,-343.55 729.08,-350.34"/>
</g>
<!-- Node27&#45;&gt;Node4 -->
<g id="edge49" class="edge">
<title>Node27&#45;&gt;Node4</title>
<path fill="none" stroke="midnightblue" d="M645.28,-342.54C669.97,-348.86 702.55,-357.2 729.01,-363.97"/>
<polygon fill="midnightblue" stroke="midnightblue" points="728.26,-367.39 738.82,-366.48 730,-360.61 728.26,-367.39"/>
</g>
<!-- Node27&#45;&gt;Node17 -->
<g id="edge50" class="edge">
<title>Node27&#45;&gt;Node17</title>
<path fill="none" stroke="midnightblue" d="M667.23,-333.71C679.68,-333.85 692.92,-334.01 705.73,-334.16"/>
<polygon fill="midnightblue" stroke="midnightblue" points="705.85,-337.66 715.89,-334.28 705.93,-330.67 705.85,-337.66"/>
</g>
<!-- Node28&#45;&gt;Node2 -->
<g id="edge52" class="edge">
<title>Node28&#45;&gt;Node2</title>
<path fill="none" stroke="midnightblue" d="M331.15,-586.82C339.66,-587.01 348.27,-587.2 356.68,-587.38"/>
<polygon fill="midnightblue" stroke="midnightblue" points="356.74,-590.88 366.81,-587.6 356.89,-583.88 356.74,-590.88"/>
</g>
<!-- Node31&#45;&gt;Node4 -->
<g id="edge56" class="edge">
<title>Node31&#45;&gt;Node4</title>
<path fill="none" stroke="midnightblue" d="M656.72,-449.98C664.64,-447 672.65,-443.65 680,-440 707.72,-426.23 736.95,-405.76 755.77,-391.7"/>
<polygon fill="midnightblue" stroke="midnightblue" points="758.03,-394.39 763.88,-385.56 753.8,-388.81 758.03,-394.39"/>
</g>
<!-- Node31&#45;&gt;Node8 -->
<g id="edge57" class="edge">
<title>Node31&#45;&gt;Node8</title>
<path fill="none" stroke="midnightblue" d="M653.91,-480.03C679.95,-488.56 712.19,-499.11 737,-507.23"/>
<polygon fill="midnightblue" stroke="midnightblue" points="736.2,-510.65 746.8,-510.44 738.38,-504 736.2,-510.65"/>
</g>
<!-- Node32&#45;&gt;Node4 -->
<g id="edge59" class="edge">
<title>Node32&#45;&gt;Node4</title>
<path fill="none" stroke="midnightblue" d="M657.7,-499.41C665.51,-496.74 673.22,-493.33 680,-489 718.49,-464.4 749.74,-419.61 765.3,-394.44"/>
<polygon fill="midnightblue" stroke="midnightblue" points="768.49,-395.92 770.65,-385.55 762.5,-392.31 768.49,-395.92"/>
</g>
<!-- Node32&#45;&gt;Node8 -->
<g id="edge60" class="edge">
<title>Node32&#45;&gt;Node8</title>
<path fill="none" stroke="midnightblue" d="M672.95,-513.25C684.12,-513.98 695.77,-514.75 707.04,-515.48"/>
<polygon fill="midnightblue" stroke="midnightblue" points="707.05,-518.99 717.26,-516.15 707.51,-512.01 707.05,-518.99"/>
</g>
</g>
</svg>
