<?xml version="1.0" encoding="UTF-8" standalone="no"?>
<!DOCTYPE svg PUBLIC "-//W3C//DTD SVG 1.1//EN"
 "http://www.w3.org/Graphics/SVG/1.1/DTD/svg11.dtd">
<!-- Generated by graphviz version 2.43.0 (0)
 -->
<!-- Title: as_iic_set_control Pages: 1 -->
<svg width="1642pt" height="496pt"
 viewBox="0.00 0.00 1642.00 496.00" xmlns="http://www.w3.org/2000/svg" xmlns:xlink="http://www.w3.org/1999/xlink">
<g id="graph0" class="graph" transform="scale(1 1) rotate(0) translate(4 492)">
<title>as_iic_set_control</title>
<!-- Node1 -->
<g id="node1" class="node">
<title>Node1</title>
<g id="a_node1"><a xlink:title=" ">
<polygon fill="#bfbfbf" stroke="black" points="1530,-202.5 1530,-221.5 1634,-221.5 1634,-202.5 1530,-202.5"/>
<text text-anchor="middle" x="1582" y="-209.5" font-family="Helvetica,sans-Serif" font-size="10.00">as_iic_set_control</text>
</a>
</g>
</g>
<!-- Node2 -->
<g id="node2" class="node">
<title>Node2</title>
<g id="a_node2"><a xlink:href="group__as__iic__helpers.html#ga1662a1a0b29536bf7d74ede3f73598be" target="_top" xlink:title=" ">
<polygon fill="none" stroke="black" points="979.5,-468.5 979.5,-487.5 1110.5,-487.5 1110.5,-468.5 979.5,-468.5"/>
<text text-anchor="middle" x="1045" y="-475.5" font-family="Helvetica,sans-Serif" font-size="10.00">as_iic_read_transaction</text>
</a>
</g>
</g>
<!-- Node1&#45;&gt;Node2 -->
<g id="edge1" class="edge">
<title>Node1&#45;&gt;Node2</title>
<path fill="none" stroke="midnightblue" d="M1576.7,-231.47C1567.71,-267.69 1543.51,-345.69 1494,-389 1385.82,-483.63 1206.26,-488.88 1110.61,-483.87"/>
<polygon fill="midnightblue" stroke="midnightblue" points="1580.13,-232.19 1579.02,-221.65 1573.31,-230.58 1580.13,-232.19"/>
</g>
<!-- Node5 -->
<g id="node5" class="node">
<title>Node5</title>
<g id="a_node5"><a xlink:href="group__as__iic__user.html#gae03c311fae3d6a830878a2b0c2c1c2bf" target="_top" xlink:title=" ">
<polygon fill="none" stroke="black" points="1363.5,-316.5 1363.5,-335.5 1487.5,-335.5 1487.5,-316.5 1363.5,-316.5"/>
<text text-anchor="middle" x="1425.5" y="-323.5" font-family="Helvetica,sans-Serif" font-size="10.00">as_iic_reset_hw_state</text>
</a>
</g>
</g>
<!-- Node1&#45;&gt;Node5 -->
<g id="edge4" class="edge">
<title>Node1&#45;&gt;Node5</title>
<path fill="none" stroke="midnightblue" d="M1568.14,-229.54C1552.61,-249.61 1524.72,-282.22 1494,-302 1484.59,-308.06 1473.45,-312.82 1462.97,-316.46"/>
<polygon fill="midnightblue" stroke="midnightblue" points="1570.95,-231.63 1574.19,-221.54 1565.37,-227.41 1570.95,-231.63"/>
</g>
<!-- Node8 -->
<g id="node8" class="node">
<title>Node8</title>
<g id="a_node8"><a xlink:href="group__as__iic__helpers.html#ga53e6050a2c66be89ac23084fd9de9c23" target="_top" xlink:title=" ">
<polygon fill="none" stroke="black" points="979,-316.5 979,-335.5 1111,-335.5 1111,-316.5 979,-316.5"/>
<text text-anchor="middle" x="1045" y="-323.5" font-family="Helvetica,sans-Serif" font-size="10.00">as_iic_start_transaction</text>
</a>
</g>
</g>
<!-- Node1&#45;&gt;Node8 -->
<g id="edge51" class="edge">
<title>Node1&#45;&gt;Node8</title>
<path fill="none" stroke="midnightblue" d="M1552.2,-225.79C1535.53,-233.3 1513.95,-242.21 1494,-248 1360.74,-286.66 1199.31,-309 1111.19,-319.21"/>
<polygon fill="midnightblue" stroke="midnightblue" points="1553.78,-228.92 1561.41,-221.57 1550.86,-222.56 1553.78,-228.92"/>
</g>
<!-- Node27 -->
<g id="node27" class="node">
<title>Node27</title>
<g id="a_node27"><a xlink:href="group__as__iic__helpers.html#gaa8ce9ac10b8c2ca9b614110ca5cbeff5" target="_top" xlink:title=" ">
<polygon fill="none" stroke="black" points="966,-392.5 966,-411.5 1124,-411.5 1124,-392.5 966,-392.5"/>
<text text-anchor="middle" x="1045" y="-399.5" font-family="Helvetica,sans-Serif" font-size="10.00">as_iic_stop_read_transaction</text>
</a>
</g>
</g>
<!-- Node1&#45;&gt;Node27 -->
<g id="edge52" class="edge">
<title>Node1&#45;&gt;Node27</title>
<path fill="none" stroke="midnightblue" d="M1573.4,-230.85C1560.94,-259.46 1533.55,-313.8 1494,-345 1378.73,-435.92 1192.4,-424.33 1100.64,-411.55"/>
<polygon fill="midnightblue" stroke="midnightblue" points="1576.65,-232.14 1577.3,-221.56 1570.2,-229.42 1576.65,-232.14"/>
</g>
<!-- Node28 -->
<g id="node28" class="node">
<title>Node28</title>
<g id="a_node28"><a xlink:href="group__as__iic__helpers.html#ga67cc002a1b20c75dc26f7b328ca5ddc9" target="_top" xlink:title=" ">
<polygon fill="none" stroke="black" points="1160,-240.5 1160,-259.5 1321,-259.5 1321,-240.5 1160,-240.5"/>
<text text-anchor="middle" x="1240.5" y="-247.5" font-family="Helvetica,sans-Serif" font-size="10.00">as_iic_stop_write_transaction</text>
</a>
</g>
</g>
<!-- Node1&#45;&gt;Node28 -->
<g id="edge53" class="edge">
<title>Node1&#45;&gt;Node28</title>
<path fill="none" stroke="midnightblue" d="M1519.58,-222.39C1511,-223.7 1502.29,-224.94 1494,-226 1436.34,-233.37 1371.01,-239.52 1321.25,-243.75"/>
<polygon fill="midnightblue" stroke="midnightblue" points="1520.21,-225.84 1529.56,-220.84 1519.14,-218.92 1520.21,-225.84"/>
</g>
<!-- Node29 -->
<g id="node29" class="node">
<title>Node29</title>
<g id="a_node29"><a xlink:href="group__as__iic__helpers.html#gad5e0aa9a71f8f0f65e1fbded8134b11f" target="_top" xlink:title=" ">
<polygon fill="none" stroke="black" points="1173.5,-202.5 1173.5,-221.5 1307.5,-221.5 1307.5,-202.5 1173.5,-202.5"/>
<text text-anchor="middle" x="1240.5" y="-209.5" font-family="Helvetica,sans-Serif" font-size="10.00">as_iic_write_transaction</text>
</a>
</g>
</g>
<!-- Node1&#45;&gt;Node29 -->
<g id="edge54" class="edge">
<title>Node1&#45;&gt;Node29</title>
<path fill="none" stroke="midnightblue" d="M1519.75,-212C1459.93,-212 1369.17,-212 1307.71,-212"/>
<polygon fill="midnightblue" stroke="midnightblue" points="1519.81,-215.5 1529.81,-212 1519.81,-208.5 1519.81,-215.5"/>
</g>
<!-- Node30 -->
<g id="node30" class="node">
<title>Node30</title>
<g id="a_node30"><a xlink:href="as__iic_8c.html#afea64b05722568dd3faeb338cfa059bc" target="_top" xlink:title=" ">
<polygon fill="none" stroke="black" points="1368.5,-164.5 1368.5,-183.5 1482.5,-183.5 1482.5,-164.5 1368.5,-164.5"/>
<text text-anchor="middle" x="1425.5" y="-171.5" font-family="Helvetica,sans-Serif" font-size="10.00">as_iic_set_ack_mod</text>
</a>
</g>
</g>
<!-- Node1&#45;&gt;Node30 -->
<g id="edge46" class="edge">
<title>Node1&#45;&gt;Node30</title>
<path fill="none" stroke="midnightblue" d="M1532.05,-199.96C1510.46,-194.65 1485.46,-188.5 1465.21,-183.52"/>
<polygon fill="midnightblue" stroke="midnightblue" points="1531.47,-203.42 1542.01,-202.41 1533.14,-196.62 1531.47,-203.42"/>
</g>
<!-- Node31 -->
<g id="node31" class="node">
<title>Node31</title>
<g id="a_node31"><a xlink:href="group__as__iic__user.html#ga01d635936dc80ddaa19a8d189603ead3" target="_top" xlink:title=" ">
<polygon fill="none" stroke="black" points="1363,-126.5 1363,-145.5 1488,-145.5 1488,-126.5 1363,-126.5"/>
<text text-anchor="middle" x="1425.5" y="-133.5" font-family="Helvetica,sans-Serif" font-size="10.00">as_iic_set_data_ready</text>
</a>
</g>
</g>
<!-- Node1&#45;&gt;Node31 -->
<g id="edge47" class="edge">
<title>Node1&#45;&gt;Node31</title>
<path fill="none" stroke="midnightblue" d="M1560.95,-196.3C1543.95,-183.63 1518.49,-166.15 1494,-155 1485.91,-151.32 1476.95,-148.19 1468.26,-145.6"/>
<polygon fill="midnightblue" stroke="midnightblue" points="1558.94,-199.17 1569.02,-202.42 1563.17,-193.59 1558.94,-199.17"/>
</g>
<!-- Node32 -->
<g id="node32" class="node">
<title>Node32</title>
<g id="a_node32"><a xlink:href="group__as__iic__bitsetters.html#ga0fa3aeeb6d2854f9b27c344047bd820e" target="_top" xlink:title=" ">
<polygon fill="none" stroke="black" points="1367.5,-88.5 1367.5,-107.5 1483.5,-107.5 1483.5,-88.5 1367.5,-88.5"/>
<text text-anchor="middle" x="1425.5" y="-95.5" font-family="Helvetica,sans-Serif" font-size="10.00">as_iic_set_readwrite</text>
</a>
</g>
</g>
<!-- Node1&#45;&gt;Node32 -->
<g id="edge48" class="edge">
<title>Node1&#45;&gt;Node32</title>
<path fill="none" stroke="midnightblue" d="M1569.07,-193.74C1554.07,-172.23 1526.35,-136.92 1494,-117 1487.68,-113.11 1480.53,-109.99 1473.32,-107.5"/>
<polygon fill="midnightblue" stroke="midnightblue" points="1566.35,-195.97 1574.86,-202.28 1572.15,-192.04 1566.35,-195.97"/>
</g>
<!-- Node33 -->
<g id="node33" class="node">
<title>Node33</title>
<g id="a_node33"><a xlink:href="group__as__iic__bitsetters.html#gaa51d06d83796c60001b40bff2dc35b68" target="_top" xlink:title=" ">
<polygon fill="none" stroke="black" points="1370,-39 1370,-69 1481,-69 1481,-39 1370,-39"/>
<text text-anchor="start" x="1378" y="-57" font-family="Helvetica,sans-Serif" font-size="10.00">as_iic_set_transmit</text>
<text text-anchor="middle" x="1425.5" y="-46" font-family="Helvetica,sans-Serif" font-size="10.00">_start</text>
</a>
</g>
</g>
<!-- Node1&#45;&gt;Node33 -->
<g id="edge49" class="edge">
<title>Node1&#45;&gt;Node33</title>
<path fill="none" stroke="midnightblue" d="M1573.36,-193.2C1560.85,-164.66 1533.39,-110.41 1494,-79 1489.21,-75.18 1483.78,-71.91 1478.14,-69.12"/>
<polygon fill="midnightblue" stroke="midnightblue" points="1570.16,-194.63 1577.28,-202.47 1576.6,-191.89 1570.16,-194.63"/>
</g>
<!-- Node34 -->
<g id="node34" class="node">
<title>Node34</title>
<g id="a_node34"><a xlink:href="group__as__iic__bitsetters.html#ga3e0050e31ef365ba7813edd7fbcfa724" target="_top" xlink:title=" ">
<polygon fill="none" stroke="black" points="1357,-0.5 1357,-19.5 1494,-19.5 1494,-0.5 1357,-0.5"/>
<text text-anchor="middle" x="1425.5" y="-7.5" font-family="Helvetica,sans-Serif" font-size="10.00">as_iic_set_transmit_stop</text>
</a>
</g>
</g>
<!-- Node1&#45;&gt;Node34 -->
<g id="edge50" class="edge">
<title>Node1&#45;&gt;Node34</title>
<path fill="none" stroke="midnightblue" d="M1577.22,-192.18C1569,-154.58 1545.91,-72.78 1494,-29 1489.44,-25.15 1484.15,-22.08 1478.58,-19.63"/>
<polygon fill="midnightblue" stroke="midnightblue" points="1573.87,-193.24 1579.31,-202.33 1580.72,-191.83 1573.87,-193.24"/>
</g>
<!-- Node3 -->
<g id="node3" class="node">
<title>Node3</title>
<g id="a_node3"><a xlink:href="group__as__iic__user.html#ga76b6915b73f14abb8a200df4eefde6f3" target="_top" xlink:title=" ">
<polygon fill="none" stroke="black" points="817,-430.5 817,-449.5 915,-449.5 915,-430.5 817,-430.5"/>
<text text-anchor="middle" x="866" y="-437.5" font-family="Helvetica,sans-Serif" font-size="10.00">as_iic_get_bytes</text>
</a>
</g>
</g>
<!-- Node2&#45;&gt;Node3 -->
<g id="edge2" class="edge">
<title>Node2&#45;&gt;Node3</title>
<path fill="none" stroke="midnightblue" d="M989.26,-466.25C964.23,-460.87 934.97,-454.59 911.34,-449.52"/>
<polygon fill="midnightblue" stroke="midnightblue" points="988.82,-469.73 999.34,-468.41 990.29,-462.89 988.82,-469.73"/>
</g>
<!-- Node4 -->
<g id="node4" class="node">
<title>Node4</title>
<g id="a_node4"><a xlink:href="group__as__iic__user.html#ga987a7c89e5d900225a42f04583e0cfe7" target="_top" xlink:title=" ">
<polygon fill="none" stroke="black" points="531,-363.5 531,-382.5 629,-382.5 629,-363.5 531,-363.5"/>
<text text-anchor="middle" x="580" y="-370.5" font-family="Helvetica,sans-Serif" font-size="10.00">as_iic_read_regs</text>
</a>
</g>
</g>
<!-- Node2&#45;&gt;Node4 -->
<g id="edge3" class="edge">
<title>Node2&#45;&gt;Node4</title>
<path fill="none" stroke="midnightblue" d="M969.23,-477.75C920.97,-476.21 857.14,-471.6 802,-459 724.14,-441.2 637.37,-400.99 599.91,-382.56"/>
<polygon fill="midnightblue" stroke="midnightblue" points="969.19,-481.25 979.28,-478.03 969.39,-474.25 969.19,-481.25"/>
</g>
<!-- Node5&#45;&gt;Node2 -->
<g id="edge5" class="edge">
<title>Node5&#45;&gt;Node2</title>
<path fill="none" stroke="midnightblue" d="M1407.8,-342.7C1388.5,-361.07 1355.02,-390.22 1321,-407 1253.23,-440.44 1168.05,-459.28 1110.59,-469.03"/>
<polygon fill="midnightblue" stroke="midnightblue" points="1410.42,-345.03 1415.16,-335.55 1405.55,-340 1410.42,-345.03"/>
</g>
<!-- Node6 -->
<g id="node6" class="node">
<title>Node6</title>
<g id="a_node6"><a xlink:href="group__as__iic__bitsetters.html#ga9ad6dd95074bf372355b39032fce62b7" target="_top" xlink:title=" ">
<polygon fill="none" stroke="black" points="1203.5,-354.5 1203.5,-373.5 1277.5,-373.5 1277.5,-354.5 1203.5,-354.5"/>
<text text-anchor="middle" x="1240.5" y="-361.5" font-family="Helvetica,sans-Serif" font-size="10.00">as_iic_reset</text>
</a>
</g>
</g>
<!-- Node5&#45;&gt;Node6 -->
<g id="edge6" class="edge">
<title>Node5&#45;&gt;Node6</title>
<path fill="none" stroke="midnightblue" d="M1368.15,-337.7C1338.64,-343.83 1303.38,-351.15 1277.57,-356.51"/>
<polygon fill="midnightblue" stroke="midnightblue" points="1369.24,-341.05 1378.32,-335.59 1367.82,-334.2 1369.24,-341.05"/>
</g>
<!-- Node5&#45;&gt;Node8 -->
<g id="edge8" class="edge">
<title>Node5&#45;&gt;Node8</title>
<path fill="none" stroke="midnightblue" d="M1352.84,-326C1283.27,-326 1178.59,-326 1111.27,-326"/>
<polygon fill="midnightblue" stroke="midnightblue" points="1353.27,-329.5 1363.27,-326 1353.27,-322.5 1353.27,-329.5"/>
</g>
<!-- Node5&#45;&gt;Node27 -->
<g id="edge35" class="edge">
<title>Node5&#45;&gt;Node27</title>
<path fill="none" stroke="midnightblue" d="M1403.21,-341.37C1383.1,-354.97 1351.55,-374.01 1321,-383 1256.5,-401.98 1179.96,-405.85 1124.03,-405.48"/>
<polygon fill="midnightblue" stroke="midnightblue" points="1405.37,-344.13 1411.6,-335.55 1401.39,-338.37 1405.37,-344.13"/>
</g>
<!-- Node5&#45;&gt;Node28 -->
<g id="edge39" class="edge">
<title>Node5&#45;&gt;Node28</title>
<path fill="none" stroke="midnightblue" d="M1392.06,-312.53C1355.42,-297.31 1296.7,-272.92 1264.49,-259.55"/>
<polygon fill="midnightblue" stroke="midnightblue" points="1390.75,-315.77 1401.32,-316.37 1393.43,-309.31 1390.75,-315.77"/>
</g>
<!-- Node5&#45;&gt;Node29 -->
<g id="edge44" class="edge">
<title>Node5&#45;&gt;Node29</title>
<path fill="none" stroke="midnightblue" d="M1410.68,-308.77C1392.44,-287.24 1358.27,-250.81 1321,-231 1313.73,-227.14 1305.68,-224.05 1297.56,-221.58"/>
<polygon fill="midnightblue" stroke="midnightblue" points="1407.99,-311.02 1417.07,-316.49 1413.38,-306.55 1407.99,-311.02"/>
</g>
<!-- Node7 -->
<g id="node7" class="node">
<title>Node7</title>
<g id="a_node7"><a xlink:href="group__as__iic__user.html#ga77245afd24eadd52f5845e23d82e777a" target="_top" xlink:title=" ">
<polygon fill="none" stroke="black" points="1012.5,-354.5 1012.5,-373.5 1077.5,-373.5 1077.5,-354.5 1012.5,-354.5"/>
<text text-anchor="middle" x="1045" y="-361.5" font-family="Helvetica,sans-Serif" font-size="10.00">as_iic_init</text>
</a>
</g>
</g>
<!-- Node6&#45;&gt;Node7 -->
<g id="edge7" class="edge">
<title>Node6&#45;&gt;Node7</title>
<path fill="none" stroke="midnightblue" d="M1192.94,-364C1157.29,-364 1109.06,-364 1077.75,-364"/>
<polygon fill="midnightblue" stroke="midnightblue" points="1193.1,-367.5 1203.1,-364 1193.1,-360.5 1193.1,-367.5"/>
</g>
<!-- Node8&#45;&gt;Node3 -->
<g id="edge21" class="edge">
<title>Node8&#45;&gt;Node3</title>
<path fill="none" stroke="midnightblue" d="M977.79,-339.22C973.7,-340.92 969.73,-342.84 966,-345 945.88,-356.67 946.64,-366.74 930,-383 912.49,-400.11 891.2,-419 878.39,-430.16"/>
<polygon fill="midnightblue" stroke="midnightblue" points="979.34,-342.37 987.52,-335.63 976.92,-335.81 979.34,-342.37"/>
</g>
<!-- Node8&#45;&gt;Node4 -->
<g id="edge22" class="edge">
<title>Node8&#45;&gt;Node4</title>
<path fill="none" stroke="midnightblue" d="M968.69,-330.98C920.89,-334.38 857.75,-339.28 802,-345 742.37,-351.12 673.93,-360.09 629.21,-366.22"/>
<polygon fill="midnightblue" stroke="midnightblue" points="969.23,-334.46 978.96,-330.26 968.74,-327.47 969.23,-334.46"/>
</g>
<!-- Node9 -->
<g id="node9" class="node">
<title>Node9</title>
<g id="a_node9"><a xlink:href="group__as__iic__user.html#ga30385c0c387c1629188745edf9c824c1" target="_top" xlink:title=" ">
<polygon fill="none" stroke="black" points="806.5,-354.5 806.5,-373.5 925.5,-373.5 925.5,-354.5 806.5,-354.5"/>
<text text-anchor="middle" x="866" y="-361.5" font-family="Helvetica,sans-Serif" font-size="10.00">as_iic_get_byte_mod</text>
</a>
</g>
</g>
<!-- Node8&#45;&gt;Node9 -->
<g id="edge9" class="edge">
<title>Node8&#45;&gt;Node9</title>
<path fill="none" stroke="midnightblue" d="M989.26,-337.75C964.23,-343.13 934.97,-349.41 911.34,-354.48"/>
<polygon fill="midnightblue" stroke="midnightblue" points="990.29,-341.11 999.34,-335.59 988.82,-334.27 990.29,-341.11"/>
</g>
<!-- Node19 -->
<g id="node19" class="node">
<title>Node19</title>
<g id="a_node19"><a xlink:href="group__as__iic__user.html#ga5c5233652491e648a88292ae73b49ace" target="_top" xlink:title=" ">
<polygon fill="none" stroke="black" points="806,-240.5 806,-259.5 926,-259.5 926,-240.5 806,-240.5"/>
<text text-anchor="middle" x="866" y="-247.5" font-family="Helvetica,sans-Serif" font-size="10.00">as_iic_set_regpointer</text>
</a>
</g>
</g>
<!-- Node8&#45;&gt;Node19 -->
<g id="edge23" class="edge">
<title>Node8&#45;&gt;Node19</title>
<path fill="none" stroke="midnightblue" d="M1018.04,-311.42C995.3,-299.04 961.13,-281.37 930,-269 921.19,-265.5 911.47,-262.27 902.35,-259.51"/>
<polygon fill="midnightblue" stroke="midnightblue" points="1016.59,-314.62 1027.04,-316.37 1019.96,-308.48 1016.59,-314.62"/>
</g>
<!-- Node20 -->
<g id="node20" class="node">
<title>Node20</title>
<g id="a_node20"><a xlink:href="group__as__iic__user.html#ga08fcff0dba9d6b4898291746d2206408" target="_top" xlink:title=" ">
<polygon fill="none" stroke="black" points="802,-278.5 802,-297.5 930,-297.5 930,-278.5 802,-278.5"/>
<text text-anchor="middle" x="866" y="-285.5" font-family="Helvetica,sans-Serif" font-size="10.00">as_iic_write_byte_mod</text>
</a>
</g>
</g>
<!-- Node8&#45;&gt;Node20 -->
<g id="edge24" class="edge">
<title>Node8&#45;&gt;Node20</title>
<path fill="none" stroke="midnightblue" d="M989.26,-314.25C964.23,-308.87 934.97,-302.59 911.34,-297.52"/>
<polygon fill="midnightblue" stroke="midnightblue" points="988.82,-317.73 999.34,-316.41 990.29,-310.89 988.82,-317.73"/>
</g>
<!-- Node22 -->
<g id="node22" class="node">
<title>Node22</title>
<g id="a_node22"><a xlink:href="group__as__iic__user.html#ga2a4e5ee19e84cc95de665e29b92ccda1" target="_top" xlink:title=" ">
<polygon fill="none" stroke="black" points="812.5,-202.5 812.5,-221.5 919.5,-221.5 919.5,-202.5 812.5,-202.5"/>
<text text-anchor="middle" x="866" y="-209.5" font-family="Helvetica,sans-Serif" font-size="10.00">as_iic_write_bytes</text>
</a>
</g>
</g>
<!-- Node8&#45;&gt;Node22 -->
<g id="edge28" class="edge">
<title>Node8&#45;&gt;Node22</title>
<path fill="none" stroke="midnightblue" d="M1028.16,-309.15C1007.47,-288.05 969.22,-252.12 930,-231 922.96,-227.21 915.06,-224.07 907.29,-221.51"/>
<polygon fill="midnightblue" stroke="midnightblue" points="1025.74,-311.68 1035.2,-316.44 1030.78,-306.82 1025.74,-311.68"/>
</g>
<!-- Node10 -->
<g id="node10" class="node">
<title>Node10</title>
<g id="a_node10"><a xlink:href="group__as__iic__user.html#gacf3e3b915e1f15ed8bdc60ab4c129996" target="_top" xlink:title=" ">
<polygon fill="none" stroke="black" points="669.5,-297.5 669.5,-316.5 761.5,-316.5 761.5,-297.5 669.5,-297.5"/>
<text text-anchor="middle" x="715.5" y="-304.5" font-family="Helvetica,sans-Serif" font-size="10.00">as_iic_get_byte</text>
</a>
</g>
</g>
<!-- Node9&#45;&gt;Node10 -->
<g id="edge10" class="edge">
<title>Node9&#45;&gt;Node10</title>
<path fill="none" stroke="midnightblue" d="M830.6,-350.8C803.34,-340.33 765.88,-325.95 741.44,-316.57"/>
<polygon fill="midnightblue" stroke="midnightblue" points="829.55,-354.14 840.14,-354.46 832.06,-347.61 829.55,-354.14"/>
</g>
<!-- Node11 -->
<g id="node11" class="node">
<title>Node11</title>
<g id="a_node11"><a xlink:href="group__as__iic__user.html#ga812d9e16a61b39777a5fbffc7eccbc8d" target="_top" xlink:title=" ">
<polygon fill="none" stroke="black" points="534,-287.5 534,-306.5 626,-306.5 626,-287.5 534,-287.5"/>
<text text-anchor="middle" x="580" y="-294.5" font-family="Helvetica,sans-Serif" font-size="10.00">as_iic_read_reg</text>
</a>
</g>
</g>
<!-- Node10&#45;&gt;Node11 -->
<g id="edge11" class="edge">
<title>Node10&#45;&gt;Node11</title>
<path fill="none" stroke="midnightblue" d="M659.32,-302.87C648.28,-302.04 636.8,-301.18 626.15,-300.38"/>
<polygon fill="midnightblue" stroke="midnightblue" points="659.07,-306.36 669.3,-303.61 659.59,-299.38 659.07,-306.36"/>
</g>
<!-- Node12 -->
<g id="node12" class="node">
<title>Node12</title>
<g id="a_node12"><a xlink:href="as__sensor__ov7670_8c.html#acb25afaea3e81940c50e327c45921f08" target="_top" xlink:title=" ">
<polygon fill="none" stroke="black" points="384,-287.5 384,-306.5 495,-306.5 495,-287.5 384,-287.5"/>
<text text-anchor="middle" x="439.5" y="-294.5" font-family="Helvetica,sans-Serif" font-size="10.00">ov7670_iic_reg_get</text>
</a>
</g>
</g>
<!-- Node11&#45;&gt;Node12 -->
<g id="edge12" class="edge">
<title>Node11&#45;&gt;Node12</title>
<path fill="none" stroke="midnightblue" d="M523.63,-297C514.24,-297 504.5,-297 495.13,-297"/>
<polygon fill="midnightblue" stroke="midnightblue" points="523.65,-300.5 533.65,-297 523.65,-293.5 523.65,-300.5"/>
</g>
<!-- Node13 -->
<g id="node13" class="node">
<title>Node13</title>
<g id="a_node13"><a xlink:href="group__as__sensor__ov7670.html#ga55b52e2499f96009197bfe90af6c7a41" target="_top" xlink:title=" ">
<polygon fill="none" stroke="black" points="164,-211.5 164,-230.5 348,-230.5 348,-211.5 164,-211.5"/>
<text text-anchor="middle" x="256" y="-218.5" font-family="Helvetica,sans-Serif" font-size="10.00">as_sensor_ov7670_exposure_auto</text>
</a>
</g>
</g>
<!-- Node12&#45;&gt;Node13 -->
<g id="edge13" class="edge">
<title>Node12&#45;&gt;Node13</title>
<path fill="none" stroke="midnightblue" d="M418.04,-281.11C400.41,-268.18 373.8,-250.42 348,-240 338.42,-236.13 327.95,-233.01 317.62,-230.5"/>
<polygon fill="midnightblue" stroke="midnightblue" points="416.29,-284.17 426.39,-287.37 420.48,-278.57 416.29,-284.17"/>
</g>
<!-- Node15 -->
<g id="node15" class="node">
<title>Node15</title>
<g id="a_node15"><a xlink:href="group__as__sensor__ov7670.html#gae1b977db2733432317fee8f0497eb67a" target="_top" xlink:title=" ">
<polygon fill="none" stroke="black" points="167,-325.5 167,-344.5 345,-344.5 345,-325.5 167,-325.5"/>
<text text-anchor="middle" x="256" y="-332.5" font-family="Helvetica,sans-Serif" font-size="10.00">as_sensor_ov7670_exposure_get</text>
</a>
</g>
</g>
<!-- Node12&#45;&gt;Node15 -->
<g id="edge15" class="edge">
<title>Node12&#45;&gt;Node15</title>
<path fill="none" stroke="midnightblue" d="M382.95,-308.67C371.4,-311.1 359.3,-313.63 348,-316 333.31,-319.08 317.28,-322.42 302.83,-325.44"/>
<polygon fill="midnightblue" stroke="midnightblue" points="383.86,-312.06 392.93,-306.58 382.42,-305.21 383.86,-312.06"/>
</g>
<!-- Node16 -->
<g id="node16" class="node">
<title>Node16</title>
<g id="a_node16"><a xlink:href="group__as__sensor__ov7670.html#gadd11863e70497418c9d31c922945cbec" target="_top" xlink:title=" ">
<polygon fill="none" stroke="black" points="176,-249.5 176,-268.5 336,-268.5 336,-249.5 176,-249.5"/>
<text text-anchor="middle" x="256" y="-256.5" font-family="Helvetica,sans-Serif" font-size="10.00">as_sensor_ov7670_gain_auto</text>
</a>
</g>
</g>
<!-- Node12&#45;&gt;Node16 -->
<g id="edge16" class="edge">
<title>Node12&#45;&gt;Node16</title>
<path fill="none" stroke="midnightblue" d="M382.95,-285.33C371.4,-282.9 359.3,-280.37 348,-278 333.31,-274.92 317.28,-271.58 302.83,-268.56"/>
<polygon fill="midnightblue" stroke="midnightblue" points="382.42,-288.79 392.93,-287.42 383.86,-281.94 382.42,-288.79"/>
</g>
<!-- Node17 -->
<g id="node17" class="node">
<title>Node17</title>
<g id="a_node17"><a xlink:href="group__as__sensor__ov7670.html#ga75ee4d998c858b26adae16b8140e8637" target="_top" xlink:title=" ">
<polygon fill="none" stroke="black" points="179,-363.5 179,-382.5 333,-382.5 333,-363.5 179,-363.5"/>
<text text-anchor="middle" x="256" y="-370.5" font-family="Helvetica,sans-Serif" font-size="10.00">as_sensor_ov7670_gain_get</text>
</a>
</g>
</g>
<!-- Node12&#45;&gt;Node17 -->
<g id="edge18" class="edge">
<title>Node12&#45;&gt;Node17</title>
<path fill="none" stroke="midnightblue" d="M418.04,-312.89C400.41,-325.82 373.8,-343.58 348,-354 338.42,-357.87 327.95,-360.99 317.62,-363.5"/>
<polygon fill="midnightblue" stroke="midnightblue" points="420.48,-315.43 426.39,-306.63 416.29,-309.83 420.48,-315.43"/>
</g>
<!-- Node18 -->
<g id="node18" class="node">
<title>Node18</title>
<g id="a_node18"><a xlink:href="as__sensor__ov7670_8c.html#ab5de18dc5dd74817505126a51487b8b1" target="_top" xlink:title=" ">
<polygon fill="none" stroke="black" points="181.5,-287.5 181.5,-306.5 330.5,-306.5 330.5,-287.5 181.5,-287.5"/>
<text text-anchor="middle" x="256" y="-294.5" font-family="Helvetica,sans-Serif" font-size="10.00">as_sensor_ov7670_identify</text>
</a>
</g>
</g>
<!-- Node12&#45;&gt;Node18 -->
<g id="edge19" class="edge">
<title>Node12&#45;&gt;Node18</title>
<path fill="none" stroke="midnightblue" d="M373.16,-297C359.33,-297 344.64,-297 330.53,-297"/>
<polygon fill="midnightblue" stroke="midnightblue" points="373.55,-300.5 383.55,-297 373.55,-293.5 373.55,-300.5"/>
</g>
<!-- Node14 -->
<g id="node14" class="node">
<title>Node14</title>
<g id="a_node14"><a xlink:href="group__as__sensor__ov7670.html#ga419a3339eac0f6abb8eafe24e468ae49" target="_top" xlink:title=" ">
<polygon fill="none" stroke="black" points="0,-249.5 0,-268.5 128,-268.5 128,-249.5 0,-249.5"/>
<text text-anchor="middle" x="64" y="-256.5" font-family="Helvetica,sans-Serif" font-size="10.00">as_sensor_ov7670_init</text>
</a>
</g>
</g>
<!-- Node13&#45;&gt;Node14 -->
<g id="edge14" class="edge">
<title>Node13&#45;&gt;Node14</title>
<path fill="none" stroke="midnightblue" d="M196.95,-232.61C169.93,-238.01 138.18,-244.36 112.6,-249.48"/>
<polygon fill="midnightblue" stroke="midnightblue" points="197.94,-235.98 207.05,-230.59 196.56,-229.12 197.94,-235.98"/>
</g>
<!-- Node16&#45;&gt;Node14 -->
<g id="edge17" class="edge">
<title>Node16&#45;&gt;Node14</title>
<path fill="none" stroke="midnightblue" d="M165.68,-259C153.01,-259 140.21,-259 128.17,-259"/>
<polygon fill="midnightblue" stroke="midnightblue" points="165.8,-262.5 175.8,-259 165.8,-255.5 165.8,-262.5"/>
</g>
<!-- Node18&#45;&gt;Node14 -->
<g id="edge20" class="edge">
<title>Node18&#45;&gt;Node14</title>
<path fill="none" stroke="midnightblue" d="M196.95,-285.39C169.93,-279.99 138.18,-273.64 112.6,-268.52"/>
<polygon fill="midnightblue" stroke="midnightblue" points="196.56,-288.88 207.05,-287.41 197.94,-282.02 196.56,-288.88"/>
</g>
<!-- Node21 -->
<g id="node21" class="node">
<title>Node21</title>
<g id="a_node21"><a xlink:href="group__as__iic__user.html#ga35cd65c29b1f4abd1ca87ca51605e5cc" target="_top" xlink:title=" ">
<polygon fill="none" stroke="black" points="665,-259.5 665,-278.5 766,-278.5 766,-259.5 665,-259.5"/>
<text text-anchor="middle" x="715.5" y="-266.5" font-family="Helvetica,sans-Serif" font-size="10.00">as_iic_write_byte</text>
</a>
</g>
</g>
<!-- Node20&#45;&gt;Node21 -->
<g id="edge25" class="edge">
<title>Node20&#45;&gt;Node21</title>
<path fill="none" stroke="midnightblue" d="M791.55,-278.6C782.97,-277.5 774.38,-276.41 766.23,-275.36"/>
<polygon fill="midnightblue" stroke="midnightblue" points="791.23,-282.09 801.59,-279.89 792.12,-275.15 791.23,-282.09"/>
</g>
<!-- Node21&#45;&gt;Node4 -->
<g id="edge27" class="edge">
<title>Node21&#45;&gt;Node4</title>
<path fill="none" stroke="midnightblue" d="M674.36,-282.69C671.1,-284.31 667.94,-286.08 665,-288 632,-309.57 601.72,-345.94 588.29,-363.26"/>
<polygon fill="midnightblue" stroke="midnightblue" points="675.98,-285.8 683.66,-278.5 673.11,-279.41 675.98,-285.8"/>
</g>
<!-- Node21&#45;&gt;Node11 -->
<g id="edge26" class="edge">
<title>Node21&#45;&gt;Node11</title>
<path fill="none" stroke="midnightblue" d="M659.08,-280.62C648.19,-282.91 636.88,-285.28 626.36,-287.49"/>
<polygon fill="midnightblue" stroke="midnightblue" points="659.86,-284.04 668.93,-278.56 658.42,-277.19 659.86,-284.04"/>
</g>
<!-- Node23 -->
<g id="node23" class="node">
<title>Node23</title>
<g id="a_node23"><a xlink:href="group__as__iic__user.html#ga5ae8936ee892843eda5df7b9a418bd52" target="_top" xlink:title=" ">
<polygon fill="none" stroke="black" points="668,-202.5 668,-221.5 763,-221.5 763,-202.5 668,-202.5"/>
<text text-anchor="middle" x="715.5" y="-209.5" font-family="Helvetica,sans-Serif" font-size="10.00">as_iic_write_reg</text>
</a>
</g>
</g>
<!-- Node22&#45;&gt;Node23 -->
<g id="edge29" class="edge">
<title>Node22&#45;&gt;Node23</title>
<path fill="none" stroke="midnightblue" d="M801.93,-212C788.94,-212 775.47,-212 763.18,-212"/>
<polygon fill="midnightblue" stroke="midnightblue" points="802.23,-215.5 812.23,-212 802.23,-208.5 802.23,-215.5"/>
</g>
<!-- Node24 -->
<g id="node24" class="node">
<title>Node24</title>
<g id="a_node24"><a xlink:href="as__sensor__ov7670_8c.html#ad5b49e677d2124f73482764e3270bb42" target="_top" xlink:title=" ">
<polygon fill="none" stroke="black" points="384.5,-202.5 384.5,-221.5 494.5,-221.5 494.5,-202.5 384.5,-202.5"/>
<text text-anchor="middle" x="439.5" y="-209.5" font-family="Helvetica,sans-Serif" font-size="10.00">ov7670_iic_reg_set</text>
</a>
</g>
</g>
<!-- Node23&#45;&gt;Node24 -->
<g id="edge30" class="edge">
<title>Node23&#45;&gt;Node24</title>
<path fill="none" stroke="midnightblue" d="M657.51,-212C609.63,-212 541.68,-212 494.62,-212"/>
<polygon fill="midnightblue" stroke="midnightblue" points="657.71,-215.5 667.71,-212 657.71,-208.5 657.71,-215.5"/>
</g>
<!-- Node24&#45;&gt;Node13 -->
<g id="edge31" class="edge">
<title>Node24&#45;&gt;Node13</title>
<path fill="none" stroke="midnightblue" d="M373.97,-215.2C365.55,-215.62 356.81,-216.05 348.07,-216.48"/>
<polygon fill="midnightblue" stroke="midnightblue" points="374.23,-218.69 384.04,-214.7 373.88,-211.7 374.23,-218.69"/>
</g>
<!-- Node24&#45;&gt;Node16 -->
<g id="edge33" class="edge">
<title>Node24&#45;&gt;Node16</title>
<path fill="none" stroke="midnightblue" d="M400.56,-224.61C384.45,-229.74 365.41,-235.5 348,-240 334.72,-243.43 320.22,-246.68 306.79,-249.49"/>
<polygon fill="midnightblue" stroke="midnightblue" points="401.72,-227.92 410.16,-221.52 399.57,-221.25 401.72,-227.92"/>
</g>
<!-- Node25 -->
<g id="node25" class="node">
<title>Node25</title>
<g id="a_node25"><a xlink:href="group__as__sensor__ov7670.html#ga673b948f323ea0a23896c7dc4b0e05e3" target="_top" xlink:title=" ">
<polygon fill="none" stroke="black" points="167.5,-173.5 167.5,-192.5 344.5,-192.5 344.5,-173.5 167.5,-173.5"/>
<text text-anchor="middle" x="256" y="-180.5" font-family="Helvetica,sans-Serif" font-size="10.00">as_sensor_ov7670_exposure_set</text>
</a>
</g>
</g>
<!-- Node24&#45;&gt;Node25 -->
<g id="edge32" class="edge">
<title>Node24&#45;&gt;Node25</title>
<path fill="none" stroke="midnightblue" d="M374.11,-201.71C355.34,-198.71 334.93,-195.45 316.48,-192.5"/>
<polygon fill="midnightblue" stroke="midnightblue" points="373.62,-205.18 384.04,-203.3 374.72,-198.27 373.62,-205.18"/>
</g>
<!-- Node26 -->
<g id="node26" class="node">
<title>Node26</title>
<g id="a_node26"><a xlink:href="group__as__sensor__ov7670.html#ga45e866e9958d1c7d8e0b0dd206f01a9e" target="_top" xlink:title=" ">
<polygon fill="none" stroke="black" points="179.5,-135.5 179.5,-154.5 332.5,-154.5 332.5,-135.5 179.5,-135.5"/>
<text text-anchor="middle" x="256" y="-142.5" font-family="Helvetica,sans-Serif" font-size="10.00">as_sensor_ov7670_gain_set</text>
</a>
</g>
</g>
<!-- Node24&#45;&gt;Node26 -->
<g id="edge34" class="edge">
<title>Node24&#45;&gt;Node26</title>
<path fill="none" stroke="midnightblue" d="M415.17,-197.27C397.38,-186.62 371.93,-172.65 348,-164 337.53,-160.22 326.09,-157.09 314.97,-154.55"/>
<polygon fill="midnightblue" stroke="midnightblue" points="413.37,-200.27 423.73,-202.48 417.01,-194.29 413.37,-200.27"/>
</g>
<!-- Node27&#45;&gt;Node3 -->
<g id="edge37" class="edge">
<title>Node27&#45;&gt;Node3</title>
<path fill="none" stroke="midnightblue" d="M989.26,-413.75C964.23,-419.13 934.97,-425.41 911.34,-430.48"/>
<polygon fill="midnightblue" stroke="midnightblue" points="990.29,-417.11 999.34,-411.59 988.82,-410.27 990.29,-417.11"/>
</g>
<!-- Node27&#45;&gt;Node4 -->
<g id="edge38" class="edge">
<title>Node27&#45;&gt;Node4</title>
<path fill="none" stroke="midnightblue" d="M955.89,-396.48C858.83,-390.4 706.3,-380.85 629.14,-376.02"/>
<polygon fill="midnightblue" stroke="midnightblue" points="955.78,-399.98 965.98,-397.11 956.22,-392.99 955.78,-399.98"/>
</g>
<!-- Node27&#45;&gt;Node9 -->
<g id="edge36" class="edge">
<title>Node27&#45;&gt;Node9</title>
<path fill="none" stroke="midnightblue" d="M989.26,-390.25C964.23,-384.87 934.97,-378.59 911.34,-373.52"/>
<polygon fill="midnightblue" stroke="midnightblue" points="988.82,-393.73 999.34,-392.41 990.29,-386.89 988.82,-393.73"/>
</g>
<!-- Node28&#45;&gt;Node8 -->
<g id="edge41" class="edge">
<title>Node28&#45;&gt;Node8</title>
<path fill="none" stroke="midnightblue" d="M1187.74,-262.6C1178.27,-265.75 1168.65,-269.53 1160,-274 1141.99,-283.31 1141.98,-292.64 1124,-302 1112.44,-308.02 1099.11,-312.81 1086.78,-316.48"/>
<polygon fill="midnightblue" stroke="midnightblue" points="1189.02,-265.87 1197.52,-259.55 1186.93,-259.19 1189.02,-265.87"/>
</g>
<!-- Node28&#45;&gt;Node19 -->
<g id="edge40" class="edge">
<title>Node28&#45;&gt;Node19</title>
<path fill="none" stroke="midnightblue" d="M1149.54,-250C1080.14,-250 986.16,-250 926.04,-250"/>
<polygon fill="midnightblue" stroke="midnightblue" points="1149.59,-253.5 1159.59,-250 1149.59,-246.5 1149.59,-253.5"/>
</g>
<!-- Node28&#45;&gt;Node20 -->
<g id="edge42" class="edge">
<title>Node28&#45;&gt;Node20</title>
<path fill="none" stroke="midnightblue" d="M1153.21,-260.72C1143.36,-261.87 1133.47,-262.98 1124,-264 1057.94,-271.09 982.21,-278.01 930.15,-282.59"/>
<polygon fill="midnightblue" stroke="midnightblue" points="1153.9,-264.17 1163.43,-259.52 1153.09,-257.21 1153.9,-264.17"/>
</g>
<!-- Node28&#45;&gt;Node22 -->
<g id="edge43" class="edge">
<title>Node28&#45;&gt;Node22</title>
<path fill="none" stroke="midnightblue" d="M1149.62,-240.83C1077.67,-233.49 979.23,-223.45 919.54,-217.36"/>
<polygon fill="midnightblue" stroke="midnightblue" points="1149.29,-244.32 1159.59,-241.85 1150,-237.35 1149.29,-244.32"/>
</g>
<!-- Node29&#45;&gt;Node22 -->
<g id="edge45" class="edge">
<title>Node29&#45;&gt;Node22</title>
<path fill="none" stroke="midnightblue" d="M1163.42,-201.46C1150.3,-200.02 1136.77,-198.77 1124,-198 1053.91,-193.77 1036.05,-193.07 966,-198 950.85,-199.07 934.49,-201.04 919.52,-203.17"/>
<polygon fill="midnightblue" stroke="midnightblue" points="1163.02,-204.94 1173.36,-202.59 1163.82,-197.98 1163.02,-204.94"/>
</g>
</g>
</svg>
