<?xml version="1.0" encoding="UTF-8" standalone="no"?>
<!DOCTYPE svg PUBLIC "-//W3C//DTD SVG 1.1//EN"
 "http://www.w3.org/Graphics/SVG/1.1/DTD/svg11.dtd">
<!-- Generated by graphviz version 2.43.0 (0)
 -->
<!-- Title: as_writer_get_last_data_unit_complete_addr Pages: 1 -->
<svg width="691pt" height="104pt"
 viewBox="0.00 0.00 691.00 104.00" xmlns="http://www.w3.org/2000/svg" xmlns:xlink="http://www.w3.org/1999/xlink">
<g id="graph0" class="graph" transform="scale(1 1) rotate(0) translate(4 100)">
<title>as_writer_get_last_data_unit_complete_addr</title>
<!-- Node1 -->
<g id="node1" class="node">
<title>Node1</title>
<g id="a_node1"><a xlink:title="Returns the first address after the last successfully written unit.">
<polygon fill="#bfbfbf" stroke="black" points="537,-33 537,-63 683,-63 683,-33 537,-33"/>
<text text-anchor="start" x="545" y="-51" font-family="Helvetica,sans-Serif" font-size="10.00">as_writer_get_last</text>
<text text-anchor="middle" x="610" y="-40" font-family="Helvetica,sans-Serif" font-size="10.00">_data_unit_complete_addr</text>
</a>
</g>
</g>
<!-- Node2 -->
<g id="node2" class="node">
<title>Node2</title>
<g id="a_node2"><a xlink:href="group__as__buffer.html#ga4be2b60d2ac888f473e52f39c9492368" target="_top" xlink:title=" ">
<polygon fill="none" stroke="black" points="370,-38.5 370,-57.5 501,-57.5 501,-38.5 370,-38.5"/>
<text text-anchor="middle" x="435.5" y="-45.5" font-family="Helvetica,sans-Serif" font-size="10.00">as_buffer_update_state</text>
</a>
</g>
</g>
<!-- Node1&#45;&gt;Node2 -->
<g id="edge1" class="edge">
<title>Node1&#45;&gt;Node2</title>
<path fill="none" stroke="midnightblue" d="M526.81,-48C518.22,-48 509.58,-48 501.22,-48"/>
<polygon fill="midnightblue" stroke="midnightblue" points="526.84,-51.5 536.84,-48 526.84,-44.5 526.84,-51.5"/>
</g>
<!-- Node3 -->
<g id="node3" class="node">
<title>Node3</title>
<g id="a_node3"><a xlink:href="group__mmap__file__ops.html#gac0196baed6a0a2e62c8c9c3aa2680af4" target="_top" xlink:title=" ">
<polygon fill="none" stroke="black" points="164,-38.5 164,-57.5 334,-57.5 334,-38.5 164,-38.5"/>
<text text-anchor="middle" x="249" y="-45.5" font-family="Helvetica,sans-Serif" font-size="10.00">as_mmap_wait_for_completion</text>
</a>
</g>
</g>
<!-- Node2&#45;&gt;Node3 -->
<g id="edge2" class="edge">
<title>Node2&#45;&gt;Node3</title>
<path fill="none" stroke="midnightblue" d="M359.83,-48C351.41,-48 342.8,-48 334.27,-48"/>
<polygon fill="midnightblue" stroke="midnightblue" points="359.97,-51.5 369.97,-48 359.97,-44.5 359.97,-51.5"/>
</g>
<!-- Node5 -->
<g id="node5" class="node">
<title>Node5</title>
<g id="a_node5"><a xlink:href="group__mmap__file__ops.html#gae18f99f9774b7224e71d80209ecd0bf4" target="_top" xlink:title=" ">
<polygon fill="none" stroke="black" points="1.5,-76.5 1.5,-95.5 126.5,-95.5 126.5,-76.5 1.5,-76.5"/>
<text text-anchor="middle" x="64" y="-83.5" font-family="Helvetica,sans-Serif" font-size="10.00">driver_as_mmap_read</text>
</a>
</g>
</g>
<!-- Node2&#45;&gt;Node5 -->
<g id="edge6" class="edge">
<title>Node2&#45;&gt;Node5</title>
<path fill="none" stroke="midnightblue" d="M380.08,-59.48C365.2,-62.3 349.02,-65.06 334,-67 263.19,-76.16 181.29,-81.15 126.63,-83.69"/>
<polygon fill="midnightblue" stroke="midnightblue" points="381,-62.87 390.15,-57.54 379.67,-56 381,-62.87"/>
</g>
<!-- Node6 -->
<g id="node6" class="node">
<title>Node6</title>
<g id="a_node6"><a xlink:href="group__mmap__file__ops.html#gaeea3980f5b633c4b83ff46b2efc2ea10" target="_top" xlink:title=" ">
<polygon fill="none" stroke="black" points="0,-0.5 0,-19.5 128,-19.5 128,-0.5 0,-0.5"/>
<text text-anchor="middle" x="64" y="-7.5" font-family="Helvetica,sans-Serif" font-size="10.00">driver_as_mmap_write</text>
</a>
</g>
</g>
<!-- Node2&#45;&gt;Node6 -->
<g id="edge7" class="edge">
<title>Node2&#45;&gt;Node6</title>
<path fill="none" stroke="midnightblue" d="M380.08,-36.52C365.2,-33.7 349.02,-30.94 334,-29 263.89,-19.93 182.9,-14.95 128.25,-12.39"/>
<polygon fill="midnightblue" stroke="midnightblue" points="379.67,-40 390.15,-38.46 381,-33.13 379.67,-40"/>
</g>
<!-- Node4 -->
<g id="node4" class="node">
<title>Node4</title>
<g id="a_node4"><a xlink:href="group__mmap__file__ops.html#gab078c489a563497f4da70a9f6115dfce" target="_top" xlink:title=" ">
<polygon fill="none" stroke="black" points="18.5,-38.5 18.5,-57.5 109.5,-57.5 109.5,-38.5 18.5,-38.5"/>
<text text-anchor="middle" x="64" y="-45.5" font-family="Helvetica,sans-Serif" font-size="10.00">as_mmap_ioctl</text>
</a>
</g>
</g>
<!-- Node3&#45;&gt;Node4 -->
<g id="edge3" class="edge">
<title>Node3&#45;&gt;Node4</title>
<path fill="none" stroke="midnightblue" d="M153.85,-48C138.39,-48 123.04,-48 109.55,-48"/>
<polygon fill="midnightblue" stroke="midnightblue" points="154,-51.5 164,-48 154,-44.5 154,-51.5"/>
</g>
<!-- Node3&#45;&gt;Node5 -->
<g id="edge4" class="edge">
<title>Node3&#45;&gt;Node5</title>
<path fill="none" stroke="midnightblue" d="M191.75,-59.68C165.79,-65.07 135.38,-71.39 110.85,-76.48"/>
<polygon fill="midnightblue" stroke="midnightblue" points="192.74,-63.05 201.82,-57.59 191.32,-56.2 192.74,-63.05"/>
</g>
<!-- Node3&#45;&gt;Node6 -->
<g id="edge5" class="edge">
<title>Node3&#45;&gt;Node6</title>
<path fill="none" stroke="midnightblue" d="M191.75,-36.32C165.79,-30.93 135.38,-24.61 110.85,-19.52"/>
<polygon fill="midnightblue" stroke="midnightblue" points="191.32,-39.8 201.82,-38.41 192.74,-32.95 191.32,-39.8"/>
</g>
</g>
</svg>
