<?xml version="1.0" encoding="UTF-8" standalone="no"?>
<!DOCTYPE svg PUBLIC "-//W3C//DTD SVG 1.1//EN"
 "http://www.w3.org/Graphics/SVG/1.1/DTD/svg11.dtd">
<!-- Generated by graphviz version 2.43.0 (0)
 -->
<!-- Title: as_iic_write_transaction Pages: 1 -->
<svg width="911pt" height="275pt"
 viewBox="0.00 0.00 911.00 275.00" xmlns="http://www.w3.org/2000/svg" xmlns:xlink="http://www.w3.org/1999/xlink">
<g id="graph0" class="graph" transform="scale(1 1) rotate(0) translate(4 271)">
<title>as_iic_write_transaction</title>
<!-- Node1 -->
<g id="node1" class="node">
<title>Node1</title>
<g id="a_node1"><a xlink:title=" ">
<polygon fill="#bfbfbf" stroke="black" points="0,-95.5 0,-114.5 134,-114.5 134,-95.5 0,-95.5"/>
<text text-anchor="middle" x="67" y="-102.5" font-family="Helvetica,sans-Serif" font-size="10.00">as_iic_write_transaction</text>
</a>
</g>
</g>
<!-- Node2 -->
<g id="node2" class="node">
<title>Node2</title>
<g id="a_node2"><a xlink:href="group__as__iic__bitchecks.html#gaa4e8718c748b5a7e956a38ffd6dbe15d" target="_top" xlink:title=" ">
<polygon fill="none" stroke="black" points="185,-152.5 185,-171.5 299,-171.5 299,-152.5 185,-152.5"/>
<text text-anchor="middle" x="242" y="-159.5" font-family="Helvetica,sans-Serif" font-size="10.00">as_iic_ack_received</text>
</a>
</g>
</g>
<!-- Node1&#45;&gt;Node2 -->
<g id="edge1" class="edge">
<title>Node1&#45;&gt;Node2</title>
<path fill="none" stroke="midnightblue" d="M91.68,-114.55C112.21,-122.66 142.82,-134.32 170,-143 177.27,-145.32 185.02,-147.59 192.62,-149.72"/>
<polygon fill="midnightblue" stroke="midnightblue" points="191.92,-153.15 202.48,-152.41 193.76,-146.4 191.92,-153.15"/>
</g>
<!-- Node6 -->
<g id="node6" class="node">
<title>Node6</title>
<g id="a_node6"><a xlink:href="group__as__iic__wait.html#ga0bc5aad64893b674c42943fb64d17676" target="_top" xlink:title=" ">
<polygon fill="none" stroke="black" points="170,-190.5 170,-209.5 314,-209.5 314,-190.5 170,-190.5"/>
<text text-anchor="middle" x="242" y="-197.5" font-family="Helvetica,sans-Serif" font-size="10.00">as_iic_busy_wait_for_wait</text>
</a>
</g>
</g>
<!-- Node1&#45;&gt;Node6 -->
<g id="edge5" class="edge">
<title>Node1&#45;&gt;Node6</title>
<path fill="none" stroke="midnightblue" d="M78.14,-114.67C95.54,-130.75 132.83,-163 170,-181 174.88,-183.36 180.1,-185.47 185.41,-187.33"/>
<polygon fill="midnightblue" stroke="midnightblue" points="184.41,-190.69 195,-190.43 186.56,-184.02 184.41,-190.69"/>
</g>
<!-- Node12 -->
<g id="node12" class="node">
<title>Node12</title>
<g id="a_node12"><a xlink:href="group__as__iic__bitchecks.html#ga2ef7a1f9767986f2033697f584cd4feb" target="_top" xlink:title=" ">
<polygon fill="none" stroke="black" points="187,-114.5 187,-133.5 297,-133.5 297,-114.5 187,-114.5"/>
<text text-anchor="middle" x="242" y="-121.5" font-family="Helvetica,sans-Serif" font-size="10.00">as_iic_is_readwrite</text>
</a>
</g>
</g>
<!-- Node1&#45;&gt;Node12 -->
<g id="edge12" class="edge">
<title>Node1&#45;&gt;Node12</title>
<path fill="none" stroke="midnightblue" d="M134.39,-112.29C148.21,-113.81 162.76,-115.41 176.51,-116.92"/>
<polygon fill="midnightblue" stroke="midnightblue" points="176.52,-120.44 186.84,-118.05 177.28,-113.48 176.52,-120.44"/>
</g>
<!-- Node14 -->
<g id="node14" class="node">
<title>Node14</title>
<g id="a_node14"><a xlink:href="group__as__iic__user.html#gae03c311fae3d6a830878a2b0c2c1c2bf" target="_top" xlink:title=" ">
<polygon fill="none" stroke="black" points="180,-0.5 180,-19.5 304,-19.5 304,-0.5 180,-0.5"/>
<text text-anchor="middle" x="242" y="-7.5" font-family="Helvetica,sans-Serif" font-size="10.00">as_iic_reset_hw_state</text>
</a>
</g>
</g>
<!-- Node1&#45;&gt;Node14 -->
<g id="edge15" class="edge">
<title>Node1&#45;&gt;Node14</title>
<path fill="none" stroke="midnightblue" d="M79.55,-95.31C97.77,-80.42 134.74,-51.78 170,-34 178.36,-29.78 187.63,-26.04 196.64,-22.84"/>
<polygon fill="midnightblue" stroke="midnightblue" points="197.91,-26.11 206.26,-19.58 195.66,-19.48 197.91,-26.11"/>
</g>
<!-- Node15 -->
<g id="node15" class="node">
<title>Node15</title>
<g id="a_node15"><a xlink:href="group__as__iic__reg__funcs.html#gac83a48fc09234a7a99adafb1ce565eb0" target="_top" xlink:title=" ">
<polygon fill="none" stroke="black" points="351.5,-38.5 351.5,-57.5 455.5,-57.5 455.5,-38.5 351.5,-38.5"/>
<text text-anchor="middle" x="403.5" y="-45.5" font-family="Helvetica,sans-Serif" font-size="10.00">as_iic_set_control</text>
</a>
</g>
</g>
<!-- Node1&#45;&gt;Node15 -->
<g id="edge19" class="edge">
<title>Node1&#45;&gt;Node15</title>
<path fill="none" stroke="midnightblue" d="M123.99,-95.46C184.06,-85.22 279.19,-69.01 341.23,-58.44"/>
<polygon fill="midnightblue" stroke="midnightblue" points="342,-61.86 351.27,-56.73 340.83,-54.96 342,-61.86"/>
</g>
<!-- Node18 -->
<g id="node18" class="node">
<title>Node18</title>
<g id="a_node18"><a xlink:href="group__as__iic__reg__funcs.html#ga8058473baeded71954aa72ee8df24e9b" target="_top" xlink:title=" ">
<polygon fill="none" stroke="black" points="350,-76.5 350,-95.5 457,-95.5 457,-76.5 350,-76.5"/>
<text text-anchor="middle" x="403.5" y="-83.5" font-family="Helvetica,sans-Serif" font-size="10.00">as_iic_set_data_tx</text>
</a>
</g>
</g>
<!-- Node1&#45;&gt;Node18 -->
<g id="edge20" class="edge">
<title>Node1&#45;&gt;Node18</title>
<path fill="none" stroke="midnightblue" d="M134.09,-101.25C193.72,-97.86 280.83,-92.91 339.49,-89.58"/>
<polygon fill="midnightblue" stroke="midnightblue" points="339.95,-93.06 349.74,-89 339.56,-86.07 339.95,-93.06"/>
</g>
<!-- Node3 -->
<g id="node3" class="node">
<title>Node3</title>
<g id="a_node3"><a xlink:href="group__as__iic__reg__funcs.html#ga8daa8fde0a7776aa2f5b335250b5aa2a" target="_top" xlink:title=" ">
<polygon fill="none" stroke="black" points="494.5,-152.5 494.5,-171.5 616.5,-171.5 616.5,-152.5 494.5,-152.5"/>
<text text-anchor="middle" x="555.5" y="-159.5" font-family="Helvetica,sans-Serif" font-size="10.00">as_iic_get_status_reg</text>
</a>
</g>
</g>
<!-- Node2&#45;&gt;Node3 -->
<g id="edge2" class="edge">
<title>Node2&#45;&gt;Node3</title>
<path fill="none" stroke="midnightblue" d="M299.05,-162C350.91,-162 428.21,-162 484.19,-162"/>
<polygon fill="midnightblue" stroke="midnightblue" points="484.38,-165.5 494.38,-162 484.38,-158.5 484.38,-165.5"/>
</g>
<!-- Node4 -->
<g id="node4" class="node">
<title>Node4</title>
<g id="a_node4"><a xlink:href="group__asterics__support.html#ga8e5c2bfd2e4498d10289377bd94cef07" target="_top" xlink:title=" ">
<polygon fill="none" stroke="black" points="672.5,-114.5 672.5,-133.5 748.5,-133.5 748.5,-114.5 672.5,-114.5"/>
<text text-anchor="middle" x="710.5" y="-121.5" font-family="Helvetica,sans-Serif" font-size="10.00">as_reg_read</text>
</a>
</g>
</g>
<!-- Node3&#45;&gt;Node4 -->
<g id="edge3" class="edge">
<title>Node3&#45;&gt;Node4</title>
<path fill="none" stroke="midnightblue" d="M595.11,-152.41C615.59,-147.32 640.92,-141.03 662.53,-135.67"/>
<polygon fill="midnightblue" stroke="midnightblue" points="663.63,-139 672.49,-133.19 661.94,-132.21 663.63,-139"/>
</g>
<!-- Node5 -->
<g id="node5" class="node">
<title>Node5</title>
<g id="a_node5"><a xlink:href="group__asterics__support.html#ga4c6d688b840a6e2edc9bc0b8ed961677" target="_top" xlink:title=" ">
<polygon fill="none" stroke="black" points="803,-114.5 803,-133.5 903,-133.5 903,-114.5 803,-114.5"/>
<text text-anchor="middle" x="853" y="-121.5" font-family="Helvetica,sans-Serif" font-size="10.00">as_reg_to_uint32</text>
</a>
</g>
</g>
<!-- Node4&#45;&gt;Node5 -->
<g id="edge4" class="edge">
<title>Node4&#45;&gt;Node5</title>
<path fill="none" stroke="midnightblue" d="M748.78,-124C762.26,-124 777.83,-124 792.72,-124"/>
<polygon fill="midnightblue" stroke="midnightblue" points="792.89,-127.5 802.89,-124 792.89,-120.5 792.89,-127.5"/>
</g>
<!-- Node7 -->
<g id="node7" class="node">
<title>Node7</title>
<g id="a_node7"><a xlink:href="group__as__iic__bitchecks.html#ga4629e4514c3531d0bcd44ae20abc6bad" target="_top" xlink:title=" ">
<polygon fill="none" stroke="black" points="354,-190.5 354,-209.5 453,-209.5 453,-190.5 354,-190.5"/>
<text text-anchor="middle" x="403.5" y="-197.5" font-family="Helvetica,sans-Serif" font-size="10.00">as_iic_is_waiting</text>
</a>
</g>
</g>
<!-- Node6&#45;&gt;Node7 -->
<g id="edge6" class="edge">
<title>Node6&#45;&gt;Node7</title>
<path fill="none" stroke="midnightblue" d="M314.35,-200C324.1,-200 334.01,-200 343.51,-200"/>
<polygon fill="midnightblue" stroke="midnightblue" points="343.62,-203.5 353.62,-200 343.62,-196.5 343.62,-203.5"/>
</g>
<!-- Node8 -->
<g id="node8" class="node">
<title>Node8</title>
<g id="a_node8"><a xlink:href="group__asterics__support.html#gab803703ab5b845023ca31b7b2664419c" target="_top" xlink:title=" ">
<polygon fill="none" stroke="black" points="374,-228.5 374,-247.5 433,-247.5 433,-228.5 374,-228.5"/>
<text text-anchor="middle" x="403.5" y="-235.5" font-family="Helvetica,sans-Serif" font-size="10.00">as_sleep</text>
</a>
</g>
</g>
<!-- Node6&#45;&gt;Node8 -->
<g id="edge8" class="edge">
<title>Node6&#45;&gt;Node8</title>
<path fill="none" stroke="midnightblue" d="M283.25,-209.59C307.96,-215.48 339.44,-222.98 363.85,-228.79"/>
<polygon fill="midnightblue" stroke="midnightblue" points="363.3,-232.26 373.83,-231.17 364.92,-225.45 363.3,-232.26"/>
</g>
<!-- Node7&#45;&gt;Node3 -->
<g id="edge7" class="edge">
<title>Node7&#45;&gt;Node3</title>
<path fill="none" stroke="midnightblue" d="M442.35,-190.41C461.97,-185.44 486.12,-179.32 506.98,-174.04"/>
<polygon fill="midnightblue" stroke="midnightblue" points="508.09,-177.37 516.92,-171.52 506.37,-170.58 508.09,-177.37"/>
</g>
<!-- Node9 -->
<g id="node9" class="node">
<title>Node9</title>
<g id="a_node9"><a xlink:href="group__asterics__support.html#ga284d9e0d170cf7cabc16ccd7e62d95bd" target="_top" xlink:title=" ">
<polygon fill="none" stroke="black" points="527,-228.5 527,-247.5 584,-247.5 584,-228.5 527,-228.5"/>
<text text-anchor="middle" x="555.5" y="-235.5" font-family="Helvetica,sans-Serif" font-size="10.00">as_yield</text>
</a>
</g>
</g>
<!-- Node8&#45;&gt;Node9 -->
<g id="edge9" class="edge">
<title>Node8&#45;&gt;Node9</title>
<path fill="none" stroke="midnightblue" d="M433.07,-238C456.75,-238 490.62,-238 516.57,-238"/>
<polygon fill="midnightblue" stroke="midnightblue" points="516.8,-241.5 526.8,-238 516.8,-234.5 516.8,-241.5"/>
</g>
<!-- Node10 -->
<g id="node10" class="node">
<title>Node10</title>
<g id="a_node10"><a xlink:href="group__asterics__support.html#gad294e0c5530bd6fb800a2394179070e1" target="_top" xlink:title=" ">
<polygon fill="none" stroke="black" points="665.5,-247.5 665.5,-266.5 755.5,-266.5 755.5,-247.5 665.5,-247.5"/>
<text text-anchor="middle" x="710.5" y="-254.5" font-family="Helvetica,sans-Serif" font-size="10.00">as_mutex_lock</text>
</a>
</g>
</g>
<!-- Node9&#45;&gt;Node10 -->
<g id="edge10" class="edge">
<title>Node9&#45;&gt;Node10</title>
<path fill="none" stroke="midnightblue" d="M584.21,-241.44C604.02,-243.9 631.34,-247.29 655.41,-250.28"/>
<polygon fill="midnightblue" stroke="midnightblue" points="655.14,-253.78 665.49,-251.53 656,-246.83 655.14,-253.78"/>
</g>
<!-- Node11 -->
<g id="node11" class="node">
<title>Node11</title>
<g id="a_node11"><a xlink:href="group__asterics__support.html#ga07e09e825f2608339f6213edb9d0c8b3" target="_top" xlink:title=" ">
<polygon fill="none" stroke="black" points="659.5,-209.5 659.5,-228.5 761.5,-228.5 761.5,-209.5 659.5,-209.5"/>
<text text-anchor="middle" x="710.5" y="-216.5" font-family="Helvetica,sans-Serif" font-size="10.00">as_mutex_unlock</text>
</a>
</g>
</g>
<!-- Node9&#45;&gt;Node11 -->
<g id="edge11" class="edge">
<title>Node9&#45;&gt;Node11</title>
<path fill="none" stroke="midnightblue" d="M584.21,-234.56C602.35,-232.31 626.79,-229.27 649.26,-226.48"/>
<polygon fill="midnightblue" stroke="midnightblue" points="649.92,-229.93 659.41,-225.22 649.06,-222.98 649.92,-229.93"/>
</g>
<!-- Node13 -->
<g id="node13" class="node">
<title>Node13</title>
<g id="a_node13"><a xlink:href="group__as__iic__reg__funcs.html#gaca309e97934beed04c02e31ba9cfbd3a" target="_top" xlink:title=" ">
<polygon fill="none" stroke="black" points="493,-114.5 493,-133.5 618,-133.5 618,-114.5 493,-114.5"/>
<text text-anchor="middle" x="555.5" y="-121.5" font-family="Helvetica,sans-Serif" font-size="10.00">as_iic_get_control_reg</text>
</a>
</g>
</g>
<!-- Node12&#45;&gt;Node13 -->
<g id="edge13" class="edge">
<title>Node12&#45;&gt;Node13</title>
<path fill="none" stroke="midnightblue" d="M297.26,-124C348.62,-124 426.07,-124 482.56,-124"/>
<polygon fill="midnightblue" stroke="midnightblue" points="482.85,-127.5 492.85,-124 482.85,-120.5 482.85,-127.5"/>
</g>
<!-- Node13&#45;&gt;Node4 -->
<g id="edge14" class="edge">
<title>Node13&#45;&gt;Node4</title>
<path fill="none" stroke="midnightblue" d="M618.29,-124C632.83,-124 648.11,-124 661.91,-124"/>
<polygon fill="midnightblue" stroke="midnightblue" points="662.14,-127.5 672.14,-124 662.14,-120.5 662.14,-127.5"/>
</g>
<!-- Node14&#45;&gt;Node15 -->
<g id="edge16" class="edge">
<title>Node14&#45;&gt;Node15</title>
<path fill="none" stroke="midnightblue" d="M283.25,-19.59C304.3,-24.6 330.26,-30.79 352.57,-36.11"/>
<polygon fill="midnightblue" stroke="midnightblue" points="352,-39.57 362.54,-38.48 353.62,-32.76 352,-39.57"/>
</g>
<!-- Node16 -->
<g id="node16" class="node">
<title>Node16</title>
<g id="a_node16"><a xlink:href="group__asterics__support.html#ga6345b997e24a6cd5f9143cef27629d49" target="_top" xlink:title=" ">
<polygon fill="none" stroke="black" points="516,-38.5 516,-57.5 595,-57.5 595,-38.5 516,-38.5"/>
<text text-anchor="middle" x="555.5" y="-45.5" font-family="Helvetica,sans-Serif" font-size="10.00">as_reg_write</text>
</a>
</g>
</g>
<!-- Node15&#45;&gt;Node16 -->
<g id="edge17" class="edge">
<title>Node15&#45;&gt;Node16</title>
<path fill="none" stroke="midnightblue" d="M455.7,-48C471.85,-48 489.65,-48 505.63,-48"/>
<polygon fill="midnightblue" stroke="midnightblue" points="505.84,-51.5 515.84,-48 505.84,-44.5 505.84,-51.5"/>
</g>
<!-- Node17 -->
<g id="node17" class="node">
<title>Node17</title>
<g id="a_node17"><a xlink:href="group__asterics__support.html#gab651cc2c035ce61b354578434e59f822" target="_top" xlink:title=" ">
<polygon fill="none" stroke="black" points="654,-38.5 654,-57.5 767,-57.5 767,-38.5 654,-38.5"/>
<text text-anchor="middle" x="710.5" y="-45.5" font-family="Helvetica,sans-Serif" font-size="10.00">as_reg_from_uint32</text>
</a>
</g>
</g>
<!-- Node16&#45;&gt;Node17 -->
<g id="edge18" class="edge">
<title>Node16&#45;&gt;Node17</title>
<path fill="none" stroke="midnightblue" d="M595.11,-48C609.84,-48 627.09,-48 643.65,-48"/>
<polygon fill="midnightblue" stroke="midnightblue" points="643.85,-51.5 653.85,-48 643.85,-44.5 643.85,-51.5"/>
</g>
<!-- Node18&#45;&gt;Node4 -->
<g id="edge21" class="edge">
<title>Node18&#45;&gt;Node4</title>
<path fill="none" stroke="midnightblue" d="M457.34,-88.99C500.67,-91.85 563.52,-96.95 618,-105 632.46,-107.14 648.09,-110.13 662.26,-113.1"/>
<polygon fill="midnightblue" stroke="midnightblue" points="661.77,-116.57 672.28,-115.25 663.24,-109.73 661.77,-116.57"/>
</g>
<!-- Node18&#45;&gt;Node16 -->
<g id="edge22" class="edge">
<title>Node18&#45;&gt;Node16</title>
<path fill="none" stroke="midnightblue" d="M442.35,-76.41C461.97,-71.44 486.12,-65.32 506.98,-60.04"/>
<polygon fill="midnightblue" stroke="midnightblue" points="508.09,-63.37 516.92,-57.52 506.37,-56.58 508.09,-63.37"/>
</g>
</g>
</svg>
