<?xml version="1.0" encoding="UTF-8" standalone="no"?>
<!DOCTYPE svg PUBLIC "-//W3C//DTD SVG 1.1//EN"
 "http://www.w3.org/Graphics/SVG/1.1/DTD/svg11.dtd">
<!-- Generated by graphviz version 2.43.0 (0)
 -->
<!-- Title: as_iic_write_byte Pages: 1 -->
<svg width="1404pt" height="342pt"
 viewBox="0.00 0.00 1404.00 342.00" xmlns="http://www.w3.org/2000/svg" xmlns:xlink="http://www.w3.org/1999/xlink">
<g id="graph0" class="graph" transform="scale(1 1) rotate(0) translate(4 338)">
<title>as_iic_write_byte</title>
<!-- Node1 -->
<g id="node1" class="node">
<title>Node1</title>
<g id="a_node1"><a xlink:title=" ">
<polygon fill="#bfbfbf" stroke="black" points="0,-188.5 0,-207.5 101,-207.5 101,-188.5 0,-188.5"/>
<text text-anchor="middle" x="50.5" y="-195.5" font-family="Helvetica,sans-Serif" font-size="10.00">as_iic_write_byte</text>
</a>
</g>
</g>
<!-- Node2 -->
<g id="node2" class="node">
<title>Node2</title>
<g id="a_node2"><a xlink:href="group__as__iic__user.html#ga08fcff0dba9d6b4898291746d2206408" target="_top" xlink:title=" ">
<polygon fill="none" stroke="black" points="137,-188.5 137,-207.5 265,-207.5 265,-188.5 137,-188.5"/>
<text text-anchor="middle" x="201" y="-195.5" font-family="Helvetica,sans-Serif" font-size="10.00">as_iic_write_byte_mod</text>
</a>
</g>
</g>
<!-- Node1&#45;&gt;Node2 -->
<g id="edge1" class="edge">
<title>Node1&#45;&gt;Node2</title>
<path fill="none" stroke="midnightblue" d="M101.36,-198C109.54,-198 118.16,-198 126.76,-198"/>
<polygon fill="midnightblue" stroke="midnightblue" points="126.82,-201.5 136.82,-198 126.82,-194.5 126.82,-201.5"/>
</g>
<!-- Node3 -->
<g id="node3" class="node">
<title>Node3</title>
<g id="a_node3"><a xlink:href="group__as__iic__helpers.html#ga53e6050a2c66be89ac23084fd9de9c23" target="_top" xlink:title=" ">
<polygon fill="none" stroke="black" points="301,-169.5 301,-188.5 433,-188.5 433,-169.5 301,-169.5"/>
<text text-anchor="middle" x="367" y="-176.5" font-family="Helvetica,sans-Serif" font-size="10.00">as_iic_start_transaction</text>
</a>
</g>
</g>
<!-- Node2&#45;&gt;Node3 -->
<g id="edge2" class="edge">
<title>Node2&#45;&gt;Node3</title>
<path fill="none" stroke="midnightblue" d="M265.41,-190.65C273.76,-189.68 282.39,-188.68 290.92,-187.69"/>
<polygon fill="midnightblue" stroke="midnightblue" points="291.33,-191.17 300.87,-186.54 290.53,-184.22 291.33,-191.17"/>
</g>
<!-- Node22 -->
<g id="node22" class="node">
<title>Node22</title>
<g id="a_node22"><a xlink:href="group__as__iic__helpers.html#ga67cc002a1b20c75dc26f7b328ca5ddc9" target="_top" xlink:title=" ">
<polygon fill="none" stroke="black" points="469,-226.5 469,-245.5 630,-245.5 630,-226.5 469,-226.5"/>
<text text-anchor="middle" x="549.5" y="-233.5" font-family="Helvetica,sans-Serif" font-size="10.00">as_iic_stop_write_transaction</text>
</a>
</g>
</g>
<!-- Node2&#45;&gt;Node22 -->
<g id="edge34" class="edge">
<title>Node2&#45;&gt;Node22</title>
<path fill="none" stroke="midnightblue" d="M265.15,-204.92C319.33,-210.86 398.03,-219.49 458.75,-226.15"/>
<polygon fill="midnightblue" stroke="midnightblue" points="458.4,-229.64 468.72,-227.25 459.16,-222.68 458.4,-229.64"/>
</g>
<!-- Node4 -->
<g id="node4" class="node">
<title>Node4</title>
<g id="a_node4"><a xlink:href="group__as__iic__bitchecks.html#gaa4e8718c748b5a7e956a38ffd6dbe15d" target="_top" xlink:title=" ">
<polygon fill="none" stroke="black" points="681,-188.5 681,-207.5 795,-207.5 795,-188.5 681,-188.5"/>
<text text-anchor="middle" x="738" y="-195.5" font-family="Helvetica,sans-Serif" font-size="10.00">as_iic_ack_received</text>
</a>
</g>
</g>
<!-- Node3&#45;&gt;Node4 -->
<g id="edge3" class="edge">
<title>Node3&#45;&gt;Node4</title>
<path fill="none" stroke="midnightblue" d="M433.12,-182.35C500.03,-185.79 603.65,-191.13 670.91,-194.59"/>
<polygon fill="midnightblue" stroke="midnightblue" points="670.81,-198.09 680.98,-195.11 671.17,-191.1 670.81,-198.09"/>
</g>
<!-- Node8 -->
<g id="node8" class="node">
<title>Node8</title>
<g id="a_node8"><a xlink:href="group__as__iic__wait.html#gad3cfec26b8a73166e060108cf1444a2b" target="_top" xlink:title=" ">
<polygon fill="none" stroke="black" points="679,-227 679,-257 797,-257 797,-227 679,-227"/>
<text text-anchor="start" x="687" y="-245" font-family="Helvetica,sans-Serif" font-size="10.00">as_iic_busy_wait_for</text>
<text text-anchor="middle" x="738" y="-234" font-family="Helvetica,sans-Serif" font-size="10.00">_hwready</text>
</a>
</g>
</g>
<!-- Node3&#45;&gt;Node8 -->
<g id="edge7" class="edge">
<title>Node3&#45;&gt;Node8</title>
<path fill="none" stroke="midnightblue" d="M376.54,-188.64C392.59,-205.94 429.25,-241.71 469,-255 534.3,-276.82 613.53,-269.11 668.84,-258.7"/>
<polygon fill="midnightblue" stroke="midnightblue" points="669.74,-262.09 678.88,-256.73 668.39,-255.22 669.74,-262.09"/>
</g>
<!-- Node9 -->
<g id="node9" class="node">
<title>Node9</title>
<g id="a_node9"><a xlink:href="group__as__iic__user.html#gacdb0c71d0fcfe5e50a7f7316762cd0c0" target="_top" xlink:title=" ">
<polygon fill="none" stroke="black" points="854,-226.5 854,-245.5 945,-245.5 945,-226.5 854,-226.5"/>
<text text-anchor="middle" x="899.5" y="-233.5" font-family="Helvetica,sans-Serif" font-size="10.00">as_iic_is_ready</text>
</a>
</g>
</g>
<!-- Node3&#45;&gt;Node9 -->
<g id="edge19" class="edge">
<title>Node3&#45;&gt;Node9</title>
<path fill="none" stroke="midnightblue" d="M421.42,-169.49C505.93,-156.54 674.73,-139.2 810,-179 836.87,-186.9 863.29,-205.78 880.17,-219.65"/>
<polygon fill="midnightblue" stroke="midnightblue" points="878.19,-222.56 888.08,-226.36 882.72,-217.22 878.19,-222.56"/>
</g>
<!-- Node14 -->
<g id="node14" class="node">
<title>Node14</title>
<g id="a_node14"><a xlink:href="group__as__iic__wait.html#ga0bc5aad64893b674c42943fb64d17676" target="_top" xlink:title=" ">
<polygon fill="none" stroke="black" points="666,-314.5 666,-333.5 810,-333.5 810,-314.5 666,-314.5"/>
<text text-anchor="middle" x="738" y="-321.5" font-family="Helvetica,sans-Serif" font-size="10.00">as_iic_busy_wait_for_wait</text>
</a>
</g>
</g>
<!-- Node3&#45;&gt;Node14 -->
<g id="edge14" class="edge">
<title>Node3&#45;&gt;Node14</title>
<path fill="none" stroke="midnightblue" d="M374.85,-188.5C389.61,-208.19 426.52,-253.39 469,-275 527.15,-304.56 600.43,-316.5 655.66,-321.21"/>
<polygon fill="midnightblue" stroke="midnightblue" points="655.5,-324.71 665.75,-322.01 656.06,-317.73 655.5,-324.71"/>
</g>
<!-- Node16 -->
<g id="node16" class="node">
<title>Node16</title>
<g id="a_node16"><a xlink:href="group__as__iic__bitchecks.html#gad90ab4c2ed7fbca8f768c87cdb5794ee" target="_top" xlink:title=" ">
<polygon fill="none" stroke="black" points="494,-112.5 494,-131.5 605,-131.5 605,-112.5 494,-112.5"/>
<text text-anchor="middle" x="549.5" y="-119.5" font-family="Helvetica,sans-Serif" font-size="10.00">as_iic_is_initialized</text>
</a>
</g>
</g>
<!-- Node3&#45;&gt;Node16 -->
<g id="edge18" class="edge">
<title>Node3&#45;&gt;Node16</title>
<path fill="none" stroke="midnightblue" d="M396.68,-169.44C416.86,-162.75 444.54,-153.68 469,-146 481.14,-142.18 494.36,-138.14 506.48,-134.49"/>
<polygon fill="midnightblue" stroke="midnightblue" points="507.77,-137.75 516.34,-131.52 505.76,-131.05 507.77,-137.75"/>
</g>
<!-- Node17 -->
<g id="node17" class="node">
<title>Node17</title>
<g id="a_node17"><a xlink:href="group__as__iic__user.html#gae03c311fae3d6a830878a2b0c2c1c2bf" target="_top" xlink:title=" ">
<polygon fill="none" stroke="black" points="676,-74.5 676,-93.5 800,-93.5 800,-74.5 676,-74.5"/>
<text text-anchor="middle" x="738" y="-81.5" font-family="Helvetica,sans-Serif" font-size="10.00">as_iic_reset_hw_state</text>
</a>
</g>
</g>
<!-- Node3&#45;&gt;Node17 -->
<g id="edge20" class="edge">
<title>Node3&#45;&gt;Node17</title>
<path fill="none" stroke="midnightblue" d="M376.89,-169.36C393.23,-152.39 429.95,-117.6 469,-103 532.54,-79.23 610.39,-76.33 665.78,-78.27"/>
<polygon fill="midnightblue" stroke="midnightblue" points="665.72,-81.77 675.85,-78.68 666,-74.77 665.72,-81.77"/>
</g>
<!-- Node18 -->
<g id="node18" class="node">
<title>Node18</title>
<g id="a_node18"><a xlink:href="group__as__iic__reg__funcs.html#gac83a48fc09234a7a99adafb1ce565eb0" target="_top" xlink:title=" ">
<polygon fill="none" stroke="black" points="847.5,-74.5 847.5,-93.5 951.5,-93.5 951.5,-74.5 847.5,-74.5"/>
<text text-anchor="middle" x="899.5" y="-81.5" font-family="Helvetica,sans-Serif" font-size="10.00">as_iic_set_control</text>
</a>
</g>
</g>
<!-- Node3&#45;&gt;Node18 -->
<g id="edge24" class="edge">
<title>Node3&#45;&gt;Node18</title>
<path fill="none" stroke="midnightblue" d="M373.54,-169.34C386.74,-147.4 422.45,-94.07 469,-73 600.37,-13.53 778.26,-50.15 857.49,-71.65"/>
<polygon fill="midnightblue" stroke="midnightblue" points="856.98,-75.14 867.55,-74.44 858.85,-68.39 856.98,-75.14"/>
</g>
<!-- Node21 -->
<g id="node21" class="node">
<title>Node21</title>
<g id="a_node21"><a xlink:href="group__as__iic__reg__funcs.html#ga8058473baeded71954aa72ee8df24e9b" target="_top" xlink:title=" ">
<polygon fill="none" stroke="black" points="846,-36.5 846,-55.5 953,-55.5 953,-36.5 846,-36.5"/>
<text text-anchor="middle" x="899.5" y="-43.5" font-family="Helvetica,sans-Serif" font-size="10.00">as_iic_set_data_tx</text>
</a>
</g>
</g>
<!-- Node3&#45;&gt;Node21 -->
<g id="edge25" class="edge">
<title>Node3&#45;&gt;Node21</title>
<path fill="none" stroke="midnightblue" d="M371.28,-169.33C381.05,-142.29 412.81,-65.98 469,-37 598.56,29.84 780.68,-10.64 859.55,-33.52"/>
<polygon fill="midnightblue" stroke="midnightblue" points="858.96,-36.99 869.54,-36.48 860.95,-30.28 858.96,-36.99"/>
</g>
<!-- Node3&#45;&gt;Node22 -->
<g id="edge28" class="edge">
<title>Node3&#45;&gt;Node22</title>
<path fill="none" stroke="midnightblue" d="M396.68,-188.56C416.86,-195.24 444.54,-204.31 469,-212 481.14,-215.81 494.36,-219.85 506.48,-223.5"/>
<polygon fill="midnightblue" stroke="midnightblue" points="505.76,-226.94 516.34,-226.47 507.77,-220.24 505.76,-226.94"/>
</g>
<!-- Node5 -->
<g id="node5" class="node">
<title>Node5</title>
<g id="a_node5"><a xlink:href="group__as__iic__reg__funcs.html#ga8daa8fde0a7776aa2f5b335250b5aa2a" target="_top" xlink:title=" ">
<polygon fill="none" stroke="black" points="989,-203.5 989,-222.5 1111,-222.5 1111,-203.5 989,-203.5"/>
<text text-anchor="middle" x="1050" y="-210.5" font-family="Helvetica,sans-Serif" font-size="10.00">as_iic_get_status_reg</text>
</a>
</g>
</g>
<!-- Node4&#45;&gt;Node5 -->
<g id="edge4" class="edge">
<title>Node4&#45;&gt;Node5</title>
<path fill="none" stroke="midnightblue" d="M795.14,-200.71C846.63,-203.2 923.11,-206.9 978.66,-209.59"/>
<polygon fill="midnightblue" stroke="midnightblue" points="978.62,-213.09 988.78,-210.08 978.96,-206.1 978.62,-213.09"/>
</g>
<!-- Node6 -->
<g id="node6" class="node">
<title>Node6</title>
<g id="a_node6"><a xlink:href="group__asterics__support.html#ga8e5c2bfd2e4498d10289377bd94cef07" target="_top" xlink:title=" ">
<polygon fill="none" stroke="black" points="1165.5,-170.5 1165.5,-189.5 1241.5,-189.5 1241.5,-170.5 1165.5,-170.5"/>
<text text-anchor="middle" x="1203.5" y="-177.5" font-family="Helvetica,sans-Serif" font-size="10.00">as_reg_read</text>
</a>
</g>
</g>
<!-- Node5&#45;&gt;Node6 -->
<g id="edge5" class="edge">
<title>Node5&#45;&gt;Node6</title>
<path fill="none" stroke="midnightblue" d="M1094.82,-203.45C1113.87,-199.3 1136.22,-194.43 1155.61,-190.21"/>
<polygon fill="midnightblue" stroke="midnightblue" points="1156.41,-193.62 1165.44,-188.07 1154.92,-186.78 1156.41,-193.62"/>
</g>
<!-- Node7 -->
<g id="node7" class="node">
<title>Node7</title>
<g id="a_node7"><a xlink:href="group__asterics__support.html#ga4c6d688b840a6e2edc9bc0b8ed961677" target="_top" xlink:title=" ">
<polygon fill="none" stroke="black" points="1296,-170.5 1296,-189.5 1396,-189.5 1396,-170.5 1296,-170.5"/>
<text text-anchor="middle" x="1346" y="-177.5" font-family="Helvetica,sans-Serif" font-size="10.00">as_reg_to_uint32</text>
</a>
</g>
</g>
<!-- Node6&#45;&gt;Node7 -->
<g id="edge6" class="edge">
<title>Node6&#45;&gt;Node7</title>
<path fill="none" stroke="midnightblue" d="M1241.78,-180C1255.26,-180 1270.83,-180 1285.72,-180"/>
<polygon fill="midnightblue" stroke="midnightblue" points="1285.89,-183.5 1295.89,-180 1285.89,-176.5 1285.89,-183.5"/>
</g>
<!-- Node8&#45;&gt;Node9 -->
<g id="edge8" class="edge">
<title>Node8&#45;&gt;Node9</title>
<path fill="none" stroke="midnightblue" d="M797.03,-239.81C812.23,-239.24 828.57,-238.63 843.6,-238.06"/>
<polygon fill="midnightblue" stroke="midnightblue" points="843.9,-241.55 853.76,-237.68 843.64,-234.56 843.9,-241.55"/>
</g>
<!-- Node10 -->
<g id="node10" class="node">
<title>Node10</title>
<g id="a_node10"><a xlink:href="group__asterics__support.html#gab803703ab5b845023ca31b7b2664419c" target="_top" xlink:title=" ">
<polygon fill="none" stroke="black" points="870,-276.5 870,-295.5 929,-295.5 929,-276.5 870,-276.5"/>
<text text-anchor="middle" x="899.5" y="-283.5" font-family="Helvetica,sans-Serif" font-size="10.00">as_sleep</text>
</a>
</g>
</g>
<!-- Node8&#45;&gt;Node10 -->
<g id="edge10" class="edge">
<title>Node8&#45;&gt;Node10</title>
<path fill="none" stroke="midnightblue" d="M793.44,-257.02C815.37,-263.06 840.14,-269.9 860.12,-275.41"/>
<polygon fill="midnightblue" stroke="midnightblue" points="859.23,-278.79 869.8,-278.08 861.09,-272.05 859.23,-278.79"/>
</g>
<!-- Node9&#45;&gt;Node5 -->
<g id="edge9" class="edge">
<title>Node9&#45;&gt;Node5</title>
<path fill="none" stroke="midnightblue" d="M945.05,-229.1C955.69,-227.45 967.31,-225.65 978.79,-223.87"/>
<polygon fill="midnightblue" stroke="midnightblue" points="979.47,-227.31 988.82,-222.32 978.4,-220.39 979.47,-227.31"/>
</g>
<!-- Node11 -->
<g id="node11" class="node">
<title>Node11</title>
<g id="a_node11"><a xlink:href="group__asterics__support.html#ga284d9e0d170cf7cabc16ccd7e62d95bd" target="_top" xlink:title=" ">
<polygon fill="none" stroke="black" points="1021.5,-276.5 1021.5,-295.5 1078.5,-295.5 1078.5,-276.5 1021.5,-276.5"/>
<text text-anchor="middle" x="1050" y="-283.5" font-family="Helvetica,sans-Serif" font-size="10.00">as_yield</text>
</a>
</g>
</g>
<!-- Node10&#45;&gt;Node11 -->
<g id="edge11" class="edge">
<title>Node10&#45;&gt;Node11</title>
<path fill="none" stroke="midnightblue" d="M929.13,-286C952.54,-286 985.82,-286 1011.38,-286"/>
<polygon fill="midnightblue" stroke="midnightblue" points="1011.46,-289.5 1021.46,-286 1011.46,-282.5 1011.46,-289.5"/>
</g>
<!-- Node12 -->
<g id="node12" class="node">
<title>Node12</title>
<g id="a_node12"><a xlink:href="group__asterics__support.html#gad294e0c5530bd6fb800a2394179070e1" target="_top" xlink:title=" ">
<polygon fill="none" stroke="black" points="1158.5,-295.5 1158.5,-314.5 1248.5,-314.5 1248.5,-295.5 1158.5,-295.5"/>
<text text-anchor="middle" x="1203.5" y="-302.5" font-family="Helvetica,sans-Serif" font-size="10.00">as_mutex_lock</text>
</a>
</g>
</g>
<!-- Node11&#45;&gt;Node12 -->
<g id="edge12" class="edge">
<title>Node11&#45;&gt;Node12</title>
<path fill="none" stroke="midnightblue" d="M1078.79,-289.48C1098.13,-291.91 1124.57,-295.22 1148.04,-298.17"/>
<polygon fill="midnightblue" stroke="midnightblue" points="1147.88,-301.67 1158.23,-299.44 1148.75,-294.73 1147.88,-301.67"/>
</g>
<!-- Node13 -->
<g id="node13" class="node">
<title>Node13</title>
<g id="a_node13"><a xlink:href="group__asterics__support.html#ga07e09e825f2608339f6213edb9d0c8b3" target="_top" xlink:title=" ">
<polygon fill="none" stroke="black" points="1152.5,-257.5 1152.5,-276.5 1254.5,-276.5 1254.5,-257.5 1152.5,-257.5"/>
<text text-anchor="middle" x="1203.5" y="-264.5" font-family="Helvetica,sans-Serif" font-size="10.00">as_mutex_unlock</text>
</a>
</g>
</g>
<!-- Node11&#45;&gt;Node13 -->
<g id="edge13" class="edge">
<title>Node11&#45;&gt;Node13</title>
<path fill="none" stroke="midnightblue" d="M1078.79,-282.51C1096.57,-280.28 1120.33,-277.3 1142.28,-274.55"/>
<polygon fill="midnightblue" stroke="midnightblue" points="1142.72,-278.02 1152.21,-273.3 1141.85,-271.07 1142.72,-278.02"/>
</g>
<!-- Node14&#45;&gt;Node10 -->
<g id="edge17" class="edge">
<title>Node14&#45;&gt;Node10</title>
<path fill="none" stroke="midnightblue" d="M779.25,-314.41C803.96,-308.52 835.44,-301.02 859.85,-295.21"/>
<polygon fill="midnightblue" stroke="midnightblue" points="860.92,-298.55 869.83,-292.83 859.3,-291.74 860.92,-298.55"/>
</g>
<!-- Node15 -->
<g id="node15" class="node">
<title>Node15</title>
<g id="a_node15"><a xlink:href="group__as__iic__bitchecks.html#ga4629e4514c3531d0bcd44ae20abc6bad" target="_top" xlink:title=" ">
<polygon fill="none" stroke="black" points="850,-314.5 850,-333.5 949,-333.5 949,-314.5 850,-314.5"/>
<text text-anchor="middle" x="899.5" y="-321.5" font-family="Helvetica,sans-Serif" font-size="10.00">as_iic_is_waiting</text>
</a>
</g>
</g>
<!-- Node14&#45;&gt;Node15 -->
<g id="edge15" class="edge">
<title>Node14&#45;&gt;Node15</title>
<path fill="none" stroke="midnightblue" d="M810.35,-324C820.1,-324 830.01,-324 839.51,-324"/>
<polygon fill="midnightblue" stroke="midnightblue" points="839.62,-327.5 849.62,-324 839.62,-320.5 839.62,-327.5"/>
</g>
<!-- Node15&#45;&gt;Node5 -->
<g id="edge16" class="edge">
<title>Node15&#45;&gt;Node5</title>
<path fill="none" stroke="midnightblue" d="M934.11,-314.48C940.64,-311.91 947.24,-308.77 953,-305 972.46,-292.25 972.34,-283.24 989,-267 1002.37,-253.96 1018.08,-239.87 1030.07,-229.35"/>
<polygon fill="midnightblue" stroke="midnightblue" points="1032.46,-231.9 1037.7,-222.69 1027.86,-226.63 1032.46,-231.9"/>
</g>
<!-- Node17&#45;&gt;Node18 -->
<g id="edge21" class="edge">
<title>Node17&#45;&gt;Node18</title>
<path fill="none" stroke="midnightblue" d="M800.21,-84C812.36,-84 825.11,-84 837.26,-84"/>
<polygon fill="midnightblue" stroke="midnightblue" points="837.3,-87.5 847.3,-84 837.3,-80.5 837.3,-87.5"/>
</g>
<!-- Node19 -->
<g id="node19" class="node">
<title>Node19</title>
<g id="a_node19"><a xlink:href="group__asterics__support.html#ga6345b997e24a6cd5f9143cef27629d49" target="_top" xlink:title=" ">
<polygon fill="none" stroke="black" points="1010.5,-55.5 1010.5,-74.5 1089.5,-74.5 1089.5,-55.5 1010.5,-55.5"/>
<text text-anchor="middle" x="1050" y="-62.5" font-family="Helvetica,sans-Serif" font-size="10.00">as_reg_write</text>
</a>
</g>
</g>
<!-- Node18&#45;&gt;Node19 -->
<g id="edge22" class="edge">
<title>Node18&#45;&gt;Node19</title>
<path fill="none" stroke="midnightblue" d="M951.61,-77.46C967.43,-75.43 984.82,-73.21 1000.47,-71.21"/>
<polygon fill="midnightblue" stroke="midnightblue" points="1001,-74.67 1010.47,-69.93 1000.11,-67.72 1001,-74.67"/>
</g>
<!-- Node20 -->
<g id="node20" class="node">
<title>Node20</title>
<g id="a_node20"><a xlink:href="group__asterics__support.html#gab651cc2c035ce61b354578434e59f822" target="_top" xlink:title=" ">
<polygon fill="none" stroke="black" points="1147,-55.5 1147,-74.5 1260,-74.5 1260,-55.5 1147,-55.5"/>
<text text-anchor="middle" x="1203.5" y="-62.5" font-family="Helvetica,sans-Serif" font-size="10.00">as_reg_from_uint32</text>
</a>
</g>
</g>
<!-- Node19&#45;&gt;Node20 -->
<g id="edge23" class="edge">
<title>Node19&#45;&gt;Node20</title>
<path fill="none" stroke="midnightblue" d="M1089.62,-65C1103.86,-65 1120.43,-65 1136.41,-65"/>
<polygon fill="midnightblue" stroke="midnightblue" points="1136.79,-68.5 1146.79,-65 1136.79,-61.5 1136.79,-68.5"/>
</g>
<!-- Node21&#45;&gt;Node6 -->
<g id="edge26" class="edge">
<title>Node21&#45;&gt;Node6</title>
<path fill="none" stroke="midnightblue" d="M929.12,-55.54C936.95,-58.37 945.38,-61.62 953,-65 969.55,-72.31 972.74,-76.06 989,-84 1052.57,-115.02 1128.38,-148.24 1170.41,-166.32"/>
<polygon fill="midnightblue" stroke="midnightblue" points="1169.27,-169.64 1179.84,-170.37 1172.04,-163.21 1169.27,-169.64"/>
</g>
<!-- Node21&#45;&gt;Node19 -->
<g id="edge27" class="edge">
<title>Node21&#45;&gt;Node19</title>
<path fill="none" stroke="midnightblue" d="M953.27,-52.75C968.58,-54.71 985.22,-56.84 1000.27,-58.76"/>
<polygon fill="midnightblue" stroke="midnightblue" points="1000.03,-62.26 1010.4,-60.06 1000.92,-55.32 1000.03,-62.26"/>
</g>
<!-- Node22&#45;&gt;Node4 -->
<g id="edge29" class="edge">
<title>Node22&#45;&gt;Node4</title>
<path fill="none" stroke="midnightblue" d="M597.56,-226.41C622.73,-221.28 653.9,-214.93 680.38,-209.53"/>
<polygon fill="midnightblue" stroke="midnightblue" points="681.18,-212.94 690.28,-207.52 679.78,-206.08 681.18,-212.94"/>
</g>
<!-- Node22&#45;&gt;Node8 -->
<g id="edge30" class="edge">
<title>Node22&#45;&gt;Node8</title>
<path fill="none" stroke="midnightblue" d="M630.13,-238.56C642.9,-238.97 656.01,-239.39 668.48,-239.79"/>
<polygon fill="midnightblue" stroke="midnightblue" points="668.68,-243.3 678.79,-240.12 668.9,-236.3 668.68,-243.3"/>
</g>
<!-- Node22&#45;&gt;Node10 -->
<g id="edge33" class="edge">
<title>Node22&#45;&gt;Node10</title>
<path fill="none" stroke="midnightblue" d="M580.08,-245.52C603.22,-252.59 636.34,-261.85 666,-267 733.37,-278.69 813.02,-283.22 859.43,-284.96"/>
<polygon fill="midnightblue" stroke="midnightblue" points="859.54,-288.46 869.65,-285.31 859.78,-281.47 859.54,-288.46"/>
</g>
<!-- Node22&#45;&gt;Node17 -->
<g id="edge31" class="edge">
<title>Node22&#45;&gt;Node17</title>
<path fill="none" stroke="midnightblue" d="M558.11,-226.37C579.42,-199.62 639.86,-125.17 666,-108 672.58,-103.68 680.01,-100.06 687.52,-97.05"/>
<polygon fill="midnightblue" stroke="midnightblue" points="688.84,-100.29 697.03,-93.56 686.43,-93.72 688.84,-100.29"/>
</g>
<!-- Node22&#45;&gt;Node18 -->
<g id="edge32" class="edge">
<title>Node22&#45;&gt;Node18</title>
<path fill="none" stroke="midnightblue" d="M569.11,-226.31C591.78,-214.62 631.34,-194.61 666,-179 735.45,-147.72 818.37,-114.89 864.05,-97.19"/>
<polygon fill="midnightblue" stroke="midnightblue" points="865.41,-100.42 873.48,-93.55 862.89,-93.89 865.41,-100.42"/>
</g>
</g>
</svg>
