<?xml version="1.0" encoding="UTF-8" standalone="no"?>
<!DOCTYPE svg PUBLIC "-//W3C//DTD SVG 1.1//EN"
 "http://www.w3.org/Graphics/SVG/1.1/DTD/svg11.dtd">
<!-- Generated by graphviz version 2.43.0 (0)
 -->
<!-- Title: as_iic_read_transaction Pages: 1 -->
<svg width="915pt" height="275pt"
 viewBox="0.00 0.00 915.00 275.00" xmlns="http://www.w3.org/2000/svg" xmlns:xlink="http://www.w3.org/1999/xlink">
<g id="graph0" class="graph" transform="scale(1 1) rotate(0) translate(4 271)">
<title>as_iic_read_transaction</title>
<!-- Node1 -->
<g id="node1" class="node">
<title>Node1</title>
<g id="a_node1"><a xlink:title=" ">
<polygon fill="#bfbfbf" stroke="black" points="0,-95.5 0,-114.5 131,-114.5 131,-95.5 0,-95.5"/>
<text text-anchor="middle" x="65.5" y="-102.5" font-family="Helvetica,sans-Serif" font-size="10.00">as_iic_read_transaction</text>
</a>
</g>
</g>
<!-- Node2 -->
<g id="node2" class="node">
<title>Node2</title>
<g id="a_node2"><a xlink:href="group__as__iic__bitchecks.html#gaa4e8718c748b5a7e956a38ffd6dbe15d" target="_top" xlink:title=" ">
<polygon fill="none" stroke="black" points="347,-152.5 347,-171.5 461,-171.5 461,-152.5 347,-152.5"/>
<text text-anchor="middle" x="404" y="-159.5" font-family="Helvetica,sans-Serif" font-size="10.00">as_iic_ack_received</text>
</a>
</g>
</g>
<!-- Node1&#45;&gt;Node2 -->
<g id="edge1" class="edge">
<title>Node1&#45;&gt;Node2</title>
<path fill="none" stroke="midnightblue" d="M86.77,-114.6C106.7,-123.58 138.24,-136.54 167,-143 223.23,-155.63 288.66,-160.12 336.35,-161.61"/>
<polygon fill="midnightblue" stroke="midnightblue" points="336.45,-165.11 346.55,-161.89 336.65,-158.11 336.45,-165.11"/>
</g>
<!-- Node6 -->
<g id="node6" class="node">
<title>Node6</title>
<g id="a_node6"><a xlink:href="group__as__iic__wait.html#ga0bc5aad64893b674c42943fb64d17676" target="_top" xlink:title=" ">
<polygon fill="none" stroke="black" points="167,-190.5 167,-209.5 311,-209.5 311,-190.5 167,-190.5"/>
<text text-anchor="middle" x="239" y="-197.5" font-family="Helvetica,sans-Serif" font-size="10.00">as_iic_busy_wait_for_wait</text>
</a>
</g>
</g>
<!-- Node1&#45;&gt;Node6 -->
<g id="edge5" class="edge">
<title>Node1&#45;&gt;Node6</title>
<path fill="none" stroke="midnightblue" d="M77.86,-114.7C95.77,-129.61 132.15,-158.28 167,-176 175.35,-180.25 184.61,-184 193.62,-187.21"/>
<polygon fill="midnightblue" stroke="midnightblue" points="192.64,-190.57 203.24,-190.46 194.89,-183.94 192.64,-190.57"/>
</g>
<!-- Node12 -->
<g id="node12" class="node">
<title>Node12</title>
<g id="a_node12"><a xlink:href="group__as__iic__reg__funcs.html#gace5813084165559c81fe11db6b628b5e" target="_top" xlink:title=" ">
<polygon fill="none" stroke="black" points="506,-76.5 506,-95.5 613,-95.5 613,-76.5 506,-76.5"/>
<text text-anchor="middle" x="559.5" y="-83.5" font-family="Helvetica,sans-Serif" font-size="10.00">as_iic_get_rx_byte</text>
</a>
</g>
</g>
<!-- Node1&#45;&gt;Node12 -->
<g id="edge12" class="edge">
<title>Node1&#45;&gt;Node12</title>
<path fill="none" stroke="midnightblue" d="M131.07,-102.51C225.93,-98.84 401.84,-92.05 495.68,-88.43"/>
<polygon fill="midnightblue" stroke="midnightblue" points="496.03,-91.92 505.88,-88.03 495.76,-84.92 496.03,-91.92"/>
</g>
<!-- Node13 -->
<g id="node13" class="node">
<title>Node13</title>
<g id="a_node13"><a xlink:href="group__as__iic__bitchecks.html#ga2ef7a1f9767986f2033697f584cd4feb" target="_top" xlink:title=" ">
<polygon fill="none" stroke="black" points="184,-114.5 184,-133.5 294,-133.5 294,-114.5 184,-114.5"/>
<text text-anchor="middle" x="239" y="-121.5" font-family="Helvetica,sans-Serif" font-size="10.00">as_iic_is_readwrite</text>
</a>
</g>
</g>
<!-- Node1&#45;&gt;Node13 -->
<g id="edge14" class="edge">
<title>Node1&#45;&gt;Node13</title>
<path fill="none" stroke="midnightblue" d="M131.34,-112.18C145.3,-113.73 160.06,-115.37 174,-116.91"/>
<polygon fill="midnightblue" stroke="midnightblue" points="173.65,-120.39 183.98,-118.01 174.42,-113.44 173.65,-120.39"/>
</g>
<!-- Node15 -->
<g id="node15" class="node">
<title>Node15</title>
<g id="a_node15"><a xlink:href="group__as__iic__user.html#gae03c311fae3d6a830878a2b0c2c1c2bf" target="_top" xlink:title=" ">
<polygon fill="none" stroke="black" points="177,-0.5 177,-19.5 301,-19.5 301,-0.5 177,-0.5"/>
<text text-anchor="middle" x="239" y="-7.5" font-family="Helvetica,sans-Serif" font-size="10.00">as_iic_reset_hw_state</text>
</a>
</g>
</g>
<!-- Node1&#45;&gt;Node15 -->
<g id="edge17" class="edge">
<title>Node1&#45;&gt;Node15</title>
<path fill="none" stroke="midnightblue" d="M77.86,-95.3C95.77,-80.39 132.15,-51.72 167,-34 175.35,-29.75 184.61,-26 193.62,-22.79"/>
<polygon fill="midnightblue" stroke="midnightblue" points="194.89,-26.06 203.24,-19.54 192.64,-19.43 194.89,-26.06"/>
</g>
<!-- Node16 -->
<g id="node16" class="node">
<title>Node16</title>
<g id="a_node16"><a xlink:href="group__as__iic__reg__funcs.html#gac83a48fc09234a7a99adafb1ce565eb0" target="_top" xlink:title=" ">
<polygon fill="none" stroke="black" points="352,-19.5 352,-38.5 456,-38.5 456,-19.5 352,-19.5"/>
<text text-anchor="middle" x="404" y="-26.5" font-family="Helvetica,sans-Serif" font-size="10.00">as_iic_set_control</text>
</a>
</g>
</g>
<!-- Node1&#45;&gt;Node16 -->
<g id="edge21" class="edge">
<title>Node1&#45;&gt;Node16</title>
<path fill="none" stroke="midnightblue" d="M92.24,-95.47C112.38,-88.27 141.19,-78.56 167,-72 225.79,-57.07 294.07,-45.21 342.01,-37.76"/>
<polygon fill="midnightblue" stroke="midnightblue" points="342.57,-41.21 351.93,-36.24 341.51,-34.29 342.57,-41.21"/>
</g>
<!-- Node3 -->
<g id="node3" class="node">
<title>Node3</title>
<g id="a_node3"><a xlink:href="group__as__iic__reg__funcs.html#ga8daa8fde0a7776aa2f5b335250b5aa2a" target="_top" xlink:title=" ">
<polygon fill="none" stroke="black" points="498.5,-152.5 498.5,-171.5 620.5,-171.5 620.5,-152.5 498.5,-152.5"/>
<text text-anchor="middle" x="559.5" y="-159.5" font-family="Helvetica,sans-Serif" font-size="10.00">as_iic_get_status_reg</text>
</a>
</g>
</g>
<!-- Node2&#45;&gt;Node3 -->
<g id="edge2" class="edge">
<title>Node2&#45;&gt;Node3</title>
<path fill="none" stroke="midnightblue" d="M461.29,-162C470.05,-162 479.2,-162 488.23,-162"/>
<polygon fill="midnightblue" stroke="midnightblue" points="488.35,-165.5 498.35,-162 488.35,-158.5 488.35,-165.5"/>
</g>
<!-- Node4 -->
<g id="node4" class="node">
<title>Node4</title>
<g id="a_node4"><a xlink:href="group__asterics__support.html#ga8e5c2bfd2e4498d10289377bd94cef07" target="_top" xlink:title=" ">
<polygon fill="none" stroke="black" points="676.5,-114.5 676.5,-133.5 752.5,-133.5 752.5,-114.5 676.5,-114.5"/>
<text text-anchor="middle" x="714.5" y="-121.5" font-family="Helvetica,sans-Serif" font-size="10.00">as_reg_read</text>
</a>
</g>
</g>
<!-- Node3&#45;&gt;Node4 -->
<g id="edge3" class="edge">
<title>Node3&#45;&gt;Node4</title>
<path fill="none" stroke="midnightblue" d="M599.11,-152.41C619.59,-147.32 644.92,-141.03 666.53,-135.67"/>
<polygon fill="midnightblue" stroke="midnightblue" points="667.63,-139 676.49,-133.19 665.94,-132.21 667.63,-139"/>
</g>
<!-- Node5 -->
<g id="node5" class="node">
<title>Node5</title>
<g id="a_node5"><a xlink:href="group__asterics__support.html#ga4c6d688b840a6e2edc9bc0b8ed961677" target="_top" xlink:title=" ">
<polygon fill="none" stroke="black" points="807,-114.5 807,-133.5 907,-133.5 907,-114.5 807,-114.5"/>
<text text-anchor="middle" x="857" y="-121.5" font-family="Helvetica,sans-Serif" font-size="10.00">as_reg_to_uint32</text>
</a>
</g>
</g>
<!-- Node4&#45;&gt;Node5 -->
<g id="edge4" class="edge">
<title>Node4&#45;&gt;Node5</title>
<path fill="none" stroke="midnightblue" d="M752.78,-124C766.26,-124 781.83,-124 796.72,-124"/>
<polygon fill="midnightblue" stroke="midnightblue" points="796.89,-127.5 806.89,-124 796.89,-120.5 796.89,-127.5"/>
</g>
<!-- Node7 -->
<g id="node7" class="node">
<title>Node7</title>
<g id="a_node7"><a xlink:href="group__as__iic__bitchecks.html#ga4629e4514c3531d0bcd44ae20abc6bad" target="_top" xlink:title=" ">
<polygon fill="none" stroke="black" points="354.5,-190.5 354.5,-209.5 453.5,-209.5 453.5,-190.5 354.5,-190.5"/>
<text text-anchor="middle" x="404" y="-197.5" font-family="Helvetica,sans-Serif" font-size="10.00">as_iic_is_waiting</text>
</a>
</g>
</g>
<!-- Node6&#45;&gt;Node7 -->
<g id="edge6" class="edge">
<title>Node6&#45;&gt;Node7</title>
<path fill="none" stroke="midnightblue" d="M311.02,-200C322.07,-200 333.39,-200 344.13,-200"/>
<polygon fill="midnightblue" stroke="midnightblue" points="344.23,-203.5 354.23,-200 344.23,-196.5 344.23,-203.5"/>
</g>
<!-- Node8 -->
<g id="node8" class="node">
<title>Node8</title>
<g id="a_node8"><a xlink:href="group__asterics__support.html#gab803703ab5b845023ca31b7b2664419c" target="_top" xlink:title=" ">
<polygon fill="none" stroke="black" points="374.5,-228.5 374.5,-247.5 433.5,-247.5 433.5,-228.5 374.5,-228.5"/>
<text text-anchor="middle" x="404" y="-235.5" font-family="Helvetica,sans-Serif" font-size="10.00">as_sleep</text>
</a>
</g>
</g>
<!-- Node6&#45;&gt;Node8 -->
<g id="edge8" class="edge">
<title>Node6&#45;&gt;Node8</title>
<path fill="none" stroke="midnightblue" d="M281.13,-209.59C306.75,-215.56 339.47,-223.19 364.56,-229.04"/>
<polygon fill="midnightblue" stroke="midnightblue" points="363.93,-232.49 374.46,-231.35 365.52,-225.67 363.93,-232.49"/>
</g>
<!-- Node7&#45;&gt;Node3 -->
<g id="edge7" class="edge">
<title>Node7&#45;&gt;Node3</title>
<path fill="none" stroke="midnightblue" d="M443.73,-190.41C463.9,-185.42 488.75,-179.27 510.16,-173.97"/>
<polygon fill="midnightblue" stroke="midnightblue" points="511.18,-177.32 520.04,-171.52 509.5,-170.53 511.18,-177.32"/>
</g>
<!-- Node9 -->
<g id="node9" class="node">
<title>Node9</title>
<g id="a_node9"><a xlink:href="group__asterics__support.html#ga284d9e0d170cf7cabc16ccd7e62d95bd" target="_top" xlink:title=" ">
<polygon fill="none" stroke="black" points="531,-228.5 531,-247.5 588,-247.5 588,-228.5 531,-228.5"/>
<text text-anchor="middle" x="559.5" y="-235.5" font-family="Helvetica,sans-Serif" font-size="10.00">as_yield</text>
</a>
</g>
</g>
<!-- Node8&#45;&gt;Node9 -->
<g id="edge9" class="edge">
<title>Node8&#45;&gt;Node9</title>
<path fill="none" stroke="midnightblue" d="M433.51,-238C458.08,-238 493.74,-238 520.69,-238"/>
<polygon fill="midnightblue" stroke="midnightblue" points="520.92,-241.5 530.92,-238 520.92,-234.5 520.92,-241.5"/>
</g>
<!-- Node10 -->
<g id="node10" class="node">
<title>Node10</title>
<g id="a_node10"><a xlink:href="group__asterics__support.html#gad294e0c5530bd6fb800a2394179070e1" target="_top" xlink:title=" ">
<polygon fill="none" stroke="black" points="669.5,-247.5 669.5,-266.5 759.5,-266.5 759.5,-247.5 669.5,-247.5"/>
<text text-anchor="middle" x="714.5" y="-254.5" font-family="Helvetica,sans-Serif" font-size="10.00">as_mutex_lock</text>
</a>
</g>
</g>
<!-- Node9&#45;&gt;Node10 -->
<g id="edge10" class="edge">
<title>Node9&#45;&gt;Node10</title>
<path fill="none" stroke="midnightblue" d="M588.21,-241.44C608.02,-243.9 635.34,-247.29 659.41,-250.28"/>
<polygon fill="midnightblue" stroke="midnightblue" points="659.14,-253.78 669.49,-251.53 660,-246.83 659.14,-253.78"/>
</g>
<!-- Node11 -->
<g id="node11" class="node">
<title>Node11</title>
<g id="a_node11"><a xlink:href="group__asterics__support.html#ga07e09e825f2608339f6213edb9d0c8b3" target="_top" xlink:title=" ">
<polygon fill="none" stroke="black" points="663.5,-209.5 663.5,-228.5 765.5,-228.5 765.5,-209.5 663.5,-209.5"/>
<text text-anchor="middle" x="714.5" y="-216.5" font-family="Helvetica,sans-Serif" font-size="10.00">as_mutex_unlock</text>
</a>
</g>
</g>
<!-- Node9&#45;&gt;Node11 -->
<g id="edge11" class="edge">
<title>Node9&#45;&gt;Node11</title>
<path fill="none" stroke="midnightblue" d="M588.21,-234.56C606.35,-232.31 630.79,-229.27 653.26,-226.48"/>
<polygon fill="midnightblue" stroke="midnightblue" points="653.92,-229.93 663.41,-225.22 653.06,-222.98 653.92,-229.93"/>
</g>
<!-- Node12&#45;&gt;Node4 -->
<g id="edge13" class="edge">
<title>Node12&#45;&gt;Node4</title>
<path fill="none" stroke="midnightblue" d="M599.11,-95.59C619.59,-100.68 644.92,-106.97 666.53,-112.33"/>
<polygon fill="midnightblue" stroke="midnightblue" points="665.94,-115.79 676.49,-114.81 667.63,-109 665.94,-115.79"/>
</g>
<!-- Node14 -->
<g id="node14" class="node">
<title>Node14</title>
<g id="a_node14"><a xlink:href="group__as__iic__reg__funcs.html#gaca309e97934beed04c02e31ba9cfbd3a" target="_top" xlink:title=" ">
<polygon fill="none" stroke="black" points="497,-114.5 497,-133.5 622,-133.5 622,-114.5 497,-114.5"/>
<text text-anchor="middle" x="559.5" y="-121.5" font-family="Helvetica,sans-Serif" font-size="10.00">as_iic_get_control_reg</text>
</a>
</g>
</g>
<!-- Node13&#45;&gt;Node14 -->
<g id="edge15" class="edge">
<title>Node13&#45;&gt;Node14</title>
<path fill="none" stroke="midnightblue" d="M294.03,-124C347.02,-124 428.14,-124 486.57,-124"/>
<polygon fill="midnightblue" stroke="midnightblue" points="486.84,-127.5 496.84,-124 486.84,-120.5 486.84,-127.5"/>
</g>
<!-- Node14&#45;&gt;Node4 -->
<g id="edge16" class="edge">
<title>Node14&#45;&gt;Node4</title>
<path fill="none" stroke="midnightblue" d="M622.29,-124C636.83,-124 652.11,-124 665.91,-124"/>
<polygon fill="midnightblue" stroke="midnightblue" points="666.14,-127.5 676.14,-124 666.14,-120.5 666.14,-127.5"/>
</g>
<!-- Node15&#45;&gt;Node16 -->
<g id="edge18" class="edge">
<title>Node15&#45;&gt;Node16</title>
<path fill="none" stroke="midnightblue" d="M301.16,-17.13C314.48,-18.68 328.57,-20.32 341.88,-21.88"/>
<polygon fill="midnightblue" stroke="midnightblue" points="341.55,-25.36 351.89,-23.04 342.36,-18.41 341.55,-25.36"/>
</g>
<!-- Node17 -->
<g id="node17" class="node">
<title>Node17</title>
<g id="a_node17"><a xlink:href="group__asterics__support.html#ga6345b997e24a6cd5f9143cef27629d49" target="_top" xlink:title=" ">
<polygon fill="none" stroke="black" points="520,-19.5 520,-38.5 599,-38.5 599,-19.5 520,-19.5"/>
<text text-anchor="middle" x="559.5" y="-26.5" font-family="Helvetica,sans-Serif" font-size="10.00">as_reg_write</text>
</a>
</g>
</g>
<!-- Node16&#45;&gt;Node17 -->
<g id="edge19" class="edge">
<title>Node16&#45;&gt;Node17</title>
<path fill="none" stroke="midnightblue" d="M456.11,-29C473.3,-29 492.43,-29 509.46,-29"/>
<polygon fill="midnightblue" stroke="midnightblue" points="509.75,-32.5 519.75,-29 509.75,-25.5 509.75,-32.5"/>
</g>
<!-- Node18 -->
<g id="node18" class="node">
<title>Node18</title>
<g id="a_node18"><a xlink:href="group__asterics__support.html#gab651cc2c035ce61b354578434e59f822" target="_top" xlink:title=" ">
<polygon fill="none" stroke="black" points="658,-19.5 658,-38.5 771,-38.5 771,-19.5 658,-19.5"/>
<text text-anchor="middle" x="714.5" y="-26.5" font-family="Helvetica,sans-Serif" font-size="10.00">as_reg_from_uint32</text>
</a>
</g>
</g>
<!-- Node17&#45;&gt;Node18 -->
<g id="edge20" class="edge">
<title>Node17&#45;&gt;Node18</title>
<path fill="none" stroke="midnightblue" d="M599.11,-29C613.84,-29 631.09,-29 647.65,-29"/>
<polygon fill="midnightblue" stroke="midnightblue" points="647.85,-32.5 657.85,-29 647.85,-25.5 647.85,-32.5"/>
</g>
</g>
</svg>
