<?xml version="1.0" encoding="UTF-8" standalone="no"?>
<!DOCTYPE svg PUBLIC "-//W3C//DTD SVG 1.1//EN"
 "http://www.w3.org/Graphics/SVG/1.1/DTD/svg11.dtd">
<!-- Generated by graphviz version 2.43.0 (0)
 -->
<!-- Title: asterics_remove Pages: 1 -->
<svg width="356pt" height="142pt"
 viewBox="0.00 0.00 356.00 142.00" xmlns="http://www.w3.org/2000/svg" xmlns:xlink="http://www.w3.org/1999/xlink">
<g id="graph0" class="graph" transform="scale(1 1) rotate(0) translate(4 138)">
<title>asterics_remove</title>
<!-- Node1 -->
<g id="node1" class="node">
<title>Node1</title>
<g id="a_node1"><a xlink:title=" ">
<polygon fill="#bfbfbf" stroke="black" points="0,-57.5 0,-76.5 98,-76.5 98,-57.5 0,-57.5"/>
<text text-anchor="middle" x="49" y="-64.5" font-family="Helvetica,sans-Serif" font-size="10.00">asterics_remove</text>
</a>
</g>
</g>
<!-- Node2 -->
<g id="node2" class="node">
<title>Node2</title>
<g id="a_node2"><a xlink:href="group__as__buffer.html#ga24266b1c24e9679a68088a917f78ecf8" target="_top" xlink:title=" ">
<polygon fill="none" stroke="black" points="134,-114.5 134,-133.5 259,-133.5 259,-114.5 134,-114.5"/>
<text text-anchor="middle" x="196.5" y="-121.5" font-family="Helvetica,sans-Serif" font-size="10.00">as_buffer_obj_destroy</text>
</a>
</g>
</g>
<!-- Node1&#45;&gt;Node2 -->
<g id="edge1" class="edge">
<title>Node1&#45;&gt;Node2</title>
<path fill="none" stroke="midnightblue" d="M74.25,-76.55C91.03,-83.14 113.87,-92.12 134,-100 142.93,-103.5 152.6,-107.28 161.57,-110.77"/>
<polygon fill="midnightblue" stroke="midnightblue" points="160.37,-114.06 170.96,-114.44 162.91,-107.54 160.37,-114.06"/>
</g>
<!-- Node3 -->
<g id="node3" class="node">
<title>Node3</title>
<g id="a_node3"><a xlink:href="group__asterics__support.html#ga3a2ba9ffa2388da78d024646e73441ff" target="_top" xlink:title=" ">
<polygon fill="none" stroke="black" points="295,-95.5 295,-114.5 348,-114.5 348,-95.5 295,-95.5"/>
<text text-anchor="middle" x="321.5" y="-102.5" font-family="Helvetica,sans-Serif" font-size="10.00">as_free</text>
</a>
</g>
</g>
<!-- Node1&#45;&gt;Node3 -->
<g id="edge4" class="edge">
<title>Node1&#45;&gt;Node3</title>
<path fill="none" stroke="midnightblue" d="M98.05,-73.75C151.65,-81.28 237.12,-93.29 285.01,-100.01"/>
<polygon fill="midnightblue" stroke="midnightblue" points="284.52,-103.48 294.91,-101.41 285.5,-96.55 284.52,-103.48"/>
</g>
<!-- Node4 -->
<g id="node4" class="node">
<title>Node4</title>
<g id="a_node4"><a xlink:href="as__i2c__driver_8c.html#a695f397ab30fc0a921aba4196141c1e9" target="_top" xlink:title=" ">
<polygon fill="none" stroke="black" points="134.5,-38.5 134.5,-57.5 258.5,-57.5 258.5,-38.5 134.5,-38.5"/>
<text text-anchor="middle" x="196.5" y="-45.5" font-family="Helvetica,sans-Serif" font-size="10.00">as_driver_i2c_remove</text>
</a>
</g>
</g>
<!-- Node1&#45;&gt;Node4 -->
<g id="edge3" class="edge">
<title>Node1&#45;&gt;Node4</title>
<path fill="none" stroke="midnightblue" d="M98.05,-60.73C106.47,-59.63 115.39,-58.46 124.28,-57.3"/>
<polygon fill="midnightblue" stroke="midnightblue" points="124.81,-60.76 134.27,-56 123.9,-53.82 124.81,-60.76"/>
</g>
<!-- Node5 -->
<g id="node5" class="node">
<title>Node5</title>
<g id="a_node5"><a xlink:href="group__asterics__support.html#ga57df9331011244df186e877459857341" target="_top" xlink:title=" ">
<polygon fill="none" stroke="black" points="154,-0.5 154,-19.5 239,-19.5 239,-0.5 154,-0.5"/>
<text text-anchor="middle" x="196.5" y="-7.5" font-family="Helvetica,sans-Serif" font-size="10.00">as_mutex_del</text>
</a>
</g>
</g>
<!-- Node1&#45;&gt;Node5 -->
<g id="edge5" class="edge">
<title>Node1&#45;&gt;Node5</title>
<path fill="none" stroke="midnightblue" d="M69.4,-57.39C86.24,-49.25 111.4,-37.56 134,-29 139.9,-26.77 146.18,-24.59 152.4,-22.56"/>
<polygon fill="midnightblue" stroke="midnightblue" points="153.57,-25.86 162.05,-19.5 151.46,-19.19 153.57,-25.86"/>
</g>
<!-- Node2&#45;&gt;Node3 -->
<g id="edge2" class="edge">
<title>Node2&#45;&gt;Node3</title>
<path fill="none" stroke="midnightblue" d="M259.36,-114.44C268.1,-113.1 276.82,-111.75 284.83,-110.51"/>
<polygon fill="midnightblue" stroke="midnightblue" points="285.54,-113.94 294.89,-108.96 284.47,-107.02 285.54,-113.94"/>
</g>
</g>
</svg>
