<?xml version="1.0" encoding="UTF-8" standalone="no"?>
<!DOCTYPE svg PUBLIC "-//W3C//DTD SVG 1.1//EN"
 "http://www.w3.org/Graphics/SVG/1.1/DTD/svg11.dtd">
<!-- Generated by graphviz version 2.43.0 (0)
 -->
<!-- Title: as_mmap_ioctl Pages: 1 -->
<svg width="1076pt" height="669pt"
 viewBox="0.00 0.00 1076.00 668.50" xmlns="http://www.w3.org/2000/svg" xmlns:xlink="http://www.w3.org/1999/xlink">
<g id="graph0" class="graph" transform="scale(1 1) rotate(0) translate(4 664.5)">
<title>as_mmap_ioctl</title>
<!-- Node1 -->
<g id="node1" class="node">
<title>Node1</title>
<g id="a_node1"><a xlink:title=" ">
<polygon fill="#bfbfbf" stroke="black" points="0,-149 0,-168 91,-168 91,-149 0,-149"/>
<text text-anchor="middle" x="45.5" y="-156" font-family="Helvetica,sans-Serif" font-size="10.00">as_mmap_ioctl</text>
</a>
</g>
</g>
<!-- Node2 -->
<g id="node2" class="node">
<title>Node2</title>
<g id="a_node2"><a xlink:href="group__mmap__file__ops.html#ga93a1477871ee8b3e8071b60442a0ceb3" target="_top" xlink:title=" ">
<polygon fill="none" stroke="black" points="144,-417 144,-436 280,-436 280,-417 144,-417"/>
<text text-anchor="middle" x="212" y="-424" font-family="Helvetica,sans-Serif" font-size="10.00">as_mmap_start_transfer</text>
</a>
</g>
</g>
<!-- Node1&#45;&gt;Node2 -->
<g id="edge1" class="edge">
<title>Node1&#45;&gt;Node2</title>
<path fill="none" stroke="midnightblue" d="M52.35,-168.04C76.39,-207.19 167.69,-355.94 199.77,-408.21"/>
<polygon fill="midnightblue" stroke="midnightblue" points="196.83,-410.1 205.04,-416.8 202.8,-406.44 196.83,-410.1"/>
</g>
<!-- Node21 -->
<g id="node21" class="node">
<title>Node21</title>
<g id="a_node21"><a xlink:href="group__mmap__file__ops.html#gac0196baed6a0a2e62c8c9c3aa2680af4" target="_top" xlink:title=" ">
<polygon fill="none" stroke="black" points="127,-149 127,-168 297,-168 297,-149 127,-149"/>
<text text-anchor="middle" x="212" y="-156" font-family="Helvetica,sans-Serif" font-size="10.00">as_mmap_wait_for_completion</text>
</a>
</g>
</g>
<!-- Node1&#45;&gt;Node21 -->
<g id="edge38" class="edge">
<title>Node1&#45;&gt;Node21</title>
<path fill="none" stroke="midnightblue" d="M91.02,-158.5C99.1,-158.5 107.81,-158.5 116.72,-158.5"/>
<polygon fill="midnightblue" stroke="midnightblue" points="116.83,-162 126.83,-158.5 116.83,-155 116.83,-162"/>
</g>
<!-- Node29 -->
<g id="node29" class="node">
<title>Node29</title>
<g id="a_node29"><a xlink:href="group__asterics__support.html#gad294e0c5530bd6fb800a2394179070e1" target="_top" xlink:title=" ">
<polygon fill="none" stroke="black" points="167,-111 167,-130 257,-130 257,-111 167,-111"/>
<text text-anchor="middle" x="212" y="-118" font-family="Helvetica,sans-Serif" font-size="10.00">as_mutex_lock</text>
</a>
</g>
</g>
<!-- Node1&#45;&gt;Node29 -->
<g id="edge52" class="edge">
<title>Node1&#45;&gt;Node29</title>
<path fill="none" stroke="midnightblue" d="M86.61,-148.96C99.5,-145.91 113.85,-142.54 127,-139.5 137.16,-137.15 148.01,-134.67 158.43,-132.31"/>
<polygon fill="midnightblue" stroke="midnightblue" points="159.27,-135.71 168.25,-130.09 157.72,-128.88 159.27,-135.71"/>
</g>
<!-- Node30 -->
<g id="node30" class="node">
<title>Node30</title>
<g id="a_node30"><a xlink:href="group__asterics__support.html#ga07e09e825f2608339f6213edb9d0c8b3" target="_top" xlink:title=" ">
<polygon fill="none" stroke="black" points="161,-73 161,-92 263,-92 263,-73 161,-73"/>
<text text-anchor="middle" x="212" y="-80" font-family="Helvetica,sans-Serif" font-size="10.00">as_mutex_unlock</text>
</a>
</g>
</g>
<!-- Node1&#45;&gt;Node30 -->
<g id="edge53" class="edge">
<title>Node1&#45;&gt;Node30</title>
<path fill="none" stroke="midnightblue" d="M57.11,-148.87C71.75,-136.11 99.47,-113.77 127,-101.5 134.48,-98.17 142.6,-95.39 150.74,-93.09"/>
<polygon fill="midnightblue" stroke="midnightblue" points="151.86,-96.41 160.65,-90.5 150.09,-89.64 151.86,-96.41"/>
</g>
<!-- Node31 -->
<g id="node31" class="node">
<title>Node31</title>
<g id="a_node31"><a xlink:href="group__as__reader__writer.html#gab3f2465225201507d51787478ac5955a" target="_top" xlink:title="Checks if another operation is queued.">
<polygon fill="none" stroke="black" points="517,-181.5 517,-211.5 629,-211.5 629,-181.5 517,-181.5"/>
<text text-anchor="start" x="525" y="-199.5" font-family="Helvetica,sans-Serif" font-size="10.00">as_reader_writer_is</text>
<text text-anchor="middle" x="573" y="-188.5" font-family="Helvetica,sans-Serif" font-size="10.00">_pending_go</text>
</a>
</g>
</g>
<!-- Node1&#45;&gt;Node31 -->
<g id="edge54" class="edge">
<title>Node1&#45;&gt;Node31</title>
<path fill="none" stroke="midnightblue" d="M80.7,-168.08C94.91,-171.67 111.64,-175.38 127,-177.5 260.97,-196 419.58,-198.09 506.64,-197.56"/>
<polygon fill="midnightblue" stroke="midnightblue" points="506.92,-201.06 516.89,-197.48 506.87,-194.06 506.92,-201.06"/>
</g>
<!-- Node3 -->
<g id="node3" class="node">
<title>Node3</title>
<g id="a_node3"><a xlink:href="as__cache_8c.html#a82dda14c005c5bd0028e5f25fad2923c" target="_top" xlink:title="Map virtual kernel address for DMA.">
<polygon fill="none" stroke="black" points="354,-627 354,-646 443,-646 443,-627 354,-627"/>
<text text-anchor="middle" x="398.5" y="-634" font-family="Helvetica,sans-Serif" font-size="10.00">as_map_single</text>
</a>
</g>
</g>
<!-- Node2&#45;&gt;Node3 -->
<g id="edge2" class="edge">
<title>Node2&#45;&gt;Node3</title>
<path fill="none" stroke="midnightblue" d="M217.75,-436.22C231.93,-464.43 276.45,-547.59 333,-599.5 342.81,-608.5 355.18,-616.26 366.46,-622.31"/>
<polygon fill="midnightblue" stroke="midnightblue" points="365.1,-625.54 375.6,-626.98 368.29,-619.31 365.1,-625.54"/>
</g>
<!-- Node5 -->
<g id="node5" class="node">
<title>Node5</title>
<g id="a_node5"><a xlink:href="group__as__reader__writer.html#ga5c0bd52e53c8e68de80b1712c12d9a4a" target="_top" xlink:title="Initializes the hardware module with values provided by config.">
<polygon fill="none" stroke="black" points="339,-450 339,-469 458,-469 458,-450 339,-450"/>
<text text-anchor="middle" x="398.5" y="-457" font-family="Helvetica,sans-Serif" font-size="10.00">as_reader_writer_init</text>
</a>
</g>
</g>
<!-- Node2&#45;&gt;Node5 -->
<g id="edge4" class="edge">
<title>Node2&#45;&gt;Node5</title>
<path fill="none" stroke="midnightblue" d="M266.37,-436.04C287.59,-439.84 312.18,-444.24 334.29,-448.19"/>
<polygon fill="midnightblue" stroke="midnightblue" points="333.79,-451.66 344.25,-449.98 335.03,-444.77 333.79,-451.66"/>
</g>
<!-- Node14 -->
<g id="node14" class="node">
<title>Node14</title>
<g id="a_node14"><a xlink:href="group__as__reader__writer.html#ga43d2f73d7d42dd5704160d4ddacfaa1e" target="_top" xlink:title="Sets the start address of the first section to the given value.">
<polygon fill="none" stroke="black" points="513.5,-542.5 513.5,-572.5 632.5,-572.5 632.5,-542.5 513.5,-542.5"/>
<text text-anchor="start" x="521.5" y="-560.5" font-family="Helvetica,sans-Serif" font-size="10.00">as_reader_writer_set</text>
<text text-anchor="middle" x="573" y="-549.5" font-family="Helvetica,sans-Serif" font-size="10.00">_section_addr</text>
</a>
</g>
</g>
<!-- Node2&#45;&gt;Node14 -->
<g id="edge30" class="edge">
<title>Node2&#45;&gt;Node14</title>
<path fill="none" stroke="midnightblue" d="M233.58,-436.09C257.3,-446.98 297.57,-465 333,-478.5 393.36,-501.5 463.7,-524.28 512.37,-539.42"/>
<polygon fill="midnightblue" stroke="midnightblue" points="511.52,-542.82 522.11,-542.44 513.59,-536.14 511.52,-542.82"/>
</g>
<!-- Node17 -->
<g id="node17" class="node">
<title>Node17</title>
<g id="a_node17"><a xlink:href="group__as__reader__writer.html#ga06436c5cb6a63439f2e4b7c14c71fb83" target="_top" xlink:title="Sets the size of a single section in bytes.">
<polygon fill="none" stroke="black" points="513.5,-591.5 513.5,-621.5 632.5,-621.5 632.5,-591.5 513.5,-591.5"/>
<text text-anchor="start" x="521.5" y="-609.5" font-family="Helvetica,sans-Serif" font-size="10.00">as_reader_writer_set</text>
<text text-anchor="middle" x="573" y="-598.5" font-family="Helvetica,sans-Serif" font-size="10.00">_section_size</text>
</a>
</g>
</g>
<!-- Node2&#45;&gt;Node17 -->
<g id="edge31" class="edge">
<title>Node2&#45;&gt;Node17</title>
<path fill="none" stroke="midnightblue" d="M223.91,-436.14C244.21,-453.74 289.7,-491.43 333,-515.5 402.76,-554.27 425.18,-553.74 500,-581.5 505.86,-583.67 512.01,-585.9 518.15,-588.08"/>
<polygon fill="midnightblue" stroke="midnightblue" points="517.13,-591.43 527.73,-591.46 519.46,-584.83 517.13,-591.43"/>
</g>
<!-- Node18 -->
<g id="node18" class="node">
<title>Node18</title>
<g id="a_node18"><a xlink:href="group__as__reader__writer.html#ga38bb160b6e30eb5fce6df2e4b4894fad" target="_top" xlink:title="Starts operation of hardware module.">
<polygon fill="none" stroke="black" points="505,-319 505,-338 641,-338 641,-319 505,-319"/>
<text text-anchor="middle" x="573" y="-326" font-family="Helvetica,sans-Serif" font-size="10.00">as_reader_writer_set_go</text>
</a>
</g>
</g>
<!-- Node2&#45;&gt;Node18 -->
<g id="edge27" class="edge">
<title>Node2&#45;&gt;Node18</title>
<path fill="none" stroke="midnightblue" d="M247.43,-416.9C301.26,-401.91 408.69,-372.12 500,-347.5 508.25,-345.28 517.05,-342.93 525.55,-340.68"/>
<polygon fill="midnightblue" stroke="midnightblue" points="526.58,-344.03 535.35,-338.09 524.79,-337.26 526.58,-344.03"/>
</g>
<!-- Node19 -->
<g id="node19" class="node">
<title>Node19</title>
<g id="a_node19"><a xlink:href="group__as__reader__writer.html#ga2c3650318b12edaf3f4473fed557cc74" target="_top" xlink:title="Disable module if no operation is queued.">
<polygon fill="none" stroke="black" points="512,-269.5 512,-299.5 634,-299.5 634,-269.5 512,-269.5"/>
<text text-anchor="start" x="520" y="-287.5" font-family="Helvetica,sans-Serif" font-size="10.00">as_writer_set_disable</text>
<text text-anchor="middle" x="573" y="-276.5" font-family="Helvetica,sans-Serif" font-size="10.00">_on_no_go</text>
</a>
</g>
</g>
<!-- Node2&#45;&gt;Node19 -->
<g id="edge32" class="edge">
<title>Node2&#45;&gt;Node19</title>
<path fill="none" stroke="midnightblue" d="M226.42,-416.87C247.97,-401.78 292.05,-372.43 333,-354.5 387.84,-330.49 453.27,-311.98 501.8,-300.03"/>
<polygon fill="midnightblue" stroke="midnightblue" points="502.69,-303.42 511.58,-297.66 501.03,-296.62 502.69,-303.42"/>
</g>
<!-- Node20 -->
<g id="node20" class="node">
<title>Node20</title>
<g id="a_node20"><a xlink:href="group__as__reader__writer.html#ga1ef22dbd33d87de51113837dd9123c6f" target="_top" xlink:title="Enable module input port.">
<polygon fill="none" stroke="black" points="513,-231 513,-250 633,-250 633,-231 513,-231"/>
<text text-anchor="middle" x="573" y="-238" font-family="Helvetica,sans-Serif" font-size="10.00">as_writer_set_enable</text>
</a>
</g>
</g>
<!-- Node2&#45;&gt;Node20 -->
<g id="edge35" class="edge">
<title>Node2&#45;&gt;Node20</title>
<path fill="none" stroke="midnightblue" d="M219.94,-416.85C236.72,-394.24 281.88,-337.49 333,-307.5 385.59,-276.65 453.07,-259.43 502.9,-250.2"/>
<polygon fill="midnightblue" stroke="midnightblue" points="503.71,-253.61 512.94,-248.41 502.48,-246.72 503.71,-253.61"/>
</g>
<!-- Node4 -->
<g id="node4" class="node">
<title>Node4</title>
<g id="a_node4"><a xlink:href="group__asterics__support.html#ga488e796d469c62267d9547fd11f8d764" target="_top" xlink:title=" ">
<polygon fill="none" stroke="black" points="508,-641 508,-660 638,-660 638,-641 508,-641"/>
<text text-anchor="middle" x="573" y="-648" font-family="Helvetica,sans-Serif" font-size="10.00">as_dcache_flush_range</text>
</a>
</g>
</g>
<!-- Node3&#45;&gt;Node4 -->
<g id="edge3" class="edge">
<title>Node3&#45;&gt;Node4</title>
<path fill="none" stroke="midnightblue" d="M443.03,-640.03C459.7,-641.39 479.21,-642.97 497.94,-644.49"/>
<polygon fill="midnightblue" stroke="midnightblue" points="497.69,-647.98 507.94,-645.3 498.26,-641 497.69,-647.98"/>
</g>
<!-- Node6 -->
<g id="node6" class="node">
<title>Node6</title>
<g id="a_node6"><a xlink:href="group__as__reader__writer.html#ga89e42a53f0db5cf22c8583c8e0c8a074" target="_top" xlink:title="Resets the hardware module.">
<polygon fill="none" stroke="black" points="509,-357 509,-376 637,-376 637,-357 509,-357"/>
<text text-anchor="middle" x="573" y="-364" font-family="Helvetica,sans-Serif" font-size="10.00">as_reader_writer_reset</text>
</a>
</g>
</g>
<!-- Node5&#45;&gt;Node6 -->
<g id="edge5" class="edge">
<title>Node5&#45;&gt;Node6</title>
<path fill="none" stroke="midnightblue" d="M409.78,-449.83C427.07,-434.08 463.65,-402.9 500,-385.5 504.96,-383.13 510.25,-381.02 515.64,-379.15"/>
<polygon fill="midnightblue" stroke="midnightblue" points="516.91,-382.42 525.37,-376.05 514.78,-375.75 516.91,-382.42"/>
</g>
<!-- Node13 -->
<g id="node13" class="node">
<title>Node13</title>
<g id="a_node13"><a xlink:href="group__as__reader__writer.html#gae1123634d5cf61d70bcfc7a87cda08bf" target="_top" xlink:title="Sets the maximum possible burst length to be performed by the hardware module.">
<polygon fill="none" stroke="black" points="513.5,-395.5 513.5,-425.5 632.5,-425.5 632.5,-395.5 513.5,-395.5"/>
<text text-anchor="start" x="521.5" y="-413.5" font-family="Helvetica,sans-Serif" font-size="10.00">as_reader_writer_set</text>
<text text-anchor="middle" x="573" y="-402.5" font-family="Helvetica,sans-Serif" font-size="10.00">_max_burst_length</text>
</a>
</g>
</g>
<!-- Node5&#45;&gt;Node13 -->
<g id="edge12" class="edge">
<title>Node5&#45;&gt;Node13</title>
<path fill="none" stroke="midnightblue" d="M433.17,-449.94C454.82,-443.79 483.61,-435.61 509.36,-428.29"/>
<polygon fill="midnightblue" stroke="midnightblue" points="510.4,-431.64 519.06,-425.54 508.49,-424.9 510.4,-431.64"/>
</g>
<!-- Node5&#45;&gt;Node14 -->
<g id="edge15" class="edge">
<title>Node5&#45;&gt;Node14</title>
<path fill="none" stroke="midnightblue" d="M410.53,-469.22C428.3,-484.46 464.83,-514.13 500,-532.5 504.18,-534.68 508.59,-536.74 513.08,-538.67"/>
<polygon fill="midnightblue" stroke="midnightblue" points="511.8,-541.93 522.39,-542.44 514.43,-535.44 511.8,-541.93"/>
</g>
<!-- Node15 -->
<g id="node15" class="node">
<title>Node15</title>
<g id="a_node15"><a xlink:href="group__as__reader__writer.html#ga4dd1a170b8e16005c286c0c0e7d8406f" target="_top" xlink:title="Sets the number of sections.">
<polygon fill="none" stroke="black" points="513.5,-493.5 513.5,-523.5 632.5,-523.5 632.5,-493.5 513.5,-493.5"/>
<text text-anchor="start" x="521.5" y="-511.5" font-family="Helvetica,sans-Serif" font-size="10.00">as_reader_writer_set</text>
<text text-anchor="middle" x="573" y="-500.5" font-family="Helvetica,sans-Serif" font-size="10.00">_section_count</text>
</a>
</g>
</g>
<!-- Node5&#45;&gt;Node15 -->
<g id="edge18" class="edge">
<title>Node5&#45;&gt;Node15</title>
<path fill="none" stroke="midnightblue" d="M433.17,-469.06C454.82,-475.21 483.61,-483.39 509.36,-490.71"/>
<polygon fill="midnightblue" stroke="midnightblue" points="508.49,-494.1 519.06,-493.46 510.4,-487.36 508.49,-494.1"/>
</g>
<!-- Node16 -->
<g id="node16" class="node">
<title>Node16</title>
<g id="a_node16"><a xlink:href="group__as__reader__writer.html#ga12f11a3d7cff5ea8bdec75dedec35bab" target="_top" xlink:title="Sets the offset in bytes between the start addresses of two subsequent sections.">
<polygon fill="none" stroke="black" points="513.5,-444.5 513.5,-474.5 632.5,-474.5 632.5,-444.5 513.5,-444.5"/>
<text text-anchor="start" x="521.5" y="-462.5" font-family="Helvetica,sans-Serif" font-size="10.00">as_reader_writer_set</text>
<text text-anchor="middle" x="573" y="-451.5" font-family="Helvetica,sans-Serif" font-size="10.00">_section_offset</text>
</a>
</g>
</g>
<!-- Node5&#45;&gt;Node16 -->
<g id="edge21" class="edge">
<title>Node5&#45;&gt;Node16</title>
<path fill="none" stroke="midnightblue" d="M458.38,-459.5C472.82,-459.5 488.39,-459.5 503.24,-459.5"/>
<polygon fill="midnightblue" stroke="midnightblue" points="503.38,-463 513.38,-459.5 503.38,-456 503.38,-463"/>
</g>
<!-- Node5&#45;&gt;Node17 -->
<g id="edge24" class="edge">
<title>Node5&#45;&gt;Node17</title>
<path fill="none" stroke="midnightblue" d="M404.96,-469.27C418.23,-492.18 454.5,-549.84 500,-581.5 502.86,-583.49 505.89,-585.33 509.02,-587.04"/>
<polygon fill="midnightblue" stroke="midnightblue" points="507.57,-590.23 518.09,-591.5 510.66,-583.94 507.57,-590.23"/>
</g>
<!-- Node7 -->
<g id="node7" class="node">
<title>Node7</title>
<g id="a_node7"><a xlink:href="group__asterics__support.html#gaa7520f5b717e163da743500adb2eb0b9" target="_top" xlink:title=" ">
<polygon fill="none" stroke="black" points="697.5,-319 697.5,-338 788.5,-338 788.5,-319 697.5,-319"/>
<text text-anchor="middle" x="743" y="-326" font-family="Helvetica,sans-Serif" font-size="10.00">as_module_reg</text>
</a>
</g>
</g>
<!-- Node6&#45;&gt;Node7 -->
<g id="edge6" class="edge">
<title>Node6&#45;&gt;Node7</title>
<path fill="none" stroke="midnightblue" d="M616.39,-356.91C638.76,-351.85 666.4,-345.6 690.05,-340.25"/>
<polygon fill="midnightblue" stroke="midnightblue" points="690.93,-343.64 699.91,-338.02 689.39,-336.81 690.93,-343.64"/>
</g>
<!-- Node8 -->
<g id="node8" class="node">
<title>Node8</title>
<g id="a_node8"><a xlink:href="group__asterics__support.html#ga0ccb0610d764a95bda989e35fba59490" target="_top" xlink:title=" ">
<polygon fill="none" stroke="black" points="682,-278 682,-297 804,-297 804,-278 682,-278"/>
<text text-anchor="middle" x="743" y="-285" font-family="Helvetica,sans-Serif" font-size="10.00">as_reg_write_masked</text>
</a>
</g>
</g>
<!-- Node6&#45;&gt;Node8 -->
<g id="edge7" class="edge">
<title>Node6&#45;&gt;Node8</title>
<path fill="none" stroke="midnightblue" d="M624.63,-356.97C632.08,-354.5 639.44,-351.39 646,-347.5 666.01,-335.63 662.56,-322.29 682,-309.5 686.99,-306.22 692.53,-303.34 698.17,-300.85"/>
<polygon fill="midnightblue" stroke="midnightblue" points="699.72,-304 707.68,-297.01 697.1,-297.51 699.72,-304"/>
</g>
<!-- Node9 -->
<g id="node9" class="node">
<title>Node9</title>
<g id="a_node9"><a xlink:href="group__asterics__support.html#ga8e5c2bfd2e4498d10289377bd94cef07" target="_top" xlink:title=" ">
<polygon fill="none" stroke="black" points="841.5,-122 841.5,-141 917.5,-141 917.5,-122 841.5,-122"/>
<text text-anchor="middle" x="879.5" y="-129" font-family="Helvetica,sans-Serif" font-size="10.00">as_reg_read</text>
</a>
</g>
</g>
<!-- Node8&#45;&gt;Node9 -->
<g id="edge8" class="edge">
<title>Node8&#45;&gt;Node9</title>
<path fill="none" stroke="midnightblue" d="M752.41,-277.74C774.59,-252.02 834.86,-182.11 863.28,-149.15"/>
<polygon fill="midnightblue" stroke="midnightblue" points="866.21,-151.11 870.09,-141.25 860.91,-146.54 866.21,-151.11"/>
</g>
<!-- Node11 -->
<g id="node11" class="node">
<title>Node11</title>
<g id="a_node11"><a xlink:href="group__asterics__support.html#ga6345b997e24a6cd5f9143cef27629d49" target="_top" xlink:title=" ">
<polygon fill="none" stroke="black" points="840,-474 840,-493 919,-493 919,-474 840,-474"/>
<text text-anchor="middle" x="879.5" y="-481" font-family="Helvetica,sans-Serif" font-size="10.00">as_reg_write</text>
</a>
</g>
</g>
<!-- Node8&#45;&gt;Node11 -->
<g id="edge10" class="edge">
<title>Node8&#45;&gt;Node11</title>
<path fill="none" stroke="midnightblue" d="M784.07,-297C791.32,-300.09 798.36,-304.16 804,-309.5 849.4,-352.55 868.48,-427.81 875.27,-463.56"/>
<polygon fill="midnightblue" stroke="midnightblue" points="871.88,-464.45 877.07,-473.68 878.77,-463.23 871.88,-464.45"/>
</g>
<!-- Node10 -->
<g id="node10" class="node">
<title>Node10</title>
<g id="a_node10"><a xlink:href="group__asterics__support.html#ga4c6d688b840a6e2edc9bc0b8ed961677" target="_top" xlink:title=" ">
<polygon fill="none" stroke="black" points="961.5,-122 961.5,-141 1061.5,-141 1061.5,-122 961.5,-122"/>
<text text-anchor="middle" x="1011.5" y="-129" font-family="Helvetica,sans-Serif" font-size="10.00">as_reg_to_uint32</text>
</a>
</g>
</g>
<!-- Node9&#45;&gt;Node10 -->
<g id="edge9" class="edge">
<title>Node9&#45;&gt;Node10</title>
<path fill="none" stroke="midnightblue" d="M917.75,-131.5C928.09,-131.5 939.59,-131.5 950.86,-131.5"/>
<polygon fill="midnightblue" stroke="midnightblue" points="951.12,-135 961.12,-131.5 951.12,-128 951.12,-135"/>
</g>
<!-- Node12 -->
<g id="node12" class="node">
<title>Node12</title>
<g id="a_node12"><a xlink:href="group__asterics__support.html#gab651cc2c035ce61b354578434e59f822" target="_top" xlink:title=" ">
<polygon fill="none" stroke="black" points="955,-474 955,-493 1068,-493 1068,-474 955,-474"/>
<text text-anchor="middle" x="1011.5" y="-481" font-family="Helvetica,sans-Serif" font-size="10.00">as_reg_from_uint32</text>
</a>
</g>
</g>
<!-- Node11&#45;&gt;Node12 -->
<g id="edge11" class="edge">
<title>Node11&#45;&gt;Node12</title>
<path fill="none" stroke="midnightblue" d="M919.15,-483.5C927.22,-483.5 935.94,-483.5 944.68,-483.5"/>
<polygon fill="midnightblue" stroke="midnightblue" points="944.92,-487 954.92,-483.5 944.92,-480 944.92,-487"/>
</g>
<!-- Node13&#45;&gt;Node7 -->
<g id="edge13" class="edge">
<title>Node13&#45;&gt;Node7</title>
<path fill="none" stroke="midnightblue" d="M621.79,-395.43C629.98,-392.42 638.32,-389.07 646,-385.5 672.13,-373.36 700.29,-356.09 719.31,-343.75"/>
<polygon fill="midnightblue" stroke="midnightblue" points="721.42,-346.55 727.86,-338.13 717.58,-340.7 721.42,-346.55"/>
</g>
<!-- Node13&#45;&gt;Node11 -->
<g id="edge14" class="edge">
<title>Node13&#45;&gt;Node11</title>
<path fill="none" stroke="midnightblue" d="M632.62,-424.48C679.1,-435.57 745.72,-451.49 804,-465.5 812.37,-467.51 821.27,-469.66 829.89,-471.74"/>
<polygon fill="midnightblue" stroke="midnightblue" points="829.29,-475.19 839.84,-474.14 830.94,-468.39 829.29,-475.19"/>
</g>
<!-- Node14&#45;&gt;Node7 -->
<g id="edge16" class="edge">
<title>Node14&#45;&gt;Node7</title>
<path fill="none" stroke="midnightblue" d="M631.44,-542.47C636.7,-539.69 641.67,-536.39 646,-532.5 703.19,-481.05 729.15,-388.37 738.12,-348.09"/>
<polygon fill="midnightblue" stroke="midnightblue" points="741.57,-348.7 740.22,-338.19 734.72,-347.25 741.57,-348.7"/>
</g>
<!-- Node14&#45;&gt;Node11 -->
<g id="edge17" class="edge">
<title>Node14&#45;&gt;Node11</title>
<path fill="none" stroke="midnightblue" d="M632.64,-547.44C679.42,-538.89 746.42,-525.48 804,-509.5 817.23,-505.83 831.52,-501.05 844.01,-496.59"/>
<polygon fill="midnightblue" stroke="midnightblue" points="845.38,-499.81 853.58,-493.11 842.99,-493.23 845.38,-499.81"/>
</g>
<!-- Node15&#45;&gt;Node7 -->
<g id="edge19" class="edge">
<title>Node15&#45;&gt;Node7</title>
<path fill="none" stroke="midnightblue" d="M629.9,-493.49C635.65,-490.69 641.15,-487.39 646,-483.5 692.39,-446.35 722.38,-380.31 735.06,-347.74"/>
<polygon fill="midnightblue" stroke="midnightblue" points="738.46,-348.67 738.7,-338.07 731.9,-346.2 738.46,-348.67"/>
</g>
<!-- Node15&#45;&gt;Node11 -->
<g id="edge20" class="edge">
<title>Node15&#45;&gt;Node11</title>
<path fill="none" stroke="midnightblue" d="M632.71,-503.68C689.9,-498.98 775.85,-491.93 829.48,-487.52"/>
<polygon fill="midnightblue" stroke="midnightblue" points="830.08,-490.99 839.76,-486.68 829.51,-484.01 830.08,-490.99"/>
</g>
<!-- Node16&#45;&gt;Node7 -->
<g id="edge22" class="edge">
<title>Node16&#45;&gt;Node7</title>
<path fill="none" stroke="midnightblue" d="M627.36,-444.41C633.88,-441.58 640.26,-438.3 646,-434.5 682.19,-410.55 713.72,-369.89 730.08,-346.5"/>
<polygon fill="midnightblue" stroke="midnightblue" points="733.01,-348.41 735.76,-338.18 727.23,-344.46 733.01,-348.41"/>
</g>
<!-- Node16&#45;&gt;Node11 -->
<g id="edge23" class="edge">
<title>Node16&#45;&gt;Node11</title>
<path fill="none" stroke="midnightblue" d="M632.71,-464.13C689.9,-468.64 775.85,-475.41 829.48,-479.64"/>
<polygon fill="midnightblue" stroke="midnightblue" points="829.52,-483.15 839.76,-480.45 830.07,-476.17 829.52,-483.15"/>
</g>
<!-- Node17&#45;&gt;Node7 -->
<g id="edge25" class="edge">
<title>Node17&#45;&gt;Node7</title>
<path fill="none" stroke="midnightblue" d="M632.47,-591.42C637.4,-588.65 642.01,-585.37 646,-581.5 714.31,-515.1 734.64,-395.15 740.14,-348.15"/>
<polygon fill="midnightblue" stroke="midnightblue" points="743.63,-348.39 741.21,-338.08 736.67,-347.65 743.63,-348.39"/>
</g>
<!-- Node17&#45;&gt;Node11 -->
<g id="edge26" class="edge">
<title>Node17&#45;&gt;Node11</title>
<path fill="none" stroke="midnightblue" d="M632.74,-594.63C680.46,-583.64 748.7,-564.85 804,-537.5 824.59,-527.32 845.55,-511.54 859.97,-499.66"/>
<polygon fill="midnightblue" stroke="midnightblue" points="862.26,-502.31 867.66,-493.19 857.75,-496.96 862.26,-502.31"/>
</g>
<!-- Node18&#45;&gt;Node7 -->
<g id="edge28" class="edge">
<title>Node18&#45;&gt;Node7</title>
<path fill="none" stroke="midnightblue" d="M641.36,-328.5C656.5,-328.5 672.38,-328.5 686.94,-328.5"/>
<polygon fill="midnightblue" stroke="midnightblue" points="687.28,-332 697.28,-328.5 687.28,-325 687.28,-332"/>
</g>
<!-- Node18&#45;&gt;Node8 -->
<g id="edge29" class="edge">
<title>Node18&#45;&gt;Node8</title>
<path fill="none" stroke="midnightblue" d="M612.96,-318.99C636.84,-313.16 667.61,-305.66 693.11,-299.43"/>
<polygon fill="midnightblue" stroke="midnightblue" points="694.07,-302.8 702.96,-297.03 692.41,-296 694.07,-302.8"/>
</g>
<!-- Node19&#45;&gt;Node7 -->
<g id="edge33" class="edge">
<title>Node19&#45;&gt;Node7</title>
<path fill="none" stroke="midnightblue" d="M631.35,-299.52C652.41,-305.04 675.96,-311.2 695.91,-316.43"/>
<polygon fill="midnightblue" stroke="midnightblue" points="695.12,-319.84 705.68,-318.99 696.89,-313.07 695.12,-319.84"/>
</g>
<!-- Node19&#45;&gt;Node8 -->
<g id="edge34" class="edge">
<title>Node19&#45;&gt;Node8</title>
<path fill="none" stroke="midnightblue" d="M634.18,-285.57C646.31,-285.79 659.17,-286.02 671.62,-286.24"/>
<polygon fill="midnightblue" stroke="midnightblue" points="671.9,-289.75 681.96,-286.43 672.02,-282.75 671.9,-289.75"/>
</g>
<!-- Node20&#45;&gt;Node7 -->
<g id="edge36" class="edge">
<title>Node20&#45;&gt;Node7</title>
<path fill="none" stroke="midnightblue" d="M626.89,-250.09C633.63,-252.55 640.19,-255.63 646,-259.5 667.9,-274.09 660.81,-290.91 682,-306.5 686.41,-309.75 691.35,-312.56 696.46,-314.98"/>
<polygon fill="midnightblue" stroke="midnightblue" points="695.17,-318.24 705.74,-318.94 697.91,-311.8 695.17,-318.24"/>
</g>
<!-- Node20&#45;&gt;Node8 -->
<g id="edge37" class="edge">
<title>Node20&#45;&gt;Node8</title>
<path fill="none" stroke="midnightblue" d="M611.05,-250.08C622.29,-253.04 634.66,-256.35 646,-259.5 663.73,-264.42 683.24,-270.07 700.01,-275"/>
<polygon fill="midnightblue" stroke="midnightblue" points="699.48,-278.49 710.06,-277.96 701.46,-271.78 699.48,-278.49"/>
</g>
<!-- Node22 -->
<g id="node22" class="node">
<title>Node22</title>
<g id="a_node22"><a xlink:href="group__as__buffer.html#ga4be2b60d2ac888f473e52f39c9492368" target="_top" xlink:title=" ">
<polygon fill="none" stroke="black" points="333,-99 333,-118 464,-118 464,-99 333,-99"/>
<text text-anchor="middle" x="398.5" y="-106" font-family="Helvetica,sans-Serif" font-size="10.00">as_buffer_update_state</text>
</a>
</g>
</g>
<!-- Node21&#45;&gt;Node22 -->
<g id="edge39" class="edge">
<title>Node21&#45;&gt;Node22</title>
<path fill="none" stroke="midnightblue" d="M258.06,-148.98C270.7,-146.12 284.43,-142.85 297,-139.5 317.64,-133.99 340.4,-127.05 359.03,-121.12"/>
<polygon fill="midnightblue" stroke="midnightblue" points="360.19,-124.43 368.64,-118.05 358.05,-117.76 360.19,-124.43"/>
</g>
<!-- Node23 -->
<g id="node23" class="node">
<title>Node23</title>
<g id="a_node23"><a xlink:href="group__as__reader__writer.html#gaaea10b48e35a224a5870cd3322ffbec2" target="_top" xlink:title="Returns the next address on which the hardware will perform a write operation.">
<polygon fill="none" stroke="black" points="513.5,-93.5 513.5,-123.5 632.5,-123.5 632.5,-93.5 513.5,-93.5"/>
<text text-anchor="start" x="521.5" y="-111.5" font-family="Helvetica,sans-Serif" font-size="10.00">as_reader_writer_get</text>
<text text-anchor="middle" x="573" y="-100.5" font-family="Helvetica,sans-Serif" font-size="10.00">_cur_hw_addr</text>
</a>
</g>
</g>
<!-- Node22&#45;&gt;Node23 -->
<g id="edge40" class="edge">
<title>Node22&#45;&gt;Node23</title>
<path fill="none" stroke="midnightblue" d="M464.22,-108.5C476.97,-108.5 490.39,-108.5 503.27,-108.5"/>
<polygon fill="midnightblue" stroke="midnightblue" points="503.45,-112 513.45,-108.5 503.45,-105 503.45,-112"/>
</g>
<!-- Node24 -->
<g id="node24" class="node">
<title>Node24</title>
<g id="a_node24"><a xlink:href="group__as__reader__writer.html#ga0e0a5b7e0dd6a14cb0f4251d00a783e8" target="_top" xlink:title="Checks if module is busy.">
<polygon fill="none" stroke="black" points="503,-143 503,-162 643,-162 643,-143 503,-143"/>
<text text-anchor="middle" x="573" y="-150" font-family="Helvetica,sans-Serif" font-size="10.00">as_reader_writer_is_busy</text>
</a>
</g>
</g>
<!-- Node22&#45;&gt;Node24 -->
<g id="edge43" class="edge">
<title>Node22&#45;&gt;Node24</title>
<path fill="none" stroke="midnightblue" d="M436.93,-118.05C462.7,-124.62 497.14,-133.4 524.79,-140.46"/>
<polygon fill="midnightblue" stroke="midnightblue" points="524.09,-143.89 534.64,-142.97 525.82,-137.11 524.09,-143.89"/>
</g>
<!-- Node26 -->
<g id="node26" class="node">
<title>Node26</title>
<g id="a_node26"><a xlink:href="as__cache_8c.html#ae76087a19400fcaebb8397a8a1ee828b" target="_top" xlink:title="Unmap DMA address at end of transfer.">
<polygon fill="none" stroke="black" points="522.5,-6 522.5,-25 623.5,-25 623.5,-6 522.5,-6"/>
<text text-anchor="middle" x="573" y="-13" font-family="Helvetica,sans-Serif" font-size="10.00">as_unmap_single</text>
</a>
</g>
</g>
<!-- Node22&#45;&gt;Node26 -->
<g id="edge47" class="edge">
<title>Node22&#45;&gt;Node26</title>
<path fill="none" stroke="midnightblue" d="M409.78,-98.83C427.07,-83.08 463.65,-51.9 500,-34.5 504.96,-32.13 510.25,-30.02 515.64,-28.15"/>
<polygon fill="midnightblue" stroke="midnightblue" points="516.91,-31.42 525.37,-25.05 514.78,-24.75 516.91,-31.42"/>
</g>
<!-- Node28 -->
<g id="node28" class="node">
<title>Node28</title>
<g id="a_node28"><a xlink:href="group__as__reader__writer.html#ga1ed314dbb9e93fbcbab70d4db197e3b6" target="_top" xlink:title="Returns the first address after the last successfully written unit.">
<polygon fill="none" stroke="black" points="500,-44.5 500,-74.5 646,-74.5 646,-44.5 500,-44.5"/>
<text text-anchor="start" x="508" y="-62.5" font-family="Helvetica,sans-Serif" font-size="10.00">as_writer_get_last</text>
<text text-anchor="middle" x="573" y="-51.5" font-family="Helvetica,sans-Serif" font-size="10.00">_data_unit_complete_addr</text>
</a>
</g>
</g>
<!-- Node22&#45;&gt;Node28 -->
<g id="edge49" class="edge">
<title>Node22&#45;&gt;Node28</title>
<path fill="none" stroke="midnightblue" d="M433.17,-98.94C454.82,-92.79 483.61,-84.61 509.36,-77.29"/>
<polygon fill="midnightblue" stroke="midnightblue" points="510.4,-80.64 519.06,-74.54 508.49,-73.9 510.4,-80.64"/>
</g>
<!-- Node23&#45;&gt;Node7 -->
<g id="edge41" class="edge">
<title>Node23&#45;&gt;Node7</title>
<path fill="none" stroke="midnightblue" d="M632.79,-122.74C637.72,-125.68 642.24,-129.23 646,-133.5 697.84,-192.5 630.67,-247.06 682,-306.5 684.36,-309.23 687.08,-311.62 690.04,-313.71"/>
<polygon fill="midnightblue" stroke="midnightblue" points="688.5,-316.86 698.9,-318.86 692.01,-310.81 688.5,-316.86"/>
</g>
<!-- Node23&#45;&gt;Node9 -->
<g id="edge42" class="edge">
<title>Node23&#45;&gt;Node9</title>
<path fill="none" stroke="midnightblue" d="M632.71,-112.93C690.39,-117.29 777.31,-123.86 830.84,-127.9"/>
<polygon fill="midnightblue" stroke="midnightblue" points="830.85,-131.41 841.09,-128.67 831.38,-124.43 830.85,-131.41"/>
</g>
<!-- Node24&#45;&gt;Node7 -->
<g id="edge44" class="edge">
<title>Node24&#45;&gt;Node7</title>
<path fill="none" stroke="midnightblue" d="M632.76,-162.1C637.63,-164.58 642.16,-167.67 646,-171.5 689.97,-215.35 640.13,-260.64 682,-306.5 684.58,-309.33 687.56,-311.8 690.78,-313.95"/>
<polygon fill="midnightblue" stroke="midnightblue" points="689.32,-317.14 699.76,-318.93 692.71,-311.02 689.32,-317.14"/>
</g>
<!-- Node25 -->
<g id="node25" class="node">
<title>Node25</title>
<g id="a_node25"><a xlink:href="group__asterics__support.html#ga36a2ed59c59831bee59daaae3cb6cb35" target="_top" xlink:title=" ">
<polygon fill="none" stroke="black" points="683.5,-143 683.5,-162 802.5,-162 802.5,-143 683.5,-143"/>
<text text-anchor="middle" x="743" y="-150" font-family="Helvetica,sans-Serif" font-size="10.00">as_reg_read_masked</text>
</a>
</g>
</g>
<!-- Node24&#45;&gt;Node25 -->
<g id="edge45" class="edge">
<title>Node24&#45;&gt;Node25</title>
<path fill="none" stroke="midnightblue" d="M643.3,-152.5C653.16,-152.5 663.3,-152.5 673.16,-152.5"/>
<polygon fill="midnightblue" stroke="midnightblue" points="673.3,-156 683.3,-152.5 673.3,-149 673.3,-156"/>
</g>
<!-- Node25&#45;&gt;Node9 -->
<g id="edge46" class="edge">
<title>Node25&#45;&gt;Node9</title>
<path fill="none" stroke="midnightblue" d="M802.6,-143.35C812.17,-141.86 821.97,-140.33 831.22,-138.88"/>
<polygon fill="midnightblue" stroke="midnightblue" points="832.05,-142.3 841.39,-137.29 830.97,-135.38 832.05,-142.3"/>
</g>
<!-- Node27 -->
<g id="node27" class="node">
<title>Node27</title>
<g id="a_node27"><a xlink:href="group__asterics__support.html#ga85ce164597e47f4aaee22c873e899d4b" target="_top" xlink:title=" ">
<polygon fill="none" stroke="black" points="682,-0.5 682,-30.5 804,-30.5 804,-0.5 682,-0.5"/>
<text text-anchor="start" x="690" y="-18.5" font-family="Helvetica,sans-Serif" font-size="10.00">as_dcache_invalidate</text>
<text text-anchor="middle" x="743" y="-7.5" font-family="Helvetica,sans-Serif" font-size="10.00">_range</text>
</a>
</g>
</g>
<!-- Node26&#45;&gt;Node27 -->
<g id="edge48" class="edge">
<title>Node26&#45;&gt;Node27</title>
<path fill="none" stroke="midnightblue" d="M623.95,-15.5C638.87,-15.5 655.51,-15.5 671.48,-15.5"/>
<polygon fill="midnightblue" stroke="midnightblue" points="671.86,-19 681.86,-15.5 671.86,-12 671.86,-19"/>
</g>
<!-- Node28&#45;&gt;Node7 -->
<g id="edge50" class="edge">
<title>Node28&#45;&gt;Node7</title>
<path fill="none" stroke="midnightblue" d="M635.98,-74.64C639.7,-77.16 643.1,-80.09 646,-83.5 711.02,-159.99 618.12,-229.05 682,-306.5 684.26,-309.24 686.89,-311.63 689.76,-313.73"/>
<polygon fill="midnightblue" stroke="midnightblue" points="688.01,-316.76 698.39,-318.89 691.6,-310.76 688.01,-316.76"/>
</g>
<!-- Node28&#45;&gt;Node9 -->
<g id="edge51" class="edge">
<title>Node28&#45;&gt;Node9</title>
<path fill="none" stroke="midnightblue" d="M638.47,-74.52C684.59,-85.29 748.14,-100.19 804,-113.5 812.94,-115.63 822.47,-117.92 831.63,-120.13"/>
<polygon fill="midnightblue" stroke="midnightblue" points="830.83,-123.53 841.37,-122.48 832.48,-116.73 830.83,-123.53"/>
</g>
<!-- Node31&#45;&gt;Node7 -->
<g id="edge55" class="edge">
<title>Node31&#45;&gt;Node7</title>
<path fill="none" stroke="midnightblue" d="M629.09,-210.05C635.25,-213.12 641.07,-216.89 646,-221.5 675.96,-249.53 652.29,-278.21 682,-306.5 685.12,-309.47 688.67,-312.04 692.45,-314.27"/>
<polygon fill="midnightblue" stroke="midnightblue" points="691.1,-317.51 701.6,-318.88 694.25,-311.26 691.1,-317.51"/>
</g>
<!-- Node31&#45;&gt;Node25 -->
<g id="edge56" class="edge">
<title>Node31&#45;&gt;Node25</title>
<path fill="none" stroke="midnightblue" d="M629.01,-182.09C650.64,-176.43 675.19,-170 695.87,-164.58"/>
<polygon fill="midnightblue" stroke="midnightblue" points="696.89,-167.93 705.68,-162.01 695.12,-161.16 696.89,-167.93"/>
</g>
</g>
</svg>
