<?xml version="1.0" encoding="UTF-8" standalone="no"?>
<!DOCTYPE svg PUBLIC "-//W3C//DTD SVG 1.1//EN"
 "http://www.w3.org/Graphics/SVG/1.1/DTD/svg11.dtd">
<!-- Generated by graphviz version 2.43.0 (0)
 -->
<!-- Title: as_iic_get_rx_byte Pages: 1 -->
<svg width="1251pt" height="180pt"
 viewBox="0.00 0.00 1251.00 180.00" xmlns="http://www.w3.org/2000/svg" xmlns:xlink="http://www.w3.org/1999/xlink">
<g id="graph0" class="graph" transform="scale(1 1) rotate(0) translate(4 176)">
<title>as_iic_get_rx_byte</title>
<!-- Node1 -->
<g id="node1" class="node">
<title>Node1</title>
<g id="a_node1"><a xlink:title=" ">
<polygon fill="#bfbfbf" stroke="black" points="1136,-133.5 1136,-152.5 1243,-152.5 1243,-133.5 1136,-133.5"/>
<text text-anchor="middle" x="1189.5" y="-140.5" font-family="Helvetica,sans-Serif" font-size="10.00">as_iic_get_rx_byte</text>
</a>
</g>
</g>
<!-- Node2 -->
<g id="node2" class="node">
<title>Node2</title>
<g id="a_node2"><a xlink:href="group__as__iic__helpers.html#ga1662a1a0b29536bf7d74ede3f73598be" target="_top" xlink:title=" ">
<polygon fill="none" stroke="black" points="955.5,-152.5 955.5,-171.5 1086.5,-171.5 1086.5,-152.5 955.5,-152.5"/>
<text text-anchor="middle" x="1021" y="-159.5" font-family="Helvetica,sans-Serif" font-size="10.00">as_iic_read_transaction</text>
</a>
</g>
</g>
<!-- Node1&#45;&gt;Node2 -->
<g id="edge1" class="edge">
<title>Node1&#45;&gt;Node2</title>
<path fill="none" stroke="midnightblue" d="M1125.73,-150.16C1112.94,-151.62 1099.46,-153.16 1086.61,-154.63"/>
<polygon fill="midnightblue" stroke="midnightblue" points="1126.28,-153.62 1135.82,-149.01 1125.49,-146.67 1126.28,-153.62"/>
</g>
<!-- Node5 -->
<g id="node5" class="node">
<title>Node5</title>
<g id="a_node5"><a xlink:href="group__as__iic__helpers.html#gaa8ce9ac10b8c2ca9b614110ca5cbeff5" target="_top" xlink:title=" ">
<polygon fill="none" stroke="black" points="942,-114.5 942,-133.5 1100,-133.5 1100,-114.5 942,-114.5"/>
<text text-anchor="middle" x="1021" y="-121.5" font-family="Helvetica,sans-Serif" font-size="10.00">as_iic_stop_read_transaction</text>
</a>
</g>
</g>
<!-- Node1&#45;&gt;Node5 -->
<g id="edge4" class="edge">
<title>Node1&#45;&gt;Node5</title>
<path fill="none" stroke="midnightblue" d="M1125.79,-135.84C1117.43,-134.89 1108.78,-133.9 1100.19,-132.92"/>
<polygon fill="midnightblue" stroke="midnightblue" points="1125.49,-139.33 1135.82,-136.99 1126.28,-132.38 1125.49,-139.33"/>
</g>
<!-- Node3 -->
<g id="node3" class="node">
<title>Node3</title>
<g id="a_node3"><a xlink:href="group__as__iic__user.html#ga76b6915b73f14abb8a200df4eefde6f3" target="_top" xlink:title=" ">
<polygon fill="none" stroke="black" points="797.5,-114.5 797.5,-133.5 895.5,-133.5 895.5,-114.5 797.5,-114.5"/>
<text text-anchor="middle" x="846.5" y="-121.5" font-family="Helvetica,sans-Serif" font-size="10.00">as_iic_get_bytes</text>
</a>
</g>
</g>
<!-- Node2&#45;&gt;Node3 -->
<g id="edge2" class="edge">
<title>Node2&#45;&gt;Node3</title>
<path fill="none" stroke="midnightblue" d="M966.65,-150.25C942.26,-144.87 913.74,-138.59 890.72,-133.52"/>
<polygon fill="midnightblue" stroke="midnightblue" points="965.95,-153.68 976.47,-152.41 967.46,-146.84 965.95,-153.68"/>
</g>
<!-- Node4 -->
<g id="node4" class="node">
<title>Node4</title>
<g id="a_node4"><a xlink:href="group__as__iic__user.html#ga987a7c89e5d900225a42f04583e0cfe7" target="_top" xlink:title=" ">
<polygon fill="none" stroke="black" points="797.5,-152.5 797.5,-171.5 895.5,-171.5 895.5,-152.5 797.5,-152.5"/>
<text text-anchor="middle" x="846.5" y="-159.5" font-family="Helvetica,sans-Serif" font-size="10.00">as_iic_read_regs</text>
</a>
</g>
</g>
<!-- Node2&#45;&gt;Node4 -->
<g id="edge3" class="edge">
<title>Node2&#45;&gt;Node4</title>
<path fill="none" stroke="midnightblue" d="M944.95,-162C928.22,-162 910.91,-162 895.6,-162"/>
<polygon fill="midnightblue" stroke="midnightblue" points="945.28,-165.5 955.28,-162 945.28,-158.5 945.28,-165.5"/>
</g>
<!-- Node5&#45;&gt;Node3 -->
<g id="edge17" class="edge">
<title>Node5&#45;&gt;Node3</title>
<path fill="none" stroke="midnightblue" d="M931.5,-124C919.2,-124 906.96,-124 895.78,-124"/>
<polygon fill="midnightblue" stroke="midnightblue" points="931.83,-127.5 941.83,-124 931.83,-120.5 931.83,-127.5"/>
</g>
<!-- Node5&#45;&gt;Node4 -->
<g id="edge18" class="edge">
<title>Node5&#45;&gt;Node4</title>
<path fill="none" stroke="midnightblue" d="M966.65,-135.75C942.26,-141.13 913.74,-147.41 890.72,-152.48"/>
<polygon fill="midnightblue" stroke="midnightblue" points="967.46,-139.16 976.47,-133.59 965.95,-132.32 967.46,-139.16"/>
</g>
<!-- Node6 -->
<g id="node6" class="node">
<title>Node6</title>
<g id="a_node6"><a xlink:href="group__as__iic__user.html#ga30385c0c387c1629188745edf9c824c1" target="_top" xlink:title=" ">
<polygon fill="none" stroke="black" points="787,-76.5 787,-95.5 906,-95.5 906,-76.5 787,-76.5"/>
<text text-anchor="middle" x="846.5" y="-83.5" font-family="Helvetica,sans-Serif" font-size="10.00">as_iic_get_byte_mod</text>
</a>
</g>
</g>
<!-- Node5&#45;&gt;Node6 -->
<g id="edge5" class="edge">
<title>Node5&#45;&gt;Node6</title>
<path fill="none" stroke="midnightblue" d="M966.65,-112.25C942.26,-106.87 913.74,-100.59 890.72,-95.52"/>
<polygon fill="midnightblue" stroke="midnightblue" points="965.95,-115.68 976.47,-114.41 967.46,-108.84 965.95,-115.68"/>
</g>
<!-- Node7 -->
<g id="node7" class="node">
<title>Node7</title>
<g id="a_node7"><a xlink:href="group__as__iic__user.html#gacf3e3b915e1f15ed8bdc60ab4c129996" target="_top" xlink:title=" ">
<polygon fill="none" stroke="black" points="659,-76.5 659,-95.5 751,-95.5 751,-76.5 659,-76.5"/>
<text text-anchor="middle" x="705" y="-83.5" font-family="Helvetica,sans-Serif" font-size="10.00">as_iic_get_byte</text>
</a>
</g>
</g>
<!-- Node6&#45;&gt;Node7 -->
<g id="edge6" class="edge">
<title>Node6&#45;&gt;Node7</title>
<path fill="none" stroke="midnightblue" d="M776.62,-86C767.96,-86 759.28,-86 751.12,-86"/>
<polygon fill="midnightblue" stroke="midnightblue" points="776.74,-89.5 786.74,-86 776.74,-82.5 776.74,-89.5"/>
</g>
<!-- Node8 -->
<g id="node8" class="node">
<title>Node8</title>
<g id="a_node8"><a xlink:href="group__as__iic__user.html#ga812d9e16a61b39777a5fbffc7eccbc8d" target="_top" xlink:title=" ">
<polygon fill="none" stroke="black" points="531,-76.5 531,-95.5 623,-95.5 623,-76.5 531,-76.5"/>
<text text-anchor="middle" x="577" y="-83.5" font-family="Helvetica,sans-Serif" font-size="10.00">as_iic_read_reg</text>
</a>
</g>
</g>
<!-- Node7&#45;&gt;Node8 -->
<g id="edge7" class="edge">
<title>Node7&#45;&gt;Node8</title>
<path fill="none" stroke="midnightblue" d="M648.65,-86C640.16,-86 631.48,-86 623.24,-86"/>
<polygon fill="midnightblue" stroke="midnightblue" points="648.87,-89.5 658.87,-86 648.87,-82.5 648.87,-89.5"/>
</g>
<!-- Node9 -->
<g id="node9" class="node">
<title>Node9</title>
<g id="a_node9"><a xlink:href="as__sensor__ov7670_8c.html#acb25afaea3e81940c50e327c45921f08" target="_top" xlink:title=" ">
<polygon fill="none" stroke="black" points="384,-76.5 384,-95.5 495,-95.5 495,-76.5 384,-76.5"/>
<text text-anchor="middle" x="439.5" y="-83.5" font-family="Helvetica,sans-Serif" font-size="10.00">ov7670_iic_reg_get</text>
</a>
</g>
</g>
<!-- Node8&#45;&gt;Node9 -->
<g id="edge8" class="edge">
<title>Node8&#45;&gt;Node9</title>
<path fill="none" stroke="midnightblue" d="M520.79,-86C512.39,-86 503.71,-86 495.31,-86"/>
<polygon fill="midnightblue" stroke="midnightblue" points="520.88,-89.5 530.88,-86 520.88,-82.5 520.88,-89.5"/>
</g>
<!-- Node10 -->
<g id="node10" class="node">
<title>Node10</title>
<g id="a_node10"><a xlink:href="group__as__sensor__ov7670.html#ga55b52e2499f96009197bfe90af6c7a41" target="_top" xlink:title=" ">
<polygon fill="none" stroke="black" points="164,-152.5 164,-171.5 348,-171.5 348,-152.5 164,-152.5"/>
<text text-anchor="middle" x="256" y="-159.5" font-family="Helvetica,sans-Serif" font-size="10.00">as_sensor_ov7670_exposure_auto</text>
</a>
</g>
</g>
<!-- Node9&#45;&gt;Node10 -->
<g id="edge9" class="edge">
<title>Node9&#45;&gt;Node10</title>
<path fill="none" stroke="midnightblue" d="M418.04,-101.89C400.41,-114.82 373.8,-132.58 348,-143 338.42,-146.87 327.95,-149.99 317.62,-152.5"/>
<polygon fill="midnightblue" stroke="midnightblue" points="420.48,-104.43 426.39,-95.63 416.29,-98.83 420.48,-104.43"/>
</g>
<!-- Node12 -->
<g id="node12" class="node">
<title>Node12</title>
<g id="a_node12"><a xlink:href="group__as__sensor__ov7670.html#gae1b977db2733432317fee8f0497eb67a" target="_top" xlink:title=" ">
<polygon fill="none" stroke="black" points="167,-38.5 167,-57.5 345,-57.5 345,-38.5 167,-38.5"/>
<text text-anchor="middle" x="256" y="-45.5" font-family="Helvetica,sans-Serif" font-size="10.00">as_sensor_ov7670_exposure_get</text>
</a>
</g>
</g>
<!-- Node9&#45;&gt;Node12 -->
<g id="edge11" class="edge">
<title>Node9&#45;&gt;Node12</title>
<path fill="none" stroke="midnightblue" d="M382.95,-74.33C371.4,-71.9 359.3,-69.37 348,-67 333.31,-63.92 317.28,-60.58 302.83,-57.56"/>
<polygon fill="midnightblue" stroke="midnightblue" points="382.42,-77.79 392.93,-76.42 383.86,-70.94 382.42,-77.79"/>
</g>
<!-- Node13 -->
<g id="node13" class="node">
<title>Node13</title>
<g id="a_node13"><a xlink:href="group__as__sensor__ov7670.html#gadd11863e70497418c9d31c922945cbec" target="_top" xlink:title=" ">
<polygon fill="none" stroke="black" points="176,-114.5 176,-133.5 336,-133.5 336,-114.5 176,-114.5"/>
<text text-anchor="middle" x="256" y="-121.5" font-family="Helvetica,sans-Serif" font-size="10.00">as_sensor_ov7670_gain_auto</text>
</a>
</g>
</g>
<!-- Node9&#45;&gt;Node13 -->
<g id="edge12" class="edge">
<title>Node9&#45;&gt;Node13</title>
<path fill="none" stroke="midnightblue" d="M382.95,-97.67C371.4,-100.1 359.3,-102.63 348,-105 333.31,-108.08 317.28,-111.42 302.83,-114.44"/>
<polygon fill="midnightblue" stroke="midnightblue" points="383.86,-101.06 392.93,-95.58 382.42,-94.21 383.86,-101.06"/>
</g>
<!-- Node14 -->
<g id="node14" class="node">
<title>Node14</title>
<g id="a_node14"><a xlink:href="group__as__sensor__ov7670.html#ga75ee4d998c858b26adae16b8140e8637" target="_top" xlink:title=" ">
<polygon fill="none" stroke="black" points="179,-0.5 179,-19.5 333,-19.5 333,-0.5 179,-0.5"/>
<text text-anchor="middle" x="256" y="-7.5" font-family="Helvetica,sans-Serif" font-size="10.00">as_sensor_ov7670_gain_get</text>
</a>
</g>
</g>
<!-- Node9&#45;&gt;Node14 -->
<g id="edge14" class="edge">
<title>Node9&#45;&gt;Node14</title>
<path fill="none" stroke="midnightblue" d="M418.04,-70.11C400.41,-57.18 373.8,-39.42 348,-29 338.42,-25.13 327.95,-22.01 317.62,-19.5"/>
<polygon fill="midnightblue" stroke="midnightblue" points="416.29,-73.17 426.39,-76.37 420.48,-67.57 416.29,-73.17"/>
</g>
<!-- Node15 -->
<g id="node15" class="node">
<title>Node15</title>
<g id="a_node15"><a xlink:href="as__sensor__ov7670_8c.html#ab5de18dc5dd74817505126a51487b8b1" target="_top" xlink:title=" ">
<polygon fill="none" stroke="black" points="181.5,-76.5 181.5,-95.5 330.5,-95.5 330.5,-76.5 181.5,-76.5"/>
<text text-anchor="middle" x="256" y="-83.5" font-family="Helvetica,sans-Serif" font-size="10.00">as_sensor_ov7670_identify</text>
</a>
</g>
</g>
<!-- Node9&#45;&gt;Node15 -->
<g id="edge15" class="edge">
<title>Node9&#45;&gt;Node15</title>
<path fill="none" stroke="midnightblue" d="M373.16,-86C359.33,-86 344.64,-86 330.53,-86"/>
<polygon fill="midnightblue" stroke="midnightblue" points="373.55,-89.5 383.55,-86 373.55,-82.5 373.55,-89.5"/>
</g>
<!-- Node11 -->
<g id="node11" class="node">
<title>Node11</title>
<g id="a_node11"><a xlink:href="group__as__sensor__ov7670.html#ga419a3339eac0f6abb8eafe24e468ae49" target="_top" xlink:title=" ">
<polygon fill="none" stroke="black" points="0,-114.5 0,-133.5 128,-133.5 128,-114.5 0,-114.5"/>
<text text-anchor="middle" x="64" y="-121.5" font-family="Helvetica,sans-Serif" font-size="10.00">as_sensor_ov7670_init</text>
</a>
</g>
</g>
<!-- Node10&#45;&gt;Node11 -->
<g id="edge10" class="edge">
<title>Node10&#45;&gt;Node11</title>
<path fill="none" stroke="midnightblue" d="M196.95,-150.39C169.93,-144.99 138.18,-138.64 112.6,-133.52"/>
<polygon fill="midnightblue" stroke="midnightblue" points="196.56,-153.88 207.05,-152.41 197.94,-147.02 196.56,-153.88"/>
</g>
<!-- Node13&#45;&gt;Node11 -->
<g id="edge13" class="edge">
<title>Node13&#45;&gt;Node11</title>
<path fill="none" stroke="midnightblue" d="M165.68,-124C153.01,-124 140.21,-124 128.17,-124"/>
<polygon fill="midnightblue" stroke="midnightblue" points="165.8,-127.5 175.8,-124 165.8,-120.5 165.8,-127.5"/>
</g>
<!-- Node15&#45;&gt;Node11 -->
<g id="edge16" class="edge">
<title>Node15&#45;&gt;Node11</title>
<path fill="none" stroke="midnightblue" d="M196.95,-97.61C169.93,-103.01 138.18,-109.36 112.6,-114.48"/>
<polygon fill="midnightblue" stroke="midnightblue" points="197.94,-100.98 207.05,-95.59 196.56,-94.12 197.94,-100.98"/>
</g>
</g>
</svg>
