<?xml version="1.0" encoding="UTF-8" standalone="no"?>
<!DOCTYPE svg PUBLIC "-//W3C//DTD SVG 1.1//EN"
 "http://www.w3.org/Graphics/SVG/1.1/DTD/svg11.dtd">
<!-- Generated by graphviz version 2.43.0 (0)
 -->
<!-- Title: as_sensor_ov7670_gain_set Pages: 1 -->
<svg width="1739pt" height="446pt"
 viewBox="0.00 0.00 1739.00 446.00" xmlns="http://www.w3.org/2000/svg" xmlns:xlink="http://www.w3.org/1999/xlink">
<g id="graph0" class="graph" transform="scale(1 1) rotate(0) translate(4 442)">
<title>as_sensor_ov7670_gain_set</title>
<!-- Node1 -->
<g id="node1" class="node">
<title>Node1</title>
<g id="a_node1"><a xlink:title=" ">
<polygon fill="#bfbfbf" stroke="black" points="0,-171.5 0,-190.5 153,-190.5 153,-171.5 0,-171.5"/>
<text text-anchor="middle" x="76.5" y="-178.5" font-family="Helvetica,sans-Serif" font-size="10.00">as_sensor_ov7670_gain_set</text>
</a>
</g>
</g>
<!-- Node2 -->
<g id="node2" class="node">
<title>Node2</title>
<g id="a_node2"><a xlink:href="as__sensor__ov7670_8c.html#a4af880494f665dfc2d878bcd991246d3" target="_top" xlink:title=" ">
<polygon fill="none" stroke="black" points="189,-190.5 189,-209.5 323,-209.5 323,-190.5 189,-190.5"/>
<text text-anchor="middle" x="256" y="-197.5" font-family="Helvetica,sans-Serif" font-size="10.00">ov7670_get_iic_channel</text>
</a>
</g>
</g>
<!-- Node1&#45;&gt;Node2 -->
<g id="edge1" class="edge">
<title>Node1&#45;&gt;Node2</title>
<path fill="none" stroke="midnightblue" d="M153.03,-189.09C161.58,-190 170.29,-190.93 178.84,-191.85"/>
<polygon fill="midnightblue" stroke="midnightblue" points="178.48,-195.33 188.79,-192.91 179.22,-188.37 178.48,-195.33"/>
</g>
<!-- Node3 -->
<g id="node3" class="node">
<title>Node3</title>
<g id="a_node3"><a xlink:href="as__sensor__ov7670_8c.html#ad5b49e677d2124f73482764e3270bb42" target="_top" xlink:title=" ">
<polygon fill="none" stroke="black" points="201,-152.5 201,-171.5 311,-171.5 311,-152.5 201,-152.5"/>
<text text-anchor="middle" x="256" y="-159.5" font-family="Helvetica,sans-Serif" font-size="10.00">ov7670_iic_reg_set</text>
</a>
</g>
</g>
<!-- Node1&#45;&gt;Node3 -->
<g id="edge2" class="edge">
<title>Node1&#45;&gt;Node3</title>
<path fill="none" stroke="midnightblue" d="M153.03,-172.91C165.57,-171.57 178.46,-170.19 190.68,-168.89"/>
<polygon fill="midnightblue" stroke="midnightblue" points="191.19,-172.35 200.76,-167.81 190.45,-165.39 191.19,-172.35"/>
</g>
<!-- Node4 -->
<g id="node4" class="node">
<title>Node4</title>
<g id="a_node4"><a xlink:href="group__as__iic__user.html#ga5ae8936ee892843eda5df7b9a418bd52" target="_top" xlink:title=" ">
<polygon fill="none" stroke="black" points="359,-152.5 359,-171.5 454,-171.5 454,-152.5 359,-152.5"/>
<text text-anchor="middle" x="406.5" y="-159.5" font-family="Helvetica,sans-Serif" font-size="10.00">as_iic_write_reg</text>
</a>
</g>
</g>
<!-- Node3&#45;&gt;Node4 -->
<g id="edge3" class="edge">
<title>Node3&#45;&gt;Node4</title>
<path fill="none" stroke="midnightblue" d="M311.03,-162C323.21,-162 336.18,-162 348.48,-162"/>
<polygon fill="midnightblue" stroke="midnightblue" points="348.62,-165.5 358.62,-162 348.62,-158.5 348.62,-165.5"/>
</g>
<!-- Node5 -->
<g id="node5" class="node">
<title>Node5</title>
<g id="a_node5"><a xlink:href="group__as__iic__user.html#ga2a4e5ee19e84cc95de665e29b92ccda1" target="_top" xlink:title=" ">
<polygon fill="none" stroke="black" points="490,-152.5 490,-171.5 597,-171.5 597,-152.5 490,-152.5"/>
<text text-anchor="middle" x="543.5" y="-159.5" font-family="Helvetica,sans-Serif" font-size="10.00">as_iic_write_bytes</text>
</a>
</g>
</g>
<!-- Node4&#45;&gt;Node5 -->
<g id="edge4" class="edge">
<title>Node4&#45;&gt;Node5</title>
<path fill="none" stroke="midnightblue" d="M454.34,-162C462.46,-162 471.02,-162 479.49,-162"/>
<polygon fill="midnightblue" stroke="midnightblue" points="479.74,-165.5 489.74,-162 479.74,-158.5 479.74,-165.5"/>
</g>
<!-- Node6 -->
<g id="node6" class="node">
<title>Node6</title>
<g id="a_node6"><a xlink:href="group__as__iic__helpers.html#ga53e6050a2c66be89ac23084fd9de9c23" target="_top" xlink:title=" ">
<polygon fill="none" stroke="black" points="633,-152.5 633,-171.5 765,-171.5 765,-152.5 633,-152.5"/>
<text text-anchor="middle" x="699" y="-159.5" font-family="Helvetica,sans-Serif" font-size="10.00">as_iic_start_transaction</text>
</a>
</g>
</g>
<!-- Node5&#45;&gt;Node6 -->
<g id="edge5" class="edge">
<title>Node5&#45;&gt;Node6</title>
<path fill="none" stroke="midnightblue" d="M597.33,-162C605.55,-162 614.19,-162 622.8,-162"/>
<polygon fill="midnightblue" stroke="midnightblue" points="622.87,-165.5 632.87,-162 622.87,-158.5 622.87,-165.5"/>
</g>
<!-- Node25 -->
<g id="node25" class="node">
<title>Node25</title>
<g id="a_node25"><a xlink:href="group__as__iic__helpers.html#ga67cc002a1b20c75dc26f7b328ca5ddc9" target="_top" xlink:title=" ">
<polygon fill="none" stroke="black" points="801,-0.5 801,-19.5 962,-19.5 962,-0.5 801,-0.5"/>
<text text-anchor="middle" x="881.5" y="-7.5" font-family="Helvetica,sans-Serif" font-size="10.00">as_iic_stop_write_transaction</text>
</a>
</g>
</g>
<!-- Node5&#45;&gt;Node25 -->
<g id="edge37" class="edge">
<title>Node5&#45;&gt;Node25</title>
<path fill="none" stroke="midnightblue" d="M559.79,-152.36C598.64,-128.27 704.87,-64.8 801,-29 807.77,-26.48 814.98,-24.21 822.2,-22.19"/>
<polygon fill="midnightblue" stroke="midnightblue" points="823.24,-25.54 832.01,-19.6 821.45,-18.77 823.24,-25.54"/>
</g>
<!-- Node26 -->
<g id="node26" class="node">
<title>Node26</title>
<g id="a_node26"><a xlink:href="group__as__iic__helpers.html#gad5e0aa9a71f8f0f65e1fbded8134b11f" target="_top" xlink:title=" ">
<polygon fill="none" stroke="black" points="814.5,-304.5 814.5,-323.5 948.5,-323.5 948.5,-304.5 814.5,-304.5"/>
<text text-anchor="middle" x="881.5" y="-311.5" font-family="Helvetica,sans-Serif" font-size="10.00">as_iic_write_transaction</text>
</a>
</g>
</g>
<!-- Node5&#45;&gt;Node26 -->
<g id="edge38" class="edge">
<title>Node5&#45;&gt;Node26</title>
<path fill="none" stroke="midnightblue" d="M561.15,-171.56C601.36,-194.36 707.34,-252.8 801,-290 811.57,-294.2 823.17,-298.08 834.16,-301.46"/>
<polygon fill="midnightblue" stroke="midnightblue" points="833.46,-304.9 844.04,-304.4 835.46,-298.19 833.46,-304.9"/>
</g>
<!-- Node7 -->
<g id="node7" class="node">
<title>Node7</title>
<g id="a_node7"><a xlink:href="group__as__iic__bitchecks.html#gaa4e8718c748b5a7e956a38ffd6dbe15d" target="_top" xlink:title=" ">
<polygon fill="none" stroke="black" points="1013,-152.5 1013,-171.5 1127,-171.5 1127,-152.5 1013,-152.5"/>
<text text-anchor="middle" x="1070" y="-159.5" font-family="Helvetica,sans-Serif" font-size="10.00">as_iic_ack_received</text>
</a>
</g>
</g>
<!-- Node6&#45;&gt;Node7 -->
<g id="edge6" class="edge">
<title>Node6&#45;&gt;Node7</title>
<path fill="none" stroke="midnightblue" d="M765.12,-162C832.03,-162 935.65,-162 1002.91,-162"/>
<polygon fill="midnightblue" stroke="midnightblue" points="1002.98,-165.5 1012.98,-162 1002.98,-158.5 1002.98,-165.5"/>
</g>
<!-- Node11 -->
<g id="node11" class="node">
<title>Node11</title>
<g id="a_node11"><a xlink:href="group__as__iic__wait.html#gad3cfec26b8a73166e060108cf1444a2b" target="_top" xlink:title=" ">
<polygon fill="none" stroke="black" points="1011,-27 1011,-57 1129,-57 1129,-27 1011,-27"/>
<text text-anchor="start" x="1019" y="-45" font-family="Helvetica,sans-Serif" font-size="10.00">as_iic_busy_wait_for</text>
<text text-anchor="middle" x="1070" y="-34" font-family="Helvetica,sans-Serif" font-size="10.00">_hwready</text>
</a>
</g>
</g>
<!-- Node6&#45;&gt;Node11 -->
<g id="edge10" class="edge">
<title>Node6&#45;&gt;Node11</title>
<path fill="none" stroke="midnightblue" d="M715.92,-152.36C735.39,-140.91 769.64,-121.87 801,-110 819.7,-102.92 927.64,-76.24 1000.7,-58.48"/>
<polygon fill="midnightblue" stroke="midnightblue" points="1001.87,-61.79 1010.76,-56.03 1000.22,-54.99 1001.87,-61.79"/>
</g>
<!-- Node12 -->
<g id="node12" class="node">
<title>Node12</title>
<g id="a_node12"><a xlink:href="group__as__iic__user.html#gacdb0c71d0fcfe5e50a7f7316762cd0c0" target="_top" xlink:title=" ">
<polygon fill="none" stroke="black" points="1186,-76.5 1186,-95.5 1277,-95.5 1277,-76.5 1186,-76.5"/>
<text text-anchor="middle" x="1231.5" y="-83.5" font-family="Helvetica,sans-Serif" font-size="10.00">as_iic_is_ready</text>
</a>
</g>
</g>
<!-- Node6&#45;&gt;Node12 -->
<g id="edge22" class="edge">
<title>Node6&#45;&gt;Node12</title>
<path fill="none" stroke="midnightblue" d="M765.05,-152.68C870.6,-137.56 1077.27,-107.95 1175.77,-93.84"/>
<polygon fill="midnightblue" stroke="midnightblue" points="1176.41,-97.28 1185.81,-92.4 1175.42,-90.36 1176.41,-97.28"/>
</g>
<!-- Node17 -->
<g id="node17" class="node">
<title>Node17</title>
<g id="a_node17"><a xlink:href="group__as__iic__wait.html#ga0bc5aad64893b674c42943fb64d17676" target="_top" xlink:title=" ">
<polygon fill="none" stroke="black" points="998,-190.5 998,-209.5 1142,-209.5 1142,-190.5 998,-190.5"/>
<text text-anchor="middle" x="1070" y="-197.5" font-family="Helvetica,sans-Serif" font-size="10.00">as_iic_busy_wait_for_wait</text>
</a>
</g>
</g>
<!-- Node6&#45;&gt;Node17 -->
<g id="edge17" class="edge">
<title>Node6&#45;&gt;Node17</title>
<path fill="none" stroke="midnightblue" d="M765.14,-171.5C777.06,-173.1 789.39,-174.68 801,-176 863.57,-183.13 934.56,-189.41 987.75,-193.75"/>
<polygon fill="midnightblue" stroke="midnightblue" points="987.56,-197.25 997.81,-194.57 988.12,-190.27 987.56,-197.25"/>
</g>
<!-- Node19 -->
<g id="node19" class="node">
<title>Node19</title>
<g id="a_node19"><a xlink:href="group__as__iic__bitchecks.html#gad90ab4c2ed7fbca8f768c87cdb5794ee" target="_top" xlink:title=" ">
<polygon fill="none" stroke="black" points="826,-38.5 826,-57.5 937,-57.5 937,-38.5 826,-38.5"/>
<text text-anchor="middle" x="881.5" y="-45.5" font-family="Helvetica,sans-Serif" font-size="10.00">as_iic_is_initialized</text>
</a>
</g>
</g>
<!-- Node6&#45;&gt;Node19 -->
<g id="edge21" class="edge">
<title>Node6&#45;&gt;Node19</title>
<path fill="none" stroke="midnightblue" d="M708.15,-152.36C724.13,-134.06 761.45,-94.15 801,-72 809.04,-67.5 818.01,-63.75 826.96,-60.66"/>
<polygon fill="midnightblue" stroke="midnightblue" points="828.16,-63.95 836.61,-57.56 826.02,-57.28 828.16,-63.95"/>
</g>
<!-- Node20 -->
<g id="node20" class="node">
<title>Node20</title>
<g id="a_node20"><a xlink:href="group__as__iic__user.html#gae03c311fae3d6a830878a2b0c2c1c2bf" target="_top" xlink:title=" ">
<polygon fill="none" stroke="black" points="1008,-228.5 1008,-247.5 1132,-247.5 1132,-228.5 1008,-228.5"/>
<text text-anchor="middle" x="1070" y="-235.5" font-family="Helvetica,sans-Serif" font-size="10.00">as_iic_reset_hw_state</text>
</a>
</g>
</g>
<!-- Node6&#45;&gt;Node20 -->
<g id="edge23" class="edge">
<title>Node6&#45;&gt;Node20</title>
<path fill="none" stroke="midnightblue" d="M722.87,-171.59C743.09,-179.73 773.55,-191.13 801,-198 866.7,-214.45 943.27,-225.05 997.7,-231.17"/>
<polygon fill="midnightblue" stroke="midnightblue" points="997.61,-234.68 1007.94,-232.3 998.38,-227.73 997.61,-234.68"/>
</g>
<!-- Node21 -->
<g id="node21" class="node">
<title>Node21</title>
<g id="a_node21"><a xlink:href="group__as__iic__reg__funcs.html#gac83a48fc09234a7a99adafb1ce565eb0" target="_top" xlink:title=" ">
<polygon fill="none" stroke="black" points="1179.5,-266.5 1179.5,-285.5 1283.5,-285.5 1283.5,-266.5 1179.5,-266.5"/>
<text text-anchor="middle" x="1231.5" y="-273.5" font-family="Helvetica,sans-Serif" font-size="10.00">as_iic_set_control</text>
</a>
</g>
</g>
<!-- Node6&#45;&gt;Node21 -->
<g id="edge27" class="edge">
<title>Node6&#45;&gt;Node21</title>
<path fill="none" stroke="midnightblue" d="M713.35,-171.59C736.3,-187.92 782.57,-220.03 801,-227 925.63,-274.12 1083.96,-279.45 1169.31,-278.29"/>
<polygon fill="midnightblue" stroke="midnightblue" points="1169.41,-281.79 1179.35,-278.12 1169.29,-274.79 1169.41,-281.79"/>
</g>
<!-- Node24 -->
<g id="node24" class="node">
<title>Node24</title>
<g id="a_node24"><a xlink:href="group__as__iic__reg__funcs.html#ga8058473baeded71954aa72ee8df24e9b" target="_top" xlink:title=" ">
<polygon fill="none" stroke="black" points="1178,-342.5 1178,-361.5 1285,-361.5 1285,-342.5 1178,-342.5"/>
<text text-anchor="middle" x="1231.5" y="-349.5" font-family="Helvetica,sans-Serif" font-size="10.00">as_iic_set_data_tx</text>
</a>
</g>
</g>
<!-- Node6&#45;&gt;Node24 -->
<g id="edge28" class="edge">
<title>Node6&#45;&gt;Node24</title>
<path fill="none" stroke="midnightblue" d="M702.31,-171.57C710.13,-201.59 738.65,-294.2 801,-333 921.45,-407.95 1099.81,-382.08 1183.68,-363.78"/>
<polygon fill="midnightblue" stroke="midnightblue" points="1184.68,-367.14 1193.67,-361.54 1183.15,-360.31 1184.68,-367.14"/>
</g>
<!-- Node6&#45;&gt;Node25 -->
<g id="edge31" class="edge">
<title>Node6&#45;&gt;Node25</title>
<path fill="none" stroke="midnightblue" d="M708.03,-152.45C720.53,-137.47 745.27,-107.45 765,-81 781.81,-58.47 777.8,-44.87 801,-29 803.9,-27.02 806.98,-25.24 810.18,-23.65"/>
<polygon fill="midnightblue" stroke="midnightblue" points="811.68,-26.81 819.47,-19.63 808.9,-20.39 811.68,-26.81"/>
</g>
<!-- Node8 -->
<g id="node8" class="node">
<title>Node8</title>
<g id="a_node8"><a xlink:href="group__as__iic__reg__funcs.html#ga8daa8fde0a7776aa2f5b335250b5aa2a" target="_top" xlink:title=" ">
<polygon fill="none" stroke="black" points="1322.5,-171.5 1322.5,-190.5 1444.5,-190.5 1444.5,-171.5 1322.5,-171.5"/>
<text text-anchor="middle" x="1383.5" y="-178.5" font-family="Helvetica,sans-Serif" font-size="10.00">as_iic_get_status_reg</text>
</a>
</g>
</g>
<!-- Node7&#45;&gt;Node8 -->
<g id="edge7" class="edge">
<title>Node7&#45;&gt;Node8</title>
<path fill="none" stroke="midnightblue" d="M1127.05,-165.42C1178.91,-168.58 1256.21,-173.3 1312.19,-176.71"/>
<polygon fill="midnightblue" stroke="midnightblue" points="1312.19,-180.22 1322.38,-177.33 1312.62,-173.23 1312.19,-180.22"/>
</g>
<!-- Node9 -->
<g id="node9" class="node">
<title>Node9</title>
<g id="a_node9"><a xlink:href="group__asterics__support.html#ga8e5c2bfd2e4498d10289377bd94cef07" target="_top" xlink:title=" ">
<polygon fill="none" stroke="black" points="1500.5,-342.5 1500.5,-361.5 1576.5,-361.5 1576.5,-342.5 1500.5,-342.5"/>
<text text-anchor="middle" x="1538.5" y="-349.5" font-family="Helvetica,sans-Serif" font-size="10.00">as_reg_read</text>
</a>
</g>
</g>
<!-- Node8&#45;&gt;Node9 -->
<g id="edge8" class="edge">
<title>Node8&#45;&gt;Node9</title>
<path fill="none" stroke="midnightblue" d="M1389.94,-190.54C1403.4,-213.63 1440.25,-273.57 1482,-314 1490.86,-322.58 1501.86,-330.55 1511.73,-336.96"/>
<polygon fill="midnightblue" stroke="midnightblue" points="1510.04,-340.03 1520.37,-342.37 1513.75,-334.09 1510.04,-340.03"/>
</g>
<!-- Node10 -->
<g id="node10" class="node">
<title>Node10</title>
<g id="a_node10"><a xlink:href="group__asterics__support.html#ga4c6d688b840a6e2edc9bc0b8ed961677" target="_top" xlink:title=" ">
<polygon fill="none" stroke="black" points="1631,-342.5 1631,-361.5 1731,-361.5 1731,-342.5 1631,-342.5"/>
<text text-anchor="middle" x="1681" y="-349.5" font-family="Helvetica,sans-Serif" font-size="10.00">as_reg_to_uint32</text>
</a>
</g>
</g>
<!-- Node9&#45;&gt;Node10 -->
<g id="edge9" class="edge">
<title>Node9&#45;&gt;Node10</title>
<path fill="none" stroke="midnightblue" d="M1576.78,-352C1590.26,-352 1605.83,-352 1620.72,-352"/>
<polygon fill="midnightblue" stroke="midnightblue" points="1620.89,-355.5 1630.89,-352 1620.89,-348.5 1620.89,-355.5"/>
</g>
<!-- Node11&#45;&gt;Node12 -->
<g id="edge11" class="edge">
<title>Node11&#45;&gt;Node12</title>
<path fill="none" stroke="midnightblue" d="M1125.44,-57.02C1145.18,-62.46 1167.22,-68.54 1186,-73.72"/>
<polygon fill="midnightblue" stroke="midnightblue" points="1185.21,-77.14 1195.78,-76.42 1187.07,-70.39 1185.21,-77.14"/>
</g>
<!-- Node13 -->
<g id="node13" class="node">
<title>Node13</title>
<g id="a_node13"><a xlink:href="group__asterics__support.html#gab803703ab5b845023ca31b7b2664419c" target="_top" xlink:title=" ">
<polygon fill="none" stroke="black" points="1202,-32.5 1202,-51.5 1261,-51.5 1261,-32.5 1202,-32.5"/>
<text text-anchor="middle" x="1231.5" y="-39.5" font-family="Helvetica,sans-Serif" font-size="10.00">as_sleep</text>
</a>
</g>
</g>
<!-- Node11&#45;&gt;Node13 -->
<g id="edge13" class="edge">
<title>Node11&#45;&gt;Node13</title>
<path fill="none" stroke="midnightblue" d="M1129.03,-42C1149.83,-42 1172.76,-42 1191.55,-42"/>
<polygon fill="midnightblue" stroke="midnightblue" points="1191.81,-45.5 1201.81,-42 1191.81,-38.5 1191.81,-45.5"/>
</g>
<!-- Node12&#45;&gt;Node8 -->
<g id="edge12" class="edge">
<title>Node12&#45;&gt;Node8</title>
<path fill="none" stroke="midnightblue" d="M1247.71,-95.63C1273.88,-112.2 1327.6,-146.23 1358.74,-165.95"/>
<polygon fill="midnightblue" stroke="midnightblue" points="1356.93,-168.95 1367.25,-171.34 1360.68,-163.04 1356.93,-168.95"/>
</g>
<!-- Node14 -->
<g id="node14" class="node">
<title>Node14</title>
<g id="a_node14"><a xlink:href="group__asterics__support.html#ga284d9e0d170cf7cabc16ccd7e62d95bd" target="_top" xlink:title=" ">
<polygon fill="none" stroke="black" points="1355,-32.5 1355,-51.5 1412,-51.5 1412,-32.5 1355,-32.5"/>
<text text-anchor="middle" x="1383.5" y="-39.5" font-family="Helvetica,sans-Serif" font-size="10.00">as_yield</text>
</a>
</g>
</g>
<!-- Node13&#45;&gt;Node14 -->
<g id="edge14" class="edge">
<title>Node13&#45;&gt;Node14</title>
<path fill="none" stroke="midnightblue" d="M1261.07,-42C1284.75,-42 1318.62,-42 1344.57,-42"/>
<polygon fill="midnightblue" stroke="midnightblue" points="1344.8,-45.5 1354.8,-42 1344.8,-38.5 1344.8,-45.5"/>
</g>
<!-- Node15 -->
<g id="node15" class="node">
<title>Node15</title>
<g id="a_node15"><a xlink:href="group__asterics__support.html#gad294e0c5530bd6fb800a2394179070e1" target="_top" xlink:title=" ">
<polygon fill="none" stroke="black" points="1493.5,-51.5 1493.5,-70.5 1583.5,-70.5 1583.5,-51.5 1493.5,-51.5"/>
<text text-anchor="middle" x="1538.5" y="-58.5" font-family="Helvetica,sans-Serif" font-size="10.00">as_mutex_lock</text>
</a>
</g>
</g>
<!-- Node14&#45;&gt;Node15 -->
<g id="edge15" class="edge">
<title>Node14&#45;&gt;Node15</title>
<path fill="none" stroke="midnightblue" d="M1412.21,-45.44C1432.02,-47.9 1459.34,-51.29 1483.41,-54.28"/>
<polygon fill="midnightblue" stroke="midnightblue" points="1483.14,-57.78 1493.49,-55.53 1484,-50.83 1483.14,-57.78"/>
</g>
<!-- Node16 -->
<g id="node16" class="node">
<title>Node16</title>
<g id="a_node16"><a xlink:href="group__asterics__support.html#ga07e09e825f2608339f6213edb9d0c8b3" target="_top" xlink:title=" ">
<polygon fill="none" stroke="black" points="1487.5,-13.5 1487.5,-32.5 1589.5,-32.5 1589.5,-13.5 1487.5,-13.5"/>
<text text-anchor="middle" x="1538.5" y="-20.5" font-family="Helvetica,sans-Serif" font-size="10.00">as_mutex_unlock</text>
</a>
</g>
</g>
<!-- Node14&#45;&gt;Node16 -->
<g id="edge16" class="edge">
<title>Node14&#45;&gt;Node16</title>
<path fill="none" stroke="midnightblue" d="M1412.21,-38.56C1430.35,-36.31 1454.79,-33.27 1477.26,-30.48"/>
<polygon fill="midnightblue" stroke="midnightblue" points="1477.92,-33.93 1487.41,-29.22 1477.06,-26.98 1477.92,-33.93"/>
</g>
<!-- Node17&#45;&gt;Node13 -->
<g id="edge20" class="edge">
<title>Node17&#45;&gt;Node13</title>
<path fill="none" stroke="midnightblue" d="M1128.08,-190.48C1133.18,-187.99 1137.94,-184.88 1142,-181 1180.4,-144.27 1143.12,-107.08 1178,-67 1182.03,-62.37 1187.12,-58.52 1192.52,-55.35"/>
<polygon fill="midnightblue" stroke="midnightblue" points="1194.46,-58.29 1201.79,-50.64 1191.29,-52.05 1194.46,-58.29"/>
</g>
<!-- Node18 -->
<g id="node18" class="node">
<title>Node18</title>
<g id="a_node18"><a xlink:href="group__as__iic__bitchecks.html#ga4629e4514c3531d0bcd44ae20abc6bad" target="_top" xlink:title=" ">
<polygon fill="none" stroke="black" points="1182,-190.5 1182,-209.5 1281,-209.5 1281,-190.5 1182,-190.5"/>
<text text-anchor="middle" x="1231.5" y="-197.5" font-family="Helvetica,sans-Serif" font-size="10.00">as_iic_is_waiting</text>
</a>
</g>
</g>
<!-- Node17&#45;&gt;Node18 -->
<g id="edge18" class="edge">
<title>Node17&#45;&gt;Node18</title>
<path fill="none" stroke="midnightblue" d="M1142.35,-200C1152.1,-200 1162.01,-200 1171.51,-200"/>
<polygon fill="midnightblue" stroke="midnightblue" points="1171.62,-203.5 1181.62,-200 1171.62,-196.5 1171.62,-203.5"/>
</g>
<!-- Node18&#45;&gt;Node8 -->
<g id="edge19" class="edge">
<title>Node18&#45;&gt;Node8</title>
<path fill="none" stroke="midnightblue" d="M1281.2,-193.83C1291.12,-192.57 1301.74,-191.23 1312.24,-189.9"/>
<polygon fill="midnightblue" stroke="midnightblue" points="1312.76,-193.36 1322.24,-188.63 1311.88,-186.42 1312.76,-193.36"/>
</g>
<!-- Node20&#45;&gt;Node21 -->
<g id="edge24" class="edge">
<title>Node20&#45;&gt;Node21</title>
<path fill="none" stroke="midnightblue" d="M1111.25,-247.59C1132.3,-252.6 1158.26,-258.79 1180.57,-264.11"/>
<polygon fill="midnightblue" stroke="midnightblue" points="1180,-267.57 1190.54,-266.48 1181.62,-260.76 1180,-267.57"/>
</g>
<!-- Node22 -->
<g id="node22" class="node">
<title>Node22</title>
<g id="a_node22"><a xlink:href="group__asterics__support.html#ga6345b997e24a6cd5f9143cef27629d49" target="_top" xlink:title=" ">
<polygon fill="none" stroke="black" points="1344,-285.5 1344,-304.5 1423,-304.5 1423,-285.5 1344,-285.5"/>
<text text-anchor="middle" x="1383.5" y="-292.5" font-family="Helvetica,sans-Serif" font-size="10.00">as_reg_write</text>
</a>
</g>
</g>
<!-- Node21&#45;&gt;Node22 -->
<g id="edge25" class="edge">
<title>Node21&#45;&gt;Node22</title>
<path fill="none" stroke="midnightblue" d="M1283.7,-282.49C1299.85,-284.53 1317.65,-286.79 1333.63,-288.81"/>
<polygon fill="midnightblue" stroke="midnightblue" points="1333.48,-292.32 1343.84,-290.1 1334.36,-285.37 1333.48,-292.32"/>
</g>
<!-- Node23 -->
<g id="node23" class="node">
<title>Node23</title>
<g id="a_node23"><a xlink:href="group__asterics__support.html#gab651cc2c035ce61b354578434e59f822" target="_top" xlink:title=" ">
<polygon fill="none" stroke="black" points="1482,-285.5 1482,-304.5 1595,-304.5 1595,-285.5 1482,-285.5"/>
<text text-anchor="middle" x="1538.5" y="-292.5" font-family="Helvetica,sans-Serif" font-size="10.00">as_reg_from_uint32</text>
</a>
</g>
</g>
<!-- Node22&#45;&gt;Node23 -->
<g id="edge26" class="edge">
<title>Node22&#45;&gt;Node23</title>
<path fill="none" stroke="midnightblue" d="M1423.11,-295C1437.84,-295 1455.09,-295 1471.65,-295"/>
<polygon fill="midnightblue" stroke="midnightblue" points="1471.85,-298.5 1481.85,-295 1471.85,-291.5 1471.85,-298.5"/>
</g>
<!-- Node24&#45;&gt;Node9 -->
<g id="edge29" class="edge">
<title>Node24&#45;&gt;Node9</title>
<path fill="none" stroke="midnightblue" d="M1285.28,-352C1342.94,-352 1434.48,-352 1489.98,-352"/>
<polygon fill="midnightblue" stroke="midnightblue" points="1490.24,-355.5 1500.24,-352 1490.24,-348.5 1490.24,-355.5"/>
</g>
<!-- Node24&#45;&gt;Node22 -->
<g id="edge30" class="edge">
<title>Node24&#45;&gt;Node22</title>
<path fill="none" stroke="midnightblue" d="M1257.61,-342.46C1282.27,-333.09 1320.1,-318.71 1347.66,-308.24"/>
<polygon fill="midnightblue" stroke="midnightblue" points="1349.21,-311.4 1357.31,-304.57 1346.72,-304.85 1349.21,-311.4"/>
</g>
<!-- Node25&#45;&gt;Node7 -->
<g id="edge32" class="edge">
<title>Node25&#45;&gt;Node7</title>
<path fill="none" stroke="midnightblue" d="M947.86,-19.55C953.01,-22.05 957.82,-25.16 962,-29 999.57,-63.52 962.05,-101.8 998,-138 1001.95,-141.98 1006.59,-145.3 1011.57,-148.07"/>
<polygon fill="midnightblue" stroke="midnightblue" points="1010.29,-151.34 1020.82,-152.49 1013.3,-145.02 1010.29,-151.34"/>
</g>
<!-- Node25&#45;&gt;Node11 -->
<g id="edge33" class="edge">
<title>Node25&#45;&gt;Node11</title>
<path fill="none" stroke="midnightblue" d="M937.95,-19.51C957.7,-22.9 980.17,-26.76 1000.85,-30.31"/>
<polygon fill="midnightblue" stroke="midnightblue" points="1000.4,-33.78 1010.85,-32.02 1001.58,-26.88 1000.4,-33.78"/>
</g>
<!-- Node25&#45;&gt;Node13 -->
<g id="edge36" class="edge">
<title>Node25&#45;&gt;Node13</title>
<path fill="none" stroke="midnightblue" d="M962.17,-7.06C1013.74,-6.41 1082.19,-7.89 1142,-17 1159.22,-19.62 1177.84,-24.55 1193.53,-29.34"/>
<polygon fill="midnightblue" stroke="midnightblue" points="1192.79,-32.78 1203.38,-32.45 1194.89,-26.1 1192.79,-32.78"/>
</g>
<!-- Node25&#45;&gt;Node20 -->
<g id="edge34" class="edge">
<title>Node25&#45;&gt;Node20</title>
<path fill="none" stroke="midnightblue" d="M949.54,-19.58C954.14,-22.1 958.38,-25.2 962,-29 1021.32,-91.19 939.52,-156.01 998,-219 999.22,-220.32 1000.53,-221.55 1001.9,-222.7"/>
<polygon fill="midnightblue" stroke="midnightblue" points="1000.16,-225.74 1010.41,-228.42 1004.07,-219.94 1000.16,-225.74"/>
</g>
<!-- Node25&#45;&gt;Node21 -->
<g id="edge35" class="edge">
<title>Node25&#45;&gt;Node21</title>
<path fill="none" stroke="midnightblue" d="M940.02,-19.61C947.68,-22.07 955.21,-25.14 962,-29 981.95,-40.34 979.67,-52.2 998,-66 1055.99,-109.64 1091.95,-90.45 1142,-143 1167.78,-170.06 1157.1,-188.01 1178,-219 1187.93,-233.72 1201.57,-248.41 1212.46,-259.19"/>
<polygon fill="midnightblue" stroke="midnightblue" points="1210.19,-261.86 1219.81,-266.29 1215.05,-256.83 1210.19,-261.86"/>
</g>
<!-- Node26&#45;&gt;Node7 -->
<g id="edge39" class="edge">
<title>Node26&#45;&gt;Node7</title>
<path fill="none" stroke="midnightblue" d="M888.1,-304.22C902.75,-279.53 944.84,-214.23 998,-181 1001.37,-178.89 1004.98,-177.02 1008.71,-175.35"/>
<polygon fill="midnightblue" stroke="midnightblue" points="1010.16,-178.54 1018.17,-171.61 1007.59,-172.02 1010.16,-178.54"/>
</g>
<!-- Node26&#45;&gt;Node17 -->
<g id="edge40" class="edge">
<title>Node26&#45;&gt;Node17</title>
<path fill="none" stroke="midnightblue" d="M891.38,-304.33C909.53,-285.15 952.97,-242.15 998,-219 1002.49,-216.69 1007.3,-214.64 1012.21,-212.82"/>
<polygon fill="midnightblue" stroke="midnightblue" points="1013.37,-216.13 1021.73,-209.61 1011.13,-209.49 1013.37,-216.13"/>
</g>
<!-- Node26&#45;&gt;Node20 -->
<g id="edge44" class="edge">
<title>Node26&#45;&gt;Node20</title>
<path fill="none" stroke="midnightblue" d="M906.12,-304.37C939.05,-290.95 998.9,-266.57 1036.16,-251.38"/>
<polygon fill="midnightblue" stroke="midnightblue" points="1037.63,-254.56 1045.57,-247.55 1034.99,-248.08 1037.63,-254.56"/>
</g>
<!-- Node26&#45;&gt;Node21 -->
<g id="edge45" class="edge">
<title>Node26&#45;&gt;Node21</title>
<path fill="none" stroke="midnightblue" d="M948.76,-309.06C1001.27,-304.86 1076.46,-298.21 1142,-290 1150.75,-288.9 1159.96,-287.61 1169,-286.25"/>
<polygon fill="midnightblue" stroke="midnightblue" points="1169.75,-289.68 1179.1,-284.71 1168.69,-282.76 1169.75,-289.68"/>
</g>
<!-- Node26&#45;&gt;Node24 -->
<g id="edge46" class="edge">
<title>Node26&#45;&gt;Node24</title>
<path fill="none" stroke="midnightblue" d="M948.78,-321.24C1011.82,-328.12 1105.98,-338.4 1167.81,-345.15"/>
<polygon fill="midnightblue" stroke="midnightblue" points="1167.5,-348.64 1177.83,-346.25 1168.26,-341.68 1167.5,-348.64"/>
</g>
<!-- Node27 -->
<g id="node27" class="node">
<title>Node27</title>
<g id="a_node27"><a xlink:href="group__as__iic__bitchecks.html#ga2ef7a1f9767986f2033697f584cd4feb" target="_top" xlink:title=" ">
<polygon fill="none" stroke="black" points="1015,-418.5 1015,-437.5 1125,-437.5 1125,-418.5 1015,-418.5"/>
<text text-anchor="middle" x="1070" y="-425.5" font-family="Helvetica,sans-Serif" font-size="10.00">as_iic_is_readwrite</text>
</a>
</g>
</g>
<!-- Node26&#45;&gt;Node27 -->
<g id="edge41" class="edge">
<title>Node26&#45;&gt;Node27</title>
<path fill="none" stroke="midnightblue" d="M898.08,-323.52C930.58,-343.39 1005.81,-389.37 1044.72,-413.16"/>
<polygon fill="midnightblue" stroke="midnightblue" points="1042.98,-416.19 1053.33,-418.42 1046.63,-410.22 1042.98,-416.19"/>
</g>
<!-- Node28 -->
<g id="node28" class="node">
<title>Node28</title>
<g id="a_node28"><a xlink:href="group__as__iic__reg__funcs.html#gaca309e97934beed04c02e31ba9cfbd3a" target="_top" xlink:title=" ">
<polygon fill="none" stroke="black" points="1321,-389.5 1321,-408.5 1446,-408.5 1446,-389.5 1321,-389.5"/>
<text text-anchor="middle" x="1383.5" y="-396.5" font-family="Helvetica,sans-Serif" font-size="10.00">as_iic_get_control_reg</text>
</a>
</g>
</g>
<!-- Node27&#45;&gt;Node28 -->
<g id="edge42" class="edge">
<title>Node27&#45;&gt;Node28</title>
<path fill="none" stroke="midnightblue" d="M1125.26,-422.95C1176.62,-418.17 1254.07,-410.96 1310.56,-405.7"/>
<polygon fill="midnightblue" stroke="midnightblue" points="1311.22,-409.15 1320.85,-404.74 1310.57,-402.18 1311.22,-409.15"/>
</g>
<!-- Node28&#45;&gt;Node9 -->
<g id="edge43" class="edge">
<title>Node28&#45;&gt;Node9</title>
<path fill="none" stroke="midnightblue" d="M1415.46,-389.49C1438.82,-382.31 1471.08,-372.4 1496.57,-364.57"/>
<polygon fill="midnightblue" stroke="midnightblue" points="1497.79,-367.86 1506.32,-361.58 1495.74,-361.17 1497.79,-367.86"/>
</g>
</g>
</svg>
