<?xml version="1.0" encoding="UTF-8" standalone="no"?>
<!DOCTYPE svg PUBLIC "-//W3C//DTD SVG 1.1//EN"
 "http://www.w3.org/Graphics/SVG/1.1/DTD/svg11.dtd">
<!-- Generated by graphviz version 2.43.0 (0)
 -->
<!-- Title: as_iic_write_byte_mod Pages: 1 -->
<svg width="1267pt" height="342pt"
 viewBox="0.00 0.00 1267.00 342.00" xmlns="http://www.w3.org/2000/svg" xmlns:xlink="http://www.w3.org/1999/xlink">
<g id="graph0" class="graph" transform="scale(1 1) rotate(0) translate(4 338)">
<title>as_iic_write_byte_mod</title>
<!-- Node1 -->
<g id="node1" class="node">
<title>Node1</title>
<g id="a_node1"><a xlink:title=" ">
<polygon fill="#bfbfbf" stroke="black" points="0,-188.5 0,-207.5 128,-207.5 128,-188.5 0,-188.5"/>
<text text-anchor="middle" x="64" y="-195.5" font-family="Helvetica,sans-Serif" font-size="10.00">as_iic_write_byte_mod</text>
</a>
</g>
</g>
<!-- Node2 -->
<g id="node2" class="node">
<title>Node2</title>
<g id="a_node2"><a xlink:href="group__as__iic__helpers.html#ga53e6050a2c66be89ac23084fd9de9c23" target="_top" xlink:title=" ">
<polygon fill="none" stroke="black" points="164,-169.5 164,-188.5 296,-188.5 296,-169.5 164,-169.5"/>
<text text-anchor="middle" x="230" y="-176.5" font-family="Helvetica,sans-Serif" font-size="10.00">as_iic_start_transaction</text>
</a>
</g>
</g>
<!-- Node1&#45;&gt;Node2 -->
<g id="edge1" class="edge">
<title>Node1&#45;&gt;Node2</title>
<path fill="none" stroke="midnightblue" d="M128.41,-190.65C136.76,-189.68 145.39,-188.68 153.92,-187.69"/>
<polygon fill="midnightblue" stroke="midnightblue" points="154.33,-191.17 163.87,-186.54 153.53,-184.22 154.33,-191.17"/>
</g>
<!-- Node21 -->
<g id="node21" class="node">
<title>Node21</title>
<g id="a_node21"><a xlink:href="group__as__iic__helpers.html#ga67cc002a1b20c75dc26f7b328ca5ddc9" target="_top" xlink:title=" ">
<polygon fill="none" stroke="black" points="332,-226.5 332,-245.5 493,-245.5 493,-226.5 332,-226.5"/>
<text text-anchor="middle" x="412.5" y="-233.5" font-family="Helvetica,sans-Serif" font-size="10.00">as_iic_stop_write_transaction</text>
</a>
</g>
</g>
<!-- Node1&#45;&gt;Node21 -->
<g id="edge33" class="edge">
<title>Node1&#45;&gt;Node21</title>
<path fill="none" stroke="midnightblue" d="M128.15,-204.92C182.33,-210.86 261.03,-219.49 321.75,-226.15"/>
<polygon fill="midnightblue" stroke="midnightblue" points="321.4,-229.64 331.72,-227.25 322.16,-222.68 321.4,-229.64"/>
</g>
<!-- Node3 -->
<g id="node3" class="node">
<title>Node3</title>
<g id="a_node3"><a xlink:href="group__as__iic__bitchecks.html#gaa4e8718c748b5a7e956a38ffd6dbe15d" target="_top" xlink:title=" ">
<polygon fill="none" stroke="black" points="544,-188.5 544,-207.5 658,-207.5 658,-188.5 544,-188.5"/>
<text text-anchor="middle" x="601" y="-195.5" font-family="Helvetica,sans-Serif" font-size="10.00">as_iic_ack_received</text>
</a>
</g>
</g>
<!-- Node2&#45;&gt;Node3 -->
<g id="edge2" class="edge">
<title>Node2&#45;&gt;Node3</title>
<path fill="none" stroke="midnightblue" d="M296.12,-182.35C363.03,-185.79 466.65,-191.13 533.91,-194.59"/>
<polygon fill="midnightblue" stroke="midnightblue" points="533.81,-198.09 543.98,-195.11 534.17,-191.1 533.81,-198.09"/>
</g>
<!-- Node7 -->
<g id="node7" class="node">
<title>Node7</title>
<g id="a_node7"><a xlink:href="group__as__iic__wait.html#gad3cfec26b8a73166e060108cf1444a2b" target="_top" xlink:title=" ">
<polygon fill="none" stroke="black" points="542,-227 542,-257 660,-257 660,-227 542,-227"/>
<text text-anchor="start" x="550" y="-245" font-family="Helvetica,sans-Serif" font-size="10.00">as_iic_busy_wait_for</text>
<text text-anchor="middle" x="601" y="-234" font-family="Helvetica,sans-Serif" font-size="10.00">_hwready</text>
</a>
</g>
</g>
<!-- Node2&#45;&gt;Node7 -->
<g id="edge6" class="edge">
<title>Node2&#45;&gt;Node7</title>
<path fill="none" stroke="midnightblue" d="M239.54,-188.64C255.59,-205.94 292.25,-241.71 332,-255 397.3,-276.82 476.53,-269.11 531.84,-258.7"/>
<polygon fill="midnightblue" stroke="midnightblue" points="532.74,-262.09 541.88,-256.73 531.39,-255.22 532.74,-262.09"/>
</g>
<!-- Node8 -->
<g id="node8" class="node">
<title>Node8</title>
<g id="a_node8"><a xlink:href="group__as__iic__user.html#gacdb0c71d0fcfe5e50a7f7316762cd0c0" target="_top" xlink:title=" ">
<polygon fill="none" stroke="black" points="717,-226.5 717,-245.5 808,-245.5 808,-226.5 717,-226.5"/>
<text text-anchor="middle" x="762.5" y="-233.5" font-family="Helvetica,sans-Serif" font-size="10.00">as_iic_is_ready</text>
</a>
</g>
</g>
<!-- Node2&#45;&gt;Node8 -->
<g id="edge18" class="edge">
<title>Node2&#45;&gt;Node8</title>
<path fill="none" stroke="midnightblue" d="M284.42,-169.49C368.93,-156.54 537.73,-139.2 673,-179 699.87,-186.9 726.29,-205.78 743.17,-219.65"/>
<polygon fill="midnightblue" stroke="midnightblue" points="741.19,-222.56 751.08,-226.36 745.72,-217.22 741.19,-222.56"/>
</g>
<!-- Node13 -->
<g id="node13" class="node">
<title>Node13</title>
<g id="a_node13"><a xlink:href="group__as__iic__wait.html#ga0bc5aad64893b674c42943fb64d17676" target="_top" xlink:title=" ">
<polygon fill="none" stroke="black" points="529,-314.5 529,-333.5 673,-333.5 673,-314.5 529,-314.5"/>
<text text-anchor="middle" x="601" y="-321.5" font-family="Helvetica,sans-Serif" font-size="10.00">as_iic_busy_wait_for_wait</text>
</a>
</g>
</g>
<!-- Node2&#45;&gt;Node13 -->
<g id="edge13" class="edge">
<title>Node2&#45;&gt;Node13</title>
<path fill="none" stroke="midnightblue" d="M237.85,-188.5C252.61,-208.19 289.52,-253.39 332,-275 390.15,-304.56 463.43,-316.5 518.66,-321.21"/>
<polygon fill="midnightblue" stroke="midnightblue" points="518.5,-324.71 528.75,-322.01 519.06,-317.73 518.5,-324.71"/>
</g>
<!-- Node15 -->
<g id="node15" class="node">
<title>Node15</title>
<g id="a_node15"><a xlink:href="group__as__iic__bitchecks.html#gad90ab4c2ed7fbca8f768c87cdb5794ee" target="_top" xlink:title=" ">
<polygon fill="none" stroke="black" points="357,-112.5 357,-131.5 468,-131.5 468,-112.5 357,-112.5"/>
<text text-anchor="middle" x="412.5" y="-119.5" font-family="Helvetica,sans-Serif" font-size="10.00">as_iic_is_initialized</text>
</a>
</g>
</g>
<!-- Node2&#45;&gt;Node15 -->
<g id="edge17" class="edge">
<title>Node2&#45;&gt;Node15</title>
<path fill="none" stroke="midnightblue" d="M259.68,-169.44C279.86,-162.75 307.54,-153.68 332,-146 344.14,-142.18 357.36,-138.14 369.48,-134.49"/>
<polygon fill="midnightblue" stroke="midnightblue" points="370.77,-137.75 379.34,-131.52 368.76,-131.05 370.77,-137.75"/>
</g>
<!-- Node16 -->
<g id="node16" class="node">
<title>Node16</title>
<g id="a_node16"><a xlink:href="group__as__iic__user.html#gae03c311fae3d6a830878a2b0c2c1c2bf" target="_top" xlink:title=" ">
<polygon fill="none" stroke="black" points="539,-74.5 539,-93.5 663,-93.5 663,-74.5 539,-74.5"/>
<text text-anchor="middle" x="601" y="-81.5" font-family="Helvetica,sans-Serif" font-size="10.00">as_iic_reset_hw_state</text>
</a>
</g>
</g>
<!-- Node2&#45;&gt;Node16 -->
<g id="edge19" class="edge">
<title>Node2&#45;&gt;Node16</title>
<path fill="none" stroke="midnightblue" d="M239.89,-169.36C256.23,-152.39 292.95,-117.6 332,-103 395.54,-79.23 473.39,-76.33 528.78,-78.27"/>
<polygon fill="midnightblue" stroke="midnightblue" points="528.72,-81.77 538.85,-78.68 529,-74.77 528.72,-81.77"/>
</g>
<!-- Node17 -->
<g id="node17" class="node">
<title>Node17</title>
<g id="a_node17"><a xlink:href="group__as__iic__reg__funcs.html#gac83a48fc09234a7a99adafb1ce565eb0" target="_top" xlink:title=" ">
<polygon fill="none" stroke="black" points="710.5,-74.5 710.5,-93.5 814.5,-93.5 814.5,-74.5 710.5,-74.5"/>
<text text-anchor="middle" x="762.5" y="-81.5" font-family="Helvetica,sans-Serif" font-size="10.00">as_iic_set_control</text>
</a>
</g>
</g>
<!-- Node2&#45;&gt;Node17 -->
<g id="edge23" class="edge">
<title>Node2&#45;&gt;Node17</title>
<path fill="none" stroke="midnightblue" d="M236.54,-169.34C249.74,-147.4 285.45,-94.07 332,-73 463.37,-13.53 641.26,-50.15 720.49,-71.65"/>
<polygon fill="midnightblue" stroke="midnightblue" points="719.98,-75.14 730.55,-74.44 721.85,-68.39 719.98,-75.14"/>
</g>
<!-- Node20 -->
<g id="node20" class="node">
<title>Node20</title>
<g id="a_node20"><a xlink:href="group__as__iic__reg__funcs.html#ga8058473baeded71954aa72ee8df24e9b" target="_top" xlink:title=" ">
<polygon fill="none" stroke="black" points="709,-36.5 709,-55.5 816,-55.5 816,-36.5 709,-36.5"/>
<text text-anchor="middle" x="762.5" y="-43.5" font-family="Helvetica,sans-Serif" font-size="10.00">as_iic_set_data_tx</text>
</a>
</g>
</g>
<!-- Node2&#45;&gt;Node20 -->
<g id="edge24" class="edge">
<title>Node2&#45;&gt;Node20</title>
<path fill="none" stroke="midnightblue" d="M234.28,-169.33C244.05,-142.29 275.81,-65.98 332,-37 461.56,29.84 643.68,-10.64 722.55,-33.52"/>
<polygon fill="midnightblue" stroke="midnightblue" points="721.96,-36.99 732.54,-36.48 723.95,-30.28 721.96,-36.99"/>
</g>
<!-- Node2&#45;&gt;Node21 -->
<g id="edge27" class="edge">
<title>Node2&#45;&gt;Node21</title>
<path fill="none" stroke="midnightblue" d="M259.68,-188.56C279.86,-195.24 307.54,-204.31 332,-212 344.14,-215.81 357.36,-219.85 369.48,-223.5"/>
<polygon fill="midnightblue" stroke="midnightblue" points="368.76,-226.94 379.34,-226.47 370.77,-220.24 368.76,-226.94"/>
</g>
<!-- Node4 -->
<g id="node4" class="node">
<title>Node4</title>
<g id="a_node4"><a xlink:href="group__as__iic__reg__funcs.html#ga8daa8fde0a7776aa2f5b335250b5aa2a" target="_top" xlink:title=" ">
<polygon fill="none" stroke="black" points="852,-203.5 852,-222.5 974,-222.5 974,-203.5 852,-203.5"/>
<text text-anchor="middle" x="913" y="-210.5" font-family="Helvetica,sans-Serif" font-size="10.00">as_iic_get_status_reg</text>
</a>
</g>
</g>
<!-- Node3&#45;&gt;Node4 -->
<g id="edge3" class="edge">
<title>Node3&#45;&gt;Node4</title>
<path fill="none" stroke="midnightblue" d="M658.14,-200.71C709.63,-203.2 786.11,-206.9 841.66,-209.59"/>
<polygon fill="midnightblue" stroke="midnightblue" points="841.62,-213.09 851.78,-210.08 841.96,-206.1 841.62,-213.09"/>
</g>
<!-- Node5 -->
<g id="node5" class="node">
<title>Node5</title>
<g id="a_node5"><a xlink:href="group__asterics__support.html#ga8e5c2bfd2e4498d10289377bd94cef07" target="_top" xlink:title=" ">
<polygon fill="none" stroke="black" points="1028.5,-170.5 1028.5,-189.5 1104.5,-189.5 1104.5,-170.5 1028.5,-170.5"/>
<text text-anchor="middle" x="1066.5" y="-177.5" font-family="Helvetica,sans-Serif" font-size="10.00">as_reg_read</text>
</a>
</g>
</g>
<!-- Node4&#45;&gt;Node5 -->
<g id="edge4" class="edge">
<title>Node4&#45;&gt;Node5</title>
<path fill="none" stroke="midnightblue" d="M957.82,-203.45C976.87,-199.3 999.22,-194.43 1018.61,-190.21"/>
<polygon fill="midnightblue" stroke="midnightblue" points="1019.41,-193.62 1028.44,-188.07 1017.92,-186.78 1019.41,-193.62"/>
</g>
<!-- Node6 -->
<g id="node6" class="node">
<title>Node6</title>
<g id="a_node6"><a xlink:href="group__asterics__support.html#ga4c6d688b840a6e2edc9bc0b8ed961677" target="_top" xlink:title=" ">
<polygon fill="none" stroke="black" points="1159,-170.5 1159,-189.5 1259,-189.5 1259,-170.5 1159,-170.5"/>
<text text-anchor="middle" x="1209" y="-177.5" font-family="Helvetica,sans-Serif" font-size="10.00">as_reg_to_uint32</text>
</a>
</g>
</g>
<!-- Node5&#45;&gt;Node6 -->
<g id="edge5" class="edge">
<title>Node5&#45;&gt;Node6</title>
<path fill="none" stroke="midnightblue" d="M1104.78,-180C1118.26,-180 1133.83,-180 1148.72,-180"/>
<polygon fill="midnightblue" stroke="midnightblue" points="1148.89,-183.5 1158.89,-180 1148.89,-176.5 1148.89,-183.5"/>
</g>
<!-- Node7&#45;&gt;Node8 -->
<g id="edge7" class="edge">
<title>Node7&#45;&gt;Node8</title>
<path fill="none" stroke="midnightblue" d="M660.03,-239.81C675.23,-239.24 691.57,-238.63 706.6,-238.06"/>
<polygon fill="midnightblue" stroke="midnightblue" points="706.9,-241.55 716.76,-237.68 706.64,-234.56 706.9,-241.55"/>
</g>
<!-- Node9 -->
<g id="node9" class="node">
<title>Node9</title>
<g id="a_node9"><a xlink:href="group__asterics__support.html#gab803703ab5b845023ca31b7b2664419c" target="_top" xlink:title=" ">
<polygon fill="none" stroke="black" points="733,-276.5 733,-295.5 792,-295.5 792,-276.5 733,-276.5"/>
<text text-anchor="middle" x="762.5" y="-283.5" font-family="Helvetica,sans-Serif" font-size="10.00">as_sleep</text>
</a>
</g>
</g>
<!-- Node7&#45;&gt;Node9 -->
<g id="edge9" class="edge">
<title>Node7&#45;&gt;Node9</title>
<path fill="none" stroke="midnightblue" d="M656.44,-257.02C678.37,-263.06 703.14,-269.9 723.12,-275.41"/>
<polygon fill="midnightblue" stroke="midnightblue" points="722.23,-278.79 732.8,-278.08 724.09,-272.05 722.23,-278.79"/>
</g>
<!-- Node8&#45;&gt;Node4 -->
<g id="edge8" class="edge">
<title>Node8&#45;&gt;Node4</title>
<path fill="none" stroke="midnightblue" d="M808.05,-229.1C818.69,-227.45 830.31,-225.65 841.79,-223.87"/>
<polygon fill="midnightblue" stroke="midnightblue" points="842.47,-227.31 851.82,-222.32 841.4,-220.39 842.47,-227.31"/>
</g>
<!-- Node10 -->
<g id="node10" class="node">
<title>Node10</title>
<g id="a_node10"><a xlink:href="group__asterics__support.html#ga284d9e0d170cf7cabc16ccd7e62d95bd" target="_top" xlink:title=" ">
<polygon fill="none" stroke="black" points="884.5,-276.5 884.5,-295.5 941.5,-295.5 941.5,-276.5 884.5,-276.5"/>
<text text-anchor="middle" x="913" y="-283.5" font-family="Helvetica,sans-Serif" font-size="10.00">as_yield</text>
</a>
</g>
</g>
<!-- Node9&#45;&gt;Node10 -->
<g id="edge10" class="edge">
<title>Node9&#45;&gt;Node10</title>
<path fill="none" stroke="midnightblue" d="M792.13,-286C815.54,-286 848.82,-286 874.38,-286"/>
<polygon fill="midnightblue" stroke="midnightblue" points="874.46,-289.5 884.46,-286 874.46,-282.5 874.46,-289.5"/>
</g>
<!-- Node11 -->
<g id="node11" class="node">
<title>Node11</title>
<g id="a_node11"><a xlink:href="group__asterics__support.html#gad294e0c5530bd6fb800a2394179070e1" target="_top" xlink:title=" ">
<polygon fill="none" stroke="black" points="1021.5,-295.5 1021.5,-314.5 1111.5,-314.5 1111.5,-295.5 1021.5,-295.5"/>
<text text-anchor="middle" x="1066.5" y="-302.5" font-family="Helvetica,sans-Serif" font-size="10.00">as_mutex_lock</text>
</a>
</g>
</g>
<!-- Node10&#45;&gt;Node11 -->
<g id="edge11" class="edge">
<title>Node10&#45;&gt;Node11</title>
<path fill="none" stroke="midnightblue" d="M941.79,-289.48C961.13,-291.91 987.57,-295.22 1011.04,-298.17"/>
<polygon fill="midnightblue" stroke="midnightblue" points="1010.88,-301.67 1021.23,-299.44 1011.75,-294.73 1010.88,-301.67"/>
</g>
<!-- Node12 -->
<g id="node12" class="node">
<title>Node12</title>
<g id="a_node12"><a xlink:href="group__asterics__support.html#ga07e09e825f2608339f6213edb9d0c8b3" target="_top" xlink:title=" ">
<polygon fill="none" stroke="black" points="1015.5,-257.5 1015.5,-276.5 1117.5,-276.5 1117.5,-257.5 1015.5,-257.5"/>
<text text-anchor="middle" x="1066.5" y="-264.5" font-family="Helvetica,sans-Serif" font-size="10.00">as_mutex_unlock</text>
</a>
</g>
</g>
<!-- Node10&#45;&gt;Node12 -->
<g id="edge12" class="edge">
<title>Node10&#45;&gt;Node12</title>
<path fill="none" stroke="midnightblue" d="M941.79,-282.51C959.57,-280.28 983.33,-277.3 1005.28,-274.55"/>
<polygon fill="midnightblue" stroke="midnightblue" points="1005.72,-278.02 1015.21,-273.3 1004.85,-271.07 1005.72,-278.02"/>
</g>
<!-- Node13&#45;&gt;Node9 -->
<g id="edge16" class="edge">
<title>Node13&#45;&gt;Node9</title>
<path fill="none" stroke="midnightblue" d="M642.25,-314.41C666.96,-308.52 698.44,-301.02 722.85,-295.21"/>
<polygon fill="midnightblue" stroke="midnightblue" points="723.92,-298.55 732.83,-292.83 722.3,-291.74 723.92,-298.55"/>
</g>
<!-- Node14 -->
<g id="node14" class="node">
<title>Node14</title>
<g id="a_node14"><a xlink:href="group__as__iic__bitchecks.html#ga4629e4514c3531d0bcd44ae20abc6bad" target="_top" xlink:title=" ">
<polygon fill="none" stroke="black" points="713,-314.5 713,-333.5 812,-333.5 812,-314.5 713,-314.5"/>
<text text-anchor="middle" x="762.5" y="-321.5" font-family="Helvetica,sans-Serif" font-size="10.00">as_iic_is_waiting</text>
</a>
</g>
</g>
<!-- Node13&#45;&gt;Node14 -->
<g id="edge14" class="edge">
<title>Node13&#45;&gt;Node14</title>
<path fill="none" stroke="midnightblue" d="M673.35,-324C683.1,-324 693.01,-324 702.51,-324"/>
<polygon fill="midnightblue" stroke="midnightblue" points="702.62,-327.5 712.62,-324 702.62,-320.5 702.62,-327.5"/>
</g>
<!-- Node14&#45;&gt;Node4 -->
<g id="edge15" class="edge">
<title>Node14&#45;&gt;Node4</title>
<path fill="none" stroke="midnightblue" d="M797.11,-314.48C803.64,-311.91 810.24,-308.77 816,-305 835.46,-292.25 835.34,-283.24 852,-267 865.37,-253.96 881.08,-239.87 893.07,-229.35"/>
<polygon fill="midnightblue" stroke="midnightblue" points="895.46,-231.9 900.7,-222.69 890.86,-226.63 895.46,-231.9"/>
</g>
<!-- Node16&#45;&gt;Node17 -->
<g id="edge20" class="edge">
<title>Node16&#45;&gt;Node17</title>
<path fill="none" stroke="midnightblue" d="M663.21,-84C675.36,-84 688.11,-84 700.26,-84"/>
<polygon fill="midnightblue" stroke="midnightblue" points="700.3,-87.5 710.3,-84 700.3,-80.5 700.3,-87.5"/>
</g>
<!-- Node18 -->
<g id="node18" class="node">
<title>Node18</title>
<g id="a_node18"><a xlink:href="group__asterics__support.html#ga6345b997e24a6cd5f9143cef27629d49" target="_top" xlink:title=" ">
<polygon fill="none" stroke="black" points="873.5,-55.5 873.5,-74.5 952.5,-74.5 952.5,-55.5 873.5,-55.5"/>
<text text-anchor="middle" x="913" y="-62.5" font-family="Helvetica,sans-Serif" font-size="10.00">as_reg_write</text>
</a>
</g>
</g>
<!-- Node17&#45;&gt;Node18 -->
<g id="edge21" class="edge">
<title>Node17&#45;&gt;Node18</title>
<path fill="none" stroke="midnightblue" d="M814.61,-77.46C830.43,-75.43 847.82,-73.21 863.47,-71.21"/>
<polygon fill="midnightblue" stroke="midnightblue" points="864,-74.67 873.47,-69.93 863.11,-67.72 864,-74.67"/>
</g>
<!-- Node19 -->
<g id="node19" class="node">
<title>Node19</title>
<g id="a_node19"><a xlink:href="group__asterics__support.html#gab651cc2c035ce61b354578434e59f822" target="_top" xlink:title=" ">
<polygon fill="none" stroke="black" points="1010,-55.5 1010,-74.5 1123,-74.5 1123,-55.5 1010,-55.5"/>
<text text-anchor="middle" x="1066.5" y="-62.5" font-family="Helvetica,sans-Serif" font-size="10.00">as_reg_from_uint32</text>
</a>
</g>
</g>
<!-- Node18&#45;&gt;Node19 -->
<g id="edge22" class="edge">
<title>Node18&#45;&gt;Node19</title>
<path fill="none" stroke="midnightblue" d="M952.62,-65C966.86,-65 983.43,-65 999.41,-65"/>
<polygon fill="midnightblue" stroke="midnightblue" points="999.79,-68.5 1009.79,-65 999.79,-61.5 999.79,-68.5"/>
</g>
<!-- Node20&#45;&gt;Node5 -->
<g id="edge25" class="edge">
<title>Node20&#45;&gt;Node5</title>
<path fill="none" stroke="midnightblue" d="M792.12,-55.54C799.95,-58.37 808.38,-61.62 816,-65 832.55,-72.31 835.74,-76.06 852,-84 915.57,-115.02 991.38,-148.24 1033.41,-166.32"/>
<polygon fill="midnightblue" stroke="midnightblue" points="1032.27,-169.64 1042.84,-170.37 1035.04,-163.21 1032.27,-169.64"/>
</g>
<!-- Node20&#45;&gt;Node18 -->
<g id="edge26" class="edge">
<title>Node20&#45;&gt;Node18</title>
<path fill="none" stroke="midnightblue" d="M816.27,-52.75C831.58,-54.71 848.22,-56.84 863.27,-58.76"/>
<polygon fill="midnightblue" stroke="midnightblue" points="863.03,-62.26 873.4,-60.06 863.92,-55.32 863.03,-62.26"/>
</g>
<!-- Node21&#45;&gt;Node3 -->
<g id="edge28" class="edge">
<title>Node21&#45;&gt;Node3</title>
<path fill="none" stroke="midnightblue" d="M460.56,-226.41C485.73,-221.28 516.9,-214.93 543.38,-209.53"/>
<polygon fill="midnightblue" stroke="midnightblue" points="544.18,-212.94 553.28,-207.52 542.78,-206.08 544.18,-212.94"/>
</g>
<!-- Node21&#45;&gt;Node7 -->
<g id="edge29" class="edge">
<title>Node21&#45;&gt;Node7</title>
<path fill="none" stroke="midnightblue" d="M493.13,-238.56C505.9,-238.97 519.01,-239.39 531.48,-239.79"/>
<polygon fill="midnightblue" stroke="midnightblue" points="531.68,-243.3 541.79,-240.12 531.9,-236.3 531.68,-243.3"/>
</g>
<!-- Node21&#45;&gt;Node9 -->
<g id="edge32" class="edge">
<title>Node21&#45;&gt;Node9</title>
<path fill="none" stroke="midnightblue" d="M443.08,-245.52C466.22,-252.59 499.34,-261.85 529,-267 596.37,-278.69 676.02,-283.22 722.43,-284.96"/>
<polygon fill="midnightblue" stroke="midnightblue" points="722.54,-288.46 732.65,-285.31 722.78,-281.47 722.54,-288.46"/>
</g>
<!-- Node21&#45;&gt;Node16 -->
<g id="edge30" class="edge">
<title>Node21&#45;&gt;Node16</title>
<path fill="none" stroke="midnightblue" d="M421.11,-226.37C442.42,-199.62 502.86,-125.17 529,-108 535.58,-103.68 543.01,-100.06 550.52,-97.05"/>
<polygon fill="midnightblue" stroke="midnightblue" points="551.84,-100.29 560.03,-93.56 549.43,-93.72 551.84,-100.29"/>
</g>
<!-- Node21&#45;&gt;Node17 -->
<g id="edge31" class="edge">
<title>Node21&#45;&gt;Node17</title>
<path fill="none" stroke="midnightblue" d="M432.11,-226.31C454.78,-214.62 494.34,-194.61 529,-179 598.45,-147.72 681.37,-114.89 727.05,-97.19"/>
<polygon fill="midnightblue" stroke="midnightblue" points="728.41,-100.42 736.48,-93.55 725.89,-93.89 728.41,-100.42"/>
</g>
</g>
</svg>
