<?xml version="1.0" encoding="UTF-8" standalone="no"?>
<!DOCTYPE svg PUBLIC "-//W3C//DTD SVG 1.1//EN"
 "http://www.w3.org/Graphics/SVG/1.1/DTD/svg11.dtd">
<!-- Generated by graphviz version 2.43.0 (0)
 -->
<!-- Title: as_iic_is_initialized Pages: 1 -->
<svg width="1259pt" height="275pt"
 viewBox="0.00 0.00 1259.00 275.00" xmlns="http://www.w3.org/2000/svg" xmlns:xlink="http://www.w3.org/1999/xlink">
<g id="graph0" class="graph" transform="scale(1 1) rotate(0) translate(4 271)">
<title>as_iic_is_initialized</title>
<!-- Node1 -->
<g id="node1" class="node">
<title>Node1</title>
<g id="a_node1"><a xlink:title=" ">
<polygon fill="#bfbfbf" stroke="black" points="1140,-95.5 1140,-114.5 1251,-114.5 1251,-95.5 1140,-95.5"/>
<text text-anchor="middle" x="1195.5" y="-102.5" font-family="Helvetica,sans-Serif" font-size="10.00">as_iic_is_initialized</text>
</a>
</g>
</g>
<!-- Node2 -->
<g id="node2" class="node">
<title>Node2</title>
<g id="a_node2"><a xlink:href="group__as__iic__helpers.html#ga53e6050a2c66be89ac23084fd9de9c23" target="_top" xlink:title=" ">
<polygon fill="none" stroke="black" points="972,-95.5 972,-114.5 1104,-114.5 1104,-95.5 972,-95.5"/>
<text text-anchor="middle" x="1038" y="-102.5" font-family="Helvetica,sans-Serif" font-size="10.00">as_iic_start_transaction</text>
</a>
</g>
</g>
<!-- Node1&#45;&gt;Node2 -->
<g id="edge1" class="edge">
<title>Node1&#45;&gt;Node2</title>
<path fill="none" stroke="midnightblue" d="M1129.59,-105C1121.21,-105 1112.63,-105 1104.25,-105"/>
<polygon fill="midnightblue" stroke="midnightblue" points="1129.68,-108.5 1139.68,-105 1129.68,-101.5 1129.68,-108.5"/>
</g>
<!-- Node3 -->
<g id="node3" class="node">
<title>Node3</title>
<g id="a_node3"><a xlink:href="group__as__iic__user.html#ga30385c0c387c1629188745edf9c824c1" target="_top" xlink:title=" ">
<polygon fill="none" stroke="black" points="812.5,-190.5 812.5,-209.5 931.5,-209.5 931.5,-190.5 812.5,-190.5"/>
<text text-anchor="middle" x="872" y="-197.5" font-family="Helvetica,sans-Serif" font-size="10.00">as_iic_get_byte_mod</text>
</a>
</g>
</g>
<!-- Node2&#45;&gt;Node3 -->
<g id="edge2" class="edge">
<title>Node2&#45;&gt;Node3</title>
<path fill="none" stroke="midnightblue" d="M1019.29,-121.43C1000.09,-138.48 967.89,-164.84 936,-181 928.66,-184.72 920.47,-187.85 912.48,-190.43"/>
<polygon fill="midnightblue" stroke="midnightblue" points="1021.85,-123.84 1026.92,-114.54 1017.15,-118.65 1021.85,-123.84"/>
</g>
<!-- Node13 -->
<g id="node13" class="node">
<title>Node13</title>
<g id="a_node13"><a xlink:href="group__as__iic__user.html#ga76b6915b73f14abb8a200df4eefde6f3" target="_top" xlink:title=" ">
<polygon fill="none" stroke="black" points="823,-38.5 823,-57.5 921,-57.5 921,-38.5 823,-38.5"/>
<text text-anchor="middle" x="872" y="-45.5" font-family="Helvetica,sans-Serif" font-size="10.00">as_iic_get_bytes</text>
</a>
</g>
</g>
<!-- Node2&#45;&gt;Node13 -->
<g id="edge14" class="edge">
<title>Node2&#45;&gt;Node13</title>
<path fill="none" stroke="midnightblue" d="M999.8,-92.07C969.63,-81.58 927.77,-67.04 900.54,-57.57"/>
<polygon fill="midnightblue" stroke="midnightblue" points="998.96,-95.48 1009.55,-95.46 1001.25,-88.87 998.96,-95.48"/>
</g>
<!-- Node14 -->
<g id="node14" class="node">
<title>Node14</title>
<g id="a_node14"><a xlink:href="group__as__iic__user.html#ga987a7c89e5d900225a42f04583e0cfe7" target="_top" xlink:title=" ">
<polygon fill="none" stroke="black" points="531,-124.5 531,-143.5 629,-143.5 629,-124.5 531,-124.5"/>
<text text-anchor="middle" x="580" y="-131.5" font-family="Helvetica,sans-Serif" font-size="10.00">as_iic_read_regs</text>
</a>
</g>
</g>
<!-- Node2&#45;&gt;Node14 -->
<g id="edge15" class="edge">
<title>Node2&#45;&gt;Node14</title>
<path fill="none" stroke="midnightblue" d="M961.62,-109.79C867.27,-115.79 708.45,-125.89 629.12,-130.94"/>
<polygon fill="midnightblue" stroke="midnightblue" points="961.91,-113.28 971.67,-109.15 961.46,-106.3 961.91,-113.28"/>
</g>
<!-- Node15 -->
<g id="node15" class="node">
<title>Node15</title>
<g id="a_node15"><a xlink:href="group__as__iic__user.html#ga5c5233652491e648a88292ae73b49ace" target="_top" xlink:title=" ">
<polygon fill="none" stroke="black" points="812,-0.5 812,-19.5 932,-19.5 932,-0.5 812,-0.5"/>
<text text-anchor="middle" x="872" y="-7.5" font-family="Helvetica,sans-Serif" font-size="10.00">as_iic_set_regpointer</text>
</a>
</g>
</g>
<!-- Node2&#45;&gt;Node15 -->
<g id="edge16" class="edge">
<title>Node2&#45;&gt;Node15</title>
<path fill="none" stroke="midnightblue" d="M1019.29,-88.57C1000.09,-71.52 967.89,-45.16 936,-29 928.66,-25.28 920.47,-22.15 912.48,-19.57"/>
<polygon fill="midnightblue" stroke="midnightblue" points="1017.15,-91.35 1026.92,-95.46 1021.85,-86.16 1017.15,-91.35"/>
</g>
<!-- Node16 -->
<g id="node16" class="node">
<title>Node16</title>
<g id="a_node16"><a xlink:href="group__as__iic__user.html#ga08fcff0dba9d6b4898291746d2206408" target="_top" xlink:title=" ">
<polygon fill="none" stroke="black" points="808,-152.5 808,-171.5 936,-171.5 936,-152.5 808,-152.5"/>
<text text-anchor="middle" x="872" y="-159.5" font-family="Helvetica,sans-Serif" font-size="10.00">as_iic_write_byte_mod</text>
</a>
</g>
</g>
<!-- Node2&#45;&gt;Node16 -->
<g id="edge17" class="edge">
<title>Node2&#45;&gt;Node16</title>
<path fill="none" stroke="midnightblue" d="M999.8,-117.93C969.63,-128.42 927.77,-142.96 900.54,-152.43"/>
<polygon fill="midnightblue" stroke="midnightblue" points="1001.25,-121.13 1009.55,-114.54 998.96,-114.52 1001.25,-121.13"/>
</g>
<!-- Node18 -->
<g id="node18" class="node">
<title>Node18</title>
<g id="a_node18"><a xlink:href="group__as__iic__user.html#ga2a4e5ee19e84cc95de665e29b92ccda1" target="_top" xlink:title=" ">
<polygon fill="none" stroke="black" points="665,-76.5 665,-95.5 772,-95.5 772,-76.5 665,-76.5"/>
<text text-anchor="middle" x="718.5" y="-83.5" font-family="Helvetica,sans-Serif" font-size="10.00">as_iic_write_bytes</text>
</a>
</g>
</g>
<!-- Node2&#45;&gt;Node18 -->
<g id="edge21" class="edge">
<title>Node2&#45;&gt;Node18</title>
<path fill="none" stroke="midnightblue" d="M961.7,-100.49C903.29,-97 823.81,-92.24 772.09,-89.15"/>
<polygon fill="midnightblue" stroke="midnightblue" points="961.79,-104.01 971.98,-101.11 962.21,-97.02 961.79,-104.01"/>
</g>
<!-- Node4 -->
<g id="node4" class="node">
<title>Node4</title>
<g id="a_node4"><a xlink:href="group__as__iic__user.html#gacf3e3b915e1f15ed8bdc60ab4c129996" target="_top" xlink:title=" ">
<polygon fill="none" stroke="black" points="672.5,-190.5 672.5,-209.5 764.5,-209.5 764.5,-190.5 672.5,-190.5"/>
<text text-anchor="middle" x="718.5" y="-197.5" font-family="Helvetica,sans-Serif" font-size="10.00">as_iic_get_byte</text>
</a>
</g>
</g>
<!-- Node3&#45;&gt;Node4 -->
<g id="edge3" class="edge">
<title>Node3&#45;&gt;Node4</title>
<path fill="none" stroke="midnightblue" d="M802.3,-200C789.57,-200 776.57,-200 764.76,-200"/>
<polygon fill="midnightblue" stroke="midnightblue" points="802.43,-203.5 812.43,-200 802.43,-196.5 802.43,-203.5"/>
</g>
<!-- Node5 -->
<g id="node5" class="node">
<title>Node5</title>
<g id="a_node5"><a xlink:href="group__as__iic__user.html#ga812d9e16a61b39777a5fbffc7eccbc8d" target="_top" xlink:title=" ">
<polygon fill="none" stroke="black" points="534,-171.5 534,-190.5 626,-190.5 626,-171.5 534,-171.5"/>
<text text-anchor="middle" x="580" y="-178.5" font-family="Helvetica,sans-Serif" font-size="10.00">as_iic_read_reg</text>
</a>
</g>
</g>
<!-- Node4&#45;&gt;Node5 -->
<g id="edge4" class="edge">
<title>Node4&#45;&gt;Node5</title>
<path fill="none" stroke="midnightblue" d="M662.44,-192.34C650.34,-190.65 637.67,-188.89 626.03,-187.27"/>
<polygon fill="midnightblue" stroke="midnightblue" points="662.04,-195.81 672.43,-193.73 663,-188.88 662.04,-195.81"/>
</g>
<!-- Node6 -->
<g id="node6" class="node">
<title>Node6</title>
<g id="a_node6"><a xlink:href="as__sensor__ov7670_8c.html#acb25afaea3e81940c50e327c45921f08" target="_top" xlink:title=" ">
<polygon fill="none" stroke="black" points="384,-171.5 384,-190.5 495,-190.5 495,-171.5 384,-171.5"/>
<text text-anchor="middle" x="439.5" y="-178.5" font-family="Helvetica,sans-Serif" font-size="10.00">ov7670_iic_reg_get</text>
</a>
</g>
</g>
<!-- Node5&#45;&gt;Node6 -->
<g id="edge5" class="edge">
<title>Node5&#45;&gt;Node6</title>
<path fill="none" stroke="midnightblue" d="M523.63,-181C514.24,-181 504.5,-181 495.13,-181"/>
<polygon fill="midnightblue" stroke="midnightblue" points="523.65,-184.5 533.65,-181 523.65,-177.5 523.65,-184.5"/>
</g>
<!-- Node7 -->
<g id="node7" class="node">
<title>Node7</title>
<g id="a_node7"><a xlink:href="group__as__sensor__ov7670.html#ga55b52e2499f96009197bfe90af6c7a41" target="_top" xlink:title=" ">
<polygon fill="none" stroke="black" points="164,-95.5 164,-114.5 348,-114.5 348,-95.5 164,-95.5"/>
<text text-anchor="middle" x="256" y="-102.5" font-family="Helvetica,sans-Serif" font-size="10.00">as_sensor_ov7670_exposure_auto</text>
</a>
</g>
</g>
<!-- Node6&#45;&gt;Node7 -->
<g id="edge6" class="edge">
<title>Node6&#45;&gt;Node7</title>
<path fill="none" stroke="midnightblue" d="M418.04,-165.11C400.41,-152.18 373.8,-134.42 348,-124 338.42,-120.13 327.95,-117.01 317.62,-114.5"/>
<polygon fill="midnightblue" stroke="midnightblue" points="416.29,-168.17 426.39,-171.37 420.48,-162.57 416.29,-168.17"/>
</g>
<!-- Node9 -->
<g id="node9" class="node">
<title>Node9</title>
<g id="a_node9"><a xlink:href="group__as__sensor__ov7670.html#gae1b977db2733432317fee8f0497eb67a" target="_top" xlink:title=" ">
<polygon fill="none" stroke="black" points="167,-209.5 167,-228.5 345,-228.5 345,-209.5 167,-209.5"/>
<text text-anchor="middle" x="256" y="-216.5" font-family="Helvetica,sans-Serif" font-size="10.00">as_sensor_ov7670_exposure_get</text>
</a>
</g>
</g>
<!-- Node6&#45;&gt;Node9 -->
<g id="edge8" class="edge">
<title>Node6&#45;&gt;Node9</title>
<path fill="none" stroke="midnightblue" d="M382.95,-192.67C371.4,-195.1 359.3,-197.63 348,-200 333.31,-203.08 317.28,-206.42 302.83,-209.44"/>
<polygon fill="midnightblue" stroke="midnightblue" points="383.86,-196.06 392.93,-190.58 382.42,-189.21 383.86,-196.06"/>
</g>
<!-- Node10 -->
<g id="node10" class="node">
<title>Node10</title>
<g id="a_node10"><a xlink:href="group__as__sensor__ov7670.html#gadd11863e70497418c9d31c922945cbec" target="_top" xlink:title=" ">
<polygon fill="none" stroke="black" points="176,-133.5 176,-152.5 336,-152.5 336,-133.5 176,-133.5"/>
<text text-anchor="middle" x="256" y="-140.5" font-family="Helvetica,sans-Serif" font-size="10.00">as_sensor_ov7670_gain_auto</text>
</a>
</g>
</g>
<!-- Node6&#45;&gt;Node10 -->
<g id="edge9" class="edge">
<title>Node6&#45;&gt;Node10</title>
<path fill="none" stroke="midnightblue" d="M382.95,-169.33C371.4,-166.9 359.3,-164.37 348,-162 333.31,-158.92 317.28,-155.58 302.83,-152.56"/>
<polygon fill="midnightblue" stroke="midnightblue" points="382.42,-172.79 392.93,-171.42 383.86,-165.94 382.42,-172.79"/>
</g>
<!-- Node11 -->
<g id="node11" class="node">
<title>Node11</title>
<g id="a_node11"><a xlink:href="group__as__sensor__ov7670.html#ga75ee4d998c858b26adae16b8140e8637" target="_top" xlink:title=" ">
<polygon fill="none" stroke="black" points="179,-247.5 179,-266.5 333,-266.5 333,-247.5 179,-247.5"/>
<text text-anchor="middle" x="256" y="-254.5" font-family="Helvetica,sans-Serif" font-size="10.00">as_sensor_ov7670_gain_get</text>
</a>
</g>
</g>
<!-- Node6&#45;&gt;Node11 -->
<g id="edge11" class="edge">
<title>Node6&#45;&gt;Node11</title>
<path fill="none" stroke="midnightblue" d="M418.04,-196.89C400.41,-209.82 373.8,-227.58 348,-238 338.42,-241.87 327.95,-244.99 317.62,-247.5"/>
<polygon fill="midnightblue" stroke="midnightblue" points="420.48,-199.43 426.39,-190.63 416.29,-193.83 420.48,-199.43"/>
</g>
<!-- Node12 -->
<g id="node12" class="node">
<title>Node12</title>
<g id="a_node12"><a xlink:href="as__sensor__ov7670_8c.html#ab5de18dc5dd74817505126a51487b8b1" target="_top" xlink:title=" ">
<polygon fill="none" stroke="black" points="181.5,-171.5 181.5,-190.5 330.5,-190.5 330.5,-171.5 181.5,-171.5"/>
<text text-anchor="middle" x="256" y="-178.5" font-family="Helvetica,sans-Serif" font-size="10.00">as_sensor_ov7670_identify</text>
</a>
</g>
</g>
<!-- Node6&#45;&gt;Node12 -->
<g id="edge12" class="edge">
<title>Node6&#45;&gt;Node12</title>
<path fill="none" stroke="midnightblue" d="M373.16,-181C359.33,-181 344.64,-181 330.53,-181"/>
<polygon fill="midnightblue" stroke="midnightblue" points="373.55,-184.5 383.55,-181 373.55,-177.5 373.55,-184.5"/>
</g>
<!-- Node8 -->
<g id="node8" class="node">
<title>Node8</title>
<g id="a_node8"><a xlink:href="group__as__sensor__ov7670.html#ga419a3339eac0f6abb8eafe24e468ae49" target="_top" xlink:title=" ">
<polygon fill="none" stroke="black" points="0,-133.5 0,-152.5 128,-152.5 128,-133.5 0,-133.5"/>
<text text-anchor="middle" x="64" y="-140.5" font-family="Helvetica,sans-Serif" font-size="10.00">as_sensor_ov7670_init</text>
</a>
</g>
</g>
<!-- Node7&#45;&gt;Node8 -->
<g id="edge7" class="edge">
<title>Node7&#45;&gt;Node8</title>
<path fill="none" stroke="midnightblue" d="M196.95,-116.61C169.93,-122.01 138.18,-128.36 112.6,-133.48"/>
<polygon fill="midnightblue" stroke="midnightblue" points="197.94,-119.98 207.05,-114.59 196.56,-113.12 197.94,-119.98"/>
</g>
<!-- Node10&#45;&gt;Node8 -->
<g id="edge10" class="edge">
<title>Node10&#45;&gt;Node8</title>
<path fill="none" stroke="midnightblue" d="M165.68,-143C153.01,-143 140.21,-143 128.17,-143"/>
<polygon fill="midnightblue" stroke="midnightblue" points="165.8,-146.5 175.8,-143 165.8,-139.5 165.8,-146.5"/>
</g>
<!-- Node12&#45;&gt;Node8 -->
<g id="edge13" class="edge">
<title>Node12&#45;&gt;Node8</title>
<path fill="none" stroke="midnightblue" d="M196.95,-169.39C169.93,-163.99 138.18,-157.64 112.6,-152.52"/>
<polygon fill="midnightblue" stroke="midnightblue" points="196.56,-172.88 207.05,-171.41 197.94,-166.02 196.56,-172.88"/>
</g>
<!-- Node17 -->
<g id="node17" class="node">
<title>Node17</title>
<g id="a_node17"><a xlink:href="group__as__iic__user.html#ga35cd65c29b1f4abd1ca87ca51605e5cc" target="_top" xlink:title=" ">
<polygon fill="none" stroke="black" points="668,-152.5 668,-171.5 769,-171.5 769,-152.5 668,-152.5"/>
<text text-anchor="middle" x="718.5" y="-159.5" font-family="Helvetica,sans-Serif" font-size="10.00">as_iic_write_byte</text>
</a>
</g>
</g>
<!-- Node16&#45;&gt;Node17 -->
<g id="edge18" class="edge">
<title>Node16&#45;&gt;Node17</title>
<path fill="none" stroke="midnightblue" d="M797.34,-162C787.83,-162 778.26,-162 769.26,-162"/>
<polygon fill="midnightblue" stroke="midnightblue" points="797.63,-165.5 807.63,-162 797.63,-158.5 797.63,-165.5"/>
</g>
<!-- Node17&#45;&gt;Node5 -->
<g id="edge19" class="edge">
<title>Node17&#45;&gt;Node5</title>
<path fill="none" stroke="midnightblue" d="M657.82,-170.31C647.26,-171.78 636.41,-173.29 626.32,-174.69"/>
<polygon fill="midnightblue" stroke="midnightblue" points="658.41,-173.76 667.83,-168.91 657.45,-166.83 658.41,-173.76"/>
</g>
<!-- Node17&#45;&gt;Node14 -->
<g id="edge20" class="edge">
<title>Node17&#45;&gt;Node14</title>
<path fill="none" stroke="midnightblue" d="M660.83,-150.38C649.7,-148.09 638.14,-145.72 627.38,-143.51"/>
<polygon fill="midnightblue" stroke="midnightblue" points="660.41,-153.86 670.91,-152.44 661.81,-147 660.41,-153.86"/>
</g>
<!-- Node19 -->
<g id="node19" class="node">
<title>Node19</title>
<g id="a_node19"><a xlink:href="group__as__iic__user.html#ga5ae8936ee892843eda5df7b9a418bd52" target="_top" xlink:title=" ">
<polygon fill="none" stroke="black" points="532.5,-76.5 532.5,-95.5 627.5,-95.5 627.5,-76.5 532.5,-76.5"/>
<text text-anchor="middle" x="580" y="-83.5" font-family="Helvetica,sans-Serif" font-size="10.00">as_iic_write_reg</text>
</a>
</g>
</g>
<!-- Node18&#45;&gt;Node19 -->
<g id="edge22" class="edge">
<title>Node18&#45;&gt;Node19</title>
<path fill="none" stroke="midnightblue" d="M654.63,-86C645.62,-86 636.48,-86 627.85,-86"/>
<polygon fill="midnightblue" stroke="midnightblue" points="654.73,-89.5 664.73,-86 654.73,-82.5 654.73,-89.5"/>
</g>
<!-- Node20 -->
<g id="node20" class="node">
<title>Node20</title>
<g id="a_node20"><a xlink:href="as__sensor__ov7670_8c.html#ad5b49e677d2124f73482764e3270bb42" target="_top" xlink:title=" ">
<polygon fill="none" stroke="black" points="384.5,-76.5 384.5,-95.5 494.5,-95.5 494.5,-76.5 384.5,-76.5"/>
<text text-anchor="middle" x="439.5" y="-83.5" font-family="Helvetica,sans-Serif" font-size="10.00">ov7670_iic_reg_set</text>
</a>
</g>
</g>
<!-- Node19&#45;&gt;Node20 -->
<g id="edge23" class="edge">
<title>Node19&#45;&gt;Node20</title>
<path fill="none" stroke="midnightblue" d="M522.37,-86C513.26,-86 503.84,-86 494.78,-86"/>
<polygon fill="midnightblue" stroke="midnightblue" points="522.5,-89.5 532.5,-86 522.5,-82.5 522.5,-89.5"/>
</g>
<!-- Node20&#45;&gt;Node7 -->
<g id="edge24" class="edge">
<title>Node20&#45;&gt;Node7</title>
<path fill="none" stroke="midnightblue" d="M373.97,-92.76C365.55,-93.64 356.81,-94.55 348.07,-95.47"/>
<polygon fill="midnightblue" stroke="midnightblue" points="374.46,-96.22 384.04,-91.7 373.73,-89.26 374.46,-96.22"/>
</g>
<!-- Node20&#45;&gt;Node10 -->
<g id="edge26" class="edge">
<title>Node20&#45;&gt;Node10</title>
<path fill="none" stroke="midnightblue" d="M409.66,-99.78C392.14,-107.73 369.14,-117.42 348,-124 336.29,-127.64 323.51,-130.8 311.33,-133.43"/>
<polygon fill="midnightblue" stroke="midnightblue" points="411.16,-102.94 418.78,-95.58 408.23,-96.58 411.16,-102.94"/>
</g>
<!-- Node21 -->
<g id="node21" class="node">
<title>Node21</title>
<g id="a_node21"><a xlink:href="group__as__sensor__ov7670.html#ga673b948f323ea0a23896c7dc4b0e05e3" target="_top" xlink:title=" ">
<polygon fill="none" stroke="black" points="167.5,-57.5 167.5,-76.5 344.5,-76.5 344.5,-57.5 167.5,-57.5"/>
<text text-anchor="middle" x="256" y="-64.5" font-family="Helvetica,sans-Serif" font-size="10.00">as_sensor_ov7670_exposure_set</text>
</a>
</g>
</g>
<!-- Node20&#45;&gt;Node21 -->
<g id="edge25" class="edge">
<title>Node20&#45;&gt;Node21</title>
<path fill="none" stroke="midnightblue" d="M373.93,-79.24C364.45,-78.25 354.54,-77.21 344.68,-76.18"/>
<polygon fill="midnightblue" stroke="midnightblue" points="373.73,-82.74 384.04,-80.3 374.46,-75.78 373.73,-82.74"/>
</g>
<!-- Node22 -->
<g id="node22" class="node">
<title>Node22</title>
<g id="a_node22"><a xlink:href="group__as__sensor__ov7670.html#ga45e866e9958d1c7d8e0b0dd206f01a9e" target="_top" xlink:title=" ">
<polygon fill="none" stroke="black" points="179.5,-19.5 179.5,-38.5 332.5,-38.5 332.5,-19.5 179.5,-19.5"/>
<text text-anchor="middle" x="256" y="-26.5" font-family="Helvetica,sans-Serif" font-size="10.00">as_sensor_ov7670_gain_set</text>
</a>
</g>
</g>
<!-- Node20&#45;&gt;Node22 -->
<g id="edge27" class="edge">
<title>Node20&#45;&gt;Node22</title>
<path fill="none" stroke="midnightblue" d="M409.66,-72.22C392.14,-64.27 369.14,-54.58 348,-48 336.29,-44.36 323.51,-41.2 311.33,-38.57"/>
<polygon fill="midnightblue" stroke="midnightblue" points="408.23,-75.42 418.78,-76.42 411.16,-69.06 408.23,-75.42"/>
</g>
</g>
</svg>
