<?xml version="1.0" encoding="UTF-8" standalone="no"?>
<!DOCTYPE svg PUBLIC "-//W3C//DTD SVG 1.1//EN"
 "http://www.w3.org/Graphics/SVG/1.1/DTD/svg11.dtd">
<!-- Generated by graphviz version 2.43.0 (0)
 -->
<!-- Title: as_reader_writer_set_go Pages: 1 -->
<svg width="566pt" height="85pt"
 viewBox="0.00 0.00 566.00 85.00" xmlns="http://www.w3.org/2000/svg" xmlns:xlink="http://www.w3.org/1999/xlink">
<g id="graph0" class="graph" transform="scale(1 1) rotate(0) translate(4 81)">
<title>as_reader_writer_set_go</title>
<!-- Node1 -->
<g id="node1" class="node">
<title>Node1</title>
<g id="a_node1"><a xlink:title="Starts operation of hardware module.">
<polygon fill="#bfbfbf" stroke="black" points="0,-38.5 0,-57.5 136,-57.5 136,-38.5 0,-38.5"/>
<text text-anchor="middle" x="68" y="-45.5" font-family="Helvetica,sans-Serif" font-size="10.00">as_reader_writer_set_go</text>
</a>
</g>
</g>
<!-- Node2 -->
<g id="node2" class="node">
<title>Node2</title>
<g id="a_node2"><a xlink:href="group__asterics__support.html#gaa7520f5b717e163da743500adb2eb0b9" target="_top" xlink:title=" ">
<polygon fill="none" stroke="black" points="187.5,-57.5 187.5,-76.5 278.5,-76.5 278.5,-57.5 187.5,-57.5"/>
<text text-anchor="middle" x="233" y="-64.5" font-family="Helvetica,sans-Serif" font-size="10.00">as_module_reg</text>
</a>
</g>
</g>
<!-- Node1&#45;&gt;Node2 -->
<g id="edge1" class="edge">
<title>Node1&#45;&gt;Node2</title>
<path fill="none" stroke="midnightblue" d="M136.24,-55.84C149.8,-57.42 163.91,-59.06 176.99,-60.59"/>
<polygon fill="midnightblue" stroke="midnightblue" points="176.9,-64.1 187.24,-61.78 177.71,-57.15 176.9,-64.1"/>
</g>
<!-- Node3 -->
<g id="node3" class="node">
<title>Node3</title>
<g id="a_node3"><a xlink:href="group__asterics__support.html#ga0ccb0610d764a95bda989e35fba59490" target="_top" xlink:title=" ">
<polygon fill="none" stroke="black" points="172,-19.5 172,-38.5 294,-38.5 294,-19.5 172,-19.5"/>
<text text-anchor="middle" x="233" y="-26.5" font-family="Helvetica,sans-Serif" font-size="10.00">as_reg_write_masked</text>
</a>
</g>
</g>
<!-- Node1&#45;&gt;Node3 -->
<g id="edge2" class="edge">
<title>Node1&#45;&gt;Node3</title>
<path fill="none" stroke="midnightblue" d="M136.24,-40.16C144.75,-39.17 153.47,-38.15 162.02,-37.16"/>
<polygon fill="midnightblue" stroke="midnightblue" points="162.43,-40.63 171.96,-36 161.62,-33.68 162.43,-40.63"/>
</g>
<!-- Node4 -->
<g id="node4" class="node">
<title>Node4</title>
<g id="a_node4"><a xlink:href="group__asterics__support.html#ga8e5c2bfd2e4498d10289377bd94cef07" target="_top" xlink:title=" ">
<polygon fill="none" stroke="black" points="331.5,-38.5 331.5,-57.5 407.5,-57.5 407.5,-38.5 331.5,-38.5"/>
<text text-anchor="middle" x="369.5" y="-45.5" font-family="Helvetica,sans-Serif" font-size="10.00">as_reg_read</text>
</a>
</g>
</g>
<!-- Node3&#45;&gt;Node4 -->
<g id="edge3" class="edge">
<title>Node3&#45;&gt;Node4</title>
<path fill="none" stroke="midnightblue" d="M294.17,-37.5C303.22,-38.78 312.44,-40.08 321.17,-41.31"/>
<polygon fill="midnightblue" stroke="midnightblue" points="320.76,-44.79 331.15,-42.72 321.74,-37.86 320.76,-44.79"/>
</g>
<!-- Node6 -->
<g id="node6" class="node">
<title>Node6</title>
<g id="a_node6"><a xlink:href="group__asterics__support.html#ga6345b997e24a6cd5f9143cef27629d49" target="_top" xlink:title=" ">
<polygon fill="none" stroke="black" points="330,-0.5 330,-19.5 409,-19.5 409,-0.5 330,-0.5"/>
<text text-anchor="middle" x="369.5" y="-7.5" font-family="Helvetica,sans-Serif" font-size="10.00">as_reg_write</text>
</a>
</g>
</g>
<!-- Node3&#45;&gt;Node6 -->
<g id="edge5" class="edge">
<title>Node3&#45;&gt;Node6</title>
<path fill="none" stroke="midnightblue" d="M294.17,-20.5C302.82,-19.28 311.63,-18.03 320.02,-16.85"/>
<polygon fill="midnightblue" stroke="midnightblue" points="320.59,-20.3 330,-15.44 319.61,-13.37 320.59,-20.3"/>
</g>
<!-- Node5 -->
<g id="node5" class="node">
<title>Node5</title>
<g id="a_node5"><a xlink:href="group__asterics__support.html#ga4c6d688b840a6e2edc9bc0b8ed961677" target="_top" xlink:title=" ">
<polygon fill="none" stroke="black" points="451.5,-38.5 451.5,-57.5 551.5,-57.5 551.5,-38.5 451.5,-38.5"/>
<text text-anchor="middle" x="501.5" y="-45.5" font-family="Helvetica,sans-Serif" font-size="10.00">as_reg_to_uint32</text>
</a>
</g>
</g>
<!-- Node4&#45;&gt;Node5 -->
<g id="edge4" class="edge">
<title>Node4&#45;&gt;Node5</title>
<path fill="none" stroke="midnightblue" d="M407.75,-48C418.09,-48 429.59,-48 440.86,-48"/>
<polygon fill="midnightblue" stroke="midnightblue" points="441.12,-51.5 451.12,-48 441.12,-44.5 441.12,-51.5"/>
</g>
<!-- Node7 -->
<g id="node7" class="node">
<title>Node7</title>
<g id="a_node7"><a xlink:href="group__asterics__support.html#gab651cc2c035ce61b354578434e59f822" target="_top" xlink:title=" ">
<polygon fill="none" stroke="black" points="445,-0.5 445,-19.5 558,-19.5 558,-0.5 445,-0.5"/>
<text text-anchor="middle" x="501.5" y="-7.5" font-family="Helvetica,sans-Serif" font-size="10.00">as_reg_from_uint32</text>
</a>
</g>
</g>
<!-- Node6&#45;&gt;Node7 -->
<g id="edge6" class="edge">
<title>Node6&#45;&gt;Node7</title>
<path fill="none" stroke="midnightblue" d="M409.15,-10C417.22,-10 425.94,-10 434.68,-10"/>
<polygon fill="midnightblue" stroke="midnightblue" points="434.92,-13.5 444.92,-10 434.92,-6.5 434.92,-13.5"/>
</g>
</g>
</svg>
