<?xml version="1.0" encoding="UTF-8" standalone="no"?>
<!DOCTYPE svg PUBLIC "-//W3C//DTD SVG 1.1//EN"
 "http://www.w3.org/Graphics/SVG/1.1/DTD/svg11.dtd">
<!-- Generated by graphviz version 2.43.0 (0)
 -->
<!-- Title: as_sensor_ov7670_init Pages: 1 -->
<svg width="2144pt" height="686pt"
 viewBox="0.00 0.00 2144.00 686.00" xmlns="http://www.w3.org/2000/svg" xmlns:xlink="http://www.w3.org/1999/xlink">
<g id="graph0" class="graph" transform="scale(1 1) rotate(0) translate(4 682)">
<title>as_sensor_ov7670_init</title>
<!-- Node1 -->
<g id="node1" class="node">
<title>Node1</title>
<g id="a_node1"><a xlink:title=" ">
<polygon fill="#bfbfbf" stroke="black" points="0,-114.5 0,-133.5 128,-133.5 128,-114.5 0,-114.5"/>
<text text-anchor="middle" x="64" y="-121.5" font-family="Helvetica,sans-Serif" font-size="10.00">as_sensor_ov7670_init</text>
</a>
</g>
</g>
<!-- Node2 -->
<g id="node2" class="node">
<title>Node2</title>
<g id="a_node2"><a xlink:href="group__as__sensor__ov7670.html#ga55b52e2499f96009197bfe90af6c7a41" target="_top" xlink:title=" ">
<polygon fill="none" stroke="black" points="164,-114.5 164,-133.5 348,-133.5 348,-114.5 164,-114.5"/>
<text text-anchor="middle" x="256" y="-121.5" font-family="Helvetica,sans-Serif" font-size="10.00">as_sensor_ov7670_exposure_auto</text>
</a>
</g>
</g>
<!-- Node1&#45;&gt;Node2 -->
<g id="edge1" class="edge">
<title>Node1&#45;&gt;Node2</title>
<path fill="none" stroke="midnightblue" d="M128,-124C136.23,-124 144.83,-124 153.49,-124"/>
<polygon fill="midnightblue" stroke="midnightblue" points="153.68,-127.5 163.68,-124 153.68,-120.5 153.68,-127.5"/>
</g>
<!-- Node3 -->
<g id="node3" class="node">
<title>Node3</title>
<g id="a_node3"><a xlink:href="as__sensor__ov7670_8c.html#a4af880494f665dfc2d878bcd991246d3" target="_top" xlink:title=" ">
<polygon fill="none" stroke="black" points="384,-152.5 384,-171.5 518,-171.5 518,-152.5 384,-152.5"/>
<text text-anchor="middle" x="451" y="-159.5" font-family="Helvetica,sans-Serif" font-size="10.00">ov7670_get_iic_channel</text>
</a>
</g>
</g>
<!-- Node1&#45;&gt;Node3 -->
<g id="edge80" class="edge">
<title>Node1&#45;&gt;Node3</title>
<path fill="none" stroke="midnightblue" d="M76.88,-133.65C94.58,-147.35 129.51,-171.78 164,-181 246.77,-203.12 347.56,-186.9 404.7,-173.9"/>
<polygon fill="midnightblue" stroke="midnightblue" points="405.57,-177.29 414.51,-171.6 403.97,-170.47 405.57,-177.29"/>
</g>
<!-- Node38 -->
<g id="node38" class="node">
<title>Node38</title>
<g id="a_node38"><a xlink:href="group__as__sensor__ov7670.html#gadd11863e70497418c9d31c922945cbec" target="_top" xlink:title=" ">
<polygon fill="none" stroke="black" points="176,-76.5 176,-95.5 336,-95.5 336,-76.5 176,-76.5"/>
<text text-anchor="middle" x="256" y="-83.5" font-family="Helvetica,sans-Serif" font-size="10.00">as_sensor_ov7670_gain_auto</text>
</a>
</g>
</g>
<!-- Node1&#45;&gt;Node38 -->
<g id="edge65" class="edge">
<title>Node1&#45;&gt;Node38</title>
<path fill="none" stroke="midnightblue" d="M112.95,-114.41C138.58,-109.28 170.34,-102.93 197.32,-97.54"/>
<polygon fill="midnightblue" stroke="midnightblue" points="198.28,-100.91 207.4,-95.52 196.91,-94.05 198.28,-100.91"/>
</g>
<!-- Node39 -->
<g id="node39" class="node">
<title>Node39</title>
<g id="a_node39"><a xlink:href="as__sensor__ov7670_8c.html#ab5de18dc5dd74817505126a51487b8b1" target="_top" xlink:title=" ">
<polygon fill="none" stroke="black" points="181.5,-152.5 181.5,-171.5 330.5,-171.5 330.5,-152.5 181.5,-152.5"/>
<text text-anchor="middle" x="256" y="-159.5" font-family="Helvetica,sans-Serif" font-size="10.00">as_sensor_ov7670_identify</text>
</a>
</g>
</g>
<!-- Node1&#45;&gt;Node39 -->
<g id="edge69" class="edge">
<title>Node1&#45;&gt;Node39</title>
<path fill="none" stroke="midnightblue" d="M112.95,-133.59C138.58,-138.72 170.34,-145.07 197.32,-150.46"/>
<polygon fill="midnightblue" stroke="midnightblue" points="196.91,-153.95 207.4,-152.48 198.28,-147.09 196.91,-153.95"/>
</g>
<!-- Node40 -->
<g id="node40" class="node">
<title>Node40</title>
<g id="a_node40"><a xlink:href="group__as__sensor__ov7670.html#ga3392b840d710dcb57d9e7ce2221210dc" target="_top" xlink:title=" ">
<polygon fill="none" stroke="black" points="1373,-38.5 1373,-57.5 1510,-57.5 1510,-38.5 1373,-38.5"/>
<text text-anchor="middle" x="1441.5" y="-45.5" font-family="Helvetica,sans-Serif" font-size="10.00">as_sensor_ov7670_reset</text>
</a>
</g>
</g>
<!-- Node1&#45;&gt;Node40 -->
<g id="edge72" class="edge">
<title>Node1&#45;&gt;Node40</title>
<path fill="none" stroke="midnightblue" d="M77.26,-114.43C95.16,-101.06 130.03,-77.3 164,-67 285.91,-30.04 322.61,-48 450,-48 450,-48 450,-48 1053,-48 1160.36,-48 1284.45,-48 1362.69,-48"/>
<polygon fill="midnightblue" stroke="midnightblue" points="1362.95,-51.5 1372.95,-48 1362.95,-44.5 1362.95,-51.5"/>
</g>
<!-- Node43 -->
<g id="node43" class="node">
<title>Node43</title>
<g id="a_node43"><a xlink:href="as__sensor__ov7670_8c.html#afa584132cfb864262d6910ce365472ba" target="_top" xlink:title=" ">
<polygon fill="none" stroke="black" points="1351,-0.5 1351,-19.5 1532,-19.5 1532,-0.5 1351,-0.5"/>
<text text-anchor="middle" x="1441.5" y="-7.5" font-family="Helvetica,sans-Serif" font-size="10.00">as_sensor_ov7670_resolution_set</text>
</a>
</g>
</g>
<!-- Node1&#45;&gt;Node43 -->
<g id="edge77" class="edge">
<title>Node1&#45;&gt;Node43</title>
<path fill="none" stroke="midnightblue" d="M72.77,-114.35C88.04,-96.16 124,-57.1 164,-40 281.52,10.25 322.19,-10 450,-10 450,-10 450,-10 1053,-10 1150.7,-10 1262.26,-10 1340.51,-10"/>
<polygon fill="midnightblue" stroke="midnightblue" points="1340.84,-13.5 1350.84,-10 1340.84,-6.5 1340.84,-13.5"/>
</g>
<!-- Node44 -->
<g id="node44" class="node">
<title>Node44</title>
<g id="a_node44"><a xlink:href="as__sensor__ov7670_8c.html#a10bc36e3bfa182ae3dde572ff928f64a" target="_top" xlink:title=" ">
<polygon fill="none" stroke="black" points="195.5,-229 195.5,-259 316.5,-259 316.5,-229 195.5,-229"/>
<text text-anchor="start" x="203.5" y="-247" font-family="Helvetica,sans-Serif" font-size="10.00">ov7670_set_registers</text>
<text text-anchor="middle" x="256" y="-236" font-family="Helvetica,sans-Serif" font-size="10.00">_vga_gray</text>
</a>
</g>
</g>
<!-- Node1&#45;&gt;Node44 -->
<g id="edge81" class="edge">
<title>Node1&#45;&gt;Node44</title>
<path fill="none" stroke="midnightblue" d="M73,-133.56C88.67,-151.73 125.28,-191.41 164,-214 171.33,-218.28 179.36,-222.04 187.51,-225.33"/>
<polygon fill="midnightblue" stroke="midnightblue" points="186.51,-228.69 197.1,-228.97 188.99,-222.15 186.51,-228.69"/>
</g>
<!-- Node2&#45;&gt;Node3 -->
<g id="edge2" class="edge">
<title>Node2&#45;&gt;Node3</title>
<path fill="none" stroke="midnightblue" d="M305.7,-133.59C331.86,-138.74 364.28,-145.12 391.77,-150.53"/>
<polygon fill="midnightblue" stroke="midnightblue" points="391.16,-153.98 401.65,-152.48 392.51,-147.11 391.16,-153.98"/>
</g>
<!-- Node4 -->
<g id="node4" class="node">
<title>Node4</title>
<g id="a_node4"><a xlink:href="as__sensor__ov7670_8c.html#acb25afaea3e81940c50e327c45921f08" target="_top" xlink:title=" ">
<polygon fill="none" stroke="black" points="395.5,-114.5 395.5,-133.5 506.5,-133.5 506.5,-114.5 395.5,-114.5"/>
<text text-anchor="middle" x="451" y="-121.5" font-family="Helvetica,sans-Serif" font-size="10.00">ov7670_iic_reg_get</text>
</a>
</g>
</g>
<!-- Node2&#45;&gt;Node4 -->
<g id="edge3" class="edge">
<title>Node2&#45;&gt;Node4</title>
<path fill="none" stroke="midnightblue" d="M348.13,-124C360.59,-124 373.16,-124 385.02,-124"/>
<polygon fill="midnightblue" stroke="midnightblue" points="385.24,-127.5 395.24,-124 385.24,-120.5 385.24,-127.5"/>
</g>
<!-- Node32 -->
<g id="node32" class="node">
<title>Node32</title>
<g id="a_node32"><a xlink:href="as__sensor__ov7670_8c.html#ad5b49e677d2124f73482764e3270bb42" target="_top" xlink:title=" ">
<polygon fill="none" stroke="black" points="396,-76.5 396,-95.5 506,-95.5 506,-76.5 396,-76.5"/>
<text text-anchor="middle" x="451" y="-83.5" font-family="Helvetica,sans-Serif" font-size="10.00">ov7670_iic_reg_set</text>
</a>
</g>
</g>
<!-- Node2&#45;&gt;Node32 -->
<g id="edge51" class="edge">
<title>Node2&#45;&gt;Node32</title>
<path fill="none" stroke="midnightblue" d="M305.7,-114.41C331.86,-109.26 364.28,-102.88 391.77,-97.47"/>
<polygon fill="midnightblue" stroke="midnightblue" points="392.51,-100.89 401.65,-95.52 391.16,-94.02 392.51,-100.89"/>
</g>
<!-- Node5 -->
<g id="node5" class="node">
<title>Node5</title>
<g id="a_node5"><a xlink:href="group__as__iic__user.html#ga812d9e16a61b39777a5fbffc7eccbc8d" target="_top" xlink:title=" ">
<polygon fill="none" stroke="black" points="555.5,-133.5 555.5,-152.5 647.5,-152.5 647.5,-133.5 555.5,-133.5"/>
<text text-anchor="middle" x="601.5" y="-140.5" font-family="Helvetica,sans-Serif" font-size="10.00">as_iic_read_reg</text>
</a>
</g>
</g>
<!-- Node4&#45;&gt;Node5 -->
<g id="edge4" class="edge">
<title>Node4&#45;&gt;Node5</title>
<path fill="none" stroke="midnightblue" d="M506.87,-131.02C519.27,-132.61 532.43,-134.29 544.86,-135.88"/>
<polygon fill="midnightblue" stroke="midnightblue" points="544.72,-139.39 555.09,-137.19 545.61,-132.45 544.72,-139.39"/>
</g>
<!-- Node6 -->
<g id="node6" class="node">
<title>Node6</title>
<g id="a_node6"><a xlink:href="group__as__iic__user.html#gacf3e3b915e1f15ed8bdc60ab4c129996" target="_top" xlink:title=" ">
<polygon fill="none" stroke="black" points="689.5,-152.5 689.5,-171.5 781.5,-171.5 781.5,-152.5 689.5,-152.5"/>
<text text-anchor="middle" x="735.5" y="-159.5" font-family="Helvetica,sans-Serif" font-size="10.00">as_iic_get_byte</text>
</a>
</g>
</g>
<!-- Node5&#45;&gt;Node6 -->
<g id="edge5" class="edge">
<title>Node5&#45;&gt;Node6</title>
<path fill="none" stroke="midnightblue" d="M647.56,-149.49C657.75,-150.95 668.68,-152.53 679.23,-154.04"/>
<polygon fill="midnightblue" stroke="midnightblue" points="678.8,-157.52 689.2,-155.48 679.8,-150.59 678.8,-157.52"/>
</g>
<!-- Node15 -->
<g id="node15" class="node">
<title>Node15</title>
<g id="a_node15"><a xlink:href="group__asterics__support.html#gab803703ab5b845023ca31b7b2664419c" target="_top" xlink:title=" ">
<polygon fill="none" stroke="black" points="1599.5,-228.5 1599.5,-247.5 1658.5,-247.5 1658.5,-228.5 1599.5,-228.5"/>
<text text-anchor="middle" x="1629" y="-235.5" font-family="Helvetica,sans-Serif" font-size="10.00">as_sleep</text>
</a>
</g>
</g>
<!-- Node5&#45;&gt;Node15 -->
<g id="edge50" class="edge">
<title>Node5&#45;&gt;Node15</title>
<path fill="none" stroke="midnightblue" d="M630.59,-133.46C680.95,-117.23 790.19,-86 885,-86 885,-86 885,-86 1235.5,-86 1372.46,-86 1408.44,-110.9 1532,-170 1561.24,-183.99 1591.12,-206.76 1609.61,-222.06"/>
<polygon fill="midnightblue" stroke="midnightblue" points="1607.35,-224.74 1617.26,-228.5 1611.86,-219.38 1607.35,-224.74"/>
</g>
<!-- Node30 -->
<g id="node30" class="node">
<title>Node30</title>
<g id="a_node30"><a xlink:href="group__as__iic__user.html#ga35cd65c29b1f4abd1ca87ca51605e5cc" target="_top" xlink:title=" ">
<polygon fill="none" stroke="black" points="685,-215.5 685,-234.5 786,-234.5 786,-215.5 685,-215.5"/>
<text text-anchor="middle" x="735.5" y="-222.5" font-family="Helvetica,sans-Serif" font-size="10.00">as_iic_write_byte</text>
</a>
</g>
</g>
<!-- Node5&#45;&gt;Node30 -->
<g id="edge46" class="edge">
<title>Node5&#45;&gt;Node30</title>
<path fill="none" stroke="midnightblue" d="M617.9,-152.57C640.65,-166.7 683.46,-193.29 710.39,-210.02"/>
<polygon fill="midnightblue" stroke="midnightblue" points="708.86,-213.19 719.2,-215.49 712.55,-207.24 708.86,-213.19"/>
</g>
<!-- Node7 -->
<g id="node7" class="node">
<title>Node7</title>
<g id="a_node7"><a xlink:href="group__as__iic__user.html#ga30385c0c387c1629188745edf9c824c1" target="_top" xlink:title=" ">
<polygon fill="none" stroke="black" points="826.5,-190.5 826.5,-209.5 945.5,-209.5 945.5,-190.5 826.5,-190.5"/>
<text text-anchor="middle" x="886" y="-197.5" font-family="Helvetica,sans-Serif" font-size="10.00">as_iic_get_byte_mod</text>
</a>
</g>
</g>
<!-- Node6&#45;&gt;Node7 -->
<g id="edge6" class="edge">
<title>Node6&#45;&gt;Node7</title>
<path fill="none" stroke="midnightblue" d="M773.97,-171.59C793.39,-176.56 817.3,-182.68 837.95,-187.96"/>
<polygon fill="midnightblue" stroke="midnightblue" points="837.24,-191.39 847.8,-190.48 838.98,-184.61 837.24,-191.39"/>
</g>
<!-- Node8 -->
<g id="node8" class="node">
<title>Node8</title>
<g id="a_node8"><a xlink:href="group__as__iic__helpers.html#ga53e6050a2c66be89ac23084fd9de9c23" target="_top" xlink:title=" ">
<polygon fill="none" stroke="black" points="986,-353.5 986,-372.5 1118,-372.5 1118,-353.5 986,-353.5"/>
<text text-anchor="middle" x="1052" y="-360.5" font-family="Helvetica,sans-Serif" font-size="10.00">as_iic_start_transaction</text>
</a>
</g>
</g>
<!-- Node7&#45;&gt;Node8 -->
<g id="edge7" class="edge">
<title>Node7&#45;&gt;Node8</title>
<path fill="none" stroke="midnightblue" d="M903.11,-209.62C916.37,-217.91 935.3,-230.62 950,-244 985.36,-276.18 1019.96,-320.54 1038.05,-344.99"/>
<polygon fill="midnightblue" stroke="midnightblue" points="1035.41,-347.32 1044.14,-353.33 1041.06,-343.19 1035.41,-347.32"/>
</g>
<!-- Node28 -->
<g id="node28" class="node">
<title>Node28</title>
<g id="a_node28"><a xlink:href="group__as__iic__helpers.html#gaa8ce9ac10b8c2ca9b614110ca5cbeff5" target="_top" xlink:title=" ">
<polygon fill="none" stroke="black" points="1155.5,-190.5 1155.5,-209.5 1313.5,-209.5 1313.5,-190.5 1155.5,-190.5"/>
<text text-anchor="middle" x="1234.5" y="-197.5" font-family="Helvetica,sans-Serif" font-size="10.00">as_iic_stop_read_transaction</text>
</a>
</g>
</g>
<!-- Node7&#45;&gt;Node28 -->
<g id="edge39" class="edge">
<title>Node7&#45;&gt;Node28</title>
<path fill="none" stroke="midnightblue" d="M945.78,-200C1000.37,-200 1082.42,-200 1144.95,-200"/>
<polygon fill="midnightblue" stroke="midnightblue" points="1145.2,-203.5 1155.2,-200 1145.2,-196.5 1145.2,-203.5"/>
</g>
<!-- Node9 -->
<g id="node9" class="node">
<title>Node9</title>
<g id="a_node9"><a xlink:href="group__as__iic__bitchecks.html#gaa4e8718c748b5a7e956a38ffd6dbe15d" target="_top" xlink:title=" ">
<polygon fill="none" stroke="black" points="1384.5,-544.5 1384.5,-563.5 1498.5,-563.5 1498.5,-544.5 1384.5,-544.5"/>
<text text-anchor="middle" x="1441.5" y="-551.5" font-family="Helvetica,sans-Serif" font-size="10.00">as_iic_ack_received</text>
</a>
</g>
</g>
<!-- Node8&#45;&gt;Node9 -->
<g id="edge8" class="edge">
<title>Node8&#45;&gt;Node9</title>
<path fill="none" stroke="midnightblue" d="M1057.31,-372.79C1072.2,-406.15 1122.32,-514.43 1154,-534 1223.11,-576.7 1320.3,-573.15 1381.83,-564.92"/>
<polygon fill="midnightblue" stroke="midnightblue" points="1382.36,-568.38 1391.77,-563.51 1381.38,-561.45 1382.36,-568.38"/>
</g>
<!-- Node13 -->
<g id="node13" class="node">
<title>Node13</title>
<g id="a_node13"><a xlink:href="group__as__iic__wait.html#gad3cfec26b8a73166e060108cf1444a2b" target="_top" xlink:title=" ">
<polygon fill="none" stroke="black" points="1382.5,-305 1382.5,-335 1500.5,-335 1500.5,-305 1382.5,-305"/>
<text text-anchor="start" x="1390.5" y="-323" font-family="Helvetica,sans-Serif" font-size="10.00">as_iic_busy_wait_for</text>
<text text-anchor="middle" x="1441.5" y="-312" font-family="Helvetica,sans-Serif" font-size="10.00">_hwready</text>
</a>
</g>
</g>
<!-- Node8&#45;&gt;Node13 -->
<g id="edge12" class="edge">
<title>Node8&#45;&gt;Node13</title>
<path fill="none" stroke="midnightblue" d="M1062.2,-372.53C1078.73,-388.91 1115.38,-421.78 1154,-434 1222.22,-455.58 1255.67,-474 1315,-434 1350.38,-410.15 1319.19,-373.44 1351,-345 1357.31,-339.36 1364.79,-334.98 1372.71,-331.58"/>
<polygon fill="midnightblue" stroke="midnightblue" points="1374.02,-334.83 1382.14,-328.03 1371.55,-328.28 1374.02,-334.83"/>
</g>
<!-- Node14 -->
<g id="node14" class="node">
<title>Node14</title>
<g id="a_node14"><a xlink:href="group__as__iic__user.html#gacdb0c71d0fcfe5e50a7f7316762cd0c0" target="_top" xlink:title=" ">
<polygon fill="none" stroke="black" points="1583.5,-430.5 1583.5,-449.5 1674.5,-449.5 1674.5,-430.5 1583.5,-430.5"/>
<text text-anchor="middle" x="1629" y="-437.5" font-family="Helvetica,sans-Serif" font-size="10.00">as_iic_is_ready</text>
</a>
</g>
</g>
<!-- Node8&#45;&gt;Node14 -->
<g id="edge24" class="edge">
<title>Node8&#45;&gt;Node14</title>
<path fill="none" stroke="midnightblue" d="M1066.01,-372.75C1079.53,-383.13 1101.07,-400.32 1118,-417 1135.52,-434.25 1131.66,-448.73 1154,-459 1227.12,-492.63 1464.87,-463.84 1573.26,-448.33"/>
<polygon fill="midnightblue" stroke="midnightblue" points="1573.94,-451.77 1583.33,-446.87 1572.93,-444.84 1573.94,-451.77"/>
</g>
<!-- Node19 -->
<g id="node19" class="node">
<title>Node19</title>
<g id="a_node19"><a xlink:href="group__as__iic__wait.html#ga0bc5aad64893b674c42943fb64d17676" target="_top" xlink:title=" ">
<polygon fill="none" stroke="black" points="1369.5,-506.5 1369.5,-525.5 1513.5,-525.5 1513.5,-506.5 1369.5,-506.5"/>
<text text-anchor="middle" x="1441.5" y="-513.5" font-family="Helvetica,sans-Serif" font-size="10.00">as_iic_busy_wait_for_wait</text>
</a>
</g>
</g>
<!-- Node8&#45;&gt;Node19 -->
<g id="edge19" class="edge">
<title>Node8&#45;&gt;Node19</title>
<path fill="none" stroke="midnightblue" d="M1056.34,-372.56C1066.26,-399.32 1098.38,-474.94 1154,-505 1227.06,-544.49 1326.59,-537.17 1387.04,-527.29"/>
<polygon fill="midnightblue" stroke="midnightblue" points="1387.87,-530.7 1397.13,-525.56 1386.68,-523.8 1387.87,-530.7"/>
</g>
<!-- Node21 -->
<g id="node21" class="node">
<title>Node21</title>
<g id="a_node21"><a xlink:href="group__as__iic__bitchecks.html#gad90ab4c2ed7fbca8f768c87cdb5794ee" target="_top" xlink:title=" ">
<polygon fill="none" stroke="black" points="1179,-405.5 1179,-424.5 1290,-424.5 1290,-405.5 1179,-405.5"/>
<text text-anchor="middle" x="1234.5" y="-412.5" font-family="Helvetica,sans-Serif" font-size="10.00">as_iic_is_initialized</text>
</a>
</g>
</g>
<!-- Node8&#45;&gt;Node21 -->
<g id="edge23" class="edge">
<title>Node8&#45;&gt;Node21</title>
<path fill="none" stroke="midnightblue" d="M1086.11,-372.54C1115.4,-380.98 1158.34,-393.35 1190.33,-402.56"/>
<polygon fill="midnightblue" stroke="midnightblue" points="1189.72,-406.03 1200.3,-405.43 1191.66,-399.3 1189.72,-406.03"/>
</g>
<!-- Node22 -->
<g id="node22" class="node">
<title>Node22</title>
<g id="a_node22"><a xlink:href="group__as__iic__user.html#gae03c311fae3d6a830878a2b0c2c1c2bf" target="_top" xlink:title=" ">
<polygon fill="none" stroke="black" points="1379.5,-354.5 1379.5,-373.5 1503.5,-373.5 1503.5,-354.5 1379.5,-354.5"/>
<text text-anchor="middle" x="1441.5" y="-361.5" font-family="Helvetica,sans-Serif" font-size="10.00">as_iic_reset_hw_state</text>
</a>
</g>
</g>
<!-- Node8&#45;&gt;Node22 -->
<g id="edge25" class="edge">
<title>Node8&#45;&gt;Node22</title>
<path fill="none" stroke="midnightblue" d="M1072.14,-353.41C1092.03,-344.04 1124.32,-330.4 1154,-325 1224.4,-312.19 1245.73,-307.05 1315,-325 1332.72,-329.59 1333.86,-338.58 1351,-345 1358.03,-347.63 1365.52,-349.94 1373.06,-351.95"/>
<polygon fill="midnightblue" stroke="midnightblue" points="1372.41,-355.4 1382.96,-354.44 1374.11,-348.61 1372.41,-355.4"/>
</g>
<!-- Node23 -->
<g id="node23" class="node">
<title>Node23</title>
<g id="a_node23"><a xlink:href="group__as__iic__reg__funcs.html#gac83a48fc09234a7a99adafb1ce565eb0" target="_top" xlink:title=" ">
<polygon fill="none" stroke="black" points="1577,-310.5 1577,-329.5 1681,-329.5 1681,-310.5 1577,-310.5"/>
<text text-anchor="middle" x="1629" y="-317.5" font-family="Helvetica,sans-Serif" font-size="10.00">as_iic_set_control</text>
</a>
</g>
</g>
<!-- Node8&#45;&gt;Node23 -->
<g id="edge29" class="edge">
<title>Node8&#45;&gt;Node23</title>
<path fill="none" stroke="midnightblue" d="M1118.21,-354.04C1171.92,-348.77 1249.61,-346.06 1315,-363 1332.72,-367.59 1333.28,-378.41 1351,-383 1428.87,-403.18 1454.92,-406.03 1532,-383 1562.2,-373.97 1591.72,-352.06 1609.88,-336.63"/>
<polygon fill="midnightblue" stroke="midnightblue" points="1612.62,-338.88 1617.83,-329.65 1608,-333.62 1612.62,-338.88"/>
</g>
<!-- Node26 -->
<g id="node26" class="node">
<title>Node26</title>
<g id="a_node26"><a xlink:href="group__as__iic__reg__funcs.html#ga8058473baeded71954aa72ee8df24e9b" target="_top" xlink:title=" ">
<polygon fill="none" stroke="black" points="1575.5,-468.5 1575.5,-487.5 1682.5,-487.5 1682.5,-468.5 1575.5,-468.5"/>
<text text-anchor="middle" x="1629" y="-475.5" font-family="Helvetica,sans-Serif" font-size="10.00">as_iic_set_data_tx</text>
</a>
</g>
</g>
<!-- Node8&#45;&gt;Node26 -->
<g id="edge30" class="edge">
<title>Node8&#45;&gt;Node26</title>
<path fill="none" stroke="midnightblue" d="M1118.25,-368.82C1171.48,-374.15 1248.49,-383.16 1315,-396 1321.66,-397.29 1496.8,-443.4 1582.13,-465.9"/>
<polygon fill="midnightblue" stroke="midnightblue" points="1581.26,-469.29 1591.83,-468.46 1583.05,-462.52 1581.26,-469.29"/>
</g>
<!-- Node27 -->
<g id="node27" class="node">
<title>Node27</title>
<g id="a_node27"><a xlink:href="group__as__iic__helpers.html#ga67cc002a1b20c75dc26f7b328ca5ddc9" target="_top" xlink:title=" ">
<polygon fill="none" stroke="black" points="1154,-253.5 1154,-272.5 1315,-272.5 1315,-253.5 1154,-253.5"/>
<text text-anchor="middle" x="1234.5" y="-260.5" font-family="Helvetica,sans-Serif" font-size="10.00">as_iic_stop_write_transaction</text>
</a>
</g>
</g>
<!-- Node8&#45;&gt;Node27 -->
<g id="edge33" class="edge">
<title>Node8&#45;&gt;Node27</title>
<path fill="none" stroke="midnightblue" d="M1068.98,-353.42C1082.44,-345.11 1102.01,-332.49 1118,-320 1135.1,-306.64 1135.14,-297.74 1154,-287 1161.91,-282.49 1170.76,-278.75 1179.6,-275.67"/>
<polygon fill="midnightblue" stroke="midnightblue" points="1180.71,-278.99 1189.14,-272.58 1178.55,-272.33 1180.71,-278.99"/>
</g>
<!-- Node10 -->
<g id="node10" class="node">
<title>Node10</title>
<g id="a_node10"><a xlink:href="group__as__iic__reg__funcs.html#ga8daa8fde0a7776aa2f5b335250b5aa2a" target="_top" xlink:title=" ">
<polygon fill="none" stroke="black" points="1727.5,-506.5 1727.5,-525.5 1849.5,-525.5 1849.5,-506.5 1727.5,-506.5"/>
<text text-anchor="middle" x="1788.5" y="-513.5" font-family="Helvetica,sans-Serif" font-size="10.00">as_iic_get_status_reg</text>
</a>
</g>
</g>
<!-- Node9&#45;&gt;Node10 -->
<g id="edge9" class="edge">
<title>Node9&#45;&gt;Node10</title>
<path fill="none" stroke="midnightblue" d="M1498.72,-551.54C1549.02,-548.9 1624.66,-543.84 1690,-535 1704.3,-533.06 1719.67,-530.36 1733.88,-527.6"/>
<polygon fill="midnightblue" stroke="midnightblue" points="1734.87,-530.98 1744,-525.6 1733.51,-524.11 1734.87,-530.98"/>
</g>
<!-- Node11 -->
<g id="node11" class="node">
<title>Node11</title>
<g id="a_node11"><a xlink:href="group__asterics__support.html#ga8e5c2bfd2e4498d10289377bd94cef07" target="_top" xlink:title=" ">
<polygon fill="none" stroke="black" points="1905.5,-468.5 1905.5,-487.5 1981.5,-487.5 1981.5,-468.5 1905.5,-468.5"/>
<text text-anchor="middle" x="1943.5" y="-475.5" font-family="Helvetica,sans-Serif" font-size="10.00">as_reg_read</text>
</a>
</g>
</g>
<!-- Node10&#45;&gt;Node11 -->
<g id="edge10" class="edge">
<title>Node10&#45;&gt;Node11</title>
<path fill="none" stroke="midnightblue" d="M1828.11,-506.41C1848.59,-501.32 1873.92,-495.03 1895.53,-489.67"/>
<polygon fill="midnightblue" stroke="midnightblue" points="1896.63,-493 1905.49,-487.19 1894.94,-486.21 1896.63,-493"/>
</g>
<!-- Node12 -->
<g id="node12" class="node">
<title>Node12</title>
<g id="a_node12"><a xlink:href="group__asterics__support.html#ga4c6d688b840a6e2edc9bc0b8ed961677" target="_top" xlink:title=" ">
<polygon fill="none" stroke="black" points="2036,-468.5 2036,-487.5 2136,-487.5 2136,-468.5 2036,-468.5"/>
<text text-anchor="middle" x="2086" y="-475.5" font-family="Helvetica,sans-Serif" font-size="10.00">as_reg_to_uint32</text>
</a>
</g>
</g>
<!-- Node11&#45;&gt;Node12 -->
<g id="edge11" class="edge">
<title>Node11&#45;&gt;Node12</title>
<path fill="none" stroke="midnightblue" d="M1981.78,-478C1995.26,-478 2010.83,-478 2025.72,-478"/>
<polygon fill="midnightblue" stroke="midnightblue" points="2025.89,-481.5 2035.89,-478 2025.89,-474.5 2025.89,-481.5"/>
</g>
<!-- Node13&#45;&gt;Node14 -->
<g id="edge13" class="edge">
<title>Node13&#45;&gt;Node14</title>
<path fill="none" stroke="midnightblue" d="M1500.59,-331.58C1511.44,-335.01 1522.37,-339.41 1532,-345 1566.75,-365.19 1598,-400.92 1614.86,-422.34"/>
<polygon fill="midnightblue" stroke="midnightblue" points="1612.11,-424.51 1620.98,-430.3 1617.66,-420.24 1612.11,-424.51"/>
</g>
<!-- Node13&#45;&gt;Node15 -->
<g id="edge15" class="edge">
<title>Node13&#45;&gt;Node15</title>
<path fill="none" stroke="midnightblue" d="M1476.52,-304.96C1510.98,-289.73 1563.82,-266.37 1597.11,-251.65"/>
<polygon fill="midnightblue" stroke="midnightblue" points="1598.63,-254.81 1606.36,-247.56 1595.8,-248.41 1598.63,-254.81"/>
</g>
<!-- Node14&#45;&gt;Node10 -->
<g id="edge14" class="edge">
<title>Node14&#45;&gt;Node10</title>
<path fill="none" stroke="midnightblue" d="M1664.76,-449.56C1673.16,-452.27 1682.01,-455.45 1690,-459 1716.92,-470.95 1745.82,-488.5 1765.1,-500.97"/>
<polygon fill="midnightblue" stroke="midnightblue" points="1763.21,-503.91 1773.5,-506.46 1767.05,-498.06 1763.21,-503.91"/>
</g>
<!-- Node16 -->
<g id="node16" class="node">
<title>Node16</title>
<g id="a_node16"><a xlink:href="group__asterics__support.html#ga284d9e0d170cf7cabc16ccd7e62d95bd" target="_top" xlink:title=" ">
<polygon fill="none" stroke="black" points="1760,-228.5 1760,-247.5 1817,-247.5 1817,-228.5 1760,-228.5"/>
<text text-anchor="middle" x="1788.5" y="-235.5" font-family="Helvetica,sans-Serif" font-size="10.00">as_yield</text>
</a>
</g>
</g>
<!-- Node15&#45;&gt;Node16 -->
<g id="edge16" class="edge">
<title>Node15&#45;&gt;Node16</title>
<path fill="none" stroke="midnightblue" d="M1658.52,-238C1684.07,-238 1721.72,-238 1749.75,-238"/>
<polygon fill="midnightblue" stroke="midnightblue" points="1749.98,-241.5 1759.98,-238 1749.98,-234.5 1749.98,-241.5"/>
</g>
<!-- Node17 -->
<g id="node17" class="node">
<title>Node17</title>
<g id="a_node17"><a xlink:href="group__asterics__support.html#gad294e0c5530bd6fb800a2394179070e1" target="_top" xlink:title=" ">
<polygon fill="none" stroke="black" points="1898.5,-209.5 1898.5,-228.5 1988.5,-228.5 1988.5,-209.5 1898.5,-209.5"/>
<text text-anchor="middle" x="1943.5" y="-216.5" font-family="Helvetica,sans-Serif" font-size="10.00">as_mutex_lock</text>
</a>
</g>
</g>
<!-- Node16&#45;&gt;Node17 -->
<g id="edge17" class="edge">
<title>Node16&#45;&gt;Node17</title>
<path fill="none" stroke="midnightblue" d="M1817.21,-234.56C1837.02,-232.1 1864.34,-228.71 1888.41,-225.72"/>
<polygon fill="midnightblue" stroke="midnightblue" points="1889,-229.17 1898.49,-224.47 1888.14,-222.22 1889,-229.17"/>
</g>
<!-- Node18 -->
<g id="node18" class="node">
<title>Node18</title>
<g id="a_node18"><a xlink:href="group__asterics__support.html#ga07e09e825f2608339f6213edb9d0c8b3" target="_top" xlink:title=" ">
<polygon fill="none" stroke="black" points="1892.5,-247.5 1892.5,-266.5 1994.5,-266.5 1994.5,-247.5 1892.5,-247.5"/>
<text text-anchor="middle" x="1943.5" y="-254.5" font-family="Helvetica,sans-Serif" font-size="10.00">as_mutex_unlock</text>
</a>
</g>
</g>
<!-- Node16&#45;&gt;Node18 -->
<g id="edge18" class="edge">
<title>Node16&#45;&gt;Node18</title>
<path fill="none" stroke="midnightblue" d="M1817.21,-241.44C1835.35,-243.69 1859.79,-246.73 1882.26,-249.52"/>
<polygon fill="midnightblue" stroke="midnightblue" points="1882.06,-253.02 1892.41,-250.78 1882.92,-246.07 1882.06,-253.02"/>
</g>
<!-- Node19&#45;&gt;Node15 -->
<g id="edge22" class="edge">
<title>Node19&#45;&gt;Node15</title>
<path fill="none" stroke="midnightblue" d="M1449.86,-506.37C1466.03,-484.98 1505.3,-431.52 1532,-383 1551.19,-348.13 1545.94,-334.13 1568,-301 1579.64,-283.51 1596.35,-266.42 1609.18,-254.47"/>
<polygon fill="midnightblue" stroke="midnightblue" points="1611.55,-257.05 1616.59,-247.73 1606.84,-251.87 1611.55,-257.05"/>
</g>
<!-- Node20 -->
<g id="node20" class="node">
<title>Node20</title>
<g id="a_node20"><a xlink:href="group__as__iic__bitchecks.html#ga4629e4514c3531d0bcd44ae20abc6bad" target="_top" xlink:title=" ">
<polygon fill="none" stroke="black" points="1579.5,-506.5 1579.5,-525.5 1678.5,-525.5 1678.5,-506.5 1579.5,-506.5"/>
<text text-anchor="middle" x="1629" y="-513.5" font-family="Helvetica,sans-Serif" font-size="10.00">as_iic_is_waiting</text>
</a>
</g>
</g>
<!-- Node19&#45;&gt;Node20 -->
<g id="edge20" class="edge">
<title>Node19&#45;&gt;Node20</title>
<path fill="none" stroke="midnightblue" d="M1513.69,-516C1532.05,-516 1551.61,-516 1569.26,-516"/>
<polygon fill="midnightblue" stroke="midnightblue" points="1569.41,-519.5 1579.41,-516 1569.41,-512.5 1569.41,-519.5"/>
</g>
<!-- Node20&#45;&gt;Node10 -->
<g id="edge21" class="edge">
<title>Node20&#45;&gt;Node10</title>
<path fill="none" stroke="midnightblue" d="M1678.54,-516C1690.74,-516 1704.07,-516 1717.1,-516"/>
<polygon fill="midnightblue" stroke="midnightblue" points="1717.45,-519.5 1727.45,-516 1717.45,-512.5 1717.45,-519.5"/>
</g>
<!-- Node22&#45;&gt;Node23 -->
<g id="edge26" class="edge">
<title>Node22&#45;&gt;Node23</title>
<path fill="none" stroke="midnightblue" d="M1489.5,-354.44C1503.23,-351.54 1518.24,-348.25 1532,-345 1548.8,-341.03 1567.15,-336.34 1583.27,-332.1"/>
<polygon fill="midnightblue" stroke="midnightblue" points="1584.22,-335.47 1592.99,-329.53 1582.42,-328.7 1584.22,-335.47"/>
</g>
<!-- Node24 -->
<g id="node24" class="node">
<title>Node24</title>
<g id="a_node24"><a xlink:href="group__asterics__support.html#ga6345b997e24a6cd5f9143cef27629d49" target="_top" xlink:title=" ">
<polygon fill="none" stroke="black" points="1749,-133.5 1749,-152.5 1828,-152.5 1828,-133.5 1749,-133.5"/>
<text text-anchor="middle" x="1788.5" y="-140.5" font-family="Helvetica,sans-Serif" font-size="10.00">as_reg_write</text>
</a>
</g>
</g>
<!-- Node23&#45;&gt;Node24 -->
<g id="edge27" class="edge">
<title>Node23&#45;&gt;Node24</title>
<path fill="none" stroke="midnightblue" d="M1639.52,-310.33C1651.49,-298.09 1672.59,-276.28 1690,-257 1720.33,-223.4 1754.41,-182.88 1773.18,-160.32"/>
<polygon fill="midnightblue" stroke="midnightblue" points="1775.89,-162.54 1779.58,-152.61 1770.5,-158.07 1775.89,-162.54"/>
</g>
<!-- Node25 -->
<g id="node25" class="node">
<title>Node25</title>
<g id="a_node25"><a xlink:href="group__asterics__support.html#gab651cc2c035ce61b354578434e59f822" target="_top" xlink:title=" ">
<polygon fill="none" stroke="black" points="1887,-133.5 1887,-152.5 2000,-152.5 2000,-133.5 1887,-133.5"/>
<text text-anchor="middle" x="1943.5" y="-140.5" font-family="Helvetica,sans-Serif" font-size="10.00">as_reg_from_uint32</text>
</a>
</g>
</g>
<!-- Node24&#45;&gt;Node25 -->
<g id="edge28" class="edge">
<title>Node24&#45;&gt;Node25</title>
<path fill="none" stroke="midnightblue" d="M1828.11,-143C1842.84,-143 1860.09,-143 1876.65,-143"/>
<polygon fill="midnightblue" stroke="midnightblue" points="1876.85,-146.5 1886.85,-143 1876.85,-139.5 1876.85,-146.5"/>
</g>
<!-- Node26&#45;&gt;Node11 -->
<g id="edge31" class="edge">
<title>Node26&#45;&gt;Node11</title>
<path fill="none" stroke="midnightblue" d="M1682.66,-478C1742.1,-478 1837.95,-478 1895.12,-478"/>
<polygon fill="midnightblue" stroke="midnightblue" points="1895.33,-481.5 1905.33,-478 1895.33,-474.5 1895.33,-481.5"/>
</g>
<!-- Node26&#45;&gt;Node24 -->
<g id="edge32" class="edge">
<title>Node26&#45;&gt;Node24</title>
<path fill="none" stroke="midnightblue" d="M1678.01,-468.5C1682.53,-466.02 1686.67,-462.91 1690,-459 1760.02,-376.96 1682.55,-317.72 1726,-219 1736.15,-195.93 1755.22,-174.05 1769.45,-159.75"/>
<polygon fill="midnightblue" stroke="midnightblue" points="1772.04,-162.1 1776.76,-152.62 1767.16,-157.09 1772.04,-162.1"/>
</g>
<!-- Node27&#45;&gt;Node9 -->
<g id="edge34" class="edge">
<title>Node27&#45;&gt;Node9</title>
<path fill="none" stroke="midnightblue" d="M1242.73,-272.82C1258.13,-294.17 1294.45,-346.86 1315,-396 1339.62,-454.88 1304.89,-490.88 1351,-535 1357.66,-541.37 1365.9,-545.83 1374.65,-548.92"/>
<polygon fill="midnightblue" stroke="midnightblue" points="1373.73,-552.29 1384.31,-551.75 1375.7,-545.58 1373.73,-552.29"/>
</g>
<!-- Node27&#45;&gt;Node13 -->
<g id="edge35" class="edge">
<title>Node27&#45;&gt;Node13</title>
<path fill="none" stroke="midnightblue" d="M1269.81,-272.54C1298.88,-280.62 1341.34,-292.43 1376.64,-302.24"/>
<polygon fill="midnightblue" stroke="midnightblue" points="1375.81,-305.65 1386.38,-304.95 1377.69,-298.9 1375.81,-305.65"/>
</g>
<!-- Node27&#45;&gt;Node15 -->
<g id="edge38" class="edge">
<title>Node27&#45;&gt;Node15</title>
<path fill="none" stroke="midnightblue" d="M1315.4,-257.91C1398.67,-252.61 1525.68,-244.52 1589.12,-240.48"/>
<polygon fill="midnightblue" stroke="midnightblue" points="1589.71,-243.95 1599.47,-239.82 1589.26,-236.96 1589.71,-243.95"/>
</g>
<!-- Node27&#45;&gt;Node22 -->
<g id="edge36" class="edge">
<title>Node27&#45;&gt;Node22</title>
<path fill="none" stroke="midnightblue" d="M1286.91,-272.58C1296.87,-276.02 1306.76,-280.68 1315,-287 1339.07,-305.46 1326.17,-327.56 1351,-345 1356.68,-348.99 1363.02,-352.17 1369.64,-354.7"/>
<polygon fill="midnightblue" stroke="midnightblue" points="1368.9,-358.14 1379.49,-357.96 1371.1,-351.49 1368.9,-358.14"/>
</g>
<!-- Node27&#45;&gt;Node23 -->
<g id="edge37" class="edge">
<title>Node27&#45;&gt;Node23</title>
<path fill="none" stroke="midnightblue" d="M1315.2,-268.95C1375.13,-274.13 1459.1,-282.89 1532,-296 1549.36,-299.12 1568.24,-303.6 1584.63,-307.85"/>
<polygon fill="midnightblue" stroke="midnightblue" points="1583.91,-311.28 1594.47,-310.44 1585.7,-304.51 1583.91,-311.28"/>
</g>
<!-- Node28&#45;&gt;Node13 -->
<g id="edge40" class="edge">
<title>Node28&#45;&gt;Node13</title>
<path fill="none" stroke="midnightblue" d="M1253.29,-209.59C1269.48,-218.37 1293.98,-231.82 1315,-244 1346.61,-262.31 1382.18,-283.95 1407.36,-299.45"/>
<polygon fill="midnightblue" stroke="midnightblue" points="1405.79,-302.59 1416.14,-304.86 1409.46,-296.63 1405.79,-302.59"/>
</g>
<!-- Node28&#45;&gt;Node15 -->
<g id="edge45" class="edge">
<title>Node28&#45;&gt;Node15</title>
<path fill="none" stroke="midnightblue" d="M1277.52,-190.42C1335.69,-178.86 1443.58,-163.59 1532,-186 1559.79,-193.04 1588.25,-209.92 1606.89,-222.54"/>
<polygon fill="midnightblue" stroke="midnightblue" points="1605,-225.49 1615.21,-228.34 1609.01,-219.75 1605,-225.49"/>
</g>
<!-- Node28&#45;&gt;Node22 -->
<g id="edge43" class="edge">
<title>Node28&#45;&gt;Node22</title>
<path fill="none" stroke="midnightblue" d="M1263.52,-209.63C1280.49,-216.75 1301.42,-228.01 1315,-244 1345.84,-280.33 1315.13,-313.62 1351,-345 1356.51,-349.82 1362.93,-353.52 1369.76,-356.34"/>
<polygon fill="midnightblue" stroke="midnightblue" points="1368.68,-359.68 1379.28,-359.68 1371,-353.07 1368.68,-359.68"/>
</g>
<!-- Node28&#45;&gt;Node23 -->
<g id="edge44" class="edge">
<title>Node28&#45;&gt;Node23</title>
<path fill="none" stroke="midnightblue" d="M1299.43,-209.51C1360.48,-219.78 1454.43,-238.72 1532,-268 1558.06,-277.84 1585.83,-293.52 1604.77,-305.09"/>
<polygon fill="midnightblue" stroke="midnightblue" points="1602.97,-308.09 1613.31,-310.39 1606.66,-302.14 1602.97,-308.09"/>
</g>
<!-- Node29 -->
<g id="node29" class="node">
<title>Node29</title>
<g id="a_node29"><a xlink:href="group__as__iic__reg__funcs.html#gace5813084165559c81fe11db6b628b5e" target="_top" xlink:title=" ">
<polygon fill="none" stroke="black" points="1735,-399.5 1735,-418.5 1842,-418.5 1842,-399.5 1735,-399.5"/>
<text text-anchor="middle" x="1788.5" y="-406.5" font-family="Helvetica,sans-Serif" font-size="10.00">as_iic_get_rx_byte</text>
</a>
</g>
</g>
<!-- Node28&#45;&gt;Node29 -->
<g id="edge41" class="edge">
<title>Node28&#45;&gt;Node29</title>
<path fill="none" stroke="midnightblue" d="M1262.31,-190.46C1340.86,-164.42 1572.29,-101.61 1690,-219 1727.92,-256.82 1700.55,-286.87 1726,-334 1737.88,-356 1756.67,-377.72 1770.36,-392.07"/>
<polygon fill="midnightblue" stroke="midnightblue" points="1767.87,-394.53 1777.36,-399.24 1772.88,-389.64 1767.87,-394.53"/>
</g>
<!-- Node29&#45;&gt;Node11 -->
<g id="edge42" class="edge">
<title>Node29&#45;&gt;Node11</title>
<path fill="none" stroke="midnightblue" d="M1810.77,-418.59C1837.15,-430.49 1882.28,-450.84 1912.25,-464.36"/>
<polygon fill="midnightblue" stroke="midnightblue" points="1910.85,-467.57 1921.41,-468.49 1913.73,-461.19 1910.85,-467.57"/>
</g>
<!-- Node31 -->
<g id="node31" class="node">
<title>Node31</title>
<g id="a_node31"><a xlink:href="group__as__iic__user.html#ga08fcff0dba9d6b4898291746d2206408" target="_top" xlink:title=" ">
<polygon fill="none" stroke="black" points="822,-253.5 822,-272.5 950,-272.5 950,-253.5 822,-253.5"/>
<text text-anchor="middle" x="886" y="-260.5" font-family="Helvetica,sans-Serif" font-size="10.00">as_iic_write_byte_mod</text>
</a>
</g>
</g>
<!-- Node30&#45;&gt;Node31 -->
<g id="edge47" class="edge">
<title>Node30&#45;&gt;Node31</title>
<path fill="none" stroke="midnightblue" d="M773.97,-234.59C793.39,-239.56 817.3,-245.68 837.95,-250.96"/>
<polygon fill="midnightblue" stroke="midnightblue" points="837.24,-254.39 847.8,-253.48 838.98,-247.61 837.24,-254.39"/>
</g>
<!-- Node31&#45;&gt;Node8 -->
<g id="edge48" class="edge">
<title>Node31&#45;&gt;Node8</title>
<path fill="none" stroke="midnightblue" d="M911.49,-272.53C923.39,-277.5 937.73,-284 950,-291 979.65,-307.93 1011.31,-331.5 1031.12,-347"/>
<polygon fill="midnightblue" stroke="midnightblue" points="1029.08,-349.85 1039.09,-353.3 1033.42,-344.35 1029.08,-349.85"/>
</g>
<!-- Node31&#45;&gt;Node27 -->
<g id="edge49" class="edge">
<title>Node31&#45;&gt;Node27</title>
<path fill="none" stroke="midnightblue" d="M950.15,-263C1004.22,-263 1082.71,-263 1143.38,-263"/>
<polygon fill="midnightblue" stroke="midnightblue" points="1143.72,-266.5 1153.72,-263 1143.72,-259.5 1143.72,-266.5"/>
</g>
<!-- Node33 -->
<g id="node33" class="node">
<title>Node33</title>
<g id="a_node33"><a xlink:href="group__as__iic__user.html#ga5ae8936ee892843eda5df7b9a418bd52" target="_top" xlink:title=" ">
<polygon fill="none" stroke="black" points="554,-230.5 554,-249.5 649,-249.5 649,-230.5 554,-230.5"/>
<text text-anchor="middle" x="601.5" y="-237.5" font-family="Helvetica,sans-Serif" font-size="10.00">as_iic_write_reg</text>
</a>
</g>
</g>
<!-- Node32&#45;&gt;Node33 -->
<g id="edge52" class="edge">
<title>Node32&#45;&gt;Node33</title>
<path fill="none" stroke="midnightblue" d="M500.86,-95.53C506.98,-97.99 512.88,-101.1 518,-105 520.68,-107.04 567.83,-185.45 589.62,-221.81"/>
<polygon fill="midnightblue" stroke="midnightblue" points="586.66,-223.69 594.8,-230.47 592.67,-220.09 586.66,-223.69"/>
</g>
<!-- Node34 -->
<g id="node34" class="node">
<title>Node34</title>
<g id="a_node34"><a xlink:href="group__as__iic__user.html#ga2a4e5ee19e84cc95de665e29b92ccda1" target="_top" xlink:title=" ">
<polygon fill="none" stroke="black" points="832.5,-300.5 832.5,-319.5 939.5,-319.5 939.5,-300.5 832.5,-300.5"/>
<text text-anchor="middle" x="886" y="-307.5" font-family="Helvetica,sans-Serif" font-size="10.00">as_iic_write_bytes</text>
</a>
</g>
</g>
<!-- Node33&#45;&gt;Node34 -->
<g id="edge53" class="edge">
<title>Node33&#45;&gt;Node34</title>
<path fill="none" stroke="midnightblue" d="M640.89,-249.51C691.59,-262.08 780.91,-284.21 836.31,-297.93"/>
<polygon fill="midnightblue" stroke="midnightblue" points="835.69,-301.39 846.24,-300.4 837.37,-294.59 835.69,-301.39"/>
</g>
<!-- Node34&#45;&gt;Node8 -->
<g id="edge54" class="edge">
<title>Node34&#45;&gt;Node8</title>
<path fill="none" stroke="midnightblue" d="M916.7,-319.6C943.29,-328.19 982.46,-340.85 1011.65,-350.28"/>
<polygon fill="midnightblue" stroke="midnightblue" points="1010.93,-353.73 1021.52,-353.47 1013.08,-347.07 1010.93,-353.73"/>
</g>
<!-- Node34&#45;&gt;Node27 -->
<g id="edge55" class="edge">
<title>Node34&#45;&gt;Node27</title>
<path fill="none" stroke="midnightblue" d="M939.63,-302.86C996.44,-295.16 1087.61,-282.79 1153.35,-273.87"/>
<polygon fill="midnightblue" stroke="midnightblue" points="1153.82,-277.34 1163.26,-272.53 1152.88,-270.4 1153.82,-277.34"/>
</g>
<!-- Node35 -->
<g id="node35" class="node">
<title>Node35</title>
<g id="a_node35"><a xlink:href="group__as__iic__helpers.html#gad5e0aa9a71f8f0f65e1fbded8134b11f" target="_top" xlink:title=" ">
<polygon fill="none" stroke="black" points="1167.5,-595.5 1167.5,-614.5 1301.5,-614.5 1301.5,-595.5 1167.5,-595.5"/>
<text text-anchor="middle" x="1234.5" y="-602.5" font-family="Helvetica,sans-Serif" font-size="10.00">as_iic_write_transaction</text>
</a>
</g>
</g>
<!-- Node34&#45;&gt;Node35 -->
<g id="edge56" class="edge">
<title>Node34&#45;&gt;Node35</title>
<path fill="none" stroke="midnightblue" d="M895.32,-319.94C926.32,-356.54 1039.27,-485.78 1154,-566 1168.16,-575.9 1185.21,-584.62 1199.88,-591.3"/>
<polygon fill="midnightblue" stroke="midnightblue" points="1198.56,-594.54 1209.12,-595.38 1201.39,-588.14 1198.56,-594.54"/>
</g>
<!-- Node35&#45;&gt;Node9 -->
<g id="edge57" class="edge">
<title>Node35&#45;&gt;Node9</title>
<path fill="none" stroke="midnightblue" d="M1274.06,-595.41C1307.56,-587.07 1356.23,-574.96 1392.3,-565.99"/>
<polygon fill="midnightblue" stroke="midnightblue" points="1393.25,-569.36 1402.11,-563.55 1391.56,-562.57 1393.25,-569.36"/>
</g>
<!-- Node35&#45;&gt;Node19 -->
<g id="edge58" class="edge">
<title>Node35&#45;&gt;Node19</title>
<path fill="none" stroke="midnightblue" d="M1248.25,-595.27C1268.77,-580.1 1310.89,-550.88 1351,-535 1357.6,-532.39 1364.62,-530.11 1371.72,-528.12"/>
<polygon fill="midnightblue" stroke="midnightblue" points="1372.62,-531.51 1381.41,-525.6 1370.85,-524.73 1372.62,-531.51"/>
</g>
<!-- Node35&#45;&gt;Node22 -->
<g id="edge62" class="edge">
<title>Node35&#45;&gt;Node22</title>
<path fill="none" stroke="midnightblue" d="M1243.79,-595.25C1274.96,-558.61 1385.39,-428.79 1425.66,-381.44"/>
<polygon fill="midnightblue" stroke="midnightblue" points="1428.52,-383.49 1432.33,-373.6 1423.19,-378.95 1428.52,-383.49"/>
</g>
<!-- Node35&#45;&gt;Node23 -->
<g id="edge63" class="edge">
<title>Node35&#45;&gt;Node23</title>
<path fill="none" stroke="midnightblue" d="M1301.55,-606.45C1378.37,-606.7 1498.9,-602.2 1532,-573 1584.06,-527.07 1541.97,-485.36 1568,-421 1580.54,-389.99 1601.64,-357.25 1615.19,-337.73"/>
<polygon fill="midnightblue" stroke="midnightblue" points="1618.08,-339.7 1620.99,-329.51 1612.36,-335.67 1618.08,-339.7"/>
</g>
<!-- Node35&#45;&gt;Node26 -->
<g id="edge64" class="edge">
<title>Node35&#45;&gt;Node26</title>
<path fill="none" stroke="midnightblue" d="M1262.39,-614.6C1318.54,-632.79 1449.82,-665.41 1532,-606 1573.35,-576.11 1531.7,-532.85 1568,-497 1569.61,-495.41 1571.35,-493.95 1573.2,-492.62"/>
<polygon fill="midnightblue" stroke="midnightblue" points="1575,-495.61 1581.82,-487.5 1571.43,-489.59 1575,-495.61"/>
</g>
<!-- Node36 -->
<g id="node36" class="node">
<title>Node36</title>
<g id="a_node36"><a xlink:href="group__as__iic__bitchecks.html#ga2ef7a1f9767986f2033697f584cd4feb" target="_top" xlink:title=" ">
<polygon fill="none" stroke="black" points="1386.5,-658.5 1386.5,-677.5 1496.5,-677.5 1496.5,-658.5 1386.5,-658.5"/>
<text text-anchor="middle" x="1441.5" y="-665.5" font-family="Helvetica,sans-Serif" font-size="10.00">as_iic_is_readwrite</text>
</a>
</g>
</g>
<!-- Node35&#45;&gt;Node36 -->
<g id="edge59" class="edge">
<title>Node35&#45;&gt;Node36</title>
<path fill="none" stroke="midnightblue" d="M1262.41,-614.63C1285.72,-622.84 1320.41,-634.74 1351,-644 1364.63,-648.12 1379.53,-652.27 1393.2,-655.92"/>
<polygon fill="midnightblue" stroke="midnightblue" points="1392.34,-659.31 1402.9,-658.49 1394.13,-652.54 1392.34,-659.31"/>
</g>
<!-- Node37 -->
<g id="node37" class="node">
<title>Node37</title>
<g id="a_node37"><a xlink:href="group__as__iic__reg__funcs.html#gaca309e97934beed04c02e31ba9cfbd3a" target="_top" xlink:title=" ">
<polygon fill="none" stroke="black" points="1726,-563.5 1726,-582.5 1851,-582.5 1851,-563.5 1726,-563.5"/>
<text text-anchor="middle" x="1788.5" y="-570.5" font-family="Helvetica,sans-Serif" font-size="10.00">as_iic_get_control_reg</text>
</a>
</g>
</g>
<!-- Node36&#45;&gt;Node37 -->
<g id="edge60" class="edge">
<title>Node36&#45;&gt;Node37</title>
<path fill="none" stroke="midnightblue" d="M1478.23,-658.5C1494.62,-654.12 1514.31,-648.83 1532,-644 1606.53,-623.65 1693.14,-599.47 1743.96,-585.23"/>
<polygon fill="midnightblue" stroke="midnightblue" points="1744.95,-588.58 1753.64,-582.52 1743.06,-581.84 1744.95,-588.58"/>
</g>
<!-- Node37&#45;&gt;Node11 -->
<g id="edge61" class="edge">
<title>Node37&#45;&gt;Node11</title>
<path fill="none" stroke="midnightblue" d="M1804.93,-563.49C1817.37,-555.81 1835.32,-544.73 1851,-535 1873.86,-520.82 1899.89,-504.6 1918.33,-493.09"/>
<polygon fill="midnightblue" stroke="midnightblue" points="1920.34,-495.96 1926.97,-487.7 1916.63,-490.02 1920.34,-495.96"/>
</g>
<!-- Node38&#45;&gt;Node3 -->
<g id="edge66" class="edge">
<title>Node38&#45;&gt;Node3</title>
<path fill="none" stroke="midnightblue" d="M325.73,-95.62C333.5,-98.07 341.09,-101.15 348,-105 368.31,-116.34 364.12,-130.91 384,-143 387.55,-145.16 391.36,-147.09 395.29,-148.8"/>
<polygon fill="midnightblue" stroke="midnightblue" points="394.03,-152.06 404.62,-152.42 396.57,-145.54 394.03,-152.06"/>
</g>
<!-- Node38&#45;&gt;Node4 -->
<g id="edge67" class="edge">
<title>Node38&#45;&gt;Node4</title>
<path fill="none" stroke="midnightblue" d="M305.7,-95.59C331.86,-100.74 364.28,-107.12 391.77,-112.53"/>
<polygon fill="midnightblue" stroke="midnightblue" points="391.16,-115.98 401.65,-114.48 392.51,-109.11 391.16,-115.98"/>
</g>
<!-- Node38&#45;&gt;Node32 -->
<g id="edge68" class="edge">
<title>Node38&#45;&gt;Node32</title>
<path fill="none" stroke="midnightblue" d="M336.06,-86C352.54,-86 369.72,-86 385.6,-86"/>
<polygon fill="midnightblue" stroke="midnightblue" points="385.82,-89.5 395.82,-86 385.82,-82.5 385.82,-89.5"/>
</g>
<!-- Node39&#45;&gt;Node3 -->
<g id="edge70" class="edge">
<title>Node39&#45;&gt;Node3</title>
<path fill="none" stroke="midnightblue" d="M330.52,-162C344.66,-162 359.5,-162 373.73,-162"/>
<polygon fill="midnightblue" stroke="midnightblue" points="373.97,-165.5 383.97,-162 373.97,-158.5 373.97,-165.5"/>
</g>
<!-- Node39&#45;&gt;Node4 -->
<g id="edge71" class="edge">
<title>Node39&#45;&gt;Node4</title>
<path fill="none" stroke="midnightblue" d="M305.7,-152.41C331.86,-147.26 364.28,-140.88 391.77,-135.47"/>
<polygon fill="midnightblue" stroke="midnightblue" points="392.51,-138.89 401.65,-133.52 391.16,-132.02 392.51,-138.89"/>
</g>
<!-- Node41 -->
<g id="node41" class="node">
<title>Node41</title>
<g id="a_node41"><a xlink:href="group__asterics__support.html#gaa7520f5b717e163da743500adb2eb0b9" target="_top" xlink:title=" ">
<polygon fill="none" stroke="black" points="1583.5,-38.5 1583.5,-57.5 1674.5,-57.5 1674.5,-38.5 1583.5,-38.5"/>
<text text-anchor="middle" x="1629" y="-45.5" font-family="Helvetica,sans-Serif" font-size="10.00">as_module_reg</text>
</a>
</g>
</g>
<!-- Node40&#45;&gt;Node41 -->
<g id="edge73" class="edge">
<title>Node40&#45;&gt;Node41</title>
<path fill="none" stroke="midnightblue" d="M1510.26,-48C1530.97,-48 1553.48,-48 1573.21,-48"/>
<polygon fill="midnightblue" stroke="midnightblue" points="1573.26,-51.5 1583.26,-48 1573.26,-44.5 1573.26,-51.5"/>
</g>
<!-- Node42 -->
<g id="node42" class="node">
<title>Node42</title>
<g id="a_node42"><a xlink:href="group__asterics__support.html#ga0ccb0610d764a95bda989e35fba59490" target="_top" xlink:title=" ">
<polygon fill="none" stroke="black" points="1568,-76.5 1568,-95.5 1690,-95.5 1690,-76.5 1568,-76.5"/>
<text text-anchor="middle" x="1629" y="-83.5" font-family="Helvetica,sans-Serif" font-size="10.00">as_reg_write_masked</text>
</a>
</g>
</g>
<!-- Node40&#45;&gt;Node42 -->
<g id="edge74" class="edge">
<title>Node40&#45;&gt;Node42</title>
<path fill="none" stroke="midnightblue" d="M1489.31,-57.59C1514.34,-62.72 1545.34,-69.07 1571.68,-74.46"/>
<polygon fill="midnightblue" stroke="midnightblue" points="1571.03,-77.9 1581.53,-76.48 1572.43,-71.04 1571.03,-77.9"/>
</g>
<!-- Node42&#45;&gt;Node11 -->
<g id="edge75" class="edge">
<title>Node42&#45;&gt;Node11</title>
<path fill="none" stroke="midnightblue" d="M1669.29,-95.5C1677.05,-98.96 1684.48,-103.65 1690,-110 1734.11,-160.78 1693.3,-198.22 1726,-257 1739.7,-281.62 1876.38,-414.34 1925.24,-461.42"/>
<polygon fill="midnightblue" stroke="midnightblue" points="1922.92,-464.04 1932.55,-468.46 1927.77,-459 1922.92,-464.04"/>
</g>
<!-- Node42&#45;&gt;Node24 -->
<g id="edge76" class="edge">
<title>Node42&#45;&gt;Node24</title>
<path fill="none" stroke="midnightblue" d="M1656.36,-95.54C1682.37,-104.95 1722.33,-119.41 1751.3,-129.9"/>
<polygon fill="midnightblue" stroke="midnightblue" points="1750.46,-133.32 1761.05,-133.43 1752.84,-126.73 1750.46,-133.32"/>
</g>
<!-- Node43&#45;&gt;Node24 -->
<g id="edge79" class="edge">
<title>Node43&#45;&gt;Node24</title>
<path fill="none" stroke="midnightblue" d="M1532.28,-0.69C1581.36,0.54 1641.78,-4.51 1690,-29 1731.8,-50.23 1763.02,-97.97 1777.87,-124.44"/>
<polygon fill="midnightblue" stroke="midnightblue" points="1774.91,-126.32 1782.75,-133.44 1781.07,-122.98 1774.91,-126.32"/>
</g>
<!-- Node43&#45;&gt;Node41 -->
<g id="edge78" class="edge">
<title>Node43&#45;&gt;Node41</title>
<path fill="none" stroke="midnightblue" d="M1489.31,-19.59C1514.91,-24.83 1546.76,-31.36 1573.48,-36.83"/>
<polygon fill="midnightblue" stroke="midnightblue" points="1572.94,-40.29 1583.44,-38.87 1574.35,-33.44 1572.94,-40.29"/>
</g>
<!-- Node44&#45;&gt;Node3 -->
<g id="edge82" class="edge">
<title>Node44&#45;&gt;Node3</title>
<path fill="none" stroke="midnightblue" d="M307.57,-228.85C320.87,-224.45 335.1,-219.38 348,-214 374.61,-202.91 403.81,-187.69 424.12,-176.59"/>
<polygon fill="midnightblue" stroke="midnightblue" points="425.99,-179.55 433.05,-171.65 422.61,-173.42 425.99,-179.55"/>
</g>
</g>
</svg>
