<?xml version="1.0" encoding="UTF-8" standalone="no"?>
<!DOCTYPE svg PUBLIC "-//W3C//DTD SVG 1.1//EN"
 "http://www.w3.org/Graphics/SVG/1.1/DTD/svg11.dtd">
<!-- Generated by graphviz version 2.43.0 (0)
 -->
<!-- Title: as_reader_writer_init Pages: 1 -->
<svg width="713pt" height="274pt"
 viewBox="0.00 0.00 713.00 273.50" xmlns="http://www.w3.org/2000/svg" xmlns:xlink="http://www.w3.org/1999/xlink">
<g id="graph0" class="graph" transform="scale(1 1) rotate(0) translate(4 269.5)">
<title>as_reader_writer_init</title>
<!-- Node1 -->
<g id="node1" class="node">
<title>Node1</title>
<g id="a_node1"><a xlink:title="Initializes the hardware module with values provided by config.">
<polygon fill="#bfbfbf" stroke="black" points="0,-128 0,-147 119,-147 119,-128 0,-128"/>
<text text-anchor="middle" x="59.5" y="-135" font-family="Helvetica,sans-Serif" font-size="10.00">as_reader_writer_init</text>
</a>
</g>
</g>
<!-- Node2 -->
<g id="node2" class="node">
<title>Node2</title>
<g id="a_node2"><a xlink:href="group__as__reader__writer.html#ga89e42a53f0db5cf22c8583c8e0c8a074" target="_top" xlink:title="Resets the hardware module.">
<polygon fill="none" stroke="black" points="155,-246 155,-265 283,-265 283,-246 155,-246"/>
<text text-anchor="middle" x="219" y="-253" font-family="Helvetica,sans-Serif" font-size="10.00">as_reader_writer_reset</text>
</a>
</g>
</g>
<!-- Node1&#45;&gt;Node2 -->
<g id="edge1" class="edge">
<title>Node1&#45;&gt;Node2</title>
<path fill="none" stroke="midnightblue" d="M67.1,-147.25C81,-167.04 115.32,-212.13 155,-236.5 158.41,-238.59 162.06,-240.47 165.83,-242.15"/>
<polygon fill="midnightblue" stroke="midnightblue" points="164.77,-245.49 175.36,-245.93 167.35,-238.99 164.77,-245.49"/>
</g>
<!-- Node9 -->
<g id="node9" class="node">
<title>Node9</title>
<g id="a_node9"><a xlink:href="group__as__reader__writer.html#gae1123634d5cf61d70bcfc7a87cda08bf" target="_top" xlink:title="Sets the maximum possible burst length to be performed by the hardware module.">
<polygon fill="none" stroke="black" points="159.5,-147.5 159.5,-177.5 278.5,-177.5 278.5,-147.5 159.5,-147.5"/>
<text text-anchor="start" x="167.5" y="-165.5" font-family="Helvetica,sans-Serif" font-size="10.00">as_reader_writer_set</text>
<text text-anchor="middle" x="219" y="-154.5" font-family="Helvetica,sans-Serif" font-size="10.00">_max_burst_length</text>
</a>
</g>
</g>
<!-- Node1&#45;&gt;Node9 -->
<g id="edge8" class="edge">
<title>Node1&#45;&gt;Node9</title>
<path fill="none" stroke="midnightblue" d="M119.15,-146.81C128.99,-148.37 139.27,-150 149.34,-151.6"/>
<polygon fill="midnightblue" stroke="midnightblue" points="148.88,-155.07 159.3,-153.18 149.98,-148.16 148.88,-155.07"/>
</g>
<!-- Node10 -->
<g id="node10" class="node">
<title>Node10</title>
<g id="a_node10"><a xlink:href="group__as__reader__writer.html#ga43d2f73d7d42dd5704160d4ddacfaa1e" target="_top" xlink:title="Sets the start address of the first section to the given value.">
<polygon fill="none" stroke="black" points="159.5,-98.5 159.5,-128.5 278.5,-128.5 278.5,-98.5 159.5,-98.5"/>
<text text-anchor="start" x="167.5" y="-116.5" font-family="Helvetica,sans-Serif" font-size="10.00">as_reader_writer_set</text>
<text text-anchor="middle" x="219" y="-105.5" font-family="Helvetica,sans-Serif" font-size="10.00">_section_addr</text>
</a>
</g>
</g>
<!-- Node1&#45;&gt;Node10 -->
<g id="edge11" class="edge">
<title>Node1&#45;&gt;Node10</title>
<path fill="none" stroke="midnightblue" d="M119.15,-128.56C128.99,-127.06 139.27,-125.5 149.34,-123.96"/>
<polygon fill="midnightblue" stroke="midnightblue" points="149.95,-127.41 159.3,-122.44 148.89,-120.49 149.95,-127.41"/>
</g>
<!-- Node11 -->
<g id="node11" class="node">
<title>Node11</title>
<g id="a_node11"><a xlink:href="group__as__reader__writer.html#ga4dd1a170b8e16005c286c0c0e7d8406f" target="_top" xlink:title="Sets the number of sections.">
<polygon fill="none" stroke="black" points="159.5,-49.5 159.5,-79.5 278.5,-79.5 278.5,-49.5 159.5,-49.5"/>
<text text-anchor="start" x="167.5" y="-67.5" font-family="Helvetica,sans-Serif" font-size="10.00">as_reader_writer_set</text>
<text text-anchor="middle" x="219" y="-56.5" font-family="Helvetica,sans-Serif" font-size="10.00">_section_count</text>
</a>
</g>
</g>
<!-- Node1&#45;&gt;Node11 -->
<g id="edge14" class="edge">
<title>Node1&#45;&gt;Node11</title>
<path fill="none" stroke="midnightblue" d="M77.63,-127.86C96.34,-117.52 127.34,-100.89 155,-88.5 158.85,-86.78 162.86,-85.06 166.91,-83.39"/>
<polygon fill="midnightblue" stroke="midnightblue" points="168.41,-86.56 176.38,-79.58 165.8,-80.07 168.41,-86.56"/>
</g>
<!-- Node12 -->
<g id="node12" class="node">
<title>Node12</title>
<g id="a_node12"><a xlink:href="group__as__reader__writer.html#ga12f11a3d7cff5ea8bdec75dedec35bab" target="_top" xlink:title="Sets the offset in bytes between the start addresses of two subsequent sections.">
<polygon fill="none" stroke="black" points="159.5,-0.5 159.5,-30.5 278.5,-30.5 278.5,-0.5 159.5,-0.5"/>
<text text-anchor="start" x="167.5" y="-18.5" font-family="Helvetica,sans-Serif" font-size="10.00">as_reader_writer_set</text>
<text text-anchor="middle" x="219" y="-7.5" font-family="Helvetica,sans-Serif" font-size="10.00">_section_offset</text>
</a>
</g>
</g>
<!-- Node1&#45;&gt;Node12 -->
<g id="edge17" class="edge">
<title>Node1&#45;&gt;Node12</title>
<path fill="none" stroke="midnightblue" d="M67.49,-127.79C81.84,-108.47 116.54,-64.9 155,-39.5 157.38,-37.93 159.88,-36.44 162.45,-35.03"/>
<polygon fill="midnightblue" stroke="midnightblue" points="164.04,-38.15 171.42,-30.54 160.91,-31.89 164.04,-38.15"/>
</g>
<!-- Node13 -->
<g id="node13" class="node">
<title>Node13</title>
<g id="a_node13"><a xlink:href="group__as__reader__writer.html#ga06436c5cb6a63439f2e4b7c14c71fb83" target="_top" xlink:title="Sets the size of a single section in bytes.">
<polygon fill="none" stroke="black" points="159.5,-196.5 159.5,-226.5 278.5,-226.5 278.5,-196.5 159.5,-196.5"/>
<text text-anchor="start" x="167.5" y="-214.5" font-family="Helvetica,sans-Serif" font-size="10.00">as_reader_writer_set</text>
<text text-anchor="middle" x="219" y="-203.5" font-family="Helvetica,sans-Serif" font-size="10.00">_section_size</text>
</a>
</g>
</g>
<!-- Node1&#45;&gt;Node13 -->
<g id="edge20" class="edge">
<title>Node1&#45;&gt;Node13</title>
<path fill="none" stroke="midnightblue" d="M77.26,-147.17C95.91,-157.75 127.1,-174.86 155,-187.5 158.84,-189.24 162.84,-190.96 166.89,-192.64"/>
<polygon fill="midnightblue" stroke="midnightblue" points="165.78,-195.97 176.36,-196.47 168.4,-189.48 165.78,-195.97"/>
</g>
<!-- Node3 -->
<g id="node3" class="node">
<title>Node3</title>
<g id="a_node3"><a xlink:href="group__asterics__support.html#gaa7520f5b717e163da743500adb2eb0b9" target="_top" xlink:title=" ">
<polygon fill="none" stroke="black" points="334.5,-127 334.5,-146 425.5,-146 425.5,-127 334.5,-127"/>
<text text-anchor="middle" x="380" y="-134" font-family="Helvetica,sans-Serif" font-size="10.00">as_module_reg</text>
</a>
</g>
</g>
<!-- Node2&#45;&gt;Node3 -->
<g id="edge2" class="edge">
<title>Node2&#45;&gt;Node3</title>
<path fill="none" stroke="midnightblue" d="M262.63,-245.91C269.71,-243.41 276.76,-240.32 283,-236.5 318.54,-214.74 349.92,-176.67 366.51,-154.31"/>
<polygon fill="midnightblue" stroke="midnightblue" points="369.46,-156.19 372.5,-146.04 363.8,-152.09 369.46,-156.19"/>
</g>
<!-- Node4 -->
<g id="node4" class="node">
<title>Node4</title>
<g id="a_node4"><a xlink:href="group__asterics__support.html#ga0ccb0610d764a95bda989e35fba59490" target="_top" xlink:title=" ">
<polygon fill="none" stroke="black" points="319,-244 319,-263 441,-263 441,-244 319,-244"/>
<text text-anchor="middle" x="380" y="-251" font-family="Helvetica,sans-Serif" font-size="10.00">as_reg_write_masked</text>
</a>
</g>
</g>
<!-- Node2&#45;&gt;Node4 -->
<g id="edge3" class="edge">
<title>Node2&#45;&gt;Node4</title>
<path fill="none" stroke="midnightblue" d="M283.3,-254.7C291.61,-254.6 300.17,-254.49 308.59,-254.39"/>
<polygon fill="midnightblue" stroke="midnightblue" points="308.81,-257.88 318.77,-254.26 308.72,-250.88 308.81,-257.88"/>
</g>
<!-- Node5 -->
<g id="node5" class="node">
<title>Node5</title>
<g id="a_node5"><a xlink:href="group__asterics__support.html#ga8e5c2bfd2e4498d10289377bd94cef07" target="_top" xlink:title=" ">
<polygon fill="none" stroke="black" points="478.5,-244 478.5,-263 554.5,-263 554.5,-244 478.5,-244"/>
<text text-anchor="middle" x="516.5" y="-251" font-family="Helvetica,sans-Serif" font-size="10.00">as_reg_read</text>
</a>
</g>
</g>
<!-- Node4&#45;&gt;Node5 -->
<g id="edge4" class="edge">
<title>Node4&#45;&gt;Node5</title>
<path fill="none" stroke="midnightblue" d="M441.17,-253.5C450.12,-253.5 459.24,-253.5 467.88,-253.5"/>
<polygon fill="midnightblue" stroke="midnightblue" points="468.15,-257 478.15,-253.5 468.15,-250 468.15,-257"/>
</g>
<!-- Node7 -->
<g id="node7" class="node">
<title>Node7</title>
<g id="a_node7"><a xlink:href="group__asterics__support.html#ga6345b997e24a6cd5f9143cef27629d49" target="_top" xlink:title=" ">
<polygon fill="none" stroke="black" points="477,-127 477,-146 556,-146 556,-127 477,-127"/>
<text text-anchor="middle" x="516.5" y="-134" font-family="Helvetica,sans-Serif" font-size="10.00">as_reg_write</text>
</a>
</g>
</g>
<!-- Node4&#45;&gt;Node7 -->
<g id="edge6" class="edge">
<title>Node4&#45;&gt;Node7</title>
<path fill="none" stroke="midnightblue" d="M409.04,-243.99C419.65,-239.62 431.46,-233.77 441,-226.5 467.74,-206.12 491.09,-174.4 504.22,-154.57"/>
<polygon fill="midnightblue" stroke="midnightblue" points="507.18,-156.44 509.67,-146.14 501.3,-152.64 507.18,-156.44"/>
</g>
<!-- Node6 -->
<g id="node6" class="node">
<title>Node6</title>
<g id="a_node6"><a xlink:href="group__asterics__support.html#ga4c6d688b840a6e2edc9bc0b8ed961677" target="_top" xlink:title=" ">
<polygon fill="none" stroke="black" points="598.5,-244 598.5,-263 698.5,-263 698.5,-244 598.5,-244"/>
<text text-anchor="middle" x="648.5" y="-251" font-family="Helvetica,sans-Serif" font-size="10.00">as_reg_to_uint32</text>
</a>
</g>
</g>
<!-- Node5&#45;&gt;Node6 -->
<g id="edge5" class="edge">
<title>Node5&#45;&gt;Node6</title>
<path fill="none" stroke="midnightblue" d="M554.75,-253.5C565.09,-253.5 576.59,-253.5 587.86,-253.5"/>
<polygon fill="midnightblue" stroke="midnightblue" points="588.12,-257 598.12,-253.5 588.12,-250 588.12,-257"/>
</g>
<!-- Node8 -->
<g id="node8" class="node">
<title>Node8</title>
<g id="a_node8"><a xlink:href="group__asterics__support.html#gab651cc2c035ce61b354578434e59f822" target="_top" xlink:title=" ">
<polygon fill="none" stroke="black" points="592,-127 592,-146 705,-146 705,-127 592,-127"/>
<text text-anchor="middle" x="648.5" y="-134" font-family="Helvetica,sans-Serif" font-size="10.00">as_reg_from_uint32</text>
</a>
</g>
</g>
<!-- Node7&#45;&gt;Node8 -->
<g id="edge7" class="edge">
<title>Node7&#45;&gt;Node8</title>
<path fill="none" stroke="midnightblue" d="M556.15,-136.5C564.22,-136.5 572.94,-136.5 581.68,-136.5"/>
<polygon fill="midnightblue" stroke="midnightblue" points="581.92,-140 591.92,-136.5 581.92,-133 581.92,-140"/>
</g>
<!-- Node9&#45;&gt;Node3 -->
<g id="edge9" class="edge">
<title>Node9&#45;&gt;Node3</title>
<path fill="none" stroke="midnightblue" d="M278.75,-152.89C293.7,-150.45 309.71,-147.83 324.44,-145.42"/>
<polygon fill="midnightblue" stroke="midnightblue" points="325.1,-148.86 334.41,-143.79 323.97,-141.95 325.1,-148.86"/>
</g>
<!-- Node9&#45;&gt;Node7 -->
<g id="edge10" class="edge">
<title>Node9&#45;&gt;Node7</title>
<path fill="none" stroke="midnightblue" d="M278.93,-164.11C323.62,-164.49 386.46,-163.22 441,-155.5 451.92,-153.95 463.54,-151.43 474.29,-148.71"/>
<polygon fill="midnightblue" stroke="midnightblue" points="475.49,-152.02 484.27,-146.08 473.7,-145.25 475.49,-152.02"/>
</g>
<!-- Node10&#45;&gt;Node3 -->
<g id="edge12" class="edge">
<title>Node10&#45;&gt;Node3</title>
<path fill="none" stroke="midnightblue" d="M278.75,-122C293.7,-124.16 309.71,-126.48 324.44,-128.61"/>
<polygon fill="midnightblue" stroke="midnightblue" points="324.01,-132.08 334.41,-130.05 325.01,-125.15 324.01,-132.08"/>
</g>
<!-- Node10&#45;&gt;Node7 -->
<g id="edge13" class="edge">
<title>Node10&#45;&gt;Node7</title>
<path fill="none" stroke="midnightblue" d="M278.91,-110.88C323.59,-109.78 386.43,-110.15 441,-117.5 452.14,-119 464.01,-121.57 474.93,-124.34"/>
<polygon fill="midnightblue" stroke="midnightblue" points="474.08,-127.74 484.64,-126.92 475.88,-120.97 474.08,-127.74"/>
</g>
<!-- Node11&#45;&gt;Node3 -->
<g id="edge15" class="edge">
<title>Node11&#45;&gt;Node3</title>
<path fill="none" stroke="midnightblue" d="M261.25,-79.54C268.54,-82.39 276.03,-85.44 283,-88.5 306.79,-98.95 333.15,-112.26 352.21,-122.21"/>
<polygon fill="midnightblue" stroke="midnightblue" points="350.73,-125.38 361.21,-126.93 353.98,-119.18 350.73,-125.38"/>
</g>
<!-- Node11&#45;&gt;Node7 -->
<g id="edge16" class="edge">
<title>Node11&#45;&gt;Node7</title>
<path fill="none" stroke="midnightblue" d="M278.9,-72.49C323.85,-79.36 387.03,-90.67 441,-106.5 456.07,-110.92 472.31,-117.26 485.76,-122.97"/>
<polygon fill="midnightblue" stroke="midnightblue" points="484.44,-126.22 495.01,-126.99 487.23,-119.8 484.44,-126.22"/>
</g>
<!-- Node12&#45;&gt;Node3 -->
<g id="edge18" class="edge">
<title>Node12&#45;&gt;Node3</title>
<path fill="none" stroke="midnightblue" d="M266.54,-30.6C272.27,-33.22 277.9,-36.18 283,-39.5 317.03,-61.66 348.52,-97.63 365.62,-118.98"/>
<polygon fill="midnightblue" stroke="midnightblue" points="362.91,-121.19 371.84,-126.9 368.42,-116.87 362.91,-121.19"/>
</g>
<!-- Node12&#45;&gt;Node7 -->
<g id="edge19" class="edge">
<title>Node12&#45;&gt;Node7</title>
<path fill="none" stroke="midnightblue" d="M278.7,-24.93C324.68,-33.88 389.29,-49.99 441,-76.5 462.99,-87.77 484.59,-106.21 498.82,-119.68"/>
<polygon fill="midnightblue" stroke="midnightblue" points="496.68,-122.48 506.29,-126.94 501.56,-117.46 496.68,-122.48"/>
</g>
<!-- Node13&#45;&gt;Node3 -->
<g id="edge21" class="edge">
<title>Node13&#45;&gt;Node3</title>
<path fill="none" stroke="midnightblue" d="M261.65,-196.48C268.83,-193.64 276.18,-190.6 283,-187.5 307.4,-176.42 334.27,-161.94 353.36,-151.24"/>
<polygon fill="midnightblue" stroke="midnightblue" points="355.34,-154.14 362.32,-146.18 351.9,-148.05 355.34,-154.14"/>
</g>
<!-- Node13&#45;&gt;Node7 -->
<g id="edge22" class="edge">
<title>Node13&#45;&gt;Node7</title>
<path fill="none" stroke="midnightblue" d="M278.82,-206.09C324,-200.82 387.52,-190.96 441,-173.5 458.18,-167.89 476.36,-158.93 490.46,-151.23"/>
<polygon fill="midnightblue" stroke="midnightblue" points="492.5,-154.1 499.51,-146.15 489.08,-147.99 492.5,-154.1"/>
</g>
</g>
</svg>
