<?xml version="1.0" encoding="UTF-8" standalone="no"?>
<!DOCTYPE svg PUBLIC "-//W3C//DTD SVG 1.1//EN"
 "http://www.w3.org/Graphics/SVG/1.1/DTD/svg11.dtd">
<!-- Generated by graphviz version 2.43.0 (0)
 -->
<!-- Title: as_reg_read Pages: 1 -->
<svg width="632pt" height="1610pt"
 viewBox="0.00 0.00 632.00 1610.00" xmlns="http://www.w3.org/2000/svg" xmlns:xlink="http://www.w3.org/1999/xlink">
<g id="graph0" class="graph" transform="scale(1 1) rotate(0) translate(4 1606)">
<title>as_reg_read</title>
<!-- Node1 -->
<g id="node1" class="node">
<title>Node1</title>
<g id="a_node1"><a xlink:title=" ">
<polygon fill="#bfbfbf" stroke="black" points="548,-761.5 548,-780.5 624,-780.5 624,-761.5 548,-761.5"/>
<text text-anchor="middle" x="586" y="-768.5" font-family="Helvetica,sans-Serif" font-size="10.00">as_reg_read</text>
</a>
</g>
</g>
<!-- Node2 -->
<g id="node2" class="node">
<title>Node2</title>
<g id="a_node2"><a xlink:href="group__as__canny.html#ga5a7a8da32b17cbc118a2fcc020ed7397" target="_top" xlink:title=" ">
<polygon fill="none" stroke="black" points="362,-1485 362,-1515 512,-1515 512,-1485 362,-1485"/>
<text text-anchor="start" x="370" y="-1503" font-family="Helvetica,sans-Serif" font-size="10.00">as_canny_pipe_get_feature</text>
<text text-anchor="middle" x="437" y="-1492" font-family="Helvetica,sans-Serif" font-size="10.00">_count</text>
</a>
</g>
</g>
<!-- Node1&#45;&gt;Node2 -->
<g id="edge1" class="edge">
<title>Node1&#45;&gt;Node2</title>
<path fill="none" stroke="midnightblue" d="M584.21,-790.79C579.71,-899.39 555.94,-1420.01 512,-1475 508.95,-1478.81 505.3,-1482.05 501.27,-1484.79"/>
<polygon fill="midnightblue" stroke="midnightblue" points="587.71,-790.74 584.62,-780.61 580.72,-790.45 587.71,-790.74"/>
</g>
<!-- Node3 -->
<g id="node3" class="node">
<title>Node3</title>
<g id="a_node3"><a xlink:href="group__as__iic__reg__funcs.html#gaca309e97934beed04c02e31ba9cfbd3a" target="_top" xlink:title=" ">
<polygon fill="none" stroke="black" points="374.5,-1446.5 374.5,-1465.5 499.5,-1465.5 499.5,-1446.5 374.5,-1446.5"/>
<text text-anchor="middle" x="437" y="-1453.5" font-family="Helvetica,sans-Serif" font-size="10.00">as_iic_get_control_reg</text>
</a>
</g>
</g>
<!-- Node1&#45;&gt;Node3 -->
<g id="edge2" class="edge">
<title>Node1&#45;&gt;Node3</title>
<path fill="none" stroke="midnightblue" d="M584.98,-791.06C584.55,-887.4 578.81,-1302.31 512,-1409 500.93,-1426.67 480.52,-1438.89 463.93,-1446.43"/>
<polygon fill="midnightblue" stroke="midnightblue" points="588.48,-790.94 585.01,-780.93 581.48,-790.92 588.48,-790.94"/>
</g>
<!-- Node22 -->
<g id="node11" class="node">
<title>Node22</title>
<g id="a_node11"><a xlink:href="group__as__iic__reg__funcs.html#ga2dad585c29bd8cff3a81e9b34ff83d6c" target="_top" xlink:title=" ">
<polygon fill="none" stroke="black" points="383.5,-1380.5 383.5,-1399.5 490.5,-1399.5 490.5,-1380.5 383.5,-1380.5"/>
<text text-anchor="middle" x="437" y="-1387.5" font-family="Helvetica,sans-Serif" font-size="10.00">as_iic_get_data_rx</text>
</a>
</g>
</g>
<!-- Node1&#45;&gt;Node22 -->
<g id="edge10" class="edge">
<title>Node1&#45;&gt;Node22</title>
<path fill="none" stroke="midnightblue" d="M583.91,-790.62C578.3,-889.05 551.28,-1326.24 512,-1371 506.31,-1377.48 498.74,-1381.89 490.61,-1384.87"/>
<polygon fill="midnightblue" stroke="midnightblue" points="587.41,-790.74 584.48,-780.56 580.42,-790.35 587.41,-790.74"/>
</g>
<!-- Node23 -->
<g id="node12" class="node">
<title>Node23</title>
<g id="a_node12"><a xlink:href="group__as__iic__reg__funcs.html#ga9e077d3e462ddbce6703f881f2fee772" target="_top" xlink:title=" ">
<polygon fill="none" stroke="black" points="383.5,-1342.5 383.5,-1361.5 490.5,-1361.5 490.5,-1342.5 383.5,-1342.5"/>
<text text-anchor="middle" x="437" y="-1349.5" font-family="Helvetica,sans-Serif" font-size="10.00">as_iic_get_data_tx</text>
</a>
</g>
</g>
<!-- Node1&#45;&gt;Node23 -->
<g id="edge11" class="edge">
<title>Node1&#45;&gt;Node23</title>
<path fill="none" stroke="midnightblue" d="M585.28,-791.07C586.15,-881.51 585.08,-1250.4 512,-1333 506.29,-1339.46 498.7,-1343.86 490.57,-1346.84"/>
<polygon fill="midnightblue" stroke="midnightblue" points="588.78,-790.79 585.17,-780.83 581.78,-790.87 588.78,-790.79"/>
</g>
<!-- Node24 -->
<g id="node13" class="node">
<title>Node24</title>
<g id="a_node13"><a xlink:href="group__as__iic__reg__funcs.html#gace5813084165559c81fe11db6b628b5e" target="_top" xlink:title=" ">
<polygon fill="none" stroke="black" points="383.5,-1304.5 383.5,-1323.5 490.5,-1323.5 490.5,-1304.5 383.5,-1304.5"/>
<text text-anchor="middle" x="437" y="-1311.5" font-family="Helvetica,sans-Serif" font-size="10.00">as_iic_get_rx_byte</text>
</a>
</g>
</g>
<!-- Node1&#45;&gt;Node24 -->
<g id="edge12" class="edge">
<title>Node1&#45;&gt;Node24</title>
<path fill="none" stroke="midnightblue" d="M585.07,-790.79C584.99,-876.96 580.29,-1218.53 512,-1295 506.26,-1301.43 498.66,-1305.82 490.52,-1308.79"/>
<polygon fill="midnightblue" stroke="midnightblue" points="588.57,-790.57 585.06,-780.58 581.57,-790.58 588.57,-790.57"/>
</g>
<!-- Node33 -->
<g id="node15" class="node">
<title>Node33</title>
<g id="a_node15"><a xlink:href="group__as__iic__reg__funcs.html#ga8e5ac0f5aaa3e8373eeb8553c00c8fd8" target="_top" xlink:title=" ">
<polygon fill="none" stroke="black" points="386.5,-1266.5 386.5,-1285.5 487.5,-1285.5 487.5,-1266.5 386.5,-1266.5"/>
<text text-anchor="middle" x="437" y="-1273.5" font-family="Helvetica,sans-Serif" font-size="10.00">as_iic_get_status</text>
</a>
</g>
</g>
<!-- Node1&#45;&gt;Node33 -->
<g id="edge15" class="edge">
<title>Node1&#45;&gt;Node33</title>
<path fill="none" stroke="midnightblue" d="M584.83,-790.91C583.74,-873.33 575.41,-1186.75 512,-1257 505.6,-1264.09 496.95,-1268.69 487.81,-1271.65"/>
<polygon fill="midnightblue" stroke="midnightblue" points="588.34,-790.71 584.95,-780.67 581.34,-790.63 588.34,-790.71"/>
</g>
<!-- Node34 -->
<g id="node16" class="node">
<title>Node34</title>
<g id="a_node16"><a xlink:href="group__as__iic__reg__funcs.html#ga8daa8fde0a7776aa2f5b335250b5aa2a" target="_top" xlink:title=" ">
<polygon fill="none" stroke="black" points="376,-1228.5 376,-1247.5 498,-1247.5 498,-1228.5 376,-1228.5"/>
<text text-anchor="middle" x="437" y="-1235.5" font-family="Helvetica,sans-Serif" font-size="10.00">as_iic_get_status_reg</text>
</a>
</g>
</g>
<!-- Node1&#45;&gt;Node34 -->
<g id="edge16" class="edge">
<title>Node1&#45;&gt;Node34</title>
<path fill="none" stroke="midnightblue" d="M584.4,-790.75C581.66,-868.05 567.96,-1148.93 512,-1214 506.54,-1220.35 499.38,-1225.03 491.67,-1228.48"/>
<polygon fill="midnightblue" stroke="midnightblue" points="587.91,-790.63 584.74,-780.52 580.91,-790.39 587.91,-790.63"/>
</g>
<!-- Node50 -->
<g id="node24" class="node">
<title>Node50</title>
<g id="a_node24"><a xlink:href="group__as__iic__reg__funcs.html#ga8058473baeded71954aa72ee8df24e9b" target="_top" xlink:title=" ">
<polygon fill="none" stroke="red" points="193.5,-1038.5 193.5,-1057.5 300.5,-1057.5 300.5,-1038.5 193.5,-1038.5"/>
<text text-anchor="middle" x="247" y="-1045.5" font-family="Helvetica,sans-Serif" font-size="10.00">as_iic_set_data_tx</text>
</a>
</g>
</g>
<!-- Node1&#45;&gt;Node50 -->
<g id="edge26" class="edge">
<title>Node1&#45;&gt;Node50</title>
<path fill="none" stroke="midnightblue" d="M584.66,-791.24C582.95,-866.75 572.63,-1130.21 512,-1181 460.89,-1223.81 415.77,-1220.41 362,-1181 319.14,-1149.59 364.81,-1103.29 326,-1067 318.98,-1060.43 310.07,-1056.02 300.81,-1053.09"/>
<polygon fill="midnightblue" stroke="midnightblue" points="588.17,-790.87 584.87,-780.8 581.17,-790.73 588.17,-790.87"/>
</g>
<!-- Node51 -->
<g id="node25" class="node">
<title>Node51</title>
<g id="a_node25"><a xlink:href="group__as__iic__reg__funcs.html#ga9fc4b532c67bb8f2d999583a900d741b" target="_top" xlink:title=" ">
<polygon fill="none" stroke="red" points="385,-1152.5 385,-1171.5 489,-1171.5 489,-1152.5 385,-1152.5"/>
<text text-anchor="middle" x="437" y="-1159.5" font-family="Helvetica,sans-Serif" font-size="10.00">as_iic_set_scl_div</text>
</a>
</g>
</g>
<!-- Node1&#45;&gt;Node51 -->
<g id="edge28" class="edge">
<title>Node1&#45;&gt;Node51</title>
<path fill="none" stroke="midnightblue" d="M583.84,-790.73C579.38,-860.05 561,-1091.09 512,-1143 505.81,-1149.56 497.68,-1153.97 489.09,-1156.92"/>
<polygon fill="midnightblue" stroke="midnightblue" points="587.34,-790.91 584.46,-780.71 580.35,-790.48 587.34,-790.91"/>
</g>
<!-- Node52 -->
<g id="node26" class="node">
<title>Node52</title>
<g id="a_node26"><a xlink:href="group__as__reader__writer.html#gaaea10b48e35a224a5870cd3322ffbec2" target="_top" xlink:title="Returns the next address on which the hardware will perform a write operation.">
<polygon fill="none" stroke="red" points="377.5,-1103 377.5,-1133 496.5,-1133 496.5,-1103 377.5,-1103"/>
<text text-anchor="start" x="385.5" y="-1121" font-family="Helvetica,sans-Serif" font-size="10.00">as_reader_writer_get</text>
<text text-anchor="middle" x="437" y="-1110" font-family="Helvetica,sans-Serif" font-size="10.00">_cur_hw_addr</text>
</a>
</g>
</g>
<!-- Node1&#45;&gt;Node52 -->
<g id="edge29" class="edge">
<title>Node1&#45;&gt;Node52</title>
<path fill="none" stroke="midnightblue" d="M583.04,-790.74C576.43,-853.59 553.03,-1047.52 512,-1093 507.64,-1097.83 502.31,-1101.73 496.54,-1104.88"/>
<polygon fill="midnightblue" stroke="midnightblue" points="586.54,-790.91 584.08,-780.6 579.58,-790.19 586.54,-790.91"/>
</g>
<!-- Node66 -->
<g id="node27" class="node">
<title>Node66</title>
<g id="a_node27"><a xlink:href="group__asterics__support.html#ga36a2ed59c59831bee59daaae3cb6cb35" target="_top" xlink:title=" ">
<polygon fill="none" stroke="red" points="377.5,-1064.5 377.5,-1083.5 496.5,-1083.5 496.5,-1064.5 377.5,-1064.5"/>
<text text-anchor="middle" x="437" y="-1071.5" font-family="Helvetica,sans-Serif" font-size="10.00">as_reg_read_masked</text>
</a>
</g>
</g>
<!-- Node1&#45;&gt;Node66 -->
<g id="edge30" class="edge">
<title>Node1&#45;&gt;Node66</title>
<path fill="none" stroke="midnightblue" d="M582.54,-790.77C574.93,-848.82 549.97,-1017.04 512,-1055 507.59,-1059.41 502.31,-1062.84 496.62,-1065.5"/>
<polygon fill="midnightblue" stroke="midnightblue" points="586.03,-791.07 583.83,-780.7 579.09,-790.18 586.03,-791.07"/>
</g>
<!-- Node75 -->
<g id="node28" class="node">
<title>Node75</title>
<g id="a_node28"><a xlink:href="group__asterics__support.html#ga0ccb0610d764a95bda989e35fba59490" target="_top" xlink:title=" ">
<polygon fill="none" stroke="red" points="376,-1026.5 376,-1045.5 498,-1045.5 498,-1026.5 376,-1026.5"/>
<text text-anchor="middle" x="437" y="-1033.5" font-family="Helvetica,sans-Serif" font-size="10.00">as_reg_write_masked</text>
</a>
</g>
</g>
<!-- Node1&#45;&gt;Node75 -->
<g id="edge31" class="edge">
<title>Node1&#45;&gt;Node75</title>
<path fill="none" stroke="midnightblue" d="M585.19,-790.83C584.53,-837.18 576.17,-953.46 512,-1016 507.62,-1020.27 502.42,-1023.66 496.84,-1026.33"/>
<polygon fill="midnightblue" stroke="midnightblue" points="588.7,-790.63 585.23,-780.62 581.7,-790.61 588.7,-790.63"/>
</g>
<!-- Node101 -->
<g id="node29" class="node">
<title>Node101</title>
<g id="a_node29"><a xlink:href="group__as__stream__adapter.html#ga949f37184fec3d0fed81cbf05daeb3a7" target="_top" xlink:title=" ">
<polygon fill="none" stroke="black" points="371.5,-977 371.5,-1007 502.5,-1007 502.5,-977 371.5,-977"/>
<text text-anchor="start" x="379.5" y="-995" font-family="Helvetica,sans-Serif" font-size="10.00">as_stream_adapter_get</text>
<text text-anchor="middle" x="437" y="-984" font-family="Helvetica,sans-Serif" font-size="10.00">_buffer_size</text>
</a>
</g>
</g>
<!-- Node1&#45;&gt;Node101 -->
<g id="edge32" class="edge">
<title>Node1&#45;&gt;Node101</title>
<path fill="none" stroke="midnightblue" d="M583.18,-790.82C578.54,-829.99 562.77,-917.76 512,-967 508.01,-970.87 503.4,-974.14 498.47,-976.91"/>
<polygon fill="midnightblue" stroke="midnightblue" points="586.68,-791.04 584.25,-780.73 579.72,-790.3 586.68,-791.04"/>
</g>
<!-- Node102 -->
<g id="node30" class="node">
<title>Node102</title>
<g id="a_node30"><a xlink:href="group__as__stream__adapter.html#ga71ce0201761b81a2f572d833189f4507" target="_top" xlink:title=" ">
<polygon fill="none" stroke="black" points="371.5,-928 371.5,-958 502.5,-958 502.5,-928 371.5,-928"/>
<text text-anchor="start" x="379.5" y="-946" font-family="Helvetica,sans-Serif" font-size="10.00">as_stream_adapter_get</text>
<text text-anchor="middle" x="437" y="-935" font-family="Helvetica,sans-Serif" font-size="10.00">_strobe_in_count</text>
</a>
</g>
</g>
<!-- Node1&#45;&gt;Node102 -->
<g id="edge33" class="edge">
<title>Node1&#45;&gt;Node102</title>
<path fill="none" stroke="midnightblue" d="M580.45,-790.56C572.18,-821.89 551.74,-883.3 512,-918 507.61,-921.84 502.6,-925.09 497.32,-927.84"/>
<polygon fill="midnightblue" stroke="midnightblue" points="583.86,-791.38 582.88,-780.83 577.07,-789.69 583.86,-791.38"/>
</g>
<!-- Node103 -->
<g id="node31" class="node">
<title>Node103</title>
<g id="a_node31"><a xlink:href="group__as__stream__adapter.html#ga23bc1355f217edcbd1e48b944c1f481a" target="_top" xlink:title=" ">
<polygon fill="none" stroke="black" points="371.5,-879 371.5,-909 502.5,-909 502.5,-879 371.5,-879"/>
<text text-anchor="start" x="379.5" y="-897" font-family="Helvetica,sans-Serif" font-size="10.00">as_stream_adapter_get</text>
<text text-anchor="middle" x="437" y="-886" font-family="Helvetica,sans-Serif" font-size="10.00">_strobe_out_count</text>
</a>
</g>
</g>
<!-- Node1&#45;&gt;Node103 -->
<g id="edge34" class="edge">
<title>Node1&#45;&gt;Node103</title>
<path fill="none" stroke="midnightblue" d="M575.69,-789.58C563.79,-811.56 541.18,-847.81 512,-869 506.73,-872.83 500.84,-876.09 494.74,-878.88"/>
<polygon fill="midnightblue" stroke="midnightblue" points="578.86,-791.08 580.39,-780.6 572.66,-787.84 578.86,-791.08"/>
</g>
<!-- Node104 -->
<g id="node32" class="node">
<title>Node104</title>
<g id="a_node32"><a xlink:href="group__as__stream__adapter.html#ga046c0c820ff8e65dc3c4bb43ab9e5d0c" target="_top" xlink:title=" ">
<polygon fill="none" stroke="black" points="375,-830 375,-860 499,-860 499,-830 375,-830"/>
<text text-anchor="start" x="383" y="-848" font-family="Helvetica,sans-Serif" font-size="10.00">as_stream_adapter_is</text>
<text text-anchor="middle" x="437" y="-837" font-family="Helvetica,sans-Serif" font-size="10.00">_buffer_empty</text>
</a>
</g>
</g>
<!-- Node1&#45;&gt;Node104 -->
<g id="edge35" class="edge">
<title>Node1&#45;&gt;Node104</title>
<path fill="none" stroke="midnightblue" d="M564.9,-786.62C550.71,-797.11 530.93,-810.66 512,-820 504.58,-823.66 496.5,-827 488.49,-829.95"/>
<polygon fill="midnightblue" stroke="midnightblue" points="567.07,-789.37 572.95,-780.56 562.86,-783.78 567.07,-789.37"/>
</g>
<!-- Node105 -->
<g id="node33" class="node">
<title>Node105</title>
<g id="a_node33"><a xlink:href="group__as__stream__adapter.html#ga681755aebf19414cd12621272d00abdd" target="_top" xlink:title=" ">
<polygon fill="none" stroke="black" points="375,-781 375,-811 499,-811 499,-781 375,-781"/>
<text text-anchor="start" x="383" y="-799" font-family="Helvetica,sans-Serif" font-size="10.00">as_stream_adapter_is</text>
<text text-anchor="middle" x="437" y="-788" font-family="Helvetica,sans-Serif" font-size="10.00">_buffer_full</text>
</a>
</g>
</g>
<!-- Node1&#45;&gt;Node105 -->
<g id="edge36" class="edge">
<title>Node1&#45;&gt;Node105</title>
<path fill="none" stroke="midnightblue" d="M537.85,-779.02C525.52,-781.12 512.05,-783.41 499.1,-785.61"/>
<polygon fill="midnightblue" stroke="midnightblue" points="538.63,-782.44 547.91,-777.31 537.46,-775.53 538.63,-782.44"/>
</g>
<!-- Node106 -->
<g id="node34" class="node">
<title>Node106</title>
<g id="a_node34"><a xlink:href="group__as__stream__adapter.html#ga5c6c97e9564049dcdb051977b0430cbf" target="_top" xlink:title=" ">
<polygon fill="none" stroke="black" points="365,-732 365,-762 509,-762 509,-732 365,-732"/>
<text text-anchor="start" x="373" y="-750" font-family="Helvetica,sans-Serif" font-size="10.00">as_stream_adapter_is</text>
<text text-anchor="middle" x="437" y="-739" font-family="Helvetica,sans-Serif" font-size="10.00">_strobe_counting_enabled</text>
</a>
</g>
</g>
<!-- Node1&#45;&gt;Node106 -->
<g id="edge37" class="edge">
<title>Node1&#45;&gt;Node106</title>
<path fill="none" stroke="midnightblue" d="M537.87,-763.3C528.71,-761.81 518.92,-760.21 509.18,-758.62"/>
<polygon fill="midnightblue" stroke="midnightblue" points="537.47,-766.79 547.91,-764.94 538.6,-759.88 537.47,-766.79"/>
</g>
<!-- Node107 -->
<g id="node35" class="node">
<title>Node107</title>
<g id="a_node35"><a xlink:href="group__as__stream__strobe__counter.html#gae9ff16c03d532084146ef8c4dabf44e8" target="_top" xlink:title="Retrieve the current strobe counter value.">
<polygon fill="none" stroke="black" points="364,-683 364,-713 510,-713 510,-683 364,-683"/>
<text text-anchor="start" x="372" y="-701" font-family="Helvetica,sans-Serif" font-size="10.00">as_stream_strobe_counter</text>
<text text-anchor="middle" x="437" y="-690" font-family="Helvetica,sans-Serif" font-size="10.00">_get_count_value</text>
</a>
</g>
</g>
<!-- Node1&#45;&gt;Node107 -->
<g id="edge38" class="edge">
<title>Node1&#45;&gt;Node107</title>
<path fill="none" stroke="midnightblue" d="M564.94,-755.3C550.76,-744.79 530.99,-731.23 512,-722 505.2,-718.69 497.83,-715.69 490.47,-713"/>
<polygon fill="midnightblue" stroke="midnightblue" points="562.89,-758.15 572.98,-761.39 567.12,-752.56 562.89,-758.15"/>
</g>
<!-- Node108 -->
<g id="node36" class="node">
<title>Node108</title>
<g id="a_node36"><a xlink:href="group__as__threshold.html#gab57ae4379fa2b76f65c85e29a4235067" target="_top" xlink:title=" ">
<polygon fill="none" stroke="black" points="378.5,-634 378.5,-664 495.5,-664 495.5,-634 378.5,-634"/>
<text text-anchor="start" x="386.5" y="-652" font-family="Helvetica,sans-Serif" font-size="10.00">as_threshold_enable</text>
<text text-anchor="middle" x="437" y="-641" font-family="Helvetica,sans-Serif" font-size="10.00">_a_value</text>
</a>
</g>
</g>
<!-- Node1&#45;&gt;Node108 -->
<g id="edge39" class="edge">
<title>Node1&#45;&gt;Node108</title>
<path fill="none" stroke="midnightblue" d="M575.74,-752.36C563.88,-730.32 541.3,-694.01 512,-673 507.06,-669.46 501.57,-666.42 495.88,-663.82"/>
<polygon fill="midnightblue" stroke="midnightblue" points="572.7,-754.11 580.42,-761.37 578.91,-750.88 572.7,-754.11"/>
</g>
<!-- Node109 -->
<g id="node37" class="node">
<title>Node109</title>
<g id="a_node37"><a xlink:href="group__as__threshold.html#ga821aa37f9a20d976605e06cbc17e631f" target="_top" xlink:title=" ">
<polygon fill="none" stroke="black" points="378.5,-585 378.5,-615 495.5,-615 495.5,-585 378.5,-585"/>
<text text-anchor="start" x="386.5" y="-603" font-family="Helvetica,sans-Serif" font-size="10.00">as_threshold_enable</text>
<text text-anchor="middle" x="437" y="-592" font-family="Helvetica,sans-Serif" font-size="10.00">_b_value</text>
</a>
</g>
</g>
<!-- Node1&#45;&gt;Node109 -->
<g id="edge40" class="edge">
<title>Node1&#45;&gt;Node109</title>
<path fill="none" stroke="midnightblue" d="M580.5,-751.38C572.3,-719.98 551.95,-658.46 512,-624 507.19,-619.85 501.66,-616.42 495.82,-613.58"/>
<polygon fill="midnightblue" stroke="midnightblue" points="577.12,-752.27 582.91,-761.14 583.91,-750.59 577.12,-752.27"/>
</g>
<!-- Node110 -->
<g id="node38" class="node">
<title>Node110</title>
<g id="a_node38"><a xlink:href="group__as__threshold.html#gac427effb1fd260c777dc5ea58be9e77f" target="_top" xlink:title=" ">
<polygon fill="none" stroke="black" points="378.5,-536 378.5,-566 495.5,-566 495.5,-536 378.5,-536"/>
<text text-anchor="start" x="386.5" y="-554" font-family="Helvetica,sans-Serif" font-size="10.00">as_threshold_enable</text>
<text text-anchor="middle" x="437" y="-543" font-family="Helvetica,sans-Serif" font-size="10.00">_c_value</text>
</a>
</g>
</g>
<!-- Node1&#45;&gt;Node110 -->
<g id="edge41" class="edge">
<title>Node1&#45;&gt;Node110</title>
<path fill="none" stroke="midnightblue" d="M583.23,-751.12C578.69,-711.86 563.07,-623.93 512,-575 507.22,-570.42 501.56,-566.72 495.53,-563.72"/>
<polygon fill="midnightblue" stroke="midnightblue" points="579.77,-751.66 584.28,-761.24 586.73,-750.94 579.77,-751.66"/>
</g>
<!-- Node111 -->
<g id="node39" class="node">
<title>Node111</title>
<g id="a_node39"><a xlink:href="group__as__threshold.html#ga9f720ebbf29d212931203c0839371be6" target="_top" xlink:title=" ">
<polygon fill="none" stroke="black" points="379.5,-497.5 379.5,-516.5 494.5,-516.5 494.5,-497.5 379.5,-497.5"/>
<text text-anchor="middle" x="437" y="-504.5" font-family="Helvetica,sans-Serif" font-size="10.00">as_threshold_get_t1</text>
</a>
</g>
</g>
<!-- Node1&#45;&gt;Node111 -->
<g id="edge42" class="edge">
<title>Node1&#45;&gt;Node111</title>
<path fill="none" stroke="midnightblue" d="M585.25,-751.12C584.69,-704.64 576.56,-588.14 512,-526 507.03,-521.22 501.03,-517.59 494.61,-514.86"/>
<polygon fill="midnightblue" stroke="midnightblue" points="581.75,-751.35 585.25,-761.35 588.75,-751.35 581.75,-751.35"/>
</g>
<!-- Node112 -->
<g id="node40" class="node">
<title>Node112</title>
<g id="a_node40"><a xlink:href="group__as__threshold.html#ga4c241f45b820cc45b132f0c4f08e43a0" target="_top" xlink:title=" ">
<polygon fill="none" stroke="black" points="379.5,-459.5 379.5,-478.5 494.5,-478.5 494.5,-459.5 379.5,-459.5"/>
<text text-anchor="middle" x="437" y="-466.5" font-family="Helvetica,sans-Serif" font-size="10.00">as_threshold_get_t2</text>
</a>
</g>
</g>
<!-- Node1&#45;&gt;Node112 -->
<g id="edge43" class="edge">
<title>Node1&#45;&gt;Node112</title>
<path fill="none" stroke="midnightblue" d="M582.53,-751.3C574.89,-693.45 549.86,-525.82 512,-488 507.12,-483.13 501.17,-479.45 494.78,-476.68"/>
<polygon fill="midnightblue" stroke="midnightblue" points="579.07,-751.86 583.82,-761.33 586.02,-750.96 579.07,-751.86"/>
</g>
<!-- Node113 -->
<g id="node41" class="node">
<title>Node113</title>
<g id="a_node41"><a xlink:href="group__as__threshold.html#gae62d1dc97502916e642b1f22d94907a7" target="_top" xlink:title=" ">
<polygon fill="none" stroke="black" points="382,-410 382,-440 492,-440 492,-410 382,-410"/>
<text text-anchor="start" x="390" y="-428" font-family="Helvetica,sans-Serif" font-size="10.00">as_threshold_set_a</text>
<text text-anchor="middle" x="437" y="-417" font-family="Helvetica,sans-Serif" font-size="10.00">_value</text>
</a>
</g>
</g>
<!-- Node1&#45;&gt;Node113 -->
<g id="edge44" class="edge">
<title>Node1&#45;&gt;Node113</title>
<path fill="none" stroke="midnightblue" d="M583.03,-751.32C576.39,-688.66 552.92,-495.33 512,-450 506.55,-443.96 499.59,-439.38 492.12,-435.9"/>
<polygon fill="midnightblue" stroke="midnightblue" points="579.57,-751.84 584.08,-761.43 586.53,-751.12 579.57,-751.84"/>
</g>
<!-- Node114 -->
<g id="node42" class="node">
<title>Node114</title>
<g id="a_node42"><a xlink:href="group__as__threshold.html#gaacde349094d858c0e0cb7de97b7a0b02" target="_top" xlink:title=" ">
<polygon fill="none" stroke="black" points="382,-361 382,-391 492,-391 492,-361 382,-361"/>
<text text-anchor="start" x="390" y="-379" font-family="Helvetica,sans-Serif" font-size="10.00">as_threshold_set_b</text>
<text text-anchor="middle" x="437" y="-368" font-family="Helvetica,sans-Serif" font-size="10.00">_value</text>
</a>
</g>
</g>
<!-- Node1&#45;&gt;Node114 -->
<g id="edge45" class="edge">
<title>Node1&#45;&gt;Node114</title>
<path fill="none" stroke="midnightblue" d="M583.69,-751C578.76,-681.7 559.16,-453.15 512,-400 506.62,-393.94 499.7,-389.4 492.25,-386"/>
<polygon fill="midnightblue" stroke="midnightblue" points="580.22,-751.63 584.4,-761.37 587.21,-751.15 580.22,-751.63"/>
</g>
<!-- Node115 -->
<g id="node43" class="node">
<title>Node115</title>
<g id="a_node43"><a xlink:href="group__as__threshold.html#gabe357fa631d024a9be6c410c404b51f1" target="_top" xlink:title=" ">
<polygon fill="none" stroke="black" points="382,-312 382,-342 492,-342 492,-312 382,-312"/>
<text text-anchor="start" x="390" y="-330" font-family="Helvetica,sans-Serif" font-size="10.00">as_threshold_set_c</text>
<text text-anchor="middle" x="437" y="-319" font-family="Helvetica,sans-Serif" font-size="10.00">_value</text>
</a>
</g>
</g>
<!-- Node1&#45;&gt;Node115 -->
<g id="edge46" class="edge">
<title>Node1&#45;&gt;Node115</title>
<path fill="none" stroke="midnightblue" d="M584.18,-750.84C580.75,-675.57 565.06,-412.16 512,-351 506.69,-344.88 499.8,-340.31 492.37,-336.9"/>
<polygon fill="midnightblue" stroke="midnightblue" points="580.71,-751.41 584.64,-761.25 587.7,-751.1 580.71,-751.41"/>
</g>
<!-- Node116 -->
<g id="node44" class="node">
<title>Node116</title>
<g id="a_node44"><a xlink:href="group__as__threshold.html#ga6810bb581bbb6a0ac417fdc69b171b2d" target="_top" xlink:title=" ">
<polygon fill="none" stroke="black" points="380,-273.5 380,-292.5 494,-292.5 494,-273.5 380,-273.5"/>
<text text-anchor="middle" x="437" y="-280.5" font-family="Helvetica,sans-Serif" font-size="10.00">as_threshold_set_t1</text>
</a>
</g>
</g>
<!-- Node1&#45;&gt;Node116 -->
<g id="edge47" class="edge">
<title>Node1&#45;&gt;Node116</title>
<path fill="none" stroke="midnightblue" d="M584.71,-751.02C583.15,-670.3 573.23,-369.47 512,-302 507.1,-296.6 500.89,-292.64 494.15,-289.75"/>
<polygon fill="midnightblue" stroke="midnightblue" points="581.22,-751.33 584.89,-761.27 588.22,-751.21 581.22,-751.33"/>
</g>
<!-- Node117 -->
<g id="node45" class="node">
<title>Node117</title>
<g id="a_node45"><a xlink:href="group__as__threshold.html#gad7125c18114253bc9aabc77c982748f6" target="_top" xlink:title=" ">
<polygon fill="none" stroke="black" points="380,-235.5 380,-254.5 494,-254.5 494,-235.5 380,-235.5"/>
<text text-anchor="middle" x="437" y="-242.5" font-family="Helvetica,sans-Serif" font-size="10.00">as_threshold_set_t2</text>
</a>
</g>
</g>
<!-- Node1&#45;&gt;Node117 -->
<g id="edge48" class="edge">
<title>Node1&#45;&gt;Node117</title>
<path fill="none" stroke="midnightblue" d="M584.97,-751.31C584.45,-667.03 578.14,-337.73 512,-264 507.13,-258.57 500.93,-254.6 494.21,-251.7"/>
<polygon fill="midnightblue" stroke="midnightblue" points="581.47,-751.34 585.01,-761.33 588.47,-751.31 581.47,-751.34"/>
</g>
<!-- Node118 -->
<g id="node46" class="node">
<title>Node118</title>
<g id="a_node46"><a xlink:href="group__as__window__pipeline__common.html#ga6ac59a1b0cc45527bf2bd88d403d9dc0" target="_top" xlink:title=" ">
<polygon fill="none" stroke="red" points="378,-186 378,-216 496,-216 496,-186 378,-186"/>
<text text-anchor="start" x="386" y="-204" font-family="Helvetica,sans-Serif" font-size="10.00">as_window_pipe_get</text>
<text text-anchor="middle" x="437" y="-193" font-family="Helvetica,sans-Serif" font-size="10.00">_control_reg</text>
</a>
</g>
</g>
<!-- Node1&#45;&gt;Node118 -->
<g id="edge49" class="edge">
<title>Node1&#45;&gt;Node118</title>
<path fill="none" stroke="midnightblue" d="M585.05,-751.09C584.87,-662.93 579.89,-308.41 512,-226 507.69,-220.77 502.24,-216.62 496.26,-213.35"/>
<polygon fill="midnightblue" stroke="midnightblue" points="581.55,-751.1 585.05,-761.1 588.55,-751.1 581.55,-751.1"/>
</g>
<!-- Node120 -->
<g id="node47" class="node">
<title>Node120</title>
<g id="a_node47"><a xlink:href="group__as__window__pipeline__common.html#ga0c96edb41167e2c09e4c76401fa36c4a" target="_top" xlink:title=" ">
<polygon fill="none" stroke="red" points="378,-137 378,-167 496,-167 496,-137 378,-137"/>
<text text-anchor="start" x="386" y="-155" font-family="Helvetica,sans-Serif" font-size="10.00">as_window_pipe_get</text>
<text text-anchor="middle" x="437" y="-144" font-family="Helvetica,sans-Serif" font-size="10.00">_state_reg</text>
</a>
</g>
</g>
<!-- Node1&#45;&gt;Node120 -->
<g id="edge50" class="edge">
<title>Node1&#45;&gt;Node120</title>
<path fill="none" stroke="midnightblue" d="M585.32,-751.05C586.43,-657.88 586.53,-266.37 512,-176 507.7,-170.79 502.26,-166.7 496.29,-163.49"/>
<polygon fill="midnightblue" stroke="midnightblue" points="581.82,-751.06 585.18,-761.11 588.82,-751.16 581.82,-751.06"/>
</g>
<!-- Node122 -->
<g id="node48" class="node">
<title>Node122</title>
<g id="a_node48"><a xlink:href="group__as__reader__writer.html#ga3a166cc3d15dae4f4d7ba9ddc2fd1ca6" target="_top" xlink:title="Returns the number of received units by the reader_writer.">
<polygon fill="none" stroke="black" points="373.5,-88 373.5,-118 500.5,-118 500.5,-88 373.5,-88"/>
<text text-anchor="start" x="381.5" y="-106" font-family="Helvetica,sans-Serif" font-size="10.00">as_writer_get_cur_unit</text>
<text text-anchor="middle" x="437" y="-95" font-family="Helvetica,sans-Serif" font-size="10.00">_count</text>
</a>
</g>
</g>
<!-- Node1&#45;&gt;Node122 -->
<g id="edge51" class="edge">
<title>Node1&#45;&gt;Node122</title>
<path fill="none" stroke="midnightblue" d="M584.01,-750.98C578.72,-647.55 552.53,-176.61 512,-127 508.75,-123.03 504.84,-119.7 500.53,-116.92"/>
<polygon fill="midnightblue" stroke="midnightblue" points="580.53,-751.45 584.53,-761.26 587.52,-751.09 580.53,-751.45"/>
</g>
<!-- Node123 -->
<g id="node49" class="node">
<title>Node123</title>
<g id="a_node49"><a xlink:href="group__as__reader__writer.html#ga1ed314dbb9e93fbcbab70d4db197e3b6" target="_top" xlink:title="Returns the first address after the last successfully written unit.">
<polygon fill="none" stroke="red" points="364,-39 364,-69 510,-69 510,-39 364,-39"/>
<text text-anchor="start" x="372" y="-57" font-family="Helvetica,sans-Serif" font-size="10.00">as_writer_get_last</text>
<text text-anchor="middle" x="437" y="-46" font-family="Helvetica,sans-Serif" font-size="10.00">_data_unit_complete_addr</text>
</a>
</g>
</g>
<!-- Node1&#45;&gt;Node123 -->
<g id="edge52" class="edge">
<title>Node1&#45;&gt;Node123</title>
<path fill="none" stroke="midnightblue" d="M584.18,-751.17C579.59,-643.47 555.59,-131.79 512,-78 509.19,-74.54 505.88,-71.57 502.24,-69.02"/>
<polygon fill="midnightblue" stroke="midnightblue" points="580.69,-751.44 584.61,-761.29 587.69,-751.15 580.69,-751.44"/>
</g>
<!-- Node124 -->
<g id="node50" class="node">
<title>Node124</title>
<g id="a_node50"><a xlink:href="group__as__window__pipeline__common.html#ga46bf67f4d3583063c1aaf32a0f8470c2" target="_top" xlink:title=" ">
<polygon fill="none" stroke="red" points="365.5,-0.5 365.5,-19.5 508.5,-19.5 508.5,-0.5 365.5,-0.5"/>
<text text-anchor="middle" x="437" y="-7.5" font-family="Helvetica,sans-Serif" font-size="10.00">is_as_window_pipe_ready</text>
</a>
</g>
</g>
<!-- Node1&#45;&gt;Node124 -->
<g id="edge53" class="edge">
<title>Node1&#45;&gt;Node124</title>
<path fill="none" stroke="midnightblue" d="M584.39,-751.14C580.74,-638.76 560.42,-85.47 512,-29 508.72,-25.17 504.78,-22.06 500.46,-19.54"/>
<polygon fill="midnightblue" stroke="midnightblue" points="580.9,-751.49 584.71,-761.38 587.89,-751.27 580.9,-751.49"/>
</g>
<!-- Node4 -->
<g id="node4" class="node">
<title>Node4</title>
<g id="a_node4"><a xlink:href="group__as__iic__bitchecks.html#ga2ef7a1f9767986f2033697f584cd4feb" target="_top" xlink:title=" ">
<polygon fill="none" stroke="red" points="192,-1582.5 192,-1601.5 302,-1601.5 302,-1582.5 192,-1582.5"/>
<text text-anchor="middle" x="247" y="-1589.5" font-family="Helvetica,sans-Serif" font-size="10.00">as_iic_is_readwrite</text>
</a>
</g>
</g>
<!-- Node3&#45;&gt;Node4 -->
<g id="edge3" class="edge">
<title>Node3&#45;&gt;Node4</title>
<path fill="none" stroke="midnightblue" d="M369.13,-1470.53C366.61,-1472.16 364.21,-1473.98 362,-1476 328.03,-1507 360.35,-1542.43 326,-1573 319.23,-1579.02 310.87,-1583.21 302.17,-1586.11"/>
<polygon fill="midnightblue" stroke="midnightblue" points="371.05,-1473.47 378.17,-1465.63 367.71,-1467.31 371.05,-1473.47"/>
</g>
<!-- Node17 -->
<g id="node6" class="node">
<title>Node17</title>
<g id="a_node6"><a xlink:href="as__iic_8c.html#afea64b05722568dd3faeb338cfa059bc" target="_top" xlink:title=" ">
<polygon fill="none" stroke="black" points="190,-1544.5 190,-1563.5 304,-1563.5 304,-1544.5 190,-1544.5"/>
<text text-anchor="middle" x="247" y="-1551.5" font-family="Helvetica,sans-Serif" font-size="10.00">as_iic_set_ack_mod</text>
</a>
</g>
</g>
<!-- Node3&#45;&gt;Node17 -->
<g id="edge5" class="edge">
<title>Node3&#45;&gt;Node17</title>
<path fill="none" stroke="midnightblue" d="M372.31,-1469.63C368.67,-1471.49 365.2,-1473.6 362,-1476 337.42,-1494.43 350.8,-1516.88 326,-1535 319.47,-1539.77 311.9,-1543.35 304.09,-1546.04"/>
<polygon fill="midnightblue" stroke="midnightblue" points="373.88,-1472.76 381.61,-1465.51 371.05,-1466.35 373.88,-1472.76"/>
</g>
<!-- Node18 -->
<g id="node7" class="node">
<title>Node18</title>
<g id="a_node7"><a xlink:href="group__as__iic__user.html#ga01d635936dc80ddaa19a8d189603ead3" target="_top" xlink:title=" ">
<polygon fill="none" stroke="black" points="184.5,-1506.5 184.5,-1525.5 309.5,-1525.5 309.5,-1506.5 184.5,-1506.5"/>
<text text-anchor="middle" x="247" y="-1513.5" font-family="Helvetica,sans-Serif" font-size="10.00">as_iic_set_data_ready</text>
</a>
</g>
</g>
<!-- Node3&#45;&gt;Node18 -->
<g id="edge6" class="edge">
<title>Node3&#45;&gt;Node18</title>
<path fill="none" stroke="midnightblue" d="M383.27,-1468.41C376.02,-1470.64 368.75,-1473.18 362,-1476 344.91,-1483.15 343.18,-1490.07 326,-1497 316.69,-1500.75 306.45,-1503.9 296.54,-1506.48"/>
<polygon fill="midnightblue" stroke="midnightblue" points="384.47,-1471.7 393.09,-1465.54 382.51,-1464.98 384.47,-1471.7"/>
</g>
<!-- Node19 -->
<g id="node8" class="node">
<title>Node19</title>
<g id="a_node8"><a xlink:href="group__as__iic__bitsetters.html#ga0fa3aeeb6d2854f9b27c344047bd820e" target="_top" xlink:title=" ">
<polygon fill="none" stroke="black" points="189,-1468.5 189,-1487.5 305,-1487.5 305,-1468.5 189,-1468.5"/>
<text text-anchor="middle" x="247" y="-1475.5" font-family="Helvetica,sans-Serif" font-size="10.00">as_iic_set_readwrite</text>
</a>
</g>
</g>
<!-- Node3&#45;&gt;Node19 -->
<g id="edge7" class="edge">
<title>Node3&#45;&gt;Node19</title>
<path fill="none" stroke="midnightblue" d="M364.36,-1464.38C344.8,-1466.67 323.87,-1469.12 305.24,-1471.3"/>
<polygon fill="midnightblue" stroke="midnightblue" points="364.92,-1467.84 374.44,-1463.2 364.1,-1460.89 364.92,-1467.84"/>
</g>
<!-- Node20 -->
<g id="node9" class="node">
<title>Node20</title>
<g id="a_node9"><a xlink:href="group__as__iic__bitsetters.html#gaa51d06d83796c60001b40bff2dc35b68" target="_top" xlink:title=" ">
<polygon fill="none" stroke="black" points="191.5,-1419 191.5,-1449 302.5,-1449 302.5,-1419 191.5,-1419"/>
<text text-anchor="start" x="199.5" y="-1437" font-family="Helvetica,sans-Serif" font-size="10.00">as_iic_set_transmit</text>
<text text-anchor="middle" x="247" y="-1426" font-family="Helvetica,sans-Serif" font-size="10.00">_start</text>
</a>
</g>
</g>
<!-- Node3&#45;&gt;Node20 -->
<g id="edge8" class="edge">
<title>Node3&#45;&gt;Node20</title>
<path fill="none" stroke="midnightblue" d="M364.25,-1447.6C343.84,-1445.22 321.95,-1442.65 302.72,-1440.4"/>
<polygon fill="midnightblue" stroke="midnightblue" points="364.1,-1451.11 374.44,-1448.8 364.92,-1444.16 364.1,-1451.11"/>
</g>
<!-- Node21 -->
<g id="node10" class="node">
<title>Node21</title>
<g id="a_node10"><a xlink:href="group__as__iic__bitsetters.html#ga3e0050e31ef365ba7813edd7fbcfa724" target="_top" xlink:title=" ">
<polygon fill="none" stroke="black" points="178.5,-1380.5 178.5,-1399.5 315.5,-1399.5 315.5,-1380.5 178.5,-1380.5"/>
<text text-anchor="middle" x="247" y="-1387.5" font-family="Helvetica,sans-Serif" font-size="10.00">as_iic_set_transmit_stop</text>
</a>
</g>
</g>
<!-- Node3&#45;&gt;Node21 -->
<g id="edge9" class="edge">
<title>Node3&#45;&gt;Node21</title>
<path fill="none" stroke="midnightblue" d="M406.27,-1442.18C384.38,-1432.36 353.74,-1419.3 326,-1410 314.47,-1406.13 301.77,-1402.58 290.02,-1399.58"/>
<polygon fill="midnightblue" stroke="midnightblue" points="405.11,-1445.5 415.66,-1446.45 408,-1439.13 405.11,-1445.5"/>
</g>
<!-- Node5 -->
<g id="node5" class="node">
<title>Node5</title>
<g id="a_node5"><a xlink:href="group__as__iic__helpers.html#ga1662a1a0b29536bf7d74ede3f73598be" target="_top" xlink:title=" ">
<polygon fill="none" stroke="red" points="0.5,-1342.5 0.5,-1361.5 131.5,-1361.5 131.5,-1342.5 0.5,-1342.5"/>
<text text-anchor="middle" x="66" y="-1349.5" font-family="Helvetica,sans-Serif" font-size="10.00">as_iic_read_transaction</text>
</a>
</g>
</g>
<!-- Node4&#45;&gt;Node5 -->
<g id="edge4" class="edge">
<title>Node4&#45;&gt;Node5</title>
<path fill="none" stroke="midnightblue" d="M182.3,-1581.83C177.16,-1579.46 172.3,-1576.55 168,-1573 97.43,-1514.69 73.93,-1396.44 68.4,-1361.76"/>
<polygon fill="midnightblue" stroke="midnightblue" points="181.2,-1585.16 191.79,-1585.56 183.76,-1578.65 181.2,-1585.16"/>
</g>
<!-- Node24&#45;&gt;Node5 -->
<g id="edge13" class="edge">
<title>Node24&#45;&gt;Node5</title>
<path fill="none" stroke="midnightblue" d="M376.86,-1325.31C360.44,-1328.15 342.57,-1330.97 326,-1333 259.99,-1341.1 184.07,-1346.18 131.57,-1349.02"/>
<polygon fill="midnightblue" stroke="midnightblue" points="377.63,-1328.73 386.87,-1323.54 376.41,-1321.83 377.63,-1328.73"/>
</g>
<!-- Node25 -->
<g id="node14" class="node">
<title>Node25</title>
<g id="a_node14"><a xlink:href="group__as__iic__helpers.html#gaa8ce9ac10b8c2ca9b614110ca5cbeff5" target="_top" xlink:title=" ">
<polygon fill="none" stroke="red" points="168,-1304.5 168,-1323.5 326,-1323.5 326,-1304.5 168,-1304.5"/>
<text text-anchor="middle" x="247" y="-1311.5" font-family="Helvetica,sans-Serif" font-size="10.00">as_iic_stop_read_transaction</text>
</a>
</g>
</g>
<!-- Node24&#45;&gt;Node25 -->
<g id="edge14" class="edge">
<title>Node24&#45;&gt;Node25</title>
<path fill="none" stroke="midnightblue" d="M373.19,-1314C358.15,-1314 341.91,-1314 326.27,-1314"/>
<polygon fill="midnightblue" stroke="midnightblue" points="373.38,-1317.5 383.38,-1314 373.38,-1310.5 373.38,-1317.5"/>
</g>
<!-- Node35 -->
<g id="node17" class="node">
<title>Node35</title>
<g id="a_node17"><a xlink:href="group__as__iic__bitchecks.html#gaa4e8718c748b5a7e956a38ffd6dbe15d" target="_top" xlink:title=" ">
<polygon fill="none" stroke="red" points="190,-1266.5 190,-1285.5 304,-1285.5 304,-1266.5 190,-1266.5"/>
<text text-anchor="middle" x="247" y="-1273.5" font-family="Helvetica,sans-Serif" font-size="10.00">as_iic_ack_received</text>
</a>
</g>
</g>
<!-- Node34&#45;&gt;Node35 -->
<g id="edge17" class="edge">
<title>Node34&#45;&gt;Node35</title>
<path fill="none" stroke="midnightblue" d="M378.56,-1249.61C351.83,-1255.01 320.41,-1261.36 295.1,-1266.48"/>
<polygon fill="midnightblue" stroke="midnightblue" points="379.45,-1253 388.56,-1247.59 378.06,-1246.14 379.45,-1253"/>
</g>
<!-- Node41 -->
<g id="node19" class="node">
<title>Node41</title>
<g id="a_node19"><a xlink:href="group__as__iic__bitchecks.html#gacddb2a75c1c325afe2ec4d25a60e27ba" target="_top" xlink:title=" ">
<polygon fill="none" stroke="black" points="200.5,-1228.5 200.5,-1247.5 293.5,-1247.5 293.5,-1228.5 200.5,-1228.5"/>
<text text-anchor="middle" x="247" y="-1235.5" font-family="Helvetica,sans-Serif" font-size="10.00">as_iic_is_active</text>
</a>
</g>
</g>
<!-- Node34&#45;&gt;Node41 -->
<g id="edge20" class="edge">
<title>Node34&#45;&gt;Node41</title>
<path fill="none" stroke="midnightblue" d="M365.83,-1238C341.73,-1238 315.39,-1238 293.74,-1238"/>
<polygon fill="midnightblue" stroke="midnightblue" points="366,-1241.5 376,-1238 366,-1234.5 366,-1241.5"/>
</g>
<!-- Node42 -->
<g id="node20" class="node">
<title>Node42</title>
<g id="a_node20"><a xlink:href="group__as__iic__bitchecks.html#ga031fa9683d4d6a0a68e65917d5a0610a" target="_top" xlink:title=" ">
<polygon fill="none" stroke="red" points="194.5,-1190.5 194.5,-1209.5 299.5,-1209.5 299.5,-1190.5 194.5,-1190.5"/>
<text text-anchor="middle" x="247" y="-1197.5" font-family="Helvetica,sans-Serif" font-size="10.00">as_iic_is_io_ready</text>
</a>
</g>
</g>
<!-- Node34&#45;&gt;Node42 -->
<g id="edge21" class="edge">
<title>Node34&#45;&gt;Node42</title>
<path fill="none" stroke="midnightblue" d="M378.56,-1226.39C351.83,-1220.99 320.41,-1214.64 295.1,-1209.52"/>
<polygon fill="midnightblue" stroke="midnightblue" points="378.06,-1229.86 388.56,-1228.41 379.45,-1223 378.06,-1229.86"/>
</g>
<!-- Node44 -->
<g id="node21" class="node">
<title>Node44</title>
<g id="a_node21"><a xlink:href="group__as__iic__user.html#gacdb0c71d0fcfe5e50a7f7316762cd0c0" target="_top" xlink:title=" ">
<polygon fill="none" stroke="red" points="201.5,-1152.5 201.5,-1171.5 292.5,-1171.5 292.5,-1152.5 201.5,-1152.5"/>
<text text-anchor="middle" x="247" y="-1159.5" font-family="Helvetica,sans-Serif" font-size="10.00">as_iic_is_ready</text>
</a>
</g>
</g>
<!-- Node34&#45;&gt;Node44 -->
<g id="edge22" class="edge">
<title>Node34&#45;&gt;Node44</title>
<path fill="none" stroke="midnightblue" d="M386.15,-1225.09C377.82,-1222.03 369.46,-1218.35 362,-1214 343.25,-1203.07 345.15,-1191.22 326,-1181 315.8,-1175.55 304.01,-1171.64 292.74,-1168.84"/>
<polygon fill="midnightblue" stroke="midnightblue" points="385.28,-1228.49 395.87,-1228.41 387.54,-1221.87 385.28,-1228.49"/>
</g>
<!-- Node47 -->
<g id="node22" class="node">
<title>Node47</title>
<g id="a_node22"><a xlink:href="group__as__iic__bitchecks.html#gad7ffbce42c3f192281052fced93b7ee7" target="_top" xlink:title=" ">
<polygon fill="none" stroke="black" points="199,-1114.5 199,-1133.5 295,-1133.5 295,-1114.5 199,-1114.5"/>
<text text-anchor="middle" x="247" y="-1121.5" font-family="Helvetica,sans-Serif" font-size="10.00">as_iic_is_stalled</text>
</a>
</g>
</g>
<!-- Node34&#45;&gt;Node47 -->
<g id="edge24" class="edge">
<title>Node34&#45;&gt;Node47</title>
<path fill="none" stroke="midnightblue" d="M378.31,-1224.43C372.43,-1221.58 366.85,-1218.15 362,-1214 335.11,-1191 353.73,-1164.98 326,-1143 317.15,-1135.99 306.1,-1131.51 295.11,-1128.67"/>
<polygon fill="midnightblue" stroke="midnightblue" points="377.15,-1227.74 387.72,-1228.42 379.88,-1221.29 377.15,-1227.74"/>
</g>
<!-- Node48 -->
<g id="node23" class="node">
<title>Node48</title>
<g id="a_node23"><a xlink:href="group__as__iic__bitchecks.html#ga4629e4514c3531d0bcd44ae20abc6bad" target="_top" xlink:title=" ">
<polygon fill="none" stroke="red" points="197.5,-1076.5 197.5,-1095.5 296.5,-1095.5 296.5,-1076.5 197.5,-1076.5"/>
<text text-anchor="middle" x="247" y="-1083.5" font-family="Helvetica,sans-Serif" font-size="10.00">as_iic_is_waiting</text>
</a>
</g>
</g>
<!-- Node34&#45;&gt;Node48 -->
<g id="edge25" class="edge">
<title>Node34&#45;&gt;Node48</title>
<path fill="none" stroke="midnightblue" d="M375.48,-1223.96C370.55,-1221.21 365.95,-1217.93 362,-1214 325.83,-1178.02 363.49,-1139.6 326,-1105 317.91,-1097.53 307.38,-1092.86 296.7,-1089.98"/>
<polygon fill="midnightblue" stroke="midnightblue" points="374.13,-1227.2 384.66,-1228.35 377.15,-1220.88 374.13,-1227.2"/>
</g>
<!-- Node35&#45;&gt;Node5 -->
<g id="edge18" class="edge">
<title>Node35&#45;&gt;Node5</title>
<path fill="none" stroke="midnightblue" d="M187.96,-1288.25C181.14,-1290.24 174.36,-1292.49 168,-1295 135.23,-1307.95 100.07,-1329.83 81.09,-1342.38"/>
<polygon fill="midnightblue" stroke="midnightblue" points="189.2,-1291.54 197.92,-1285.51 187.35,-1284.79 189.2,-1291.54"/>
</g>
<!-- Node36 -->
<g id="node18" class="node">
<title>Node36</title>
<g id="a_node18"><a xlink:href="group__as__iic__helpers.html#ga53e6050a2c66be89ac23084fd9de9c23" target="_top" xlink:title=" ">
<polygon fill="none" stroke="red" points="0,-1152.5 0,-1171.5 132,-1171.5 132,-1152.5 0,-1152.5"/>
<text text-anchor="middle" x="66" y="-1159.5" font-family="Helvetica,sans-Serif" font-size="10.00">as_iic_start_transaction</text>
</a>
</g>
</g>
<!-- Node35&#45;&gt;Node36 -->
<g id="edge19" class="edge">
<title>Node35&#45;&gt;Node36</title>
<path fill="none" stroke="midnightblue" d="M181.34,-1263.08C176.72,-1261.3 172.22,-1259.29 168,-1257 126.52,-1234.51 89.35,-1190.77 74.21,-1171.5"/>
<polygon fill="midnightblue" stroke="midnightblue" points="180.36,-1266.44 190.95,-1266.4 182.64,-1259.83 180.36,-1266.44"/>
</g>
<!-- Node44&#45;&gt;Node36 -->
<g id="edge23" class="edge">
<title>Node44&#45;&gt;Node36</title>
<path fill="none" stroke="midnightblue" d="M191.19,-1162C172.52,-1162 151.47,-1162 132.07,-1162"/>
<polygon fill="midnightblue" stroke="midnightblue" points="191.29,-1165.5 201.29,-1162 191.29,-1158.5 191.29,-1165.5"/>
</g>
<!-- Node50&#45;&gt;Node36 -->
<g id="edge27" class="edge">
<title>Node50&#45;&gt;Node36</title>
<path fill="none" stroke="midnightblue" d="M183.58,-1060.08C178.17,-1062.05 172.9,-1064.34 168,-1067 126.52,-1089.49 89.35,-1133.23 74.21,-1152.5"/>
<polygon fill="midnightblue" stroke="midnightblue" points="185.01,-1063.3 193.42,-1056.86 182.83,-1056.64 185.01,-1063.3"/>
</g>
</g>
</svg>
