<?xml version="1.0" encoding="UTF-8" standalone="no"?>
<!DOCTYPE svg PUBLIC "-//W3C//DTD SVG 1.1//EN"
 "http://www.w3.org/Graphics/SVG/1.1/DTD/svg11.dtd">
<!-- Generated by graphviz version 2.43.0 (0)
 -->
<!-- Title: driver_as_mmap_write Pages: 1 -->
<svg width="1113pt" height="668pt"
 viewBox="0.00 0.00 1113.00 668.00" xmlns="http://www.w3.org/2000/svg" xmlns:xlink="http://www.w3.org/1999/xlink">
<g id="graph0" class="graph" transform="scale(1 1) rotate(0) translate(4 664)">
<title>driver_as_mmap_write</title>
<!-- Node1 -->
<g id="node1" class="node">
<title>Node1</title>
<g id="a_node1"><a xlink:title=" ">
<polygon fill="#bfbfbf" stroke="black" points="0,-406 0,-425 128,-425 128,-406 0,-406"/>
<text text-anchor="middle" x="64" y="-413" font-family="Helvetica,sans-Serif" font-size="10.00">driver_as_mmap_write</text>
</a>
</g>
</g>
<!-- Node2 -->
<g id="node2" class="node">
<title>Node2</title>
<g id="a_node2"><a xlink:href="group__as__buffer.html#ga4be2b60d2ac888f473e52f39c9492368" target="_top" xlink:title=" ">
<polygon fill="none" stroke="black" points="370,-540 370,-559 501,-559 501,-540 370,-540"/>
<text text-anchor="middle" x="435.5" y="-547" font-family="Helvetica,sans-Serif" font-size="10.00">as_buffer_update_state</text>
</a>
</g>
</g>
<!-- Node1&#45;&gt;Node2 -->
<g id="edge1" class="edge">
<title>Node1&#45;&gt;Node2</title>
<path fill="none" stroke="midnightblue" d="M79.18,-425.16C97.9,-437.56 132.21,-459.07 164,-472.5 169.34,-474.76 315.71,-516.07 390.86,-537.23"/>
<polygon fill="midnightblue" stroke="midnightblue" points="389.96,-540.61 400.54,-539.95 391.86,-533.87 389.96,-540.61"/>
</g>
<!-- Node12 -->
<g id="node12" class="node">
<title>Node12</title>
<g id="a_node12"><a xlink:href="group__mmap__file__ops.html#ga93a1477871ee8b3e8071b60442a0ceb3" target="_top" xlink:title=" ">
<polygon fill="none" stroke="black" points="181,-343 181,-362 317,-362 317,-343 181,-343"/>
<text text-anchor="middle" x="249" y="-350" font-family="Helvetica,sans-Serif" font-size="10.00">as_mmap_start_transfer</text>
</a>
</g>
</g>
<!-- Node1&#45;&gt;Node12 -->
<g id="edge15" class="edge">
<title>Node1&#45;&gt;Node12</title>
<path fill="none" stroke="midnightblue" d="M92.79,-405.93C124.19,-395.12 175.45,-377.48 210.41,-365.44"/>
<polygon fill="midnightblue" stroke="midnightblue" points="211.93,-368.62 220.25,-362.05 209.65,-362 211.93,-368.62"/>
</g>
<!-- Node28 -->
<g id="node28" class="node">
<title>Node28</title>
<g id="a_node28"><a xlink:href="group__mmap__file__ops.html#gac0196baed6a0a2e62c8c9c3aa2680af4" target="_top" xlink:title=" ">
<polygon fill="none" stroke="black" points="164,-531 164,-550 334,-550 334,-531 164,-531"/>
<text text-anchor="middle" x="249" y="-538" font-family="Helvetica,sans-Serif" font-size="10.00">as_mmap_wait_for_completion</text>
</a>
</g>
</g>
<!-- Node1&#45;&gt;Node28 -->
<g id="edge51" class="edge">
<title>Node1&#45;&gt;Node28</title>
<path fill="none" stroke="midnightblue" d="M72.04,-425.21C86.85,-444.93 123.21,-489.89 164,-514.5 173.01,-519.94 183.27,-524.33 193.44,-527.85"/>
<polygon fill="midnightblue" stroke="midnightblue" points="192.53,-531.24 203.12,-530.96 194.67,-524.57 192.53,-531.24"/>
</g>
<!-- Node29 -->
<g id="node29" class="node">
<title>Node29</title>
<g id="a_node29"><a xlink:href="group__asterics__support.html#gad294e0c5530bd6fb800a2394179070e1" target="_top" xlink:title=" ">
<polygon fill="none" stroke="black" points="204,-305 204,-324 294,-324 294,-305 204,-305"/>
<text text-anchor="middle" x="249" y="-312" font-family="Helvetica,sans-Serif" font-size="10.00">as_mutex_lock</text>
</a>
</g>
</g>
<!-- Node1&#45;&gt;Node29 -->
<g id="edge53" class="edge">
<title>Node1&#45;&gt;Node29</title>
<path fill="none" stroke="midnightblue" d="M73.51,-405.96C89.47,-388.7 125.75,-352.31 164,-333.5 173.35,-328.9 183.84,-325.4 194.16,-322.73"/>
<polygon fill="midnightblue" stroke="midnightblue" points="195.01,-326.13 203.95,-320.43 193.41,-319.31 195.01,-326.13"/>
</g>
<!-- Node30 -->
<g id="node30" class="node">
<title>Node30</title>
<g id="a_node30"><a xlink:href="group__asterics__support.html#ga07e09e825f2608339f6213edb9d0c8b3" target="_top" xlink:title=" ">
<polygon fill="none" stroke="black" points="198,-267 198,-286 300,-286 300,-267 198,-267"/>
<text text-anchor="middle" x="249" y="-274" font-family="Helvetica,sans-Serif" font-size="10.00">as_mutex_unlock</text>
</a>
</g>
</g>
<!-- Node1&#45;&gt;Node30 -->
<g id="edge54" class="edge">
<title>Node1&#45;&gt;Node30</title>
<path fill="none" stroke="midnightblue" d="M69.97,-405.89C82.42,-382.86 117.31,-324.24 164,-295.5 171.32,-290.99 179.59,-287.55 188.02,-284.93"/>
<polygon fill="midnightblue" stroke="midnightblue" points="189.21,-288.23 197.93,-282.2 187.36,-281.48 189.21,-288.23"/>
</g>
<!-- Node31 -->
<g id="node31" class="node">
<title>Node31</title>
<g id="a_node31"><a xlink:href="group__as__reader__writer.html#gab3f2465225201507d51787478ac5955a" target="_top" xlink:title="Checks if another operation is queued.">
<polygon fill="none" stroke="black" points="554,-448.5 554,-478.5 666,-478.5 666,-448.5 554,-448.5"/>
<text text-anchor="start" x="562" y="-466.5" font-family="Helvetica,sans-Serif" font-size="10.00">as_reader_writer_is</text>
<text text-anchor="middle" x="610" y="-455.5" font-family="Helvetica,sans-Serif" font-size="10.00">_pending_go</text>
</a>
</g>
</g>
<!-- Node1&#45;&gt;Node31 -->
<g id="edge55" class="edge">
<title>Node1&#45;&gt;Node31</title>
<path fill="none" stroke="midnightblue" d="M128.2,-421.08C232.11,-430.25 438.02,-448.41 543.45,-457.72"/>
<polygon fill="midnightblue" stroke="midnightblue" points="543.37,-461.22 553.64,-458.61 543.98,-454.25 543.37,-461.22"/>
</g>
<!-- Node3 -->
<g id="node3" class="node">
<title>Node3</title>
<g id="a_node3"><a xlink:href="group__as__reader__writer.html#gaaea10b48e35a224a5870cd3322ffbec2" target="_top" xlink:title="Returns the next address on which the hardware will perform a write operation.">
<polygon fill="none" stroke="black" points="550.5,-536.5 550.5,-566.5 669.5,-566.5 669.5,-536.5 550.5,-536.5"/>
<text text-anchor="start" x="558.5" y="-554.5" font-family="Helvetica,sans-Serif" font-size="10.00">as_reader_writer_get</text>
<text text-anchor="middle" x="610" y="-543.5" font-family="Helvetica,sans-Serif" font-size="10.00">_cur_hw_addr</text>
</a>
</g>
</g>
<!-- Node2&#45;&gt;Node3 -->
<g id="edge2" class="edge">
<title>Node2&#45;&gt;Node3</title>
<path fill="none" stroke="midnightblue" d="M501.22,-550.25C513.97,-550.4 527.39,-550.55 540.27,-550.7"/>
<polygon fill="midnightblue" stroke="midnightblue" points="540.41,-554.2 550.45,-550.82 540.49,-547.21 540.41,-554.2"/>
</g>
<!-- Node7 -->
<g id="node7" class="node">
<title>Node7</title>
<g id="a_node7"><a xlink:href="group__as__reader__writer.html#ga0e0a5b7e0dd6a14cb0f4251d00a783e8" target="_top" xlink:title="Checks if module is busy.">
<polygon fill="none" stroke="black" points="540,-498 540,-517 680,-517 680,-498 540,-498"/>
<text text-anchor="middle" x="610" y="-505" font-family="Helvetica,sans-Serif" font-size="10.00">as_reader_writer_is_busy</text>
</a>
</g>
</g>
<!-- Node2&#45;&gt;Node7 -->
<g id="edge6" class="edge">
<title>Node2&#45;&gt;Node7</title>
<path fill="none" stroke="midnightblue" d="M475.64,-539.97C500.59,-533.9 533.12,-525.98 559.8,-519.48"/>
<polygon fill="midnightblue" stroke="midnightblue" points="560.83,-522.83 569.71,-517.07 559.17,-516.03 560.83,-522.83"/>
</g>
<!-- Node9 -->
<g id="node9" class="node">
<title>Node9</title>
<g id="a_node9"><a xlink:href="as__cache_8c.html#ae76087a19400fcaebb8397a8a1ee828b" target="_top" xlink:title="Unmap DMA address at end of transfer.">
<polygon fill="none" stroke="black" points="559.5,-635 559.5,-654 660.5,-654 660.5,-635 559.5,-635"/>
<text text-anchor="middle" x="610" y="-642" font-family="Helvetica,sans-Serif" font-size="10.00">as_unmap_single</text>
</a>
</g>
</g>
<!-- Node2&#45;&gt;Node9 -->
<g id="edge10" class="edge">
<title>Node2&#45;&gt;Node9</title>
<path fill="none" stroke="midnightblue" d="M446.5,-559C463.67,-574.82 500.45,-606.57 537,-624.5 542.66,-627.27 548.76,-629.72 554.93,-631.85"/>
<polygon fill="midnightblue" stroke="midnightblue" points="554.05,-635.24 564.64,-634.96 556.18,-628.58 554.05,-635.24"/>
</g>
<!-- Node11 -->
<g id="node11" class="node">
<title>Node11</title>
<g id="a_node11"><a xlink:href="group__as__reader__writer.html#ga1ed314dbb9e93fbcbab70d4db197e3b6" target="_top" xlink:title="Returns the first address after the last successfully written unit.">
<polygon fill="none" stroke="black" points="537,-585.5 537,-615.5 683,-615.5 683,-585.5 537,-585.5"/>
<text text-anchor="start" x="545" y="-603.5" font-family="Helvetica,sans-Serif" font-size="10.00">as_writer_get_last</text>
<text text-anchor="middle" x="610" y="-592.5" font-family="Helvetica,sans-Serif" font-size="10.00">_data_unit_complete_addr</text>
</a>
</g>
</g>
<!-- Node2&#45;&gt;Node11 -->
<g id="edge12" class="edge">
<title>Node2&#45;&gt;Node11</title>
<path fill="none" stroke="midnightblue" d="M468.95,-559.09C491.28,-565.7 521.64,-574.67 548.38,-582.58"/>
<polygon fill="midnightblue" stroke="midnightblue" points="547.47,-585.96 558.05,-585.44 549.45,-579.24 547.47,-585.96"/>
</g>
<!-- Node4 -->
<g id="node4" class="node">
<title>Node4</title>
<g id="a_node4"><a xlink:href="group__asterics__support.html#gaa7520f5b717e163da743500adb2eb0b9" target="_top" xlink:title=" ">
<polygon fill="none" stroke="black" points="734.5,-322 734.5,-341 825.5,-341 825.5,-322 734.5,-322"/>
<text text-anchor="middle" x="780" y="-329" font-family="Helvetica,sans-Serif" font-size="10.00">as_module_reg</text>
</a>
</g>
</g>
<!-- Node3&#45;&gt;Node4 -->
<g id="edge3" class="edge">
<title>Node3&#45;&gt;Node4</title>
<path fill="none" stroke="midnightblue" d="M669.79,-537.26C674.72,-534.32 679.24,-530.77 683,-526.5 734.84,-467.5 667.67,-412.94 719,-353.5 721.36,-350.77 724.08,-348.38 727.04,-346.29"/>
<polygon fill="midnightblue" stroke="midnightblue" points="729.01,-349.19 735.9,-341.14 725.5,-343.14 729.01,-349.19"/>
</g>
<!-- Node5 -->
<g id="node5" class="node">
<title>Node5</title>
<g id="a_node5"><a xlink:href="group__asterics__support.html#ga8e5c2bfd2e4498d10289377bd94cef07" target="_top" xlink:title=" ">
<polygon fill="none" stroke="black" points="878.5,-518 878.5,-537 954.5,-537 954.5,-518 878.5,-518"/>
<text text-anchor="middle" x="916.5" y="-525" font-family="Helvetica,sans-Serif" font-size="10.00">as_reg_read</text>
</a>
</g>
</g>
<!-- Node3&#45;&gt;Node5 -->
<g id="edge4" class="edge">
<title>Node3&#45;&gt;Node5</title>
<path fill="none" stroke="midnightblue" d="M669.71,-546.87C727.39,-542.33 814.31,-535.48 867.84,-531.26"/>
<polygon fill="midnightblue" stroke="midnightblue" points="868.39,-534.72 878.09,-530.45 867.84,-527.75 868.39,-534.72"/>
</g>
<!-- Node6 -->
<g id="node6" class="node">
<title>Node6</title>
<g id="a_node6"><a xlink:href="group__asterics__support.html#ga4c6d688b840a6e2edc9bc0b8ed961677" target="_top" xlink:title=" ">
<polygon fill="none" stroke="black" points="998.5,-518 998.5,-537 1098.5,-537 1098.5,-518 998.5,-518"/>
<text text-anchor="middle" x="1048.5" y="-525" font-family="Helvetica,sans-Serif" font-size="10.00">as_reg_to_uint32</text>
</a>
</g>
</g>
<!-- Node5&#45;&gt;Node6 -->
<g id="edge5" class="edge">
<title>Node5&#45;&gt;Node6</title>
<path fill="none" stroke="midnightblue" d="M954.75,-527.5C965.09,-527.5 976.59,-527.5 987.86,-527.5"/>
<polygon fill="midnightblue" stroke="midnightblue" points="988.12,-531 998.12,-527.5 988.12,-524 988.12,-531"/>
</g>
<!-- Node7&#45;&gt;Node4 -->
<g id="edge7" class="edge">
<title>Node7&#45;&gt;Node4</title>
<path fill="none" stroke="midnightblue" d="M668.03,-497.93C673.56,-495.24 678.71,-491.83 683,-487.5 726.42,-443.71 677.38,-399 719,-353.5 721.59,-350.67 724.57,-348.21 727.79,-346.06"/>
<polygon fill="midnightblue" stroke="midnightblue" points="729.72,-348.99 736.77,-341.08 726.33,-342.87 729.72,-348.99"/>
</g>
<!-- Node8 -->
<g id="node8" class="node">
<title>Node8</title>
<g id="a_node8"><a xlink:href="group__asterics__support.html#ga36a2ed59c59831bee59daaae3cb6cb35" target="_top" xlink:title=" ">
<polygon fill="none" stroke="black" points="720.5,-498 720.5,-517 839.5,-517 839.5,-498 720.5,-498"/>
<text text-anchor="middle" x="780" y="-505" font-family="Helvetica,sans-Serif" font-size="10.00">as_reg_read_masked</text>
</a>
</g>
</g>
<!-- Node7&#45;&gt;Node8 -->
<g id="edge8" class="edge">
<title>Node7&#45;&gt;Node8</title>
<path fill="none" stroke="midnightblue" d="M680.3,-507.5C690.16,-507.5 700.3,-507.5 710.16,-507.5"/>
<polygon fill="midnightblue" stroke="midnightblue" points="710.3,-511 720.3,-507.5 710.3,-504 710.3,-511"/>
</g>
<!-- Node8&#45;&gt;Node5 -->
<g id="edge9" class="edge">
<title>Node8&#45;&gt;Node5</title>
<path fill="none" stroke="midnightblue" d="M839.6,-516.21C849.17,-517.64 858.97,-519.09 868.22,-520.47"/>
<polygon fill="midnightblue" stroke="midnightblue" points="867.98,-523.97 878.39,-521.98 869.01,-517.05 867.98,-523.97"/>
</g>
<!-- Node10 -->
<g id="node10" class="node">
<title>Node10</title>
<g id="a_node10"><a xlink:href="group__asterics__support.html#ga85ce164597e47f4aaee22c873e899d4b" target="_top" xlink:title=" ">
<polygon fill="none" stroke="black" points="719,-629.5 719,-659.5 841,-659.5 841,-629.5 719,-629.5"/>
<text text-anchor="start" x="727" y="-647.5" font-family="Helvetica,sans-Serif" font-size="10.00">as_dcache_invalidate</text>
<text text-anchor="middle" x="780" y="-636.5" font-family="Helvetica,sans-Serif" font-size="10.00">_range</text>
</a>
</g>
</g>
<!-- Node9&#45;&gt;Node10 -->
<g id="edge11" class="edge">
<title>Node9&#45;&gt;Node10</title>
<path fill="none" stroke="midnightblue" d="M660.95,-644.5C675.87,-644.5 692.51,-644.5 708.48,-644.5"/>
<polygon fill="midnightblue" stroke="midnightblue" points="708.86,-648 718.86,-644.5 708.86,-641 708.86,-648"/>
</g>
<!-- Node11&#45;&gt;Node4 -->
<g id="edge13" class="edge">
<title>Node11&#45;&gt;Node4</title>
<path fill="none" stroke="midnightblue" d="M671.68,-585.36C675.91,-582.61 679.77,-579.35 683,-575.5 747.29,-498.96 655.37,-430.59 719,-353.5 721.26,-350.76 723.89,-348.37 726.76,-346.27"/>
<polygon fill="midnightblue" stroke="midnightblue" points="728.61,-349.25 735.4,-341.11 725.02,-343.24 728.61,-349.25"/>
</g>
<!-- Node11&#45;&gt;Node5 -->
<g id="edge14" class="edge">
<title>Node11&#45;&gt;Node5</title>
<path fill="none" stroke="midnightblue" d="M683,-587.74C728.6,-579.1 788.64,-566.7 841,-552.5 853.76,-549.04 867.53,-544.62 879.72,-540.46"/>
<polygon fill="midnightblue" stroke="midnightblue" points="881.23,-543.64 889.53,-537.05 878.93,-537.03 881.23,-543.64"/>
</g>
<!-- Node13 -->
<g id="node13" class="node">
<title>Node13</title>
<g id="a_node13"><a xlink:href="as__cache_8c.html#a82dda14c005c5bd0028e5f25fad2923c" target="_top" xlink:title="Map virtual kernel address for DMA.">
<polygon fill="none" stroke="black" points="391,-284 391,-303 480,-303 480,-284 391,-284"/>
<text text-anchor="middle" x="435.5" y="-291" font-family="Helvetica,sans-Serif" font-size="10.00">as_map_single</text>
</a>
</g>
</g>
<!-- Node12&#45;&gt;Node13 -->
<g id="edge16" class="edge">
<title>Node12&#45;&gt;Node13</title>
<path fill="none" stroke="midnightblue" d="M298.8,-342.96C310.44,-340.27 322.75,-337.09 334,-333.5 350.51,-328.24 353.92,-324.97 370,-318.5 379.69,-314.6 390.25,-310.47 399.96,-306.7"/>
<polygon fill="midnightblue" stroke="midnightblue" points="401.26,-309.96 409.33,-303.09 398.74,-303.43 401.26,-309.96"/>
</g>
<!-- Node15 -->
<g id="node15" class="node">
<title>Node15</title>
<g id="a_node15"><a xlink:href="group__as__reader__writer.html#ga5c0bd52e53c8e68de80b1712c12d9a4a" target="_top" xlink:title="Initializes the hardware module with values provided by config.">
<polygon fill="none" stroke="black" points="376,-153 376,-172 495,-172 495,-153 376,-153"/>
<text text-anchor="middle" x="435.5" y="-160" font-family="Helvetica,sans-Serif" font-size="10.00">as_reader_writer_init</text>
</a>
</g>
</g>
<!-- Node12&#45;&gt;Node15 -->
<g id="edge18" class="edge">
<title>Node12&#45;&gt;Node15</title>
<path fill="none" stroke="midnightblue" d="M317.03,-344.34C323.24,-341.6 329.05,-338.06 334,-333.5 373.1,-297.53 341.04,-264.05 370,-219.5 380.69,-203.06 397.37,-188.49 411.09,-178.2"/>
<polygon fill="midnightblue" stroke="midnightblue" points="413.52,-180.76 419.59,-172.08 409.43,-175.08 413.52,-180.76"/>
</g>
<!-- Node21 -->
<g id="node21" class="node">
<title>Node21</title>
<g id="a_node21"><a xlink:href="group__as__reader__writer.html#ga43d2f73d7d42dd5704160d4ddacfaa1e" target="_top" xlink:title="Sets the start address of the first section to the given value.">
<polygon fill="none" stroke="black" points="550.5,-0.5 550.5,-30.5 669.5,-30.5 669.5,-0.5 550.5,-0.5"/>
<text text-anchor="start" x="558.5" y="-18.5" font-family="Helvetica,sans-Serif" font-size="10.00">as_reader_writer_set</text>
<text text-anchor="middle" x="610" y="-7.5" font-family="Helvetica,sans-Serif" font-size="10.00">_section_addr</text>
</a>
</g>
</g>
<!-- Node12&#45;&gt;Node21 -->
<g id="edge43" class="edge">
<title>Node12&#45;&gt;Node21</title>
<path fill="none" stroke="midnightblue" d="M317.19,-345.11C323.45,-342.23 329.22,-338.45 334,-333.5 393.69,-271.67 321.43,-214.41 370,-143.5 409.9,-85.25 485.09,-51.32 540.52,-33.2"/>
<polygon fill="midnightblue" stroke="midnightblue" points="541.8,-36.47 550.28,-30.11 539.69,-29.8 541.8,-36.47"/>
</g>
<!-- Node24 -->
<g id="node24" class="node">
<title>Node24</title>
<g id="a_node24"><a xlink:href="group__as__reader__writer.html#ga06436c5cb6a63439f2e4b7c14c71fb83" target="_top" xlink:title="Sets the size of a single section in bytes.">
<polygon fill="none" stroke="black" points="550.5,-196.5 550.5,-226.5 669.5,-226.5 669.5,-196.5 550.5,-196.5"/>
<text text-anchor="start" x="558.5" y="-214.5" font-family="Helvetica,sans-Serif" font-size="10.00">as_reader_writer_set</text>
<text text-anchor="middle" x="610" y="-203.5" font-family="Helvetica,sans-Serif" font-size="10.00">_section_size</text>
</a>
</g>
</g>
<!-- Node12&#45;&gt;Node24 -->
<g id="edge44" class="edge">
<title>Node12&#45;&gt;Node24</title>
<path fill="none" stroke="midnightblue" d="M316.41,-342.88C322.67,-340.42 328.66,-337.34 334,-333.5 358.95,-315.58 345.37,-292.85 370,-274.5 419.6,-237.55 489.11,-222.23 540.39,-215.91"/>
<polygon fill="midnightblue" stroke="midnightblue" points="540.86,-219.38 550.39,-214.76 540.06,-212.42 540.86,-219.38"/>
</g>
<!-- Node25 -->
<g id="node25" class="node">
<title>Node25</title>
<g id="a_node25"><a xlink:href="group__as__reader__writer.html#ga38bb160b6e30eb5fce6df2e4b4894fad" target="_top" xlink:title="Starts operation of hardware module.">
<polygon fill="none" stroke="black" points="542,-322 542,-341 678,-341 678,-322 542,-322"/>
<text text-anchor="middle" x="610" y="-329" font-family="Helvetica,sans-Serif" font-size="10.00">as_reader_writer_set_go</text>
</a>
</g>
</g>
<!-- Node12&#45;&gt;Node25 -->
<g id="edge40" class="edge">
<title>Node12&#45;&gt;Node25</title>
<path fill="none" stroke="midnightblue" d="M317.1,-348.57C378.07,-345.01 467.99,-339.75 531.9,-336.01"/>
<polygon fill="midnightblue" stroke="midnightblue" points="532.14,-339.5 541.92,-335.42 531.73,-332.51 532.14,-339.5"/>
</g>
<!-- Node26 -->
<g id="node26" class="node">
<title>Node26</title>
<g id="a_node26"><a xlink:href="group__as__reader__writer.html#ga2c3650318b12edaf3f4473fed557cc74" target="_top" xlink:title="Disable module if no operation is queued.">
<polygon fill="none" stroke="black" points="549,-360.5 549,-390.5 671,-390.5 671,-360.5 549,-360.5"/>
<text text-anchor="start" x="557" y="-378.5" font-family="Helvetica,sans-Serif" font-size="10.00">as_writer_set_disable</text>
<text text-anchor="middle" x="610" y="-367.5" font-family="Helvetica,sans-Serif" font-size="10.00">_on_no_go</text>
</a>
</g>
</g>
<!-- Node12&#45;&gt;Node26 -->
<g id="edge45" class="edge">
<title>Node12&#45;&gt;Node26</title>
<path fill="none" stroke="midnightblue" d="M317.1,-356.8C380.29,-360.85 474.57,-366.89 538.76,-371"/>
<polygon fill="midnightblue" stroke="midnightblue" points="538.59,-374.5 548.79,-371.64 539.04,-367.51 538.59,-374.5"/>
</g>
<!-- Node27 -->
<g id="node27" class="node">
<title>Node27</title>
<g id="a_node27"><a xlink:href="group__as__reader__writer.html#ga1ef22dbd33d87de51113837dd9123c6f" target="_top" xlink:title="Enable module input port.">
<polygon fill="none" stroke="black" points="550,-410 550,-429 670,-429 670,-410 550,-410"/>
<text text-anchor="middle" x="610" y="-417" font-family="Helvetica,sans-Serif" font-size="10.00">as_writer_set_enable</text>
</a>
</g>
</g>
<!-- Node12&#45;&gt;Node27 -->
<g id="edge48" class="edge">
<title>Node12&#45;&gt;Node27</title>
<path fill="none" stroke="midnightblue" d="M291.84,-362.03C314.85,-367.16 343.95,-373.45 370,-378.5 427.1,-389.58 492.19,-400.64 540.01,-408.48"/>
<polygon fill="midnightblue" stroke="midnightblue" points="539.51,-411.94 549.94,-410.1 540.63,-405.04 539.51,-411.94"/>
</g>
<!-- Node14 -->
<g id="node14" class="node">
<title>Node14</title>
<g id="a_node14"><a xlink:href="group__asterics__support.html#ga488e796d469c62267d9547fd11f8d764" target="_top" xlink:title=" ">
<polygon fill="none" stroke="black" points="545,-284 545,-303 675,-303 675,-284 545,-284"/>
<text text-anchor="middle" x="610" y="-291" font-family="Helvetica,sans-Serif" font-size="10.00">as_dcache_flush_range</text>
</a>
</g>
</g>
<!-- Node13&#45;&gt;Node14 -->
<g id="edge17" class="edge">
<title>Node13&#45;&gt;Node14</title>
<path fill="none" stroke="midnightblue" d="M480.03,-293.5C496.7,-293.5 516.21,-293.5 534.94,-293.5"/>
<polygon fill="midnightblue" stroke="midnightblue" points="534.94,-297 544.94,-293.5 534.94,-290 534.94,-297"/>
</g>
<!-- Node16 -->
<g id="node16" class="node">
<title>Node16</title>
<g id="a_node16"><a xlink:href="group__as__reader__writer.html#ga89e42a53f0db5cf22c8583c8e0c8a074" target="_top" xlink:title="Resets the hardware module.">
<polygon fill="none" stroke="black" points="546,-246 546,-265 674,-265 674,-246 546,-246"/>
<text text-anchor="middle" x="610" y="-253" font-family="Helvetica,sans-Serif" font-size="10.00">as_reader_writer_reset</text>
</a>
</g>
</g>
<!-- Node15&#45;&gt;Node16 -->
<g id="edge19" class="edge">
<title>Node15&#45;&gt;Node16</title>
<path fill="none" stroke="midnightblue" d="M447.11,-172.23C464.59,-187.76 501.07,-218.16 537,-235.5 542.75,-238.27 548.95,-240.72 555.22,-242.87"/>
<polygon fill="midnightblue" stroke="midnightblue" points="554.47,-246.3 565.06,-245.99 556.59,-239.63 554.47,-246.3"/>
</g>
<!-- Node20 -->
<g id="node20" class="node">
<title>Node20</title>
<g id="a_node20"><a xlink:href="group__as__reader__writer.html#gae1123634d5cf61d70bcfc7a87cda08bf" target="_top" xlink:title="Sets the maximum possible burst length to be performed by the hardware module.">
<polygon fill="none" stroke="black" points="550.5,-98.5 550.5,-128.5 669.5,-128.5 669.5,-98.5 550.5,-98.5"/>
<text text-anchor="start" x="558.5" y="-116.5" font-family="Helvetica,sans-Serif" font-size="10.00">as_reader_writer_set</text>
<text text-anchor="middle" x="610" y="-105.5" font-family="Helvetica,sans-Serif" font-size="10.00">_max_burst_length</text>
</a>
</g>
</g>
<!-- Node15&#45;&gt;Node20 -->
<g id="edge25" class="edge">
<title>Node15&#45;&gt;Node20</title>
<path fill="none" stroke="midnightblue" d="M470.17,-152.94C491.82,-146.79 520.61,-138.61 546.36,-131.29"/>
<polygon fill="midnightblue" stroke="midnightblue" points="547.4,-134.64 556.06,-128.54 545.49,-127.9 547.4,-134.64"/>
</g>
<!-- Node15&#45;&gt;Node21 -->
<g id="edge28" class="edge">
<title>Node15&#45;&gt;Node21</title>
<path fill="none" stroke="midnightblue" d="M444.49,-152.93C456.73,-138.27 480.82,-109.31 501,-84.5 517.16,-64.63 515.99,-54.15 537,-39.5 539.13,-38.02 541.35,-36.62 543.65,-35.3"/>
<polygon fill="midnightblue" stroke="midnightblue" points="545.49,-38.29 552.8,-30.62 542.31,-32.06 545.49,-38.29"/>
</g>
<!-- Node22 -->
<g id="node22" class="node">
<title>Node22</title>
<g id="a_node22"><a xlink:href="group__as__reader__writer.html#ga4dd1a170b8e16005c286c0c0e7d8406f" target="_top" xlink:title="Sets the number of sections.">
<polygon fill="none" stroke="black" points="550.5,-49.5 550.5,-79.5 669.5,-79.5 669.5,-49.5 550.5,-49.5"/>
<text text-anchor="start" x="558.5" y="-67.5" font-family="Helvetica,sans-Serif" font-size="10.00">as_reader_writer_set</text>
<text text-anchor="middle" x="610" y="-56.5" font-family="Helvetica,sans-Serif" font-size="10.00">_section_count</text>
</a>
</g>
</g>
<!-- Node15&#45;&gt;Node22 -->
<g id="edge31" class="edge">
<title>Node15&#45;&gt;Node22</title>
<path fill="none" stroke="midnightblue" d="M447.19,-152.84C464.78,-137.38 501.41,-106.95 537,-88.5 540.45,-86.71 544.07,-85.01 547.76,-83.41"/>
<polygon fill="midnightblue" stroke="midnightblue" points="549.11,-86.64 557.06,-79.63 546.48,-80.16 549.11,-86.64"/>
</g>
<!-- Node23 -->
<g id="node23" class="node">
<title>Node23</title>
<g id="a_node23"><a xlink:href="group__as__reader__writer.html#ga12f11a3d7cff5ea8bdec75dedec35bab" target="_top" xlink:title="Sets the offset in bytes between the start addresses of two subsequent sections.">
<polygon fill="none" stroke="black" points="550.5,-147.5 550.5,-177.5 669.5,-177.5 669.5,-147.5 550.5,-147.5"/>
<text text-anchor="start" x="558.5" y="-165.5" font-family="Helvetica,sans-Serif" font-size="10.00">as_reader_writer_set</text>
<text text-anchor="middle" x="610" y="-154.5" font-family="Helvetica,sans-Serif" font-size="10.00">_section_offset</text>
</a>
</g>
</g>
<!-- Node15&#45;&gt;Node23 -->
<g id="edge34" class="edge">
<title>Node15&#45;&gt;Node23</title>
<path fill="none" stroke="midnightblue" d="M495.38,-162.5C509.82,-162.5 525.39,-162.5 540.24,-162.5"/>
<polygon fill="midnightblue" stroke="midnightblue" points="540.38,-166 550.38,-162.5 540.38,-159 540.38,-166"/>
</g>
<!-- Node15&#45;&gt;Node24 -->
<g id="edge37" class="edge">
<title>Node15&#45;&gt;Node24</title>
<path fill="none" stroke="midnightblue" d="M470.17,-172.06C491.82,-178.21 520.61,-186.39 546.36,-193.71"/>
<polygon fill="midnightblue" stroke="midnightblue" points="545.49,-197.1 556.06,-196.46 547.4,-190.36 545.49,-197.1"/>
</g>
<!-- Node16&#45;&gt;Node4 -->
<g id="edge20" class="edge">
<title>Node16&#45;&gt;Node4</title>
<path fill="none" stroke="midnightblue" d="M655.05,-265.05C664.44,-267.65 674.18,-270.8 683,-274.5 709.88,-285.77 738.31,-303.47 757.19,-316.16"/>
<polygon fill="midnightblue" stroke="midnightblue" points="755.41,-319.18 765.64,-321.93 759.36,-313.4 755.41,-319.18"/>
</g>
<!-- Node17 -->
<g id="node17" class="node">
<title>Node17</title>
<g id="a_node17"><a xlink:href="group__asterics__support.html#ga0ccb0610d764a95bda989e35fba59490" target="_top" xlink:title=" ">
<polygon fill="none" stroke="black" points="719,-363 719,-382 841,-382 841,-363 719,-363"/>
<text text-anchor="middle" x="780" y="-370" font-family="Helvetica,sans-Serif" font-size="10.00">as_reg_write_masked</text>
</a>
</g>
</g>
<!-- Node16&#45;&gt;Node17 -->
<g id="edge21" class="edge">
<title>Node16&#45;&gt;Node17</title>
<path fill="none" stroke="midnightblue" d="M667.27,-265.05C672.94,-267.52 678.33,-270.62 683,-274.5 711.75,-298.38 691.4,-325.3 719,-350.5 722.36,-353.57 726.19,-356.22 730.25,-358.51"/>
<polygon fill="midnightblue" stroke="midnightblue" points="728.88,-361.74 739.4,-362.96 731.94,-355.44 728.88,-361.74"/>
</g>
<!-- Node17&#45;&gt;Node5 -->
<g id="edge22" class="edge">
<title>Node17&#45;&gt;Node5</title>
<path fill="none" stroke="midnightblue" d="M789.41,-382.2C811.59,-407.75 871.86,-477.21 900.28,-509.96"/>
<polygon fill="midnightblue" stroke="midnightblue" points="897.89,-512.55 907.09,-517.81 903.18,-507.96 897.89,-512.55"/>
</g>
<!-- Node18 -->
<g id="node18" class="node">
<title>Node18</title>
<g id="a_node18"><a xlink:href="group__asterics__support.html#ga6345b997e24a6cd5f9143cef27629d49" target="_top" xlink:title=" ">
<polygon fill="none" stroke="black" points="877,-128 877,-147 956,-147 956,-128 877,-128"/>
<text text-anchor="middle" x="916.5" y="-135" font-family="Helvetica,sans-Serif" font-size="10.00">as_reg_write</text>
</a>
</g>
</g>
<!-- Node17&#45;&gt;Node18 -->
<g id="edge23" class="edge">
<title>Node17&#45;&gt;Node18</title>
<path fill="none" stroke="midnightblue" d="M822.29,-362.89C829.19,-359.83 835.78,-355.8 841,-350.5 895.28,-295.4 910.15,-198.6 914.11,-157.19"/>
<polygon fill="midnightblue" stroke="midnightblue" points="917.61,-157.32 914.96,-147.06 910.64,-156.73 917.61,-157.32"/>
</g>
<!-- Node19 -->
<g id="node19" class="node">
<title>Node19</title>
<g id="a_node19"><a xlink:href="group__asterics__support.html#gab651cc2c035ce61b354578434e59f822" target="_top" xlink:title=" ">
<polygon fill="none" stroke="black" points="992,-128 992,-147 1105,-147 1105,-128 992,-128"/>
<text text-anchor="middle" x="1048.5" y="-135" font-family="Helvetica,sans-Serif" font-size="10.00">as_reg_from_uint32</text>
</a>
</g>
</g>
<!-- Node18&#45;&gt;Node19 -->
<g id="edge24" class="edge">
<title>Node18&#45;&gt;Node19</title>
<path fill="none" stroke="midnightblue" d="M956.15,-137.5C964.22,-137.5 972.94,-137.5 981.68,-137.5"/>
<polygon fill="midnightblue" stroke="midnightblue" points="981.92,-141 991.92,-137.5 981.92,-134 981.92,-141"/>
</g>
<!-- Node20&#45;&gt;Node4 -->
<g id="edge26" class="edge">
<title>Node20&#45;&gt;Node4</title>
<path fill="none" stroke="midnightblue" d="M669.79,-128.53C674.54,-131.07 679.03,-134.04 683,-137.5 738.19,-185.57 764.97,-272.79 774.62,-311.77"/>
<polygon fill="midnightblue" stroke="midnightblue" points="771.29,-312.88 776.99,-321.81 778.1,-311.28 771.29,-312.88"/>
</g>
<!-- Node20&#45;&gt;Node18 -->
<g id="edge27" class="edge">
<title>Node20&#45;&gt;Node18</title>
<path fill="none" stroke="midnightblue" d="M669.71,-118.13C726.9,-122.64 812.85,-129.41 866.48,-133.64"/>
<polygon fill="midnightblue" stroke="midnightblue" points="866.52,-137.15 876.76,-134.45 867.07,-130.17 866.52,-137.15"/>
</g>
<!-- Node21&#45;&gt;Node4 -->
<g id="edge29" class="edge">
<title>Node21&#45;&gt;Node4</title>
<path fill="none" stroke="midnightblue" d="M669.64,-29.55C674.53,-32.3 679.09,-35.58 683,-39.5 760.72,-117.54 775.52,-259.54 778.34,-311.65"/>
<polygon fill="midnightblue" stroke="midnightblue" points="774.85,-312.02 778.79,-321.86 781.84,-311.71 774.85,-312.02"/>
</g>
<!-- Node21&#45;&gt;Node18 -->
<g id="edge30" class="edge">
<title>Node21&#45;&gt;Node18</title>
<path fill="none" stroke="midnightblue" d="M669.94,-28.95C717.48,-40.97 785.35,-60.81 841,-87.5 860.54,-96.87 880.84,-110.83 895.31,-121.61"/>
<polygon fill="midnightblue" stroke="midnightblue" points="893.43,-124.58 903.51,-127.85 897.67,-119.01 893.43,-124.58"/>
</g>
<!-- Node22&#45;&gt;Node4 -->
<g id="edge32" class="edge">
<title>Node22&#45;&gt;Node4</title>
<path fill="none" stroke="midnightblue" d="M669.75,-78.99C674.56,-81.65 679.08,-84.79 683,-88.5 749.19,-151.18 770.62,-265.2 776.77,-311.33"/>
<polygon fill="midnightblue" stroke="midnightblue" points="773.33,-312.02 778.03,-321.52 780.28,-311.17 773.33,-312.02"/>
</g>
<!-- Node22&#45;&gt;Node18 -->
<g id="edge33" class="edge">
<title>Node22&#45;&gt;Node18</title>
<path fill="none" stroke="midnightblue" d="M669.62,-78.48C716.1,-89.57 782.72,-105.49 841,-119.5 849.37,-121.51 858.27,-123.66 866.89,-125.74"/>
<polygon fill="midnightblue" stroke="midnightblue" points="866.29,-129.19 876.84,-128.14 867.94,-122.39 866.29,-129.19"/>
</g>
<!-- Node23&#45;&gt;Node4 -->
<g id="edge35" class="edge">
<title>Node23&#45;&gt;Node4</title>
<path fill="none" stroke="midnightblue" d="M668.25,-177.54C673.49,-180.09 678.5,-183.05 683,-186.5 727.37,-220.5 757.78,-281.18 771.21,-312.15"/>
<polygon fill="midnightblue" stroke="midnightblue" points="768.15,-313.91 775.25,-321.77 774.61,-311.2 768.15,-313.91"/>
</g>
<!-- Node23&#45;&gt;Node18 -->
<g id="edge36" class="edge">
<title>Node23&#45;&gt;Node18</title>
<path fill="none" stroke="midnightblue" d="M669.71,-157.68C726.9,-152.98 812.85,-145.93 866.48,-141.52"/>
<polygon fill="midnightblue" stroke="midnightblue" points="867.08,-144.99 876.76,-140.68 866.51,-138.01 867.08,-144.99"/>
</g>
<!-- Node24&#45;&gt;Node4 -->
<g id="edge38" class="edge">
<title>Node24&#45;&gt;Node4</title>
<path fill="none" stroke="midnightblue" d="M663.41,-226.57C670.23,-229.42 676.94,-232.72 683,-236.5 716.93,-257.64 748.25,-292.76 765.38,-313.87"/>
<polygon fill="midnightblue" stroke="midnightblue" points="762.66,-316.07 771.63,-321.72 768.14,-311.71 762.66,-316.07"/>
</g>
<!-- Node24&#45;&gt;Node18 -->
<g id="edge39" class="edge">
<title>Node24&#45;&gt;Node18</title>
<path fill="none" stroke="midnightblue" d="M669.64,-201.44C716.42,-192.89 783.42,-179.48 841,-163.5 854.23,-159.83 868.52,-155.05 881.01,-150.59"/>
<polygon fill="midnightblue" stroke="midnightblue" points="882.38,-153.81 890.58,-147.11 879.99,-147.23 882.38,-153.81"/>
</g>
<!-- Node25&#45;&gt;Node4 -->
<g id="edge41" class="edge">
<title>Node25&#45;&gt;Node4</title>
<path fill="none" stroke="midnightblue" d="M678.36,-331.5C693.5,-331.5 709.38,-331.5 723.94,-331.5"/>
<polygon fill="midnightblue" stroke="midnightblue" points="724.28,-335 734.28,-331.5 724.28,-328 724.28,-335"/>
</g>
<!-- Node25&#45;&gt;Node17 -->
<g id="edge42" class="edge">
<title>Node25&#45;&gt;Node17</title>
<path fill="none" stroke="midnightblue" d="M649.96,-341.01C673.84,-346.84 704.61,-354.34 730.11,-360.57"/>
<polygon fill="midnightblue" stroke="midnightblue" points="729.41,-364 739.96,-362.97 731.07,-357.2 729.41,-364"/>
</g>
<!-- Node26&#45;&gt;Node4 -->
<g id="edge46" class="edge">
<title>Node26&#45;&gt;Node4</title>
<path fill="none" stroke="midnightblue" d="M668.35,-360.48C689.41,-354.96 712.96,-348.8 732.91,-343.57"/>
<polygon fill="midnightblue" stroke="midnightblue" points="733.89,-346.93 742.68,-341.01 732.12,-340.16 733.89,-346.93"/>
</g>
<!-- Node26&#45;&gt;Node17 -->
<g id="edge47" class="edge">
<title>Node26&#45;&gt;Node17</title>
<path fill="none" stroke="midnightblue" d="M671.18,-374.43C683.31,-374.21 696.17,-373.98 708.62,-373.76"/>
<polygon fill="midnightblue" stroke="midnightblue" points="709.02,-377.25 718.96,-373.57 708.9,-370.25 709.02,-377.25"/>
</g>
<!-- Node27&#45;&gt;Node4 -->
<g id="edge49" class="edge">
<title>Node27&#45;&gt;Node4</title>
<path fill="none" stroke="midnightblue" d="M661.61,-409.88C669.13,-407.22 676.53,-403.82 683,-399.5 704.59,-385.08 698.01,-368.78 719,-353.5 723.43,-350.28 728.38,-347.48 733.49,-345.06"/>
<polygon fill="midnightblue" stroke="midnightblue" points="734.95,-348.25 742.78,-341.11 732.21,-341.8 734.95,-348.25"/>
</g>
<!-- Node27&#45;&gt;Node17 -->
<g id="edge50" class="edge">
<title>Node27&#45;&gt;Node17</title>
<path fill="none" stroke="midnightblue" d="M645.43,-409.96C657.33,-406.66 670.76,-402.92 683,-399.5 700.12,-394.71 718.95,-389.42 735.37,-384.8"/>
<polygon fill="midnightblue" stroke="midnightblue" points="736.57,-388.1 745.24,-382.02 734.67,-381.36 736.57,-388.1"/>
</g>
<!-- Node28&#45;&gt;Node2 -->
<g id="edge52" class="edge">
<title>Node28&#45;&gt;Node2</title>
<path fill="none" stroke="midnightblue" d="M334.15,-544.6C342.66,-545.02 351.27,-545.44 359.68,-545.85"/>
<polygon fill="midnightblue" stroke="midnightblue" points="359.65,-549.35 369.81,-546.34 359.99,-542.36 359.65,-549.35"/>
</g>
<!-- Node31&#45;&gt;Node4 -->
<g id="edge56" class="edge">
<title>Node31&#45;&gt;Node4</title>
<path fill="none" stroke="midnightblue" d="M666.09,-449.95C672.25,-446.88 678.07,-443.11 683,-438.5 712.96,-410.47 689.29,-381.79 719,-353.5 722.12,-350.53 725.67,-347.96 729.45,-345.73"/>
<polygon fill="midnightblue" stroke="midnightblue" points="731.25,-348.74 738.6,-341.12 728.1,-342.49 731.25,-348.74"/>
</g>
<!-- Node31&#45;&gt;Node8 -->
<g id="edge57" class="edge">
<title>Node31&#45;&gt;Node8</title>
<path fill="none" stroke="midnightblue" d="M666.01,-477.91C687.64,-483.57 712.19,-490 732.87,-495.42"/>
<polygon fill="midnightblue" stroke="midnightblue" points="732.12,-498.84 742.68,-497.99 733.89,-492.07 732.12,-498.84"/>
</g>
</g>
</svg>
