<?xml version="1.0" encoding="UTF-8" standalone="no"?>
<!DOCTYPE svg PUBLIC "-//W3C//DTD SVG 1.1//EN"
 "http://www.w3.org/Graphics/SVG/1.1/DTD/svg11.dtd">
<!-- Generated by graphviz version 2.43.0 (0)
 -->
<!-- Title: vears_draw_line Pages: 1 -->
<svg width="536pt" height="180pt"
 viewBox="0.00 0.00 536.00 180.00" xmlns="http://www.w3.org/2000/svg" xmlns:xlink="http://www.w3.org/1999/xlink">
<g id="graph0" class="graph" transform="scale(1 1) rotate(0) translate(4 176)">
<title>vears_draw_line</title>
<!-- Node1 -->
<g id="node1" class="node">
<title>Node1</title>
<g id="a_node1"><a xlink:title="Draw a line from (x0, y0) to (x1, y1).">
<polygon fill="#bfbfbf" stroke="black" points="0,-57.5 0,-76.5 96,-76.5 96,-57.5 0,-57.5"/>
<text text-anchor="middle" x="48" y="-64.5" font-family="Helvetica,sans-Serif" font-size="10.00">vears_draw_line</text>
</a>
</g>
</g>
<!-- Node2 -->
<g id="node2" class="node">
<title>Node2</title>
<g id="a_node2"><a xlink:href="ea__draw__line_8c.html#a37607873cb8c34b78555a09e77217099" target="_top" xlink:title=" ">
<polygon fill="none" stroke="black" points="159,-76.5 159,-95.5 240,-95.5 240,-76.5 159,-76.5"/>
<text text-anchor="middle" x="199.5" y="-83.5" font-family="Helvetica,sans-Serif" font-size="10.00">ea_draw_line</text>
</a>
</g>
</g>
<!-- Node1&#45;&gt;Node2 -->
<g id="edge1" class="edge">
<title>Node1&#45;&gt;Node2</title>
<path fill="none" stroke="midnightblue" d="M96.3,-73.01C112.88,-75.12 131.55,-77.49 148.35,-79.63"/>
<polygon fill="midnightblue" stroke="midnightblue" points="148.17,-83.13 158.53,-80.92 149.06,-76.19 148.17,-83.13"/>
</g>
<!-- Node9 -->
<g id="node9" class="node">
<title>Node9</title>
<g id="a_node9"><a xlink:href="vears_8c.html#a5c9f2a05f3fe62106f55e90dbcc9cf53" target="_top" xlink:title=" ">
<polygon fill="none" stroke="black" points="132,-38.5 132,-57.5 267,-57.5 267,-38.5 132,-38.5"/>
<text text-anchor="middle" x="199.5" y="-45.5" font-family="Helvetica,sans-Serif" font-size="10.00">flush_cache_for_overlay</text>
</a>
</g>
</g>
<!-- Node1&#45;&gt;Node9 -->
<g id="edge8" class="edge">
<title>Node1&#45;&gt;Node9</title>
<path fill="none" stroke="midnightblue" d="M96.3,-60.99C104.42,-59.96 113.04,-58.86 121.69,-57.76"/>
<polygon fill="midnightblue" stroke="midnightblue" points="122.36,-61.2 131.84,-56.47 121.48,-54.26 122.36,-61.2"/>
</g>
<!-- Node3 -->
<g id="node3" class="node">
<title>Node3</title>
<g id="a_node3"><a xlink:href="ea__draw__line_8c.html#a0fa8eda05ff510ff4b7781763bf9c9ee" target="_top" xlink:title=" ">
<polygon fill="none" stroke="black" points="348,-152.5 348,-171.5 382,-171.5 382,-152.5 348,-152.5"/>
<text text-anchor="middle" x="365" y="-159.5" font-family="Helvetica,sans-Serif" font-size="10.00">abs</text>
</a>
</g>
</g>
<!-- Node2&#45;&gt;Node3 -->
<g id="edge2" class="edge">
<title>Node2&#45;&gt;Node3</title>
<path fill="none" stroke="midnightblue" d="M215.29,-95.5C234.78,-107.73 270.43,-129.05 303,-143 314.2,-147.8 327.03,-151.98 338.02,-155.19"/>
<polygon fill="midnightblue" stroke="midnightblue" points="337.31,-158.62 347.88,-157.95 339.2,-151.88 337.31,-158.62"/>
</g>
<!-- Node4 -->
<g id="node4" class="node">
<title>Node4</title>
<g id="a_node4"><a xlink:href="ea__draw__point_8c.html#a061e9dc2b155528bc460f9c692659ed2" target="_top" xlink:title=" ">
<polygon fill="none" stroke="black" points="321,-114.5 321,-133.5 409,-133.5 409,-114.5 321,-114.5"/>
<text text-anchor="middle" x="365" y="-121.5" font-family="Helvetica,sans-Serif" font-size="10.00">ea_draw_point</text>
</a>
</g>
</g>
<!-- Node2&#45;&gt;Node4 -->
<g id="edge3" class="edge">
<title>Node2&#45;&gt;Node4</title>
<path fill="none" stroke="midnightblue" d="M240.08,-95.2C262.08,-100.31 289.68,-106.73 313.25,-112.21"/>
<polygon fill="midnightblue" stroke="midnightblue" points="312.55,-115.63 323.08,-114.49 314.13,-108.82 312.55,-115.63"/>
</g>
<!-- Node5 -->
<g id="node5" class="node">
<title>Node5</title>
<g id="a_node5"><a xlink:href="ea__draw__quick__line__h_8c.html#a822ca7b402ab5d265e9736ef4d0d6736" target="_top" xlink:title=" ">
<polygon fill="none" stroke="black" points="303,-76.5 303,-95.5 427,-95.5 427,-76.5 303,-76.5"/>
<text text-anchor="middle" x="365" y="-83.5" font-family="Helvetica,sans-Serif" font-size="10.00">ea_draw_quick_line_h</text>
</a>
</g>
</g>
<!-- Node2&#45;&gt;Node5 -->
<g id="edge4" class="edge">
<title>Node2&#45;&gt;Node5</title>
<path fill="none" stroke="midnightblue" d="M240.08,-86C255.87,-86 274.56,-86 292.57,-86"/>
<polygon fill="midnightblue" stroke="midnightblue" points="292.77,-89.5 302.77,-86 292.77,-82.5 292.77,-89.5"/>
</g>
<!-- Node7 -->
<g id="node7" class="node">
<title>Node7</title>
<g id="a_node7"><a xlink:href="ea__draw__quick__line__v_8c.html#a6796003d1cfc808748bf7157c949bfda" target="_top" xlink:title=" ">
<polygon fill="none" stroke="black" points="303,-38.5 303,-57.5 427,-57.5 427,-38.5 303,-38.5"/>
<text text-anchor="middle" x="365" y="-45.5" font-family="Helvetica,sans-Serif" font-size="10.00">ea_draw_quick_line_v</text>
</a>
</g>
</g>
<!-- Node2&#45;&gt;Node7 -->
<g id="edge6" class="edge">
<title>Node2&#45;&gt;Node7</title>
<path fill="none" stroke="midnightblue" d="M240.08,-76.8C262.08,-71.69 289.68,-65.27 313.25,-59.79"/>
<polygon fill="midnightblue" stroke="midnightblue" points="314.13,-63.18 323.08,-57.51 312.55,-56.37 314.13,-63.18"/>
</g>
<!-- Node8 -->
<g id="node8" class="node">
<title>Node8</title>
<g id="a_node8"><a xlink:href="ea__draw__line_8c.html#a745efbe628f8334a6278c11bb78c819a" target="_top" xlink:title=" ">
<polygon fill="none" stroke="black" points="348,-0.5 348,-19.5 382,-19.5 382,-0.5 348,-0.5"/>
<text text-anchor="middle" x="365" y="-7.5" font-family="Helvetica,sans-Serif" font-size="10.00">sgn</text>
</a>
</g>
</g>
<!-- Node2&#45;&gt;Node8 -->
<g id="edge7" class="edge">
<title>Node2&#45;&gt;Node8</title>
<path fill="none" stroke="midnightblue" d="M240.28,-78.37C249.45,-75.61 258.89,-71.92 267,-67 286.89,-54.93 283.25,-41.3 303,-29 313.6,-22.4 326.66,-17.93 337.98,-14.99"/>
<polygon fill="midnightblue" stroke="midnightblue" points="338.82,-18.39 347.77,-12.71 337.23,-11.57 338.82,-18.39"/>
</g>
<!-- Node6 -->
<g id="node6" class="node">
<title>Node6</title>
<g id="a_node6"><a xlink:href="ea__draw__quick__line__h_8c.html#a57780e02c723be87fd9cac22302de8a0" target="_top" xlink:title=" ">
<polygon fill="none" stroke="black" points="463,-76.5 463,-95.5 528,-95.5 528,-76.5 463,-76.5"/>
<text text-anchor="middle" x="495.5" y="-83.5" font-family="Helvetica,sans-Serif" font-size="10.00">get_mask</text>
</a>
</g>
</g>
<!-- Node5&#45;&gt;Node6 -->
<g id="edge5" class="edge">
<title>Node5&#45;&gt;Node6</title>
<path fill="none" stroke="midnightblue" d="M427.24,-86C435.78,-86 444.39,-86 452.47,-86"/>
<polygon fill="midnightblue" stroke="midnightblue" points="452.73,-89.5 462.73,-86 452.73,-82.5 452.73,-89.5"/>
</g>
</g>
</svg>
