<?xml version="1.0" encoding="UTF-8" standalone="no"?>
<!DOCTYPE svg PUBLIC "-//W3C//DTD SVG 1.1//EN"
 "http://www.w3.org/Graphics/SVG/1.1/DTD/svg11.dtd">
<!-- Generated by graphviz version 2.43.0 (0)
 -->
<!-- Title: as_mmap_start_transfer Pages: 1 -->
<svg width="893pt" height="438pt"
 viewBox="0.00 0.00 893.00 438.00" xmlns="http://www.w3.org/2000/svg" xmlns:xlink="http://www.w3.org/1999/xlink">
<g id="graph0" class="graph" transform="scale(1 1) rotate(0) translate(4 434)">
<title>as_mmap_start_transfer</title>
<!-- Node1 -->
<g id="node1" class="node">
<title>Node1</title>
<g id="a_node1"><a xlink:title=" ">
<polygon fill="#bfbfbf" stroke="black" points="0,-226.5 0,-245.5 136,-245.5 136,-226.5 0,-226.5"/>
<text text-anchor="middle" x="68" y="-233.5" font-family="Helvetica,sans-Serif" font-size="10.00">as_mmap_start_transfer</text>
</a>
</g>
</g>
<!-- Node2 -->
<g id="node2" class="node">
<title>Node2</title>
<g id="a_node2"><a xlink:href="as__cache_8c.html#a82dda14c005c5bd0028e5f25fad2923c" target="_top" xlink:title="Map virtual kernel address for DMA.">
<polygon fill="none" stroke="black" points="187,-403.5 187,-422.5 276,-422.5 276,-403.5 187,-403.5"/>
<text text-anchor="middle" x="231.5" y="-410.5" font-family="Helvetica,sans-Serif" font-size="10.00">as_map_single</text>
</a>
</g>
</g>
<!-- Node1&#45;&gt;Node2 -->
<g id="edge1" class="edge">
<title>Node1&#45;&gt;Node2</title>
<path fill="none" stroke="midnightblue" d="M74.45,-245.79C88.3,-270.05 126.97,-334.03 172,-376 181.18,-384.56 192.6,-392.29 202.91,-398.44"/>
<polygon fill="midnightblue" stroke="midnightblue" points="201.19,-401.49 211.6,-403.43 204.67,-395.42 201.19,-401.49"/>
</g>
<!-- Node4 -->
<g id="node4" class="node">
<title>Node4</title>
<g id="a_node4"><a xlink:href="group__as__reader__writer.html#ga5c0bd52e53c8e68de80b1712c12d9a4a" target="_top" xlink:title="Initializes the hardware module with values provided by config.">
<polygon fill="none" stroke="black" points="172,-226.5 172,-245.5 291,-245.5 291,-226.5 172,-226.5"/>
<text text-anchor="middle" x="231.5" y="-233.5" font-family="Helvetica,sans-Serif" font-size="10.00">as_reader_writer_init</text>
</a>
</g>
</g>
<!-- Node1&#45;&gt;Node4 -->
<g id="edge3" class="edge">
<title>Node1&#45;&gt;Node4</title>
<path fill="none" stroke="midnightblue" d="M136.09,-236C144.53,-236 153.17,-236 161.64,-236"/>
<polygon fill="midnightblue" stroke="midnightblue" points="161.86,-239.5 171.86,-236 161.86,-232.5 161.86,-239.5"/>
</g>
<!-- Node13 -->
<g id="node13" class="node">
<title>Node13</title>
<g id="a_node13"><a xlink:href="group__as__reader__writer.html#ga43d2f73d7d42dd5704160d4ddacfaa1e" target="_top" xlink:title="Sets the start address of the first section to the given value.">
<polygon fill="none" stroke="black" points="335.5,-361 335.5,-391 454.5,-391 454.5,-361 335.5,-361"/>
<text text-anchor="start" x="343.5" y="-379" font-family="Helvetica,sans-Serif" font-size="10.00">as_reader_writer_set</text>
<text text-anchor="middle" x="395" y="-368" font-family="Helvetica,sans-Serif" font-size="10.00">_section_addr</text>
</a>
</g>
</g>
<!-- Node1&#45;&gt;Node13 -->
<g id="edge29" class="edge">
<title>Node1&#45;&gt;Node13</title>
<path fill="none" stroke="midnightblue" d="M83.55,-245.62C103.1,-258.27 139.18,-280.68 172,-296 225.44,-320.94 288.96,-343.12 334.34,-357.77"/>
<polygon fill="midnightblue" stroke="midnightblue" points="333.44,-361.15 344.03,-360.87 335.57,-354.49 333.44,-361.15"/>
</g>
<!-- Node16 -->
<g id="node16" class="node">
<title>Node16</title>
<g id="a_node16"><a xlink:href="group__as__reader__writer.html#ga06436c5cb6a63439f2e4b7c14c71fb83" target="_top" xlink:title="Sets the size of a single section in bytes.">
<polygon fill="none" stroke="black" points="335.5,-312 335.5,-342 454.5,-342 454.5,-312 335.5,-312"/>
<text text-anchor="start" x="343.5" y="-330" font-family="Helvetica,sans-Serif" font-size="10.00">as_reader_writer_set</text>
<text text-anchor="middle" x="395" y="-319" font-family="Helvetica,sans-Serif" font-size="10.00">_section_size</text>
</a>
</g>
</g>
<!-- Node1&#45;&gt;Node16 -->
<g id="edge30" class="edge">
<title>Node1&#45;&gt;Node16</title>
<path fill="none" stroke="midnightblue" d="M103.17,-245.57C156.99,-260.64 262.38,-290.15 330.43,-309.2"/>
<polygon fill="midnightblue" stroke="midnightblue" points="329.61,-312.61 340.18,-311.93 331.5,-305.86 329.61,-312.61"/>
</g>
<!-- Node17 -->
<g id="node17" class="node">
<title>Node17</title>
<g id="a_node17"><a xlink:href="group__as__reader__writer.html#ga38bb160b6e30eb5fce6df2e4b4894fad" target="_top" xlink:title="Starts operation of hardware module.">
<polygon fill="none" stroke="black" points="327,-88.5 327,-107.5 463,-107.5 463,-88.5 327,-88.5"/>
<text text-anchor="middle" x="395" y="-95.5" font-family="Helvetica,sans-Serif" font-size="10.00">as_reader_writer_set_go</text>
</a>
</g>
</g>
<!-- Node1&#45;&gt;Node17 -->
<g id="edge26" class="edge">
<title>Node1&#45;&gt;Node17</title>
<path fill="none" stroke="midnightblue" d="M90.87,-226.37C130.82,-208.71 218.2,-169.74 291,-135 307.14,-127.29 310.32,-123.47 327,-117 332.99,-114.68 339.38,-112.5 345.75,-110.51"/>
<polygon fill="midnightblue" stroke="midnightblue" points="347.1,-113.75 355.68,-107.53 345.09,-107.05 347.1,-113.75"/>
</g>
<!-- Node18 -->
<g id="node18" class="node">
<title>Node18</title>
<g id="a_node18"><a xlink:href="group__as__reader__writer.html#ga2c3650318b12edaf3f4473fed557cc74" target="_top" xlink:title="Disable module if no operation is queued.">
<polygon fill="none" stroke="black" points="334,-39 334,-69 456,-69 456,-39 334,-39"/>
<text text-anchor="start" x="342" y="-57" font-family="Helvetica,sans-Serif" font-size="10.00">as_writer_set_disable</text>
<text text-anchor="middle" x="395" y="-46" font-family="Helvetica,sans-Serif" font-size="10.00">_on_no_go</text>
</a>
</g>
</g>
<!-- Node1&#45;&gt;Node18 -->
<g id="edge31" class="edge">
<title>Node1&#45;&gt;Node18</title>
<path fill="none" stroke="midnightblue" d="M76.48,-226.27C92.16,-206.48 130.48,-161.19 172,-135 219.04,-105.33 278.51,-84.37 324.05,-71.22"/>
<polygon fill="midnightblue" stroke="midnightblue" points="325.17,-74.54 333.84,-68.45 323.27,-67.8 325.17,-74.54"/>
</g>
<!-- Node19 -->
<g id="node19" class="node">
<title>Node19</title>
<g id="a_node19"><a xlink:href="group__as__reader__writer.html#ga1ef22dbd33d87de51113837dd9123c6f" target="_top" xlink:title="Enable module input port.">
<polygon fill="none" stroke="black" points="335,-0.5 335,-19.5 455,-19.5 455,-0.5 335,-0.5"/>
<text text-anchor="middle" x="395" y="-7.5" font-family="Helvetica,sans-Serif" font-size="10.00">as_writer_set_enable</text>
</a>
</g>
</g>
<!-- Node1&#45;&gt;Node19 -->
<g id="edge34" class="edge">
<title>Node1&#45;&gt;Node19</title>
<path fill="none" stroke="midnightblue" d="M72.66,-226.24C83.45,-198.81 117.81,-120.29 172,-79 216.41,-45.16 277.66,-27.74 324.57,-18.88"/>
<polygon fill="midnightblue" stroke="midnightblue" points="325.44,-22.28 334.66,-17.07 324.2,-15.39 325.44,-22.28"/>
</g>
<!-- Node3 -->
<g id="node3" class="node">
<title>Node3</title>
<g id="a_node3"><a xlink:href="group__asterics__support.html#ga488e796d469c62267d9547fd11f8d764" target="_top" xlink:title=" ">
<polygon fill="none" stroke="black" points="330,-410.5 330,-429.5 460,-429.5 460,-410.5 330,-410.5"/>
<text text-anchor="middle" x="395" y="-417.5" font-family="Helvetica,sans-Serif" font-size="10.00">as_dcache_flush_range</text>
</a>
</g>
</g>
<!-- Node2&#45;&gt;Node3 -->
<g id="edge2" class="edge">
<title>Node2&#45;&gt;Node3</title>
<path fill="none" stroke="midnightblue" d="M276.2,-414.89C289.64,-415.48 304.82,-416.13 319.71,-416.78"/>
<polygon fill="midnightblue" stroke="midnightblue" points="319.8,-420.29 329.94,-417.22 320.1,-413.29 319.8,-420.29"/>
</g>
<!-- Node5 -->
<g id="node5" class="node">
<title>Node5</title>
<g id="a_node5"><a xlink:href="group__as__reader__writer.html#ga89e42a53f0db5cf22c8583c8e0c8a074" target="_top" xlink:title="Resets the hardware module.">
<polygon fill="none" stroke="black" points="331,-126.5 331,-145.5 459,-145.5 459,-126.5 331,-126.5"/>
<text text-anchor="middle" x="395" y="-133.5" font-family="Helvetica,sans-Serif" font-size="10.00">as_reader_writer_reset</text>
</a>
</g>
</g>
<!-- Node4&#45;&gt;Node5 -->
<g id="edge4" class="edge">
<title>Node4&#45;&gt;Node5</title>
<path fill="none" stroke="midnightblue" d="M250.94,-226.37C263.02,-219.6 278.76,-209.83 291,-199 309.92,-182.25 305.87,-168.86 327,-155 330.11,-152.96 333.45,-151.13 336.91,-149.5"/>
<polygon fill="midnightblue" stroke="midnightblue" points="338.38,-152.67 346.28,-145.61 335.7,-146.21 338.38,-152.67"/>
</g>
<!-- Node12 -->
<g id="node12" class="node">
<title>Node12</title>
<g id="a_node12"><a xlink:href="group__as__reader__writer.html#gae1123634d5cf61d70bcfc7a87cda08bf" target="_top" xlink:title="Sets the maximum possible burst length to be performed by the hardware module.">
<polygon fill="none" stroke="black" points="335.5,-214 335.5,-244 454.5,-244 454.5,-214 335.5,-214"/>
<text text-anchor="start" x="343.5" y="-232" font-family="Helvetica,sans-Serif" font-size="10.00">as_reader_writer_set</text>
<text text-anchor="middle" x="395" y="-221" font-family="Helvetica,sans-Serif" font-size="10.00">_max_burst_length</text>
</a>
</g>
</g>
<!-- Node4&#45;&gt;Node12 -->
<g id="edge11" class="edge">
<title>Node4&#45;&gt;Node12</title>
<path fill="none" stroke="midnightblue" d="M291.26,-233.45C302.24,-232.98 313.81,-232.48 325.06,-231.99"/>
<polygon fill="midnightblue" stroke="midnightblue" points="325.44,-235.47 335.28,-231.55 325.14,-228.48 325.44,-235.47"/>
</g>
<!-- Node4&#45;&gt;Node13 -->
<g id="edge14" class="edge">
<title>Node4&#45;&gt;Node13</title>
<path fill="none" stroke="midnightblue" d="M238.05,-245.79C250.92,-267.67 284.94,-320.97 327,-351 329.68,-352.91 332.52,-354.7 335.46,-356.36"/>
<polygon fill="midnightblue" stroke="midnightblue" points="334.03,-359.56 344.53,-360.98 337.21,-353.32 334.03,-359.56"/>
</g>
<!-- Node14 -->
<g id="node14" class="node">
<title>Node14</title>
<g id="a_node14"><a xlink:href="group__as__reader__writer.html#ga4dd1a170b8e16005c286c0c0e7d8406f" target="_top" xlink:title="Sets the number of sections.">
<polygon fill="none" stroke="black" points="335.5,-165 335.5,-195 454.5,-195 454.5,-165 335.5,-165"/>
<text text-anchor="start" x="343.5" y="-183" font-family="Helvetica,sans-Serif" font-size="10.00">as_reader_writer_set</text>
<text text-anchor="middle" x="395" y="-172" font-family="Helvetica,sans-Serif" font-size="10.00">_section_count</text>
</a>
</g>
</g>
<!-- Node4&#45;&gt;Node14 -->
<g id="edge17" class="edge">
<title>Node4&#45;&gt;Node14</title>
<path fill="none" stroke="midnightblue" d="M260.26,-226.37C282.35,-218.71 313.91,-207.77 340.82,-198.44"/>
<polygon fill="midnightblue" stroke="midnightblue" points="342.2,-201.67 350.5,-195.08 339.91,-195.05 342.2,-201.67"/>
</g>
<!-- Node15 -->
<g id="node15" class="node">
<title>Node15</title>
<g id="a_node15"><a xlink:href="group__as__reader__writer.html#ga12f11a3d7cff5ea8bdec75dedec35bab" target="_top" xlink:title="Sets the offset in bytes between the start addresses of two subsequent sections.">
<polygon fill="none" stroke="black" points="335.5,-263 335.5,-293 454.5,-293 454.5,-263 335.5,-263"/>
<text text-anchor="start" x="343.5" y="-281" font-family="Helvetica,sans-Serif" font-size="10.00">as_reader_writer_set</text>
<text text-anchor="middle" x="395" y="-270" font-family="Helvetica,sans-Serif" font-size="10.00">_section_offset</text>
</a>
</g>
</g>
<!-- Node4&#45;&gt;Node15 -->
<g id="edge20" class="edge">
<title>Node4&#45;&gt;Node15</title>
<path fill="none" stroke="midnightblue" d="M269.15,-245.53C286.1,-249.94 306.81,-255.32 326.44,-260.43"/>
<polygon fill="midnightblue" stroke="midnightblue" points="325.71,-263.86 336.27,-262.99 327.48,-257.08 325.71,-263.86"/>
</g>
<!-- Node4&#45;&gt;Node16 -->
<g id="edge23" class="edge">
<title>Node4&#45;&gt;Node16</title>
<path fill="none" stroke="midnightblue" d="M244.11,-245.57C261.34,-259.43 295.11,-285.26 327,-302 331,-304.1 335.22,-306.11 339.52,-308.01"/>
<polygon fill="midnightblue" stroke="midnightblue" points="338.41,-311.34 348.98,-312 341.12,-304.89 338.41,-311.34"/>
</g>
<!-- Node6 -->
<g id="node6" class="node">
<title>Node6</title>
<g id="a_node6"><a xlink:href="group__asterics__support.html#gaa7520f5b717e163da743500adb2eb0b9" target="_top" xlink:title=" ">
<polygon fill="none" stroke="black" points="514.5,-192.5 514.5,-211.5 605.5,-211.5 605.5,-192.5 514.5,-192.5"/>
<text text-anchor="middle" x="560" y="-199.5" font-family="Helvetica,sans-Serif" font-size="10.00">as_module_reg</text>
</a>
</g>
</g>
<!-- Node5&#45;&gt;Node6 -->
<g id="edge5" class="edge">
<title>Node5&#45;&gt;Node6</title>
<path fill="none" stroke="midnightblue" d="M434.3,-145.59C443.79,-148.31 453.85,-151.5 463,-155 487.31,-164.31 513.81,-177.53 532.79,-187.58"/>
<polygon fill="midnightblue" stroke="midnightblue" points="531.26,-190.73 541.73,-192.37 534.57,-184.56 531.26,-190.73"/>
</g>
<!-- Node7 -->
<g id="node7" class="node">
<title>Node7</title>
<g id="a_node7"><a xlink:href="group__asterics__support.html#ga0ccb0610d764a95bda989e35fba59490" target="_top" xlink:title=" ">
<polygon fill="none" stroke="black" points="499,-88.5 499,-107.5 621,-107.5 621,-88.5 499,-88.5"/>
<text text-anchor="middle" x="560" y="-95.5" font-family="Helvetica,sans-Serif" font-size="10.00">as_reg_write_masked</text>
</a>
</g>
</g>
<!-- Node5&#45;&gt;Node7 -->
<g id="edge6" class="edge">
<title>Node5&#45;&gt;Node7</title>
<path fill="none" stroke="midnightblue" d="M437.13,-126.41C458.74,-121.37 485.41,-115.16 508.29,-109.82"/>
<polygon fill="midnightblue" stroke="midnightblue" points="509.22,-113.2 518.16,-107.52 507.63,-106.38 509.22,-113.2"/>
</g>
<!-- Node8 -->
<g id="node8" class="node">
<title>Node8</title>
<g id="a_node8"><a xlink:href="group__asterics__support.html#ga8e5c2bfd2e4498d10289377bd94cef07" target="_top" xlink:title=" ">
<polygon fill="none" stroke="black" points="658.5,-88.5 658.5,-107.5 734.5,-107.5 734.5,-88.5 658.5,-88.5"/>
<text text-anchor="middle" x="696.5" y="-95.5" font-family="Helvetica,sans-Serif" font-size="10.00">as_reg_read</text>
</a>
</g>
</g>
<!-- Node7&#45;&gt;Node8 -->
<g id="edge7" class="edge">
<title>Node7&#45;&gt;Node8</title>
<path fill="none" stroke="midnightblue" d="M621.17,-98C630.12,-98 639.24,-98 647.88,-98"/>
<polygon fill="midnightblue" stroke="midnightblue" points="648.15,-101.5 658.15,-98 648.15,-94.5 648.15,-101.5"/>
</g>
<!-- Node10 -->
<g id="node10" class="node">
<title>Node10</title>
<g id="a_node10"><a xlink:href="group__asterics__support.html#ga6345b997e24a6cd5f9143cef27629d49" target="_top" xlink:title=" ">
<polygon fill="none" stroke="black" points="657,-249.5 657,-268.5 736,-268.5 736,-249.5 657,-249.5"/>
<text text-anchor="middle" x="696.5" y="-256.5" font-family="Helvetica,sans-Serif" font-size="10.00">as_reg_write</text>
</a>
</g>
</g>
<!-- Node7&#45;&gt;Node10 -->
<g id="edge9" class="edge">
<title>Node7&#45;&gt;Node10</title>
<path fill="none" stroke="midnightblue" d="M573.79,-107.51C586.55,-117.34 606.32,-133.54 621,-150 647.04,-179.21 671.49,-217.94 684.88,-240.5"/>
<polygon fill="midnightblue" stroke="midnightblue" points="682,-242.51 690.07,-249.37 688.04,-238.97 682,-242.51"/>
</g>
<!-- Node9 -->
<g id="node9" class="node">
<title>Node9</title>
<g id="a_node9"><a xlink:href="group__asterics__support.html#ga4c6d688b840a6e2edc9bc0b8ed961677" target="_top" xlink:title=" ">
<polygon fill="none" stroke="black" points="778.5,-88.5 778.5,-107.5 878.5,-107.5 878.5,-88.5 778.5,-88.5"/>
<text text-anchor="middle" x="828.5" y="-95.5" font-family="Helvetica,sans-Serif" font-size="10.00">as_reg_to_uint32</text>
</a>
</g>
</g>
<!-- Node8&#45;&gt;Node9 -->
<g id="edge8" class="edge">
<title>Node8&#45;&gt;Node9</title>
<path fill="none" stroke="midnightblue" d="M734.75,-98C745.09,-98 756.59,-98 767.86,-98"/>
<polygon fill="midnightblue" stroke="midnightblue" points="768.12,-101.5 778.12,-98 768.12,-94.5 768.12,-101.5"/>
</g>
<!-- Node11 -->
<g id="node11" class="node">
<title>Node11</title>
<g id="a_node11"><a xlink:href="group__asterics__support.html#gab651cc2c035ce61b354578434e59f822" target="_top" xlink:title=" ">
<polygon fill="none" stroke="black" points="772,-249.5 772,-268.5 885,-268.5 885,-249.5 772,-249.5"/>
<text text-anchor="middle" x="828.5" y="-256.5" font-family="Helvetica,sans-Serif" font-size="10.00">as_reg_from_uint32</text>
</a>
</g>
</g>
<!-- Node10&#45;&gt;Node11 -->
<g id="edge10" class="edge">
<title>Node10&#45;&gt;Node11</title>
<path fill="none" stroke="midnightblue" d="M736.15,-259C744.22,-259 752.94,-259 761.68,-259"/>
<polygon fill="midnightblue" stroke="midnightblue" points="761.92,-262.5 771.92,-259 761.92,-255.5 761.92,-262.5"/>
</g>
<!-- Node12&#45;&gt;Node6 -->
<g id="edge12" class="edge">
<title>Node12&#45;&gt;Node6</title>
<path fill="none" stroke="midnightblue" d="M454.85,-219.25C470.93,-216.59 488.29,-213.71 504.14,-211.09"/>
<polygon fill="midnightblue" stroke="midnightblue" points="505.02,-214.49 514.31,-209.4 503.87,-207.58 505.02,-214.49"/>
</g>
<!-- Node12&#45;&gt;Node10 -->
<g id="edge13" class="edge">
<title>Node12&#45;&gt;Node10</title>
<path fill="none" stroke="midnightblue" d="M454.81,-234.89C510.87,-240.51 594.29,-248.86 646.75,-254.12"/>
<polygon fill="midnightblue" stroke="midnightblue" points="646.51,-257.61 656.81,-255.12 647.21,-250.64 646.51,-257.61"/>
</g>
<!-- Node13&#45;&gt;Node6 -->
<g id="edge15" class="edge">
<title>Node13&#45;&gt;Node6</title>
<path fill="none" stroke="midnightblue" d="M447.28,-360.88C452.88,-358.09 458.26,-354.81 463,-351 507.79,-314.94 538.35,-252.13 551.58,-220.84"/>
<polygon fill="midnightblue" stroke="midnightblue" points="554.85,-222.1 555.4,-211.52 548.37,-219.44 554.85,-222.1"/>
</g>
<!-- Node13&#45;&gt;Node10 -->
<g id="edge16" class="edge">
<title>Node13&#45;&gt;Node10</title>
<path fill="none" stroke="midnightblue" d="M454.7,-364.13C501.22,-353.47 567.11,-335.55 621,-310 640.94,-300.54 661.48,-286.07 675.93,-274.95"/>
<polygon fill="midnightblue" stroke="midnightblue" points="678.38,-277.47 684.08,-268.53 674.05,-271.97 678.38,-277.47"/>
</g>
<!-- Node14&#45;&gt;Node6 -->
<g id="edge18" class="edge">
<title>Node14&#45;&gt;Node6</title>
<path fill="none" stroke="midnightblue" d="M454.85,-187.94C470.93,-190.11 488.29,-192.46 504.14,-194.6"/>
<polygon fill="midnightblue" stroke="midnightblue" points="503.93,-198.1 514.31,-195.97 504.87,-191.16 503.93,-198.1"/>
</g>
<!-- Node14&#45;&gt;Node10 -->
<g id="edge19" class="edge">
<title>Node14&#45;&gt;Node10</title>
<path fill="none" stroke="midnightblue" d="M454.92,-168.88C501.85,-162.77 568.2,-160.41 621,-183 648.76,-194.88 671.43,-222.55 684.2,-241.02"/>
<polygon fill="midnightblue" stroke="midnightblue" points="681.36,-243.07 689.81,-249.47 687.2,-239.21 681.36,-243.07"/>
</g>
<!-- Node15&#45;&gt;Node6 -->
<g id="edge21" class="edge">
<title>Node15&#45;&gt;Node6</title>
<path fill="none" stroke="midnightblue" d="M438.87,-262.96C446.96,-259.85 455.3,-256.46 463,-253 487.59,-241.94 514.63,-227.34 533.73,-216.6"/>
<polygon fill="midnightblue" stroke="midnightblue" points="535.71,-219.5 542.68,-211.52 532.26,-213.41 535.71,-219.5"/>
</g>
<!-- Node15&#45;&gt;Node10 -->
<g id="edge22" class="edge">
<title>Node15&#45;&gt;Node10</title>
<path fill="none" stroke="midnightblue" d="M454.81,-274.27C510.87,-270.71 594.29,-265.42 646.75,-262.09"/>
<polygon fill="midnightblue" stroke="midnightblue" points="647.05,-265.58 656.81,-261.45 646.61,-258.59 647.05,-265.58"/>
</g>
<!-- Node16&#45;&gt;Node6 -->
<g id="edge24" class="edge">
<title>Node16&#45;&gt;Node6</title>
<path fill="none" stroke="midnightblue" d="M444.5,-311.9C450.95,-309.04 457.29,-305.75 463,-302 497.64,-279.23 529.13,-241.82 546.03,-219.79"/>
<polygon fill="midnightblue" stroke="midnightblue" points="548.94,-221.73 552.15,-211.64 543.34,-217.53 548.94,-221.73"/>
</g>
<!-- Node16&#45;&gt;Node10 -->
<g id="edge25" class="edge">
<title>Node16&#45;&gt;Node10</title>
<path fill="none" stroke="midnightblue" d="M454.64,-316.97C500.26,-308.75 565.01,-296.2 621,-282 632.87,-278.99 645.66,-275.23 657.23,-271.63"/>
<polygon fill="midnightblue" stroke="midnightblue" points="658.56,-274.89 667.04,-268.53 656.45,-268.21 658.56,-274.89"/>
</g>
<!-- Node17&#45;&gt;Node6 -->
<g id="edge27" class="edge">
<title>Node17&#45;&gt;Node6</title>
<path fill="none" stroke="midnightblue" d="M440.37,-107.53C448.15,-110.05 456,-113.17 463,-117 495.64,-134.85 526.58,-165.62 544.12,-184.83"/>
<polygon fill="midnightblue" stroke="midnightblue" points="541.52,-187.17 550.79,-192.29 546.73,-182.5 541.52,-187.17"/>
</g>
<!-- Node17&#45;&gt;Node7 -->
<g id="edge28" class="edge">
<title>Node17&#45;&gt;Node7</title>
<path fill="none" stroke="midnightblue" d="M463.24,-98C471.66,-98 480.28,-98 488.74,-98"/>
<polygon fill="midnightblue" stroke="midnightblue" points="488.96,-101.5 498.96,-98 488.96,-94.5 488.96,-101.5"/>
</g>
<!-- Node18&#45;&gt;Node6 -->
<g id="edge32" class="edge">
<title>Node18&#45;&gt;Node6</title>
<path fill="none" stroke="midnightblue" d="M445.91,-69.05C451.94,-71.89 457.79,-75.18 463,-79 483.59,-94.09 525.91,-153.65 546.79,-184"/>
<polygon fill="midnightblue" stroke="midnightblue" points="544,-186.13 552.54,-192.41 549.78,-182.18 544,-186.13"/>
</g>
<!-- Node18&#45;&gt;Node7 -->
<g id="edge33" class="edge">
<title>Node18&#45;&gt;Node7</title>
<path fill="none" stroke="midnightblue" d="M451.64,-69.02C471.9,-74.49 494.54,-80.6 513.79,-85.8"/>
<polygon fill="midnightblue" stroke="midnightblue" points="512.95,-89.19 523.52,-88.42 514.77,-82.44 512.95,-89.19"/>
</g>
<!-- Node19&#45;&gt;Node6 -->
<g id="edge35" class="edge">
<title>Node19&#45;&gt;Node6</title>
<path fill="none" stroke="midnightblue" d="M448.25,-19.59C453.61,-22.05 458.67,-25.13 463,-29 494.51,-57.16 478.69,-79.95 499,-117 512.41,-141.46 531.47,-167.33 544.49,-184.02"/>
<polygon fill="midnightblue" stroke="midnightblue" points="542.07,-186.61 551.02,-192.28 547.56,-182.26 542.07,-186.61"/>
</g>
<!-- Node19&#45;&gt;Node7 -->
<g id="edge36" class="edge">
<title>Node19&#45;&gt;Node7</title>
<path fill="none" stroke="midnightblue" d="M438.29,-19.58C446.67,-22.14 455.27,-25.27 463,-29 492.33,-43.16 522.19,-66.28 540.65,-81.81"/>
<polygon fill="midnightblue" stroke="midnightblue" points="538.41,-84.5 548.28,-88.35 542.97,-79.19 538.41,-84.5"/>
</g>
</g>
</svg>
