<?xml version="1.0" encoding="UTF-8" standalone="no"?>
<!DOCTYPE svg PUBLIC "-//W3C//DTD SVG 1.1//EN"
 "http://www.w3.org/Graphics/SVG/1.1/DTD/svg11.dtd">
<!-- Generated by graphviz version 2.43.0 (0)
 -->
<!-- Title: as_iic_busy_wait_for_ioready Pages: 1 -->
<svg width="699pt" height="104pt"
 viewBox="0.00 0.00 699.00 104.00" xmlns="http://www.w3.org/2000/svg" xmlns:xlink="http://www.w3.org/1999/xlink">
<g id="graph0" class="graph" transform="scale(1 1) rotate(0) translate(4 100)">
<title>as_iic_busy_wait_for_ioready</title>
<!-- Node1 -->
<g id="node1" class="node">
<title>Node1</title>
<g id="a_node1"><a xlink:title=" ">
<polygon fill="#bfbfbf" stroke="black" points="0,-52 0,-82 118,-82 118,-52 0,-52"/>
<text text-anchor="start" x="8" y="-70" font-family="Helvetica,sans-Serif" font-size="10.00">as_iic_busy_wait_for</text>
<text text-anchor="middle" x="59" y="-59" font-family="Helvetica,sans-Serif" font-size="10.00">_ioready</text>
</a>
</g>
</g>
<!-- Node2 -->
<g id="node2" class="node">
<title>Node2</title>
<g id="a_node2"><a xlink:href="group__as__iic__bitchecks.html#ga031fa9683d4d6a0a68e65917d5a0610a" target="_top" xlink:title=" ">
<polygon fill="none" stroke="black" points="154,-76.5 154,-95.5 259,-95.5 259,-76.5 154,-76.5"/>
<text text-anchor="middle" x="206.5" y="-83.5" font-family="Helvetica,sans-Serif" font-size="10.00">as_iic_is_io_ready</text>
</a>
</g>
</g>
<!-- Node1&#45;&gt;Node2 -->
<g id="edge1" class="edge">
<title>Node1&#45;&gt;Node2</title>
<path fill="none" stroke="midnightblue" d="M118.34,-74.62C126.66,-75.7 135.24,-76.83 143.62,-77.92"/>
<polygon fill="midnightblue" stroke="midnightblue" points="143.35,-81.41 153.72,-79.24 144.26,-74.47 143.35,-81.41"/>
</g>
<!-- Node6 -->
<g id="node6" class="node">
<title>Node6</title>
<g id="a_node6"><a xlink:href="group__asterics__support.html#gab803703ab5b845023ca31b7b2664419c" target="_top" xlink:title=" ">
<polygon fill="none" stroke="black" points="177,-38.5 177,-57.5 236,-57.5 236,-38.5 177,-38.5"/>
<text text-anchor="middle" x="206.5" y="-45.5" font-family="Helvetica,sans-Serif" font-size="10.00">as_sleep</text>
</a>
</g>
</g>
<!-- Node1&#45;&gt;Node6 -->
<g id="edge5" class="edge">
<title>Node1&#45;&gt;Node6</title>
<path fill="none" stroke="midnightblue" d="M118.34,-59.38C134.5,-57.27 151.65,-55.03 166.42,-53.1"/>
<polygon fill="midnightblue" stroke="midnightblue" points="167.25,-56.53 176.71,-51.76 166.34,-49.58 167.25,-56.53"/>
</g>
<!-- Node3 -->
<g id="node3" class="node">
<title>Node3</title>
<g id="a_node3"><a xlink:href="group__as__iic__reg__funcs.html#ga8daa8fde0a7776aa2f5b335250b5aa2a" target="_top" xlink:title=" ">
<polygon fill="none" stroke="black" points="295,-76.5 295,-95.5 417,-95.5 417,-76.5 295,-76.5"/>
<text text-anchor="middle" x="356" y="-83.5" font-family="Helvetica,sans-Serif" font-size="10.00">as_iic_get_status_reg</text>
</a>
</g>
</g>
<!-- Node2&#45;&gt;Node3 -->
<g id="edge2" class="edge">
<title>Node2&#45;&gt;Node3</title>
<path fill="none" stroke="midnightblue" d="M259.09,-86C267.39,-86 276.1,-86 284.75,-86"/>
<polygon fill="midnightblue" stroke="midnightblue" points="284.84,-89.5 294.84,-86 284.84,-82.5 284.84,-89.5"/>
</g>
<!-- Node4 -->
<g id="node4" class="node">
<title>Node4</title>
<g id="a_node4"><a xlink:href="group__asterics__support.html#ga8e5c2bfd2e4498d10289377bd94cef07" target="_top" xlink:title=" ">
<polygon fill="none" stroke="black" points="466,-76.5 466,-95.5 542,-95.5 542,-76.5 466,-76.5"/>
<text text-anchor="middle" x="504" y="-83.5" font-family="Helvetica,sans-Serif" font-size="10.00">as_reg_read</text>
</a>
</g>
</g>
<!-- Node3&#45;&gt;Node4 -->
<g id="edge3" class="edge">
<title>Node3&#45;&gt;Node4</title>
<path fill="none" stroke="midnightblue" d="M417.23,-86C430.11,-86 443.55,-86 455.86,-86"/>
<polygon fill="midnightblue" stroke="midnightblue" points="455.9,-89.5 465.9,-86 455.9,-82.5 455.9,-89.5"/>
</g>
<!-- Node5 -->
<g id="node5" class="node">
<title>Node5</title>
<g id="a_node5"><a xlink:href="group__asterics__support.html#ga4c6d688b840a6e2edc9bc0b8ed961677" target="_top" xlink:title=" ">
<polygon fill="none" stroke="black" points="591,-76.5 591,-95.5 691,-95.5 691,-76.5 591,-76.5"/>
<text text-anchor="middle" x="641" y="-83.5" font-family="Helvetica,sans-Serif" font-size="10.00">as_reg_to_uint32</text>
</a>
</g>
</g>
<!-- Node4&#45;&gt;Node5 -->
<g id="edge4" class="edge">
<title>Node4&#45;&gt;Node5</title>
<path fill="none" stroke="midnightblue" d="M542.25,-86C554.07,-86 567.46,-86 580.44,-86"/>
<polygon fill="midnightblue" stroke="midnightblue" points="580.74,-89.5 590.74,-86 580.74,-82.5 580.74,-89.5"/>
</g>
<!-- Node7 -->
<g id="node7" class="node">
<title>Node7</title>
<g id="a_node7"><a xlink:href="group__asterics__support.html#ga284d9e0d170cf7cabc16ccd7e62d95bd" target="_top" xlink:title=" ">
<polygon fill="none" stroke="black" points="327.5,-38.5 327.5,-57.5 384.5,-57.5 384.5,-38.5 327.5,-38.5"/>
<text text-anchor="middle" x="356" y="-45.5" font-family="Helvetica,sans-Serif" font-size="10.00">as_yield</text>
</a>
</g>
</g>
<!-- Node6&#45;&gt;Node7 -->
<g id="edge6" class="edge">
<title>Node6&#45;&gt;Node7</title>
<path fill="none" stroke="midnightblue" d="M236.29,-48C259.32,-48 291.82,-48 316.99,-48"/>
<polygon fill="midnightblue" stroke="midnightblue" points="317.28,-51.5 327.28,-48 317.28,-44.5 317.28,-51.5"/>
</g>
<!-- Node8 -->
<g id="node8" class="node">
<title>Node8</title>
<g id="a_node8"><a xlink:href="group__asterics__support.html#gad294e0c5530bd6fb800a2394179070e1" target="_top" xlink:title=" ">
<polygon fill="none" stroke="black" points="459,-38.5 459,-57.5 549,-57.5 549,-38.5 459,-38.5"/>
<text text-anchor="middle" x="504" y="-45.5" font-family="Helvetica,sans-Serif" font-size="10.00">as_mutex_lock</text>
</a>
</g>
</g>
<!-- Node7&#45;&gt;Node8 -->
<g id="edge7" class="edge">
<title>Node7&#45;&gt;Node8</title>
<path fill="none" stroke="midnightblue" d="M384.81,-48C402.88,-48 427.04,-48 448.8,-48"/>
<polygon fill="midnightblue" stroke="midnightblue" points="448.93,-51.5 458.93,-48 448.93,-44.5 448.93,-51.5"/>
</g>
<!-- Node9 -->
<g id="node9" class="node">
<title>Node9</title>
<g id="a_node9"><a xlink:href="group__asterics__support.html#ga07e09e825f2608339f6213edb9d0c8b3" target="_top" xlink:title=" ">
<polygon fill="none" stroke="black" points="453,-0.5 453,-19.5 555,-19.5 555,-0.5 453,-0.5"/>
<text text-anchor="middle" x="504" y="-7.5" font-family="Helvetica,sans-Serif" font-size="10.00">as_mutex_unlock</text>
</a>
</g>
</g>
<!-- Node7&#45;&gt;Node9 -->
<g id="edge8" class="edge">
<title>Node7&#45;&gt;Node9</title>
<path fill="none" stroke="midnightblue" d="M384.81,-40.76C405.08,-35.49 433.01,-28.22 456.63,-22.07"/>
<polygon fill="midnightblue" stroke="midnightblue" points="457.66,-25.42 466.46,-19.51 455.9,-18.64 457.66,-25.42"/>
</g>
</g>
</svg>
