<?xml version="1.0" encoding="UTF-8" standalone="no"?>
<!DOCTYPE svg PUBLIC "-//W3C//DTD SVG 1.1//EN"
 "http://www.w3.org/Graphics/SVG/1.1/DTD/svg11.dtd">
<!-- Generated by graphviz version 2.43.0 (0)
 -->
<!-- Title: as_malloc Pages: 1 -->
<svg width="529pt" height="75pt"
 viewBox="0.00 0.00 529.00 75.00" xmlns="http://www.w3.org/2000/svg" xmlns:xlink="http://www.w3.org/1999/xlink">
<g id="graph0" class="graph" transform="scale(1 1) rotate(0) translate(4 71)">
<title>as_malloc</title>
<!-- Node1 -->
<g id="node1" class="node">
<title>Node1</title>
<g id="a_node1"><a xlink:title=" ">
<polygon fill="#bfbfbf" stroke="black" points="455,-28.5 455,-47.5 521,-47.5 521,-28.5 455,-28.5"/>
<text text-anchor="middle" x="488" y="-35.5" font-family="Helvetica,sans-Serif" font-size="10.00">as_malloc</text>
</a>
</g>
</g>
<!-- Node2 -->
<g id="node2" class="node">
<title>Node2</title>
<g id="a_node2"><a xlink:href="group__as__buffer.html#ga90f980b27c24955418f94f617402c7e7" target="_top" xlink:title=" ">
<polygon fill="none" stroke="black" points="300,-28.5 300,-47.5 419,-47.5 419,-28.5 300,-28.5"/>
<text text-anchor="middle" x="359.5" y="-35.5" font-family="Helvetica,sans-Serif" font-size="10.00">as_buffer_obj_create</text>
</a>
</g>
</g>
<!-- Node1&#45;&gt;Node2 -->
<g id="edge1" class="edge">
<title>Node1&#45;&gt;Node2</title>
<path fill="none" stroke="midnightblue" d="M444.72,-38C436.55,-38 427.84,-38 419.25,-38"/>
<polygon fill="midnightblue" stroke="midnightblue" points="444.75,-41.5 454.75,-38 444.75,-34.5 444.75,-41.5"/>
</g>
<!-- Node3 -->
<g id="node3" class="node">
<title>Node3</title>
<g id="a_node3"><a xlink:href="group__ctrl__file__ops.html#gae869fa3bd595179fcf2a22ff931aee9c" target="_top" xlink:title=" ">
<polygon fill="none" stroke="black" points="169,-47.5 169,-66.5 262,-66.5 262,-47.5 169,-47.5"/>
<text text-anchor="middle" x="215.5" y="-54.5" font-family="Helvetica,sans-Serif" font-size="10.00">as_control_ioctl</text>
</a>
</g>
</g>
<!-- Node1&#45;&gt;Node3 -->
<g id="edge5" class="edge">
<title>Node1&#45;&gt;Node3</title>
<path fill="none" stroke="midnightblue" d="M449.66,-50.4C439.8,-53.13 429.09,-55.62 419,-57 365.54,-64.33 303.38,-62.87 262.18,-60.52"/>
<polygon fill="midnightblue" stroke="midnightblue" points="450.95,-53.67 459.57,-47.5 448.99,-46.95 450.95,-53.67"/>
</g>
<!-- Node4 -->
<g id="node4" class="node">
<title>Node4</title>
<g id="a_node4"><a xlink:href="as__memio_8h.html#acb0c0a633ce7890008c6f6f1f2eca285" target="_top" xlink:title=" ">
<polygon fill="none" stroke="black" points="167,-0.5 167,-19.5 264,-19.5 264,-0.5 167,-0.5"/>
<text text-anchor="middle" x="215.5" y="-7.5" font-family="Helvetica,sans-Serif" font-size="10.00">as_memio_open</text>
</a>
</g>
</g>
<!-- Node1&#45;&gt;Node4 -->
<g id="edge6" class="edge">
<title>Node1&#45;&gt;Node4</title>
<path fill="none" stroke="midnightblue" d="M448.82,-25.69C439.19,-23.04 428.79,-20.56 419,-19 366.53,-10.62 305.5,-8.99 264.27,-9.07"/>
<polygon fill="midnightblue" stroke="midnightblue" points="447.96,-29.08 458.54,-28.49 449.9,-22.36 447.96,-29.08"/>
</g>
<!-- Node2&#45;&gt;Node3 -->
<g id="edge2" class="edge">
<title>Node2&#45;&gt;Node3</title>
<path fill="none" stroke="midnightblue" d="M289.86,-47.18C280.53,-48.43 271.15,-49.69 262.36,-50.86"/>
<polygon fill="midnightblue" stroke="midnightblue" points="290.48,-50.63 299.92,-45.84 289.55,-43.69 290.48,-50.63"/>
</g>
<!-- Node2&#45;&gt;Node4 -->
<g id="edge3" class="edge">
<title>Node2&#45;&gt;Node4</title>
<path fill="none" stroke="midnightblue" d="M300.15,-26.49C288.21,-24.14 275.78,-21.69 264.27,-19.42"/>
<polygon fill="midnightblue" stroke="midnightblue" points="299.54,-29.94 310.03,-28.44 300.89,-23.07 299.54,-29.94"/>
</g>
<!-- Node5 -->
<g id="node5" class="node">
<title>Node5</title>
<g id="a_node5"><a xlink:href="group__memio__file__ops.html#ga6a581341bc6e2a1ed45c56c0fc7bcece" target="_top" xlink:title=" ">
<polygon fill="none" stroke="black" points="0,-0.5 0,-19.5 131,-19.5 131,-0.5 0,-0.5"/>
<text text-anchor="middle" x="65.5" y="-7.5" font-family="Helvetica,sans-Serif" font-size="10.00">driver_as_memio_open</text>
</a>
</g>
</g>
<!-- Node4&#45;&gt;Node5 -->
<g id="edge4" class="edge">
<title>Node4&#45;&gt;Node5</title>
<path fill="none" stroke="midnightblue" d="M156.75,-10C148.33,-10 139.6,-10 131.05,-10"/>
<polygon fill="midnightblue" stroke="midnightblue" points="156.86,-13.5 166.86,-10 156.86,-6.5 156.86,-13.5"/>
</g>
</g>
</svg>
