<?xml version="1.0" encoding="UTF-8" standalone="no"?>
<!DOCTYPE svg PUBLIC "-//W3C//DTD SVG 1.1//EN"
 "http://www.w3.org/Graphics/SVG/1.1/DTD/svg11.dtd">
<!-- Generated by graphviz version 2.43.0 (0)
 -->
<!-- Title: vears_draw_circle Pages: 1 -->
<svg width="407pt" height="66pt"
 viewBox="0.00 0.00 407.00 66.00" xmlns="http://www.w3.org/2000/svg" xmlns:xlink="http://www.w3.org/1999/xlink">
<g id="graph0" class="graph" transform="scale(1 1) rotate(0) translate(4 62)">
<title>vears_draw_circle</title>
<!-- Node1 -->
<g id="node1" class="node">
<title>Node1</title>
<g id="a_node1"><a xlink:title="Draw a circle of radius r around (x, y).">
<polygon fill="#bfbfbf" stroke="black" points="0,-19.5 0,-38.5 104,-38.5 104,-19.5 0,-19.5"/>
<text text-anchor="middle" x="52" y="-26.5" font-family="Helvetica,sans-Serif" font-size="10.00">vears_draw_circle</text>
</a>
</g>
</g>
<!-- Node2 -->
<g id="node2" class="node">
<title>Node2</title>
<g id="a_node2"><a xlink:href="ea__draw__circle_8c.html#ab7f4ab5a5bd6de4d80428e84b526cb6b" target="_top" xlink:title=" ">
<polygon fill="none" stroke="black" points="163,-38.5 163,-57.5 252,-57.5 252,-38.5 163,-38.5"/>
<text text-anchor="middle" x="207.5" y="-45.5" font-family="Helvetica,sans-Serif" font-size="10.00">ea_draw_circle</text>
</a>
</g>
</g>
<!-- Node1&#45;&gt;Node2 -->
<g id="edge1" class="edge">
<title>Node1&#45;&gt;Node2</title>
<path fill="none" stroke="midnightblue" d="M104.11,-35.33C119.71,-37.26 136.9,-39.39 152.67,-41.34"/>
<polygon fill="midnightblue" stroke="midnightblue" points="152.44,-44.84 162.8,-42.59 153.3,-37.89 152.44,-44.84"/>
</g>
<!-- Node4 -->
<g id="node4" class="node">
<title>Node4</title>
<g id="a_node4"><a xlink:href="vears_8c.html#a5c9f2a05f3fe62106f55e90dbcc9cf53" target="_top" xlink:title=" ">
<polygon fill="none" stroke="black" points="140,-0.5 140,-19.5 275,-19.5 275,-0.5 140,-0.5"/>
<text text-anchor="middle" x="207.5" y="-7.5" font-family="Helvetica,sans-Serif" font-size="10.00">flush_cache_for_overlay</text>
</a>
</g>
</g>
<!-- Node1&#45;&gt;Node4 -->
<g id="edge3" class="edge">
<title>Node1&#45;&gt;Node4</title>
<path fill="none" stroke="midnightblue" d="M104.11,-22.67C112.32,-21.66 120.98,-20.59 129.63,-19.51"/>
<polygon fill="midnightblue" stroke="midnightblue" points="130.28,-22.96 139.77,-18.26 129.42,-16.01 130.28,-22.96"/>
</g>
<!-- Node3 -->
<g id="node3" class="node">
<title>Node3</title>
<g id="a_node3"><a xlink:href="ea__draw__point_8c.html#a061e9dc2b155528bc460f9c692659ed2" target="_top" xlink:title=" ">
<polygon fill="none" stroke="black" points="311,-38.5 311,-57.5 399,-57.5 399,-38.5 311,-38.5"/>
<text text-anchor="middle" x="355" y="-45.5" font-family="Helvetica,sans-Serif" font-size="10.00">ea_draw_point</text>
</a>
</g>
</g>
<!-- Node2&#45;&gt;Node3 -->
<g id="edge2" class="edge">
<title>Node2&#45;&gt;Node3</title>
<path fill="none" stroke="midnightblue" d="M252.15,-48C267.4,-48 284.68,-48 300.63,-48"/>
<polygon fill="midnightblue" stroke="midnightblue" points="300.88,-51.5 310.88,-48 300.88,-44.5 300.88,-51.5"/>
</g>
</g>
</svg>
