<?xml version="1.0" encoding="UTF-8" standalone="no"?>
<!DOCTYPE svg PUBLIC "-//W3C//DTD SVG 1.1//EN"
 "http://www.w3.org/Graphics/SVG/1.1/DTD/svg11.dtd">
<!-- Generated by graphviz version 2.43.0 (0)
 -->
<!-- Title: as_iic_read_regs Pages: 1 -->
<svg width="1541pt" height="557pt"
 viewBox="0.00 0.00 1541.00 556.99" xmlns="http://www.w3.org/2000/svg" xmlns:xlink="http://www.w3.org/1999/xlink">
<g id="graph0" class="graph" transform="scale(1 1) rotate(0) translate(4 552.99)">
<title>as_iic_read_regs</title>
<!-- Node1 -->
<g id="node1" class="node">
<title>Node1</title>
<g id="a_node1"><a xlink:title=" ">
<polygon fill="#bfbfbf" stroke="black" points="0,-163.58 0,-182.58 98,-182.58 98,-163.58 0,-163.58"/>
<text text-anchor="middle" x="49" y="-170.58" font-family="Helvetica,sans-Serif" font-size="10.00">as_iic_read_regs</text>
</a>
</g>
</g>
<!-- Node2 -->
<g id="node2" class="node">
<title>Node2</title>
<g id="a_node2"><a xlink:href="group__as__iic__helpers.html#ga1662a1a0b29536bf7d74ede3f73598be" target="_top" xlink:title=" ">
<polygon fill="none" stroke="black" points="618,-382.58 618,-401.58 749,-401.58 749,-382.58 618,-382.58"/>
<text text-anchor="middle" x="683.5" y="-389.58" font-family="Helvetica,sans-Serif" font-size="10.00">as_iic_read_transaction</text>
</a>
</g>
</g>
<!-- Node1&#45;&gt;Node2 -->
<g id="edge1" class="edge">
<title>Node1&#45;&gt;Node2</title>
<path fill="none" stroke="midnightblue" d="M70.86,-182.59C87.74,-190.14 112.2,-200.78 134,-209.08 320.98,-280.19 549.23,-351.48 641.19,-379.58"/>
<polygon fill="midnightblue" stroke="midnightblue" points="640.36,-382.99 650.95,-382.55 642.4,-376.29 640.36,-382.99"/>
</g>
<!-- Node9 -->
<g id="node9" class="node">
<title>Node9</title>
<g id="a_node9"><a xlink:href="group__asterics__support.html#gab803703ab5b845023ca31b7b2664419c" target="_top" xlink:title=" ">
<polygon fill="none" stroke="black" points="1004,-110.58 1004,-129.58 1063,-129.58 1063,-110.58 1004,-110.58"/>
<text text-anchor="middle" x="1033.5" y="-117.58" font-family="Helvetica,sans-Serif" font-size="10.00">as_sleep</text>
</a>
</g>
</g>
<!-- Node1&#45;&gt;Node9 -->
<g id="edge53" class="edge">
<title>Node1&#45;&gt;Node9</title>
<path fill="none" stroke="midnightblue" d="M57.95,-163.53C89.07,-127.26 207.28,-0.08 334,-0.08 334,-0.08 334,-0.08 684.5,-0.08 801.79,-0.08 837.53,1.13 944,-48.08 972.74,-61.36 1000.09,-86.12 1016.59,-102.85"/>
<polygon fill="midnightblue" stroke="midnightblue" points="1014.32,-105.55 1023.77,-110.34 1019.37,-100.7 1014.32,-105.55"/>
</g>
<!-- Node20 -->
<g id="node20" class="node">
<title>Node20</title>
<g id="a_node20"><a xlink:href="group__as__iic__helpers.html#ga53e6050a2c66be89ac23084fd9de9c23" target="_top" xlink:title=" ">
<polygon fill="none" stroke="black" points="435,-230.58 435,-249.58 567,-249.58 567,-230.58 435,-230.58"/>
<text text-anchor="middle" x="501" y="-237.58" font-family="Helvetica,sans-Serif" font-size="10.00">as_iic_start_transaction</text>
</a>
</g>
</g>
<!-- Node1&#45;&gt;Node20 -->
<g id="edge23" class="edge">
<title>Node1&#45;&gt;Node20</title>
<path fill="none" stroke="midnightblue" d="M98.39,-181.32C110.04,-183.26 122.46,-185.28 134,-187.08 234.43,-202.71 350.61,-219.28 424.65,-229.64"/>
<polygon fill="midnightblue" stroke="midnightblue" points="424.43,-233.15 434.81,-231.06 425.4,-226.21 424.43,-233.15"/>
</g>
<!-- Node26 -->
<g id="node26" class="node">
<title>Node26</title>
<g id="a_node26"><a xlink:href="group__as__iic__helpers.html#gaa8ce9ac10b8c2ca9b614110ca5cbeff5" target="_top" xlink:title=" ">
<polygon fill="none" stroke="black" points="604.5,-154.58 604.5,-173.58 762.5,-173.58 762.5,-154.58 604.5,-154.58"/>
<text text-anchor="middle" x="683.5" y="-161.58" font-family="Helvetica,sans-Serif" font-size="10.00">as_iic_stop_read_transaction</text>
</a>
</g>
</g>
<!-- Node1&#45;&gt;Node26 -->
<g id="edge43" class="edge">
<title>Node1&#45;&gt;Node26</title>
<path fill="none" stroke="midnightblue" d="M98.06,-172.39C203.91,-170.89 458.53,-167.26 594.09,-165.33"/>
<polygon fill="midnightblue" stroke="midnightblue" points="594.49,-168.83 604.44,-165.19 594.39,-161.83 594.49,-168.83"/>
</g>
<!-- Node27 -->
<g id="node27" class="node">
<title>Node27</title>
<g id="a_node27"><a xlink:href="group__as__iic__user.html#ga35cd65c29b1f4abd1ca87ca51605e5cc" target="_top" xlink:title=" ">
<polygon fill="none" stroke="black" points="134,-125.58 134,-144.58 235,-144.58 235,-125.58 134,-125.58"/>
<text text-anchor="middle" x="184.5" y="-132.58" font-family="Helvetica,sans-Serif" font-size="10.00">as_iic_write_byte</text>
</a>
</g>
</g>
<!-- Node1&#45;&gt;Node27 -->
<g id="edge49" class="edge">
<title>Node1&#45;&gt;Node27</title>
<path fill="none" stroke="midnightblue" d="M83.69,-163.49C100.76,-158.63 121.7,-152.67 139.98,-147.46"/>
<polygon fill="midnightblue" stroke="midnightblue" points="141.16,-150.77 149.82,-144.66 139.25,-144.03 141.16,-150.77"/>
</g>
<!-- Node3 -->
<g id="node3" class="node">
<title>Node3</title>
<g id="a_node3"><a xlink:href="group__as__iic__bitchecks.html#gaa4e8718c748b5a7e956a38ffd6dbe15d" target="_top" xlink:title=" ">
<polygon fill="none" stroke="black" points="815,-344.58 815,-363.58 929,-363.58 929,-344.58 815,-344.58"/>
<text text-anchor="middle" x="872" y="-351.58" font-family="Helvetica,sans-Serif" font-size="10.00">as_iic_ack_received</text>
</a>
</g>
</g>
<!-- Node2&#45;&gt;Node3 -->
<g id="edge2" class="edge">
<title>Node2&#45;&gt;Node3</title>
<path fill="none" stroke="midnightblue" d="M731.56,-382.49C756.73,-377.36 787.9,-371.01 814.38,-365.61"/>
<polygon fill="midnightblue" stroke="midnightblue" points="815.18,-369.02 824.28,-363.6 813.78,-362.16 815.18,-369.02"/>
</g>
<!-- Node7 -->
<g id="node7" class="node">
<title>Node7</title>
<g id="a_node7"><a xlink:href="group__as__iic__wait.html#ga0bc5aad64893b674c42943fb64d17676" target="_top" xlink:title=" ">
<polygon fill="none" stroke="black" points="800,-458.58 800,-477.58 944,-477.58 944,-458.58 800,-458.58"/>
<text text-anchor="middle" x="872" y="-465.58" font-family="Helvetica,sans-Serif" font-size="10.00">as_iic_busy_wait_for_wait</text>
</a>
</g>
</g>
<!-- Node2&#45;&gt;Node7 -->
<g id="edge6" class="edge">
<title>Node2&#45;&gt;Node7</title>
<path fill="none" stroke="midnightblue" d="M701.25,-401.66C723.31,-413.96 763.59,-435.37 800,-449.08 806.34,-451.46 813.1,-453.67 819.84,-455.68"/>
<polygon fill="midnightblue" stroke="midnightblue" points="819.06,-459.1 829.64,-458.48 820.98,-452.37 819.06,-459.1"/>
</g>
<!-- Node13 -->
<g id="node13" class="node">
<title>Node13</title>
<g id="a_node13"><a xlink:href="group__as__iic__reg__funcs.html#gace5813084165559c81fe11db6b628b5e" target="_top" xlink:title=" ">
<polygon fill="none" stroke="black" points="818.5,-420.58 818.5,-439.58 925.5,-439.58 925.5,-420.58 818.5,-420.58"/>
<text text-anchor="middle" x="872" y="-427.58" font-family="Helvetica,sans-Serif" font-size="10.00">as_iic_get_rx_byte</text>
</a>
</g>
</g>
<!-- Node2&#45;&gt;Node13 -->
<g id="edge13" class="edge">
<title>Node2&#45;&gt;Node13</title>
<path fill="none" stroke="midnightblue" d="M731.56,-401.66C756.73,-406.79 787.9,-413.14 814.38,-418.54"/>
<polygon fill="midnightblue" stroke="midnightblue" points="813.78,-421.99 824.28,-420.56 815.18,-415.13 813.78,-421.99"/>
</g>
<!-- Node14 -->
<g id="node14" class="node">
<title>Node14</title>
<g id="a_node14"><a xlink:href="group__as__iic__bitchecks.html#ga2ef7a1f9767986f2033697f584cd4feb" target="_top" xlink:title=" ">
<polygon fill="none" stroke="black" points="817,-496.58 817,-515.58 927,-515.58 927,-496.58 817,-496.58"/>
<text text-anchor="middle" x="872" y="-503.58" font-family="Helvetica,sans-Serif" font-size="10.00">as_iic_is_readwrite</text>
</a>
</g>
</g>
<!-- Node2&#45;&gt;Node14 -->
<g id="edge15" class="edge">
<title>Node2&#45;&gt;Node14</title>
<path fill="none" stroke="midnightblue" d="M693.38,-401.74C711.53,-420.92 754.97,-463.93 800,-487.08 804.49,-489.39 809.3,-491.44 814.21,-493.25"/>
<polygon fill="midnightblue" stroke="midnightblue" points="813.13,-496.58 823.73,-496.46 815.37,-489.95 813.13,-496.58"/>
</g>
<!-- Node16 -->
<g id="node16" class="node">
<title>Node16</title>
<g id="a_node16"><a xlink:href="group__as__iic__user.html#gae03c311fae3d6a830878a2b0c2c1c2bf" target="_top" xlink:title=" ">
<polygon fill="none" stroke="black" points="810,-230.58 810,-249.58 934,-249.58 934,-230.58 810,-230.58"/>
<text text-anchor="middle" x="872" y="-237.58" font-family="Helvetica,sans-Serif" font-size="10.00">as_iic_reset_hw_state</text>
</a>
</g>
</g>
<!-- Node2&#45;&gt;Node16 -->
<g id="edge18" class="edge">
<title>Node2&#45;&gt;Node16</title>
<path fill="none" stroke="midnightblue" d="M696.17,-382.57C727.3,-357.19 812.63,-287.64 851.39,-256.06"/>
<polygon fill="midnightblue" stroke="midnightblue" points="853.8,-258.61 859.34,-249.58 849.38,-253.18 853.8,-258.61"/>
</g>
<!-- Node17 -->
<g id="node17" class="node">
<title>Node17</title>
<g id="a_node17"><a xlink:href="group__as__iic__reg__funcs.html#gac83a48fc09234a7a99adafb1ce565eb0" target="_top" xlink:title=" ">
<polygon fill="none" stroke="black" points="981.5,-249.58 981.5,-268.58 1085.5,-268.58 1085.5,-249.58 981.5,-249.58"/>
<text text-anchor="middle" x="1033.5" y="-256.58" font-family="Helvetica,sans-Serif" font-size="10.00">as_iic_set_control</text>
</a>
</g>
</g>
<!-- Node2&#45;&gt;Node17 -->
<g id="edge22" class="edge">
<title>Node2&#45;&gt;Node17</title>
<path fill="none" stroke="midnightblue" d="M730.25,-401.62C785.9,-410.55 880.28,-416.74 944,-373.08 974.83,-351.95 956.11,-325.82 980,-297.08 987.3,-288.29 997.07,-280.49 1006.2,-274.28"/>
<polygon fill="midnightblue" stroke="midnightblue" points="1008.15,-277.2 1014.66,-268.84 1004.36,-271.31 1008.15,-277.2"/>
</g>
<!-- Node4 -->
<g id="node4" class="node">
<title>Node4</title>
<g id="a_node4"><a xlink:href="group__as__iic__reg__funcs.html#ga8daa8fde0a7776aa2f5b335250b5aa2a" target="_top" xlink:title=" ">
<polygon fill="none" stroke="black" points="1124.5,-344.58 1124.5,-363.58 1246.5,-363.58 1246.5,-344.58 1124.5,-344.58"/>
<text text-anchor="middle" x="1185.5" y="-351.58" font-family="Helvetica,sans-Serif" font-size="10.00">as_iic_get_status_reg</text>
</a>
</g>
</g>
<!-- Node3&#45;&gt;Node4 -->
<g id="edge3" class="edge">
<title>Node3&#45;&gt;Node4</title>
<path fill="none" stroke="midnightblue" d="M929.05,-354.08C980.91,-354.08 1058.21,-354.08 1114.19,-354.08"/>
<polygon fill="midnightblue" stroke="midnightblue" points="1114.38,-357.58 1124.38,-354.08 1114.38,-350.58 1114.38,-357.58"/>
</g>
<!-- Node5 -->
<g id="node5" class="node">
<title>Node5</title>
<g id="a_node5"><a xlink:href="group__asterics__support.html#ga8e5c2bfd2e4498d10289377bd94cef07" target="_top" xlink:title=" ">
<polygon fill="none" stroke="black" points="1302.5,-401.58 1302.5,-420.58 1378.5,-420.58 1378.5,-401.58 1302.5,-401.58"/>
<text text-anchor="middle" x="1340.5" y="-408.58" font-family="Helvetica,sans-Serif" font-size="10.00">as_reg_read</text>
</a>
</g>
</g>
<!-- Node4&#45;&gt;Node5 -->
<g id="edge4" class="edge">
<title>Node4&#45;&gt;Node5</title>
<path fill="none" stroke="midnightblue" d="M1212.11,-363.62C1237.37,-373.03 1276.19,-387.49 1304.34,-397.98"/>
<polygon fill="midnightblue" stroke="midnightblue" points="1303.21,-401.29 1313.81,-401.5 1305.66,-394.73 1303.21,-401.29"/>
</g>
<!-- Node6 -->
<g id="node6" class="node">
<title>Node6</title>
<g id="a_node6"><a xlink:href="group__asterics__support.html#ga4c6d688b840a6e2edc9bc0b8ed961677" target="_top" xlink:title=" ">
<polygon fill="none" stroke="black" points="1433,-401.58 1433,-420.58 1533,-420.58 1533,-401.58 1433,-401.58"/>
<text text-anchor="middle" x="1483" y="-408.58" font-family="Helvetica,sans-Serif" font-size="10.00">as_reg_to_uint32</text>
</a>
</g>
</g>
<!-- Node5&#45;&gt;Node6 -->
<g id="edge5" class="edge">
<title>Node5&#45;&gt;Node6</title>
<path fill="none" stroke="midnightblue" d="M1378.78,-411.08C1392.26,-411.08 1407.83,-411.08 1422.72,-411.08"/>
<polygon fill="midnightblue" stroke="midnightblue" points="1422.89,-414.58 1432.89,-411.08 1422.89,-407.58 1422.89,-414.58"/>
</g>
<!-- Node8 -->
<g id="node8" class="node">
<title>Node8</title>
<g id="a_node8"><a xlink:href="group__as__iic__bitchecks.html#ga4629e4514c3531d0bcd44ae20abc6bad" target="_top" xlink:title=" ">
<polygon fill="none" stroke="black" points="984,-420.58 984,-439.58 1083,-439.58 1083,-420.58 984,-420.58"/>
<text text-anchor="middle" x="1033.5" y="-427.58" font-family="Helvetica,sans-Serif" font-size="10.00">as_iic_is_waiting</text>
</a>
</g>
</g>
<!-- Node7&#45;&gt;Node8 -->
<g id="edge7" class="edge">
<title>Node7&#45;&gt;Node8</title>
<path fill="none" stroke="midnightblue" d="M913.25,-458.49C934.3,-453.47 960.26,-447.29 982.57,-441.97"/>
<polygon fill="midnightblue" stroke="midnightblue" points="983.62,-445.32 992.54,-439.6 982,-438.51 983.62,-445.32"/>
</g>
<!-- Node7&#45;&gt;Node9 -->
<g id="edge9" class="edge">
<title>Node7&#45;&gt;Node9</title>
<path fill="none" stroke="midnightblue" d="M931.66,-458.56C936.25,-456.05 940.47,-452.94 944,-449.08 1007.55,-379.47 952.91,-330.36 980,-240.08 991.16,-202.89 1010.78,-161.93 1022.62,-138.77"/>
<polygon fill="midnightblue" stroke="midnightblue" points="1025.81,-140.21 1027.31,-129.73 1019.6,-136.99 1025.81,-140.21"/>
</g>
<!-- Node8&#45;&gt;Node4 -->
<g id="edge8" class="edge">
<title>Node8&#45;&gt;Node4</title>
<path fill="none" stroke="midnightblue" d="M1053.5,-420.45C1079.53,-407.26 1126.49,-383.47 1156.54,-368.24"/>
<polygon fill="midnightblue" stroke="midnightblue" points="1158.32,-371.26 1165.66,-363.62 1155.15,-365.02 1158.32,-371.26"/>
</g>
<!-- Node10 -->
<g id="node10" class="node">
<title>Node10</title>
<g id="a_node10"><a xlink:href="group__asterics__support.html#ga284d9e0d170cf7cabc16ccd7e62d95bd" target="_top" xlink:title=" ">
<polygon fill="none" stroke="black" points="1157,-110.58 1157,-129.58 1214,-129.58 1214,-110.58 1157,-110.58"/>
<text text-anchor="middle" x="1185.5" y="-117.58" font-family="Helvetica,sans-Serif" font-size="10.00">as_yield</text>
</a>
</g>
</g>
<!-- Node9&#45;&gt;Node10 -->
<g id="edge10" class="edge">
<title>Node9&#45;&gt;Node10</title>
<path fill="none" stroke="midnightblue" d="M1063.07,-120.08C1086.75,-120.08 1120.62,-120.08 1146.57,-120.08"/>
<polygon fill="midnightblue" stroke="midnightblue" points="1146.8,-123.58 1156.8,-120.08 1146.8,-116.58 1146.8,-123.58"/>
</g>
<!-- Node11 -->
<g id="node11" class="node">
<title>Node11</title>
<g id="a_node11"><a xlink:href="group__asterics__support.html#gad294e0c5530bd6fb800a2394179070e1" target="_top" xlink:title=" ">
<polygon fill="none" stroke="black" points="1295.5,-91.58 1295.5,-110.58 1385.5,-110.58 1385.5,-91.58 1295.5,-91.58"/>
<text text-anchor="middle" x="1340.5" y="-98.58" font-family="Helvetica,sans-Serif" font-size="10.00">as_mutex_lock</text>
</a>
</g>
</g>
<!-- Node10&#45;&gt;Node11 -->
<g id="edge11" class="edge">
<title>Node10&#45;&gt;Node11</title>
<path fill="none" stroke="midnightblue" d="M1214.21,-116.63C1234.02,-114.17 1261.34,-110.78 1285.41,-107.79"/>
<polygon fill="midnightblue" stroke="midnightblue" points="1286,-111.25 1295.49,-106.54 1285.14,-104.3 1286,-111.25"/>
</g>
<!-- Node12 -->
<g id="node12" class="node">
<title>Node12</title>
<g id="a_node12"><a xlink:href="group__asterics__support.html#ga07e09e825f2608339f6213edb9d0c8b3" target="_top" xlink:title=" ">
<polygon fill="none" stroke="black" points="1289.5,-129.58 1289.5,-148.58 1391.5,-148.58 1391.5,-129.58 1289.5,-129.58"/>
<text text-anchor="middle" x="1340.5" y="-136.58" font-family="Helvetica,sans-Serif" font-size="10.00">as_mutex_unlock</text>
</a>
</g>
</g>
<!-- Node10&#45;&gt;Node12 -->
<g id="edge12" class="edge">
<title>Node10&#45;&gt;Node12</title>
<path fill="none" stroke="midnightblue" d="M1214.21,-123.52C1232.35,-125.77 1256.79,-128.8 1279.26,-131.59"/>
<polygon fill="midnightblue" stroke="midnightblue" points="1279.06,-135.1 1289.41,-132.86 1279.92,-128.15 1279.06,-135.1"/>
</g>
<!-- Node13&#45;&gt;Node5 -->
<g id="edge14" class="edge">
<title>Node13&#45;&gt;Node5</title>
<path fill="none" stroke="midnightblue" d="M916.5,-420.56C935.84,-416.8 958.95,-412.93 980,-411.08 1091.62,-401.24 1223.49,-405.2 1292.31,-408.44"/>
<polygon fill="midnightblue" stroke="midnightblue" points="1292.24,-411.94 1302.4,-408.94 1292.59,-404.95 1292.24,-411.94"/>
</g>
<!-- Node15 -->
<g id="node15" class="node">
<title>Node15</title>
<g id="a_node15"><a xlink:href="group__as__iic__reg__funcs.html#gaca309e97934beed04c02e31ba9cfbd3a" target="_top" xlink:title=" ">
<polygon fill="none" stroke="black" points="1123,-486.58 1123,-505.58 1248,-505.58 1248,-486.58 1123,-486.58"/>
<text text-anchor="middle" x="1185.5" y="-493.58" font-family="Helvetica,sans-Serif" font-size="10.00">as_iic_get_control_reg</text>
</a>
</g>
</g>
<!-- Node14&#45;&gt;Node15 -->
<g id="edge16" class="edge">
<title>Node14&#45;&gt;Node15</title>
<path fill="none" stroke="midnightblue" d="M927.26,-504.33C978.62,-502.68 1056.07,-500.2 1112.56,-498.38"/>
<polygon fill="midnightblue" stroke="midnightblue" points="1112.97,-501.87 1122.85,-498.05 1112.75,-494.88 1112.97,-501.87"/>
</g>
<!-- Node15&#45;&gt;Node5 -->
<g id="edge17" class="edge">
<title>Node15&#45;&gt;Node5</title>
<path fill="none" stroke="midnightblue" d="M1204.59,-486.52C1216.88,-479.99 1233.47,-471.1 1248,-463.08 1270.47,-450.66 1295.84,-436.21 1314.16,-425.7"/>
<polygon fill="midnightblue" stroke="midnightblue" points="1316.11,-428.61 1323.04,-420.59 1312.62,-422.54 1316.11,-428.61"/>
</g>
<!-- Node16&#45;&gt;Node17 -->
<g id="edge19" class="edge">
<title>Node16&#45;&gt;Node17</title>
<path fill="none" stroke="midnightblue" d="M934.21,-247.37C946.36,-248.81 959.11,-250.33 971.26,-251.78"/>
<polygon fill="midnightblue" stroke="midnightblue" points="970.96,-255.27 981.3,-252.98 971.78,-248.32 970.96,-255.27"/>
</g>
<!-- Node18 -->
<g id="node18" class="node">
<title>Node18</title>
<g id="a_node18"><a xlink:href="group__asterics__support.html#ga6345b997e24a6cd5f9143cef27629d49" target="_top" xlink:title=" ">
<polygon fill="none" stroke="black" points="1146,-268.58 1146,-287.58 1225,-287.58 1225,-268.58 1146,-268.58"/>
<text text-anchor="middle" x="1185.5" y="-275.58" font-family="Helvetica,sans-Serif" font-size="10.00">as_reg_write</text>
</a>
</g>
</g>
<!-- Node17&#45;&gt;Node18 -->
<g id="edge20" class="edge">
<title>Node17&#45;&gt;Node18</title>
<path fill="none" stroke="midnightblue" d="M1085.7,-265.56C1101.85,-267.61 1119.65,-269.86 1135.63,-271.89"/>
<polygon fill="midnightblue" stroke="midnightblue" points="1135.48,-275.39 1145.84,-273.18 1136.36,-268.45 1135.48,-275.39"/>
</g>
<!-- Node19 -->
<g id="node19" class="node">
<title>Node19</title>
<g id="a_node19"><a xlink:href="group__asterics__support.html#gab651cc2c035ce61b354578434e59f822" target="_top" xlink:title=" ">
<polygon fill="none" stroke="black" points="1284,-268.58 1284,-287.58 1397,-287.58 1397,-268.58 1284,-268.58"/>
<text text-anchor="middle" x="1340.5" y="-275.58" font-family="Helvetica,sans-Serif" font-size="10.00">as_reg_from_uint32</text>
</a>
</g>
</g>
<!-- Node18&#45;&gt;Node19 -->
<g id="edge21" class="edge">
<title>Node18&#45;&gt;Node19</title>
<path fill="none" stroke="midnightblue" d="M1225.11,-278.08C1239.84,-278.08 1257.09,-278.08 1273.65,-278.08"/>
<polygon fill="midnightblue" stroke="midnightblue" points="1273.85,-281.58 1283.85,-278.08 1273.85,-274.58 1273.85,-281.58"/>
</g>
<!-- Node20&#45;&gt;Node3 -->
<g id="edge24" class="edge">
<title>Node20&#45;&gt;Node3</title>
<path fill="none" stroke="midnightblue" d="M509.08,-249.58C523.99,-268.75 560.76,-311.79 603,-330.08 667.47,-357.99 748.68,-361.39 804.72,-359.44"/>
<polygon fill="midnightblue" stroke="midnightblue" points="805.03,-362.93 814.88,-359.02 804.74,-355.94 805.03,-362.93"/>
</g>
<!-- Node20&#45;&gt;Node7 -->
<g id="edge29" class="edge">
<title>Node20&#45;&gt;Node7</title>
<path fill="none" stroke="midnightblue" d="M504.67,-249.71C513.34,-279.14 543.65,-368.4 603,-411.08 657.28,-450.11 732.75,-463.46 789.78,-467.57"/>
<polygon fill="midnightblue" stroke="midnightblue" points="789.64,-471.07 799.84,-468.21 790.08,-464.08 789.64,-471.07"/>
</g>
<!-- Node20&#45;&gt;Node16 -->
<g id="edge32" class="edge">
<title>Node20&#45;&gt;Node16</title>
<path fill="none" stroke="midnightblue" d="M543.03,-230.56C561.28,-226.8 583.1,-222.93 603,-221.08 674.25,-214.43 692.72,-214.8 764,-221.08 781.43,-222.61 800.28,-225.53 817.22,-228.62"/>
<polygon fill="midnightblue" stroke="midnightblue" points="817.03,-232.15 827.5,-230.56 818.32,-225.27 817.03,-232.15"/>
</g>
<!-- Node20&#45;&gt;Node17 -->
<g id="edge33" class="edge">
<title>Node20&#45;&gt;Node17</title>
<path fill="none" stroke="midnightblue" d="M543.03,-249.59C561.28,-253.35 583.1,-257.22 603,-259.08 733.78,-271.27 887.94,-266.68 971.38,-262.63"/>
<polygon fill="midnightblue" stroke="midnightblue" points="971.64,-266.13 981.45,-262.13 971.29,-259.13 971.64,-266.13"/>
</g>
<!-- Node21 -->
<g id="node21" class="node">
<title>Node21</title>
<g id="a_node21"><a xlink:href="group__as__iic__wait.html#gad3cfec26b8a73166e060108cf1444a2b" target="_top" xlink:title=" ">
<polygon fill="none" stroke="black" points="813,-105.08 813,-135.08 931,-135.08 931,-105.08 813,-105.08"/>
<text text-anchor="start" x="821" y="-123.08" font-family="Helvetica,sans-Serif" font-size="10.00">as_iic_busy_wait_for</text>
<text text-anchor="middle" x="872" y="-112.08" font-family="Helvetica,sans-Serif" font-size="10.00">_hwready</text>
</a>
</g>
</g>
<!-- Node20&#45;&gt;Node21 -->
<g id="edge25" class="edge">
<title>Node20&#45;&gt;Node21</title>
<path fill="none" stroke="midnightblue" d="M508.73,-230.37C523.27,-210.32 559.77,-164.58 603,-145.08 666.35,-116.49 746.56,-112.68 802.65,-114.51"/>
<polygon fill="midnightblue" stroke="midnightblue" points="802.7,-118.01 812.83,-114.91 802.98,-111.02 802.7,-118.01"/>
</g>
<!-- Node22 -->
<g id="node22" class="node">
<title>Node22</title>
<g id="a_node22"><a xlink:href="group__as__iic__user.html#gacdb0c71d0fcfe5e50a7f7316762cd0c0" target="_top" xlink:title=" ">
<polygon fill="none" stroke="black" points="988,-306.58 988,-325.58 1079,-325.58 1079,-306.58 988,-306.58"/>
<text text-anchor="middle" x="1033.5" y="-313.58" font-family="Helvetica,sans-Serif" font-size="10.00">as_iic_is_ready</text>
</a>
</g>
</g>
<!-- Node20&#45;&gt;Node22 -->
<g id="edge31" class="edge">
<title>Node20&#45;&gt;Node22</title>
<path fill="none" stroke="midnightblue" d="M523.18,-249.68C543.29,-258.35 574.58,-270.69 603,-277.08 735.23,-306.76 895.2,-313.97 977.57,-315.64"/>
<polygon fill="midnightblue" stroke="midnightblue" points="977.64,-319.14 987.7,-315.82 977.77,-312.14 977.64,-319.14"/>
</g>
<!-- Node23 -->
<g id="node23" class="node">
<title>Node23</title>
<g id="a_node23"><a xlink:href="group__as__iic__bitchecks.html#gad90ab4c2ed7fbca8f768c87cdb5794ee" target="_top" xlink:title=" ">
<polygon fill="none" stroke="black" points="628,-230.58 628,-249.58 739,-249.58 739,-230.58 628,-230.58"/>
<text text-anchor="middle" x="683.5" y="-237.58" font-family="Helvetica,sans-Serif" font-size="10.00">as_iic_is_initialized</text>
</a>
</g>
</g>
<!-- Node20&#45;&gt;Node23 -->
<g id="edge30" class="edge">
<title>Node20&#45;&gt;Node23</title>
<path fill="none" stroke="midnightblue" d="M567.16,-240.08C583.64,-240.08 601.32,-240.08 617.78,-240.08"/>
<polygon fill="midnightblue" stroke="midnightblue" points="617.84,-243.58 627.84,-240.08 617.84,-236.58 617.84,-243.58"/>
</g>
<!-- Node24 -->
<g id="node24" class="node">
<title>Node24</title>
<g id="a_node24"><a xlink:href="group__as__iic__reg__funcs.html#ga8058473baeded71954aa72ee8df24e9b" target="_top" xlink:title=" ">
<polygon fill="none" stroke="black" points="980,-458.58 980,-477.58 1087,-477.58 1087,-458.58 980,-458.58"/>
<text text-anchor="middle" x="1033.5" y="-465.58" font-family="Helvetica,sans-Serif" font-size="10.00">as_iic_set_data_tx</text>
</a>
</g>
</g>
<!-- Node20&#45;&gt;Node24 -->
<g id="edge34" class="edge">
<title>Node20&#45;&gt;Node24</title>
<path fill="none" stroke="midnightblue" d="M503.89,-249.58C510.89,-282.34 538.33,-391.81 603,-451.08 717.33,-555.86 795.22,-568.84 944,-525.08 970.87,-517.17 997.29,-498.3 1014.17,-484.42"/>
<polygon fill="midnightblue" stroke="midnightblue" points="1016.72,-486.85 1022.08,-477.71 1012.19,-481.51 1016.72,-486.85"/>
</g>
<!-- Node25 -->
<g id="node25" class="node">
<title>Node25</title>
<g id="a_node25"><a xlink:href="group__as__iic__helpers.html#ga67cc002a1b20c75dc26f7b328ca5ddc9" target="_top" xlink:title=" ">
<polygon fill="none" stroke="black" points="603,-78.58 603,-97.58 764,-97.58 764,-78.58 603,-78.58"/>
<text text-anchor="middle" x="683.5" y="-85.58" font-family="Helvetica,sans-Serif" font-size="10.00">as_iic_stop_write_transaction</text>
</a>
</g>
</g>
<!-- Node20&#45;&gt;Node25 -->
<g id="edge37" class="edge">
<title>Node20&#45;&gt;Node25</title>
<path fill="none" stroke="midnightblue" d="M506.9,-230.4C519.48,-206.56 555.27,-144.58 603,-112.08 609.45,-107.68 616.73,-104.07 624.2,-101.11"/>
<polygon fill="midnightblue" stroke="midnightblue" points="625.48,-104.37 633.71,-97.7 623.11,-97.78 625.48,-104.37"/>
</g>
<!-- Node21&#45;&gt;Node9 -->
<g id="edge28" class="edge">
<title>Node21&#45;&gt;Node9</title>
<path fill="none" stroke="midnightblue" d="M931.03,-120.08C951.83,-120.08 974.76,-120.08 993.55,-120.08"/>
<polygon fill="midnightblue" stroke="midnightblue" points="993.81,-123.58 1003.81,-120.08 993.81,-116.58 993.81,-123.58"/>
</g>
<!-- Node21&#45;&gt;Node22 -->
<g id="edge26" class="edge">
<title>Node21&#45;&gt;Node22</title>
<path fill="none" stroke="midnightblue" d="M884.06,-135.31C898.24,-154.94 923.43,-190.22 944,-221.08 960.62,-246.01 959.49,-256.23 980,-278.08 988.05,-286.65 998.29,-294.57 1007.58,-300.92"/>
<polygon fill="midnightblue" stroke="midnightblue" points="1005.81,-303.95 1016.09,-306.51 1009.65,-298.1 1005.81,-303.95"/>
</g>
<!-- Node22&#45;&gt;Node4 -->
<g id="edge27" class="edge">
<title>Node22&#45;&gt;Node4</title>
<path fill="none" stroke="midnightblue" d="M1072.35,-325.66C1091.97,-330.63 1116.12,-336.75 1136.98,-342.04"/>
<polygon fill="midnightblue" stroke="midnightblue" points="1136.37,-345.49 1146.92,-344.56 1138.09,-338.71 1136.37,-345.49"/>
</g>
<!-- Node24&#45;&gt;Node5 -->
<g id="edge35" class="edge">
<title>Node24&#45;&gt;Node5</title>
<path fill="none" stroke="midnightblue" d="M1085.55,-458.53C1143.18,-447.76 1236.19,-430.38 1292.22,-419.91"/>
<polygon fill="midnightblue" stroke="midnightblue" points="1293.05,-423.32 1302.24,-418.04 1291.77,-416.44 1293.05,-423.32"/>
</g>
<!-- Node24&#45;&gt;Node18 -->
<g id="edge36" class="edge">
<title>Node24&#45;&gt;Node18</title>
<path fill="none" stroke="midnightblue" d="M1073.95,-458.44C1078.78,-455.99 1083.31,-452.92 1087,-449.08 1123.79,-410.74 1094.57,-379.96 1123,-335.08 1133.29,-318.83 1149.33,-304.18 1162.45,-293.8"/>
<polygon fill="midnightblue" stroke="midnightblue" points="1164.73,-296.46 1170.56,-287.62 1160.48,-290.89 1164.73,-296.46"/>
</g>
<!-- Node25&#45;&gt;Node3 -->
<g id="edge38" class="edge">
<title>Node25&#45;&gt;Node3</title>
<path fill="none" stroke="midnightblue" d="M704.64,-97.74C722.66,-107.36 748.55,-123.76 764,-145.08 795.19,-188.09 775.75,-211.8 800,-259.08 815.1,-288.52 839.22,-318.43 855.09,-336.62"/>
<polygon fill="midnightblue" stroke="midnightblue" points="852.88,-339.41 862.14,-344.56 858.11,-334.76 852.88,-339.41"/>
</g>
<!-- Node25&#45;&gt;Node9 -->
<g id="edge42" class="edge">
<title>Node25&#45;&gt;Node9</title>
<path fill="none" stroke="midnightblue" d="M712.05,-78.51C760.18,-63.3 862.22,-37.66 944,-62.08 971.13,-70.17 997.67,-89.55 1014.5,-103.68"/>
<polygon fill="midnightblue" stroke="midnightblue" points="1012.52,-106.6 1022.37,-110.51 1017.11,-101.31 1012.52,-106.6"/>
</g>
<!-- Node25&#45;&gt;Node16 -->
<g id="edge40" class="edge">
<title>Node25&#45;&gt;Node16</title>
<path fill="none" stroke="midnightblue" d="M698.9,-97.73C715.09,-108.74 741.97,-127.48 764,-145.08 796.73,-171.22 832.76,-204.14 853.55,-223.56"/>
<polygon fill="midnightblue" stroke="midnightblue" points="851.29,-226.25 860.98,-230.54 856.08,-221.14 851.29,-226.25"/>
</g>
<!-- Node25&#45;&gt;Node17 -->
<g id="edge41" class="edge">
<title>Node25&#45;&gt;Node17</title>
<path fill="none" stroke="midnightblue" d="M720.38,-78.52C773.57,-66.53 874.52,-52.34 944,-95.08 971.19,-111.8 1009.06,-200.21 1024.98,-239.84"/>
<polygon fill="midnightblue" stroke="midnightblue" points="1021.75,-241.2 1028.7,-249.21 1028.26,-238.62 1021.75,-241.2"/>
</g>
<!-- Node25&#45;&gt;Node21 -->
<g id="edge39" class="edge">
<title>Node25&#45;&gt;Node21</title>
<path fill="none" stroke="midnightblue" d="M739.95,-97.59C759.7,-100.98 782.17,-104.83 802.85,-108.38"/>
<polygon fill="midnightblue" stroke="midnightblue" points="802.4,-111.86 812.85,-110.1 803.58,-104.96 802.4,-111.86"/>
</g>
<!-- Node26&#45;&gt;Node9 -->
<g id="edge48" class="edge">
<title>Node26&#45;&gt;Node9</title>
<path fill="none" stroke="midnightblue" d="M762.76,-161.87C814.5,-159.48 883.67,-154.49 944,-144.08 960.6,-141.21 978.6,-136.61 994,-132.21"/>
<polygon fill="midnightblue" stroke="midnightblue" points="995.1,-135.53 1003.71,-129.36 993.13,-128.81 995.1,-135.53"/>
</g>
<!-- Node26&#45;&gt;Node13 -->
<g id="edge45" class="edge">
<title>Node26&#45;&gt;Node13</title>
<path fill="none" stroke="midnightblue" d="M705.37,-173.67C723.62,-183.14 749.43,-199.35 764,-221.08 802.66,-278.74 762.92,-314.38 800,-373.08 811.08,-390.61 829.46,-405.15 844.74,-415.15"/>
<polygon fill="midnightblue" stroke="midnightblue" points="842.97,-418.17 853.3,-420.51 846.68,-412.24 842.97,-418.17"/>
</g>
<!-- Node26&#45;&gt;Node16 -->
<g id="edge46" class="edge">
<title>Node26&#45;&gt;Node16</title>
<path fill="none" stroke="midnightblue" d="M726.48,-173.63C738.93,-177.28 752.35,-182.05 764,-188.08 782.01,-197.38 782.15,-206.47 800,-216.08 807.91,-220.33 816.72,-224.03 825.36,-227.18"/>
<polygon fill="midnightblue" stroke="midnightblue" points="824.4,-230.55 834.99,-230.49 826.67,-223.93 824.4,-230.55"/>
</g>
<!-- Node26&#45;&gt;Node17 -->
<g id="edge47" class="edge">
<title>Node26&#45;&gt;Node17</title>
<path fill="none" stroke="midnightblue" d="M742.79,-173.62C795.94,-183.08 876.26,-199.31 944,-221.08 964.49,-227.66 986.76,-237.23 1003.83,-245.12"/>
<polygon fill="midnightblue" stroke="midnightblue" points="1002.68,-248.45 1013.22,-249.54 1005.66,-242.12 1002.68,-248.45"/>
</g>
<!-- Node26&#45;&gt;Node21 -->
<g id="edge44" class="edge">
<title>Node26&#45;&gt;Node21</title>
<path fill="none" stroke="midnightblue" d="M724.97,-154.53C747.77,-149.15 776.84,-142.29 803.04,-136.11"/>
<polygon fill="midnightblue" stroke="midnightblue" points="803.99,-139.48 812.92,-133.78 802.38,-132.67 803.99,-139.48"/>
</g>
<!-- Node28 -->
<g id="node28" class="node">
<title>Node28</title>
<g id="a_node28"><a xlink:href="group__as__iic__user.html#ga08fcff0dba9d6b4898291746d2206408" target="_top" xlink:title=" ">
<polygon fill="none" stroke="black" points="271,-125.58 271,-144.58 399,-144.58 399,-125.58 271,-125.58"/>
<text text-anchor="middle" x="335" y="-132.58" font-family="Helvetica,sans-Serif" font-size="10.00">as_iic_write_byte_mod</text>
</a>
</g>
</g>
<!-- Node27&#45;&gt;Node28 -->
<g id="edge50" class="edge">
<title>Node27&#45;&gt;Node28</title>
<path fill="none" stroke="midnightblue" d="M235.36,-135.08C243.54,-135.08 252.16,-135.08 260.76,-135.08"/>
<polygon fill="midnightblue" stroke="midnightblue" points="260.82,-138.58 270.82,-135.08 260.82,-131.58 260.82,-138.58"/>
</g>
<!-- Node28&#45;&gt;Node20 -->
<g id="edge51" class="edge">
<title>Node28&#45;&gt;Node20</title>
<path fill="none" stroke="midnightblue" d="M350.84,-144.58C379.36,-162.84 442.02,-202.95 476.35,-224.94"/>
<polygon fill="midnightblue" stroke="midnightblue" points="474.53,-227.92 484.83,-230.37 478.3,-222.03 474.53,-227.92"/>
</g>
<!-- Node28&#45;&gt;Node25 -->
<g id="edge52" class="edge">
<title>Node28&#45;&gt;Node25</title>
<path fill="none" stroke="midnightblue" d="M399.15,-126.51C456.19,-118.77 540.43,-107.35 602.23,-98.96"/>
<polygon fill="midnightblue" stroke="midnightblue" points="602.9,-102.41 612.34,-97.59 601.96,-95.47 602.9,-102.41"/>
</g>
</g>
</svg>
