<?xml version="1.0" encoding="UTF-8" standalone="no"?>
<!DOCTYPE svg PUBLIC "-//W3C//DTD SVG 1.1//EN"
 "http://www.w3.org/Graphics/SVG/1.1/DTD/svg11.dtd">
<!-- Generated by graphviz version 2.43.0 (0)
 -->
<!-- Title: as_writer_set_flush Pages: 1 -->
<svg width="541pt" height="85pt"
 viewBox="0.00 0.00 541.00 85.00" xmlns="http://www.w3.org/2000/svg" xmlns:xlink="http://www.w3.org/1999/xlink">
<g id="graph0" class="graph" transform="scale(1 1) rotate(0) translate(4 81)">
<title>as_writer_set_flush</title>
<!-- Node1 -->
<g id="node1" class="node">
<title>Node1</title>
<g id="a_node1"><a xlink:title="Flush data to memory.">
<polygon fill="#bfbfbf" stroke="black" points="0,-38.5 0,-57.5 111,-57.5 111,-38.5 0,-38.5"/>
<text text-anchor="middle" x="55.5" y="-45.5" font-family="Helvetica,sans-Serif" font-size="10.00">as_writer_set_flush</text>
</a>
</g>
</g>
<!-- Node2 -->
<g id="node2" class="node">
<title>Node2</title>
<g id="a_node2"><a xlink:href="group__asterics__support.html#gaa7520f5b717e163da743500adb2eb0b9" target="_top" xlink:title=" ">
<polygon fill="none" stroke="black" points="162.5,-57.5 162.5,-76.5 253.5,-76.5 253.5,-57.5 162.5,-57.5"/>
<text text-anchor="middle" x="208" y="-64.5" font-family="Helvetica,sans-Serif" font-size="10.00">as_module_reg</text>
</a>
</g>
</g>
<!-- Node1&#45;&gt;Node2 -->
<g id="edge1" class="edge">
<title>Node1&#45;&gt;Node2</title>
<path fill="none" stroke="midnightblue" d="M111.26,-54.91C124.65,-56.6 138.99,-58.41 152.38,-60.1"/>
<polygon fill="midnightblue" stroke="midnightblue" points="152.04,-63.59 162.4,-61.37 152.92,-56.64 152.04,-63.59"/>
</g>
<!-- Node3 -->
<g id="node3" class="node">
<title>Node3</title>
<g id="a_node3"><a xlink:href="group__asterics__support.html#ga0ccb0610d764a95bda989e35fba59490" target="_top" xlink:title=" ">
<polygon fill="none" stroke="black" points="147,-19.5 147,-38.5 269,-38.5 269,-19.5 147,-19.5"/>
<text text-anchor="middle" x="208" y="-26.5" font-family="Helvetica,sans-Serif" font-size="10.00">as_reg_write_masked</text>
</a>
</g>
</g>
<!-- Node1&#45;&gt;Node3 -->
<g id="edge2" class="edge">
<title>Node1&#45;&gt;Node3</title>
<path fill="none" stroke="midnightblue" d="M111.26,-41.09C119.6,-40.03 128.3,-38.94 136.9,-37.85"/>
<polygon fill="midnightblue" stroke="midnightblue" points="137.46,-41.31 146.94,-36.58 136.58,-34.36 137.46,-41.31"/>
</g>
<!-- Node4 -->
<g id="node4" class="node">
<title>Node4</title>
<g id="a_node4"><a xlink:href="group__asterics__support.html#ga8e5c2bfd2e4498d10289377bd94cef07" target="_top" xlink:title=" ">
<polygon fill="none" stroke="black" points="306.5,-38.5 306.5,-57.5 382.5,-57.5 382.5,-38.5 306.5,-38.5"/>
<text text-anchor="middle" x="344.5" y="-45.5" font-family="Helvetica,sans-Serif" font-size="10.00">as_reg_read</text>
</a>
</g>
</g>
<!-- Node3&#45;&gt;Node4 -->
<g id="edge3" class="edge">
<title>Node3&#45;&gt;Node4</title>
<path fill="none" stroke="midnightblue" d="M269.17,-37.5C278.22,-38.78 287.44,-40.08 296.17,-41.31"/>
<polygon fill="midnightblue" stroke="midnightblue" points="295.76,-44.79 306.15,-42.72 296.74,-37.86 295.76,-44.79"/>
</g>
<!-- Node6 -->
<g id="node6" class="node">
<title>Node6</title>
<g id="a_node6"><a xlink:href="group__asterics__support.html#ga6345b997e24a6cd5f9143cef27629d49" target="_top" xlink:title=" ">
<polygon fill="none" stroke="black" points="305,-0.5 305,-19.5 384,-19.5 384,-0.5 305,-0.5"/>
<text text-anchor="middle" x="344.5" y="-7.5" font-family="Helvetica,sans-Serif" font-size="10.00">as_reg_write</text>
</a>
</g>
</g>
<!-- Node3&#45;&gt;Node6 -->
<g id="edge5" class="edge">
<title>Node3&#45;&gt;Node6</title>
<path fill="none" stroke="midnightblue" d="M269.17,-20.5C277.82,-19.28 286.63,-18.03 295.02,-16.85"/>
<polygon fill="midnightblue" stroke="midnightblue" points="295.59,-20.3 305,-15.44 294.61,-13.37 295.59,-20.3"/>
</g>
<!-- Node5 -->
<g id="node5" class="node">
<title>Node5</title>
<g id="a_node5"><a xlink:href="group__asterics__support.html#ga4c6d688b840a6e2edc9bc0b8ed961677" target="_top" xlink:title=" ">
<polygon fill="none" stroke="black" points="426.5,-38.5 426.5,-57.5 526.5,-57.5 526.5,-38.5 426.5,-38.5"/>
<text text-anchor="middle" x="476.5" y="-45.5" font-family="Helvetica,sans-Serif" font-size="10.00">as_reg_to_uint32</text>
</a>
</g>
</g>
<!-- Node4&#45;&gt;Node5 -->
<g id="edge4" class="edge">
<title>Node4&#45;&gt;Node5</title>
<path fill="none" stroke="midnightblue" d="M382.75,-48C393.09,-48 404.59,-48 415.86,-48"/>
<polygon fill="midnightblue" stroke="midnightblue" points="416.12,-51.5 426.12,-48 416.12,-44.5 416.12,-51.5"/>
</g>
<!-- Node7 -->
<g id="node7" class="node">
<title>Node7</title>
<g id="a_node7"><a xlink:href="group__asterics__support.html#gab651cc2c035ce61b354578434e59f822" target="_top" xlink:title=" ">
<polygon fill="none" stroke="black" points="420,-0.5 420,-19.5 533,-19.5 533,-0.5 420,-0.5"/>
<text text-anchor="middle" x="476.5" y="-7.5" font-family="Helvetica,sans-Serif" font-size="10.00">as_reg_from_uint32</text>
</a>
</g>
</g>
<!-- Node6&#45;&gt;Node7 -->
<g id="edge6" class="edge">
<title>Node6&#45;&gt;Node7</title>
<path fill="none" stroke="midnightblue" d="M384.15,-10C392.22,-10 400.94,-10 409.68,-10"/>
<polygon fill="midnightblue" stroke="midnightblue" points="409.92,-13.5 419.92,-10 409.92,-6.5 409.92,-13.5"/>
</g>
</g>
</svg>
