<?xml version="1.0" encoding="UTF-8" standalone="no"?>
<!DOCTYPE svg PUBLIC "-//W3C//DTD SVG 1.1//EN"
 "http://www.w3.org/Graphics/SVG/1.1/DTD/svg11.dtd">
<!-- Generated by graphviz version 2.43.0 (0)
 -->
<!-- Title: vears_draw_rectangle Pages: 1 -->
<svg width="564pt" height="85pt"
 viewBox="0.00 0.00 564.00 85.00" xmlns="http://www.w3.org/2000/svg" xmlns:xlink="http://www.w3.org/1999/xlink">
<g id="graph0" class="graph" transform="scale(1 1) rotate(0) translate(4 81)">
<title>vears_draw_rectangle</title>
<!-- Node1 -->
<g id="node1" class="node">
<title>Node1</title>
<g id="a_node1"><a xlink:title="Draw a rectangle. (x0, y0) is the upper&#45;left, (x1, y1) is the lower&#45;right corner, respectively.">
<polygon fill="#bfbfbf" stroke="black" points="0,-19.5 0,-38.5 124,-38.5 124,-19.5 0,-19.5"/>
<text text-anchor="middle" x="62" y="-26.5" font-family="Helvetica,sans-Serif" font-size="10.00">vears_draw_rectangle</text>
</a>
</g>
</g>
<!-- Node2 -->
<g id="node2" class="node">
<title>Node2</title>
<g id="a_node2"><a xlink:href="ea__draw__rectangle_8c.html#a8c4f12439a3a968effe230d39f8c900f" target="_top" xlink:title=" ">
<polygon fill="none" stroke="black" points="173,-38.5 173,-57.5 282,-57.5 282,-38.5 173,-38.5"/>
<text text-anchor="middle" x="227.5" y="-45.5" font-family="Helvetica,sans-Serif" font-size="10.00">ea_draw_rectangle</text>
</a>
</g>
</g>
<!-- Node1&#45;&gt;Node2 -->
<g id="edge1" class="edge">
<title>Node1&#45;&gt;Node2</title>
<path fill="none" stroke="midnightblue" d="M124.35,-36.13C136.93,-37.59 150.2,-39.13 162.87,-40.61"/>
<polygon fill="midnightblue" stroke="midnightblue" points="162.53,-44.09 172.86,-41.77 163.34,-37.14 162.53,-44.09"/>
</g>
<!-- Node6 -->
<g id="node6" class="node">
<title>Node6</title>
<g id="a_node6"><a xlink:href="vears_8c.html#a5c9f2a05f3fe62106f55e90dbcc9cf53" target="_top" xlink:title=" ">
<polygon fill="none" stroke="black" points="160,-0.5 160,-19.5 295,-19.5 295,-0.5 160,-0.5"/>
<text text-anchor="middle" x="227.5" y="-7.5" font-family="Helvetica,sans-Serif" font-size="10.00">flush_cache_for_overlay</text>
</a>
</g>
</g>
<!-- Node1&#45;&gt;Node6 -->
<g id="edge5" class="edge">
<title>Node1&#45;&gt;Node6</title>
<path fill="none" stroke="midnightblue" d="M124.35,-21.87C132.68,-20.9 141.32,-19.9 149.89,-18.9"/>
<polygon fill="midnightblue" stroke="midnightblue" points="150.35,-22.37 159.88,-17.74 149.54,-15.42 150.35,-22.37"/>
</g>
<!-- Node3 -->
<g id="node3" class="node">
<title>Node3</title>
<g id="a_node3"><a xlink:href="ea__draw__quick__line__h_8c.html#a822ca7b402ab5d265e9736ef4d0d6736" target="_top" xlink:title=" ">
<polygon fill="none" stroke="black" points="331,-57.5 331,-76.5 455,-76.5 455,-57.5 331,-57.5"/>
<text text-anchor="middle" x="393" y="-64.5" font-family="Helvetica,sans-Serif" font-size="10.00">ea_draw_quick_line_h</text>
</a>
</g>
</g>
<!-- Node2&#45;&gt;Node3 -->
<g id="edge2" class="edge">
<title>Node2&#45;&gt;Node3</title>
<path fill="none" stroke="midnightblue" d="M282.04,-54.22C294.38,-55.66 307.71,-57.2 320.67,-58.71"/>
<polygon fill="midnightblue" stroke="midnightblue" points="320.64,-62.23 330.97,-59.91 321.44,-55.28 320.64,-62.23"/>
</g>
<!-- Node5 -->
<g id="node5" class="node">
<title>Node5</title>
<g id="a_node5"><a xlink:href="ea__draw__quick__line__v_8c.html#a6796003d1cfc808748bf7157c949bfda" target="_top" xlink:title=" ">
<polygon fill="none" stroke="black" points="331,-19.5 331,-38.5 455,-38.5 455,-19.5 331,-19.5"/>
<text text-anchor="middle" x="393" y="-26.5" font-family="Helvetica,sans-Serif" font-size="10.00">ea_draw_quick_line_v</text>
</a>
</g>
</g>
<!-- Node2&#45;&gt;Node5 -->
<g id="edge4" class="edge">
<title>Node2&#45;&gt;Node5</title>
<path fill="none" stroke="midnightblue" d="M282.04,-41.78C294.38,-40.34 307.71,-38.8 320.67,-37.29"/>
<polygon fill="midnightblue" stroke="midnightblue" points="321.44,-40.72 330.97,-36.09 320.64,-33.77 321.44,-40.72"/>
</g>
<!-- Node4 -->
<g id="node4" class="node">
<title>Node4</title>
<g id="a_node4"><a xlink:href="ea__draw__quick__line__h_8c.html#a57780e02c723be87fd9cac22302de8a0" target="_top" xlink:title=" ">
<polygon fill="none" stroke="black" points="491,-57.5 491,-76.5 556,-76.5 556,-57.5 491,-57.5"/>
<text text-anchor="middle" x="523.5" y="-64.5" font-family="Helvetica,sans-Serif" font-size="10.00">get_mask</text>
</a>
</g>
</g>
<!-- Node3&#45;&gt;Node4 -->
<g id="edge3" class="edge">
<title>Node3&#45;&gt;Node4</title>
<path fill="none" stroke="midnightblue" d="M455.24,-67C463.78,-67 472.39,-67 480.47,-67"/>
<polygon fill="midnightblue" stroke="midnightblue" points="480.73,-70.5 490.73,-67 480.73,-63.5 480.73,-70.5"/>
</g>
</g>
</svg>
