<?xml version="1.0" encoding="UTF-8" standalone="no"?>
<!DOCTYPE svg PUBLIC "-//W3C//DTD SVG 1.1//EN"
 "http://www.w3.org/Graphics/SVG/1.1/DTD/svg11.dtd">
<!-- Generated by graphviz version 2.43.0 (0)
 -->
<!-- Title: as_iic_get_byte_mod Pages: 1 -->
<svg width="1258pt" height="422pt"
 viewBox="0.00 0.00 1258.00 421.83" xmlns="http://www.w3.org/2000/svg" xmlns:xlink="http://www.w3.org/1999/xlink">
<g id="graph0" class="graph" transform="scale(1 1) rotate(0) translate(4 417.83)">
<title>as_iic_get_byte_mod</title>
<!-- Node1 -->
<g id="node1" class="node">
<title>Node1</title>
<g id="a_node1"><a xlink:title=" ">
<polygon fill="#bfbfbf" stroke="black" points="0,-156.42 0,-175.42 119,-175.42 119,-156.42 0,-156.42"/>
<text text-anchor="middle" x="59.5" y="-163.42" font-family="Helvetica,sans-Serif" font-size="10.00">as_iic_get_byte_mod</text>
</a>
</g>
</g>
<!-- Node2 -->
<g id="node2" class="node">
<title>Node2</title>
<g id="a_node2"><a xlink:href="group__as__iic__helpers.html#ga53e6050a2c66be89ac23084fd9de9c23" target="_top" xlink:title=" ">
<polygon fill="none" stroke="black" points="155,-232.42 155,-251.42 287,-251.42 287,-232.42 155,-232.42"/>
<text text-anchor="middle" x="221" y="-239.42" font-family="Helvetica,sans-Serif" font-size="10.00">as_iic_start_transaction</text>
</a>
</g>
</g>
<!-- Node1&#45;&gt;Node2 -->
<g id="edge1" class="edge">
<title>Node1&#45;&gt;Node2</title>
<path fill="none" stroke="midnightblue" d="M80.7,-175.54C108.51,-188.79 158.75,-212.73 190.68,-227.95"/>
<polygon fill="midnightblue" stroke="midnightblue" points="189.43,-231.23 199.96,-232.37 192.44,-224.91 189.43,-231.23"/>
</g>
<!-- Node22 -->
<g id="node22" class="node">
<title>Node22</title>
<g id="a_node22"><a xlink:href="group__as__iic__helpers.html#gaa8ce9ac10b8c2ca9b614110ca5cbeff5" target="_top" xlink:title=" ">
<polygon fill="none" stroke="black" points="324.5,-67.42 324.5,-86.42 482.5,-86.42 482.5,-67.42 324.5,-67.42"/>
<text text-anchor="middle" x="403.5" y="-74.42" font-family="Helvetica,sans-Serif" font-size="10.00">as_iic_stop_read_transaction</text>
</a>
</g>
</g>
<!-- Node1&#45;&gt;Node22 -->
<g id="edge33" class="edge">
<title>Node1&#45;&gt;Node22</title>
<path fill="none" stroke="midnightblue" d="M97.1,-156.39C159.76,-140.09 287.45,-106.86 356.2,-88.96"/>
<polygon fill="midnightblue" stroke="midnightblue" points="357.11,-92.35 365.91,-86.44 355.35,-85.57 357.11,-92.35"/>
</g>
<!-- Node3 -->
<g id="node3" class="node">
<title>Node3</title>
<g id="a_node3"><a xlink:href="group__as__iic__bitchecks.html#gaa4e8718c748b5a7e956a38ffd6dbe15d" target="_top" xlink:title=" ">
<polygon fill="none" stroke="black" points="535,-335.42 535,-354.42 649,-354.42 649,-335.42 535,-335.42"/>
<text text-anchor="middle" x="592" y="-342.42" font-family="Helvetica,sans-Serif" font-size="10.00">as_iic_ack_received</text>
</a>
</g>
</g>
<!-- Node2&#45;&gt;Node3 -->
<g id="edge2" class="edge">
<title>Node2&#45;&gt;Node3</title>
<path fill="none" stroke="midnightblue" d="M226.9,-251.72C239.22,-275.11 274.05,-333.89 323,-355.92 398,-389.67 497.08,-371.61 551.31,-357.17"/>
<polygon fill="midnightblue" stroke="midnightblue" points="552.51,-360.47 561.22,-354.44 550.65,-353.72 552.51,-360.47"/>
</g>
<!-- Node7 -->
<g id="node7" class="node">
<title>Node7</title>
<g id="a_node7"><a xlink:href="group__as__iic__wait.html#gad3cfec26b8a73166e060108cf1444a2b" target="_top" xlink:title=" ">
<polygon fill="none" stroke="black" points="533,-209.92 533,-239.92 651,-239.92 651,-209.92 533,-209.92"/>
<text text-anchor="start" x="541" y="-227.92" font-family="Helvetica,sans-Serif" font-size="10.00">as_iic_busy_wait_for</text>
<text text-anchor="middle" x="592" y="-216.92" font-family="Helvetica,sans-Serif" font-size="10.00">_hwready</text>
</a>
</g>
</g>
<!-- Node2&#45;&gt;Node7 -->
<g id="edge6" class="edge">
<title>Node2&#45;&gt;Node7</title>
<path fill="none" stroke="midnightblue" d="M287.12,-238.92C353.34,-235.87 455.52,-231.16 522.83,-228.06"/>
<polygon fill="midnightblue" stroke="midnightblue" points="523.08,-231.55 532.91,-227.59 522.75,-224.56 523.08,-231.55"/>
</g>
<!-- Node8 -->
<g id="node8" class="node">
<title>Node8</title>
<g id="a_node8"><a xlink:href="group__as__iic__user.html#gacdb0c71d0fcfe5e50a7f7316762cd0c0" target="_top" xlink:title=" ">
<polygon fill="none" stroke="black" points="708,-354.42 708,-373.42 799,-373.42 799,-354.42 708,-354.42"/>
<text text-anchor="middle" x="753.5" y="-361.42" font-family="Helvetica,sans-Serif" font-size="10.00">as_iic_is_ready</text>
</a>
</g>
</g>
<!-- Node2&#45;&gt;Node8 -->
<g id="edge18" class="edge">
<title>Node2&#45;&gt;Node8</title>
<path fill="none" stroke="midnightblue" d="M225.53,-251.64C235.75,-278.08 268.14,-351.2 323,-378.92 454.14,-445.16 637.64,-400.62 715.37,-376.53"/>
<polygon fill="midnightblue" stroke="midnightblue" points="716.71,-379.78 725.19,-373.42 714.6,-373.11 716.71,-379.78"/>
</g>
<!-- Node13 -->
<g id="node13" class="node">
<title>Node13</title>
<g id="a_node13"><a xlink:href="group__as__iic__wait.html#ga0bc5aad64893b674c42943fb64d17676" target="_top" xlink:title=" ">
<polygon fill="none" stroke="black" points="520,-259.42 520,-278.42 664,-278.42 664,-259.42 520,-259.42"/>
<text text-anchor="middle" x="592" y="-266.42" font-family="Helvetica,sans-Serif" font-size="10.00">as_iic_busy_wait_for_wait</text>
</a>
</g>
</g>
<!-- Node2&#45;&gt;Node13 -->
<g id="edge13" class="edge">
<title>Node2&#45;&gt;Node13</title>
<path fill="none" stroke="midnightblue" d="M287.12,-246.68C349.21,-251.23 442.91,-258.08 509.84,-262.98"/>
<polygon fill="midnightblue" stroke="midnightblue" points="509.69,-266.48 519.92,-263.72 510.2,-259.5 509.69,-266.48"/>
</g>
<!-- Node15 -->
<g id="node15" class="node">
<title>Node15</title>
<g id="a_node15"><a xlink:href="group__as__iic__bitchecks.html#gad90ab4c2ed7fbca8f768c87cdb5794ee" target="_top" xlink:title=" ">
<polygon fill="none" stroke="black" points="348,-327.42 348,-346.42 459,-346.42 459,-327.42 348,-327.42"/>
<text text-anchor="middle" x="403.5" y="-334.42" font-family="Helvetica,sans-Serif" font-size="10.00">as_iic_is_initialized</text>
</a>
</g>
</g>
<!-- Node2&#45;&gt;Node15 -->
<g id="edge17" class="edge">
<title>Node2&#45;&gt;Node15</title>
<path fill="none" stroke="midnightblue" d="M233.06,-251.51C250.88,-266.53 287.54,-295.66 323,-312.92 332.14,-317.37 342.27,-321.18 352.16,-324.38"/>
<polygon fill="midnightblue" stroke="midnightblue" points="351.34,-327.79 361.92,-327.37 353.39,-321.1 351.34,-327.79"/>
</g>
<!-- Node16 -->
<g id="node16" class="node">
<title>Node16</title>
<g id="a_node16"><a xlink:href="group__as__iic__user.html#gae03c311fae3d6a830878a2b0c2c1c2bf" target="_top" xlink:title=" ">
<polygon fill="none" stroke="black" points="530,-95.42 530,-114.42 654,-114.42 654,-95.42 530,-95.42"/>
<text text-anchor="middle" x="592" y="-102.42" font-family="Helvetica,sans-Serif" font-size="10.00">as_iic_reset_hw_state</text>
</a>
</g>
</g>
<!-- Node2&#45;&gt;Node16 -->
<g id="edge19" class="edge">
<title>Node2&#45;&gt;Node16</title>
<path fill="none" stroke="midnightblue" d="M231.31,-232.19C248.01,-215.33 284.91,-180.78 323,-162.92 385.89,-133.43 464.16,-118.71 519.84,-111.51"/>
<polygon fill="midnightblue" stroke="midnightblue" points="520.48,-114.96 529.97,-110.25 519.61,-108.01 520.48,-114.96"/>
</g>
<!-- Node17 -->
<g id="node17" class="node">
<title>Node17</title>
<g id="a_node17"><a xlink:href="group__as__iic__reg__funcs.html#gac83a48fc09234a7a99adafb1ce565eb0" target="_top" xlink:title=" ">
<polygon fill="none" stroke="black" points="701.5,-95.42 701.5,-114.42 805.5,-114.42 805.5,-95.42 701.5,-95.42"/>
<text text-anchor="middle" x="753.5" y="-102.42" font-family="Helvetica,sans-Serif" font-size="10.00">as_iic_set_control</text>
</a>
</g>
</g>
<!-- Node2&#45;&gt;Node17 -->
<g id="edge23" class="edge">
<title>Node2&#45;&gt;Node17</title>
<path fill="none" stroke="midnightblue" d="M224,-232.13C231.02,-200.52 257.77,-100.65 323,-57.92 449.95,25.25 519.78,7.35 664,-39.92 692.64,-49.31 719.67,-71.9 736.14,-87.8"/>
<polygon fill="midnightblue" stroke="midnightblue" points="733.79,-90.39 743.35,-94.98 738.74,-85.44 733.79,-90.39"/>
</g>
<!-- Node20 -->
<g id="node20" class="node">
<title>Node20</title>
<g id="a_node20"><a xlink:href="group__as__iic__reg__funcs.html#ga8058473baeded71954aa72ee8df24e9b" target="_top" xlink:title=" ">
<polygon fill="none" stroke="black" points="700,-240.42 700,-259.42 807,-259.42 807,-240.42 700,-240.42"/>
<text text-anchor="middle" x="753.5" y="-247.42" font-family="Helvetica,sans-Serif" font-size="10.00">as_iic_set_data_tx</text>
</a>
</g>
</g>
<!-- Node2&#45;&gt;Node20 -->
<g id="edge24" class="edge">
<title>Node2&#45;&gt;Node20</title>
<path fill="none" stroke="midnightblue" d="M250.13,-251.44C320.8,-273.95 511.04,-325.8 664,-287.92 681.56,-283.57 683.45,-276.24 700,-268.92 704.53,-266.91 709.34,-264.96 714.14,-263.1"/>
<polygon fill="midnightblue" stroke="midnightblue" points="715.74,-266.24 723.88,-259.46 713.29,-259.68 715.74,-266.24"/>
</g>
<!-- Node21 -->
<g id="node21" class="node">
<title>Node21</title>
<g id="a_node21"><a xlink:href="group__as__iic__helpers.html#ga67cc002a1b20c75dc26f7b328ca5ddc9" target="_top" xlink:title=" ">
<polygon fill="none" stroke="black" points="323,-172.42 323,-191.42 484,-191.42 484,-172.42 323,-172.42"/>
<text text-anchor="middle" x="403.5" y="-179.42" font-family="Helvetica,sans-Serif" font-size="10.00">as_iic_stop_write_transaction</text>
</a>
</g>
</g>
<!-- Node2&#45;&gt;Node21 -->
<g id="edge27" class="edge">
<title>Node2&#45;&gt;Node21</title>
<path fill="none" stroke="midnightblue" d="M250.6,-232.41C281.27,-222.21 330.14,-205.97 364.13,-194.67"/>
<polygon fill="midnightblue" stroke="midnightblue" points="365.35,-197.95 373.73,-191.48 363.14,-191.31 365.35,-197.95"/>
</g>
<!-- Node4 -->
<g id="node4" class="node">
<title>Node4</title>
<g id="a_node4"><a xlink:href="group__as__iic__reg__funcs.html#ga8daa8fde0a7776aa2f5b335250b5aa2a" target="_top" xlink:title=" ">
<polygon fill="none" stroke="black" points="843,-306.42 843,-325.42 965,-325.42 965,-306.42 843,-306.42"/>
<text text-anchor="middle" x="904" y="-313.42" font-family="Helvetica,sans-Serif" font-size="10.00">as_iic_get_status_reg</text>
</a>
</g>
</g>
<!-- Node3&#45;&gt;Node4 -->
<g id="edge3" class="edge">
<title>Node3&#45;&gt;Node4</title>
<path fill="none" stroke="midnightblue" d="M649.14,-339.67C700.63,-334.85 777.11,-327.69 832.66,-322.5"/>
<polygon fill="midnightblue" stroke="midnightblue" points="833.15,-325.97 842.78,-321.55 832.5,-319 833.15,-325.97"/>
</g>
<!-- Node5 -->
<g id="node5" class="node">
<title>Node5</title>
<g id="a_node5"><a xlink:href="group__asterics__support.html#ga8e5c2bfd2e4498d10289377bd94cef07" target="_top" xlink:title=" ">
<polygon fill="none" stroke="black" points="1019.5,-249.42 1019.5,-268.42 1095.5,-268.42 1095.5,-249.42 1019.5,-249.42"/>
<text text-anchor="middle" x="1057.5" y="-256.42" font-family="Helvetica,sans-Serif" font-size="10.00">as_reg_read</text>
</a>
</g>
</g>
<!-- Node4&#45;&gt;Node5 -->
<g id="edge4" class="edge">
<title>Node4&#45;&gt;Node5</title>
<path fill="none" stroke="midnightblue" d="M930.36,-306.38C955.37,-296.96 993.81,-282.5 1021.68,-272.02"/>
<polygon fill="midnightblue" stroke="midnightblue" points="1022.93,-275.29 1031.06,-268.49 1020.47,-268.73 1022.93,-275.29"/>
</g>
<!-- Node6 -->
<g id="node6" class="node">
<title>Node6</title>
<g id="a_node6"><a xlink:href="group__asterics__support.html#ga4c6d688b840a6e2edc9bc0b8ed961677" target="_top" xlink:title=" ">
<polygon fill="none" stroke="black" points="1150,-249.42 1150,-268.42 1250,-268.42 1250,-249.42 1150,-249.42"/>
<text text-anchor="middle" x="1200" y="-256.42" font-family="Helvetica,sans-Serif" font-size="10.00">as_reg_to_uint32</text>
</a>
</g>
</g>
<!-- Node5&#45;&gt;Node6 -->
<g id="edge5" class="edge">
<title>Node5&#45;&gt;Node6</title>
<path fill="none" stroke="midnightblue" d="M1095.78,-258.92C1109.26,-258.92 1124.83,-258.92 1139.72,-258.92"/>
<polygon fill="midnightblue" stroke="midnightblue" points="1139.89,-262.42 1149.89,-258.92 1139.89,-255.42 1139.89,-262.42"/>
</g>
<!-- Node7&#45;&gt;Node8 -->
<g id="edge7" class="edge">
<title>Node7&#45;&gt;Node8</title>
<path fill="none" stroke="midnightblue" d="M648.1,-240.04C653.76,-242.82 659.2,-246.09 664,-249.92 687.43,-268.59 681.78,-283.13 700,-306.92 710.93,-321.18 724.75,-336.08 735.46,-347.07"/>
<polygon fill="midnightblue" stroke="midnightblue" points="733.11,-349.66 742.63,-354.31 738.09,-344.74 733.11,-349.66"/>
</g>
<!-- Node9 -->
<g id="node9" class="node">
<title>Node9</title>
<g id="a_node9"><a xlink:href="group__asterics__support.html#gab803703ab5b845023ca31b7b2664419c" target="_top" xlink:title=" ">
<polygon fill="none" stroke="black" points="724,-171.42 724,-190.42 783,-190.42 783,-171.42 724,-171.42"/>
<text text-anchor="middle" x="753.5" y="-178.42" font-family="Helvetica,sans-Serif" font-size="10.00">as_sleep</text>
</a>
</g>
</g>
<!-- Node7&#45;&gt;Node9 -->
<g id="edge9" class="edge">
<title>Node7&#45;&gt;Node9</title>
<path fill="none" stroke="midnightblue" d="M647.44,-209.9C669.37,-203.85 694.14,-197.02 714.12,-191.5"/>
<polygon fill="midnightblue" stroke="midnightblue" points="715.09,-194.87 723.8,-188.83 713.23,-188.12 715.09,-194.87"/>
</g>
<!-- Node8&#45;&gt;Node4 -->
<g id="edge8" class="edge">
<title>Node8&#45;&gt;Node4</title>
<path fill="none" stroke="midnightblue" d="M784.19,-354.32C807.06,-346.93 838.87,-336.65 863.82,-328.58"/>
<polygon fill="midnightblue" stroke="midnightblue" points="864.92,-331.9 873.36,-325.5 862.77,-325.24 864.92,-331.9"/>
</g>
<!-- Node10 -->
<g id="node10" class="node">
<title>Node10</title>
<g id="a_node10"><a xlink:href="group__asterics__support.html#ga284d9e0d170cf7cabc16ccd7e62d95bd" target="_top" xlink:title=" ">
<polygon fill="none" stroke="black" points="875.5,-135.42 875.5,-154.42 932.5,-154.42 932.5,-135.42 875.5,-135.42"/>
<text text-anchor="middle" x="904" y="-142.42" font-family="Helvetica,sans-Serif" font-size="10.00">as_yield</text>
</a>
</g>
</g>
<!-- Node9&#45;&gt;Node10 -->
<g id="edge10" class="edge">
<title>Node9&#45;&gt;Node10</title>
<path fill="none" stroke="midnightblue" d="M783.13,-173.98C806.64,-168.28 840.12,-160.16 865.72,-153.95"/>
<polygon fill="midnightblue" stroke="midnightblue" points="866.57,-157.35 875.46,-151.59 864.92,-150.55 866.57,-157.35"/>
</g>
<!-- Node11 -->
<g id="node11" class="node">
<title>Node11</title>
<g id="a_node11"><a xlink:href="group__asterics__support.html#gad294e0c5530bd6fb800a2394179070e1" target="_top" xlink:title=" ">
<polygon fill="none" stroke="black" points="1012.5,-154.42 1012.5,-173.42 1102.5,-173.42 1102.5,-154.42 1012.5,-154.42"/>
<text text-anchor="middle" x="1057.5" y="-161.42" font-family="Helvetica,sans-Serif" font-size="10.00">as_mutex_lock</text>
</a>
</g>
</g>
<!-- Node10&#45;&gt;Node11 -->
<g id="edge11" class="edge">
<title>Node10&#45;&gt;Node11</title>
<path fill="none" stroke="midnightblue" d="M932.79,-148.4C952.13,-150.83 978.57,-154.14 1002.04,-157.09"/>
<polygon fill="midnightblue" stroke="midnightblue" points="1001.88,-160.59 1012.23,-158.37 1002.75,-153.65 1001.88,-160.59"/>
</g>
<!-- Node12 -->
<g id="node12" class="node">
<title>Node12</title>
<g id="a_node12"><a xlink:href="group__asterics__support.html#ga07e09e825f2608339f6213edb9d0c8b3" target="_top" xlink:title=" ">
<polygon fill="none" stroke="black" points="1006.5,-116.42 1006.5,-135.42 1108.5,-135.42 1108.5,-116.42 1006.5,-116.42"/>
<text text-anchor="middle" x="1057.5" y="-123.42" font-family="Helvetica,sans-Serif" font-size="10.00">as_mutex_unlock</text>
</a>
</g>
</g>
<!-- Node10&#45;&gt;Node12 -->
<g id="edge12" class="edge">
<title>Node10&#45;&gt;Node12</title>
<path fill="none" stroke="midnightblue" d="M932.79,-141.43C950.57,-139.2 974.33,-136.22 996.28,-133.47"/>
<polygon fill="midnightblue" stroke="midnightblue" points="996.72,-136.94 1006.21,-132.22 995.85,-130 996.72,-136.94"/>
</g>
<!-- Node13&#45;&gt;Node9 -->
<g id="edge16" class="edge">
<title>Node13&#45;&gt;Node9</title>
<path fill="none" stroke="midnightblue" d="M639.44,-259.37C647.84,-256.84 656.35,-253.73 664,-249.92 691.58,-236.19 718.85,-213.1 735.68,-197.44"/>
<polygon fill="midnightblue" stroke="midnightblue" points="738.22,-199.86 743.05,-190.43 733.39,-194.78 738.22,-199.86"/>
</g>
<!-- Node14 -->
<g id="node14" class="node">
<title>Node14</title>
<g id="a_node14"><a xlink:href="group__as__iic__bitchecks.html#ga4629e4514c3531d0bcd44ae20abc6bad" target="_top" xlink:title=" ">
<polygon fill="none" stroke="black" points="704,-278.42 704,-297.42 803,-297.42 803,-278.42 704,-278.42"/>
<text text-anchor="middle" x="753.5" y="-285.42" font-family="Helvetica,sans-Serif" font-size="10.00">as_iic_is_waiting</text>
</a>
</g>
</g>
<!-- Node13&#45;&gt;Node14 -->
<g id="edge14" class="edge">
<title>Node13&#45;&gt;Node14</title>
<path fill="none" stroke="midnightblue" d="M664.35,-277.42C674.1,-278.58 684.01,-279.76 693.51,-280.89"/>
<polygon fill="midnightblue" stroke="midnightblue" points="693.27,-284.39 703.62,-282.09 694.1,-277.44 693.27,-284.39"/>
</g>
<!-- Node14&#45;&gt;Node4 -->
<g id="edge15" class="edge">
<title>Node14&#45;&gt;Node4</title>
<path fill="none" stroke="midnightblue" d="M803.12,-297.09C815.73,-299.46 829.46,-302.05 842.59,-304.53"/>
<polygon fill="midnightblue" stroke="midnightblue" points="842.01,-307.98 852.48,-306.39 843.3,-301.1 842.01,-307.98"/>
</g>
<!-- Node16&#45;&gt;Node17 -->
<g id="edge20" class="edge">
<title>Node16&#45;&gt;Node17</title>
<path fill="none" stroke="midnightblue" d="M654.21,-104.92C666.36,-104.92 679.11,-104.92 691.26,-104.92"/>
<polygon fill="midnightblue" stroke="midnightblue" points="691.3,-108.42 701.3,-104.92 691.3,-101.42 691.3,-108.42"/>
</g>
<!-- Node18 -->
<g id="node18" class="node">
<title>Node18</title>
<g id="a_node18"><a xlink:href="group__asterics__support.html#ga6345b997e24a6cd5f9143cef27629d49" target="_top" xlink:title=" ">
<polygon fill="none" stroke="black" points="864.5,-211.42 864.5,-230.42 943.5,-230.42 943.5,-211.42 864.5,-211.42"/>
<text text-anchor="middle" x="904" y="-218.42" font-family="Helvetica,sans-Serif" font-size="10.00">as_reg_write</text>
</a>
</g>
</g>
<!-- Node17&#45;&gt;Node18 -->
<g id="edge21" class="edge">
<title>Node17&#45;&gt;Node18</title>
<path fill="none" stroke="midnightblue" d="M763.45,-114.57C773.93,-125.88 791.78,-145.2 807,-161.92 823.1,-179.6 822.89,-188.96 843,-201.92 846.62,-204.25 850.54,-206.31 854.59,-208.13"/>
<polygon fill="midnightblue" stroke="midnightblue" points="853.6,-211.51 864.19,-211.96 856.2,-205.01 853.6,-211.51"/>
</g>
<!-- Node19 -->
<g id="node19" class="node">
<title>Node19</title>
<g id="a_node19"><a xlink:href="group__asterics__support.html#gab651cc2c035ce61b354578434e59f822" target="_top" xlink:title=" ">
<polygon fill="none" stroke="black" points="1001,-211.42 1001,-230.42 1114,-230.42 1114,-211.42 1001,-211.42"/>
<text text-anchor="middle" x="1057.5" y="-218.42" font-family="Helvetica,sans-Serif" font-size="10.00">as_reg_from_uint32</text>
</a>
</g>
</g>
<!-- Node18&#45;&gt;Node19 -->
<g id="edge22" class="edge">
<title>Node18&#45;&gt;Node19</title>
<path fill="none" stroke="midnightblue" d="M943.62,-220.92C957.86,-220.92 974.43,-220.92 990.41,-220.92"/>
<polygon fill="midnightblue" stroke="midnightblue" points="990.79,-224.42 1000.79,-220.92 990.79,-217.42 990.79,-224.42"/>
</g>
<!-- Node20&#45;&gt;Node5 -->
<g id="edge25" class="edge">
<title>Node20&#45;&gt;Node5</title>
<path fill="none" stroke="midnightblue" d="M807.1,-251.48C864.1,-253.18 954.22,-255.87 1009.1,-257.5"/>
<polygon fill="midnightblue" stroke="midnightblue" points="1009.15,-261.01 1019.25,-257.81 1009.36,-254.01 1009.15,-261.01"/>
</g>
<!-- Node20&#45;&gt;Node18 -->
<g id="edge26" class="edge">
<title>Node20&#45;&gt;Node18</title>
<path fill="none" stroke="midnightblue" d="M803.54,-240.34C819.91,-237.14 838.13,-233.58 854.47,-230.4"/>
<polygon fill="midnightblue" stroke="midnightblue" points="855.21,-233.82 864.36,-228.46 853.87,-226.95 855.21,-233.82"/>
</g>
<!-- Node21&#45;&gt;Node3 -->
<g id="edge28" class="edge">
<title>Node21&#45;&gt;Node3</title>
<path fill="none" stroke="midnightblue" d="M414.49,-191.51C434.27,-210.38 479.94,-253.52 520,-287.92 536.59,-302.16 555.97,-317.65 570.29,-328.88"/>
<polygon fill="midnightblue" stroke="midnightblue" points="568.45,-331.88 578.48,-335.27 572.76,-326.36 568.45,-331.88"/>
</g>
<!-- Node21&#45;&gt;Node7 -->
<g id="edge29" class="edge">
<title>Node21&#45;&gt;Node7</title>
<path fill="none" stroke="midnightblue" d="M445.89,-191.46C468.54,-196.68 497.17,-203.28 523,-209.24"/>
<polygon fill="midnightblue" stroke="midnightblue" points="522.22,-212.65 532.75,-211.49 523.79,-205.83 522.22,-212.65"/>
</g>
<!-- Node21&#45;&gt;Node9 -->
<g id="edge32" class="edge">
<title>Node21&#45;&gt;Node9</title>
<path fill="none" stroke="midnightblue" d="M484.34,-181.69C556.16,-181.48 658.62,-181.19 713.78,-181.03"/>
<polygon fill="midnightblue" stroke="midnightblue" points="713.84,-184.53 723.83,-181 713.82,-177.53 713.84,-184.53"/>
</g>
<!-- Node21&#45;&gt;Node16 -->
<g id="edge30" class="edge">
<title>Node21&#45;&gt;Node16</title>
<path fill="none" stroke="midnightblue" d="M423.85,-172.28C446.58,-161.15 485.55,-142.6 520,-128.92 529.79,-125.03 540.5,-121.2 550.56,-117.78"/>
<polygon fill="midnightblue" stroke="midnightblue" points="551.97,-120.99 560.34,-114.51 549.75,-114.36 551.97,-120.99"/>
</g>
<!-- Node21&#45;&gt;Node17 -->
<g id="edge31" class="edge">
<title>Node21&#45;&gt;Node17</title>
<path fill="none" stroke="midnightblue" d="M447.52,-172.4C511.22,-158.3 630.5,-131.91 699.5,-116.64"/>
<polygon fill="midnightblue" stroke="midnightblue" points="700.3,-120.05 709.3,-114.47 698.78,-113.22 700.3,-120.05"/>
</g>
<!-- Node22&#45;&gt;Node7 -->
<g id="edge34" class="edge">
<title>Node22&#45;&gt;Node7</title>
<path fill="none" stroke="midnightblue" d="M416.74,-86.63C446.46,-110.21 523.01,-170.96 564.05,-203.53"/>
<polygon fill="midnightblue" stroke="midnightblue" points="562,-206.37 572,-209.84 566.35,-200.89 562,-206.37"/>
</g>
<!-- Node22&#45;&gt;Node9 -->
<g id="edge39" class="edge">
<title>Node22&#45;&gt;Node9</title>
<path fill="none" stroke="midnightblue" d="M456.89,-67.41C511.28,-60.07 597.55,-55.62 664,-85.92 665.19,-86.46 711.26,-136.25 736.45,-163.52"/>
<polygon fill="midnightblue" stroke="midnightblue" points="734.16,-166.21 743.52,-171.18 739.31,-161.46 734.16,-166.21"/>
</g>
<!-- Node22&#45;&gt;Node16 -->
<g id="edge37" class="edge">
<title>Node22&#45;&gt;Node16</title>
<path fill="none" stroke="midnightblue" d="M467.9,-86.44C484.67,-88.95 502.88,-91.69 520.03,-94.26"/>
<polygon fill="midnightblue" stroke="midnightblue" points="519.57,-97.73 529.98,-95.76 520.61,-90.81 519.57,-97.73"/>
</g>
<!-- Node22&#45;&gt;Node17 -->
<g id="edge38" class="edge">
<title>Node22&#45;&gt;Node17</title>
<path fill="none" stroke="midnightblue" d="M434.67,-67.33C483.68,-53.26 583.23,-30.95 664,-52.92 689.77,-59.93 715.7,-76.55 732.77,-89.13"/>
<polygon fill="midnightblue" stroke="midnightblue" points="730.76,-92 740.84,-95.27 735,-86.43 730.76,-92"/>
</g>
<!-- Node23 -->
<g id="node23" class="node">
<title>Node23</title>
<g id="a_node23"><a xlink:href="group__as__iic__reg__funcs.html#gace5813084165559c81fe11db6b628b5e" target="_top" xlink:title=" ">
<polygon fill="none" stroke="black" points="850.5,-173.42 850.5,-192.42 957.5,-192.42 957.5,-173.42 850.5,-173.42"/>
<text text-anchor="middle" x="904" y="-180.42" font-family="Helvetica,sans-Serif" font-size="10.00">as_iic_get_rx_byte</text>
</a>
</g>
</g>
<!-- Node22&#45;&gt;Node23 -->
<g id="edge35" class="edge">
<title>Node22&#45;&gt;Node23</title>
<path fill="none" stroke="midnightblue" d="M427,-67.4C449.92,-58.27 486.71,-45.12 520,-39.92 583.23,-30.04 600.77,-30 664,-39.92 729.96,-50.26 757.02,-41.65 807,-85.92 835.58,-111.23 814.36,-138.67 843,-163.92 844.94,-165.62 847.03,-167.18 849.23,-168.59"/>
<polygon fill="midnightblue" stroke="midnightblue" points="847.68,-171.74 858.15,-173.38 851,-165.57 847.68,-171.74"/>
</g>
<!-- Node23&#45;&gt;Node5 -->
<g id="edge36" class="edge">
<title>Node23&#45;&gt;Node5</title>
<path fill="none" stroke="midnightblue" d="M944.99,-192.45C951.94,-194.97 958.89,-198.09 965,-201.92 984.72,-214.27 981.43,-227.34 1001,-239.92 1004.14,-241.94 1007.52,-243.76 1011,-245.42"/>
<polygon fill="midnightblue" stroke="midnightblue" points="1009.81,-248.71 1020.39,-249.39 1012.54,-242.27 1009.81,-248.71"/>
</g>
</g>
</svg>
