<?xml version="1.0" encoding="UTF-8" standalone="no"?>
<!DOCTYPE svg PUBLIC "-//W3C//DTD SVG 1.1//EN"
 "http://www.w3.org/Graphics/SVG/1.1/DTD/svg11.dtd">
<!-- Generated by graphviz version 2.43.0 (0)
 -->
<!-- Title: as_reader_writer_set_go Pages: 1 -->
<svg width="667pt" height="218pt"
 viewBox="0.00 0.00 667.00 218.00" xmlns="http://www.w3.org/2000/svg" xmlns:xlink="http://www.w3.org/1999/xlink">
<g id="graph0" class="graph" transform="scale(1 1) rotate(0) translate(4 214)">
<title>as_reader_writer_set_go</title>
<!-- Node1 -->
<g id="node1" class="node">
<title>Node1</title>
<g id="a_node1"><a xlink:title="Starts operation of hardware module.">
<polygon fill="#bfbfbf" stroke="black" points="523,-114.5 523,-133.5 659,-133.5 659,-114.5 523,-114.5"/>
<text text-anchor="middle" x="591" y="-121.5" font-family="Helvetica,sans-Serif" font-size="10.00">as_reader_writer_set_go</text>
</a>
</g>
</g>
<!-- Node2 -->
<g id="node2" class="node">
<title>Node2</title>
<g id="a_node2"><a xlink:href="as__memio_8c.html#ab93cfbaa1058ea83836b6d052e72ad50" target="_top" xlink:title=" ">
<polygon fill="none" stroke="black" points="332.5,-152.5 332.5,-171.5 485.5,-171.5 485.5,-152.5 332.5,-152.5"/>
<text text-anchor="middle" x="409" y="-159.5" font-family="Helvetica,sans-Serif" font-size="10.00">as_memio_hw_read_update</text>
</a>
</g>
</g>
<!-- Node1&#45;&gt;Node2 -->
<g id="edge1" class="edge">
<title>Node1&#45;&gt;Node2</title>
<path fill="none" stroke="midnightblue" d="M534.67,-135.68C509.14,-141.07 479.22,-147.39 455.09,-152.48"/>
<polygon fill="midnightblue" stroke="midnightblue" points="535.52,-139.08 544.58,-133.59 534.07,-132.23 535.52,-139.08"/>
</g>
<!-- Node7 -->
<g id="node7" class="node">
<title>Node7</title>
<g id="a_node7"><a xlink:href="as__memio_8c.html#a3ae0453041c4a6d406955edd9c7e43f3" target="_top" xlink:title=" ">
<polygon fill="none" stroke="black" points="331,-114.5 331,-133.5 487,-133.5 487,-114.5 331,-114.5"/>
<text text-anchor="middle" x="409" y="-121.5" font-family="Helvetica,sans-Serif" font-size="10.00">as_memio_hw_write_update</text>
</a>
</g>
</g>
<!-- Node1&#45;&gt;Node7 -->
<g id="edge6" class="edge">
<title>Node1&#45;&gt;Node7</title>
<path fill="none" stroke="midnightblue" d="M512.72,-124C504.22,-124 495.58,-124 487.09,-124"/>
<polygon fill="midnightblue" stroke="midnightblue" points="512.97,-127.5 522.97,-124 512.97,-120.5 512.97,-127.5"/>
</g>
<!-- Node10 -->
<g id="node10" class="node">
<title>Node10</title>
<g id="a_node10"><a xlink:href="group__mmap__file__ops.html#ga93a1477871ee8b3e8071b60442a0ceb3" target="_top" xlink:title=" ">
<polygon fill="none" stroke="black" points="341,-57.5 341,-76.5 477,-76.5 477,-57.5 341,-57.5"/>
<text text-anchor="middle" x="409" y="-64.5" font-family="Helvetica,sans-Serif" font-size="10.00">as_mmap_start_transfer</text>
</a>
</g>
</g>
<!-- Node1&#45;&gt;Node10 -->
<g id="edge10" class="edge">
<title>Node1&#45;&gt;Node10</title>
<path fill="none" stroke="midnightblue" d="M550.03,-111.34C516.85,-100.84 470.37,-86.12 440.23,-76.57"/>
<polygon fill="midnightblue" stroke="midnightblue" points="549.28,-114.78 559.87,-114.46 551.4,-108.1 549.28,-114.78"/>
</g>
<!-- Node3 -->
<g id="node3" class="node">
<title>Node3</title>
<g id="a_node3"><a xlink:href="as__memio_8h.html#a8162b54494988ebca0ff03ff23eddbb7" target="_top" xlink:title=" ">
<polygon fill="none" stroke="black" points="168,-152.5 168,-171.5 294,-171.5 294,-152.5 168,-152.5"/>
<text text-anchor="middle" x="231" y="-159.5" font-family="Helvetica,sans-Serif" font-size="10.00">as_memio_hw_update</text>
</a>
</g>
</g>
<!-- Node2&#45;&gt;Node3 -->
<g id="edge2" class="edge">
<title>Node2&#45;&gt;Node3</title>
<path fill="none" stroke="midnightblue" d="M322.11,-162C312.66,-162 303.17,-162 294.09,-162"/>
<polygon fill="midnightblue" stroke="midnightblue" points="322.34,-165.5 332.34,-162 322.34,-158.5 322.34,-165.5"/>
</g>
<!-- Node5 -->
<g id="node5" class="node">
<title>Node5</title>
<g id="a_node5"><a xlink:href="as__memio_8h.html#affb75145f7c6b1a8baea620d47f62a99" target="_top" xlink:title=" ">
<polygon fill="none" stroke="black" points="183.5,-190.5 183.5,-209.5 278.5,-209.5 278.5,-190.5 183.5,-190.5"/>
<text text-anchor="middle" x="231" y="-197.5" font-family="Helvetica,sans-Serif" font-size="10.00">as_memio_read</text>
</a>
</g>
</g>
<!-- Node2&#45;&gt;Node5 -->
<g id="edge4" class="edge">
<title>Node2&#45;&gt;Node5</title>
<path fill="none" stroke="midnightblue" d="M353.57,-173.75C328.68,-179.13 299.58,-185.41 276.09,-190.48"/>
<polygon fill="midnightblue" stroke="midnightblue" points="354.55,-177.12 363.59,-171.59 353.07,-170.28 354.55,-177.12"/>
</g>
<!-- Node4 -->
<g id="node4" class="node">
<title>Node4</title>
<g id="a_node4"><a xlink:href="group__memio__file__ops.html#gab0cee6094e9d25645dcab0b9df045467" target="_top" xlink:title=" ">
<polygon fill="none" stroke="black" points="1.5,-152.5 1.5,-171.5 129.5,-171.5 129.5,-152.5 1.5,-152.5"/>
<text text-anchor="middle" x="65.5" y="-159.5" font-family="Helvetica,sans-Serif" font-size="10.00">driver_as_memio_ioctl</text>
</a>
</g>
</g>
<!-- Node3&#45;&gt;Node4 -->
<g id="edge3" class="edge">
<title>Node3&#45;&gt;Node4</title>
<path fill="none" stroke="midnightblue" d="M157.69,-162C148.35,-162 138.86,-162 129.69,-162"/>
<polygon fill="midnightblue" stroke="midnightblue" points="157.72,-165.5 167.72,-162 157.72,-158.5 157.72,-165.5"/>
</g>
<!-- Node6 -->
<g id="node6" class="node">
<title>Node6</title>
<g id="a_node6"><a xlink:href="group__memio__file__ops.html#gabc26947002eedee4c4557faff325074e" target="_top" xlink:title=" ">
<polygon fill="none" stroke="black" points="1.5,-190.5 1.5,-209.5 129.5,-209.5 129.5,-190.5 1.5,-190.5"/>
<text text-anchor="middle" x="65.5" y="-197.5" font-family="Helvetica,sans-Serif" font-size="10.00">driver_as_memio_read</text>
</a>
</g>
</g>
<!-- Node5&#45;&gt;Node6 -->
<g id="edge5" class="edge">
<title>Node5&#45;&gt;Node6</title>
<path fill="none" stroke="midnightblue" d="M173.11,-200C159.03,-200 143.87,-200 129.51,-200"/>
<polygon fill="midnightblue" stroke="midnightblue" points="173.15,-203.5 183.15,-200 173.15,-196.5 173.15,-203.5"/>
</g>
<!-- Node7&#45;&gt;Node3 -->
<g id="edge7" class="edge">
<title>Node7&#45;&gt;Node3</title>
<path fill="none" stroke="midnightblue" d="M353.57,-135.75C328.68,-141.13 299.58,-147.41 276.09,-152.48"/>
<polygon fill="midnightblue" stroke="midnightblue" points="354.55,-139.12 363.59,-133.59 353.07,-132.28 354.55,-139.12"/>
</g>
<!-- Node8 -->
<g id="node8" class="node">
<title>Node8</title>
<g id="a_node8"><a xlink:href="as__memio_8h.html#ad5dd4d8bd2c20ea07188bcbb36dd0f87" target="_top" xlink:title=" ">
<polygon fill="none" stroke="black" points="182,-114.5 182,-133.5 280,-133.5 280,-114.5 182,-114.5"/>
<text text-anchor="middle" x="231" y="-121.5" font-family="Helvetica,sans-Serif" font-size="10.00">as_memio_write</text>
</a>
</g>
</g>
<!-- Node7&#45;&gt;Node8 -->
<g id="edge8" class="edge">
<title>Node7&#45;&gt;Node8</title>
<path fill="none" stroke="midnightblue" d="M320.64,-124C306.65,-124 292.63,-124 280.01,-124"/>
<polygon fill="midnightblue" stroke="midnightblue" points="320.8,-127.5 330.8,-124 320.8,-120.5 320.8,-127.5"/>
</g>
<!-- Node9 -->
<g id="node9" class="node">
<title>Node9</title>
<g id="a_node9"><a xlink:href="group__memio__file__ops.html#gafff67fc067850f545e90c7e487f4fbce" target="_top" xlink:title=" ">
<polygon fill="none" stroke="black" points="0,-114.5 0,-133.5 131,-133.5 131,-114.5 0,-114.5"/>
<text text-anchor="middle" x="65.5" y="-121.5" font-family="Helvetica,sans-Serif" font-size="10.00">driver_as_memio_write</text>
</a>
</g>
</g>
<!-- Node8&#45;&gt;Node9 -->
<g id="edge9" class="edge">
<title>Node8&#45;&gt;Node9</title>
<path fill="none" stroke="midnightblue" d="M171.57,-124C158.52,-124 144.59,-124 131.3,-124"/>
<polygon fill="midnightblue" stroke="midnightblue" points="171.83,-127.5 181.83,-124 171.83,-120.5 171.83,-127.5"/>
</g>
<!-- Node11 -->
<g id="node11" class="node">
<title>Node11</title>
<g id="a_node11"><a xlink:href="group__mmap__file__ops.html#gab078c489a563497f4da70a9f6115dfce" target="_top" xlink:title=" ">
<polygon fill="none" stroke="black" points="185.5,-76.5 185.5,-95.5 276.5,-95.5 276.5,-76.5 185.5,-76.5"/>
<text text-anchor="middle" x="231" y="-83.5" font-family="Helvetica,sans-Serif" font-size="10.00">as_mmap_ioctl</text>
</a>
</g>
</g>
<!-- Node10&#45;&gt;Node11 -->
<g id="edge11" class="edge">
<title>Node10&#45;&gt;Node11</title>
<path fill="none" stroke="midnightblue" d="M331,-75.31C312.37,-77.32 293.07,-79.41 276.51,-81.19"/>
<polygon fill="midnightblue" stroke="midnightblue" points="331.39,-78.79 340.96,-74.24 330.64,-71.83 331.39,-78.79"/>
</g>
<!-- Node12 -->
<g id="node12" class="node">
<title>Node12</title>
<g id="a_node12"><a xlink:href="group__mmap__file__ops.html#gae18f99f9774b7224e71d80209ecd0bf4" target="_top" xlink:title=" ">
<polygon fill="none" stroke="black" points="168.5,-38.5 168.5,-57.5 293.5,-57.5 293.5,-38.5 168.5,-38.5"/>
<text text-anchor="middle" x="231" y="-45.5" font-family="Helvetica,sans-Serif" font-size="10.00">driver_as_mmap_read</text>
</a>
</g>
</g>
<!-- Node10&#45;&gt;Node12 -->
<g id="edge12" class="edge">
<title>Node10&#45;&gt;Node12</title>
<path fill="none" stroke="midnightblue" d="M330.65,-58.65C318.27,-57.31 305.6,-55.95 293.65,-54.66"/>
<polygon fill="midnightblue" stroke="midnightblue" points="330.64,-62.17 340.96,-59.76 331.39,-55.21 330.64,-62.17"/>
</g>
<!-- Node13 -->
<g id="node13" class="node">
<title>Node13</title>
<g id="a_node13"><a xlink:href="group__mmap__file__ops.html#gaeea3980f5b633c4b83ff46b2efc2ea10" target="_top" xlink:title=" ">
<polygon fill="none" stroke="black" points="167,-0.5 167,-19.5 295,-19.5 295,-0.5 167,-0.5"/>
<text text-anchor="middle" x="231" y="-7.5" font-family="Helvetica,sans-Serif" font-size="10.00">driver_as_mmap_write</text>
</a>
</g>
</g>
<!-- Node10&#45;&gt;Node13 -->
<g id="edge13" class="edge">
<title>Node10&#45;&gt;Node13</title>
<path fill="none" stroke="midnightblue" d="M370.61,-54.1C348.64,-46.6 320.31,-37.07 295,-29 285.1,-25.84 274.27,-22.53 264.43,-19.57"/>
<polygon fill="midnightblue" stroke="midnightblue" points="369.62,-57.46 380.22,-57.39 371.89,-50.84 369.62,-57.46"/>
</g>
</g>
</svg>
