<?xml version="1.0" encoding="UTF-8" standalone="no"?>
<!DOCTYPE svg PUBLIC "-//W3C//DTD SVG 1.1//EN"
 "http://www.w3.org/Graphics/SVG/1.1/DTD/svg11.dtd">
<!-- Generated by graphviz version 2.43.0 (0)
 -->
<!-- Title: as_dcache_invalidate_range Pages: 1 -->
<svg width="832pt" height="218pt"
 viewBox="0.00 0.00 832.00 218.00" xmlns="http://www.w3.org/2000/svg" xmlns:xlink="http://www.w3.org/1999/xlink">
<g id="graph0" class="graph" transform="scale(1 1) rotate(0) translate(4 214)">
<title>as_dcache_invalidate_range</title>
<!-- Node1 -->
<g id="node1" class="node">
<title>Node1</title>
<g id="a_node1"><a xlink:title=" ">
<polygon fill="#bfbfbf" stroke="black" points="702,-128 702,-158 824,-158 824,-128 702,-128"/>
<text text-anchor="start" x="710" y="-146" font-family="Helvetica,sans-Serif" font-size="10.00">as_dcache_invalidate</text>
<text text-anchor="middle" x="763" y="-135" font-family="Helvetica,sans-Serif" font-size="10.00">_range</text>
</a>
</g>
</g>
<!-- Node2 -->
<g id="node2" class="node">
<title>Node2</title>
<g id="a_node2"><a xlink:href="as__memio_8c.html#ab93cfbaa1058ea83836b6d052e72ad50" target="_top" xlink:title=" ">
<polygon fill="none" stroke="black" points="374.5,-152.5 374.5,-171.5 527.5,-171.5 527.5,-152.5 374.5,-152.5"/>
<text text-anchor="middle" x="451" y="-159.5" font-family="Helvetica,sans-Serif" font-size="10.00">as_memio_hw_read_update</text>
</a>
</g>
</g>
<!-- Node1&#45;&gt;Node2 -->
<g id="edge1" class="edge">
<title>Node1&#45;&gt;Node2</title>
<path fill="none" stroke="midnightblue" d="M691.68,-147.31C642.78,-150.31 577.64,-154.3 527.62,-157.37"/>
<polygon fill="midnightblue" stroke="midnightblue" points="692.09,-150.79 701.86,-146.69 691.67,-143.8 692.09,-150.79"/>
</g>
<!-- Node7 -->
<g id="node7" class="node">
<title>Node7</title>
<g id="a_node7"><a xlink:href="as__cache_8h.html#ae76087a19400fcaebb8397a8a1ee828b" target="_top" xlink:title="Unmap DMA address at end of transfer.">
<polygon fill="none" stroke="black" points="565,-114.5 565,-133.5 666,-133.5 666,-114.5 565,-114.5"/>
<text text-anchor="middle" x="615.5" y="-121.5" font-family="Helvetica,sans-Serif" font-size="10.00">as_unmap_single</text>
</a>
</g>
</g>
<!-- Node1&#45;&gt;Node7 -->
<g id="edge6" class="edge">
<title>Node1&#45;&gt;Node7</title>
<path fill="none" stroke="midnightblue" d="M691.86,-133.84C683.19,-132.71 674.48,-131.57 666.2,-130.49"/>
<polygon fill="midnightblue" stroke="midnightblue" points="691.61,-137.34 701.98,-135.16 692.52,-130.4 691.61,-137.34"/>
</g>
<!-- Node3 -->
<g id="node3" class="node">
<title>Node3</title>
<g id="a_node3"><a xlink:href="as__memio_8h.html#a8162b54494988ebca0ff03ff23eddbb7" target="_top" xlink:title=" ">
<polygon fill="none" stroke="black" points="189,-152.5 189,-171.5 315,-171.5 315,-152.5 189,-152.5"/>
<text text-anchor="middle" x="252" y="-159.5" font-family="Helvetica,sans-Serif" font-size="10.00">as_memio_hw_update</text>
</a>
</g>
</g>
<!-- Node2&#45;&gt;Node3 -->
<g id="edge2" class="edge">
<title>Node2&#45;&gt;Node3</title>
<path fill="none" stroke="midnightblue" d="M364.23,-162C347.78,-162 330.84,-162 315.3,-162"/>
<polygon fill="midnightblue" stroke="midnightblue" points="364.4,-165.5 374.4,-162 364.4,-158.5 364.4,-165.5"/>
</g>
<!-- Node5 -->
<g id="node5" class="node">
<title>Node5</title>
<g id="a_node5"><a xlink:href="as__memio_8h.html#affb75145f7c6b1a8baea620d47f62a99" target="_top" xlink:title=" ">
<polygon fill="none" stroke="black" points="204.5,-190.5 204.5,-209.5 299.5,-209.5 299.5,-190.5 204.5,-190.5"/>
<text text-anchor="middle" x="252" y="-197.5" font-family="Helvetica,sans-Serif" font-size="10.00">as_memio_read</text>
</a>
</g>
</g>
<!-- Node2&#45;&gt;Node5 -->
<g id="edge4" class="edge">
<title>Node2&#45;&gt;Node5</title>
<path fill="none" stroke="midnightblue" d="M390.5,-173.48C361.42,-179.09 326.93,-185.74 299.76,-190.98"/>
<polygon fill="midnightblue" stroke="midnightblue" points="391.39,-176.87 400.54,-171.54 390.06,-170 391.39,-176.87"/>
</g>
<!-- Node4 -->
<g id="node4" class="node">
<title>Node4</title>
<g id="a_node4"><a xlink:href="group__memio__file__ops.html#gab0cee6094e9d25645dcab0b9df045467" target="_top" xlink:title=" ">
<polygon fill="none" stroke="black" points="1.5,-152.5 1.5,-171.5 129.5,-171.5 129.5,-152.5 1.5,-152.5"/>
<text text-anchor="middle" x="65.5" y="-159.5" font-family="Helvetica,sans-Serif" font-size="10.00">driver_as_memio_ioctl</text>
</a>
</g>
</g>
<!-- Node3&#45;&gt;Node4 -->
<g id="edge3" class="edge">
<title>Node3&#45;&gt;Node4</title>
<path fill="none" stroke="midnightblue" d="M178.37,-162C162.28,-162 145.36,-162 129.69,-162"/>
<polygon fill="midnightblue" stroke="midnightblue" points="178.79,-165.5 188.79,-162 178.79,-158.5 178.79,-165.5"/>
</g>
<!-- Node6 -->
<g id="node6" class="node">
<title>Node6</title>
<g id="a_node6"><a xlink:href="group__memio__file__ops.html#gabc26947002eedee4c4557faff325074e" target="_top" xlink:title=" ">
<polygon fill="none" stroke="black" points="1.5,-190.5 1.5,-209.5 129.5,-209.5 129.5,-190.5 1.5,-190.5"/>
<text text-anchor="middle" x="65.5" y="-197.5" font-family="Helvetica,sans-Serif" font-size="10.00">driver_as_memio_read</text>
</a>
</g>
</g>
<!-- Node5&#45;&gt;Node6 -->
<g id="edge5" class="edge">
<title>Node5&#45;&gt;Node6</title>
<path fill="none" stroke="midnightblue" d="M194.35,-200C173.91,-200 150.73,-200 129.77,-200"/>
<polygon fill="midnightblue" stroke="midnightblue" points="194.44,-203.5 204.44,-200 194.44,-196.5 194.44,-203.5"/>
</g>
<!-- Node7&#45;&gt;Node2 -->
<g id="edge14" class="edge">
<title>Node7&#45;&gt;Node2</title>
<path fill="none" stroke="midnightblue" d="M563.63,-135.9C540.79,-141.24 514.2,-147.45 492.71,-152.48"/>
<polygon fill="midnightblue" stroke="midnightblue" points="564.55,-139.27 573.49,-133.59 562.96,-132.46 564.55,-139.27"/>
</g>
<!-- Node8 -->
<g id="node8" class="node">
<title>Node8</title>
<g id="a_node8"><a xlink:href="group__as__buffer.html#ga4be2b60d2ac888f473e52f39c9492368" target="_top" xlink:title=" ">
<polygon fill="none" stroke="black" points="385.5,-57.5 385.5,-76.5 516.5,-76.5 516.5,-57.5 385.5,-57.5"/>
<text text-anchor="middle" x="451" y="-64.5" font-family="Helvetica,sans-Serif" font-size="10.00">as_buffer_update_state</text>
</a>
</g>
</g>
<!-- Node7&#45;&gt;Node8 -->
<g id="edge7" class="edge">
<title>Node7&#45;&gt;Node8</title>
<path fill="none" stroke="midnightblue" d="M577.64,-111.07C547.74,-100.58 506.27,-86.04 479.29,-76.57"/>
<polygon fill="midnightblue" stroke="midnightblue" points="576.71,-114.45 587.3,-114.46 579.02,-107.85 576.71,-114.45"/>
</g>
<!-- Node13 -->
<g id="node13" class="node">
<title>Node13</title>
<g id="a_node13"><a xlink:href="as__memio_8c.html#a3ae0453041c4a6d406955edd9c7e43f3" target="_top" xlink:title=" ">
<polygon fill="none" stroke="black" points="373,-114.5 373,-133.5 529,-133.5 529,-114.5 373,-114.5"/>
<text text-anchor="middle" x="451" y="-121.5" font-family="Helvetica,sans-Serif" font-size="10.00">as_memio_hw_write_update</text>
</a>
</g>
</g>
<!-- Node7&#45;&gt;Node13 -->
<g id="edge15" class="edge">
<title>Node7&#45;&gt;Node13</title>
<path fill="none" stroke="midnightblue" d="M554.85,-124C546.49,-124 537.8,-124 529.17,-124"/>
<polygon fill="midnightblue" stroke="midnightblue" points="554.86,-127.5 564.86,-124 554.86,-120.5 554.86,-127.5"/>
</g>
<!-- Node9 -->
<g id="node9" class="node">
<title>Node9</title>
<g id="a_node9"><a xlink:href="group__mmap__file__ops.html#gac0196baed6a0a2e62c8c9c3aa2680af4" target="_top" xlink:title=" ">
<polygon fill="none" stroke="black" points="167,-38.5 167,-57.5 337,-57.5 337,-38.5 167,-38.5"/>
<text text-anchor="middle" x="252" y="-45.5" font-family="Helvetica,sans-Serif" font-size="10.00">as_mmap_wait_for_completion</text>
</a>
</g>
</g>
<!-- Node8&#45;&gt;Node9 -->
<g id="edge8" class="edge">
<title>Node8&#45;&gt;Node9</title>
<path fill="none" stroke="midnightblue" d="M375.17,-59.78C362.7,-58.58 349.7,-57.33 337.02,-56.1"/>
<polygon fill="midnightblue" stroke="midnightblue" points="375.2,-63.3 385.49,-60.78 375.88,-56.33 375.2,-63.3"/>
</g>
<!-- Node11 -->
<g id="node11" class="node">
<title>Node11</title>
<g id="a_node11"><a xlink:href="group__mmap__file__ops.html#gae18f99f9774b7224e71d80209ecd0bf4" target="_top" xlink:title=" ">
<polygon fill="none" stroke="black" points="3,-76.5 3,-95.5 128,-95.5 128,-76.5 3,-76.5"/>
<text text-anchor="middle" x="65.5" y="-83.5" font-family="Helvetica,sans-Serif" font-size="10.00">driver_as_mmap_read</text>
</a>
</g>
</g>
<!-- Node8&#45;&gt;Node11 -->
<g id="edge12" class="edge">
<title>Node8&#45;&gt;Node11</title>
<path fill="none" stroke="midnightblue" d="M375.02,-70.71C302.98,-74.28 195.43,-79.61 128.21,-82.94"/>
<polygon fill="midnightblue" stroke="midnightblue" points="375.56,-74.19 385.38,-70.2 375.22,-67.2 375.56,-74.19"/>
</g>
<!-- Node12 -->
<g id="node12" class="node">
<title>Node12</title>
<g id="a_node12"><a xlink:href="group__mmap__file__ops.html#gaeea3980f5b633c4b83ff46b2efc2ea10" target="_top" xlink:title=" ">
<polygon fill="none" stroke="black" points="1.5,-0.5 1.5,-19.5 129.5,-19.5 129.5,-0.5 1.5,-0.5"/>
<text text-anchor="middle" x="65.5" y="-7.5" font-family="Helvetica,sans-Serif" font-size="10.00">driver_as_mmap_write</text>
</a>
</g>
</g>
<!-- Node8&#45;&gt;Node12 -->
<g id="edge13" class="edge">
<title>Node8&#45;&gt;Node12</title>
<path fill="none" stroke="midnightblue" d="M417.78,-53.72C395.49,-45.15 364.93,-34.58 337,-29 266.95,-15 184.9,-10.92 129.69,-9.92"/>
<polygon fill="midnightblue" stroke="midnightblue" points="416.51,-56.98 427.1,-57.38 419.07,-50.47 416.51,-56.98"/>
</g>
<!-- Node10 -->
<g id="node10" class="node">
<title>Node10</title>
<g id="a_node10"><a xlink:href="group__mmap__file__ops.html#gab078c489a563497f4da70a9f6115dfce" target="_top" xlink:title=" ">
<polygon fill="none" stroke="black" points="20,-38.5 20,-57.5 111,-57.5 111,-38.5 20,-38.5"/>
<text text-anchor="middle" x="65.5" y="-45.5" font-family="Helvetica,sans-Serif" font-size="10.00">as_mmap_ioctl</text>
</a>
</g>
</g>
<!-- Node9&#45;&gt;Node10 -->
<g id="edge9" class="edge">
<title>Node9&#45;&gt;Node10</title>
<path fill="none" stroke="midnightblue" d="M156.47,-48C140.68,-48 124.97,-48 111.2,-48"/>
<polygon fill="midnightblue" stroke="midnightblue" points="156.85,-51.5 166.85,-48 156.85,-44.5 156.85,-51.5"/>
</g>
<!-- Node9&#45;&gt;Node11 -->
<g id="edge10" class="edge">
<title>Node9&#45;&gt;Node11</title>
<path fill="none" stroke="midnightblue" d="M194.63,-59.61C168.39,-65.01 137.56,-71.36 112.72,-76.48"/>
<polygon fill="midnightblue" stroke="midnightblue" points="195.35,-63.03 204.44,-57.59 193.94,-56.18 195.35,-63.03"/>
</g>
<!-- Node9&#45;&gt;Node12 -->
<g id="edge11" class="edge">
<title>Node9&#45;&gt;Node12</title>
<path fill="none" stroke="midnightblue" d="M194.63,-36.39C168.39,-30.99 137.56,-24.64 112.72,-19.52"/>
<polygon fill="midnightblue" stroke="midnightblue" points="193.94,-39.82 204.44,-38.41 195.35,-32.97 193.94,-39.82"/>
</g>
<!-- Node13&#45;&gt;Node3 -->
<g id="edge16" class="edge">
<title>Node13&#45;&gt;Node3</title>
<path fill="none" stroke="midnightblue" d="M390.44,-135.49C362.33,-140.91 329.18,-147.31 302.48,-152.46"/>
<polygon fill="midnightblue" stroke="midnightblue" points="391.39,-138.87 400.54,-133.54 390.06,-132 391.39,-138.87"/>
</g>
<!-- Node14 -->
<g id="node14" class="node">
<title>Node14</title>
<g id="a_node14"><a xlink:href="as__memio_8h.html#ad5dd4d8bd2c20ea07188bcbb36dd0f87" target="_top" xlink:title=" ">
<polygon fill="none" stroke="black" points="203,-114.5 203,-133.5 301,-133.5 301,-114.5 203,-114.5"/>
<text text-anchor="middle" x="252" y="-121.5" font-family="Helvetica,sans-Serif" font-size="10.00">as_memio_write</text>
</a>
</g>
</g>
<!-- Node13&#45;&gt;Node14 -->
<g id="edge17" class="edge">
<title>Node13&#45;&gt;Node14</title>
<path fill="none" stroke="midnightblue" d="M362.99,-124C341.79,-124 319.88,-124 301.24,-124"/>
<polygon fill="midnightblue" stroke="midnightblue" points="362.99,-127.5 372.99,-124 362.99,-120.5 362.99,-127.5"/>
</g>
<!-- Node15 -->
<g id="node15" class="node">
<title>Node15</title>
<g id="a_node15"><a xlink:href="group__memio__file__ops.html#gafff67fc067850f545e90c7e487f4fbce" target="_top" xlink:title=" ">
<polygon fill="none" stroke="black" points="0,-114.5 0,-133.5 131,-133.5 131,-114.5 0,-114.5"/>
<text text-anchor="middle" x="65.5" y="-121.5" font-family="Helvetica,sans-Serif" font-size="10.00">driver_as_memio_write</text>
</a>
</g>
</g>
<!-- Node14&#45;&gt;Node15 -->
<g id="edge18" class="edge">
<title>Node14&#45;&gt;Node15</title>
<path fill="none" stroke="midnightblue" d="M192.3,-124C172.88,-124 151.16,-124 131.3,-124"/>
<polygon fill="midnightblue" stroke="midnightblue" points="192.52,-127.5 202.52,-124 192.52,-120.5 192.52,-127.5"/>
</g>
</g>
</svg>
