<?xml version="1.0" encoding="UTF-8" standalone="no"?>
<!DOCTYPE svg PUBLIC "-//W3C//DTD SVG 1.1//EN"
 "http://www.w3.org/Graphics/SVG/1.1/DTD/svg11.dtd">
<!-- Generated by graphviz version 2.43.0 (0)
 -->
<!-- Title: as_iic_write_bytes Pages: 1 -->
<svg width="1249pt" height="446pt"
 viewBox="0.00 0.00 1249.00 446.00" xmlns="http://www.w3.org/2000/svg" xmlns:xlink="http://www.w3.org/1999/xlink">
<g id="graph0" class="graph" transform="scale(1 1) rotate(0) translate(4 442)">
<title>as_iic_write_bytes</title>
<!-- Node1 -->
<g id="node1" class="node">
<title>Node1</title>
<g id="a_node1"><a xlink:title=" ">
<polygon fill="#bfbfbf" stroke="black" points="0,-152.5 0,-171.5 107,-171.5 107,-152.5 0,-152.5"/>
<text text-anchor="middle" x="53.5" y="-159.5" font-family="Helvetica,sans-Serif" font-size="10.00">as_iic_write_bytes</text>
</a>
</g>
</g>
<!-- Node2 -->
<g id="node2" class="node">
<title>Node2</title>
<g id="a_node2"><a xlink:href="group__as__iic__helpers.html#ga53e6050a2c66be89ac23084fd9de9c23" target="_top" xlink:title=" ">
<polygon fill="none" stroke="black" points="143,-152.5 143,-171.5 275,-171.5 275,-152.5 143,-152.5"/>
<text text-anchor="middle" x="209" y="-159.5" font-family="Helvetica,sans-Serif" font-size="10.00">as_iic_start_transaction</text>
</a>
</g>
</g>
<!-- Node1&#45;&gt;Node2 -->
<g id="edge1" class="edge">
<title>Node1&#45;&gt;Node2</title>
<path fill="none" stroke="midnightblue" d="M107.33,-162C115.55,-162 124.19,-162 132.8,-162"/>
<polygon fill="midnightblue" stroke="midnightblue" points="132.87,-165.5 142.87,-162 132.87,-158.5 132.87,-165.5"/>
</g>
<!-- Node21 -->
<g id="node21" class="node">
<title>Node21</title>
<g id="a_node21"><a xlink:href="group__as__iic__helpers.html#ga67cc002a1b20c75dc26f7b328ca5ddc9" target="_top" xlink:title=" ">
<polygon fill="none" stroke="black" points="311,-0.5 311,-19.5 472,-19.5 472,-0.5 311,-0.5"/>
<text text-anchor="middle" x="391.5" y="-7.5" font-family="Helvetica,sans-Serif" font-size="10.00">as_iic_stop_write_transaction</text>
</a>
</g>
</g>
<!-- Node1&#45;&gt;Node21 -->
<g id="edge33" class="edge">
<title>Node1&#45;&gt;Node21</title>
<path fill="none" stroke="midnightblue" d="M69.79,-152.36C108.64,-128.27 214.87,-64.8 311,-29 317.77,-26.48 324.98,-24.21 332.2,-22.19"/>
<polygon fill="midnightblue" stroke="midnightblue" points="333.24,-25.54 342.01,-19.6 331.45,-18.77 333.24,-25.54"/>
</g>
<!-- Node22 -->
<g id="node22" class="node">
<title>Node22</title>
<g id="a_node22"><a xlink:href="group__as__iic__helpers.html#gad5e0aa9a71f8f0f65e1fbded8134b11f" target="_top" xlink:title=" ">
<polygon fill="none" stroke="black" points="324.5,-304.5 324.5,-323.5 458.5,-323.5 458.5,-304.5 324.5,-304.5"/>
<text text-anchor="middle" x="391.5" y="-311.5" font-family="Helvetica,sans-Serif" font-size="10.00">as_iic_write_transaction</text>
</a>
</g>
</g>
<!-- Node1&#45;&gt;Node22 -->
<g id="edge34" class="edge">
<title>Node1&#45;&gt;Node22</title>
<path fill="none" stroke="midnightblue" d="M71.15,-171.56C111.36,-194.36 217.34,-252.8 311,-290 321.57,-294.2 333.17,-298.08 344.16,-301.46"/>
<polygon fill="midnightblue" stroke="midnightblue" points="343.46,-304.9 354.04,-304.4 345.46,-298.19 343.46,-304.9"/>
</g>
<!-- Node3 -->
<g id="node3" class="node">
<title>Node3</title>
<g id="a_node3"><a xlink:href="group__as__iic__bitchecks.html#gaa4e8718c748b5a7e956a38ffd6dbe15d" target="_top" xlink:title=" ">
<polygon fill="none" stroke="black" points="523,-152.5 523,-171.5 637,-171.5 637,-152.5 523,-152.5"/>
<text text-anchor="middle" x="580" y="-159.5" font-family="Helvetica,sans-Serif" font-size="10.00">as_iic_ack_received</text>
</a>
</g>
</g>
<!-- Node2&#45;&gt;Node3 -->
<g id="edge2" class="edge">
<title>Node2&#45;&gt;Node3</title>
<path fill="none" stroke="midnightblue" d="M275.12,-162C342.03,-162 445.65,-162 512.91,-162"/>
<polygon fill="midnightblue" stroke="midnightblue" points="512.98,-165.5 522.98,-162 512.98,-158.5 512.98,-165.5"/>
</g>
<!-- Node7 -->
<g id="node7" class="node">
<title>Node7</title>
<g id="a_node7"><a xlink:href="group__as__iic__wait.html#gad3cfec26b8a73166e060108cf1444a2b" target="_top" xlink:title=" ">
<polygon fill="none" stroke="black" points="521,-27 521,-57 639,-57 639,-27 521,-27"/>
<text text-anchor="start" x="529" y="-45" font-family="Helvetica,sans-Serif" font-size="10.00">as_iic_busy_wait_for</text>
<text text-anchor="middle" x="580" y="-34" font-family="Helvetica,sans-Serif" font-size="10.00">_hwready</text>
</a>
</g>
</g>
<!-- Node2&#45;&gt;Node7 -->
<g id="edge6" class="edge">
<title>Node2&#45;&gt;Node7</title>
<path fill="none" stroke="midnightblue" d="M225.92,-152.36C245.39,-140.91 279.64,-121.87 311,-110 329.7,-102.92 437.64,-76.24 510.7,-58.48"/>
<polygon fill="midnightblue" stroke="midnightblue" points="511.87,-61.79 520.76,-56.03 510.22,-54.99 511.87,-61.79"/>
</g>
<!-- Node8 -->
<g id="node8" class="node">
<title>Node8</title>
<g id="a_node8"><a xlink:href="group__as__iic__user.html#gacdb0c71d0fcfe5e50a7f7316762cd0c0" target="_top" xlink:title=" ">
<polygon fill="none" stroke="black" points="696,-76.5 696,-95.5 787,-95.5 787,-76.5 696,-76.5"/>
<text text-anchor="middle" x="741.5" y="-83.5" font-family="Helvetica,sans-Serif" font-size="10.00">as_iic_is_ready</text>
</a>
</g>
</g>
<!-- Node2&#45;&gt;Node8 -->
<g id="edge18" class="edge">
<title>Node2&#45;&gt;Node8</title>
<path fill="none" stroke="midnightblue" d="M275.05,-152.68C380.6,-137.56 587.27,-107.95 685.77,-93.84"/>
<polygon fill="midnightblue" stroke="midnightblue" points="686.41,-97.28 695.81,-92.4 685.42,-90.36 686.41,-97.28"/>
</g>
<!-- Node13 -->
<g id="node13" class="node">
<title>Node13</title>
<g id="a_node13"><a xlink:href="group__as__iic__wait.html#ga0bc5aad64893b674c42943fb64d17676" target="_top" xlink:title=" ">
<polygon fill="none" stroke="black" points="508,-190.5 508,-209.5 652,-209.5 652,-190.5 508,-190.5"/>
<text text-anchor="middle" x="580" y="-197.5" font-family="Helvetica,sans-Serif" font-size="10.00">as_iic_busy_wait_for_wait</text>
</a>
</g>
</g>
<!-- Node2&#45;&gt;Node13 -->
<g id="edge13" class="edge">
<title>Node2&#45;&gt;Node13</title>
<path fill="none" stroke="midnightblue" d="M275.14,-171.5C287.06,-173.1 299.39,-174.68 311,-176 373.57,-183.13 444.56,-189.41 497.75,-193.75"/>
<polygon fill="midnightblue" stroke="midnightblue" points="497.56,-197.25 507.81,-194.57 498.12,-190.27 497.56,-197.25"/>
</g>
<!-- Node15 -->
<g id="node15" class="node">
<title>Node15</title>
<g id="a_node15"><a xlink:href="group__as__iic__bitchecks.html#gad90ab4c2ed7fbca8f768c87cdb5794ee" target="_top" xlink:title=" ">
<polygon fill="none" stroke="black" points="336,-38.5 336,-57.5 447,-57.5 447,-38.5 336,-38.5"/>
<text text-anchor="middle" x="391.5" y="-45.5" font-family="Helvetica,sans-Serif" font-size="10.00">as_iic_is_initialized</text>
</a>
</g>
</g>
<!-- Node2&#45;&gt;Node15 -->
<g id="edge17" class="edge">
<title>Node2&#45;&gt;Node15</title>
<path fill="none" stroke="midnightblue" d="M218.15,-152.36C234.13,-134.06 271.45,-94.15 311,-72 319.04,-67.5 328.01,-63.75 336.96,-60.66"/>
<polygon fill="midnightblue" stroke="midnightblue" points="338.16,-63.95 346.61,-57.56 336.02,-57.28 338.16,-63.95"/>
</g>
<!-- Node16 -->
<g id="node16" class="node">
<title>Node16</title>
<g id="a_node16"><a xlink:href="group__as__iic__user.html#gae03c311fae3d6a830878a2b0c2c1c2bf" target="_top" xlink:title=" ">
<polygon fill="none" stroke="black" points="518,-228.5 518,-247.5 642,-247.5 642,-228.5 518,-228.5"/>
<text text-anchor="middle" x="580" y="-235.5" font-family="Helvetica,sans-Serif" font-size="10.00">as_iic_reset_hw_state</text>
</a>
</g>
</g>
<!-- Node2&#45;&gt;Node16 -->
<g id="edge19" class="edge">
<title>Node2&#45;&gt;Node16</title>
<path fill="none" stroke="midnightblue" d="M232.87,-171.59C253.09,-179.73 283.55,-191.13 311,-198 376.7,-214.45 453.27,-225.05 507.7,-231.17"/>
<polygon fill="midnightblue" stroke="midnightblue" points="507.61,-234.68 517.94,-232.3 508.38,-227.73 507.61,-234.68"/>
</g>
<!-- Node17 -->
<g id="node17" class="node">
<title>Node17</title>
<g id="a_node17"><a xlink:href="group__as__iic__reg__funcs.html#gac83a48fc09234a7a99adafb1ce565eb0" target="_top" xlink:title=" ">
<polygon fill="none" stroke="black" points="689.5,-266.5 689.5,-285.5 793.5,-285.5 793.5,-266.5 689.5,-266.5"/>
<text text-anchor="middle" x="741.5" y="-273.5" font-family="Helvetica,sans-Serif" font-size="10.00">as_iic_set_control</text>
</a>
</g>
</g>
<!-- Node2&#45;&gt;Node17 -->
<g id="edge23" class="edge">
<title>Node2&#45;&gt;Node17</title>
<path fill="none" stroke="midnightblue" d="M223.35,-171.59C246.3,-187.92 292.57,-220.03 311,-227 435.63,-274.12 593.96,-279.45 679.31,-278.29"/>
<polygon fill="midnightblue" stroke="midnightblue" points="679.41,-281.79 689.35,-278.12 679.29,-274.79 679.41,-281.79"/>
</g>
<!-- Node20 -->
<g id="node20" class="node">
<title>Node20</title>
<g id="a_node20"><a xlink:href="group__as__iic__reg__funcs.html#ga8058473baeded71954aa72ee8df24e9b" target="_top" xlink:title=" ">
<polygon fill="none" stroke="black" points="688,-342.5 688,-361.5 795,-361.5 795,-342.5 688,-342.5"/>
<text text-anchor="middle" x="741.5" y="-349.5" font-family="Helvetica,sans-Serif" font-size="10.00">as_iic_set_data_tx</text>
</a>
</g>
</g>
<!-- Node2&#45;&gt;Node20 -->
<g id="edge24" class="edge">
<title>Node2&#45;&gt;Node20</title>
<path fill="none" stroke="midnightblue" d="M212.31,-171.57C220.13,-201.59 248.65,-294.2 311,-333 431.45,-407.95 609.81,-382.08 693.68,-363.78"/>
<polygon fill="midnightblue" stroke="midnightblue" points="694.68,-367.14 703.67,-361.54 693.15,-360.31 694.68,-367.14"/>
</g>
<!-- Node2&#45;&gt;Node21 -->
<g id="edge27" class="edge">
<title>Node2&#45;&gt;Node21</title>
<path fill="none" stroke="midnightblue" d="M218.03,-152.45C230.53,-137.47 255.27,-107.45 275,-81 291.81,-58.47 287.8,-44.87 311,-29 313.9,-27.02 316.98,-25.24 320.18,-23.65"/>
<polygon fill="midnightblue" stroke="midnightblue" points="321.68,-26.81 329.47,-19.63 318.9,-20.39 321.68,-26.81"/>
</g>
<!-- Node4 -->
<g id="node4" class="node">
<title>Node4</title>
<g id="a_node4"><a xlink:href="group__as__iic__reg__funcs.html#ga8daa8fde0a7776aa2f5b335250b5aa2a" target="_top" xlink:title=" ">
<polygon fill="none" stroke="black" points="832.5,-171.5 832.5,-190.5 954.5,-190.5 954.5,-171.5 832.5,-171.5"/>
<text text-anchor="middle" x="893.5" y="-178.5" font-family="Helvetica,sans-Serif" font-size="10.00">as_iic_get_status_reg</text>
</a>
</g>
</g>
<!-- Node3&#45;&gt;Node4 -->
<g id="edge3" class="edge">
<title>Node3&#45;&gt;Node4</title>
<path fill="none" stroke="midnightblue" d="M637.05,-165.42C688.91,-168.58 766.21,-173.3 822.19,-176.71"/>
<polygon fill="midnightblue" stroke="midnightblue" points="822.19,-180.22 832.38,-177.33 822.62,-173.23 822.19,-180.22"/>
</g>
<!-- Node5 -->
<g id="node5" class="node">
<title>Node5</title>
<g id="a_node5"><a xlink:href="group__asterics__support.html#ga8e5c2bfd2e4498d10289377bd94cef07" target="_top" xlink:title=" ">
<polygon fill="none" stroke="black" points="1010.5,-342.5 1010.5,-361.5 1086.5,-361.5 1086.5,-342.5 1010.5,-342.5"/>
<text text-anchor="middle" x="1048.5" y="-349.5" font-family="Helvetica,sans-Serif" font-size="10.00">as_reg_read</text>
</a>
</g>
</g>
<!-- Node4&#45;&gt;Node5 -->
<g id="edge4" class="edge">
<title>Node4&#45;&gt;Node5</title>
<path fill="none" stroke="midnightblue" d="M899.94,-190.54C913.4,-213.63 950.25,-273.57 992,-314 1000.86,-322.58 1011.86,-330.55 1021.73,-336.96"/>
<polygon fill="midnightblue" stroke="midnightblue" points="1020.04,-340.03 1030.37,-342.37 1023.75,-334.09 1020.04,-340.03"/>
</g>
<!-- Node6 -->
<g id="node6" class="node">
<title>Node6</title>
<g id="a_node6"><a xlink:href="group__asterics__support.html#ga4c6d688b840a6e2edc9bc0b8ed961677" target="_top" xlink:title=" ">
<polygon fill="none" stroke="black" points="1141,-342.5 1141,-361.5 1241,-361.5 1241,-342.5 1141,-342.5"/>
<text text-anchor="middle" x="1191" y="-349.5" font-family="Helvetica,sans-Serif" font-size="10.00">as_reg_to_uint32</text>
</a>
</g>
</g>
<!-- Node5&#45;&gt;Node6 -->
<g id="edge5" class="edge">
<title>Node5&#45;&gt;Node6</title>
<path fill="none" stroke="midnightblue" d="M1086.78,-352C1100.26,-352 1115.83,-352 1130.72,-352"/>
<polygon fill="midnightblue" stroke="midnightblue" points="1130.89,-355.5 1140.89,-352 1130.89,-348.5 1130.89,-355.5"/>
</g>
<!-- Node7&#45;&gt;Node8 -->
<g id="edge7" class="edge">
<title>Node7&#45;&gt;Node8</title>
<path fill="none" stroke="midnightblue" d="M635.44,-57.02C655.18,-62.46 677.22,-68.54 696,-73.72"/>
<polygon fill="midnightblue" stroke="midnightblue" points="695.21,-77.14 705.78,-76.42 697.07,-70.39 695.21,-77.14"/>
</g>
<!-- Node9 -->
<g id="node9" class="node">
<title>Node9</title>
<g id="a_node9"><a xlink:href="group__asterics__support.html#gab803703ab5b845023ca31b7b2664419c" target="_top" xlink:title=" ">
<polygon fill="none" stroke="black" points="712,-32.5 712,-51.5 771,-51.5 771,-32.5 712,-32.5"/>
<text text-anchor="middle" x="741.5" y="-39.5" font-family="Helvetica,sans-Serif" font-size="10.00">as_sleep</text>
</a>
</g>
</g>
<!-- Node7&#45;&gt;Node9 -->
<g id="edge9" class="edge">
<title>Node7&#45;&gt;Node9</title>
<path fill="none" stroke="midnightblue" d="M639.03,-42C659.83,-42 682.76,-42 701.55,-42"/>
<polygon fill="midnightblue" stroke="midnightblue" points="701.81,-45.5 711.81,-42 701.81,-38.5 701.81,-45.5"/>
</g>
<!-- Node8&#45;&gt;Node4 -->
<g id="edge8" class="edge">
<title>Node8&#45;&gt;Node4</title>
<path fill="none" stroke="midnightblue" d="M757.71,-95.63C783.88,-112.2 837.6,-146.23 868.74,-165.95"/>
<polygon fill="midnightblue" stroke="midnightblue" points="866.93,-168.95 877.25,-171.34 870.68,-163.04 866.93,-168.95"/>
</g>
<!-- Node10 -->
<g id="node10" class="node">
<title>Node10</title>
<g id="a_node10"><a xlink:href="group__asterics__support.html#ga284d9e0d170cf7cabc16ccd7e62d95bd" target="_top" xlink:title=" ">
<polygon fill="none" stroke="black" points="865,-32.5 865,-51.5 922,-51.5 922,-32.5 865,-32.5"/>
<text text-anchor="middle" x="893.5" y="-39.5" font-family="Helvetica,sans-Serif" font-size="10.00">as_yield</text>
</a>
</g>
</g>
<!-- Node9&#45;&gt;Node10 -->
<g id="edge10" class="edge">
<title>Node9&#45;&gt;Node10</title>
<path fill="none" stroke="midnightblue" d="M771.07,-42C794.75,-42 828.62,-42 854.57,-42"/>
<polygon fill="midnightblue" stroke="midnightblue" points="854.8,-45.5 864.8,-42 854.8,-38.5 854.8,-45.5"/>
</g>
<!-- Node11 -->
<g id="node11" class="node">
<title>Node11</title>
<g id="a_node11"><a xlink:href="group__asterics__support.html#gad294e0c5530bd6fb800a2394179070e1" target="_top" xlink:title=" ">
<polygon fill="none" stroke="black" points="1003.5,-51.5 1003.5,-70.5 1093.5,-70.5 1093.5,-51.5 1003.5,-51.5"/>
<text text-anchor="middle" x="1048.5" y="-58.5" font-family="Helvetica,sans-Serif" font-size="10.00">as_mutex_lock</text>
</a>
</g>
</g>
<!-- Node10&#45;&gt;Node11 -->
<g id="edge11" class="edge">
<title>Node10&#45;&gt;Node11</title>
<path fill="none" stroke="midnightblue" d="M922.21,-45.44C942.02,-47.9 969.34,-51.29 993.41,-54.28"/>
<polygon fill="midnightblue" stroke="midnightblue" points="993.14,-57.78 1003.49,-55.53 994,-50.83 993.14,-57.78"/>
</g>
<!-- Node12 -->
<g id="node12" class="node">
<title>Node12</title>
<g id="a_node12"><a xlink:href="group__asterics__support.html#ga07e09e825f2608339f6213edb9d0c8b3" target="_top" xlink:title=" ">
<polygon fill="none" stroke="black" points="997.5,-13.5 997.5,-32.5 1099.5,-32.5 1099.5,-13.5 997.5,-13.5"/>
<text text-anchor="middle" x="1048.5" y="-20.5" font-family="Helvetica,sans-Serif" font-size="10.00">as_mutex_unlock</text>
</a>
</g>
</g>
<!-- Node10&#45;&gt;Node12 -->
<g id="edge12" class="edge">
<title>Node10&#45;&gt;Node12</title>
<path fill="none" stroke="midnightblue" d="M922.21,-38.56C940.35,-36.31 964.79,-33.27 987.26,-30.48"/>
<polygon fill="midnightblue" stroke="midnightblue" points="987.92,-33.93 997.41,-29.22 987.06,-26.98 987.92,-33.93"/>
</g>
<!-- Node13&#45;&gt;Node9 -->
<g id="edge16" class="edge">
<title>Node13&#45;&gt;Node9</title>
<path fill="none" stroke="midnightblue" d="M638.08,-190.48C643.18,-187.99 647.94,-184.88 652,-181 690.4,-144.27 653.12,-107.08 688,-67 692.03,-62.37 697.12,-58.52 702.52,-55.35"/>
<polygon fill="midnightblue" stroke="midnightblue" points="704.46,-58.29 711.79,-50.64 701.29,-52.05 704.46,-58.29"/>
</g>
<!-- Node14 -->
<g id="node14" class="node">
<title>Node14</title>
<g id="a_node14"><a xlink:href="group__as__iic__bitchecks.html#ga4629e4514c3531d0bcd44ae20abc6bad" target="_top" xlink:title=" ">
<polygon fill="none" stroke="black" points="692,-190.5 692,-209.5 791,-209.5 791,-190.5 692,-190.5"/>
<text text-anchor="middle" x="741.5" y="-197.5" font-family="Helvetica,sans-Serif" font-size="10.00">as_iic_is_waiting</text>
</a>
</g>
</g>
<!-- Node13&#45;&gt;Node14 -->
<g id="edge14" class="edge">
<title>Node13&#45;&gt;Node14</title>
<path fill="none" stroke="midnightblue" d="M652.35,-200C662.1,-200 672.01,-200 681.51,-200"/>
<polygon fill="midnightblue" stroke="midnightblue" points="681.62,-203.5 691.62,-200 681.62,-196.5 681.62,-203.5"/>
</g>
<!-- Node14&#45;&gt;Node4 -->
<g id="edge15" class="edge">
<title>Node14&#45;&gt;Node4</title>
<path fill="none" stroke="midnightblue" d="M791.2,-193.83C801.12,-192.57 811.74,-191.23 822.24,-189.9"/>
<polygon fill="midnightblue" stroke="midnightblue" points="822.76,-193.36 832.24,-188.63 821.88,-186.42 822.76,-193.36"/>
</g>
<!-- Node16&#45;&gt;Node17 -->
<g id="edge20" class="edge">
<title>Node16&#45;&gt;Node17</title>
<path fill="none" stroke="midnightblue" d="M621.25,-247.59C642.3,-252.6 668.26,-258.79 690.57,-264.11"/>
<polygon fill="midnightblue" stroke="midnightblue" points="690,-267.57 700.54,-266.48 691.62,-260.76 690,-267.57"/>
</g>
<!-- Node18 -->
<g id="node18" class="node">
<title>Node18</title>
<g id="a_node18"><a xlink:href="group__asterics__support.html#ga6345b997e24a6cd5f9143cef27629d49" target="_top" xlink:title=" ">
<polygon fill="none" stroke="black" points="854,-285.5 854,-304.5 933,-304.5 933,-285.5 854,-285.5"/>
<text text-anchor="middle" x="893.5" y="-292.5" font-family="Helvetica,sans-Serif" font-size="10.00">as_reg_write</text>
</a>
</g>
</g>
<!-- Node17&#45;&gt;Node18 -->
<g id="edge21" class="edge">
<title>Node17&#45;&gt;Node18</title>
<path fill="none" stroke="midnightblue" d="M793.7,-282.49C809.85,-284.53 827.65,-286.79 843.63,-288.81"/>
<polygon fill="midnightblue" stroke="midnightblue" points="843.48,-292.32 853.84,-290.1 844.36,-285.37 843.48,-292.32"/>
</g>
<!-- Node19 -->
<g id="node19" class="node">
<title>Node19</title>
<g id="a_node19"><a xlink:href="group__asterics__support.html#gab651cc2c035ce61b354578434e59f822" target="_top" xlink:title=" ">
<polygon fill="none" stroke="black" points="992,-285.5 992,-304.5 1105,-304.5 1105,-285.5 992,-285.5"/>
<text text-anchor="middle" x="1048.5" y="-292.5" font-family="Helvetica,sans-Serif" font-size="10.00">as_reg_from_uint32</text>
</a>
</g>
</g>
<!-- Node18&#45;&gt;Node19 -->
<g id="edge22" class="edge">
<title>Node18&#45;&gt;Node19</title>
<path fill="none" stroke="midnightblue" d="M933.11,-295C947.84,-295 965.09,-295 981.65,-295"/>
<polygon fill="midnightblue" stroke="midnightblue" points="981.85,-298.5 991.85,-295 981.85,-291.5 981.85,-298.5"/>
</g>
<!-- Node20&#45;&gt;Node5 -->
<g id="edge25" class="edge">
<title>Node20&#45;&gt;Node5</title>
<path fill="none" stroke="midnightblue" d="M795.28,-352C852.94,-352 944.48,-352 999.98,-352"/>
<polygon fill="midnightblue" stroke="midnightblue" points="1000.24,-355.5 1010.24,-352 1000.24,-348.5 1000.24,-355.5"/>
</g>
<!-- Node20&#45;&gt;Node18 -->
<g id="edge26" class="edge">
<title>Node20&#45;&gt;Node18</title>
<path fill="none" stroke="midnightblue" d="M767.61,-342.46C792.27,-333.09 830.1,-318.71 857.66,-308.24"/>
<polygon fill="midnightblue" stroke="midnightblue" points="859.21,-311.4 867.31,-304.57 856.72,-304.85 859.21,-311.4"/>
</g>
<!-- Node21&#45;&gt;Node3 -->
<g id="edge28" class="edge">
<title>Node21&#45;&gt;Node3</title>
<path fill="none" stroke="midnightblue" d="M457.86,-19.55C463.01,-22.05 467.82,-25.16 472,-29 509.57,-63.52 472.05,-101.8 508,-138 511.95,-141.98 516.59,-145.3 521.57,-148.07"/>
<polygon fill="midnightblue" stroke="midnightblue" points="520.29,-151.34 530.82,-152.49 523.3,-145.02 520.29,-151.34"/>
</g>
<!-- Node21&#45;&gt;Node7 -->
<g id="edge29" class="edge">
<title>Node21&#45;&gt;Node7</title>
<path fill="none" stroke="midnightblue" d="M447.95,-19.51C467.7,-22.9 490.17,-26.76 510.85,-30.31"/>
<polygon fill="midnightblue" stroke="midnightblue" points="510.4,-33.78 520.85,-32.02 511.58,-26.88 510.4,-33.78"/>
</g>
<!-- Node21&#45;&gt;Node9 -->
<g id="edge32" class="edge">
<title>Node21&#45;&gt;Node9</title>
<path fill="none" stroke="midnightblue" d="M472.17,-7.06C523.74,-6.41 592.19,-7.89 652,-17 669.22,-19.62 687.84,-24.55 703.53,-29.34"/>
<polygon fill="midnightblue" stroke="midnightblue" points="702.79,-32.78 713.38,-32.45 704.89,-26.1 702.79,-32.78"/>
</g>
<!-- Node21&#45;&gt;Node16 -->
<g id="edge30" class="edge">
<title>Node21&#45;&gt;Node16</title>
<path fill="none" stroke="midnightblue" d="M459.54,-19.58C464.14,-22.1 468.38,-25.2 472,-29 531.32,-91.19 449.52,-156.01 508,-219 509.22,-220.32 510.53,-221.55 511.9,-222.7"/>
<polygon fill="midnightblue" stroke="midnightblue" points="510.16,-225.74 520.41,-228.42 514.07,-219.94 510.16,-225.74"/>
</g>
<!-- Node21&#45;&gt;Node17 -->
<g id="edge31" class="edge">
<title>Node21&#45;&gt;Node17</title>
<path fill="none" stroke="midnightblue" d="M450.02,-19.61C457.68,-22.07 465.21,-25.14 472,-29 491.95,-40.34 489.67,-52.2 508,-66 565.99,-109.64 601.95,-90.45 652,-143 677.78,-170.06 667.1,-188.01 688,-219 697.93,-233.72 711.57,-248.41 722.46,-259.19"/>
<polygon fill="midnightblue" stroke="midnightblue" points="720.19,-261.86 729.81,-266.29 725.05,-256.83 720.19,-261.86"/>
</g>
<!-- Node22&#45;&gt;Node3 -->
<g id="edge35" class="edge">
<title>Node22&#45;&gt;Node3</title>
<path fill="none" stroke="midnightblue" d="M398.1,-304.22C412.75,-279.53 454.84,-214.23 508,-181 511.37,-178.89 514.98,-177.02 518.71,-175.35"/>
<polygon fill="midnightblue" stroke="midnightblue" points="520.16,-178.54 528.17,-171.61 517.59,-172.02 520.16,-178.54"/>
</g>
<!-- Node22&#45;&gt;Node13 -->
<g id="edge36" class="edge">
<title>Node22&#45;&gt;Node13</title>
<path fill="none" stroke="midnightblue" d="M401.38,-304.33C419.53,-285.15 462.97,-242.15 508,-219 512.49,-216.69 517.3,-214.64 522.21,-212.82"/>
<polygon fill="midnightblue" stroke="midnightblue" points="523.37,-216.13 531.73,-209.61 521.13,-209.49 523.37,-216.13"/>
</g>
<!-- Node22&#45;&gt;Node16 -->
<g id="edge40" class="edge">
<title>Node22&#45;&gt;Node16</title>
<path fill="none" stroke="midnightblue" d="M416.12,-304.37C449.05,-290.95 508.9,-266.57 546.16,-251.38"/>
<polygon fill="midnightblue" stroke="midnightblue" points="547.63,-254.56 555.57,-247.55 544.99,-248.08 547.63,-254.56"/>
</g>
<!-- Node22&#45;&gt;Node17 -->
<g id="edge41" class="edge">
<title>Node22&#45;&gt;Node17</title>
<path fill="none" stroke="midnightblue" d="M458.76,-309.06C511.27,-304.86 586.46,-298.21 652,-290 660.75,-288.9 669.96,-287.61 679,-286.25"/>
<polygon fill="midnightblue" stroke="midnightblue" points="679.75,-289.68 689.1,-284.71 678.69,-282.76 679.75,-289.68"/>
</g>
<!-- Node22&#45;&gt;Node20 -->
<g id="edge42" class="edge">
<title>Node22&#45;&gt;Node20</title>
<path fill="none" stroke="midnightblue" d="M458.78,-321.24C521.82,-328.12 615.98,-338.4 677.81,-345.15"/>
<polygon fill="midnightblue" stroke="midnightblue" points="677.5,-348.64 687.83,-346.25 678.26,-341.68 677.5,-348.64"/>
</g>
<!-- Node23 -->
<g id="node23" class="node">
<title>Node23</title>
<g id="a_node23"><a xlink:href="group__as__iic__bitchecks.html#ga2ef7a1f9767986f2033697f584cd4feb" target="_top" xlink:title=" ">
<polygon fill="none" stroke="black" points="525,-418.5 525,-437.5 635,-437.5 635,-418.5 525,-418.5"/>
<text text-anchor="middle" x="580" y="-425.5" font-family="Helvetica,sans-Serif" font-size="10.00">as_iic_is_readwrite</text>
</a>
</g>
</g>
<!-- Node22&#45;&gt;Node23 -->
<g id="edge37" class="edge">
<title>Node22&#45;&gt;Node23</title>
<path fill="none" stroke="midnightblue" d="M408.08,-323.52C440.58,-343.39 515.81,-389.37 554.72,-413.16"/>
<polygon fill="midnightblue" stroke="midnightblue" points="552.98,-416.19 563.33,-418.42 556.63,-410.22 552.98,-416.19"/>
</g>
<!-- Node24 -->
<g id="node24" class="node">
<title>Node24</title>
<g id="a_node24"><a xlink:href="group__as__iic__reg__funcs.html#gaca309e97934beed04c02e31ba9cfbd3a" target="_top" xlink:title=" ">
<polygon fill="none" stroke="black" points="831,-389.5 831,-408.5 956,-408.5 956,-389.5 831,-389.5"/>
<text text-anchor="middle" x="893.5" y="-396.5" font-family="Helvetica,sans-Serif" font-size="10.00">as_iic_get_control_reg</text>
</a>
</g>
</g>
<!-- Node23&#45;&gt;Node24 -->
<g id="edge38" class="edge">
<title>Node23&#45;&gt;Node24</title>
<path fill="none" stroke="midnightblue" d="M635.26,-422.95C686.62,-418.17 764.07,-410.96 820.56,-405.7"/>
<polygon fill="midnightblue" stroke="midnightblue" points="821.22,-409.15 830.85,-404.74 820.57,-402.18 821.22,-409.15"/>
</g>
<!-- Node24&#45;&gt;Node5 -->
<g id="edge39" class="edge">
<title>Node24&#45;&gt;Node5</title>
<path fill="none" stroke="midnightblue" d="M925.46,-389.49C948.82,-382.31 981.08,-372.4 1006.57,-364.57"/>
<polygon fill="midnightblue" stroke="midnightblue" points="1007.79,-367.86 1016.32,-361.58 1005.74,-361.17 1007.79,-367.86"/>
</g>
</g>
</svg>
