<?xml version="1.0" encoding="UTF-8" standalone="no"?>
<!DOCTYPE svg PUBLIC "-//W3C//DTD SVG 1.1//EN"
 "http://www.w3.org/Graphics/SVG/1.1/DTD/svg11.dtd">
<!-- Generated by graphviz version 2.43.0 (0)
 -->
<!-- Title: as_iic_init Pages: 1 -->
<svg width="844pt" height="237pt"
 viewBox="0.00 0.00 844.00 237.00" xmlns="http://www.w3.org/2000/svg" xmlns:xlink="http://www.w3.org/1999/xlink">
<g id="graph0" class="graph" transform="scale(1 1) rotate(0) translate(4 233)">
<title>as_iic_init</title>
<!-- Node1 -->
<g id="node1" class="node">
<title>Node1</title>
<g id="a_node1"><a xlink:title=" ">
<polygon fill="#bfbfbf" stroke="black" points="0,-95.5 0,-114.5 65,-114.5 65,-95.5 0,-95.5"/>
<text text-anchor="middle" x="32.5" y="-102.5" font-family="Helvetica,sans-Serif" font-size="10.00">as_iic_init</text>
</a>
</g>
</g>
<!-- Node2 -->
<g id="node2" class="node">
<title>Node2</title>
<g id="a_node2"><a xlink:href="group__as__iic__wait.html#gad3cfec26b8a73166e060108cf1444a2b" target="_top" xlink:title=" ">
<polygon fill="none" stroke="black" points="101,-153 101,-183 219,-183 219,-153 101,-153"/>
<text text-anchor="start" x="109" y="-171" font-family="Helvetica,sans-Serif" font-size="10.00">as_iic_busy_wait_for</text>
<text text-anchor="middle" x="160" y="-160" font-family="Helvetica,sans-Serif" font-size="10.00">_hwready</text>
</a>
</g>
</g>
<!-- Node1&#45;&gt;Node2 -->
<g id="edge1" class="edge">
<title>Node1&#45;&gt;Node2</title>
<path fill="none" stroke="midnightblue" d="M52.56,-114.57C70.4,-123.52 97.59,-137.17 120.02,-148.43"/>
<polygon fill="midnightblue" stroke="midnightblue" points="118.48,-151.58 128.99,-152.93 121.62,-145.32 118.48,-151.58"/>
</g>
<!-- Node11 -->
<g id="node11" class="node">
<title>Node11</title>
<g id="a_node11"><a xlink:href="group__as__iic__bitsetters.html#ga9ad6dd95074bf372355b39032fce62b7" target="_top" xlink:title=" ">
<polygon fill="none" stroke="black" points="123,-38.5 123,-57.5 197,-57.5 197,-38.5 123,-38.5"/>
<text text-anchor="middle" x="160" y="-45.5" font-family="Helvetica,sans-Serif" font-size="10.00">as_iic_reset</text>
</a>
</g>
</g>
<!-- Node1&#45;&gt;Node11 -->
<g id="edge10" class="edge">
<title>Node1&#45;&gt;Node11</title>
<path fill="none" stroke="midnightblue" d="M52.26,-95.44C65.73,-88.67 84.35,-79.51 101,-72 108.84,-68.47 117.36,-64.83 125.39,-61.49"/>
<polygon fill="midnightblue" stroke="midnightblue" points="126.95,-64.63 134.87,-57.59 124.29,-58.16 126.95,-64.63"/>
</g>
<!-- Node17 -->
<g id="node17" class="node">
<title>Node17</title>
<g id="a_node17"><a xlink:href="group__as__iic__bitsetters.html#ga35e317b079bd452234fe9933af62bc90" target="_top" xlink:title=" ">
<polygon fill="none" stroke="black" points="258,-76.5 258,-95.5 376,-95.5 376,-76.5 258,-76.5"/>
<text text-anchor="middle" x="317" y="-83.5" font-family="Helvetica,sans-Serif" font-size="10.00">as_iic_set_initialized</text>
</a>
</g>
</g>
<!-- Node1&#45;&gt;Node17 -->
<g id="edge18" class="edge">
<title>Node1&#45;&gt;Node17</title>
<path fill="none" stroke="midnightblue" d="M65.08,-102.88C109.02,-99.92 189.73,-94.49 247.76,-90.59"/>
<polygon fill="midnightblue" stroke="midnightblue" points="248.21,-94.07 257.95,-89.9 247.74,-87.08 248.21,-94.07"/>
</g>
<!-- Node18 -->
<g id="node18" class="node">
<title>Node18</title>
<g id="a_node18"><a xlink:href="group__as__iic__reg__funcs.html#ga9fc4b532c67bb8f2d999583a900d741b" target="_top" xlink:title=" ">
<polygon fill="none" stroke="black" points="430,-114.5 430,-133.5 534,-133.5 534,-114.5 430,-114.5"/>
<text text-anchor="middle" x="482" y="-121.5" font-family="Helvetica,sans-Serif" font-size="10.00">as_iic_set_scl_div</text>
</a>
</g>
</g>
<!-- Node1&#45;&gt;Node18 -->
<g id="edge19" class="edge">
<title>Node1&#45;&gt;Node18</title>
<path fill="none" stroke="midnightblue" d="M65.08,-107.58C76.4,-108.44 89.27,-109.35 101,-110 213.37,-116.23 344.6,-120.37 419.74,-122.44"/>
<polygon fill="midnightblue" stroke="midnightblue" points="419.87,-125.95 429.96,-122.72 420.06,-118.95 419.87,-125.95"/>
</g>
<!-- Node3 -->
<g id="node3" class="node">
<title>Node3</title>
<g id="a_node3"><a xlink:href="group__as__iic__user.html#gacdb0c71d0fcfe5e50a7f7316762cd0c0" target="_top" xlink:title=" ">
<polygon fill="none" stroke="black" points="271.5,-152.5 271.5,-171.5 362.5,-171.5 362.5,-152.5 271.5,-152.5"/>
<text text-anchor="middle" x="317" y="-159.5" font-family="Helvetica,sans-Serif" font-size="10.00">as_iic_is_ready</text>
</a>
</g>
</g>
<!-- Node2&#45;&gt;Node3 -->
<g id="edge2" class="edge">
<title>Node2&#45;&gt;Node3</title>
<path fill="none" stroke="midnightblue" d="M219.16,-165.75C232.85,-165.22 247.4,-164.66 260.95,-164.13"/>
<polygon fill="midnightblue" stroke="midnightblue" points="261.23,-167.62 271.08,-163.74 260.96,-160.63 261.23,-167.62"/>
</g>
<!-- Node7 -->
<g id="node7" class="node">
<title>Node7</title>
<g id="a_node7"><a xlink:href="group__asterics__support.html#gab803703ab5b845023ca31b7b2664419c" target="_top" xlink:title=" ">
<polygon fill="none" stroke="black" points="287.5,-190.5 287.5,-209.5 346.5,-209.5 346.5,-190.5 287.5,-190.5"/>
<text text-anchor="middle" x="317" y="-197.5" font-family="Helvetica,sans-Serif" font-size="10.00">as_sleep</text>
</a>
</g>
</g>
<!-- Node2&#45;&gt;Node7 -->
<g id="edge6" class="edge">
<title>Node2&#45;&gt;Node7</title>
<path fill="none" stroke="midnightblue" d="M219.16,-180.01C238.55,-184.01 259.66,-188.37 277.21,-191.99"/>
<polygon fill="midnightblue" stroke="midnightblue" points="276.59,-195.44 287.09,-194.03 278.01,-188.58 276.59,-195.44"/>
</g>
<!-- Node4 -->
<g id="node4" class="node">
<title>Node4</title>
<g id="a_node4"><a xlink:href="group__as__iic__reg__funcs.html#ga8daa8fde0a7776aa2f5b335250b5aa2a" target="_top" xlink:title=" ">
<polygon fill="none" stroke="black" points="421,-152.5 421,-171.5 543,-171.5 543,-152.5 421,-152.5"/>
<text text-anchor="middle" x="482" y="-159.5" font-family="Helvetica,sans-Serif" font-size="10.00">as_iic_get_status_reg</text>
</a>
</g>
</g>
<!-- Node3&#45;&gt;Node4 -->
<g id="edge3" class="edge">
<title>Node3&#45;&gt;Node4</title>
<path fill="none" stroke="midnightblue" d="M362.54,-162C377.45,-162 394.45,-162 410.83,-162"/>
<polygon fill="midnightblue" stroke="midnightblue" points="410.93,-165.5 420.93,-162 410.93,-158.5 410.93,-165.5"/>
</g>
<!-- Node5 -->
<g id="node5" class="node">
<title>Node5</title>
<g id="a_node5"><a xlink:href="group__asterics__support.html#ga8e5c2bfd2e4498d10289377bd94cef07" target="_top" xlink:title=" ">
<polygon fill="none" stroke="black" points="598,-114.5 598,-133.5 674,-133.5 674,-114.5 598,-114.5"/>
<text text-anchor="middle" x="636" y="-121.5" font-family="Helvetica,sans-Serif" font-size="10.00">as_reg_read</text>
</a>
</g>
</g>
<!-- Node4&#45;&gt;Node5 -->
<g id="edge4" class="edge">
<title>Node4&#45;&gt;Node5</title>
<path fill="none" stroke="midnightblue" d="M521.36,-152.41C541.63,-147.34 566.68,-141.08 588.1,-135.73"/>
<polygon fill="midnightblue" stroke="midnightblue" points="589.12,-139.08 597.97,-133.26 587.42,-132.29 589.12,-139.08"/>
</g>
<!-- Node6 -->
<g id="node6" class="node">
<title>Node6</title>
<g id="a_node6"><a xlink:href="group__asterics__support.html#ga4c6d688b840a6e2edc9bc0b8ed961677" target="_top" xlink:title=" ">
<polygon fill="none" stroke="black" points="729.5,-114.5 729.5,-133.5 829.5,-133.5 829.5,-114.5 729.5,-114.5"/>
<text text-anchor="middle" x="779.5" y="-121.5" font-family="Helvetica,sans-Serif" font-size="10.00">as_reg_to_uint32</text>
</a>
</g>
</g>
<!-- Node5&#45;&gt;Node6 -->
<g id="edge5" class="edge">
<title>Node5&#45;&gt;Node6</title>
<path fill="none" stroke="midnightblue" d="M674.18,-124C687.88,-124 703.78,-124 718.96,-124"/>
<polygon fill="midnightblue" stroke="midnightblue" points="719.33,-127.5 729.33,-124 719.33,-120.5 719.33,-127.5"/>
</g>
<!-- Node8 -->
<g id="node8" class="node">
<title>Node8</title>
<g id="a_node8"><a xlink:href="group__asterics__support.html#ga284d9e0d170cf7cabc16ccd7e62d95bd" target="_top" xlink:title=" ">
<polygon fill="none" stroke="black" points="453.5,-190.5 453.5,-209.5 510.5,-209.5 510.5,-190.5 453.5,-190.5"/>
<text text-anchor="middle" x="482" y="-197.5" font-family="Helvetica,sans-Serif" font-size="10.00">as_yield</text>
</a>
</g>
</g>
<!-- Node7&#45;&gt;Node8 -->
<g id="edge7" class="edge">
<title>Node7&#45;&gt;Node8</title>
<path fill="none" stroke="midnightblue" d="M346.77,-200C373.55,-200 413.64,-200 443.04,-200"/>
<polygon fill="midnightblue" stroke="midnightblue" points="443.34,-203.5 453.34,-200 443.34,-196.5 443.34,-203.5"/>
</g>
<!-- Node9 -->
<g id="node9" class="node">
<title>Node9</title>
<g id="a_node9"><a xlink:href="group__asterics__support.html#gad294e0c5530bd6fb800a2394179070e1" target="_top" xlink:title=" ">
<polygon fill="none" stroke="black" points="591,-209.5 591,-228.5 681,-228.5 681,-209.5 591,-209.5"/>
<text text-anchor="middle" x="636" y="-216.5" font-family="Helvetica,sans-Serif" font-size="10.00">as_mutex_lock</text>
</a>
</g>
</g>
<!-- Node8&#45;&gt;Node9 -->
<g id="edge8" class="edge">
<title>Node8&#45;&gt;Node9</title>
<path fill="none" stroke="midnightblue" d="M510.53,-203.44C530.14,-205.89 557.14,-209.27 580.99,-212.25"/>
<polygon fill="midnightblue" stroke="midnightblue" points="580.63,-215.73 590.98,-213.5 581.49,-208.78 580.63,-215.73"/>
</g>
<!-- Node10 -->
<g id="node10" class="node">
<title>Node10</title>
<g id="a_node10"><a xlink:href="group__asterics__support.html#ga07e09e825f2608339f6213edb9d0c8b3" target="_top" xlink:title=" ">
<polygon fill="none" stroke="black" points="585,-171.5 585,-190.5 687,-190.5 687,-171.5 585,-171.5"/>
<text text-anchor="middle" x="636" y="-178.5" font-family="Helvetica,sans-Serif" font-size="10.00">as_mutex_unlock</text>
</a>
</g>
</g>
<!-- Node8&#45;&gt;Node10 -->
<g id="edge9" class="edge">
<title>Node8&#45;&gt;Node10</title>
<path fill="none" stroke="midnightblue" d="M510.53,-196.56C528.48,-194.32 552.63,-191.3 574.88,-188.52"/>
<polygon fill="midnightblue" stroke="midnightblue" points="575.45,-191.97 584.94,-187.26 574.58,-185.03 575.45,-191.97"/>
</g>
<!-- Node12 -->
<g id="node12" class="node">
<title>Node12</title>
<g id="a_node12"><a xlink:href="group__as__iic__user.html#gae03c311fae3d6a830878a2b0c2c1c2bf" target="_top" xlink:title=" ">
<polygon fill="none" stroke="black" points="255,-38.5 255,-57.5 379,-57.5 379,-38.5 255,-38.5"/>
<text text-anchor="middle" x="317" y="-45.5" font-family="Helvetica,sans-Serif" font-size="10.00">as_iic_reset_hw_state</text>
</a>
</g>
</g>
<!-- Node11&#45;&gt;Node12 -->
<g id="edge11" class="edge">
<title>Node11&#45;&gt;Node12</title>
<path fill="none" stroke="midnightblue" d="M197.34,-48C211.49,-48 228.23,-48 244.59,-48"/>
<polygon fill="midnightblue" stroke="midnightblue" points="244.71,-51.5 254.71,-48 244.71,-44.5 244.71,-51.5"/>
</g>
<!-- Node16 -->
<g id="node16" class="node">
<title>Node16</title>
<g id="a_node16"><a xlink:href="group__as__iic__reg__funcs.html#ga4074423c4c97e7492eca0175ad5d6a6e" target="_top" xlink:title=" ">
<polygon fill="none" stroke="black" points="415,-0.5 415,-19.5 549,-19.5 549,-0.5 415,-0.5"/>
<text text-anchor="middle" x="482" y="-7.5" font-family="Helvetica,sans-Serif" font-size="10.00">as_iic_set_data_register</text>
</a>
</g>
</g>
<!-- Node11&#45;&gt;Node16 -->
<g id="edge15" class="edge">
<title>Node11&#45;&gt;Node16</title>
<path fill="none" stroke="midnightblue" d="M197.44,-39.61C214.79,-35.88 235.88,-31.73 255,-29 304.54,-21.93 360.6,-17.2 404.49,-14.23"/>
<polygon fill="midnightblue" stroke="midnightblue" points="404.77,-17.72 414.52,-13.56 404.31,-10.73 404.77,-17.72"/>
</g>
<!-- Node11&#45;&gt;Node17 -->
<g id="edge17" class="edge">
<title>Node11&#45;&gt;Node17</title>
<path fill="none" stroke="midnightblue" d="M197.34,-56.91C218.23,-62.03 244.74,-68.53 267.4,-74.09"/>
<polygon fill="midnightblue" stroke="midnightblue" points="266.63,-77.5 277.18,-76.48 268.3,-70.7 266.63,-77.5"/>
</g>
<!-- Node13 -->
<g id="node13" class="node">
<title>Node13</title>
<g id="a_node13"><a xlink:href="group__as__iic__reg__funcs.html#gac83a48fc09234a7a99adafb1ce565eb0" target="_top" xlink:title=" ">
<polygon fill="none" stroke="black" points="430,-38.5 430,-57.5 534,-57.5 534,-38.5 430,-38.5"/>
<text text-anchor="middle" x="482" y="-45.5" font-family="Helvetica,sans-Serif" font-size="10.00">as_iic_set_control</text>
</a>
</g>
</g>
<!-- Node12&#45;&gt;Node13 -->
<g id="edge12" class="edge">
<title>Node12&#45;&gt;Node13</title>
<path fill="none" stroke="midnightblue" d="M379.16,-48C392.48,-48 406.57,-48 419.88,-48"/>
<polygon fill="midnightblue" stroke="midnightblue" points="419.89,-51.5 429.89,-48 419.89,-44.5 419.89,-51.5"/>
</g>
<!-- Node14 -->
<g id="node14" class="node">
<title>Node14</title>
<g id="a_node14"><a xlink:href="group__asterics__support.html#ga6345b997e24a6cd5f9143cef27629d49" target="_top" xlink:title=" ">
<polygon fill="none" stroke="black" points="596.5,-38.5 596.5,-57.5 675.5,-57.5 675.5,-38.5 596.5,-38.5"/>
<text text-anchor="middle" x="636" y="-45.5" font-family="Helvetica,sans-Serif" font-size="10.00">as_reg_write</text>
</a>
</g>
</g>
<!-- Node13&#45;&gt;Node14 -->
<g id="edge13" class="edge">
<title>Node13&#45;&gt;Node14</title>
<path fill="none" stroke="midnightblue" d="M534.04,-48C550.89,-48 569.59,-48 586.27,-48"/>
<polygon fill="midnightblue" stroke="midnightblue" points="586.36,-51.5 596.36,-48 586.36,-44.5 586.36,-51.5"/>
</g>
<!-- Node15 -->
<g id="node15" class="node">
<title>Node15</title>
<g id="a_node15"><a xlink:href="group__asterics__support.html#gab651cc2c035ce61b354578434e59f822" target="_top" xlink:title=" ">
<polygon fill="none" stroke="black" points="723,-38.5 723,-57.5 836,-57.5 836,-38.5 723,-38.5"/>
<text text-anchor="middle" x="779.5" y="-45.5" font-family="Helvetica,sans-Serif" font-size="10.00">as_reg_from_uint32</text>
</a>
</g>
</g>
<!-- Node14&#45;&gt;Node15 -->
<g id="edge14" class="edge">
<title>Node14&#45;&gt;Node15</title>
<path fill="none" stroke="midnightblue" d="M675.67,-48C687.16,-48 700.08,-48 712.79,-48"/>
<polygon fill="midnightblue" stroke="midnightblue" points="712.91,-51.5 722.91,-48 712.91,-44.5 712.91,-51.5"/>
</g>
<!-- Node16&#45;&gt;Node14 -->
<g id="edge16" class="edge">
<title>Node16&#45;&gt;Node14</title>
<path fill="none" stroke="midnightblue" d="M521.36,-19.59C541.32,-24.58 565.93,-30.73 587.13,-36.03"/>
<polygon fill="midnightblue" stroke="midnightblue" points="586.37,-39.45 596.92,-38.48 588.07,-32.66 586.37,-39.45"/>
</g>
<!-- Node18&#45;&gt;Node5 -->
<g id="edge20" class="edge">
<title>Node18&#45;&gt;Node5</title>
<path fill="none" stroke="midnightblue" d="M534.04,-124C551.32,-124 570.54,-124 587.54,-124"/>
<polygon fill="midnightblue" stroke="midnightblue" points="587.79,-127.5 597.79,-124 587.79,-120.5 587.79,-127.5"/>
</g>
<!-- Node18&#45;&gt;Node14 -->
<g id="edge21" class="edge">
<title>Node18&#45;&gt;Node14</title>
<path fill="none" stroke="midnightblue" d="M502.25,-114.37C528.63,-101.18 576.21,-77.39 606.67,-62.17"/>
<polygon fill="midnightblue" stroke="midnightblue" points="608.53,-65.15 615.91,-57.55 605.4,-58.89 608.53,-65.15"/>
</g>
</g>
</svg>
