<?xml version="1.0" encoding="UTF-8" standalone="no"?>
<!DOCTYPE svg PUBLIC "-//W3C//DTD SVG 1.1//EN"
 "http://www.w3.org/Graphics/SVG/1.1/DTD/svg11.dtd">
<!-- Generated by graphviz version 2.43.0 (0)
 -->
<!-- Title: as_iic_stop_read_transaction Pages: 1 -->
<svg width="909pt" height="192pt"
 viewBox="0.00 0.00 909.00 192.00" xmlns="http://www.w3.org/2000/svg" xmlns:xlink="http://www.w3.org/1999/xlink">
<g id="graph0" class="graph" transform="scale(1 1) rotate(0) translate(4 188)">
<title>as_iic_stop_read_transaction</title>
<!-- Node1 -->
<g id="node1" class="node">
<title>Node1</title>
<g id="a_node1"><a xlink:title=" ">
<polygon fill="#bfbfbf" stroke="black" points="0,-76.5 0,-95.5 158,-95.5 158,-76.5 0,-76.5"/>
<text text-anchor="middle" x="79" y="-83.5" font-family="Helvetica,sans-Serif" font-size="10.00">as_iic_stop_read_transaction</text>
</a>
</g>
</g>
<!-- Node2 -->
<g id="node2" class="node">
<title>Node2</title>
<g id="a_node2"><a xlink:href="group__as__iic__wait.html#gad3cfec26b8a73166e060108cf1444a2b" target="_top" xlink:title=" ">
<polygon fill="none" stroke="black" points="197,-115 197,-145 315,-145 315,-115 197,-115"/>
<text text-anchor="start" x="205" y="-133" font-family="Helvetica,sans-Serif" font-size="10.00">as_iic_busy_wait_for</text>
<text text-anchor="middle" x="256" y="-122" font-family="Helvetica,sans-Serif" font-size="10.00">_hwready</text>
</a>
</g>
</g>
<!-- Node1&#45;&gt;Node2 -->
<g id="edge1" class="edge">
<title>Node1&#45;&gt;Node2</title>
<path fill="none" stroke="midnightblue" d="M117.97,-95.55C138.12,-100.61 163.48,-106.99 186.89,-112.88"/>
<polygon fill="midnightblue" stroke="midnightblue" points="186.23,-116.32 196.79,-115.36 187.94,-109.53 186.23,-116.32"/>
</g>
<!-- Node7 -->
<g id="node7" class="node">
<title>Node7</title>
<g id="a_node7"><a xlink:href="group__asterics__support.html#gab803703ab5b845023ca31b7b2664419c" target="_top" xlink:title=" ">
<polygon fill="none" stroke="black" points="376.5,-78.5 376.5,-97.5 435.5,-97.5 435.5,-78.5 376.5,-78.5"/>
<text text-anchor="middle" x="406" y="-85.5" font-family="Helvetica,sans-Serif" font-size="10.00">as_sleep</text>
</a>
</g>
</g>
<!-- Node1&#45;&gt;Node7 -->
<g id="edge17" class="edge">
<title>Node1&#45;&gt;Node7</title>
<path fill="none" stroke="midnightblue" d="M158.26,-86.48C223.84,-86.89 314.73,-87.44 365.9,-87.76"/>
<polygon fill="midnightblue" stroke="midnightblue" points="366.18,-91.26 376.2,-87.82 366.22,-84.26 366.18,-91.26"/>
</g>
<!-- Node11 -->
<g id="node11" class="node">
<title>Node11</title>
<g id="a_node11"><a xlink:href="group__as__iic__reg__funcs.html#gace5813084165559c81fe11db6b628b5e" target="_top" xlink:title=" ">
<polygon fill="none" stroke="black" points="202.5,-164.5 202.5,-183.5 309.5,-183.5 309.5,-164.5 202.5,-164.5"/>
<text text-anchor="middle" x="256" y="-171.5" font-family="Helvetica,sans-Serif" font-size="10.00">as_iic_get_rx_byte</text>
</a>
</g>
</g>
<!-- Node1&#45;&gt;Node11 -->
<g id="edge10" class="edge">
<title>Node1&#45;&gt;Node11</title>
<path fill="none" stroke="midnightblue" d="M93.45,-95.63C114.19,-110.13 155.61,-137.71 194,-155 198.99,-157.25 204.33,-159.34 209.69,-161.24"/>
<polygon fill="midnightblue" stroke="midnightblue" points="208.71,-164.6 219.3,-164.47 210.94,-157.97 208.71,-164.6"/>
</g>
<!-- Node12 -->
<g id="node12" class="node">
<title>Node12</title>
<g id="a_node12"><a xlink:href="group__as__iic__user.html#gae03c311fae3d6a830878a2b0c2c1c2bf" target="_top" xlink:title=" ">
<polygon fill="none" stroke="black" points="194,-0.5 194,-19.5 318,-19.5 318,-0.5 194,-0.5"/>
<text text-anchor="middle" x="256" y="-7.5" font-family="Helvetica,sans-Serif" font-size="10.00">as_iic_reset_hw_state</text>
</a>
</g>
</g>
<!-- Node1&#45;&gt;Node12 -->
<g id="edge12" class="edge">
<title>Node1&#45;&gt;Node12</title>
<path fill="none" stroke="midnightblue" d="M100.04,-76.47C122.69,-65.78 160.76,-48.11 194,-34 202.52,-30.38 211.79,-26.64 220.47,-23.22"/>
<polygon fill="midnightblue" stroke="midnightblue" points="221.91,-26.41 229.95,-19.51 219.36,-19.89 221.91,-26.41"/>
</g>
<!-- Node13 -->
<g id="node13" class="node">
<title>Node13</title>
<g id="a_node13"><a xlink:href="group__as__iic__reg__funcs.html#gac83a48fc09234a7a99adafb1ce565eb0" target="_top" xlink:title=" ">
<polygon fill="none" stroke="black" points="354,-19.5 354,-38.5 458,-38.5 458,-19.5 354,-19.5"/>
<text text-anchor="middle" x="406" y="-26.5" font-family="Helvetica,sans-Serif" font-size="10.00">as_iic_set_control</text>
</a>
</g>
</g>
<!-- Node1&#45;&gt;Node13 -->
<g id="edge16" class="edge">
<title>Node1&#45;&gt;Node13</title>
<path fill="none" stroke="midnightblue" d="M134.4,-76.46C192.22,-66.32 283.46,-50.32 343.77,-39.74"/>
<polygon fill="midnightblue" stroke="midnightblue" points="344.67,-43.14 353.91,-37.96 343.46,-36.24 344.67,-43.14"/>
</g>
<!-- Node3 -->
<g id="node3" class="node">
<title>Node3</title>
<g id="a_node3"><a xlink:href="group__as__iic__user.html#gacdb0c71d0fcfe5e50a7f7316762cd0c0" target="_top" xlink:title=" ">
<polygon fill="none" stroke="black" points="360.5,-121.5 360.5,-140.5 451.5,-140.5 451.5,-121.5 360.5,-121.5"/>
<text text-anchor="middle" x="406" y="-128.5" font-family="Helvetica,sans-Serif" font-size="10.00">as_iic_is_ready</text>
</a>
</g>
</g>
<!-- Node2&#45;&gt;Node3 -->
<g id="edge2" class="edge">
<title>Node2&#45;&gt;Node3</title>
<path fill="none" stroke="midnightblue" d="M315.07,-130.39C326.6,-130.47 338.68,-130.55 350.1,-130.63"/>
<polygon fill="midnightblue" stroke="midnightblue" points="350.35,-134.13 360.37,-130.7 350.39,-127.13 350.35,-134.13"/>
</g>
<!-- Node2&#45;&gt;Node7 -->
<g id="edge6" class="edge">
<title>Node2&#45;&gt;Node7</title>
<path fill="none" stroke="midnightblue" d="M310.01,-114.96C328.73,-109.64 349.41,-103.78 366.68,-98.88"/>
<polygon fill="midnightblue" stroke="midnightblue" points="367.74,-102.21 376.41,-96.11 365.83,-95.48 367.74,-102.21"/>
</g>
<!-- Node4 -->
<g id="node4" class="node">
<title>Node4</title>
<g id="a_node4"><a xlink:href="group__as__iic__reg__funcs.html#ga8daa8fde0a7776aa2f5b335250b5aa2a" target="_top" xlink:title=" ">
<polygon fill="none" stroke="black" points="494,-124.5 494,-143.5 616,-143.5 616,-124.5 494,-124.5"/>
<text text-anchor="middle" x="555" y="-131.5" font-family="Helvetica,sans-Serif" font-size="10.00">as_iic_get_status_reg</text>
</a>
</g>
</g>
<!-- Node3&#45;&gt;Node4 -->
<g id="edge3" class="edge">
<title>Node3&#45;&gt;Node4</title>
<path fill="none" stroke="midnightblue" d="M451.5,-131.91C461.73,-132.12 472.84,-132.34 483.85,-132.57"/>
<polygon fill="midnightblue" stroke="midnightblue" points="483.84,-136.07 493.91,-132.77 483.98,-129.07 483.84,-136.07"/>
</g>
<!-- Node5 -->
<g id="node5" class="node">
<title>Node5</title>
<g id="a_node5"><a xlink:href="group__asterics__support.html#ga8e5c2bfd2e4498d10289377bd94cef07" target="_top" xlink:title=" ">
<polygon fill="none" stroke="black" points="670.5,-157.5 670.5,-176.5 746.5,-176.5 746.5,-157.5 670.5,-157.5"/>
<text text-anchor="middle" x="708.5" y="-164.5" font-family="Helvetica,sans-Serif" font-size="10.00">as_reg_read</text>
</a>
</g>
</g>
<!-- Node4&#45;&gt;Node5 -->
<g id="edge4" class="edge">
<title>Node4&#45;&gt;Node5</title>
<path fill="none" stroke="midnightblue" d="M599.82,-143.54C618.87,-147.69 641.22,-152.56 660.61,-156.79"/>
<polygon fill="midnightblue" stroke="midnightblue" points="659.92,-160.22 670.44,-158.93 661.41,-153.38 659.92,-160.22"/>
</g>
<!-- Node6 -->
<g id="node6" class="node">
<title>Node6</title>
<g id="a_node6"><a xlink:href="group__asterics__support.html#ga4c6d688b840a6e2edc9bc0b8ed961677" target="_top" xlink:title=" ">
<polygon fill="none" stroke="black" points="801,-157.5 801,-176.5 901,-176.5 901,-157.5 801,-157.5"/>
<text text-anchor="middle" x="851" y="-164.5" font-family="Helvetica,sans-Serif" font-size="10.00">as_reg_to_uint32</text>
</a>
</g>
</g>
<!-- Node5&#45;&gt;Node6 -->
<g id="edge5" class="edge">
<title>Node5&#45;&gt;Node6</title>
<path fill="none" stroke="midnightblue" d="M746.78,-167C760.26,-167 775.83,-167 790.72,-167"/>
<polygon fill="midnightblue" stroke="midnightblue" points="790.89,-170.5 800.89,-167 790.89,-163.5 790.89,-170.5"/>
</g>
<!-- Node8 -->
<g id="node8" class="node">
<title>Node8</title>
<g id="a_node8"><a xlink:href="group__asterics__support.html#ga284d9e0d170cf7cabc16ccd7e62d95bd" target="_top" xlink:title=" ">
<polygon fill="none" stroke="black" points="526.5,-78.5 526.5,-97.5 583.5,-97.5 583.5,-78.5 526.5,-78.5"/>
<text text-anchor="middle" x="555" y="-85.5" font-family="Helvetica,sans-Serif" font-size="10.00">as_yield</text>
</a>
</g>
</g>
<!-- Node7&#45;&gt;Node8 -->
<g id="edge7" class="edge">
<title>Node7&#45;&gt;Node8</title>
<path fill="none" stroke="midnightblue" d="M435.69,-88C458.65,-88 491.04,-88 516.12,-88"/>
<polygon fill="midnightblue" stroke="midnightblue" points="516.38,-91.5 526.38,-88 516.38,-84.5 516.38,-91.5"/>
</g>
<!-- Node9 -->
<g id="node9" class="node">
<title>Node9</title>
<g id="a_node9"><a xlink:href="group__asterics__support.html#gad294e0c5530bd6fb800a2394179070e1" target="_top" xlink:title=" ">
<polygon fill="none" stroke="black" points="663.5,-68.5 663.5,-87.5 753.5,-87.5 753.5,-68.5 663.5,-68.5"/>
<text text-anchor="middle" x="708.5" y="-75.5" font-family="Helvetica,sans-Serif" font-size="10.00">as_mutex_lock</text>
</a>
</g>
</g>
<!-- Node8&#45;&gt;Node9 -->
<g id="edge8" class="edge">
<title>Node8&#45;&gt;Node9</title>
<path fill="none" stroke="midnightblue" d="M583.79,-86.17C603.13,-84.89 629.57,-83.14 653.04,-81.59"/>
<polygon fill="midnightblue" stroke="midnightblue" points="653.49,-85.07 663.23,-80.92 653.03,-78.09 653.49,-85.07"/>
</g>
<!-- Node10 -->
<g id="node10" class="node">
<title>Node10</title>
<g id="a_node10"><a xlink:href="group__asterics__support.html#ga07e09e825f2608339f6213edb9d0c8b3" target="_top" xlink:title=" ">
<polygon fill="none" stroke="black" points="657.5,-106.5 657.5,-125.5 759.5,-125.5 759.5,-106.5 657.5,-106.5"/>
<text text-anchor="middle" x="708.5" y="-113.5" font-family="Helvetica,sans-Serif" font-size="10.00">as_mutex_unlock</text>
</a>
</g>
</g>
<!-- Node8&#45;&gt;Node10 -->
<g id="edge9" class="edge">
<title>Node8&#45;&gt;Node10</title>
<path fill="none" stroke="midnightblue" d="M583.79,-93.14C601.57,-96.42 625.33,-100.81 647.28,-104.87"/>
<polygon fill="midnightblue" stroke="midnightblue" points="646.74,-108.33 657.21,-106.71 648.01,-101.45 646.74,-108.33"/>
</g>
<!-- Node11&#45;&gt;Node5 -->
<g id="edge11" class="edge">
<title>Node11&#45;&gt;Node5</title>
<path fill="none" stroke="midnightblue" d="M309.56,-173.18C398.02,-171.81 575.27,-169.05 660.12,-167.74"/>
<polygon fill="midnightblue" stroke="midnightblue" points="660.29,-171.23 670.24,-167.58 660.18,-164.23 660.29,-171.23"/>
</g>
<!-- Node12&#45;&gt;Node13 -->
<g id="edge13" class="edge">
<title>Node12&#45;&gt;Node13</title>
<path fill="none" stroke="midnightblue" d="M318.05,-17.84C326.64,-18.94 335.46,-20.07 344.04,-21.17"/>
<polygon fill="midnightblue" stroke="midnightblue" points="343.62,-24.65 353.98,-22.45 344.51,-17.71 343.62,-24.65"/>
</g>
<!-- Node14 -->
<g id="node14" class="node">
<title>Node14</title>
<g id="a_node14"><a xlink:href="group__asterics__support.html#ga6345b997e24a6cd5f9143cef27629d49" target="_top" xlink:title=" ">
<polygon fill="none" stroke="black" points="515.5,-19.5 515.5,-38.5 594.5,-38.5 594.5,-19.5 515.5,-19.5"/>
<text text-anchor="middle" x="555" y="-26.5" font-family="Helvetica,sans-Serif" font-size="10.00">as_reg_write</text>
</a>
</g>
</g>
<!-- Node13&#45;&gt;Node14 -->
<g id="edge14" class="edge">
<title>Node13&#45;&gt;Node14</title>
<path fill="none" stroke="midnightblue" d="M458,-29C473.23,-29 489.88,-29 504.98,-29"/>
<polygon fill="midnightblue" stroke="midnightblue" points="505.14,-32.5 515.14,-29 505.14,-25.5 505.14,-32.5"/>
</g>
<!-- Node15 -->
<g id="node15" class="node">
<title>Node15</title>
<g id="a_node15"><a xlink:href="group__asterics__support.html#gab651cc2c035ce61b354578434e59f822" target="_top" xlink:title=" ">
<polygon fill="none" stroke="black" points="652,-19.5 652,-38.5 765,-38.5 765,-19.5 652,-19.5"/>
<text text-anchor="middle" x="708.5" y="-26.5" font-family="Helvetica,sans-Serif" font-size="10.00">as_reg_from_uint32</text>
</a>
</g>
</g>
<!-- Node14&#45;&gt;Node15 -->
<g id="edge15" class="edge">
<title>Node14&#45;&gt;Node15</title>
<path fill="none" stroke="midnightblue" d="M594.62,-29C608.86,-29 625.43,-29 641.41,-29"/>
<polygon fill="midnightblue" stroke="midnightblue" points="641.79,-32.5 651.79,-29 641.79,-25.5 641.79,-32.5"/>
</g>
</g>
</svg>
