<?xml version="1.0" encoding="UTF-8" standalone="no"?>
<!DOCTYPE svg PUBLIC "-//W3C//DTD SVG 1.1//EN"
 "http://www.w3.org/Graphics/SVG/1.1/DTD/svg11.dtd">
<!-- Generated by graphviz version 2.43.0 (0)
 -->
<!-- Title: as_reader_writer_set_section_count Pages: 1 -->
<svg width="644pt" height="142pt"
 viewBox="0.00 0.00 644.00 142.00" xmlns="http://www.w3.org/2000/svg" xmlns:xlink="http://www.w3.org/1999/xlink">
<g id="graph0" class="graph" transform="scale(1 1) rotate(0) translate(4 138)">
<title>as_reader_writer_set_section_count</title>
<!-- Node1 -->
<g id="node1" class="node">
<title>Node1</title>
<g id="a_node1"><a xlink:title="Sets the number of sections.">
<polygon fill="#bfbfbf" stroke="black" points="517,-73 517,-103 636,-103 636,-73 517,-73"/>
<text text-anchor="start" x="525" y="-91" font-family="Helvetica,sans-Serif" font-size="10.00">as_reader_writer_set</text>
<text text-anchor="middle" x="576.5" y="-80" font-family="Helvetica,sans-Serif" font-size="10.00">_section_count</text>
</a>
</g>
</g>
<!-- Node2 -->
<g id="node2" class="node">
<title>Node2</title>
<g id="a_node2"><a xlink:href="as__memio_8c.html#a31a12ad0b581e08a50188766815dd93d" target="_top" xlink:title=" ">
<polygon fill="none" stroke="black" points="339,-106.5 339,-125.5 481,-125.5 481,-106.5 339,-106.5"/>
<text text-anchor="middle" x="410" y="-113.5" font-family="Helvetica,sans-Serif" font-size="10.00">as_memio_module_setup</text>
</a>
</g>
</g>
<!-- Node1&#45;&gt;Node2 -->
<g id="edge1" class="edge">
<title>Node1&#45;&gt;Node2</title>
<path fill="none" stroke="midnightblue" d="M506.61,-99.73C493.42,-101.97 479.76,-104.3 467.04,-106.46"/>
<polygon fill="midnightblue" stroke="midnightblue" points="507.31,-103.16 516.58,-98.03 506.13,-96.26 507.31,-103.16"/>
</g>
<!-- Node5 -->
<g id="node5" class="node">
<title>Node5</title>
<g id="a_node5"><a xlink:href="group__as__reader__writer.html#ga5c0bd52e53c8e68de80b1712c12d9a4a" target="_top" xlink:title="Initializes the hardware module with values provided by config.">
<polygon fill="none" stroke="black" points="350.5,-59.5 350.5,-78.5 469.5,-78.5 469.5,-59.5 350.5,-59.5"/>
<text text-anchor="middle" x="410" y="-66.5" font-family="Helvetica,sans-Serif" font-size="10.00">as_reader_writer_init</text>
</a>
</g>
</g>
<!-- Node1&#45;&gt;Node5 -->
<g id="edge4" class="edge">
<title>Node1&#45;&gt;Node5</title>
<path fill="none" stroke="midnightblue" d="M506.39,-80.02C494.12,-78.6 481.45,-77.14 469.51,-75.76"/>
<polygon fill="midnightblue" stroke="midnightblue" points="506.24,-83.52 516.58,-81.19 507.04,-76.57 506.24,-83.52"/>
</g>
<!-- Node3 -->
<g id="node3" class="node">
<title>Node3</title>
<g id="a_node3"><a xlink:href="as__memio_8h.html#acb0c0a633ce7890008c6f6f1f2eca285" target="_top" xlink:title=" ">
<polygon fill="none" stroke="black" points="186.5,-111.5 186.5,-130.5 283.5,-130.5 283.5,-111.5 186.5,-111.5"/>
<text text-anchor="middle" x="235" y="-118.5" font-family="Helvetica,sans-Serif" font-size="10.00">as_memio_open</text>
</a>
</g>
</g>
<!-- Node2&#45;&gt;Node3 -->
<g id="edge2" class="edge">
<title>Node2&#45;&gt;Node3</title>
<path fill="none" stroke="midnightblue" d="M328.57,-118.32C313.17,-118.77 297.51,-119.22 283.56,-119.63"/>
<polygon fill="midnightblue" stroke="midnightblue" points="328.74,-121.82 338.63,-118.03 328.54,-114.82 328.74,-121.82"/>
</g>
<!-- Node4 -->
<g id="node4" class="node">
<title>Node4</title>
<g id="a_node4"><a xlink:href="group__memio__file__ops.html#ga6a581341bc6e2a1ed45c56c0fc7bcece" target="_top" xlink:title=" ">
<polygon fill="none" stroke="black" points="0,-114.5 0,-133.5 131,-133.5 131,-114.5 0,-114.5"/>
<text text-anchor="middle" x="65.5" y="-121.5" font-family="Helvetica,sans-Serif" font-size="10.00">driver_as_memio_open</text>
</a>
</g>
</g>
<!-- Node3&#45;&gt;Node4 -->
<g id="edge3" class="edge">
<title>Node3&#45;&gt;Node4</title>
<path fill="none" stroke="midnightblue" d="M176.1,-122.04C161.57,-122.3 145.89,-122.58 131.06,-122.84"/>
<polygon fill="midnightblue" stroke="midnightblue" points="176.51,-125.53 186.45,-121.85 176.39,-118.53 176.51,-125.53"/>
</g>
<!-- Node6 -->
<g id="node6" class="node">
<title>Node6</title>
<g id="a_node6"><a xlink:href="group__mmap__file__ops.html#ga93a1477871ee8b3e8071b60442a0ceb3" target="_top" xlink:title=" ">
<polygon fill="none" stroke="black" points="167,-40.5 167,-59.5 303,-59.5 303,-40.5 167,-40.5"/>
<text text-anchor="middle" x="235" y="-47.5" font-family="Helvetica,sans-Serif" font-size="10.00">as_mmap_start_transfer</text>
</a>
</g>
</g>
<!-- Node5&#45;&gt;Node6 -->
<g id="edge5" class="edge">
<title>Node5&#45;&gt;Node6</title>
<path fill="none" stroke="midnightblue" d="M340.3,-61.45C328.07,-60.11 315.34,-58.71 303.16,-57.38"/>
<polygon fill="midnightblue" stroke="midnightblue" points="340.11,-64.95 350.43,-62.57 340.87,-58 340.11,-64.95"/>
</g>
<!-- Node7 -->
<g id="node7" class="node">
<title>Node7</title>
<g id="a_node7"><a xlink:href="group__mmap__file__ops.html#gab078c489a563497f4da70a9f6115dfce" target="_top" xlink:title=" ">
<polygon fill="none" stroke="black" points="20,-76.5 20,-95.5 111,-95.5 111,-76.5 20,-76.5"/>
<text text-anchor="middle" x="65.5" y="-83.5" font-family="Helvetica,sans-Serif" font-size="10.00">as_mmap_ioctl</text>
</a>
</g>
</g>
<!-- Node6&#45;&gt;Node7 -->
<g id="edge6" class="edge">
<title>Node6&#45;&gt;Node7</title>
<path fill="none" stroke="midnightblue" d="M179.58,-61.7C157.35,-66.47 131.95,-71.93 110.86,-76.47"/>
<polygon fill="midnightblue" stroke="midnightblue" points="180.51,-65.08 189.55,-59.55 179.04,-58.23 180.51,-65.08"/>
</g>
<!-- Node8 -->
<g id="node8" class="node">
<title>Node8</title>
<g id="a_node8"><a xlink:href="group__mmap__file__ops.html#gae18f99f9774b7224e71d80209ecd0bf4" target="_top" xlink:title=" ">
<polygon fill="none" stroke="black" points="3,-38.5 3,-57.5 128,-57.5 128,-38.5 3,-38.5"/>
<text text-anchor="middle" x="65.5" y="-45.5" font-family="Helvetica,sans-Serif" font-size="10.00">driver_as_mmap_read</text>
</a>
</g>
</g>
<!-- Node6&#45;&gt;Node8 -->
<g id="edge7" class="edge">
<title>Node6&#45;&gt;Node8</title>
<path fill="none" stroke="midnightblue" d="M156.59,-49.08C147.09,-48.96 137.48,-48.85 128.25,-48.74"/>
<polygon fill="midnightblue" stroke="midnightblue" points="156.8,-52.58 166.84,-49.2 156.88,-45.58 156.8,-52.58"/>
</g>
<!-- Node9 -->
<g id="node9" class="node">
<title>Node9</title>
<g id="a_node9"><a xlink:href="group__mmap__file__ops.html#gaeea3980f5b633c4b83ff46b2efc2ea10" target="_top" xlink:title=" ">
<polygon fill="none" stroke="black" points="1.5,-0.5 1.5,-19.5 129.5,-19.5 129.5,-0.5 1.5,-0.5"/>
<text text-anchor="middle" x="65.5" y="-7.5" font-family="Helvetica,sans-Serif" font-size="10.00">driver_as_mmap_write</text>
</a>
</g>
</g>
<!-- Node6&#45;&gt;Node9 -->
<g id="edge8" class="edge">
<title>Node6&#45;&gt;Node9</title>
<path fill="none" stroke="midnightblue" d="M183.92,-38.04C159.1,-32.11 129.54,-25.05 106.29,-19.5"/>
<polygon fill="midnightblue" stroke="midnightblue" points="183.34,-41.5 193.88,-40.42 184.97,-34.69 183.34,-41.5"/>
</g>
</g>
</svg>
