<?xml version="1.0" encoding="UTF-8" standalone="no"?>
<!DOCTYPE svg PUBLIC "-//W3C//DTD SVG 1.1//EN"
 "http://www.w3.org/Graphics/SVG/1.1/DTD/svg11.dtd">
<!-- Generated by graphviz version 2.43.0 (0)
 -->
<!-- Title: asterics_probe Pages: 1 -->
<svg width="429pt" height="218pt"
 viewBox="0.00 0.00 429.00 218.00" xmlns="http://www.w3.org/2000/svg" xmlns:xlink="http://www.w3.org/1999/xlink">
<g id="graph0" class="graph" transform="scale(1 1) rotate(0) translate(4 214)">
<title>asterics_probe</title>
<!-- Node1 -->
<g id="node1" class="node">
<title>Node1</title>
<g id="a_node1"><a xlink:title=" ">
<polygon fill="#bfbfbf" stroke="black" points="0,-95.5 0,-114.5 88,-114.5 88,-95.5 0,-95.5"/>
<text text-anchor="middle" x="44" y="-102.5" font-family="Helvetica,sans-Serif" font-size="10.00">asterics_probe</text>
</a>
</g>
</g>
<!-- Node2 -->
<g id="node2" class="node">
<title>Node2</title>
<g id="a_node2"><a xlink:href="as__i2c__driver_8c.html#ac7477902e372a02d6a158d747844a34f" target="_top" xlink:title=" ">
<polygon fill="none" stroke="black" points="124,-190.5 124,-209.5 238,-209.5 238,-190.5 124,-190.5"/>
<text text-anchor="middle" x="181" y="-197.5" font-family="Helvetica,sans-Serif" font-size="10.00">as_driver_i2c_probe</text>
</a>
</g>
</g>
<!-- Node1&#45;&gt;Node2 -->
<g id="edge1" class="edge">
<title>Node1&#45;&gt;Node2</title>
<path fill="none" stroke="midnightblue" d="M52.5,-114.56C65.46,-130.48 93.6,-162.5 124,-181 127.36,-183.04 130.96,-184.9 134.67,-186.58"/>
<polygon fill="midnightblue" stroke="midnightblue" points="133.41,-189.85 143.99,-190.4 136.07,-183.37 133.41,-189.85"/>
</g>
<!-- Node3 -->
<g id="node3" class="node">
<title>Node3</title>
<g id="a_node3"><a xlink:href="group__as__driver.html#ga63672183e1e96c3e415d84daef8616a7" target="_top" xlink:title=" ">
<polygon fill="none" stroke="black" points="139,-152.5 139,-171.5 223,-171.5 223,-152.5 139,-152.5"/>
<text text-anchor="middle" x="181" y="-159.5" font-family="Helvetica,sans-Serif" font-size="10.00">as_handle_irq</text>
</a>
</g>
</g>
<!-- Node1&#45;&gt;Node3 -->
<g id="edge2" class="edge">
<title>Node1&#45;&gt;Node3</title>
<path fill="none" stroke="midnightblue" d="M67.6,-114.54C89.6,-123.83 123.24,-138.04 147.99,-148.49"/>
<polygon fill="midnightblue" stroke="midnightblue" points="146.76,-151.76 157.33,-152.43 149.48,-145.31 146.76,-151.76"/>
</g>
<!-- Node4 -->
<g id="node4" class="node">
<title>Node4</title>
<g id="a_node4"><a xlink:href="group__as__driver.html#ga29c05adf56c85ad4a2fd61bc9dcb4626" target="_top" xlink:title=" ">
<polygon fill="none" stroke="black" points="274,-133.5 274,-152.5 421,-152.5 421,-133.5 274,-133.5"/>
<text text-anchor="middle" x="347.5" y="-140.5" font-family="Helvetica,sans-Serif" font-size="10.00">data_transfer_update_task</text>
</a>
</g>
</g>
<!-- Node1&#45;&gt;Node4 -->
<g id="edge5" class="edge">
<title>Node1&#45;&gt;Node4</title>
<path fill="none" stroke="midnightblue" d="M88.2,-110.44C133.89,-116.2 207.1,-125.43 263.94,-132.59"/>
<polygon fill="midnightblue" stroke="midnightblue" points="263.63,-136.08 273.99,-133.86 264.5,-129.14 263.63,-136.08"/>
</g>
<!-- Node5 -->
<g id="node5" class="node">
<title>Node5</title>
<g id="a_node5"><a xlink:href="group__asterics__support.html#ga5356d69ee6d0c515fddf95b1ee37712c" target="_top" xlink:title=" ">
<polygon fill="none" stroke="black" points="136,-76.5 136,-95.5 226,-95.5 226,-76.5 136,-76.5"/>
<text text-anchor="middle" x="181" y="-83.5" font-family="Helvetica,sans-Serif" font-size="10.00">as_mutex_new</text>
</a>
</g>
</g>
<!-- Node1&#45;&gt;Node5 -->
<g id="edge4" class="edge">
<title>Node1&#45;&gt;Node5</title>
<path fill="none" stroke="midnightblue" d="M88.09,-98.94C100.14,-97.24 113.4,-95.37 126,-93.6"/>
<polygon fill="midnightblue" stroke="midnightblue" points="126.52,-97.06 135.93,-92.2 125.54,-90.13 126.52,-97.06"/>
</g>
<!-- Node6 -->
<g id="node6" class="node">
<title>Node6</title>
<g id="a_node6"><a xlink:href="group__as__driver.html#ga31acf76a64c66c9d65ea0ef597fb1713" target="_top" xlink:title=" ">
<polygon fill="none" stroke="black" points="124,-38.5 124,-57.5 238,-57.5 238,-38.5 124,-38.5"/>
<text text-anchor="middle" x="181" y="-45.5" font-family="Helvetica,sans-Serif" font-size="10.00">set_device_defaults</text>
</a>
</g>
</g>
<!-- Node1&#45;&gt;Node6 -->
<g id="edge6" class="edge">
<title>Node1&#45;&gt;Node6</title>
<path fill="none" stroke="midnightblue" d="M63.23,-95.45C79.06,-87.35 102.72,-75.69 124,-67 129.11,-64.91 134.54,-62.87 139.94,-60.93"/>
<polygon fill="midnightblue" stroke="midnightblue" points="141.23,-64.19 149.53,-57.59 138.93,-57.58 141.23,-64.19"/>
</g>
<!-- Node7 -->
<g id="node7" class="node">
<title>Node7</title>
<g id="a_node7"><a xlink:href="group__as__driver.html#gacbe125809cd40fef7c72c391bffe69aa" target="_top" xlink:title=" ">
<polygon fill="none" stroke="black" points="136.5,-0.5 136.5,-19.5 225.5,-19.5 225.5,-0.5 136.5,-0.5"/>
<text text-anchor="middle" x="181" y="-7.5" font-family="Helvetica,sans-Serif" font-size="10.00">timer_callback</text>
</a>
</g>
</g>
<!-- Node1&#45;&gt;Node7 -->
<g id="edge7" class="edge">
<title>Node1&#45;&gt;Node7</title>
<path fill="none" stroke="midnightblue" d="M52.5,-95.44C65.46,-79.52 93.6,-47.5 124,-29 127.36,-26.96 130.96,-25.1 134.67,-23.42"/>
<polygon fill="midnightblue" stroke="midnightblue" points="136.07,-26.63 143.99,-19.6 133.41,-20.15 136.07,-26.63"/>
</g>
<!-- Node3&#45;&gt;Node4 -->
<g id="edge3" class="edge">
<title>Node3&#45;&gt;Node4</title>
<path fill="none" stroke="midnightblue" d="M223.09,-157.25C235.49,-155.82 249.58,-154.19 263.69,-152.56"/>
<polygon fill="midnightblue" stroke="midnightblue" points="264.41,-156 273.95,-151.38 263.61,-149.05 264.41,-156"/>
</g>
</g>
</svg>
