<?xml version="1.0" encoding="UTF-8" standalone="no"?>
<!DOCTYPE svg PUBLIC "-//W3C//DTD SVG 1.1//EN"
 "http://www.w3.org/Graphics/SVG/1.1/DTD/svg11.dtd">
<!-- Generated by graphviz version 2.43.0 (0)
 -->
<!-- Title: as_writer_set_disable_on_no_go Pages: 1 -->
<svg width="552pt" height="85pt"
 viewBox="0.00 0.00 552.00 85.00" xmlns="http://www.w3.org/2000/svg" xmlns:xlink="http://www.w3.org/1999/xlink">
<g id="graph0" class="graph" transform="scale(1 1) rotate(0) translate(4 81)">
<title>as_writer_set_disable_on_no_go</title>
<!-- Node1 -->
<g id="node1" class="node">
<title>Node1</title>
<g id="a_node1"><a xlink:title="Disable module if no operation is queued.">
<polygon fill="#bfbfbf" stroke="black" points="0,-33 0,-63 122,-63 122,-33 0,-33"/>
<text text-anchor="start" x="8" y="-51" font-family="Helvetica,sans-Serif" font-size="10.00">as_writer_set_disable</text>
<text text-anchor="middle" x="61" y="-40" font-family="Helvetica,sans-Serif" font-size="10.00">_on_no_go</text>
</a>
</g>
</g>
<!-- Node2 -->
<g id="node2" class="node">
<title>Node2</title>
<g id="a_node2"><a xlink:href="group__asterics__support.html#gaa7520f5b717e163da743500adb2eb0b9" target="_top" xlink:title=" ">
<polygon fill="none" stroke="black" points="173.5,-57.5 173.5,-76.5 264.5,-76.5 264.5,-57.5 173.5,-57.5"/>
<text text-anchor="middle" x="219" y="-64.5" font-family="Helvetica,sans-Serif" font-size="10.00">as_module_reg</text>
</a>
</g>
</g>
<!-- Node1&#45;&gt;Node2 -->
<g id="edge1" class="edge">
<title>Node1&#45;&gt;Node2</title>
<path fill="none" stroke="midnightblue" d="M122.31,-55.35C135.84,-56.99 150.12,-58.73 163.4,-60.35"/>
<polygon fill="midnightblue" stroke="midnightblue" points="162.98,-63.82 173.33,-61.56 163.83,-56.88 162.98,-63.82"/>
</g>
<!-- Node3 -->
<g id="node3" class="node">
<title>Node3</title>
<g id="a_node3"><a xlink:href="group__asterics__support.html#ga0ccb0610d764a95bda989e35fba59490" target="_top" xlink:title=" ">
<polygon fill="none" stroke="black" points="158,-19.5 158,-38.5 280,-38.5 280,-19.5 158,-19.5"/>
<text text-anchor="middle" x="219" y="-26.5" font-family="Helvetica,sans-Serif" font-size="10.00">as_reg_write_masked</text>
</a>
</g>
</g>
<!-- Node1&#45;&gt;Node3 -->
<g id="edge2" class="edge">
<title>Node1&#45;&gt;Node3</title>
<path fill="none" stroke="midnightblue" d="M122.31,-40.65C130.69,-39.63 139.36,-38.58 147.9,-37.54"/>
<polygon fill="midnightblue" stroke="midnightblue" points="148.34,-41.01 157.85,-36.33 147.5,-34.06 148.34,-41.01"/>
</g>
<!-- Node4 -->
<g id="node4" class="node">
<title>Node4</title>
<g id="a_node4"><a xlink:href="group__asterics__support.html#ga8e5c2bfd2e4498d10289377bd94cef07" target="_top" xlink:title=" ">
<polygon fill="none" stroke="black" points="317.5,-38.5 317.5,-57.5 393.5,-57.5 393.5,-38.5 317.5,-38.5"/>
<text text-anchor="middle" x="355.5" y="-45.5" font-family="Helvetica,sans-Serif" font-size="10.00">as_reg_read</text>
</a>
</g>
</g>
<!-- Node3&#45;&gt;Node4 -->
<g id="edge3" class="edge">
<title>Node3&#45;&gt;Node4</title>
<path fill="none" stroke="midnightblue" d="M280.17,-37.5C289.22,-38.78 298.44,-40.08 307.17,-41.31"/>
<polygon fill="midnightblue" stroke="midnightblue" points="306.76,-44.79 317.15,-42.72 307.74,-37.86 306.76,-44.79"/>
</g>
<!-- Node6 -->
<g id="node6" class="node">
<title>Node6</title>
<g id="a_node6"><a xlink:href="group__asterics__support.html#ga6345b997e24a6cd5f9143cef27629d49" target="_top" xlink:title=" ">
<polygon fill="none" stroke="black" points="316,-0.5 316,-19.5 395,-19.5 395,-0.5 316,-0.5"/>
<text text-anchor="middle" x="355.5" y="-7.5" font-family="Helvetica,sans-Serif" font-size="10.00">as_reg_write</text>
</a>
</g>
</g>
<!-- Node3&#45;&gt;Node6 -->
<g id="edge5" class="edge">
<title>Node3&#45;&gt;Node6</title>
<path fill="none" stroke="midnightblue" d="M280.17,-20.5C288.82,-19.28 297.63,-18.03 306.02,-16.85"/>
<polygon fill="midnightblue" stroke="midnightblue" points="306.59,-20.3 316,-15.44 305.61,-13.37 306.59,-20.3"/>
</g>
<!-- Node5 -->
<g id="node5" class="node">
<title>Node5</title>
<g id="a_node5"><a xlink:href="group__asterics__support.html#ga4c6d688b840a6e2edc9bc0b8ed961677" target="_top" xlink:title=" ">
<polygon fill="none" stroke="black" points="437.5,-38.5 437.5,-57.5 537.5,-57.5 537.5,-38.5 437.5,-38.5"/>
<text text-anchor="middle" x="487.5" y="-45.5" font-family="Helvetica,sans-Serif" font-size="10.00">as_reg_to_uint32</text>
</a>
</g>
</g>
<!-- Node4&#45;&gt;Node5 -->
<g id="edge4" class="edge">
<title>Node4&#45;&gt;Node5</title>
<path fill="none" stroke="midnightblue" d="M393.75,-48C404.09,-48 415.59,-48 426.86,-48"/>
<polygon fill="midnightblue" stroke="midnightblue" points="427.12,-51.5 437.12,-48 427.12,-44.5 427.12,-51.5"/>
</g>
<!-- Node7 -->
<g id="node7" class="node">
<title>Node7</title>
<g id="a_node7"><a xlink:href="group__asterics__support.html#gab651cc2c035ce61b354578434e59f822" target="_top" xlink:title=" ">
<polygon fill="none" stroke="black" points="431,-0.5 431,-19.5 544,-19.5 544,-0.5 431,-0.5"/>
<text text-anchor="middle" x="487.5" y="-7.5" font-family="Helvetica,sans-Serif" font-size="10.00">as_reg_from_uint32</text>
</a>
</g>
</g>
<!-- Node6&#45;&gt;Node7 -->
<g id="edge6" class="edge">
<title>Node6&#45;&gt;Node7</title>
<path fill="none" stroke="midnightblue" d="M395.15,-10C403.22,-10 411.94,-10 420.68,-10"/>
<polygon fill="midnightblue" stroke="midnightblue" points="420.92,-13.5 430.92,-10 420.92,-6.5 420.92,-13.5"/>
</g>
</g>
</svg>
