<?xml version="1.0" encoding="UTF-8" standalone="no"?>
<!DOCTYPE svg PUBLIC "-//W3C//DTD SVG 1.1//EN"
 "http://www.w3.org/Graphics/SVG/1.1/DTD/svg11.dtd">
<!-- Generated by graphviz version 2.43.0 (0)
 -->
<!-- Title: as_reader_writer_is_pending_go Pages: 1 -->
<svg width="641pt" height="199pt"
 viewBox="0.00 0.00 641.00 199.00" xmlns="http://www.w3.org/2000/svg" xmlns:xlink="http://www.w3.org/1999/xlink">
<g id="graph0" class="graph" transform="scale(1 1) rotate(0) translate(4 195)">
<title>as_reader_writer_is_pending_go</title>
<!-- Node1 -->
<g id="node1" class="node">
<title>Node1</title>
<g id="a_node1"><a xlink:title="Checks if another operation is queued.">
<polygon fill="#bfbfbf" stroke="black" points="521,-71 521,-101 633,-101 633,-71 521,-71"/>
<text text-anchor="start" x="529" y="-89" font-family="Helvetica,sans-Serif" font-size="10.00">as_reader_writer_is</text>
<text text-anchor="middle" x="577" y="-78" font-family="Helvetica,sans-Serif" font-size="10.00">_pending_go</text>
</a>
</g>
</g>
<!-- Node2 -->
<g id="node2" class="node">
<title>Node2</title>
<g id="a_node2"><a xlink:href="as__memio_8c.html#ab93cfbaa1058ea83836b6d052e72ad50" target="_top" xlink:title=" ">
<polygon fill="none" stroke="black" points="330.5,-152.5 330.5,-171.5 483.5,-171.5 483.5,-152.5 330.5,-152.5"/>
<text text-anchor="middle" x="407" y="-159.5" font-family="Helvetica,sans-Serif" font-size="10.00">as_memio_hw_read_update</text>
</a>
</g>
</g>
<!-- Node1&#45;&gt;Node2 -->
<g id="edge1" class="edge">
<title>Node1&#45;&gt;Node2</title>
<path fill="none" stroke="midnightblue" d="M547.56,-107.12C530.23,-119.12 507.22,-133.59 485,-143 476.13,-146.76 466.35,-149.88 456.82,-152.44"/>
<polygon fill="midnightblue" stroke="midnightblue" points="549.92,-109.74 556.06,-101.11 545.88,-104.02 549.92,-109.74"/>
</g>
<!-- Node7 -->
<g id="node7" class="node">
<title>Node7</title>
<g id="a_node7"><a xlink:href="as__memio_8c.html#a3ae0453041c4a6d406955edd9c7e43f3" target="_top" xlink:title=" ">
<polygon fill="none" stroke="black" points="329,-114.5 329,-133.5 485,-133.5 485,-114.5 329,-114.5"/>
<text text-anchor="middle" x="407" y="-121.5" font-family="Helvetica,sans-Serif" font-size="10.00">as_memio_hw_write_update</text>
</a>
</g>
</g>
<!-- Node1&#45;&gt;Node7 -->
<g id="edge6" class="edge">
<title>Node1&#45;&gt;Node7</title>
<path fill="none" stroke="midnightblue" d="M511.09,-100.68C490.6,-105.32 468.52,-110.31 450.07,-114.48"/>
<polygon fill="midnightblue" stroke="midnightblue" points="512.01,-104.06 520.99,-98.44 510.46,-97.24 512.01,-104.06"/>
</g>
<!-- Node10 -->
<g id="node10" class="node">
<title>Node10</title>
<g id="a_node10"><a xlink:href="group__mmap__file__ops.html#gab078c489a563497f4da70a9f6115dfce" target="_top" xlink:title=" ">
<polygon fill="none" stroke="black" points="361.5,-76.5 361.5,-95.5 452.5,-95.5 452.5,-76.5 361.5,-76.5"/>
<text text-anchor="middle" x="407" y="-83.5" font-family="Helvetica,sans-Serif" font-size="10.00">as_mmap_ioctl</text>
</a>
</g>
</g>
<!-- Node1&#45;&gt;Node10 -->
<g id="edge10" class="edge">
<title>Node1&#45;&gt;Node10</title>
<path fill="none" stroke="midnightblue" d="M510.97,-86C491.51,-86 470.62,-86 452.77,-86"/>
<polygon fill="midnightblue" stroke="midnightblue" points="510.99,-89.5 520.99,-86 510.99,-82.5 510.99,-89.5"/>
</g>
<!-- Node11 -->
<g id="node11" class="node">
<title>Node11</title>
<g id="a_node11"><a xlink:href="group__mmap__file__ops.html#gae18f99f9774b7224e71d80209ecd0bf4" target="_top" xlink:title=" ">
<polygon fill="none" stroke="black" points="344.5,-38.5 344.5,-57.5 469.5,-57.5 469.5,-38.5 344.5,-38.5"/>
<text text-anchor="middle" x="407" y="-45.5" font-family="Helvetica,sans-Serif" font-size="10.00">driver_as_mmap_read</text>
</a>
</g>
</g>
<!-- Node1&#45;&gt;Node11 -->
<g id="edge11" class="edge">
<title>Node1&#45;&gt;Node11</title>
<path fill="none" stroke="midnightblue" d="M511.09,-71.32C490.6,-66.68 468.52,-61.69 450.07,-57.52"/>
<polygon fill="midnightblue" stroke="midnightblue" points="510.46,-74.76 520.99,-73.56 512.01,-67.94 510.46,-74.76"/>
</g>
<!-- Node12 -->
<g id="node12" class="node">
<title>Node12</title>
<g id="a_node12"><a xlink:href="group__mmap__file__ops.html#gaeea3980f5b633c4b83ff46b2efc2ea10" target="_top" xlink:title=" ">
<polygon fill="none" stroke="black" points="343,-0.5 343,-19.5 471,-19.5 471,-0.5 343,-0.5"/>
<text text-anchor="middle" x="407" y="-7.5" font-family="Helvetica,sans-Serif" font-size="10.00">driver_as_mmap_write</text>
</a>
</g>
</g>
<!-- Node1&#45;&gt;Node12 -->
<g id="edge12" class="edge">
<title>Node1&#45;&gt;Node12</title>
<path fill="none" stroke="midnightblue" d="M547.56,-64.88C530.23,-52.88 507.22,-38.41 485,-29 476.13,-25.24 466.35,-22.12 456.82,-19.56"/>
<polygon fill="midnightblue" stroke="midnightblue" points="545.88,-67.98 556.06,-70.89 549.92,-62.26 545.88,-67.98"/>
</g>
<!-- Node3 -->
<g id="node3" class="node">
<title>Node3</title>
<g id="a_node3"><a xlink:href="as__memio_8h.html#a8162b54494988ebca0ff03ff23eddbb7" target="_top" xlink:title=" ">
<polygon fill="none" stroke="black" points="167,-133.5 167,-152.5 293,-152.5 293,-133.5 167,-133.5"/>
<text text-anchor="middle" x="230" y="-140.5" font-family="Helvetica,sans-Serif" font-size="10.00">as_memio_hw_update</text>
</a>
</g>
</g>
<!-- Node2&#45;&gt;Node3 -->
<g id="edge2" class="edge">
<title>Node2&#45;&gt;Node3</title>
<path fill="none" stroke="midnightblue" d="M320.06,-152.67C310.99,-151.68 301.9,-150.7 293.18,-149.75"/>
<polygon fill="midnightblue" stroke="midnightblue" points="319.94,-156.18 330.26,-153.78 320.7,-149.22 319.94,-156.18"/>
</g>
<!-- Node5 -->
<g id="node5" class="node">
<title>Node5</title>
<g id="a_node5"><a xlink:href="as__memio_8h.html#affb75145f7c6b1a8baea620d47f62a99" target="_top" xlink:title=" ">
<polygon fill="none" stroke="black" points="182.5,-171.5 182.5,-190.5 277.5,-190.5 277.5,-171.5 182.5,-171.5"/>
<text text-anchor="middle" x="230" y="-178.5" font-family="Helvetica,sans-Serif" font-size="10.00">as_memio_read</text>
</a>
</g>
</g>
<!-- Node2&#45;&gt;Node5 -->
<g id="edge4" class="edge">
<title>Node2&#45;&gt;Node5</title>
<path fill="none" stroke="midnightblue" d="M320.13,-171.32C305.45,-172.92 290.71,-174.52 277.57,-175.94"/>
<polygon fill="midnightblue" stroke="midnightblue" points="320.7,-174.78 330.26,-170.22 319.94,-167.82 320.7,-174.78"/>
</g>
<!-- Node4 -->
<g id="node4" class="node">
<title>Node4</title>
<g id="a_node4"><a xlink:href="group__memio__file__ops.html#gab0cee6094e9d25645dcab0b9df045467" target="_top" xlink:title=" ">
<polygon fill="none" stroke="black" points="1.5,-133.5 1.5,-152.5 129.5,-152.5 129.5,-133.5 1.5,-133.5"/>
<text text-anchor="middle" x="65.5" y="-140.5" font-family="Helvetica,sans-Serif" font-size="10.00">driver_as_memio_ioctl</text>
</a>
</g>
</g>
<!-- Node3&#45;&gt;Node4 -->
<g id="edge3" class="edge">
<title>Node3&#45;&gt;Node4</title>
<path fill="none" stroke="midnightblue" d="M156.54,-143C147.52,-143 138.36,-143 129.5,-143"/>
<polygon fill="midnightblue" stroke="midnightblue" points="156.64,-146.5 166.64,-143 156.64,-139.5 156.64,-146.5"/>
</g>
<!-- Node6 -->
<g id="node6" class="node">
<title>Node6</title>
<g id="a_node6"><a xlink:href="group__memio__file__ops.html#gabc26947002eedee4c4557faff325074e" target="_top" xlink:title=" ">
<polygon fill="none" stroke="black" points="1.5,-171.5 1.5,-190.5 129.5,-190.5 129.5,-171.5 1.5,-171.5"/>
<text text-anchor="middle" x="65.5" y="-178.5" font-family="Helvetica,sans-Serif" font-size="10.00">driver_as_memio_read</text>
</a>
</g>
</g>
<!-- Node5&#45;&gt;Node6 -->
<g id="edge5" class="edge">
<title>Node5&#45;&gt;Node6</title>
<path fill="none" stroke="midnightblue" d="M172.17,-181C158.46,-181 143.72,-181 129.73,-181"/>
<polygon fill="midnightblue" stroke="midnightblue" points="172.43,-184.5 182.43,-181 172.43,-177.5 172.43,-184.5"/>
</g>
<!-- Node7&#45;&gt;Node3 -->
<g id="edge7" class="edge">
<title>Node7&#45;&gt;Node3</title>
<path fill="none" stroke="midnightblue" d="M318.81,-133.47C310.12,-134.41 301.43,-135.35 293.07,-136.26"/>
<polygon fill="midnightblue" stroke="midnightblue" points="319.42,-136.92 328.99,-132.36 318.67,-129.96 319.42,-136.92"/>
</g>
<!-- Node8 -->
<g id="node8" class="node">
<title>Node8</title>
<g id="a_node8"><a xlink:href="as__memio_8h.html#ad5dd4d8bd2c20ea07188bcbb36dd0f87" target="_top" xlink:title=" ">
<polygon fill="none" stroke="black" points="181,-95.5 181,-114.5 279,-114.5 279,-95.5 181,-95.5"/>
<text text-anchor="middle" x="230" y="-102.5" font-family="Helvetica,sans-Serif" font-size="10.00">as_memio_write</text>
</a>
</g>
</g>
<!-- Node7&#45;&gt;Node8 -->
<g id="edge8" class="edge">
<title>Node7&#45;&gt;Node8</title>
<path fill="none" stroke="midnightblue" d="M318.66,-114.52C305.13,-113.05 291.59,-111.58 279.34,-110.25"/>
<polygon fill="midnightblue" stroke="midnightblue" points="318.67,-118.04 328.99,-115.64 319.42,-111.08 318.67,-118.04"/>
</g>
<!-- Node9 -->
<g id="node9" class="node">
<title>Node9</title>
<g id="a_node9"><a xlink:href="group__memio__file__ops.html#gafff67fc067850f545e90c7e487f4fbce" target="_top" xlink:title=" ">
<polygon fill="none" stroke="black" points="0,-95.5 0,-114.5 131,-114.5 131,-95.5 0,-95.5"/>
<text text-anchor="middle" x="65.5" y="-102.5" font-family="Helvetica,sans-Serif" font-size="10.00">driver_as_memio_write</text>
</a>
</g>
</g>
<!-- Node8&#45;&gt;Node9 -->
<g id="edge9" class="edge">
<title>Node8&#45;&gt;Node9</title>
<path fill="none" stroke="midnightblue" d="M170.63,-105C157.83,-105 144.21,-105 131.18,-105"/>
<polygon fill="midnightblue" stroke="midnightblue" points="170.68,-108.5 180.68,-105 170.68,-101.5 170.68,-108.5"/>
</g>
</g>
</svg>
