<?xml version="1.0" encoding="UTF-8" standalone="no"?>
<!DOCTYPE svg PUBLIC "-//W3C//DTD SVG 1.1//EN"
 "http://www.w3.org/Graphics/SVG/1.1/DTD/svg11.dtd">
<!-- Generated by graphviz version 2.43.0 (0)
 -->
<!-- Title: as_writer_is_sync_error Pages: 1 -->
<svg width="542pt" height="66pt"
 viewBox="0.00 0.00 542.00 66.00" xmlns="http://www.w3.org/2000/svg" xmlns:xlink="http://www.w3.org/1999/xlink">
<g id="graph0" class="graph" transform="scale(1 1) rotate(0) translate(4 62)">
<title>as_writer_is_sync_error</title>
<!-- Node1 -->
<g id="node1" class="node">
<title>Node1</title>
<g id="a_node1"><a xlink:title="Checks if module has dropped data.">
<polygon fill="#bfbfbf" stroke="black" points="0,-19.5 0,-38.5 131,-38.5 131,-19.5 0,-19.5"/>
<text text-anchor="middle" x="65.5" y="-26.5" font-family="Helvetica,sans-Serif" font-size="10.00">as_writer_is_sync_error</text>
</a>
</g>
</g>
<!-- Node2 -->
<g id="node2" class="node">
<title>Node2</title>
<g id="a_node2"><a xlink:href="group__asterics__support.html#gaa7520f5b717e163da743500adb2eb0b9" target="_top" xlink:title=" ">
<polygon fill="none" stroke="black" points="181,-38.5 181,-57.5 272,-57.5 272,-38.5 181,-38.5"/>
<text text-anchor="middle" x="226.5" y="-45.5" font-family="Helvetica,sans-Serif" font-size="10.00">as_module_reg</text>
</a>
</g>
</g>
<!-- Node1&#45;&gt;Node2 -->
<g id="edge1" class="edge">
<title>Node1&#45;&gt;Node2</title>
<path fill="none" stroke="midnightblue" d="M131.17,-36.73C144.33,-38.3 158.06,-39.94 170.83,-41.47"/>
<polygon fill="midnightblue" stroke="midnightblue" points="170.49,-44.95 180.84,-42.66 171.33,-38 170.49,-44.95"/>
</g>
<!-- Node3 -->
<g id="node3" class="node">
<title>Node3</title>
<g id="a_node3"><a xlink:href="group__asterics__support.html#ga36a2ed59c59831bee59daaae3cb6cb35" target="_top" xlink:title=" ">
<polygon fill="none" stroke="black" points="167,-0.5 167,-19.5 286,-19.5 286,-0.5 167,-0.5"/>
<text text-anchor="middle" x="226.5" y="-7.5" font-family="Helvetica,sans-Serif" font-size="10.00">as_reg_read_masked</text>
</a>
</g>
</g>
<!-- Node1&#45;&gt;Node3 -->
<g id="edge2" class="edge">
<title>Node1&#45;&gt;Node3</title>
<path fill="none" stroke="midnightblue" d="M131.17,-21.27C139.55,-20.27 148.15,-19.24 156.59,-18.23"/>
<polygon fill="midnightblue" stroke="midnightblue" points="157.26,-21.68 166.77,-17.02 156.43,-14.73 157.26,-21.68"/>
</g>
<!-- Node4 -->
<g id="node4" class="node">
<title>Node4</title>
<g id="a_node4"><a xlink:href="group__asterics__support.html#ga8e5c2bfd2e4498d10289377bd94cef07" target="_top" xlink:title=" ">
<polygon fill="none" stroke="black" points="322,-0.5 322,-19.5 398,-19.5 398,-0.5 322,-0.5"/>
<text text-anchor="middle" x="360" y="-7.5" font-family="Helvetica,sans-Serif" font-size="10.00">as_reg_read</text>
</a>
</g>
</g>
<!-- Node3&#45;&gt;Node4 -->
<g id="edge3" class="edge">
<title>Node3&#45;&gt;Node4</title>
<path fill="none" stroke="midnightblue" d="M286.33,-10C294.79,-10 303.41,-10 311.61,-10"/>
<polygon fill="midnightblue" stroke="midnightblue" points="311.74,-13.5 321.73,-10 311.73,-6.5 311.74,-13.5"/>
</g>
<!-- Node5 -->
<g id="node5" class="node">
<title>Node5</title>
<g id="a_node5"><a xlink:href="group__asterics__support.html#ga4c6d688b840a6e2edc9bc0b8ed961677" target="_top" xlink:title=" ">
<polygon fill="none" stroke="black" points="434,-0.5 434,-19.5 534,-19.5 534,-0.5 434,-0.5"/>
<text text-anchor="middle" x="484" y="-7.5" font-family="Helvetica,sans-Serif" font-size="10.00">as_reg_to_uint32</text>
</a>
</g>
</g>
<!-- Node4&#45;&gt;Node5 -->
<g id="edge4" class="edge">
<title>Node4&#45;&gt;Node5</title>
<path fill="none" stroke="midnightblue" d="M398.27,-10C406.33,-10 415.04,-10 423.71,-10"/>
<polygon fill="midnightblue" stroke="midnightblue" points="423.82,-13.5 433.82,-10 423.82,-6.5 423.82,-13.5"/>
</g>
</g>
</svg>
