<?xml version="1.0" encoding="UTF-8" standalone="no"?>
<!DOCTYPE svg PUBLIC "-//W3C//DTD SVG 1.1//EN"
 "http://www.w3.org/Graphics/SVG/1.1/DTD/svg11.dtd">
<!-- Generated by graphviz version 2.43.0 (0)
 -->
<!-- Title: as_writer_get_cur_unit_count Pages: 1 -->
<svg width="398pt" height="66pt"
 viewBox="0.00 0.00 398.00 66.00" xmlns="http://www.w3.org/2000/svg" xmlns:xlink="http://www.w3.org/1999/xlink">
<g id="graph0" class="graph" transform="scale(1 1) rotate(0) translate(4 62)">
<title>as_writer_get_cur_unit_count</title>
<!-- Node1 -->
<g id="node1" class="node">
<title>Node1</title>
<g id="a_node1"><a xlink:title="Returns the number of received units by the reader_writer.">
<polygon fill="#bfbfbf" stroke="black" points="0,-14 0,-44 127,-44 127,-14 0,-14"/>
<text text-anchor="start" x="8" y="-32" font-family="Helvetica,sans-Serif" font-size="10.00">as_writer_get_cur_unit</text>
<text text-anchor="middle" x="63.5" y="-21" font-family="Helvetica,sans-Serif" font-size="10.00">_count</text>
</a>
</g>
</g>
<!-- Node2 -->
<g id="node2" class="node">
<title>Node2</title>
<g id="a_node2"><a xlink:href="group__asterics__support.html#gaa7520f5b717e163da743500adb2eb0b9" target="_top" xlink:title=" ">
<polygon fill="none" stroke="black" points="163,-38.5 163,-57.5 254,-57.5 254,-38.5 163,-38.5"/>
<text text-anchor="middle" x="208.5" y="-45.5" font-family="Helvetica,sans-Serif" font-size="10.00">as_module_reg</text>
</a>
</g>
</g>
<!-- Node1&#45;&gt;Node2 -->
<g id="edge1" class="edge">
<title>Node1&#45;&gt;Node2</title>
<path fill="none" stroke="midnightblue" d="M127.22,-37.33C135.76,-38.47 144.46,-39.62 152.84,-40.74"/>
<polygon fill="midnightblue" stroke="midnightblue" points="152.49,-44.22 162.87,-42.07 153.41,-37.28 152.49,-44.22"/>
</g>
<!-- Node3 -->
<g id="node3" class="node">
<title>Node3</title>
<g id="a_node3"><a xlink:href="group__asterics__support.html#ga8e5c2bfd2e4498d10289377bd94cef07" target="_top" xlink:title=" ">
<polygon fill="none" stroke="black" points="170.5,-0.5 170.5,-19.5 246.5,-19.5 246.5,-0.5 170.5,-0.5"/>
<text text-anchor="middle" x="208.5" y="-7.5" font-family="Helvetica,sans-Serif" font-size="10.00">as_reg_read</text>
</a>
</g>
</g>
<!-- Node1&#45;&gt;Node3 -->
<g id="edge2" class="edge">
<title>Node1&#45;&gt;Node3</title>
<path fill="none" stroke="midnightblue" d="M127.22,-20.67C138.25,-19.2 149.57,-17.7 160.09,-16.3"/>
<polygon fill="midnightblue" stroke="midnightblue" points="160.86,-19.73 170.32,-14.94 159.94,-12.79 160.86,-19.73"/>
</g>
<!-- Node4 -->
<g id="node4" class="node">
<title>Node4</title>
<g id="a_node4"><a xlink:href="group__asterics__support.html#ga4c6d688b840a6e2edc9bc0b8ed961677" target="_top" xlink:title=" ">
<polygon fill="none" stroke="black" points="290,-0.5 290,-19.5 390,-19.5 390,-0.5 290,-0.5"/>
<text text-anchor="middle" x="340" y="-7.5" font-family="Helvetica,sans-Serif" font-size="10.00">as_reg_to_uint32</text>
</a>
</g>
</g>
<!-- Node3&#45;&gt;Node4 -->
<g id="edge3" class="edge">
<title>Node3&#45;&gt;Node4</title>
<path fill="none" stroke="midnightblue" d="M246.61,-10C256.91,-10 268.36,-10 279.59,-10"/>
<polygon fill="midnightblue" stroke="midnightblue" points="279.81,-13.5 289.81,-10 279.81,-6.5 279.81,-13.5"/>
</g>
</g>
</svg>
