<?xml version="1.0" encoding="UTF-8" standalone="no"?>
<!DOCTYPE svg PUBLIC "-//W3C//DTD SVG 1.1//EN"
 "http://www.w3.org/Graphics/SVG/1.1/DTD/svg11.dtd">
<!-- Generated by graphviz version 2.43.0 (0)
 -->
<!-- Title: as_reader_writer_reset Pages: 1 -->
<svg width="653pt" height="175pt"
 viewBox="0.00 0.00 653.00 175.00" xmlns="http://www.w3.org/2000/svg" xmlns:xlink="http://www.w3.org/1999/xlink">
<g id="graph0" class="graph" transform="scale(1 1) rotate(0) translate(4 171)">
<title>as_reader_writer_reset</title>
<!-- Node1 -->
<g id="node1" class="node">
<title>Node1</title>
<g id="a_node1"><a xlink:title="Resets the hardware module.">
<polygon fill="#bfbfbf" stroke="black" points="517,-109.5 517,-128.5 645,-128.5 645,-109.5 517,-109.5"/>
<text text-anchor="middle" x="581" y="-116.5" font-family="Helvetica,sans-Serif" font-size="10.00">as_reader_writer_reset</text>
</a>
</g>
</g>
<!-- Node2 -->
<g id="node2" class="node">
<title>Node2</title>
<g id="a_node2"><a xlink:href="as__memio_8h.html#a80ef9367a40bd09868b8faea1884a5a8" target="_top" xlink:title=" ">
<polygon fill="none" stroke="black" points="361,-147.5 361,-166.5 459,-166.5 459,-147.5 361,-147.5"/>
<text text-anchor="middle" x="410" y="-154.5" font-family="Helvetica,sans-Serif" font-size="10.00">as_memio_close</text>
</a>
</g>
</g>
<!-- Node1&#45;&gt;Node2 -->
<g id="edge1" class="edge">
<title>Node1&#45;&gt;Node2</title>
<path fill="none" stroke="midnightblue" d="M527.41,-130.82C503.59,-136.18 475.79,-142.43 453.34,-147.48"/>
<polygon fill="midnightblue" stroke="midnightblue" points="528.37,-134.2 537.35,-128.59 526.83,-127.37 528.37,-134.2"/>
</g>
<!-- Node4 -->
<g id="node4" class="node">
<title>Node4</title>
<g id="a_node4"><a xlink:href="as__memio_8c.html#a31a12ad0b581e08a50188766815dd93d" target="_top" xlink:title=" ">
<polygon fill="none" stroke="black" points="339,-109.5 339,-128.5 481,-128.5 481,-109.5 339,-109.5"/>
<text text-anchor="middle" x="410" y="-116.5" font-family="Helvetica,sans-Serif" font-size="10.00">as_memio_module_setup</text>
</a>
</g>
</g>
<!-- Node1&#45;&gt;Node4 -->
<g id="edge3" class="edge">
<title>Node1&#45;&gt;Node4</title>
<path fill="none" stroke="midnightblue" d="M506.4,-119C497.97,-119 489.39,-119 481,-119"/>
<polygon fill="midnightblue" stroke="midnightblue" points="506.59,-122.5 516.59,-119 506.59,-115.5 506.59,-122.5"/>
</g>
<!-- Node7 -->
<g id="node7" class="node">
<title>Node7</title>
<g id="a_node7"><a xlink:href="group__as__reader__writer.html#ga5c0bd52e53c8e68de80b1712c12d9a4a" target="_top" xlink:title="Initializes the hardware module with values provided by config.">
<polygon fill="none" stroke="black" points="350.5,-62.5 350.5,-81.5 469.5,-81.5 469.5,-62.5 350.5,-62.5"/>
<text text-anchor="middle" x="410" y="-69.5" font-family="Helvetica,sans-Serif" font-size="10.00">as_reader_writer_init</text>
</a>
</g>
</g>
<!-- Node1&#45;&gt;Node7 -->
<g id="edge6" class="edge">
<title>Node1&#45;&gt;Node7</title>
<path fill="none" stroke="midnightblue" d="M536.16,-106.81C507.89,-98.95 471.64,-88.86 445.44,-81.58"/>
<polygon fill="midnightblue" stroke="midnightblue" points="535.23,-110.18 545.8,-109.49 537.1,-103.44 535.23,-110.18"/>
</g>
<!-- Node3 -->
<g id="node3" class="node">
<title>Node3</title>
<g id="a_node3"><a xlink:href="group__memio__file__ops.html#gacbc077ab5c70f951062f1a7bbd311957" target="_top" xlink:title=" ">
<polygon fill="none" stroke="black" points="169,-147.5 169,-166.5 301,-166.5 301,-147.5 169,-147.5"/>
<text text-anchor="middle" x="235" y="-154.5" font-family="Helvetica,sans-Serif" font-size="10.00">driver_as_memio_close</text>
</a>
</g>
</g>
<!-- Node2&#45;&gt;Node3 -->
<g id="edge2" class="edge">
<title>Node2&#45;&gt;Node3</title>
<path fill="none" stroke="midnightblue" d="M350.58,-157C334.67,-157 317.33,-157 301.07,-157"/>
<polygon fill="midnightblue" stroke="midnightblue" points="350.81,-160.5 360.81,-157 350.81,-153.5 350.81,-160.5"/>
</g>
<!-- Node5 -->
<g id="node5" class="node">
<title>Node5</title>
<g id="a_node5"><a xlink:href="as__memio_8h.html#acb0c0a633ce7890008c6f6f1f2eca285" target="_top" xlink:title=" ">
<polygon fill="none" stroke="black" points="186.5,-109.5 186.5,-128.5 283.5,-128.5 283.5,-109.5 186.5,-109.5"/>
<text text-anchor="middle" x="235" y="-116.5" font-family="Helvetica,sans-Serif" font-size="10.00">as_memio_open</text>
</a>
</g>
</g>
<!-- Node4&#45;&gt;Node5 -->
<g id="edge4" class="edge">
<title>Node4&#45;&gt;Node5</title>
<path fill="none" stroke="midnightblue" d="M328.57,-119C313.17,-119 297.51,-119 283.56,-119"/>
<polygon fill="midnightblue" stroke="midnightblue" points="328.63,-122.5 338.63,-119 328.63,-115.5 328.63,-122.5"/>
</g>
<!-- Node6 -->
<g id="node6" class="node">
<title>Node6</title>
<g id="a_node6"><a xlink:href="group__memio__file__ops.html#ga6a581341bc6e2a1ed45c56c0fc7bcece" target="_top" xlink:title=" ">
<polygon fill="none" stroke="black" points="0,-114.5 0,-133.5 131,-133.5 131,-114.5 0,-114.5"/>
<text text-anchor="middle" x="65.5" y="-121.5" font-family="Helvetica,sans-Serif" font-size="10.00">driver_as_memio_open</text>
</a>
</g>
</g>
<!-- Node5&#45;&gt;Node6 -->
<g id="edge5" class="edge">
<title>Node5&#45;&gt;Node6</title>
<path fill="none" stroke="midnightblue" d="M176.1,-120.73C161.57,-121.16 145.89,-121.63 131.06,-122.07"/>
<polygon fill="midnightblue" stroke="midnightblue" points="176.56,-124.22 186.45,-120.42 176.35,-117.22 176.56,-124.22"/>
</g>
<!-- Node8 -->
<g id="node8" class="node">
<title>Node8</title>
<g id="a_node8"><a xlink:href="group__mmap__file__ops.html#ga93a1477871ee8b3e8071b60442a0ceb3" target="_top" xlink:title=" ">
<polygon fill="none" stroke="black" points="167,-43.5 167,-62.5 303,-62.5 303,-43.5 167,-43.5"/>
<text text-anchor="middle" x="235" y="-50.5" font-family="Helvetica,sans-Serif" font-size="10.00">as_mmap_start_transfer</text>
</a>
</g>
</g>
<!-- Node7&#45;&gt;Node8 -->
<g id="edge7" class="edge">
<title>Node7&#45;&gt;Node8</title>
<path fill="none" stroke="midnightblue" d="M340.3,-64.45C328.07,-63.11 315.34,-61.71 303.16,-60.38"/>
<polygon fill="midnightblue" stroke="midnightblue" points="340.11,-67.95 350.43,-65.57 340.87,-61 340.11,-67.95"/>
</g>
<!-- Node9 -->
<g id="node9" class="node">
<title>Node9</title>
<g id="a_node9"><a xlink:href="group__mmap__file__ops.html#gab078c489a563497f4da70a9f6115dfce" target="_top" xlink:title=" ">
<polygon fill="none" stroke="black" points="20,-76.5 20,-95.5 111,-95.5 111,-76.5 20,-76.5"/>
<text text-anchor="middle" x="65.5" y="-83.5" font-family="Helvetica,sans-Serif" font-size="10.00">as_mmap_ioctl</text>
</a>
</g>
</g>
<!-- Node8&#45;&gt;Node9 -->
<g id="edge8" class="edge">
<title>Node8&#45;&gt;Node9</title>
<path fill="none" stroke="midnightblue" d="M175.69,-64.49C154.51,-68.66 130.93,-73.31 111.11,-77.21"/>
<polygon fill="midnightblue" stroke="midnightblue" points="176.42,-67.91 185.55,-62.54 175.06,-61.04 176.42,-67.91"/>
</g>
<!-- Node10 -->
<g id="node10" class="node">
<title>Node10</title>
<g id="a_node10"><a xlink:href="group__mmap__file__ops.html#gae18f99f9774b7224e71d80209ecd0bf4" target="_top" xlink:title=" ">
<polygon fill="none" stroke="black" points="3,-38.5 3,-57.5 128,-57.5 128,-38.5 3,-38.5"/>
<text text-anchor="middle" x="65.5" y="-45.5" font-family="Helvetica,sans-Serif" font-size="10.00">driver_as_mmap_read</text>
</a>
</g>
</g>
<!-- Node8&#45;&gt;Node10 -->
<g id="edge9" class="edge">
<title>Node8&#45;&gt;Node10</title>
<path fill="none" stroke="midnightblue" d="M156.59,-50.69C147.09,-50.41 137.48,-50.12 128.25,-49.84"/>
<polygon fill="midnightblue" stroke="midnightblue" points="156.74,-54.2 166.84,-51 156.95,-47.2 156.74,-54.2"/>
</g>
<!-- Node11 -->
<g id="node11" class="node">
<title>Node11</title>
<g id="a_node11"><a xlink:href="group__mmap__file__ops.html#gaeea3980f5b633c4b83ff46b2efc2ea10" target="_top" xlink:title=" ">
<polygon fill="none" stroke="black" points="1.5,-0.5 1.5,-19.5 129.5,-19.5 129.5,-0.5 1.5,-0.5"/>
<text text-anchor="middle" x="65.5" y="-7.5" font-family="Helvetica,sans-Serif" font-size="10.00">driver_as_mmap_write</text>
</a>
</g>
</g>
<!-- Node8&#45;&gt;Node11 -->
<g id="edge10" class="edge">
<title>Node8&#45;&gt;Node11</title>
<path fill="none" stroke="midnightblue" d="M187.04,-40.94C160.64,-34.17 128.16,-25.83 103.57,-19.52"/>
<polygon fill="midnightblue" stroke="midnightblue" points="186.27,-44.36 196.83,-43.46 188.01,-37.58 186.27,-44.36"/>
</g>
</g>
</svg>
