<?xml version="1.0" encoding="UTF-8" standalone="no"?>
<!DOCTYPE svg PUBLIC "-//W3C//DTD SVG 1.1//EN"
 "http://www.w3.org/Graphics/SVG/1.1/DTD/svg11.dtd">
<!-- Generated by graphviz version 2.43.0 (0)
 -->
<!-- Title: as_yield Pages: 1 -->
<svg width="1695pt" height="450pt"
 viewBox="0.00 0.00 1695.00 449.50" xmlns="http://www.w3.org/2000/svg" xmlns:xlink="http://www.w3.org/1999/xlink">
<g id="graph0" class="graph" transform="scale(1 1) rotate(0) translate(4 445.5)">
<title>as_yield</title>
<!-- Node1 -->
<g id="node1" class="node">
<title>Node1</title>
<g id="a_node1"><a xlink:title=" ">
<polygon fill="#bfbfbf" stroke="black" points="1630,-145 1630,-164 1687,-164 1687,-145 1630,-145"/>
<text text-anchor="middle" x="1658.5" y="-152" font-family="Helvetica,sans-Serif" font-size="10.00">as_yield</text>
</a>
</g>
</g>
<!-- Node2 -->
<g id="node2" class="node">
<title>Node2</title>
<g id="a_node2"><a xlink:href="group__asterics__support.html#ga82169f81e9d09b61493b8a6d14ac7d15" target="_top" xlink:title=" ">
<polygon fill="none" stroke="black" points="1511,-164 1511,-183 1594,-183 1594,-164 1511,-164"/>
<text text-anchor="middle" x="1552.5" y="-171" font-family="Helvetica,sans-Serif" font-size="10.00">as_cond_wait</text>
</a>
</g>
</g>
<!-- Node1&#45;&gt;Node2 -->
<g id="edge1" class="edge">
<title>Node1&#45;&gt;Node2</title>
<path fill="none" stroke="midnightblue" d="M1620,-161.35C1611.61,-162.88 1602.67,-164.52 1594.15,-166.07"/>
<polygon fill="midnightblue" stroke="midnightblue" points="1620.69,-164.78 1629.9,-159.54 1619.44,-157.9 1620.69,-164.78"/>
</g>
<!-- Node3 -->
<g id="node3" class="node">
<title>Node3</title>
<g id="a_node3"><a xlink:href="group__asterics__support.html#gab803703ab5b845023ca31b7b2664419c" target="_top" xlink:title=" ">
<polygon fill="none" stroke="black" points="1523,-126 1523,-145 1582,-145 1582,-126 1523,-126"/>
<text text-anchor="middle" x="1552.5" y="-133" font-family="Helvetica,sans-Serif" font-size="10.00">as_sleep</text>
</a>
</g>
</g>
<!-- Node1&#45;&gt;Node3 -->
<g id="edge2" class="edge">
<title>Node1&#45;&gt;Node3</title>
<path fill="none" stroke="midnightblue" d="M1619.85,-147.62C1607.48,-145.36 1593.93,-142.89 1582.32,-140.76"/>
<polygon fill="midnightblue" stroke="midnightblue" points="1619.44,-151.1 1629.9,-149.46 1620.69,-144.22 1619.44,-151.1"/>
</g>
<!-- Node4 -->
<g id="node4" class="node">
<title>Node4</title>
<g id="a_node4"><a xlink:href="group__as__iic__wait.html#gad3cfec26b8a73166e060108cf1444a2b" target="_top" xlink:title=" ">
<polygon fill="none" stroke="black" points="1357,-196.5 1357,-226.5 1475,-226.5 1475,-196.5 1357,-196.5"/>
<text text-anchor="start" x="1365" y="-214.5" font-family="Helvetica,sans-Serif" font-size="10.00">as_iic_busy_wait_for</text>
<text text-anchor="middle" x="1416" y="-203.5" font-family="Helvetica,sans-Serif" font-size="10.00">_hwready</text>
</a>
</g>
</g>
<!-- Node3&#45;&gt;Node4 -->
<g id="edge3" class="edge">
<title>Node3&#45;&gt;Node4</title>
<path fill="none" stroke="midnightblue" d="M1520.67,-149.54C1517.38,-151.16 1514.11,-152.84 1511,-154.5 1486.44,-167.66 1459.32,-184.35 1440.55,-196.26"/>
<polygon fill="midnightblue" stroke="midnightblue" points="1522.35,-152.62 1529.85,-145.14 1519.32,-146.31 1522.35,-152.62"/>
</g>
<!-- Node9 -->
<g id="node9" class="node">
<title>Node9</title>
<g id="a_node9"><a xlink:href="group__as__iic__user.html#ga812d9e16a61b39777a5fbffc7eccbc8d" target="_top" xlink:title=" ">
<polygon fill="none" stroke="black" points="534,-318 534,-337 626,-337 626,-318 534,-318"/>
<text text-anchor="middle" x="580" y="-325" font-family="Helvetica,sans-Serif" font-size="10.00">as_iic_read_reg</text>
</a>
</g>
</g>
<!-- Node3&#45;&gt;Node9 -->
<g id="edge49" class="edge">
<title>Node3&#45;&gt;Node9</title>
<path fill="none" stroke="midnightblue" d="M1514.29,-151.17C1513.12,-152.22 1512.02,-153.33 1511,-154.5 1474.86,-196.3 1509.81,-230.59 1475,-273.5 1400.44,-365.41 1359.85,-401.5 1241.5,-401.5 1241.5,-401.5 1241.5,-401.5 865,-401.5 763.86,-401.5 648.82,-357.01 602.24,-337.02"/>
<polygon fill="midnightblue" stroke="midnightblue" points="1516.65,-153.8 1522.81,-145.19 1512.62,-148.07 1516.65,-153.8"/>
</g>
<!-- Node18 -->
<g id="node18" class="node">
<title>Node18</title>
<g id="a_node18"><a xlink:href="group__as__iic__user.html#ga987a7c89e5d900225a42f04583e0cfe7" target="_top" xlink:title=" ">
<polygon fill="none" stroke="black" points="531,-164 531,-183 629,-183 629,-164 531,-164"/>
<text text-anchor="middle" x="580" y="-171" font-family="Helvetica,sans-Serif" font-size="10.00">as_iic_read_regs</text>
</a>
</g>
</g>
<!-- Node3&#45;&gt;Node18 -->
<g id="edge50" class="edge">
<title>Node3&#45;&gt;Node18</title>
<path fill="none" stroke="midnightblue" d="M1530.96,-119.92C1516.19,-109.55 1495.37,-96.58 1475,-89.5 1376.17,-55.14 1346.13,-59.5 1241.5,-59.5 1241.5,-59.5 1241.5,-59.5 865,-59.5 772.2,-59.5 749.3,-80.7 665,-119.5 637.91,-131.97 609.31,-152.06 593.45,-163.9"/>
<polygon fill="midnightblue" stroke="midnightblue" points="1529.16,-122.94 1539.31,-125.96 1533.26,-117.26 1529.16,-122.94"/>
</g>
<!-- Node27 -->
<g id="node27" class="node">
<title>Node27</title>
<g id="a_node27"><a xlink:href="group__as__iic__helpers.html#gaa8ce9ac10b8c2ca9b614110ca5cbeff5" target="_top" xlink:title=" ">
<polygon fill="none" stroke="black" points="966,-164 966,-183 1124,-183 1124,-164 966,-164"/>
<text text-anchor="middle" x="1045" y="-171" font-family="Helvetica,sans-Serif" font-size="10.00">as_iic_stop_read_transaction</text>
</a>
</g>
</g>
<!-- Node3&#45;&gt;Node27 -->
<g id="edge51" class="edge">
<title>Node3&#45;&gt;Node27</title>
<path fill="none" stroke="midnightblue" d="M1513.34,-123C1440.98,-101.55 1280.3,-64.75 1160,-116.5 1138.63,-125.69 1144.12,-142.83 1124,-154.5 1117.37,-158.35 1109.99,-161.42 1102.48,-163.87"/>
<polygon fill="midnightblue" stroke="midnightblue" points="1512.36,-126.36 1522.95,-125.92 1514.4,-119.66 1512.36,-126.36"/>
</g>
<!-- Node28 -->
<g id="node28" class="node">
<title>Node28</title>
<g id="a_node28"><a xlink:href="group__as__iic__helpers.html#ga67cc002a1b20c75dc26f7b328ca5ddc9" target="_top" xlink:title=" ">
<polygon fill="none" stroke="black" points="1160,-278 1160,-297 1321,-297 1321,-278 1160,-278"/>
<text text-anchor="middle" x="1240.5" y="-285" font-family="Helvetica,sans-Serif" font-size="10.00">as_iic_stop_write_transaction</text>
</a>
</g>
</g>
<!-- Node3&#45;&gt;Node28 -->
<g id="edge52" class="edge">
<title>Node3&#45;&gt;Node28</title>
<path fill="none" stroke="midnightblue" d="M1515.5,-150.53C1513.9,-151.76 1512.39,-153.09 1511,-154.5 1483.43,-182.64 1505.49,-210.55 1475,-235.5 1432.09,-270.61 1370.44,-283.25 1321.26,-287.3"/>
<polygon fill="midnightblue" stroke="midnightblue" points="1517.48,-153.41 1524.03,-145.09 1513.72,-147.51 1517.48,-153.41"/>
</g>
<!-- Node29 -->
<g id="node29" class="node">
<title>Node29</title>
<g id="a_node29"><a xlink:href="group__as__iic__wait.html#ga15d70ebfd78cef86f9b0e28d2c78adad" target="_top" xlink:title=" ">
<polygon fill="none" stroke="black" points="1357,-0.5 1357,-30.5 1475,-30.5 1475,-0.5 1357,-0.5"/>
<text text-anchor="start" x="1365" y="-18.5" font-family="Helvetica,sans-Serif" font-size="10.00">as_iic_busy_wait_for</text>
<text text-anchor="middle" x="1416" y="-7.5" font-family="Helvetica,sans-Serif" font-size="10.00">_ioready</text>
</a>
</g>
</g>
<!-- Node3&#45;&gt;Node29 -->
<g id="edge41" class="edge">
<title>Node3&#45;&gt;Node29</title>
<path fill="none" stroke="midnightblue" d="M1539.38,-117.41C1525.57,-97.82 1501.47,-66.55 1475,-45.5 1467.9,-39.86 1459.58,-34.81 1451.48,-30.54"/>
<polygon fill="midnightblue" stroke="midnightblue" points="1536.58,-119.51 1545.14,-125.75 1542.34,-115.54 1536.58,-119.51"/>
</g>
<!-- Node30 -->
<g id="node30" class="node">
<title>Node30</title>
<g id="a_node30"><a xlink:href="group__as__iic__wait.html#ga0bc5aad64893b674c42943fb64d17676" target="_top" xlink:title=" ">
<polygon fill="none" stroke="black" points="1168.5,-126 1168.5,-145 1312.5,-145 1312.5,-126 1168.5,-126"/>
<text text-anchor="middle" x="1240.5" y="-133" font-family="Helvetica,sans-Serif" font-size="10.00">as_iic_busy_wait_for_wait</text>
</a>
</g>
</g>
<!-- Node3&#45;&gt;Node30 -->
<g id="edge42" class="edge">
<title>Node3&#45;&gt;Node30</title>
<path fill="none" stroke="midnightblue" d="M1512.83,-135.5C1462.9,-135.5 1375.02,-135.5 1312.81,-135.5"/>
<polygon fill="midnightblue" stroke="midnightblue" points="1512.89,-139 1522.89,-135.5 1512.89,-132 1512.89,-139"/>
</g>
<!-- Node5 -->
<g id="node5" class="node">
<title>Node5</title>
<g id="a_node5"><a xlink:href="group__as__iic__user.html#ga77245afd24eadd52f5845e23d82e777a" target="_top" xlink:title=" ">
<polygon fill="none" stroke="black" points="1208,-202 1208,-221 1273,-221 1273,-202 1208,-202"/>
<text text-anchor="middle" x="1240.5" y="-209" font-family="Helvetica,sans-Serif" font-size="10.00">as_iic_init</text>
</a>
</g>
</g>
<!-- Node4&#45;&gt;Node5 -->
<g id="edge4" class="edge">
<title>Node4&#45;&gt;Node5</title>
<path fill="none" stroke="midnightblue" d="M1346.42,-211.5C1321.07,-211.5 1293.56,-211.5 1273.07,-211.5"/>
<polygon fill="midnightblue" stroke="midnightblue" points="1346.74,-215 1356.74,-211.5 1346.74,-208 1346.74,-215"/>
</g>
<!-- Node6 -->
<g id="node6" class="node">
<title>Node6</title>
<g id="a_node6"><a xlink:href="group__as__iic__helpers.html#ga53e6050a2c66be89ac23084fd9de9c23" target="_top" xlink:title=" ">
<polygon fill="none" stroke="black" points="979,-240 979,-259 1111,-259 1111,-240 979,-240"/>
<text text-anchor="middle" x="1045" y="-247" font-family="Helvetica,sans-Serif" font-size="10.00">as_iic_start_transaction</text>
</a>
</g>
</g>
<!-- Node4&#45;&gt;Node6 -->
<g id="edge5" class="edge">
<title>Node4&#45;&gt;Node6</title>
<path fill="none" stroke="midnightblue" d="M1346.73,-226.38C1338.09,-227.94 1329.36,-229.37 1321,-230.5 1249.62,-240.14 1167.13,-245.01 1111.25,-247.39"/>
<polygon fill="midnightblue" stroke="midnightblue" points="1347.6,-229.78 1356.78,-224.5 1346.31,-222.9 1347.6,-229.78"/>
</g>
<!-- Node4&#45;&gt;Node27 -->
<g id="edge32" class="edge">
<title>Node4&#45;&gt;Node27</title>
<path fill="none" stroke="midnightblue" d="M1346.73,-196.62C1338.09,-195.06 1329.36,-193.63 1321,-192.5 1254.96,-183.58 1179.4,-178.74 1124.21,-176.19"/>
<polygon fill="midnightblue" stroke="midnightblue" points="1346.31,-200.1 1356.78,-198.5 1347.6,-193.22 1346.31,-200.1"/>
</g>
<!-- Node4&#45;&gt;Node28 -->
<g id="edge36" class="edge">
<title>Node4&#45;&gt;Node28</title>
<path fill="none" stroke="midnightblue" d="M1382.2,-231.9C1364.52,-242.31 1342.07,-254.61 1321,-263.5 1307.58,-269.16 1292.38,-274.09 1278.89,-277.98"/>
<polygon fill="midnightblue" stroke="midnightblue" points="1384.18,-234.79 1390.98,-226.66 1380.6,-228.78 1384.18,-234.79"/>
</g>
<!-- Node7 -->
<g id="node7" class="node">
<title>Node7</title>
<g id="a_node7"><a xlink:href="group__as__iic__user.html#ga30385c0c387c1629188745edf9c824c1" target="_top" xlink:title=" ">
<polygon fill="none" stroke="black" points="806.5,-202 806.5,-221 925.5,-221 925.5,-202 806.5,-202"/>
<text text-anchor="middle" x="866" y="-209" font-family="Helvetica,sans-Serif" font-size="10.00">as_iic_get_byte_mod</text>
</a>
</g>
</g>
<!-- Node6&#45;&gt;Node7 -->
<g id="edge6" class="edge">
<title>Node6&#45;&gt;Node7</title>
<path fill="none" stroke="midnightblue" d="M989.26,-237.75C964.23,-232.37 934.97,-226.09 911.34,-221.02"/>
<polygon fill="midnightblue" stroke="midnightblue" points="988.82,-241.23 999.34,-239.91 990.29,-234.39 988.82,-241.23"/>
</g>
<!-- Node17 -->
<g id="node17" class="node">
<title>Node17</title>
<g id="a_node17"><a xlink:href="group__as__iic__user.html#ga76b6915b73f14abb8a200df4eefde6f3" target="_top" xlink:title=" ">
<polygon fill="none" stroke="black" points="817,-126 817,-145 915,-145 915,-126 817,-126"/>
<text text-anchor="middle" x="866" y="-133" font-family="Helvetica,sans-Serif" font-size="10.00">as_iic_get_bytes</text>
</a>
</g>
</g>
<!-- Node6&#45;&gt;Node17 -->
<g id="edge18" class="edge">
<title>Node6&#45;&gt;Node17</title>
<path fill="none" stroke="midnightblue" d="M977.79,-236.28C973.7,-234.58 969.73,-232.66 966,-230.5 945.88,-218.83 946.64,-208.76 930,-192.5 912.49,-175.39 891.2,-156.5 878.39,-145.34"/>
<polygon fill="midnightblue" stroke="midnightblue" points="976.92,-239.69 987.52,-239.87 979.34,-233.13 976.92,-239.69"/>
</g>
<!-- Node6&#45;&gt;Node18 -->
<g id="edge19" class="edge">
<title>Node6&#45;&gt;Node18</title>
<path fill="none" stroke="midnightblue" d="M968.44,-257.46C890.32,-263.01 765.89,-264.29 665,-230.5 635.25,-220.54 606.26,-196.87 591.36,-183.38"/>
<polygon fill="midnightblue" stroke="midnightblue" points="968.96,-260.93 978.67,-256.69 968.44,-253.95 968.96,-260.93"/>
</g>
<!-- Node19 -->
<g id="node19" class="node">
<title>Node19</title>
<g id="a_node19"><a xlink:href="group__as__iic__user.html#ga5c5233652491e648a88292ae73b49ace" target="_top" xlink:title=" ">
<polygon fill="none" stroke="black" points="806,-354 806,-373 926,-373 926,-354 806,-354"/>
<text text-anchor="middle" x="866" y="-361" font-family="Helvetica,sans-Serif" font-size="10.00">as_iic_set_regpointer</text>
</a>
</g>
</g>
<!-- Node6&#45;&gt;Node19 -->
<g id="edge20" class="edge">
<title>Node6&#45;&gt;Node19</title>
<path fill="none" stroke="midnightblue" d="M1028.16,-266.35C1007.47,-287.45 969.22,-323.38 930,-344.5 922.96,-348.29 915.06,-351.43 907.29,-353.99"/>
<polygon fill="midnightblue" stroke="midnightblue" points="1030.78,-268.68 1035.2,-259.06 1025.74,-263.82 1030.78,-268.68"/>
</g>
<!-- Node20 -->
<g id="node20" class="node">
<title>Node20</title>
<g id="a_node20"><a xlink:href="group__as__iic__user.html#ga08fcff0dba9d6b4898291746d2206408" target="_top" xlink:title=" ">
<polygon fill="none" stroke="black" points="802,-316 802,-335 930,-335 930,-316 802,-316"/>
<text text-anchor="middle" x="866" y="-323" font-family="Helvetica,sans-Serif" font-size="10.00">as_iic_write_byte_mod</text>
</a>
</g>
</g>
<!-- Node6&#45;&gt;Node20 -->
<g id="edge21" class="edge">
<title>Node6&#45;&gt;Node20</title>
<path fill="none" stroke="midnightblue" d="M1018.04,-264.08C995.3,-276.46 961.13,-294.13 930,-306.5 921.19,-310 911.47,-313.23 902.35,-315.99"/>
<polygon fill="midnightblue" stroke="midnightblue" points="1019.96,-267.02 1027.04,-259.13 1016.59,-260.88 1019.96,-267.02"/>
</g>
<!-- Node22 -->
<g id="node22" class="node">
<title>Node22</title>
<g id="a_node22"><a xlink:href="group__as__iic__user.html#ga2a4e5ee19e84cc95de665e29b92ccda1" target="_top" xlink:title=" ">
<polygon fill="none" stroke="black" points="812.5,-278 812.5,-297 919.5,-297 919.5,-278 812.5,-278"/>
<text text-anchor="middle" x="866" y="-285" font-family="Helvetica,sans-Serif" font-size="10.00">as_iic_write_bytes</text>
</a>
</g>
</g>
<!-- Node6&#45;&gt;Node22 -->
<g id="edge25" class="edge">
<title>Node6&#45;&gt;Node22</title>
<path fill="none" stroke="midnightblue" d="M989.26,-261.25C964.23,-266.63 934.97,-272.91 911.34,-277.98"/>
<polygon fill="midnightblue" stroke="midnightblue" points="990.29,-264.61 999.34,-259.09 988.82,-257.77 990.29,-264.61"/>
</g>
<!-- Node8 -->
<g id="node8" class="node">
<title>Node8</title>
<g id="a_node8"><a xlink:href="group__as__iic__user.html#gacf3e3b915e1f15ed8bdc60ab4c129996" target="_top" xlink:title=" ">
<polygon fill="none" stroke="black" points="669.5,-202 669.5,-221 761.5,-221 761.5,-202 669.5,-202"/>
<text text-anchor="middle" x="715.5" y="-209" font-family="Helvetica,sans-Serif" font-size="10.00">as_iic_get_byte</text>
</a>
</g>
</g>
<!-- Node7&#45;&gt;Node8 -->
<g id="edge7" class="edge">
<title>Node7&#45;&gt;Node8</title>
<path fill="none" stroke="midnightblue" d="M796.18,-211.5C784.56,-211.5 772.77,-211.5 761.94,-211.5"/>
<polygon fill="midnightblue" stroke="midnightblue" points="796.31,-215 806.31,-211.5 796.31,-208 796.31,-215"/>
</g>
<!-- Node8&#45;&gt;Node9 -->
<g id="edge8" class="edge">
<title>Node8&#45;&gt;Node9</title>
<path fill="none" stroke="midnightblue" d="M695.48,-228.03C667.13,-252.66 614.7,-298.22 591.98,-317.96"/>
<polygon fill="midnightblue" stroke="midnightblue" points="697.87,-230.59 703.12,-221.39 693.27,-225.31 697.87,-230.59"/>
</g>
<!-- Node10 -->
<g id="node10" class="node">
<title>Node10</title>
<g id="a_node10"><a xlink:href="as__sensor__ov7670_8c.html#acb25afaea3e81940c50e327c45921f08" target="_top" xlink:title=" ">
<polygon fill="none" stroke="black" points="384,-327 384,-346 495,-346 495,-327 384,-327"/>
<text text-anchor="middle" x="439.5" y="-334" font-family="Helvetica,sans-Serif" font-size="10.00">ov7670_iic_reg_get</text>
</a>
</g>
</g>
<!-- Node9&#45;&gt;Node10 -->
<g id="edge9" class="edge">
<title>Node9&#45;&gt;Node10</title>
<path fill="none" stroke="midnightblue" d="M523.63,-331.1C514.24,-331.71 504.5,-332.34 495.13,-332.95"/>
<polygon fill="midnightblue" stroke="midnightblue" points="523.9,-334.59 533.65,-330.45 523.44,-327.6 523.9,-334.59"/>
</g>
<!-- Node11 -->
<g id="node11" class="node">
<title>Node11</title>
<g id="a_node11"><a xlink:href="group__as__sensor__ov7670.html#ga55b52e2499f96009197bfe90af6c7a41" target="_top" xlink:title=" ">
<polygon fill="none" stroke="black" points="164,-270 164,-289 348,-289 348,-270 164,-270"/>
<text text-anchor="middle" x="256" y="-277" font-family="Helvetica,sans-Serif" font-size="10.00">as_sensor_ov7670_exposure_auto</text>
</a>
</g>
</g>
<!-- Node10&#45;&gt;Node11 -->
<g id="edge10" class="edge">
<title>Node10&#45;&gt;Node11</title>
<path fill="none" stroke="midnightblue" d="M409.66,-322.72C392.14,-314.77 369.14,-305.08 348,-298.5 336.29,-294.86 323.51,-291.7 311.33,-289.07"/>
<polygon fill="midnightblue" stroke="midnightblue" points="408.23,-325.92 418.78,-326.92 411.16,-319.56 408.23,-325.92"/>
</g>
<!-- Node13 -->
<g id="node13" class="node">
<title>Node13</title>
<g id="a_node13"><a xlink:href="group__as__sensor__ov7670.html#gae1b977db2733432317fee8f0497eb67a" target="_top" xlink:title=" ">
<polygon fill="none" stroke="black" points="167,-384 167,-403 345,-403 345,-384 167,-384"/>
<text text-anchor="middle" x="256" y="-391" font-family="Helvetica,sans-Serif" font-size="10.00">as_sensor_ov7670_exposure_get</text>
</a>
</g>
</g>
<!-- Node10&#45;&gt;Node13 -->
<g id="edge12" class="edge">
<title>Node10&#45;&gt;Node13</title>
<path fill="none" stroke="midnightblue" d="M409.66,-350.28C392.14,-358.23 369.14,-367.92 348,-374.5 336.29,-378.14 323.51,-381.3 311.33,-383.93"/>
<polygon fill="midnightblue" stroke="midnightblue" points="411.16,-353.44 418.78,-346.08 408.23,-347.08 411.16,-353.44"/>
</g>
<!-- Node14 -->
<g id="node14" class="node">
<title>Node14</title>
<g id="a_node14"><a xlink:href="group__as__sensor__ov7670.html#gadd11863e70497418c9d31c922945cbec" target="_top" xlink:title=" ">
<polygon fill="none" stroke="black" points="176,-308 176,-327 336,-327 336,-308 176,-308"/>
<text text-anchor="middle" x="256" y="-315" font-family="Helvetica,sans-Serif" font-size="10.00">as_sensor_ov7670_gain_auto</text>
</a>
</g>
</g>
<!-- Node10&#45;&gt;Node14 -->
<g id="edge13" class="edge">
<title>Node10&#45;&gt;Node14</title>
<path fill="none" stroke="midnightblue" d="M373.56,-329.7C361.45,-328.43 348.68,-327.1 336.2,-325.79"/>
<polygon fill="midnightblue" stroke="midnightblue" points="373.24,-333.19 383.55,-330.75 373.97,-326.23 373.24,-333.19"/>
</g>
<!-- Node15 -->
<g id="node15" class="node">
<title>Node15</title>
<g id="a_node15"><a xlink:href="group__as__sensor__ov7670.html#ga75ee4d998c858b26adae16b8140e8637" target="_top" xlink:title=" ">
<polygon fill="none" stroke="black" points="179,-422 179,-441 333,-441 333,-422 179,-422"/>
<text text-anchor="middle" x="256" y="-429" font-family="Helvetica,sans-Serif" font-size="10.00">as_sensor_ov7670_gain_get</text>
</a>
</g>
</g>
<!-- Node10&#45;&gt;Node15 -->
<g id="edge15" class="edge">
<title>Node10&#45;&gt;Node15</title>
<path fill="none" stroke="midnightblue" d="M423.27,-353.51C406.56,-371.06 378.09,-397.88 348,-412.5 340.02,-416.38 331.26,-419.47 322.44,-421.93"/>
<polygon fill="midnightblue" stroke="midnightblue" points="425.84,-355.88 430.08,-346.17 420.71,-351.12 425.84,-355.88"/>
</g>
<!-- Node16 -->
<g id="node16" class="node">
<title>Node16</title>
<g id="a_node16"><a xlink:href="as__sensor__ov7670_8c.html#ab5de18dc5dd74817505126a51487b8b1" target="_top" xlink:title=" ">
<polygon fill="none" stroke="black" points="181.5,-346 181.5,-365 330.5,-365 330.5,-346 181.5,-346"/>
<text text-anchor="middle" x="256" y="-353" font-family="Helvetica,sans-Serif" font-size="10.00">as_sensor_ov7670_identify</text>
</a>
</g>
</g>
<!-- Node10&#45;&gt;Node16 -->
<g id="edge16" class="edge">
<title>Node10&#45;&gt;Node16</title>
<path fill="none" stroke="midnightblue" d="M373.57,-343.3C359.62,-344.76 344.78,-346.31 330.53,-347.8"/>
<polygon fill="midnightblue" stroke="midnightblue" points="373.97,-346.77 383.55,-342.25 373.24,-339.81 373.97,-346.77"/>
</g>
<!-- Node12 -->
<g id="node12" class="node">
<title>Node12</title>
<g id="a_node12"><a xlink:href="group__as__sensor__ov7670.html#ga419a3339eac0f6abb8eafe24e468ae49" target="_top" xlink:title=" ">
<polygon fill="none" stroke="black" points="0,-308 0,-327 128,-327 128,-308 0,-308"/>
<text text-anchor="middle" x="64" y="-315" font-family="Helvetica,sans-Serif" font-size="10.00">as_sensor_ov7670_init</text>
</a>
</g>
</g>
<!-- Node11&#45;&gt;Node12 -->
<g id="edge11" class="edge">
<title>Node11&#45;&gt;Node12</title>
<path fill="none" stroke="midnightblue" d="M196.95,-291.11C169.93,-296.51 138.18,-302.86 112.6,-307.98"/>
<polygon fill="midnightblue" stroke="midnightblue" points="197.94,-294.48 207.05,-289.09 196.56,-287.62 197.94,-294.48"/>
</g>
<!-- Node14&#45;&gt;Node12 -->
<g id="edge14" class="edge">
<title>Node14&#45;&gt;Node12</title>
<path fill="none" stroke="midnightblue" d="M165.68,-317.5C153.01,-317.5 140.21,-317.5 128.17,-317.5"/>
<polygon fill="midnightblue" stroke="midnightblue" points="165.8,-321 175.8,-317.5 165.8,-314 165.8,-321"/>
</g>
<!-- Node16&#45;&gt;Node12 -->
<g id="edge17" class="edge">
<title>Node16&#45;&gt;Node12</title>
<path fill="none" stroke="midnightblue" d="M196.95,-343.89C169.93,-338.49 138.18,-332.14 112.6,-327.02"/>
<polygon fill="midnightblue" stroke="midnightblue" points="196.56,-347.38 207.05,-345.91 197.94,-340.52 196.56,-347.38"/>
</g>
<!-- Node21 -->
<g id="node21" class="node">
<title>Node21</title>
<g id="a_node21"><a xlink:href="group__as__iic__user.html#ga35cd65c29b1f4abd1ca87ca51605e5cc" target="_top" xlink:title=" ">
<polygon fill="none" stroke="black" points="665,-316 665,-335 766,-335 766,-316 665,-316"/>
<text text-anchor="middle" x="715.5" y="-323" font-family="Helvetica,sans-Serif" font-size="10.00">as_iic_write_byte</text>
</a>
</g>
</g>
<!-- Node20&#45;&gt;Node21 -->
<g id="edge22" class="edge">
<title>Node20&#45;&gt;Node21</title>
<path fill="none" stroke="midnightblue" d="M791.55,-325.5C782.97,-325.5 774.38,-325.5 766.23,-325.5"/>
<polygon fill="midnightblue" stroke="midnightblue" points="791.59,-329 801.59,-325.5 791.59,-322 791.59,-329"/>
</g>
<!-- Node21&#45;&gt;Node9 -->
<g id="edge23" class="edge">
<title>Node21&#45;&gt;Node9</title>
<path fill="none" stroke="midnightblue" d="M654.6,-326.4C645.11,-326.54 635.43,-326.68 626.34,-326.82"/>
<polygon fill="midnightblue" stroke="midnightblue" points="654.84,-329.89 664.79,-326.24 654.74,-322.9 654.84,-329.89"/>
</g>
<!-- Node21&#45;&gt;Node18 -->
<g id="edge24" class="edge">
<title>Node21&#45;&gt;Node18</title>
<path fill="none" stroke="midnightblue" d="M671.49,-311.09C669.21,-309.69 667.02,-308.16 665,-306.5 621.71,-270.99 593.89,-207.07 584.52,-183"/>
<polygon fill="midnightblue" stroke="midnightblue" points="670.19,-314.36 680.68,-315.89 673.44,-308.15 670.19,-314.36"/>
</g>
<!-- Node23 -->
<g id="node23" class="node">
<title>Node23</title>
<g id="a_node23"><a xlink:href="group__as__iic__user.html#ga5ae8936ee892843eda5df7b9a418bd52" target="_top" xlink:title=" ">
<polygon fill="none" stroke="black" points="668,-278 668,-297 763,-297 763,-278 668,-278"/>
<text text-anchor="middle" x="715.5" y="-285" font-family="Helvetica,sans-Serif" font-size="10.00">as_iic_write_reg</text>
</a>
</g>
</g>
<!-- Node22&#45;&gt;Node23 -->
<g id="edge26" class="edge">
<title>Node22&#45;&gt;Node23</title>
<path fill="none" stroke="midnightblue" d="M801.93,-287.5C788.94,-287.5 775.47,-287.5 763.18,-287.5"/>
<polygon fill="midnightblue" stroke="midnightblue" points="802.23,-291 812.23,-287.5 802.23,-284 802.23,-291"/>
</g>
<!-- Node24 -->
<g id="node24" class="node">
<title>Node24</title>
<g id="a_node24"><a xlink:href="as__sensor__ov7670_8c.html#ad5b49e677d2124f73482764e3270bb42" target="_top" xlink:title=" ">
<polygon fill="none" stroke="black" points="384.5,-270 384.5,-289 494.5,-289 494.5,-270 384.5,-270"/>
<text text-anchor="middle" x="439.5" y="-277" font-family="Helvetica,sans-Serif" font-size="10.00">ov7670_iic_reg_set</text>
</a>
</g>
</g>
<!-- Node23&#45;&gt;Node24 -->
<g id="edge27" class="edge">
<title>Node23&#45;&gt;Node24</title>
<path fill="none" stroke="midnightblue" d="M657.51,-285.84C609.63,-284.44 541.68,-282.45 494.62,-281.08"/>
<polygon fill="midnightblue" stroke="midnightblue" points="657.61,-289.34 667.71,-286.13 657.82,-282.34 657.61,-289.34"/>
</g>
<!-- Node24&#45;&gt;Node11 -->
<g id="edge28" class="edge">
<title>Node24&#45;&gt;Node11</title>
<path fill="none" stroke="midnightblue" d="M373.97,-279.5C365.55,-279.5 356.81,-279.5 348.07,-279.5"/>
<polygon fill="midnightblue" stroke="midnightblue" points="374.04,-283 384.04,-279.5 374.04,-276 374.04,-283"/>
</g>
<!-- Node24&#45;&gt;Node14 -->
<g id="edge30" class="edge">
<title>Node24&#45;&gt;Node14</title>
<path fill="none" stroke="midnightblue" d="M382.95,-291.17C371.4,-293.6 359.3,-296.13 348,-298.5 333.31,-301.58 317.28,-304.92 302.83,-307.94"/>
<polygon fill="midnightblue" stroke="midnightblue" points="383.86,-294.56 392.93,-289.08 382.42,-287.71 383.86,-294.56"/>
</g>
<!-- Node25 -->
<g id="node25" class="node">
<title>Node25</title>
<g id="a_node25"><a xlink:href="group__as__sensor__ov7670.html#ga673b948f323ea0a23896c7dc4b0e05e3" target="_top" xlink:title=" ">
<polygon fill="none" stroke="black" points="167.5,-232 167.5,-251 344.5,-251 344.5,-232 167.5,-232"/>
<text text-anchor="middle" x="256" y="-239" font-family="Helvetica,sans-Serif" font-size="10.00">as_sensor_ov7670_exposure_set</text>
</a>
</g>
</g>
<!-- Node24&#45;&gt;Node25 -->
<g id="edge29" class="edge">
<title>Node24&#45;&gt;Node25</title>
<path fill="none" stroke="midnightblue" d="M382.95,-267.83C371.4,-265.4 359.3,-262.87 348,-260.5 333.31,-257.42 317.28,-254.08 302.83,-251.06"/>
<polygon fill="midnightblue" stroke="midnightblue" points="382.42,-271.29 392.93,-269.92 383.86,-264.44 382.42,-271.29"/>
</g>
<!-- Node26 -->
<g id="node26" class="node">
<title>Node26</title>
<g id="a_node26"><a xlink:href="group__as__sensor__ov7670.html#ga45e866e9958d1c7d8e0b0dd206f01a9e" target="_top" xlink:title=" ">
<polygon fill="none" stroke="black" points="179.5,-194 179.5,-213 332.5,-213 332.5,-194 179.5,-194"/>
<text text-anchor="middle" x="256" y="-201" font-family="Helvetica,sans-Serif" font-size="10.00">as_sensor_ov7670_gain_set</text>
</a>
</g>
</g>
<!-- Node24&#45;&gt;Node26 -->
<g id="edge31" class="edge">
<title>Node24&#45;&gt;Node26</title>
<path fill="none" stroke="midnightblue" d="M418.04,-263.61C400.41,-250.68 373.8,-232.92 348,-222.5 338.42,-218.63 327.95,-215.51 317.62,-213"/>
<polygon fill="midnightblue" stroke="midnightblue" points="416.29,-266.67 426.39,-269.87 420.48,-261.07 416.29,-266.67"/>
</g>
<!-- Node27&#45;&gt;Node7 -->
<g id="edge33" class="edge">
<title>Node27&#45;&gt;Node7</title>
<path fill="none" stroke="midnightblue" d="M989.26,-185.25C964.23,-190.63 934.97,-196.91 911.34,-201.98"/>
<polygon fill="midnightblue" stroke="midnightblue" points="990.29,-188.61 999.34,-183.09 988.82,-181.77 990.29,-188.61"/>
</g>
<!-- Node27&#45;&gt;Node17 -->
<g id="edge34" class="edge">
<title>Node27&#45;&gt;Node17</title>
<path fill="none" stroke="midnightblue" d="M989.26,-161.75C964.23,-156.37 934.97,-150.09 911.34,-145.02"/>
<polygon fill="midnightblue" stroke="midnightblue" points="988.82,-165.23 999.34,-163.91 990.29,-158.39 988.82,-165.23"/>
</g>
<!-- Node27&#45;&gt;Node18 -->
<g id="edge35" class="edge">
<title>Node27&#45;&gt;Node18</title>
<path fill="none" stroke="midnightblue" d="M955.89,-173.5C858.83,-173.5 706.3,-173.5 629.14,-173.5"/>
<polygon fill="midnightblue" stroke="midnightblue" points="955.98,-177 965.98,-173.5 955.98,-170 955.98,-177"/>
</g>
<!-- Node28&#45;&gt;Node6 -->
<g id="edge38" class="edge">
<title>Node28&#45;&gt;Node6</title>
<path fill="none" stroke="midnightblue" d="M1180.75,-275.96C1153.15,-270.54 1120.65,-264.16 1094.48,-259.02"/>
<polygon fill="midnightblue" stroke="midnightblue" points="1180.18,-279.42 1190.67,-277.91 1181.53,-272.55 1180.18,-279.42"/>
</g>
<!-- Node28&#45;&gt;Node19 -->
<g id="edge37" class="edge">
<title>Node28&#45;&gt;Node19</title>
<path fill="none" stroke="midnightblue" d="M1203.23,-300.32C1180.66,-307.92 1150.91,-317.25 1124,-323.5 1056.92,-339.08 978.56,-350.29 926.17,-356.81"/>
<polygon fill="midnightblue" stroke="midnightblue" points="1204.4,-303.62 1212.74,-297.08 1202.14,-296.99 1204.4,-303.62"/>
</g>
<!-- Node28&#45;&gt;Node20 -->
<g id="edge39" class="edge">
<title>Node28&#45;&gt;Node20</title>
<path fill="none" stroke="midnightblue" d="M1153.21,-298.22C1143.36,-299.37 1133.47,-300.48 1124,-301.5 1057.94,-308.59 982.21,-315.51 930.15,-320.09"/>
<polygon fill="midnightblue" stroke="midnightblue" points="1153.9,-301.67 1163.43,-297.02 1153.09,-294.71 1153.9,-301.67"/>
</g>
<!-- Node28&#45;&gt;Node22 -->
<g id="edge40" class="edge">
<title>Node28&#45;&gt;Node22</title>
<path fill="none" stroke="midnightblue" d="M1149.18,-287.5C1077.26,-287.5 979.11,-287.5 919.54,-287.5"/>
<polygon fill="midnightblue" stroke="midnightblue" points="1149.59,-291 1159.59,-287.5 1149.59,-284 1149.59,-291"/>
</g>
<!-- Node30&#45;&gt;Node6 -->
<g id="edge46" class="edge">
<title>Node30&#45;&gt;Node6</title>
<path fill="none" stroke="midnightblue" d="M1216.09,-150.56C1199.77,-161.46 1177.82,-176.96 1160,-192.5 1142.47,-207.79 1144.12,-218.83 1124,-230.5 1117.37,-234.35 1109.99,-237.42 1102.48,-239.87"/>
<polygon fill="midnightblue" stroke="midnightblue" points="1218.09,-153.43 1224.51,-145 1214.24,-147.59 1218.09,-153.43"/>
</g>
<!-- Node31 -->
<g id="node31" class="node">
<title>Node31</title>
<g id="a_node31"><a xlink:href="group__as__iic__helpers.html#ga1662a1a0b29536bf7d74ede3f73598be" target="_top" xlink:title=" ">
<polygon fill="none" stroke="black" points="979.5,-126 979.5,-145 1110.5,-145 1110.5,-126 979.5,-126"/>
<text text-anchor="middle" x="1045" y="-133" font-family="Helvetica,sans-Serif" font-size="10.00">as_iic_read_transaction</text>
</a>
</g>
</g>
<!-- Node30&#45;&gt;Node31 -->
<g id="edge43" class="edge">
<title>Node30&#45;&gt;Node31</title>
<path fill="none" stroke="midnightblue" d="M1157.99,-135.5C1142.19,-135.5 1125.84,-135.5 1110.67,-135.5"/>
<polygon fill="midnightblue" stroke="midnightblue" points="1158.27,-139 1168.27,-135.5 1158.27,-132 1158.27,-139"/>
</g>
<!-- Node32 -->
<g id="node32" class="node">
<title>Node32</title>
<g id="a_node32"><a xlink:href="group__as__iic__helpers.html#gad5e0aa9a71f8f0f65e1fbded8134b11f" target="_top" xlink:title=" ">
<polygon fill="none" stroke="black" points="978,-202 978,-221 1112,-221 1112,-202 978,-202"/>
<text text-anchor="middle" x="1045" y="-209" font-family="Helvetica,sans-Serif" font-size="10.00">as_iic_write_transaction</text>
</a>
</g>
</g>
<!-- Node30&#45;&gt;Node32 -->
<g id="edge47" class="edge">
<title>Node30&#45;&gt;Node32</title>
<path fill="none" stroke="midnightblue" d="M1214.04,-150.1C1191.1,-162.75 1156.14,-180.82 1124,-192.5 1114.04,-196.12 1103.13,-199.26 1092.69,-201.9"/>
<polygon fill="midnightblue" stroke="midnightblue" points="1215.77,-153.14 1222.8,-145.21 1212.36,-147.03 1215.77,-153.14"/>
</g>
<!-- Node31&#45;&gt;Node17 -->
<g id="edge44" class="edge">
<title>Node31&#45;&gt;Node17</title>
<path fill="none" stroke="midnightblue" d="M969.27,-135.5C950.95,-135.5 931.81,-135.5 915.12,-135.5"/>
<polygon fill="midnightblue" stroke="midnightblue" points="969.35,-139 979.35,-135.5 969.35,-132 969.35,-139"/>
</g>
<!-- Node31&#45;&gt;Node18 -->
<g id="edge45" class="edge">
<title>Node31&#45;&gt;Node18</title>
<path fill="none" stroke="midnightblue" d="M987.7,-124.22C969.38,-121.06 948.9,-118.06 930,-116.5 873.3,-111.81 858.44,-109.34 802,-116.5 731.05,-125.5 650.28,-150.15 608.81,-163.9"/>
<polygon fill="midnightblue" stroke="midnightblue" points="987.17,-127.68 997.63,-125.99 988.39,-120.79 987.17,-127.68"/>
</g>
<!-- Node32&#45;&gt;Node22 -->
<g id="edge48" class="edge">
<title>Node32&#45;&gt;Node22</title>
<path fill="none" stroke="midnightblue" d="M985.66,-223.78C978.94,-225.76 972.26,-227.99 966,-230.5 933.78,-243.4 899.35,-265.3 880.78,-277.86"/>
<polygon fill="midnightblue" stroke="midnightblue" points="986.77,-227.1 995.48,-221.06 984.91,-220.35 986.77,-227.1"/>
</g>
</g>
</svg>
