<?xml version="1.0" encoding="UTF-8" standalone="no"?>
<!DOCTYPE svg PUBLIC "-//W3C//DTD SVG 1.1//EN"
 "http://www.w3.org/Graphics/SVG/1.1/DTD/svg11.dtd">
<!-- Generated by graphviz version 2.43.0 (0)
 -->
<!-- Title: vears_init Pages: 1 -->
<svg width="564pt" height="237pt"
 viewBox="0.00 0.00 564.00 237.00" xmlns="http://www.w3.org/2000/svg" xmlns:xlink="http://www.w3.org/1999/xlink">
<g id="graph0" class="graph" transform="scale(1 1) rotate(0) translate(4 233)">
<title>vears_init</title>
<!-- Node1 -->
<g id="node1" class="node">
<title>Node1</title>
<g id="a_node1"><a xlink:title="Initialize and reset the VEARS module.">
<polygon fill="#bfbfbf" stroke="black" points="0,-95.5 0,-114.5 65,-114.5 65,-95.5 0,-95.5"/>
<text text-anchor="middle" x="32.5" y="-102.5" font-family="Helvetica,sans-Serif" font-size="10.00">vears_init</text>
</a>
</g>
</g>
<!-- Node2 -->
<g id="node2" class="node">
<title>Node2</title>
<g id="a_node2"><a xlink:href="ea__init_8c.html#a9bbd3aea6cfae13690dfb8986318add3" target="_top" xlink:title=" ">
<polygon fill="none" stroke="black" points="135.5,-190.5 135.5,-209.5 185.5,-209.5 185.5,-190.5 135.5,-190.5"/>
<text text-anchor="middle" x="160.5" y="-197.5" font-family="Helvetica,sans-Serif" font-size="10.00">ea_init</text>
</a>
</g>
</g>
<!-- Node1&#45;&gt;Node2 -->
<g id="edge1" class="edge">
<title>Node1&#45;&gt;Node2</title>
<path fill="none" stroke="midnightblue" d="M40.57,-114.74C51.86,-129.7 75.31,-158.43 101,-176 108.57,-181.18 117.43,-185.53 125.93,-189.05"/>
<polygon fill="midnightblue" stroke="midnightblue" points="124.7,-192.33 135.29,-192.67 127.22,-185.8 124.7,-192.33"/>
</g>
<!-- Node6 -->
<g id="node6" class="node">
<title>Node6</title>
<g id="a_node6"><a xlink:href="vears_8c.html#a47454b99c42ae19fc259d2a488222a4a" target="_top" xlink:title=" ">
<polygon fill="none" stroke="black" points="256,-95.5 256,-114.5 385,-114.5 385,-95.5 256,-95.5"/>
<text text-anchor="middle" x="320.5" y="-102.5" font-family="Helvetica,sans-Serif" font-size="10.00">flush_cache_for_image</text>
</a>
</g>
</g>
<!-- Node1&#45;&gt;Node6 -->
<g id="edge5" class="edge">
<title>Node1&#45;&gt;Node6</title>
<path fill="none" stroke="midnightblue" d="M46.08,-114.72C59.02,-124.06 80.19,-137.54 101,-143 152.16,-156.41 167.99,-152.59 220,-143 245.05,-138.38 271.94,-127.73 291.45,-118.88"/>
<polygon fill="midnightblue" stroke="midnightblue" points="293.07,-121.98 300.66,-114.58 290.12,-115.64 293.07,-121.98"/>
</g>
<!-- Node7 -->
<g id="node7" class="node">
<title>Node7</title>
<g id="a_node7"><a xlink:href="group__vears__driver.html#ga2ab7dd02806559caeadbd84b67e5a8fe" target="_top" xlink:title="Enable the VEARS module, if it was previously disabled.">
<polygon fill="none" stroke="black" points="119.5,-114.5 119.5,-133.5 201.5,-133.5 201.5,-114.5 119.5,-114.5"/>
<text text-anchor="middle" x="160.5" y="-121.5" font-family="Helvetica,sans-Serif" font-size="10.00">vears_enable</text>
</a>
</g>
</g>
<!-- Node1&#45;&gt;Node7 -->
<g id="edge6" class="edge">
<title>Node1&#45;&gt;Node7</title>
<path fill="none" stroke="midnightblue" d="M65.3,-109.79C78.56,-111.8 94.3,-114.17 109.08,-116.4"/>
<polygon fill="midnightblue" stroke="midnightblue" points="108.7,-119.88 119.11,-117.91 109.75,-112.96 108.7,-119.88"/>
</g>
<!-- Node8 -->
<g id="node8" class="node">
<title>Node8</title>
<g id="a_node8"><a xlink:href="group__vears__driver.html#gaae0b1f3088c67559ea76fc6621ee6528" target="_top" xlink:title="Get the VEARS modules screen resolution.">
<polygon fill="none" stroke="black" points="101,-76.5 101,-95.5 220,-95.5 220,-76.5 101,-76.5"/>
<text text-anchor="middle" x="160.5" y="-83.5" font-family="Helvetica,sans-Serif" font-size="10.00">vears_get_resolution</text>
</a>
</g>
</g>
<!-- Node1&#45;&gt;Node8 -->
<g id="edge7" class="edge">
<title>Node1&#45;&gt;Node8</title>
<path fill="none" stroke="midnightblue" d="M65.3,-100.21C73.13,-99.02 81.84,-97.71 90.69,-96.38"/>
<polygon fill="midnightblue" stroke="midnightblue" points="91.35,-99.82 100.72,-94.86 90.31,-92.89 91.35,-99.82"/>
</g>
<!-- Node9 -->
<g id="node9" class="node">
<title>Node9</title>
<g id="a_node9"><a xlink:href="group__vears__driver.html#gae1d4683ae547789a47454da0151c20d1" target="_top" xlink:title="Set the main image data base address.">
<polygon fill="none" stroke="black" points="105.5,-38.5 105.5,-57.5 215.5,-57.5 215.5,-38.5 105.5,-38.5"/>
<text text-anchor="middle" x="160.5" y="-45.5" font-family="Helvetica,sans-Serif" font-size="10.00">vears_image_show</text>
</a>
</g>
</g>
<!-- Node1&#45;&gt;Node9 -->
<g id="edge8" class="edge">
<title>Node1&#45;&gt;Node9</title>
<path fill="none" stroke="midnightblue" d="M48.6,-95.35C61.99,-87.07 82.28,-75.21 101,-67 106.01,-64.8 111.36,-62.72 116.71,-60.8"/>
<polygon fill="midnightblue" stroke="midnightblue" points="117.95,-64.08 126.27,-57.53 115.68,-57.46 117.95,-64.08"/>
</g>
<!-- Node10 -->
<g id="node10" class="node">
<title>Node10</title>
<g id="a_node10"><a xlink:href="group__vears__driver.html#gac0409c782eccd9330ef0d04b2b60abc6" target="_top" xlink:title="Reset the VEARS module.">
<polygon fill="none" stroke="black" points="123.5,-0.5 123.5,-19.5 197.5,-19.5 197.5,-0.5 123.5,-0.5"/>
<text text-anchor="middle" x="160.5" y="-7.5" font-family="Helvetica,sans-Serif" font-size="10.00">vears_reset</text>
</a>
</g>
</g>
<!-- Node1&#45;&gt;Node10 -->
<g id="edge10" class="edge">
<title>Node1&#45;&gt;Node10</title>
<path fill="none" stroke="midnightblue" d="M39.55,-95.35C50.1,-79.29 73.38,-47.07 101,-29 105.03,-26.36 109.46,-24.06 114.02,-22.07"/>
<polygon fill="midnightblue" stroke="midnightblue" points="115.43,-25.27 123.48,-18.38 112.89,-18.75 115.43,-25.27"/>
</g>
<!-- Node3 -->
<g id="node3" class="node">
<title>Node3</title>
<g id="a_node3"><a xlink:href="ea__set__clipped__area_8c.html#ac3e09747f980f8bea054fc16753fa914" target="_top" xlink:title=" ">
<polygon fill="none" stroke="black" points="262.5,-209.5 262.5,-228.5 378.5,-228.5 378.5,-209.5 262.5,-209.5"/>
<text text-anchor="middle" x="320.5" y="-216.5" font-family="Helvetica,sans-Serif" font-size="10.00">ea_set_clipped_area</text>
</a>
</g>
</g>
<!-- Node2&#45;&gt;Node3 -->
<g id="edge2" class="edge">
<title>Node2&#45;&gt;Node3</title>
<path fill="none" stroke="midnightblue" d="M185.84,-202.93C203.64,-205.07 228.7,-208.08 252.32,-210.92"/>
<polygon fill="midnightblue" stroke="midnightblue" points="251.98,-214.41 262.33,-212.12 252.82,-207.46 251.98,-214.41"/>
</g>
<!-- Node4 -->
<g id="node4" class="node">
<title>Node4</title>
<g id="a_node4"><a xlink:href="ea__set__color_8c.html#a1fa21c96fad23ab0fe0544c383441edc" target="_top" xlink:title=" ">
<polygon fill="none" stroke="black" points="281.5,-171.5 281.5,-190.5 359.5,-190.5 359.5,-171.5 281.5,-171.5"/>
<text text-anchor="middle" x="320.5" y="-178.5" font-family="Helvetica,sans-Serif" font-size="10.00">ea_set_color</text>
</a>
</g>
</g>
<!-- Node2&#45;&gt;Node4 -->
<g id="edge3" class="edge">
<title>Node2&#45;&gt;Node4</title>
<path fill="none" stroke="midnightblue" d="M185.84,-197.07C208.51,-194.35 242.95,-190.21 271.19,-186.81"/>
<polygon fill="midnightblue" stroke="midnightblue" points="271.77,-190.26 281.28,-185.6 270.94,-183.31 271.77,-190.26"/>
</g>
<!-- Node5 -->
<g id="node5" class="node">
<title>Node5</title>
<g id="a_node5"><a xlink:href="group__vears__driver.html#ga131ffd2ca121aea36286568e3c8a57c7" target="_top" xlink:title="Set entry of the overlay color map.">
<polygon fill="none" stroke="black" points="421,-171.5 421,-190.5 556,-190.5 556,-171.5 421,-171.5"/>
<text text-anchor="middle" x="488.5" y="-178.5" font-family="Helvetica,sans-Serif" font-size="10.00">vears_overlay_set_color</text>
</a>
</g>
</g>
<!-- Node4&#45;&gt;Node5 -->
<g id="edge4" class="edge">
<title>Node4&#45;&gt;Node5</title>
<path fill="none" stroke="midnightblue" d="M359.58,-181C374.79,-181 392.87,-181 410.58,-181"/>
<polygon fill="midnightblue" stroke="midnightblue" points="410.94,-184.5 420.94,-181 410.94,-177.5 410.94,-184.5"/>
</g>
<!-- Node9&#45;&gt;Node6 -->
<g id="edge9" class="edge">
<title>Node9&#45;&gt;Node6</title>
<path fill="none" stroke="midnightblue" d="M191.96,-57.57C201.02,-60.5 210.94,-63.8 220,-67 242.12,-74.81 266.76,-84.21 285.98,-91.71"/>
<polygon fill="midnightblue" stroke="midnightblue" points="284.91,-95.05 295.5,-95.44 287.47,-88.53 284.91,-95.05"/>
</g>
</g>
</svg>
