<?xml version="1.0" encoding="UTF-8" standalone="no"?>
<!DOCTYPE svg PUBLIC "-//W3C//DTD SVG 1.1//EN"
 "http://www.w3.org/Graphics/SVG/1.1/DTD/svg11.dtd">
<!-- Generated by graphviz version 2.43.0 (0)
 -->
<!-- Title: as_reader_writer_set_section_addr Pages: 1 -->
<svg width="658pt" height="218pt"
 viewBox="0.00 0.00 658.00 218.00" xmlns="http://www.w3.org/2000/svg" xmlns:xlink="http://www.w3.org/1999/xlink">
<g id="graph0" class="graph" transform="scale(1 1) rotate(0) translate(4 214)">
<title>as_reader_writer_set_section_addr</title>
<!-- Node1 -->
<g id="node1" class="node">
<title>Node1</title>
<g id="a_node1"><a xlink:title="Sets the start address of the first section to the given value.">
<polygon fill="#bfbfbf" stroke="black" points="531,-90 531,-120 650,-120 650,-90 531,-90"/>
<text text-anchor="start" x="539" y="-108" font-family="Helvetica,sans-Serif" font-size="10.00">as_reader_writer_set</text>
<text text-anchor="middle" x="590.5" y="-97" font-family="Helvetica,sans-Serif" font-size="10.00">_section_addr</text>
</a>
</g>
</g>
<!-- Node2 -->
<g id="node2" class="node">
<title>Node2</title>
<g id="a_node2"><a xlink:href="as__memio_8c.html#ab93cfbaa1058ea83836b6d052e72ad50" target="_top" xlink:title=" ">
<polygon fill="none" stroke="black" points="340.5,-152.5 340.5,-171.5 493.5,-171.5 493.5,-152.5 340.5,-152.5"/>
<text text-anchor="middle" x="417" y="-159.5" font-family="Helvetica,sans-Serif" font-size="10.00">as_memio_hw_read_update</text>
</a>
</g>
</g>
<!-- Node1&#45;&gt;Node2 -->
<g id="edge1" class="edge">
<title>Node1&#45;&gt;Node2</title>
<path fill="none" stroke="midnightblue" d="M545.84,-124.05C530,-130.56 511.86,-137.56 495,-143 484.25,-146.47 472.49,-149.66 461.47,-152.4"/>
<polygon fill="midnightblue" stroke="midnightblue" points="547.48,-127.15 555.37,-120.08 544.79,-120.69 547.48,-127.15"/>
</g>
<!-- Node7 -->
<g id="node7" class="node">
<title>Node7</title>
<g id="a_node7"><a xlink:href="as__memio_8c.html#a3ae0453041c4a6d406955edd9c7e43f3" target="_top" xlink:title=" ">
<polygon fill="none" stroke="black" points="339,-114.5 339,-133.5 495,-133.5 495,-114.5 339,-114.5"/>
<text text-anchor="middle" x="417" y="-121.5" font-family="Helvetica,sans-Serif" font-size="10.00">as_memio_hw_write_update</text>
</a>
</g>
</g>
<!-- Node1&#45;&gt;Node7 -->
<g id="edge6" class="edge">
<title>Node1&#45;&gt;Node7</title>
<path fill="none" stroke="midnightblue" d="M520.78,-112.61C512.33,-113.55 503.65,-114.51 495.08,-115.46"/>
<polygon fill="midnightblue" stroke="midnightblue" points="521.41,-116.07 530.96,-111.49 520.63,-109.11 521.41,-116.07"/>
</g>
<!-- Node10 -->
<g id="node10" class="node">
<title>Node10</title>
<g id="a_node10"><a xlink:href="group__mmap__file__ops.html#ga93a1477871ee8b3e8071b60442a0ceb3" target="_top" xlink:title=" ">
<polygon fill="none" stroke="black" points="167,-38.5 167,-57.5 303,-57.5 303,-38.5 167,-38.5"/>
<text text-anchor="middle" x="235" y="-45.5" font-family="Helvetica,sans-Serif" font-size="10.00">as_mmap_start_transfer</text>
</a>
</g>
</g>
<!-- Node1&#45;&gt;Node10 -->
<g id="edge10" class="edge">
<title>Node1&#45;&gt;Node10</title>
<path fill="none" stroke="midnightblue" d="M520.83,-95.18C470.44,-87.84 400.38,-77.31 339,-67 321.61,-64.08 302.61,-60.64 285.71,-57.5"/>
<polygon fill="midnightblue" stroke="midnightblue" points="520.56,-98.68 530.96,-96.66 521.56,-91.75 520.56,-98.68"/>
</g>
<!-- Node14 -->
<g id="node14" class="node">
<title>Node14</title>
<g id="a_node14"><a xlink:href="group__as__reader__writer.html#ga5c0bd52e53c8e68de80b1712c12d9a4a" target="_top" xlink:title="Initializes the hardware module with values provided by config.">
<polygon fill="none" stroke="black" points="357.5,-38.5 357.5,-57.5 476.5,-57.5 476.5,-38.5 357.5,-38.5"/>
<text text-anchor="middle" x="417" y="-45.5" font-family="Helvetica,sans-Serif" font-size="10.00">as_reader_writer_init</text>
</a>
</g>
</g>
<!-- Node1&#45;&gt;Node14 -->
<g id="edge14" class="edge">
<title>Node1&#45;&gt;Node14</title>
<path fill="none" stroke="midnightblue" d="M537.46,-86.47C523.69,-81.67 508.81,-76.56 495,-72 480.11,-67.08 463.51,-61.87 449.55,-57.57"/>
<polygon fill="midnightblue" stroke="midnightblue" points="536.67,-89.91 547.27,-89.91 538.99,-83.3 536.67,-89.91"/>
</g>
<!-- Node3 -->
<g id="node3" class="node">
<title>Node3</title>
<g id="a_node3"><a xlink:href="as__memio_8h.html#a8162b54494988ebca0ff03ff23eddbb7" target="_top" xlink:title=" ">
<polygon fill="none" stroke="black" points="172,-152.5 172,-171.5 298,-171.5 298,-152.5 172,-152.5"/>
<text text-anchor="middle" x="235" y="-159.5" font-family="Helvetica,sans-Serif" font-size="10.00">as_memio_hw_update</text>
</a>
</g>
</g>
<!-- Node2&#45;&gt;Node3 -->
<g id="edge2" class="edge">
<title>Node2&#45;&gt;Node3</title>
<path fill="none" stroke="midnightblue" d="M330.18,-162C319.42,-162 308.58,-162 298.28,-162"/>
<polygon fill="midnightblue" stroke="midnightblue" points="330.45,-165.5 340.45,-162 330.45,-158.5 330.45,-165.5"/>
</g>
<!-- Node5 -->
<g id="node5" class="node">
<title>Node5</title>
<g id="a_node5"><a xlink:href="as__memio_8h.html#affb75145f7c6b1a8baea620d47f62a99" target="_top" xlink:title=" ">
<polygon fill="none" stroke="black" points="187.5,-190.5 187.5,-209.5 282.5,-209.5 282.5,-190.5 187.5,-190.5"/>
<text text-anchor="middle" x="235" y="-197.5" font-family="Helvetica,sans-Serif" font-size="10.00">as_memio_read</text>
</a>
</g>
</g>
<!-- Node2&#45;&gt;Node5 -->
<g id="edge4" class="edge">
<title>Node2&#45;&gt;Node5</title>
<path fill="none" stroke="midnightblue" d="M360.67,-173.68C335.14,-179.07 305.22,-185.39 281.09,-190.48"/>
<polygon fill="midnightblue" stroke="midnightblue" points="361.52,-177.08 370.58,-171.59 360.07,-170.23 361.52,-177.08"/>
</g>
<!-- Node4 -->
<g id="node4" class="node">
<title>Node4</title>
<g id="a_node4"><a xlink:href="group__memio__file__ops.html#gab0cee6094e9d25645dcab0b9df045467" target="_top" xlink:title=" ">
<polygon fill="none" stroke="black" points="1.5,-152.5 1.5,-171.5 129.5,-171.5 129.5,-152.5 1.5,-152.5"/>
<text text-anchor="middle" x="65.5" y="-159.5" font-family="Helvetica,sans-Serif" font-size="10.00">driver_as_memio_ioctl</text>
</a>
</g>
</g>
<!-- Node3&#45;&gt;Node4 -->
<g id="edge3" class="edge">
<title>Node3&#45;&gt;Node4</title>
<path fill="none" stroke="midnightblue" d="M161.57,-162C150.98,-162 140.15,-162 129.76,-162"/>
<polygon fill="midnightblue" stroke="midnightblue" points="161.63,-165.5 171.63,-162 161.63,-158.5 161.63,-165.5"/>
</g>
<!-- Node6 -->
<g id="node6" class="node">
<title>Node6</title>
<g id="a_node6"><a xlink:href="group__memio__file__ops.html#gabc26947002eedee4c4557faff325074e" target="_top" xlink:title=" ">
<polygon fill="none" stroke="black" points="1.5,-190.5 1.5,-209.5 129.5,-209.5 129.5,-190.5 1.5,-190.5"/>
<text text-anchor="middle" x="65.5" y="-197.5" font-family="Helvetica,sans-Serif" font-size="10.00">driver_as_memio_read</text>
</a>
</g>
</g>
<!-- Node5&#45;&gt;Node6 -->
<g id="edge5" class="edge">
<title>Node5&#45;&gt;Node6</title>
<path fill="none" stroke="midnightblue" d="M177.06,-200C161.85,-200 145.33,-200 129.81,-200"/>
<polygon fill="midnightblue" stroke="midnightblue" points="177.34,-203.5 187.34,-200 177.34,-196.5 177.34,-203.5"/>
</g>
<!-- Node7&#45;&gt;Node3 -->
<g id="edge7" class="edge">
<title>Node7&#45;&gt;Node3</title>
<path fill="none" stroke="midnightblue" d="M360.67,-135.68C335.14,-141.07 305.22,-147.39 281.09,-152.48"/>
<polygon fill="midnightblue" stroke="midnightblue" points="361.52,-139.08 370.58,-133.59 360.07,-132.23 361.52,-139.08"/>
</g>
<!-- Node8 -->
<g id="node8" class="node">
<title>Node8</title>
<g id="a_node8"><a xlink:href="as__memio_8h.html#ad5dd4d8bd2c20ea07188bcbb36dd0f87" target="_top" xlink:title=" ">
<polygon fill="none" stroke="black" points="186,-114.5 186,-133.5 284,-133.5 284,-114.5 186,-114.5"/>
<text text-anchor="middle" x="235" y="-121.5" font-family="Helvetica,sans-Serif" font-size="10.00">as_memio_write</text>
</a>
</g>
</g>
<!-- Node7&#45;&gt;Node8 -->
<g id="edge8" class="edge">
<title>Node7&#45;&gt;Node8</title>
<path fill="none" stroke="midnightblue" d="M328.8,-124C313.4,-124 297.89,-124 284.08,-124"/>
<polygon fill="midnightblue" stroke="midnightblue" points="328.88,-127.5 338.88,-124 328.88,-120.5 328.88,-127.5"/>
</g>
<!-- Node9 -->
<g id="node9" class="node">
<title>Node9</title>
<g id="a_node9"><a xlink:href="group__memio__file__ops.html#gafff67fc067850f545e90c7e487f4fbce" target="_top" xlink:title=" ">
<polygon fill="none" stroke="black" points="0,-114.5 0,-133.5 131,-133.5 131,-114.5 0,-114.5"/>
<text text-anchor="middle" x="65.5" y="-121.5" font-family="Helvetica,sans-Serif" font-size="10.00">driver_as_memio_write</text>
</a>
</g>
</g>
<!-- Node8&#45;&gt;Node9 -->
<g id="edge9" class="edge">
<title>Node8&#45;&gt;Node9</title>
<path fill="none" stroke="midnightblue" d="M175.34,-124C161.02,-124 145.63,-124 131.05,-124"/>
<polygon fill="midnightblue" stroke="midnightblue" points="175.55,-127.5 185.55,-124 175.55,-120.5 175.55,-127.5"/>
</g>
<!-- Node11 -->
<g id="node11" class="node">
<title>Node11</title>
<g id="a_node11"><a xlink:href="group__mmap__file__ops.html#gab078c489a563497f4da70a9f6115dfce" target="_top" xlink:title=" ">
<polygon fill="none" stroke="black" points="20,-76.5 20,-95.5 111,-95.5 111,-76.5 20,-76.5"/>
<text text-anchor="middle" x="65.5" y="-83.5" font-family="Helvetica,sans-Serif" font-size="10.00">as_mmap_ioctl</text>
</a>
</g>
</g>
<!-- Node10&#45;&gt;Node11 -->
<g id="edge11" class="edge">
<title>Node10&#45;&gt;Node11</title>
<path fill="none" stroke="midnightblue" d="M181.88,-59.82C158.27,-65.18 130.72,-71.43 108.46,-76.48"/>
<polygon fill="midnightblue" stroke="midnightblue" points="182.75,-63.21 191.73,-57.59 181.21,-56.39 182.75,-63.21"/>
</g>
<!-- Node12 -->
<g id="node12" class="node">
<title>Node12</title>
<g id="a_node12"><a xlink:href="group__mmap__file__ops.html#gae18f99f9774b7224e71d80209ecd0bf4" target="_top" xlink:title=" ">
<polygon fill="none" stroke="black" points="3,-38.5 3,-57.5 128,-57.5 128,-38.5 3,-38.5"/>
<text text-anchor="middle" x="65.5" y="-45.5" font-family="Helvetica,sans-Serif" font-size="10.00">driver_as_mmap_read</text>
</a>
</g>
</g>
<!-- Node10&#45;&gt;Node12 -->
<g id="edge12" class="edge">
<title>Node10&#45;&gt;Node12</title>
<path fill="none" stroke="midnightblue" d="M156.59,-48C147.09,-48 137.48,-48 128.25,-48"/>
<polygon fill="midnightblue" stroke="midnightblue" points="156.84,-51.5 166.84,-48 156.84,-44.5 156.84,-51.5"/>
</g>
<!-- Node13 -->
<g id="node13" class="node">
<title>Node13</title>
<g id="a_node13"><a xlink:href="group__mmap__file__ops.html#gaeea3980f5b633c4b83ff46b2efc2ea10" target="_top" xlink:title=" ">
<polygon fill="none" stroke="black" points="1.5,-0.5 1.5,-19.5 129.5,-19.5 129.5,-0.5 1.5,-0.5"/>
<text text-anchor="middle" x="65.5" y="-7.5" font-family="Helvetica,sans-Serif" font-size="10.00">driver_as_mmap_write</text>
</a>
</g>
</g>
<!-- Node10&#45;&gt;Node13 -->
<g id="edge13" class="edge">
<title>Node10&#45;&gt;Node13</title>
<path fill="none" stroke="midnightblue" d="M181.88,-36.18C158.27,-30.82 130.72,-24.57 108.46,-19.52"/>
<polygon fill="midnightblue" stroke="midnightblue" points="181.21,-39.61 191.73,-38.41 182.75,-32.79 181.21,-39.61"/>
</g>
<!-- Node14&#45;&gt;Node10 -->
<g id="edge15" class="edge">
<title>Node14&#45;&gt;Node10</title>
<path fill="none" stroke="midnightblue" d="M346.79,-48C332.48,-48 317.42,-48 303.19,-48"/>
<polygon fill="midnightblue" stroke="midnightblue" points="347.06,-51.5 357.06,-48 347.06,-44.5 347.06,-51.5"/>
</g>
</g>
</svg>
