<?xml version="1.0" encoding="UTF-8" standalone="no"?>
<!DOCTYPE svg PUBLIC "-//W3C//DTD SVG 1.1//EN"
 "http://www.w3.org/Graphics/SVG/1.1/DTD/svg11.dtd">
<!-- Generated by graphviz version 2.43.0 (0)
 -->
<!-- Title: as_reg_write_masked Pages: 1 -->
<svg width="853pt" height="686pt"
 viewBox="0.00 0.00 853.00 686.00" xmlns="http://www.w3.org/2000/svg" xmlns:xlink="http://www.w3.org/1999/xlink">
<g id="graph0" class="graph" transform="scale(1 1) rotate(0) translate(4 682)">
<title>as_reg_write_masked</title>
<!-- Node1 -->
<g id="node1" class="node">
<title>Node1</title>
<g id="a_node1"><a xlink:title=" ">
<polygon fill="#bfbfbf" stroke="black" points="723,-335.5 723,-354.5 845,-354.5 845,-335.5 723,-335.5"/>
<text text-anchor="middle" x="784" y="-342.5" font-family="Helvetica,sans-Serif" font-size="10.00">as_reg_write_masked</text>
</a>
</g>
</g>
<!-- Node2 -->
<g id="node2" class="node">
<title>Node2</title>
<g id="a_node2"><a xlink:href="group__as__gensync.html#ga5746539d52622a4ab76a6814d68715f4" target="_top" xlink:title=" ">
<polygon fill="none" stroke="black" points="552,-658.5 552,-677.5 666,-677.5 666,-658.5 552,-658.5"/>
<text text-anchor="middle" x="609" y="-665.5" font-family="Helvetica,sans-Serif" font-size="10.00">as_gensync_disable</text>
</a>
</g>
</g>
<!-- Node1&#45;&gt;Node2 -->
<g id="edge1" class="edge">
<title>Node1&#45;&gt;Node2</title>
<path fill="none" stroke="midnightblue" d="M782.99,-364.94C781.84,-419.13 770.87,-570.33 687,-649 681.07,-654.56 673.79,-658.56 666.09,-661.44"/>
<polygon fill="midnightblue" stroke="midnightblue" points="786.5,-364.68 783.11,-354.64 779.5,-364.6 786.5,-364.68"/>
</g>
<!-- Node3 -->
<g id="node3" class="node">
<title>Node3</title>
<g id="a_node3"><a xlink:href="group__as__gensync.html#ga3256f1a305daeafd58601ba3b0dc9823" target="_top" xlink:title=" ">
<polygon fill="none" stroke="black" points="553,-620.5 553,-639.5 665,-639.5 665,-620.5 553,-620.5"/>
<text text-anchor="middle" x="609" y="-627.5" font-family="Helvetica,sans-Serif" font-size="10.00">as_gensync_enable</text>
</a>
</g>
</g>
<!-- Node1&#45;&gt;Node3 -->
<g id="edge2" class="edge">
<title>Node1&#45;&gt;Node3</title>
<path fill="none" stroke="midnightblue" d="M781.97,-364.76C778.29,-414.14 761.63,-543.79 687,-611 680.76,-616.62 673.12,-620.64 665.1,-623.51"/>
<polygon fill="midnightblue" stroke="midnightblue" points="785.46,-364.95 782.61,-354.75 778.48,-364.5 785.46,-364.95"/>
</g>
<!-- Node4 -->
<g id="node4" class="node">
<title>Node4</title>
<g id="a_node4"><a xlink:href="group__as__invert.html#ga3c3e0caa36e278b72fab458ba28087a1" target="_top" xlink:title=" ">
<polygon fill="none" stroke="black" points="559,-582.5 559,-601.5 659,-601.5 659,-582.5 559,-582.5"/>
<text text-anchor="middle" x="609" y="-589.5" font-family="Helvetica,sans-Serif" font-size="10.00">as_invert_enable</text>
</a>
</g>
</g>
<!-- Node1&#45;&gt;Node4 -->
<g id="edge3" class="edge">
<title>Node1&#45;&gt;Node4</title>
<path fill="none" stroke="midnightblue" d="M780.66,-364.59C774.28,-408.84 752.48,-517.05 687,-573 679.15,-579.71 669.29,-584.12 659.27,-587"/>
<polygon fill="midnightblue" stroke="midnightblue" points="784.14,-364.93 781.99,-354.56 777.2,-364.01 784.14,-364.93"/>
</g>
<!-- Node5 -->
<g id="node5" class="node">
<title>Node5</title>
<g id="a_node5"><a xlink:href="group__as__picam.html#gaa8192e9e074c9992f0af0584f69c1009" target="_top" xlink:title=" ">
<polygon fill="none" stroke="black" points="567,-544.5 567,-563.5 651,-563.5 651,-544.5 567,-544.5"/>
<text text-anchor="middle" x="609" y="-551.5" font-family="Helvetica,sans-Serif" font-size="10.00">as_picam_run</text>
</a>
</g>
</g>
<!-- Node1&#45;&gt;Node5 -->
<g id="edge4" class="edge">
<title>Node1&#45;&gt;Node5</title>
<path fill="none" stroke="midnightblue" d="M778.82,-364.71C769.51,-403.57 743.31,-490.16 687,-535 676.87,-543.06 663.8,-547.77 651.31,-550.49"/>
<polygon fill="midnightblue" stroke="midnightblue" points="782.29,-365.21 781.09,-354.69 775.47,-363.66 782.29,-365.21"/>
</g>
<!-- Node6 -->
<g id="node6" class="node">
<title>Node6</title>
<g id="a_node6"><a xlink:href="group__as__picam.html#ga01b04fc64709419ac1d06df422efa021" target="_top" xlink:title=" ">
<polygon fill="none" stroke="black" points="552.5,-506.5 552.5,-525.5 665.5,-525.5 665.5,-506.5 552.5,-506.5"/>
<text text-anchor="middle" x="609" y="-513.5" font-family="Helvetica,sans-Serif" font-size="10.00">as_picam_run_once</text>
</a>
</g>
</g>
<!-- Node1&#45;&gt;Node6 -->
<g id="edge5" class="edge">
<title>Node1&#45;&gt;Node6</title>
<path fill="none" stroke="midnightblue" d="M776.31,-364.33C763.99,-396.95 734.54,-462.72 687,-497 680.63,-501.59 673.29,-505.08 665.71,-507.73"/>
<polygon fill="midnightblue" stroke="midnightblue" points="779.71,-365.23 779.83,-354.63 773.13,-362.84 779.71,-365.23"/>
</g>
<!-- Node7 -->
<g id="node7" class="node">
<title>Node7</title>
<g id="a_node7"><a xlink:href="group__as__picam.html#ga30b57eabe3cec87f9626b1e39f244a98" target="_top" xlink:title=" ">
<polygon fill="none" stroke="black" points="564.5,-468.5 564.5,-487.5 653.5,-487.5 653.5,-468.5 564.5,-468.5"/>
<text text-anchor="middle" x="609" y="-475.5" font-family="Helvetica,sans-Serif" font-size="10.00">as_picam_stop</text>
</a>
</g>
</g>
<!-- Node1&#45;&gt;Node7 -->
<g id="edge6" class="edge">
<title>Node1&#45;&gt;Node7</title>
<path fill="none" stroke="midnightblue" d="M772.65,-363.43C757.32,-388.94 726.16,-434.64 687,-459 677.06,-465.18 665.23,-469.35 653.87,-472.17"/>
<polygon fill="midnightblue" stroke="midnightblue" points="775.71,-365.12 777.73,-354.72 769.66,-361.59 775.71,-365.12"/>
</g>
<!-- Node8 -->
<g id="node8" class="node">
<title>Node8</title>
<g id="a_node8"><a xlink:href="group__as__reader__writer.html#ga89e42a53f0db5cf22c8583c8e0c8a074" target="_top" xlink:title="Resets the hardware module.">
<polygon fill="none" stroke="black" points="545,-430.5 545,-449.5 673,-449.5 673,-430.5 545,-430.5"/>
<text text-anchor="middle" x="609" y="-437.5" font-family="Helvetica,sans-Serif" font-size="10.00">as_reader_writer_reset</text>
</a>
</g>
</g>
<!-- Node1&#45;&gt;Node8 -->
<g id="edge7" class="edge">
<title>Node1&#45;&gt;Node8</title>
<path fill="none" stroke="midnightblue" d="M766.53,-361.75C748.54,-379.1 718.12,-405.75 687,-421 679.21,-424.82 670.59,-427.91 662.02,-430.4"/>
<polygon fill="midnightblue" stroke="midnightblue" points="769.21,-364.03 773.87,-354.51 764.29,-359.04 769.21,-364.03"/>
</g>
<!-- Node19 -->
<g id="node19" class="node">
<title>Node19</title>
<g id="a_node19"><a xlink:href="group__as__reader__writer.html#ga38bb160b6e30eb5fce6df2e4b4894fad" target="_top" xlink:title="Starts operation of hardware module.">
<polygon fill="none" stroke="black" points="541,-316.5 541,-335.5 677,-335.5 677,-316.5 541,-316.5"/>
<text text-anchor="middle" x="609" y="-323.5" font-family="Helvetica,sans-Serif" font-size="10.00">as_reader_writer_set_go</text>
</a>
</g>
</g>
<!-- Node1&#45;&gt;Node19 -->
<g id="edge18" class="edge">
<title>Node1&#45;&gt;Node19</title>
<path fill="none" stroke="midnightblue" d="M712.74,-337.28C700.95,-335.99 688.73,-334.65 677.02,-333.36"/>
<polygon fill="midnightblue" stroke="midnightblue" points="712.66,-340.8 722.98,-338.41 713.42,-333.84 712.66,-340.8"/>
</g>
<!-- Node28 -->
<g id="node28" class="node">
<title>Node28</title>
<g id="a_node28"><a xlink:href="group__as__sensor__ov7670.html#ga3392b840d710dcb57d9e7ce2221210dc" target="_top" xlink:title=" ">
<polygon fill="none" stroke="black" points="540.5,-278.5 540.5,-297.5 677.5,-297.5 677.5,-278.5 540.5,-278.5"/>
<text text-anchor="middle" x="609" y="-285.5" font-family="Helvetica,sans-Serif" font-size="10.00">as_sensor_ov7670_reset</text>
</a>
</g>
</g>
<!-- Node1&#45;&gt;Node28 -->
<g id="edge29" class="edge">
<title>Node1&#45;&gt;Node28</title>
<path fill="none" stroke="midnightblue" d="M751.76,-331.39C733.17,-323.61 709,-314.03 687,-307 676.11,-303.52 664.19,-300.3 653.05,-297.54"/>
<polygon fill="midnightblue" stroke="midnightblue" points="750.62,-334.71 761.19,-335.39 753.35,-328.27 750.62,-334.71"/>
</g>
<!-- Node30 -->
<g id="node30" class="node">
<title>Node30</title>
<g id="a_node30"><a xlink:href="group__as__sensor__ov7670.html#ga8338b7849d9c82ef37edbdfe6e8fa632" target="_top" xlink:title=" ">
<polygon fill="none" stroke="black" points="545,-240.5 545,-259.5 673,-259.5 673,-240.5 545,-240.5"/>
<text text-anchor="middle" x="609" y="-247.5" font-family="Helvetica,sans-Serif" font-size="10.00">as_sensor_ov7670_run</text>
</a>
</g>
</g>
<!-- Node1&#45;&gt;Node30 -->
<g id="edge31" class="edge">
<title>Node1&#45;&gt;Node30</title>
<path fill="none" stroke="midnightblue" d="M766.53,-328.25C748.54,-310.9 718.12,-284.25 687,-269 679.21,-265.18 670.59,-262.09 662.02,-259.6"/>
<polygon fill="midnightblue" stroke="midnightblue" points="764.29,-330.96 773.87,-335.49 769.21,-325.97 764.29,-330.96"/>
</g>
<!-- Node31 -->
<g id="node31" class="node">
<title>Node31</title>
<g id="a_node31"><a xlink:href="group__as__sensor__ov7670.html#ga13ad34ba60cebaf4c5392288b4da428c" target="_top" xlink:title=" ">
<polygon fill="none" stroke="black" points="531,-202.5 531,-221.5 687,-221.5 687,-202.5 531,-202.5"/>
<text text-anchor="middle" x="609" y="-209.5" font-family="Helvetica,sans-Serif" font-size="10.00">as_sensor_ov7670_run_once</text>
</a>
</g>
</g>
<!-- Node1&#45;&gt;Node31 -->
<g id="edge32" class="edge">
<title>Node1&#45;&gt;Node31</title>
<path fill="none" stroke="midnightblue" d="M772.65,-326.57C757.32,-301.06 726.16,-255.36 687,-231 680.8,-227.15 673.87,-224.07 666.78,-221.62"/>
<polygon fill="midnightblue" stroke="midnightblue" points="769.66,-328.41 777.73,-335.28 775.71,-324.88 769.66,-328.41"/>
</g>
<!-- Node32 -->
<g id="node32" class="node">
<title>Node32</title>
<g id="a_node32"><a xlink:href="group__as__sensor__ov7670.html#gade1f741182323bec3bf92be7a17b3bcc" target="_top" xlink:title=" ">
<polygon fill="none" stroke="black" points="542.5,-164.5 542.5,-183.5 675.5,-183.5 675.5,-164.5 542.5,-164.5"/>
<text text-anchor="middle" x="609" y="-171.5" font-family="Helvetica,sans-Serif" font-size="10.00">as_sensor_ov7670_stop</text>
</a>
</g>
</g>
<!-- Node1&#45;&gt;Node32 -->
<g id="edge33" class="edge">
<title>Node1&#45;&gt;Node32</title>
<path fill="none" stroke="midnightblue" d="M776.31,-325.67C763.99,-293.05 734.54,-227.28 687,-193 681.64,-189.13 675.58,-186.05 669.28,-183.59"/>
<polygon fill="midnightblue" stroke="midnightblue" points="773.13,-327.16 779.83,-335.37 779.71,-324.77 773.13,-327.16"/>
</g>
<!-- Node33 -->
<g id="node33" class="node">
<title>Node33</title>
<g id="a_node33"><a xlink:href="group__as__reader__writer.html#ga8daf0ef0b9d732e9388ba62e69842c8d" target="_top" xlink:title="Disable module input port.">
<polygon fill="none" stroke="black" points="548,-126.5 548,-145.5 670,-145.5 670,-126.5 548,-126.5"/>
<text text-anchor="middle" x="609" y="-133.5" font-family="Helvetica,sans-Serif" font-size="10.00">as_writer_set_disable</text>
</a>
</g>
</g>
<!-- Node1&#45;&gt;Node33 -->
<g id="edge34" class="edge">
<title>Node1&#45;&gt;Node33</title>
<path fill="none" stroke="midnightblue" d="M778.82,-325.29C769.51,-286.43 743.31,-199.84 687,-155 681.94,-150.97 676.14,-147.78 670.04,-145.25"/>
<polygon fill="midnightblue" stroke="midnightblue" points="775.47,-326.34 781.09,-335.31 782.29,-324.79 775.47,-326.34"/>
</g>
<!-- Node34 -->
<g id="node34" class="node">
<title>Node34</title>
<g id="a_node34"><a xlink:href="group__as__reader__writer.html#ga2c3650318b12edaf3f4473fed557cc74" target="_top" xlink:title="Disable module if no operation is queued.">
<polygon fill="none" stroke="black" points="356,-346 356,-376 478,-376 478,-346 356,-346"/>
<text text-anchor="start" x="364" y="-364" font-family="Helvetica,sans-Serif" font-size="10.00">as_writer_set_disable</text>
<text text-anchor="middle" x="417" y="-353" font-family="Helvetica,sans-Serif" font-size="10.00">_on_no_go</text>
</a>
</g>
</g>
<!-- Node1&#45;&gt;Node34 -->
<g id="edge35" class="edge">
<title>Node1&#45;&gt;Node34</title>
<path fill="none" stroke="midnightblue" d="M712.52,-348.09C644.42,-351.07 542.4,-355.55 478.06,-358.37"/>
<polygon fill="midnightblue" stroke="midnightblue" points="712.89,-351.58 722.73,-347.64 712.58,-344.58 712.89,-351.58"/>
</g>
<!-- Node35 -->
<g id="node35" class="node">
<title>Node35</title>
<g id="a_node35"><a xlink:href="group__as__reader__writer.html#ga1ef22dbd33d87de51113837dd9123c6f" target="_top" xlink:title="Enable module input port.">
<polygon fill="none" stroke="black" points="549,-392.5 549,-411.5 669,-411.5 669,-392.5 549,-392.5"/>
<text text-anchor="middle" x="609" y="-399.5" font-family="Helvetica,sans-Serif" font-size="10.00">as_writer_set_enable</text>
</a>
</g>
</g>
<!-- Node1&#45;&gt;Node35 -->
<g id="edge37" class="edge">
<title>Node1&#45;&gt;Node35</title>
<path fill="none" stroke="midnightblue" d="M746.29,-357.9C728.44,-364.1 706.64,-371.56 687,-378 672.1,-382.88 655.5,-388.09 641.53,-392.4"/>
<polygon fill="midnightblue" stroke="midnightblue" points="747.47,-361.19 755.76,-354.6 745.17,-354.58 747.47,-361.19"/>
</g>
<!-- Node36 -->
<g id="node36" class="node">
<title>Node36</title>
<g id="a_node36"><a xlink:href="group__as__reader__writer.html#ga4756adb209e0fcf64abc204b21ea8095" target="_top" xlink:title="Enable module input port on data unit complete.">
<polygon fill="none" stroke="black" points="541,-77 541,-107 677,-107 677,-77 541,-77"/>
<text text-anchor="start" x="549" y="-95" font-family="Helvetica,sans-Serif" font-size="10.00">as_writer_set_enable</text>
<text text-anchor="middle" x="609" y="-84" font-family="Helvetica,sans-Serif" font-size="10.00">_on_data_unit_complete</text>
</a>
</g>
</g>
<!-- Node1&#45;&gt;Node36 -->
<g id="edge40" class="edge">
<title>Node1&#45;&gt;Node36</title>
<path fill="none" stroke="midnightblue" d="M780.27,-325.14C773.18,-281.19 750.13,-175.01 687,-117 682.76,-113.1 677.9,-109.81 672.73,-107.03"/>
<polygon fill="midnightblue" stroke="midnightblue" points="776.82,-325.76 781.77,-335.13 783.75,-324.72 776.82,-325.76"/>
</g>
<!-- Node37 -->
<g id="node37" class="node">
<title>Node37</title>
<g id="a_node37"><a xlink:href="group__as__reader__writer.html#ga9215e95a07cc87392a5f12f73c981b1a" target="_top" xlink:title="Flush data to memory.">
<polygon fill="none" stroke="black" points="553.5,-38.5 553.5,-57.5 664.5,-57.5 664.5,-38.5 553.5,-38.5"/>
<text text-anchor="middle" x="609" y="-45.5" font-family="Helvetica,sans-Serif" font-size="10.00">as_writer_set_flush</text>
</a>
</g>
</g>
<!-- Node1&#45;&gt;Node37 -->
<g id="edge41" class="edge">
<title>Node1&#45;&gt;Node37</title>
<path fill="none" stroke="midnightblue" d="M782.31,-325.07C779.43,-274.05 764.48,-137.76 687,-67 680.7,-61.24 672.93,-57.16 664.78,-54.28"/>
<polygon fill="midnightblue" stroke="midnightblue" points="778.83,-325.54 782.79,-335.37 785.82,-325.22 778.83,-325.54"/>
</g>
<!-- Node38 -->
<g id="node38" class="node">
<title>Node38</title>
<g id="a_node38"><a xlink:href="group__as__reader__writer.html#ga98542cb8dd5f6f0ee3b1cae12a1422e2" target="_top" xlink:title="Transfer single data unit to memory.">
<polygon fill="none" stroke="black" points="537.5,-0.5 537.5,-19.5 680.5,-19.5 680.5,-0.5 537.5,-0.5"/>
<text text-anchor="middle" x="609" y="-7.5" font-family="Helvetica,sans-Serif" font-size="10.00">as_writer_set_single_shot</text>
</a>
</g>
</g>
<!-- Node1&#45;&gt;Node38 -->
<g id="edge42" class="edge">
<title>Node1&#45;&gt;Node38</title>
<path fill="none" stroke="midnightblue" d="M783.27,-325.02C782.88,-269.38 773.81,-111.32 687,-29 683,-25.21 678.38,-22.14 673.41,-19.66"/>
<polygon fill="midnightblue" stroke="midnightblue" points="779.77,-325.27 783.25,-335.28 786.77,-325.29 779.77,-325.27"/>
</g>
<!-- Node9 -->
<g id="node9" class="node">
<title>Node9</title>
<g id="a_node9"><a xlink:href="as__memio_8h.html#a80ef9367a40bd09868b8faea1884a5a8" target="_top" xlink:title=" ">
<polygon fill="none" stroke="black" points="368,-509.5 368,-528.5 466,-528.5 466,-509.5 368,-509.5"/>
<text text-anchor="middle" x="417" y="-516.5" font-family="Helvetica,sans-Serif" font-size="10.00">as_memio_close</text>
</a>
</g>
</g>
<!-- Node8&#45;&gt;Node9 -->
<g id="edge8" class="edge">
<title>Node8&#45;&gt;Node9</title>
<path fill="none" stroke="midnightblue" d="M542.32,-453.2C538.38,-454.9 534.57,-456.83 531,-459 510.28,-471.59 515.72,-487.41 495,-500 486.29,-505.29 476.19,-509.11 466.22,-511.87"/>
<polygon fill="midnightblue" stroke="midnightblue" points="543.61,-456.45 551.7,-449.61 541.11,-449.92 543.61,-456.45"/>
</g>
<!-- Node11 -->
<g id="node11" class="node">
<title>Node11</title>
<g id="a_node11"><a xlink:href="as__memio_8c.html#a31a12ad0b581e08a50188766815dd93d" target="_top" xlink:title=" ">
<polygon fill="none" stroke="black" points="346,-433.5 346,-452.5 488,-452.5 488,-433.5 346,-433.5"/>
<text text-anchor="middle" x="417" y="-440.5" font-family="Helvetica,sans-Serif" font-size="10.00">as_memio_module_setup</text>
</a>
</g>
</g>
<!-- Node8&#45;&gt;Node11 -->
<g id="edge10" class="edge">
<title>Node8&#45;&gt;Node11</title>
<path fill="none" stroke="midnightblue" d="M534.56,-441.16C519.27,-441.4 503.2,-441.65 488.04,-441.89"/>
<polygon fill="midnightblue" stroke="midnightblue" points="535.05,-444.65 545,-440.99 534.94,-437.65 535.05,-444.65"/>
</g>
<!-- Node14 -->
<g id="node14" class="node">
<title>Node14</title>
<g id="a_node14"><a xlink:href="group__as__reader__writer.html#ga5c0bd52e53c8e68de80b1712c12d9a4a" target="_top" xlink:title="Initializes the hardware module with values provided by config.">
<polygon fill="none" stroke="black" points="357.5,-471.5 357.5,-490.5 476.5,-490.5 476.5,-471.5 357.5,-471.5"/>
<text text-anchor="middle" x="417" y="-478.5" font-family="Helvetica,sans-Serif" font-size="10.00">as_reader_writer_init</text>
</a>
</g>
</g>
<!-- Node8&#45;&gt;Node14 -->
<g id="edge13" class="edge">
<title>Node8&#45;&gt;Node14</title>
<path fill="none" stroke="midnightblue" d="M553.94,-451.66C524.9,-457.93 489.53,-465.56 462.16,-471.47"/>
<polygon fill="midnightblue" stroke="midnightblue" points="554.9,-455.04 563.93,-449.51 553.42,-448.2 554.9,-455.04"/>
</g>
<!-- Node10 -->
<g id="node10" class="node">
<title>Node10</title>
<g id="a_node10"><a xlink:href="group__memio__file__ops.html#gacbc077ab5c70f951062f1a7bbd311957" target="_top" xlink:title=" ">
<polygon fill="none" stroke="black" points="169,-509.5 169,-528.5 301,-528.5 301,-509.5 169,-509.5"/>
<text text-anchor="middle" x="235" y="-516.5" font-family="Helvetica,sans-Serif" font-size="10.00">driver_as_memio_close</text>
</a>
</g>
</g>
<!-- Node9&#45;&gt;Node10 -->
<g id="edge9" class="edge">
<title>Node9&#45;&gt;Node10</title>
<path fill="none" stroke="midnightblue" d="M357.7,-519C339.69,-519 319.74,-519 301.29,-519"/>
<polygon fill="midnightblue" stroke="midnightblue" points="357.76,-522.5 367.76,-519 357.76,-515.5 357.76,-522.5"/>
</g>
<!-- Node12 -->
<g id="node12" class="node">
<title>Node12</title>
<g id="a_node12"><a xlink:href="as__memio_8h.html#acb0c0a633ce7890008c6f6f1f2eca285" target="_top" xlink:title=" ">
<polygon fill="none" stroke="black" points="186.5,-433.5 186.5,-452.5 283.5,-452.5 283.5,-433.5 186.5,-433.5"/>
<text text-anchor="middle" x="235" y="-440.5" font-family="Helvetica,sans-Serif" font-size="10.00">as_memio_open</text>
</a>
</g>
</g>
<!-- Node11&#45;&gt;Node12 -->
<g id="edge11" class="edge">
<title>Node11&#45;&gt;Node12</title>
<path fill="none" stroke="midnightblue" d="M335.54,-443C317.83,-443 299.61,-443 283.69,-443"/>
<polygon fill="midnightblue" stroke="midnightblue" points="335.89,-446.5 345.89,-443 335.89,-439.5 335.89,-446.5"/>
</g>
<!-- Node13 -->
<g id="node13" class="node">
<title>Node13</title>
<g id="a_node13"><a xlink:href="group__memio__file__ops.html#ga6a581341bc6e2a1ed45c56c0fc7bcece" target="_top" xlink:title=" ">
<polygon fill="none" stroke="black" points="0,-433.5 0,-452.5 131,-452.5 131,-433.5 0,-433.5"/>
<text text-anchor="middle" x="65.5" y="-440.5" font-family="Helvetica,sans-Serif" font-size="10.00">driver_as_memio_open</text>
</a>
</g>
</g>
<!-- Node12&#45;&gt;Node13 -->
<g id="edge12" class="edge">
<title>Node12&#45;&gt;Node13</title>
<path fill="none" stroke="midnightblue" d="M176.1,-443C161.57,-443 145.89,-443 131.06,-443"/>
<polygon fill="midnightblue" stroke="midnightblue" points="176.45,-446.5 186.45,-443 176.45,-439.5 176.45,-446.5"/>
</g>
<!-- Node15 -->
<g id="node15" class="node">
<title>Node15</title>
<g id="a_node15"><a xlink:href="group__mmap__file__ops.html#ga93a1477871ee8b3e8071b60442a0ceb3" target="_top" xlink:title=" ">
<polygon fill="none" stroke="black" points="167,-354.5 167,-373.5 303,-373.5 303,-354.5 167,-354.5"/>
<text text-anchor="middle" x="235" y="-361.5" font-family="Helvetica,sans-Serif" font-size="10.00">as_mmap_start_transfer</text>
</a>
</g>
</g>
<!-- Node14&#45;&gt;Node15 -->
<g id="edge14" class="edge">
<title>Node14&#45;&gt;Node15</title>
<path fill="none" stroke="midnightblue" d="M351.2,-467.97C346.96,-466.22 342.85,-464.24 339,-462 318.89,-450.3 319.68,-440.22 303,-424 284.19,-405.71 261.22,-385.59 247.64,-373.91"/>
<polygon fill="midnightblue" stroke="midnightblue" points="350.05,-471.27 360.64,-471.43 352.46,-464.7 350.05,-471.27"/>
</g>
<!-- Node16 -->
<g id="node16" class="node">
<title>Node16</title>
<g id="a_node16"><a xlink:href="group__mmap__file__ops.html#gab078c489a563497f4da70a9f6115dfce" target="_top" xlink:title=" ">
<polygon fill="none" stroke="black" points="20,-392.5 20,-411.5 111,-411.5 111,-392.5 20,-392.5"/>
<text text-anchor="middle" x="65.5" y="-399.5" font-family="Helvetica,sans-Serif" font-size="10.00">as_mmap_ioctl</text>
</a>
</g>
</g>
<!-- Node15&#45;&gt;Node16 -->
<g id="edge15" class="edge">
<title>Node15&#45;&gt;Node16</title>
<path fill="none" stroke="midnightblue" d="M181.88,-375.82C158.27,-381.18 130.72,-387.43 108.46,-392.48"/>
<polygon fill="midnightblue" stroke="midnightblue" points="182.75,-379.21 191.73,-373.59 181.21,-372.39 182.75,-379.21"/>
</g>
<!-- Node17 -->
<g id="node17" class="node">
<title>Node17</title>
<g id="a_node17"><a xlink:href="group__mmap__file__ops.html#gae18f99f9774b7224e71d80209ecd0bf4" target="_top" xlink:title=" ">
<polygon fill="none" stroke="black" points="3,-354.5 3,-373.5 128,-373.5 128,-354.5 3,-354.5"/>
<text text-anchor="middle" x="65.5" y="-361.5" font-family="Helvetica,sans-Serif" font-size="10.00">driver_as_mmap_read</text>
</a>
</g>
</g>
<!-- Node15&#45;&gt;Node17 -->
<g id="edge16" class="edge">
<title>Node15&#45;&gt;Node17</title>
<path fill="none" stroke="midnightblue" d="M156.59,-364C147.09,-364 137.48,-364 128.25,-364"/>
<polygon fill="midnightblue" stroke="midnightblue" points="156.84,-367.5 166.84,-364 156.84,-360.5 156.84,-367.5"/>
</g>
<!-- Node18 -->
<g id="node18" class="node">
<title>Node18</title>
<g id="a_node18"><a xlink:href="group__mmap__file__ops.html#gaeea3980f5b633c4b83ff46b2efc2ea10" target="_top" xlink:title=" ">
<polygon fill="none" stroke="black" points="1.5,-316.5 1.5,-335.5 129.5,-335.5 129.5,-316.5 1.5,-316.5"/>
<text text-anchor="middle" x="65.5" y="-323.5" font-family="Helvetica,sans-Serif" font-size="10.00">driver_as_mmap_write</text>
</a>
</g>
</g>
<!-- Node15&#45;&gt;Node18 -->
<g id="edge17" class="edge">
<title>Node15&#45;&gt;Node18</title>
<path fill="none" stroke="midnightblue" d="M181.88,-352.18C158.27,-346.82 130.72,-340.57 108.46,-335.52"/>
<polygon fill="midnightblue" stroke="midnightblue" points="181.21,-355.61 191.73,-354.41 182.75,-348.79 181.21,-355.61"/>
</g>
<!-- Node19&#45;&gt;Node15 -->
<g id="edge28" class="edge">
<title>Node19&#45;&gt;Node15</title>
<path fill="none" stroke="midnightblue" d="M530.56,-324.77C476.58,-324.98 403.05,-327.41 339,-337 313.77,-340.78 285.81,-348.33 265.4,-354.49"/>
<polygon fill="midnightblue" stroke="midnightblue" points="530.75,-328.27 540.74,-324.75 530.74,-321.27 530.75,-328.27"/>
</g>
<!-- Node20 -->
<g id="node20" class="node">
<title>Node20</title>
<g id="a_node20"><a xlink:href="as__memio_8c.html#ab93cfbaa1058ea83836b6d052e72ad50" target="_top" xlink:title=" ">
<polygon fill="none" stroke="black" points="340.5,-231.5 340.5,-250.5 493.5,-250.5 493.5,-231.5 340.5,-231.5"/>
<text text-anchor="middle" x="417" y="-238.5" font-family="Helvetica,sans-Serif" font-size="10.00">as_memio_hw_read_update</text>
</a>
</g>
</g>
<!-- Node19&#45;&gt;Node20 -->
<g id="edge19" class="edge">
<title>Node19&#45;&gt;Node20</title>
<path fill="none" stroke="midnightblue" d="M540.89,-312.49C537.44,-310.87 534.12,-309.04 531,-307 508.98,-292.59 517.02,-274.41 495,-260 489.12,-256.15 482.53,-253.09 475.75,-250.64"/>
<polygon fill="midnightblue" stroke="midnightblue" points="539.67,-315.78 550.25,-316.36 542.35,-309.31 539.67,-315.78"/>
</g>
<!-- Node25 -->
<g id="node25" class="node">
<title>Node25</title>
<g id="a_node25"><a xlink:href="as__memio_8c.html#a3ae0453041c4a6d406955edd9c7e43f3" target="_top" xlink:title=" ">
<polygon fill="none" stroke="black" points="339,-269.5 339,-288.5 495,-288.5 495,-269.5 339,-269.5"/>
<text text-anchor="middle" x="417" y="-276.5" font-family="Helvetica,sans-Serif" font-size="10.00">as_memio_hw_write_update</text>
</a>
</g>
</g>
<!-- Node19&#45;&gt;Node25 -->
<g id="edge24" class="edge">
<title>Node19&#45;&gt;Node25</title>
<path fill="none" stroke="midnightblue" d="M559.24,-313.98C549.87,-311.66 540.13,-309.26 531,-307 506.18,-300.86 478.3,-293.95 456.44,-288.53"/>
<polygon fill="midnightblue" stroke="midnightblue" points="558.67,-317.44 569.22,-316.44 560.35,-310.65 558.67,-317.44"/>
</g>
<!-- Node21 -->
<g id="node21" class="node">
<title>Node21</title>
<g id="a_node21"><a xlink:href="as__memio_8h.html#a8162b54494988ebca0ff03ff23eddbb7" target="_top" xlink:title=" ">
<polygon fill="none" stroke="black" points="172,-234.5 172,-253.5 298,-253.5 298,-234.5 172,-234.5"/>
<text text-anchor="middle" x="235" y="-241.5" font-family="Helvetica,sans-Serif" font-size="10.00">as_memio_hw_update</text>
</a>
</g>
</g>
<!-- Node20&#45;&gt;Node21 -->
<g id="edge20" class="edge">
<title>Node20&#45;&gt;Node21</title>
<path fill="none" stroke="midnightblue" d="M330.18,-242.43C319.42,-242.61 308.58,-242.79 298.28,-242.96"/>
<polygon fill="midnightblue" stroke="midnightblue" points="330.51,-245.93 340.45,-242.26 330.39,-238.93 330.51,-245.93"/>
</g>
<!-- Node23 -->
<g id="node23" class="node">
<title>Node23</title>
<g id="a_node23"><a xlink:href="as__memio_8h.html#affb75145f7c6b1a8baea620d47f62a99" target="_top" xlink:title=" ">
<polygon fill="none" stroke="black" points="187.5,-196.5 187.5,-215.5 282.5,-215.5 282.5,-196.5 187.5,-196.5"/>
<text text-anchor="middle" x="235" y="-203.5" font-family="Helvetica,sans-Serif" font-size="10.00">as_memio_read</text>
</a>
</g>
</g>
<!-- Node20&#45;&gt;Node23 -->
<g id="edge22" class="edge">
<title>Node20&#45;&gt;Node23</title>
<path fill="none" stroke="midnightblue" d="M356.73,-229.47C332.66,-224.79 305.25,-219.47 282.65,-215.07"/>
<polygon fill="midnightblue" stroke="midnightblue" points="356.33,-232.96 366.81,-231.44 357.67,-226.09 356.33,-232.96"/>
</g>
<!-- Node22 -->
<g id="node22" class="node">
<title>Node22</title>
<g id="a_node22"><a xlink:href="group__memio__file__ops.html#gab0cee6094e9d25645dcab0b9df045467" target="_top" xlink:title=" ">
<polygon fill="none" stroke="black" points="1.5,-234.5 1.5,-253.5 129.5,-253.5 129.5,-234.5 1.5,-234.5"/>
<text text-anchor="middle" x="65.5" y="-241.5" font-family="Helvetica,sans-Serif" font-size="10.00">driver_as_memio_ioctl</text>
</a>
</g>
</g>
<!-- Node21&#45;&gt;Node22 -->
<g id="edge21" class="edge">
<title>Node21&#45;&gt;Node22</title>
<path fill="none" stroke="midnightblue" d="M161.57,-244C150.98,-244 140.15,-244 129.76,-244"/>
<polygon fill="midnightblue" stroke="midnightblue" points="161.63,-247.5 171.63,-244 161.63,-240.5 161.63,-247.5"/>
</g>
<!-- Node24 -->
<g id="node24" class="node">
<title>Node24</title>
<g id="a_node24"><a xlink:href="group__memio__file__ops.html#gabc26947002eedee4c4557faff325074e" target="_top" xlink:title=" ">
<polygon fill="none" stroke="black" points="1.5,-196.5 1.5,-215.5 129.5,-215.5 129.5,-196.5 1.5,-196.5"/>
<text text-anchor="middle" x="65.5" y="-203.5" font-family="Helvetica,sans-Serif" font-size="10.00">driver_as_memio_read</text>
</a>
</g>
</g>
<!-- Node23&#45;&gt;Node24 -->
<g id="edge23" class="edge">
<title>Node23&#45;&gt;Node24</title>
<path fill="none" stroke="midnightblue" d="M177.06,-206C161.85,-206 145.33,-206 129.81,-206"/>
<polygon fill="midnightblue" stroke="midnightblue" points="177.34,-209.5 187.34,-206 177.34,-202.5 177.34,-209.5"/>
</g>
<!-- Node25&#45;&gt;Node21 -->
<g id="edge25" class="edge">
<title>Node25&#45;&gt;Node21</title>
<path fill="none" stroke="midnightblue" d="M356.74,-267.48C333.54,-262.97 307.24,-257.85 285.13,-253.55"/>
<polygon fill="midnightblue" stroke="midnightblue" points="356.33,-270.96 366.81,-269.44 357.67,-264.09 356.33,-270.96"/>
</g>
<!-- Node26 -->
<g id="node26" class="node">
<title>Node26</title>
<g id="a_node26"><a xlink:href="as__memio_8h.html#ad5dd4d8bd2c20ea07188bcbb36dd0f87" target="_top" xlink:title=" ">
<polygon fill="none" stroke="black" points="186,-272.5 186,-291.5 284,-291.5 284,-272.5 186,-272.5"/>
<text text-anchor="middle" x="235" y="-279.5" font-family="Helvetica,sans-Serif" font-size="10.00">as_memio_write</text>
</a>
</g>
</g>
<!-- Node25&#45;&gt;Node26 -->
<g id="edge26" class="edge">
<title>Node25&#45;&gt;Node26</title>
<path fill="none" stroke="midnightblue" d="M328.8,-280.45C313.4,-280.71 297.89,-280.97 284.08,-281.2"/>
<polygon fill="midnightblue" stroke="midnightblue" points="328.94,-283.95 338.88,-280.29 328.82,-276.95 328.94,-283.95"/>
</g>
<!-- Node27 -->
<g id="node27" class="node">
<title>Node27</title>
<g id="a_node27"><a xlink:href="group__memio__file__ops.html#gafff67fc067850f545e90c7e487f4fbce" target="_top" xlink:title=" ">
<polygon fill="none" stroke="black" points="0,-272.5 0,-291.5 131,-291.5 131,-272.5 0,-272.5"/>
<text text-anchor="middle" x="65.5" y="-279.5" font-family="Helvetica,sans-Serif" font-size="10.00">driver_as_memio_write</text>
</a>
</g>
</g>
<!-- Node26&#45;&gt;Node27 -->
<g id="edge27" class="edge">
<title>Node26&#45;&gt;Node27</title>
<path fill="none" stroke="midnightblue" d="M175.34,-282C161.02,-282 145.63,-282 131.05,-282"/>
<polygon fill="midnightblue" stroke="midnightblue" points="175.55,-285.5 185.55,-282 175.55,-278.5 175.55,-285.5"/>
</g>
<!-- Node29 -->
<g id="node29" class="node">
<title>Node29</title>
<g id="a_node29"><a xlink:href="group__as__sensor__ov7670.html#ga419a3339eac0f6abb8eafe24e468ae49" target="_top" xlink:title=" ">
<polygon fill="none" stroke="black" points="353,-193.5 353,-212.5 481,-212.5 481,-193.5 353,-193.5"/>
<text text-anchor="middle" x="417" y="-200.5" font-family="Helvetica,sans-Serif" font-size="10.00">as_sensor_ov7670_init</text>
</a>
</g>
</g>
<!-- Node28&#45;&gt;Node29 -->
<g id="edge30" class="edge">
<title>Node28&#45;&gt;Node29</title>
<path fill="none" stroke="midnightblue" d="M540.89,-274.49C537.44,-272.87 534.12,-271.04 531,-269 508.98,-254.59 517.02,-236.41 495,-222 489.12,-218.15 482.53,-215.09 475.75,-212.64"/>
<polygon fill="midnightblue" stroke="midnightblue" points="539.67,-277.78 550.25,-278.36 542.35,-271.31 539.67,-277.78"/>
</g>
<!-- Node34&#45;&gt;Node15 -->
<g id="edge36" class="edge">
<title>Node34&#45;&gt;Node15</title>
<path fill="none" stroke="midnightblue" d="M345.77,-362.17C331.79,-362.4 317.14,-362.65 303.27,-362.88"/>
<polygon fill="midnightblue" stroke="midnightblue" points="345.87,-365.67 355.81,-362 345.76,-358.67 345.87,-365.67"/>
</g>
<!-- Node35&#45;&gt;Node11 -->
<g id="edge38" class="edge">
<title>Node35&#45;&gt;Node11</title>
<path fill="none" stroke="midnightblue" d="M553.94,-413.66C524.9,-419.93 489.53,-427.56 462.16,-433.47"/>
<polygon fill="midnightblue" stroke="midnightblue" points="554.9,-417.04 563.93,-411.51 553.42,-410.2 554.9,-417.04"/>
</g>
<!-- Node35&#45;&gt;Node15 -->
<g id="edge39" class="edge">
<title>Node35&#45;&gt;Node15</title>
<path fill="none" stroke="midnightblue" d="M538.74,-400.75C484.25,-399.08 406.51,-395.16 339,-386 317.26,-383.05 293.27,-378.03 273.91,-373.53"/>
<polygon fill="midnightblue" stroke="midnightblue" points="538.88,-404.26 548.98,-401.05 539.09,-397.26 538.88,-404.26"/>
</g>
</g>
</svg>
