<?xml version="1.0" encoding="UTF-8" standalone="no"?>
<!DOCTYPE svg PUBLIC "-//W3C//DTD SVG 1.1//EN"
 "http://www.w3.org/Graphics/SVG/1.1/DTD/svg11.dtd">
<!-- Generated by graphviz version 2.43.0 (0)
 -->
<!-- Title: as_iic_set_scl_div Pages: 1 -->
<svg width="376pt" height="66pt"
 viewBox="0.00 0.00 376.00 66.00" xmlns="http://www.w3.org/2000/svg" xmlns:xlink="http://www.w3.org/1999/xlink">
<g id="graph0" class="graph" transform="scale(1 1) rotate(0) translate(4 62)">
<title>as_iic_set_scl_div</title>
<!-- Node1 -->
<g id="node1" class="node">
<title>Node1</title>
<g id="a_node1"><a xlink:title=" ">
<polygon fill="#bfbfbf" stroke="black" points="0,-19.5 0,-38.5 104,-38.5 104,-19.5 0,-19.5"/>
<text text-anchor="middle" x="52" y="-26.5" font-family="Helvetica,sans-Serif" font-size="10.00">as_iic_set_scl_div</text>
</a>
</g>
</g>
<!-- Node2 -->
<g id="node2" class="node">
<title>Node2</title>
<g id="a_node2"><a xlink:href="group__asterics__support.html#ga8e5c2bfd2e4498d10289377bd94cef07" target="_top" xlink:title=" ">
<polygon fill="none" stroke="black" points="141.5,-38.5 141.5,-57.5 217.5,-57.5 217.5,-38.5 141.5,-38.5"/>
<text text-anchor="middle" x="179.5" y="-45.5" font-family="Helvetica,sans-Serif" font-size="10.00">as_reg_read</text>
</a>
</g>
</g>
<!-- Node1&#45;&gt;Node2 -->
<g id="edge1" class="edge">
<title>Node1&#45;&gt;Node2</title>
<path fill="none" stroke="midnightblue" d="M104.05,-36.73C113.02,-38.09 122.33,-39.5 131.19,-40.84"/>
<polygon fill="midnightblue" stroke="midnightblue" points="130.94,-44.34 141.36,-42.38 131.99,-37.42 130.94,-44.34"/>
</g>
<!-- Node4 -->
<g id="node4" class="node">
<title>Node4</title>
<g id="a_node4"><a xlink:href="group__asterics__support.html#ga6345b997e24a6cd5f9143cef27629d49" target="_top" xlink:title=" ">
<polygon fill="none" stroke="black" points="140,-0.5 140,-19.5 219,-19.5 219,-0.5 140,-0.5"/>
<text text-anchor="middle" x="179.5" y="-7.5" font-family="Helvetica,sans-Serif" font-size="10.00">as_reg_write</text>
</a>
</g>
</g>
<!-- Node1&#45;&gt;Node4 -->
<g id="edge3" class="edge">
<title>Node1&#45;&gt;Node4</title>
<path fill="none" stroke="midnightblue" d="M104.05,-21.27C112.54,-19.99 121.32,-18.66 129.76,-17.38"/>
<polygon fill="midnightblue" stroke="midnightblue" points="130.46,-20.81 139.82,-15.86 129.41,-13.89 130.46,-20.81"/>
</g>
<!-- Node3 -->
<g id="node3" class="node">
<title>Node3</title>
<g id="a_node3"><a xlink:href="group__asterics__support.html#ga4c6d688b840a6e2edc9bc0b8ed961677" target="_top" xlink:title=" ">
<polygon fill="none" stroke="black" points="261.5,-38.5 261.5,-57.5 361.5,-57.5 361.5,-38.5 261.5,-38.5"/>
<text text-anchor="middle" x="311.5" y="-45.5" font-family="Helvetica,sans-Serif" font-size="10.00">as_reg_to_uint32</text>
</a>
</g>
</g>
<!-- Node2&#45;&gt;Node3 -->
<g id="edge2" class="edge">
<title>Node2&#45;&gt;Node3</title>
<path fill="none" stroke="midnightblue" d="M217.75,-48C228.09,-48 239.59,-48 250.86,-48"/>
<polygon fill="midnightblue" stroke="midnightblue" points="251.12,-51.5 261.12,-48 251.12,-44.5 251.12,-51.5"/>
</g>
<!-- Node5 -->
<g id="node5" class="node">
<title>Node5</title>
<g id="a_node5"><a xlink:href="group__asterics__support.html#gab651cc2c035ce61b354578434e59f822" target="_top" xlink:title=" ">
<polygon fill="none" stroke="black" points="255,-0.5 255,-19.5 368,-19.5 368,-0.5 255,-0.5"/>
<text text-anchor="middle" x="311.5" y="-7.5" font-family="Helvetica,sans-Serif" font-size="10.00">as_reg_from_uint32</text>
</a>
</g>
</g>
<!-- Node4&#45;&gt;Node5 -->
<g id="edge4" class="edge">
<title>Node4&#45;&gt;Node5</title>
<path fill="none" stroke="midnightblue" d="M219.15,-10C227.22,-10 235.94,-10 244.68,-10"/>
<polygon fill="midnightblue" stroke="midnightblue" points="244.92,-13.5 254.92,-10 244.92,-6.5 244.92,-13.5"/>
</g>
</g>
</svg>
