<?xml version="1.0" encoding="UTF-8" standalone="no"?>
<!DOCTYPE svg PUBLIC "-//W3C//DTD SVG 1.1//EN"
 "http://www.w3.org/Graphics/SVG/1.1/DTD/svg11.dtd">
<!-- Generated by graphviz version 2.43.0 (0)
 -->
<!-- Title: as_iic_ack_received Pages: 1 -->
<svg width="1453pt" height="289pt"
 viewBox="0.00 0.00 1453.00 288.90" xmlns="http://www.w3.org/2000/svg" xmlns:xlink="http://www.w3.org/1999/xlink">
<g id="graph0" class="graph" transform="scale(1 1) rotate(0) translate(4 284.9)">
<title>as_iic_ack_received</title>
<!-- Node1 -->
<g id="node1" class="node">
<title>Node1</title>
<g id="a_node1"><a xlink:title=" ">
<polygon fill="#bfbfbf" stroke="black" points="1331,-152.5 1331,-171.5 1445,-171.5 1445,-152.5 1331,-152.5"/>
<text text-anchor="middle" x="1388" y="-159.5" font-family="Helvetica,sans-Serif" font-size="10.00">as_iic_ack_received</text>
</a>
</g>
</g>
<!-- Node2 -->
<g id="node2" class="node">
<title>Node2</title>
<g id="a_node2"><a xlink:href="group__as__iic__helpers.html#ga1662a1a0b29536bf7d74ede3f73598be" target="_top" xlink:title=" ">
<polygon fill="none" stroke="black" points="966.5,-247.5 966.5,-266.5 1097.5,-266.5 1097.5,-247.5 966.5,-247.5"/>
<text text-anchor="middle" x="1032" y="-254.5" font-family="Helvetica,sans-Serif" font-size="10.00">as_iic_read_transaction</text>
</a>
</g>
</g>
<!-- Node1&#45;&gt;Node2 -->
<g id="edge1" class="edge">
<title>Node1&#45;&gt;Node2</title>
<path fill="none" stroke="midnightblue" d="M1341.39,-174.24C1269.96,-193.41 1133.2,-230.11 1068.54,-247.46"/>
<polygon fill="midnightblue" stroke="midnightblue" points="1342.69,-177.52 1351.44,-171.54 1340.87,-170.76 1342.69,-177.52"/>
</g>
<!-- Node5 -->
<g id="node5" class="node">
<title>Node5</title>
<g id="a_node5"><a xlink:href="group__as__iic__helpers.html#ga53e6050a2c66be89ac23084fd9de9c23" target="_top" xlink:title=" ">
<polygon fill="none" stroke="black" points="966,-171.5 966,-190.5 1098,-190.5 1098,-171.5 966,-171.5"/>
<text text-anchor="middle" x="1032" y="-178.5" font-family="Helvetica,sans-Serif" font-size="10.00">as_iic_start_transaction</text>
</a>
</g>
</g>
<!-- Node1&#45;&gt;Node5 -->
<g id="edge4" class="edge">
<title>Node1&#45;&gt;Node5</title>
<path fill="none" stroke="midnightblue" d="M1320.58,-165.56C1256.91,-168.98 1161.39,-174.11 1098.14,-177.5"/>
<polygon fill="midnightblue" stroke="midnightblue" points="1321.11,-169.04 1330.91,-165.01 1320.73,-162.05 1321.11,-169.04"/>
</g>
<!-- Node24 -->
<g id="node24" class="node">
<title>Node24</title>
<g id="a_node24"><a xlink:href="group__as__iic__helpers.html#ga67cc002a1b20c75dc26f7b328ca5ddc9" target="_top" xlink:title=" ">
<polygon fill="none" stroke="black" points="1134,-133.5 1134,-152.5 1295,-152.5 1295,-133.5 1134,-133.5"/>
<text text-anchor="middle" x="1214.5" y="-140.5" font-family="Helvetica,sans-Serif" font-size="10.00">as_iic_stop_write_transaction</text>
</a>
</g>
</g>
<!-- Node1&#45;&gt;Node24 -->
<g id="edge31" class="edge">
<title>Node1&#45;&gt;Node24</title>
<path fill="none" stroke="midnightblue" d="M1320.76,-154.66C1312.36,-153.73 1303.7,-152.77 1295.12,-151.82"/>
<polygon fill="midnightblue" stroke="midnightblue" points="1320.52,-158.16 1330.84,-155.78 1321.29,-151.2 1320.52,-158.16"/>
</g>
<!-- Node25 -->
<g id="node25" class="node">
<title>Node25</title>
<g id="a_node25"><a xlink:href="group__as__iic__helpers.html#gad5e0aa9a71f8f0f65e1fbded8134b11f" target="_top" xlink:title=" ">
<polygon fill="none" stroke="black" points="1147.5,-57.5 1147.5,-76.5 1281.5,-76.5 1281.5,-57.5 1147.5,-57.5"/>
<text text-anchor="middle" x="1214.5" y="-64.5" font-family="Helvetica,sans-Serif" font-size="10.00">as_iic_write_transaction</text>
</a>
</g>
</g>
<!-- Node1&#45;&gt;Node25 -->
<g id="edge36" class="edge">
<title>Node1&#45;&gt;Node25</title>
<path fill="none" stroke="midnightblue" d="M1360.77,-147.47C1325.24,-127.79 1262.78,-93.19 1232.68,-76.52"/>
<polygon fill="midnightblue" stroke="midnightblue" points="1359.17,-150.58 1369.61,-152.37 1362.56,-144.46 1359.17,-150.58"/>
</g>
<!-- Node3 -->
<g id="node3" class="node">
<title>Node3</title>
<g id="a_node3"><a xlink:href="group__as__iic__user.html#ga76b6915b73f14abb8a200df4eefde6f3" target="_top" xlink:title=" ">
<polygon fill="none" stroke="black" points="817,-247.5 817,-266.5 915,-266.5 915,-247.5 817,-247.5"/>
<text text-anchor="middle" x="866" y="-254.5" font-family="Helvetica,sans-Serif" font-size="10.00">as_iic_get_bytes</text>
</a>
</g>
</g>
<!-- Node2&#45;&gt;Node3 -->
<g id="edge2" class="edge">
<title>Node2&#45;&gt;Node3</title>
<path fill="none" stroke="midnightblue" d="M956.12,-257C942.2,-257 928.01,-257 915.16,-257"/>
<polygon fill="midnightblue" stroke="midnightblue" points="956.18,-260.5 966.18,-257 956.18,-253.5 956.18,-260.5"/>
</g>
<!-- Node4 -->
<g id="node4" class="node">
<title>Node4</title>
<g id="a_node4"><a xlink:href="group__as__iic__user.html#ga987a7c89e5d900225a42f04583e0cfe7" target="_top" xlink:title=" ">
<polygon fill="none" stroke="black" points="531,-209.5 531,-228.5 629,-228.5 629,-209.5 531,-209.5"/>
<text text-anchor="middle" x="580" y="-216.5" font-family="Helvetica,sans-Serif" font-size="10.00">as_iic_read_regs</text>
</a>
</g>
</g>
<!-- Node2&#45;&gt;Node4 -->
<g id="edge3" class="edge">
<title>Node2&#45;&gt;Node4</title>
<path fill="none" stroke="midnightblue" d="M979.82,-268.54C963.94,-271.6 946.32,-274.48 930,-276 873.36,-281.28 858.44,-283.16 802,-276 731.05,-267 650.28,-242.35 608.81,-228.6"/>
<polygon fill="midnightblue" stroke="midnightblue" points="980.85,-271.9 989.97,-266.51 979.48,-265.04 980.85,-271.9"/>
</g>
<!-- Node5&#45;&gt;Node3 -->
<g id="edge17" class="edge">
<title>Node5&#45;&gt;Node3</title>
<path fill="none" stroke="midnightblue" d="M1004.88,-195.47C984.72,-206.39 955.97,-221.41 930,-233 918.35,-238.2 905.2,-243.32 893.94,-247.49"/>
<polygon fill="midnightblue" stroke="midnightblue" points="1006.67,-198.48 1013.77,-190.62 1003.32,-192.33 1006.67,-198.48"/>
</g>
<!-- Node5&#45;&gt;Node4 -->
<g id="edge18" class="edge">
<title>Node5&#45;&gt;Node4</title>
<path fill="none" stroke="midnightblue" d="M976.76,-192.56C961.68,-195.4 945.26,-198.16 930,-200 823.07,-212.91 696.64,-217.05 629.16,-218.38"/>
<polygon fill="midnightblue" stroke="midnightblue" points="977.79,-195.93 986.95,-190.59 976.46,-189.05 977.79,-195.93"/>
</g>
<!-- Node6 -->
<g id="node6" class="node">
<title>Node6</title>
<g id="a_node6"><a xlink:href="group__as__iic__user.html#ga30385c0c387c1629188745edf9c824c1" target="_top" xlink:title=" ">
<polygon fill="none" stroke="black" points="806.5,-171.5 806.5,-190.5 925.5,-190.5 925.5,-171.5 806.5,-171.5"/>
<text text-anchor="middle" x="866" y="-178.5" font-family="Helvetica,sans-Serif" font-size="10.00">as_iic_get_byte_mod</text>
</a>
</g>
</g>
<!-- Node5&#45;&gt;Node6 -->
<g id="edge5" class="edge">
<title>Node5&#45;&gt;Node6</title>
<path fill="none" stroke="midnightblue" d="M955.71,-181C945.63,-181 935.42,-181 925.69,-181"/>
<polygon fill="midnightblue" stroke="midnightblue" points="955.71,-184.5 965.71,-181 955.71,-177.5 955.71,-184.5"/>
</g>
<!-- Node16 -->
<g id="node16" class="node">
<title>Node16</title>
<g id="a_node16"><a xlink:href="group__as__iic__user.html#ga5c5233652491e648a88292ae73b49ace" target="_top" xlink:title=" ">
<polygon fill="none" stroke="black" points="806,-95.5 806,-114.5 926,-114.5 926,-95.5 806,-95.5"/>
<text text-anchor="middle" x="866" y="-102.5" font-family="Helvetica,sans-Serif" font-size="10.00">as_iic_set_regpointer</text>
</a>
</g>
</g>
<!-- Node5&#45;&gt;Node16 -->
<g id="edge19" class="edge">
<title>Node5&#45;&gt;Node16</title>
<path fill="none" stroke="midnightblue" d="M1007.76,-165.93C987.76,-153.44 957.82,-135.87 930,-124 921.59,-120.41 912.29,-117.21 903.47,-114.51"/>
<polygon fill="midnightblue" stroke="midnightblue" points="1006.15,-169.04 1016.47,-171.43 1009.89,-163.13 1006.15,-169.04"/>
</g>
<!-- Node17 -->
<g id="node17" class="node">
<title>Node17</title>
<g id="a_node17"><a xlink:href="group__as__iic__user.html#ga08fcff0dba9d6b4898291746d2206408" target="_top" xlink:title=" ">
<polygon fill="none" stroke="black" points="802,-133.5 802,-152.5 930,-152.5 930,-133.5 802,-133.5"/>
<text text-anchor="middle" x="866" y="-140.5" font-family="Helvetica,sans-Serif" font-size="10.00">as_iic_write_byte_mod</text>
</a>
</g>
</g>
<!-- Node5&#45;&gt;Node17 -->
<g id="edge20" class="edge">
<title>Node5&#45;&gt;Node17</title>
<path fill="none" stroke="midnightblue" d="M979.66,-169.1C956.61,-163.76 929.78,-157.55 908.09,-152.52"/>
<polygon fill="midnightblue" stroke="midnightblue" points="979.08,-172.56 989.62,-171.41 980.66,-165.74 979.08,-172.56"/>
</g>
<!-- Node19 -->
<g id="node19" class="node">
<title>Node19</title>
<g id="a_node19"><a xlink:href="group__as__iic__user.html#ga2a4e5ee19e84cc95de665e29b92ccda1" target="_top" xlink:title=" ">
<polygon fill="none" stroke="black" points="812.5,-57.5 812.5,-76.5 919.5,-76.5 919.5,-57.5 812.5,-57.5"/>
<text text-anchor="middle" x="866" y="-64.5" font-family="Helvetica,sans-Serif" font-size="10.00">as_iic_write_bytes</text>
</a>
</g>
</g>
<!-- Node5&#45;&gt;Node19 -->
<g id="edge24" class="edge">
<title>Node5&#45;&gt;Node19</title>
<path fill="none" stroke="midnightblue" d="M1016.9,-163.49C998.88,-142.22 965.72,-106.64 930,-86 923.37,-82.17 915.9,-79.05 908.48,-76.52"/>
<polygon fill="midnightblue" stroke="midnightblue" points="1014.37,-165.93 1023.45,-171.39 1019.76,-161.46 1014.37,-165.93"/>
</g>
<!-- Node7 -->
<g id="node7" class="node">
<title>Node7</title>
<g id="a_node7"><a xlink:href="group__as__iic__user.html#gacf3e3b915e1f15ed8bdc60ab4c129996" target="_top" xlink:title=" ">
<polygon fill="none" stroke="black" points="669.5,-171.5 669.5,-190.5 761.5,-190.5 761.5,-171.5 669.5,-171.5"/>
<text text-anchor="middle" x="715.5" y="-178.5" font-family="Helvetica,sans-Serif" font-size="10.00">as_iic_get_byte</text>
</a>
</g>
</g>
<!-- Node6&#45;&gt;Node7 -->
<g id="edge6" class="edge">
<title>Node6&#45;&gt;Node7</title>
<path fill="none" stroke="midnightblue" d="M796.18,-181C784.56,-181 772.77,-181 761.94,-181"/>
<polygon fill="midnightblue" stroke="midnightblue" points="796.31,-184.5 806.31,-181 796.31,-177.5 796.31,-184.5"/>
</g>
<!-- Node8 -->
<g id="node8" class="node">
<title>Node8</title>
<g id="a_node8"><a xlink:href="group__as__iic__user.html#ga812d9e16a61b39777a5fbffc7eccbc8d" target="_top" xlink:title=" ">
<polygon fill="none" stroke="black" points="534,-152.5 534,-171.5 626,-171.5 626,-152.5 534,-152.5"/>
<text text-anchor="middle" x="580" y="-159.5" font-family="Helvetica,sans-Serif" font-size="10.00">as_iic_read_reg</text>
</a>
</g>
</g>
<!-- Node7&#45;&gt;Node8 -->
<g id="edge7" class="edge">
<title>Node7&#45;&gt;Node8</title>
<path fill="none" stroke="midnightblue" d="M659.32,-173.15C648.28,-171.58 636.8,-169.94 626.15,-168.43"/>
<polygon fill="midnightblue" stroke="midnightblue" points="658.91,-176.62 669.3,-174.57 659.9,-169.69 658.91,-176.62"/>
</g>
<!-- Node9 -->
<g id="node9" class="node">
<title>Node9</title>
<g id="a_node9"><a xlink:href="as__sensor__ov7670_8c.html#acb25afaea3e81940c50e327c45921f08" target="_top" xlink:title=" ">
<polygon fill="none" stroke="black" points="384,-152.5 384,-171.5 495,-171.5 495,-152.5 384,-152.5"/>
<text text-anchor="middle" x="439.5" y="-159.5" font-family="Helvetica,sans-Serif" font-size="10.00">ov7670_iic_reg_get</text>
</a>
</g>
</g>
<!-- Node8&#45;&gt;Node9 -->
<g id="edge8" class="edge">
<title>Node8&#45;&gt;Node9</title>
<path fill="none" stroke="midnightblue" d="M523.63,-162C514.24,-162 504.5,-162 495.13,-162"/>
<polygon fill="midnightblue" stroke="midnightblue" points="523.65,-165.5 533.65,-162 523.65,-158.5 523.65,-165.5"/>
</g>
<!-- Node10 -->
<g id="node10" class="node">
<title>Node10</title>
<g id="a_node10"><a xlink:href="group__as__sensor__ov7670.html#ga55b52e2499f96009197bfe90af6c7a41" target="_top" xlink:title=" ">
<polygon fill="none" stroke="black" points="164,-76.5 164,-95.5 348,-95.5 348,-76.5 164,-76.5"/>
<text text-anchor="middle" x="256" y="-83.5" font-family="Helvetica,sans-Serif" font-size="10.00">as_sensor_ov7670_exposure_auto</text>
</a>
</g>
</g>
<!-- Node9&#45;&gt;Node10 -->
<g id="edge9" class="edge">
<title>Node9&#45;&gt;Node10</title>
<path fill="none" stroke="midnightblue" d="M418.04,-146.11C400.41,-133.18 373.8,-115.42 348,-105 338.42,-101.13 327.95,-98.01 317.62,-95.5"/>
<polygon fill="midnightblue" stroke="midnightblue" points="416.29,-149.17 426.39,-152.37 420.48,-143.57 416.29,-149.17"/>
</g>
<!-- Node12 -->
<g id="node12" class="node">
<title>Node12</title>
<g id="a_node12"><a xlink:href="group__as__sensor__ov7670.html#gae1b977db2733432317fee8f0497eb67a" target="_top" xlink:title=" ">
<polygon fill="none" stroke="black" points="167,-190.5 167,-209.5 345,-209.5 345,-190.5 167,-190.5"/>
<text text-anchor="middle" x="256" y="-197.5" font-family="Helvetica,sans-Serif" font-size="10.00">as_sensor_ov7670_exposure_get</text>
</a>
</g>
</g>
<!-- Node9&#45;&gt;Node12 -->
<g id="edge11" class="edge">
<title>Node9&#45;&gt;Node12</title>
<path fill="none" stroke="midnightblue" d="M382.95,-173.67C371.4,-176.1 359.3,-178.63 348,-181 333.31,-184.08 317.28,-187.42 302.83,-190.44"/>
<polygon fill="midnightblue" stroke="midnightblue" points="383.86,-177.06 392.93,-171.58 382.42,-170.21 383.86,-177.06"/>
</g>
<!-- Node13 -->
<g id="node13" class="node">
<title>Node13</title>
<g id="a_node13"><a xlink:href="group__as__sensor__ov7670.html#gadd11863e70497418c9d31c922945cbec" target="_top" xlink:title=" ">
<polygon fill="none" stroke="black" points="176,-114.5 176,-133.5 336,-133.5 336,-114.5 176,-114.5"/>
<text text-anchor="middle" x="256" y="-121.5" font-family="Helvetica,sans-Serif" font-size="10.00">as_sensor_ov7670_gain_auto</text>
</a>
</g>
</g>
<!-- Node9&#45;&gt;Node13 -->
<g id="edge12" class="edge">
<title>Node9&#45;&gt;Node13</title>
<path fill="none" stroke="midnightblue" d="M382.95,-150.33C371.4,-147.9 359.3,-145.37 348,-143 333.31,-139.92 317.28,-136.58 302.83,-133.56"/>
<polygon fill="midnightblue" stroke="midnightblue" points="382.42,-153.79 392.93,-152.42 383.86,-146.94 382.42,-153.79"/>
</g>
<!-- Node14 -->
<g id="node14" class="node">
<title>Node14</title>
<g id="a_node14"><a xlink:href="group__as__sensor__ov7670.html#ga75ee4d998c858b26adae16b8140e8637" target="_top" xlink:title=" ">
<polygon fill="none" stroke="black" points="179,-228.5 179,-247.5 333,-247.5 333,-228.5 179,-228.5"/>
<text text-anchor="middle" x="256" y="-235.5" font-family="Helvetica,sans-Serif" font-size="10.00">as_sensor_ov7670_gain_get</text>
</a>
</g>
</g>
<!-- Node9&#45;&gt;Node14 -->
<g id="edge14" class="edge">
<title>Node9&#45;&gt;Node14</title>
<path fill="none" stroke="midnightblue" d="M418.04,-177.89C400.41,-190.82 373.8,-208.58 348,-219 338.42,-222.87 327.95,-225.99 317.62,-228.5"/>
<polygon fill="midnightblue" stroke="midnightblue" points="420.48,-180.43 426.39,-171.63 416.29,-174.83 420.48,-180.43"/>
</g>
<!-- Node15 -->
<g id="node15" class="node">
<title>Node15</title>
<g id="a_node15"><a xlink:href="as__sensor__ov7670_8c.html#ab5de18dc5dd74817505126a51487b8b1" target="_top" xlink:title=" ">
<polygon fill="none" stroke="black" points="181.5,-152.5 181.5,-171.5 330.5,-171.5 330.5,-152.5 181.5,-152.5"/>
<text text-anchor="middle" x="256" y="-159.5" font-family="Helvetica,sans-Serif" font-size="10.00">as_sensor_ov7670_identify</text>
</a>
</g>
</g>
<!-- Node9&#45;&gt;Node15 -->
<g id="edge15" class="edge">
<title>Node9&#45;&gt;Node15</title>
<path fill="none" stroke="midnightblue" d="M373.16,-162C359.33,-162 344.64,-162 330.53,-162"/>
<polygon fill="midnightblue" stroke="midnightblue" points="373.55,-165.5 383.55,-162 373.55,-158.5 373.55,-165.5"/>
</g>
<!-- Node11 -->
<g id="node11" class="node">
<title>Node11</title>
<g id="a_node11"><a xlink:href="group__as__sensor__ov7670.html#ga419a3339eac0f6abb8eafe24e468ae49" target="_top" xlink:title=" ">
<polygon fill="none" stroke="black" points="0,-114.5 0,-133.5 128,-133.5 128,-114.5 0,-114.5"/>
<text text-anchor="middle" x="64" y="-121.5" font-family="Helvetica,sans-Serif" font-size="10.00">as_sensor_ov7670_init</text>
</a>
</g>
</g>
<!-- Node10&#45;&gt;Node11 -->
<g id="edge10" class="edge">
<title>Node10&#45;&gt;Node11</title>
<path fill="none" stroke="midnightblue" d="M196.95,-97.61C169.93,-103.01 138.18,-109.36 112.6,-114.48"/>
<polygon fill="midnightblue" stroke="midnightblue" points="197.94,-100.98 207.05,-95.59 196.56,-94.12 197.94,-100.98"/>
</g>
<!-- Node13&#45;&gt;Node11 -->
<g id="edge13" class="edge">
<title>Node13&#45;&gt;Node11</title>
<path fill="none" stroke="midnightblue" d="M165.68,-124C153.01,-124 140.21,-124 128.17,-124"/>
<polygon fill="midnightblue" stroke="midnightblue" points="165.8,-127.5 175.8,-124 165.8,-120.5 165.8,-127.5"/>
</g>
<!-- Node15&#45;&gt;Node11 -->
<g id="edge16" class="edge">
<title>Node15&#45;&gt;Node11</title>
<path fill="none" stroke="midnightblue" d="M196.95,-150.39C169.93,-144.99 138.18,-138.64 112.6,-133.52"/>
<polygon fill="midnightblue" stroke="midnightblue" points="196.56,-153.88 207.05,-152.41 197.94,-147.02 196.56,-153.88"/>
</g>
<!-- Node18 -->
<g id="node18" class="node">
<title>Node18</title>
<g id="a_node18"><a xlink:href="group__as__iic__user.html#ga35cd65c29b1f4abd1ca87ca51605e5cc" target="_top" xlink:title=" ">
<polygon fill="none" stroke="black" points="665,-133.5 665,-152.5 766,-152.5 766,-133.5 665,-133.5"/>
<text text-anchor="middle" x="715.5" y="-140.5" font-family="Helvetica,sans-Serif" font-size="10.00">as_iic_write_byte</text>
</a>
</g>
</g>
<!-- Node17&#45;&gt;Node18 -->
<g id="edge21" class="edge">
<title>Node17&#45;&gt;Node18</title>
<path fill="none" stroke="midnightblue" d="M791.55,-143C782.97,-143 774.38,-143 766.23,-143"/>
<polygon fill="midnightblue" stroke="midnightblue" points="791.59,-146.5 801.59,-143 791.59,-139.5 791.59,-146.5"/>
</g>
<!-- Node18&#45;&gt;Node4 -->
<g id="edge23" class="edge">
<title>Node18&#45;&gt;Node4</title>
<path fill="none" stroke="midnightblue" d="M676.83,-156.41C672.78,-158.16 668.76,-160.03 665,-162 637.98,-176.12 609.11,-197.18 593.24,-209.36"/>
<polygon fill="midnightblue" stroke="midnightblue" points="678.32,-159.58 686.26,-152.56 675.67,-153.1 678.32,-159.58"/>
</g>
<!-- Node18&#45;&gt;Node8 -->
<g id="edge22" class="edge">
<title>Node18&#45;&gt;Node8</title>
<path fill="none" stroke="midnightblue" d="M654.6,-151.53C645.11,-152.88 635.43,-154.25 626.34,-155.55"/>
<polygon fill="midnightblue" stroke="midnightblue" points="655.38,-154.95 664.79,-150.07 654.4,-148.02 655.38,-154.95"/>
</g>
<!-- Node20 -->
<g id="node20" class="node">
<title>Node20</title>
<g id="a_node20"><a xlink:href="group__as__iic__user.html#ga5ae8936ee892843eda5df7b9a418bd52" target="_top" xlink:title=" ">
<polygon fill="none" stroke="black" points="668,-57.5 668,-76.5 763,-76.5 763,-57.5 668,-57.5"/>
<text text-anchor="middle" x="715.5" y="-64.5" font-family="Helvetica,sans-Serif" font-size="10.00">as_iic_write_reg</text>
</a>
</g>
</g>
<!-- Node19&#45;&gt;Node20 -->
<g id="edge25" class="edge">
<title>Node19&#45;&gt;Node20</title>
<path fill="none" stroke="midnightblue" d="M801.93,-67C788.94,-67 775.47,-67 763.18,-67"/>
<polygon fill="midnightblue" stroke="midnightblue" points="802.23,-70.5 812.23,-67 802.23,-63.5 802.23,-70.5"/>
</g>
<!-- Node21 -->
<g id="node21" class="node">
<title>Node21</title>
<g id="a_node21"><a xlink:href="as__sensor__ov7670_8c.html#ad5b49e677d2124f73482764e3270bb42" target="_top" xlink:title=" ">
<polygon fill="none" stroke="black" points="384.5,-57.5 384.5,-76.5 494.5,-76.5 494.5,-57.5 384.5,-57.5"/>
<text text-anchor="middle" x="439.5" y="-64.5" font-family="Helvetica,sans-Serif" font-size="10.00">ov7670_iic_reg_set</text>
</a>
</g>
</g>
<!-- Node20&#45;&gt;Node21 -->
<g id="edge26" class="edge">
<title>Node20&#45;&gt;Node21</title>
<path fill="none" stroke="midnightblue" d="M657.51,-67C609.63,-67 541.68,-67 494.62,-67"/>
<polygon fill="midnightblue" stroke="midnightblue" points="657.71,-70.5 667.71,-67 657.71,-63.5 657.71,-70.5"/>
</g>
<!-- Node21&#45;&gt;Node10 -->
<g id="edge27" class="edge">
<title>Node21&#45;&gt;Node10</title>
<path fill="none" stroke="midnightblue" d="M373.97,-73.76C365.55,-74.64 356.81,-75.55 348.07,-76.47"/>
<polygon fill="midnightblue" stroke="midnightblue" points="374.46,-77.22 384.04,-72.7 373.73,-70.26 374.46,-77.22"/>
</g>
<!-- Node21&#45;&gt;Node13 -->
<g id="edge29" class="edge">
<title>Node21&#45;&gt;Node13</title>
<path fill="none" stroke="midnightblue" d="M409.66,-80.78C392.14,-88.73 369.14,-98.42 348,-105 336.29,-108.64 323.51,-111.8 311.33,-114.43"/>
<polygon fill="midnightblue" stroke="midnightblue" points="411.16,-83.94 418.78,-76.58 408.23,-77.58 411.16,-83.94"/>
</g>
<!-- Node22 -->
<g id="node22" class="node">
<title>Node22</title>
<g id="a_node22"><a xlink:href="group__as__sensor__ov7670.html#ga673b948f323ea0a23896c7dc4b0e05e3" target="_top" xlink:title=" ">
<polygon fill="none" stroke="black" points="167.5,-38.5 167.5,-57.5 344.5,-57.5 344.5,-38.5 167.5,-38.5"/>
<text text-anchor="middle" x="256" y="-45.5" font-family="Helvetica,sans-Serif" font-size="10.00">as_sensor_ov7670_exposure_set</text>
</a>
</g>
</g>
<!-- Node21&#45;&gt;Node22 -->
<g id="edge28" class="edge">
<title>Node21&#45;&gt;Node22</title>
<path fill="none" stroke="midnightblue" d="M373.93,-60.24C364.45,-59.25 354.54,-58.21 344.68,-57.18"/>
<polygon fill="midnightblue" stroke="midnightblue" points="373.73,-63.74 384.04,-61.3 374.46,-56.78 373.73,-63.74"/>
</g>
<!-- Node23 -->
<g id="node23" class="node">
<title>Node23</title>
<g id="a_node23"><a xlink:href="group__as__sensor__ov7670.html#ga45e866e9958d1c7d8e0b0dd206f01a9e" target="_top" xlink:title=" ">
<polygon fill="none" stroke="black" points="179.5,-0.5 179.5,-19.5 332.5,-19.5 332.5,-0.5 179.5,-0.5"/>
<text text-anchor="middle" x="256" y="-7.5" font-family="Helvetica,sans-Serif" font-size="10.00">as_sensor_ov7670_gain_set</text>
</a>
</g>
</g>
<!-- Node21&#45;&gt;Node23 -->
<g id="edge30" class="edge">
<title>Node21&#45;&gt;Node23</title>
<path fill="none" stroke="midnightblue" d="M409.66,-53.22C392.14,-45.27 369.14,-35.58 348,-29 336.29,-25.36 323.51,-22.2 311.33,-19.57"/>
<polygon fill="midnightblue" stroke="midnightblue" points="408.23,-56.42 418.78,-57.42 411.16,-50.06 408.23,-56.42"/>
</g>
<!-- Node24&#45;&gt;Node5 -->
<g id="edge33" class="edge">
<title>Node24&#45;&gt;Node5</title>
<path fill="none" stroke="midnightblue" d="M1158.02,-154.68C1132.42,-160.07 1102.42,-166.39 1078.22,-171.48"/>
<polygon fill="midnightblue" stroke="midnightblue" points="1158.89,-158.07 1167.95,-152.59 1157.45,-151.22 1158.89,-158.07"/>
</g>
<!-- Node24&#45;&gt;Node16 -->
<g id="edge32" class="edge">
<title>Node24&#45;&gt;Node16</title>
<path fill="none" stroke="midnightblue" d="M1123.37,-133.12C1061.23,-126.3 980.39,-117.43 926.25,-111.5"/>
<polygon fill="midnightblue" stroke="midnightblue" points="1123.25,-136.62 1133.57,-134.23 1124.01,-129.66 1123.25,-136.62"/>
</g>
<!-- Node24&#45;&gt;Node17 -->
<g id="edge34" class="edge">
<title>Node24&#45;&gt;Node17</title>
<path fill="none" stroke="midnightblue" d="M1123.23,-143C1062.55,-143 984.11,-143 930.08,-143"/>
<polygon fill="midnightblue" stroke="midnightblue" points="1123.57,-146.5 1133.57,-143 1123.57,-139.5 1123.57,-146.5"/>
</g>
<!-- Node24&#45;&gt;Node19 -->
<g id="edge35" class="edge">
<title>Node24&#45;&gt;Node19</title>
<path fill="none" stroke="midnightblue" d="M1169.21,-130.86C1147.77,-125.14 1121.62,-118.41 1098,-113 1037.02,-99.02 966.42,-85.32 919.48,-76.56"/>
<polygon fill="midnightblue" stroke="midnightblue" points="1168.44,-134.28 1179.01,-133.49 1170.26,-127.52 1168.44,-134.28"/>
</g>
<!-- Node25&#45;&gt;Node19 -->
<g id="edge37" class="edge">
<title>Node25&#45;&gt;Node19</title>
<path fill="none" stroke="midnightblue" d="M1137.42,-56.46C1124.3,-55.02 1110.77,-53.77 1098,-53 1039.44,-49.46 1024.52,-48.88 966,-53 950.85,-54.07 934.49,-56.04 919.52,-58.17"/>
<polygon fill="midnightblue" stroke="midnightblue" points="1137.02,-59.94 1147.36,-57.59 1137.82,-52.98 1137.02,-59.94"/>
</g>
</g>
</svg>
