<?xml version="1.0" encoding="UTF-8" standalone="no"?>
<!DOCTYPE svg PUBLIC "-//W3C//DTD SVG 1.1//EN"
 "http://www.w3.org/Graphics/SVG/1.1/DTD/svg11.dtd">
<!-- Generated by graphviz version 2.43.0 (0)
 -->
<!-- Title: as_buffer_inspect Pages: 1 -->
<svg width="632pt" height="132pt"
 viewBox="0.00 0.00 632.00 132.00" xmlns="http://www.w3.org/2000/svg" xmlns:xlink="http://www.w3.org/1999/xlink">
<g id="graph0" class="graph" transform="scale(1 1) rotate(0) translate(4 128)">
<title>as_buffer_inspect</title>
<!-- Node1 -->
<g id="node1" class="node">
<title>Node1</title>
<g id="a_node1"><a xlink:title=" ">
<polygon fill="#bfbfbf" stroke="black" points="521,-52.5 521,-71.5 624,-71.5 624,-52.5 521,-52.5"/>
<text text-anchor="middle" x="572.5" y="-59.5" font-family="Helvetica,sans-Serif" font-size="10.00">as_buffer_inspect</text>
</a>
</g>
</g>
<!-- Node2 -->
<g id="node2" class="node">
<title>Node2</title>
<g id="a_node2"><a xlink:href="as__memio_8c.html#ab93cfbaa1058ea83836b6d052e72ad50" target="_top" xlink:title=" ">
<polygon fill="none" stroke="black" points="330.5,-71.5 330.5,-90.5 483.5,-90.5 483.5,-71.5 330.5,-71.5"/>
<text text-anchor="middle" x="407" y="-78.5" font-family="Helvetica,sans-Serif" font-size="10.00">as_memio_hw_read_update</text>
</a>
</g>
</g>
<!-- Node1&#45;&gt;Node2 -->
<g id="edge1" class="edge">
<title>Node1&#45;&gt;Node2</title>
<path fill="none" stroke="midnightblue" d="M510.57,-69.08C501.81,-70.1 492.71,-71.16 483.71,-72.2"/>
<polygon fill="midnightblue" stroke="midnightblue" points="511.13,-72.54 520.66,-67.91 510.33,-65.59 511.13,-72.54"/>
</g>
<!-- Node5 -->
<g id="node5" class="node">
<title>Node5</title>
<g id="a_node5"><a xlink:href="as__memio_8h.html#affb75145f7c6b1a8baea620d47f62a99" target="_top" xlink:title=" ">
<polygon fill="none" stroke="black" points="182.5,-104.5 182.5,-123.5 277.5,-123.5 277.5,-104.5 182.5,-104.5"/>
<text text-anchor="middle" x="230" y="-111.5" font-family="Helvetica,sans-Serif" font-size="10.00">as_memio_read</text>
</a>
</g>
</g>
<!-- Node1&#45;&gt;Node5 -->
<g id="edge10" class="edge">
<title>Node1&#45;&gt;Node5</title>
<path fill="none" stroke="midnightblue" d="M545.45,-76.39C528.71,-84.89 506.2,-94.93 485,-100 414.12,-116.93 329.09,-117.85 277.6,-116.37"/>
<polygon fill="midnightblue" stroke="midnightblue" points="547.34,-79.35 554.58,-71.62 544.1,-73.15 547.34,-79.35"/>
</g>
<!-- Node7 -->
<g id="node7" class="node">
<title>Node7</title>
<g id="a_node7"><a xlink:href="as__memio_8c.html#a3ae0453041c4a6d406955edd9c7e43f3" target="_top" xlink:title=" ">
<polygon fill="none" stroke="black" points="329,-33.5 329,-52.5 485,-52.5 485,-33.5 329,-33.5"/>
<text text-anchor="middle" x="407" y="-40.5" font-family="Helvetica,sans-Serif" font-size="10.00">as_memio_hw_write_update</text>
</a>
</g>
</g>
<!-- Node1&#45;&gt;Node7 -->
<g id="edge6" class="edge">
<title>Node1&#45;&gt;Node7</title>
<path fill="none" stroke="midnightblue" d="M510.7,-54.94C502.39,-53.97 493.77,-52.97 485.22,-51.97"/>
<polygon fill="midnightblue" stroke="midnightblue" points="510.33,-58.41 520.66,-56.09 511.13,-51.46 510.33,-58.41"/>
</g>
<!-- Node8 -->
<g id="node8" class="node">
<title>Node8</title>
<g id="a_node8"><a xlink:href="as__memio_8h.html#ad5dd4d8bd2c20ea07188bcbb36dd0f87" target="_top" xlink:title=" ">
<polygon fill="none" stroke="black" points="181,-0.5 181,-19.5 279,-19.5 279,-0.5 181,-0.5"/>
<text text-anchor="middle" x="230" y="-7.5" font-family="Helvetica,sans-Serif" font-size="10.00">as_memio_write</text>
</a>
</g>
</g>
<!-- Node1&#45;&gt;Node8 -->
<g id="edge11" class="edge">
<title>Node1&#45;&gt;Node8</title>
<path fill="none" stroke="midnightblue" d="M545.45,-47.61C528.71,-39.11 506.2,-29.07 485,-24 414.77,-7.22 330.64,-6.16 279.01,-7.59"/>
<polygon fill="midnightblue" stroke="midnightblue" points="544.1,-50.85 554.58,-52.38 547.34,-44.65 544.1,-50.85"/>
</g>
<!-- Node3 -->
<g id="node3" class="node">
<title>Node3</title>
<g id="a_node3"><a xlink:href="as__memio_8h.html#a8162b54494988ebca0ff03ff23eddbb7" target="_top" xlink:title=" ">
<polygon fill="none" stroke="black" points="167,-57.5 167,-76.5 293,-76.5 293,-57.5 167,-57.5"/>
<text text-anchor="middle" x="230" y="-64.5" font-family="Helvetica,sans-Serif" font-size="10.00">as_memio_hw_update</text>
</a>
</g>
</g>
<!-- Node2&#45;&gt;Node3 -->
<g id="edge2" class="edge">
<title>Node2&#45;&gt;Node3</title>
<path fill="none" stroke="midnightblue" d="M320.06,-74.12C310.99,-73.4 301.9,-72.67 293.18,-71.97"/>
<polygon fill="midnightblue" stroke="midnightblue" points="320.01,-77.63 330.26,-74.94 320.57,-70.65 320.01,-77.63"/>
</g>
<!-- Node2&#45;&gt;Node5 -->
<g id="edge4" class="edge">
<title>Node2&#45;&gt;Node5</title>
<path fill="none" stroke="midnightblue" d="M345.38,-92.43C323.17,-96.62 298.4,-101.29 277.61,-105.21"/>
<polygon fill="midnightblue" stroke="midnightblue" points="346.2,-95.84 355.38,-90.54 344.91,-88.96 346.2,-95.84"/>
</g>
<!-- Node4 -->
<g id="node4" class="node">
<title>Node4</title>
<g id="a_node4"><a xlink:href="group__memio__file__ops.html#gab0cee6094e9d25645dcab0b9df045467" target="_top" xlink:title=" ">
<polygon fill="none" stroke="black" points="1.5,-57.5 1.5,-76.5 129.5,-76.5 129.5,-57.5 1.5,-57.5"/>
<text text-anchor="middle" x="65.5" y="-64.5" font-family="Helvetica,sans-Serif" font-size="10.00">driver_as_memio_ioctl</text>
</a>
</g>
</g>
<!-- Node3&#45;&gt;Node4 -->
<g id="edge3" class="edge">
<title>Node3&#45;&gt;Node4</title>
<path fill="none" stroke="midnightblue" d="M156.54,-67C147.52,-67 138.36,-67 129.5,-67"/>
<polygon fill="midnightblue" stroke="midnightblue" points="156.64,-70.5 166.64,-67 156.64,-63.5 156.64,-70.5"/>
</g>
<!-- Node6 -->
<g id="node6" class="node">
<title>Node6</title>
<g id="a_node6"><a xlink:href="group__memio__file__ops.html#gabc26947002eedee4c4557faff325074e" target="_top" xlink:title=" ">
<polygon fill="none" stroke="black" points="1.5,-104.5 1.5,-123.5 129.5,-123.5 129.5,-104.5 1.5,-104.5"/>
<text text-anchor="middle" x="65.5" y="-111.5" font-family="Helvetica,sans-Serif" font-size="10.00">driver_as_memio_read</text>
</a>
</g>
</g>
<!-- Node5&#45;&gt;Node6 -->
<g id="edge5" class="edge">
<title>Node5&#45;&gt;Node6</title>
<path fill="none" stroke="midnightblue" d="M172.17,-114C158.46,-114 143.72,-114 129.73,-114"/>
<polygon fill="midnightblue" stroke="midnightblue" points="172.43,-117.5 182.43,-114 172.43,-110.5 172.43,-117.5"/>
</g>
<!-- Node7&#45;&gt;Node3 -->
<g id="edge7" class="edge">
<title>Node7&#45;&gt;Node3</title>
<path fill="none" stroke="midnightblue" d="M326.43,-53.91C315.3,-55.44 303.99,-56.99 293.24,-58.46"/>
<polygon fill="midnightblue" stroke="midnightblue" points="327.15,-57.35 336.58,-52.52 326.2,-50.41 327.15,-57.35"/>
</g>
<!-- Node7&#45;&gt;Node8 -->
<g id="edge8" class="edge">
<title>Node7&#45;&gt;Node8</title>
<path fill="none" stroke="midnightblue" d="M345.3,-31.55C323.64,-27.47 299.55,-22.93 279.1,-19.07"/>
<polygon fill="midnightblue" stroke="midnightblue" points="344.91,-35.04 355.38,-33.46 346.2,-28.16 344.91,-35.04"/>
</g>
<!-- Node9 -->
<g id="node9" class="node">
<title>Node9</title>
<g id="a_node9"><a xlink:href="group__memio__file__ops.html#gafff67fc067850f545e90c7e487f4fbce" target="_top" xlink:title=" ">
<polygon fill="none" stroke="black" points="0,-0.5 0,-19.5 131,-19.5 131,-0.5 0,-0.5"/>
<text text-anchor="middle" x="65.5" y="-7.5" font-family="Helvetica,sans-Serif" font-size="10.00">driver_as_memio_write</text>
</a>
</g>
</g>
<!-- Node8&#45;&gt;Node9 -->
<g id="edge9" class="edge">
<title>Node8&#45;&gt;Node9</title>
<path fill="none" stroke="midnightblue" d="M170.63,-10C157.83,-10 144.21,-10 131.18,-10"/>
<polygon fill="midnightblue" stroke="midnightblue" points="170.68,-13.5 180.68,-10 170.68,-6.5 170.68,-13.5"/>
</g>
</g>
</svg>
