<?xml version="1.0" encoding="UTF-8" standalone="no"?>
<!DOCTYPE svg PUBLIC "-//W3C//DTD SVG 1.1//EN"
 "http://www.w3.org/Graphics/SVG/1.1/DTD/svg11.dtd">
<!-- Generated by graphviz version 2.43.0 (0)
 -->
<!-- Title: data_transfer_update_task Pages: 1 -->
<svg width="399pt" height="47pt"
 viewBox="0.00 0.00 399.00 47.00" xmlns="http://www.w3.org/2000/svg" xmlns:xlink="http://www.w3.org/1999/xlink">
<g id="graph0" class="graph" transform="scale(1 1) rotate(0) translate(4 43)">
<title>data_transfer_update_task</title>
<!-- Node1 -->
<g id="node1" class="node">
<title>Node1</title>
<g id="a_node1"><a xlink:title=" ">
<polygon fill="#bfbfbf" stroke="black" points="244,-0.5 244,-19.5 391,-19.5 391,-0.5 244,-0.5"/>
<text text-anchor="middle" x="317.5" y="-7.5" font-family="Helvetica,sans-Serif" font-size="10.00">data_transfer_update_task</text>
</a>
</g>
</g>
<!-- Node2 -->
<g id="node2" class="node">
<title>Node2</title>
<g id="a_node2"><a xlink:href="group__as__driver.html#ga63672183e1e96c3e415d84daef8616a7" target="_top" xlink:title=" ">
<polygon fill="none" stroke="black" points="124,-19.5 124,-38.5 208,-38.5 208,-19.5 124,-19.5"/>
<text text-anchor="middle" x="166" y="-26.5" font-family="Helvetica,sans-Serif" font-size="10.00">as_handle_irq</text>
</a>
</g>
</g>
<!-- Node1&#45;&gt;Node2 -->
<g id="edge1" class="edge">
<title>Node1&#45;&gt;Node2</title>
<path fill="none" stroke="midnightblue" d="M233.82,-20.51C224.89,-21.64 216.11,-22.76 208,-23.79"/>
<polygon fill="midnightblue" stroke="midnightblue" points="234.46,-23.95 243.94,-19.22 233.58,-17.01 234.46,-23.95"/>
</g>
<!-- Node3 -->
<g id="node3" class="node">
<title>Node3</title>
<g id="a_node3"><a xlink:href="group__as__driver.html#ga6d23d0b288768770efba635a43d7f541" target="_top" xlink:title=" ">
<polygon fill="none" stroke="black" points="0,-0.5 0,-19.5 88,-19.5 88,-0.5 0,-0.5"/>
<text text-anchor="middle" x="44" y="-7.5" font-family="Helvetica,sans-Serif" font-size="10.00">asterics_probe</text>
</a>
</g>
</g>
<!-- Node1&#45;&gt;Node3 -->
<g id="edge3" class="edge">
<title>Node1&#45;&gt;Node3</title>
<path fill="none" stroke="midnightblue" d="M233.67,-10C185.7,-10 127.26,-10 88.25,-10"/>
<polygon fill="midnightblue" stroke="midnightblue" points="233.74,-13.5 243.74,-10 233.74,-6.5 233.74,-13.5"/>
</g>
<!-- Node2&#45;&gt;Node3 -->
<g id="edge2" class="edge">
<title>Node2&#45;&gt;Node3</title>
<path fill="none" stroke="midnightblue" d="M113.78,-20.89C105.19,-19.53 96.36,-18.13 88.01,-16.81"/>
<polygon fill="midnightblue" stroke="midnightblue" points="113.28,-24.35 123.7,-22.46 114.37,-17.44 113.28,-24.35"/>
</g>
</g>
</svg>
