<?xml version="1.0" encoding="UTF-8" standalone="no"?>
<!DOCTYPE svg PUBLIC "-//W3C//DTD SVG 1.1//EN"
 "http://www.w3.org/Graphics/SVG/1.1/DTD/svg11.dtd">
<!-- Generated by graphviz version 2.43.0 (0)
 -->
<!-- Title: driver_as_memio_close Pages: 1 -->
<svg width="860pt" height="142pt"
 viewBox="0.00 0.00 860.00 142.00" xmlns="http://www.w3.org/2000/svg" xmlns:xlink="http://www.w3.org/1999/xlink">
<g id="graph0" class="graph" transform="scale(1 1) rotate(0) translate(4 138)">
<title>driver_as_memio_close</title>
<!-- Node1 -->
<g id="node1" class="node">
<title>Node1</title>
<g id="a_node1"><a xlink:title=" ">
<polygon fill="#bfbfbf" stroke="black" points="0,-76.5 0,-95.5 132,-95.5 132,-76.5 0,-76.5"/>
<text text-anchor="middle" x="66" y="-83.5" font-family="Helvetica,sans-Serif" font-size="10.00">driver_as_memio_close</text>
</a>
</g>
</g>
<!-- Node2 -->
<g id="node2" class="node">
<title>Node2</title>
<g id="a_node2"><a xlink:href="as__memio_8c.html#afc6dfd178448a82b4761ba4c5c0ae368" target="_top" xlink:title=" ">
<polygon fill="none" stroke="black" points="168,-76.5 168,-95.5 266,-95.5 266,-76.5 168,-76.5"/>
<text text-anchor="middle" x="217" y="-83.5" font-family="Helvetica,sans-Serif" font-size="10.00">as_memio_close</text>
</a>
</g>
</g>
<!-- Node1&#45;&gt;Node2 -->
<g id="edge1" class="edge">
<title>Node1&#45;&gt;Node2</title>
<path fill="none" stroke="midnightblue" d="M132.35,-86C140.71,-86 149.22,-86 157.46,-86"/>
<polygon fill="midnightblue" stroke="midnightblue" points="157.72,-89.5 167.72,-86 157.72,-82.5 157.72,-89.5"/>
</g>
<!-- Node3 -->
<g id="node3" class="node">
<title>Node3</title>
<g id="a_node3"><a xlink:href="group__as__buffer.html#ga24266b1c24e9679a68088a917f78ecf8" target="_top" xlink:title=" ">
<polygon fill="none" stroke="black" points="303.5,-114.5 303.5,-133.5 428.5,-133.5 428.5,-114.5 303.5,-114.5"/>
<text text-anchor="middle" x="366" y="-121.5" font-family="Helvetica,sans-Serif" font-size="10.00">as_buffer_obj_destroy</text>
</a>
</g>
</g>
<!-- Node2&#45;&gt;Node3 -->
<g id="edge2" class="edge">
<title>Node2&#45;&gt;Node3</title>
<path fill="none" stroke="midnightblue" d="M255.09,-95.59C274.32,-100.56 297.99,-106.68 318.43,-111.96"/>
<polygon fill="midnightblue" stroke="midnightblue" points="317.61,-115.37 328.17,-114.48 319.37,-108.59 317.61,-115.37"/>
</g>
<!-- Node4 -->
<g id="node4" class="node">
<title>Node4</title>
<g id="a_node4"><a xlink:href="group__asterics__support.html#ga3a2ba9ffa2388da78d024646e73441ff" target="_top" xlink:title=" ">
<polygon fill="none" stroke="black" points="500.5,-104.5 500.5,-123.5 553.5,-123.5 553.5,-104.5 500.5,-104.5"/>
<text text-anchor="middle" x="527" y="-111.5" font-family="Helvetica,sans-Serif" font-size="10.00">as_free</text>
</a>
</g>
</g>
<!-- Node2&#45;&gt;Node4 -->
<g id="edge4" class="edge">
<title>Node2&#45;&gt;Node4</title>
<path fill="none" stroke="midnightblue" d="M266.42,-90.28C309.39,-94.1 373.88,-99.85 430,-105 449.93,-106.83 472.18,-108.91 490.23,-110.61"/>
<polygon fill="midnightblue" stroke="midnightblue" points="490.05,-114.11 500.33,-111.56 490.71,-107.14 490.05,-114.11"/>
</g>
<!-- Node5 -->
<g id="node5" class="node">
<title>Node5</title>
<g id="a_node5"><a xlink:href="group__as__reader__writer.html#ga89e42a53f0db5cf22c8583c8e0c8a074" target="_top" xlink:title="Resets the hardware module.">
<polygon fill="none" stroke="black" points="302,-38.5 302,-57.5 430,-57.5 430,-38.5 302,-38.5"/>
<text text-anchor="middle" x="366" y="-45.5" font-family="Helvetica,sans-Serif" font-size="10.00">as_reader_writer_reset</text>
</a>
</g>
</g>
<!-- Node2&#45;&gt;Node5 -->
<g id="edge5" class="edge">
<title>Node2&#45;&gt;Node5</title>
<path fill="none" stroke="midnightblue" d="M255.09,-76.41C274.32,-71.44 297.99,-65.32 318.43,-60.04"/>
<polygon fill="midnightblue" stroke="midnightblue" points="319.37,-63.41 328.17,-57.52 317.61,-56.63 319.37,-63.41"/>
</g>
<!-- Node3&#45;&gt;Node4 -->
<g id="edge3" class="edge">
<title>Node3&#45;&gt;Node4</title>
<path fill="none" stroke="midnightblue" d="M428.93,-120.11C449.63,-118.8 472,-117.4 490.05,-116.26"/>
<polygon fill="midnightblue" stroke="midnightblue" points="490.37,-119.75 500.13,-115.63 489.93,-112.76 490.37,-119.75"/>
</g>
<!-- Node6 -->
<g id="node6" class="node">
<title>Node6</title>
<g id="a_node6"><a xlink:href="group__asterics__support.html#gaa7520f5b717e163da743500adb2eb0b9" target="_top" xlink:title=" ">
<polygon fill="none" stroke="black" points="481.5,-57.5 481.5,-76.5 572.5,-76.5 572.5,-57.5 481.5,-57.5"/>
<text text-anchor="middle" x="527" y="-64.5" font-family="Helvetica,sans-Serif" font-size="10.00">as_module_reg</text>
</a>
</g>
</g>
<!-- Node5&#45;&gt;Node6 -->
<g id="edge6" class="edge">
<title>Node5&#45;&gt;Node6</title>
<path fill="none" stroke="midnightblue" d="M430.3,-55.56C443.69,-57.16 457.73,-58.84 470.79,-60.4"/>
<polygon fill="midnightblue" stroke="midnightblue" points="470.69,-63.92 481.03,-61.63 471.52,-56.96 470.69,-63.92"/>
</g>
<!-- Node7 -->
<g id="node7" class="node">
<title>Node7</title>
<g id="a_node7"><a xlink:href="group__asterics__support.html#ga0ccb0610d764a95bda989e35fba59490" target="_top" xlink:title=" ">
<polygon fill="none" stroke="black" points="466,-19.5 466,-38.5 588,-38.5 588,-19.5 466,-19.5"/>
<text text-anchor="middle" x="527" y="-26.5" font-family="Helvetica,sans-Serif" font-size="10.00">as_reg_write_masked</text>
</a>
</g>
</g>
<!-- Node5&#45;&gt;Node7 -->
<g id="edge7" class="edge">
<title>Node5&#45;&gt;Node7</title>
<path fill="none" stroke="midnightblue" d="M430.3,-40.44C438.61,-39.44 447.17,-38.42 455.59,-37.41"/>
<polygon fill="midnightblue" stroke="midnightblue" points="456.25,-40.86 465.77,-36.2 455.42,-33.91 456.25,-40.86"/>
</g>
<!-- Node8 -->
<g id="node8" class="node">
<title>Node8</title>
<g id="a_node8"><a xlink:href="group__asterics__support.html#ga8e5c2bfd2e4498d10289377bd94cef07" target="_top" xlink:title=" ">
<polygon fill="none" stroke="black" points="625.5,-38.5 625.5,-57.5 701.5,-57.5 701.5,-38.5 625.5,-38.5"/>
<text text-anchor="middle" x="663.5" y="-45.5" font-family="Helvetica,sans-Serif" font-size="10.00">as_reg_read</text>
</a>
</g>
</g>
<!-- Node7&#45;&gt;Node8 -->
<g id="edge8" class="edge">
<title>Node7&#45;&gt;Node8</title>
<path fill="none" stroke="midnightblue" d="M588.17,-37.5C597.22,-38.78 606.44,-40.08 615.17,-41.31"/>
<polygon fill="midnightblue" stroke="midnightblue" points="614.76,-44.79 625.15,-42.72 615.74,-37.86 614.76,-44.79"/>
</g>
<!-- Node10 -->
<g id="node10" class="node">
<title>Node10</title>
<g id="a_node10"><a xlink:href="group__asterics__support.html#ga6345b997e24a6cd5f9143cef27629d49" target="_top" xlink:title=" ">
<polygon fill="none" stroke="black" points="624,-0.5 624,-19.5 703,-19.5 703,-0.5 624,-0.5"/>
<text text-anchor="middle" x="663.5" y="-7.5" font-family="Helvetica,sans-Serif" font-size="10.00">as_reg_write</text>
</a>
</g>
</g>
<!-- Node7&#45;&gt;Node10 -->
<g id="edge10" class="edge">
<title>Node7&#45;&gt;Node10</title>
<path fill="none" stroke="midnightblue" d="M588.17,-20.5C596.82,-19.28 605.63,-18.03 614.02,-16.85"/>
<polygon fill="midnightblue" stroke="midnightblue" points="614.59,-20.3 624,-15.44 613.61,-13.37 614.59,-20.3"/>
</g>
<!-- Node9 -->
<g id="node9" class="node">
<title>Node9</title>
<g id="a_node9"><a xlink:href="group__asterics__support.html#ga4c6d688b840a6e2edc9bc0b8ed961677" target="_top" xlink:title=" ">
<polygon fill="none" stroke="black" points="745.5,-38.5 745.5,-57.5 845.5,-57.5 845.5,-38.5 745.5,-38.5"/>
<text text-anchor="middle" x="795.5" y="-45.5" font-family="Helvetica,sans-Serif" font-size="10.00">as_reg_to_uint32</text>
</a>
</g>
</g>
<!-- Node8&#45;&gt;Node9 -->
<g id="edge9" class="edge">
<title>Node8&#45;&gt;Node9</title>
<path fill="none" stroke="midnightblue" d="M701.75,-48C712.09,-48 723.59,-48 734.86,-48"/>
<polygon fill="midnightblue" stroke="midnightblue" points="735.12,-51.5 745.12,-48 735.12,-44.5 735.12,-51.5"/>
</g>
<!-- Node11 -->
<g id="node11" class="node">
<title>Node11</title>
<g id="a_node11"><a xlink:href="group__asterics__support.html#gab651cc2c035ce61b354578434e59f822" target="_top" xlink:title=" ">
<polygon fill="none" stroke="black" points="739,-0.5 739,-19.5 852,-19.5 852,-0.5 739,-0.5"/>
<text text-anchor="middle" x="795.5" y="-7.5" font-family="Helvetica,sans-Serif" font-size="10.00">as_reg_from_uint32</text>
</a>
</g>
</g>
<!-- Node10&#45;&gt;Node11 -->
<g id="edge11" class="edge">
<title>Node10&#45;&gt;Node11</title>
<path fill="none" stroke="midnightblue" d="M703.15,-10C711.22,-10 719.94,-10 728.68,-10"/>
<polygon fill="midnightblue" stroke="midnightblue" points="728.92,-13.5 738.92,-10 728.92,-6.5 728.92,-13.5"/>
</g>
</g>
</svg>
