<?xml version="1.0" encoding="UTF-8" standalone="no"?>
<!DOCTYPE svg PUBLIC "-//W3C//DTD SVG 1.1//EN"
 "http://www.w3.org/Graphics/SVG/1.1/DTD/svg11.dtd">
<!-- Generated by graphviz version 2.43.0 (0)
 -->
<!-- Title: as_sensor_ov7670_gain_get Pages: 1 -->
<svg width="1892pt" height="446pt"
 viewBox="0.00 0.00 1892.00 446.13" xmlns="http://www.w3.org/2000/svg" xmlns:xlink="http://www.w3.org/1999/xlink">
<g id="graph0" class="graph" transform="scale(1 1) rotate(0) translate(4 442.13)">
<title>as_sensor_ov7670_gain_get</title>
<!-- Node1 -->
<g id="node1" class="node">
<title>Node1</title>
<g id="a_node1"><a xlink:title=" ">
<polygon fill="#bfbfbf" stroke="black" points="0,-295.68 0,-314.68 154,-314.68 154,-295.68 0,-295.68"/>
<text text-anchor="middle" x="77" y="-302.68" font-family="Helvetica,sans-Serif" font-size="10.00">as_sensor_ov7670_gain_get</text>
</a>
</g>
</g>
<!-- Node2 -->
<g id="node2" class="node">
<title>Node2</title>
<g id="a_node2"><a xlink:href="as__sensor__ov7670_8c.html#a4af880494f665dfc2d878bcd991246d3" target="_top" xlink:title=" ">
<polygon fill="none" stroke="black" points="190,-314.68 190,-333.68 324,-333.68 324,-314.68 190,-314.68"/>
<text text-anchor="middle" x="257" y="-321.68" font-family="Helvetica,sans-Serif" font-size="10.00">ov7670_get_iic_channel</text>
</a>
</g>
</g>
<!-- Node1&#45;&gt;Node2 -->
<g id="edge1" class="edge">
<title>Node1&#45;&gt;Node2</title>
<path fill="none" stroke="midnightblue" d="M154,-313.29C162.56,-314.2 171.28,-315.13 179.84,-316.05"/>
<polygon fill="midnightblue" stroke="midnightblue" points="179.48,-319.53 189.8,-317.11 180.22,-312.57 179.48,-319.53"/>
</g>
<!-- Node3 -->
<g id="node3" class="node">
<title>Node3</title>
<g id="a_node3"><a xlink:href="as__sensor__ov7670_8c.html#acb25afaea3e81940c50e327c45921f08" target="_top" xlink:title=" ">
<polygon fill="none" stroke="black" points="201.5,-276.68 201.5,-295.68 312.5,-295.68 312.5,-276.68 201.5,-276.68"/>
<text text-anchor="middle" x="257" y="-283.68" font-family="Helvetica,sans-Serif" font-size="10.00">ov7670_iic_reg_get</text>
</a>
</g>
</g>
<!-- Node1&#45;&gt;Node3 -->
<g id="edge2" class="edge">
<title>Node1&#45;&gt;Node3</title>
<path fill="none" stroke="midnightblue" d="M154,-297.06C166.41,-295.74 179.15,-294.38 191.25,-293.09"/>
<polygon fill="midnightblue" stroke="midnightblue" points="191.67,-296.56 201.24,-292.02 190.93,-289.6 191.67,-296.56"/>
</g>
<!-- Node4 -->
<g id="node4" class="node">
<title>Node4</title>
<g id="a_node4"><a xlink:href="group__as__iic__user.html#ga812d9e16a61b39777a5fbffc7eccbc8d" target="_top" xlink:title=" ">
<polygon fill="none" stroke="black" points="360,-276.68 360,-295.68 452,-295.68 452,-276.68 360,-276.68"/>
<text text-anchor="middle" x="406" y="-283.68" font-family="Helvetica,sans-Serif" font-size="10.00">as_iic_read_reg</text>
</a>
</g>
</g>
<!-- Node3&#45;&gt;Node4 -->
<g id="edge3" class="edge">
<title>Node3&#45;&gt;Node4</title>
<path fill="none" stroke="midnightblue" d="M312.74,-286.18C324.73,-286.18 337.44,-286.18 349.47,-286.18"/>
<polygon fill="midnightblue" stroke="midnightblue" points="349.83,-289.68 359.83,-286.18 349.83,-282.68 349.83,-289.68"/>
</g>
<!-- Node5 -->
<g id="node5" class="node">
<title>Node5</title>
<g id="a_node5"><a xlink:href="group__as__iic__user.html#gacf3e3b915e1f15ed8bdc60ab4c129996" target="_top" xlink:title=" ">
<polygon fill="none" stroke="black" points="492.5,-238.68 492.5,-257.68 584.5,-257.68 584.5,-238.68 492.5,-238.68"/>
<text text-anchor="middle" x="538.5" y="-245.68" font-family="Helvetica,sans-Serif" font-size="10.00">as_iic_get_byte</text>
</a>
</g>
</g>
<!-- Node4&#45;&gt;Node5 -->
<g id="edge4" class="edge">
<title>Node4&#45;&gt;Node5</title>
<path fill="none" stroke="midnightblue" d="M439.93,-276.59C456.62,-271.73 477.09,-265.77 494.96,-260.56"/>
<polygon fill="midnightblue" stroke="midnightblue" points="495.96,-263.92 504.58,-257.76 494,-257.2 495.96,-263.92"/>
</g>
<!-- Node14 -->
<g id="node14" class="node">
<title>Node14</title>
<g id="a_node14"><a xlink:href="group__asterics__support.html#gab803703ab5b845023ca31b7b2664419c" target="_top" xlink:title=" ">
<polygon fill="none" stroke="black" points="1358,-311.68 1358,-330.68 1417,-330.68 1417,-311.68 1358,-311.68"/>
<text text-anchor="middle" x="1387.5" y="-318.68" font-family="Helvetica,sans-Serif" font-size="10.00">as_sleep</text>
</a>
</g>
</g>
<!-- Node4&#45;&gt;Node14 -->
<g id="edge49" class="edge">
<title>Node4&#45;&gt;Node14</title>
<path fill="none" stroke="midnightblue" d="M417.3,-295.8C452.26,-327.43 570.82,-426.18 688,-426.18 688,-426.18 688,-426.18 1038.5,-426.18 1154.14,-426.18 1196.53,-462.64 1298,-407.18 1321.4,-394.39 1314.98,-377.87 1334,-359.18 1342.51,-350.81 1352.99,-342.85 1362.33,-336.4"/>
<polygon fill="midnightblue" stroke="midnightblue" points="1364.48,-339.18 1370.85,-330.71 1360.59,-333.35 1364.48,-339.18"/>
</g>
<!-- Node29 -->
<g id="node29" class="node">
<title>Node29</title>
<g id="a_node29"><a xlink:href="group__as__iic__user.html#ga35cd65c29b1f4abd1ca87ca51605e5cc" target="_top" xlink:title=" ">
<polygon fill="none" stroke="black" points="488,-276.68 488,-295.68 589,-295.68 589,-276.68 488,-276.68"/>
<text text-anchor="middle" x="538.5" y="-283.68" font-family="Helvetica,sans-Serif" font-size="10.00">as_iic_write_byte</text>
</a>
</g>
</g>
<!-- Node4&#45;&gt;Node29 -->
<g id="edge45" class="edge">
<title>Node4&#45;&gt;Node29</title>
<path fill="none" stroke="midnightblue" d="M452.28,-286.18C460.44,-286.18 469.07,-286.18 477.57,-286.18"/>
<polygon fill="midnightblue" stroke="midnightblue" points="477.85,-289.68 487.85,-286.18 477.85,-282.68 477.85,-289.68"/>
</g>
<!-- Node6 -->
<g id="node6" class="node">
<title>Node6</title>
<g id="a_node6"><a xlink:href="group__as__iic__user.html#ga30385c0c387c1629188745edf9c824c1" target="_top" xlink:title=" ">
<polygon fill="none" stroke="black" points="629.5,-219.68 629.5,-238.68 748.5,-238.68 748.5,-219.68 629.5,-219.68"/>
<text text-anchor="middle" x="689" y="-226.68" font-family="Helvetica,sans-Serif" font-size="10.00">as_iic_get_byte_mod</text>
</a>
</g>
</g>
<!-- Node5&#45;&gt;Node6 -->
<g id="edge5" class="edge">
<title>Node5&#45;&gt;Node6</title>
<path fill="none" stroke="midnightblue" d="M584.86,-242.37C595.75,-240.98 607.61,-239.46 619.3,-237.97"/>
<polygon fill="midnightblue" stroke="midnightblue" points="620.01,-241.41 629.49,-236.66 619.12,-234.46 620.01,-241.41"/>
</g>
<!-- Node7 -->
<g id="node7" class="node">
<title>Node7</title>
<g id="a_node7"><a xlink:href="group__as__iic__helpers.html#ga53e6050a2c66be89ac23084fd9de9c23" target="_top" xlink:title=" ">
<polygon fill="none" stroke="black" points="789,-219.68 789,-238.68 921,-238.68 921,-219.68 789,-219.68"/>
<text text-anchor="middle" x="855" y="-226.68" font-family="Helvetica,sans-Serif" font-size="10.00">as_iic_start_transaction</text>
</a>
</g>
</g>
<!-- Node6&#45;&gt;Node7 -->
<g id="edge6" class="edge">
<title>Node6&#45;&gt;Node7</title>
<path fill="none" stroke="midnightblue" d="M748.74,-229.18C758.53,-229.18 768.8,-229.18 778.93,-229.18"/>
<polygon fill="midnightblue" stroke="midnightblue" points="778.99,-232.68 788.99,-229.18 778.99,-225.68 778.99,-232.68"/>
</g>
<!-- Node27 -->
<g id="node27" class="node">
<title>Node27</title>
<g id="a_node27"><a xlink:href="group__as__iic__helpers.html#gaa8ce9ac10b8c2ca9b614110ca5cbeff5" target="_top" xlink:title=" ">
<polygon fill="none" stroke="black" points="958.5,-62.68 958.5,-81.68 1116.5,-81.68 1116.5,-62.68 958.5,-62.68"/>
<text text-anchor="middle" x="1037.5" y="-69.68" font-family="Helvetica,sans-Serif" font-size="10.00">as_iic_stop_read_transaction</text>
</a>
</g>
</g>
<!-- Node6&#45;&gt;Node27 -->
<g id="edge38" class="edge">
<title>Node6&#45;&gt;Node27</title>
<path fill="none" stroke="midnightblue" d="M706.72,-219.59C748.1,-196.16 859.04,-135.04 957,-96.18 967.57,-91.98 979.17,-88.1 990.16,-84.73"/>
<polygon fill="midnightblue" stroke="midnightblue" points="991.46,-87.99 1000.04,-81.78 989.46,-81.28 991.46,-87.99"/>
</g>
<!-- Node8 -->
<g id="node8" class="node">
<title>Node8</title>
<g id="a_node8"><a xlink:href="group__as__iic__bitchecks.html#gaa4e8718c748b5a7e956a38ffd6dbe15d" target="_top" xlink:title=" ">
<polygon fill="none" stroke="black" points="1169,-340.68 1169,-359.68 1283,-359.68 1283,-340.68 1169,-340.68"/>
<text text-anchor="middle" x="1226" y="-347.68" font-family="Helvetica,sans-Serif" font-size="10.00">as_iic_ack_received</text>
</a>
</g>
</g>
<!-- Node7&#45;&gt;Node8 -->
<g id="edge7" class="edge">
<title>Node7&#45;&gt;Node8</title>
<path fill="none" stroke="midnightblue" d="M863.35,-238.88C878.48,-258.03 915.21,-300.44 957,-319.18 1021.27,-348 1102.52,-353.65 1158.62,-353.42"/>
<polygon fill="midnightblue" stroke="midnightblue" points="1158.83,-356.92 1168.79,-353.31 1158.75,-349.92 1158.83,-356.92"/>
</g>
<!-- Node12 -->
<g id="node12" class="node">
<title>Node12</title>
<g id="a_node12"><a xlink:href="group__as__iic__wait.html#gad3cfec26b8a73166e060108cf1444a2b" target="_top" xlink:title=" ">
<polygon fill="none" stroke="black" points="1167,-253.18 1167,-283.18 1285,-283.18 1285,-253.18 1167,-253.18"/>
<text text-anchor="start" x="1175" y="-271.18" font-family="Helvetica,sans-Serif" font-size="10.00">as_iic_busy_wait_for</text>
<text text-anchor="middle" x="1226" y="-260.18" font-family="Helvetica,sans-Serif" font-size="10.00">_hwready</text>
</a>
</g>
</g>
<!-- Node7&#45;&gt;Node12 -->
<g id="edge11" class="edge">
<title>Node7&#45;&gt;Node12</title>
<path fill="none" stroke="midnightblue" d="M921.12,-236.06C987.34,-243.06 1089.52,-253.86 1156.83,-260.97"/>
<polygon fill="midnightblue" stroke="midnightblue" points="1156.59,-264.47 1166.91,-262.04 1157.33,-257.51 1156.59,-264.47"/>
</g>
<!-- Node13 -->
<g id="node13" class="node">
<title>Node13</title>
<g id="a_node13"><a xlink:href="group__as__iic__user.html#gacdb0c71d0fcfe5e50a7f7316762cd0c0" target="_top" xlink:title=" ">
<polygon fill="none" stroke="black" points="1342,-235.68 1342,-254.68 1433,-254.68 1433,-235.68 1342,-235.68"/>
<text text-anchor="middle" x="1387.5" y="-242.68" font-family="Helvetica,sans-Serif" font-size="10.00">as_iic_is_ready</text>
</a>
</g>
</g>
<!-- Node7&#45;&gt;Node13 -->
<g id="edge23" class="edge">
<title>Node7&#45;&gt;Node13</title>
<path fill="none" stroke="midnightblue" d="M921.05,-231.14C1026.6,-234.32 1233.27,-240.56 1331.77,-243.53"/>
<polygon fill="midnightblue" stroke="midnightblue" points="1331.71,-247.03 1341.81,-243.83 1331.92,-240.03 1331.71,-247.03"/>
</g>
<!-- Node18 -->
<g id="node18" class="node">
<title>Node18</title>
<g id="a_node18"><a xlink:href="group__as__iic__wait.html#ga0bc5aad64893b674c42943fb64d17676" target="_top" xlink:title=" ">
<polygon fill="none" stroke="black" points="1154,-378.68 1154,-397.68 1298,-397.68 1298,-378.68 1154,-378.68"/>
<text text-anchor="middle" x="1226" y="-385.68" font-family="Helvetica,sans-Serif" font-size="10.00">as_iic_busy_wait_for_wait</text>
</a>
</g>
</g>
<!-- Node7&#45;&gt;Node18 -->
<g id="edge18" class="edge">
<title>Node7&#45;&gt;Node18</title>
<path fill="none" stroke="midnightblue" d="M860.98,-239.02C873.49,-262.59 908.7,-322.3 957,-349.18 1013.95,-380.87 1087.81,-389.68 1143.56,-391.09"/>
<polygon fill="midnightblue" stroke="midnightblue" points="1143.69,-394.59 1153.75,-391.27 1143.82,-387.59 1143.69,-394.59"/>
</g>
<!-- Node20 -->
<g id="node20" class="node">
<title>Node20</title>
<g id="a_node20"><a xlink:href="group__as__iic__bitchecks.html#gad90ab4c2ed7fbca8f768c87cdb5794ee" target="_top" xlink:title=" ">
<polygon fill="none" stroke="black" points="982,-138.68 982,-157.68 1093,-157.68 1093,-138.68 982,-138.68"/>
<text text-anchor="middle" x="1037.5" y="-145.68" font-family="Helvetica,sans-Serif" font-size="10.00">as_iic_is_initialized</text>
</a>
</g>
</g>
<!-- Node7&#45;&gt;Node20 -->
<g id="edge22" class="edge">
<title>Node7&#45;&gt;Node20</title>
<path fill="none" stroke="midnightblue" d="M870.53,-219.61C889.7,-207.32 924.78,-185.93 957,-172.18 967.15,-167.84 978.34,-163.96 989.04,-160.63"/>
<polygon fill="midnightblue" stroke="midnightblue" points="990.11,-163.97 998.69,-157.75 988.1,-157.26 990.11,-163.97"/>
</g>
<!-- Node21 -->
<g id="node21" class="node">
<title>Node21</title>
<g id="a_node21"><a xlink:href="group__as__iic__user.html#gae03c311fae3d6a830878a2b0c2c1c2bf" target="_top" xlink:title=" ">
<polygon fill="none" stroke="black" points="1164,-100.68 1164,-119.68 1288,-119.68 1288,-100.68 1164,-100.68"/>
<text text-anchor="middle" x="1226" y="-107.68" font-family="Helvetica,sans-Serif" font-size="10.00">as_iic_reset_hw_state</text>
</a>
</g>
</g>
<!-- Node7&#45;&gt;Node21 -->
<g id="edge24" class="edge">
<title>Node7&#45;&gt;Node21</title>
<path fill="none" stroke="midnightblue" d="M862.14,-219.53C876.05,-198.63 912.28,-149.45 957,-129.18 1019.09,-101.03 1097.64,-98.83 1153.61,-102.12"/>
<polygon fill="midnightblue" stroke="midnightblue" points="1153.58,-105.63 1163.79,-102.8 1154.04,-98.64 1153.58,-105.63"/>
</g>
<!-- Node22 -->
<g id="node22" class="node">
<title>Node22</title>
<g id="a_node22"><a xlink:href="group__as__iic__reg__funcs.html#gac83a48fc09234a7a99adafb1ce565eb0" target="_top" xlink:title=" ">
<polygon fill="none" stroke="black" points="1335.5,-100.68 1335.5,-119.68 1439.5,-119.68 1439.5,-100.68 1335.5,-100.68"/>
<text text-anchor="middle" x="1387.5" y="-107.68" font-family="Helvetica,sans-Serif" font-size="10.00">as_iic_set_control</text>
</a>
</g>
</g>
<!-- Node7&#45;&gt;Node22 -->
<g id="edge28" class="edge">
<title>Node7&#45;&gt;Node22</title>
<path fill="none" stroke="midnightblue" d="M858.18,-219.27C865.59,-188.2 893.04,-92.42 957,-53.18 1086.24,26.11 1154.27,5.09 1298,-43.18 1327.2,-52.98 1354.44,-76.67 1370.78,-93.07"/>
<polygon fill="midnightblue" stroke="midnightblue" points="1368.43,-95.68 1377.89,-100.45 1373.47,-90.82 1368.43,-95.68"/>
</g>
<!-- Node25 -->
<g id="node25" class="node">
<title>Node25</title>
<g id="a_node25"><a xlink:href="group__as__iic__reg__funcs.html#ga8058473baeded71954aa72ee8df24e9b" target="_top" xlink:title=" ">
<polygon fill="none" stroke="black" points="1334,-138.68 1334,-157.68 1441,-157.68 1441,-138.68 1334,-138.68"/>
<text text-anchor="middle" x="1387.5" y="-145.68" font-family="Helvetica,sans-Serif" font-size="10.00">as_iic_set_data_tx</text>
</a>
</g>
</g>
<!-- Node7&#45;&gt;Node25 -->
<g id="edge29" class="edge">
<title>Node7&#45;&gt;Node25</title>
<path fill="none" stroke="midnightblue" d="M918.42,-219.65C1020.36,-204.08 1221.47,-173.38 1323.68,-157.77"/>
<polygon fill="midnightblue" stroke="midnightblue" points="1324.49,-161.19 1333.85,-156.22 1323.44,-154.27 1324.49,-161.19"/>
</g>
<!-- Node26 -->
<g id="node26" class="node">
<title>Node26</title>
<g id="a_node26"><a xlink:href="group__as__iic__helpers.html#ga67cc002a1b20c75dc26f7b328ca5ddc9" target="_top" xlink:title=" ">
<polygon fill="none" stroke="black" points="957,-290.68 957,-309.68 1118,-309.68 1118,-290.68 957,-290.68"/>
<text text-anchor="middle" x="1037.5" y="-297.68" font-family="Helvetica,sans-Serif" font-size="10.00">as_iic_stop_write_transaction</text>
</a>
</g>
</g>
<!-- Node7&#45;&gt;Node26 -->
<g id="edge32" class="edge">
<title>Node7&#45;&gt;Node26</title>
<path fill="none" stroke="midnightblue" d="M874.64,-238.83C894.65,-248.96 927.54,-264.94 957,-276.18 967.94,-280.35 979.94,-284.29 991.22,-287.73"/>
<polygon fill="midnightblue" stroke="midnightblue" points="990.33,-291.11 1000.91,-290.61 992.33,-284.4 990.33,-291.11"/>
</g>
<!-- Node9 -->
<g id="node9" class="node">
<title>Node9</title>
<g id="a_node9"><a xlink:href="group__as__iic__reg__funcs.html#ga8daa8fde0a7776aa2f5b335250b5aa2a" target="_top" xlink:title=" ">
<polygon fill="none" stroke="black" points="1477,-254.68 1477,-273.68 1599,-273.68 1599,-254.68 1477,-254.68"/>
<text text-anchor="middle" x="1538" y="-261.68" font-family="Helvetica,sans-Serif" font-size="10.00">as_iic_get_status_reg</text>
</a>
</g>
</g>
<!-- Node8&#45;&gt;Node9 -->
<g id="edge8" class="edge">
<title>Node8&#45;&gt;Node9</title>
<path fill="none" stroke="midnightblue" d="M1245.04,-340.49C1265.9,-329.67 1301.55,-312.33 1334,-302.18 1377.12,-288.68 1426.99,-279.26 1466.5,-273.18"/>
<polygon fill="midnightblue" stroke="midnightblue" points="1467.21,-276.61 1476.58,-271.66 1466.17,-269.69 1467.21,-276.61"/>
</g>
<!-- Node10 -->
<g id="node10" class="node">
<title>Node10</title>
<g id="a_node10"><a xlink:href="group__asterics__support.html#ga8e5c2bfd2e4498d10289377bd94cef07" target="_top" xlink:title=" ">
<polygon fill="none" stroke="black" points="1653.5,-138.68 1653.5,-157.68 1729.5,-157.68 1729.5,-138.68 1653.5,-138.68"/>
<text text-anchor="middle" x="1691.5" y="-145.68" font-family="Helvetica,sans-Serif" font-size="10.00">as_reg_read</text>
</a>
</g>
</g>
<!-- Node9&#45;&gt;Node10 -->
<g id="edge9" class="edge">
<title>Node9&#45;&gt;Node10</title>
<path fill="none" stroke="midnightblue" d="M1551.66,-254.49C1577.79,-234.48 1637.93,-188.43 1669.8,-164.03"/>
<polygon fill="midnightblue" stroke="midnightblue" points="1672.17,-166.62 1677.99,-157.76 1667.92,-161.06 1672.17,-166.62"/>
</g>
<!-- Node11 -->
<g id="node11" class="node">
<title>Node11</title>
<g id="a_node11"><a xlink:href="group__asterics__support.html#ga4c6d688b840a6e2edc9bc0b8ed961677" target="_top" xlink:title=" ">
<polygon fill="none" stroke="black" points="1784,-138.68 1784,-157.68 1884,-157.68 1884,-138.68 1784,-138.68"/>
<text text-anchor="middle" x="1834" y="-145.68" font-family="Helvetica,sans-Serif" font-size="10.00">as_reg_to_uint32</text>
</a>
</g>
</g>
<!-- Node10&#45;&gt;Node11 -->
<g id="edge10" class="edge">
<title>Node10&#45;&gt;Node11</title>
<path fill="none" stroke="midnightblue" d="M1729.78,-148.18C1743.26,-148.18 1758.83,-148.18 1773.72,-148.18"/>
<polygon fill="midnightblue" stroke="midnightblue" points="1773.89,-151.68 1783.89,-148.18 1773.89,-144.68 1773.89,-151.68"/>
</g>
<!-- Node12&#45;&gt;Node13 -->
<g id="edge12" class="edge">
<title>Node12&#45;&gt;Node13</title>
<path fill="none" stroke="midnightblue" d="M1285.03,-259.81C1300.23,-257.62 1316.57,-255.26 1331.6,-253.09"/>
<polygon fill="midnightblue" stroke="midnightblue" points="1332.37,-256.52 1341.76,-251.63 1331.37,-249.59 1332.37,-256.52"/>
</g>
<!-- Node12&#45;&gt;Node14 -->
<g id="edge14" class="edge">
<title>Node12&#45;&gt;Node14</title>
<path fill="none" stroke="midnightblue" d="M1272.28,-283.22C1296.19,-291.17 1325.21,-300.81 1348.02,-308.39"/>
<polygon fill="midnightblue" stroke="midnightblue" points="1347.11,-311.78 1357.7,-311.61 1349.32,-305.13 1347.11,-311.78"/>
</g>
<!-- Node13&#45;&gt;Node9 -->
<g id="edge13" class="edge">
<title>Node13&#45;&gt;Node9</title>
<path fill="none" stroke="midnightblue" d="M1433.05,-250.88C1443.69,-252.24 1455.31,-253.72 1466.79,-255.19"/>
<polygon fill="midnightblue" stroke="midnightblue" points="1466.46,-258.68 1476.82,-256.48 1467.34,-251.74 1466.46,-258.68"/>
</g>
<!-- Node15 -->
<g id="node15" class="node">
<title>Node15</title>
<g id="a_node15"><a xlink:href="group__asterics__support.html#ga284d9e0d170cf7cabc16ccd7e62d95bd" target="_top" xlink:title=" ">
<polygon fill="none" stroke="black" points="1509.5,-311.68 1509.5,-330.68 1566.5,-330.68 1566.5,-311.68 1509.5,-311.68"/>
<text text-anchor="middle" x="1538" y="-318.68" font-family="Helvetica,sans-Serif" font-size="10.00">as_yield</text>
</a>
</g>
</g>
<!-- Node14&#45;&gt;Node15 -->
<g id="edge15" class="edge">
<title>Node14&#45;&gt;Node15</title>
<path fill="none" stroke="midnightblue" d="M1417.13,-321.18C1440.54,-321.18 1473.82,-321.18 1499.38,-321.18"/>
<polygon fill="midnightblue" stroke="midnightblue" points="1499.46,-324.68 1509.46,-321.18 1499.46,-317.68 1499.46,-324.68"/>
</g>
<!-- Node16 -->
<g id="node16" class="node">
<title>Node16</title>
<g id="a_node16"><a xlink:href="group__asterics__support.html#gad294e0c5530bd6fb800a2394179070e1" target="_top" xlink:title=" ">
<polygon fill="none" stroke="black" points="1646.5,-330.68 1646.5,-349.68 1736.5,-349.68 1736.5,-330.68 1646.5,-330.68"/>
<text text-anchor="middle" x="1691.5" y="-337.68" font-family="Helvetica,sans-Serif" font-size="10.00">as_mutex_lock</text>
</a>
</g>
</g>
<!-- Node15&#45;&gt;Node16 -->
<g id="edge16" class="edge">
<title>Node15&#45;&gt;Node16</title>
<path fill="none" stroke="midnightblue" d="M1566.79,-324.66C1586.13,-327.09 1612.57,-330.4 1636.04,-333.35"/>
<polygon fill="midnightblue" stroke="midnightblue" points="1635.88,-336.85 1646.23,-334.63 1636.75,-329.91 1635.88,-336.85"/>
</g>
<!-- Node17 -->
<g id="node17" class="node">
<title>Node17</title>
<g id="a_node17"><a xlink:href="group__asterics__support.html#ga07e09e825f2608339f6213edb9d0c8b3" target="_top" xlink:title=" ">
<polygon fill="none" stroke="black" points="1640.5,-292.68 1640.5,-311.68 1742.5,-311.68 1742.5,-292.68 1640.5,-292.68"/>
<text text-anchor="middle" x="1691.5" y="-299.68" font-family="Helvetica,sans-Serif" font-size="10.00">as_mutex_unlock</text>
</a>
</g>
</g>
<!-- Node15&#45;&gt;Node17 -->
<g id="edge17" class="edge">
<title>Node15&#45;&gt;Node17</title>
<path fill="none" stroke="midnightblue" d="M1566.79,-317.69C1584.57,-315.46 1608.33,-312.48 1630.28,-309.73"/>
<polygon fill="midnightblue" stroke="midnightblue" points="1630.72,-313.2 1640.21,-308.48 1629.85,-306.26 1630.72,-313.2"/>
</g>
<!-- Node18&#45;&gt;Node14 -->
<g id="edge21" class="edge">
<title>Node18&#45;&gt;Node14</title>
<path fill="none" stroke="midnightblue" d="M1269.21,-378.64C1278.81,-375.98 1288.87,-372.81 1298,-369.18 1320.74,-360.11 1345.09,-346.6 1362.48,-336.22"/>
<polygon fill="midnightblue" stroke="midnightblue" points="1364.64,-339 1371.37,-330.82 1361.01,-333.02 1364.64,-339"/>
</g>
<!-- Node19 -->
<g id="node19" class="node">
<title>Node19</title>
<g id="a_node19"><a xlink:href="group__as__iic__bitchecks.html#ga4629e4514c3531d0bcd44ae20abc6bad" target="_top" xlink:title=" ">
<polygon fill="none" stroke="black" points="1338,-368.68 1338,-387.68 1437,-387.68 1437,-368.68 1338,-368.68"/>
<text text-anchor="middle" x="1387.5" y="-375.68" font-family="Helvetica,sans-Serif" font-size="10.00">as_iic_is_waiting</text>
</a>
</g>
</g>
<!-- Node18&#45;&gt;Node19 -->
<g id="edge19" class="edge">
<title>Node18&#45;&gt;Node19</title>
<path fill="none" stroke="midnightblue" d="M1298.35,-383.7C1308.1,-383.09 1318.01,-382.47 1327.51,-381.88"/>
<polygon fill="midnightblue" stroke="midnightblue" points="1327.85,-385.36 1337.62,-381.24 1327.42,-378.37 1327.85,-385.36"/>
</g>
<!-- Node19&#45;&gt;Node9 -->
<g id="edge20" class="edge">
<title>Node19&#45;&gt;Node9</title>
<path fill="none" stroke="midnightblue" d="M1403.31,-368.55C1414.14,-361.25 1428.98,-350.71 1441,-340.18 1458.5,-324.85 1459.04,-316.96 1477,-302.18 1487.41,-293.61 1499.88,-285.43 1510.75,-278.86"/>
<polygon fill="midnightblue" stroke="midnightblue" points="1512.58,-281.85 1519.42,-273.76 1509.02,-275.82 1512.58,-281.85"/>
</g>
<!-- Node21&#45;&gt;Node22 -->
<g id="edge25" class="edge">
<title>Node21&#45;&gt;Node22</title>
<path fill="none" stroke="midnightblue" d="M1288.21,-110.18C1300.36,-110.18 1313.11,-110.18 1325.26,-110.18"/>
<polygon fill="midnightblue" stroke="midnightblue" points="1325.3,-113.68 1335.3,-110.18 1325.3,-106.68 1325.3,-113.68"/>
</g>
<!-- Node23 -->
<g id="node23" class="node">
<title>Node23</title>
<g id="a_node23"><a xlink:href="group__asterics__support.html#ga6345b997e24a6cd5f9143cef27629d49" target="_top" xlink:title=" ">
<polygon fill="none" stroke="black" points="1498.5,-100.68 1498.5,-119.68 1577.5,-119.68 1577.5,-100.68 1498.5,-100.68"/>
<text text-anchor="middle" x="1538" y="-107.68" font-family="Helvetica,sans-Serif" font-size="10.00">as_reg_write</text>
</a>
</g>
</g>
<!-- Node22&#45;&gt;Node23 -->
<g id="edge26" class="edge">
<title>Node22&#45;&gt;Node23</title>
<path fill="none" stroke="midnightblue" d="M1439.61,-110.18C1455.28,-110.18 1472.49,-110.18 1488.02,-110.18"/>
<polygon fill="midnightblue" stroke="midnightblue" points="1488.47,-113.68 1498.47,-110.18 1488.47,-106.68 1488.47,-113.68"/>
</g>
<!-- Node24 -->
<g id="node24" class="node">
<title>Node24</title>
<g id="a_node24"><a xlink:href="group__asterics__support.html#gab651cc2c035ce61b354578434e59f822" target="_top" xlink:title=" ">
<polygon fill="none" stroke="black" points="1635,-100.68 1635,-119.68 1748,-119.68 1748,-100.68 1635,-100.68"/>
<text text-anchor="middle" x="1691.5" y="-107.68" font-family="Helvetica,sans-Serif" font-size="10.00">as_reg_from_uint32</text>
</a>
</g>
</g>
<!-- Node23&#45;&gt;Node24 -->
<g id="edge27" class="edge">
<title>Node23&#45;&gt;Node24</title>
<path fill="none" stroke="midnightblue" d="M1577.62,-110.18C1591.86,-110.18 1608.43,-110.18 1624.41,-110.18"/>
<polygon fill="midnightblue" stroke="midnightblue" points="1624.79,-113.68 1634.79,-110.18 1624.79,-106.68 1624.79,-113.68"/>
</g>
<!-- Node25&#45;&gt;Node10 -->
<g id="edge30" class="edge">
<title>Node25&#45;&gt;Node10</title>
<path fill="none" stroke="midnightblue" d="M1441.1,-148.18C1498.1,-148.18 1588.22,-148.18 1643.1,-148.18"/>
<polygon fill="midnightblue" stroke="midnightblue" points="1643.25,-151.68 1653.25,-148.18 1643.25,-144.68 1643.25,-151.68"/>
</g>
<!-- Node25&#45;&gt;Node23 -->
<g id="edge31" class="edge">
<title>Node25&#45;&gt;Node23</title>
<path fill="none" stroke="midnightblue" d="M1425.97,-138.59C1445.39,-133.62 1469.3,-127.5 1489.95,-122.22"/>
<polygon fill="midnightblue" stroke="midnightblue" points="1490.98,-125.57 1499.8,-119.7 1489.24,-118.79 1490.98,-125.57"/>
</g>
<!-- Node26&#45;&gt;Node8 -->
<g id="edge33" class="edge">
<title>Node26&#45;&gt;Node8</title>
<path fill="none" stroke="midnightblue" d="M1074.02,-309.7C1104,-317.74 1147.1,-329.29 1179.58,-338"/>
<polygon fill="midnightblue" stroke="midnightblue" points="1178.73,-341.4 1189.3,-340.61 1180.54,-334.64 1178.73,-341.4"/>
</g>
<!-- Node26&#45;&gt;Node12 -->
<g id="edge34" class="edge">
<title>Node26&#45;&gt;Node12</title>
<path fill="none" stroke="midnightblue" d="M1093.95,-290.66C1113.7,-287.27 1136.17,-283.42 1156.85,-279.87"/>
<polygon fill="midnightblue" stroke="midnightblue" points="1157.58,-283.3 1166.85,-278.16 1156.4,-276.4 1157.58,-283.3"/>
</g>
<!-- Node26&#45;&gt;Node14 -->
<g id="edge37" class="edge">
<title>Node26&#45;&gt;Node14</title>
<path fill="none" stroke="midnightblue" d="M1118.34,-305C1190.16,-309.33 1292.62,-315.51 1347.78,-318.84"/>
<polygon fill="midnightblue" stroke="midnightblue" points="1347.64,-322.34 1357.83,-319.45 1348.06,-315.35 1347.64,-322.34"/>
</g>
<!-- Node26&#45;&gt;Node21 -->
<g id="edge35" class="edge">
<title>Node26&#45;&gt;Node21</title>
<path fill="none" stroke="midnightblue" d="M1046.54,-290.51C1064.83,-268.67 1111.33,-214.16 1154,-172.18 1170.58,-155.87 1190.63,-138.56 1205.19,-126.39"/>
<polygon fill="midnightblue" stroke="midnightblue" points="1207.6,-128.94 1213.06,-119.86 1203.13,-123.55 1207.6,-128.94"/>
</g>
<!-- Node26&#45;&gt;Node22 -->
<g id="edge36" class="edge">
<title>Node26&#45;&gt;Node22</title>
<path fill="none" stroke="midnightblue" d="M1053.07,-290.49C1095.21,-262.75 1221.44,-181.61 1334,-129.18 1338.38,-127.14 1343.05,-125.17 1347.72,-123.32"/>
<polygon fill="midnightblue" stroke="midnightblue" points="1349.13,-126.54 1357.24,-119.73 1346.65,-119.99 1349.13,-126.54"/>
</g>
<!-- Node27&#45;&gt;Node12 -->
<g id="edge39" class="edge">
<title>Node27&#45;&gt;Node12</title>
<path fill="none" stroke="midnightblue" d="M1054.78,-81.86C1071.64,-92.31 1098.22,-110.06 1118,-129.18 1155.34,-165.27 1190.42,-214.96 1209.67,-244.12"/>
<polygon fill="midnightblue" stroke="midnightblue" points="1206.96,-246.36 1215.35,-252.82 1212.82,-242.53 1206.96,-246.36"/>
</g>
<!-- Node27&#45;&gt;Node14 -->
<g id="edge44" class="edge">
<title>Node27&#45;&gt;Node14</title>
<path fill="none" stroke="midnightblue" d="M1116.8,-67.91C1183.24,-66.04 1271.84,-68.26 1298,-91.18 1357.08,-142.93 1298.1,-194.33 1334,-264.18 1342.02,-279.78 1355.48,-294.27 1366.77,-304.74"/>
<polygon fill="midnightblue" stroke="midnightblue" points="1364.69,-307.58 1374.49,-311.61 1369.35,-302.35 1364.69,-307.58"/>
</g>
<!-- Node27&#45;&gt;Node21 -->
<g id="edge42" class="edge">
<title>Node27&#45;&gt;Node21</title>
<path fill="none" stroke="midnightblue" d="M1085.56,-81.77C1110.73,-86.89 1141.9,-93.24 1168.38,-98.64"/>
<polygon fill="midnightblue" stroke="midnightblue" points="1167.78,-102.09 1178.28,-100.66 1169.18,-95.23 1167.78,-102.09"/>
</g>
<!-- Node27&#45;&gt;Node22 -->
<g id="edge43" class="edge">
<title>Node27&#45;&gt;Node22</title>
<path fill="none" stroke="midnightblue" d="M1077.12,-62.63C1128.52,-51.6 1221.81,-37.45 1298,-58.18 1323.77,-65.19 1349.7,-81.81 1366.77,-94.39"/>
<polygon fill="midnightblue" stroke="midnightblue" points="1364.76,-97.26 1374.84,-100.53 1369,-91.69 1364.76,-97.26"/>
</g>
<!-- Node28 -->
<g id="node28" class="node">
<title>Node28</title>
<g id="a_node28"><a xlink:href="group__as__iic__reg__funcs.html#gace5813084165559c81fe11db6b628b5e" target="_top" xlink:title=" ">
<polygon fill="none" stroke="black" points="1484.5,-5.68 1484.5,-24.68 1591.5,-24.68 1591.5,-5.68 1484.5,-5.68"/>
<text text-anchor="middle" x="1538" y="-12.68" font-family="Helvetica,sans-Serif" font-size="10.00">as_iic_get_rx_byte</text>
</a>
</g>
</g>
<!-- Node27&#45;&gt;Node28 -->
<g id="edge40" class="edge">
<title>Node27&#45;&gt;Node28</title>
<path fill="none" stroke="midnightblue" d="M1070.55,-62.54C1093.56,-56.02 1125.42,-47.77 1154,-43.18 1265.75,-25.2 1397.71,-18.75 1473.94,-16.45"/>
<polygon fill="midnightblue" stroke="midnightblue" points="1474.42,-19.94 1484.32,-16.15 1474.22,-12.94 1474.42,-19.94"/>
</g>
<!-- Node28&#45;&gt;Node10 -->
<g id="edge41" class="edge">
<title>Node28&#45;&gt;Node10</title>
<path fill="none" stroke="midnightblue" d="M1546.69,-24.9C1567.46,-51.07 1623.9,-121.58 1635,-129.18 1637.86,-131.14 1640.94,-132.91 1644.13,-134.51"/>
<polygon fill="midnightblue" stroke="midnightblue" points="1642.77,-137.74 1653.33,-138.59 1645.61,-131.34 1642.77,-137.74"/>
</g>
<!-- Node30 -->
<g id="node30" class="node">
<title>Node30</title>
<g id="a_node30"><a xlink:href="group__as__iic__user.html#ga08fcff0dba9d6b4898291746d2206408" target="_top" xlink:title=" ">
<polygon fill="none" stroke="black" points="625,-276.68 625,-295.68 753,-295.68 753,-276.68 625,-276.68"/>
<text text-anchor="middle" x="689" y="-283.68" font-family="Helvetica,sans-Serif" font-size="10.00">as_iic_write_byte_mod</text>
</a>
</g>
</g>
<!-- Node29&#45;&gt;Node30 -->
<g id="edge46" class="edge">
<title>Node29&#45;&gt;Node30</title>
<path fill="none" stroke="midnightblue" d="M589.36,-286.18C597.54,-286.18 606.16,-286.18 614.76,-286.18"/>
<polygon fill="midnightblue" stroke="midnightblue" points="614.82,-289.68 624.82,-286.18 614.82,-282.68 614.82,-289.68"/>
</g>
<!-- Node30&#45;&gt;Node7 -->
<g id="edge47" class="edge">
<title>Node30&#45;&gt;Node7</title>
<path fill="none" stroke="midnightblue" d="M717.45,-276.64C744.65,-267.18 786.5,-252.64 816.7,-242.14"/>
<polygon fill="midnightblue" stroke="midnightblue" points="818.16,-245.34 826.46,-238.75 815.87,-238.73 818.16,-245.34"/>
</g>
<!-- Node30&#45;&gt;Node26 -->
<g id="edge48" class="edge">
<title>Node30&#45;&gt;Node26</title>
<path fill="none" stroke="midnightblue" d="M753.15,-288.73C807.22,-290.91 885.71,-294.08 946.38,-296.54"/>
<polygon fill="midnightblue" stroke="midnightblue" points="946.58,-300.05 956.72,-296.95 946.87,-293.05 946.58,-300.05"/>
</g>
</g>
</svg>
