<?xml version="1.0" encoding="UTF-8" standalone="no"?>
<!DOCTYPE svg PUBLIC "-//W3C//DTD SVG 1.1//EN"
 "http://www.w3.org/Graphics/SVG/1.1/DTD/svg11.dtd">
<!-- Generated by graphviz version 2.43.0 (0)
 -->
<!-- Title: as_sensor_ov7670_exposure_set Pages: 1 -->
<svg width="1763pt" height="446pt"
 viewBox="0.00 0.00 1763.00 446.00" xmlns="http://www.w3.org/2000/svg" xmlns:xlink="http://www.w3.org/1999/xlink">
<g id="graph0" class="graph" transform="scale(1 1) rotate(0) translate(4 442)">
<title>as_sensor_ov7670_exposure_set</title>
<!-- Node1 -->
<g id="node1" class="node">
<title>Node1</title>
<g id="a_node1"><a xlink:title=" ">
<polygon fill="#bfbfbf" stroke="black" points="0,-171.5 0,-190.5 177,-190.5 177,-171.5 0,-171.5"/>
<text text-anchor="middle" x="88.5" y="-178.5" font-family="Helvetica,sans-Serif" font-size="10.00">as_sensor_ov7670_exposure_set</text>
</a>
</g>
</g>
<!-- Node2 -->
<g id="node2" class="node">
<title>Node2</title>
<g id="a_node2"><a xlink:href="as__sensor__ov7670_8c.html#a4af880494f665dfc2d878bcd991246d3" target="_top" xlink:title=" ">
<polygon fill="none" stroke="black" points="213,-190.5 213,-209.5 347,-209.5 347,-190.5 213,-190.5"/>
<text text-anchor="middle" x="280" y="-197.5" font-family="Helvetica,sans-Serif" font-size="10.00">ov7670_get_iic_channel</text>
</a>
</g>
</g>
<!-- Node1&#45;&gt;Node2 -->
<g id="edge1" class="edge">
<title>Node1&#45;&gt;Node2</title>
<path fill="none" stroke="midnightblue" d="M177.04,-189.78C185.59,-190.63 194.22,-191.5 202.64,-192.34"/>
<polygon fill="midnightblue" stroke="midnightblue" points="202.5,-195.85 212.8,-193.36 203.2,-188.88 202.5,-195.85"/>
</g>
<!-- Node3 -->
<g id="node3" class="node">
<title>Node3</title>
<g id="a_node3"><a xlink:href="as__sensor__ov7670_8c.html#ad5b49e677d2124f73482764e3270bb42" target="_top" xlink:title=" ">
<polygon fill="none" stroke="black" points="225,-152.5 225,-171.5 335,-171.5 335,-152.5 225,-152.5"/>
<text text-anchor="middle" x="280" y="-159.5" font-family="Helvetica,sans-Serif" font-size="10.00">ov7670_iic_reg_set</text>
</a>
</g>
</g>
<!-- Node1&#45;&gt;Node3 -->
<g id="edge2" class="edge">
<title>Node1&#45;&gt;Node3</title>
<path fill="none" stroke="midnightblue" d="M177.04,-172.22C189.77,-170.95 202.67,-169.65 214.82,-168.43"/>
<polygon fill="midnightblue" stroke="midnightblue" points="215.23,-171.91 224.83,-167.43 214.53,-164.95 215.23,-171.91"/>
</g>
<!-- Node4 -->
<g id="node4" class="node">
<title>Node4</title>
<g id="a_node4"><a xlink:href="group__as__iic__user.html#ga5ae8936ee892843eda5df7b9a418bd52" target="_top" xlink:title=" ">
<polygon fill="none" stroke="black" points="383,-152.5 383,-171.5 478,-171.5 478,-152.5 383,-152.5"/>
<text text-anchor="middle" x="430.5" y="-159.5" font-family="Helvetica,sans-Serif" font-size="10.00">as_iic_write_reg</text>
</a>
</g>
</g>
<!-- Node3&#45;&gt;Node4 -->
<g id="edge3" class="edge">
<title>Node3&#45;&gt;Node4</title>
<path fill="none" stroke="midnightblue" d="M335.03,-162C347.21,-162 360.18,-162 372.48,-162"/>
<polygon fill="midnightblue" stroke="midnightblue" points="372.62,-165.5 382.62,-162 372.62,-158.5 372.62,-165.5"/>
</g>
<!-- Node5 -->
<g id="node5" class="node">
<title>Node5</title>
<g id="a_node5"><a xlink:href="group__as__iic__user.html#ga2a4e5ee19e84cc95de665e29b92ccda1" target="_top" xlink:title=" ">
<polygon fill="none" stroke="black" points="514,-152.5 514,-171.5 621,-171.5 621,-152.5 514,-152.5"/>
<text text-anchor="middle" x="567.5" y="-159.5" font-family="Helvetica,sans-Serif" font-size="10.00">as_iic_write_bytes</text>
</a>
</g>
</g>
<!-- Node4&#45;&gt;Node5 -->
<g id="edge4" class="edge">
<title>Node4&#45;&gt;Node5</title>
<path fill="none" stroke="midnightblue" d="M478.34,-162C486.46,-162 495.02,-162 503.49,-162"/>
<polygon fill="midnightblue" stroke="midnightblue" points="503.74,-165.5 513.74,-162 503.74,-158.5 503.74,-165.5"/>
</g>
<!-- Node6 -->
<g id="node6" class="node">
<title>Node6</title>
<g id="a_node6"><a xlink:href="group__as__iic__helpers.html#ga53e6050a2c66be89ac23084fd9de9c23" target="_top" xlink:title=" ">
<polygon fill="none" stroke="black" points="657,-152.5 657,-171.5 789,-171.5 789,-152.5 657,-152.5"/>
<text text-anchor="middle" x="723" y="-159.5" font-family="Helvetica,sans-Serif" font-size="10.00">as_iic_start_transaction</text>
</a>
</g>
</g>
<!-- Node5&#45;&gt;Node6 -->
<g id="edge5" class="edge">
<title>Node5&#45;&gt;Node6</title>
<path fill="none" stroke="midnightblue" d="M621.33,-162C629.55,-162 638.19,-162 646.8,-162"/>
<polygon fill="midnightblue" stroke="midnightblue" points="646.87,-165.5 656.87,-162 646.87,-158.5 646.87,-165.5"/>
</g>
<!-- Node25 -->
<g id="node25" class="node">
<title>Node25</title>
<g id="a_node25"><a xlink:href="group__as__iic__helpers.html#ga67cc002a1b20c75dc26f7b328ca5ddc9" target="_top" xlink:title=" ">
<polygon fill="none" stroke="black" points="825,-0.5 825,-19.5 986,-19.5 986,-0.5 825,-0.5"/>
<text text-anchor="middle" x="905.5" y="-7.5" font-family="Helvetica,sans-Serif" font-size="10.00">as_iic_stop_write_transaction</text>
</a>
</g>
</g>
<!-- Node5&#45;&gt;Node25 -->
<g id="edge37" class="edge">
<title>Node5&#45;&gt;Node25</title>
<path fill="none" stroke="midnightblue" d="M583.79,-152.36C622.64,-128.27 728.87,-64.8 825,-29 831.77,-26.48 838.98,-24.21 846.2,-22.19"/>
<polygon fill="midnightblue" stroke="midnightblue" points="847.24,-25.54 856.01,-19.6 845.45,-18.77 847.24,-25.54"/>
</g>
<!-- Node26 -->
<g id="node26" class="node">
<title>Node26</title>
<g id="a_node26"><a xlink:href="group__as__iic__helpers.html#gad5e0aa9a71f8f0f65e1fbded8134b11f" target="_top" xlink:title=" ">
<polygon fill="none" stroke="black" points="838.5,-304.5 838.5,-323.5 972.5,-323.5 972.5,-304.5 838.5,-304.5"/>
<text text-anchor="middle" x="905.5" y="-311.5" font-family="Helvetica,sans-Serif" font-size="10.00">as_iic_write_transaction</text>
</a>
</g>
</g>
<!-- Node5&#45;&gt;Node26 -->
<g id="edge38" class="edge">
<title>Node5&#45;&gt;Node26</title>
<path fill="none" stroke="midnightblue" d="M585.15,-171.56C625.36,-194.36 731.34,-252.8 825,-290 835.57,-294.2 847.17,-298.08 858.16,-301.46"/>
<polygon fill="midnightblue" stroke="midnightblue" points="857.46,-304.9 868.04,-304.4 859.46,-298.19 857.46,-304.9"/>
</g>
<!-- Node7 -->
<g id="node7" class="node">
<title>Node7</title>
<g id="a_node7"><a xlink:href="group__as__iic__bitchecks.html#gaa4e8718c748b5a7e956a38ffd6dbe15d" target="_top" xlink:title=" ">
<polygon fill="none" stroke="black" points="1037,-152.5 1037,-171.5 1151,-171.5 1151,-152.5 1037,-152.5"/>
<text text-anchor="middle" x="1094" y="-159.5" font-family="Helvetica,sans-Serif" font-size="10.00">as_iic_ack_received</text>
</a>
</g>
</g>
<!-- Node6&#45;&gt;Node7 -->
<g id="edge6" class="edge">
<title>Node6&#45;&gt;Node7</title>
<path fill="none" stroke="midnightblue" d="M789.12,-162C856.03,-162 959.65,-162 1026.91,-162"/>
<polygon fill="midnightblue" stroke="midnightblue" points="1026.98,-165.5 1036.98,-162 1026.98,-158.5 1026.98,-165.5"/>
</g>
<!-- Node11 -->
<g id="node11" class="node">
<title>Node11</title>
<g id="a_node11"><a xlink:href="group__as__iic__wait.html#gad3cfec26b8a73166e060108cf1444a2b" target="_top" xlink:title=" ">
<polygon fill="none" stroke="black" points="1035,-27 1035,-57 1153,-57 1153,-27 1035,-27"/>
<text text-anchor="start" x="1043" y="-45" font-family="Helvetica,sans-Serif" font-size="10.00">as_iic_busy_wait_for</text>
<text text-anchor="middle" x="1094" y="-34" font-family="Helvetica,sans-Serif" font-size="10.00">_hwready</text>
</a>
</g>
</g>
<!-- Node6&#45;&gt;Node11 -->
<g id="edge10" class="edge">
<title>Node6&#45;&gt;Node11</title>
<path fill="none" stroke="midnightblue" d="M739.92,-152.36C759.39,-140.91 793.64,-121.87 825,-110 843.7,-102.92 951.64,-76.24 1024.7,-58.48"/>
<polygon fill="midnightblue" stroke="midnightblue" points="1025.87,-61.79 1034.76,-56.03 1024.22,-54.99 1025.87,-61.79"/>
</g>
<!-- Node12 -->
<g id="node12" class="node">
<title>Node12</title>
<g id="a_node12"><a xlink:href="group__as__iic__user.html#gacdb0c71d0fcfe5e50a7f7316762cd0c0" target="_top" xlink:title=" ">
<polygon fill="none" stroke="black" points="1210,-76.5 1210,-95.5 1301,-95.5 1301,-76.5 1210,-76.5"/>
<text text-anchor="middle" x="1255.5" y="-83.5" font-family="Helvetica,sans-Serif" font-size="10.00">as_iic_is_ready</text>
</a>
</g>
</g>
<!-- Node6&#45;&gt;Node12 -->
<g id="edge22" class="edge">
<title>Node6&#45;&gt;Node12</title>
<path fill="none" stroke="midnightblue" d="M789.05,-152.68C894.6,-137.56 1101.27,-107.95 1199.77,-93.84"/>
<polygon fill="midnightblue" stroke="midnightblue" points="1200.41,-97.28 1209.81,-92.4 1199.42,-90.36 1200.41,-97.28"/>
</g>
<!-- Node17 -->
<g id="node17" class="node">
<title>Node17</title>
<g id="a_node17"><a xlink:href="group__as__iic__wait.html#ga0bc5aad64893b674c42943fb64d17676" target="_top" xlink:title=" ">
<polygon fill="none" stroke="black" points="1022,-190.5 1022,-209.5 1166,-209.5 1166,-190.5 1022,-190.5"/>
<text text-anchor="middle" x="1094" y="-197.5" font-family="Helvetica,sans-Serif" font-size="10.00">as_iic_busy_wait_for_wait</text>
</a>
</g>
</g>
<!-- Node6&#45;&gt;Node17 -->
<g id="edge17" class="edge">
<title>Node6&#45;&gt;Node17</title>
<path fill="none" stroke="midnightblue" d="M789.14,-171.5C801.06,-173.1 813.39,-174.68 825,-176 887.57,-183.13 958.56,-189.41 1011.75,-193.75"/>
<polygon fill="midnightblue" stroke="midnightblue" points="1011.56,-197.25 1021.81,-194.57 1012.12,-190.27 1011.56,-197.25"/>
</g>
<!-- Node19 -->
<g id="node19" class="node">
<title>Node19</title>
<g id="a_node19"><a xlink:href="group__as__iic__bitchecks.html#gad90ab4c2ed7fbca8f768c87cdb5794ee" target="_top" xlink:title=" ">
<polygon fill="none" stroke="black" points="850,-38.5 850,-57.5 961,-57.5 961,-38.5 850,-38.5"/>
<text text-anchor="middle" x="905.5" y="-45.5" font-family="Helvetica,sans-Serif" font-size="10.00">as_iic_is_initialized</text>
</a>
</g>
</g>
<!-- Node6&#45;&gt;Node19 -->
<g id="edge21" class="edge">
<title>Node6&#45;&gt;Node19</title>
<path fill="none" stroke="midnightblue" d="M732.15,-152.36C748.13,-134.06 785.45,-94.15 825,-72 833.04,-67.5 842.01,-63.75 850.96,-60.66"/>
<polygon fill="midnightblue" stroke="midnightblue" points="852.16,-63.95 860.61,-57.56 850.02,-57.28 852.16,-63.95"/>
</g>
<!-- Node20 -->
<g id="node20" class="node">
<title>Node20</title>
<g id="a_node20"><a xlink:href="group__as__iic__user.html#gae03c311fae3d6a830878a2b0c2c1c2bf" target="_top" xlink:title=" ">
<polygon fill="none" stroke="black" points="1032,-228.5 1032,-247.5 1156,-247.5 1156,-228.5 1032,-228.5"/>
<text text-anchor="middle" x="1094" y="-235.5" font-family="Helvetica,sans-Serif" font-size="10.00">as_iic_reset_hw_state</text>
</a>
</g>
</g>
<!-- Node6&#45;&gt;Node20 -->
<g id="edge23" class="edge">
<title>Node6&#45;&gt;Node20</title>
<path fill="none" stroke="midnightblue" d="M746.87,-171.59C767.09,-179.73 797.55,-191.13 825,-198 890.7,-214.45 967.27,-225.05 1021.7,-231.17"/>
<polygon fill="midnightblue" stroke="midnightblue" points="1021.61,-234.68 1031.94,-232.3 1022.38,-227.73 1021.61,-234.68"/>
</g>
<!-- Node21 -->
<g id="node21" class="node">
<title>Node21</title>
<g id="a_node21"><a xlink:href="group__as__iic__reg__funcs.html#gac83a48fc09234a7a99adafb1ce565eb0" target="_top" xlink:title=" ">
<polygon fill="none" stroke="black" points="1203.5,-266.5 1203.5,-285.5 1307.5,-285.5 1307.5,-266.5 1203.5,-266.5"/>
<text text-anchor="middle" x="1255.5" y="-273.5" font-family="Helvetica,sans-Serif" font-size="10.00">as_iic_set_control</text>
</a>
</g>
</g>
<!-- Node6&#45;&gt;Node21 -->
<g id="edge27" class="edge">
<title>Node6&#45;&gt;Node21</title>
<path fill="none" stroke="midnightblue" d="M737.35,-171.59C760.3,-187.92 806.57,-220.03 825,-227 949.63,-274.12 1107.96,-279.45 1193.31,-278.29"/>
<polygon fill="midnightblue" stroke="midnightblue" points="1193.41,-281.79 1203.35,-278.12 1193.29,-274.79 1193.41,-281.79"/>
</g>
<!-- Node24 -->
<g id="node24" class="node">
<title>Node24</title>
<g id="a_node24"><a xlink:href="group__as__iic__reg__funcs.html#ga8058473baeded71954aa72ee8df24e9b" target="_top" xlink:title=" ">
<polygon fill="none" stroke="black" points="1202,-342.5 1202,-361.5 1309,-361.5 1309,-342.5 1202,-342.5"/>
<text text-anchor="middle" x="1255.5" y="-349.5" font-family="Helvetica,sans-Serif" font-size="10.00">as_iic_set_data_tx</text>
</a>
</g>
</g>
<!-- Node6&#45;&gt;Node24 -->
<g id="edge28" class="edge">
<title>Node6&#45;&gt;Node24</title>
<path fill="none" stroke="midnightblue" d="M726.31,-171.57C734.13,-201.59 762.65,-294.2 825,-333 945.45,-407.95 1123.81,-382.08 1207.68,-363.78"/>
<polygon fill="midnightblue" stroke="midnightblue" points="1208.68,-367.14 1217.67,-361.54 1207.15,-360.31 1208.68,-367.14"/>
</g>
<!-- Node6&#45;&gt;Node25 -->
<g id="edge31" class="edge">
<title>Node6&#45;&gt;Node25</title>
<path fill="none" stroke="midnightblue" d="M732.03,-152.45C744.53,-137.47 769.27,-107.45 789,-81 805.81,-58.47 801.8,-44.87 825,-29 827.9,-27.02 830.98,-25.24 834.18,-23.65"/>
<polygon fill="midnightblue" stroke="midnightblue" points="835.68,-26.81 843.47,-19.63 832.9,-20.39 835.68,-26.81"/>
</g>
<!-- Node8 -->
<g id="node8" class="node">
<title>Node8</title>
<g id="a_node8"><a xlink:href="group__as__iic__reg__funcs.html#ga8daa8fde0a7776aa2f5b335250b5aa2a" target="_top" xlink:title=" ">
<polygon fill="none" stroke="black" points="1346.5,-171.5 1346.5,-190.5 1468.5,-190.5 1468.5,-171.5 1346.5,-171.5"/>
<text text-anchor="middle" x="1407.5" y="-178.5" font-family="Helvetica,sans-Serif" font-size="10.00">as_iic_get_status_reg</text>
</a>
</g>
</g>
<!-- Node7&#45;&gt;Node8 -->
<g id="edge7" class="edge">
<title>Node7&#45;&gt;Node8</title>
<path fill="none" stroke="midnightblue" d="M1151.05,-165.42C1202.91,-168.58 1280.21,-173.3 1336.19,-176.71"/>
<polygon fill="midnightblue" stroke="midnightblue" points="1336.19,-180.22 1346.38,-177.33 1336.62,-173.23 1336.19,-180.22"/>
</g>
<!-- Node9 -->
<g id="node9" class="node">
<title>Node9</title>
<g id="a_node9"><a xlink:href="group__asterics__support.html#ga8e5c2bfd2e4498d10289377bd94cef07" target="_top" xlink:title=" ">
<polygon fill="none" stroke="black" points="1524.5,-342.5 1524.5,-361.5 1600.5,-361.5 1600.5,-342.5 1524.5,-342.5"/>
<text text-anchor="middle" x="1562.5" y="-349.5" font-family="Helvetica,sans-Serif" font-size="10.00">as_reg_read</text>
</a>
</g>
</g>
<!-- Node8&#45;&gt;Node9 -->
<g id="edge8" class="edge">
<title>Node8&#45;&gt;Node9</title>
<path fill="none" stroke="midnightblue" d="M1413.94,-190.54C1427.4,-213.63 1464.25,-273.57 1506,-314 1514.86,-322.58 1525.86,-330.55 1535.73,-336.96"/>
<polygon fill="midnightblue" stroke="midnightblue" points="1534.04,-340.03 1544.37,-342.37 1537.75,-334.09 1534.04,-340.03"/>
</g>
<!-- Node10 -->
<g id="node10" class="node">
<title>Node10</title>
<g id="a_node10"><a xlink:href="group__asterics__support.html#ga4c6d688b840a6e2edc9bc0b8ed961677" target="_top" xlink:title=" ">
<polygon fill="none" stroke="black" points="1655,-342.5 1655,-361.5 1755,-361.5 1755,-342.5 1655,-342.5"/>
<text text-anchor="middle" x="1705" y="-349.5" font-family="Helvetica,sans-Serif" font-size="10.00">as_reg_to_uint32</text>
</a>
</g>
</g>
<!-- Node9&#45;&gt;Node10 -->
<g id="edge9" class="edge">
<title>Node9&#45;&gt;Node10</title>
<path fill="none" stroke="midnightblue" d="M1600.78,-352C1614.26,-352 1629.83,-352 1644.72,-352"/>
<polygon fill="midnightblue" stroke="midnightblue" points="1644.89,-355.5 1654.89,-352 1644.89,-348.5 1644.89,-355.5"/>
</g>
<!-- Node11&#45;&gt;Node12 -->
<g id="edge11" class="edge">
<title>Node11&#45;&gt;Node12</title>
<path fill="none" stroke="midnightblue" d="M1149.44,-57.02C1169.18,-62.46 1191.22,-68.54 1210,-73.72"/>
<polygon fill="midnightblue" stroke="midnightblue" points="1209.21,-77.14 1219.78,-76.42 1211.07,-70.39 1209.21,-77.14"/>
</g>
<!-- Node13 -->
<g id="node13" class="node">
<title>Node13</title>
<g id="a_node13"><a xlink:href="group__asterics__support.html#gab803703ab5b845023ca31b7b2664419c" target="_top" xlink:title=" ">
<polygon fill="none" stroke="black" points="1226,-32.5 1226,-51.5 1285,-51.5 1285,-32.5 1226,-32.5"/>
<text text-anchor="middle" x="1255.5" y="-39.5" font-family="Helvetica,sans-Serif" font-size="10.00">as_sleep</text>
</a>
</g>
</g>
<!-- Node11&#45;&gt;Node13 -->
<g id="edge13" class="edge">
<title>Node11&#45;&gt;Node13</title>
<path fill="none" stroke="midnightblue" d="M1153.03,-42C1173.83,-42 1196.76,-42 1215.55,-42"/>
<polygon fill="midnightblue" stroke="midnightblue" points="1215.81,-45.5 1225.81,-42 1215.81,-38.5 1215.81,-45.5"/>
</g>
<!-- Node12&#45;&gt;Node8 -->
<g id="edge12" class="edge">
<title>Node12&#45;&gt;Node8</title>
<path fill="none" stroke="midnightblue" d="M1271.71,-95.63C1297.88,-112.2 1351.6,-146.23 1382.74,-165.95"/>
<polygon fill="midnightblue" stroke="midnightblue" points="1380.93,-168.95 1391.25,-171.34 1384.68,-163.04 1380.93,-168.95"/>
</g>
<!-- Node14 -->
<g id="node14" class="node">
<title>Node14</title>
<g id="a_node14"><a xlink:href="group__asterics__support.html#ga284d9e0d170cf7cabc16ccd7e62d95bd" target="_top" xlink:title=" ">
<polygon fill="none" stroke="black" points="1379,-32.5 1379,-51.5 1436,-51.5 1436,-32.5 1379,-32.5"/>
<text text-anchor="middle" x="1407.5" y="-39.5" font-family="Helvetica,sans-Serif" font-size="10.00">as_yield</text>
</a>
</g>
</g>
<!-- Node13&#45;&gt;Node14 -->
<g id="edge14" class="edge">
<title>Node13&#45;&gt;Node14</title>
<path fill="none" stroke="midnightblue" d="M1285.07,-42C1308.75,-42 1342.62,-42 1368.57,-42"/>
<polygon fill="midnightblue" stroke="midnightblue" points="1368.8,-45.5 1378.8,-42 1368.8,-38.5 1368.8,-45.5"/>
</g>
<!-- Node15 -->
<g id="node15" class="node">
<title>Node15</title>
<g id="a_node15"><a xlink:href="group__asterics__support.html#gad294e0c5530bd6fb800a2394179070e1" target="_top" xlink:title=" ">
<polygon fill="none" stroke="black" points="1517.5,-51.5 1517.5,-70.5 1607.5,-70.5 1607.5,-51.5 1517.5,-51.5"/>
<text text-anchor="middle" x="1562.5" y="-58.5" font-family="Helvetica,sans-Serif" font-size="10.00">as_mutex_lock</text>
</a>
</g>
</g>
<!-- Node14&#45;&gt;Node15 -->
<g id="edge15" class="edge">
<title>Node14&#45;&gt;Node15</title>
<path fill="none" stroke="midnightblue" d="M1436.21,-45.44C1456.02,-47.9 1483.34,-51.29 1507.41,-54.28"/>
<polygon fill="midnightblue" stroke="midnightblue" points="1507.14,-57.78 1517.49,-55.53 1508,-50.83 1507.14,-57.78"/>
</g>
<!-- Node16 -->
<g id="node16" class="node">
<title>Node16</title>
<g id="a_node16"><a xlink:href="group__asterics__support.html#ga07e09e825f2608339f6213edb9d0c8b3" target="_top" xlink:title=" ">
<polygon fill="none" stroke="black" points="1511.5,-13.5 1511.5,-32.5 1613.5,-32.5 1613.5,-13.5 1511.5,-13.5"/>
<text text-anchor="middle" x="1562.5" y="-20.5" font-family="Helvetica,sans-Serif" font-size="10.00">as_mutex_unlock</text>
</a>
</g>
</g>
<!-- Node14&#45;&gt;Node16 -->
<g id="edge16" class="edge">
<title>Node14&#45;&gt;Node16</title>
<path fill="none" stroke="midnightblue" d="M1436.21,-38.56C1454.35,-36.31 1478.79,-33.27 1501.26,-30.48"/>
<polygon fill="midnightblue" stroke="midnightblue" points="1501.92,-33.93 1511.41,-29.22 1501.06,-26.98 1501.92,-33.93"/>
</g>
<!-- Node17&#45;&gt;Node13 -->
<g id="edge20" class="edge">
<title>Node17&#45;&gt;Node13</title>
<path fill="none" stroke="midnightblue" d="M1152.08,-190.48C1157.18,-187.99 1161.94,-184.88 1166,-181 1204.4,-144.27 1167.12,-107.08 1202,-67 1206.03,-62.37 1211.12,-58.52 1216.52,-55.35"/>
<polygon fill="midnightblue" stroke="midnightblue" points="1218.46,-58.29 1225.79,-50.64 1215.29,-52.05 1218.46,-58.29"/>
</g>
<!-- Node18 -->
<g id="node18" class="node">
<title>Node18</title>
<g id="a_node18"><a xlink:href="group__as__iic__bitchecks.html#ga4629e4514c3531d0bcd44ae20abc6bad" target="_top" xlink:title=" ">
<polygon fill="none" stroke="black" points="1206,-190.5 1206,-209.5 1305,-209.5 1305,-190.5 1206,-190.5"/>
<text text-anchor="middle" x="1255.5" y="-197.5" font-family="Helvetica,sans-Serif" font-size="10.00">as_iic_is_waiting</text>
</a>
</g>
</g>
<!-- Node17&#45;&gt;Node18 -->
<g id="edge18" class="edge">
<title>Node17&#45;&gt;Node18</title>
<path fill="none" stroke="midnightblue" d="M1166.35,-200C1176.1,-200 1186.01,-200 1195.51,-200"/>
<polygon fill="midnightblue" stroke="midnightblue" points="1195.62,-203.5 1205.62,-200 1195.62,-196.5 1195.62,-203.5"/>
</g>
<!-- Node18&#45;&gt;Node8 -->
<g id="edge19" class="edge">
<title>Node18&#45;&gt;Node8</title>
<path fill="none" stroke="midnightblue" d="M1305.2,-193.83C1315.12,-192.57 1325.74,-191.23 1336.24,-189.9"/>
<polygon fill="midnightblue" stroke="midnightblue" points="1336.76,-193.36 1346.24,-188.63 1335.88,-186.42 1336.76,-193.36"/>
</g>
<!-- Node20&#45;&gt;Node21 -->
<g id="edge24" class="edge">
<title>Node20&#45;&gt;Node21</title>
<path fill="none" stroke="midnightblue" d="M1135.25,-247.59C1156.3,-252.6 1182.26,-258.79 1204.57,-264.11"/>
<polygon fill="midnightblue" stroke="midnightblue" points="1204,-267.57 1214.54,-266.48 1205.62,-260.76 1204,-267.57"/>
</g>
<!-- Node22 -->
<g id="node22" class="node">
<title>Node22</title>
<g id="a_node22"><a xlink:href="group__asterics__support.html#ga6345b997e24a6cd5f9143cef27629d49" target="_top" xlink:title=" ">
<polygon fill="none" stroke="black" points="1368,-285.5 1368,-304.5 1447,-304.5 1447,-285.5 1368,-285.5"/>
<text text-anchor="middle" x="1407.5" y="-292.5" font-family="Helvetica,sans-Serif" font-size="10.00">as_reg_write</text>
</a>
</g>
</g>
<!-- Node21&#45;&gt;Node22 -->
<g id="edge25" class="edge">
<title>Node21&#45;&gt;Node22</title>
<path fill="none" stroke="midnightblue" d="M1307.7,-282.49C1323.85,-284.53 1341.65,-286.79 1357.63,-288.81"/>
<polygon fill="midnightblue" stroke="midnightblue" points="1357.48,-292.32 1367.84,-290.1 1358.36,-285.37 1357.48,-292.32"/>
</g>
<!-- Node23 -->
<g id="node23" class="node">
<title>Node23</title>
<g id="a_node23"><a xlink:href="group__asterics__support.html#gab651cc2c035ce61b354578434e59f822" target="_top" xlink:title=" ">
<polygon fill="none" stroke="black" points="1506,-285.5 1506,-304.5 1619,-304.5 1619,-285.5 1506,-285.5"/>
<text text-anchor="middle" x="1562.5" y="-292.5" font-family="Helvetica,sans-Serif" font-size="10.00">as_reg_from_uint32</text>
</a>
</g>
</g>
<!-- Node22&#45;&gt;Node23 -->
<g id="edge26" class="edge">
<title>Node22&#45;&gt;Node23</title>
<path fill="none" stroke="midnightblue" d="M1447.11,-295C1461.84,-295 1479.09,-295 1495.65,-295"/>
<polygon fill="midnightblue" stroke="midnightblue" points="1495.85,-298.5 1505.85,-295 1495.85,-291.5 1495.85,-298.5"/>
</g>
<!-- Node24&#45;&gt;Node9 -->
<g id="edge29" class="edge">
<title>Node24&#45;&gt;Node9</title>
<path fill="none" stroke="midnightblue" d="M1309.28,-352C1366.94,-352 1458.48,-352 1513.98,-352"/>
<polygon fill="midnightblue" stroke="midnightblue" points="1514.24,-355.5 1524.24,-352 1514.24,-348.5 1514.24,-355.5"/>
</g>
<!-- Node24&#45;&gt;Node22 -->
<g id="edge30" class="edge">
<title>Node24&#45;&gt;Node22</title>
<path fill="none" stroke="midnightblue" d="M1281.61,-342.46C1306.27,-333.09 1344.1,-318.71 1371.66,-308.24"/>
<polygon fill="midnightblue" stroke="midnightblue" points="1373.21,-311.4 1381.31,-304.57 1370.72,-304.85 1373.21,-311.4"/>
</g>
<!-- Node25&#45;&gt;Node7 -->
<g id="edge32" class="edge">
<title>Node25&#45;&gt;Node7</title>
<path fill="none" stroke="midnightblue" d="M971.86,-19.55C977.01,-22.05 981.82,-25.16 986,-29 1023.57,-63.52 986.05,-101.8 1022,-138 1025.95,-141.98 1030.59,-145.3 1035.57,-148.07"/>
<polygon fill="midnightblue" stroke="midnightblue" points="1034.29,-151.34 1044.82,-152.49 1037.3,-145.02 1034.29,-151.34"/>
</g>
<!-- Node25&#45;&gt;Node11 -->
<g id="edge33" class="edge">
<title>Node25&#45;&gt;Node11</title>
<path fill="none" stroke="midnightblue" d="M961.95,-19.51C981.7,-22.9 1004.17,-26.76 1024.85,-30.31"/>
<polygon fill="midnightblue" stroke="midnightblue" points="1024.4,-33.78 1034.85,-32.02 1025.58,-26.88 1024.4,-33.78"/>
</g>
<!-- Node25&#45;&gt;Node13 -->
<g id="edge36" class="edge">
<title>Node25&#45;&gt;Node13</title>
<path fill="none" stroke="midnightblue" d="M986.17,-7.06C1037.74,-6.41 1106.19,-7.89 1166,-17 1183.22,-19.62 1201.84,-24.55 1217.53,-29.34"/>
<polygon fill="midnightblue" stroke="midnightblue" points="1216.79,-32.78 1227.38,-32.45 1218.89,-26.1 1216.79,-32.78"/>
</g>
<!-- Node25&#45;&gt;Node20 -->
<g id="edge34" class="edge">
<title>Node25&#45;&gt;Node20</title>
<path fill="none" stroke="midnightblue" d="M973.54,-19.58C978.14,-22.1 982.38,-25.2 986,-29 1045.32,-91.19 963.52,-156.01 1022,-219 1023.22,-220.32 1024.53,-221.55 1025.9,-222.7"/>
<polygon fill="midnightblue" stroke="midnightblue" points="1024.16,-225.74 1034.41,-228.42 1028.07,-219.94 1024.16,-225.74"/>
</g>
<!-- Node25&#45;&gt;Node21 -->
<g id="edge35" class="edge">
<title>Node25&#45;&gt;Node21</title>
<path fill="none" stroke="midnightblue" d="M964.02,-19.61C971.68,-22.07 979.21,-25.14 986,-29 1005.95,-40.34 1003.67,-52.2 1022,-66 1079.99,-109.64 1115.95,-90.45 1166,-143 1191.78,-170.06 1181.1,-188.01 1202,-219 1211.93,-233.72 1225.57,-248.41 1236.46,-259.19"/>
<polygon fill="midnightblue" stroke="midnightblue" points="1234.19,-261.86 1243.81,-266.29 1239.05,-256.83 1234.19,-261.86"/>
</g>
<!-- Node26&#45;&gt;Node7 -->
<g id="edge39" class="edge">
<title>Node26&#45;&gt;Node7</title>
<path fill="none" stroke="midnightblue" d="M912.1,-304.22C926.75,-279.53 968.84,-214.23 1022,-181 1025.37,-178.89 1028.98,-177.02 1032.71,-175.35"/>
<polygon fill="midnightblue" stroke="midnightblue" points="1034.16,-178.54 1042.17,-171.61 1031.59,-172.02 1034.16,-178.54"/>
</g>
<!-- Node26&#45;&gt;Node17 -->
<g id="edge40" class="edge">
<title>Node26&#45;&gt;Node17</title>
<path fill="none" stroke="midnightblue" d="M915.38,-304.33C933.53,-285.15 976.97,-242.15 1022,-219 1026.49,-216.69 1031.3,-214.64 1036.21,-212.82"/>
<polygon fill="midnightblue" stroke="midnightblue" points="1037.37,-216.13 1045.73,-209.61 1035.13,-209.49 1037.37,-216.13"/>
</g>
<!-- Node26&#45;&gt;Node20 -->
<g id="edge44" class="edge">
<title>Node26&#45;&gt;Node20</title>
<path fill="none" stroke="midnightblue" d="M930.12,-304.37C963.05,-290.95 1022.9,-266.57 1060.16,-251.38"/>
<polygon fill="midnightblue" stroke="midnightblue" points="1061.63,-254.56 1069.57,-247.55 1058.99,-248.08 1061.63,-254.56"/>
</g>
<!-- Node26&#45;&gt;Node21 -->
<g id="edge45" class="edge">
<title>Node26&#45;&gt;Node21</title>
<path fill="none" stroke="midnightblue" d="M972.76,-309.06C1025.27,-304.86 1100.46,-298.21 1166,-290 1174.75,-288.9 1183.96,-287.61 1193,-286.25"/>
<polygon fill="midnightblue" stroke="midnightblue" points="1193.75,-289.68 1203.1,-284.71 1192.69,-282.76 1193.75,-289.68"/>
</g>
<!-- Node26&#45;&gt;Node24 -->
<g id="edge46" class="edge">
<title>Node26&#45;&gt;Node24</title>
<path fill="none" stroke="midnightblue" d="M972.78,-321.24C1035.82,-328.12 1129.98,-338.4 1191.81,-345.15"/>
<polygon fill="midnightblue" stroke="midnightblue" points="1191.5,-348.64 1201.83,-346.25 1192.26,-341.68 1191.5,-348.64"/>
</g>
<!-- Node27 -->
<g id="node27" class="node">
<title>Node27</title>
<g id="a_node27"><a xlink:href="group__as__iic__bitchecks.html#ga2ef7a1f9767986f2033697f584cd4feb" target="_top" xlink:title=" ">
<polygon fill="none" stroke="black" points="1039,-418.5 1039,-437.5 1149,-437.5 1149,-418.5 1039,-418.5"/>
<text text-anchor="middle" x="1094" y="-425.5" font-family="Helvetica,sans-Serif" font-size="10.00">as_iic_is_readwrite</text>
</a>
</g>
</g>
<!-- Node26&#45;&gt;Node27 -->
<g id="edge41" class="edge">
<title>Node26&#45;&gt;Node27</title>
<path fill="none" stroke="midnightblue" d="M922.08,-323.52C954.58,-343.39 1029.81,-389.37 1068.72,-413.16"/>
<polygon fill="midnightblue" stroke="midnightblue" points="1066.98,-416.19 1077.33,-418.42 1070.63,-410.22 1066.98,-416.19"/>
</g>
<!-- Node28 -->
<g id="node28" class="node">
<title>Node28</title>
<g id="a_node28"><a xlink:href="group__as__iic__reg__funcs.html#gaca309e97934beed04c02e31ba9cfbd3a" target="_top" xlink:title=" ">
<polygon fill="none" stroke="black" points="1345,-389.5 1345,-408.5 1470,-408.5 1470,-389.5 1345,-389.5"/>
<text text-anchor="middle" x="1407.5" y="-396.5" font-family="Helvetica,sans-Serif" font-size="10.00">as_iic_get_control_reg</text>
</a>
</g>
</g>
<!-- Node27&#45;&gt;Node28 -->
<g id="edge42" class="edge">
<title>Node27&#45;&gt;Node28</title>
<path fill="none" stroke="midnightblue" d="M1149.26,-422.95C1200.62,-418.17 1278.07,-410.96 1334.56,-405.7"/>
<polygon fill="midnightblue" stroke="midnightblue" points="1335.22,-409.15 1344.85,-404.74 1334.57,-402.18 1335.22,-409.15"/>
</g>
<!-- Node28&#45;&gt;Node9 -->
<g id="edge43" class="edge">
<title>Node28&#45;&gt;Node9</title>
<path fill="none" stroke="midnightblue" d="M1439.46,-389.49C1462.82,-382.31 1495.08,-372.4 1520.57,-364.57"/>
<polygon fill="midnightblue" stroke="midnightblue" points="1521.79,-367.86 1530.32,-361.58 1519.74,-361.17 1521.79,-367.86"/>
</g>
</g>
</svg>
