<?xml version="1.0" encoding="UTF-8" standalone="no"?>
<!DOCTYPE svg PUBLIC "-//W3C//DTD SVG 1.1//EN"
 "http://www.w3.org/Graphics/SVG/1.1/DTD/svg11.dtd">
<!-- Generated by graphviz version 2.43.0 (0)
 -->
<!-- Title: as_sensor_ov7670_exposure_get Pages: 1 -->
<svg width="1916pt" height="446pt"
 viewBox="0.00 0.00 1916.00 446.13" xmlns="http://www.w3.org/2000/svg" xmlns:xlink="http://www.w3.org/1999/xlink">
<g id="graph0" class="graph" transform="scale(1 1) rotate(0) translate(4 442.13)">
<title>as_sensor_ov7670_exposure_get</title>
<!-- Node1 -->
<g id="node1" class="node">
<title>Node1</title>
<g id="a_node1"><a xlink:title=" ">
<polygon fill="#bfbfbf" stroke="black" points="0,-295.68 0,-314.68 178,-314.68 178,-295.68 0,-295.68"/>
<text text-anchor="middle" x="89" y="-302.68" font-family="Helvetica,sans-Serif" font-size="10.00">as_sensor_ov7670_exposure_get</text>
</a>
</g>
</g>
<!-- Node2 -->
<g id="node2" class="node">
<title>Node2</title>
<g id="a_node2"><a xlink:href="as__sensor__ov7670_8c.html#a4af880494f665dfc2d878bcd991246d3" target="_top" xlink:title=" ">
<polygon fill="none" stroke="black" points="214,-314.68 214,-333.68 348,-333.68 348,-314.68 214,-314.68"/>
<text text-anchor="middle" x="281" y="-321.68" font-family="Helvetica,sans-Serif" font-size="10.00">ov7670_get_iic_channel</text>
</a>
</g>
</g>
<!-- Node1&#45;&gt;Node2 -->
<g id="edge1" class="edge">
<title>Node1&#45;&gt;Node2</title>
<path fill="none" stroke="midnightblue" d="M178.05,-313.98C186.6,-314.84 195.24,-315.7 203.67,-316.54"/>
<polygon fill="midnightblue" stroke="midnightblue" points="203.53,-320.05 213.83,-317.56 204.23,-313.08 203.53,-320.05"/>
</g>
<!-- Node3 -->
<g id="node3" class="node">
<title>Node3</title>
<g id="a_node3"><a xlink:href="as__sensor__ov7670_8c.html#acb25afaea3e81940c50e327c45921f08" target="_top" xlink:title=" ">
<polygon fill="none" stroke="black" points="225.5,-276.68 225.5,-295.68 336.5,-295.68 336.5,-276.68 225.5,-276.68"/>
<text text-anchor="middle" x="281" y="-283.68" font-family="Helvetica,sans-Serif" font-size="10.00">ov7670_iic_reg_get</text>
</a>
</g>
</g>
<!-- Node1&#45;&gt;Node3 -->
<g id="edge2" class="edge">
<title>Node1&#45;&gt;Node3</title>
<path fill="none" stroke="midnightblue" d="M178.05,-296.37C190.51,-295.13 203.13,-293.86 215.05,-292.67"/>
<polygon fill="midnightblue" stroke="midnightblue" points="215.72,-296.12 225.33,-291.64 215.03,-289.16 215.72,-296.12"/>
</g>
<!-- Node4 -->
<g id="node4" class="node">
<title>Node4</title>
<g id="a_node4"><a xlink:href="group__as__iic__user.html#ga812d9e16a61b39777a5fbffc7eccbc8d" target="_top" xlink:title=" ">
<polygon fill="none" stroke="black" points="384,-276.68 384,-295.68 476,-295.68 476,-276.68 384,-276.68"/>
<text text-anchor="middle" x="430" y="-283.68" font-family="Helvetica,sans-Serif" font-size="10.00">as_iic_read_reg</text>
</a>
</g>
</g>
<!-- Node3&#45;&gt;Node4 -->
<g id="edge3" class="edge">
<title>Node3&#45;&gt;Node4</title>
<path fill="none" stroke="midnightblue" d="M336.74,-286.18C348.73,-286.18 361.44,-286.18 373.47,-286.18"/>
<polygon fill="midnightblue" stroke="midnightblue" points="373.83,-289.68 383.83,-286.18 373.83,-282.68 373.83,-289.68"/>
</g>
<!-- Node5 -->
<g id="node5" class="node">
<title>Node5</title>
<g id="a_node5"><a xlink:href="group__as__iic__user.html#gacf3e3b915e1f15ed8bdc60ab4c129996" target="_top" xlink:title=" ">
<polygon fill="none" stroke="black" points="516.5,-238.68 516.5,-257.68 608.5,-257.68 608.5,-238.68 516.5,-238.68"/>
<text text-anchor="middle" x="562.5" y="-245.68" font-family="Helvetica,sans-Serif" font-size="10.00">as_iic_get_byte</text>
</a>
</g>
</g>
<!-- Node4&#45;&gt;Node5 -->
<g id="edge4" class="edge">
<title>Node4&#45;&gt;Node5</title>
<path fill="none" stroke="midnightblue" d="M463.93,-276.59C480.62,-271.73 501.09,-265.77 518.96,-260.56"/>
<polygon fill="midnightblue" stroke="midnightblue" points="519.96,-263.92 528.58,-257.76 518,-257.2 519.96,-263.92"/>
</g>
<!-- Node14 -->
<g id="node14" class="node">
<title>Node14</title>
<g id="a_node14"><a xlink:href="group__asterics__support.html#gab803703ab5b845023ca31b7b2664419c" target="_top" xlink:title=" ">
<polygon fill="none" stroke="black" points="1382,-311.68 1382,-330.68 1441,-330.68 1441,-311.68 1382,-311.68"/>
<text text-anchor="middle" x="1411.5" y="-318.68" font-family="Helvetica,sans-Serif" font-size="10.00">as_sleep</text>
</a>
</g>
</g>
<!-- Node4&#45;&gt;Node14 -->
<g id="edge49" class="edge">
<title>Node4&#45;&gt;Node14</title>
<path fill="none" stroke="midnightblue" d="M441.3,-295.8C476.26,-327.43 594.82,-426.18 712,-426.18 712,-426.18 712,-426.18 1062.5,-426.18 1178.14,-426.18 1220.53,-462.64 1322,-407.18 1345.4,-394.39 1338.98,-377.87 1358,-359.18 1366.51,-350.81 1376.99,-342.85 1386.33,-336.4"/>
<polygon fill="midnightblue" stroke="midnightblue" points="1388.48,-339.18 1394.85,-330.71 1384.59,-333.35 1388.48,-339.18"/>
</g>
<!-- Node29 -->
<g id="node29" class="node">
<title>Node29</title>
<g id="a_node29"><a xlink:href="group__as__iic__user.html#ga35cd65c29b1f4abd1ca87ca51605e5cc" target="_top" xlink:title=" ">
<polygon fill="none" stroke="black" points="512,-276.68 512,-295.68 613,-295.68 613,-276.68 512,-276.68"/>
<text text-anchor="middle" x="562.5" y="-283.68" font-family="Helvetica,sans-Serif" font-size="10.00">as_iic_write_byte</text>
</a>
</g>
</g>
<!-- Node4&#45;&gt;Node29 -->
<g id="edge45" class="edge">
<title>Node4&#45;&gt;Node29</title>
<path fill="none" stroke="midnightblue" d="M476.28,-286.18C484.44,-286.18 493.07,-286.18 501.57,-286.18"/>
<polygon fill="midnightblue" stroke="midnightblue" points="501.85,-289.68 511.85,-286.18 501.85,-282.68 501.85,-289.68"/>
</g>
<!-- Node6 -->
<g id="node6" class="node">
<title>Node6</title>
<g id="a_node6"><a xlink:href="group__as__iic__user.html#ga30385c0c387c1629188745edf9c824c1" target="_top" xlink:title=" ">
<polygon fill="none" stroke="black" points="653.5,-219.68 653.5,-238.68 772.5,-238.68 772.5,-219.68 653.5,-219.68"/>
<text text-anchor="middle" x="713" y="-226.68" font-family="Helvetica,sans-Serif" font-size="10.00">as_iic_get_byte_mod</text>
</a>
</g>
</g>
<!-- Node5&#45;&gt;Node6 -->
<g id="edge5" class="edge">
<title>Node5&#45;&gt;Node6</title>
<path fill="none" stroke="midnightblue" d="M608.86,-242.37C619.75,-240.98 631.61,-239.46 643.3,-237.97"/>
<polygon fill="midnightblue" stroke="midnightblue" points="644.01,-241.41 653.49,-236.66 643.12,-234.46 644.01,-241.41"/>
</g>
<!-- Node7 -->
<g id="node7" class="node">
<title>Node7</title>
<g id="a_node7"><a xlink:href="group__as__iic__helpers.html#ga53e6050a2c66be89ac23084fd9de9c23" target="_top" xlink:title=" ">
<polygon fill="none" stroke="black" points="813,-219.68 813,-238.68 945,-238.68 945,-219.68 813,-219.68"/>
<text text-anchor="middle" x="879" y="-226.68" font-family="Helvetica,sans-Serif" font-size="10.00">as_iic_start_transaction</text>
</a>
</g>
</g>
<!-- Node6&#45;&gt;Node7 -->
<g id="edge6" class="edge">
<title>Node6&#45;&gt;Node7</title>
<path fill="none" stroke="midnightblue" d="M772.74,-229.18C782.53,-229.18 792.8,-229.18 802.93,-229.18"/>
<polygon fill="midnightblue" stroke="midnightblue" points="802.99,-232.68 812.99,-229.18 802.99,-225.68 802.99,-232.68"/>
</g>
<!-- Node27 -->
<g id="node27" class="node">
<title>Node27</title>
<g id="a_node27"><a xlink:href="group__as__iic__helpers.html#gaa8ce9ac10b8c2ca9b614110ca5cbeff5" target="_top" xlink:title=" ">
<polygon fill="none" stroke="black" points="982.5,-62.68 982.5,-81.68 1140.5,-81.68 1140.5,-62.68 982.5,-62.68"/>
<text text-anchor="middle" x="1061.5" y="-69.68" font-family="Helvetica,sans-Serif" font-size="10.00">as_iic_stop_read_transaction</text>
</a>
</g>
</g>
<!-- Node6&#45;&gt;Node27 -->
<g id="edge38" class="edge">
<title>Node6&#45;&gt;Node27</title>
<path fill="none" stroke="midnightblue" d="M730.72,-219.59C772.1,-196.16 883.04,-135.04 981,-96.18 991.57,-91.98 1003.17,-88.1 1014.16,-84.73"/>
<polygon fill="midnightblue" stroke="midnightblue" points="1015.46,-87.99 1024.04,-81.78 1013.46,-81.28 1015.46,-87.99"/>
</g>
<!-- Node8 -->
<g id="node8" class="node">
<title>Node8</title>
<g id="a_node8"><a xlink:href="group__as__iic__bitchecks.html#gaa4e8718c748b5a7e956a38ffd6dbe15d" target="_top" xlink:title=" ">
<polygon fill="none" stroke="black" points="1193,-340.68 1193,-359.68 1307,-359.68 1307,-340.68 1193,-340.68"/>
<text text-anchor="middle" x="1250" y="-347.68" font-family="Helvetica,sans-Serif" font-size="10.00">as_iic_ack_received</text>
</a>
</g>
</g>
<!-- Node7&#45;&gt;Node8 -->
<g id="edge7" class="edge">
<title>Node7&#45;&gt;Node8</title>
<path fill="none" stroke="midnightblue" d="M887.35,-238.88C902.48,-258.03 939.21,-300.44 981,-319.18 1045.27,-348 1126.52,-353.65 1182.62,-353.42"/>
<polygon fill="midnightblue" stroke="midnightblue" points="1182.83,-356.92 1192.79,-353.31 1182.75,-349.92 1182.83,-356.92"/>
</g>
<!-- Node12 -->
<g id="node12" class="node">
<title>Node12</title>
<g id="a_node12"><a xlink:href="group__as__iic__wait.html#gad3cfec26b8a73166e060108cf1444a2b" target="_top" xlink:title=" ">
<polygon fill="none" stroke="black" points="1191,-253.18 1191,-283.18 1309,-283.18 1309,-253.18 1191,-253.18"/>
<text text-anchor="start" x="1199" y="-271.18" font-family="Helvetica,sans-Serif" font-size="10.00">as_iic_busy_wait_for</text>
<text text-anchor="middle" x="1250" y="-260.18" font-family="Helvetica,sans-Serif" font-size="10.00">_hwready</text>
</a>
</g>
</g>
<!-- Node7&#45;&gt;Node12 -->
<g id="edge11" class="edge">
<title>Node7&#45;&gt;Node12</title>
<path fill="none" stroke="midnightblue" d="M945.12,-236.06C1011.34,-243.06 1113.52,-253.86 1180.83,-260.97"/>
<polygon fill="midnightblue" stroke="midnightblue" points="1180.59,-264.47 1190.91,-262.04 1181.33,-257.51 1180.59,-264.47"/>
</g>
<!-- Node13 -->
<g id="node13" class="node">
<title>Node13</title>
<g id="a_node13"><a xlink:href="group__as__iic__user.html#gacdb0c71d0fcfe5e50a7f7316762cd0c0" target="_top" xlink:title=" ">
<polygon fill="none" stroke="black" points="1366,-235.68 1366,-254.68 1457,-254.68 1457,-235.68 1366,-235.68"/>
<text text-anchor="middle" x="1411.5" y="-242.68" font-family="Helvetica,sans-Serif" font-size="10.00">as_iic_is_ready</text>
</a>
</g>
</g>
<!-- Node7&#45;&gt;Node13 -->
<g id="edge23" class="edge">
<title>Node7&#45;&gt;Node13</title>
<path fill="none" stroke="midnightblue" d="M945.05,-231.14C1050.6,-234.32 1257.27,-240.56 1355.77,-243.53"/>
<polygon fill="midnightblue" stroke="midnightblue" points="1355.71,-247.03 1365.81,-243.83 1355.92,-240.03 1355.71,-247.03"/>
</g>
<!-- Node18 -->
<g id="node18" class="node">
<title>Node18</title>
<g id="a_node18"><a xlink:href="group__as__iic__wait.html#ga0bc5aad64893b674c42943fb64d17676" target="_top" xlink:title=" ">
<polygon fill="none" stroke="black" points="1178,-378.68 1178,-397.68 1322,-397.68 1322,-378.68 1178,-378.68"/>
<text text-anchor="middle" x="1250" y="-385.68" font-family="Helvetica,sans-Serif" font-size="10.00">as_iic_busy_wait_for_wait</text>
</a>
</g>
</g>
<!-- Node7&#45;&gt;Node18 -->
<g id="edge18" class="edge">
<title>Node7&#45;&gt;Node18</title>
<path fill="none" stroke="midnightblue" d="M884.98,-239.02C897.49,-262.59 932.7,-322.3 981,-349.18 1037.95,-380.87 1111.81,-389.68 1167.56,-391.09"/>
<polygon fill="midnightblue" stroke="midnightblue" points="1167.69,-394.59 1177.75,-391.27 1167.82,-387.59 1167.69,-394.59"/>
</g>
<!-- Node20 -->
<g id="node20" class="node">
<title>Node20</title>
<g id="a_node20"><a xlink:href="group__as__iic__bitchecks.html#gad90ab4c2ed7fbca8f768c87cdb5794ee" target="_top" xlink:title=" ">
<polygon fill="none" stroke="black" points="1006,-138.68 1006,-157.68 1117,-157.68 1117,-138.68 1006,-138.68"/>
<text text-anchor="middle" x="1061.5" y="-145.68" font-family="Helvetica,sans-Serif" font-size="10.00">as_iic_is_initialized</text>
</a>
</g>
</g>
<!-- Node7&#45;&gt;Node20 -->
<g id="edge22" class="edge">
<title>Node7&#45;&gt;Node20</title>
<path fill="none" stroke="midnightblue" d="M894.53,-219.61C913.7,-207.32 948.78,-185.93 981,-172.18 991.15,-167.84 1002.34,-163.96 1013.04,-160.63"/>
<polygon fill="midnightblue" stroke="midnightblue" points="1014.11,-163.97 1022.69,-157.75 1012.1,-157.26 1014.11,-163.97"/>
</g>
<!-- Node21 -->
<g id="node21" class="node">
<title>Node21</title>
<g id="a_node21"><a xlink:href="group__as__iic__user.html#gae03c311fae3d6a830878a2b0c2c1c2bf" target="_top" xlink:title=" ">
<polygon fill="none" stroke="black" points="1188,-100.68 1188,-119.68 1312,-119.68 1312,-100.68 1188,-100.68"/>
<text text-anchor="middle" x="1250" y="-107.68" font-family="Helvetica,sans-Serif" font-size="10.00">as_iic_reset_hw_state</text>
</a>
</g>
</g>
<!-- Node7&#45;&gt;Node21 -->
<g id="edge24" class="edge">
<title>Node7&#45;&gt;Node21</title>
<path fill="none" stroke="midnightblue" d="M886.14,-219.53C900.05,-198.63 936.28,-149.45 981,-129.18 1043.09,-101.03 1121.64,-98.83 1177.61,-102.12"/>
<polygon fill="midnightblue" stroke="midnightblue" points="1177.58,-105.63 1187.79,-102.8 1178.04,-98.64 1177.58,-105.63"/>
</g>
<!-- Node22 -->
<g id="node22" class="node">
<title>Node22</title>
<g id="a_node22"><a xlink:href="group__as__iic__reg__funcs.html#gac83a48fc09234a7a99adafb1ce565eb0" target="_top" xlink:title=" ">
<polygon fill="none" stroke="black" points="1359.5,-100.68 1359.5,-119.68 1463.5,-119.68 1463.5,-100.68 1359.5,-100.68"/>
<text text-anchor="middle" x="1411.5" y="-107.68" font-family="Helvetica,sans-Serif" font-size="10.00">as_iic_set_control</text>
</a>
</g>
</g>
<!-- Node7&#45;&gt;Node22 -->
<g id="edge28" class="edge">
<title>Node7&#45;&gt;Node22</title>
<path fill="none" stroke="midnightblue" d="M882.18,-219.27C889.59,-188.2 917.04,-92.42 981,-53.18 1110.24,26.11 1178.27,5.09 1322,-43.18 1351.2,-52.98 1378.44,-76.67 1394.78,-93.07"/>
<polygon fill="midnightblue" stroke="midnightblue" points="1392.43,-95.68 1401.89,-100.45 1397.47,-90.82 1392.43,-95.68"/>
</g>
<!-- Node25 -->
<g id="node25" class="node">
<title>Node25</title>
<g id="a_node25"><a xlink:href="group__as__iic__reg__funcs.html#ga8058473baeded71954aa72ee8df24e9b" target="_top" xlink:title=" ">
<polygon fill="none" stroke="black" points="1358,-138.68 1358,-157.68 1465,-157.68 1465,-138.68 1358,-138.68"/>
<text text-anchor="middle" x="1411.5" y="-145.68" font-family="Helvetica,sans-Serif" font-size="10.00">as_iic_set_data_tx</text>
</a>
</g>
</g>
<!-- Node7&#45;&gt;Node25 -->
<g id="edge29" class="edge">
<title>Node7&#45;&gt;Node25</title>
<path fill="none" stroke="midnightblue" d="M942.42,-219.65C1044.36,-204.08 1245.47,-173.38 1347.68,-157.77"/>
<polygon fill="midnightblue" stroke="midnightblue" points="1348.49,-161.19 1357.85,-156.22 1347.44,-154.27 1348.49,-161.19"/>
</g>
<!-- Node26 -->
<g id="node26" class="node">
<title>Node26</title>
<g id="a_node26"><a xlink:href="group__as__iic__helpers.html#ga67cc002a1b20c75dc26f7b328ca5ddc9" target="_top" xlink:title=" ">
<polygon fill="none" stroke="black" points="981,-290.68 981,-309.68 1142,-309.68 1142,-290.68 981,-290.68"/>
<text text-anchor="middle" x="1061.5" y="-297.68" font-family="Helvetica,sans-Serif" font-size="10.00">as_iic_stop_write_transaction</text>
</a>
</g>
</g>
<!-- Node7&#45;&gt;Node26 -->
<g id="edge32" class="edge">
<title>Node7&#45;&gt;Node26</title>
<path fill="none" stroke="midnightblue" d="M898.64,-238.83C918.65,-248.96 951.54,-264.94 981,-276.18 991.94,-280.35 1003.94,-284.29 1015.22,-287.73"/>
<polygon fill="midnightblue" stroke="midnightblue" points="1014.33,-291.11 1024.91,-290.61 1016.33,-284.4 1014.33,-291.11"/>
</g>
<!-- Node9 -->
<g id="node9" class="node">
<title>Node9</title>
<g id="a_node9"><a xlink:href="group__as__iic__reg__funcs.html#ga8daa8fde0a7776aa2f5b335250b5aa2a" target="_top" xlink:title=" ">
<polygon fill="none" stroke="black" points="1501,-254.68 1501,-273.68 1623,-273.68 1623,-254.68 1501,-254.68"/>
<text text-anchor="middle" x="1562" y="-261.68" font-family="Helvetica,sans-Serif" font-size="10.00">as_iic_get_status_reg</text>
</a>
</g>
</g>
<!-- Node8&#45;&gt;Node9 -->
<g id="edge8" class="edge">
<title>Node8&#45;&gt;Node9</title>
<path fill="none" stroke="midnightblue" d="M1269.04,-340.49C1289.9,-329.67 1325.55,-312.33 1358,-302.18 1401.12,-288.68 1450.99,-279.26 1490.5,-273.18"/>
<polygon fill="midnightblue" stroke="midnightblue" points="1491.21,-276.61 1500.58,-271.66 1490.17,-269.69 1491.21,-276.61"/>
</g>
<!-- Node10 -->
<g id="node10" class="node">
<title>Node10</title>
<g id="a_node10"><a xlink:href="group__asterics__support.html#ga8e5c2bfd2e4498d10289377bd94cef07" target="_top" xlink:title=" ">
<polygon fill="none" stroke="black" points="1677.5,-138.68 1677.5,-157.68 1753.5,-157.68 1753.5,-138.68 1677.5,-138.68"/>
<text text-anchor="middle" x="1715.5" y="-145.68" font-family="Helvetica,sans-Serif" font-size="10.00">as_reg_read</text>
</a>
</g>
</g>
<!-- Node9&#45;&gt;Node10 -->
<g id="edge9" class="edge">
<title>Node9&#45;&gt;Node10</title>
<path fill="none" stroke="midnightblue" d="M1575.66,-254.49C1601.79,-234.48 1661.93,-188.43 1693.8,-164.03"/>
<polygon fill="midnightblue" stroke="midnightblue" points="1696.17,-166.62 1701.99,-157.76 1691.92,-161.06 1696.17,-166.62"/>
</g>
<!-- Node11 -->
<g id="node11" class="node">
<title>Node11</title>
<g id="a_node11"><a xlink:href="group__asterics__support.html#ga4c6d688b840a6e2edc9bc0b8ed961677" target="_top" xlink:title=" ">
<polygon fill="none" stroke="black" points="1808,-138.68 1808,-157.68 1908,-157.68 1908,-138.68 1808,-138.68"/>
<text text-anchor="middle" x="1858" y="-145.68" font-family="Helvetica,sans-Serif" font-size="10.00">as_reg_to_uint32</text>
</a>
</g>
</g>
<!-- Node10&#45;&gt;Node11 -->
<g id="edge10" class="edge">
<title>Node10&#45;&gt;Node11</title>
<path fill="none" stroke="midnightblue" d="M1753.78,-148.18C1767.26,-148.18 1782.83,-148.18 1797.72,-148.18"/>
<polygon fill="midnightblue" stroke="midnightblue" points="1797.89,-151.68 1807.89,-148.18 1797.89,-144.68 1797.89,-151.68"/>
</g>
<!-- Node12&#45;&gt;Node13 -->
<g id="edge12" class="edge">
<title>Node12&#45;&gt;Node13</title>
<path fill="none" stroke="midnightblue" d="M1309.03,-259.81C1324.23,-257.62 1340.57,-255.26 1355.6,-253.09"/>
<polygon fill="midnightblue" stroke="midnightblue" points="1356.37,-256.52 1365.76,-251.63 1355.37,-249.59 1356.37,-256.52"/>
</g>
<!-- Node12&#45;&gt;Node14 -->
<g id="edge14" class="edge">
<title>Node12&#45;&gt;Node14</title>
<path fill="none" stroke="midnightblue" d="M1296.28,-283.22C1320.19,-291.17 1349.21,-300.81 1372.02,-308.39"/>
<polygon fill="midnightblue" stroke="midnightblue" points="1371.11,-311.78 1381.7,-311.61 1373.32,-305.13 1371.11,-311.78"/>
</g>
<!-- Node13&#45;&gt;Node9 -->
<g id="edge13" class="edge">
<title>Node13&#45;&gt;Node9</title>
<path fill="none" stroke="midnightblue" d="M1457.05,-250.88C1467.69,-252.24 1479.31,-253.72 1490.79,-255.19"/>
<polygon fill="midnightblue" stroke="midnightblue" points="1490.46,-258.68 1500.82,-256.48 1491.34,-251.74 1490.46,-258.68"/>
</g>
<!-- Node15 -->
<g id="node15" class="node">
<title>Node15</title>
<g id="a_node15"><a xlink:href="group__asterics__support.html#ga284d9e0d170cf7cabc16ccd7e62d95bd" target="_top" xlink:title=" ">
<polygon fill="none" stroke="black" points="1533.5,-311.68 1533.5,-330.68 1590.5,-330.68 1590.5,-311.68 1533.5,-311.68"/>
<text text-anchor="middle" x="1562" y="-318.68" font-family="Helvetica,sans-Serif" font-size="10.00">as_yield</text>
</a>
</g>
</g>
<!-- Node14&#45;&gt;Node15 -->
<g id="edge15" class="edge">
<title>Node14&#45;&gt;Node15</title>
<path fill="none" stroke="midnightblue" d="M1441.13,-321.18C1464.54,-321.18 1497.82,-321.18 1523.38,-321.18"/>
<polygon fill="midnightblue" stroke="midnightblue" points="1523.46,-324.68 1533.46,-321.18 1523.46,-317.68 1523.46,-324.68"/>
</g>
<!-- Node16 -->
<g id="node16" class="node">
<title>Node16</title>
<g id="a_node16"><a xlink:href="group__asterics__support.html#gad294e0c5530bd6fb800a2394179070e1" target="_top" xlink:title=" ">
<polygon fill="none" stroke="black" points="1670.5,-330.68 1670.5,-349.68 1760.5,-349.68 1760.5,-330.68 1670.5,-330.68"/>
<text text-anchor="middle" x="1715.5" y="-337.68" font-family="Helvetica,sans-Serif" font-size="10.00">as_mutex_lock</text>
</a>
</g>
</g>
<!-- Node15&#45;&gt;Node16 -->
<g id="edge16" class="edge">
<title>Node15&#45;&gt;Node16</title>
<path fill="none" stroke="midnightblue" d="M1590.79,-324.66C1610.13,-327.09 1636.57,-330.4 1660.04,-333.35"/>
<polygon fill="midnightblue" stroke="midnightblue" points="1659.88,-336.85 1670.23,-334.63 1660.75,-329.91 1659.88,-336.85"/>
</g>
<!-- Node17 -->
<g id="node17" class="node">
<title>Node17</title>
<g id="a_node17"><a xlink:href="group__asterics__support.html#ga07e09e825f2608339f6213edb9d0c8b3" target="_top" xlink:title=" ">
<polygon fill="none" stroke="black" points="1664.5,-292.68 1664.5,-311.68 1766.5,-311.68 1766.5,-292.68 1664.5,-292.68"/>
<text text-anchor="middle" x="1715.5" y="-299.68" font-family="Helvetica,sans-Serif" font-size="10.00">as_mutex_unlock</text>
</a>
</g>
</g>
<!-- Node15&#45;&gt;Node17 -->
<g id="edge17" class="edge">
<title>Node15&#45;&gt;Node17</title>
<path fill="none" stroke="midnightblue" d="M1590.79,-317.69C1608.57,-315.46 1632.33,-312.48 1654.28,-309.73"/>
<polygon fill="midnightblue" stroke="midnightblue" points="1654.72,-313.2 1664.21,-308.48 1653.85,-306.26 1654.72,-313.2"/>
</g>
<!-- Node18&#45;&gt;Node14 -->
<g id="edge21" class="edge">
<title>Node18&#45;&gt;Node14</title>
<path fill="none" stroke="midnightblue" d="M1293.21,-378.64C1302.81,-375.98 1312.87,-372.81 1322,-369.18 1344.74,-360.11 1369.09,-346.6 1386.48,-336.22"/>
<polygon fill="midnightblue" stroke="midnightblue" points="1388.64,-339 1395.37,-330.82 1385.01,-333.02 1388.64,-339"/>
</g>
<!-- Node19 -->
<g id="node19" class="node">
<title>Node19</title>
<g id="a_node19"><a xlink:href="group__as__iic__bitchecks.html#ga4629e4514c3531d0bcd44ae20abc6bad" target="_top" xlink:title=" ">
<polygon fill="none" stroke="black" points="1362,-368.68 1362,-387.68 1461,-387.68 1461,-368.68 1362,-368.68"/>
<text text-anchor="middle" x="1411.5" y="-375.68" font-family="Helvetica,sans-Serif" font-size="10.00">as_iic_is_waiting</text>
</a>
</g>
</g>
<!-- Node18&#45;&gt;Node19 -->
<g id="edge19" class="edge">
<title>Node18&#45;&gt;Node19</title>
<path fill="none" stroke="midnightblue" d="M1322.35,-383.7C1332.1,-383.09 1342.01,-382.47 1351.51,-381.88"/>
<polygon fill="midnightblue" stroke="midnightblue" points="1351.85,-385.36 1361.62,-381.24 1351.42,-378.37 1351.85,-385.36"/>
</g>
<!-- Node19&#45;&gt;Node9 -->
<g id="edge20" class="edge">
<title>Node19&#45;&gt;Node9</title>
<path fill="none" stroke="midnightblue" d="M1427.31,-368.55C1438.14,-361.25 1452.98,-350.71 1465,-340.18 1482.5,-324.85 1483.04,-316.96 1501,-302.18 1511.41,-293.61 1523.88,-285.43 1534.75,-278.86"/>
<polygon fill="midnightblue" stroke="midnightblue" points="1536.58,-281.85 1543.42,-273.76 1533.02,-275.82 1536.58,-281.85"/>
</g>
<!-- Node21&#45;&gt;Node22 -->
<g id="edge25" class="edge">
<title>Node21&#45;&gt;Node22</title>
<path fill="none" stroke="midnightblue" d="M1312.21,-110.18C1324.36,-110.18 1337.11,-110.18 1349.26,-110.18"/>
<polygon fill="midnightblue" stroke="midnightblue" points="1349.3,-113.68 1359.3,-110.18 1349.3,-106.68 1349.3,-113.68"/>
</g>
<!-- Node23 -->
<g id="node23" class="node">
<title>Node23</title>
<g id="a_node23"><a xlink:href="group__asterics__support.html#ga6345b997e24a6cd5f9143cef27629d49" target="_top" xlink:title=" ">
<polygon fill="none" stroke="black" points="1522.5,-100.68 1522.5,-119.68 1601.5,-119.68 1601.5,-100.68 1522.5,-100.68"/>
<text text-anchor="middle" x="1562" y="-107.68" font-family="Helvetica,sans-Serif" font-size="10.00">as_reg_write</text>
</a>
</g>
</g>
<!-- Node22&#45;&gt;Node23 -->
<g id="edge26" class="edge">
<title>Node22&#45;&gt;Node23</title>
<path fill="none" stroke="midnightblue" d="M1463.61,-110.18C1479.28,-110.18 1496.49,-110.18 1512.02,-110.18"/>
<polygon fill="midnightblue" stroke="midnightblue" points="1512.47,-113.68 1522.47,-110.18 1512.47,-106.68 1512.47,-113.68"/>
</g>
<!-- Node24 -->
<g id="node24" class="node">
<title>Node24</title>
<g id="a_node24"><a xlink:href="group__asterics__support.html#gab651cc2c035ce61b354578434e59f822" target="_top" xlink:title=" ">
<polygon fill="none" stroke="black" points="1659,-100.68 1659,-119.68 1772,-119.68 1772,-100.68 1659,-100.68"/>
<text text-anchor="middle" x="1715.5" y="-107.68" font-family="Helvetica,sans-Serif" font-size="10.00">as_reg_from_uint32</text>
</a>
</g>
</g>
<!-- Node23&#45;&gt;Node24 -->
<g id="edge27" class="edge">
<title>Node23&#45;&gt;Node24</title>
<path fill="none" stroke="midnightblue" d="M1601.62,-110.18C1615.86,-110.18 1632.43,-110.18 1648.41,-110.18"/>
<polygon fill="midnightblue" stroke="midnightblue" points="1648.79,-113.68 1658.79,-110.18 1648.79,-106.68 1648.79,-113.68"/>
</g>
<!-- Node25&#45;&gt;Node10 -->
<g id="edge30" class="edge">
<title>Node25&#45;&gt;Node10</title>
<path fill="none" stroke="midnightblue" d="M1465.1,-148.18C1522.1,-148.18 1612.22,-148.18 1667.1,-148.18"/>
<polygon fill="midnightblue" stroke="midnightblue" points="1667.25,-151.68 1677.25,-148.18 1667.25,-144.68 1667.25,-151.68"/>
</g>
<!-- Node25&#45;&gt;Node23 -->
<g id="edge31" class="edge">
<title>Node25&#45;&gt;Node23</title>
<path fill="none" stroke="midnightblue" d="M1449.97,-138.59C1469.39,-133.62 1493.3,-127.5 1513.95,-122.22"/>
<polygon fill="midnightblue" stroke="midnightblue" points="1514.98,-125.57 1523.8,-119.7 1513.24,-118.79 1514.98,-125.57"/>
</g>
<!-- Node26&#45;&gt;Node8 -->
<g id="edge33" class="edge">
<title>Node26&#45;&gt;Node8</title>
<path fill="none" stroke="midnightblue" d="M1098.02,-309.7C1128,-317.74 1171.1,-329.29 1203.58,-338"/>
<polygon fill="midnightblue" stroke="midnightblue" points="1202.73,-341.4 1213.3,-340.61 1204.54,-334.64 1202.73,-341.4"/>
</g>
<!-- Node26&#45;&gt;Node12 -->
<g id="edge34" class="edge">
<title>Node26&#45;&gt;Node12</title>
<path fill="none" stroke="midnightblue" d="M1117.95,-290.66C1137.7,-287.27 1160.17,-283.42 1180.85,-279.87"/>
<polygon fill="midnightblue" stroke="midnightblue" points="1181.58,-283.3 1190.85,-278.16 1180.4,-276.4 1181.58,-283.3"/>
</g>
<!-- Node26&#45;&gt;Node14 -->
<g id="edge37" class="edge">
<title>Node26&#45;&gt;Node14</title>
<path fill="none" stroke="midnightblue" d="M1142.34,-305C1214.16,-309.33 1316.62,-315.51 1371.78,-318.84"/>
<polygon fill="midnightblue" stroke="midnightblue" points="1371.64,-322.34 1381.83,-319.45 1372.06,-315.35 1371.64,-322.34"/>
</g>
<!-- Node26&#45;&gt;Node21 -->
<g id="edge35" class="edge">
<title>Node26&#45;&gt;Node21</title>
<path fill="none" stroke="midnightblue" d="M1070.54,-290.51C1088.83,-268.67 1135.33,-214.16 1178,-172.18 1194.58,-155.87 1214.63,-138.56 1229.19,-126.39"/>
<polygon fill="midnightblue" stroke="midnightblue" points="1231.6,-128.94 1237.06,-119.86 1227.13,-123.55 1231.6,-128.94"/>
</g>
<!-- Node26&#45;&gt;Node22 -->
<g id="edge36" class="edge">
<title>Node26&#45;&gt;Node22</title>
<path fill="none" stroke="midnightblue" d="M1077.07,-290.49C1119.21,-262.75 1245.44,-181.61 1358,-129.18 1362.38,-127.14 1367.05,-125.17 1371.72,-123.32"/>
<polygon fill="midnightblue" stroke="midnightblue" points="1373.13,-126.54 1381.24,-119.73 1370.65,-119.99 1373.13,-126.54"/>
</g>
<!-- Node27&#45;&gt;Node12 -->
<g id="edge39" class="edge">
<title>Node27&#45;&gt;Node12</title>
<path fill="none" stroke="midnightblue" d="M1078.78,-81.86C1095.64,-92.31 1122.22,-110.06 1142,-129.18 1179.34,-165.27 1214.42,-214.96 1233.67,-244.12"/>
<polygon fill="midnightblue" stroke="midnightblue" points="1230.96,-246.36 1239.35,-252.82 1236.82,-242.53 1230.96,-246.36"/>
</g>
<!-- Node27&#45;&gt;Node14 -->
<g id="edge44" class="edge">
<title>Node27&#45;&gt;Node14</title>
<path fill="none" stroke="midnightblue" d="M1140.8,-67.91C1207.24,-66.04 1295.84,-68.26 1322,-91.18 1381.08,-142.93 1322.1,-194.33 1358,-264.18 1366.02,-279.78 1379.48,-294.27 1390.77,-304.74"/>
<polygon fill="midnightblue" stroke="midnightblue" points="1388.69,-307.58 1398.49,-311.61 1393.35,-302.35 1388.69,-307.58"/>
</g>
<!-- Node27&#45;&gt;Node21 -->
<g id="edge42" class="edge">
<title>Node27&#45;&gt;Node21</title>
<path fill="none" stroke="midnightblue" d="M1109.56,-81.77C1134.73,-86.89 1165.9,-93.24 1192.38,-98.64"/>
<polygon fill="midnightblue" stroke="midnightblue" points="1191.78,-102.09 1202.28,-100.66 1193.18,-95.23 1191.78,-102.09"/>
</g>
<!-- Node27&#45;&gt;Node22 -->
<g id="edge43" class="edge">
<title>Node27&#45;&gt;Node22</title>
<path fill="none" stroke="midnightblue" d="M1101.12,-62.63C1152.52,-51.6 1245.81,-37.45 1322,-58.18 1347.77,-65.19 1373.7,-81.81 1390.77,-94.39"/>
<polygon fill="midnightblue" stroke="midnightblue" points="1388.76,-97.26 1398.84,-100.53 1393,-91.69 1388.76,-97.26"/>
</g>
<!-- Node28 -->
<g id="node28" class="node">
<title>Node28</title>
<g id="a_node28"><a xlink:href="group__as__iic__reg__funcs.html#gace5813084165559c81fe11db6b628b5e" target="_top" xlink:title=" ">
<polygon fill="none" stroke="black" points="1508.5,-5.68 1508.5,-24.68 1615.5,-24.68 1615.5,-5.68 1508.5,-5.68"/>
<text text-anchor="middle" x="1562" y="-12.68" font-family="Helvetica,sans-Serif" font-size="10.00">as_iic_get_rx_byte</text>
</a>
</g>
</g>
<!-- Node27&#45;&gt;Node28 -->
<g id="edge40" class="edge">
<title>Node27&#45;&gt;Node28</title>
<path fill="none" stroke="midnightblue" d="M1094.55,-62.54C1117.56,-56.02 1149.42,-47.77 1178,-43.18 1289.75,-25.2 1421.71,-18.75 1497.94,-16.45"/>
<polygon fill="midnightblue" stroke="midnightblue" points="1498.42,-19.94 1508.32,-16.15 1498.22,-12.94 1498.42,-19.94"/>
</g>
<!-- Node28&#45;&gt;Node10 -->
<g id="edge41" class="edge">
<title>Node28&#45;&gt;Node10</title>
<path fill="none" stroke="midnightblue" d="M1570.69,-24.9C1591.46,-51.07 1647.9,-121.58 1659,-129.18 1661.86,-131.14 1664.94,-132.91 1668.13,-134.51"/>
<polygon fill="midnightblue" stroke="midnightblue" points="1666.77,-137.74 1677.33,-138.59 1669.61,-131.34 1666.77,-137.74"/>
</g>
<!-- Node30 -->
<g id="node30" class="node">
<title>Node30</title>
<g id="a_node30"><a xlink:href="group__as__iic__user.html#ga08fcff0dba9d6b4898291746d2206408" target="_top" xlink:title=" ">
<polygon fill="none" stroke="black" points="649,-276.68 649,-295.68 777,-295.68 777,-276.68 649,-276.68"/>
<text text-anchor="middle" x="713" y="-283.68" font-family="Helvetica,sans-Serif" font-size="10.00">as_iic_write_byte_mod</text>
</a>
</g>
</g>
<!-- Node29&#45;&gt;Node30 -->
<g id="edge46" class="edge">
<title>Node29&#45;&gt;Node30</title>
<path fill="none" stroke="midnightblue" d="M613.36,-286.18C621.54,-286.18 630.16,-286.18 638.76,-286.18"/>
<polygon fill="midnightblue" stroke="midnightblue" points="638.82,-289.68 648.82,-286.18 638.82,-282.68 638.82,-289.68"/>
</g>
<!-- Node30&#45;&gt;Node7 -->
<g id="edge47" class="edge">
<title>Node30&#45;&gt;Node7</title>
<path fill="none" stroke="midnightblue" d="M741.45,-276.64C768.65,-267.18 810.5,-252.64 840.7,-242.14"/>
<polygon fill="midnightblue" stroke="midnightblue" points="842.16,-245.34 850.46,-238.75 839.87,-238.73 842.16,-245.34"/>
</g>
<!-- Node30&#45;&gt;Node26 -->
<g id="edge48" class="edge">
<title>Node30&#45;&gt;Node26</title>
<path fill="none" stroke="midnightblue" d="M777.15,-288.73C831.22,-290.91 909.71,-294.08 970.38,-296.54"/>
<polygon fill="midnightblue" stroke="midnightblue" points="970.58,-300.05 980.72,-296.95 970.87,-293.05 970.58,-300.05"/>
</g>
</g>
</svg>
