<?xml version="1.0" encoding="UTF-8" standalone="no"?>
<!DOCTYPE svg PUBLIC "-//W3C//DTD SVG 1.1//EN"
 "http://www.w3.org/Graphics/SVG/1.1/DTD/svg11.dtd">
<!-- Generated by graphviz version 2.43.0 (0)
 -->
<!-- Title: as_picam_init Pages: 1 -->
<svg width="560pt" height="142pt"
 viewBox="0.00 0.00 560.00 142.00" xmlns="http://www.w3.org/2000/svg" xmlns:xlink="http://www.w3.org/1999/xlink">
<g id="graph0" class="graph" transform="scale(1 1) rotate(0) translate(4 138)">
<title>as_picam_init</title>
<!-- Node1 -->
<g id="node1" class="node">
<title>Node1</title>
<g id="a_node1"><a xlink:title=" ">
<polygon fill="#bfbfbf" stroke="black" points="0,-57.5 0,-76.5 84,-76.5 84,-57.5 0,-57.5"/>
<text text-anchor="middle" x="42" y="-64.5" font-family="Helvetica,sans-Serif" font-size="10.00">as_picam_init</text>
</a>
</g>
</g>
<!-- Node2 -->
<g id="node2" class="node">
<title>Node2</title>
<g id="a_node2"><a xlink:href="as__picam_8c.html#aa33c23d23cf605e74e92736738d8868a" target="_top" xlink:title=" ">
<polygon fill="none" stroke="black" points="120,-76.5 120,-95.5 251,-95.5 251,-76.5 120,-76.5"/>
<text text-anchor="middle" x="185.5" y="-83.5" font-family="Helvetica,sans-Serif" font-size="10.00">configure_picam_v1_iic</text>
</a>
</g>
</g>
<!-- Node1&#45;&gt;Node2 -->
<g id="edge1" class="edge">
<title>Node1&#45;&gt;Node2</title>
<path fill="none" stroke="midnightblue" d="M84.31,-72.55C92.43,-73.64 101.18,-74.81 110,-76"/>
<polygon fill="midnightblue" stroke="midnightblue" points="109.6,-79.47 119.97,-77.34 110.53,-72.54 109.6,-79.47"/>
</g>
<!-- Node5 -->
<g id="node5" class="node">
<title>Node5</title>
<g id="a_node5"><a xlink:href="as__picam_8c.html#a3c9489873b0ecdb233db0ef89ac1ed56" target="_top" xlink:title=" ">
<polygon fill="none" stroke="black" points="120,-114.5 120,-133.5 251,-133.5 251,-114.5 120,-114.5"/>
<text text-anchor="middle" x="185.5" y="-121.5" font-family="Helvetica,sans-Serif" font-size="10.00">configure_picam_v2_iic</text>
</a>
</g>
</g>
<!-- Node1&#45;&gt;Node5 -->
<g id="edge5" class="edge">
<title>Node1&#45;&gt;Node5</title>
<path fill="none" stroke="midnightblue" d="M60.35,-76.64C75.71,-84.9 98.89,-96.75 120,-105 125.85,-107.29 132.09,-109.45 138.3,-111.44"/>
<polygon fill="midnightblue" stroke="midnightblue" points="137.38,-114.82 147.97,-114.43 139.45,-108.13 137.38,-114.82"/>
</g>
<!-- Node6 -->
<g id="node6" class="node">
<title>Node6</title>
<g id="a_node6"><a xlink:href="as__picam_8c.html#ad8ac4cf0df168140263d8548fb49d328" target="_top" xlink:title=" ">
<polygon fill="none" stroke="black" points="161,-38.5 161,-57.5 210,-57.5 210,-38.5 161,-38.5"/>
<text text-anchor="middle" x="185.5" y="-45.5" font-family="Helvetica,sans-Serif" font-size="10.00">init_iic</text>
</a>
</g>
</g>
<!-- Node1&#45;&gt;Node6 -->
<g id="edge7" class="edge">
<title>Node1&#45;&gt;Node6</title>
<path fill="none" stroke="midnightblue" d="M84.31,-61.45C105.33,-58.63 130.57,-55.24 150.46,-52.57"/>
<polygon fill="midnightblue" stroke="midnightblue" points="151.16,-56.01 160.61,-51.21 150.23,-49.07 151.16,-56.01"/>
</g>
<!-- Node7 -->
<g id="node7" class="node">
<title>Node7</title>
<g id="a_node7"><a xlink:href="as__picam_8c.html#a8245274745b11e50c989b785c3723b88" target="_top" xlink:title=" ">
<polygon fill="none" stroke="black" points="136.5,-0.5 136.5,-19.5 234.5,-19.5 234.5,-0.5 136.5,-0.5"/>
<text text-anchor="middle" x="185.5" y="-7.5" font-family="Helvetica,sans-Serif" font-size="10.00">read_iic_register</text>
</a>
</g>
</g>
<!-- Node1&#45;&gt;Node7 -->
<g id="edge8" class="edge">
<title>Node1&#45;&gt;Node7</title>
<path fill="none" stroke="midnightblue" d="M60.35,-57.36C75.71,-49.1 98.89,-37.25 120,-29 125.85,-26.71 132.09,-24.55 138.3,-22.56"/>
<polygon fill="midnightblue" stroke="midnightblue" points="139.45,-25.87 147.97,-19.57 137.38,-19.18 139.45,-25.87"/>
</g>
<!-- Node3 -->
<g id="node3" class="node">
<title>Node3</title>
<g id="a_node3"><a xlink:href="as__picam_8c.html#ae4f545f6a4b1d4acce3becaf8223909f" target="_top" xlink:title=" ">
<polygon fill="none" stroke="black" points="287,-114.5 287,-133.5 415,-133.5 415,-114.5 287,-114.5"/>
<text text-anchor="middle" x="351" y="-121.5" font-family="Helvetica,sans-Serif" font-size="10.00">write_config_picam_iic</text>
</a>
</g>
</g>
<!-- Node2&#45;&gt;Node3 -->
<g id="edge2" class="edge">
<title>Node2&#45;&gt;Node3</title>
<path fill="none" stroke="midnightblue" d="M227.76,-95.59C249.43,-100.63 276.18,-106.84 299.13,-112.18"/>
<polygon fill="midnightblue" stroke="midnightblue" points="298.51,-115.63 309.04,-114.48 300.09,-108.81 298.51,-115.63"/>
</g>
<!-- Node4 -->
<g id="node4" class="node">
<title>Node4</title>
<g id="a_node4"><a xlink:href="as__picam_8c.html#a0ff2198ba13118bc120a87d4b4df696a" target="_top" xlink:title=" ">
<polygon fill="none" stroke="black" points="451,-95.5 451,-114.5 552,-114.5 552,-95.5 451,-95.5"/>
<text text-anchor="middle" x="501.5" y="-102.5" font-family="Helvetica,sans-Serif" font-size="10.00">write_iic_register</text>
</a>
</g>
</g>
<!-- Node2&#45;&gt;Node4 -->
<g id="edge4" class="edge">
<title>Node2&#45;&gt;Node4</title>
<path fill="none" stroke="midnightblue" d="M251.18,-89.91C306.84,-93.28 386.5,-98.1 440.7,-101.38"/>
<polygon fill="midnightblue" stroke="midnightblue" points="440.65,-104.88 450.84,-102 441.07,-97.9 440.65,-104.88"/>
</g>
<!-- Node3&#45;&gt;Node4 -->
<g id="edge3" class="edge">
<title>Node3&#45;&gt;Node4</title>
<path fill="none" stroke="midnightblue" d="M415.41,-115.89C423.81,-114.81 432.41,-113.71 440.75,-112.64"/>
<polygon fill="midnightblue" stroke="midnightblue" points="441.3,-116.1 450.77,-111.36 440.41,-109.16 441.3,-116.1"/>
</g>
<!-- Node5&#45;&gt;Node3 -->
<g id="edge6" class="edge">
<title>Node5&#45;&gt;Node3</title>
<path fill="none" stroke="midnightblue" d="M251.12,-124C259.59,-124 268.31,-124 276.91,-124"/>
<polygon fill="midnightblue" stroke="midnightblue" points="276.92,-127.5 286.92,-124 276.92,-120.5 276.92,-127.5"/>
</g>
</g>
</svg>
