<?xml version="1.0" encoding="UTF-8" standalone="no"?>
<!DOCTYPE svg PUBLIC "-//W3C//DTD SVG 1.1//EN"
 "http://www.w3.org/Graphics/SVG/1.1/DTD/svg11.dtd">
<!-- Generated by graphviz version 2.43.0 (0)
 -->
<!-- Title: as_mmap_wait_for_completion Pages: 1 -->
<svg width="933pt" height="171pt"
 viewBox="0.00 0.00 933.00 171.00" xmlns="http://www.w3.org/2000/svg" xmlns:xlink="http://www.w3.org/1999/xlink">
<g id="graph0" class="graph" transform="scale(1 1) rotate(0) translate(4 167)">
<title>as_mmap_wait_for_completion</title>
<!-- Node1 -->
<g id="node1" class="node">
<title>Node1</title>
<g id="a_node1"><a xlink:title=" ">
<polygon fill="#bfbfbf" stroke="black" points="0,-72 0,-91 170,-91 170,-72 0,-72"/>
<text text-anchor="middle" x="85" y="-79" font-family="Helvetica,sans-Serif" font-size="10.00">as_mmap_wait_for_completion</text>
</a>
</g>
</g>
<!-- Node2 -->
<g id="node2" class="node">
<title>Node2</title>
<g id="a_node2"><a xlink:href="group__as__buffer.html#ga4be2b60d2ac888f473e52f39c9492368" target="_top" xlink:title=" ">
<polygon fill="none" stroke="black" points="206,-72 206,-91 337,-91 337,-72 206,-72"/>
<text text-anchor="middle" x="271.5" y="-79" font-family="Helvetica,sans-Serif" font-size="10.00">as_buffer_update_state</text>
</a>
</g>
</g>
<!-- Node1&#45;&gt;Node2 -->
<g id="edge1" class="edge">
<title>Node1&#45;&gt;Node2</title>
<path fill="none" stroke="midnightblue" d="M170.15,-81.5C178.66,-81.5 187.27,-81.5 195.68,-81.5"/>
<polygon fill="midnightblue" stroke="midnightblue" points="195.81,-85 205.81,-81.5 195.81,-78 195.81,-85"/>
</g>
<!-- Node3 -->
<g id="node3" class="node">
<title>Node3</title>
<g id="a_node3"><a xlink:href="group__as__reader__writer.html#gaaea10b48e35a224a5870cd3322ffbec2" target="_top" xlink:title="Returns the next address on which the hardware will perform a write operation.">
<polygon fill="none" stroke="black" points="386.5,-132.5 386.5,-162.5 505.5,-162.5 505.5,-132.5 386.5,-132.5"/>
<text text-anchor="start" x="394.5" y="-150.5" font-family="Helvetica,sans-Serif" font-size="10.00">as_reader_writer_get</text>
<text text-anchor="middle" x="446" y="-139.5" font-family="Helvetica,sans-Serif" font-size="10.00">_cur_hw_addr</text>
</a>
</g>
</g>
<!-- Node2&#45;&gt;Node3 -->
<g id="edge2" class="edge">
<title>Node2&#45;&gt;Node3</title>
<path fill="none" stroke="midnightblue" d="M295.12,-91.13C315.4,-99.67 346.02,-112.32 373,-122.5 378.77,-124.68 384.82,-126.89 390.87,-129.05"/>
<polygon fill="midnightblue" stroke="midnightblue" points="389.72,-132.36 400.31,-132.4 392.06,-125.76 389.72,-132.36"/>
</g>
<!-- Node7 -->
<g id="node7" class="node">
<title>Node7</title>
<g id="a_node7"><a xlink:href="group__as__reader__writer.html#ga0e0a5b7e0dd6a14cb0f4251d00a783e8" target="_top" xlink:title="Checks if module is busy.">
<polygon fill="none" stroke="black" points="376,-94 376,-113 516,-113 516,-94 376,-94"/>
<text text-anchor="middle" x="446" y="-101" font-family="Helvetica,sans-Serif" font-size="10.00">as_reader_writer_is_busy</text>
</a>
</g>
</g>
<!-- Node2&#45;&gt;Node7 -->
<g id="edge6" class="edge">
<title>Node2&#45;&gt;Node7</title>
<path fill="none" stroke="midnightblue" d="M337.22,-89.75C346.59,-90.95 356.32,-92.19 365.93,-93.42"/>
<polygon fill="midnightblue" stroke="midnightblue" points="365.51,-96.89 375.87,-94.68 366.4,-89.95 365.51,-96.89"/>
</g>
<!-- Node9 -->
<g id="node9" class="node">
<title>Node9</title>
<g id="a_node9"><a xlink:href="as__cache_8c.html#ae76087a19400fcaebb8397a8a1ee828b" target="_top" xlink:title="Unmap DMA address at end of transfer.">
<polygon fill="none" stroke="black" points="395.5,-6 395.5,-25 496.5,-25 496.5,-6 395.5,-6"/>
<text text-anchor="middle" x="446" y="-13" font-family="Helvetica,sans-Serif" font-size="10.00">as_unmap_single</text>
</a>
</g>
</g>
<!-- Node2&#45;&gt;Node9 -->
<g id="edge10" class="edge">
<title>Node2&#45;&gt;Node9</title>
<path fill="none" stroke="midnightblue" d="M290.6,-71.82C310.41,-61.53 343.3,-45.26 373,-34.5 379.53,-32.13 386.5,-29.92 393.42,-27.91"/>
<polygon fill="midnightblue" stroke="midnightblue" points="394.8,-31.16 403.49,-25.1 392.91,-24.41 394.8,-31.16"/>
</g>
<!-- Node11 -->
<g id="node11" class="node">
<title>Node11</title>
<g id="a_node11"><a xlink:href="group__as__reader__writer.html#ga1ed314dbb9e93fbcbab70d4db197e3b6" target="_top" xlink:title="Returns the first address after the last successfully written unit.">
<polygon fill="none" stroke="black" points="373,-44.5 373,-74.5 519,-74.5 519,-44.5 373,-44.5"/>
<text text-anchor="start" x="381" y="-62.5" font-family="Helvetica,sans-Serif" font-size="10.00">as_writer_get_last</text>
<text text-anchor="middle" x="446" y="-51.5" font-family="Helvetica,sans-Serif" font-size="10.00">_data_unit_complete_addr</text>
</a>
</g>
</g>
<!-- Node2&#45;&gt;Node11 -->
<g id="edge12" class="edge">
<title>Node2&#45;&gt;Node11</title>
<path fill="none" stroke="midnightblue" d="M337.22,-73.25C345.61,-72.18 354.28,-71.07 362.9,-69.97"/>
<polygon fill="midnightblue" stroke="midnightblue" points="363.49,-73.42 372.97,-68.69 362.6,-66.48 363.49,-73.42"/>
</g>
<!-- Node4 -->
<g id="node4" class="node">
<title>Node4</title>
<g id="a_node4"><a xlink:href="group__asterics__support.html#gaa7520f5b717e163da743500adb2eb0b9" target="_top" xlink:title=" ">
<polygon fill="none" stroke="black" points="570.5,-88 570.5,-107 661.5,-107 661.5,-88 570.5,-88"/>
<text text-anchor="middle" x="616" y="-95" font-family="Helvetica,sans-Serif" font-size="10.00">as_module_reg</text>
</a>
</g>
</g>
<!-- Node3&#45;&gt;Node4 -->
<g id="edge3" class="edge">
<title>Node3&#45;&gt;Node4</title>
<path fill="none" stroke="midnightblue" d="M497.41,-132.5C521.57,-125.31 550.17,-116.79 573.12,-109.96"/>
<polygon fill="midnightblue" stroke="midnightblue" points="574.32,-113.26 582.9,-107.05 572.32,-106.55 574.32,-113.26"/>
</g>
<!-- Node5 -->
<g id="node5" class="node">
<title>Node5</title>
<g id="a_node5"><a xlink:href="group__asterics__support.html#ga8e5c2bfd2e4498d10289377bd94cef07" target="_top" xlink:title=" ">
<polygon fill="none" stroke="black" points="713,-126 713,-145 789,-145 789,-126 713,-126"/>
<text text-anchor="middle" x="751" y="-133" font-family="Helvetica,sans-Serif" font-size="10.00">as_reg_read</text>
</a>
</g>
</g>
<!-- Node3&#45;&gt;Node5 -->
<g id="edge4" class="edge">
<title>Node3&#45;&gt;Node5</title>
<path fill="none" stroke="midnightblue" d="M505.86,-154.37C552.47,-158.59 619.15,-161.91 677,-154.5 688.03,-153.09 699.76,-150.52 710.53,-147.73"/>
<polygon fill="midnightblue" stroke="midnightblue" points="711.78,-151.02 720.5,-145 709.93,-144.26 711.78,-151.02"/>
</g>
<!-- Node6 -->
<g id="node6" class="node">
<title>Node6</title>
<g id="a_node6"><a xlink:href="group__asterics__support.html#ga4c6d688b840a6e2edc9bc0b8ed961677" target="_top" xlink:title=" ">
<polygon fill="none" stroke="black" points="825,-126 825,-145 925,-145 925,-126 825,-126"/>
<text text-anchor="middle" x="875" y="-133" font-family="Helvetica,sans-Serif" font-size="10.00">as_reg_to_uint32</text>
</a>
</g>
</g>
<!-- Node5&#45;&gt;Node6 -->
<g id="edge5" class="edge">
<title>Node5&#45;&gt;Node6</title>
<path fill="none" stroke="midnightblue" d="M789.27,-135.5C797.33,-135.5 806.04,-135.5 814.71,-135.5"/>
<polygon fill="midnightblue" stroke="midnightblue" points="814.82,-139 824.82,-135.5 814.82,-132 814.82,-139"/>
</g>
<!-- Node7&#45;&gt;Node4 -->
<g id="edge7" class="edge">
<title>Node7&#45;&gt;Node4</title>
<path fill="none" stroke="midnightblue" d="M516.3,-101.02C530.85,-100.51 546.01,-99.96 559.95,-99.47"/>
<polygon fill="midnightblue" stroke="midnightblue" points="560.48,-102.95 570.35,-99.09 560.23,-95.95 560.48,-102.95"/>
</g>
<!-- Node8 -->
<g id="node8" class="node">
<title>Node8</title>
<g id="a_node8"><a xlink:href="group__asterics__support.html#ga36a2ed59c59831bee59daaae3cb6cb35" target="_top" xlink:title=" ">
<polygon fill="none" stroke="black" points="556.5,-126 556.5,-145 675.5,-145 675.5,-126 556.5,-126"/>
<text text-anchor="middle" x="616" y="-133" font-family="Helvetica,sans-Serif" font-size="10.00">as_reg_read_masked</text>
</a>
</g>
</g>
<!-- Node7&#45;&gt;Node8 -->
<g id="edge8" class="edge">
<title>Node7&#45;&gt;Node8</title>
<path fill="none" stroke="midnightblue" d="M496.95,-113.01C515.15,-116.48 535.92,-120.44 554.91,-124.05"/>
<polygon fill="midnightblue" stroke="midnightblue" points="554.47,-127.53 564.95,-125.97 555.78,-120.66 554.47,-127.53"/>
</g>
<!-- Node8&#45;&gt;Node5 -->
<g id="edge9" class="edge">
<title>Node8&#45;&gt;Node5</title>
<path fill="none" stroke="midnightblue" d="M675.72,-135.5C684.83,-135.5 694.13,-135.5 702.93,-135.5"/>
<polygon fill="midnightblue" stroke="midnightblue" points="702.99,-139 712.99,-135.5 702.99,-132 702.99,-139"/>
</g>
<!-- Node10 -->
<g id="node10" class="node">
<title>Node10</title>
<g id="a_node10"><a xlink:href="group__asterics__support.html#ga85ce164597e47f4aaee22c873e899d4b" target="_top" xlink:title=" ">
<polygon fill="none" stroke="black" points="555,-0.5 555,-30.5 677,-30.5 677,-0.5 555,-0.5"/>
<text text-anchor="start" x="563" y="-18.5" font-family="Helvetica,sans-Serif" font-size="10.00">as_dcache_invalidate</text>
<text text-anchor="middle" x="616" y="-7.5" font-family="Helvetica,sans-Serif" font-size="10.00">_range</text>
</a>
</g>
</g>
<!-- Node9&#45;&gt;Node10 -->
<g id="edge11" class="edge">
<title>Node9&#45;&gt;Node10</title>
<path fill="none" stroke="midnightblue" d="M496.95,-15.5C511.87,-15.5 528.51,-15.5 544.48,-15.5"/>
<polygon fill="midnightblue" stroke="midnightblue" points="544.86,-19 554.86,-15.5 544.86,-12 544.86,-19"/>
</g>
<!-- Node11&#45;&gt;Node4 -->
<g id="edge13" class="edge">
<title>Node11&#45;&gt;Node4</title>
<path fill="none" stroke="midnightblue" d="M513.4,-74.52C529.8,-78.23 547.14,-82.15 562.76,-85.68"/>
<polygon fill="midnightblue" stroke="midnightblue" points="562.22,-89.15 572.75,-87.94 563.77,-82.32 562.22,-89.15"/>
</g>
<!-- Node11&#45;&gt;Node5 -->
<g id="edge14" class="edge">
<title>Node11&#45;&gt;Node5</title>
<path fill="none" stroke="midnightblue" d="M519.07,-55.02C565.64,-54.61 626.72,-58.84 677,-78.5 699.28,-87.21 720.32,-105.05 734.04,-118.47"/>
<polygon fill="midnightblue" stroke="midnightblue" points="731.71,-121.09 741.22,-125.75 736.69,-116.17 731.71,-121.09"/>
</g>
</g>
</svg>
