<?xml version="1.0" encoding="UTF-8" standalone="no"?>
<!DOCTYPE svg PUBLIC "-//W3C//DTD SVG 1.1//EN"
 "http://www.w3.org/Graphics/SVG/1.1/DTD/svg11.dtd">
<!-- Generated by graphviz version 2.43.0 (0)
 -->
<!-- Title: as_iic_get_status_reg Pages: 1 -->
<svg width="1782pt" height="382pt"
 viewBox="0.00 0.00 1782.00 381.50" xmlns="http://www.w3.org/2000/svg" xmlns:xlink="http://www.w3.org/1999/xlink">
<g id="graph0" class="graph" transform="scale(1 1) rotate(0) translate(4 377.5)">
<title>as_iic_get_status_reg</title>
<!-- Node1 -->
<g id="node1" class="node">
<title>Node1</title>
<g id="a_node1"><a xlink:title=" ">
<polygon fill="#bfbfbf" stroke="black" points="1652,-121 1652,-140 1774,-140 1774,-121 1652,-121"/>
<text text-anchor="middle" x="1713" y="-128" font-family="Helvetica,sans-Serif" font-size="10.00">as_iic_get_status_reg</text>
</a>
</g>
</g>
<!-- Node2 -->
<g id="node2" class="node">
<title>Node2</title>
<g id="a_node2"><a xlink:href="group__as__iic__bitchecks.html#gaa4e8718c748b5a7e956a38ffd6dbe15d" target="_top" xlink:title=" ">
<polygon fill="none" stroke="black" points="1359,-240 1359,-259 1473,-259 1473,-240 1359,-240"/>
<text text-anchor="middle" x="1416" y="-247" font-family="Helvetica,sans-Serif" font-size="10.00">as_iic_ack_received</text>
</a>
</g>
</g>
<!-- Node1&#45;&gt;Node2 -->
<g id="edge1" class="edge">
<title>Node1&#45;&gt;Node2</title>
<path fill="none" stroke="midnightblue" d="M1678.96,-143.83C1618.9,-168.06 1493.18,-218.77 1440.76,-239.92"/>
<polygon fill="midnightblue" stroke="midnightblue" points="1680.39,-147.02 1688.36,-140.04 1677.77,-140.53 1680.39,-147.02"/>
</g>
<!-- Node27 -->
<g id="node27" class="node">
<title>Node27</title>
<g id="a_node27"><a xlink:href="group__as__iic__bitchecks.html#gacddb2a75c1c325afe2ec4d25a60e27ba" target="_top" xlink:title=" ">
<polygon fill="none" stroke="black" points="1517,-102 1517,-121 1610,-121 1610,-102 1517,-102"/>
<text text-anchor="middle" x="1563.5" y="-109" font-family="Helvetica,sans-Serif" font-size="10.00">as_iic_is_active</text>
</a>
</g>
</g>
<!-- Node1&#45;&gt;Node27 -->
<g id="edge39" class="edge">
<title>Node1&#45;&gt;Node27</title>
<path fill="none" stroke="midnightblue" d="M1641.44,-121.41C1630.8,-120.04 1620.07,-118.66 1610.15,-117.38"/>
<polygon fill="midnightblue" stroke="midnightblue" points="1641.22,-124.91 1651.58,-122.72 1642.11,-117.97 1641.22,-124.91"/>
</g>
<!-- Node28 -->
<g id="node28" class="node">
<title>Node28</title>
<g id="a_node28"><a xlink:href="group__as__iic__bitchecks.html#ga031fa9683d4d6a0a68e65917d5a0610a" target="_top" xlink:title=" ">
<polygon fill="none" stroke="black" points="1511,-64 1511,-83 1616,-83 1616,-64 1511,-64"/>
<text text-anchor="middle" x="1563.5" y="-71" font-family="Helvetica,sans-Serif" font-size="10.00">as_iic_is_io_ready</text>
</a>
</g>
</g>
<!-- Node1&#45;&gt;Node28 -->
<g id="edge40" class="edge">
<title>Node1&#45;&gt;Node28</title>
<path fill="none" stroke="midnightblue" d="M1678.95,-117.2C1660.48,-109.82 1637,-100.53 1616,-92.5 1607.81,-89.37 1598.86,-86.03 1590.74,-83.05"/>
<polygon fill="midnightblue" stroke="midnightblue" points="1677.8,-120.51 1688.39,-120.98 1680.41,-114.01 1677.8,-120.51"/>
</g>
<!-- Node30 -->
<g id="node30" class="node">
<title>Node30</title>
<g id="a_node30"><a xlink:href="group__as__iic__user.html#gacdb0c71d0fcfe5e50a7f7316762cd0c0" target="_top" xlink:title=" ">
<polygon fill="none" stroke="black" points="1518,-140 1518,-159 1609,-159 1609,-140 1518,-140"/>
<text text-anchor="middle" x="1563.5" y="-147" font-family="Helvetica,sans-Serif" font-size="10.00">as_iic_is_ready</text>
</a>
</g>
</g>
<!-- Node1&#45;&gt;Node30 -->
<g id="edge42" class="edge">
<title>Node1&#45;&gt;Node30</title>
<path fill="none" stroke="midnightblue" d="M1641.54,-139.58C1630.55,-140.99 1619.45,-142.42 1609.24,-143.74"/>
<polygon fill="midnightblue" stroke="midnightblue" points="1642.11,-143.03 1651.58,-138.28 1641.22,-136.09 1642.11,-143.03"/>
</g>
<!-- Node34 -->
<g id="node34" class="node">
<title>Node34</title>
<g id="a_node34"><a xlink:href="group__as__iic__bitchecks.html#gad7ffbce42c3f192281052fced93b7ee7" target="_top" xlink:title=" ">
<polygon fill="none" stroke="black" points="1515.5,-26 1515.5,-45 1611.5,-45 1611.5,-26 1515.5,-26"/>
<text text-anchor="middle" x="1563.5" y="-33" font-family="Helvetica,sans-Serif" font-size="10.00">as_iic_is_stalled</text>
</a>
</g>
</g>
<!-- Node1&#45;&gt;Node34 -->
<g id="edge52" class="edge">
<title>Node1&#45;&gt;Node34</title>
<path fill="none" stroke="midnightblue" d="M1694.58,-113.88C1676.23,-97.09 1645.9,-71.28 1616,-54.5 1609.52,-50.86 1602.21,-47.68 1595.17,-45.01"/>
<polygon fill="midnightblue" stroke="midnightblue" points="1692.42,-116.65 1702.13,-120.9 1697.19,-111.53 1692.42,-116.65"/>
</g>
<!-- Node35 -->
<g id="node35" class="node">
<title>Node35</title>
<g id="a_node35"><a xlink:href="group__as__iic__bitchecks.html#ga4629e4514c3531d0bcd44ae20abc6bad" target="_top" xlink:title=" ">
<polygon fill="none" stroke="black" points="1514,-282 1514,-301 1613,-301 1613,-282 1514,-282"/>
<text text-anchor="middle" x="1563.5" y="-289" font-family="Helvetica,sans-Serif" font-size="10.00">as_iic_is_waiting</text>
</a>
</g>
</g>
<!-- Node1&#45;&gt;Node35 -->
<g id="edge53" class="edge">
<title>Node1&#45;&gt;Node35</title>
<path fill="none" stroke="midnightblue" d="M1697.1,-148.05C1678.48,-169.82 1645.48,-207.94 1616,-239.5 1601.95,-254.54 1585.06,-271.37 1574.55,-281.7"/>
<polygon fill="midnightblue" stroke="midnightblue" points="1699.89,-150.17 1703.71,-140.29 1694.56,-145.63 1699.89,-150.17"/>
</g>
<!-- Node3 -->
<g id="node3" class="node">
<title>Node3</title>
<g id="a_node3"><a xlink:href="group__as__iic__helpers.html#ga1662a1a0b29536bf7d74ede3f73598be" target="_top" xlink:title=" ">
<polygon fill="none" stroke="black" points="979.5,-316 979.5,-335 1110.5,-335 1110.5,-316 979.5,-316"/>
<text text-anchor="middle" x="1045" y="-323" font-family="Helvetica,sans-Serif" font-size="10.00">as_iic_read_transaction</text>
</a>
</g>
</g>
<!-- Node2&#45;&gt;Node3 -->
<g id="edge2" class="edge">
<title>Node2&#45;&gt;Node3</title>
<path fill="none" stroke="midnightblue" d="M1358.7,-261.09C1285.72,-276.13 1159.82,-302.06 1092.17,-315.99"/>
<polygon fill="midnightblue" stroke="midnightblue" points="1359.55,-264.49 1368.64,-259.05 1358.14,-257.64 1359.55,-264.49"/>
</g>
<!-- Node6 -->
<g id="node6" class="node">
<title>Node6</title>
<g id="a_node6"><a xlink:href="group__as__iic__helpers.html#ga53e6050a2c66be89ac23084fd9de9c23" target="_top" xlink:title=" ">
<polygon fill="none" stroke="black" points="979,-202 979,-221 1111,-221 1111,-202 979,-202"/>
<text text-anchor="middle" x="1045" y="-209" font-family="Helvetica,sans-Serif" font-size="10.00">as_iic_start_transaction</text>
</a>
</g>
</g>
<!-- Node2&#45;&gt;Node6 -->
<g id="edge5" class="edge">
<title>Node2&#45;&gt;Node6</title>
<path fill="none" stroke="midnightblue" d="M1348.88,-246.22C1297.31,-243.27 1223.94,-238.19 1160,-230.5 1139.28,-228.01 1116.58,-224.4 1096.93,-221"/>
<polygon fill="midnightblue" stroke="midnightblue" points="1348.71,-249.72 1358.89,-246.79 1349.11,-242.73 1348.71,-249.72"/>
</g>
<!-- Node25 -->
<g id="node25" class="node">
<title>Node25</title>
<g id="a_node25"><a xlink:href="group__as__iic__helpers.html#ga67cc002a1b20c75dc26f7b328ca5ddc9" target="_top" xlink:title=" ">
<polygon fill="none" stroke="black" points="1160,-202 1160,-221 1321,-221 1321,-202 1160,-202"/>
<text text-anchor="middle" x="1240.5" y="-209" font-family="Helvetica,sans-Serif" font-size="10.00">as_iic_stop_write_transaction</text>
</a>
</g>
</g>
<!-- Node2&#45;&gt;Node25 -->
<g id="edge32" class="edge">
<title>Node2&#45;&gt;Node25</title>
<path fill="none" stroke="midnightblue" d="M1361.34,-237.75C1336.81,-232.37 1308.12,-226.09 1284.97,-221.02"/>
<polygon fill="midnightblue" stroke="midnightblue" points="1360.7,-241.19 1371.22,-239.91 1362.2,-234.35 1360.7,-241.19"/>
</g>
<!-- Node26 -->
<g id="node26" class="node">
<title>Node26</title>
<g id="a_node26"><a xlink:href="group__as__iic__helpers.html#gad5e0aa9a71f8f0f65e1fbded8134b11f" target="_top" xlink:title=" ">
<polygon fill="none" stroke="black" points="978,-354 978,-373 1112,-373 1112,-354 978,-354"/>
<text text-anchor="middle" x="1045" y="-361" font-family="Helvetica,sans-Serif" font-size="10.00">as_iic_write_transaction</text>
</a>
</g>
</g>
<!-- Node2&#45;&gt;Node26 -->
<g id="edge37" class="edge">
<title>Node2&#45;&gt;Node26</title>
<path fill="none" stroke="midnightblue" d="M1403.31,-267.65C1387.64,-290.21 1357.52,-327.76 1321,-344.5 1254.77,-374.86 1170.05,-375.83 1112.26,-371.63"/>
<polygon fill="midnightblue" stroke="midnightblue" points="1406.27,-269.53 1408.94,-259.28 1400.46,-265.62 1406.27,-269.53"/>
</g>
<!-- Node4 -->
<g id="node4" class="node">
<title>Node4</title>
<g id="a_node4"><a xlink:href="group__as__iic__user.html#ga76b6915b73f14abb8a200df4eefde6f3" target="_top" xlink:title=" ">
<polygon fill="none" stroke="black" points="817,-240 817,-259 915,-259 915,-240 817,-240"/>
<text text-anchor="middle" x="866" y="-247" font-family="Helvetica,sans-Serif" font-size="10.00">as_iic_get_bytes</text>
</a>
</g>
</g>
<!-- Node3&#45;&gt;Node4 -->
<g id="edge3" class="edge">
<title>Node3&#45;&gt;Node4</title>
<path fill="none" stroke="midnightblue" d="M1018.04,-310.92C995.3,-298.54 961.13,-280.87 930,-268.5 921.19,-265 911.47,-261.77 902.35,-259.01"/>
<polygon fill="midnightblue" stroke="midnightblue" points="1016.59,-314.12 1027.04,-315.87 1019.96,-307.98 1016.59,-314.12"/>
</g>
<!-- Node5 -->
<g id="node5" class="node">
<title>Node5</title>
<g id="a_node5"><a xlink:href="group__as__iic__user.html#ga987a7c89e5d900225a42f04583e0cfe7" target="_top" xlink:title=" ">
<polygon fill="none" stroke="black" points="531,-202 531,-221 629,-221 629,-202 531,-202"/>
<text text-anchor="middle" x="580" y="-209" font-family="Helvetica,sans-Serif" font-size="10.00">as_iic_read_regs</text>
</a>
</g>
</g>
<!-- Node3&#45;&gt;Node5 -->
<g id="edge4" class="edge">
<title>Node3&#45;&gt;Node5</title>
<path fill="none" stroke="midnightblue" d="M987.7,-336.78C969.38,-339.94 948.9,-342.94 930,-344.5 812.6,-354.22 767.62,-397.34 665,-339.5 617.3,-312.61 591.98,-246.11 583.9,-221.16"/>
<polygon fill="midnightblue" stroke="midnightblue" points="988.39,-340.21 997.63,-335.01 987.17,-333.32 988.39,-340.21"/>
</g>
<!-- Node6&#45;&gt;Node4 -->
<g id="edge18" class="edge">
<title>Node6&#45;&gt;Node4</title>
<path fill="none" stroke="midnightblue" d="M989.26,-223.25C964.23,-228.63 934.97,-234.91 911.34,-239.98"/>
<polygon fill="midnightblue" stroke="midnightblue" points="990.29,-226.61 999.34,-221.09 988.82,-219.77 990.29,-226.61"/>
</g>
<!-- Node6&#45;&gt;Node5 -->
<g id="edge19" class="edge">
<title>Node6&#45;&gt;Node5</title>
<path fill="none" stroke="midnightblue" d="M968.43,-211.5C872.45,-211.5 709.65,-211.5 629.09,-211.5"/>
<polygon fill="midnightblue" stroke="midnightblue" points="968.65,-215 978.65,-211.5 968.65,-208 968.65,-215"/>
</g>
<!-- Node7 -->
<g id="node7" class="node">
<title>Node7</title>
<g id="a_node7"><a xlink:href="group__as__iic__user.html#ga30385c0c387c1629188745edf9c824c1" target="_top" xlink:title=" ">
<polygon fill="none" stroke="black" points="806.5,-126 806.5,-145 925.5,-145 925.5,-126 806.5,-126"/>
<text text-anchor="middle" x="866" y="-133" font-family="Helvetica,sans-Serif" font-size="10.00">as_iic_get_byte_mod</text>
</a>
</g>
</g>
<!-- Node6&#45;&gt;Node7 -->
<g id="edge6" class="edge">
<title>Node6&#45;&gt;Node7</title>
<path fill="none" stroke="midnightblue" d="M1018.04,-196.92C995.3,-184.54 961.13,-166.87 930,-154.5 921.19,-151 911.47,-147.77 902.35,-145.01"/>
<polygon fill="midnightblue" stroke="midnightblue" points="1016.59,-200.12 1027.04,-201.87 1019.96,-193.98 1016.59,-200.12"/>
</g>
<!-- Node17 -->
<g id="node17" class="node">
<title>Node17</title>
<g id="a_node17"><a xlink:href="group__as__iic__user.html#ga5c5233652491e648a88292ae73b49ace" target="_top" xlink:title=" ">
<polygon fill="none" stroke="black" points="806,-278 806,-297 926,-297 926,-278 806,-278"/>
<text text-anchor="middle" x="866" y="-285" font-family="Helvetica,sans-Serif" font-size="10.00">as_iic_set_regpointer</text>
</a>
</g>
</g>
<!-- Node6&#45;&gt;Node17 -->
<g id="edge20" class="edge">
<title>Node6&#45;&gt;Node17</title>
<path fill="none" stroke="midnightblue" d="M991.14,-224.26C982.46,-227.33 973.77,-231.05 966,-235.5 947.17,-246.29 948.86,-257.76 930,-268.5 923.35,-272.29 915.86,-275.39 908.44,-277.91"/>
<polygon fill="midnightblue" stroke="midnightblue" points="992.48,-227.5 1000.89,-221.06 990.29,-220.85 992.48,-227.5"/>
</g>
<!-- Node18 -->
<g id="node18" class="node">
<title>Node18</title>
<g id="a_node18"><a xlink:href="group__as__iic__user.html#ga08fcff0dba9d6b4898291746d2206408" target="_top" xlink:title=" ">
<polygon fill="none" stroke="black" points="802,-164 802,-183 930,-183 930,-164 802,-164"/>
<text text-anchor="middle" x="866" y="-171" font-family="Helvetica,sans-Serif" font-size="10.00">as_iic_write_byte_mod</text>
</a>
</g>
</g>
<!-- Node6&#45;&gt;Node18 -->
<g id="edge21" class="edge">
<title>Node6&#45;&gt;Node18</title>
<path fill="none" stroke="midnightblue" d="M989.26,-199.75C964.23,-194.37 934.97,-188.09 911.34,-183.02"/>
<polygon fill="midnightblue" stroke="midnightblue" points="988.82,-203.23 999.34,-201.91 990.29,-196.39 988.82,-203.23"/>
</g>
<!-- Node20 -->
<g id="node20" class="node">
<title>Node20</title>
<g id="a_node20"><a xlink:href="group__as__iic__user.html#ga2a4e5ee19e84cc95de665e29b92ccda1" target="_top" xlink:title=" ">
<polygon fill="none" stroke="black" points="812.5,-316 812.5,-335 919.5,-335 919.5,-316 812.5,-316"/>
<text text-anchor="middle" x="866" y="-323" font-family="Helvetica,sans-Serif" font-size="10.00">as_iic_write_bytes</text>
</a>
</g>
</g>
<!-- Node6&#45;&gt;Node20 -->
<g id="edge25" class="edge">
<title>Node6&#45;&gt;Node20</title>
<path fill="none" stroke="midnightblue" d="M1023.24,-227.36C1007.34,-239.66 984.98,-257.29 966,-273.5 949.49,-287.59 948.86,-295.76 930,-306.5 923.35,-310.29 915.86,-313.39 908.44,-315.91"/>
<polygon fill="midnightblue" stroke="midnightblue" points="1025.57,-229.99 1031.35,-221.11 1021.29,-224.44 1025.57,-229.99"/>
</g>
<!-- Node8 -->
<g id="node8" class="node">
<title>Node8</title>
<g id="a_node8"><a xlink:href="group__as__iic__user.html#gacf3e3b915e1f15ed8bdc60ab4c129996" target="_top" xlink:title=" ">
<polygon fill="none" stroke="black" points="669.5,-126 669.5,-145 761.5,-145 761.5,-126 669.5,-126"/>
<text text-anchor="middle" x="715.5" y="-133" font-family="Helvetica,sans-Serif" font-size="10.00">as_iic_get_byte</text>
</a>
</g>
</g>
<!-- Node7&#45;&gt;Node8 -->
<g id="edge7" class="edge">
<title>Node7&#45;&gt;Node8</title>
<path fill="none" stroke="midnightblue" d="M796.18,-135.5C784.56,-135.5 772.77,-135.5 761.94,-135.5"/>
<polygon fill="midnightblue" stroke="midnightblue" points="796.31,-139 806.31,-135.5 796.31,-132 796.31,-139"/>
</g>
<!-- Node9 -->
<g id="node9" class="node">
<title>Node9</title>
<g id="a_node9"><a xlink:href="group__as__iic__user.html#ga812d9e16a61b39777a5fbffc7eccbc8d" target="_top" xlink:title=" ">
<polygon fill="none" stroke="black" points="534,-164 534,-183 626,-183 626,-164 534,-164"/>
<text text-anchor="middle" x="580" y="-171" font-family="Helvetica,sans-Serif" font-size="10.00">as_iic_read_reg</text>
</a>
</g>
</g>
<!-- Node8&#45;&gt;Node9 -->
<g id="edge8" class="edge">
<title>Node8&#45;&gt;Node9</title>
<path fill="none" stroke="midnightblue" d="M670.97,-147.89C652.69,-153.09 631.75,-159.05 614.68,-163.91"/>
<polygon fill="midnightblue" stroke="midnightblue" points="672.15,-151.19 680.81,-145.09 670.24,-144.46 672.15,-151.19"/>
</g>
<!-- Node10 -->
<g id="node10" class="node">
<title>Node10</title>
<g id="a_node10"><a xlink:href="as__sensor__ov7670_8c.html#acb25afaea3e81940c50e327c45921f08" target="_top" xlink:title=" ">
<polygon fill="none" stroke="black" points="384,-183 384,-202 495,-202 495,-183 384,-183"/>
<text text-anchor="middle" x="439.5" y="-190" font-family="Helvetica,sans-Serif" font-size="10.00">ov7670_iic_reg_get</text>
</a>
</g>
</g>
<!-- Node9&#45;&gt;Node10 -->
<g id="edge9" class="edge">
<title>Node9&#45;&gt;Node10</title>
<path fill="none" stroke="midnightblue" d="M523.63,-181.1C514.24,-182.38 504.5,-183.72 495.13,-185.01"/>
<polygon fill="midnightblue" stroke="midnightblue" points="524.22,-184.55 533.65,-179.72 523.27,-177.61 524.22,-184.55"/>
</g>
<!-- Node11 -->
<g id="node11" class="node">
<title>Node11</title>
<g id="a_node11"><a xlink:href="group__as__sensor__ov7670.html#ga55b52e2499f96009197bfe90af6c7a41" target="_top" xlink:title=" ">
<polygon fill="none" stroke="black" points="164,-230 164,-249 348,-249 348,-230 164,-230"/>
<text text-anchor="middle" x="256" y="-237" font-family="Helvetica,sans-Serif" font-size="10.00">as_sensor_ov7670_exposure_auto</text>
</a>
</g>
</g>
<!-- Node10&#45;&gt;Node11 -->
<g id="edge10" class="edge">
<title>Node10&#45;&gt;Node11</title>
<path fill="none" stroke="midnightblue" d="M400.56,-205.11C384.45,-210.24 365.41,-216 348,-220.5 334.72,-223.93 320.22,-227.18 306.79,-229.99"/>
<polygon fill="midnightblue" stroke="midnightblue" points="401.72,-208.42 410.16,-202.02 399.57,-201.75 401.72,-208.42"/>
</g>
<!-- Node13 -->
<g id="node13" class="node">
<title>Node13</title>
<g id="a_node13"><a xlink:href="group__as__sensor__ov7670.html#gae1b977db2733432317fee8f0497eb67a" target="_top" xlink:title=" ">
<polygon fill="none" stroke="black" points="167,-116 167,-135 345,-135 345,-116 167,-116"/>
<text text-anchor="middle" x="256" y="-123" font-family="Helvetica,sans-Serif" font-size="10.00">as_sensor_ov7670_exposure_get</text>
</a>
</g>
</g>
<!-- Node10&#45;&gt;Node13 -->
<g id="edge12" class="edge">
<title>Node10&#45;&gt;Node13</title>
<path fill="none" stroke="midnightblue" d="M415.17,-177.77C397.38,-167.12 371.93,-153.15 348,-144.5 337.53,-140.72 326.09,-137.59 314.97,-135.05"/>
<polygon fill="midnightblue" stroke="midnightblue" points="413.37,-180.77 423.73,-182.98 417.01,-174.79 413.37,-180.77"/>
</g>
<!-- Node14 -->
<g id="node14" class="node">
<title>Node14</title>
<g id="a_node14"><a xlink:href="group__as__sensor__ov7670.html#gadd11863e70497418c9d31c922945cbec" target="_top" xlink:title=" ">
<polygon fill="none" stroke="black" points="176,-268 176,-287 336,-287 336,-268 176,-268"/>
<text text-anchor="middle" x="256" y="-275" font-family="Helvetica,sans-Serif" font-size="10.00">as_sensor_ov7670_gain_auto</text>
</a>
</g>
</g>
<!-- Node10&#45;&gt;Node14 -->
<g id="edge13" class="edge">
<title>Node10&#45;&gt;Node14</title>
<path fill="none" stroke="midnightblue" d="M420.97,-208.84C403.71,-224.02 375.95,-246.09 348,-258.5 339.3,-262.37 329.77,-265.46 320.27,-267.93"/>
<polygon fill="midnightblue" stroke="midnightblue" points="423.46,-211.31 428.55,-202.02 418.78,-206.1 423.46,-211.31"/>
</g>
<!-- Node15 -->
<g id="node15" class="node">
<title>Node15</title>
<g id="a_node15"><a xlink:href="group__as__sensor__ov7670.html#ga75ee4d998c858b26adae16b8140e8637" target="_top" xlink:title=" ">
<polygon fill="none" stroke="black" points="179,-192 179,-211 333,-211 333,-192 179,-192"/>
<text text-anchor="middle" x="256" y="-199" font-family="Helvetica,sans-Serif" font-size="10.00">as_sensor_ov7670_gain_get</text>
</a>
</g>
</g>
<!-- Node10&#45;&gt;Node15 -->
<g id="edge15" class="edge">
<title>Node10&#45;&gt;Node15</title>
<path fill="none" stroke="midnightblue" d="M373.31,-195.73C360.3,-196.38 346.53,-197.06 333.19,-197.72"/>
<polygon fill="midnightblue" stroke="midnightblue" points="373.74,-199.22 383.55,-195.22 373.39,-192.22 373.74,-199.22"/>
</g>
<!-- Node16 -->
<g id="node16" class="node">
<title>Node16</title>
<g id="a_node16"><a xlink:href="as__sensor__ov7670_8c.html#ab5de18dc5dd74817505126a51487b8b1" target="_top" xlink:title=" ">
<polygon fill="none" stroke="black" points="181.5,-154 181.5,-173 330.5,-173 330.5,-154 181.5,-154"/>
<text text-anchor="middle" x="256" y="-161" font-family="Helvetica,sans-Serif" font-size="10.00">as_sensor_ov7670_identify</text>
</a>
</g>
</g>
<!-- Node10&#45;&gt;Node16 -->
<g id="edge16" class="edge">
<title>Node10&#45;&gt;Node16</title>
<path fill="none" stroke="midnightblue" d="M373.68,-182.14C355.04,-179.16 334.8,-175.93 316.5,-173.01"/>
<polygon fill="midnightblue" stroke="midnightblue" points="373.12,-185.6 383.55,-183.72 374.23,-178.69 373.12,-185.6"/>
</g>
<!-- Node12 -->
<g id="node12" class="node">
<title>Node12</title>
<g id="a_node12"><a xlink:href="group__as__sensor__ov7670.html#ga419a3339eac0f6abb8eafe24e468ae49" target="_top" xlink:title=" ">
<polygon fill="none" stroke="black" points="0,-230 0,-249 128,-249 128,-230 0,-230"/>
<text text-anchor="middle" x="64" y="-237" font-family="Helvetica,sans-Serif" font-size="10.00">as_sensor_ov7670_init</text>
</a>
</g>
</g>
<!-- Node11&#45;&gt;Node12 -->
<g id="edge11" class="edge">
<title>Node11&#45;&gt;Node12</title>
<path fill="none" stroke="midnightblue" d="M153.69,-239.5C145,-239.5 136.39,-239.5 128.14,-239.5"/>
<polygon fill="midnightblue" stroke="midnightblue" points="153.9,-243 163.9,-239.5 153.9,-236 153.9,-243"/>
</g>
<!-- Node14&#45;&gt;Node12 -->
<g id="edge14" class="edge">
<title>Node14&#45;&gt;Node12</title>
<path fill="none" stroke="midnightblue" d="M196.95,-265.89C169.93,-260.49 138.18,-254.14 112.6,-249.02"/>
<polygon fill="midnightblue" stroke="midnightblue" points="196.56,-269.38 207.05,-267.91 197.94,-262.52 196.56,-269.38"/>
</g>
<!-- Node16&#45;&gt;Node12 -->
<g id="edge17" class="edge">
<title>Node16&#45;&gt;Node12</title>
<path fill="none" stroke="midnightblue" d="M185.71,-175.56C178.28,-177.56 170.92,-179.86 164,-182.5 131.38,-194.93 96.82,-217.21 78.41,-229.92"/>
<polygon fill="midnightblue" stroke="midnightblue" points="186.64,-178.93 195.48,-173.09 184.92,-172.15 186.64,-178.93"/>
</g>
<!-- Node19 -->
<g id="node19" class="node">
<title>Node19</title>
<g id="a_node19"><a xlink:href="group__as__iic__user.html#ga35cd65c29b1f4abd1ca87ca51605e5cc" target="_top" xlink:title=" ">
<polygon fill="none" stroke="black" points="665,-164 665,-183 766,-183 766,-164 665,-164"/>
<text text-anchor="middle" x="715.5" y="-171" font-family="Helvetica,sans-Serif" font-size="10.00">as_iic_write_byte</text>
</a>
</g>
</g>
<!-- Node18&#45;&gt;Node19 -->
<g id="edge22" class="edge">
<title>Node18&#45;&gt;Node19</title>
<path fill="none" stroke="midnightblue" d="M791.55,-173.5C782.97,-173.5 774.38,-173.5 766.23,-173.5"/>
<polygon fill="midnightblue" stroke="midnightblue" points="791.59,-177 801.59,-173.5 791.59,-170 791.59,-177"/>
</g>
<!-- Node19&#45;&gt;Node5 -->
<g id="edge24" class="edge">
<title>Node19&#45;&gt;Node5</title>
<path fill="none" stroke="midnightblue" d="M670.97,-185.89C652.69,-191.09 631.75,-197.05 614.68,-201.91"/>
<polygon fill="midnightblue" stroke="midnightblue" points="672.15,-189.19 680.81,-183.09 670.24,-182.46 672.15,-189.19"/>
</g>
<!-- Node19&#45;&gt;Node9 -->
<g id="edge23" class="edge">
<title>Node19&#45;&gt;Node9</title>
<path fill="none" stroke="midnightblue" d="M654.6,-173.5C645.11,-173.5 635.43,-173.5 626.34,-173.5"/>
<polygon fill="midnightblue" stroke="midnightblue" points="654.79,-177 664.79,-173.5 654.79,-170 654.79,-177"/>
</g>
<!-- Node21 -->
<g id="node21" class="node">
<title>Node21</title>
<g id="a_node21"><a xlink:href="group__as__iic__user.html#ga5ae8936ee892843eda5df7b9a418bd52" target="_top" xlink:title=" ">
<polygon fill="none" stroke="black" points="668,-311 668,-330 763,-330 763,-311 668,-311"/>
<text text-anchor="middle" x="715.5" y="-318" font-family="Helvetica,sans-Serif" font-size="10.00">as_iic_write_reg</text>
</a>
</g>
</g>
<!-- Node20&#45;&gt;Node21 -->
<g id="edge26" class="edge">
<title>Node20&#45;&gt;Node21</title>
<path fill="none" stroke="midnightblue" d="M801.93,-323.38C788.94,-322.94 775.47,-322.49 763.18,-322.07"/>
<polygon fill="midnightblue" stroke="midnightblue" points="802.11,-326.88 812.23,-323.72 802.35,-319.89 802.11,-326.88"/>
</g>
<!-- Node22 -->
<g id="node22" class="node">
<title>Node22</title>
<g id="a_node22"><a xlink:href="as__sensor__ov7670_8c.html#ad5b49e677d2124f73482764e3270bb42" target="_top" xlink:title=" ">
<polygon fill="none" stroke="black" points="384.5,-306 384.5,-325 494.5,-325 494.5,-306 384.5,-306"/>
<text text-anchor="middle" x="439.5" y="-313" font-family="Helvetica,sans-Serif" font-size="10.00">ov7670_iic_reg_set</text>
</a>
</g>
</g>
<!-- Node21&#45;&gt;Node22 -->
<g id="edge27" class="edge">
<title>Node21&#45;&gt;Node22</title>
<path fill="none" stroke="midnightblue" d="M657.51,-319.46C609.63,-318.59 541.68,-317.35 494.62,-316.49"/>
<polygon fill="midnightblue" stroke="midnightblue" points="657.65,-322.96 667.71,-319.65 657.77,-315.96 657.65,-322.96"/>
</g>
<!-- Node22&#45;&gt;Node11 -->
<g id="edge28" class="edge">
<title>Node22&#45;&gt;Node11</title>
<path fill="none" stroke="midnightblue" d="M418.04,-299.61C400.41,-286.68 373.8,-268.92 348,-258.5 338.42,-254.63 327.95,-251.51 317.62,-249"/>
<polygon fill="midnightblue" stroke="midnightblue" points="416.29,-302.67 426.39,-305.87 420.48,-297.07 416.29,-302.67"/>
</g>
<!-- Node22&#45;&gt;Node14 -->
<g id="edge30" class="edge">
<title>Node22&#45;&gt;Node14</title>
<path fill="none" stroke="midnightblue" d="M382.95,-303.83C371.4,-301.4 359.3,-298.87 348,-296.5 333.31,-293.42 317.28,-290.08 302.83,-287.06"/>
<polygon fill="midnightblue" stroke="midnightblue" points="382.42,-307.29 392.93,-305.92 383.86,-300.44 382.42,-307.29"/>
</g>
<!-- Node23 -->
<g id="node23" class="node">
<title>Node23</title>
<g id="a_node23"><a xlink:href="group__as__sensor__ov7670.html#ga673b948f323ea0a23896c7dc4b0e05e3" target="_top" xlink:title=" ">
<polygon fill="none" stroke="black" points="167.5,-306 167.5,-325 344.5,-325 344.5,-306 167.5,-306"/>
<text text-anchor="middle" x="256" y="-313" font-family="Helvetica,sans-Serif" font-size="10.00">as_sensor_ov7670_exposure_set</text>
</a>
</g>
</g>
<!-- Node22&#45;&gt;Node23 -->
<g id="edge29" class="edge">
<title>Node22&#45;&gt;Node23</title>
<path fill="none" stroke="midnightblue" d="M373.93,-315.5C364.45,-315.5 354.54,-315.5 344.68,-315.5"/>
<polygon fill="midnightblue" stroke="midnightblue" points="374.04,-319 384.04,-315.5 374.04,-312 374.04,-319"/>
</g>
<!-- Node24 -->
<g id="node24" class="node">
<title>Node24</title>
<g id="a_node24"><a xlink:href="group__as__sensor__ov7670.html#ga45e866e9958d1c7d8e0b0dd206f01a9e" target="_top" xlink:title=" ">
<polygon fill="none" stroke="black" points="179.5,-344 179.5,-363 332.5,-363 332.5,-344 179.5,-344"/>
<text text-anchor="middle" x="256" y="-351" font-family="Helvetica,sans-Serif" font-size="10.00">as_sensor_ov7670_gain_set</text>
</a>
</g>
</g>
<!-- Node22&#45;&gt;Node24 -->
<g id="edge31" class="edge">
<title>Node22&#45;&gt;Node24</title>
<path fill="none" stroke="midnightblue" d="M382.95,-327.17C371.4,-329.6 359.3,-332.13 348,-334.5 333.31,-337.58 317.28,-340.92 302.83,-343.94"/>
<polygon fill="midnightblue" stroke="midnightblue" points="383.86,-330.56 392.93,-325.08 382.42,-323.71 383.86,-330.56"/>
</g>
<!-- Node25&#45;&gt;Node6 -->
<g id="edge34" class="edge">
<title>Node25&#45;&gt;Node6</title>
<path fill="none" stroke="midnightblue" d="M1149.6,-211.5C1136.61,-211.5 1123.46,-211.5 1111.08,-211.5"/>
<polygon fill="midnightblue" stroke="midnightblue" points="1149.96,-215 1159.96,-211.5 1149.96,-208 1149.96,-215"/>
</g>
<!-- Node25&#45;&gt;Node17 -->
<g id="edge33" class="edge">
<title>Node25&#45;&gt;Node17</title>
<path fill="none" stroke="midnightblue" d="M1182.67,-223.09C1109,-238.13 981.9,-264.06 913.61,-277.99"/>
<polygon fill="midnightblue" stroke="midnightblue" points="1183.6,-226.48 1192.7,-221.05 1182.2,-219.62 1183.6,-226.48"/>
</g>
<!-- Node25&#45;&gt;Node18 -->
<g id="edge35" class="edge">
<title>Node25&#45;&gt;Node18</title>
<path fill="none" stroke="midnightblue" d="M1177.62,-200.27C1160.31,-197.42 1141.46,-194.58 1124,-192.5 1058.14,-184.66 982.37,-179.53 930.26,-176.6"/>
<polygon fill="midnightblue" stroke="midnightblue" points="1177.17,-203.75 1187.61,-201.95 1178.32,-196.84 1177.17,-203.75"/>
</g>
<!-- Node25&#45;&gt;Node20 -->
<g id="edge36" class="edge">
<title>Node25&#45;&gt;Node20</title>
<path fill="none" stroke="midnightblue" d="M1212.86,-225.9C1189.86,-237.85 1155.48,-254.6 1124,-265.5 1085.41,-278.86 975.96,-302.71 913.04,-315.96"/>
<polygon fill="midnightblue" stroke="midnightblue" points="1214.76,-228.86 1221.98,-221.1 1211.5,-222.66 1214.76,-228.86"/>
</g>
<!-- Node26&#45;&gt;Node20 -->
<g id="edge38" class="edge">
<title>Node26&#45;&gt;Node20</title>
<path fill="none" stroke="midnightblue" d="M989.26,-351.75C964.23,-346.37 934.97,-340.09 911.34,-335.02"/>
<polygon fill="midnightblue" stroke="midnightblue" points="988.82,-355.23 999.34,-353.91 990.29,-348.39 988.82,-355.23"/>
</g>
<!-- Node29 -->
<g id="node29" class="node">
<title>Node29</title>
<g id="a_node29"><a xlink:href="group__as__iic__wait.html#ga15d70ebfd78cef86f9b0e28d2c78adad" target="_top" xlink:title=" ">
<polygon fill="none" stroke="black" points="1357,-0.5 1357,-30.5 1475,-30.5 1475,-0.5 1357,-0.5"/>
<text text-anchor="start" x="1365" y="-18.5" font-family="Helvetica,sans-Serif" font-size="10.00">as_iic_busy_wait_for</text>
<text text-anchor="middle" x="1416" y="-7.5" font-family="Helvetica,sans-Serif" font-size="10.00">_ioready</text>
</a>
</g>
</g>
<!-- Node28&#45;&gt;Node29 -->
<g id="edge41" class="edge">
<title>Node28&#45;&gt;Node29</title>
<path fill="none" stroke="midnightblue" d="M1526.26,-60.34C1521.13,-58.41 1515.92,-56.43 1511,-54.5 1491.59,-46.9 1470.1,-38.02 1452.57,-30.65"/>
<polygon fill="midnightblue" stroke="midnightblue" points="1525.37,-63.74 1535.96,-63.94 1527.8,-57.18 1525.37,-63.74"/>
</g>
<!-- Node30&#45;&gt;Node6 -->
<g id="edge51" class="edge">
<title>Node30&#45;&gt;Node6</title>
<path fill="none" stroke="midnightblue" d="M1524.01,-136.72C1466.44,-117.86 1360.48,-84.18 1321,-78.5 1250.17,-68.3 1220.47,-40.24 1160,-78.5 1128.42,-98.49 1147.82,-125.7 1124,-154.5 1107.11,-174.92 1081.36,-191.85 1064.11,-201.81"/>
<polygon fill="midnightblue" stroke="midnightblue" points="1523.24,-140.15 1533.83,-139.95 1525.42,-133.5 1523.24,-140.15"/>
</g>
<!-- Node31 -->
<g id="node31" class="node">
<title>Node31</title>
<g id="a_node31"><a xlink:href="group__as__iic__wait.html#gad3cfec26b8a73166e060108cf1444a2b" target="_top" xlink:title=" ">
<polygon fill="none" stroke="black" points="1357,-134.5 1357,-164.5 1475,-164.5 1475,-134.5 1357,-134.5"/>
<text text-anchor="start" x="1365" y="-152.5" font-family="Helvetica,sans-Serif" font-size="10.00">as_iic_busy_wait_for</text>
<text text-anchor="middle" x="1416" y="-141.5" font-family="Helvetica,sans-Serif" font-size="10.00">_hwready</text>
</a>
</g>
</g>
<!-- Node30&#45;&gt;Node31 -->
<g id="edge43" class="edge">
<title>Node30&#45;&gt;Node31</title>
<path fill="none" stroke="midnightblue" d="M1507.33,-149.5C1496.79,-149.5 1485.73,-149.5 1475.1,-149.5"/>
<polygon fill="midnightblue" stroke="midnightblue" points="1507.66,-153 1517.66,-149.5 1507.66,-146 1507.66,-153"/>
</g>
<!-- Node31&#45;&gt;Node6 -->
<g id="edge45" class="edge">
<title>Node31&#45;&gt;Node6</title>
<path fill="none" stroke="midnightblue" d="M1346.87,-160.95C1276.68,-172.74 1168.54,-190.91 1102.81,-201.95"/>
<polygon fill="midnightblue" stroke="midnightblue" points="1347.66,-164.36 1356.94,-159.26 1346.5,-157.46 1347.66,-164.36"/>
</g>
<!-- Node31&#45;&gt;Node25 -->
<g id="edge50" class="edge">
<title>Node31&#45;&gt;Node25</title>
<path fill="none" stroke="midnightblue" d="M1370.63,-168.4C1355.06,-174.78 1337.36,-181.74 1321,-187.5 1306.31,-192.67 1289.87,-197.75 1275.76,-201.9"/>
<polygon fill="midnightblue" stroke="midnightblue" points="1372.12,-171.57 1380.03,-164.52 1369.45,-165.1 1372.12,-171.57"/>
</g>
<!-- Node32 -->
<g id="node32" class="node">
<title>Node32</title>
<g id="a_node32"><a xlink:href="group__as__iic__user.html#ga77245afd24eadd52f5845e23d82e777a" target="_top" xlink:title=" ">
<polygon fill="none" stroke="black" points="1208,-88 1208,-107 1273,-107 1273,-88 1208,-88"/>
<text text-anchor="middle" x="1240.5" y="-95" font-family="Helvetica,sans-Serif" font-size="10.00">as_iic_init</text>
</a>
</g>
</g>
<!-- Node31&#45;&gt;Node32 -->
<g id="edge44" class="edge">
<title>Node31&#45;&gt;Node32</title>
<path fill="none" stroke="midnightblue" d="M1355.23,-131.59C1327.6,-123.3 1295.91,-113.81 1273.01,-106.94"/>
<polygon fill="midnightblue" stroke="midnightblue" points="1354.23,-134.94 1364.82,-134.46 1356.24,-128.24 1354.23,-134.94"/>
</g>
<!-- Node33 -->
<g id="node33" class="node">
<title>Node33</title>
<g id="a_node33"><a xlink:href="group__as__iic__helpers.html#gaa8ce9ac10b8c2ca9b614110ca5cbeff5" target="_top" xlink:title=" ">
<polygon fill="none" stroke="black" points="966,-126 966,-145 1124,-145 1124,-126 966,-126"/>
<text text-anchor="middle" x="1045" y="-133" font-family="Helvetica,sans-Serif" font-size="10.00">as_iic_stop_read_transaction</text>
</a>
</g>
</g>
<!-- Node31&#45;&gt;Node33 -->
<g id="edge46" class="edge">
<title>Node31&#45;&gt;Node33</title>
<path fill="none" stroke="midnightblue" d="M1346.71,-146.91C1283.73,-144.52 1190.28,-140.97 1124.3,-138.47"/>
<polygon fill="midnightblue" stroke="midnightblue" points="1346.81,-150.42 1356.94,-147.3 1347.08,-143.42 1346.81,-150.42"/>
</g>
<!-- Node33&#45;&gt;Node4 -->
<g id="edge48" class="edge">
<title>Node33&#45;&gt;Node4</title>
<path fill="none" stroke="midnightblue" d="M1020.61,-150.57C983.72,-174.33 913.05,-219.84 882.12,-239.76"/>
<polygon fill="midnightblue" stroke="midnightblue" points="1022.7,-153.38 1029.21,-145.02 1018.91,-147.5 1022.7,-153.38"/>
</g>
<!-- Node33&#45;&gt;Node5 -->
<g id="edge49" class="edge">
<title>Node33&#45;&gt;Node5</title>
<path fill="none" stroke="midnightblue" d="M1011.19,-122.18C941.29,-96.14 775.1,-46.82 665,-116.5 633.42,-136.49 656.28,-166.95 629,-192.5 624.94,-196.3 620.04,-199.37 614.93,-201.85"/>
<polygon fill="midnightblue" stroke="midnightblue" points="1010.19,-125.55 1020.78,-125.84 1012.68,-119.01 1010.19,-125.55"/>
</g>
<!-- Node33&#45;&gt;Node7 -->
<g id="edge47" class="edge">
<title>Node33&#45;&gt;Node7</title>
<path fill="none" stroke="midnightblue" d="M955.67,-135.5C945.47,-135.5 935.26,-135.5 925.59,-135.5"/>
<polygon fill="midnightblue" stroke="midnightblue" points="955.85,-139 965.85,-135.5 955.85,-132 955.85,-139"/>
</g>
<!-- Node36 -->
<g id="node36" class="node">
<title>Node36</title>
<g id="a_node36"><a xlink:href="group__as__iic__wait.html#ga0bc5aad64893b674c42943fb64d17676" target="_top" xlink:title=" ">
<polygon fill="none" stroke="black" points="1168.5,-316 1168.5,-335 1312.5,-335 1312.5,-316 1168.5,-316"/>
<text text-anchor="middle" x="1240.5" y="-323" font-family="Helvetica,sans-Serif" font-size="10.00">as_iic_busy_wait_for_wait</text>
</a>
</g>
</g>
<!-- Node35&#45;&gt;Node36 -->
<g id="edge54" class="edge">
<title>Node35&#45;&gt;Node36</title>
<path fill="none" stroke="midnightblue" d="M1503.68,-297.73C1449.89,-303.43 1370.18,-311.87 1312.79,-317.95"/>
<polygon fill="midnightblue" stroke="midnightblue" points="1504.17,-301.2 1513.75,-296.66 1503.43,-294.24 1504.17,-301.2"/>
</g>
<!-- Node36&#45;&gt;Node3 -->
<g id="edge55" class="edge">
<title>Node36&#45;&gt;Node3</title>
<path fill="none" stroke="midnightblue" d="M1157.99,-325.5C1142.19,-325.5 1125.84,-325.5 1110.67,-325.5"/>
<polygon fill="midnightblue" stroke="midnightblue" points="1158.27,-329 1168.27,-325.5 1158.27,-322 1158.27,-329"/>
</g>
<!-- Node36&#45;&gt;Node6 -->
<g id="edge56" class="edge">
<title>Node36&#45;&gt;Node6</title>
<path fill="none" stroke="midnightblue" d="M1214.67,-310.87C1174.44,-287.17 1096.13,-241.03 1062.25,-221.08"/>
<polygon fill="midnightblue" stroke="midnightblue" points="1212.94,-313.92 1223.34,-315.98 1216.5,-307.88 1212.94,-313.92"/>
</g>
<!-- Node36&#45;&gt;Node26 -->
<g id="edge57" class="edge">
<title>Node36&#45;&gt;Node26</title>
<path fill="none" stroke="midnightblue" d="M1180.75,-337.04C1153.15,-342.46 1120.65,-348.84 1094.48,-353.98"/>
<polygon fill="midnightblue" stroke="midnightblue" points="1181.53,-340.45 1190.67,-335.09 1180.18,-333.58 1181.53,-340.45"/>
</g>
</g>
</svg>
