<?xml version="1.0" encoding="UTF-8" standalone="no"?>
<!DOCTYPE svg PUBLIC "-//W3C//DTD SVG 1.1//EN"
 "http://www.w3.org/Graphics/SVG/1.1/DTD/svg11.dtd">
<!-- Generated by graphviz version 2.43.0 (0)
 -->
<!-- Title: driver_as_memio_open Pages: 1 -->
<svg width="1036pt" height="365pt"
 viewBox="0.00 0.00 1036.00 365.25" xmlns="http://www.w3.org/2000/svg" xmlns:xlink="http://www.w3.org/1999/xlink">
<g id="graph0" class="graph" transform="scale(1 1) rotate(0) translate(4 361.25)">
<title>driver_as_memio_open</title>
<!-- Node1 -->
<g id="node1" class="node">
<title>Node1</title>
<g id="a_node1"><a xlink:title=" ">
<polygon fill="#bfbfbf" stroke="black" points="0,-171.5 0,-190.5 131,-190.5 131,-171.5 0,-171.5"/>
<text text-anchor="middle" x="65.5" y="-178.5" font-family="Helvetica,sans-Serif" font-size="10.00">driver_as_memio_open</text>
</a>
</g>
</g>
<!-- Node2 -->
<g id="node2" class="node">
<title>Node2</title>
<g id="a_node2"><a xlink:href="as__memio_8c.html#acc05505f22ed7950a0d997708c6570b4" target="_top" xlink:title=" ">
<polygon fill="none" stroke="black" points="167,-171.5 167,-190.5 264,-190.5 264,-171.5 167,-171.5"/>
<text text-anchor="middle" x="215.5" y="-178.5" font-family="Helvetica,sans-Serif" font-size="10.00">as_memio_open</text>
</a>
</g>
</g>
<!-- Node1&#45;&gt;Node2 -->
<g id="edge1" class="edge">
<title>Node1&#45;&gt;Node2</title>
<path fill="none" stroke="midnightblue" d="M131.41,-181C139.92,-181 148.58,-181 156.95,-181"/>
<polygon fill="midnightblue" stroke="midnightblue" points="156.99,-184.5 166.99,-181 156.99,-177.5 156.99,-184.5"/>
</g>
<!-- Node3 -->
<g id="node3" class="node">
<title>Node3</title>
<g id="a_node3"><a xlink:href="group__as__buffer.html#ga90f980b27c24955418f94f617402c7e7" target="_top" xlink:title=" ">
<polygon fill="none" stroke="black" points="311.5,-304.5 311.5,-323.5 430.5,-323.5 430.5,-304.5 311.5,-304.5"/>
<text text-anchor="middle" x="371" y="-311.5" font-family="Helvetica,sans-Serif" font-size="10.00">as_buffer_obj_create</text>
</a>
</g>
</g>
<!-- Node2&#45;&gt;Node3 -->
<g id="edge2" class="edge">
<title>Node2&#45;&gt;Node3</title>
<path fill="none" stroke="midnightblue" d="M221.35,-190.68C232.4,-211.8 261.49,-262.29 300,-290 305.95,-294.28 312.73,-297.85 319.66,-300.8"/>
<polygon fill="midnightblue" stroke="midnightblue" points="318.57,-304.13 329.16,-304.46 321.09,-297.6 318.57,-304.13"/>
</g>
<!-- Node4 -->
<g id="node4" class="node">
<title>Node4</title>
<g id="a_node4"><a xlink:href="group__asterics__support.html#ga9b562fe5abd06406020981c2f19bcc0c" target="_top" xlink:title=" ">
<polygon fill="none" stroke="black" points="509,-323.5 509,-342.5 575,-342.5 575,-323.5 509,-323.5"/>
<text text-anchor="middle" x="542" y="-330.5" font-family="Helvetica,sans-Serif" font-size="10.00">as_malloc</text>
</a>
</g>
</g>
<!-- Node2&#45;&gt;Node4 -->
<g id="edge8" class="edge">
<title>Node2&#45;&gt;Node4</title>
<path fill="none" stroke="midnightblue" d="M218.35,-190.84C224.26,-219.15 245.58,-300.81 300,-333 361.65,-369.47 448.63,-357.16 499.49,-345"/>
<polygon fill="midnightblue" stroke="midnightblue" points="500.61,-348.33 509.46,-342.51 498.91,-341.54 500.61,-348.33"/>
</g>
<!-- Node5 -->
<g id="node5" class="node">
<title>Node5</title>
<g id="a_node5"><a xlink:href="group__as__buffer.html#ga24266b1c24e9679a68088a917f78ecf8" target="_top" xlink:title=" ">
<polygon fill="none" stroke="black" points="308.5,-228.5 308.5,-247.5 433.5,-247.5 433.5,-228.5 308.5,-228.5"/>
<text text-anchor="middle" x="371" y="-235.5" font-family="Helvetica,sans-Serif" font-size="10.00">as_buffer_obj_destroy</text>
</a>
</g>
</g>
<!-- Node2&#45;&gt;Node5 -->
<g id="edge4" class="edge">
<title>Node2&#45;&gt;Node5</title>
<path fill="none" stroke="midnightblue" d="M235.37,-190.65C252.06,-198.93 277.23,-210.79 300,-219 306.53,-221.35 313.49,-223.57 320.39,-225.61"/>
<polygon fill="midnightblue" stroke="midnightblue" points="319.83,-229.09 330.41,-228.45 321.74,-222.36 319.83,-229.09"/>
</g>
<!-- Node6 -->
<g id="node6" class="node">
<title>Node6</title>
<g id="a_node6"><a xlink:href="group__asterics__support.html#ga3a2ba9ffa2388da78d024646e73441ff" target="_top" xlink:title=" ">
<polygon fill="none" stroke="black" points="515.5,-261.5 515.5,-280.5 568.5,-280.5 568.5,-261.5 515.5,-261.5"/>
<text text-anchor="middle" x="542" y="-268.5" font-family="Helvetica,sans-Serif" font-size="10.00">as_free</text>
</a>
</g>
</g>
<!-- Node2&#45;&gt;Node6 -->
<g id="edge7" class="edge">
<title>Node2&#45;&gt;Node6</title>
<path fill="none" stroke="midnightblue" d="M223.44,-190.67C236.3,-207.69 265.67,-242.56 300,-257 368.2,-285.69 456.95,-281.47 505.47,-276.08"/>
<polygon fill="midnightblue" stroke="midnightblue" points="505.97,-279.55 515.48,-274.89 505.14,-272.6 505.97,-279.55"/>
</g>
<!-- Node7 -->
<g id="node7" class="node">
<title>Node7</title>
<g id="a_node7"><a xlink:href="group__as__buffer.html#ga66ae232a694d9bfaa268551ee060d045" target="_top" xlink:title=" ">
<polygon fill="none" stroke="black" points="311.5,-190.5 311.5,-209.5 430.5,-209.5 430.5,-190.5 311.5,-190.5"/>
<text text-anchor="middle" x="371" y="-197.5" font-family="Helvetica,sans-Serif" font-size="10.00">as_buffer_queue_init</text>
</a>
</g>
</g>
<!-- Node2&#45;&gt;Node7 -->
<g id="edge6" class="edge">
<title>Node2&#45;&gt;Node7</title>
<path fill="none" stroke="midnightblue" d="M264.23,-186.91C276.03,-188.37 288.91,-189.96 301.49,-191.52"/>
<polygon fill="midnightblue" stroke="midnightblue" points="301.14,-195 311.49,-192.76 302,-188.06 301.14,-195"/>
</g>
<!-- Node8 -->
<g id="node8" class="node">
<title>Node8</title>
<g id="a_node8"><a xlink:href="as__memio_8c.html#a6a0f8ec170591d2aeccb065d92f38414" target="_top" xlink:title=" ">
<polygon fill="none" stroke="black" points="309,-152.5 309,-171.5 433,-171.5 433,-152.5 309,-152.5"/>
<text text-anchor="middle" x="371" y="-159.5" font-family="Helvetica,sans-Serif" font-size="10.00">as_memio_config_init</text>
</a>
</g>
</g>
<!-- Node2&#45;&gt;Node8 -->
<g id="edge9" class="edge">
<title>Node2&#45;&gt;Node8</title>
<path fill="none" stroke="midnightblue" d="M264.23,-175.09C275.12,-173.74 286.92,-172.28 298.56,-170.84"/>
<polygon fill="midnightblue" stroke="midnightblue" points="299.23,-174.29 308.73,-169.58 298.37,-167.34 299.23,-174.29"/>
</g>
<!-- Node9 -->
<g id="node9" class="node">
<title>Node9</title>
<g id="a_node9"><a xlink:href="as__memio_8c.html#a31a12ad0b581e08a50188766815dd93d" target="_top" xlink:title=" ">
<polygon fill="none" stroke="black" points="300,-114.5 300,-133.5 442,-133.5 442,-114.5 300,-114.5"/>
<text text-anchor="middle" x="371" y="-121.5" font-family="Helvetica,sans-Serif" font-size="10.00">as_memio_module_setup</text>
</a>
</g>
</g>
<!-- Node2&#45;&gt;Node9 -->
<g id="edge10" class="edge">
<title>Node2&#45;&gt;Node9</title>
<path fill="none" stroke="midnightblue" d="M235.37,-171.35C252.06,-163.07 277.23,-151.21 300,-143 306.53,-140.65 313.49,-138.43 320.39,-136.39"/>
<polygon fill="midnightblue" stroke="midnightblue" points="321.74,-139.64 330.41,-133.55 319.83,-132.91 321.74,-139.64"/>
</g>
<!-- Node21 -->
<g id="node21" class="node">
<title>Node21</title>
<g id="a_node21"><a xlink:href="as__memio_8c.html#a3cef9dc7d8f4d804e4854cb1a081506e" target="_top" xlink:title=" ">
<polygon fill="none" stroke="black" points="313,-76.5 313,-95.5 429,-95.5 429,-76.5 313,-76.5"/>
<text text-anchor="middle" x="371" y="-83.5" font-family="Helvetica,sans-Serif" font-size="10.00">print_buffer_handler</text>
</a>
</g>
</g>
<!-- Node2&#45;&gt;Node21 -->
<g id="edge30" class="edge">
<title>Node2&#45;&gt;Node21</title>
<path fill="none" stroke="midnightblue" d="M224.42,-171.25C238.12,-155.06 267.86,-122.63 300,-105 304.02,-102.79 308.32,-100.83 312.72,-99.09"/>
<polygon fill="midnightblue" stroke="midnightblue" points="314.25,-102.26 322.49,-95.61 311.9,-95.67 314.25,-102.26"/>
</g>
<!-- Node22 -->
<g id="node22" class="node">
<title>Node22</title>
<g id="a_node22"><a xlink:href="as__memio_8c.html#a621bccf5671e074ed0cc54dab2b9efdc" target="_top" xlink:title=" ">
<polygon fill="none" stroke="black" points="319.5,-38.5 319.5,-57.5 422.5,-57.5 422.5,-38.5 319.5,-38.5"/>
<text text-anchor="middle" x="371" y="-45.5" font-family="Helvetica,sans-Serif" font-size="10.00">print_hw_settings</text>
</a>
</g>
</g>
<!-- Node2&#45;&gt;Node22 -->
<g id="edge31" class="edge">
<title>Node2&#45;&gt;Node22</title>
<path fill="none" stroke="midnightblue" d="M220.78,-171.34C231.06,-149.27 259.35,-94.92 300,-67 303.09,-64.88 306.4,-62.99 309.85,-61.32"/>
<polygon fill="midnightblue" stroke="midnightblue" points="311.38,-64.48 319.23,-57.36 308.65,-58.03 311.38,-64.48"/>
</g>
<!-- Node23 -->
<g id="node23" class="node">
<title>Node23</title>
<g id="a_node23"><a xlink:href="as__memio_8c.html#a9b40b11f848707b97421a70f9e6b7968" target="_top" xlink:title=" ">
<polygon fill="none" stroke="black" points="314,-0.5 314,-19.5 428,-19.5 428,-0.5 314,-0.5"/>
<text text-anchor="middle" x="371" y="-7.5" font-family="Helvetica,sans-Serif" font-size="10.00">print_memio_config</text>
</a>
</g>
</g>
<!-- Node2&#45;&gt;Node23 -->
<g id="edge32" class="edge">
<title>Node2&#45;&gt;Node23</title>
<path fill="none" stroke="midnightblue" d="M218.91,-171.45C226.19,-144.6 250.55,-67.92 300,-29 302.32,-27.17 304.8,-25.52 307.39,-24.03"/>
<polygon fill="midnightblue" stroke="midnightblue" points="309.13,-27.08 316.58,-19.54 306.06,-20.79 309.13,-27.08"/>
</g>
<!-- Node3&#45;&gt;Node4 -->
<g id="edge3" class="edge">
<title>Node3&#45;&gt;Node4</title>
<path fill="none" stroke="midnightblue" d="M430.63,-320.59C452.98,-323.1 478,-325.92 498.56,-328.23"/>
<polygon fill="midnightblue" stroke="midnightblue" points="498.23,-331.71 508.56,-329.35 499.01,-324.76 498.23,-331.71"/>
</g>
<!-- Node5&#45;&gt;Node6 -->
<g id="edge5" class="edge">
<title>Node5&#45;&gt;Node6</title>
<path fill="none" stroke="midnightblue" d="M420.88,-247.54C447.84,-252.81 480.71,-259.23 505.25,-264.02"/>
<polygon fill="midnightblue" stroke="midnightblue" points="504.73,-267.48 515.21,-265.96 506.07,-260.61 504.73,-267.48"/>
</g>
<!-- Node10 -->
<g id="node10" class="node">
<title>Node10</title>
<g id="a_node10"><a xlink:href="group__as__reader__writer.html#ga89e42a53f0db5cf22c8583c8e0c8a074" target="_top" xlink:title="Resets the hardware module.">
<polygon fill="none" stroke="black" points="478,-32.5 478,-51.5 606,-51.5 606,-32.5 478,-32.5"/>
<text text-anchor="middle" x="542" y="-39.5" font-family="Helvetica,sans-Serif" font-size="10.00">as_reader_writer_reset</text>
</a>
</g>
</g>
<!-- Node9&#45;&gt;Node10 -->
<g id="edge11" class="edge">
<title>Node9&#45;&gt;Node10</title>
<path fill="none" stroke="midnightblue" d="M422.22,-114.48C429.17,-112.01 435.98,-108.9 442,-105 463.2,-91.26 456.99,-75.04 478,-61 481.08,-58.94 484.39,-57.1 487.82,-55.46"/>
<polygon fill="midnightblue" stroke="midnightblue" points="489.26,-58.65 497.11,-51.54 486.54,-52.2 489.26,-58.65"/>
</g>
<!-- Node17 -->
<g id="node17" class="node">
<title>Node17</title>
<g id="a_node17"><a xlink:href="group__as__reader__writer.html#gae1123634d5cf61d70bcfc7a87cda08bf" target="_top" xlink:title="Sets the maximum possible burst length to be performed by the hardware module.">
<polygon fill="none" stroke="black" points="482.5,-158 482.5,-188 601.5,-188 601.5,-158 482.5,-158"/>
<text text-anchor="start" x="490.5" y="-176" font-family="Helvetica,sans-Serif" font-size="10.00">as_reader_writer_set</text>
<text text-anchor="middle" x="542" y="-165" font-family="Helvetica,sans-Serif" font-size="10.00">_max_burst_length</text>
</a>
</g>
</g>
<!-- Node9&#45;&gt;Node17 -->
<g id="edge18" class="edge">
<title>Node9&#45;&gt;Node17</title>
<path fill="none" stroke="midnightblue" d="M408.03,-133.56C418.96,-136.52 430.99,-139.84 442,-143 455.27,-146.81 469.49,-151.03 482.9,-155.08"/>
<polygon fill="midnightblue" stroke="midnightblue" points="481.91,-158.44 492.49,-157.99 483.94,-151.74 481.91,-158.44"/>
</g>
<!-- Node18 -->
<g id="node18" class="node">
<title>Node18</title>
<g id="a_node18"><a xlink:href="group__as__reader__writer.html#ga4dd1a170b8e16005c286c0c0e7d8406f" target="_top" xlink:title="Sets the number of sections.">
<polygon fill="none" stroke="black" points="482.5,-109 482.5,-139 601.5,-139 601.5,-109 482.5,-109"/>
<text text-anchor="start" x="490.5" y="-127" font-family="Helvetica,sans-Serif" font-size="10.00">as_reader_writer_set</text>
<text text-anchor="middle" x="542" y="-116" font-family="Helvetica,sans-Serif" font-size="10.00">_section_count</text>
</a>
</g>
</g>
<!-- Node9&#45;&gt;Node18 -->
<g id="edge21" class="edge">
<title>Node9&#45;&gt;Node18</title>
<path fill="none" stroke="midnightblue" d="M442.2,-124C452.1,-124 462.26,-124 472.13,-124"/>
<polygon fill="midnightblue" stroke="midnightblue" points="472.28,-127.5 482.28,-124 472.28,-120.5 472.28,-127.5"/>
</g>
<!-- Node19 -->
<g id="node19" class="node">
<title>Node19</title>
<g id="a_node19"><a xlink:href="group__as__reader__writer.html#ga12f11a3d7cff5ea8bdec75dedec35bab" target="_top" xlink:title="Sets the offset in bytes between the start addresses of two subsequent sections.">
<polygon fill="none" stroke="black" points="482.5,-207 482.5,-237 601.5,-237 601.5,-207 482.5,-207"/>
<text text-anchor="start" x="490.5" y="-225" font-family="Helvetica,sans-Serif" font-size="10.00">as_reader_writer_set</text>
<text text-anchor="middle" x="542" y="-214" font-family="Helvetica,sans-Serif" font-size="10.00">_section_offset</text>
</a>
</g>
</g>
<!-- Node9&#45;&gt;Node19 -->
<g id="edge24" class="edge">
<title>Node9&#45;&gt;Node19</title>
<path fill="none" stroke="midnightblue" d="M424.42,-133.64C430.67,-136.08 436.7,-139.15 442,-143 465.64,-160.17 455.24,-179.68 478,-198 479.57,-199.27 481.22,-200.47 482.92,-201.62"/>
<polygon fill="midnightblue" stroke="midnightblue" points="481.45,-204.81 491.84,-206.86 484.99,-198.77 481.45,-204.81"/>
</g>
<!-- Node20 -->
<g id="node20" class="node">
<title>Node20</title>
<g id="a_node20"><a xlink:href="group__as__reader__writer.html#ga1ef22dbd33d87de51113837dd9123c6f" target="_top" xlink:title="Enable module input port.">
<polygon fill="none" stroke="black" points="482,-70.5 482,-89.5 602,-89.5 602,-70.5 482,-70.5"/>
<text text-anchor="middle" x="542" y="-77.5" font-family="Helvetica,sans-Serif" font-size="10.00">as_writer_set_enable</text>
</a>
</g>
</g>
<!-- Node9&#45;&gt;Node20 -->
<g id="edge27" class="edge">
<title>Node9&#45;&gt;Node20</title>
<path fill="none" stroke="midnightblue" d="M408.67,-114.45C433.81,-107.91 467.36,-99.17 494.39,-92.13"/>
<polygon fill="midnightblue" stroke="midnightblue" points="495.61,-95.44 504.4,-89.53 493.84,-88.66 495.61,-95.44"/>
</g>
<!-- Node11 -->
<g id="node11" class="node">
<title>Node11</title>
<g id="a_node11"><a xlink:href="group__asterics__support.html#gaa7520f5b717e163da743500adb2eb0b9" target="_top" xlink:title=" ">
<polygon fill="none" stroke="black" points="657.5,-128.5 657.5,-147.5 748.5,-147.5 748.5,-128.5 657.5,-128.5"/>
<text text-anchor="middle" x="703" y="-135.5" font-family="Helvetica,sans-Serif" font-size="10.00">as_module_reg</text>
</a>
</g>
</g>
<!-- Node10&#45;&gt;Node11 -->
<g id="edge12" class="edge">
<title>Node10&#45;&gt;Node11</title>
<path fill="none" stroke="midnightblue" d="M582.9,-51.51C590.78,-54.08 598.82,-57.22 606,-61 636.66,-77.14 667,-103.73 685.12,-121.05"/>
<polygon fill="midnightblue" stroke="midnightblue" points="682.94,-123.81 692.54,-128.29 687.83,-118.8 682.94,-123.81"/>
</g>
<!-- Node12 -->
<g id="node12" class="node">
<title>Node12</title>
<g id="a_node12"><a xlink:href="group__asterics__support.html#ga0ccb0610d764a95bda989e35fba59490" target="_top" xlink:title=" ">
<polygon fill="none" stroke="black" points="642,-52.5 642,-71.5 764,-71.5 764,-52.5 642,-52.5"/>
<text text-anchor="middle" x="703" y="-59.5" font-family="Helvetica,sans-Serif" font-size="10.00">as_reg_write_masked</text>
</a>
</g>
</g>
<!-- Node10&#45;&gt;Node12 -->
<g id="edge13" class="edge">
<title>Node10&#45;&gt;Node12</title>
<path fill="none" stroke="midnightblue" d="M606.3,-49.96C614.61,-51.01 623.17,-52.08 631.59,-53.14"/>
<polygon fill="midnightblue" stroke="midnightblue" points="631.41,-56.65 641.77,-54.42 632.28,-49.7 631.41,-56.65"/>
</g>
<!-- Node13 -->
<g id="node13" class="node">
<title>Node13</title>
<g id="a_node13"><a xlink:href="group__asterics__support.html#ga8e5c2bfd2e4498d10289377bd94cef07" target="_top" xlink:title=" ">
<polygon fill="none" stroke="black" points="801.5,-52.5 801.5,-71.5 877.5,-71.5 877.5,-52.5 801.5,-52.5"/>
<text text-anchor="middle" x="839.5" y="-59.5" font-family="Helvetica,sans-Serif" font-size="10.00">as_reg_read</text>
</a>
</g>
</g>
<!-- Node12&#45;&gt;Node13 -->
<g id="edge14" class="edge">
<title>Node12&#45;&gt;Node13</title>
<path fill="none" stroke="midnightblue" d="M764.17,-62C773.12,-62 782.24,-62 790.88,-62"/>
<polygon fill="midnightblue" stroke="midnightblue" points="791.15,-65.5 801.15,-62 791.15,-58.5 791.15,-65.5"/>
</g>
<!-- Node15 -->
<g id="node15" class="node">
<title>Node15</title>
<g id="a_node15"><a xlink:href="group__asterics__support.html#ga6345b997e24a6cd5f9143cef27629d49" target="_top" xlink:title=" ">
<polygon fill="none" stroke="black" points="800,-128.5 800,-147.5 879,-147.5 879,-128.5 800,-128.5"/>
<text text-anchor="middle" x="839.5" y="-135.5" font-family="Helvetica,sans-Serif" font-size="10.00">as_reg_write</text>
</a>
</g>
</g>
<!-- Node12&#45;&gt;Node15 -->
<g id="edge16" class="edge">
<title>Node12&#45;&gt;Node15</title>
<path fill="none" stroke="midnightblue" d="M731.78,-71.59C742.13,-75.55 753.83,-80.51 764,-86 783.31,-96.42 803.64,-110.88 818.17,-121.9"/>
<polygon fill="midnightblue" stroke="midnightblue" points="816.35,-124.92 826.41,-128.25 820.63,-119.37 816.35,-124.92"/>
</g>
<!-- Node14 -->
<g id="node14" class="node">
<title>Node14</title>
<g id="a_node14"><a xlink:href="group__asterics__support.html#ga4c6d688b840a6e2edc9bc0b8ed961677" target="_top" xlink:title=" ">
<polygon fill="none" stroke="black" points="921.5,-52.5 921.5,-71.5 1021.5,-71.5 1021.5,-52.5 921.5,-52.5"/>
<text text-anchor="middle" x="971.5" y="-59.5" font-family="Helvetica,sans-Serif" font-size="10.00">as_reg_to_uint32</text>
</a>
</g>
</g>
<!-- Node13&#45;&gt;Node14 -->
<g id="edge15" class="edge">
<title>Node13&#45;&gt;Node14</title>
<path fill="none" stroke="midnightblue" d="M877.75,-62C888.09,-62 899.59,-62 910.86,-62"/>
<polygon fill="midnightblue" stroke="midnightblue" points="911.12,-65.5 921.12,-62 911.12,-58.5 911.12,-65.5"/>
</g>
<!-- Node16 -->
<g id="node16" class="node">
<title>Node16</title>
<g id="a_node16"><a xlink:href="group__asterics__support.html#gab651cc2c035ce61b354578434e59f822" target="_top" xlink:title=" ">
<polygon fill="none" stroke="black" points="915,-128.5 915,-147.5 1028,-147.5 1028,-128.5 915,-128.5"/>
<text text-anchor="middle" x="971.5" y="-135.5" font-family="Helvetica,sans-Serif" font-size="10.00">as_reg_from_uint32</text>
</a>
</g>
</g>
<!-- Node15&#45;&gt;Node16 -->
<g id="edge17" class="edge">
<title>Node15&#45;&gt;Node16</title>
<path fill="none" stroke="midnightblue" d="M879.15,-138C887.22,-138 895.94,-138 904.68,-138"/>
<polygon fill="midnightblue" stroke="midnightblue" points="904.92,-141.5 914.92,-138 904.92,-134.5 904.92,-141.5"/>
</g>
<!-- Node17&#45;&gt;Node11 -->
<g id="edge19" class="edge">
<title>Node17&#45;&gt;Node11</title>
<path fill="none" stroke="midnightblue" d="M601.75,-160.07C616.99,-156.71 633.32,-153.12 648.29,-149.82"/>
<polygon fill="midnightblue" stroke="midnightblue" points="649.38,-153.17 658.4,-147.6 647.88,-146.33 649.38,-153.17"/>
</g>
<!-- Node17&#45;&gt;Node15 -->
<g id="edge20" class="edge">
<title>Node17&#45;&gt;Node15</title>
<path fill="none" stroke="midnightblue" d="M601.96,-171.57C646.67,-169.8 709.51,-165.85 764,-157 774.58,-155.28 785.86,-152.77 796.35,-150.13"/>
<polygon fill="midnightblue" stroke="midnightblue" points="797.33,-153.5 806.13,-147.59 795.57,-146.72 797.33,-153.5"/>
</g>
<!-- Node18&#45;&gt;Node11 -->
<g id="edge22" class="edge">
<title>Node18&#45;&gt;Node11</title>
<path fill="none" stroke="midnightblue" d="M601.75,-129.17C616.7,-130.49 632.71,-131.9 647.44,-133.2"/>
<polygon fill="midnightblue" stroke="midnightblue" points="647.14,-136.68 657.41,-134.07 647.75,-129.71 647.14,-136.68"/>
</g>
<!-- Node18&#45;&gt;Node15 -->
<g id="edge23" class="edge">
<title>Node18&#45;&gt;Node15</title>
<path fill="none" stroke="midnightblue" d="M601.87,-117.98C646.53,-114.54 709.36,-112.14 764,-119 775.36,-120.43 787.46,-123.03 798.55,-125.86"/>
<polygon fill="midnightblue" stroke="midnightblue" points="797.82,-129.29 808.38,-128.5 799.63,-122.53 797.82,-129.29"/>
</g>
<!-- Node19&#45;&gt;Node11 -->
<g id="edge25" class="edge">
<title>Node19&#45;&gt;Node11</title>
<path fill="none" stroke="midnightblue" d="M585.85,-206.97C592.68,-204.2 599.61,-201.18 606,-198 632.59,-184.78 661.23,-166.27 680.24,-153.32"/>
<polygon fill="midnightblue" stroke="midnightblue" points="682.25,-156.18 688.5,-147.62 678.28,-150.41 682.25,-156.18"/>
</g>
<!-- Node19&#45;&gt;Node15 -->
<g id="edge26" class="edge">
<title>Node19&#45;&gt;Node15</title>
<path fill="none" stroke="midnightblue" d="M601.91,-214.61C647.15,-207.85 710.69,-195.95 764,-177 781.72,-170.7 800.46,-160.87 814.72,-152.65"/>
<polygon fill="midnightblue" stroke="midnightblue" points="816.55,-155.64 823.38,-147.54 812.99,-149.61 816.55,-155.64"/>
</g>
<!-- Node20&#45;&gt;Node11 -->
<g id="edge28" class="edge">
<title>Node20&#45;&gt;Node11</title>
<path fill="none" stroke="midnightblue" d="M576.86,-89.58C586.35,-92.44 596.63,-95.69 606,-99 627.86,-106.72 652.03,-116.54 670.65,-124.4"/>
<polygon fill="midnightblue" stroke="midnightblue" points="669.54,-127.73 680.11,-128.43 672.28,-121.29 669.54,-127.73"/>
</g>
<!-- Node20&#45;&gt;Node12 -->
<g id="edge29" class="edge">
<title>Node20&#45;&gt;Node12</title>
<path fill="none" stroke="midnightblue" d="M602.21,-73.3C611.84,-72.21 621.9,-71.07 631.76,-69.95"/>
<polygon fill="midnightblue" stroke="midnightblue" points="632.41,-73.4 641.95,-68.8 631.62,-66.45 632.41,-73.4"/>
</g>
</g>
</svg>
