<?xml version="1.0" encoding="UTF-8" standalone="no"?>
<!DOCTYPE svg PUBLIC "-//W3C//DTD SVG 1.1//EN"
 "http://www.w3.org/Graphics/SVG/1.1/DTD/svg11.dtd">
<!-- Generated by graphviz version 2.43.0 (0)
 -->
<!-- Title: driver_as_memio_ioctl Pages: 1 -->
<svg width="1096pt" height="501pt"
 viewBox="0.00 0.00 1096.00 500.53" xmlns="http://www.w3.org/2000/svg" xmlns:xlink="http://www.w3.org/1999/xlink">
<g id="graph0" class="graph" transform="scale(1 1) rotate(0) translate(4 496.53)">
<title>driver_as_memio_ioctl</title>
<!-- Node1 -->
<g id="node1" class="node">
<title>Node1</title>
<g id="a_node1"><a xlink:title=" ">
<polygon fill="#bfbfbf" stroke="black" points="0,-244 0,-263 128,-263 128,-244 0,-244"/>
<text text-anchor="middle" x="64" y="-251" font-family="Helvetica,sans-Serif" font-size="10.00">driver_as_memio_ioctl</text>
</a>
</g>
</g>
<!-- Node2 -->
<g id="node2" class="node">
<title>Node2</title>
<g id="a_node2"><a xlink:href="as__memio_8c.html#a2d1779f68606dd78a78a331a6c261a43" target="_top" xlink:title=" ">
<polygon fill="none" stroke="black" points="164,-244 164,-263 290,-263 290,-244 164,-244"/>
<text text-anchor="middle" x="227" y="-251" font-family="Helvetica,sans-Serif" font-size="10.00">as_memio_hw_update</text>
</a>
</g>
</g>
<!-- Node1&#45;&gt;Node2 -->
<g id="edge1" class="edge">
<title>Node1&#45;&gt;Node2</title>
<path fill="none" stroke="midnightblue" d="M128.17,-253.5C136.5,-253.5 145.09,-253.5 153.56,-253.5"/>
<polygon fill="midnightblue" stroke="midnightblue" points="153.8,-257 163.8,-253.5 153.8,-250 153.8,-257"/>
</g>
<!-- Node3 -->
<g id="node3" class="node">
<title>Node3</title>
<g id="a_node3"><a xlink:href="as__memio_8c.html#ab93cfbaa1058ea83836b6d052e72ad50" target="_top" xlink:title=" ">
<polygon fill="none" stroke="black" points="327.5,-263 327.5,-282 480.5,-282 480.5,-263 327.5,-263"/>
<text text-anchor="middle" x="404" y="-270" font-family="Helvetica,sans-Serif" font-size="10.00">as_memio_hw_read_update</text>
</a>
</g>
</g>
<!-- Node2&#45;&gt;Node3 -->
<g id="edge2" class="edge">
<title>Node2&#45;&gt;Node3</title>
<path fill="none" stroke="midnightblue" d="M290.19,-260.25C298.9,-261.2 307.97,-262.18 317.03,-263.17"/>
<polygon fill="midnightblue" stroke="midnightblue" points="316.9,-266.67 327.22,-264.27 317.65,-259.71 316.9,-266.67"/>
</g>
<!-- Node24 -->
<g id="node24" class="node">
<title>Node24</title>
<g id="a_node24"><a xlink:href="as__memio_8c.html#a3ae0453041c4a6d406955edd9c7e43f3" target="_top" xlink:title=" ">
<polygon fill="none" stroke="black" points="326,-225 326,-244 482,-244 482,-225 326,-225"/>
<text text-anchor="middle" x="404" y="-232" font-family="Helvetica,sans-Serif" font-size="10.00">as_memio_hw_write_update</text>
</a>
</g>
</g>
<!-- Node2&#45;&gt;Node24 -->
<g id="edge34" class="edge">
<title>Node2&#45;&gt;Node24</title>
<path fill="none" stroke="midnightblue" d="M290.19,-246.75C298.52,-245.84 307.19,-244.9 315.85,-243.96"/>
<polygon fill="midnightblue" stroke="midnightblue" points="316.44,-247.42 326,-242.86 315.68,-240.46 316.44,-247.42"/>
</g>
<!-- Node4 -->
<g id="node4" class="node">
<title>Node4</title>
<g id="a_node4"><a xlink:href="group__as__buffer.html#ga6016c939a78457aac0650827fdce6ae3" target="_top" xlink:title=" ">
<polygon fill="none" stroke="black" points="533,-187 533,-206 643,-206 643,-187 533,-187"/>
<text text-anchor="middle" x="588" y="-194" font-family="Helvetica,sans-Serif" font-size="10.00">as_buffer_enqueue</text>
</a>
</g>
</g>
<!-- Node3&#45;&gt;Node4 -->
<g id="edge3" class="edge">
<title>Node3&#45;&gt;Node4</title>
<path fill="none" stroke="midnightblue" d="M460.36,-262.93C467.9,-260.47 475.34,-257.38 482,-253.5 502.11,-241.8 498.05,-227.47 518,-215.5 521.6,-213.34 525.44,-211.42 529.41,-209.72"/>
<polygon fill="midnightblue" stroke="midnightblue" points="530.75,-212.95 538.83,-206.11 528.24,-206.42 530.75,-212.95"/>
</g>
<!-- Node5 -->
<g id="node5" class="node">
<title>Node5</title>
<g id="a_node5"><a xlink:href="group__as__buffer.html#ga207494f5e874a5db26b0bedf2784bf56" target="_top" xlink:title=" ">
<polygon fill="none" stroke="black" points="524,-137.5 524,-167.5 652,-167.5 652,-137.5 524,-137.5"/>
<text text-anchor="start" x="532" y="-155.5" font-family="Helvetica,sans-Serif" font-size="10.00">as_buffer_find_waiting</text>
<text text-anchor="middle" x="588" y="-144.5" font-family="Helvetica,sans-Serif" font-size="10.00">_buffer</text>
</a>
</g>
</g>
<!-- Node3&#45;&gt;Node5 -->
<g id="edge4" class="edge">
<title>Node3&#45;&gt;Node5</title>
<path fill="none" stroke="midnightblue" d="M466.31,-262.88C471.96,-260.41 477.31,-257.33 482,-253.5 510.94,-229.85 490.35,-202.65 518,-177.5 519.72,-175.93 521.55,-174.46 523.46,-173.08"/>
<polygon fill="midnightblue" stroke="midnightblue" points="525.65,-175.85 532.29,-167.59 521.95,-169.9 525.65,-175.85"/>
</g>
<!-- Node6 -->
<g id="node6" class="node">
<title>Node6</title>
<g id="a_node6"><a xlink:href="group__as__buffer.html#ga07ae3ddfeb05316df9cb59b962c29817" target="_top" xlink:title=" ">
<polygon fill="none" stroke="black" points="536.5,-99 536.5,-118 639.5,-118 639.5,-99 536.5,-99"/>
<text text-anchor="middle" x="588" y="-106" font-family="Helvetica,sans-Serif" font-size="10.00">as_buffer_inspect</text>
</a>
</g>
</g>
<!-- Node3&#45;&gt;Node6 -->
<g id="edge5" class="edge">
<title>Node3&#45;&gt;Node6</title>
<path fill="none" stroke="midnightblue" d="M468.48,-262.91C473.43,-260.42 478.04,-257.32 482,-253.5 523.92,-213.07 476.62,-168.48 518,-127.5 520.72,-124.81 523.78,-122.49 527.07,-120.49"/>
<polygon fill="midnightblue" stroke="midnightblue" points="528.83,-123.52 536.21,-115.92 525.7,-117.26 528.83,-123.52"/>
</g>
<!-- Node7 -->
<g id="node7" class="node">
<title>Node7</title>
<g id="a_node7"><a xlink:href="group__asterics__support.html#ga85ce164597e47f4aaee22c873e899d4b" target="_top" xlink:title=" ">
<polygon fill="none" stroke="black" points="698,-455.5 698,-485.5 820,-485.5 820,-455.5 698,-455.5"/>
<text text-anchor="start" x="706" y="-473.5" font-family="Helvetica,sans-Serif" font-size="10.00">as_dcache_invalidate</text>
<text text-anchor="middle" x="759" y="-462.5" font-family="Helvetica,sans-Serif" font-size="10.00">_range</text>
</a>
</g>
</g>
<!-- Node3&#45;&gt;Node7 -->
<g id="edge6" class="edge">
<title>Node3&#45;&gt;Node7</title>
<path fill="none" stroke="midnightblue" d="M407.07,-282.17C414.75,-315.35 445.04,-424.84 518,-467.5 569.09,-497.37 637.37,-495.02 688.03,-487.01"/>
<polygon fill="midnightblue" stroke="midnightblue" points="688.64,-490.45 697.92,-485.34 687.48,-483.55 688.64,-490.45"/>
</g>
<!-- Node8 -->
<g id="node8" class="node">
<title>Node8</title>
<g id="a_node8"><a xlink:href="as__cache_8c.html#a82dda14c005c5bd0028e5f25fad2923c" target="_top" xlink:title="Map virtual kernel address for DMA.">
<polygon fill="none" stroke="black" points="543.5,-401 543.5,-420 632.5,-420 632.5,-401 543.5,-401"/>
<text text-anchor="middle" x="588" y="-408" font-family="Helvetica,sans-Serif" font-size="10.00">as_map_single</text>
</a>
</g>
</g>
<!-- Node3&#45;&gt;Node8 -->
<g id="edge7" class="edge">
<title>Node3&#45;&gt;Node8</title>
<path fill="none" stroke="midnightblue" d="M411.42,-282.07C426.97,-304.51 468.99,-360.82 518,-390.5 522.8,-393.41 528.05,-395.91 533.43,-398.06"/>
<polygon fill="midnightblue" stroke="midnightblue" points="532.61,-401.49 543.21,-401.57 534.97,-394.9 532.61,-401.49"/>
</g>
<!-- Node10 -->
<g id="node10" class="node">
<title>Node10</title>
<g id="a_node10"><a xlink:href="group__as__reader__writer.html#gaaea10b48e35a224a5870cd3322ffbec2" target="_top" xlink:title="Returns the next address on which the hardware will perform a write operation.">
<polygon fill="none" stroke="black" points="528.5,-351.5 528.5,-381.5 647.5,-381.5 647.5,-351.5 528.5,-351.5"/>
<text text-anchor="start" x="536.5" y="-369.5" font-family="Helvetica,sans-Serif" font-size="10.00">as_reader_writer_get</text>
<text text-anchor="middle" x="588" y="-358.5" font-family="Helvetica,sans-Serif" font-size="10.00">_cur_hw_addr</text>
</a>
</g>
</g>
<!-- Node3&#45;&gt;Node10 -->
<g id="edge9" class="edge">
<title>Node3&#45;&gt;Node10</title>
<path fill="none" stroke="midnightblue" d="M418.76,-282.16C439.54,-296.45 480.5,-323.48 518,-341.5 522.36,-343.6 526.95,-345.62 531.6,-347.55"/>
<polygon fill="midnightblue" stroke="midnightblue" points="530.6,-350.92 541.18,-351.37 533.19,-344.41 530.6,-350.92"/>
</g>
<!-- Node14 -->
<g id="node14" class="node">
<title>Node14</title>
<g id="a_node14"><a xlink:href="group__as__reader__writer.html#ga0e0a5b7e0dd6a14cb0f4251d00a783e8" target="_top" xlink:title="Checks if module is busy.">
<polygon fill="none" stroke="black" points="518,-313 518,-332 658,-332 658,-313 518,-313"/>
<text text-anchor="middle" x="588" y="-320" font-family="Helvetica,sans-Serif" font-size="10.00">as_reader_writer_is_busy</text>
</a>
</g>
</g>
<!-- Node3&#45;&gt;Node14 -->
<g id="edge13" class="edge">
<title>Node3&#45;&gt;Node14</title>
<path fill="none" stroke="midnightblue" d="M439.66,-282.02C468.79,-290.02 510.62,-301.52 542.27,-310.21"/>
<polygon fill="midnightblue" stroke="midnightblue" points="541.59,-313.65 552.16,-312.93 543.44,-306.9 541.59,-313.65"/>
</g>
<!-- Node16 -->
<g id="node16" class="node">
<title>Node16</title>
<g id="a_node16"><a xlink:href="group__as__reader__writer.html#gab3f2465225201507d51787478ac5955a" target="_top" xlink:title="Checks if another operation is queued.">
<polygon fill="none" stroke="black" points="532,-263.5 532,-293.5 644,-293.5 644,-263.5 532,-263.5"/>
<text text-anchor="start" x="540" y="-281.5" font-family="Helvetica,sans-Serif" font-size="10.00">as_reader_writer_is</text>
<text text-anchor="middle" x="588" y="-270.5" font-family="Helvetica,sans-Serif" font-size="10.00">_pending_go</text>
</a>
</g>
</g>
<!-- Node3&#45;&gt;Node16 -->
<g id="edge17" class="edge">
<title>Node3&#45;&gt;Node16</title>
<path fill="none" stroke="midnightblue" d="M480.6,-274.99C494.3,-275.44 508.48,-275.91 521.84,-276.35"/>
<polygon fill="midnightblue" stroke="midnightblue" points="521.77,-279.85 531.88,-276.68 522.01,-272.86 521.77,-279.85"/>
</g>
<!-- Node17 -->
<g id="node17" class="node">
<title>Node17</title>
<g id="a_node17"><a xlink:href="group__as__reader__writer.html#ga38bb160b6e30eb5fce6df2e4b4894fad" target="_top" xlink:title="Starts operation of hardware module.">
<polygon fill="none" stroke="black" points="520,-225 520,-244 656,-244 656,-225 520,-225"/>
<text text-anchor="middle" x="588" y="-232" font-family="Helvetica,sans-Serif" font-size="10.00">as_reader_writer_set_go</text>
</a>
</g>
</g>
<!-- Node3&#45;&gt;Node17 -->
<g id="edge20" class="edge">
<title>Node3&#45;&gt;Node17</title>
<path fill="none" stroke="midnightblue" d="M450.93,-262.91C475.38,-257.81 505.63,-251.49 531.4,-246.11"/>
<polygon fill="midnightblue" stroke="midnightblue" points="532.33,-249.49 541.4,-244.02 530.9,-242.64 532.33,-249.49"/>
</g>
<!-- Node21 -->
<g id="node21" class="node">
<title>Node21</title>
<g id="a_node21"><a xlink:href="group__as__reader__writer.html#ga43d2f73d7d42dd5704160d4ddacfaa1e" target="_top" xlink:title="Sets the start address of the first section to the given value.">
<polygon fill="none" stroke="black" points="528.5,-49.5 528.5,-79.5 647.5,-79.5 647.5,-49.5 528.5,-49.5"/>
<text text-anchor="start" x="536.5" y="-67.5" font-family="Helvetica,sans-Serif" font-size="10.00">as_reader_writer_set</text>
<text text-anchor="middle" x="588" y="-56.5" font-family="Helvetica,sans-Serif" font-size="10.00">_section_addr</text>
</a>
</g>
</g>
<!-- Node3&#45;&gt;Node21 -->
<g id="edge26" class="edge">
<title>Node3&#45;&gt;Node21</title>
<path fill="none" stroke="midnightblue" d="M469.1,-262.98C473.86,-260.46 478.25,-257.35 482,-253.5 534.08,-200.06 468.81,-145.62 518,-89.5 519.15,-88.18 520.38,-86.93 521.68,-85.75"/>
<polygon fill="midnightblue" stroke="midnightblue" points="523.84,-88.5 529.7,-79.67 519.62,-82.92 523.84,-88.5"/>
</g>
<!-- Node22 -->
<g id="node22" class="node">
<title>Node22</title>
<g id="a_node22"><a xlink:href="group__as__reader__writer.html#ga06436c5cb6a63439f2e4b7c14c71fb83" target="_top" xlink:title="Sets the size of a single section in bytes.">
<polygon fill="none" stroke="black" points="528.5,-0.5 528.5,-30.5 647.5,-30.5 647.5,-0.5 528.5,-0.5"/>
<text text-anchor="start" x="536.5" y="-18.5" font-family="Helvetica,sans-Serif" font-size="10.00">as_reader_writer_set</text>
<text text-anchor="middle" x="588" y="-7.5" font-family="Helvetica,sans-Serif" font-size="10.00">_section_size</text>
</a>
</g>
</g>
<!-- Node3&#45;&gt;Node22 -->
<g id="edge29" class="edge">
<title>Node3&#45;&gt;Node22</title>
<path fill="none" stroke="midnightblue" d="M469.67,-262.98C474.24,-260.45 478.44,-257.34 482,-253.5 547.58,-182.78 455.77,-113.18 518,-39.5 518.74,-38.63 519.51,-37.79 520.31,-36.98"/>
<polygon fill="midnightblue" stroke="midnightblue" points="522.72,-39.53 528.24,-30.48 518.28,-34.11 522.72,-39.53"/>
</g>
<!-- Node23 -->
<g id="node23" class="node">
<title>Node23</title>
<g id="a_node23"><a xlink:href="as__cache_8c.html#ae76087a19400fcaebb8397a8a1ee828b" target="_top" xlink:title="Unmap DMA address at end of transfer.">
<polygon fill="none" stroke="black" points="537.5,-439 537.5,-458 638.5,-458 638.5,-439 537.5,-439"/>
<text text-anchor="middle" x="588" y="-446" font-family="Helvetica,sans-Serif" font-size="10.00">as_unmap_single</text>
</a>
</g>
</g>
<!-- Node3&#45;&gt;Node23 -->
<g id="edge32" class="edge">
<title>Node3&#45;&gt;Node23</title>
<path fill="none" stroke="midnightblue" d="M409.2,-282.38C421.53,-310.14 460.38,-389.42 518,-429.5 521.09,-431.65 524.41,-433.55 527.87,-435.25"/>
<polygon fill="midnightblue" stroke="midnightblue" points="526.71,-438.55 537.28,-439.24 529.44,-432.11 526.71,-438.55"/>
</g>
<!-- Node9 -->
<g id="node9" class="node">
<title>Node9</title>
<g id="a_node9"><a xlink:href="group__asterics__support.html#ga488e796d469c62267d9547fd11f8d764" target="_top" xlink:title=" ">
<polygon fill="none" stroke="black" points="694,-401 694,-420 824,-420 824,-401 694,-401"/>
<text text-anchor="middle" x="759" y="-408" font-family="Helvetica,sans-Serif" font-size="10.00">as_dcache_flush_range</text>
</a>
</g>
</g>
<!-- Node8&#45;&gt;Node9 -->
<g id="edge8" class="edge">
<title>Node8&#45;&gt;Node9</title>
<path fill="none" stroke="midnightblue" d="M632.52,-410.5C648.14,-410.5 666.22,-410.5 683.7,-410.5"/>
<polygon fill="midnightblue" stroke="midnightblue" points="683.91,-414 693.91,-410.5 683.91,-407 683.91,-414"/>
</g>
<!-- Node11 -->
<g id="node11" class="node">
<title>Node11</title>
<g id="a_node11"><a xlink:href="group__asterics__support.html#gaa7520f5b717e163da743500adb2eb0b9" target="_top" xlink:title=" ">
<polygon fill="none" stroke="black" points="713.5,-266 713.5,-285 804.5,-285 804.5,-266 713.5,-266"/>
<text text-anchor="middle" x="759" y="-273" font-family="Helvetica,sans-Serif" font-size="10.00">as_module_reg</text>
</a>
</g>
</g>
<!-- Node10&#45;&gt;Node11 -->
<g id="edge10" class="edge">
<title>Node10&#45;&gt;Node11</title>
<path fill="none" stroke="midnightblue" d="M640.28,-351.41C646.5,-348.59 652.57,-345.3 658,-341.5 678.42,-327.21 673.56,-312.77 694,-298.5 699.34,-294.77 705.34,-291.59 711.48,-288.88"/>
<polygon fill="midnightblue" stroke="midnightblue" points="713.18,-291.97 721.16,-285.01 710.58,-285.47 713.18,-291.97"/>
</g>
<!-- Node12 -->
<g id="node12" class="node">
<title>Node12</title>
<g id="a_node12"><a xlink:href="group__asterics__support.html#ga8e5c2bfd2e4498d10289377bd94cef07" target="_top" xlink:title=" ">
<polygon fill="none" stroke="black" points="861.5,-308 861.5,-327 937.5,-327 937.5,-308 861.5,-308"/>
<text text-anchor="middle" x="899.5" y="-315" font-family="Helvetica,sans-Serif" font-size="10.00">as_reg_read</text>
</a>
</g>
</g>
<!-- Node10&#45;&gt;Node12 -->
<g id="edge11" class="edge">
<title>Node10&#45;&gt;Node12</title>
<path fill="none" stroke="midnightblue" d="M647.74,-361.02C695.47,-356.09 764.41,-347.86 824,-336.5 834.03,-334.59 844.72,-332.12 854.78,-329.6"/>
<polygon fill="midnightblue" stroke="midnightblue" points="855.76,-332.97 864.58,-327.09 854.02,-326.19 855.76,-332.97"/>
</g>
<!-- Node13 -->
<g id="node13" class="node">
<title>Node13</title>
<g id="a_node13"><a xlink:href="group__asterics__support.html#ga4c6d688b840a6e2edc9bc0b8ed961677" target="_top" xlink:title=" ">
<polygon fill="none" stroke="black" points="981.5,-308 981.5,-327 1081.5,-327 1081.5,-308 981.5,-308"/>
<text text-anchor="middle" x="1031.5" y="-315" font-family="Helvetica,sans-Serif" font-size="10.00">as_reg_to_uint32</text>
</a>
</g>
</g>
<!-- Node12&#45;&gt;Node13 -->
<g id="edge12" class="edge">
<title>Node12&#45;&gt;Node13</title>
<path fill="none" stroke="midnightblue" d="M937.75,-317.5C948.09,-317.5 959.59,-317.5 970.86,-317.5"/>
<polygon fill="midnightblue" stroke="midnightblue" points="971.12,-321 981.12,-317.5 971.12,-314 971.12,-321"/>
</g>
<!-- Node14&#45;&gt;Node11 -->
<g id="edge14" class="edge">
<title>Node14&#45;&gt;Node11</title>
<path fill="none" stroke="midnightblue" d="M623.2,-312.99C649.34,-305.72 685.58,-295.64 713.9,-287.76"/>
<polygon fill="midnightblue" stroke="midnightblue" points="714.87,-291.13 723.56,-285.08 712.99,-284.38 714.87,-291.13"/>
</g>
<!-- Node15 -->
<g id="node15" class="node">
<title>Node15</title>
<g id="a_node15"><a xlink:href="group__asterics__support.html#ga36a2ed59c59831bee59daaae3cb6cb35" target="_top" xlink:title=" ">
<polygon fill="none" stroke="black" points="699.5,-308 699.5,-327 818.5,-327 818.5,-308 699.5,-308"/>
<text text-anchor="middle" x="759" y="-315" font-family="Helvetica,sans-Serif" font-size="10.00">as_reg_read_masked</text>
</a>
</g>
</g>
<!-- Node14&#45;&gt;Node15 -->
<g id="edge15" class="edge">
<title>Node14&#45;&gt;Node15</title>
<path fill="none" stroke="midnightblue" d="M658.23,-320.45C668.48,-320.15 679.05,-319.84 689.29,-319.53"/>
<polygon fill="midnightblue" stroke="midnightblue" points="689.51,-323.03 699.41,-319.23 689.31,-316.03 689.51,-323.03"/>
</g>
<!-- Node15&#45;&gt;Node12 -->
<g id="edge16" class="edge">
<title>Node15&#45;&gt;Node12</title>
<path fill="none" stroke="midnightblue" d="M818.74,-317.5C829.57,-317.5 840.76,-317.5 851.21,-317.5"/>
<polygon fill="midnightblue" stroke="midnightblue" points="851.37,-321 861.37,-317.5 851.37,-314 851.37,-321"/>
</g>
<!-- Node16&#45;&gt;Node11 -->
<g id="edge18" class="edge">
<title>Node16&#45;&gt;Node11</title>
<path fill="none" stroke="midnightblue" d="M644.34,-277.52C663.18,-277.18 684.23,-276.81 703.04,-276.48"/>
<polygon fill="midnightblue" stroke="midnightblue" points="703.3,-279.97 713.24,-276.29 703.18,-272.97 703.3,-279.97"/>
</g>
<!-- Node16&#45;&gt;Node15 -->
<g id="edge19" class="edge">
<title>Node16&#45;&gt;Node15</title>
<path fill="none" stroke="midnightblue" d="M644.34,-291.27C664.51,-295.93 687.22,-301.17 707,-305.73"/>
<polygon fill="midnightblue" stroke="midnightblue" points="706.22,-309.14 716.75,-307.98 707.79,-302.32 706.22,-309.14"/>
</g>
<!-- Node17&#45;&gt;Node11 -->
<g id="edge21" class="edge">
<title>Node17&#45;&gt;Node11</title>
<path fill="none" stroke="midnightblue" d="M628.2,-244.01C652.21,-249.84 683.16,-257.34 708.82,-263.57"/>
<polygon fill="midnightblue" stroke="midnightblue" points="708.18,-267.01 718.72,-265.97 709.83,-260.21 708.18,-267.01"/>
</g>
<!-- Node18 -->
<g id="node18" class="node">
<title>Node18</title>
<g id="a_node18"><a xlink:href="group__asterics__support.html#ga0ccb0610d764a95bda989e35fba59490" target="_top" xlink:title=" ">
<polygon fill="none" stroke="black" points="698,-225 698,-244 820,-244 820,-225 698,-225"/>
<text text-anchor="middle" x="759" y="-232" font-family="Helvetica,sans-Serif" font-size="10.00">as_reg_write_masked</text>
</a>
</g>
</g>
<!-- Node17&#45;&gt;Node18 -->
<g id="edge22" class="edge">
<title>Node17&#45;&gt;Node18</title>
<path fill="none" stroke="midnightblue" d="M656.28,-234.5C666.57,-234.5 677.21,-234.5 687.56,-234.5"/>
<polygon fill="midnightblue" stroke="midnightblue" points="687.79,-238 697.79,-234.5 687.79,-231 687.79,-238"/>
</g>
<!-- Node18&#45;&gt;Node12 -->
<g id="edge23" class="edge">
<title>Node18&#45;&gt;Node12</title>
<path fill="none" stroke="midnightblue" d="M795.18,-244.1C804.82,-247.39 815.07,-251.52 824,-256.5 845.73,-268.61 867.36,-287.25 881.68,-300.74"/>
<polygon fill="midnightblue" stroke="midnightblue" points="879.58,-303.58 889.2,-308 884.44,-298.54 879.58,-303.58"/>
</g>
<!-- Node19 -->
<g id="node19" class="node">
<title>Node19</title>
<g id="a_node19"><a xlink:href="group__asterics__support.html#ga6345b997e24a6cd5f9143cef27629d49" target="_top" xlink:title=" ">
<polygon fill="none" stroke="black" points="860,-55 860,-74 939,-74 939,-55 860,-55"/>
<text text-anchor="middle" x="899.5" y="-62" font-family="Helvetica,sans-Serif" font-size="10.00">as_reg_write</text>
</a>
</g>
</g>
<!-- Node18&#45;&gt;Node19 -->
<g id="edge24" class="edge">
<title>Node18&#45;&gt;Node19</title>
<path fill="none" stroke="midnightblue" d="M767.84,-224.87C790.32,-197.29 855.18,-117.67 884.19,-82.07"/>
<polygon fill="midnightblue" stroke="midnightblue" points="887.14,-83.98 890.74,-74.02 881.71,-79.56 887.14,-83.98"/>
</g>
<!-- Node20 -->
<g id="node20" class="node">
<title>Node20</title>
<g id="a_node20"><a xlink:href="group__asterics__support.html#gab651cc2c035ce61b354578434e59f822" target="_top" xlink:title=" ">
<polygon fill="none" stroke="black" points="975,-55 975,-74 1088,-74 1088,-55 975,-55"/>
<text text-anchor="middle" x="1031.5" y="-62" font-family="Helvetica,sans-Serif" font-size="10.00">as_reg_from_uint32</text>
</a>
</g>
</g>
<!-- Node19&#45;&gt;Node20 -->
<g id="edge25" class="edge">
<title>Node19&#45;&gt;Node20</title>
<path fill="none" stroke="midnightblue" d="M939.15,-64.5C947.22,-64.5 955.94,-64.5 964.68,-64.5"/>
<polygon fill="midnightblue" stroke="midnightblue" points="964.92,-68 974.92,-64.5 964.92,-61 964.92,-68"/>
</g>
<!-- Node21&#45;&gt;Node11 -->
<g id="edge27" class="edge">
<title>Node21&#45;&gt;Node11</title>
<path fill="none" stroke="midnightblue" d="M646.3,-79.67C650.65,-82.42 654.64,-85.67 658,-89.5 707.19,-145.62 644.35,-197.79 694,-253.5 697.03,-256.9 700.6,-259.77 704.49,-262.2"/>
<polygon fill="midnightblue" stroke="midnightblue" points="702.93,-265.33 713.42,-266.84 706.16,-259.12 702.93,-265.33"/>
</g>
<!-- Node21&#45;&gt;Node19 -->
<g id="edge28" class="edge">
<title>Node21&#45;&gt;Node19</title>
<path fill="none" stroke="midnightblue" d="M647.58,-64.5C706.02,-64.5 794.79,-64.5 849.58,-64.5"/>
<polygon fill="midnightblue" stroke="midnightblue" points="849.74,-68 859.74,-64.5 849.74,-61 849.74,-68"/>
</g>
<!-- Node22&#45;&gt;Node11 -->
<g id="edge30" class="edge">
<title>Node22&#45;&gt;Node11</title>
<path fill="none" stroke="midnightblue" d="M647.76,-30.48C651.57,-33.03 655.05,-36.01 658,-39.5 720.23,-113.18 631.63,-179.93 694,-253.5 696.94,-256.97 700.46,-259.9 704.31,-262.36"/>
<polygon fill="midnightblue" stroke="midnightblue" points="702.7,-265.47 713.18,-267.05 705.98,-259.28 702.7,-265.47"/>
</g>
<!-- Node22&#45;&gt;Node19 -->
<g id="edge31" class="edge">
<title>Node22&#45;&gt;Node19</title>
<path fill="none" stroke="midnightblue" d="M647.58,-24.77C706.02,-34.03 794.79,-48.08 849.58,-56.76"/>
<polygon fill="midnightblue" stroke="midnightblue" points="849.31,-60.26 859.74,-58.36 850.41,-53.34 849.31,-60.26"/>
</g>
<!-- Node23&#45;&gt;Node7 -->
<g id="edge33" class="edge">
<title>Node23&#45;&gt;Node7</title>
<path fill="none" stroke="midnightblue" d="M638.79,-454.98C654.11,-456.98 671.27,-459.21 687.7,-461.35"/>
<polygon fill="midnightblue" stroke="midnightblue" points="687.44,-464.84 697.81,-462.66 688.34,-457.9 687.44,-464.84"/>
</g>
<!-- Node24&#45;&gt;Node4 -->
<g id="edge35" class="edge">
<title>Node24&#45;&gt;Node4</title>
<path fill="none" stroke="midnightblue" d="M450.93,-224.91C475.38,-219.81 505.63,-213.49 531.4,-208.11"/>
<polygon fill="midnightblue" stroke="midnightblue" points="532.33,-211.49 541.4,-206.02 530.9,-204.64 532.33,-211.49"/>
</g>
<!-- Node24&#45;&gt;Node5 -->
<g id="edge36" class="edge">
<title>Node24&#45;&gt;Node5</title>
<path fill="none" stroke="midnightblue" d="M422.31,-224.95C444.22,-213.06 483.3,-192.47 518,-177.5 522.97,-175.35 528.19,-173.23 533.45,-171.18"/>
<polygon fill="midnightblue" stroke="midnightblue" points="534.79,-174.42 542.89,-167.59 532.3,-167.88 534.79,-174.42"/>
</g>
<!-- Node24&#45;&gt;Node6 -->
<g id="edge37" class="edge">
<title>Node24&#45;&gt;Node6</title>
<path fill="none" stroke="midnightblue" d="M412.35,-224.88C428.86,-203.92 471.17,-153.91 518,-127.5 521.94,-125.28 526.16,-123.3 530.49,-121.55"/>
<polygon fill="midnightblue" stroke="midnightblue" points="531.9,-124.76 540.11,-118.06 529.51,-118.18 531.9,-124.76"/>
</g>
<!-- Node24&#45;&gt;Node8 -->
<g id="edge38" class="edge">
<title>Node24&#45;&gt;Node8</title>
<path fill="none" stroke="midnightblue" d="M468.94,-244.19C473.73,-246.67 478.17,-249.73 482,-253.5 526.85,-297.68 474.05,-345.43 518,-390.5 522.46,-395.07 527.89,-398.61 533.73,-401.36"/>
<polygon fill="midnightblue" stroke="midnightblue" points="532.58,-404.66 543.16,-405.04 535.12,-398.14 532.58,-404.66"/>
</g>
<!-- Node24&#45;&gt;Node10 -->
<g id="edge39" class="edge">
<title>Node24&#45;&gt;Node10</title>
<path fill="none" stroke="midnightblue" d="M466.91,-244.04C472.37,-246.53 477.52,-249.63 482,-253.5 513.99,-281.12 487.52,-312.23 518,-341.5 519.64,-343.08 521.39,-344.56 523.23,-345.94"/>
<polygon fill="midnightblue" stroke="midnightblue" points="521.44,-348.95 531.73,-351.45 525.24,-343.08 521.44,-348.95"/>
</g>
<!-- Node24&#45;&gt;Node14 -->
<g id="edge40" class="edge">
<title>Node24&#45;&gt;Node14</title>
<path fill="none" stroke="midnightblue" d="M462.82,-244.03C469.6,-246.49 476.16,-249.6 482,-253.5 504.46,-268.52 495.84,-287.03 518,-302.5 521.51,-304.95 525.32,-307.1 529.28,-308.99"/>
<polygon fill="midnightblue" stroke="midnightblue" points="528.17,-312.32 538.74,-312.95 530.87,-305.86 528.17,-312.32"/>
</g>
<!-- Node24&#45;&gt;Node16 -->
<g id="edge41" class="edge">
<title>Node24&#45;&gt;Node16</title>
<path fill="none" stroke="midnightblue" d="M444.49,-244.05C467.11,-249.52 496.06,-256.51 521.95,-262.77"/>
<polygon fill="midnightblue" stroke="midnightblue" points="521.16,-266.18 531.71,-265.13 522.81,-259.38 521.16,-266.18"/>
</g>
<!-- Node24&#45;&gt;Node17 -->
<g id="edge42" class="edge">
<title>Node24&#45;&gt;Node17</title>
<path fill="none" stroke="midnightblue" d="M482.18,-234.5C491.26,-234.5 500.53,-234.5 509.62,-234.5"/>
<polygon fill="midnightblue" stroke="midnightblue" points="509.77,-238 519.77,-234.5 509.77,-231 509.77,-238"/>
</g>
<!-- Node24&#45;&gt;Node21 -->
<g id="edge43" class="edge">
<title>Node24&#45;&gt;Node21</title>
<path fill="none" stroke="midnightblue" d="M409.96,-224.86C423.66,-199.17 464.55,-128.33 518,-89.5 520.63,-87.59 523.42,-85.81 526.31,-84.16"/>
<polygon fill="midnightblue" stroke="midnightblue" points="527.94,-87.26 535.24,-79.57 524.74,-81.03 527.94,-87.26"/>
</g>
<!-- Node24&#45;&gt;Node22 -->
<g id="edge44" class="edge">
<title>Node24&#45;&gt;Node22</title>
<path fill="none" stroke="midnightblue" d="M407.91,-224.78C417.85,-193.26 453.43,-92.81 518,-39.5 519.54,-38.23 521.15,-37.02 522.82,-35.88"/>
<polygon fill="midnightblue" stroke="midnightblue" points="524.77,-38.79 531.57,-30.66 521.19,-32.78 524.77,-38.79"/>
</g>
<!-- Node24&#45;&gt;Node23 -->
<g id="edge45" class="edge">
<title>Node24&#45;&gt;Node23</title>
<path fill="none" stroke="midnightblue" d="M469.53,-244.16C474.13,-246.65 478.38,-249.73 482,-253.5 537.31,-311.08 463.46,-371.19 518,-429.5 520.96,-432.66 524.39,-435.32 528.12,-437.55"/>
<polygon fill="midnightblue" stroke="midnightblue" points="526.72,-440.76 537.25,-442 529.79,-434.47 526.72,-440.76"/>
</g>
</g>
</svg>
