<?xml version="1.0" encoding="UTF-8" standalone="no"?>
<!DOCTYPE svg PUBLIC "-//W3C//DTD SVG 1.1//EN"
 "http://www.w3.org/Graphics/SVG/1.1/DTD/svg11.dtd">
<!-- Generated by graphviz version 2.43.0 (0)
 -->
<!-- Title: as_reg_read_masked Pages: 1 -->
<svg width="901pt" height="375pt"
 viewBox="0.00 0.00 901.00 375.50" xmlns="http://www.w3.org/2000/svg" xmlns:xlink="http://www.w3.org/1999/xlink">
<g id="graph0" class="graph" transform="scale(1 1) rotate(0) translate(4 371.5)">
<title>as_reg_read_masked</title>
<!-- Node1 -->
<g id="node1" class="node">
<title>Node1</title>
<g id="a_node1"><a xlink:title=" ">
<polygon fill="#bfbfbf" stroke="black" points="774,-174 774,-193 893,-193 893,-174 774,-174"/>
<text text-anchor="middle" x="833.5" y="-181" font-family="Helvetica,sans-Serif" font-size="10.00">as_reg_read_masked</text>
</a>
</g>
</g>
<!-- Node2 -->
<g id="node2" class="node">
<title>Node2</title>
<g id="a_node2"><a xlink:href="group__as__picam.html#gad933d1c5700c7acef787d1a3f95384e8" target="_top" xlink:title=" ">
<polygon fill="none" stroke="black" points="565,-316 565,-335 738,-335 738,-316 565,-316"/>
<text text-anchor="middle" x="651.5" y="-323" font-family="Helvetica,sans-Serif" font-size="10.00">as_picam_frame_is_transmitted</text>
</a>
</g>
</g>
<!-- Node1&#45;&gt;Node2 -->
<g id="edge1" class="edge">
<title>Node1&#45;&gt;Node2</title>
<path fill="none" stroke="midnightblue" d="M822.66,-202.01C807.81,-228.15 777.2,-275.55 738,-301.5 728.49,-307.79 717.33,-312.45 706.27,-315.9"/>
<polygon fill="midnightblue" stroke="midnightblue" points="825.79,-203.57 827.56,-193.13 819.67,-200.19 825.79,-203.57"/>
</g>
<!-- Node3 -->
<g id="node3" class="node">
<title>Node3</title>
<g id="a_node3"><a xlink:href="group__as__reader__writer.html#ga0e0a5b7e0dd6a14cb0f4251d00a783e8" target="_top" xlink:title="Checks if module is busy.">
<polygon fill="none" stroke="black" points="581.5,-240 581.5,-259 721.5,-259 721.5,-240 581.5,-240"/>
<text text-anchor="middle" x="651.5" y="-247" font-family="Helvetica,sans-Serif" font-size="10.00">as_reader_writer_is_busy</text>
</a>
</g>
</g>
<!-- Node1&#45;&gt;Node3 -->
<g id="edge2" class="edge">
<title>Node1&#45;&gt;Node3</title>
<path fill="none" stroke="midnightblue" d="M807.57,-197.99C788.92,-208.3 762.53,-221.82 738,-230.5 727.54,-234.2 716.09,-237.34 705.07,-239.93"/>
<polygon fill="midnightblue" stroke="midnightblue" points="809.3,-201.03 816.31,-193.08 805.87,-194.93 809.3,-201.03"/>
</g>
<!-- Node17 -->
<g id="node17" class="node">
<title>Node17</title>
<g id="a_node17"><a xlink:href="group__as__reader__writer.html#ga8f344f9ba6800171909327c670d9f0f0" target="_top" xlink:title="Checks if module is ready for operation.">
<polygon fill="none" stroke="black" points="581,-152 581,-171 722,-171 722,-152 581,-152"/>
<text text-anchor="middle" x="651.5" y="-159" font-family="Helvetica,sans-Serif" font-size="10.00">as_reader_writer_is_done</text>
</a>
</g>
</g>
<!-- Node1&#45;&gt;Node17 -->
<g id="edge19" class="edge">
<title>Node1&#45;&gt;Node17</title>
<path fill="none" stroke="midnightblue" d="M763.39,-175.05C749.9,-173.4 735.74,-171.67 722.22,-170.02"/>
<polygon fill="midnightblue" stroke="midnightblue" points="763.21,-178.55 773.56,-176.29 764.06,-171.61 763.21,-178.55"/>
</g>
<!-- Node18 -->
<g id="node18" class="node">
<title>Node18</title>
<g id="a_node18"><a xlink:href="group__as__reader__writer.html#gab3f2465225201507d51787478ac5955a" target="_top" xlink:title="Checks if another operation is queued.">
<polygon fill="none" stroke="black" points="595.5,-190.5 595.5,-220.5 707.5,-220.5 707.5,-190.5 595.5,-190.5"/>
<text text-anchor="start" x="603.5" y="-208.5" font-family="Helvetica,sans-Serif" font-size="10.00">as_reader_writer_is</text>
<text text-anchor="middle" x="651.5" y="-197.5" font-family="Helvetica,sans-Serif" font-size="10.00">_pending_go</text>
</a>
</g>
</g>
<!-- Node1&#45;&gt;Node18 -->
<g id="edge20" class="edge">
<title>Node1&#45;&gt;Node18</title>
<path fill="none" stroke="midnightblue" d="M763.44,-191.94C744.96,-194.2 725.22,-196.61 707.6,-198.76"/>
<polygon fill="midnightblue" stroke="midnightblue" points="764.06,-195.39 773.56,-190.7 763.21,-188.44 764.06,-195.39"/>
</g>
<!-- Node19 -->
<g id="node19" class="node">
<title>Node19</title>
<g id="a_node19"><a xlink:href="group__as__sensor__ov7670.html#gaf89fa4859a31595f7a27f73514c109a3" target="_top" xlink:title=" ">
<polygon fill="none" stroke="black" points="581,-102.5 581,-132.5 722,-132.5 722,-102.5 581,-102.5"/>
<text text-anchor="start" x="589" y="-120.5" font-family="Helvetica,sans-Serif" font-size="10.00">as_sensor_ov7670_frame</text>
<text text-anchor="middle" x="651.5" y="-109.5" font-family="Helvetica,sans-Serif" font-size="10.00">_is_transmitted</text>
</a>
</g>
</g>
<!-- Node1&#45;&gt;Node19 -->
<g id="edge26" class="edge">
<title>Node1&#45;&gt;Node19</title>
<path fill="none" stroke="midnightblue" d="M803.19,-169.65C784.72,-161.21 760.24,-150.54 738,-142.5 728.4,-139.03 718.07,-135.68 708.02,-132.63"/>
<polygon fill="midnightblue" stroke="midnightblue" points="801.97,-172.94 812.52,-173.96 804.9,-166.59 801.97,-172.94"/>
</g>
<!-- Node20 -->
<g id="node20" class="node">
<title>Node20</title>
<g id="a_node20"><a xlink:href="group__as__reader__writer.html#ga40ca99b7af59a16e22779352f77a3faf" target="_top" xlink:title="Checks if there is buffered data.">
<polygon fill="none" stroke="black" points="575.5,-64 575.5,-83 727.5,-83 727.5,-64 575.5,-64"/>
<text text-anchor="middle" x="651.5" y="-71" font-family="Helvetica,sans-Serif" font-size="10.00">as_writer_is_flushable_data</text>
</a>
</g>
</g>
<!-- Node1&#45;&gt;Node20 -->
<g id="edge27" class="edge">
<title>Node1&#45;&gt;Node20</title>
<path fill="none" stroke="midnightblue" d="M819.07,-165.96C802.35,-145.39 771.84,-111.78 738,-93.5 729.95,-89.15 720.98,-85.74 711.96,-83.07"/>
<polygon fill="midnightblue" stroke="midnightblue" points="816.41,-168.23 825.36,-173.89 821.89,-163.88 816.41,-168.23"/>
</g>
<!-- Node21 -->
<g id="node21" class="node">
<title>Node21</title>
<g id="a_node21"><a xlink:href="group__as__reader__writer.html#ga51f9bb06fb4dce80f58545f9cb080d3c" target="_top" xlink:title="Checks if the module accepts data.">
<polygon fill="none" stroke="black" points="584.5,-26 584.5,-45 718.5,-45 718.5,-26 584.5,-26"/>
<text text-anchor="middle" x="651.5" y="-33" font-family="Helvetica,sans-Serif" font-size="10.00">as_writer_is_set_enable</text>
</a>
</g>
</g>
<!-- Node1&#45;&gt;Node21 -->
<g id="edge28" class="edge">
<title>Node1&#45;&gt;Node21</title>
<path fill="none" stroke="midnightblue" d="M824.11,-164.59C810.41,-136.01 780.44,-82.22 738,-54.5 732.14,-50.67 725.63,-47.61 718.89,-45.16"/>
<polygon fill="midnightblue" stroke="midnightblue" points="821.04,-166.28 828.42,-173.88 827.39,-163.34 821.04,-166.28"/>
</g>
<!-- Node22 -->
<g id="node22" class="node">
<title>Node22</title>
<g id="a_node22"><a xlink:href="group__as__reader__writer.html#ga8ffa108d758f416593d508d00fdbfed6" target="_top" xlink:title="Checks if module has dropped data.">
<polygon fill="none" stroke="black" points="385.5,-310 385.5,-329 516.5,-329 516.5,-310 385.5,-310"/>
<text text-anchor="middle" x="451" y="-317" font-family="Helvetica,sans-Serif" font-size="10.00">as_writer_is_sync_error</text>
</a>
</g>
</g>
<!-- Node1&#45;&gt;Node22 -->
<g id="edge29" class="edge">
<title>Node1&#45;&gt;Node22</title>
<path fill="none" stroke="midnightblue" d="M818.52,-200.91C801.64,-220.66 771.33,-252.21 738,-268.5 699.93,-287.1 588.66,-303.25 516.66,-312.15"/>
<polygon fill="midnightblue" stroke="midnightblue" points="821.39,-202.93 825.1,-193.01 816.01,-198.46 821.39,-202.93"/>
</g>
<!-- Node4 -->
<g id="node4" class="node">
<title>Node4</title>
<g id="a_node4"><a xlink:href="group__as__buffer.html#ga4be2b60d2ac888f473e52f39c9492368" target="_top" xlink:title=" ">
<polygon fill="none" stroke="black" points="385.5,-82 385.5,-101 516.5,-101 516.5,-82 385.5,-82"/>
<text text-anchor="middle" x="451" y="-89" font-family="Helvetica,sans-Serif" font-size="10.00">as_buffer_update_state</text>
</a>
</g>
</g>
<!-- Node3&#45;&gt;Node4 -->
<g id="edge3" class="edge">
<title>Node3&#45;&gt;Node4</title>
<path fill="none" stroke="midnightblue" d="M575.72,-236.12C571.99,-234.46 568.4,-232.6 565,-230.5 510.23,-196.66 470.15,-126.66 456.82,-101.11"/>
<polygon fill="midnightblue" stroke="midnightblue" points="574.6,-239.45 585.19,-239.85 577.16,-232.93 574.6,-239.45"/>
</g>
<!-- Node9 -->
<g id="node9" class="node">
<title>Node9</title>
<g id="a_node9"><a xlink:href="as__memio_8c.html#ab93cfbaa1058ea83836b6d052e72ad50" target="_top" xlink:title=" ">
<polygon fill="none" stroke="black" points="374.5,-272 374.5,-291 527.5,-291 527.5,-272 374.5,-272"/>
<text text-anchor="middle" x="451" y="-279" font-family="Helvetica,sans-Serif" font-size="10.00">as_memio_hw_read_update</text>
</a>
</g>
</g>
<!-- Node3&#45;&gt;Node9 -->
<g id="edge10" class="edge">
<title>Node3&#45;&gt;Node9</title>
<path fill="none" stroke="midnightblue" d="M581.48,-260.62C558.55,-264.32 533.25,-268.4 511.13,-271.96"/>
<polygon fill="midnightblue" stroke="midnightblue" points="582.17,-264.06 591.48,-259.01 581.05,-257.15 582.17,-264.06"/>
</g>
<!-- Node14 -->
<g id="node14" class="node">
<title>Node14</title>
<g id="a_node14"><a xlink:href="as__memio_8c.html#a3ae0453041c4a6d406955edd9c7e43f3" target="_top" xlink:title=" ">
<polygon fill="none" stroke="black" points="373,-234 373,-253 529,-253 529,-234 373,-234"/>
<text text-anchor="middle" x="451" y="-241" font-family="Helvetica,sans-Serif" font-size="10.00">as_memio_hw_write_update</text>
</a>
</g>
</g>
<!-- Node3&#45;&gt;Node14 -->
<g id="edge15" class="edge">
<title>Node3&#45;&gt;Node14</title>
<path fill="none" stroke="midnightblue" d="M571.32,-247.1C557.39,-246.68 542.91,-246.24 529.04,-245.83"/>
<polygon fill="midnightblue" stroke="midnightblue" points="571.25,-250.6 581.35,-247.41 571.46,-243.61 571.25,-250.6"/>
</g>
<!-- Node5 -->
<g id="node5" class="node">
<title>Node5</title>
<g id="a_node5"><a xlink:href="group__mmap__file__ops.html#gac0196baed6a0a2e62c8c9c3aa2680af4" target="_top" xlink:title=" ">
<polygon fill="none" stroke="black" points="167,-44 167,-63 337,-63 337,-44 167,-44"/>
<text text-anchor="middle" x="252" y="-51" font-family="Helvetica,sans-Serif" font-size="10.00">as_mmap_wait_for_completion</text>
</a>
</g>
</g>
<!-- Node4&#45;&gt;Node5 -->
<g id="edge4" class="edge">
<title>Node4&#45;&gt;Node5</title>
<path fill="none" stroke="midnightblue" d="M390.44,-80.01C362.33,-74.59 329.18,-68.19 302.48,-63.04"/>
<polygon fill="midnightblue" stroke="midnightblue" points="390.06,-83.5 400.54,-81.96 391.39,-76.63 390.06,-83.5"/>
</g>
<!-- Node7 -->
<g id="node7" class="node">
<title>Node7</title>
<g id="a_node7"><a xlink:href="group__mmap__file__ops.html#gae18f99f9774b7224e71d80209ecd0bf4" target="_top" xlink:title=" ">
<polygon fill="none" stroke="black" points="3,-177 3,-196 128,-196 128,-177 3,-177"/>
<text text-anchor="middle" x="65.5" y="-184" font-family="Helvetica,sans-Serif" font-size="10.00">driver_as_mmap_read</text>
</a>
</g>
</g>
<!-- Node4&#45;&gt;Node7 -->
<g id="edge8" class="edge">
<title>Node4&#45;&gt;Node7</title>
<path fill="none" stroke="midnightblue" d="M401.53,-103.5C324.42,-122.61 175.33,-159.54 105,-176.96"/>
<polygon fill="midnightblue" stroke="midnightblue" points="402.61,-106.84 411.47,-101.04 400.92,-100.05 402.61,-106.84"/>
</g>
<!-- Node8 -->
<g id="node8" class="node">
<title>Node8</title>
<g id="a_node8"><a xlink:href="group__mmap__file__ops.html#gaeea3980f5b633c4b83ff46b2efc2ea10" target="_top" xlink:title=" ">
<polygon fill="none" stroke="black" points="1.5,-82 1.5,-101 129.5,-101 129.5,-82 1.5,-82"/>
<text text-anchor="middle" x="65.5" y="-89" font-family="Helvetica,sans-Serif" font-size="10.00">driver_as_mmap_write</text>
</a>
</g>
</g>
<!-- Node4&#45;&gt;Node8 -->
<g id="edge9" class="edge">
<title>Node4&#45;&gt;Node8</title>
<path fill="none" stroke="midnightblue" d="M375.1,-91.5C303.62,-91.5 197.13,-91.5 129.79,-91.5"/>
<polygon fill="midnightblue" stroke="midnightblue" points="375.38,-95 385.38,-91.5 375.38,-88 375.38,-95"/>
</g>
<!-- Node6 -->
<g id="node6" class="node">
<title>Node6</title>
<g id="a_node6"><a xlink:href="group__mmap__file__ops.html#gab078c489a563497f4da70a9f6115dfce" target="_top" xlink:title=" ">
<polygon fill="none" stroke="black" points="20,-25 20,-44 111,-44 111,-25 20,-25"/>
<text text-anchor="middle" x="65.5" y="-32" font-family="Helvetica,sans-Serif" font-size="10.00">as_mmap_ioctl</text>
</a>
</g>
</g>
<!-- Node5&#45;&gt;Node6 -->
<g id="edge5" class="edge">
<title>Node5&#45;&gt;Node6</title>
<path fill="none" stroke="midnightblue" d="M156.47,-43.76C140.68,-42.14 124.97,-40.52 111.2,-39.1"/>
<polygon fill="midnightblue" stroke="midnightblue" points="156.54,-47.29 166.85,-44.83 157.26,-40.32 156.54,-47.29"/>
</g>
<!-- Node5&#45;&gt;Node7 -->
<g id="edge6" class="edge">
<title>Node5&#45;&gt;Node7</title>
<path fill="none" stroke="midnightblue" d="M229.32,-69.13C190.88,-96.83 111.89,-153.78 80.15,-176.66"/>
<polygon fill="midnightblue" stroke="midnightblue" points="231.67,-71.75 237.73,-63.06 227.57,-66.07 231.67,-71.75"/>
</g>
<!-- Node5&#45;&gt;Node8 -->
<g id="edge7" class="edge">
<title>Node5&#45;&gt;Node8</title>
<path fill="none" stroke="midnightblue" d="M194.63,-65.11C168.39,-70.51 137.56,-76.86 112.72,-81.98"/>
<polygon fill="midnightblue" stroke="midnightblue" points="195.35,-68.53 204.44,-63.09 193.94,-61.68 195.35,-68.53"/>
</g>
<!-- Node10 -->
<g id="node10" class="node">
<title>Node10</title>
<g id="a_node10"><a xlink:href="as__memio_8h.html#a8162b54494988ebca0ff03ff23eddbb7" target="_top" xlink:title=" ">
<polygon fill="none" stroke="black" points="189,-234 189,-253 315,-253 315,-234 189,-234"/>
<text text-anchor="middle" x="252" y="-241" font-family="Helvetica,sans-Serif" font-size="10.00">as_memio_hw_update</text>
</a>
</g>
</g>
<!-- Node9&#45;&gt;Node10 -->
<g id="edge11" class="edge">
<title>Node9&#45;&gt;Node10</title>
<path fill="none" stroke="midnightblue" d="M390.44,-270.01C362.33,-264.59 329.18,-258.19 302.48,-253.04"/>
<polygon fill="midnightblue" stroke="midnightblue" points="390.06,-273.5 400.54,-271.96 391.39,-266.63 390.06,-273.5"/>
</g>
<!-- Node12 -->
<g id="node12" class="node">
<title>Node12</title>
<g id="a_node12"><a xlink:href="as__memio_8h.html#affb75145f7c6b1a8baea620d47f62a99" target="_top" xlink:title=" ">
<polygon fill="none" stroke="black" points="204.5,-348 204.5,-367 299.5,-367 299.5,-348 204.5,-348"/>
<text text-anchor="middle" x="252" y="-355" font-family="Helvetica,sans-Serif" font-size="10.00">as_memio_read</text>
</a>
</g>
</g>
<!-- Node9&#45;&gt;Node12 -->
<g id="edge13" class="edge">
<title>Node9&#45;&gt;Node12</title>
<path fill="none" stroke="midnightblue" d="M385.2,-294.53C380.96,-296.28 376.85,-298.25 373,-300.5 352.89,-312.2 357.22,-326.99 337,-338.5 325.69,-344.93 312.37,-349.19 299.71,-352"/>
<polygon fill="midnightblue" stroke="midnightblue" points="386.46,-297.79 394.64,-291.06 384.05,-291.22 386.46,-297.79"/>
</g>
<!-- Node11 -->
<g id="node11" class="node">
<title>Node11</title>
<g id="a_node11"><a xlink:href="group__memio__file__ops.html#gab0cee6094e9d25645dcab0b9df045467" target="_top" xlink:title=" ">
<polygon fill="none" stroke="black" points="1.5,-234 1.5,-253 129.5,-253 129.5,-234 1.5,-234"/>
<text text-anchor="middle" x="65.5" y="-241" font-family="Helvetica,sans-Serif" font-size="10.00">driver_as_memio_ioctl</text>
</a>
</g>
</g>
<!-- Node10&#45;&gt;Node11 -->
<g id="edge12" class="edge">
<title>Node10&#45;&gt;Node11</title>
<path fill="none" stroke="midnightblue" d="M178.37,-243.5C162.28,-243.5 145.36,-243.5 129.69,-243.5"/>
<polygon fill="midnightblue" stroke="midnightblue" points="178.79,-247 188.79,-243.5 178.79,-240 178.79,-247"/>
</g>
<!-- Node13 -->
<g id="node13" class="node">
<title>Node13</title>
<g id="a_node13"><a xlink:href="group__memio__file__ops.html#gabc26947002eedee4c4557faff325074e" target="_top" xlink:title=" ">
<polygon fill="none" stroke="black" points="1.5,-348 1.5,-367 129.5,-367 129.5,-348 1.5,-348"/>
<text text-anchor="middle" x="65.5" y="-355" font-family="Helvetica,sans-Serif" font-size="10.00">driver_as_memio_read</text>
</a>
</g>
</g>
<!-- Node12&#45;&gt;Node13 -->
<g id="edge14" class="edge">
<title>Node12&#45;&gt;Node13</title>
<path fill="none" stroke="midnightblue" d="M194.35,-357.5C173.91,-357.5 150.73,-357.5 129.77,-357.5"/>
<polygon fill="midnightblue" stroke="midnightblue" points="194.44,-361 204.44,-357.5 194.44,-354 194.44,-361"/>
</g>
<!-- Node14&#45;&gt;Node10 -->
<g id="edge16" class="edge">
<title>Node14&#45;&gt;Node10</title>
<path fill="none" stroke="midnightblue" d="M362.54,-243.5C346.53,-243.5 330.12,-243.5 315.04,-243.5"/>
<polygon fill="midnightblue" stroke="midnightblue" points="362.99,-247 372.99,-243.5 362.99,-240 362.99,-247"/>
</g>
<!-- Node15 -->
<g id="node15" class="node">
<title>Node15</title>
<g id="a_node15"><a xlink:href="as__memio_8h.html#ad5dd4d8bd2c20ea07188bcbb36dd0f87" target="_top" xlink:title=" ">
<polygon fill="none" stroke="black" points="203,-310 203,-329 301,-329 301,-310 203,-310"/>
<text text-anchor="middle" x="252" y="-317" font-family="Helvetica,sans-Serif" font-size="10.00">as_memio_write</text>
</a>
</g>
</g>
<!-- Node14&#45;&gt;Node15 -->
<g id="edge17" class="edge">
<title>Node14&#45;&gt;Node15</title>
<path fill="none" stroke="midnightblue" d="M395.01,-255.62C387.54,-257.69 380.03,-259.99 373,-262.5 335.2,-275.98 293.35,-297.47 270.41,-309.85"/>
<polygon fill="midnightblue" stroke="midnightblue" points="395.99,-258.99 404.76,-253.05 394.2,-252.22 395.99,-258.99"/>
</g>
<!-- Node16 -->
<g id="node16" class="node">
<title>Node16</title>
<g id="a_node16"><a xlink:href="group__memio__file__ops.html#gafff67fc067850f545e90c7e487f4fbce" target="_top" xlink:title=" ">
<polygon fill="none" stroke="black" points="0,-310 0,-329 131,-329 131,-310 0,-310"/>
<text text-anchor="middle" x="65.5" y="-317" font-family="Helvetica,sans-Serif" font-size="10.00">driver_as_memio_write</text>
</a>
</g>
</g>
<!-- Node15&#45;&gt;Node16 -->
<g id="edge18" class="edge">
<title>Node15&#45;&gt;Node16</title>
<path fill="none" stroke="midnightblue" d="M192.3,-319.5C172.88,-319.5 151.16,-319.5 131.3,-319.5"/>
<polygon fill="midnightblue" stroke="midnightblue" points="192.52,-323 202.52,-319.5 192.52,-316 192.52,-323"/>
</g>
<!-- Node18&#45;&gt;Node6 -->
<g id="edge23" class="edge">
<title>Node18&#45;&gt;Node6</title>
<path fill="none" stroke="midnightblue" d="M585.75,-194.06C578.11,-190.64 570.94,-186.22 565,-180.5 528.56,-145.39 566.96,-105.94 529,-72.5 405.98,35.88 186.29,-4.03 101.35,-24.96"/>
<polygon fill="midnightblue" stroke="midnightblue" points="584.65,-197.39 595.24,-197.75 587.19,-190.86 584.65,-197.39"/>
</g>
<!-- Node18&#45;&gt;Node7 -->
<g id="edge24" class="edge">
<title>Node18&#45;&gt;Node7</title>
<path fill="none" stroke="midnightblue" d="M585.01,-203.37C471.35,-199.67 239.16,-192.11 128.21,-188.5"/>
<polygon fill="midnightblue" stroke="midnightblue" points="585.19,-206.87 595.3,-203.7 585.41,-199.88 585.19,-206.87"/>
</g>
<!-- Node18&#45;&gt;Node8 -->
<g id="edge25" class="edge">
<title>Node18&#45;&gt;Node8</title>
<path fill="none" stroke="midnightblue" d="M585.3,-192.77C467.2,-169.72 220.37,-121.53 115.42,-101.05"/>
<polygon fill="midnightblue" stroke="midnightblue" points="584.81,-196.24 595.3,-194.72 586.15,-189.37 584.81,-196.24"/>
</g>
<!-- Node18&#45;&gt;Node9 -->
<g id="edge21" class="edge">
<title>Node18&#45;&gt;Node9</title>
<path fill="none" stroke="midnightblue" d="M585.5,-221.17C578.39,-223.85 571.42,-226.94 565,-230.5 546.27,-240.86 547.95,-252.53 529,-262.5 521.69,-266.34 513.57,-269.43 505.44,-271.9"/>
<polygon fill="midnightblue" stroke="midnightblue" points="586.95,-224.37 595.23,-217.75 584.64,-217.76 586.95,-224.37"/>
</g>
<!-- Node18&#45;&gt;Node14 -->
<g id="edge22" class="edge">
<title>Node18&#45;&gt;Node14</title>
<path fill="none" stroke="midnightblue" d="M585.62,-217.92C558.34,-223.14 527.11,-229.12 501.71,-233.98"/>
<polygon fill="midnightblue" stroke="midnightblue" points="586.31,-221.35 595.47,-216.03 584.99,-214.47 586.31,-221.35"/>
</g>
<!-- Node22&#45;&gt;Node7 -->
<g id="edge31" class="edge">
<title>Node22&#45;&gt;Node7</title>
<path fill="none" stroke="midnightblue" d="M383.09,-308.21C305.48,-294.78 185.73,-272.86 167,-262.5 146.65,-251.23 149.2,-238.99 131,-224.5 116.87,-213.24 99.07,-203.01 85.75,-196"/>
<polygon fill="midnightblue" stroke="midnightblue" points="382.83,-311.72 393.27,-309.97 384.01,-304.82 382.83,-311.72"/>
</g>
<!-- Node22&#45;&gt;Node12 -->
<g id="edge30" class="edge">
<title>Node22&#45;&gt;Node12</title>
<path fill="none" stroke="midnightblue" d="M390.5,-330.97C361.42,-336.58 326.93,-343.24 299.76,-348.48"/>
<polygon fill="midnightblue" stroke="midnightblue" points="391.39,-334.37 400.54,-329.04 390.06,-327.49 391.39,-334.37"/>
</g>
</g>
</svg>
