<?xml version="1.0" encoding="UTF-8" standalone="no"?>
<!DOCTYPE svg PUBLIC "-//W3C//DTD SVG 1.1//EN"
 "http://www.w3.org/Graphics/SVG/1.1/DTD/svg11.dtd">
<!-- Generated by graphviz version 2.43.0 (0)
 -->
<!-- Title: vears_overlay_show Pages: 1 -->
<svg width="302pt" height="78pt"
 viewBox="0.00 0.00 302.00 77.50" xmlns="http://www.w3.org/2000/svg" xmlns:xlink="http://www.w3.org/1999/xlink">
<g id="graph0" class="graph" transform="scale(1 1) rotate(0) translate(4 73.5)">
<title>vears_overlay_show</title>
<!-- Node1 -->
<g id="node1" class="node">
<title>Node1</title>
<g id="a_node1"><a xlink:title="Set the overlay base address.">
<polygon fill="#bfbfbf" stroke="black" points="178,-22.5 178,-41.5 294,-41.5 294,-22.5 178,-22.5"/>
<text text-anchor="middle" x="236" y="-29.5" font-family="Helvetica,sans-Serif" font-size="10.00">vears_overlay_show</text>
</a>
</g>
</g>
<!-- Node2 -->
<g id="node2" class="node">
<title>Node2</title>
<g id="a_node2"><a xlink:href="embedded__augmenter__lib_8h.html#a4ba7d4c5af03c0d30eb94afe670a2130" target="_top" xlink:title=" ">
<polygon fill="none" stroke="black" points="0,-39 0,-69 142,-69 142,-39 0,-39"/>
<text text-anchor="start" x="8" y="-57" font-family="Helvetica,sans-Serif" font-size="10.00">ea_set_overlay_hardware</text>
<text text-anchor="middle" x="71" y="-46" font-family="Helvetica,sans-Serif" font-size="10.00">_address</text>
</a>
</g>
</g>
<!-- Node1&#45;&gt;Node2 -->
<g id="edge1" class="edge">
<title>Node1&#45;&gt;Node2</title>
<path fill="none" stroke="midnightblue" d="M167.8,-41.07C159.34,-42.21 150.67,-43.38 142.17,-44.53"/>
<polygon fill="midnightblue" stroke="midnightblue" points="168.55,-44.5 177.99,-39.69 167.61,-37.56 168.55,-44.5"/>
</g>
<!-- Node3 -->
<g id="node3" class="node">
<title>Node3</title>
<g id="a_node3"><a xlink:href="group__vears__driver.html#ga20c8ad70484fc5d6ad1d06b1d8330b49" target="_top" xlink:title="Enable the VEARS modules overlay operation.">
<polygon fill="none" stroke="black" points="19.5,-0.5 19.5,-19.5 122.5,-19.5 122.5,-0.5 19.5,-0.5"/>
<text text-anchor="middle" x="71" y="-7.5" font-family="Helvetica,sans-Serif" font-size="10.00">vears_overlay_on</text>
</a>
</g>
</g>
<!-- Node1&#45;&gt;Node3 -->
<g id="edge2" class="edge">
<title>Node1&#45;&gt;Node3</title>
<path fill="none" stroke="midnightblue" d="M167.71,-22.92C152.67,-20.89 136.96,-18.77 122.72,-16.85"/>
<polygon fill="midnightblue" stroke="midnightblue" points="167.61,-26.44 177.99,-24.31 168.55,-19.5 167.61,-26.44"/>
</g>
</g>
</svg>
