<?xml version="1.0" encoding="UTF-8" standalone="no"?>
<!DOCTYPE svg PUBLIC "-//W3C//DTD SVG 1.1//EN"
 "http://www.w3.org/Graphics/SVG/1.1/DTD/svg11.dtd">
<!-- Generated by graphviz version 2.43.0 (0)
 -->
<!-- Title: as_iic_reset Pages: 1 -->
<svg width="676pt" height="104pt"
 viewBox="0.00 0.00 676.00 104.00" xmlns="http://www.w3.org/2000/svg" xmlns:xlink="http://www.w3.org/1999/xlink">
<g id="graph0" class="graph" transform="scale(1 1) rotate(0) translate(4 100)">
<title>as_iic_reset</title>
<!-- Node1 -->
<g id="node1" class="node">
<title>Node1</title>
<g id="a_node1"><a xlink:title=" ">
<polygon fill="#bfbfbf" stroke="black" points="0,-38.5 0,-57.5 74,-57.5 74,-38.5 0,-38.5"/>
<text text-anchor="middle" x="37" y="-45.5" font-family="Helvetica,sans-Serif" font-size="10.00">as_iic_reset</text>
</a>
</g>
</g>
<!-- Node2 -->
<g id="node2" class="node">
<title>Node2</title>
<g id="a_node2"><a xlink:href="group__as__iic__user.html#gae03c311fae3d6a830878a2b0c2c1c2bf" target="_top" xlink:title=" ">
<polygon fill="none" stroke="black" points="110,-76.5 110,-95.5 234,-95.5 234,-76.5 110,-76.5"/>
<text text-anchor="middle" x="172" y="-83.5" font-family="Helvetica,sans-Serif" font-size="10.00">as_iic_reset_hw_state</text>
</a>
</g>
</g>
<!-- Node1&#45;&gt;Node2 -->
<g id="edge1" class="edge">
<title>Node1&#45;&gt;Node2</title>
<path fill="none" stroke="midnightblue" d="M71.56,-57.59C88.57,-62.45 109.43,-68.41 127.64,-73.61"/>
<polygon fill="midnightblue" stroke="midnightblue" points="126.87,-77.03 137.45,-76.41 128.8,-70.3 126.87,-77.03"/>
</g>
<!-- Node6 -->
<g id="node6" class="node">
<title>Node6</title>
<g id="a_node6"><a xlink:href="group__as__iic__reg__funcs.html#ga4074423c4c97e7492eca0175ad5d6a6e" target="_top" xlink:title=" ">
<polygon fill="none" stroke="black" points="270,-38.5 270,-57.5 404,-57.5 404,-38.5 270,-38.5"/>
<text text-anchor="middle" x="337" y="-45.5" font-family="Helvetica,sans-Serif" font-size="10.00">as_iic_set_data_register</text>
</a>
</g>
</g>
<!-- Node1&#45;&gt;Node6 -->
<g id="edge5" class="edge">
<title>Node1&#45;&gt;Node6</title>
<path fill="none" stroke="midnightblue" d="M74.24,-48C120.06,-48 200.15,-48 259.7,-48"/>
<polygon fill="midnightblue" stroke="midnightblue" points="259.82,-51.5 269.82,-48 259.82,-44.5 259.82,-51.5"/>
</g>
<!-- Node7 -->
<g id="node7" class="node">
<title>Node7</title>
<g id="a_node7"><a xlink:href="group__as__iic__bitsetters.html#ga35e317b079bd452234fe9933af62bc90" target="_top" xlink:title=" ">
<polygon fill="none" stroke="black" points="113,-0.5 113,-19.5 231,-19.5 231,-0.5 113,-0.5"/>
<text text-anchor="middle" x="172" y="-7.5" font-family="Helvetica,sans-Serif" font-size="10.00">as_iic_set_initialized</text>
</a>
</g>
</g>
<!-- Node1&#45;&gt;Node7 -->
<g id="edge7" class="edge">
<title>Node1&#45;&gt;Node7</title>
<path fill="none" stroke="midnightblue" d="M71.56,-38.41C88.57,-33.55 109.43,-27.59 127.64,-22.39"/>
<polygon fill="midnightblue" stroke="midnightblue" points="128.8,-25.7 137.45,-19.59 126.87,-18.97 128.8,-25.7"/>
</g>
<!-- Node3 -->
<g id="node3" class="node">
<title>Node3</title>
<g id="a_node3"><a xlink:href="group__as__iic__reg__funcs.html#gac83a48fc09234a7a99adafb1ce565eb0" target="_top" xlink:title=" ">
<polygon fill="none" stroke="black" points="285,-76.5 285,-95.5 389,-95.5 389,-76.5 285,-76.5"/>
<text text-anchor="middle" x="337" y="-83.5" font-family="Helvetica,sans-Serif" font-size="10.00">as_iic_set_control</text>
</a>
</g>
</g>
<!-- Node2&#45;&gt;Node3 -->
<g id="edge2" class="edge">
<title>Node2&#45;&gt;Node3</title>
<path fill="none" stroke="midnightblue" d="M234.16,-86C247.48,-86 261.57,-86 274.88,-86"/>
<polygon fill="midnightblue" stroke="midnightblue" points="274.89,-89.5 284.89,-86 274.89,-82.5 274.89,-89.5"/>
</g>
<!-- Node4 -->
<g id="node4" class="node">
<title>Node4</title>
<g id="a_node4"><a xlink:href="group__asterics__support.html#ga6345b997e24a6cd5f9143cef27629d49" target="_top" xlink:title=" ">
<polygon fill="none" stroke="black" points="440,-57.5 440,-76.5 519,-76.5 519,-57.5 440,-57.5"/>
<text text-anchor="middle" x="479.5" y="-64.5" font-family="Helvetica,sans-Serif" font-size="10.00">as_reg_write</text>
</a>
</g>
</g>
<!-- Node3&#45;&gt;Node4 -->
<g id="edge3" class="edge">
<title>Node3&#45;&gt;Node4</title>
<path fill="none" stroke="midnightblue" d="M389.12,-79.09C402.37,-77.3 416.6,-75.37 429.73,-73.6"/>
<polygon fill="midnightblue" stroke="midnightblue" points="430.53,-77.02 439.98,-72.21 429.6,-70.08 430.53,-77.02"/>
</g>
<!-- Node5 -->
<g id="node5" class="node">
<title>Node5</title>
<g id="a_node5"><a xlink:href="group__asterics__support.html#gab651cc2c035ce61b354578434e59f822" target="_top" xlink:title=" ">
<polygon fill="none" stroke="black" points="555,-57.5 555,-76.5 668,-76.5 668,-57.5 555,-57.5"/>
<text text-anchor="middle" x="611.5" y="-64.5" font-family="Helvetica,sans-Serif" font-size="10.00">as_reg_from_uint32</text>
</a>
</g>
</g>
<!-- Node4&#45;&gt;Node5 -->
<g id="edge4" class="edge">
<title>Node4&#45;&gt;Node5</title>
<path fill="none" stroke="midnightblue" d="M519.15,-67C527.22,-67 535.94,-67 544.68,-67"/>
<polygon fill="midnightblue" stroke="midnightblue" points="544.92,-70.5 554.92,-67 544.92,-63.5 544.92,-70.5"/>
</g>
<!-- Node6&#45;&gt;Node4 -->
<g id="edge6" class="edge">
<title>Node6&#45;&gt;Node4</title>
<path fill="none" stroke="midnightblue" d="M404.14,-56.94C412.74,-58.11 421.43,-59.28 429.69,-60.4"/>
<polygon fill="midnightblue" stroke="midnightblue" points="429.49,-63.9 439.87,-61.78 430.43,-56.97 429.49,-63.9"/>
</g>
</g>
</svg>
