<?xml version="1.0" encoding="UTF-8" standalone="no"?>
<!DOCTYPE svg PUBLIC "-//W3C//DTD SVG 1.1//EN"
 "http://www.w3.org/Graphics/SVG/1.1/DTD/svg11.dtd">
<!-- Generated by graphviz version 2.43.0 (0)
 -->
<!-- Title: as_sensor_ov7670_gain_auto Pages: 1 -->
<svg width="1904pt" height="562pt"
 viewBox="0.00 0.00 1904.00 562.43" xmlns="http://www.w3.org/2000/svg" xmlns:xlink="http://www.w3.org/1999/xlink">
<g id="graph0" class="graph" transform="scale(1 1) rotate(0) translate(4 558.43)">
<title>as_sensor_ov7670_gain_auto</title>
<!-- Node1 -->
<g id="node1" class="node">
<title>Node1</title>
<g id="a_node1"><a xlink:title=" ">
<polygon fill="#bfbfbf" stroke="black" points="0,-350.5 0,-369.5 160,-369.5 160,-350.5 0,-350.5"/>
<text text-anchor="middle" x="80" y="-357.5" font-family="Helvetica,sans-Serif" font-size="10.00">as_sensor_ov7670_gain_auto</text>
</a>
</g>
</g>
<!-- Node2 -->
<g id="node2" class="node">
<title>Node2</title>
<g id="a_node2"><a xlink:href="as__sensor__ov7670_8c.html#a4af880494f665dfc2d878bcd991246d3" target="_top" xlink:title=" ">
<polygon fill="none" stroke="black" points="196,-388.5 196,-407.5 330,-407.5 330,-388.5 196,-388.5"/>
<text text-anchor="middle" x="263" y="-395.5" font-family="Helvetica,sans-Serif" font-size="10.00">ov7670_get_iic_channel</text>
</a>
</g>
</g>
<!-- Node1&#45;&gt;Node2 -->
<g id="edge1" class="edge">
<title>Node1&#45;&gt;Node2</title>
<path fill="none" stroke="midnightblue" d="M126.67,-369.59C150.99,-374.69 181.08,-381.01 206.71,-386.39"/>
<polygon fill="midnightblue" stroke="midnightblue" points="206.15,-389.85 216.65,-388.48 207.59,-383 206.15,-389.85"/>
</g>
<!-- Node3 -->
<g id="node3" class="node">
<title>Node3</title>
<g id="a_node3"><a xlink:href="as__sensor__ov7670_8c.html#acb25afaea3e81940c50e327c45921f08" target="_top" xlink:title=" ">
<polygon fill="none" stroke="black" points="207.5,-350.5 207.5,-369.5 318.5,-369.5 318.5,-350.5 207.5,-350.5"/>
<text text-anchor="middle" x="263" y="-357.5" font-family="Helvetica,sans-Serif" font-size="10.00">ov7670_iic_reg_get</text>
</a>
</g>
</g>
<!-- Node1&#45;&gt;Node3 -->
<g id="edge2" class="edge">
<title>Node1&#45;&gt;Node3</title>
<path fill="none" stroke="midnightblue" d="M160.13,-360C172.49,-360 185.13,-360 197.13,-360"/>
<polygon fill="midnightblue" stroke="midnightblue" points="197.48,-363.5 207.48,-360 197.48,-356.5 197.48,-363.5"/>
</g>
<!-- Node31 -->
<g id="node31" class="node">
<title>Node31</title>
<g id="a_node31"><a xlink:href="as__sensor__ov7670_8c.html#ad5b49e677d2124f73482764e3270bb42" target="_top" xlink:title=" ">
<polygon fill="none" stroke="black" points="208,-312.5 208,-331.5 318,-331.5 318,-312.5 208,-312.5"/>
<text text-anchor="middle" x="263" y="-319.5" font-family="Helvetica,sans-Serif" font-size="10.00">ov7670_iic_reg_set</text>
</a>
</g>
</g>
<!-- Node1&#45;&gt;Node31 -->
<g id="edge50" class="edge">
<title>Node1&#45;&gt;Node31</title>
<path fill="none" stroke="midnightblue" d="M126.67,-350.41C150.99,-345.31 181.08,-338.99 206.71,-333.61"/>
<polygon fill="midnightblue" stroke="midnightblue" points="207.59,-337 216.65,-331.52 206.15,-330.15 207.59,-337"/>
</g>
<!-- Node4 -->
<g id="node4" class="node">
<title>Node4</title>
<g id="a_node4"><a xlink:href="group__as__iic__user.html#ga812d9e16a61b39777a5fbffc7eccbc8d" target="_top" xlink:title=" ">
<polygon fill="none" stroke="black" points="367.5,-352.5 367.5,-371.5 459.5,-371.5 459.5,-352.5 367.5,-352.5"/>
<text text-anchor="middle" x="413.5" y="-359.5" font-family="Helvetica,sans-Serif" font-size="10.00">as_iic_read_reg</text>
</a>
</g>
</g>
<!-- Node3&#45;&gt;Node4 -->
<g id="edge3" class="edge">
<title>Node3&#45;&gt;Node4</title>
<path fill="none" stroke="midnightblue" d="M318.87,-360.74C331.27,-360.91 344.43,-361.08 356.86,-361.25"/>
<polygon fill="midnightblue" stroke="midnightblue" points="357.04,-364.75 367.09,-361.39 357.14,-357.75 357.04,-364.75"/>
</g>
<!-- Node5 -->
<g id="node5" class="node">
<title>Node5</title>
<g id="a_node5"><a xlink:href="group__as__iic__user.html#gacf3e3b915e1f15ed8bdc60ab4c129996" target="_top" xlink:title=" ">
<polygon fill="none" stroke="black" points="501.5,-371.5 501.5,-390.5 593.5,-390.5 593.5,-371.5 501.5,-371.5"/>
<text text-anchor="middle" x="547.5" y="-378.5" font-family="Helvetica,sans-Serif" font-size="10.00">as_iic_get_byte</text>
</a>
</g>
</g>
<!-- Node4&#45;&gt;Node5 -->
<g id="edge4" class="edge">
<title>Node4&#45;&gt;Node5</title>
<path fill="none" stroke="midnightblue" d="M459.56,-368.49C469.75,-369.95 480.68,-371.53 491.23,-373.04"/>
<polygon fill="midnightblue" stroke="midnightblue" points="490.8,-376.52 501.2,-374.48 491.8,-369.59 490.8,-376.52"/>
</g>
<!-- Node14 -->
<g id="node14" class="node">
<title>Node14</title>
<g id="a_node14"><a xlink:href="group__asterics__support.html#gab803703ab5b845023ca31b7b2664419c" target="_top" xlink:title=" ">
<polygon fill="none" stroke="black" points="1367,-424.5 1367,-443.5 1426,-443.5 1426,-424.5 1367,-424.5"/>
<text text-anchor="middle" x="1396.5" y="-431.5" font-family="Helvetica,sans-Serif" font-size="10.00">as_sleep</text>
</a>
</g>
</g>
<!-- Node4&#45;&gt;Node14 -->
<g id="edge49" class="edge">
<title>Node4&#45;&gt;Node14</title>
<path fill="none" stroke="midnightblue" d="M421.35,-371.52C450.11,-410.26 565.65,-554 697,-554 697,-554 697,-554 1047.5,-554 1164.41,-554 1201.23,-560.81 1307,-511 1336.93,-496.91 1364.5,-469.7 1380.67,-451.69"/>
<polygon fill="midnightblue" stroke="midnightblue" points="1383.71,-453.53 1387.64,-443.69 1378.43,-448.93 1383.71,-453.53"/>
</g>
<!-- Node29 -->
<g id="node29" class="node">
<title>Node29</title>
<g id="a_node29"><a xlink:href="group__as__iic__user.html#ga35cd65c29b1f4abd1ca87ca51605e5cc" target="_top" xlink:title=" ">
<polygon fill="none" stroke="black" points="497,-333.5 497,-352.5 598,-352.5 598,-333.5 497,-333.5"/>
<text text-anchor="middle" x="547.5" y="-340.5" font-family="Helvetica,sans-Serif" font-size="10.00">as_iic_write_byte</text>
</a>
</g>
</g>
<!-- Node4&#45;&gt;Node29 -->
<g id="edge45" class="edge">
<title>Node4&#45;&gt;Node29</title>
<path fill="none" stroke="midnightblue" d="M459.56,-355.51C468.24,-354.26 477.46,-352.94 486.53,-351.63"/>
<polygon fill="midnightblue" stroke="midnightblue" points="487.27,-355.06 496.67,-350.17 486.27,-348.13 487.27,-355.06"/>
</g>
<!-- Node6 -->
<g id="node6" class="node">
<title>Node6</title>
<g id="a_node6"><a xlink:href="group__as__iic__user.html#ga30385c0c387c1629188745edf9c824c1" target="_top" xlink:title=" ">
<polygon fill="none" stroke="black" points="638.5,-371.5 638.5,-390.5 757.5,-390.5 757.5,-371.5 638.5,-371.5"/>
<text text-anchor="middle" x="698" y="-378.5" font-family="Helvetica,sans-Serif" font-size="10.00">as_iic_get_byte_mod</text>
</a>
</g>
</g>
<!-- Node5&#45;&gt;Node6 -->
<g id="edge5" class="edge">
<title>Node5&#45;&gt;Node6</title>
<path fill="none" stroke="midnightblue" d="M593.86,-381C604.75,-381 616.61,-381 628.3,-381"/>
<polygon fill="midnightblue" stroke="midnightblue" points="628.49,-384.5 638.49,-381 628.49,-377.5 628.49,-384.5"/>
</g>
<!-- Node7 -->
<g id="node7" class="node">
<title>Node7</title>
<g id="a_node7"><a xlink:href="group__as__iic__helpers.html#ga53e6050a2c66be89ac23084fd9de9c23" target="_top" xlink:title=" ">
<polygon fill="none" stroke="black" points="798,-266.5 798,-285.5 930,-285.5 930,-266.5 798,-266.5"/>
<text text-anchor="middle" x="864" y="-273.5" font-family="Helvetica,sans-Serif" font-size="10.00">as_iic_start_transaction</text>
</a>
</g>
</g>
<!-- Node6&#45;&gt;Node7 -->
<g id="edge6" class="edge">
<title>Node6&#45;&gt;Node7</title>
<path fill="none" stroke="midnightblue" d="M739.66,-371.44C747.31,-368.89 755.08,-365.77 762,-362 795.79,-343.58 828.51,-312.56 847.15,-293.24"/>
<polygon fill="midnightblue" stroke="midnightblue" points="849.91,-295.41 854.24,-285.75 844.83,-290.6 849.91,-295.41"/>
</g>
<!-- Node27 -->
<g id="node27" class="node">
<title>Node27</title>
<g id="a_node27"><a xlink:href="group__as__iic__helpers.html#gaa8ce9ac10b8c2ca9b614110ca5cbeff5" target="_top" xlink:title=" ">
<polygon fill="none" stroke="black" points="967.5,-465.5 967.5,-484.5 1125.5,-484.5 1125.5,-465.5 967.5,-465.5"/>
<text text-anchor="middle" x="1046.5" y="-472.5" font-family="Helvetica,sans-Serif" font-size="10.00">as_iic_stop_read_transaction</text>
</a>
</g>
</g>
<!-- Node6&#45;&gt;Node27 -->
<g id="edge38" class="edge">
<title>Node6&#45;&gt;Node27</title>
<path fill="none" stroke="midnightblue" d="M734.13,-390.53C797.43,-407.7 930.53,-443.81 1000.44,-462.77"/>
<polygon fill="midnightblue" stroke="midnightblue" points="999.71,-466.2 1010.28,-465.44 1001.54,-459.45 999.71,-466.2"/>
</g>
<!-- Node8 -->
<g id="node8" class="node">
<title>Node8</title>
<g id="a_node8"><a xlink:href="group__as__iic__bitchecks.html#gaa4e8718c748b5a7e956a38ffd6dbe15d" target="_top" xlink:title=" ">
<polygon fill="none" stroke="black" points="1178,-76.5 1178,-95.5 1292,-95.5 1292,-76.5 1178,-76.5"/>
<text text-anchor="middle" x="1235" y="-83.5" font-family="Helvetica,sans-Serif" font-size="10.00">as_iic_ack_received</text>
</a>
</g>
</g>
<!-- Node7&#45;&gt;Node8 -->
<g id="edge7" class="edge">
<title>Node7&#45;&gt;Node8</title>
<path fill="none" stroke="midnightblue" d="M867.31,-266.42C875.1,-236.36 903.55,-143.64 966,-105 1028.59,-66.28 1115.82,-68.07 1173.56,-75.14"/>
<polygon fill="midnightblue" stroke="midnightblue" points="1173.25,-78.63 1183.62,-76.47 1174.17,-71.69 1173.25,-78.63"/>
</g>
<!-- Node12 -->
<g id="node12" class="node">
<title>Node12</title>
<g id="a_node12"><a xlink:href="group__as__iic__wait.html#gad3cfec26b8a73166e060108cf1444a2b" target="_top" xlink:title=" ">
<polygon fill="none" stroke="black" points="1176,-419 1176,-449 1294,-449 1294,-419 1176,-419"/>
<text text-anchor="start" x="1184" y="-437" font-family="Helvetica,sans-Serif" font-size="10.00">as_iic_busy_wait_for</text>
<text text-anchor="middle" x="1235" y="-426" font-family="Helvetica,sans-Serif" font-size="10.00">_hwready</text>
</a>
</g>
</g>
<!-- Node7&#45;&gt;Node12 -->
<g id="edge11" class="edge">
<title>Node7&#45;&gt;Node12</title>
<path fill="none" stroke="midnightblue" d="M872.19,-285.53C887.31,-304.85 924.43,-348.68 966,-371 1028.73,-404.69 1109.21,-420.5 1165.54,-427.84"/>
<polygon fill="midnightblue" stroke="midnightblue" points="1165.41,-431.35 1175.76,-429.11 1166.27,-424.4 1165.41,-431.35"/>
</g>
<!-- Node13 -->
<g id="node13" class="node">
<title>Node13</title>
<g id="a_node13"><a xlink:href="group__as__iic__user.html#gacdb0c71d0fcfe5e50a7f7316762cd0c0" target="_top" xlink:title=" ">
<polygon fill="none" stroke="black" points="1351,-114.5 1351,-133.5 1442,-133.5 1442,-114.5 1351,-114.5"/>
<text text-anchor="middle" x="1396.5" y="-121.5" font-family="Helvetica,sans-Serif" font-size="10.00">as_iic_is_ready</text>
</a>
</g>
</g>
<!-- Node7&#45;&gt;Node13 -->
<g id="edge23" class="edge">
<title>Node7&#45;&gt;Node13</title>
<path fill="none" stroke="midnightblue" d="M866.19,-266.22C870.97,-231.59 892.28,-114.41 966,-68 1030.13,-27.62 1234.3,-45.61 1307,-67 1333.87,-74.91 1360.29,-93.78 1377.17,-107.65"/>
<polygon fill="midnightblue" stroke="midnightblue" points="1375.19,-110.56 1385.08,-114.37 1379.72,-105.23 1375.19,-110.56"/>
</g>
<!-- Node18 -->
<g id="node18" class="node">
<title>Node18</title>
<g id="a_node18"><a xlink:href="group__as__iic__wait.html#ga0bc5aad64893b674c42943fb64d17676" target="_top" xlink:title=" ">
<polygon fill="none" stroke="black" points="1163,-190.5 1163,-209.5 1307,-209.5 1307,-190.5 1163,-190.5"/>
<text text-anchor="middle" x="1235" y="-197.5" font-family="Helvetica,sans-Serif" font-size="10.00">as_iic_busy_wait_for_wait</text>
</a>
</g>
</g>
<!-- Node7&#45;&gt;Node18 -->
<g id="edge18" class="edge">
<title>Node7&#45;&gt;Node18</title>
<path fill="none" stroke="midnightblue" d="M879.3,-266.36C898.23,-254.15 933.04,-233.56 966,-224 1027.01,-206.3 1098.82,-200.63 1152.75,-199.21"/>
<polygon fill="midnightblue" stroke="midnightblue" points="1153.02,-202.7 1162.94,-198.98 1152.87,-195.7 1153.02,-202.7"/>
</g>
<!-- Node20 -->
<g id="node20" class="node">
<title>Node20</title>
<g id="a_node20"><a xlink:href="group__as__iic__bitchecks.html#gad90ab4c2ed7fbca8f768c87cdb5794ee" target="_top" xlink:title=" ">
<polygon fill="none" stroke="black" points="991,-152.5 991,-171.5 1102,-171.5 1102,-152.5 991,-152.5"/>
<text text-anchor="middle" x="1046.5" y="-159.5" font-family="Helvetica,sans-Serif" font-size="10.00">as_iic_is_initialized</text>
</a>
</g>
</g>
<!-- Node7&#45;&gt;Node20 -->
<g id="edge22" class="edge">
<title>Node7&#45;&gt;Node20</title>
<path fill="none" stroke="midnightblue" d="M873.15,-266.36C889.13,-248.06 926.45,-208.15 966,-186 974.04,-181.5 983.01,-177.75 991.96,-174.66"/>
<polygon fill="midnightblue" stroke="midnightblue" points="993.16,-177.95 1001.61,-171.56 991.02,-171.28 993.16,-177.95"/>
</g>
<!-- Node21 -->
<g id="node21" class="node">
<title>Node21</title>
<g id="a_node21"><a xlink:href="group__as__iic__user.html#gae03c311fae3d6a830878a2b0c2c1c2bf" target="_top" xlink:title=" ">
<polygon fill="none" stroke="black" points="1173,-304.5 1173,-323.5 1297,-323.5 1297,-304.5 1173,-304.5"/>
<text text-anchor="middle" x="1235" y="-311.5" font-family="Helvetica,sans-Serif" font-size="10.00">as_iic_reset_hw_state</text>
</a>
</g>
</g>
<!-- Node7&#45;&gt;Node21 -->
<g id="edge24" class="edge">
<title>Node7&#45;&gt;Node21</title>
<path fill="none" stroke="midnightblue" d="M930.14,-285.5C942.06,-287.1 954.39,-288.68 966,-290 1032.6,-297.59 1108.75,-304.22 1162.81,-308.57"/>
<polygon fill="midnightblue" stroke="midnightblue" points="1162.73,-312.07 1172.98,-309.38 1163.29,-305.1 1162.73,-312.07"/>
</g>
<!-- Node22 -->
<g id="node22" class="node">
<title>Node22</title>
<g id="a_node22"><a xlink:href="group__as__iic__reg__funcs.html#gac83a48fc09234a7a99adafb1ce565eb0" target="_top" xlink:title=" ">
<polygon fill="none" stroke="black" points="1344.5,-292.5 1344.5,-311.5 1448.5,-311.5 1448.5,-292.5 1344.5,-292.5"/>
<text text-anchor="middle" x="1396.5" y="-299.5" font-family="Helvetica,sans-Serif" font-size="10.00">as_iic_set_control</text>
</a>
</g>
</g>
<!-- Node7&#45;&gt;Node22 -->
<g id="edge28" class="edge">
<title>Node7&#45;&gt;Node22</title>
<path fill="none" stroke="midnightblue" d="M930.19,-278.07C1016.45,-280.97 1173.22,-286.84 1307,-295 1315.72,-295.53 1324.91,-296.17 1333.95,-296.84"/>
<polygon fill="midnightblue" stroke="midnightblue" points="1333.81,-300.34 1344.04,-297.62 1334.34,-293.36 1333.81,-300.34"/>
</g>
<!-- Node25 -->
<g id="node25" class="node">
<title>Node25</title>
<g id="a_node25"><a xlink:href="group__as__iic__reg__funcs.html#ga8058473baeded71954aa72ee8df24e9b" target="_top" xlink:title=" ">
<polygon fill="none" stroke="black" points="1343,-228.5 1343,-247.5 1450,-247.5 1450,-228.5 1343,-228.5"/>
<text text-anchor="middle" x="1396.5" y="-235.5" font-family="Helvetica,sans-Serif" font-size="10.00">as_iic_set_data_tx</text>
</a>
</g>
</g>
<!-- Node7&#45;&gt;Node25 -->
<g id="edge29" class="edge">
<title>Node7&#45;&gt;Node25</title>
<path fill="none" stroke="midnightblue" d="M930.05,-271.34C1032.77,-263.98 1231.24,-249.77 1332.6,-242.51"/>
<polygon fill="midnightblue" stroke="midnightblue" points="1332.97,-245.99 1342.69,-241.78 1332.47,-239.01 1332.97,-245.99"/>
</g>
<!-- Node26 -->
<g id="node26" class="node">
<title>Node26</title>
<g id="a_node26"><a xlink:href="group__as__iic__helpers.html#ga67cc002a1b20c75dc26f7b328ca5ddc9" target="_top" xlink:title=" ">
<polygon fill="none" stroke="black" points="966,-342.5 966,-361.5 1127,-361.5 1127,-342.5 966,-342.5"/>
<text text-anchor="middle" x="1046.5" y="-349.5" font-family="Helvetica,sans-Serif" font-size="10.00">as_iic_stop_write_transaction</text>
</a>
</g>
</g>
<!-- Node7&#45;&gt;Node26 -->
<g id="edge32" class="edge">
<title>Node7&#45;&gt;Node26</title>
<path fill="none" stroke="midnightblue" d="M896.94,-285.6C907.76,-289.41 919.7,-294.27 930,-300 947.72,-309.85 947.99,-318.69 966,-328 974.65,-332.47 984.27,-336.25 993.74,-339.4"/>
<polygon fill="midnightblue" stroke="midnightblue" points="992.93,-342.81 1003.52,-342.45 995.02,-336.13 992.93,-342.81"/>
</g>
<!-- Node9 -->
<g id="node9" class="node">
<title>Node9</title>
<g id="a_node9"><a xlink:href="group__as__iic__reg__funcs.html#ga8daa8fde0a7776aa2f5b335250b5aa2a" target="_top" xlink:title=" ">
<polygon fill="none" stroke="black" points="1487.5,-171.5 1487.5,-190.5 1609.5,-190.5 1609.5,-171.5 1487.5,-171.5"/>
<text text-anchor="middle" x="1548.5" y="-178.5" font-family="Helvetica,sans-Serif" font-size="10.00">as_iic_get_status_reg</text>
</a>
</g>
</g>
<!-- Node8&#45;&gt;Node9 -->
<g id="edge8" class="edge">
<title>Node8&#45;&gt;Node9</title>
<path fill="none" stroke="midnightblue" d="M1273.76,-95.55C1284.89,-99.2 1296.81,-103.97 1307,-110 1325.68,-121.05 1323.58,-133.31 1343,-143 1384.7,-163.81 1436.33,-173.29 1477.28,-177.59"/>
<polygon fill="midnightblue" stroke="midnightblue" points="1477.16,-181.09 1487.45,-178.57 1477.83,-174.12 1477.16,-181.09"/>
</g>
<!-- Node10 -->
<g id="node10" class="node">
<title>Node10</title>
<g id="a_node10"><a xlink:href="group__asterics__support.html#ga8e5c2bfd2e4498d10289377bd94cef07" target="_top" xlink:title=" ">
<polygon fill="none" stroke="black" points="1665.5,-195.5 1665.5,-214.5 1741.5,-214.5 1741.5,-195.5 1665.5,-195.5"/>
<text text-anchor="middle" x="1703.5" y="-202.5" font-family="Helvetica,sans-Serif" font-size="10.00">as_reg_read</text>
</a>
</g>
</g>
<!-- Node9&#45;&gt;Node10 -->
<g id="edge9" class="edge">
<title>Node9&#45;&gt;Node10</title>
<path fill="none" stroke="midnightblue" d="M1609.53,-190.42C1624.62,-192.78 1640.61,-195.29 1654.99,-197.55"/>
<polygon fill="midnightblue" stroke="midnightblue" points="1654.72,-201.05 1665.15,-199.14 1655.81,-194.13 1654.72,-201.05"/>
</g>
<!-- Node11 -->
<g id="node11" class="node">
<title>Node11</title>
<g id="a_node11"><a xlink:href="group__asterics__support.html#ga4c6d688b840a6e2edc9bc0b8ed961677" target="_top" xlink:title=" ">
<polygon fill="none" stroke="black" points="1796,-195.5 1796,-214.5 1896,-214.5 1896,-195.5 1796,-195.5"/>
<text text-anchor="middle" x="1846" y="-202.5" font-family="Helvetica,sans-Serif" font-size="10.00">as_reg_to_uint32</text>
</a>
</g>
</g>
<!-- Node10&#45;&gt;Node11 -->
<g id="edge10" class="edge">
<title>Node10&#45;&gt;Node11</title>
<path fill="none" stroke="midnightblue" d="M1741.78,-205C1755.26,-205 1770.83,-205 1785.72,-205"/>
<polygon fill="midnightblue" stroke="midnightblue" points="1785.89,-208.5 1795.89,-205 1785.89,-201.5 1785.89,-208.5"/>
</g>
<!-- Node12&#45;&gt;Node13 -->
<g id="edge12" class="edge">
<title>Node12&#45;&gt;Node13</title>
<path fill="none" stroke="midnightblue" d="M1249.59,-418.71C1265.65,-399.87 1292.05,-366.23 1307,-333 1335.48,-269.68 1310.42,-242.31 1343,-181 1351.23,-165.51 1364.69,-151.02 1375.92,-140.52"/>
<polygon fill="midnightblue" stroke="midnightblue" points="1378.5,-142.91 1383.6,-133.63 1373.82,-137.7 1378.5,-142.91"/>
</g>
<!-- Node12&#45;&gt;Node14 -->
<g id="edge14" class="edge">
<title>Node12&#45;&gt;Node14</title>
<path fill="none" stroke="midnightblue" d="M1294.03,-434C1314.83,-434 1337.76,-434 1356.55,-434"/>
<polygon fill="midnightblue" stroke="midnightblue" points="1356.81,-437.5 1366.81,-434 1356.81,-430.5 1356.81,-437.5"/>
</g>
<!-- Node13&#45;&gt;Node9 -->
<g id="edge13" class="edge">
<title>Node13&#45;&gt;Node9</title>
<path fill="none" stroke="midnightblue" d="M1422.61,-133.54C1447.27,-142.91 1485.1,-157.29 1512.66,-167.76"/>
<polygon fill="midnightblue" stroke="midnightblue" points="1511.72,-171.15 1522.31,-171.43 1514.21,-164.6 1511.72,-171.15"/>
</g>
<!-- Node15 -->
<g id="node15" class="node">
<title>Node15</title>
<g id="a_node15"><a xlink:href="group__asterics__support.html#ga284d9e0d170cf7cabc16ccd7e62d95bd" target="_top" xlink:title=" ">
<polygon fill="none" stroke="black" points="1520,-424.5 1520,-443.5 1577,-443.5 1577,-424.5 1520,-424.5"/>
<text text-anchor="middle" x="1548.5" y="-431.5" font-family="Helvetica,sans-Serif" font-size="10.00">as_yield</text>
</a>
</g>
</g>
<!-- Node14&#45;&gt;Node15 -->
<g id="edge15" class="edge">
<title>Node14&#45;&gt;Node15</title>
<path fill="none" stroke="midnightblue" d="M1426.07,-434C1449.75,-434 1483.62,-434 1509.57,-434"/>
<polygon fill="midnightblue" stroke="midnightblue" points="1509.8,-437.5 1519.8,-434 1509.8,-430.5 1509.8,-437.5"/>
</g>
<!-- Node16 -->
<g id="node16" class="node">
<title>Node16</title>
<g id="a_node16"><a xlink:href="group__asterics__support.html#gad294e0c5530bd6fb800a2394179070e1" target="_top" xlink:title=" ">
<polygon fill="none" stroke="black" points="1658.5,-405.5 1658.5,-424.5 1748.5,-424.5 1748.5,-405.5 1658.5,-405.5"/>
<text text-anchor="middle" x="1703.5" y="-412.5" font-family="Helvetica,sans-Serif" font-size="10.00">as_mutex_lock</text>
</a>
</g>
</g>
<!-- Node15&#45;&gt;Node16 -->
<g id="edge16" class="edge">
<title>Node15&#45;&gt;Node16</title>
<path fill="none" stroke="midnightblue" d="M1577.21,-430.56C1597.02,-428.1 1624.34,-424.71 1648.41,-421.72"/>
<polygon fill="midnightblue" stroke="midnightblue" points="1649,-425.17 1658.49,-420.47 1648.14,-418.22 1649,-425.17"/>
</g>
<!-- Node17 -->
<g id="node17" class="node">
<title>Node17</title>
<g id="a_node17"><a xlink:href="group__asterics__support.html#ga07e09e825f2608339f6213edb9d0c8b3" target="_top" xlink:title=" ">
<polygon fill="none" stroke="black" points="1652.5,-443.5 1652.5,-462.5 1754.5,-462.5 1754.5,-443.5 1652.5,-443.5"/>
<text text-anchor="middle" x="1703.5" y="-450.5" font-family="Helvetica,sans-Serif" font-size="10.00">as_mutex_unlock</text>
</a>
</g>
</g>
<!-- Node15&#45;&gt;Node17 -->
<g id="edge17" class="edge">
<title>Node15&#45;&gt;Node17</title>
<path fill="none" stroke="midnightblue" d="M1577.21,-437.44C1595.35,-439.69 1619.79,-442.73 1642.26,-445.52"/>
<polygon fill="midnightblue" stroke="midnightblue" points="1642.06,-449.02 1652.41,-446.78 1642.92,-442.07 1642.06,-449.02"/>
</g>
<!-- Node18&#45;&gt;Node14 -->
<g id="edge21" class="edge">
<title>Node18&#45;&gt;Node14</title>
<path fill="none" stroke="midnightblue" d="M1243.5,-209.54C1256.73,-226.46 1284.89,-262.98 1307,-295 1336.25,-337.35 1368.09,-388.82 1384.44,-415.68"/>
<polygon fill="midnightblue" stroke="midnightblue" points="1381.55,-417.67 1389.73,-424.4 1387.54,-414.04 1381.55,-417.67"/>
</g>
<!-- Node19 -->
<g id="node19" class="node">
<title>Node19</title>
<g id="a_node19"><a xlink:href="group__as__iic__bitchecks.html#ga4629e4514c3531d0bcd44ae20abc6bad" target="_top" xlink:title=" ">
<polygon fill="none" stroke="black" points="1347,-190.5 1347,-209.5 1446,-209.5 1446,-190.5 1347,-190.5"/>
<text text-anchor="middle" x="1396.5" y="-197.5" font-family="Helvetica,sans-Serif" font-size="10.00">as_iic_is_waiting</text>
</a>
</g>
</g>
<!-- Node18&#45;&gt;Node19 -->
<g id="edge19" class="edge">
<title>Node18&#45;&gt;Node19</title>
<path fill="none" stroke="midnightblue" d="M1307.35,-200C1317.1,-200 1327.01,-200 1336.51,-200"/>
<polygon fill="midnightblue" stroke="midnightblue" points="1336.62,-203.5 1346.62,-200 1336.62,-196.5 1336.62,-203.5"/>
</g>
<!-- Node19&#45;&gt;Node9 -->
<g id="edge20" class="edge">
<title>Node19&#45;&gt;Node9</title>
<path fill="none" stroke="midnightblue" d="M1446.2,-193.83C1456.12,-192.57 1466.74,-191.23 1477.24,-189.9"/>
<polygon fill="midnightblue" stroke="midnightblue" points="1477.76,-193.36 1487.24,-188.63 1476.88,-186.42 1477.76,-193.36"/>
</g>
<!-- Node21&#45;&gt;Node22 -->
<g id="edge25" class="edge">
<title>Node21&#45;&gt;Node22</title>
<path fill="none" stroke="midnightblue" d="M1297.21,-309.39C1309.36,-308.48 1322.11,-307.52 1334.26,-306.61"/>
<polygon fill="midnightblue" stroke="midnightblue" points="1334.59,-310.09 1344.3,-305.85 1334.07,-303.11 1334.59,-310.09"/>
</g>
<!-- Node23 -->
<g id="node23" class="node">
<title>Node23</title>
<g id="a_node23"><a xlink:href="group__asterics__support.html#ga6345b997e24a6cd5f9143cef27629d49" target="_top" xlink:title=" ">
<polygon fill="none" stroke="black" points="1509,-269.5 1509,-288.5 1588,-288.5 1588,-269.5 1509,-269.5"/>
<text text-anchor="middle" x="1548.5" y="-276.5" font-family="Helvetica,sans-Serif" font-size="10.00">as_reg_write</text>
</a>
</g>
</g>
<!-- Node22&#45;&gt;Node23 -->
<g id="edge26" class="edge">
<title>Node22&#45;&gt;Node23</title>
<path fill="none" stroke="midnightblue" d="M1448.7,-294.15C1464.85,-291.67 1482.65,-288.94 1498.63,-286.49"/>
<polygon fill="midnightblue" stroke="midnightblue" points="1499.49,-289.9 1508.84,-284.93 1498.43,-282.98 1499.49,-289.9"/>
</g>
<!-- Node24 -->
<g id="node24" class="node">
<title>Node24</title>
<g id="a_node24"><a xlink:href="group__asterics__support.html#gab651cc2c035ce61b354578434e59f822" target="_top" xlink:title=" ">
<polygon fill="none" stroke="black" points="1647,-269.5 1647,-288.5 1760,-288.5 1760,-269.5 1647,-269.5"/>
<text text-anchor="middle" x="1703.5" y="-276.5" font-family="Helvetica,sans-Serif" font-size="10.00">as_reg_from_uint32</text>
</a>
</g>
</g>
<!-- Node23&#45;&gt;Node24 -->
<g id="edge27" class="edge">
<title>Node23&#45;&gt;Node24</title>
<path fill="none" stroke="midnightblue" d="M1588.11,-279C1602.84,-279 1620.09,-279 1636.65,-279"/>
<polygon fill="midnightblue" stroke="midnightblue" points="1636.85,-282.5 1646.85,-279 1636.85,-275.5 1636.85,-282.5"/>
</g>
<!-- Node25&#45;&gt;Node10 -->
<g id="edge30" class="edge">
<title>Node25&#45;&gt;Node10</title>
<path fill="none" stroke="midnightblue" d="M1450.28,-232.29C1507.94,-226.05 1599.48,-216.15 1654.98,-210.14"/>
<polygon fill="midnightblue" stroke="midnightblue" points="1655.67,-213.59 1665.24,-209.03 1654.92,-206.63 1655.67,-213.59"/>
</g>
<!-- Node25&#45;&gt;Node23 -->
<g id="edge31" class="edge">
<title>Node25&#45;&gt;Node23</title>
<path fill="none" stroke="midnightblue" d="M1432.29,-247.51C1453.32,-253.26 1480.35,-260.65 1502.94,-266.82"/>
<polygon fill="midnightblue" stroke="midnightblue" points="1502.07,-270.21 1512.64,-269.47 1503.92,-263.46 1502.07,-270.21"/>
</g>
<!-- Node26&#45;&gt;Node8 -->
<g id="edge33" class="edge">
<title>Node26&#45;&gt;Node8</title>
<path fill="none" stroke="midnightblue" d="M1053.85,-342.25C1071.04,-315.94 1120.04,-241.44 1163,-181 1182.46,-153.62 1205.96,-122.55 1220.44,-103.62"/>
<polygon fill="midnightblue" stroke="midnightblue" points="1223.28,-105.66 1226.59,-95.6 1217.73,-101.4 1223.28,-105.66"/>
</g>
<!-- Node26&#45;&gt;Node12 -->
<g id="edge34" class="edge">
<title>Node26&#45;&gt;Node12</title>
<path fill="none" stroke="midnightblue" d="M1068.3,-361.54C1091.38,-372.08 1129.74,-389.49 1163,-404 1171.2,-407.58 1179.96,-411.33 1188.42,-414.93"/>
<polygon fill="midnightblue" stroke="midnightblue" points="1187.24,-418.23 1197.81,-418.9 1189.97,-411.78 1187.24,-418.23"/>
</g>
<!-- Node26&#45;&gt;Node14 -->
<g id="edge37" class="edge">
<title>Node26&#45;&gt;Node14</title>
<path fill="none" stroke="midnightblue" d="M1093.12,-361.55C1145.06,-372.57 1232.38,-391.55 1307,-410 1323.48,-414.07 1341.59,-418.92 1357.11,-423.18"/>
<polygon fill="midnightblue" stroke="midnightblue" points="1356.32,-426.6 1366.89,-425.89 1358.18,-419.85 1356.32,-426.6"/>
</g>
<!-- Node26&#45;&gt;Node21 -->
<g id="edge35" class="edge">
<title>Node26&#45;&gt;Node21</title>
<path fill="none" stroke="midnightblue" d="M1094.56,-342.41C1119.73,-337.28 1150.9,-330.93 1177.38,-325.54"/>
<polygon fill="midnightblue" stroke="midnightblue" points="1178.18,-328.95 1187.28,-323.52 1176.78,-322.09 1178.18,-328.95"/>
</g>
<!-- Node26&#45;&gt;Node22 -->
<g id="edge36" class="edge">
<title>Node26&#45;&gt;Node22</title>
<path fill="none" stroke="midnightblue" d="M1127.18,-351.58C1178.9,-349.99 1247.52,-345.37 1307,-333 1326.27,-328.99 1347.08,-321.86 1363.68,-315.44"/>
<polygon fill="midnightblue" stroke="midnightblue" points="1365.41,-318.52 1373.41,-311.57 1362.83,-312.01 1365.41,-318.52"/>
</g>
<!-- Node27&#45;&gt;Node12 -->
<g id="edge39" class="edge">
<title>Node27&#45;&gt;Node12</title>
<path fill="none" stroke="midnightblue" d="M1090.76,-465.49C1113.08,-460.58 1140.83,-454.48 1165.95,-448.96"/>
<polygon fill="midnightblue" stroke="midnightblue" points="1166.77,-452.36 1175.79,-446.8 1165.27,-445.53 1166.77,-452.36"/>
</g>
<!-- Node27&#45;&gt;Node14 -->
<g id="edge44" class="edge">
<title>Node27&#45;&gt;Node14</title>
<path fill="none" stroke="midnightblue" d="M1081.11,-484.54C1131.4,-497.2 1228.69,-515.37 1307,-492 1334.13,-483.9 1360.67,-464.53 1377.5,-450.4"/>
<polygon fill="midnightblue" stroke="midnightblue" points="1380.11,-452.77 1385.37,-443.57 1375.52,-447.48 1380.11,-452.77"/>
</g>
<!-- Node27&#45;&gt;Node21 -->
<g id="edge42" class="edge">
<title>Node27&#45;&gt;Node21</title>
<path fill="none" stroke="midnightblue" d="M1058.61,-465.41C1089.37,-438.85 1175.97,-364.09 1214.78,-330.6"/>
<polygon fill="midnightblue" stroke="midnightblue" points="1217.43,-332.93 1222.71,-323.74 1212.86,-327.63 1217.43,-332.93"/>
</g>
<!-- Node27&#45;&gt;Node22 -->
<g id="edge43" class="edge">
<title>Node27&#45;&gt;Node22</title>
<path fill="none" stroke="midnightblue" d="M1093.18,-484.51C1148.32,-493.38 1241.78,-499.85 1307,-459 1332.94,-442.76 1370.91,-359.67 1387.38,-321.38"/>
<polygon fill="midnightblue" stroke="midnightblue" points="1390.73,-322.43 1391.43,-311.86 1384.29,-319.69 1390.73,-322.43"/>
</g>
<!-- Node28 -->
<g id="node28" class="node">
<title>Node28</title>
<g id="a_node28"><a xlink:href="group__as__iic__reg__funcs.html#gace5813084165559c81fe11db6b628b5e" target="_top" xlink:title=" ">
<polygon fill="none" stroke="black" points="1495,-353.5 1495,-372.5 1602,-372.5 1602,-353.5 1495,-353.5"/>
<text text-anchor="middle" x="1548.5" y="-360.5" font-family="Helvetica,sans-Serif" font-size="10.00">as_iic_get_rx_byte</text>
</a>
</g>
</g>
<!-- Node27&#45;&gt;Node28 -->
<g id="edge40" class="edge">
<title>Node27&#45;&gt;Node28</title>
<path fill="none" stroke="midnightblue" d="M1070.9,-484.59C1093.89,-493.46 1130.19,-506.01 1163,-511 1226.27,-520.63 1244.18,-523.25 1307,-511 1374.32,-497.87 1393.35,-491.66 1450,-453 1469.22,-439.89 1469.09,-430.98 1486,-415 1499.38,-402.36 1515.26,-388.97 1527.53,-378.94"/>
<polygon fill="midnightblue" stroke="midnightblue" points="1529.8,-381.6 1535.37,-372.59 1525.4,-376.16 1529.8,-381.6"/>
</g>
<!-- Node28&#45;&gt;Node10 -->
<g id="edge41" class="edge">
<title>Node28&#45;&gt;Node10</title>
<path fill="none" stroke="midnightblue" d="M1558.6,-353.37C1582.4,-328.22 1644.77,-262.28 1647,-260 1659.67,-247.04 1674.22,-232.63 1685.25,-221.81"/>
<polygon fill="midnightblue" stroke="midnightblue" points="1687.88,-224.14 1692.58,-214.64 1682.98,-219.13 1687.88,-224.14"/>
</g>
<!-- Node30 -->
<g id="node30" class="node">
<title>Node30</title>
<g id="a_node30"><a xlink:href="group__as__iic__user.html#ga08fcff0dba9d6b4898291746d2206408" target="_top" xlink:title=" ">
<polygon fill="none" stroke="black" points="634,-333.5 634,-352.5 762,-352.5 762,-333.5 634,-333.5"/>
<text text-anchor="middle" x="698" y="-340.5" font-family="Helvetica,sans-Serif" font-size="10.00">as_iic_write_byte_mod</text>
</a>
</g>
</g>
<!-- Node29&#45;&gt;Node30 -->
<g id="edge46" class="edge">
<title>Node29&#45;&gt;Node30</title>
<path fill="none" stroke="midnightblue" d="M598.36,-343C606.54,-343 615.16,-343 623.76,-343"/>
<polygon fill="midnightblue" stroke="midnightblue" points="623.82,-346.5 633.82,-343 623.82,-339.5 623.82,-346.5"/>
</g>
<!-- Node30&#45;&gt;Node7 -->
<g id="edge47" class="edge">
<title>Node30&#45;&gt;Node7</title>
<path fill="none" stroke="midnightblue" d="M722.5,-333.4C750.75,-321.86 798.34,-302.42 830.2,-289.4"/>
<polygon fill="midnightblue" stroke="midnightblue" points="831.61,-292.6 839.55,-285.58 828.97,-286.12 831.61,-292.6"/>
</g>
<!-- Node30&#45;&gt;Node26 -->
<g id="edge48" class="edge">
<title>Node30&#45;&gt;Node26</title>
<path fill="none" stroke="midnightblue" d="M762.15,-344.64C816.22,-346.04 894.71,-348.08 955.38,-349.66"/>
<polygon fill="midnightblue" stroke="midnightblue" points="955.63,-353.17 965.72,-349.93 955.81,-346.17 955.63,-353.17"/>
</g>
<!-- Node32 -->
<g id="node32" class="node">
<title>Node32</title>
<g id="a_node32"><a xlink:href="group__as__iic__user.html#ga5ae8936ee892843eda5df7b9a418bd52" target="_top" xlink:title=" ">
<polygon fill="none" stroke="black" points="366,-312.5 366,-331.5 461,-331.5 461,-312.5 366,-312.5"/>
<text text-anchor="middle" x="413.5" y="-319.5" font-family="Helvetica,sans-Serif" font-size="10.00">as_iic_write_reg</text>
</a>
</g>
</g>
<!-- Node31&#45;&gt;Node32 -->
<g id="edge51" class="edge">
<title>Node31&#45;&gt;Node32</title>
<path fill="none" stroke="midnightblue" d="M318.03,-322C330.21,-322 343.18,-322 355.48,-322"/>
<polygon fill="midnightblue" stroke="midnightblue" points="355.62,-325.5 365.62,-322 355.62,-318.5 355.62,-325.5"/>
</g>
<!-- Node33 -->
<g id="node33" class="node">
<title>Node33</title>
<g id="a_node33"><a xlink:href="group__as__iic__user.html#ga2a4e5ee19e84cc95de665e29b92ccda1" target="_top" xlink:title=" ">
<polygon fill="none" stroke="black" points="644.5,-285.5 644.5,-304.5 751.5,-304.5 751.5,-285.5 644.5,-285.5"/>
<text text-anchor="middle" x="698" y="-292.5" font-family="Helvetica,sans-Serif" font-size="10.00">as_iic_write_bytes</text>
</a>
</g>
</g>
<!-- Node32&#45;&gt;Node33 -->
<g id="edge52" class="edge">
<title>Node32&#45;&gt;Node33</title>
<path fill="none" stroke="midnightblue" d="M461.15,-317.54C508.31,-313.03 581.51,-306.04 633.85,-301.04"/>
<polygon fill="midnightblue" stroke="midnightblue" points="634.4,-304.5 644.02,-300.06 633.74,-297.53 634.4,-304.5"/>
</g>
<!-- Node33&#45;&gt;Node7 -->
<g id="edge53" class="edge">
<title>Node33&#45;&gt;Node7</title>
<path fill="none" stroke="midnightblue" d="M751.79,-288.88C763.28,-287.55 775.64,-286.12 787.81,-284.71"/>
<polygon fill="midnightblue" stroke="midnightblue" points="788.42,-288.16 797.95,-283.54 787.62,-281.21 788.42,-288.16"/>
</g>
<!-- Node33&#45;&gt;Node26 -->
<g id="edge54" class="edge">
<title>Node33&#45;&gt;Node26</title>
<path fill="none" stroke="midnightblue" d="M751.63,-303.66C812.13,-313.61 911.6,-329.97 977.82,-340.87"/>
<polygon fill="midnightblue" stroke="midnightblue" points="977.31,-344.33 987.75,-342.5 978.45,-337.42 977.31,-344.33"/>
</g>
<!-- Node34 -->
<g id="node34" class="node">
<title>Node34</title>
<g id="a_node34"><a xlink:href="group__as__iic__helpers.html#gad5e0aa9a71f8f0f65e1fbded8134b11f" target="_top" xlink:title=" ">
<polygon fill="none" stroke="black" points="979.5,-114.5 979.5,-133.5 1113.5,-133.5 1113.5,-114.5 979.5,-114.5"/>
<text text-anchor="middle" x="1046.5" y="-121.5" font-family="Helvetica,sans-Serif" font-size="10.00">as_iic_write_transaction</text>
</a>
</g>
</g>
<!-- Node33&#45;&gt;Node34 -->
<g id="edge55" class="edge">
<title>Node33&#45;&gt;Node34</title>
<path fill="none" stroke="midnightblue" d="M712.48,-285.46C750.5,-258.98 862.56,-183.84 966,-143 972.39,-140.48 979.2,-138.23 986.04,-136.25"/>
<polygon fill="midnightblue" stroke="midnightblue" points="987.33,-139.52 996.06,-133.52 985.49,-132.77 987.33,-139.52"/>
</g>
<!-- Node34&#45;&gt;Node8 -->
<g id="edge56" class="edge">
<title>Node34&#45;&gt;Node8</title>
<path fill="none" stroke="midnightblue" d="M1094.56,-114.41C1119.73,-109.28 1150.9,-102.93 1177.38,-97.54"/>
<polygon fill="midnightblue" stroke="midnightblue" points="1178.18,-100.95 1187.28,-95.52 1176.78,-94.09 1178.18,-100.95"/>
</g>
<!-- Node34&#45;&gt;Node18 -->
<g id="edge57" class="edge">
<title>Node34&#45;&gt;Node18</title>
<path fill="none" stroke="midnightblue" d="M1103.56,-133.59C1111.68,-136.05 1119.73,-139.14 1127,-143 1146.17,-153.18 1144.32,-164.95 1163,-176 1170.33,-180.33 1178.54,-184.02 1186.72,-187.1"/>
<polygon fill="midnightblue" stroke="midnightblue" points="1185.64,-190.43 1196.24,-190.45 1187.97,-183.83 1185.64,-190.43"/>
</g>
<!-- Node34&#45;&gt;Node21 -->
<g id="edge61" class="edge">
<title>Node34&#45;&gt;Node21</title>
<path fill="none" stroke="midnightblue" d="M1111.18,-133.59C1116.87,-136.07 1122.26,-139.16 1127,-143 1156.03,-166.55 1143.72,-186.98 1163,-219 1180.24,-247.63 1204.16,-278.14 1219.36,-296.64"/>
<polygon fill="midnightblue" stroke="midnightblue" points="1216.78,-299.01 1225.86,-304.47 1222.16,-294.54 1216.78,-299.01"/>
</g>
<!-- Node34&#45;&gt;Node22 -->
<g id="edge62" class="edge">
<title>Node34&#45;&gt;Node22</title>
<path fill="none" stroke="midnightblue" d="M1103.03,-133.52C1174.42,-146.16 1291.12,-168.36 1307,-181 1336.24,-204.28 1320.31,-227.3 1343,-257 1351.43,-268.03 1362.95,-278.28 1373.05,-286.2"/>
<polygon fill="midnightblue" stroke="midnightblue" points="1371.02,-289.04 1381.11,-292.27 1375.23,-283.46 1371.02,-289.04"/>
</g>
<!-- Node34&#45;&gt;Node25 -->
<g id="edge63" class="edge">
<title>Node34&#45;&gt;Node25</title>
<path fill="none" stroke="midnightblue" d="M1103.82,-114.49C1160.19,-108.11 1246.94,-107.18 1307,-148 1336.26,-167.89 1316.5,-195.55 1343,-219 1344.91,-220.69 1346.97,-222.23 1349.15,-223.63"/>
<polygon fill="midnightblue" stroke="midnightblue" points="1347.5,-226.72 1357.96,-228.42 1350.84,-220.57 1347.5,-226.72"/>
</g>
<!-- Node35 -->
<g id="node35" class="node">
<title>Node35</title>
<g id="a_node35"><a xlink:href="group__as__iic__bitchecks.html#ga2ef7a1f9767986f2033697f584cd4feb" target="_top" xlink:title=" ">
<polygon fill="none" stroke="black" points="1180,-0.5 1180,-19.5 1290,-19.5 1290,-0.5 1180,-0.5"/>
<text text-anchor="middle" x="1235" y="-7.5" font-family="Helvetica,sans-Serif" font-size="10.00">as_iic_is_readwrite</text>
</a>
</g>
</g>
<!-- Node34&#45;&gt;Node35 -->
<g id="edge58" class="edge">
<title>Node34&#45;&gt;Node35</title>
<path fill="none" stroke="midnightblue" d="M1063.08,-114.48C1095.58,-94.61 1170.81,-48.63 1209.72,-24.84"/>
<polygon fill="midnightblue" stroke="midnightblue" points="1211.63,-27.78 1218.33,-19.58 1207.98,-21.81 1211.63,-27.78"/>
</g>
<!-- Node36 -->
<g id="node36" class="node">
<title>Node36</title>
<g id="a_node36"><a xlink:href="group__as__iic__reg__funcs.html#gaca309e97934beed04c02e31ba9cfbd3a" target="_top" xlink:title=" ">
<polygon fill="none" stroke="black" points="1486,-86.5 1486,-105.5 1611,-105.5 1611,-86.5 1486,-86.5"/>
<text text-anchor="middle" x="1548.5" y="-93.5" font-family="Helvetica,sans-Serif" font-size="10.00">as_iic_get_control_reg</text>
</a>
</g>
</g>
<!-- Node35&#45;&gt;Node36 -->
<g id="edge59" class="edge">
<title>Node35&#45;&gt;Node36</title>
<path fill="none" stroke="midnightblue" d="M1270.53,-19.53C1327.25,-35.19 1440.1,-66.35 1502.83,-83.67"/>
<polygon fill="midnightblue" stroke="midnightblue" points="1502.25,-87.14 1512.82,-86.43 1504.11,-80.39 1502.25,-87.14"/>
</g>
<!-- Node36&#45;&gt;Node10 -->
<g id="edge60" class="edge">
<title>Node36&#45;&gt;Node10</title>
<path fill="none" stroke="midnightblue" d="M1563.08,-105.67C1589.55,-124.53 1648.28,-166.37 1680.42,-189.27"/>
<polygon fill="midnightblue" stroke="midnightblue" points="1678.56,-192.24 1688.73,-195.19 1682.62,-186.54 1678.56,-192.24"/>
</g>
</g>
</svg>
