<?xml version="1.0" encoding="UTF-8" standalone="no"?>
<!DOCTYPE svg PUBLIC "-//W3C//DTD SVG 1.1//EN"
 "http://www.w3.org/Graphics/SVG/1.1/DTD/svg11.dtd">
<!-- Generated by graphviz version 2.43.0 (0)
 -->
<!-- Title: as_iic_stop_write_transaction Pages: 1 -->
<svg width="1303pt" height="294pt"
 viewBox="0.00 0.00 1303.00 294.00" xmlns="http://www.w3.org/2000/svg" xmlns:xlink="http://www.w3.org/1999/xlink">
<g id="graph0" class="graph" transform="scale(1 1) rotate(0) translate(4 290)">
<title>as_iic_stop_write_transaction</title>
<!-- Node1 -->
<g id="node1" class="node">
<title>Node1</title>
<g id="a_node1"><a xlink:title=" ">
<polygon fill="#bfbfbf" stroke="black" points="1134,-133.5 1134,-152.5 1295,-152.5 1295,-133.5 1134,-133.5"/>
<text text-anchor="middle" x="1214.5" y="-140.5" font-family="Helvetica,sans-Serif" font-size="10.00">as_iic_stop_write_transaction</text>
</a>
</g>
</g>
<!-- Node2 -->
<g id="node2" class="node">
<title>Node2</title>
<g id="a_node2"><a xlink:href="group__as__iic__user.html#ga5c5233652491e648a88292ae73b49ace" target="_top" xlink:title=" ">
<polygon fill="none" stroke="black" points="806,-266.5 806,-285.5 926,-285.5 926,-266.5 806,-266.5"/>
<text text-anchor="middle" x="866" y="-273.5" font-family="Helvetica,sans-Serif" font-size="10.00">as_iic_set_regpointer</text>
</a>
</g>
</g>
<!-- Node1&#45;&gt;Node2 -->
<g id="edge1" class="edge">
<title>Node1&#45;&gt;Node2</title>
<path fill="none" stroke="midnightblue" d="M1179.23,-156.21C1125.95,-176.75 1019.99,-217.56 930,-252 917.54,-256.77 903.68,-262.05 892.15,-266.44"/>
<polygon fill="midnightblue" stroke="midnightblue" points="1180.79,-159.37 1188.86,-152.5 1178.27,-152.83 1180.79,-159.37"/>
</g>
<!-- Node3 -->
<g id="node3" class="node">
<title>Node3</title>
<g id="a_node3"><a xlink:href="group__as__iic__helpers.html#ga53e6050a2c66be89ac23084fd9de9c23" target="_top" xlink:title=" ">
<polygon fill="none" stroke="black" points="966,-152.5 966,-171.5 1098,-171.5 1098,-152.5 966,-152.5"/>
<text text-anchor="middle" x="1032" y="-159.5" font-family="Helvetica,sans-Serif" font-size="10.00">as_iic_start_transaction</text>
</a>
</g>
</g>
<!-- Node1&#45;&gt;Node3 -->
<g id="edge2" class="edge">
<title>Node1&#45;&gt;Node3</title>
<path fill="none" stroke="midnightblue" d="M1123.72,-152.45C1115.12,-153.36 1106.51,-154.26 1098.2,-155.14"/>
<polygon fill="midnightblue" stroke="midnightblue" points="1124.23,-155.92 1133.8,-151.39 1123.49,-148.96 1124.23,-155.92"/>
</g>
<!-- Node16 -->
<g id="node16" class="node">
<title>Node16</title>
<g id="a_node16"><a xlink:href="group__as__iic__user.html#ga08fcff0dba9d6b4898291746d2206408" target="_top" xlink:title=" ">
<polygon fill="none" stroke="black" points="802,-114.5 802,-133.5 930,-133.5 930,-114.5 802,-114.5"/>
<text text-anchor="middle" x="866" y="-121.5" font-family="Helvetica,sans-Serif" font-size="10.00">as_iic_write_byte_mod</text>
</a>
</g>
</g>
<!-- Node1&#45;&gt;Node16 -->
<g id="edge29" class="edge">
<title>Node1&#45;&gt;Node16</title>
<path fill="none" stroke="midnightblue" d="M1123.23,-138.05C1062.55,-134.72 984.11,-130.42 930.08,-127.46"/>
<polygon fill="midnightblue" stroke="midnightblue" points="1123.39,-141.56 1133.57,-138.62 1123.78,-134.57 1123.39,-141.56"/>
</g>
<!-- Node18 -->
<g id="node18" class="node">
<title>Node18</title>
<g id="a_node18"><a xlink:href="group__as__iic__user.html#ga2a4e5ee19e84cc95de665e29b92ccda1" target="_top" xlink:title=" ">
<polygon fill="none" stroke="black" points="812.5,-76.5 812.5,-95.5 919.5,-95.5 919.5,-76.5 812.5,-76.5"/>
<text text-anchor="middle" x="866" y="-83.5" font-family="Helvetica,sans-Serif" font-size="10.00">as_iic_write_bytes</text>
</a>
</g>
</g>
<!-- Node1&#45;&gt;Node18 -->
<g id="edge30" class="edge">
<title>Node1&#45;&gt;Node18</title>
<path fill="none" stroke="midnightblue" d="M1145.57,-131.83C1079.31,-120.93 979.92,-104.58 919.51,-94.64"/>
<polygon fill="midnightblue" stroke="midnightblue" points="1145.07,-135.29 1155.5,-133.46 1146.2,-128.38 1145.07,-135.29"/>
</g>
<!-- Node3&#45;&gt;Node2 -->
<g id="edge17" class="edge">
<title>Node3&#45;&gt;Node2</title>
<path fill="none" stroke="midnightblue" d="M1013.88,-178.65C990.09,-201.53 947.94,-241.1 930,-252 920.4,-257.83 909.14,-262.67 898.81,-266.43"/>
<polygon fill="midnightblue" stroke="midnightblue" points="1016.42,-181.06 1021.18,-171.59 1011.55,-176.02 1016.42,-181.06"/>
</g>
<!-- Node4 -->
<g id="node4" class="node">
<title>Node4</title>
<g id="a_node4"><a xlink:href="group__as__iic__user.html#ga30385c0c387c1629188745edf9c824c1" target="_top" xlink:title=" ">
<polygon fill="none" stroke="black" points="806.5,-152.5 806.5,-171.5 925.5,-171.5 925.5,-152.5 806.5,-152.5"/>
<text text-anchor="middle" x="866" y="-159.5" font-family="Helvetica,sans-Serif" font-size="10.00">as_iic_get_byte_mod</text>
</a>
</g>
</g>
<!-- Node3&#45;&gt;Node4 -->
<g id="edge3" class="edge">
<title>Node3&#45;&gt;Node4</title>
<path fill="none" stroke="midnightblue" d="M955.71,-162C945.63,-162 935.42,-162 925.69,-162"/>
<polygon fill="midnightblue" stroke="midnightblue" points="955.71,-165.5 965.71,-162 955.71,-158.5 955.71,-165.5"/>
</g>
<!-- Node14 -->
<g id="node14" class="node">
<title>Node14</title>
<g id="a_node14"><a xlink:href="group__as__iic__user.html#ga76b6915b73f14abb8a200df4eefde6f3" target="_top" xlink:title=" ">
<polygon fill="none" stroke="black" points="817,-190.5 817,-209.5 915,-209.5 915,-190.5 817,-190.5"/>
<text text-anchor="middle" x="866" y="-197.5" font-family="Helvetica,sans-Serif" font-size="10.00">as_iic_get_bytes</text>
</a>
</g>
</g>
<!-- Node3&#45;&gt;Node14 -->
<g id="edge15" class="edge">
<title>Node3&#45;&gt;Node14</title>
<path fill="none" stroke="midnightblue" d="M979.66,-173.9C956.61,-179.24 929.78,-185.45 908.09,-190.48"/>
<polygon fill="midnightblue" stroke="midnightblue" points="980.66,-177.26 989.62,-171.59 979.08,-170.44 980.66,-177.26"/>
</g>
<!-- Node15 -->
<g id="node15" class="node">
<title>Node15</title>
<g id="a_node15"><a xlink:href="group__as__iic__user.html#ga987a7c89e5d900225a42f04583e0cfe7" target="_top" xlink:title=" ">
<polygon fill="none" stroke="black" points="531,-209.5 531,-228.5 629,-228.5 629,-209.5 531,-209.5"/>
<text text-anchor="middle" x="580" y="-216.5" font-family="Helvetica,sans-Serif" font-size="10.00">as_iic_read_regs</text>
</a>
</g>
</g>
<!-- Node3&#45;&gt;Node15 -->
<g id="edge16" class="edge">
<title>Node3&#45;&gt;Node15</title>
<path fill="none" stroke="midnightblue" d="M987.97,-175.19C980.4,-178.26 972.79,-181.86 966,-186 947.47,-197.3 950.23,-211.13 930,-219 825.96,-259.47 690.89,-241.69 623.36,-228.54"/>
<polygon fill="midnightblue" stroke="midnightblue" points="989.34,-178.41 997.45,-171.59 986.86,-171.87 989.34,-178.41"/>
</g>
<!-- Node3&#45;&gt;Node16 -->
<g id="edge18" class="edge">
<title>Node3&#45;&gt;Node16</title>
<path fill="none" stroke="midnightblue" d="M979.66,-150.1C956.61,-144.76 929.78,-138.55 908.09,-133.52"/>
<polygon fill="midnightblue" stroke="midnightblue" points="979.08,-153.56 989.62,-152.41 980.66,-146.74 979.08,-153.56"/>
</g>
<!-- Node3&#45;&gt;Node18 -->
<g id="edge22" class="edge">
<title>Node3&#45;&gt;Node18</title>
<path fill="none" stroke="midnightblue" d="M1007.76,-146.93C987.76,-134.44 957.82,-116.87 930,-105 921.59,-101.41 912.29,-98.21 903.47,-95.51"/>
<polygon fill="midnightblue" stroke="midnightblue" points="1006.15,-150.04 1016.47,-152.43 1009.89,-144.13 1006.15,-150.04"/>
</g>
<!-- Node5 -->
<g id="node5" class="node">
<title>Node5</title>
<g id="a_node5"><a xlink:href="group__as__iic__user.html#gacf3e3b915e1f15ed8bdc60ab4c129996" target="_top" xlink:title=" ">
<polygon fill="none" stroke="black" points="669.5,-152.5 669.5,-171.5 761.5,-171.5 761.5,-152.5 669.5,-152.5"/>
<text text-anchor="middle" x="715.5" y="-159.5" font-family="Helvetica,sans-Serif" font-size="10.00">as_iic_get_byte</text>
</a>
</g>
</g>
<!-- Node4&#45;&gt;Node5 -->
<g id="edge4" class="edge">
<title>Node4&#45;&gt;Node5</title>
<path fill="none" stroke="midnightblue" d="M796.18,-162C784.56,-162 772.77,-162 761.94,-162"/>
<polygon fill="midnightblue" stroke="midnightblue" points="796.31,-165.5 806.31,-162 796.31,-158.5 796.31,-165.5"/>
</g>
<!-- Node6 -->
<g id="node6" class="node">
<title>Node6</title>
<g id="a_node6"><a xlink:href="group__as__iic__user.html#ga812d9e16a61b39777a5fbffc7eccbc8d" target="_top" xlink:title=" ">
<polygon fill="none" stroke="black" points="534,-152.5 534,-171.5 626,-171.5 626,-152.5 534,-152.5"/>
<text text-anchor="middle" x="580" y="-159.5" font-family="Helvetica,sans-Serif" font-size="10.00">as_iic_read_reg</text>
</a>
</g>
</g>
<!-- Node5&#45;&gt;Node6 -->
<g id="edge5" class="edge">
<title>Node5&#45;&gt;Node6</title>
<path fill="none" stroke="midnightblue" d="M658.98,-162C648.05,-162 636.7,-162 626.15,-162"/>
<polygon fill="midnightblue" stroke="midnightblue" points="659.3,-165.5 669.3,-162 659.3,-158.5 659.3,-165.5"/>
</g>
<!-- Node7 -->
<g id="node7" class="node">
<title>Node7</title>
<g id="a_node7"><a xlink:href="as__sensor__ov7670_8c.html#acb25afaea3e81940c50e327c45921f08" target="_top" xlink:title=" ">
<polygon fill="none" stroke="black" points="384,-152.5 384,-171.5 495,-171.5 495,-152.5 384,-152.5"/>
<text text-anchor="middle" x="439.5" y="-159.5" font-family="Helvetica,sans-Serif" font-size="10.00">ov7670_iic_reg_get</text>
</a>
</g>
</g>
<!-- Node6&#45;&gt;Node7 -->
<g id="edge6" class="edge">
<title>Node6&#45;&gt;Node7</title>
<path fill="none" stroke="midnightblue" d="M523.63,-162C514.24,-162 504.5,-162 495.13,-162"/>
<polygon fill="midnightblue" stroke="midnightblue" points="523.65,-165.5 533.65,-162 523.65,-158.5 523.65,-165.5"/>
</g>
<!-- Node8 -->
<g id="node8" class="node">
<title>Node8</title>
<g id="a_node8"><a xlink:href="group__as__sensor__ov7670.html#ga55b52e2499f96009197bfe90af6c7a41" target="_top" xlink:title=" ">
<polygon fill="none" stroke="black" points="164,-76.5 164,-95.5 348,-95.5 348,-76.5 164,-76.5"/>
<text text-anchor="middle" x="256" y="-83.5" font-family="Helvetica,sans-Serif" font-size="10.00">as_sensor_ov7670_exposure_auto</text>
</a>
</g>
</g>
<!-- Node7&#45;&gt;Node8 -->
<g id="edge7" class="edge">
<title>Node7&#45;&gt;Node8</title>
<path fill="none" stroke="midnightblue" d="M418.04,-146.11C400.41,-133.18 373.8,-115.42 348,-105 338.42,-101.13 327.95,-98.01 317.62,-95.5"/>
<polygon fill="midnightblue" stroke="midnightblue" points="416.29,-149.17 426.39,-152.37 420.48,-143.57 416.29,-149.17"/>
</g>
<!-- Node10 -->
<g id="node10" class="node">
<title>Node10</title>
<g id="a_node10"><a xlink:href="group__as__sensor__ov7670.html#gae1b977db2733432317fee8f0497eb67a" target="_top" xlink:title=" ">
<polygon fill="none" stroke="black" points="167,-190.5 167,-209.5 345,-209.5 345,-190.5 167,-190.5"/>
<text text-anchor="middle" x="256" y="-197.5" font-family="Helvetica,sans-Serif" font-size="10.00">as_sensor_ov7670_exposure_get</text>
</a>
</g>
</g>
<!-- Node7&#45;&gt;Node10 -->
<g id="edge9" class="edge">
<title>Node7&#45;&gt;Node10</title>
<path fill="none" stroke="midnightblue" d="M382.95,-173.67C371.4,-176.1 359.3,-178.63 348,-181 333.31,-184.08 317.28,-187.42 302.83,-190.44"/>
<polygon fill="midnightblue" stroke="midnightblue" points="383.86,-177.06 392.93,-171.58 382.42,-170.21 383.86,-177.06"/>
</g>
<!-- Node11 -->
<g id="node11" class="node">
<title>Node11</title>
<g id="a_node11"><a xlink:href="group__as__sensor__ov7670.html#gadd11863e70497418c9d31c922945cbec" target="_top" xlink:title=" ">
<polygon fill="none" stroke="black" points="176,-114.5 176,-133.5 336,-133.5 336,-114.5 176,-114.5"/>
<text text-anchor="middle" x="256" y="-121.5" font-family="Helvetica,sans-Serif" font-size="10.00">as_sensor_ov7670_gain_auto</text>
</a>
</g>
</g>
<!-- Node7&#45;&gt;Node11 -->
<g id="edge10" class="edge">
<title>Node7&#45;&gt;Node11</title>
<path fill="none" stroke="midnightblue" d="M382.95,-150.33C371.4,-147.9 359.3,-145.37 348,-143 333.31,-139.92 317.28,-136.58 302.83,-133.56"/>
<polygon fill="midnightblue" stroke="midnightblue" points="382.42,-153.79 392.93,-152.42 383.86,-146.94 382.42,-153.79"/>
</g>
<!-- Node12 -->
<g id="node12" class="node">
<title>Node12</title>
<g id="a_node12"><a xlink:href="group__as__sensor__ov7670.html#ga75ee4d998c858b26adae16b8140e8637" target="_top" xlink:title=" ">
<polygon fill="none" stroke="black" points="179,-228.5 179,-247.5 333,-247.5 333,-228.5 179,-228.5"/>
<text text-anchor="middle" x="256" y="-235.5" font-family="Helvetica,sans-Serif" font-size="10.00">as_sensor_ov7670_gain_get</text>
</a>
</g>
</g>
<!-- Node7&#45;&gt;Node12 -->
<g id="edge12" class="edge">
<title>Node7&#45;&gt;Node12</title>
<path fill="none" stroke="midnightblue" d="M418.04,-177.89C400.41,-190.82 373.8,-208.58 348,-219 338.42,-222.87 327.95,-225.99 317.62,-228.5"/>
<polygon fill="midnightblue" stroke="midnightblue" points="420.48,-180.43 426.39,-171.63 416.29,-174.83 420.48,-180.43"/>
</g>
<!-- Node13 -->
<g id="node13" class="node">
<title>Node13</title>
<g id="a_node13"><a xlink:href="as__sensor__ov7670_8c.html#ab5de18dc5dd74817505126a51487b8b1" target="_top" xlink:title=" ">
<polygon fill="none" stroke="black" points="181.5,-152.5 181.5,-171.5 330.5,-171.5 330.5,-152.5 181.5,-152.5"/>
<text text-anchor="middle" x="256" y="-159.5" font-family="Helvetica,sans-Serif" font-size="10.00">as_sensor_ov7670_identify</text>
</a>
</g>
</g>
<!-- Node7&#45;&gt;Node13 -->
<g id="edge13" class="edge">
<title>Node7&#45;&gt;Node13</title>
<path fill="none" stroke="midnightblue" d="M373.16,-162C359.33,-162 344.64,-162 330.53,-162"/>
<polygon fill="midnightblue" stroke="midnightblue" points="373.55,-165.5 383.55,-162 373.55,-158.5 373.55,-165.5"/>
</g>
<!-- Node9 -->
<g id="node9" class="node">
<title>Node9</title>
<g id="a_node9"><a xlink:href="group__as__sensor__ov7670.html#ga419a3339eac0f6abb8eafe24e468ae49" target="_top" xlink:title=" ">
<polygon fill="none" stroke="black" points="0,-114.5 0,-133.5 128,-133.5 128,-114.5 0,-114.5"/>
<text text-anchor="middle" x="64" y="-121.5" font-family="Helvetica,sans-Serif" font-size="10.00">as_sensor_ov7670_init</text>
</a>
</g>
</g>
<!-- Node8&#45;&gt;Node9 -->
<g id="edge8" class="edge">
<title>Node8&#45;&gt;Node9</title>
<path fill="none" stroke="midnightblue" d="M196.95,-97.61C169.93,-103.01 138.18,-109.36 112.6,-114.48"/>
<polygon fill="midnightblue" stroke="midnightblue" points="197.94,-100.98 207.05,-95.59 196.56,-94.12 197.94,-100.98"/>
</g>
<!-- Node11&#45;&gt;Node9 -->
<g id="edge11" class="edge">
<title>Node11&#45;&gt;Node9</title>
<path fill="none" stroke="midnightblue" d="M165.68,-124C153.01,-124 140.21,-124 128.17,-124"/>
<polygon fill="midnightblue" stroke="midnightblue" points="165.8,-127.5 175.8,-124 165.8,-120.5 165.8,-127.5"/>
</g>
<!-- Node13&#45;&gt;Node9 -->
<g id="edge14" class="edge">
<title>Node13&#45;&gt;Node9</title>
<path fill="none" stroke="midnightblue" d="M196.95,-150.39C169.93,-144.99 138.18,-138.64 112.6,-133.52"/>
<polygon fill="midnightblue" stroke="midnightblue" points="196.56,-153.88 207.05,-152.41 197.94,-147.02 196.56,-153.88"/>
</g>
<!-- Node17 -->
<g id="node17" class="node">
<title>Node17</title>
<g id="a_node17"><a xlink:href="group__as__iic__user.html#ga35cd65c29b1f4abd1ca87ca51605e5cc" target="_top" xlink:title=" ">
<polygon fill="none" stroke="black" points="665,-114.5 665,-133.5 766,-133.5 766,-114.5 665,-114.5"/>
<text text-anchor="middle" x="715.5" y="-121.5" font-family="Helvetica,sans-Serif" font-size="10.00">as_iic_write_byte</text>
</a>
</g>
</g>
<!-- Node16&#45;&gt;Node17 -->
<g id="edge19" class="edge">
<title>Node16&#45;&gt;Node17</title>
<path fill="none" stroke="midnightblue" d="M791.55,-124C782.97,-124 774.38,-124 766.23,-124"/>
<polygon fill="midnightblue" stroke="midnightblue" points="791.59,-127.5 801.59,-124 791.59,-120.5 791.59,-127.5"/>
</g>
<!-- Node17&#45;&gt;Node6 -->
<g id="edge20" class="edge">
<title>Node17&#45;&gt;Node6</title>
<path fill="none" stroke="midnightblue" d="M670.97,-136.39C652.69,-141.59 631.75,-147.55 614.68,-152.41"/>
<polygon fill="midnightblue" stroke="midnightblue" points="672.15,-139.69 680.81,-133.59 670.24,-132.96 672.15,-139.69"/>
</g>
<!-- Node17&#45;&gt;Node15 -->
<g id="edge21" class="edge">
<title>Node17&#45;&gt;Node15</title>
<path fill="none" stroke="midnightblue" d="M674.18,-137.68C670.98,-139.3 667.88,-141.07 665,-143 645.66,-155.93 646.16,-165.3 629,-181 617.71,-191.33 603.93,-202.06 594.04,-209.48"/>
<polygon fill="midnightblue" stroke="midnightblue" points="675.69,-140.84 683.34,-133.52 672.79,-134.47 675.69,-140.84"/>
</g>
<!-- Node19 -->
<g id="node19" class="node">
<title>Node19</title>
<g id="a_node19"><a xlink:href="group__as__iic__user.html#ga5ae8936ee892843eda5df7b9a418bd52" target="_top" xlink:title=" ">
<polygon fill="none" stroke="black" points="668,-76.5 668,-95.5 763,-95.5 763,-76.5 668,-76.5"/>
<text text-anchor="middle" x="715.5" y="-83.5" font-family="Helvetica,sans-Serif" font-size="10.00">as_iic_write_reg</text>
</a>
</g>
</g>
<!-- Node18&#45;&gt;Node19 -->
<g id="edge23" class="edge">
<title>Node18&#45;&gt;Node19</title>
<path fill="none" stroke="midnightblue" d="M801.93,-86C788.94,-86 775.47,-86 763.18,-86"/>
<polygon fill="midnightblue" stroke="midnightblue" points="802.23,-89.5 812.23,-86 802.23,-82.5 802.23,-89.5"/>
</g>
<!-- Node20 -->
<g id="node20" class="node">
<title>Node20</title>
<g id="a_node20"><a xlink:href="as__sensor__ov7670_8c.html#ad5b49e677d2124f73482764e3270bb42" target="_top" xlink:title=" ">
<polygon fill="none" stroke="black" points="384.5,-76.5 384.5,-95.5 494.5,-95.5 494.5,-76.5 384.5,-76.5"/>
<text text-anchor="middle" x="439.5" y="-83.5" font-family="Helvetica,sans-Serif" font-size="10.00">ov7670_iic_reg_set</text>
</a>
</g>
</g>
<!-- Node19&#45;&gt;Node20 -->
<g id="edge24" class="edge">
<title>Node19&#45;&gt;Node20</title>
<path fill="none" stroke="midnightblue" d="M657.51,-86C609.63,-86 541.68,-86 494.62,-86"/>
<polygon fill="midnightblue" stroke="midnightblue" points="657.71,-89.5 667.71,-86 657.71,-82.5 657.71,-89.5"/>
</g>
<!-- Node20&#45;&gt;Node8 -->
<g id="edge25" class="edge">
<title>Node20&#45;&gt;Node8</title>
<path fill="none" stroke="midnightblue" d="M373.97,-86C365.55,-86 356.81,-86 348.07,-86"/>
<polygon fill="midnightblue" stroke="midnightblue" points="374.04,-89.5 384.04,-86 374.04,-82.5 374.04,-89.5"/>
</g>
<!-- Node20&#45;&gt;Node11 -->
<g id="edge27" class="edge">
<title>Node20&#45;&gt;Node11</title>
<path fill="none" stroke="midnightblue" d="M382.95,-97.67C371.4,-100.1 359.3,-102.63 348,-105 333.31,-108.08 317.28,-111.42 302.83,-114.44"/>
<polygon fill="midnightblue" stroke="midnightblue" points="383.86,-101.06 392.93,-95.58 382.42,-94.21 383.86,-101.06"/>
</g>
<!-- Node21 -->
<g id="node21" class="node">
<title>Node21</title>
<g id="a_node21"><a xlink:href="group__as__sensor__ov7670.html#ga673b948f323ea0a23896c7dc4b0e05e3" target="_top" xlink:title=" ">
<polygon fill="none" stroke="black" points="167.5,-38.5 167.5,-57.5 344.5,-57.5 344.5,-38.5 167.5,-38.5"/>
<text text-anchor="middle" x="256" y="-45.5" font-family="Helvetica,sans-Serif" font-size="10.00">as_sensor_ov7670_exposure_set</text>
</a>
</g>
</g>
<!-- Node20&#45;&gt;Node21 -->
<g id="edge26" class="edge">
<title>Node20&#45;&gt;Node21</title>
<path fill="none" stroke="midnightblue" d="M382.95,-74.33C371.4,-71.9 359.3,-69.37 348,-67 333.31,-63.92 317.28,-60.58 302.83,-57.56"/>
<polygon fill="midnightblue" stroke="midnightblue" points="382.42,-77.79 392.93,-76.42 383.86,-70.94 382.42,-77.79"/>
</g>
<!-- Node22 -->
<g id="node22" class="node">
<title>Node22</title>
<g id="a_node22"><a xlink:href="group__as__sensor__ov7670.html#ga45e866e9958d1c7d8e0b0dd206f01a9e" target="_top" xlink:title=" ">
<polygon fill="none" stroke="black" points="179.5,-0.5 179.5,-19.5 332.5,-19.5 332.5,-0.5 179.5,-0.5"/>
<text text-anchor="middle" x="256" y="-7.5" font-family="Helvetica,sans-Serif" font-size="10.00">as_sensor_ov7670_gain_set</text>
</a>
</g>
</g>
<!-- Node20&#45;&gt;Node22 -->
<g id="edge28" class="edge">
<title>Node20&#45;&gt;Node22</title>
<path fill="none" stroke="midnightblue" d="M418.04,-70.11C400.41,-57.18 373.8,-39.42 348,-29 338.42,-25.13 327.95,-22.01 317.62,-19.5"/>
<polygon fill="midnightblue" stroke="midnightblue" points="416.29,-73.17 426.39,-76.37 420.48,-67.57 416.29,-73.17"/>
</g>
</g>
</svg>
