<?xml version="1.0" encoding="UTF-8" standalone="no"?>
<!DOCTYPE svg PUBLIC "-//W3C//DTD SVG 1.1//EN"
 "http://www.w3.org/Graphics/SVG/1.1/DTD/svg11.dtd">
<!-- Generated by graphviz version 2.43.0 (0)
 -->
<!-- Title: as_iic_write_reg Pages: 1 -->
<svg width="1380pt" height="446pt"
 viewBox="0.00 0.00 1380.00 446.00" xmlns="http://www.w3.org/2000/svg" xmlns:xlink="http://www.w3.org/1999/xlink">
<g id="graph0" class="graph" transform="scale(1 1) rotate(0) translate(4 442)">
<title>as_iic_write_reg</title>
<!-- Node1 -->
<g id="node1" class="node">
<title>Node1</title>
<g id="a_node1"><a xlink:title=" ">
<polygon fill="#bfbfbf" stroke="black" points="0,-152.5 0,-171.5 95,-171.5 95,-152.5 0,-152.5"/>
<text text-anchor="middle" x="47.5" y="-159.5" font-family="Helvetica,sans-Serif" font-size="10.00">as_iic_write_reg</text>
</a>
</g>
</g>
<!-- Node2 -->
<g id="node2" class="node">
<title>Node2</title>
<g id="a_node2"><a xlink:href="group__as__iic__user.html#ga2a4e5ee19e84cc95de665e29b92ccda1" target="_top" xlink:title=" ">
<polygon fill="none" stroke="black" points="131,-152.5 131,-171.5 238,-171.5 238,-152.5 131,-152.5"/>
<text text-anchor="middle" x="184.5" y="-159.5" font-family="Helvetica,sans-Serif" font-size="10.00">as_iic_write_bytes</text>
</a>
</g>
</g>
<!-- Node1&#45;&gt;Node2 -->
<g id="edge1" class="edge">
<title>Node1&#45;&gt;Node2</title>
<path fill="none" stroke="midnightblue" d="M95.34,-162C103.46,-162 112.02,-162 120.49,-162"/>
<polygon fill="midnightblue" stroke="midnightblue" points="120.74,-165.5 130.74,-162 120.74,-158.5 120.74,-165.5"/>
</g>
<!-- Node3 -->
<g id="node3" class="node">
<title>Node3</title>
<g id="a_node3"><a xlink:href="group__as__iic__helpers.html#ga53e6050a2c66be89ac23084fd9de9c23" target="_top" xlink:title=" ">
<polygon fill="none" stroke="black" points="274,-152.5 274,-171.5 406,-171.5 406,-152.5 274,-152.5"/>
<text text-anchor="middle" x="340" y="-159.5" font-family="Helvetica,sans-Serif" font-size="10.00">as_iic_start_transaction</text>
</a>
</g>
</g>
<!-- Node2&#45;&gt;Node3 -->
<g id="edge2" class="edge">
<title>Node2&#45;&gt;Node3</title>
<path fill="none" stroke="midnightblue" d="M238.33,-162C246.55,-162 255.19,-162 263.8,-162"/>
<polygon fill="midnightblue" stroke="midnightblue" points="263.87,-165.5 273.87,-162 263.87,-158.5 263.87,-165.5"/>
</g>
<!-- Node22 -->
<g id="node22" class="node">
<title>Node22</title>
<g id="a_node22"><a xlink:href="group__as__iic__helpers.html#ga67cc002a1b20c75dc26f7b328ca5ddc9" target="_top" xlink:title=" ">
<polygon fill="none" stroke="black" points="442,-0.5 442,-19.5 603,-19.5 603,-0.5 442,-0.5"/>
<text text-anchor="middle" x="522.5" y="-7.5" font-family="Helvetica,sans-Serif" font-size="10.00">as_iic_stop_write_transaction</text>
</a>
</g>
</g>
<!-- Node2&#45;&gt;Node22 -->
<g id="edge34" class="edge">
<title>Node2&#45;&gt;Node22</title>
<path fill="none" stroke="midnightblue" d="M200.79,-152.36C239.64,-128.27 345.87,-64.8 442,-29 448.77,-26.48 455.98,-24.21 463.2,-22.19"/>
<polygon fill="midnightblue" stroke="midnightblue" points="464.24,-25.54 473.01,-19.6 462.45,-18.77 464.24,-25.54"/>
</g>
<!-- Node23 -->
<g id="node23" class="node">
<title>Node23</title>
<g id="a_node23"><a xlink:href="group__as__iic__helpers.html#gad5e0aa9a71f8f0f65e1fbded8134b11f" target="_top" xlink:title=" ">
<polygon fill="none" stroke="black" points="455.5,-304.5 455.5,-323.5 589.5,-323.5 589.5,-304.5 455.5,-304.5"/>
<text text-anchor="middle" x="522.5" y="-311.5" font-family="Helvetica,sans-Serif" font-size="10.00">as_iic_write_transaction</text>
</a>
</g>
</g>
<!-- Node2&#45;&gt;Node23 -->
<g id="edge35" class="edge">
<title>Node2&#45;&gt;Node23</title>
<path fill="none" stroke="midnightblue" d="M202.15,-171.56C242.36,-194.36 348.34,-252.8 442,-290 452.57,-294.2 464.17,-298.08 475.16,-301.46"/>
<polygon fill="midnightblue" stroke="midnightblue" points="474.46,-304.9 485.04,-304.4 476.46,-298.19 474.46,-304.9"/>
</g>
<!-- Node4 -->
<g id="node4" class="node">
<title>Node4</title>
<g id="a_node4"><a xlink:href="group__as__iic__bitchecks.html#gaa4e8718c748b5a7e956a38ffd6dbe15d" target="_top" xlink:title=" ">
<polygon fill="none" stroke="black" points="654,-152.5 654,-171.5 768,-171.5 768,-152.5 654,-152.5"/>
<text text-anchor="middle" x="711" y="-159.5" font-family="Helvetica,sans-Serif" font-size="10.00">as_iic_ack_received</text>
</a>
</g>
</g>
<!-- Node3&#45;&gt;Node4 -->
<g id="edge3" class="edge">
<title>Node3&#45;&gt;Node4</title>
<path fill="none" stroke="midnightblue" d="M406.12,-162C473.03,-162 576.65,-162 643.91,-162"/>
<polygon fill="midnightblue" stroke="midnightblue" points="643.98,-165.5 653.98,-162 643.98,-158.5 643.98,-165.5"/>
</g>
<!-- Node8 -->
<g id="node8" class="node">
<title>Node8</title>
<g id="a_node8"><a xlink:href="group__as__iic__wait.html#gad3cfec26b8a73166e060108cf1444a2b" target="_top" xlink:title=" ">
<polygon fill="none" stroke="black" points="652,-27 652,-57 770,-57 770,-27 652,-27"/>
<text text-anchor="start" x="660" y="-45" font-family="Helvetica,sans-Serif" font-size="10.00">as_iic_busy_wait_for</text>
<text text-anchor="middle" x="711" y="-34" font-family="Helvetica,sans-Serif" font-size="10.00">_hwready</text>
</a>
</g>
</g>
<!-- Node3&#45;&gt;Node8 -->
<g id="edge7" class="edge">
<title>Node3&#45;&gt;Node8</title>
<path fill="none" stroke="midnightblue" d="M356.92,-152.36C376.39,-140.91 410.64,-121.87 442,-110 460.7,-102.92 568.64,-76.24 641.7,-58.48"/>
<polygon fill="midnightblue" stroke="midnightblue" points="642.87,-61.79 651.76,-56.03 641.22,-54.99 642.87,-61.79"/>
</g>
<!-- Node9 -->
<g id="node9" class="node">
<title>Node9</title>
<g id="a_node9"><a xlink:href="group__as__iic__user.html#gacdb0c71d0fcfe5e50a7f7316762cd0c0" target="_top" xlink:title=" ">
<polygon fill="none" stroke="black" points="827,-76.5 827,-95.5 918,-95.5 918,-76.5 827,-76.5"/>
<text text-anchor="middle" x="872.5" y="-83.5" font-family="Helvetica,sans-Serif" font-size="10.00">as_iic_is_ready</text>
</a>
</g>
</g>
<!-- Node3&#45;&gt;Node9 -->
<g id="edge19" class="edge">
<title>Node3&#45;&gt;Node9</title>
<path fill="none" stroke="midnightblue" d="M406.05,-152.68C511.6,-137.56 718.27,-107.95 816.77,-93.84"/>
<polygon fill="midnightblue" stroke="midnightblue" points="817.41,-97.28 826.81,-92.4 816.42,-90.36 817.41,-97.28"/>
</g>
<!-- Node14 -->
<g id="node14" class="node">
<title>Node14</title>
<g id="a_node14"><a xlink:href="group__as__iic__wait.html#ga0bc5aad64893b674c42943fb64d17676" target="_top" xlink:title=" ">
<polygon fill="none" stroke="black" points="639,-190.5 639,-209.5 783,-209.5 783,-190.5 639,-190.5"/>
<text text-anchor="middle" x="711" y="-197.5" font-family="Helvetica,sans-Serif" font-size="10.00">as_iic_busy_wait_for_wait</text>
</a>
</g>
</g>
<!-- Node3&#45;&gt;Node14 -->
<g id="edge14" class="edge">
<title>Node3&#45;&gt;Node14</title>
<path fill="none" stroke="midnightblue" d="M406.14,-171.5C418.06,-173.1 430.39,-174.68 442,-176 504.57,-183.13 575.56,-189.41 628.75,-193.75"/>
<polygon fill="midnightblue" stroke="midnightblue" points="628.56,-197.25 638.81,-194.57 629.12,-190.27 628.56,-197.25"/>
</g>
<!-- Node16 -->
<g id="node16" class="node">
<title>Node16</title>
<g id="a_node16"><a xlink:href="group__as__iic__bitchecks.html#gad90ab4c2ed7fbca8f768c87cdb5794ee" target="_top" xlink:title=" ">
<polygon fill="none" stroke="black" points="467,-38.5 467,-57.5 578,-57.5 578,-38.5 467,-38.5"/>
<text text-anchor="middle" x="522.5" y="-45.5" font-family="Helvetica,sans-Serif" font-size="10.00">as_iic_is_initialized</text>
</a>
</g>
</g>
<!-- Node3&#45;&gt;Node16 -->
<g id="edge18" class="edge">
<title>Node3&#45;&gt;Node16</title>
<path fill="none" stroke="midnightblue" d="M349.15,-152.36C365.13,-134.06 402.45,-94.15 442,-72 450.04,-67.5 459.01,-63.75 467.96,-60.66"/>
<polygon fill="midnightblue" stroke="midnightblue" points="469.16,-63.95 477.61,-57.56 467.02,-57.28 469.16,-63.95"/>
</g>
<!-- Node17 -->
<g id="node17" class="node">
<title>Node17</title>
<g id="a_node17"><a xlink:href="group__as__iic__user.html#gae03c311fae3d6a830878a2b0c2c1c2bf" target="_top" xlink:title=" ">
<polygon fill="none" stroke="black" points="649,-228.5 649,-247.5 773,-247.5 773,-228.5 649,-228.5"/>
<text text-anchor="middle" x="711" y="-235.5" font-family="Helvetica,sans-Serif" font-size="10.00">as_iic_reset_hw_state</text>
</a>
</g>
</g>
<!-- Node3&#45;&gt;Node17 -->
<g id="edge20" class="edge">
<title>Node3&#45;&gt;Node17</title>
<path fill="none" stroke="midnightblue" d="M363.87,-171.59C384.09,-179.73 414.55,-191.13 442,-198 507.7,-214.45 584.27,-225.05 638.7,-231.17"/>
<polygon fill="midnightblue" stroke="midnightblue" points="638.61,-234.68 648.94,-232.3 639.38,-227.73 638.61,-234.68"/>
</g>
<!-- Node18 -->
<g id="node18" class="node">
<title>Node18</title>
<g id="a_node18"><a xlink:href="group__as__iic__reg__funcs.html#gac83a48fc09234a7a99adafb1ce565eb0" target="_top" xlink:title=" ">
<polygon fill="none" stroke="black" points="820.5,-266.5 820.5,-285.5 924.5,-285.5 924.5,-266.5 820.5,-266.5"/>
<text text-anchor="middle" x="872.5" y="-273.5" font-family="Helvetica,sans-Serif" font-size="10.00">as_iic_set_control</text>
</a>
</g>
</g>
<!-- Node3&#45;&gt;Node18 -->
<g id="edge24" class="edge">
<title>Node3&#45;&gt;Node18</title>
<path fill="none" stroke="midnightblue" d="M354.35,-171.59C377.3,-187.92 423.57,-220.03 442,-227 566.63,-274.12 724.96,-279.45 810.31,-278.29"/>
<polygon fill="midnightblue" stroke="midnightblue" points="810.41,-281.79 820.35,-278.12 810.29,-274.79 810.41,-281.79"/>
</g>
<!-- Node21 -->
<g id="node21" class="node">
<title>Node21</title>
<g id="a_node21"><a xlink:href="group__as__iic__reg__funcs.html#ga8058473baeded71954aa72ee8df24e9b" target="_top" xlink:title=" ">
<polygon fill="none" stroke="black" points="819,-342.5 819,-361.5 926,-361.5 926,-342.5 819,-342.5"/>
<text text-anchor="middle" x="872.5" y="-349.5" font-family="Helvetica,sans-Serif" font-size="10.00">as_iic_set_data_tx</text>
</a>
</g>
</g>
<!-- Node3&#45;&gt;Node21 -->
<g id="edge25" class="edge">
<title>Node3&#45;&gt;Node21</title>
<path fill="none" stroke="midnightblue" d="M343.31,-171.57C351.13,-201.59 379.65,-294.2 442,-333 562.45,-407.95 740.81,-382.08 824.68,-363.78"/>
<polygon fill="midnightblue" stroke="midnightblue" points="825.68,-367.14 834.67,-361.54 824.15,-360.31 825.68,-367.14"/>
</g>
<!-- Node3&#45;&gt;Node22 -->
<g id="edge28" class="edge">
<title>Node3&#45;&gt;Node22</title>
<path fill="none" stroke="midnightblue" d="M349.03,-152.45C361.53,-137.47 386.27,-107.45 406,-81 422.81,-58.47 418.8,-44.87 442,-29 444.9,-27.02 447.98,-25.24 451.18,-23.65"/>
<polygon fill="midnightblue" stroke="midnightblue" points="452.68,-26.81 460.47,-19.63 449.9,-20.39 452.68,-26.81"/>
</g>
<!-- Node5 -->
<g id="node5" class="node">
<title>Node5</title>
<g id="a_node5"><a xlink:href="group__as__iic__reg__funcs.html#ga8daa8fde0a7776aa2f5b335250b5aa2a" target="_top" xlink:title=" ">
<polygon fill="none" stroke="black" points="963.5,-171.5 963.5,-190.5 1085.5,-190.5 1085.5,-171.5 963.5,-171.5"/>
<text text-anchor="middle" x="1024.5" y="-178.5" font-family="Helvetica,sans-Serif" font-size="10.00">as_iic_get_status_reg</text>
</a>
</g>
</g>
<!-- Node4&#45;&gt;Node5 -->
<g id="edge4" class="edge">
<title>Node4&#45;&gt;Node5</title>
<path fill="none" stroke="midnightblue" d="M768.05,-165.42C819.91,-168.58 897.21,-173.3 953.19,-176.71"/>
<polygon fill="midnightblue" stroke="midnightblue" points="953.19,-180.22 963.38,-177.33 953.62,-173.23 953.19,-180.22"/>
</g>
<!-- Node6 -->
<g id="node6" class="node">
<title>Node6</title>
<g id="a_node6"><a xlink:href="group__asterics__support.html#ga8e5c2bfd2e4498d10289377bd94cef07" target="_top" xlink:title=" ">
<polygon fill="none" stroke="black" points="1141.5,-342.5 1141.5,-361.5 1217.5,-361.5 1217.5,-342.5 1141.5,-342.5"/>
<text text-anchor="middle" x="1179.5" y="-349.5" font-family="Helvetica,sans-Serif" font-size="10.00">as_reg_read</text>
</a>
</g>
</g>
<!-- Node5&#45;&gt;Node6 -->
<g id="edge5" class="edge">
<title>Node5&#45;&gt;Node6</title>
<path fill="none" stroke="midnightblue" d="M1030.94,-190.54C1044.4,-213.63 1081.25,-273.57 1123,-314 1131.86,-322.58 1142.86,-330.55 1152.73,-336.96"/>
<polygon fill="midnightblue" stroke="midnightblue" points="1151.04,-340.03 1161.37,-342.37 1154.75,-334.09 1151.04,-340.03"/>
</g>
<!-- Node7 -->
<g id="node7" class="node">
<title>Node7</title>
<g id="a_node7"><a xlink:href="group__asterics__support.html#ga4c6d688b840a6e2edc9bc0b8ed961677" target="_top" xlink:title=" ">
<polygon fill="none" stroke="black" points="1272,-342.5 1272,-361.5 1372,-361.5 1372,-342.5 1272,-342.5"/>
<text text-anchor="middle" x="1322" y="-349.5" font-family="Helvetica,sans-Serif" font-size="10.00">as_reg_to_uint32</text>
</a>
</g>
</g>
<!-- Node6&#45;&gt;Node7 -->
<g id="edge6" class="edge">
<title>Node6&#45;&gt;Node7</title>
<path fill="none" stroke="midnightblue" d="M1217.78,-352C1231.26,-352 1246.83,-352 1261.72,-352"/>
<polygon fill="midnightblue" stroke="midnightblue" points="1261.89,-355.5 1271.89,-352 1261.89,-348.5 1261.89,-355.5"/>
</g>
<!-- Node8&#45;&gt;Node9 -->
<g id="edge8" class="edge">
<title>Node8&#45;&gt;Node9</title>
<path fill="none" stroke="midnightblue" d="M766.44,-57.02C786.18,-62.46 808.22,-68.54 827,-73.72"/>
<polygon fill="midnightblue" stroke="midnightblue" points="826.21,-77.14 836.78,-76.42 828.07,-70.39 826.21,-77.14"/>
</g>
<!-- Node10 -->
<g id="node10" class="node">
<title>Node10</title>
<g id="a_node10"><a xlink:href="group__asterics__support.html#gab803703ab5b845023ca31b7b2664419c" target="_top" xlink:title=" ">
<polygon fill="none" stroke="black" points="843,-32.5 843,-51.5 902,-51.5 902,-32.5 843,-32.5"/>
<text text-anchor="middle" x="872.5" y="-39.5" font-family="Helvetica,sans-Serif" font-size="10.00">as_sleep</text>
</a>
</g>
</g>
<!-- Node8&#45;&gt;Node10 -->
<g id="edge10" class="edge">
<title>Node8&#45;&gt;Node10</title>
<path fill="none" stroke="midnightblue" d="M770.03,-42C790.83,-42 813.76,-42 832.55,-42"/>
<polygon fill="midnightblue" stroke="midnightblue" points="832.81,-45.5 842.81,-42 832.81,-38.5 832.81,-45.5"/>
</g>
<!-- Node9&#45;&gt;Node5 -->
<g id="edge9" class="edge">
<title>Node9&#45;&gt;Node5</title>
<path fill="none" stroke="midnightblue" d="M888.71,-95.63C914.88,-112.2 968.6,-146.23 999.74,-165.95"/>
<polygon fill="midnightblue" stroke="midnightblue" points="997.93,-168.95 1008.25,-171.34 1001.68,-163.04 997.93,-168.95"/>
</g>
<!-- Node11 -->
<g id="node11" class="node">
<title>Node11</title>
<g id="a_node11"><a xlink:href="group__asterics__support.html#ga284d9e0d170cf7cabc16ccd7e62d95bd" target="_top" xlink:title=" ">
<polygon fill="none" stroke="black" points="996,-32.5 996,-51.5 1053,-51.5 1053,-32.5 996,-32.5"/>
<text text-anchor="middle" x="1024.5" y="-39.5" font-family="Helvetica,sans-Serif" font-size="10.00">as_yield</text>
</a>
</g>
</g>
<!-- Node10&#45;&gt;Node11 -->
<g id="edge11" class="edge">
<title>Node10&#45;&gt;Node11</title>
<path fill="none" stroke="midnightblue" d="M902.07,-42C925.75,-42 959.62,-42 985.57,-42"/>
<polygon fill="midnightblue" stroke="midnightblue" points="985.8,-45.5 995.8,-42 985.8,-38.5 985.8,-45.5"/>
</g>
<!-- Node12 -->
<g id="node12" class="node">
<title>Node12</title>
<g id="a_node12"><a xlink:href="group__asterics__support.html#gad294e0c5530bd6fb800a2394179070e1" target="_top" xlink:title=" ">
<polygon fill="none" stroke="black" points="1134.5,-51.5 1134.5,-70.5 1224.5,-70.5 1224.5,-51.5 1134.5,-51.5"/>
<text text-anchor="middle" x="1179.5" y="-58.5" font-family="Helvetica,sans-Serif" font-size="10.00">as_mutex_lock</text>
</a>
</g>
</g>
<!-- Node11&#45;&gt;Node12 -->
<g id="edge12" class="edge">
<title>Node11&#45;&gt;Node12</title>
<path fill="none" stroke="midnightblue" d="M1053.21,-45.44C1073.02,-47.9 1100.34,-51.29 1124.41,-54.28"/>
<polygon fill="midnightblue" stroke="midnightblue" points="1124.14,-57.78 1134.49,-55.53 1125,-50.83 1124.14,-57.78"/>
</g>
<!-- Node13 -->
<g id="node13" class="node">
<title>Node13</title>
<g id="a_node13"><a xlink:href="group__asterics__support.html#ga07e09e825f2608339f6213edb9d0c8b3" target="_top" xlink:title=" ">
<polygon fill="none" stroke="black" points="1128.5,-13.5 1128.5,-32.5 1230.5,-32.5 1230.5,-13.5 1128.5,-13.5"/>
<text text-anchor="middle" x="1179.5" y="-20.5" font-family="Helvetica,sans-Serif" font-size="10.00">as_mutex_unlock</text>
</a>
</g>
</g>
<!-- Node11&#45;&gt;Node13 -->
<g id="edge13" class="edge">
<title>Node11&#45;&gt;Node13</title>
<path fill="none" stroke="midnightblue" d="M1053.21,-38.56C1071.35,-36.31 1095.79,-33.27 1118.26,-30.48"/>
<polygon fill="midnightblue" stroke="midnightblue" points="1118.92,-33.93 1128.41,-29.22 1118.06,-26.98 1118.92,-33.93"/>
</g>
<!-- Node14&#45;&gt;Node10 -->
<g id="edge17" class="edge">
<title>Node14&#45;&gt;Node10</title>
<path fill="none" stroke="midnightblue" d="M769.08,-190.48C774.18,-187.99 778.94,-184.88 783,-181 821.4,-144.27 784.12,-107.08 819,-67 823.03,-62.37 828.12,-58.52 833.52,-55.35"/>
<polygon fill="midnightblue" stroke="midnightblue" points="835.46,-58.29 842.79,-50.64 832.29,-52.05 835.46,-58.29"/>
</g>
<!-- Node15 -->
<g id="node15" class="node">
<title>Node15</title>
<g id="a_node15"><a xlink:href="group__as__iic__bitchecks.html#ga4629e4514c3531d0bcd44ae20abc6bad" target="_top" xlink:title=" ">
<polygon fill="none" stroke="black" points="823,-190.5 823,-209.5 922,-209.5 922,-190.5 823,-190.5"/>
<text text-anchor="middle" x="872.5" y="-197.5" font-family="Helvetica,sans-Serif" font-size="10.00">as_iic_is_waiting</text>
</a>
</g>
</g>
<!-- Node14&#45;&gt;Node15 -->
<g id="edge15" class="edge">
<title>Node14&#45;&gt;Node15</title>
<path fill="none" stroke="midnightblue" d="M783.35,-200C793.1,-200 803.01,-200 812.51,-200"/>
<polygon fill="midnightblue" stroke="midnightblue" points="812.62,-203.5 822.62,-200 812.62,-196.5 812.62,-203.5"/>
</g>
<!-- Node15&#45;&gt;Node5 -->
<g id="edge16" class="edge">
<title>Node15&#45;&gt;Node5</title>
<path fill="none" stroke="midnightblue" d="M922.2,-193.83C932.12,-192.57 942.74,-191.23 953.24,-189.9"/>
<polygon fill="midnightblue" stroke="midnightblue" points="953.76,-193.36 963.24,-188.63 952.88,-186.42 953.76,-193.36"/>
</g>
<!-- Node17&#45;&gt;Node18 -->
<g id="edge21" class="edge">
<title>Node17&#45;&gt;Node18</title>
<path fill="none" stroke="midnightblue" d="M752.25,-247.59C773.3,-252.6 799.26,-258.79 821.57,-264.11"/>
<polygon fill="midnightblue" stroke="midnightblue" points="821,-267.57 831.54,-266.48 822.62,-260.76 821,-267.57"/>
</g>
<!-- Node19 -->
<g id="node19" class="node">
<title>Node19</title>
<g id="a_node19"><a xlink:href="group__asterics__support.html#ga6345b997e24a6cd5f9143cef27629d49" target="_top" xlink:title=" ">
<polygon fill="none" stroke="black" points="985,-285.5 985,-304.5 1064,-304.5 1064,-285.5 985,-285.5"/>
<text text-anchor="middle" x="1024.5" y="-292.5" font-family="Helvetica,sans-Serif" font-size="10.00">as_reg_write</text>
</a>
</g>
</g>
<!-- Node18&#45;&gt;Node19 -->
<g id="edge22" class="edge">
<title>Node18&#45;&gt;Node19</title>
<path fill="none" stroke="midnightblue" d="M924.7,-282.49C940.85,-284.53 958.65,-286.79 974.63,-288.81"/>
<polygon fill="midnightblue" stroke="midnightblue" points="974.48,-292.32 984.84,-290.1 975.36,-285.37 974.48,-292.32"/>
</g>
<!-- Node20 -->
<g id="node20" class="node">
<title>Node20</title>
<g id="a_node20"><a xlink:href="group__asterics__support.html#gab651cc2c035ce61b354578434e59f822" target="_top" xlink:title=" ">
<polygon fill="none" stroke="black" points="1123,-285.5 1123,-304.5 1236,-304.5 1236,-285.5 1123,-285.5"/>
<text text-anchor="middle" x="1179.5" y="-292.5" font-family="Helvetica,sans-Serif" font-size="10.00">as_reg_from_uint32</text>
</a>
</g>
</g>
<!-- Node19&#45;&gt;Node20 -->
<g id="edge23" class="edge">
<title>Node19&#45;&gt;Node20</title>
<path fill="none" stroke="midnightblue" d="M1064.11,-295C1078.84,-295 1096.09,-295 1112.65,-295"/>
<polygon fill="midnightblue" stroke="midnightblue" points="1112.85,-298.5 1122.85,-295 1112.85,-291.5 1112.85,-298.5"/>
</g>
<!-- Node21&#45;&gt;Node6 -->
<g id="edge26" class="edge">
<title>Node21&#45;&gt;Node6</title>
<path fill="none" stroke="midnightblue" d="M926.28,-352C983.94,-352 1075.48,-352 1130.98,-352"/>
<polygon fill="midnightblue" stroke="midnightblue" points="1131.24,-355.5 1141.24,-352 1131.24,-348.5 1131.24,-355.5"/>
</g>
<!-- Node21&#45;&gt;Node19 -->
<g id="edge27" class="edge">
<title>Node21&#45;&gt;Node19</title>
<path fill="none" stroke="midnightblue" d="M898.61,-342.46C923.27,-333.09 961.1,-318.71 988.66,-308.24"/>
<polygon fill="midnightblue" stroke="midnightblue" points="990.21,-311.4 998.31,-304.57 987.72,-304.85 990.21,-311.4"/>
</g>
<!-- Node22&#45;&gt;Node4 -->
<g id="edge29" class="edge">
<title>Node22&#45;&gt;Node4</title>
<path fill="none" stroke="midnightblue" d="M588.86,-19.55C594.01,-22.05 598.82,-25.16 603,-29 640.57,-63.52 603.05,-101.8 639,-138 642.95,-141.98 647.59,-145.3 652.57,-148.07"/>
<polygon fill="midnightblue" stroke="midnightblue" points="651.29,-151.34 661.82,-152.49 654.3,-145.02 651.29,-151.34"/>
</g>
<!-- Node22&#45;&gt;Node8 -->
<g id="edge30" class="edge">
<title>Node22&#45;&gt;Node8</title>
<path fill="none" stroke="midnightblue" d="M578.95,-19.51C598.7,-22.9 621.17,-26.76 641.85,-30.31"/>
<polygon fill="midnightblue" stroke="midnightblue" points="641.4,-33.78 651.85,-32.02 642.58,-26.88 641.4,-33.78"/>
</g>
<!-- Node22&#45;&gt;Node10 -->
<g id="edge33" class="edge">
<title>Node22&#45;&gt;Node10</title>
<path fill="none" stroke="midnightblue" d="M603.17,-7.06C654.74,-6.41 723.19,-7.89 783,-17 800.22,-19.62 818.84,-24.55 834.53,-29.34"/>
<polygon fill="midnightblue" stroke="midnightblue" points="833.79,-32.78 844.38,-32.45 835.89,-26.1 833.79,-32.78"/>
</g>
<!-- Node22&#45;&gt;Node17 -->
<g id="edge31" class="edge">
<title>Node22&#45;&gt;Node17</title>
<path fill="none" stroke="midnightblue" d="M590.54,-19.58C595.14,-22.1 599.38,-25.2 603,-29 662.32,-91.19 580.52,-156.01 639,-219 640.22,-220.32 641.53,-221.55 642.9,-222.7"/>
<polygon fill="midnightblue" stroke="midnightblue" points="641.16,-225.74 651.41,-228.42 645.07,-219.94 641.16,-225.74"/>
</g>
<!-- Node22&#45;&gt;Node18 -->
<g id="edge32" class="edge">
<title>Node22&#45;&gt;Node18</title>
<path fill="none" stroke="midnightblue" d="M581.02,-19.61C588.68,-22.07 596.21,-25.14 603,-29 622.95,-40.34 620.67,-52.2 639,-66 696.99,-109.64 732.95,-90.45 783,-143 808.78,-170.06 798.1,-188.01 819,-219 828.93,-233.72 842.57,-248.41 853.46,-259.19"/>
<polygon fill="midnightblue" stroke="midnightblue" points="851.19,-261.86 860.81,-266.29 856.05,-256.83 851.19,-261.86"/>
</g>
<!-- Node23&#45;&gt;Node4 -->
<g id="edge36" class="edge">
<title>Node23&#45;&gt;Node4</title>
<path fill="none" stroke="midnightblue" d="M529.1,-304.22C543.75,-279.53 585.84,-214.23 639,-181 642.37,-178.89 645.98,-177.02 649.71,-175.35"/>
<polygon fill="midnightblue" stroke="midnightblue" points="651.16,-178.54 659.17,-171.61 648.59,-172.02 651.16,-178.54"/>
</g>
<!-- Node23&#45;&gt;Node14 -->
<g id="edge37" class="edge">
<title>Node23&#45;&gt;Node14</title>
<path fill="none" stroke="midnightblue" d="M532.38,-304.33C550.53,-285.15 593.97,-242.15 639,-219 643.49,-216.69 648.3,-214.64 653.21,-212.82"/>
<polygon fill="midnightblue" stroke="midnightblue" points="654.37,-216.13 662.73,-209.61 652.13,-209.49 654.37,-216.13"/>
</g>
<!-- Node23&#45;&gt;Node17 -->
<g id="edge41" class="edge">
<title>Node23&#45;&gt;Node17</title>
<path fill="none" stroke="midnightblue" d="M547.12,-304.37C580.05,-290.95 639.9,-266.57 677.16,-251.38"/>
<polygon fill="midnightblue" stroke="midnightblue" points="678.63,-254.56 686.57,-247.55 675.99,-248.08 678.63,-254.56"/>
</g>
<!-- Node23&#45;&gt;Node18 -->
<g id="edge42" class="edge">
<title>Node23&#45;&gt;Node18</title>
<path fill="none" stroke="midnightblue" d="M589.76,-309.06C642.27,-304.86 717.46,-298.21 783,-290 791.75,-288.9 800.96,-287.61 810,-286.25"/>
<polygon fill="midnightblue" stroke="midnightblue" points="810.75,-289.68 820.1,-284.71 809.69,-282.76 810.75,-289.68"/>
</g>
<!-- Node23&#45;&gt;Node21 -->
<g id="edge43" class="edge">
<title>Node23&#45;&gt;Node21</title>
<path fill="none" stroke="midnightblue" d="M589.78,-321.24C652.82,-328.12 746.98,-338.4 808.81,-345.15"/>
<polygon fill="midnightblue" stroke="midnightblue" points="808.5,-348.64 818.83,-346.25 809.26,-341.68 808.5,-348.64"/>
</g>
<!-- Node24 -->
<g id="node24" class="node">
<title>Node24</title>
<g id="a_node24"><a xlink:href="group__as__iic__bitchecks.html#ga2ef7a1f9767986f2033697f584cd4feb" target="_top" xlink:title=" ">
<polygon fill="none" stroke="black" points="656,-418.5 656,-437.5 766,-437.5 766,-418.5 656,-418.5"/>
<text text-anchor="middle" x="711" y="-425.5" font-family="Helvetica,sans-Serif" font-size="10.00">as_iic_is_readwrite</text>
</a>
</g>
</g>
<!-- Node23&#45;&gt;Node24 -->
<g id="edge38" class="edge">
<title>Node23&#45;&gt;Node24</title>
<path fill="none" stroke="midnightblue" d="M539.08,-323.52C571.58,-343.39 646.81,-389.37 685.72,-413.16"/>
<polygon fill="midnightblue" stroke="midnightblue" points="683.98,-416.19 694.33,-418.42 687.63,-410.22 683.98,-416.19"/>
</g>
<!-- Node25 -->
<g id="node25" class="node">
<title>Node25</title>
<g id="a_node25"><a xlink:href="group__as__iic__reg__funcs.html#gaca309e97934beed04c02e31ba9cfbd3a" target="_top" xlink:title=" ">
<polygon fill="none" stroke="black" points="962,-389.5 962,-408.5 1087,-408.5 1087,-389.5 962,-389.5"/>
<text text-anchor="middle" x="1024.5" y="-396.5" font-family="Helvetica,sans-Serif" font-size="10.00">as_iic_get_control_reg</text>
</a>
</g>
</g>
<!-- Node24&#45;&gt;Node25 -->
<g id="edge39" class="edge">
<title>Node24&#45;&gt;Node25</title>
<path fill="none" stroke="midnightblue" d="M766.26,-422.95C817.62,-418.17 895.07,-410.96 951.56,-405.7"/>
<polygon fill="midnightblue" stroke="midnightblue" points="952.22,-409.15 961.85,-404.74 951.57,-402.18 952.22,-409.15"/>
</g>
<!-- Node25&#45;&gt;Node6 -->
<g id="edge40" class="edge">
<title>Node25&#45;&gt;Node6</title>
<path fill="none" stroke="midnightblue" d="M1056.46,-389.49C1079.82,-382.31 1112.08,-372.4 1137.57,-364.57"/>
<polygon fill="midnightblue" stroke="midnightblue" points="1138.79,-367.86 1147.32,-361.58 1136.74,-361.17 1138.79,-367.86"/>
</g>
</g>
</svg>
