<?xml version="1.0" encoding="UTF-8" standalone="no"?>
<!DOCTYPE svg PUBLIC "-//W3C//DTD SVG 1.1//EN"
 "http://www.w3.org/Graphics/SVG/1.1/DTD/svg11.dtd">
<!-- Generated by graphviz version 2.43.0 (0)
 -->
<!-- Title: as_writer_set_enable Pages: 1 -->
<svg width="637pt" height="142pt"
 viewBox="0.00 0.00 637.00 142.00" xmlns="http://www.w3.org/2000/svg" xmlns:xlink="http://www.w3.org/1999/xlink">
<g id="graph0" class="graph" transform="scale(1 1) rotate(0) translate(4 138)">
<title>as_writer_set_enable</title>
<!-- Node1 -->
<g id="node1" class="node">
<title>Node1</title>
<g id="a_node1"><a xlink:title="Enable module input port.">
<polygon fill="#bfbfbf" stroke="black" points="509,-76.5 509,-95.5 629,-95.5 629,-76.5 509,-76.5"/>
<text text-anchor="middle" x="569" y="-83.5" font-family="Helvetica,sans-Serif" font-size="10.00">as_writer_set_enable</text>
</a>
</g>
</g>
<!-- Node2 -->
<g id="node2" class="node">
<title>Node2</title>
<g id="a_node2"><a xlink:href="as__memio_8c.html#a31a12ad0b581e08a50188766815dd93d" target="_top" xlink:title=" ">
<polygon fill="none" stroke="black" points="331,-104.5 331,-123.5 473,-123.5 473,-104.5 331,-104.5"/>
<text text-anchor="middle" x="402" y="-111.5" font-family="Helvetica,sans-Serif" font-size="10.00">as_memio_module_setup</text>
</a>
</g>
</g>
<!-- Node1&#45;&gt;Node2 -->
<g id="edge1" class="edge">
<title>Node1&#45;&gt;Node2</title>
<path fill="none" stroke="midnightblue" d="M501.56,-97.28C487.47,-99.67 472.73,-102.17 459.07,-104.49"/>
<polygon fill="midnightblue" stroke="midnightblue" points="502.4,-100.68 511.68,-95.56 501.23,-93.78 502.4,-100.68"/>
</g>
<!-- Node5 -->
<g id="node5" class="node">
<title>Node5</title>
<g id="a_node5"><a xlink:href="group__mmap__file__ops.html#ga93a1477871ee8b3e8071b60442a0ceb3" target="_top" xlink:title=" ">
<polygon fill="none" stroke="black" points="334,-57.5 334,-76.5 470,-76.5 470,-57.5 334,-57.5"/>
<text text-anchor="middle" x="402" y="-64.5" font-family="Helvetica,sans-Serif" font-size="10.00">as_mmap_start_transfer</text>
</a>
</g>
</g>
<!-- Node1&#45;&gt;Node5 -->
<g id="edge4" class="edge">
<title>Node1&#45;&gt;Node5</title>
<path fill="none" stroke="midnightblue" d="M498.73,-78.02C489.26,-76.93 479.54,-75.81 470.1,-74.73"/>
<polygon fill="midnightblue" stroke="midnightblue" points="498.56,-81.53 508.9,-79.19 499.36,-74.57 498.56,-81.53"/>
</g>
<!-- Node3 -->
<g id="node3" class="node">
<title>Node3</title>
<g id="a_node3"><a xlink:href="as__memio_8h.html#acb0c0a633ce7890008c6f6f1f2eca285" target="_top" xlink:title=" ">
<polygon fill="none" stroke="black" points="182.5,-114.5 182.5,-133.5 279.5,-133.5 279.5,-114.5 182.5,-114.5"/>
<text text-anchor="middle" x="231" y="-121.5" font-family="Helvetica,sans-Serif" font-size="10.00">as_memio_open</text>
</a>
</g>
</g>
<!-- Node2&#45;&gt;Node3 -->
<g id="edge2" class="edge">
<title>Node2&#45;&gt;Node3</title>
<path fill="none" stroke="midnightblue" d="M320.63,-118.76C306.6,-119.59 292.42,-120.43 279.63,-121.18"/>
<polygon fill="midnightblue" stroke="midnightblue" points="321.02,-122.24 330.8,-118.15 320.61,-115.25 321.02,-122.24"/>
</g>
<!-- Node4 -->
<g id="node4" class="node">
<title>Node4</title>
<g id="a_node4"><a xlink:href="group__memio__file__ops.html#ga6a581341bc6e2a1ed45c56c0fc7bcece" target="_top" xlink:title=" ">
<polygon fill="none" stroke="black" points="0,-114.5 0,-133.5 131,-133.5 131,-114.5 0,-114.5"/>
<text text-anchor="middle" x="65.5" y="-121.5" font-family="Helvetica,sans-Serif" font-size="10.00">driver_as_memio_open</text>
</a>
</g>
</g>
<!-- Node3&#45;&gt;Node4 -->
<g id="edge3" class="edge">
<title>Node3&#45;&gt;Node4</title>
<path fill="none" stroke="midnightblue" d="M172.27,-124C158.92,-124 144.63,-124 131.01,-124"/>
<polygon fill="midnightblue" stroke="midnightblue" points="172.27,-127.5 182.27,-124 172.27,-120.5 172.27,-127.5"/>
</g>
<!-- Node6 -->
<g id="node6" class="node">
<title>Node6</title>
<g id="a_node6"><a xlink:href="group__mmap__file__ops.html#gab078c489a563497f4da70a9f6115dfce" target="_top" xlink:title=" ">
<polygon fill="none" stroke="black" points="185.5,-76.5 185.5,-95.5 276.5,-95.5 276.5,-76.5 185.5,-76.5"/>
<text text-anchor="middle" x="231" y="-83.5" font-family="Helvetica,sans-Serif" font-size="10.00">as_mmap_ioctl</text>
</a>
</g>
</g>
<!-- Node5&#45;&gt;Node6 -->
<g id="edge5" class="edge">
<title>Node5&#45;&gt;Node6</title>
<path fill="none" stroke="midnightblue" d="M323.76,-75.68C307.66,-77.49 291.2,-79.34 276.75,-80.97"/>
<polygon fill="midnightblue" stroke="midnightblue" points="324.17,-79.16 333.72,-74.56 323.39,-72.2 324.17,-79.16"/>
</g>
<!-- Node7 -->
<g id="node7" class="node">
<title>Node7</title>
<g id="a_node7"><a xlink:href="group__mmap__file__ops.html#gae18f99f9774b7224e71d80209ecd0bf4" target="_top" xlink:title=" ">
<polygon fill="none" stroke="black" points="168.5,-38.5 168.5,-57.5 293.5,-57.5 293.5,-38.5 168.5,-38.5"/>
<text text-anchor="middle" x="231" y="-45.5" font-family="Helvetica,sans-Serif" font-size="10.00">driver_as_mmap_read</text>
</a>
</g>
</g>
<!-- Node5&#45;&gt;Node7 -->
<g id="edge6" class="edge">
<title>Node5&#45;&gt;Node7</title>
<path fill="none" stroke="midnightblue" d="M323.69,-58.31C313.59,-57.17 303.36,-56.02 293.57,-54.92"/>
<polygon fill="midnightblue" stroke="midnightblue" points="323.39,-61.8 333.72,-59.44 324.17,-54.84 323.39,-61.8"/>
</g>
<!-- Node8 -->
<g id="node8" class="node">
<title>Node8</title>
<g id="a_node8"><a xlink:href="group__mmap__file__ops.html#gaeea3980f5b633c4b83ff46b2efc2ea10" target="_top" xlink:title=" ">
<polygon fill="none" stroke="black" points="167,-0.5 167,-19.5 295,-19.5 295,-0.5 167,-0.5"/>
<text text-anchor="middle" x="231" y="-7.5" font-family="Helvetica,sans-Serif" font-size="10.00">driver_as_mmap_write</text>
</a>
</g>
</g>
<!-- Node5&#45;&gt;Node8 -->
<g id="edge7" class="edge">
<title>Node5&#45;&gt;Node8</title>
<path fill="none" stroke="midnightblue" d="M365.85,-53.89C345.28,-46.34 318.77,-36.84 295,-29 285.24,-25.78 274.55,-22.48 264.8,-19.54"/>
<polygon fill="midnightblue" stroke="midnightblue" points="364.83,-57.24 375.42,-57.42 367.25,-50.67 364.83,-57.24"/>
</g>
</g>
</svg>
