<?xml version="1.0" encoding="UTF-8" standalone="no"?>
<!DOCTYPE svg PUBLIC "-//W3C//DTD SVG 1.1//EN"
 "http://www.w3.org/Graphics/SVG/1.1/DTD/svg11.dtd">
<!-- Generated by graphviz version 2.43.0 (0)
 -->
<!-- Title: as_buffer_update_state Pages: 1 -->
<svg width="727pt" height="171pt"
 viewBox="0.00 0.00 727.00 171.00" xmlns="http://www.w3.org/2000/svg" xmlns:xlink="http://www.w3.org/1999/xlink">
<g id="graph0" class="graph" transform="scale(1 1) rotate(0) translate(4 167)">
<title>as_buffer_update_state</title>
<!-- Node1 -->
<g id="node1" class="node">
<title>Node1</title>
<g id="a_node1"><a xlink:title=" ">
<polygon fill="#bfbfbf" stroke="black" points="0,-72 0,-91 131,-91 131,-72 0,-72"/>
<text text-anchor="middle" x="65.5" y="-79" font-family="Helvetica,sans-Serif" font-size="10.00">as_buffer_update_state</text>
</a>
</g>
</g>
<!-- Node2 -->
<g id="node2" class="node">
<title>Node2</title>
<g id="a_node2"><a xlink:href="group__as__reader__writer.html#gaaea10b48e35a224a5870cd3322ffbec2" target="_top" xlink:title="Returns the next address on which the hardware will perform a write operation.">
<polygon fill="none" stroke="black" points="180.5,-132.5 180.5,-162.5 299.5,-162.5 299.5,-132.5 180.5,-132.5"/>
<text text-anchor="start" x="188.5" y="-150.5" font-family="Helvetica,sans-Serif" font-size="10.00">as_reader_writer_get</text>
<text text-anchor="middle" x="240" y="-139.5" font-family="Helvetica,sans-Serif" font-size="10.00">_cur_hw_addr</text>
</a>
</g>
</g>
<!-- Node1&#45;&gt;Node2 -->
<g id="edge1" class="edge">
<title>Node1&#45;&gt;Node2</title>
<path fill="none" stroke="midnightblue" d="M89.12,-91.13C109.4,-99.67 140.02,-112.32 167,-122.5 172.77,-124.68 178.82,-126.89 184.87,-129.05"/>
<polygon fill="midnightblue" stroke="midnightblue" points="183.72,-132.36 194.31,-132.4 186.06,-125.76 183.72,-132.36"/>
</g>
<!-- Node6 -->
<g id="node6" class="node">
<title>Node6</title>
<g id="a_node6"><a xlink:href="group__as__reader__writer.html#ga0e0a5b7e0dd6a14cb0f4251d00a783e8" target="_top" xlink:title="Checks if module is busy.">
<polygon fill="none" stroke="black" points="170,-94 170,-113 310,-113 310,-94 170,-94"/>
<text text-anchor="middle" x="240" y="-101" font-family="Helvetica,sans-Serif" font-size="10.00">as_reader_writer_is_busy</text>
</a>
</g>
</g>
<!-- Node1&#45;&gt;Node6 -->
<g id="edge5" class="edge">
<title>Node1&#45;&gt;Node6</title>
<path fill="none" stroke="midnightblue" d="M131.22,-89.75C140.59,-90.95 150.32,-92.19 159.93,-93.42"/>
<polygon fill="midnightblue" stroke="midnightblue" points="159.51,-96.89 169.87,-94.68 160.4,-89.95 159.51,-96.89"/>
</g>
<!-- Node8 -->
<g id="node8" class="node">
<title>Node8</title>
<g id="a_node8"><a xlink:href="as__cache_8c.html#ae76087a19400fcaebb8397a8a1ee828b" target="_top" xlink:title="Unmap DMA address at end of transfer.">
<polygon fill="none" stroke="black" points="189.5,-6 189.5,-25 290.5,-25 290.5,-6 189.5,-6"/>
<text text-anchor="middle" x="240" y="-13" font-family="Helvetica,sans-Serif" font-size="10.00">as_unmap_single</text>
</a>
</g>
</g>
<!-- Node1&#45;&gt;Node8 -->
<g id="edge9" class="edge">
<title>Node1&#45;&gt;Node8</title>
<path fill="none" stroke="midnightblue" d="M84.6,-71.82C104.41,-61.53 137.3,-45.26 167,-34.5 173.53,-32.13 180.5,-29.92 187.42,-27.91"/>
<polygon fill="midnightblue" stroke="midnightblue" points="188.8,-31.16 197.49,-25.1 186.91,-24.41 188.8,-31.16"/>
</g>
<!-- Node10 -->
<g id="node10" class="node">
<title>Node10</title>
<g id="a_node10"><a xlink:href="group__as__reader__writer.html#ga1ed314dbb9e93fbcbab70d4db197e3b6" target="_top" xlink:title="Returns the first address after the last successfully written unit.">
<polygon fill="none" stroke="black" points="167,-44.5 167,-74.5 313,-74.5 313,-44.5 167,-44.5"/>
<text text-anchor="start" x="175" y="-62.5" font-family="Helvetica,sans-Serif" font-size="10.00">as_writer_get_last</text>
<text text-anchor="middle" x="240" y="-51.5" font-family="Helvetica,sans-Serif" font-size="10.00">_data_unit_complete_addr</text>
</a>
</g>
</g>
<!-- Node1&#45;&gt;Node10 -->
<g id="edge11" class="edge">
<title>Node1&#45;&gt;Node10</title>
<path fill="none" stroke="midnightblue" d="M131.22,-73.25C139.61,-72.18 148.28,-71.07 156.9,-69.97"/>
<polygon fill="midnightblue" stroke="midnightblue" points="157.49,-73.42 166.97,-68.69 156.6,-66.48 157.49,-73.42"/>
</g>
<!-- Node3 -->
<g id="node3" class="node">
<title>Node3</title>
<g id="a_node3"><a xlink:href="group__asterics__support.html#gaa7520f5b717e163da743500adb2eb0b9" target="_top" xlink:title=" ">
<polygon fill="none" stroke="black" points="364.5,-88 364.5,-107 455.5,-107 455.5,-88 364.5,-88"/>
<text text-anchor="middle" x="410" y="-95" font-family="Helvetica,sans-Serif" font-size="10.00">as_module_reg</text>
</a>
</g>
</g>
<!-- Node2&#45;&gt;Node3 -->
<g id="edge2" class="edge">
<title>Node2&#45;&gt;Node3</title>
<path fill="none" stroke="midnightblue" d="M291.41,-132.5C315.57,-125.31 344.17,-116.79 367.12,-109.96"/>
<polygon fill="midnightblue" stroke="midnightblue" points="368.32,-113.26 376.9,-107.05 366.32,-106.55 368.32,-113.26"/>
</g>
<!-- Node4 -->
<g id="node4" class="node">
<title>Node4</title>
<g id="a_node4"><a xlink:href="group__asterics__support.html#ga8e5c2bfd2e4498d10289377bd94cef07" target="_top" xlink:title=" ">
<polygon fill="none" stroke="black" points="507,-126 507,-145 583,-145 583,-126 507,-126"/>
<text text-anchor="middle" x="545" y="-133" font-family="Helvetica,sans-Serif" font-size="10.00">as_reg_read</text>
</a>
</g>
</g>
<!-- Node2&#45;&gt;Node4 -->
<g id="edge3" class="edge">
<title>Node2&#45;&gt;Node4</title>
<path fill="none" stroke="midnightblue" d="M299.86,-154.37C346.47,-158.59 413.15,-161.91 471,-154.5 482.03,-153.09 493.76,-150.52 504.53,-147.73"/>
<polygon fill="midnightblue" stroke="midnightblue" points="505.78,-151.02 514.5,-145 503.93,-144.26 505.78,-151.02"/>
</g>
<!-- Node5 -->
<g id="node5" class="node">
<title>Node5</title>
<g id="a_node5"><a xlink:href="group__asterics__support.html#ga4c6d688b840a6e2edc9bc0b8ed961677" target="_top" xlink:title=" ">
<polygon fill="none" stroke="black" points="619,-126 619,-145 719,-145 719,-126 619,-126"/>
<text text-anchor="middle" x="669" y="-133" font-family="Helvetica,sans-Serif" font-size="10.00">as_reg_to_uint32</text>
</a>
</g>
</g>
<!-- Node4&#45;&gt;Node5 -->
<g id="edge4" class="edge">
<title>Node4&#45;&gt;Node5</title>
<path fill="none" stroke="midnightblue" d="M583.27,-135.5C591.33,-135.5 600.04,-135.5 608.71,-135.5"/>
<polygon fill="midnightblue" stroke="midnightblue" points="608.82,-139 618.82,-135.5 608.82,-132 608.82,-139"/>
</g>
<!-- Node6&#45;&gt;Node3 -->
<g id="edge6" class="edge">
<title>Node6&#45;&gt;Node3</title>
<path fill="none" stroke="midnightblue" d="M310.3,-101.02C324.85,-100.51 340.01,-99.96 353.95,-99.47"/>
<polygon fill="midnightblue" stroke="midnightblue" points="354.48,-102.95 364.35,-99.09 354.23,-95.95 354.48,-102.95"/>
</g>
<!-- Node7 -->
<g id="node7" class="node">
<title>Node7</title>
<g id="a_node7"><a xlink:href="group__asterics__support.html#ga36a2ed59c59831bee59daaae3cb6cb35" target="_top" xlink:title=" ">
<polygon fill="none" stroke="black" points="350.5,-126 350.5,-145 469.5,-145 469.5,-126 350.5,-126"/>
<text text-anchor="middle" x="410" y="-133" font-family="Helvetica,sans-Serif" font-size="10.00">as_reg_read_masked</text>
</a>
</g>
</g>
<!-- Node6&#45;&gt;Node7 -->
<g id="edge7" class="edge">
<title>Node6&#45;&gt;Node7</title>
<path fill="none" stroke="midnightblue" d="M290.95,-113.01C309.15,-116.48 329.92,-120.44 348.91,-124.05"/>
<polygon fill="midnightblue" stroke="midnightblue" points="348.47,-127.53 358.95,-125.97 349.78,-120.66 348.47,-127.53"/>
</g>
<!-- Node7&#45;&gt;Node4 -->
<g id="edge8" class="edge">
<title>Node7&#45;&gt;Node4</title>
<path fill="none" stroke="midnightblue" d="M469.72,-135.5C478.83,-135.5 488.13,-135.5 496.93,-135.5"/>
<polygon fill="midnightblue" stroke="midnightblue" points="496.99,-139 506.99,-135.5 496.99,-132 496.99,-139"/>
</g>
<!-- Node9 -->
<g id="node9" class="node">
<title>Node9</title>
<g id="a_node9"><a xlink:href="group__asterics__support.html#ga85ce164597e47f4aaee22c873e899d4b" target="_top" xlink:title=" ">
<polygon fill="none" stroke="black" points="349,-0.5 349,-30.5 471,-30.5 471,-0.5 349,-0.5"/>
<text text-anchor="start" x="357" y="-18.5" font-family="Helvetica,sans-Serif" font-size="10.00">as_dcache_invalidate</text>
<text text-anchor="middle" x="410" y="-7.5" font-family="Helvetica,sans-Serif" font-size="10.00">_range</text>
</a>
</g>
</g>
<!-- Node8&#45;&gt;Node9 -->
<g id="edge10" class="edge">
<title>Node8&#45;&gt;Node9</title>
<path fill="none" stroke="midnightblue" d="M290.95,-15.5C305.87,-15.5 322.51,-15.5 338.48,-15.5"/>
<polygon fill="midnightblue" stroke="midnightblue" points="338.86,-19 348.86,-15.5 338.86,-12 338.86,-19"/>
</g>
<!-- Node10&#45;&gt;Node3 -->
<g id="edge12" class="edge">
<title>Node10&#45;&gt;Node3</title>
<path fill="none" stroke="midnightblue" d="M307.4,-74.52C323.8,-78.23 341.14,-82.15 356.76,-85.68"/>
<polygon fill="midnightblue" stroke="midnightblue" points="356.22,-89.15 366.75,-87.94 357.77,-82.32 356.22,-89.15"/>
</g>
<!-- Node10&#45;&gt;Node4 -->
<g id="edge13" class="edge">
<title>Node10&#45;&gt;Node4</title>
<path fill="none" stroke="midnightblue" d="M313.07,-55.02C359.64,-54.61 420.72,-58.84 471,-78.5 493.28,-87.21 514.32,-105.05 528.04,-118.47"/>
<polygon fill="midnightblue" stroke="midnightblue" points="525.71,-121.09 535.22,-125.75 530.69,-116.17 525.71,-121.09"/>
</g>
</g>
</svg>
