<?xml version="1.0" encoding="UTF-8" standalone="no"?>
<!DOCTYPE svg PUBLIC "-//W3C//DTD SVG 1.1//EN"
 "http://www.w3.org/Graphics/SVG/1.1/DTD/svg11.dtd">
<!-- Generated by graphviz version 2.43.0 (0)
 -->
<!-- Title: vears_overlay_set_color Pages: 1 -->
<svg width="469pt" height="66pt"
 viewBox="0.00 0.00 469.00 66.00" xmlns="http://www.w3.org/2000/svg" xmlns:xlink="http://www.w3.org/1999/xlink">
<g id="graph0" class="graph" transform="scale(1 1) rotate(0) translate(4 62)">
<title>vears_overlay_set_color</title>
<!-- Node1 -->
<g id="node1" class="node">
<title>Node1</title>
<g id="a_node1"><a xlink:title="Set entry of the overlay color map.">
<polygon fill="#bfbfbf" stroke="black" points="326,-19.5 326,-38.5 461,-38.5 461,-19.5 326,-19.5"/>
<text text-anchor="middle" x="393.5" y="-26.5" font-family="Helvetica,sans-Serif" font-size="10.00">vears_overlay_set_color</text>
</a>
</g>
</g>
<!-- Node2 -->
<g id="node2" class="node">
<title>Node2</title>
<g id="a_node2"><a xlink:href="embedded__augmenter__lib_8h.html#a4ede650dcec2af74f2bb0473a9361d4a" target="_top" xlink:title=" ">
<polygon fill="none" stroke="black" points="199.5,-38.5 199.5,-57.5 277.5,-57.5 277.5,-38.5 199.5,-38.5"/>
<text text-anchor="middle" x="238.5" y="-45.5" font-family="Helvetica,sans-Serif" font-size="10.00">ea_set_color</text>
</a>
</g>
</g>
<!-- Node1&#45;&gt;Node2 -->
<g id="edge1" class="edge">
<title>Node1&#45;&gt;Node2</title>
<path fill="none" stroke="midnightblue" d="M315.78,-38.53C302.59,-40.17 289.41,-41.8 277.81,-43.24"/>
<polygon fill="midnightblue" stroke="midnightblue" points="316.34,-41.98 325.84,-37.28 315.48,-35.04 316.34,-41.98"/>
</g>
<!-- Node5 -->
<g id="node5" class="node">
<title>Node5</title>
<g id="a_node5"><a xlink:href="group__vears__driver.html#ga20c8ad70484fc5d6ad1d06b1d8330b49" target="_top" xlink:title="Enable the VEARS modules overlay operation.">
<polygon fill="none" stroke="black" points="187,-0.5 187,-19.5 290,-19.5 290,-0.5 187,-0.5"/>
<text text-anchor="middle" x="238.5" y="-7.5" font-family="Helvetica,sans-Serif" font-size="10.00">vears_overlay_on</text>
</a>
</g>
</g>
<!-- Node1&#45;&gt;Node5 -->
<g id="edge4" class="edge">
<title>Node1&#45;&gt;Node5</title>
<path fill="none" stroke="midnightblue" d="M315.73,-19.47C307.1,-18.39 298.48,-17.32 290.29,-16.31"/>
<polygon fill="midnightblue" stroke="midnightblue" points="315.48,-22.96 325.84,-20.72 316.34,-16.02 315.48,-22.96"/>
</g>
<!-- Node3 -->
<g id="node3" class="node">
<title>Node3</title>
<g id="a_node3"><a xlink:href="embedded__augmenter__lib_8h.html#a9bbd3aea6cfae13690dfb8986318add3" target="_top" xlink:title=" ">
<polygon fill="none" stroke="black" points="101,-38.5 101,-57.5 151,-57.5 151,-38.5 101,-38.5"/>
<text text-anchor="middle" x="126" y="-45.5" font-family="Helvetica,sans-Serif" font-size="10.00">ea_init</text>
</a>
</g>
</g>
<!-- Node2&#45;&gt;Node3 -->
<g id="edge2" class="edge">
<title>Node2&#45;&gt;Node3</title>
<path fill="none" stroke="midnightblue" d="M189.13,-48C176.02,-48 162.39,-48 151.25,-48"/>
<polygon fill="midnightblue" stroke="midnightblue" points="189.47,-51.5 199.47,-48 189.47,-44.5 189.47,-51.5"/>
</g>
<!-- Node4 -->
<g id="node4" class="node">
<title>Node4</title>
<g id="a_node4"><a xlink:href="group__vears__driver.html#ga37c9f106f54f6984a44897e5db7674a4" target="_top" xlink:title="Initialize and reset the VEARS module.">
<polygon fill="none" stroke="black" points="0,-38.5 0,-57.5 65,-57.5 65,-38.5 0,-38.5"/>
<text text-anchor="middle" x="32.5" y="-45.5" font-family="Helvetica,sans-Serif" font-size="10.00">vears_init</text>
</a>
</g>
</g>
<!-- Node3&#45;&gt;Node4 -->
<g id="edge3" class="edge">
<title>Node3&#45;&gt;Node4</title>
<path fill="none" stroke="midnightblue" d="M90.77,-48C82.42,-48 73.53,-48 65.3,-48"/>
<polygon fill="midnightblue" stroke="midnightblue" points="90.96,-51.5 100.96,-48 90.96,-44.5 90.96,-51.5"/>
</g>
</g>
</svg>
