<?xml version="1.0" encoding="UTF-8" standalone="no"?>
<!DOCTYPE svg PUBLIC "-//W3C//DTD SVG 1.1//EN"
 "http://www.w3.org/Graphics/SVG/1.1/DTD/svg11.dtd">
<!-- Generated by graphviz version 2.43.0 (0)
 -->
<!-- Title: as_iic_is_ready Pages: 1 -->
<svg width="1610pt" height="289pt"
 viewBox="0.00 0.00 1610.00 289.07" xmlns="http://www.w3.org/2000/svg" xmlns:xlink="http://www.w3.org/1999/xlink">
<g id="graph0" class="graph" transform="scale(1 1) rotate(0) translate(4 285.07)">
<title>as_iic_is_ready</title>
<!-- Node1 -->
<g id="node1" class="node">
<title>Node1</title>
<g id="a_node1"><a xlink:title=" ">
<polygon fill="#bfbfbf" stroke="black" points="1511,-209.5 1511,-228.5 1602,-228.5 1602,-209.5 1511,-209.5"/>
<text text-anchor="middle" x="1556.5" y="-216.5" font-family="Helvetica,sans-Serif" font-size="10.00">as_iic_is_ready</text>
</a>
</g>
</g>
<!-- Node2 -->
<g id="node2" class="node">
<title>Node2</title>
<g id="a_node2"><a xlink:href="group__as__iic__wait.html#gad3cfec26b8a73166e060108cf1444a2b" target="_top" xlink:title=" ">
<polygon fill="none" stroke="black" points="1357,-166 1357,-196 1475,-196 1475,-166 1357,-166"/>
<text text-anchor="start" x="1365" y="-184" font-family="Helvetica,sans-Serif" font-size="10.00">as_iic_busy_wait_for</text>
<text text-anchor="middle" x="1416" y="-173" font-family="Helvetica,sans-Serif" font-size="10.00">_hwready</text>
</a>
</g>
</g>
<!-- Node1&#45;&gt;Node2 -->
<g id="edge1" class="edge">
<title>Node1&#45;&gt;Node2</title>
<path fill="none" stroke="midnightblue" d="M1510.89,-206.76C1498.46,-203.35 1484.83,-199.61 1471.89,-196.06"/>
<polygon fill="midnightblue" stroke="midnightblue" points="1509.98,-210.14 1520.55,-209.41 1511.83,-203.39 1509.98,-210.14"/>
</g>
<!-- Node4 -->
<g id="node4" class="node">
<title>Node4</title>
<g id="a_node4"><a xlink:href="group__as__iic__helpers.html#ga53e6050a2c66be89ac23084fd9de9c23" target="_top" xlink:title=" ">
<polygon fill="none" stroke="black" points="979,-171.5 979,-190.5 1111,-190.5 1111,-171.5 979,-171.5"/>
<text text-anchor="middle" x="1045" y="-178.5" font-family="Helvetica,sans-Serif" font-size="10.00">as_iic_start_transaction</text>
</a>
</g>
</g>
<!-- Node1&#45;&gt;Node4 -->
<g id="edge39" class="edge">
<title>Node1&#45;&gt;Node4</title>
<path fill="none" stroke="midnightblue" d="M1500.61,-216.74C1424.17,-213.35 1281.36,-206.12 1160,-195 1144.11,-193.54 1127.02,-191.63 1111.03,-189.69"/>
<polygon fill="midnightblue" stroke="midnightblue" points="1500.8,-220.25 1510.95,-217.19 1501.11,-213.26 1500.8,-220.25"/>
</g>
<!-- Node3 -->
<g id="node3" class="node">
<title>Node3</title>
<g id="a_node3"><a xlink:href="group__as__iic__user.html#ga77245afd24eadd52f5845e23d82e777a" target="_top" xlink:title=" ">
<polygon fill="none" stroke="black" points="1208,-133.5 1208,-152.5 1273,-152.5 1273,-133.5 1208,-133.5"/>
<text text-anchor="middle" x="1240.5" y="-140.5" font-family="Helvetica,sans-Serif" font-size="10.00">as_iic_init</text>
</a>
</g>
</g>
<!-- Node2&#45;&gt;Node3 -->
<g id="edge2" class="edge">
<title>Node2&#45;&gt;Node3</title>
<path fill="none" stroke="midnightblue" d="M1346.75,-166.05C1321.32,-160.48 1293.65,-154.42 1273.07,-149.92"/>
<polygon fill="midnightblue" stroke="midnightblue" points="1346.23,-169.52 1356.74,-168.24 1347.72,-162.68 1346.23,-169.52"/>
</g>
<!-- Node2&#45;&gt;Node4 -->
<g id="edge3" class="edge">
<title>Node2&#45;&gt;Node4</title>
<path fill="none" stroke="midnightblue" d="M1346.86,-181C1279.58,-181 1177.42,-181 1111.18,-181"/>
<polygon fill="midnightblue" stroke="midnightblue" points="1346.94,-184.5 1356.94,-181 1346.94,-177.5 1346.94,-184.5"/>
</g>
<!-- Node25 -->
<g id="node25" class="node">
<title>Node25</title>
<g id="a_node25"><a xlink:href="group__as__iic__helpers.html#gaa8ce9ac10b8c2ca9b614110ca5cbeff5" target="_top" xlink:title=" ">
<polygon fill="none" stroke="black" points="966,-228.5 966,-247.5 1124,-247.5 1124,-228.5 966,-228.5"/>
<text text-anchor="middle" x="1045" y="-235.5" font-family="Helvetica,sans-Serif" font-size="10.00">as_iic_stop_read_transaction</text>
</a>
</g>
</g>
<!-- Node2&#45;&gt;Node25 -->
<g id="edge30" class="edge">
<title>Node2&#45;&gt;Node25</title>
<path fill="none" stroke="midnightblue" d="M1346.69,-191.55C1278.22,-202.13 1173.76,-218.26 1107.72,-228.47"/>
<polygon fill="midnightblue" stroke="midnightblue" points="1347.59,-194.95 1356.94,-189.97 1346.52,-188.04 1347.59,-194.95"/>
</g>
<!-- Node26 -->
<g id="node26" class="node">
<title>Node26</title>
<g id="a_node26"><a xlink:href="group__as__iic__helpers.html#ga67cc002a1b20c75dc26f7b328ca5ddc9" target="_top" xlink:title=" ">
<polygon fill="none" stroke="black" points="1160,-95.5 1160,-114.5 1321,-114.5 1321,-95.5 1160,-95.5"/>
<text text-anchor="middle" x="1240.5" y="-102.5" font-family="Helvetica,sans-Serif" font-size="10.00">as_iic_stop_write_transaction</text>
</a>
</g>
</g>
<!-- Node2&#45;&gt;Node26 -->
<g id="edge34" class="edge">
<title>Node2&#45;&gt;Node26</title>
<path fill="none" stroke="midnightblue" d="M1386.04,-160.19C1368.06,-148.12 1344.06,-133.47 1321,-124 1311.81,-120.22 1301.7,-117.09 1291.87,-114.54"/>
<polygon fill="midnightblue" stroke="midnightblue" points="1384.12,-163.12 1394.35,-165.88 1388.07,-157.35 1384.12,-163.12"/>
</g>
<!-- Node5 -->
<g id="node5" class="node">
<title>Node5</title>
<g id="a_node5"><a xlink:href="group__as__iic__user.html#ga30385c0c387c1629188745edf9c824c1" target="_top" xlink:title=" ">
<polygon fill="none" stroke="black" points="806.5,-171.5 806.5,-190.5 925.5,-190.5 925.5,-171.5 806.5,-171.5"/>
<text text-anchor="middle" x="866" y="-178.5" font-family="Helvetica,sans-Serif" font-size="10.00">as_iic_get_byte_mod</text>
</a>
</g>
</g>
<!-- Node4&#45;&gt;Node5 -->
<g id="edge4" class="edge">
<title>Node4&#45;&gt;Node5</title>
<path fill="none" stroke="midnightblue" d="M968.5,-181C954.14,-181 939.31,-181 925.58,-181"/>
<polygon fill="midnightblue" stroke="midnightblue" points="968.85,-184.5 978.85,-181 968.85,-177.5 968.85,-184.5"/>
</g>
<!-- Node15 -->
<g id="node15" class="node">
<title>Node15</title>
<g id="a_node15"><a xlink:href="group__as__iic__user.html#ga76b6915b73f14abb8a200df4eefde6f3" target="_top" xlink:title=" ">
<polygon fill="none" stroke="black" points="817,-247.5 817,-266.5 915,-266.5 915,-247.5 817,-247.5"/>
<text text-anchor="middle" x="866" y="-254.5" font-family="Helvetica,sans-Serif" font-size="10.00">as_iic_get_bytes</text>
</a>
</g>
</g>
<!-- Node4&#45;&gt;Node15 -->
<g id="edge16" class="edge">
<title>Node4&#45;&gt;Node15</title>
<path fill="none" stroke="midnightblue" d="M1014.82,-194.93C991.92,-205.72 959.15,-220.81 930,-233 918.01,-238.01 904.58,-243.19 893.2,-247.45"/>
<polygon fill="midnightblue" stroke="midnightblue" points="1016.45,-198.04 1023.99,-190.6 1013.45,-191.71 1016.45,-198.04"/>
</g>
<!-- Node16 -->
<g id="node16" class="node">
<title>Node16</title>
<g id="a_node16"><a xlink:href="group__as__iic__user.html#ga987a7c89e5d900225a42f04583e0cfe7" target="_top" xlink:title=" ">
<polygon fill="none" stroke="black" points="531,-209.5 531,-228.5 629,-228.5 629,-209.5 531,-209.5"/>
<text text-anchor="middle" x="580" y="-216.5" font-family="Helvetica,sans-Serif" font-size="10.00">as_iic_read_regs</text>
</a>
</g>
</g>
<!-- Node4&#45;&gt;Node16 -->
<g id="edge17" class="edge">
<title>Node4&#45;&gt;Node16</title>
<path fill="none" stroke="midnightblue" d="M984.19,-192.25C966.77,-195.18 947.67,-198.05 930,-200 822.94,-211.8 696.56,-216.37 629.12,-218.06"/>
<polygon fill="midnightblue" stroke="midnightblue" points="984.96,-195.67 994.22,-190.53 983.78,-188.77 984.96,-195.67"/>
</g>
<!-- Node17 -->
<g id="node17" class="node">
<title>Node17</title>
<g id="a_node17"><a xlink:href="group__as__iic__user.html#ga5c5233652491e648a88292ae73b49ace" target="_top" xlink:title=" ">
<polygon fill="none" stroke="black" points="806,-95.5 806,-114.5 926,-114.5 926,-95.5 806,-95.5"/>
<text text-anchor="middle" x="866" y="-102.5" font-family="Helvetica,sans-Serif" font-size="10.00">as_iic_set_regpointer</text>
</a>
</g>
</g>
<!-- Node4&#45;&gt;Node17 -->
<g id="edge18" class="edge">
<title>Node4&#45;&gt;Node17</title>
<path fill="none" stroke="midnightblue" d="M1018.04,-166.42C995.3,-154.04 961.13,-136.37 930,-124 921.19,-120.5 911.47,-117.27 902.35,-114.51"/>
<polygon fill="midnightblue" stroke="midnightblue" points="1016.59,-169.62 1027.04,-171.37 1019.96,-163.48 1016.59,-169.62"/>
</g>
<!-- Node18 -->
<g id="node18" class="node">
<title>Node18</title>
<g id="a_node18"><a xlink:href="group__as__iic__user.html#ga08fcff0dba9d6b4898291746d2206408" target="_top" xlink:title=" ">
<polygon fill="none" stroke="black" points="802,-133.5 802,-152.5 930,-152.5 930,-133.5 802,-133.5"/>
<text text-anchor="middle" x="866" y="-140.5" font-family="Helvetica,sans-Serif" font-size="10.00">as_iic_write_byte_mod</text>
</a>
</g>
</g>
<!-- Node4&#45;&gt;Node18 -->
<g id="edge19" class="edge">
<title>Node4&#45;&gt;Node18</title>
<path fill="none" stroke="midnightblue" d="M989.26,-169.25C964.23,-163.87 934.97,-157.59 911.34,-152.52"/>
<polygon fill="midnightblue" stroke="midnightblue" points="988.82,-172.73 999.34,-171.41 990.29,-165.89 988.82,-172.73"/>
</g>
<!-- Node20 -->
<g id="node20" class="node">
<title>Node20</title>
<g id="a_node20"><a xlink:href="group__as__iic__user.html#ga2a4e5ee19e84cc95de665e29b92ccda1" target="_top" xlink:title=" ">
<polygon fill="none" stroke="black" points="812.5,-57.5 812.5,-76.5 919.5,-76.5 919.5,-57.5 812.5,-57.5"/>
<text text-anchor="middle" x="866" y="-64.5" font-family="Helvetica,sans-Serif" font-size="10.00">as_iic_write_bytes</text>
</a>
</g>
</g>
<!-- Node4&#45;&gt;Node20 -->
<g id="edge23" class="edge">
<title>Node4&#45;&gt;Node20</title>
<path fill="none" stroke="midnightblue" d="M1028.16,-164.15C1007.47,-143.05 969.22,-107.12 930,-86 922.96,-82.21 915.06,-79.07 907.29,-76.51"/>
<polygon fill="midnightblue" stroke="midnightblue" points="1025.74,-166.68 1035.2,-171.44 1030.78,-161.82 1025.74,-166.68"/>
</g>
<!-- Node6 -->
<g id="node6" class="node">
<title>Node6</title>
<g id="a_node6"><a xlink:href="group__as__iic__user.html#gacf3e3b915e1f15ed8bdc60ab4c129996" target="_top" xlink:title=" ">
<polygon fill="none" stroke="black" points="669.5,-133.5 669.5,-152.5 761.5,-152.5 761.5,-133.5 669.5,-133.5"/>
<text text-anchor="middle" x="715.5" y="-140.5" font-family="Helvetica,sans-Serif" font-size="10.00">as_iic_get_byte</text>
</a>
</g>
</g>
<!-- Node5&#45;&gt;Node6 -->
<g id="edge5" class="edge">
<title>Node5&#45;&gt;Node6</title>
<path fill="none" stroke="midnightblue" d="M817.67,-168.89C796.99,-163.6 773.08,-157.48 753.7,-152.52"/>
<polygon fill="midnightblue" stroke="midnightblue" points="816.97,-172.32 827.53,-171.41 818.71,-165.54 816.97,-172.32"/>
</g>
<!-- Node7 -->
<g id="node7" class="node">
<title>Node7</title>
<g id="a_node7"><a xlink:href="group__as__iic__user.html#ga812d9e16a61b39777a5fbffc7eccbc8d" target="_top" xlink:title=" ">
<polygon fill="none" stroke="black" points="534,-152.5 534,-171.5 626,-171.5 626,-152.5 534,-152.5"/>
<text text-anchor="middle" x="580" y="-159.5" font-family="Helvetica,sans-Serif" font-size="10.00">as_iic_read_reg</text>
</a>
</g>
</g>
<!-- Node6&#45;&gt;Node7 -->
<g id="edge6" class="edge">
<title>Node6&#45;&gt;Node7</title>
<path fill="none" stroke="midnightblue" d="M659.32,-150.85C648.28,-152.42 636.8,-154.06 626.15,-155.57"/>
<polygon fill="midnightblue" stroke="midnightblue" points="659.9,-154.31 669.3,-149.43 658.91,-147.38 659.9,-154.31"/>
</g>
<!-- Node8 -->
<g id="node8" class="node">
<title>Node8</title>
<g id="a_node8"><a xlink:href="as__sensor__ov7670_8c.html#acb25afaea3e81940c50e327c45921f08" target="_top" xlink:title=" ">
<polygon fill="none" stroke="black" points="384,-152.5 384,-171.5 495,-171.5 495,-152.5 384,-152.5"/>
<text text-anchor="middle" x="439.5" y="-159.5" font-family="Helvetica,sans-Serif" font-size="10.00">ov7670_iic_reg_get</text>
</a>
</g>
</g>
<!-- Node7&#45;&gt;Node8 -->
<g id="edge7" class="edge">
<title>Node7&#45;&gt;Node8</title>
<path fill="none" stroke="midnightblue" d="M523.63,-162C514.24,-162 504.5,-162 495.13,-162"/>
<polygon fill="midnightblue" stroke="midnightblue" points="523.65,-165.5 533.65,-162 523.65,-158.5 523.65,-165.5"/>
</g>
<!-- Node9 -->
<g id="node9" class="node">
<title>Node9</title>
<g id="a_node9"><a xlink:href="group__as__sensor__ov7670.html#ga55b52e2499f96009197bfe90af6c7a41" target="_top" xlink:title=" ">
<polygon fill="none" stroke="black" points="164,-114.5 164,-133.5 348,-133.5 348,-114.5 164,-114.5"/>
<text text-anchor="middle" x="256" y="-121.5" font-family="Helvetica,sans-Serif" font-size="10.00">as_sensor_ov7670_exposure_auto</text>
</a>
</g>
</g>
<!-- Node8&#45;&gt;Node9 -->
<g id="edge8" class="edge">
<title>Node8&#45;&gt;Node9</title>
<path fill="none" stroke="midnightblue" d="M382.95,-150.33C371.4,-147.9 359.3,-145.37 348,-143 333.31,-139.92 317.28,-136.58 302.83,-133.56"/>
<polygon fill="midnightblue" stroke="midnightblue" points="382.42,-153.79 392.93,-152.42 383.86,-146.94 382.42,-153.79"/>
</g>
<!-- Node11 -->
<g id="node11" class="node">
<title>Node11</title>
<g id="a_node11"><a xlink:href="group__as__sensor__ov7670.html#gae1b977db2733432317fee8f0497eb67a" target="_top" xlink:title=" ">
<polygon fill="none" stroke="black" points="167,-190.5 167,-209.5 345,-209.5 345,-190.5 167,-190.5"/>
<text text-anchor="middle" x="256" y="-197.5" font-family="Helvetica,sans-Serif" font-size="10.00">as_sensor_ov7670_exposure_get</text>
</a>
</g>
</g>
<!-- Node8&#45;&gt;Node11 -->
<g id="edge10" class="edge">
<title>Node8&#45;&gt;Node11</title>
<path fill="none" stroke="midnightblue" d="M382.95,-173.67C371.4,-176.1 359.3,-178.63 348,-181 333.31,-184.08 317.28,-187.42 302.83,-190.44"/>
<polygon fill="midnightblue" stroke="midnightblue" points="383.86,-177.06 392.93,-171.58 382.42,-170.21 383.86,-177.06"/>
</g>
<!-- Node12 -->
<g id="node12" class="node">
<title>Node12</title>
<g id="a_node12"><a xlink:href="group__as__sensor__ov7670.html#gadd11863e70497418c9d31c922945cbec" target="_top" xlink:title=" ">
<polygon fill="none" stroke="black" points="176,-76.5 176,-95.5 336,-95.5 336,-76.5 176,-76.5"/>
<text text-anchor="middle" x="256" y="-83.5" font-family="Helvetica,sans-Serif" font-size="10.00">as_sensor_ov7670_gain_auto</text>
</a>
</g>
</g>
<!-- Node8&#45;&gt;Node12 -->
<g id="edge11" class="edge">
<title>Node8&#45;&gt;Node12</title>
<path fill="none" stroke="midnightblue" d="M418.04,-146.11C400.41,-133.18 373.8,-115.42 348,-105 338.42,-101.13 327.95,-98.01 317.62,-95.5"/>
<polygon fill="midnightblue" stroke="midnightblue" points="416.29,-149.17 426.39,-152.37 420.48,-143.57 416.29,-149.17"/>
</g>
<!-- Node13 -->
<g id="node13" class="node">
<title>Node13</title>
<g id="a_node13"><a xlink:href="group__as__sensor__ov7670.html#ga75ee4d998c858b26adae16b8140e8637" target="_top" xlink:title=" ">
<polygon fill="none" stroke="black" points="179,-228.5 179,-247.5 333,-247.5 333,-228.5 179,-228.5"/>
<text text-anchor="middle" x="256" y="-235.5" font-family="Helvetica,sans-Serif" font-size="10.00">as_sensor_ov7670_gain_get</text>
</a>
</g>
</g>
<!-- Node8&#45;&gt;Node13 -->
<g id="edge13" class="edge">
<title>Node8&#45;&gt;Node13</title>
<path fill="none" stroke="midnightblue" d="M418.04,-177.89C400.41,-190.82 373.8,-208.58 348,-219 338.42,-222.87 327.95,-225.99 317.62,-228.5"/>
<polygon fill="midnightblue" stroke="midnightblue" points="420.48,-180.43 426.39,-171.63 416.29,-174.83 420.48,-180.43"/>
</g>
<!-- Node14 -->
<g id="node14" class="node">
<title>Node14</title>
<g id="a_node14"><a xlink:href="as__sensor__ov7670_8c.html#ab5de18dc5dd74817505126a51487b8b1" target="_top" xlink:title=" ">
<polygon fill="none" stroke="black" points="181.5,-152.5 181.5,-171.5 330.5,-171.5 330.5,-152.5 181.5,-152.5"/>
<text text-anchor="middle" x="256" y="-159.5" font-family="Helvetica,sans-Serif" font-size="10.00">as_sensor_ov7670_identify</text>
</a>
</g>
</g>
<!-- Node8&#45;&gt;Node14 -->
<g id="edge14" class="edge">
<title>Node8&#45;&gt;Node14</title>
<path fill="none" stroke="midnightblue" d="M373.16,-162C359.33,-162 344.64,-162 330.53,-162"/>
<polygon fill="midnightblue" stroke="midnightblue" points="373.55,-165.5 383.55,-162 373.55,-158.5 373.55,-165.5"/>
</g>
<!-- Node10 -->
<g id="node10" class="node">
<title>Node10</title>
<g id="a_node10"><a xlink:href="group__as__sensor__ov7670.html#ga419a3339eac0f6abb8eafe24e468ae49" target="_top" xlink:title=" ">
<polygon fill="none" stroke="black" points="0,-114.5 0,-133.5 128,-133.5 128,-114.5 0,-114.5"/>
<text text-anchor="middle" x="64" y="-121.5" font-family="Helvetica,sans-Serif" font-size="10.00">as_sensor_ov7670_init</text>
</a>
</g>
</g>
<!-- Node9&#45;&gt;Node10 -->
<g id="edge9" class="edge">
<title>Node9&#45;&gt;Node10</title>
<path fill="none" stroke="midnightblue" d="M153.69,-124C145,-124 136.39,-124 128.14,-124"/>
<polygon fill="midnightblue" stroke="midnightblue" points="153.9,-127.5 163.9,-124 153.9,-120.5 153.9,-127.5"/>
</g>
<!-- Node12&#45;&gt;Node10 -->
<g id="edge12" class="edge">
<title>Node12&#45;&gt;Node10</title>
<path fill="none" stroke="midnightblue" d="M196.95,-97.61C169.93,-103.01 138.18,-109.36 112.6,-114.48"/>
<polygon fill="midnightblue" stroke="midnightblue" points="197.94,-100.98 207.05,-95.59 196.56,-94.12 197.94,-100.98"/>
</g>
<!-- Node14&#45;&gt;Node10 -->
<g id="edge15" class="edge">
<title>Node14&#45;&gt;Node10</title>
<path fill="none" stroke="midnightblue" d="M196.95,-150.39C169.93,-144.99 138.18,-138.64 112.6,-133.52"/>
<polygon fill="midnightblue" stroke="midnightblue" points="196.56,-153.88 207.05,-152.41 197.94,-147.02 196.56,-153.88"/>
</g>
<!-- Node19 -->
<g id="node19" class="node">
<title>Node19</title>
<g id="a_node19"><a xlink:href="group__as__iic__user.html#ga35cd65c29b1f4abd1ca87ca51605e5cc" target="_top" xlink:title=" ">
<polygon fill="none" stroke="black" points="665,-171.5 665,-190.5 766,-190.5 766,-171.5 665,-171.5"/>
<text text-anchor="middle" x="715.5" y="-178.5" font-family="Helvetica,sans-Serif" font-size="10.00">as_iic_write_byte</text>
</a>
</g>
</g>
<!-- Node18&#45;&gt;Node19 -->
<g id="edge20" class="edge">
<title>Node18&#45;&gt;Node19</title>
<path fill="none" stroke="midnightblue" d="M817.67,-155.11C796.99,-160.4 773.08,-166.52 753.7,-171.48"/>
<polygon fill="midnightblue" stroke="midnightblue" points="818.71,-158.46 827.53,-152.59 816.97,-151.68 818.71,-158.46"/>
</g>
<!-- Node19&#45;&gt;Node7 -->
<g id="edge21" class="edge">
<title>Node19&#45;&gt;Node7</title>
<path fill="none" stroke="midnightblue" d="M654.6,-172.47C645.11,-171.12 635.43,-169.75 626.34,-168.45"/>
<polygon fill="midnightblue" stroke="midnightblue" points="654.4,-175.98 664.79,-173.93 655.38,-169.05 654.4,-175.98"/>
</g>
<!-- Node19&#45;&gt;Node16 -->
<g id="edge22" class="edge">
<title>Node19&#45;&gt;Node16</title>
<path fill="none" stroke="midnightblue" d="M670.97,-193.39C652.69,-198.59 631.75,-204.55 614.68,-209.41"/>
<polygon fill="midnightblue" stroke="midnightblue" points="672.15,-196.69 680.81,-190.59 670.24,-189.96 672.15,-196.69"/>
</g>
<!-- Node21 -->
<g id="node21" class="node">
<title>Node21</title>
<g id="a_node21"><a xlink:href="group__as__iic__user.html#ga5ae8936ee892843eda5df7b9a418bd52" target="_top" xlink:title=" ">
<polygon fill="none" stroke="black" points="668,-57.5 668,-76.5 763,-76.5 763,-57.5 668,-57.5"/>
<text text-anchor="middle" x="715.5" y="-64.5" font-family="Helvetica,sans-Serif" font-size="10.00">as_iic_write_reg</text>
</a>
</g>
</g>
<!-- Node20&#45;&gt;Node21 -->
<g id="edge24" class="edge">
<title>Node20&#45;&gt;Node21</title>
<path fill="none" stroke="midnightblue" d="M801.93,-67C788.94,-67 775.47,-67 763.18,-67"/>
<polygon fill="midnightblue" stroke="midnightblue" points="802.23,-70.5 812.23,-67 802.23,-63.5 802.23,-70.5"/>
</g>
<!-- Node22 -->
<g id="node22" class="node">
<title>Node22</title>
<g id="a_node22"><a xlink:href="as__sensor__ov7670_8c.html#ad5b49e677d2124f73482764e3270bb42" target="_top" xlink:title=" ">
<polygon fill="none" stroke="black" points="384.5,-57.5 384.5,-76.5 494.5,-76.5 494.5,-57.5 384.5,-57.5"/>
<text text-anchor="middle" x="439.5" y="-64.5" font-family="Helvetica,sans-Serif" font-size="10.00">ov7670_iic_reg_set</text>
</a>
</g>
</g>
<!-- Node21&#45;&gt;Node22 -->
<g id="edge25" class="edge">
<title>Node21&#45;&gt;Node22</title>
<path fill="none" stroke="midnightblue" d="M657.51,-67C609.63,-67 541.68,-67 494.62,-67"/>
<polygon fill="midnightblue" stroke="midnightblue" points="657.71,-70.5 667.71,-67 657.71,-63.5 657.71,-70.5"/>
</g>
<!-- Node22&#45;&gt;Node9 -->
<g id="edge26" class="edge">
<title>Node22&#45;&gt;Node9</title>
<path fill="none" stroke="midnightblue" d="M409.66,-80.78C392.14,-88.73 369.14,-98.42 348,-105 336.29,-108.64 323.51,-111.8 311.33,-114.43"/>
<polygon fill="midnightblue" stroke="midnightblue" points="411.16,-83.94 418.78,-76.58 408.23,-77.58 411.16,-83.94"/>
</g>
<!-- Node22&#45;&gt;Node12 -->
<g id="edge28" class="edge">
<title>Node22&#45;&gt;Node12</title>
<path fill="none" stroke="midnightblue" d="M373.97,-73.76C361.76,-75.03 348.85,-76.38 336.25,-77.7"/>
<polygon fill="midnightblue" stroke="midnightblue" points="374.46,-77.22 384.04,-72.7 373.73,-70.26 374.46,-77.22"/>
</g>
<!-- Node23 -->
<g id="node23" class="node">
<title>Node23</title>
<g id="a_node23"><a xlink:href="group__as__sensor__ov7670.html#ga673b948f323ea0a23896c7dc4b0e05e3" target="_top" xlink:title=" ">
<polygon fill="none" stroke="black" points="167.5,-38.5 167.5,-57.5 344.5,-57.5 344.5,-38.5 167.5,-38.5"/>
<text text-anchor="middle" x="256" y="-45.5" font-family="Helvetica,sans-Serif" font-size="10.00">as_sensor_ov7670_exposure_set</text>
</a>
</g>
</g>
<!-- Node22&#45;&gt;Node23 -->
<g id="edge27" class="edge">
<title>Node22&#45;&gt;Node23</title>
<path fill="none" stroke="midnightblue" d="M373.93,-60.24C364.45,-59.25 354.54,-58.21 344.68,-57.18"/>
<polygon fill="midnightblue" stroke="midnightblue" points="373.73,-63.74 384.04,-61.3 374.46,-56.78 373.73,-63.74"/>
</g>
<!-- Node24 -->
<g id="node24" class="node">
<title>Node24</title>
<g id="a_node24"><a xlink:href="group__as__sensor__ov7670.html#ga45e866e9958d1c7d8e0b0dd206f01a9e" target="_top" xlink:title=" ">
<polygon fill="none" stroke="black" points="179.5,-0.5 179.5,-19.5 332.5,-19.5 332.5,-0.5 179.5,-0.5"/>
<text text-anchor="middle" x="256" y="-7.5" font-family="Helvetica,sans-Serif" font-size="10.00">as_sensor_ov7670_gain_set</text>
</a>
</g>
</g>
<!-- Node22&#45;&gt;Node24 -->
<g id="edge29" class="edge">
<title>Node22&#45;&gt;Node24</title>
<path fill="none" stroke="midnightblue" d="M409.66,-53.22C392.14,-45.27 369.14,-35.58 348,-29 336.29,-25.36 323.51,-22.2 311.33,-19.57"/>
<polygon fill="midnightblue" stroke="midnightblue" points="408.23,-56.42 418.78,-57.42 411.16,-50.06 408.23,-56.42"/>
</g>
<!-- Node25&#45;&gt;Node5 -->
<g id="edge31" class="edge">
<title>Node25&#45;&gt;Node5</title>
<path fill="none" stroke="midnightblue" d="M1004.7,-225.34C972.07,-214.84 926.37,-200.12 896.72,-190.57"/>
<polygon fill="midnightblue" stroke="midnightblue" points="1003.78,-228.73 1014.37,-228.46 1005.93,-222.06 1003.78,-228.73"/>
</g>
<!-- Node25&#45;&gt;Node15 -->
<g id="edge32" class="edge">
<title>Node25&#45;&gt;Node15</title>
<path fill="none" stroke="midnightblue" d="M955.72,-247.48C941.77,-248.97 927.82,-250.47 915.24,-251.82"/>
<polygon fill="midnightblue" stroke="midnightblue" points="956.28,-250.94 965.85,-246.39 955.53,-243.98 956.28,-250.94"/>
</g>
<!-- Node25&#45;&gt;Node16 -->
<g id="edge33" class="edge">
<title>Node25&#45;&gt;Node16</title>
<path fill="none" stroke="midnightblue" d="M1012.87,-251.41C990.33,-260.36 958.88,-271.31 930,-276 808.5,-295.72 663.24,-249.59 605.97,-228.66"/>
<polygon fill="midnightblue" stroke="midnightblue" points="1014.31,-254.6 1022.25,-247.59 1011.67,-248.12 1014.31,-254.6"/>
</g>
<!-- Node26&#45;&gt;Node4 -->
<g id="edge36" class="edge">
<title>Node26&#45;&gt;Node4</title>
<path fill="none" stroke="midnightblue" d="M1173.63,-117.91C1168.91,-119.69 1164.32,-121.71 1160,-124 1140.83,-134.18 1142.83,-146.21 1124,-157 1113.3,-163.13 1100.87,-167.86 1089.11,-171.44"/>
<polygon fill="midnightblue" stroke="midnightblue" points="1175.09,-121.11 1183.44,-114.59 1172.84,-114.48 1175.09,-121.11"/>
</g>
<!-- Node26&#45;&gt;Node17 -->
<g id="edge35" class="edge">
<title>Node26&#45;&gt;Node17</title>
<path fill="none" stroke="midnightblue" d="M1149.54,-105C1080.14,-105 986.16,-105 926.04,-105"/>
<polygon fill="midnightblue" stroke="midnightblue" points="1149.59,-108.5 1159.59,-105 1149.59,-101.5 1149.59,-108.5"/>
</g>
<!-- Node26&#45;&gt;Node18 -->
<g id="edge37" class="edge">
<title>Node26&#45;&gt;Node18</title>
<path fill="none" stroke="midnightblue" d="M1153.21,-115.72C1143.36,-116.87 1133.47,-117.98 1124,-119 1057.94,-126.09 982.21,-133.01 930.15,-137.59"/>
<polygon fill="midnightblue" stroke="midnightblue" points="1153.9,-119.17 1163.43,-114.52 1153.09,-112.21 1153.9,-119.17"/>
</g>
<!-- Node26&#45;&gt;Node20 -->
<g id="edge38" class="edge">
<title>Node26&#45;&gt;Node20</title>
<path fill="none" stroke="midnightblue" d="M1149.62,-95.83C1077.67,-88.49 979.23,-78.45 919.54,-72.36"/>
<polygon fill="midnightblue" stroke="midnightblue" points="1149.29,-99.32 1159.59,-96.85 1150,-92.35 1149.29,-99.32"/>
</g>
</g>
</svg>
