<?xml version="1.0" encoding="UTF-8" standalone="no"?>
<!DOCTYPE svg PUBLIC "-//W3C//DTD SVG 1.1//EN"
 "http://www.w3.org/Graphics/SVG/1.1/DTD/svg11.dtd">
<!-- Generated by graphviz version 2.43.0 (0)
 -->
<!-- Title: as_writer_set_disable_on_no_go Pages: 1 -->
<svg width="466pt" height="104pt"
 viewBox="0.00 0.00 466.00 104.00" xmlns="http://www.w3.org/2000/svg" xmlns:xlink="http://www.w3.org/1999/xlink">
<g id="graph0" class="graph" transform="scale(1 1) rotate(0) translate(4 100)">
<title>as_writer_set_disable_on_no_go</title>
<!-- Node1 -->
<g id="node1" class="node">
<title>Node1</title>
<g id="a_node1"><a xlink:title="Disable module if no operation is queued.">
<polygon fill="#bfbfbf" stroke="black" points="336,-33 336,-63 458,-63 458,-33 336,-33"/>
<text text-anchor="start" x="344" y="-51" font-family="Helvetica,sans-Serif" font-size="10.00">as_writer_set_disable</text>
<text text-anchor="middle" x="397" y="-40" font-family="Helvetica,sans-Serif" font-size="10.00">_on_no_go</text>
</a>
</g>
</g>
<!-- Node2 -->
<g id="node2" class="node">
<title>Node2</title>
<g id="a_node2"><a xlink:href="group__mmap__file__ops.html#ga93a1477871ee8b3e8071b60442a0ceb3" target="_top" xlink:title=" ">
<polygon fill="none" stroke="black" points="164,-38.5 164,-57.5 300,-57.5 300,-38.5 164,-38.5"/>
<text text-anchor="middle" x="232" y="-45.5" font-family="Helvetica,sans-Serif" font-size="10.00">as_mmap_start_transfer</text>
</a>
</g>
</g>
<!-- Node1&#45;&gt;Node2 -->
<g id="edge1" class="edge">
<title>Node1&#45;&gt;Node2</title>
<path fill="none" stroke="midnightblue" d="M325.57,-48C317.13,-48 308.52,-48 300.12,-48"/>
<polygon fill="midnightblue" stroke="midnightblue" points="325.77,-51.5 335.77,-48 325.77,-44.5 325.77,-51.5"/>
</g>
<!-- Node3 -->
<g id="node3" class="node">
<title>Node3</title>
<g id="a_node3"><a xlink:href="group__mmap__file__ops.html#gab078c489a563497f4da70a9f6115dfce" target="_top" xlink:title=" ">
<polygon fill="none" stroke="black" points="18.5,-76.5 18.5,-95.5 109.5,-95.5 109.5,-76.5 18.5,-76.5"/>
<text text-anchor="middle" x="64" y="-83.5" font-family="Helvetica,sans-Serif" font-size="10.00">as_mmap_ioctl</text>
</a>
</g>
</g>
<!-- Node2&#45;&gt;Node3 -->
<g id="edge2" class="edge">
<title>Node2&#45;&gt;Node3</title>
<path fill="none" stroke="midnightblue" d="M179.35,-59.82C155.94,-65.18 128.64,-71.43 106.59,-76.48"/>
<polygon fill="midnightblue" stroke="midnightblue" points="180.14,-63.23 189.11,-57.59 178.58,-56.41 180.14,-63.23"/>
</g>
<!-- Node4 -->
<g id="node4" class="node">
<title>Node4</title>
<g id="a_node4"><a xlink:href="group__mmap__file__ops.html#gae18f99f9774b7224e71d80209ecd0bf4" target="_top" xlink:title=" ">
<polygon fill="none" stroke="black" points="1.5,-38.5 1.5,-57.5 126.5,-57.5 126.5,-38.5 1.5,-38.5"/>
<text text-anchor="middle" x="64" y="-45.5" font-family="Helvetica,sans-Serif" font-size="10.00">driver_as_mmap_read</text>
</a>
</g>
</g>
<!-- Node2&#45;&gt;Node4 -->
<g id="edge3" class="edge">
<title>Node2&#45;&gt;Node4</title>
<path fill="none" stroke="midnightblue" d="M153.76,-48C144.67,-48 135.49,-48 126.66,-48"/>
<polygon fill="midnightblue" stroke="midnightblue" points="153.96,-51.5 163.96,-48 153.96,-44.5 153.96,-51.5"/>
</g>
<!-- Node5 -->
<g id="node5" class="node">
<title>Node5</title>
<g id="a_node5"><a xlink:href="group__mmap__file__ops.html#gaeea3980f5b633c4b83ff46b2efc2ea10" target="_top" xlink:title=" ">
<polygon fill="none" stroke="black" points="0,-0.5 0,-19.5 128,-19.5 128,-0.5 0,-0.5"/>
<text text-anchor="middle" x="64" y="-7.5" font-family="Helvetica,sans-Serif" font-size="10.00">driver_as_mmap_write</text>
</a>
</g>
</g>
<!-- Node2&#45;&gt;Node5 -->
<g id="edge4" class="edge">
<title>Node2&#45;&gt;Node5</title>
<path fill="none" stroke="midnightblue" d="M179.35,-36.18C155.94,-30.82 128.64,-24.57 106.59,-19.52"/>
<polygon fill="midnightblue" stroke="midnightblue" points="178.58,-39.59 189.11,-38.41 180.14,-32.77 178.58,-39.59"/>
</g>
</g>
</svg>
