<?xml version="1.0" encoding="UTF-8" standalone="no"?>
<!DOCTYPE svg PUBLIC "-//W3C//DTD SVG 1.1//EN"
 "http://www.w3.org/Graphics/SVG/1.1/DTD/svg11.dtd">
<!-- Generated by graphviz version 2.43.0 (0)
 -->
<!-- Title: as_sensor_ov7670_exposure_auto Pages: 1 -->
<svg width="1928pt" height="562pt"
 viewBox="0.00 0.00 1928.00 562.43" xmlns="http://www.w3.org/2000/svg" xmlns:xlink="http://www.w3.org/1999/xlink">
<g id="graph0" class="graph" transform="scale(1 1) rotate(0) translate(4 558.43)">
<title>as_sensor_ov7670_exposure_auto</title>
<!-- Node1 -->
<g id="node1" class="node">
<title>Node1</title>
<g id="a_node1"><a xlink:title=" ">
<polygon fill="#bfbfbf" stroke="black" points="0,-350.5 0,-369.5 184,-369.5 184,-350.5 0,-350.5"/>
<text text-anchor="middle" x="92" y="-357.5" font-family="Helvetica,sans-Serif" font-size="10.00">as_sensor_ov7670_exposure_auto</text>
</a>
</g>
</g>
<!-- Node2 -->
<g id="node2" class="node">
<title>Node2</title>
<g id="a_node2"><a xlink:href="as__sensor__ov7670_8c.html#a4af880494f665dfc2d878bcd991246d3" target="_top" xlink:title=" ">
<polygon fill="none" stroke="black" points="220,-388.5 220,-407.5 354,-407.5 354,-388.5 220,-388.5"/>
<text text-anchor="middle" x="287" y="-395.5" font-family="Helvetica,sans-Serif" font-size="10.00">ov7670_get_iic_channel</text>
</a>
</g>
</g>
<!-- Node1&#45;&gt;Node2 -->
<g id="edge1" class="edge">
<title>Node1&#45;&gt;Node2</title>
<path fill="none" stroke="midnightblue" d="M141.7,-369.59C167.86,-374.74 200.28,-381.12 227.77,-386.53"/>
<polygon fill="midnightblue" stroke="midnightblue" points="227.16,-389.98 237.65,-388.48 228.51,-383.11 227.16,-389.98"/>
</g>
<!-- Node3 -->
<g id="node3" class="node">
<title>Node3</title>
<g id="a_node3"><a xlink:href="as__sensor__ov7670_8c.html#acb25afaea3e81940c50e327c45921f08" target="_top" xlink:title=" ">
<polygon fill="none" stroke="black" points="231.5,-350.5 231.5,-369.5 342.5,-369.5 342.5,-350.5 231.5,-350.5"/>
<text text-anchor="middle" x="287" y="-357.5" font-family="Helvetica,sans-Serif" font-size="10.00">ov7670_iic_reg_get</text>
</a>
</g>
</g>
<!-- Node1&#45;&gt;Node3 -->
<g id="edge2" class="edge">
<title>Node1&#45;&gt;Node3</title>
<path fill="none" stroke="midnightblue" d="M184.13,-360C196.59,-360 209.16,-360 221.02,-360"/>
<polygon fill="midnightblue" stroke="midnightblue" points="221.24,-363.5 231.24,-360 221.24,-356.5 221.24,-363.5"/>
</g>
<!-- Node31 -->
<g id="node31" class="node">
<title>Node31</title>
<g id="a_node31"><a xlink:href="as__sensor__ov7670_8c.html#ad5b49e677d2124f73482764e3270bb42" target="_top" xlink:title=" ">
<polygon fill="none" stroke="black" points="232,-312.5 232,-331.5 342,-331.5 342,-312.5 232,-312.5"/>
<text text-anchor="middle" x="287" y="-319.5" font-family="Helvetica,sans-Serif" font-size="10.00">ov7670_iic_reg_set</text>
</a>
</g>
</g>
<!-- Node1&#45;&gt;Node31 -->
<g id="edge50" class="edge">
<title>Node1&#45;&gt;Node31</title>
<path fill="none" stroke="midnightblue" d="M141.7,-350.41C167.86,-345.26 200.28,-338.88 227.77,-333.47"/>
<polygon fill="midnightblue" stroke="midnightblue" points="228.51,-336.89 237.65,-331.52 227.16,-330.02 228.51,-336.89"/>
</g>
<!-- Node4 -->
<g id="node4" class="node">
<title>Node4</title>
<g id="a_node4"><a xlink:href="group__as__iic__user.html#ga812d9e16a61b39777a5fbffc7eccbc8d" target="_top" xlink:title=" ">
<polygon fill="none" stroke="black" points="391.5,-352.5 391.5,-371.5 483.5,-371.5 483.5,-352.5 391.5,-352.5"/>
<text text-anchor="middle" x="437.5" y="-359.5" font-family="Helvetica,sans-Serif" font-size="10.00">as_iic_read_reg</text>
</a>
</g>
</g>
<!-- Node3&#45;&gt;Node4 -->
<g id="edge3" class="edge">
<title>Node3&#45;&gt;Node4</title>
<path fill="none" stroke="midnightblue" d="M342.87,-360.74C355.27,-360.91 368.43,-361.08 380.86,-361.25"/>
<polygon fill="midnightblue" stroke="midnightblue" points="381.04,-364.75 391.09,-361.39 381.14,-357.75 381.04,-364.75"/>
</g>
<!-- Node5 -->
<g id="node5" class="node">
<title>Node5</title>
<g id="a_node5"><a xlink:href="group__as__iic__user.html#gacf3e3b915e1f15ed8bdc60ab4c129996" target="_top" xlink:title=" ">
<polygon fill="none" stroke="black" points="525.5,-371.5 525.5,-390.5 617.5,-390.5 617.5,-371.5 525.5,-371.5"/>
<text text-anchor="middle" x="571.5" y="-378.5" font-family="Helvetica,sans-Serif" font-size="10.00">as_iic_get_byte</text>
</a>
</g>
</g>
<!-- Node4&#45;&gt;Node5 -->
<g id="edge4" class="edge">
<title>Node4&#45;&gt;Node5</title>
<path fill="none" stroke="midnightblue" d="M483.56,-368.49C493.75,-369.95 504.68,-371.53 515.23,-373.04"/>
<polygon fill="midnightblue" stroke="midnightblue" points="514.8,-376.52 525.2,-374.48 515.8,-369.59 514.8,-376.52"/>
</g>
<!-- Node14 -->
<g id="node14" class="node">
<title>Node14</title>
<g id="a_node14"><a xlink:href="group__asterics__support.html#gab803703ab5b845023ca31b7b2664419c" target="_top" xlink:title=" ">
<polygon fill="none" stroke="black" points="1391,-424.5 1391,-443.5 1450,-443.5 1450,-424.5 1391,-424.5"/>
<text text-anchor="middle" x="1420.5" y="-431.5" font-family="Helvetica,sans-Serif" font-size="10.00">as_sleep</text>
</a>
</g>
</g>
<!-- Node4&#45;&gt;Node14 -->
<g id="edge49" class="edge">
<title>Node4&#45;&gt;Node14</title>
<path fill="none" stroke="midnightblue" d="M445.35,-371.52C474.11,-410.26 589.65,-554 721,-554 721,-554 721,-554 1071.5,-554 1188.41,-554 1225.23,-560.81 1331,-511 1360.93,-496.91 1388.5,-469.7 1404.67,-451.69"/>
<polygon fill="midnightblue" stroke="midnightblue" points="1407.71,-453.53 1411.64,-443.69 1402.43,-448.93 1407.71,-453.53"/>
</g>
<!-- Node29 -->
<g id="node29" class="node">
<title>Node29</title>
<g id="a_node29"><a xlink:href="group__as__iic__user.html#ga35cd65c29b1f4abd1ca87ca51605e5cc" target="_top" xlink:title=" ">
<polygon fill="none" stroke="black" points="521,-333.5 521,-352.5 622,-352.5 622,-333.5 521,-333.5"/>
<text text-anchor="middle" x="571.5" y="-340.5" font-family="Helvetica,sans-Serif" font-size="10.00">as_iic_write_byte</text>
</a>
</g>
</g>
<!-- Node4&#45;&gt;Node29 -->
<g id="edge45" class="edge">
<title>Node4&#45;&gt;Node29</title>
<path fill="none" stroke="midnightblue" d="M483.56,-355.51C492.24,-354.26 501.46,-352.94 510.53,-351.63"/>
<polygon fill="midnightblue" stroke="midnightblue" points="511.27,-355.06 520.67,-350.17 510.27,-348.13 511.27,-355.06"/>
</g>
<!-- Node6 -->
<g id="node6" class="node">
<title>Node6</title>
<g id="a_node6"><a xlink:href="group__as__iic__user.html#ga30385c0c387c1629188745edf9c824c1" target="_top" xlink:title=" ">
<polygon fill="none" stroke="black" points="662.5,-371.5 662.5,-390.5 781.5,-390.5 781.5,-371.5 662.5,-371.5"/>
<text text-anchor="middle" x="722" y="-378.5" font-family="Helvetica,sans-Serif" font-size="10.00">as_iic_get_byte_mod</text>
</a>
</g>
</g>
<!-- Node5&#45;&gt;Node6 -->
<g id="edge5" class="edge">
<title>Node5&#45;&gt;Node6</title>
<path fill="none" stroke="midnightblue" d="M617.86,-381C628.75,-381 640.61,-381 652.3,-381"/>
<polygon fill="midnightblue" stroke="midnightblue" points="652.49,-384.5 662.49,-381 652.49,-377.5 652.49,-384.5"/>
</g>
<!-- Node7 -->
<g id="node7" class="node">
<title>Node7</title>
<g id="a_node7"><a xlink:href="group__as__iic__helpers.html#ga53e6050a2c66be89ac23084fd9de9c23" target="_top" xlink:title=" ">
<polygon fill="none" stroke="black" points="822,-266.5 822,-285.5 954,-285.5 954,-266.5 822,-266.5"/>
<text text-anchor="middle" x="888" y="-273.5" font-family="Helvetica,sans-Serif" font-size="10.00">as_iic_start_transaction</text>
</a>
</g>
</g>
<!-- Node6&#45;&gt;Node7 -->
<g id="edge6" class="edge">
<title>Node6&#45;&gt;Node7</title>
<path fill="none" stroke="midnightblue" d="M763.66,-371.44C771.31,-368.89 779.08,-365.77 786,-362 819.79,-343.58 852.51,-312.56 871.15,-293.24"/>
<polygon fill="midnightblue" stroke="midnightblue" points="873.91,-295.41 878.24,-285.75 868.83,-290.6 873.91,-295.41"/>
</g>
<!-- Node27 -->
<g id="node27" class="node">
<title>Node27</title>
<g id="a_node27"><a xlink:href="group__as__iic__helpers.html#gaa8ce9ac10b8c2ca9b614110ca5cbeff5" target="_top" xlink:title=" ">
<polygon fill="none" stroke="black" points="991.5,-465.5 991.5,-484.5 1149.5,-484.5 1149.5,-465.5 991.5,-465.5"/>
<text text-anchor="middle" x="1070.5" y="-472.5" font-family="Helvetica,sans-Serif" font-size="10.00">as_iic_stop_read_transaction</text>
</a>
</g>
</g>
<!-- Node6&#45;&gt;Node27 -->
<g id="edge38" class="edge">
<title>Node6&#45;&gt;Node27</title>
<path fill="none" stroke="midnightblue" d="M758.13,-390.53C821.43,-407.7 954.53,-443.81 1024.44,-462.77"/>
<polygon fill="midnightblue" stroke="midnightblue" points="1023.71,-466.2 1034.28,-465.44 1025.54,-459.45 1023.71,-466.2"/>
</g>
<!-- Node8 -->
<g id="node8" class="node">
<title>Node8</title>
<g id="a_node8"><a xlink:href="group__as__iic__bitchecks.html#gaa4e8718c748b5a7e956a38ffd6dbe15d" target="_top" xlink:title=" ">
<polygon fill="none" stroke="black" points="1202,-76.5 1202,-95.5 1316,-95.5 1316,-76.5 1202,-76.5"/>
<text text-anchor="middle" x="1259" y="-83.5" font-family="Helvetica,sans-Serif" font-size="10.00">as_iic_ack_received</text>
</a>
</g>
</g>
<!-- Node7&#45;&gt;Node8 -->
<g id="edge7" class="edge">
<title>Node7&#45;&gt;Node8</title>
<path fill="none" stroke="midnightblue" d="M891.31,-266.42C899.1,-236.36 927.55,-143.64 990,-105 1052.59,-66.28 1139.82,-68.07 1197.56,-75.14"/>
<polygon fill="midnightblue" stroke="midnightblue" points="1197.25,-78.63 1207.62,-76.47 1198.17,-71.69 1197.25,-78.63"/>
</g>
<!-- Node12 -->
<g id="node12" class="node">
<title>Node12</title>
<g id="a_node12"><a xlink:href="group__as__iic__wait.html#gad3cfec26b8a73166e060108cf1444a2b" target="_top" xlink:title=" ">
<polygon fill="none" stroke="black" points="1200,-419 1200,-449 1318,-449 1318,-419 1200,-419"/>
<text text-anchor="start" x="1208" y="-437" font-family="Helvetica,sans-Serif" font-size="10.00">as_iic_busy_wait_for</text>
<text text-anchor="middle" x="1259" y="-426" font-family="Helvetica,sans-Serif" font-size="10.00">_hwready</text>
</a>
</g>
</g>
<!-- Node7&#45;&gt;Node12 -->
<g id="edge11" class="edge">
<title>Node7&#45;&gt;Node12</title>
<path fill="none" stroke="midnightblue" d="M896.19,-285.53C911.31,-304.85 948.43,-348.68 990,-371 1052.73,-404.69 1133.21,-420.5 1189.54,-427.84"/>
<polygon fill="midnightblue" stroke="midnightblue" points="1189.41,-431.35 1199.76,-429.11 1190.27,-424.4 1189.41,-431.35"/>
</g>
<!-- Node13 -->
<g id="node13" class="node">
<title>Node13</title>
<g id="a_node13"><a xlink:href="group__as__iic__user.html#gacdb0c71d0fcfe5e50a7f7316762cd0c0" target="_top" xlink:title=" ">
<polygon fill="none" stroke="black" points="1375,-114.5 1375,-133.5 1466,-133.5 1466,-114.5 1375,-114.5"/>
<text text-anchor="middle" x="1420.5" y="-121.5" font-family="Helvetica,sans-Serif" font-size="10.00">as_iic_is_ready</text>
</a>
</g>
</g>
<!-- Node7&#45;&gt;Node13 -->
<g id="edge23" class="edge">
<title>Node7&#45;&gt;Node13</title>
<path fill="none" stroke="midnightblue" d="M890.19,-266.22C894.97,-231.59 916.28,-114.41 990,-68 1054.13,-27.62 1258.3,-45.61 1331,-67 1357.87,-74.91 1384.29,-93.78 1401.17,-107.65"/>
<polygon fill="midnightblue" stroke="midnightblue" points="1399.19,-110.56 1409.08,-114.37 1403.72,-105.23 1399.19,-110.56"/>
</g>
<!-- Node18 -->
<g id="node18" class="node">
<title>Node18</title>
<g id="a_node18"><a xlink:href="group__as__iic__wait.html#ga0bc5aad64893b674c42943fb64d17676" target="_top" xlink:title=" ">
<polygon fill="none" stroke="black" points="1187,-190.5 1187,-209.5 1331,-209.5 1331,-190.5 1187,-190.5"/>
<text text-anchor="middle" x="1259" y="-197.5" font-family="Helvetica,sans-Serif" font-size="10.00">as_iic_busy_wait_for_wait</text>
</a>
</g>
</g>
<!-- Node7&#45;&gt;Node18 -->
<g id="edge18" class="edge">
<title>Node7&#45;&gt;Node18</title>
<path fill="none" stroke="midnightblue" d="M903.3,-266.36C922.23,-254.15 957.04,-233.56 990,-224 1051.01,-206.3 1122.82,-200.63 1176.75,-199.21"/>
<polygon fill="midnightblue" stroke="midnightblue" points="1177.02,-202.7 1186.94,-198.98 1176.87,-195.7 1177.02,-202.7"/>
</g>
<!-- Node20 -->
<g id="node20" class="node">
<title>Node20</title>
<g id="a_node20"><a xlink:href="group__as__iic__bitchecks.html#gad90ab4c2ed7fbca8f768c87cdb5794ee" target="_top" xlink:title=" ">
<polygon fill="none" stroke="black" points="1015,-152.5 1015,-171.5 1126,-171.5 1126,-152.5 1015,-152.5"/>
<text text-anchor="middle" x="1070.5" y="-159.5" font-family="Helvetica,sans-Serif" font-size="10.00">as_iic_is_initialized</text>
</a>
</g>
</g>
<!-- Node7&#45;&gt;Node20 -->
<g id="edge22" class="edge">
<title>Node7&#45;&gt;Node20</title>
<path fill="none" stroke="midnightblue" d="M897.15,-266.36C913.13,-248.06 950.45,-208.15 990,-186 998.04,-181.5 1007.01,-177.75 1015.96,-174.66"/>
<polygon fill="midnightblue" stroke="midnightblue" points="1017.16,-177.95 1025.61,-171.56 1015.02,-171.28 1017.16,-177.95"/>
</g>
<!-- Node21 -->
<g id="node21" class="node">
<title>Node21</title>
<g id="a_node21"><a xlink:href="group__as__iic__user.html#gae03c311fae3d6a830878a2b0c2c1c2bf" target="_top" xlink:title=" ">
<polygon fill="none" stroke="black" points="1197,-304.5 1197,-323.5 1321,-323.5 1321,-304.5 1197,-304.5"/>
<text text-anchor="middle" x="1259" y="-311.5" font-family="Helvetica,sans-Serif" font-size="10.00">as_iic_reset_hw_state</text>
</a>
</g>
</g>
<!-- Node7&#45;&gt;Node21 -->
<g id="edge24" class="edge">
<title>Node7&#45;&gt;Node21</title>
<path fill="none" stroke="midnightblue" d="M954.14,-285.5C966.06,-287.1 978.39,-288.68 990,-290 1056.6,-297.59 1132.75,-304.22 1186.81,-308.57"/>
<polygon fill="midnightblue" stroke="midnightblue" points="1186.73,-312.07 1196.98,-309.38 1187.29,-305.1 1186.73,-312.07"/>
</g>
<!-- Node22 -->
<g id="node22" class="node">
<title>Node22</title>
<g id="a_node22"><a xlink:href="group__as__iic__reg__funcs.html#gac83a48fc09234a7a99adafb1ce565eb0" target="_top" xlink:title=" ">
<polygon fill="none" stroke="black" points="1368.5,-292.5 1368.5,-311.5 1472.5,-311.5 1472.5,-292.5 1368.5,-292.5"/>
<text text-anchor="middle" x="1420.5" y="-299.5" font-family="Helvetica,sans-Serif" font-size="10.00">as_iic_set_control</text>
</a>
</g>
</g>
<!-- Node7&#45;&gt;Node22 -->
<g id="edge28" class="edge">
<title>Node7&#45;&gt;Node22</title>
<path fill="none" stroke="midnightblue" d="M954.19,-278.07C1040.45,-280.97 1197.22,-286.84 1331,-295 1339.72,-295.53 1348.91,-296.17 1357.95,-296.84"/>
<polygon fill="midnightblue" stroke="midnightblue" points="1357.81,-300.34 1368.04,-297.62 1358.34,-293.36 1357.81,-300.34"/>
</g>
<!-- Node25 -->
<g id="node25" class="node">
<title>Node25</title>
<g id="a_node25"><a xlink:href="group__as__iic__reg__funcs.html#ga8058473baeded71954aa72ee8df24e9b" target="_top" xlink:title=" ">
<polygon fill="none" stroke="black" points="1367,-228.5 1367,-247.5 1474,-247.5 1474,-228.5 1367,-228.5"/>
<text text-anchor="middle" x="1420.5" y="-235.5" font-family="Helvetica,sans-Serif" font-size="10.00">as_iic_set_data_tx</text>
</a>
</g>
</g>
<!-- Node7&#45;&gt;Node25 -->
<g id="edge29" class="edge">
<title>Node7&#45;&gt;Node25</title>
<path fill="none" stroke="midnightblue" d="M954.05,-271.34C1056.77,-263.98 1255.24,-249.77 1356.6,-242.51"/>
<polygon fill="midnightblue" stroke="midnightblue" points="1356.97,-245.99 1366.69,-241.78 1356.47,-239.01 1356.97,-245.99"/>
</g>
<!-- Node26 -->
<g id="node26" class="node">
<title>Node26</title>
<g id="a_node26"><a xlink:href="group__as__iic__helpers.html#ga67cc002a1b20c75dc26f7b328ca5ddc9" target="_top" xlink:title=" ">
<polygon fill="none" stroke="black" points="990,-342.5 990,-361.5 1151,-361.5 1151,-342.5 990,-342.5"/>
<text text-anchor="middle" x="1070.5" y="-349.5" font-family="Helvetica,sans-Serif" font-size="10.00">as_iic_stop_write_transaction</text>
</a>
</g>
</g>
<!-- Node7&#45;&gt;Node26 -->
<g id="edge32" class="edge">
<title>Node7&#45;&gt;Node26</title>
<path fill="none" stroke="midnightblue" d="M920.94,-285.6C931.76,-289.41 943.7,-294.27 954,-300 971.72,-309.85 971.99,-318.69 990,-328 998.65,-332.47 1008.27,-336.25 1017.74,-339.4"/>
<polygon fill="midnightblue" stroke="midnightblue" points="1016.93,-342.81 1027.52,-342.45 1019.02,-336.13 1016.93,-342.81"/>
</g>
<!-- Node9 -->
<g id="node9" class="node">
<title>Node9</title>
<g id="a_node9"><a xlink:href="group__as__iic__reg__funcs.html#ga8daa8fde0a7776aa2f5b335250b5aa2a" target="_top" xlink:title=" ">
<polygon fill="none" stroke="black" points="1511.5,-171.5 1511.5,-190.5 1633.5,-190.5 1633.5,-171.5 1511.5,-171.5"/>
<text text-anchor="middle" x="1572.5" y="-178.5" font-family="Helvetica,sans-Serif" font-size="10.00">as_iic_get_status_reg</text>
</a>
</g>
</g>
<!-- Node8&#45;&gt;Node9 -->
<g id="edge8" class="edge">
<title>Node8&#45;&gt;Node9</title>
<path fill="none" stroke="midnightblue" d="M1297.76,-95.55C1308.89,-99.2 1320.81,-103.97 1331,-110 1349.68,-121.05 1347.58,-133.31 1367,-143 1408.7,-163.81 1460.33,-173.29 1501.28,-177.59"/>
<polygon fill="midnightblue" stroke="midnightblue" points="1501.16,-181.09 1511.45,-178.57 1501.83,-174.12 1501.16,-181.09"/>
</g>
<!-- Node10 -->
<g id="node10" class="node">
<title>Node10</title>
<g id="a_node10"><a xlink:href="group__asterics__support.html#ga8e5c2bfd2e4498d10289377bd94cef07" target="_top" xlink:title=" ">
<polygon fill="none" stroke="black" points="1689.5,-195.5 1689.5,-214.5 1765.5,-214.5 1765.5,-195.5 1689.5,-195.5"/>
<text text-anchor="middle" x="1727.5" y="-202.5" font-family="Helvetica,sans-Serif" font-size="10.00">as_reg_read</text>
</a>
</g>
</g>
<!-- Node9&#45;&gt;Node10 -->
<g id="edge9" class="edge">
<title>Node9&#45;&gt;Node10</title>
<path fill="none" stroke="midnightblue" d="M1633.53,-190.42C1648.62,-192.78 1664.61,-195.29 1678.99,-197.55"/>
<polygon fill="midnightblue" stroke="midnightblue" points="1678.72,-201.05 1689.15,-199.14 1679.81,-194.13 1678.72,-201.05"/>
</g>
<!-- Node11 -->
<g id="node11" class="node">
<title>Node11</title>
<g id="a_node11"><a xlink:href="group__asterics__support.html#ga4c6d688b840a6e2edc9bc0b8ed961677" target="_top" xlink:title=" ">
<polygon fill="none" stroke="black" points="1820,-195.5 1820,-214.5 1920,-214.5 1920,-195.5 1820,-195.5"/>
<text text-anchor="middle" x="1870" y="-202.5" font-family="Helvetica,sans-Serif" font-size="10.00">as_reg_to_uint32</text>
</a>
</g>
</g>
<!-- Node10&#45;&gt;Node11 -->
<g id="edge10" class="edge">
<title>Node10&#45;&gt;Node11</title>
<path fill="none" stroke="midnightblue" d="M1765.78,-205C1779.26,-205 1794.83,-205 1809.72,-205"/>
<polygon fill="midnightblue" stroke="midnightblue" points="1809.89,-208.5 1819.89,-205 1809.89,-201.5 1809.89,-208.5"/>
</g>
<!-- Node12&#45;&gt;Node13 -->
<g id="edge12" class="edge">
<title>Node12&#45;&gt;Node13</title>
<path fill="none" stroke="midnightblue" d="M1273.59,-418.71C1289.65,-399.87 1316.05,-366.23 1331,-333 1359.48,-269.68 1334.42,-242.31 1367,-181 1375.23,-165.51 1388.69,-151.02 1399.92,-140.52"/>
<polygon fill="midnightblue" stroke="midnightblue" points="1402.5,-142.91 1407.6,-133.63 1397.82,-137.7 1402.5,-142.91"/>
</g>
<!-- Node12&#45;&gt;Node14 -->
<g id="edge14" class="edge">
<title>Node12&#45;&gt;Node14</title>
<path fill="none" stroke="midnightblue" d="M1318.03,-434C1338.83,-434 1361.76,-434 1380.55,-434"/>
<polygon fill="midnightblue" stroke="midnightblue" points="1380.81,-437.5 1390.81,-434 1380.81,-430.5 1380.81,-437.5"/>
</g>
<!-- Node13&#45;&gt;Node9 -->
<g id="edge13" class="edge">
<title>Node13&#45;&gt;Node9</title>
<path fill="none" stroke="midnightblue" d="M1446.61,-133.54C1471.27,-142.91 1509.1,-157.29 1536.66,-167.76"/>
<polygon fill="midnightblue" stroke="midnightblue" points="1535.72,-171.15 1546.31,-171.43 1538.21,-164.6 1535.72,-171.15"/>
</g>
<!-- Node15 -->
<g id="node15" class="node">
<title>Node15</title>
<g id="a_node15"><a xlink:href="group__asterics__support.html#ga284d9e0d170cf7cabc16ccd7e62d95bd" target="_top" xlink:title=" ">
<polygon fill="none" stroke="black" points="1544,-424.5 1544,-443.5 1601,-443.5 1601,-424.5 1544,-424.5"/>
<text text-anchor="middle" x="1572.5" y="-431.5" font-family="Helvetica,sans-Serif" font-size="10.00">as_yield</text>
</a>
</g>
</g>
<!-- Node14&#45;&gt;Node15 -->
<g id="edge15" class="edge">
<title>Node14&#45;&gt;Node15</title>
<path fill="none" stroke="midnightblue" d="M1450.07,-434C1473.75,-434 1507.62,-434 1533.57,-434"/>
<polygon fill="midnightblue" stroke="midnightblue" points="1533.8,-437.5 1543.8,-434 1533.8,-430.5 1533.8,-437.5"/>
</g>
<!-- Node16 -->
<g id="node16" class="node">
<title>Node16</title>
<g id="a_node16"><a xlink:href="group__asterics__support.html#gad294e0c5530bd6fb800a2394179070e1" target="_top" xlink:title=" ">
<polygon fill="none" stroke="black" points="1682.5,-405.5 1682.5,-424.5 1772.5,-424.5 1772.5,-405.5 1682.5,-405.5"/>
<text text-anchor="middle" x="1727.5" y="-412.5" font-family="Helvetica,sans-Serif" font-size="10.00">as_mutex_lock</text>
</a>
</g>
</g>
<!-- Node15&#45;&gt;Node16 -->
<g id="edge16" class="edge">
<title>Node15&#45;&gt;Node16</title>
<path fill="none" stroke="midnightblue" d="M1601.21,-430.56C1621.02,-428.1 1648.34,-424.71 1672.41,-421.72"/>
<polygon fill="midnightblue" stroke="midnightblue" points="1673,-425.17 1682.49,-420.47 1672.14,-418.22 1673,-425.17"/>
</g>
<!-- Node17 -->
<g id="node17" class="node">
<title>Node17</title>
<g id="a_node17"><a xlink:href="group__asterics__support.html#ga07e09e825f2608339f6213edb9d0c8b3" target="_top" xlink:title=" ">
<polygon fill="none" stroke="black" points="1676.5,-443.5 1676.5,-462.5 1778.5,-462.5 1778.5,-443.5 1676.5,-443.5"/>
<text text-anchor="middle" x="1727.5" y="-450.5" font-family="Helvetica,sans-Serif" font-size="10.00">as_mutex_unlock</text>
</a>
</g>
</g>
<!-- Node15&#45;&gt;Node17 -->
<g id="edge17" class="edge">
<title>Node15&#45;&gt;Node17</title>
<path fill="none" stroke="midnightblue" d="M1601.21,-437.44C1619.35,-439.69 1643.79,-442.73 1666.26,-445.52"/>
<polygon fill="midnightblue" stroke="midnightblue" points="1666.06,-449.02 1676.41,-446.78 1666.92,-442.07 1666.06,-449.02"/>
</g>
<!-- Node18&#45;&gt;Node14 -->
<g id="edge21" class="edge">
<title>Node18&#45;&gt;Node14</title>
<path fill="none" stroke="midnightblue" d="M1267.5,-209.54C1280.73,-226.46 1308.89,-262.98 1331,-295 1360.25,-337.35 1392.09,-388.82 1408.44,-415.68"/>
<polygon fill="midnightblue" stroke="midnightblue" points="1405.55,-417.67 1413.73,-424.4 1411.54,-414.04 1405.55,-417.67"/>
</g>
<!-- Node19 -->
<g id="node19" class="node">
<title>Node19</title>
<g id="a_node19"><a xlink:href="group__as__iic__bitchecks.html#ga4629e4514c3531d0bcd44ae20abc6bad" target="_top" xlink:title=" ">
<polygon fill="none" stroke="black" points="1371,-190.5 1371,-209.5 1470,-209.5 1470,-190.5 1371,-190.5"/>
<text text-anchor="middle" x="1420.5" y="-197.5" font-family="Helvetica,sans-Serif" font-size="10.00">as_iic_is_waiting</text>
</a>
</g>
</g>
<!-- Node18&#45;&gt;Node19 -->
<g id="edge19" class="edge">
<title>Node18&#45;&gt;Node19</title>
<path fill="none" stroke="midnightblue" d="M1331.35,-200C1341.1,-200 1351.01,-200 1360.51,-200"/>
<polygon fill="midnightblue" stroke="midnightblue" points="1360.62,-203.5 1370.62,-200 1360.62,-196.5 1360.62,-203.5"/>
</g>
<!-- Node19&#45;&gt;Node9 -->
<g id="edge20" class="edge">
<title>Node19&#45;&gt;Node9</title>
<path fill="none" stroke="midnightblue" d="M1470.2,-193.83C1480.12,-192.57 1490.74,-191.23 1501.24,-189.9"/>
<polygon fill="midnightblue" stroke="midnightblue" points="1501.76,-193.36 1511.24,-188.63 1500.88,-186.42 1501.76,-193.36"/>
</g>
<!-- Node21&#45;&gt;Node22 -->
<g id="edge25" class="edge">
<title>Node21&#45;&gt;Node22</title>
<path fill="none" stroke="midnightblue" d="M1321.21,-309.39C1333.36,-308.48 1346.11,-307.52 1358.26,-306.61"/>
<polygon fill="midnightblue" stroke="midnightblue" points="1358.59,-310.09 1368.3,-305.85 1358.07,-303.11 1358.59,-310.09"/>
</g>
<!-- Node23 -->
<g id="node23" class="node">
<title>Node23</title>
<g id="a_node23"><a xlink:href="group__asterics__support.html#ga6345b997e24a6cd5f9143cef27629d49" target="_top" xlink:title=" ">
<polygon fill="none" stroke="black" points="1533,-269.5 1533,-288.5 1612,-288.5 1612,-269.5 1533,-269.5"/>
<text text-anchor="middle" x="1572.5" y="-276.5" font-family="Helvetica,sans-Serif" font-size="10.00">as_reg_write</text>
</a>
</g>
</g>
<!-- Node22&#45;&gt;Node23 -->
<g id="edge26" class="edge">
<title>Node22&#45;&gt;Node23</title>
<path fill="none" stroke="midnightblue" d="M1472.7,-294.15C1488.85,-291.67 1506.65,-288.94 1522.63,-286.49"/>
<polygon fill="midnightblue" stroke="midnightblue" points="1523.49,-289.9 1532.84,-284.93 1522.43,-282.98 1523.49,-289.9"/>
</g>
<!-- Node24 -->
<g id="node24" class="node">
<title>Node24</title>
<g id="a_node24"><a xlink:href="group__asterics__support.html#gab651cc2c035ce61b354578434e59f822" target="_top" xlink:title=" ">
<polygon fill="none" stroke="black" points="1671,-269.5 1671,-288.5 1784,-288.5 1784,-269.5 1671,-269.5"/>
<text text-anchor="middle" x="1727.5" y="-276.5" font-family="Helvetica,sans-Serif" font-size="10.00">as_reg_from_uint32</text>
</a>
</g>
</g>
<!-- Node23&#45;&gt;Node24 -->
<g id="edge27" class="edge">
<title>Node23&#45;&gt;Node24</title>
<path fill="none" stroke="midnightblue" d="M1612.11,-279C1626.84,-279 1644.09,-279 1660.65,-279"/>
<polygon fill="midnightblue" stroke="midnightblue" points="1660.85,-282.5 1670.85,-279 1660.85,-275.5 1660.85,-282.5"/>
</g>
<!-- Node25&#45;&gt;Node10 -->
<g id="edge30" class="edge">
<title>Node25&#45;&gt;Node10</title>
<path fill="none" stroke="midnightblue" d="M1474.28,-232.29C1531.94,-226.05 1623.48,-216.15 1678.98,-210.14"/>
<polygon fill="midnightblue" stroke="midnightblue" points="1679.67,-213.59 1689.24,-209.03 1678.92,-206.63 1679.67,-213.59"/>
</g>
<!-- Node25&#45;&gt;Node23 -->
<g id="edge31" class="edge">
<title>Node25&#45;&gt;Node23</title>
<path fill="none" stroke="midnightblue" d="M1456.29,-247.51C1477.32,-253.26 1504.35,-260.65 1526.94,-266.82"/>
<polygon fill="midnightblue" stroke="midnightblue" points="1526.07,-270.21 1536.64,-269.47 1527.92,-263.46 1526.07,-270.21"/>
</g>
<!-- Node26&#45;&gt;Node8 -->
<g id="edge33" class="edge">
<title>Node26&#45;&gt;Node8</title>
<path fill="none" stroke="midnightblue" d="M1077.85,-342.25C1095.04,-315.94 1144.04,-241.44 1187,-181 1206.46,-153.62 1229.96,-122.55 1244.44,-103.62"/>
<polygon fill="midnightblue" stroke="midnightblue" points="1247.28,-105.66 1250.59,-95.6 1241.73,-101.4 1247.28,-105.66"/>
</g>
<!-- Node26&#45;&gt;Node12 -->
<g id="edge34" class="edge">
<title>Node26&#45;&gt;Node12</title>
<path fill="none" stroke="midnightblue" d="M1092.3,-361.54C1115.38,-372.08 1153.74,-389.49 1187,-404 1195.2,-407.58 1203.96,-411.33 1212.42,-414.93"/>
<polygon fill="midnightblue" stroke="midnightblue" points="1211.24,-418.23 1221.81,-418.9 1213.97,-411.78 1211.24,-418.23"/>
</g>
<!-- Node26&#45;&gt;Node14 -->
<g id="edge37" class="edge">
<title>Node26&#45;&gt;Node14</title>
<path fill="none" stroke="midnightblue" d="M1117.12,-361.55C1169.06,-372.57 1256.38,-391.55 1331,-410 1347.48,-414.07 1365.59,-418.92 1381.11,-423.18"/>
<polygon fill="midnightblue" stroke="midnightblue" points="1380.32,-426.6 1390.89,-425.89 1382.18,-419.85 1380.32,-426.6"/>
</g>
<!-- Node26&#45;&gt;Node21 -->
<g id="edge35" class="edge">
<title>Node26&#45;&gt;Node21</title>
<path fill="none" stroke="midnightblue" d="M1118.56,-342.41C1143.73,-337.28 1174.9,-330.93 1201.38,-325.54"/>
<polygon fill="midnightblue" stroke="midnightblue" points="1202.18,-328.95 1211.28,-323.52 1200.78,-322.09 1202.18,-328.95"/>
</g>
<!-- Node26&#45;&gt;Node22 -->
<g id="edge36" class="edge">
<title>Node26&#45;&gt;Node22</title>
<path fill="none" stroke="midnightblue" d="M1151.18,-351.58C1202.9,-349.99 1271.52,-345.37 1331,-333 1350.27,-328.99 1371.08,-321.86 1387.68,-315.44"/>
<polygon fill="midnightblue" stroke="midnightblue" points="1389.41,-318.52 1397.41,-311.57 1386.83,-312.01 1389.41,-318.52"/>
</g>
<!-- Node27&#45;&gt;Node12 -->
<g id="edge39" class="edge">
<title>Node27&#45;&gt;Node12</title>
<path fill="none" stroke="midnightblue" d="M1114.76,-465.49C1137.08,-460.58 1164.83,-454.48 1189.95,-448.96"/>
<polygon fill="midnightblue" stroke="midnightblue" points="1190.77,-452.36 1199.79,-446.8 1189.27,-445.53 1190.77,-452.36"/>
</g>
<!-- Node27&#45;&gt;Node14 -->
<g id="edge44" class="edge">
<title>Node27&#45;&gt;Node14</title>
<path fill="none" stroke="midnightblue" d="M1105.11,-484.54C1155.4,-497.2 1252.69,-515.37 1331,-492 1358.13,-483.9 1384.67,-464.53 1401.5,-450.4"/>
<polygon fill="midnightblue" stroke="midnightblue" points="1404.11,-452.77 1409.37,-443.57 1399.52,-447.48 1404.11,-452.77"/>
</g>
<!-- Node27&#45;&gt;Node21 -->
<g id="edge42" class="edge">
<title>Node27&#45;&gt;Node21</title>
<path fill="none" stroke="midnightblue" d="M1082.61,-465.41C1113.37,-438.85 1199.97,-364.09 1238.78,-330.6"/>
<polygon fill="midnightblue" stroke="midnightblue" points="1241.43,-332.93 1246.71,-323.74 1236.86,-327.63 1241.43,-332.93"/>
</g>
<!-- Node27&#45;&gt;Node22 -->
<g id="edge43" class="edge">
<title>Node27&#45;&gt;Node22</title>
<path fill="none" stroke="midnightblue" d="M1117.18,-484.51C1172.32,-493.38 1265.78,-499.85 1331,-459 1356.94,-442.76 1394.91,-359.67 1411.38,-321.38"/>
<polygon fill="midnightblue" stroke="midnightblue" points="1414.73,-322.43 1415.43,-311.86 1408.29,-319.69 1414.73,-322.43"/>
</g>
<!-- Node28 -->
<g id="node28" class="node">
<title>Node28</title>
<g id="a_node28"><a xlink:href="group__as__iic__reg__funcs.html#gace5813084165559c81fe11db6b628b5e" target="_top" xlink:title=" ">
<polygon fill="none" stroke="black" points="1519,-353.5 1519,-372.5 1626,-372.5 1626,-353.5 1519,-353.5"/>
<text text-anchor="middle" x="1572.5" y="-360.5" font-family="Helvetica,sans-Serif" font-size="10.00">as_iic_get_rx_byte</text>
</a>
</g>
</g>
<!-- Node27&#45;&gt;Node28 -->
<g id="edge40" class="edge">
<title>Node27&#45;&gt;Node28</title>
<path fill="none" stroke="midnightblue" d="M1094.9,-484.59C1117.89,-493.46 1154.19,-506.01 1187,-511 1250.27,-520.63 1268.18,-523.25 1331,-511 1398.32,-497.87 1417.35,-491.66 1474,-453 1493.22,-439.89 1493.09,-430.98 1510,-415 1523.38,-402.36 1539.26,-388.97 1551.53,-378.94"/>
<polygon fill="midnightblue" stroke="midnightblue" points="1553.8,-381.6 1559.37,-372.59 1549.4,-376.16 1553.8,-381.6"/>
</g>
<!-- Node28&#45;&gt;Node10 -->
<g id="edge41" class="edge">
<title>Node28&#45;&gt;Node10</title>
<path fill="none" stroke="midnightblue" d="M1582.6,-353.37C1606.4,-328.22 1668.77,-262.28 1671,-260 1683.67,-247.04 1698.22,-232.63 1709.25,-221.81"/>
<polygon fill="midnightblue" stroke="midnightblue" points="1711.88,-224.14 1716.58,-214.64 1706.98,-219.13 1711.88,-224.14"/>
</g>
<!-- Node30 -->
<g id="node30" class="node">
<title>Node30</title>
<g id="a_node30"><a xlink:href="group__as__iic__user.html#ga08fcff0dba9d6b4898291746d2206408" target="_top" xlink:title=" ">
<polygon fill="none" stroke="black" points="658,-333.5 658,-352.5 786,-352.5 786,-333.5 658,-333.5"/>
<text text-anchor="middle" x="722" y="-340.5" font-family="Helvetica,sans-Serif" font-size="10.00">as_iic_write_byte_mod</text>
</a>
</g>
</g>
<!-- Node29&#45;&gt;Node30 -->
<g id="edge46" class="edge">
<title>Node29&#45;&gt;Node30</title>
<path fill="none" stroke="midnightblue" d="M622.36,-343C630.54,-343 639.16,-343 647.76,-343"/>
<polygon fill="midnightblue" stroke="midnightblue" points="647.82,-346.5 657.82,-343 647.82,-339.5 647.82,-346.5"/>
</g>
<!-- Node30&#45;&gt;Node7 -->
<g id="edge47" class="edge">
<title>Node30&#45;&gt;Node7</title>
<path fill="none" stroke="midnightblue" d="M746.5,-333.4C774.75,-321.86 822.34,-302.42 854.2,-289.4"/>
<polygon fill="midnightblue" stroke="midnightblue" points="855.61,-292.6 863.55,-285.58 852.97,-286.12 855.61,-292.6"/>
</g>
<!-- Node30&#45;&gt;Node26 -->
<g id="edge48" class="edge">
<title>Node30&#45;&gt;Node26</title>
<path fill="none" stroke="midnightblue" d="M786.15,-344.64C840.22,-346.04 918.71,-348.08 979.38,-349.66"/>
<polygon fill="midnightblue" stroke="midnightblue" points="979.63,-353.17 989.72,-349.93 979.81,-346.17 979.63,-353.17"/>
</g>
<!-- Node32 -->
<g id="node32" class="node">
<title>Node32</title>
<g id="a_node32"><a xlink:href="group__as__iic__user.html#ga5ae8936ee892843eda5df7b9a418bd52" target="_top" xlink:title=" ">
<polygon fill="none" stroke="black" points="390,-312.5 390,-331.5 485,-331.5 485,-312.5 390,-312.5"/>
<text text-anchor="middle" x="437.5" y="-319.5" font-family="Helvetica,sans-Serif" font-size="10.00">as_iic_write_reg</text>
</a>
</g>
</g>
<!-- Node31&#45;&gt;Node32 -->
<g id="edge51" class="edge">
<title>Node31&#45;&gt;Node32</title>
<path fill="none" stroke="midnightblue" d="M342.03,-322C354.21,-322 367.18,-322 379.48,-322"/>
<polygon fill="midnightblue" stroke="midnightblue" points="379.62,-325.5 389.62,-322 379.62,-318.5 379.62,-325.5"/>
</g>
<!-- Node33 -->
<g id="node33" class="node">
<title>Node33</title>
<g id="a_node33"><a xlink:href="group__as__iic__user.html#ga2a4e5ee19e84cc95de665e29b92ccda1" target="_top" xlink:title=" ">
<polygon fill="none" stroke="black" points="668.5,-285.5 668.5,-304.5 775.5,-304.5 775.5,-285.5 668.5,-285.5"/>
<text text-anchor="middle" x="722" y="-292.5" font-family="Helvetica,sans-Serif" font-size="10.00">as_iic_write_bytes</text>
</a>
</g>
</g>
<!-- Node32&#45;&gt;Node33 -->
<g id="edge52" class="edge">
<title>Node32&#45;&gt;Node33</title>
<path fill="none" stroke="midnightblue" d="M485.15,-317.54C532.31,-313.03 605.51,-306.04 657.85,-301.04"/>
<polygon fill="midnightblue" stroke="midnightblue" points="658.4,-304.5 668.02,-300.06 657.74,-297.53 658.4,-304.5"/>
</g>
<!-- Node33&#45;&gt;Node7 -->
<g id="edge53" class="edge">
<title>Node33&#45;&gt;Node7</title>
<path fill="none" stroke="midnightblue" d="M775.79,-288.88C787.28,-287.55 799.64,-286.12 811.81,-284.71"/>
<polygon fill="midnightblue" stroke="midnightblue" points="812.42,-288.16 821.95,-283.54 811.62,-281.21 812.42,-288.16"/>
</g>
<!-- Node33&#45;&gt;Node26 -->
<g id="edge54" class="edge">
<title>Node33&#45;&gt;Node26</title>
<path fill="none" stroke="midnightblue" d="M775.63,-303.66C836.13,-313.61 935.6,-329.97 1001.82,-340.87"/>
<polygon fill="midnightblue" stroke="midnightblue" points="1001.31,-344.33 1011.75,-342.5 1002.45,-337.42 1001.31,-344.33"/>
</g>
<!-- Node34 -->
<g id="node34" class="node">
<title>Node34</title>
<g id="a_node34"><a xlink:href="group__as__iic__helpers.html#gad5e0aa9a71f8f0f65e1fbded8134b11f" target="_top" xlink:title=" ">
<polygon fill="none" stroke="black" points="1003.5,-114.5 1003.5,-133.5 1137.5,-133.5 1137.5,-114.5 1003.5,-114.5"/>
<text text-anchor="middle" x="1070.5" y="-121.5" font-family="Helvetica,sans-Serif" font-size="10.00">as_iic_write_transaction</text>
</a>
</g>
</g>
<!-- Node33&#45;&gt;Node34 -->
<g id="edge55" class="edge">
<title>Node33&#45;&gt;Node34</title>
<path fill="none" stroke="midnightblue" d="M736.48,-285.46C774.5,-258.98 886.56,-183.84 990,-143 996.39,-140.48 1003.2,-138.23 1010.04,-136.25"/>
<polygon fill="midnightblue" stroke="midnightblue" points="1011.33,-139.52 1020.06,-133.52 1009.49,-132.77 1011.33,-139.52"/>
</g>
<!-- Node34&#45;&gt;Node8 -->
<g id="edge56" class="edge">
<title>Node34&#45;&gt;Node8</title>
<path fill="none" stroke="midnightblue" d="M1118.56,-114.41C1143.73,-109.28 1174.9,-102.93 1201.38,-97.54"/>
<polygon fill="midnightblue" stroke="midnightblue" points="1202.18,-100.95 1211.28,-95.52 1200.78,-94.09 1202.18,-100.95"/>
</g>
<!-- Node34&#45;&gt;Node18 -->
<g id="edge57" class="edge">
<title>Node34&#45;&gt;Node18</title>
<path fill="none" stroke="midnightblue" d="M1127.56,-133.59C1135.68,-136.05 1143.73,-139.14 1151,-143 1170.17,-153.18 1168.32,-164.95 1187,-176 1194.33,-180.33 1202.54,-184.02 1210.72,-187.1"/>
<polygon fill="midnightblue" stroke="midnightblue" points="1209.64,-190.43 1220.24,-190.45 1211.97,-183.83 1209.64,-190.43"/>
</g>
<!-- Node34&#45;&gt;Node21 -->
<g id="edge61" class="edge">
<title>Node34&#45;&gt;Node21</title>
<path fill="none" stroke="midnightblue" d="M1135.18,-133.59C1140.87,-136.07 1146.26,-139.16 1151,-143 1180.03,-166.55 1167.72,-186.98 1187,-219 1204.24,-247.63 1228.16,-278.14 1243.36,-296.64"/>
<polygon fill="midnightblue" stroke="midnightblue" points="1240.78,-299.01 1249.86,-304.47 1246.16,-294.54 1240.78,-299.01"/>
</g>
<!-- Node34&#45;&gt;Node22 -->
<g id="edge62" class="edge">
<title>Node34&#45;&gt;Node22</title>
<path fill="none" stroke="midnightblue" d="M1127.03,-133.52C1198.42,-146.16 1315.12,-168.36 1331,-181 1360.24,-204.28 1344.31,-227.3 1367,-257 1375.43,-268.03 1386.95,-278.28 1397.05,-286.2"/>
<polygon fill="midnightblue" stroke="midnightblue" points="1395.02,-289.04 1405.11,-292.27 1399.23,-283.46 1395.02,-289.04"/>
</g>
<!-- Node34&#45;&gt;Node25 -->
<g id="edge63" class="edge">
<title>Node34&#45;&gt;Node25</title>
<path fill="none" stroke="midnightblue" d="M1127.82,-114.49C1184.19,-108.11 1270.94,-107.18 1331,-148 1360.26,-167.89 1340.5,-195.55 1367,-219 1368.91,-220.69 1370.97,-222.23 1373.15,-223.63"/>
<polygon fill="midnightblue" stroke="midnightblue" points="1371.5,-226.72 1381.96,-228.42 1374.84,-220.57 1371.5,-226.72"/>
</g>
<!-- Node35 -->
<g id="node35" class="node">
<title>Node35</title>
<g id="a_node35"><a xlink:href="group__as__iic__bitchecks.html#ga2ef7a1f9767986f2033697f584cd4feb" target="_top" xlink:title=" ">
<polygon fill="none" stroke="black" points="1204,-0.5 1204,-19.5 1314,-19.5 1314,-0.5 1204,-0.5"/>
<text text-anchor="middle" x="1259" y="-7.5" font-family="Helvetica,sans-Serif" font-size="10.00">as_iic_is_readwrite</text>
</a>
</g>
</g>
<!-- Node34&#45;&gt;Node35 -->
<g id="edge58" class="edge">
<title>Node34&#45;&gt;Node35</title>
<path fill="none" stroke="midnightblue" d="M1087.08,-114.48C1119.58,-94.61 1194.81,-48.63 1233.72,-24.84"/>
<polygon fill="midnightblue" stroke="midnightblue" points="1235.63,-27.78 1242.33,-19.58 1231.98,-21.81 1235.63,-27.78"/>
</g>
<!-- Node36 -->
<g id="node36" class="node">
<title>Node36</title>
<g id="a_node36"><a xlink:href="group__as__iic__reg__funcs.html#gaca309e97934beed04c02e31ba9cfbd3a" target="_top" xlink:title=" ">
<polygon fill="none" stroke="black" points="1510,-86.5 1510,-105.5 1635,-105.5 1635,-86.5 1510,-86.5"/>
<text text-anchor="middle" x="1572.5" y="-93.5" font-family="Helvetica,sans-Serif" font-size="10.00">as_iic_get_control_reg</text>
</a>
</g>
</g>
<!-- Node35&#45;&gt;Node36 -->
<g id="edge59" class="edge">
<title>Node35&#45;&gt;Node36</title>
<path fill="none" stroke="midnightblue" d="M1294.53,-19.53C1351.25,-35.19 1464.1,-66.35 1526.83,-83.67"/>
<polygon fill="midnightblue" stroke="midnightblue" points="1526.25,-87.14 1536.82,-86.43 1528.11,-80.39 1526.25,-87.14"/>
</g>
<!-- Node36&#45;&gt;Node10 -->
<g id="edge60" class="edge">
<title>Node36&#45;&gt;Node10</title>
<path fill="none" stroke="midnightblue" d="M1587.08,-105.67C1613.55,-124.53 1672.28,-166.37 1704.42,-189.27"/>
<polygon fill="midnightblue" stroke="midnightblue" points="1702.56,-192.24 1712.73,-195.19 1706.62,-186.54 1702.56,-192.24"/>
</g>
</g>
</svg>
