<?xml version="1.0" encoding="UTF-8" standalone="no"?>
<!DOCTYPE svg PUBLIC "-//W3C//DTD SVG 1.1//EN"
 "http://www.w3.org/Graphics/SVG/1.1/DTD/svg11.dtd">
<!-- Generated by graphviz version 2.43.0 (0)
 -->
<!-- Title: as_control_ioctl Pages: 1 -->
<svg width="364pt" height="382pt"
 viewBox="0.00 0.00 364.00 382.00" xmlns="http://www.w3.org/2000/svg" xmlns:xlink="http://www.w3.org/1999/xlink">
<g id="graph0" class="graph" transform="scale(1 1) rotate(0) translate(4 378)">
<title>as_control_ioctl</title>
<!-- Node1 -->
<g id="node1" class="node">
<title>Node1</title>
<g id="a_node1"><a xlink:title=" ">
<polygon fill="#bfbfbf" stroke="black" points="0,-174.5 0,-193.5 93,-193.5 93,-174.5 0,-174.5"/>
<text text-anchor="middle" x="46.5" y="-181.5" font-family="Helvetica,sans-Serif" font-size="10.00">as_control_ioctl</text>
</a>
</g>
</g>
<!-- Node2 -->
<g id="node2" class="node">
<title>Node2</title>
<g id="a_node2"><a xlink:href="group__as__buffer.html#ga90f980b27c24955418f94f617402c7e7" target="_top" xlink:title=" ">
<polygon fill="none" stroke="black" points="132,-354.5 132,-373.5 251,-373.5 251,-354.5 132,-354.5"/>
<text text-anchor="middle" x="191.5" y="-361.5" font-family="Helvetica,sans-Serif" font-size="10.00">as_buffer_obj_create</text>
</a>
</g>
</g>
<!-- Node1&#45;&gt;Node2 -->
<g id="edge1" class="edge">
<title>Node1&#45;&gt;Node2</title>
<path fill="none" stroke="midnightblue" d="M49.92,-193.53C57.22,-220.37 81.44,-297.38 129,-340 133.43,-343.97 138.59,-347.32 144,-350.13"/>
<polygon fill="midnightblue" stroke="midnightblue" points="142.72,-353.39 153.27,-354.37 145.63,-347.03 142.72,-353.39"/>
</g>
<!-- Node3 -->
<g id="node3" class="node">
<title>Node3</title>
<g id="a_node3"><a xlink:href="group__asterics__support.html#ga9b562fe5abd06406020981c2f19bcc0c" target="_top" xlink:title=" ">
<polygon fill="none" stroke="black" points="290,-325.5 290,-344.5 356,-344.5 356,-325.5 290,-325.5"/>
<text text-anchor="middle" x="323" y="-332.5" font-family="Helvetica,sans-Serif" font-size="10.00">as_malloc</text>
</a>
</g>
</g>
<!-- Node1&#45;&gt;Node3 -->
<g id="edge7" class="edge">
<title>Node1&#45;&gt;Node3</title>
<path fill="none" stroke="midnightblue" d="M50.76,-193.7C59.31,-217.53 84.86,-279.03 129,-307 174.61,-335.9 238.3,-339.66 279.84,-338.39"/>
<polygon fill="midnightblue" stroke="midnightblue" points="280.05,-341.88 289.89,-337.97 279.76,-334.89 280.05,-341.88"/>
</g>
<!-- Node4 -->
<g id="node4" class="node">
<title>Node4</title>
<g id="a_node4"><a xlink:href="group__as__buffer.html#ga24266b1c24e9679a68088a917f78ecf8" target="_top" xlink:title=" ">
<polygon fill="none" stroke="black" points="129,-278.5 129,-297.5 254,-297.5 254,-278.5 129,-278.5"/>
<text text-anchor="middle" x="191.5" y="-285.5" font-family="Helvetica,sans-Serif" font-size="10.00">as_buffer_obj_destroy</text>
</a>
</g>
</g>
<!-- Node1&#45;&gt;Node4 -->
<g id="edge3" class="edge">
<title>Node1&#45;&gt;Node4</title>
<path fill="none" stroke="midnightblue" d="M55.07,-193.65C68.42,-210.1 97.7,-243.76 129,-264 135.29,-268.07 142.37,-271.62 149.43,-274.66"/>
<polygon fill="midnightblue" stroke="midnightblue" points="148.39,-278.01 158.97,-278.48 150.99,-271.51 148.39,-278.01"/>
</g>
<!-- Node5 -->
<g id="node5" class="node">
<title>Node5</title>
<g id="a_node5"><a xlink:href="group__asterics__support.html#ga3a2ba9ffa2388da78d024646e73441ff" target="_top" xlink:title=" ">
<polygon fill="none" stroke="black" points="296.5,-268.5 296.5,-287.5 349.5,-287.5 349.5,-268.5 296.5,-268.5"/>
<text text-anchor="middle" x="323" y="-275.5" font-family="Helvetica,sans-Serif" font-size="10.00">as_free</text>
</a>
</g>
</g>
<!-- Node1&#45;&gt;Node5 -->
<g id="edge6" class="edge">
<title>Node1&#45;&gt;Node5</title>
<path fill="none" stroke="midnightblue" d="M61.63,-193.55C77.44,-203.84 104.09,-220.09 129,-230 182.01,-251.1 246.99,-264.96 286.41,-272.13"/>
<polygon fill="midnightblue" stroke="midnightblue" points="285.88,-275.59 296.34,-273.9 287.1,-268.7 285.88,-275.59"/>
</g>
<!-- Node6 -->
<g id="node6" class="node">
<title>Node6</title>
<g id="a_node6"><a xlink:href="group__as__buffer.html#gaae07f36c8697636591c86ec375de82c8" target="_top" xlink:title=" ">
<polygon fill="none" stroke="black" points="133.5,-191 133.5,-221 249.5,-221 249.5,-191 133.5,-191"/>
<text text-anchor="start" x="141.5" y="-209" font-family="Helvetica,sans-Serif" font-size="10.00">as_buffer_obj_ptr_to</text>
<text text-anchor="middle" x="191.5" y="-198" font-family="Helvetica,sans-Serif" font-size="10.00">_handle</text>
</a>
</g>
</g>
<!-- Node1&#45;&gt;Node6 -->
<g id="edge5" class="edge">
<title>Node1&#45;&gt;Node6</title>
<path fill="none" stroke="midnightblue" d="M93.14,-191.02C102.76,-192.5 113.11,-194.09 123.34,-195.67"/>
<polygon fill="midnightblue" stroke="midnightblue" points="123.08,-199.17 133.5,-197.23 124.15,-192.25 123.08,-199.17"/>
</g>
<!-- Node7 -->
<g id="node7" class="node">
<title>Node7</title>
<g id="a_node7"><a xlink:href="group__asterics__support.html#ga57df9331011244df186e877459857341" target="_top" xlink:title=" ">
<polygon fill="none" stroke="black" points="149,-152.5 149,-171.5 234,-171.5 234,-152.5 149,-152.5"/>
<text text-anchor="middle" x="191.5" y="-159.5" font-family="Helvetica,sans-Serif" font-size="10.00">as_mutex_del</text>
</a>
</g>
</g>
<!-- Node1&#45;&gt;Node7 -->
<g id="edge8" class="edge">
<title>Node1&#45;&gt;Node7</title>
<path fill="none" stroke="midnightblue" d="M93.14,-176.98C107.62,-174.75 123.73,-172.27 138.61,-169.98"/>
<polygon fill="midnightblue" stroke="midnightblue" points="139.33,-173.41 148.69,-168.43 138.27,-166.49 139.33,-173.41"/>
</g>
<!-- Node8 -->
<g id="node8" class="node">
<title>Node8</title>
<g id="a_node8"><a xlink:href="group__asterics__support.html#gad294e0c5530bd6fb800a2394179070e1" target="_top" xlink:title=" ">
<polygon fill="none" stroke="black" points="146.5,-114.5 146.5,-133.5 236.5,-133.5 236.5,-114.5 146.5,-114.5"/>
<text text-anchor="middle" x="191.5" y="-121.5" font-family="Helvetica,sans-Serif" font-size="10.00">as_mutex_lock</text>
</a>
</g>
</g>
<!-- Node1&#45;&gt;Node8 -->
<g id="edge9" class="edge">
<title>Node1&#45;&gt;Node8</title>
<path fill="none" stroke="midnightblue" d="M64.6,-174.34C80.83,-165.44 106.08,-152.23 129,-143 134.51,-140.78 140.39,-138.66 146.24,-136.7"/>
<polygon fill="midnightblue" stroke="midnightblue" points="147.55,-139.96 155.99,-133.56 145.4,-133.29 147.55,-139.96"/>
</g>
<!-- Node9 -->
<g id="node9" class="node">
<title>Node9</title>
<g id="a_node9"><a xlink:href="group__asterics__support.html#ga5356d69ee6d0c515fddf95b1ee37712c" target="_top" xlink:title=" ">
<polygon fill="none" stroke="black" points="146.5,-76.5 146.5,-95.5 236.5,-95.5 236.5,-76.5 146.5,-76.5"/>
<text text-anchor="middle" x="191.5" y="-83.5" font-family="Helvetica,sans-Serif" font-size="10.00">as_mutex_new</text>
</a>
</g>
</g>
<!-- Node1&#45;&gt;Node9 -->
<g id="edge10" class="edge">
<title>Node1&#45;&gt;Node9</title>
<path fill="none" stroke="midnightblue" d="M54.74,-174.5C67.8,-157.99 96.96,-123.98 129,-105 132.62,-102.85 136.51,-100.93 140.51,-99.2"/>
<polygon fill="midnightblue" stroke="midnightblue" points="141.91,-102.42 149.97,-95.54 139.38,-95.89 141.91,-102.42"/>
</g>
<!-- Node10 -->
<g id="node10" class="node">
<title>Node10</title>
<g id="a_node10"><a xlink:href="group__asterics__support.html#ga07e09e825f2608339f6213edb9d0c8b3" target="_top" xlink:title=" ">
<polygon fill="none" stroke="black" points="140.5,-38.5 140.5,-57.5 242.5,-57.5 242.5,-38.5 140.5,-38.5"/>
<text text-anchor="middle" x="191.5" y="-45.5" font-family="Helvetica,sans-Serif" font-size="10.00">as_mutex_unlock</text>
</a>
</g>
</g>
<!-- Node1&#45;&gt;Node10 -->
<g id="edge11" class="edge">
<title>Node1&#45;&gt;Node10</title>
<path fill="none" stroke="midnightblue" d="M51.61,-174.18C61.49,-151.74 88.82,-96.35 129,-67 131.66,-65.06 134.53,-63.31 137.51,-61.73"/>
<polygon fill="midnightblue" stroke="midnightblue" points="139.1,-64.86 146.75,-57.53 136.2,-58.49 139.1,-64.86"/>
</g>
<!-- Node11 -->
<g id="node11" class="node">
<title>Node11</title>
<g id="a_node11"><a xlink:href="group__as__driver.html#ga31acf76a64c66c9d65ea0ef597fb1713" target="_top" xlink:title=" ">
<polygon fill="none" stroke="black" points="134.5,-0.5 134.5,-19.5 248.5,-19.5 248.5,-0.5 134.5,-0.5"/>
<text text-anchor="middle" x="191.5" y="-7.5" font-family="Helvetica,sans-Serif" font-size="10.00">set_device_defaults</text>
</a>
</g>
</g>
<!-- Node1&#45;&gt;Node11 -->
<g id="edge12" class="edge">
<title>Node1&#45;&gt;Node11</title>
<path fill="none" stroke="midnightblue" d="M49.79,-174.35C56.73,-147.22 80.12,-69.6 129,-29 131.03,-27.31 133.21,-25.78 135.49,-24.37"/>
<polygon fill="midnightblue" stroke="midnightblue" points="137.44,-27.31 144.73,-19.62 134.23,-21.09 137.44,-27.31"/>
</g>
<!-- Node2&#45;&gt;Node3 -->
<g id="edge2" class="edge">
<title>Node2&#45;&gt;Node3</title>
<path fill="none" stroke="midnightblue" d="M235.26,-354.42C249.61,-351.21 265.59,-347.63 279.89,-344.43"/>
<polygon fill="midnightblue" stroke="midnightblue" points="280.96,-347.78 289.95,-342.18 279.43,-340.95 280.96,-347.78"/>
</g>
<!-- Node4&#45;&gt;Node5 -->
<g id="edge4" class="edge">
<title>Node4&#45;&gt;Node5</title>
<path fill="none" stroke="midnightblue" d="M254.22,-283.23C265.12,-282.39 276.15,-281.54 286.04,-280.78"/>
<polygon fill="midnightblue" stroke="midnightblue" points="286.58,-284.25 296.28,-279.99 286.04,-277.27 286.58,-284.25"/>
</g>
</g>
</svg>
