<?xml version="1.0" encoding="UTF-8" standalone="no"?>
<!DOCTYPE svg PUBLIC "-//W3C//DTD SVG 1.1//EN"
 "http://www.w3.org/Graphics/SVG/1.1/DTD/svg11.dtd">
<!-- Generated by graphviz version 2.43.0 (0)
 -->
<!-- Title: as_reader_writer_reset Pages: 1 -->
<svg width="558pt" height="85pt"
 viewBox="0.00 0.00 558.00 85.00" xmlns="http://www.w3.org/2000/svg" xmlns:xlink="http://www.w3.org/1999/xlink">
<g id="graph0" class="graph" transform="scale(1 1) rotate(0) translate(4 81)">
<title>as_reader_writer_reset</title>
<!-- Node1 -->
<g id="node1" class="node">
<title>Node1</title>
<g id="a_node1"><a xlink:title="Resets the hardware module.">
<polygon fill="#bfbfbf" stroke="black" points="0,-38.5 0,-57.5 128,-57.5 128,-38.5 0,-38.5"/>
<text text-anchor="middle" x="64" y="-45.5" font-family="Helvetica,sans-Serif" font-size="10.00">as_reader_writer_reset</text>
</a>
</g>
</g>
<!-- Node2 -->
<g id="node2" class="node">
<title>Node2</title>
<g id="a_node2"><a xlink:href="group__asterics__support.html#gaa7520f5b717e163da743500adb2eb0b9" target="_top" xlink:title=" ">
<polygon fill="none" stroke="black" points="179.5,-57.5 179.5,-76.5 270.5,-76.5 270.5,-57.5 179.5,-57.5"/>
<text text-anchor="middle" x="225" y="-64.5" font-family="Helvetica,sans-Serif" font-size="10.00">as_module_reg</text>
</a>
</g>
</g>
<!-- Node1&#45;&gt;Node2 -->
<g id="edge1" class="edge">
<title>Node1&#45;&gt;Node2</title>
<path fill="none" stroke="midnightblue" d="M128.3,-55.56C141.69,-57.16 155.73,-58.84 168.79,-60.4"/>
<polygon fill="midnightblue" stroke="midnightblue" points="168.69,-63.92 179.03,-61.63 169.52,-56.96 168.69,-63.92"/>
</g>
<!-- Node3 -->
<g id="node3" class="node">
<title>Node3</title>
<g id="a_node3"><a xlink:href="group__asterics__support.html#ga0ccb0610d764a95bda989e35fba59490" target="_top" xlink:title=" ">
<polygon fill="none" stroke="black" points="164,-19.5 164,-38.5 286,-38.5 286,-19.5 164,-19.5"/>
<text text-anchor="middle" x="225" y="-26.5" font-family="Helvetica,sans-Serif" font-size="10.00">as_reg_write_masked</text>
</a>
</g>
</g>
<!-- Node1&#45;&gt;Node3 -->
<g id="edge2" class="edge">
<title>Node1&#45;&gt;Node3</title>
<path fill="none" stroke="midnightblue" d="M128.3,-40.44C136.61,-39.44 145.17,-38.42 153.59,-37.41"/>
<polygon fill="midnightblue" stroke="midnightblue" points="154.25,-40.86 163.77,-36.2 153.42,-33.91 154.25,-40.86"/>
</g>
<!-- Node4 -->
<g id="node4" class="node">
<title>Node4</title>
<g id="a_node4"><a xlink:href="group__asterics__support.html#ga8e5c2bfd2e4498d10289377bd94cef07" target="_top" xlink:title=" ">
<polygon fill="none" stroke="black" points="323.5,-38.5 323.5,-57.5 399.5,-57.5 399.5,-38.5 323.5,-38.5"/>
<text text-anchor="middle" x="361.5" y="-45.5" font-family="Helvetica,sans-Serif" font-size="10.00">as_reg_read</text>
</a>
</g>
</g>
<!-- Node3&#45;&gt;Node4 -->
<g id="edge3" class="edge">
<title>Node3&#45;&gt;Node4</title>
<path fill="none" stroke="midnightblue" d="M286.17,-37.5C295.22,-38.78 304.44,-40.08 313.17,-41.31"/>
<polygon fill="midnightblue" stroke="midnightblue" points="312.76,-44.79 323.15,-42.72 313.74,-37.86 312.76,-44.79"/>
</g>
<!-- Node6 -->
<g id="node6" class="node">
<title>Node6</title>
<g id="a_node6"><a xlink:href="group__asterics__support.html#ga6345b997e24a6cd5f9143cef27629d49" target="_top" xlink:title=" ">
<polygon fill="none" stroke="black" points="322,-0.5 322,-19.5 401,-19.5 401,-0.5 322,-0.5"/>
<text text-anchor="middle" x="361.5" y="-7.5" font-family="Helvetica,sans-Serif" font-size="10.00">as_reg_write</text>
</a>
</g>
</g>
<!-- Node3&#45;&gt;Node6 -->
<g id="edge5" class="edge">
<title>Node3&#45;&gt;Node6</title>
<path fill="none" stroke="midnightblue" d="M286.17,-20.5C294.82,-19.28 303.63,-18.03 312.02,-16.85"/>
<polygon fill="midnightblue" stroke="midnightblue" points="312.59,-20.3 322,-15.44 311.61,-13.37 312.59,-20.3"/>
</g>
<!-- Node5 -->
<g id="node5" class="node">
<title>Node5</title>
<g id="a_node5"><a xlink:href="group__asterics__support.html#ga4c6d688b840a6e2edc9bc0b8ed961677" target="_top" xlink:title=" ">
<polygon fill="none" stroke="black" points="443.5,-38.5 443.5,-57.5 543.5,-57.5 543.5,-38.5 443.5,-38.5"/>
<text text-anchor="middle" x="493.5" y="-45.5" font-family="Helvetica,sans-Serif" font-size="10.00">as_reg_to_uint32</text>
</a>
</g>
</g>
<!-- Node4&#45;&gt;Node5 -->
<g id="edge4" class="edge">
<title>Node4&#45;&gt;Node5</title>
<path fill="none" stroke="midnightblue" d="M399.75,-48C410.09,-48 421.59,-48 432.86,-48"/>
<polygon fill="midnightblue" stroke="midnightblue" points="433.12,-51.5 443.12,-48 433.12,-44.5 433.12,-51.5"/>
</g>
<!-- Node7 -->
<g id="node7" class="node">
<title>Node7</title>
<g id="a_node7"><a xlink:href="group__asterics__support.html#gab651cc2c035ce61b354578434e59f822" target="_top" xlink:title=" ">
<polygon fill="none" stroke="black" points="437,-0.5 437,-19.5 550,-19.5 550,-0.5 437,-0.5"/>
<text text-anchor="middle" x="493.5" y="-7.5" font-family="Helvetica,sans-Serif" font-size="10.00">as_reg_from_uint32</text>
</a>
</g>
</g>
<!-- Node6&#45;&gt;Node7 -->
<g id="edge6" class="edge">
<title>Node6&#45;&gt;Node7</title>
<path fill="none" stroke="midnightblue" d="M401.15,-10C409.22,-10 417.94,-10 426.68,-10"/>
<polygon fill="midnightblue" stroke="midnightblue" points="426.92,-13.5 436.92,-10 426.92,-6.5 426.92,-13.5"/>
</g>
</g>
</svg>
