<?xml version="1.0" encoding="UTF-8" standalone="no"?>
<!DOCTYPE svg PUBLIC "-//W3C//DTD SVG 1.1//EN"
 "http://www.w3.org/Graphics/SVG/1.1/DTD/svg11.dtd">
<!-- Generated by graphviz version 2.43.0 (0)
 -->
<!-- Title: as_mutex_lock Pages: 1 -->
<svg width="1895pt" height="495pt"
 viewBox="0.00 0.00 1895.00 495.00" xmlns="http://www.w3.org/2000/svg" xmlns:xlink="http://www.w3.org/1999/xlink">
<g id="graph0" class="graph" transform="scale(1 1) rotate(0) translate(4 491)">
<title>as_mutex_lock</title>
<!-- Node1 -->
<g id="node1" class="node">
<title>Node1</title>
<g id="a_node1"><a xlink:title=" ">
<polygon fill="#bfbfbf" stroke="black" points="1797,-133.5 1797,-152.5 1887,-152.5 1887,-133.5 1797,-133.5"/>
<text text-anchor="middle" x="1842" y="-140.5" font-family="Helvetica,sans-Serif" font-size="10.00">as_mutex_lock</text>
</a>
</g>
</g>
<!-- Node2 -->
<g id="node2" class="node">
<title>Node2</title>
<g id="a_node2"><a xlink:href="group__ctrl__file__ops.html#gae869fa3bd595179fcf2a22ff931aee9c" target="_top" xlink:title=" ">
<polygon fill="none" stroke="black" points="1649,-266.5 1649,-285.5 1742,-285.5 1742,-266.5 1649,-266.5"/>
<text text-anchor="middle" x="1695.5" y="-273.5" font-family="Helvetica,sans-Serif" font-size="10.00">as_control_ioctl</text>
</a>
</g>
</g>
<!-- Node1&#45;&gt;Node2 -->
<g id="edge1" class="edge">
<title>Node1&#45;&gt;Node2</title>
<path fill="none" stroke="midnightblue" d="M1832.71,-161.88C1820.6,-187.27 1795.7,-232.09 1761,-257 1755.31,-261.08 1748.74,-264.3 1742.03,-266.83"/>
<polygon fill="midnightblue" stroke="midnightblue" points="1835.98,-163.15 1836.98,-152.6 1829.62,-160.22 1835.98,-163.15"/>
</g>
<!-- Node3 -->
<g id="node3" class="node">
<title>Node3</title>
<g id="a_node3"><a xlink:href="group__mmap__file__ops.html#gab078c489a563497f4da70a9f6115dfce" target="_top" xlink:title=" ">
<polygon fill="none" stroke="black" points="1650,-228.5 1650,-247.5 1741,-247.5 1741,-228.5 1650,-228.5"/>
<text text-anchor="middle" x="1695.5" y="-235.5" font-family="Helvetica,sans-Serif" font-size="10.00">as_mmap_ioctl</text>
</a>
</g>
</g>
<!-- Node1&#45;&gt;Node3 -->
<g id="edge2" class="edge">
<title>Node1&#45;&gt;Node3</title>
<path fill="none" stroke="midnightblue" d="M1826.68,-160.83C1811.93,-178.07 1787.43,-203.76 1761,-219 1754.33,-222.85 1746.81,-225.98 1739.32,-228.5"/>
<polygon fill="midnightblue" stroke="midnightblue" points="1829.75,-162.61 1833.46,-152.69 1824.37,-158.13 1829.75,-162.61"/>
</g>
<!-- Node4 -->
<g id="node4" class="node">
<title>Node4</title>
<g id="a_node4"><a xlink:href="group__asterics__support.html#ga284d9e0d170cf7cabc16ccd7e62d95bd" target="_top" xlink:title=" ">
<polygon fill="none" stroke="black" points="1667,-190.5 1667,-209.5 1724,-209.5 1724,-190.5 1667,-190.5"/>
<text text-anchor="middle" x="1695.5" y="-197.5" font-family="Helvetica,sans-Serif" font-size="10.00">as_yield</text>
</a>
</g>
</g>
<!-- Node1&#45;&gt;Node4 -->
<g id="edge3" class="edge">
<title>Node1&#45;&gt;Node4</title>
<path fill="none" stroke="midnightblue" d="M1813.58,-157.34C1798.35,-164.97 1778.91,-174.16 1761,-181 1749.11,-185.54 1735.66,-189.66 1724.12,-192.89"/>
<polygon fill="midnightblue" stroke="midnightblue" points="1815.6,-160.24 1822.93,-152.59 1812.43,-154 1815.6,-160.24"/>
</g>
<!-- Node36 -->
<g id="node36" class="node">
<title>Node36</title>
<g id="a_node36"><a xlink:href="group__memio__file__ops.html#gabc26947002eedee4c4557faff325074e" target="_top" xlink:title=" ">
<polygon fill="none" stroke="black" points="1631.5,-152.5 1631.5,-171.5 1759.5,-171.5 1759.5,-152.5 1631.5,-152.5"/>
<text text-anchor="middle" x="1695.5" y="-159.5" font-family="Helvetica,sans-Serif" font-size="10.00">driver_as_memio_read</text>
</a>
</g>
</g>
<!-- Node1&#45;&gt;Node36 -->
<g id="edge56" class="edge">
<title>Node1&#45;&gt;Node36</title>
<path fill="none" stroke="midnightblue" d="M1786.67,-150.14C1777.81,-151.31 1768.57,-152.52 1759.52,-153.71"/>
<polygon fill="midnightblue" stroke="midnightblue" points="1787.4,-153.58 1796.86,-148.8 1786.49,-146.64 1787.4,-153.58"/>
</g>
<!-- Node37 -->
<g id="node37" class="node">
<title>Node37</title>
<g id="a_node37"><a xlink:href="group__memio__file__ops.html#gafff67fc067850f545e90c7e487f4fbce" target="_top" xlink:title=" ">
<polygon fill="none" stroke="black" points="1630,-114.5 1630,-133.5 1761,-133.5 1761,-114.5 1630,-114.5"/>
<text text-anchor="middle" x="1695.5" y="-121.5" font-family="Helvetica,sans-Serif" font-size="10.00">driver_as_memio_write</text>
</a>
</g>
</g>
<!-- Node1&#45;&gt;Node37 -->
<g id="edge57" class="edge">
<title>Node1&#45;&gt;Node37</title>
<path fill="none" stroke="midnightblue" d="M1786.83,-135.88C1778.44,-134.77 1769.71,-133.63 1761.12,-132.5"/>
<polygon fill="midnightblue" stroke="midnightblue" points="1786.49,-139.36 1796.86,-137.2 1787.4,-132.42 1786.49,-139.36"/>
</g>
<!-- Node38 -->
<g id="node38" class="node">
<title>Node38</title>
<g id="a_node38"><a xlink:href="group__mmap__file__ops.html#ga2818d1d7a0430100ab879f5a385e849b" target="_top" xlink:title=" ">
<polygon fill="none" stroke="black" points="1646.5,-76.5 1646.5,-95.5 1744.5,-95.5 1744.5,-76.5 1646.5,-76.5"/>
<text text-anchor="middle" x="1695.5" y="-83.5" font-family="Helvetica,sans-Serif" font-size="10.00">driver_as_mmap</text>
</a>
</g>
</g>
<!-- Node1&#45;&gt;Node38 -->
<g id="edge58" class="edge">
<title>Node1&#45;&gt;Node38</title>
<path fill="none" stroke="midnightblue" d="M1813.58,-128.66C1798.35,-121.03 1778.91,-111.84 1761,-105 1751.95,-101.54 1741.99,-98.33 1732.66,-95.57"/>
<polygon fill="midnightblue" stroke="midnightblue" points="1812.43,-132 1822.93,-133.41 1815.6,-125.76 1812.43,-132"/>
</g>
<!-- Node39 -->
<g id="node39" class="node">
<title>Node39</title>
<g id="a_node39"><a xlink:href="group__mmap__file__ops.html#gae18f99f9774b7224e71d80209ecd0bf4" target="_top" xlink:title=" ">
<polygon fill="none" stroke="black" points="1633,-38.5 1633,-57.5 1758,-57.5 1758,-38.5 1633,-38.5"/>
<text text-anchor="middle" x="1695.5" y="-45.5" font-family="Helvetica,sans-Serif" font-size="10.00">driver_as_mmap_read</text>
</a>
</g>
</g>
<!-- Node1&#45;&gt;Node39 -->
<g id="edge59" class="edge">
<title>Node1&#45;&gt;Node39</title>
<path fill="none" stroke="midnightblue" d="M1826.68,-125.17C1811.93,-107.93 1787.43,-82.24 1761,-67 1754.33,-63.15 1746.81,-60.02 1739.32,-57.5"/>
<polygon fill="midnightblue" stroke="midnightblue" points="1824.37,-127.87 1833.46,-133.31 1829.75,-123.39 1824.37,-127.87"/>
</g>
<!-- Node40 -->
<g id="node40" class="node">
<title>Node40</title>
<g id="a_node40"><a xlink:href="group__mmap__file__ops.html#gaeea3980f5b633c4b83ff46b2efc2ea10" target="_top" xlink:title=" ">
<polygon fill="none" stroke="black" points="1631.5,-0.5 1631.5,-19.5 1759.5,-19.5 1759.5,-0.5 1631.5,-0.5"/>
<text text-anchor="middle" x="1695.5" y="-7.5" font-family="Helvetica,sans-Serif" font-size="10.00">driver_as_mmap_write</text>
</a>
</g>
</g>
<!-- Node1&#45;&gt;Node40 -->
<g id="edge60" class="edge">
<title>Node1&#45;&gt;Node40</title>
<path fill="none" stroke="midnightblue" d="M1832.71,-124.12C1820.6,-98.73 1795.7,-53.91 1761,-29 1755.59,-25.12 1749.4,-22.02 1743.03,-19.56"/>
<polygon fill="midnightblue" stroke="midnightblue" points="1829.62,-125.78 1836.98,-133.4 1835.98,-122.85 1829.62,-125.78"/>
</g>
<!-- Node5 -->
<g id="node5" class="node">
<title>Node5</title>
<g id="a_node5"><a xlink:href="group__asterics__support.html#ga82169f81e9d09b61493b8a6d14ac7d15" target="_top" xlink:title=" ">
<polygon fill="none" stroke="black" points="1511,-209.5 1511,-228.5 1594,-228.5 1594,-209.5 1511,-209.5"/>
<text text-anchor="middle" x="1552.5" y="-216.5" font-family="Helvetica,sans-Serif" font-size="10.00">as_cond_wait</text>
</a>
</g>
</g>
<!-- Node4&#45;&gt;Node5 -->
<g id="edge4" class="edge">
<title>Node4&#45;&gt;Node5</title>
<path fill="none" stroke="midnightblue" d="M1656.98,-205.06C1637.57,-207.67 1613.86,-210.87 1594.04,-213.54"/>
<polygon fill="midnightblue" stroke="midnightblue" points="1657.54,-208.51 1666.98,-203.71 1656.6,-201.58 1657.54,-208.51"/>
</g>
<!-- Node6 -->
<g id="node6" class="node">
<title>Node6</title>
<g id="a_node6"><a xlink:href="group__asterics__support.html#gab803703ab5b845023ca31b7b2664419c" target="_top" xlink:title=" ">
<polygon fill="none" stroke="black" points="1523,-171.5 1523,-190.5 1582,-190.5 1582,-171.5 1523,-171.5"/>
<text text-anchor="middle" x="1552.5" y="-178.5" font-family="Helvetica,sans-Serif" font-size="10.00">as_sleep</text>
</a>
</g>
</g>
<!-- Node4&#45;&gt;Node6 -->
<g id="edge5" class="edge">
<title>Node4&#45;&gt;Node6</title>
<path fill="none" stroke="midnightblue" d="M1657.05,-194.95C1633.66,-191.8 1603.98,-187.8 1582.41,-184.9"/>
<polygon fill="midnightblue" stroke="midnightblue" points="1656.6,-198.42 1666.98,-196.29 1657.54,-191.49 1656.6,-198.42"/>
</g>
<!-- Node7 -->
<g id="node7" class="node">
<title>Node7</title>
<g id="a_node7"><a xlink:href="group__as__iic__wait.html#gad3cfec26b8a73166e060108cf1444a2b" target="_top" xlink:title=" ">
<polygon fill="none" stroke="black" points="1357,-242 1357,-272 1475,-272 1475,-242 1357,-242"/>
<text text-anchor="start" x="1365" y="-260" font-family="Helvetica,sans-Serif" font-size="10.00">as_iic_busy_wait_for</text>
<text text-anchor="middle" x="1416" y="-249" font-family="Helvetica,sans-Serif" font-size="10.00">_hwready</text>
</a>
</g>
</g>
<!-- Node6&#45;&gt;Node7 -->
<g id="edge6" class="edge">
<title>Node6&#45;&gt;Node7</title>
<path fill="none" stroke="midnightblue" d="M1520.67,-195.04C1517.38,-196.66 1514.11,-198.34 1511,-200 1486.44,-213.16 1459.32,-229.85 1440.55,-241.76"/>
<polygon fill="midnightblue" stroke="midnightblue" points="1522.35,-198.12 1529.85,-190.64 1519.32,-191.81 1522.35,-198.12"/>
</g>
<!-- Node12 -->
<g id="node12" class="node">
<title>Node12</title>
<g id="a_node12"><a xlink:href="group__as__iic__user.html#ga812d9e16a61b39777a5fbffc7eccbc8d" target="_top" xlink:title=" ">
<polygon fill="none" stroke="black" points="534,-363.5 534,-382.5 626,-382.5 626,-363.5 534,-363.5"/>
<text text-anchor="middle" x="580" y="-370.5" font-family="Helvetica,sans-Serif" font-size="10.00">as_iic_read_reg</text>
</a>
</g>
</g>
<!-- Node6&#45;&gt;Node12 -->
<g id="edge52" class="edge">
<title>Node6&#45;&gt;Node12</title>
<path fill="none" stroke="midnightblue" d="M1514.29,-196.67C1513.12,-197.72 1512.02,-198.83 1511,-200 1474.86,-241.8 1509.81,-276.09 1475,-319 1400.44,-410.91 1359.85,-447 1241.5,-447 1241.5,-447 1241.5,-447 865,-447 763.86,-447 648.82,-402.51 602.24,-382.52"/>
<polygon fill="midnightblue" stroke="midnightblue" points="1516.65,-199.3 1522.81,-190.69 1512.62,-193.57 1516.65,-199.3"/>
</g>
<!-- Node21 -->
<g id="node21" class="node">
<title>Node21</title>
<g id="a_node21"><a xlink:href="group__as__iic__user.html#ga987a7c89e5d900225a42f04583e0cfe7" target="_top" xlink:title=" ">
<polygon fill="none" stroke="black" points="531,-209.5 531,-228.5 629,-228.5 629,-209.5 531,-209.5"/>
<text text-anchor="middle" x="580" y="-216.5" font-family="Helvetica,sans-Serif" font-size="10.00">as_iic_read_regs</text>
</a>
</g>
</g>
<!-- Node6&#45;&gt;Node21 -->
<g id="edge53" class="edge">
<title>Node6&#45;&gt;Node21</title>
<path fill="none" stroke="midnightblue" d="M1530.96,-165.42C1516.19,-155.05 1495.37,-142.08 1475,-135 1376.17,-100.64 1346.13,-105 1241.5,-105 1241.5,-105 1241.5,-105 865,-105 772.2,-105 749.3,-126.2 665,-165 637.91,-177.47 609.31,-197.56 593.45,-209.4"/>
<polygon fill="midnightblue" stroke="midnightblue" points="1529.16,-168.44 1539.31,-171.46 1533.26,-162.76 1529.16,-168.44"/>
</g>
<!-- Node30 -->
<g id="node30" class="node">
<title>Node30</title>
<g id="a_node30"><a xlink:href="group__as__iic__helpers.html#gaa8ce9ac10b8c2ca9b614110ca5cbeff5" target="_top" xlink:title=" ">
<polygon fill="none" stroke="black" points="966,-209.5 966,-228.5 1124,-228.5 1124,-209.5 966,-209.5"/>
<text text-anchor="middle" x="1045" y="-216.5" font-family="Helvetica,sans-Serif" font-size="10.00">as_iic_stop_read_transaction</text>
</a>
</g>
</g>
<!-- Node6&#45;&gt;Node30 -->
<g id="edge54" class="edge">
<title>Node6&#45;&gt;Node30</title>
<path fill="none" stroke="midnightblue" d="M1513.34,-168.5C1440.98,-147.05 1280.3,-110.25 1160,-162 1138.63,-171.19 1144.12,-188.33 1124,-200 1117.37,-203.85 1109.99,-206.92 1102.48,-209.37"/>
<polygon fill="midnightblue" stroke="midnightblue" points="1512.36,-171.86 1522.95,-171.42 1514.4,-165.16 1512.36,-171.86"/>
</g>
<!-- Node31 -->
<g id="node31" class="node">
<title>Node31</title>
<g id="a_node31"><a xlink:href="group__as__iic__helpers.html#ga67cc002a1b20c75dc26f7b328ca5ddc9" target="_top" xlink:title=" ">
<polygon fill="none" stroke="black" points="1160,-323.5 1160,-342.5 1321,-342.5 1321,-323.5 1160,-323.5"/>
<text text-anchor="middle" x="1240.5" y="-330.5" font-family="Helvetica,sans-Serif" font-size="10.00">as_iic_stop_write_transaction</text>
</a>
</g>
</g>
<!-- Node6&#45;&gt;Node31 -->
<g id="edge55" class="edge">
<title>Node6&#45;&gt;Node31</title>
<path fill="none" stroke="midnightblue" d="M1515.5,-196.03C1513.9,-197.26 1512.39,-198.59 1511,-200 1483.43,-228.14 1505.49,-256.05 1475,-281 1432.09,-316.11 1370.44,-328.75 1321.26,-332.8"/>
<polygon fill="midnightblue" stroke="midnightblue" points="1517.48,-198.91 1524.03,-190.59 1513.72,-193.01 1517.48,-198.91"/>
</g>
<!-- Node32 -->
<g id="node32" class="node">
<title>Node32</title>
<g id="a_node32"><a xlink:href="group__as__iic__wait.html#ga15d70ebfd78cef86f9b0e28d2c78adad" target="_top" xlink:title=" ">
<polygon fill="none" stroke="black" points="1357,-46 1357,-76 1475,-76 1475,-46 1357,-46"/>
<text text-anchor="start" x="1365" y="-64" font-family="Helvetica,sans-Serif" font-size="10.00">as_iic_busy_wait_for</text>
<text text-anchor="middle" x="1416" y="-53" font-family="Helvetica,sans-Serif" font-size="10.00">_ioready</text>
</a>
</g>
</g>
<!-- Node6&#45;&gt;Node32 -->
<g id="edge44" class="edge">
<title>Node6&#45;&gt;Node32</title>
<path fill="none" stroke="midnightblue" d="M1539.38,-162.91C1525.57,-143.32 1501.47,-112.05 1475,-91 1467.9,-85.36 1459.58,-80.31 1451.48,-76.04"/>
<polygon fill="midnightblue" stroke="midnightblue" points="1536.58,-165.01 1545.14,-171.25 1542.34,-161.04 1536.58,-165.01"/>
</g>
<!-- Node33 -->
<g id="node33" class="node">
<title>Node33</title>
<g id="a_node33"><a xlink:href="group__as__iic__wait.html#ga0bc5aad64893b674c42943fb64d17676" target="_top" xlink:title=" ">
<polygon fill="none" stroke="black" points="1168.5,-171.5 1168.5,-190.5 1312.5,-190.5 1312.5,-171.5 1168.5,-171.5"/>
<text text-anchor="middle" x="1240.5" y="-178.5" font-family="Helvetica,sans-Serif" font-size="10.00">as_iic_busy_wait_for_wait</text>
</a>
</g>
</g>
<!-- Node6&#45;&gt;Node33 -->
<g id="edge45" class="edge">
<title>Node6&#45;&gt;Node33</title>
<path fill="none" stroke="midnightblue" d="M1512.83,-181C1462.9,-181 1375.02,-181 1312.81,-181"/>
<polygon fill="midnightblue" stroke="midnightblue" points="1512.89,-184.5 1522.89,-181 1512.89,-177.5 1512.89,-184.5"/>
</g>
<!-- Node8 -->
<g id="node8" class="node">
<title>Node8</title>
<g id="a_node8"><a xlink:href="group__as__iic__user.html#ga77245afd24eadd52f5845e23d82e777a" target="_top" xlink:title=" ">
<polygon fill="none" stroke="black" points="1208,-247.5 1208,-266.5 1273,-266.5 1273,-247.5 1208,-247.5"/>
<text text-anchor="middle" x="1240.5" y="-254.5" font-family="Helvetica,sans-Serif" font-size="10.00">as_iic_init</text>
</a>
</g>
</g>
<!-- Node7&#45;&gt;Node8 -->
<g id="edge7" class="edge">
<title>Node7&#45;&gt;Node8</title>
<path fill="none" stroke="midnightblue" d="M1346.42,-257C1321.07,-257 1293.56,-257 1273.07,-257"/>
<polygon fill="midnightblue" stroke="midnightblue" points="1346.74,-260.5 1356.74,-257 1346.74,-253.5 1346.74,-260.5"/>
</g>
<!-- Node9 -->
<g id="node9" class="node">
<title>Node9</title>
<g id="a_node9"><a xlink:href="group__as__iic__helpers.html#ga53e6050a2c66be89ac23084fd9de9c23" target="_top" xlink:title=" ">
<polygon fill="none" stroke="black" points="979,-285.5 979,-304.5 1111,-304.5 1111,-285.5 979,-285.5"/>
<text text-anchor="middle" x="1045" y="-292.5" font-family="Helvetica,sans-Serif" font-size="10.00">as_iic_start_transaction</text>
</a>
</g>
</g>
<!-- Node7&#45;&gt;Node9 -->
<g id="edge8" class="edge">
<title>Node7&#45;&gt;Node9</title>
<path fill="none" stroke="midnightblue" d="M1346.73,-271.88C1338.09,-273.44 1329.36,-274.87 1321,-276 1249.62,-285.64 1167.13,-290.51 1111.25,-292.89"/>
<polygon fill="midnightblue" stroke="midnightblue" points="1347.6,-275.28 1356.78,-270 1346.31,-268.4 1347.6,-275.28"/>
</g>
<!-- Node7&#45;&gt;Node30 -->
<g id="edge35" class="edge">
<title>Node7&#45;&gt;Node30</title>
<path fill="none" stroke="midnightblue" d="M1346.73,-242.12C1338.09,-240.56 1329.36,-239.13 1321,-238 1254.96,-229.08 1179.4,-224.24 1124.21,-221.69"/>
<polygon fill="midnightblue" stroke="midnightblue" points="1346.31,-245.6 1356.78,-244 1347.6,-238.72 1346.31,-245.6"/>
</g>
<!-- Node7&#45;&gt;Node31 -->
<g id="edge39" class="edge">
<title>Node7&#45;&gt;Node31</title>
<path fill="none" stroke="midnightblue" d="M1382.2,-277.4C1364.52,-287.81 1342.07,-300.11 1321,-309 1307.58,-314.66 1292.38,-319.59 1278.89,-323.48"/>
<polygon fill="midnightblue" stroke="midnightblue" points="1384.18,-280.29 1390.98,-272.16 1380.6,-274.28 1384.18,-280.29"/>
</g>
<!-- Node10 -->
<g id="node10" class="node">
<title>Node10</title>
<g id="a_node10"><a xlink:href="group__as__iic__user.html#ga30385c0c387c1629188745edf9c824c1" target="_top" xlink:title=" ">
<polygon fill="none" stroke="black" points="806.5,-247.5 806.5,-266.5 925.5,-266.5 925.5,-247.5 806.5,-247.5"/>
<text text-anchor="middle" x="866" y="-254.5" font-family="Helvetica,sans-Serif" font-size="10.00">as_iic_get_byte_mod</text>
</a>
</g>
</g>
<!-- Node9&#45;&gt;Node10 -->
<g id="edge9" class="edge">
<title>Node9&#45;&gt;Node10</title>
<path fill="none" stroke="midnightblue" d="M989.26,-283.25C964.23,-277.87 934.97,-271.59 911.34,-266.52"/>
<polygon fill="midnightblue" stroke="midnightblue" points="988.82,-286.73 999.34,-285.41 990.29,-279.89 988.82,-286.73"/>
</g>
<!-- Node20 -->
<g id="node20" class="node">
<title>Node20</title>
<g id="a_node20"><a xlink:href="group__as__iic__user.html#ga76b6915b73f14abb8a200df4eefde6f3" target="_top" xlink:title=" ">
<polygon fill="none" stroke="black" points="817,-171.5 817,-190.5 915,-190.5 915,-171.5 817,-171.5"/>
<text text-anchor="middle" x="866" y="-178.5" font-family="Helvetica,sans-Serif" font-size="10.00">as_iic_get_bytes</text>
</a>
</g>
</g>
<!-- Node9&#45;&gt;Node20 -->
<g id="edge21" class="edge">
<title>Node9&#45;&gt;Node20</title>
<path fill="none" stroke="midnightblue" d="M977.79,-281.78C973.7,-280.08 969.73,-278.16 966,-276 945.88,-264.33 946.64,-254.26 930,-238 912.49,-220.89 891.2,-202 878.39,-190.84"/>
<polygon fill="midnightblue" stroke="midnightblue" points="976.92,-285.19 987.52,-285.37 979.34,-278.63 976.92,-285.19"/>
</g>
<!-- Node9&#45;&gt;Node21 -->
<g id="edge22" class="edge">
<title>Node9&#45;&gt;Node21</title>
<path fill="none" stroke="midnightblue" d="M968.44,-302.96C890.32,-308.51 765.89,-309.79 665,-276 635.25,-266.04 606.26,-242.37 591.36,-228.88"/>
<polygon fill="midnightblue" stroke="midnightblue" points="968.96,-306.43 978.67,-302.19 968.44,-299.45 968.96,-306.43"/>
</g>
<!-- Node22 -->
<g id="node22" class="node">
<title>Node22</title>
<g id="a_node22"><a xlink:href="group__as__iic__user.html#ga5c5233652491e648a88292ae73b49ace" target="_top" xlink:title=" ">
<polygon fill="none" stroke="black" points="806,-399.5 806,-418.5 926,-418.5 926,-399.5 806,-399.5"/>
<text text-anchor="middle" x="866" y="-406.5" font-family="Helvetica,sans-Serif" font-size="10.00">as_iic_set_regpointer</text>
</a>
</g>
</g>
<!-- Node9&#45;&gt;Node22 -->
<g id="edge23" class="edge">
<title>Node9&#45;&gt;Node22</title>
<path fill="none" stroke="midnightblue" d="M1028.16,-311.85C1007.47,-332.95 969.22,-368.88 930,-390 922.96,-393.79 915.06,-396.93 907.29,-399.49"/>
<polygon fill="midnightblue" stroke="midnightblue" points="1030.78,-314.18 1035.2,-304.56 1025.74,-309.32 1030.78,-314.18"/>
</g>
<!-- Node23 -->
<g id="node23" class="node">
<title>Node23</title>
<g id="a_node23"><a xlink:href="group__as__iic__user.html#ga08fcff0dba9d6b4898291746d2206408" target="_top" xlink:title=" ">
<polygon fill="none" stroke="black" points="802,-361.5 802,-380.5 930,-380.5 930,-361.5 802,-361.5"/>
<text text-anchor="middle" x="866" y="-368.5" font-family="Helvetica,sans-Serif" font-size="10.00">as_iic_write_byte_mod</text>
</a>
</g>
</g>
<!-- Node9&#45;&gt;Node23 -->
<g id="edge24" class="edge">
<title>Node9&#45;&gt;Node23</title>
<path fill="none" stroke="midnightblue" d="M1018.04,-309.58C995.3,-321.96 961.13,-339.63 930,-352 921.19,-355.5 911.47,-358.73 902.35,-361.49"/>
<polygon fill="midnightblue" stroke="midnightblue" points="1019.96,-312.52 1027.04,-304.63 1016.59,-306.38 1019.96,-312.52"/>
</g>
<!-- Node25 -->
<g id="node25" class="node">
<title>Node25</title>
<g id="a_node25"><a xlink:href="group__as__iic__user.html#ga2a4e5ee19e84cc95de665e29b92ccda1" target="_top" xlink:title=" ">
<polygon fill="none" stroke="black" points="812.5,-323.5 812.5,-342.5 919.5,-342.5 919.5,-323.5 812.5,-323.5"/>
<text text-anchor="middle" x="866" y="-330.5" font-family="Helvetica,sans-Serif" font-size="10.00">as_iic_write_bytes</text>
</a>
</g>
</g>
<!-- Node9&#45;&gt;Node25 -->
<g id="edge28" class="edge">
<title>Node9&#45;&gt;Node25</title>
<path fill="none" stroke="midnightblue" d="M989.26,-306.75C964.23,-312.13 934.97,-318.41 911.34,-323.48"/>
<polygon fill="midnightblue" stroke="midnightblue" points="990.29,-310.11 999.34,-304.59 988.82,-303.27 990.29,-310.11"/>
</g>
<!-- Node11 -->
<g id="node11" class="node">
<title>Node11</title>
<g id="a_node11"><a xlink:href="group__as__iic__user.html#gacf3e3b915e1f15ed8bdc60ab4c129996" target="_top" xlink:title=" ">
<polygon fill="none" stroke="black" points="669.5,-247.5 669.5,-266.5 761.5,-266.5 761.5,-247.5 669.5,-247.5"/>
<text text-anchor="middle" x="715.5" y="-254.5" font-family="Helvetica,sans-Serif" font-size="10.00">as_iic_get_byte</text>
</a>
</g>
</g>
<!-- Node10&#45;&gt;Node11 -->
<g id="edge10" class="edge">
<title>Node10&#45;&gt;Node11</title>
<path fill="none" stroke="midnightblue" d="M796.18,-257C784.56,-257 772.77,-257 761.94,-257"/>
<polygon fill="midnightblue" stroke="midnightblue" points="796.31,-260.5 806.31,-257 796.31,-253.5 796.31,-260.5"/>
</g>
<!-- Node11&#45;&gt;Node12 -->
<g id="edge11" class="edge">
<title>Node11&#45;&gt;Node12</title>
<path fill="none" stroke="midnightblue" d="M695.48,-273.53C667.13,-298.16 614.7,-343.72 591.98,-363.46"/>
<polygon fill="midnightblue" stroke="midnightblue" points="697.87,-276.09 703.12,-266.89 693.27,-270.81 697.87,-276.09"/>
</g>
<!-- Node13 -->
<g id="node13" class="node">
<title>Node13</title>
<g id="a_node13"><a xlink:href="as__sensor__ov7670_8c.html#acb25afaea3e81940c50e327c45921f08" target="_top" xlink:title=" ">
<polygon fill="none" stroke="black" points="384,-372.5 384,-391.5 495,-391.5 495,-372.5 384,-372.5"/>
<text text-anchor="middle" x="439.5" y="-379.5" font-family="Helvetica,sans-Serif" font-size="10.00">ov7670_iic_reg_get</text>
</a>
</g>
</g>
<!-- Node12&#45;&gt;Node13 -->
<g id="edge12" class="edge">
<title>Node12&#45;&gt;Node13</title>
<path fill="none" stroke="midnightblue" d="M523.63,-376.6C514.24,-377.21 504.5,-377.84 495.13,-378.45"/>
<polygon fill="midnightblue" stroke="midnightblue" points="523.9,-380.09 533.65,-375.95 523.44,-373.1 523.9,-380.09"/>
</g>
<!-- Node14 -->
<g id="node14" class="node">
<title>Node14</title>
<g id="a_node14"><a xlink:href="group__as__sensor__ov7670.html#ga55b52e2499f96009197bfe90af6c7a41" target="_top" xlink:title=" ">
<polygon fill="none" stroke="black" points="164,-315.5 164,-334.5 348,-334.5 348,-315.5 164,-315.5"/>
<text text-anchor="middle" x="256" y="-322.5" font-family="Helvetica,sans-Serif" font-size="10.00">as_sensor_ov7670_exposure_auto</text>
</a>
</g>
</g>
<!-- Node13&#45;&gt;Node14 -->
<g id="edge13" class="edge">
<title>Node13&#45;&gt;Node14</title>
<path fill="none" stroke="midnightblue" d="M409.66,-368.22C392.14,-360.27 369.14,-350.58 348,-344 336.29,-340.36 323.51,-337.2 311.33,-334.57"/>
<polygon fill="midnightblue" stroke="midnightblue" points="408.23,-371.42 418.78,-372.42 411.16,-365.06 408.23,-371.42"/>
</g>
<!-- Node16 -->
<g id="node16" class="node">
<title>Node16</title>
<g id="a_node16"><a xlink:href="group__as__sensor__ov7670.html#gae1b977db2733432317fee8f0497eb67a" target="_top" xlink:title=" ">
<polygon fill="none" stroke="black" points="167,-429.5 167,-448.5 345,-448.5 345,-429.5 167,-429.5"/>
<text text-anchor="middle" x="256" y="-436.5" font-family="Helvetica,sans-Serif" font-size="10.00">as_sensor_ov7670_exposure_get</text>
</a>
</g>
</g>
<!-- Node13&#45;&gt;Node16 -->
<g id="edge15" class="edge">
<title>Node13&#45;&gt;Node16</title>
<path fill="none" stroke="midnightblue" d="M409.66,-395.78C392.14,-403.73 369.14,-413.42 348,-420 336.29,-423.64 323.51,-426.8 311.33,-429.43"/>
<polygon fill="midnightblue" stroke="midnightblue" points="411.16,-398.94 418.78,-391.58 408.23,-392.58 411.16,-398.94"/>
</g>
<!-- Node17 -->
<g id="node17" class="node">
<title>Node17</title>
<g id="a_node17"><a xlink:href="group__as__sensor__ov7670.html#gadd11863e70497418c9d31c922945cbec" target="_top" xlink:title=" ">
<polygon fill="none" stroke="black" points="176,-353.5 176,-372.5 336,-372.5 336,-353.5 176,-353.5"/>
<text text-anchor="middle" x="256" y="-360.5" font-family="Helvetica,sans-Serif" font-size="10.00">as_sensor_ov7670_gain_auto</text>
</a>
</g>
</g>
<!-- Node13&#45;&gt;Node17 -->
<g id="edge16" class="edge">
<title>Node13&#45;&gt;Node17</title>
<path fill="none" stroke="midnightblue" d="M373.56,-375.2C361.45,-373.93 348.68,-372.6 336.2,-371.29"/>
<polygon fill="midnightblue" stroke="midnightblue" points="373.24,-378.69 383.55,-376.25 373.97,-371.73 373.24,-378.69"/>
</g>
<!-- Node18 -->
<g id="node18" class="node">
<title>Node18</title>
<g id="a_node18"><a xlink:href="group__as__sensor__ov7670.html#ga75ee4d998c858b26adae16b8140e8637" target="_top" xlink:title=" ">
<polygon fill="none" stroke="black" points="179,-467.5 179,-486.5 333,-486.5 333,-467.5 179,-467.5"/>
<text text-anchor="middle" x="256" y="-474.5" font-family="Helvetica,sans-Serif" font-size="10.00">as_sensor_ov7670_gain_get</text>
</a>
</g>
</g>
<!-- Node13&#45;&gt;Node18 -->
<g id="edge18" class="edge">
<title>Node13&#45;&gt;Node18</title>
<path fill="none" stroke="midnightblue" d="M423.27,-399.01C406.56,-416.56 378.09,-443.38 348,-458 340.02,-461.88 331.26,-464.97 322.44,-467.43"/>
<polygon fill="midnightblue" stroke="midnightblue" points="425.84,-401.38 430.08,-391.67 420.71,-396.62 425.84,-401.38"/>
</g>
<!-- Node19 -->
<g id="node19" class="node">
<title>Node19</title>
<g id="a_node19"><a xlink:href="as__sensor__ov7670_8c.html#ab5de18dc5dd74817505126a51487b8b1" target="_top" xlink:title=" ">
<polygon fill="none" stroke="black" points="181.5,-391.5 181.5,-410.5 330.5,-410.5 330.5,-391.5 181.5,-391.5"/>
<text text-anchor="middle" x="256" y="-398.5" font-family="Helvetica,sans-Serif" font-size="10.00">as_sensor_ov7670_identify</text>
</a>
</g>
</g>
<!-- Node13&#45;&gt;Node19 -->
<g id="edge19" class="edge">
<title>Node13&#45;&gt;Node19</title>
<path fill="none" stroke="midnightblue" d="M373.57,-388.8C359.62,-390.26 344.78,-391.81 330.53,-393.3"/>
<polygon fill="midnightblue" stroke="midnightblue" points="373.97,-392.27 383.55,-387.75 373.24,-385.31 373.97,-392.27"/>
</g>
<!-- Node15 -->
<g id="node15" class="node">
<title>Node15</title>
<g id="a_node15"><a xlink:href="group__as__sensor__ov7670.html#ga419a3339eac0f6abb8eafe24e468ae49" target="_top" xlink:title=" ">
<polygon fill="none" stroke="black" points="0,-353.5 0,-372.5 128,-372.5 128,-353.5 0,-353.5"/>
<text text-anchor="middle" x="64" y="-360.5" font-family="Helvetica,sans-Serif" font-size="10.00">as_sensor_ov7670_init</text>
</a>
</g>
</g>
<!-- Node14&#45;&gt;Node15 -->
<g id="edge14" class="edge">
<title>Node14&#45;&gt;Node15</title>
<path fill="none" stroke="midnightblue" d="M196.95,-336.61C169.93,-342.01 138.18,-348.36 112.6,-353.48"/>
<polygon fill="midnightblue" stroke="midnightblue" points="197.94,-339.98 207.05,-334.59 196.56,-333.12 197.94,-339.98"/>
</g>
<!-- Node17&#45;&gt;Node15 -->
<g id="edge17" class="edge">
<title>Node17&#45;&gt;Node15</title>
<path fill="none" stroke="midnightblue" d="M165.68,-363C153.01,-363 140.21,-363 128.17,-363"/>
<polygon fill="midnightblue" stroke="midnightblue" points="165.8,-366.5 175.8,-363 165.8,-359.5 165.8,-366.5"/>
</g>
<!-- Node19&#45;&gt;Node15 -->
<g id="edge20" class="edge">
<title>Node19&#45;&gt;Node15</title>
<path fill="none" stroke="midnightblue" d="M196.95,-389.39C169.93,-383.99 138.18,-377.64 112.6,-372.52"/>
<polygon fill="midnightblue" stroke="midnightblue" points="196.56,-392.88 207.05,-391.41 197.94,-386.02 196.56,-392.88"/>
</g>
<!-- Node24 -->
<g id="node24" class="node">
<title>Node24</title>
<g id="a_node24"><a xlink:href="group__as__iic__user.html#ga35cd65c29b1f4abd1ca87ca51605e5cc" target="_top" xlink:title=" ">
<polygon fill="none" stroke="black" points="665,-361.5 665,-380.5 766,-380.5 766,-361.5 665,-361.5"/>
<text text-anchor="middle" x="715.5" y="-368.5" font-family="Helvetica,sans-Serif" font-size="10.00">as_iic_write_byte</text>
</a>
</g>
</g>
<!-- Node23&#45;&gt;Node24 -->
<g id="edge25" class="edge">
<title>Node23&#45;&gt;Node24</title>
<path fill="none" stroke="midnightblue" d="M791.55,-371C782.97,-371 774.38,-371 766.23,-371"/>
<polygon fill="midnightblue" stroke="midnightblue" points="791.59,-374.5 801.59,-371 791.59,-367.5 791.59,-374.5"/>
</g>
<!-- Node24&#45;&gt;Node12 -->
<g id="edge26" class="edge">
<title>Node24&#45;&gt;Node12</title>
<path fill="none" stroke="midnightblue" d="M654.6,-371.9C645.11,-372.04 635.43,-372.18 626.34,-372.32"/>
<polygon fill="midnightblue" stroke="midnightblue" points="654.84,-375.39 664.79,-371.74 654.74,-368.4 654.84,-375.39"/>
</g>
<!-- Node24&#45;&gt;Node21 -->
<g id="edge27" class="edge">
<title>Node24&#45;&gt;Node21</title>
<path fill="none" stroke="midnightblue" d="M671.49,-356.59C669.21,-355.19 667.02,-353.66 665,-352 621.71,-316.49 593.89,-252.57 584.52,-228.5"/>
<polygon fill="midnightblue" stroke="midnightblue" points="670.19,-359.86 680.68,-361.39 673.44,-353.65 670.19,-359.86"/>
</g>
<!-- Node26 -->
<g id="node26" class="node">
<title>Node26</title>
<g id="a_node26"><a xlink:href="group__as__iic__user.html#ga5ae8936ee892843eda5df7b9a418bd52" target="_top" xlink:title=" ">
<polygon fill="none" stroke="black" points="668,-323.5 668,-342.5 763,-342.5 763,-323.5 668,-323.5"/>
<text text-anchor="middle" x="715.5" y="-330.5" font-family="Helvetica,sans-Serif" font-size="10.00">as_iic_write_reg</text>
</a>
</g>
</g>
<!-- Node25&#45;&gt;Node26 -->
<g id="edge29" class="edge">
<title>Node25&#45;&gt;Node26</title>
<path fill="none" stroke="midnightblue" d="M801.93,-333C788.94,-333 775.47,-333 763.18,-333"/>
<polygon fill="midnightblue" stroke="midnightblue" points="802.23,-336.5 812.23,-333 802.23,-329.5 802.23,-336.5"/>
</g>
<!-- Node27 -->
<g id="node27" class="node">
<title>Node27</title>
<g id="a_node27"><a xlink:href="as__sensor__ov7670_8c.html#ad5b49e677d2124f73482764e3270bb42" target="_top" xlink:title=" ">
<polygon fill="none" stroke="black" points="384.5,-315.5 384.5,-334.5 494.5,-334.5 494.5,-315.5 384.5,-315.5"/>
<text text-anchor="middle" x="439.5" y="-322.5" font-family="Helvetica,sans-Serif" font-size="10.00">ov7670_iic_reg_set</text>
</a>
</g>
</g>
<!-- Node26&#45;&gt;Node27 -->
<g id="edge30" class="edge">
<title>Node26&#45;&gt;Node27</title>
<path fill="none" stroke="midnightblue" d="M657.51,-331.34C609.63,-329.94 541.68,-327.95 494.62,-326.58"/>
<polygon fill="midnightblue" stroke="midnightblue" points="657.61,-334.84 667.71,-331.63 657.82,-327.84 657.61,-334.84"/>
</g>
<!-- Node27&#45;&gt;Node14 -->
<g id="edge31" class="edge">
<title>Node27&#45;&gt;Node14</title>
<path fill="none" stroke="midnightblue" d="M373.97,-325C365.55,-325 356.81,-325 348.07,-325"/>
<polygon fill="midnightblue" stroke="midnightblue" points="374.04,-328.5 384.04,-325 374.04,-321.5 374.04,-328.5"/>
</g>
<!-- Node27&#45;&gt;Node17 -->
<g id="edge33" class="edge">
<title>Node27&#45;&gt;Node17</title>
<path fill="none" stroke="midnightblue" d="M382.95,-336.67C371.4,-339.1 359.3,-341.63 348,-344 333.31,-347.08 317.28,-350.42 302.83,-353.44"/>
<polygon fill="midnightblue" stroke="midnightblue" points="383.86,-340.06 392.93,-334.58 382.42,-333.21 383.86,-340.06"/>
</g>
<!-- Node28 -->
<g id="node28" class="node">
<title>Node28</title>
<g id="a_node28"><a xlink:href="group__as__sensor__ov7670.html#ga673b948f323ea0a23896c7dc4b0e05e3" target="_top" xlink:title=" ">
<polygon fill="none" stroke="black" points="167.5,-277.5 167.5,-296.5 344.5,-296.5 344.5,-277.5 167.5,-277.5"/>
<text text-anchor="middle" x="256" y="-284.5" font-family="Helvetica,sans-Serif" font-size="10.00">as_sensor_ov7670_exposure_set</text>
</a>
</g>
</g>
<!-- Node27&#45;&gt;Node28 -->
<g id="edge32" class="edge">
<title>Node27&#45;&gt;Node28</title>
<path fill="none" stroke="midnightblue" d="M382.95,-313.33C371.4,-310.9 359.3,-308.37 348,-306 333.31,-302.92 317.28,-299.58 302.83,-296.56"/>
<polygon fill="midnightblue" stroke="midnightblue" points="382.42,-316.79 392.93,-315.42 383.86,-309.94 382.42,-316.79"/>
</g>
<!-- Node29 -->
<g id="node29" class="node">
<title>Node29</title>
<g id="a_node29"><a xlink:href="group__as__sensor__ov7670.html#ga45e866e9958d1c7d8e0b0dd206f01a9e" target="_top" xlink:title=" ">
<polygon fill="none" stroke="black" points="179.5,-239.5 179.5,-258.5 332.5,-258.5 332.5,-239.5 179.5,-239.5"/>
<text text-anchor="middle" x="256" y="-246.5" font-family="Helvetica,sans-Serif" font-size="10.00">as_sensor_ov7670_gain_set</text>
</a>
</g>
</g>
<!-- Node27&#45;&gt;Node29 -->
<g id="edge34" class="edge">
<title>Node27&#45;&gt;Node29</title>
<path fill="none" stroke="midnightblue" d="M418.04,-309.11C400.41,-296.18 373.8,-278.42 348,-268 338.42,-264.13 327.95,-261.01 317.62,-258.5"/>
<polygon fill="midnightblue" stroke="midnightblue" points="416.29,-312.17 426.39,-315.37 420.48,-306.57 416.29,-312.17"/>
</g>
<!-- Node30&#45;&gt;Node10 -->
<g id="edge36" class="edge">
<title>Node30&#45;&gt;Node10</title>
<path fill="none" stroke="midnightblue" d="M989.26,-230.75C964.23,-236.13 934.97,-242.41 911.34,-247.48"/>
<polygon fill="midnightblue" stroke="midnightblue" points="990.29,-234.11 999.34,-228.59 988.82,-227.27 990.29,-234.11"/>
</g>
<!-- Node30&#45;&gt;Node20 -->
<g id="edge37" class="edge">
<title>Node30&#45;&gt;Node20</title>
<path fill="none" stroke="midnightblue" d="M989.26,-207.25C964.23,-201.87 934.97,-195.59 911.34,-190.52"/>
<polygon fill="midnightblue" stroke="midnightblue" points="988.82,-210.73 999.34,-209.41 990.29,-203.89 988.82,-210.73"/>
</g>
<!-- Node30&#45;&gt;Node21 -->
<g id="edge38" class="edge">
<title>Node30&#45;&gt;Node21</title>
<path fill="none" stroke="midnightblue" d="M955.89,-219C858.83,-219 706.3,-219 629.14,-219"/>
<polygon fill="midnightblue" stroke="midnightblue" points="955.98,-222.5 965.98,-219 955.98,-215.5 955.98,-222.5"/>
</g>
<!-- Node31&#45;&gt;Node9 -->
<g id="edge41" class="edge">
<title>Node31&#45;&gt;Node9</title>
<path fill="none" stroke="midnightblue" d="M1180.75,-321.46C1153.15,-316.04 1120.65,-309.66 1094.48,-304.52"/>
<polygon fill="midnightblue" stroke="midnightblue" points="1180.18,-324.92 1190.67,-323.41 1181.53,-318.05 1180.18,-324.92"/>
</g>
<!-- Node31&#45;&gt;Node22 -->
<g id="edge40" class="edge">
<title>Node31&#45;&gt;Node22</title>
<path fill="none" stroke="midnightblue" d="M1203.23,-345.82C1180.66,-353.42 1150.91,-362.75 1124,-369 1056.92,-384.58 978.56,-395.79 926.17,-402.31"/>
<polygon fill="midnightblue" stroke="midnightblue" points="1204.4,-349.12 1212.74,-342.58 1202.14,-342.49 1204.4,-349.12"/>
</g>
<!-- Node31&#45;&gt;Node23 -->
<g id="edge42" class="edge">
<title>Node31&#45;&gt;Node23</title>
<path fill="none" stroke="midnightblue" d="M1153.21,-343.72C1143.36,-344.87 1133.47,-345.98 1124,-347 1057.94,-354.09 982.21,-361.01 930.15,-365.59"/>
<polygon fill="midnightblue" stroke="midnightblue" points="1153.9,-347.17 1163.43,-342.52 1153.09,-340.21 1153.9,-347.17"/>
</g>
<!-- Node31&#45;&gt;Node25 -->
<g id="edge43" class="edge">
<title>Node31&#45;&gt;Node25</title>
<path fill="none" stroke="midnightblue" d="M1149.18,-333C1077.26,-333 979.11,-333 919.54,-333"/>
<polygon fill="midnightblue" stroke="midnightblue" points="1149.59,-336.5 1159.59,-333 1149.59,-329.5 1149.59,-336.5"/>
</g>
<!-- Node33&#45;&gt;Node9 -->
<g id="edge49" class="edge">
<title>Node33&#45;&gt;Node9</title>
<path fill="none" stroke="midnightblue" d="M1216.09,-196.06C1199.77,-206.96 1177.82,-222.46 1160,-238 1142.47,-253.29 1144.12,-264.33 1124,-276 1117.37,-279.85 1109.99,-282.92 1102.48,-285.37"/>
<polygon fill="midnightblue" stroke="midnightblue" points="1218.09,-198.93 1224.51,-190.5 1214.24,-193.09 1218.09,-198.93"/>
</g>
<!-- Node34 -->
<g id="node34" class="node">
<title>Node34</title>
<g id="a_node34"><a xlink:href="group__as__iic__helpers.html#ga1662a1a0b29536bf7d74ede3f73598be" target="_top" xlink:title=" ">
<polygon fill="none" stroke="black" points="979.5,-171.5 979.5,-190.5 1110.5,-190.5 1110.5,-171.5 979.5,-171.5"/>
<text text-anchor="middle" x="1045" y="-178.5" font-family="Helvetica,sans-Serif" font-size="10.00">as_iic_read_transaction</text>
</a>
</g>
</g>
<!-- Node33&#45;&gt;Node34 -->
<g id="edge46" class="edge">
<title>Node33&#45;&gt;Node34</title>
<path fill="none" stroke="midnightblue" d="M1157.99,-181C1142.19,-181 1125.84,-181 1110.67,-181"/>
<polygon fill="midnightblue" stroke="midnightblue" points="1158.27,-184.5 1168.27,-181 1158.27,-177.5 1158.27,-184.5"/>
</g>
<!-- Node35 -->
<g id="node35" class="node">
<title>Node35</title>
<g id="a_node35"><a xlink:href="group__as__iic__helpers.html#gad5e0aa9a71f8f0f65e1fbded8134b11f" target="_top" xlink:title=" ">
<polygon fill="none" stroke="black" points="978,-247.5 978,-266.5 1112,-266.5 1112,-247.5 978,-247.5"/>
<text text-anchor="middle" x="1045" y="-254.5" font-family="Helvetica,sans-Serif" font-size="10.00">as_iic_write_transaction</text>
</a>
</g>
</g>
<!-- Node33&#45;&gt;Node35 -->
<g id="edge50" class="edge">
<title>Node33&#45;&gt;Node35</title>
<path fill="none" stroke="midnightblue" d="M1214.04,-195.6C1191.1,-208.25 1156.14,-226.32 1124,-238 1114.04,-241.62 1103.13,-244.76 1092.69,-247.4"/>
<polygon fill="midnightblue" stroke="midnightblue" points="1215.77,-198.64 1222.8,-190.71 1212.36,-192.53 1215.77,-198.64"/>
</g>
<!-- Node34&#45;&gt;Node20 -->
<g id="edge47" class="edge">
<title>Node34&#45;&gt;Node20</title>
<path fill="none" stroke="midnightblue" d="M969.27,-181C950.95,-181 931.81,-181 915.12,-181"/>
<polygon fill="midnightblue" stroke="midnightblue" points="969.35,-184.5 979.35,-181 969.35,-177.5 969.35,-184.5"/>
</g>
<!-- Node34&#45;&gt;Node21 -->
<g id="edge48" class="edge">
<title>Node34&#45;&gt;Node21</title>
<path fill="none" stroke="midnightblue" d="M987.7,-169.72C969.38,-166.56 948.9,-163.56 930,-162 873.3,-157.31 858.44,-154.84 802,-162 731.05,-171 650.28,-195.65 608.81,-209.4"/>
<polygon fill="midnightblue" stroke="midnightblue" points="987.17,-173.18 997.63,-171.49 988.39,-166.29 987.17,-173.18"/>
</g>
<!-- Node35&#45;&gt;Node25 -->
<g id="edge51" class="edge">
<title>Node35&#45;&gt;Node25</title>
<path fill="none" stroke="midnightblue" d="M985.66,-269.28C978.94,-271.26 972.26,-273.49 966,-276 933.78,-288.9 899.35,-310.8 880.78,-323.36"/>
<polygon fill="midnightblue" stroke="midnightblue" points="986.77,-272.6 995.48,-266.56 984.91,-265.85 986.77,-272.6"/>
</g>
</g>
</svg>
