<?xml version="1.0" encoding="UTF-8" standalone="no"?>
<!DOCTYPE svg PUBLIC "-//W3C//DTD SVG 1.1//EN"
 "http://www.w3.org/Graphics/SVG/1.1/DTD/svg11.dtd">
<!-- Generated by graphviz version 2.43.0 (0)
 -->
<!-- Title: vears_draw_filled_circle Pages: 1 -->
<svg width="574pt" height="66pt"
 viewBox="0.00 0.00 574.00 66.00" xmlns="http://www.w3.org/2000/svg" xmlns:xlink="http://www.w3.org/1999/xlink">
<g id="graph0" class="graph" transform="scale(1 1) rotate(0) translate(4 62)">
<title>vears_draw_filled_circle</title>
<!-- Node1 -->
<g id="node1" class="node">
<title>Node1</title>
<g id="a_node1"><a xlink:title="Draw a filled circle of radius r around (x, y).">
<polygon fill="#bfbfbf" stroke="black" points="0,-19.5 0,-38.5 134,-38.5 134,-19.5 0,-19.5"/>
<text text-anchor="middle" x="67" y="-26.5" font-family="Helvetica,sans-Serif" font-size="10.00">vears_draw_filled_circle</text>
</a>
</g>
</g>
<!-- Node2 -->
<g id="node2" class="node">
<title>Node2</title>
<g id="a_node2"><a xlink:href="ea__draw__filled__circle_8c.html#a5025c4dc8fc0432b1153f608e0e19209" target="_top" xlink:title=" ">
<polygon fill="none" stroke="black" points="178,-38.5 178,-57.5 297,-57.5 297,-38.5 178,-38.5"/>
<text text-anchor="middle" x="237.5" y="-45.5" font-family="Helvetica,sans-Serif" font-size="10.00">ea_draw_filled_circle</text>
</a>
</g>
</g>
<!-- Node1&#45;&gt;Node2 -->
<g id="edge1" class="edge">
<title>Node1&#45;&gt;Node2</title>
<path fill="none" stroke="midnightblue" d="M134.11,-36.45C145.19,-37.7 156.72,-39 167.86,-40.26"/>
<polygon fill="midnightblue" stroke="midnightblue" points="167.64,-43.76 177.97,-41.4 168.42,-36.8 167.64,-43.76"/>
</g>
<!-- Node5 -->
<g id="node5" class="node">
<title>Node5</title>
<g id="a_node5"><a xlink:href="vears_8c.html#a5c9f2a05f3fe62106f55e90dbcc9cf53" target="_top" xlink:title=" ">
<polygon fill="none" stroke="black" points="170,-0.5 170,-19.5 305,-19.5 305,-0.5 170,-0.5"/>
<text text-anchor="middle" x="237.5" y="-7.5" font-family="Helvetica,sans-Serif" font-size="10.00">flush_cache_for_overlay</text>
</a>
</g>
</g>
<!-- Node1&#45;&gt;Node5 -->
<g id="edge4" class="edge">
<title>Node1&#45;&gt;Node5</title>
<path fill="none" stroke="midnightblue" d="M134.11,-21.55C142.53,-20.6 151.2,-19.62 159.76,-18.65"/>
<polygon fill="midnightblue" stroke="midnightblue" points="160.2,-22.13 169.75,-17.53 159.42,-15.17 160.2,-22.13"/>
</g>
<!-- Node3 -->
<g id="node3" class="node">
<title>Node3</title>
<g id="a_node3"><a xlink:href="ea__draw__quick__line__h_8c.html#a822ca7b402ab5d265e9736ef4d0d6736" target="_top" xlink:title=" ">
<polygon fill="none" stroke="black" points="341,-38.5 341,-57.5 465,-57.5 465,-38.5 341,-38.5"/>
<text text-anchor="middle" x="403" y="-45.5" font-family="Helvetica,sans-Serif" font-size="10.00">ea_draw_quick_line_h</text>
</a>
</g>
</g>
<!-- Node2&#45;&gt;Node3 -->
<g id="edge2" class="edge">
<title>Node2&#45;&gt;Node3</title>
<path fill="none" stroke="midnightblue" d="M297.07,-48C307.94,-48 319.41,-48 330.62,-48"/>
<polygon fill="midnightblue" stroke="midnightblue" points="330.81,-51.5 340.81,-48 330.81,-44.5 330.81,-51.5"/>
</g>
<!-- Node4 -->
<g id="node4" class="node">
<title>Node4</title>
<g id="a_node4"><a xlink:href="ea__draw__quick__line__h_8c.html#a57780e02c723be87fd9cac22302de8a0" target="_top" xlink:title=" ">
<polygon fill="none" stroke="black" points="501,-38.5 501,-57.5 566,-57.5 566,-38.5 501,-38.5"/>
<text text-anchor="middle" x="533.5" y="-45.5" font-family="Helvetica,sans-Serif" font-size="10.00">get_mask</text>
</a>
</g>
</g>
<!-- Node3&#45;&gt;Node4 -->
<g id="edge3" class="edge">
<title>Node3&#45;&gt;Node4</title>
<path fill="none" stroke="midnightblue" d="M465.24,-48C473.78,-48 482.39,-48 490.47,-48"/>
<polygon fill="midnightblue" stroke="midnightblue" points="490.73,-51.5 500.73,-48 490.73,-44.5 490.73,-51.5"/>
</g>
</g>
</svg>
