<?xml version="1.0" encoding="UTF-8" standalone="no"?>
<!DOCTYPE svg PUBLIC "-//W3C//DTD SVG 1.1//EN"
 "http://www.w3.org/Graphics/SVG/1.1/DTD/svg11.dtd">
<!-- Generated by graphviz version 2.43.0 (0)
 -->
<!-- Title: as_gensync_init Pages: 1 -->
<svg width="568pt" height="66pt"
 viewBox="0.00 0.00 568.00 66.00" xmlns="http://www.w3.org/2000/svg" xmlns:xlink="http://www.w3.org/1999/xlink">
<g id="graph0" class="graph" transform="scale(1 1) rotate(0) translate(4 62)">
<title>as_gensync_init</title>
<!-- Node1 -->
<g id="node1" class="node">
<title>Node1</title>
<g id="a_node1"><a xlink:title=" ">
<polygon fill="#bfbfbf" stroke="black" points="0,-19.5 0,-38.5 95,-38.5 95,-19.5 0,-19.5"/>
<text text-anchor="middle" x="47.5" y="-26.5" font-family="Helvetica,sans-Serif" font-size="10.00">as_gensync_init</text>
</a>
</g>
</g>
<!-- Node2 -->
<g id="node2" class="node">
<title>Node2</title>
<g id="a_node2"><a xlink:href="group__as__gensync.html#ga562d2890e05a11b212146addc4dd931d" target="_top" xlink:title=" ">
<polygon fill="none" stroke="black" points="131,-38.5 131,-57.5 284,-57.5 284,-38.5 131,-38.5"/>
<text text-anchor="middle" x="207.5" y="-45.5" font-family="Helvetica,sans-Serif" font-size="10.00">as_gensync_set_frame_size</text>
</a>
</g>
</g>
<!-- Node1&#45;&gt;Node2 -->
<g id="edge1" class="edge">
<title>Node1&#45;&gt;Node2</title>
<path fill="none" stroke="midnightblue" d="M95.05,-34.6C103.25,-35.58 112.02,-36.64 120.9,-37.71"/>
<polygon fill="midnightblue" stroke="midnightblue" points="120.6,-41.19 130.94,-38.91 121.43,-34.24 120.6,-41.19"/>
</g>
<!-- Node6 -->
<g id="node6" class="node">
<title>Node6</title>
<g id="a_node6"><a xlink:href="group__as__gensync.html#ga8370bdc6799c035ab16c3e79985550be" target="_top" xlink:title=" ">
<polygon fill="none" stroke="black" points="145,-0.5 145,-19.5 270,-19.5 270,-0.5 145,-0.5"/>
<text text-anchor="middle" x="207.5" y="-7.5" font-family="Helvetica,sans-Serif" font-size="10.00">as_gensync_set_x_res</text>
</a>
</g>
</g>
<!-- Node1&#45;&gt;Node6 -->
<g id="edge5" class="edge">
<title>Node1&#45;&gt;Node6</title>
<path fill="none" stroke="midnightblue" d="M95.05,-23.4C107.45,-21.91 121.15,-20.26 134.57,-18.65"/>
<polygon fill="midnightblue" stroke="midnightblue" points="135.24,-22.09 144.76,-17.42 134.41,-15.14 135.24,-22.09"/>
</g>
<!-- Node3 -->
<g id="node3" class="node">
<title>Node3</title>
<g id="a_node3"><a xlink:href="group__asterics__support.html#gaa7520f5b717e163da743500adb2eb0b9" target="_top" xlink:title=" ">
<polygon fill="none" stroke="black" points="320,-38.5 320,-57.5 411,-57.5 411,-38.5 320,-38.5"/>
<text text-anchor="middle" x="365.5" y="-45.5" font-family="Helvetica,sans-Serif" font-size="10.00">as_module_reg</text>
</a>
</g>
</g>
<!-- Node2&#45;&gt;Node3 -->
<g id="edge2" class="edge">
<title>Node2&#45;&gt;Node3</title>
<path fill="none" stroke="midnightblue" d="M284.22,-48C292.73,-48 301.28,-48 309.46,-48"/>
<polygon fill="midnightblue" stroke="midnightblue" points="309.6,-51.5 319.6,-48 309.6,-44.5 309.6,-51.5"/>
</g>
<!-- Node4 -->
<g id="node4" class="node">
<title>Node4</title>
<g id="a_node4"><a xlink:href="group__asterics__support.html#ga6345b997e24a6cd5f9143cef27629d49" target="_top" xlink:title=" ">
<polygon fill="none" stroke="black" points="326,-0.5 326,-19.5 405,-19.5 405,-0.5 326,-0.5"/>
<text text-anchor="middle" x="365.5" y="-7.5" font-family="Helvetica,sans-Serif" font-size="10.00">as_reg_write</text>
</a>
</g>
</g>
<!-- Node2&#45;&gt;Node4 -->
<g id="edge3" class="edge">
<title>Node2&#45;&gt;Node4</title>
<path fill="none" stroke="midnightblue" d="M247.87,-38.41C268.61,-33.36 294.23,-27.12 316.17,-21.77"/>
<polygon fill="midnightblue" stroke="midnightblue" points="317.07,-25.16 325.96,-19.39 315.41,-18.35 317.07,-25.16"/>
</g>
<!-- Node5 -->
<g id="node5" class="node">
<title>Node5</title>
<g id="a_node5"><a xlink:href="group__asterics__support.html#gab651cc2c035ce61b354578434e59f822" target="_top" xlink:title=" ">
<polygon fill="none" stroke="black" points="447,-0.5 447,-19.5 560,-19.5 560,-0.5 447,-0.5"/>
<text text-anchor="middle" x="503.5" y="-7.5" font-family="Helvetica,sans-Serif" font-size="10.00">as_reg_from_uint32</text>
</a>
</g>
</g>
<!-- Node4&#45;&gt;Node5 -->
<g id="edge4" class="edge">
<title>Node4&#45;&gt;Node5</title>
<path fill="none" stroke="midnightblue" d="M405.11,-10C414.93,-10 425.76,-10 436.52,-10"/>
<polygon fill="midnightblue" stroke="midnightblue" points="436.79,-13.5 446.79,-10 436.79,-6.5 436.79,-13.5"/>
</g>
<!-- Node6&#45;&gt;Node3 -->
<g id="edge6" class="edge">
<title>Node6&#45;&gt;Node3</title>
<path fill="none" stroke="midnightblue" d="M247.87,-19.59C268.45,-24.6 293.84,-30.79 315.67,-36.11"/>
<polygon fill="midnightblue" stroke="midnightblue" points="314.87,-39.51 325.42,-38.48 316.53,-32.71 314.87,-39.51"/>
</g>
<!-- Node6&#45;&gt;Node4 -->
<g id="edge7" class="edge">
<title>Node6&#45;&gt;Node4</title>
<path fill="none" stroke="midnightblue" d="M270.16,-10C285.23,-10 301.16,-10 315.55,-10"/>
<polygon fill="midnightblue" stroke="midnightblue" points="315.73,-13.5 325.73,-10 315.73,-6.5 315.73,-13.5"/>
</g>
</g>
</svg>
