<?xml version="1.0" encoding="UTF-8" standalone="no"?>
<!DOCTYPE svg PUBLIC "-//W3C//DTD SVG 1.1//EN"
 "http://www.w3.org/Graphics/SVG/1.1/DTD/svg11.dtd">
<!-- Generated by graphviz version 2.43.0 (0)
 -->
<!-- Title: as_iic_set_data_tx Pages: 1 -->
<svg width="1251pt" height="256pt"
 viewBox="0.00 0.00 1251.00 256.00" xmlns="http://www.w3.org/2000/svg" xmlns:xlink="http://www.w3.org/1999/xlink">
<g id="graph0" class="graph" transform="scale(1 1) rotate(0) translate(4 252)">
<title>as_iic_set_data_tx</title>
<!-- Node1 -->
<g id="node1" class="node">
<title>Node1</title>
<g id="a_node1"><a xlink:title=" ">
<polygon fill="#bfbfbf" stroke="black" points="1136,-142.5 1136,-161.5 1243,-161.5 1243,-142.5 1136,-142.5"/>
<text text-anchor="middle" x="1189.5" y="-149.5" font-family="Helvetica,sans-Serif" font-size="10.00">as_iic_set_data_tx</text>
</a>
</g>
</g>
<!-- Node2 -->
<g id="node2" class="node">
<title>Node2</title>
<g id="a_node2"><a xlink:href="group__as__iic__helpers.html#ga53e6050a2c66be89ac23084fd9de9c23" target="_top" xlink:title=" ">
<polygon fill="none" stroke="black" points="967,-114.5 967,-133.5 1099,-133.5 1099,-114.5 967,-114.5"/>
<text text-anchor="middle" x="1033" y="-121.5" font-family="Helvetica,sans-Serif" font-size="10.00">as_iic_start_transaction</text>
</a>
</g>
</g>
<!-- Node1&#45;&gt;Node2 -->
<g id="edge1" class="edge">
<title>Node1&#45;&gt;Node2</title>
<path fill="none" stroke="midnightblue" d="M1125.9,-140.66C1112.82,-138.29 1099.17,-135.81 1086.5,-133.51"/>
<polygon fill="midnightblue" stroke="midnightblue" points="1125.3,-144.1 1135.76,-142.44 1126.55,-137.22 1125.3,-144.1"/>
</g>
<!-- Node23 -->
<g id="node23" class="node">
<title>Node23</title>
<g id="a_node23"><a xlink:href="group__as__iic__helpers.html#gad5e0aa9a71f8f0f65e1fbded8134b11f" target="_top" xlink:title=" ">
<polygon fill="none" stroke="black" points="966,-171.5 966,-190.5 1100,-190.5 1100,-171.5 966,-171.5"/>
<text text-anchor="middle" x="1033" y="-178.5" font-family="Helvetica,sans-Serif" font-size="10.00">as_iic_write_transaction</text>
</a>
</g>
</g>
<!-- Node1&#45;&gt;Node23 -->
<g id="edge28" class="edge">
<title>Node1&#45;&gt;Node23</title>
<path fill="none" stroke="midnightblue" d="M1127.35,-163.48C1113.22,-166.13 1098.33,-168.92 1084.7,-171.48"/>
<polygon fill="midnightblue" stroke="midnightblue" points="1128.3,-166.86 1137.48,-161.58 1127.01,-159.98 1128.3,-166.86"/>
</g>
<!-- Node3 -->
<g id="node3" class="node">
<title>Node3</title>
<g id="a_node3"><a xlink:href="group__as__iic__user.html#ga30385c0c387c1629188745edf9c824c1" target="_top" xlink:title=" ">
<polygon fill="none" stroke="black" points="806.5,-38.5 806.5,-57.5 925.5,-57.5 925.5,-38.5 806.5,-38.5"/>
<text text-anchor="middle" x="866" y="-45.5" font-family="Helvetica,sans-Serif" font-size="10.00">as_iic_get_byte_mod</text>
</a>
</g>
</g>
<!-- Node2&#45;&gt;Node3 -->
<g id="edge2" class="edge">
<title>Node2&#45;&gt;Node3</title>
<path fill="none" stroke="midnightblue" d="M1008.79,-109.11C988.57,-96.62 958.18,-78.96 930,-67 921.59,-63.43 912.28,-60.24 903.46,-57.53"/>
<polygon fill="midnightblue" stroke="midnightblue" points="1006.98,-112.11 1017.31,-114.45 1010.69,-106.17 1006.98,-112.11"/>
</g>
<!-- Node13 -->
<g id="node13" class="node">
<title>Node13</title>
<g id="a_node13"><a xlink:href="group__as__iic__user.html#ga76b6915b73f14abb8a200df4eefde6f3" target="_top" xlink:title=" ">
<polygon fill="none" stroke="black" points="817,-114.5 817,-133.5 915,-133.5 915,-114.5 817,-114.5"/>
<text text-anchor="middle" x="866" y="-121.5" font-family="Helvetica,sans-Serif" font-size="10.00">as_iic_get_bytes</text>
</a>
</g>
</g>
<!-- Node2&#45;&gt;Node13 -->
<g id="edge14" class="edge">
<title>Node2&#45;&gt;Node13</title>
<path fill="none" stroke="midnightblue" d="M956.61,-124C942.53,-124 928.18,-124 915.2,-124"/>
<polygon fill="midnightblue" stroke="midnightblue" points="956.79,-127.5 966.79,-124 956.79,-120.5 956.79,-127.5"/>
</g>
<!-- Node14 -->
<g id="node14" class="node">
<title>Node14</title>
<g id="a_node14"><a xlink:href="group__as__iic__user.html#ga987a7c89e5d900225a42f04583e0cfe7" target="_top" xlink:title=" ">
<polygon fill="none" stroke="black" points="531,-133.5 531,-152.5 629,-152.5 629,-133.5 531,-133.5"/>
<text text-anchor="middle" x="580" y="-140.5" font-family="Helvetica,sans-Serif" font-size="10.00">as_iic_read_regs</text>
</a>
</g>
</g>
<!-- Node2&#45;&gt;Node14 -->
<g id="edge15" class="edge">
<title>Node2&#45;&gt;Node14</title>
<path fill="none" stroke="midnightblue" d="M980.3,-135.54C964.27,-138.6 946.48,-141.48 930,-143 822.91,-152.89 696.54,-149.06 629.11,-145.79"/>
<polygon fill="midnightblue" stroke="midnightblue" points="981.43,-138.88 990.56,-133.51 980.07,-132.02 981.43,-138.88"/>
</g>
<!-- Node15 -->
<g id="node15" class="node">
<title>Node15</title>
<g id="a_node15"><a xlink:href="group__as__iic__user.html#ga5c5233652491e648a88292ae73b49ace" target="_top" xlink:title=" ">
<polygon fill="none" stroke="black" points="806,-0.5 806,-19.5 926,-19.5 926,-0.5 806,-0.5"/>
<text text-anchor="middle" x="866" y="-7.5" font-family="Helvetica,sans-Serif" font-size="10.00">as_iic_set_regpointer</text>
</a>
</g>
</g>
<!-- Node2&#45;&gt;Node15 -->
<g id="edge16" class="edge">
<title>Node2&#45;&gt;Node15</title>
<path fill="none" stroke="midnightblue" d="M1017.72,-106.5C999.49,-85.24 965.96,-49.66 930,-29 923.36,-25.19 915.88,-22.07 908.46,-19.54"/>
<polygon fill="midnightblue" stroke="midnightblue" points="1015.24,-108.99 1024.36,-114.39 1020.6,-104.48 1015.24,-108.99"/>
</g>
<!-- Node16 -->
<g id="node16" class="node">
<title>Node16</title>
<g id="a_node16"><a xlink:href="group__as__iic__user.html#ga08fcff0dba9d6b4898291746d2206408" target="_top" xlink:title=" ">
<polygon fill="none" stroke="black" points="802,-76.5 802,-95.5 930,-95.5 930,-76.5 802,-76.5"/>
<text text-anchor="middle" x="866" y="-83.5" font-family="Helvetica,sans-Serif" font-size="10.00">as_iic_write_byte_mod</text>
</a>
</g>
</g>
<!-- Node2&#45;&gt;Node16 -->
<g id="edge17" class="edge">
<title>Node2&#45;&gt;Node16</title>
<path fill="none" stroke="midnightblue" d="M980.35,-112.1C957.15,-106.76 930.16,-100.55 908.34,-95.52"/>
<polygon fill="midnightblue" stroke="midnightblue" points="979.83,-115.58 990.36,-114.41 981.4,-108.76 979.83,-115.58"/>
</g>
<!-- Node18 -->
<g id="node18" class="node">
<title>Node18</title>
<g id="a_node18"><a xlink:href="group__as__iic__user.html#ga2a4e5ee19e84cc95de665e29b92ccda1" target="_top" xlink:title=" ">
<polygon fill="none" stroke="black" points="812.5,-190.5 812.5,-209.5 919.5,-209.5 919.5,-190.5 812.5,-190.5"/>
<text text-anchor="middle" x="866" y="-197.5" font-family="Helvetica,sans-Serif" font-size="10.00">as_iic_write_bytes</text>
</a>
</g>
</g>
<!-- Node2&#45;&gt;Node18 -->
<g id="edge21" class="edge">
<title>Node2&#45;&gt;Node18</title>
<path fill="none" stroke="midnightblue" d="M1005.61,-138.44C985.23,-149.35 956.19,-164.37 930,-176 918.34,-181.18 905.19,-186.29 893.93,-190.47"/>
<polygon fill="midnightblue" stroke="midnightblue" points="1007.45,-141.43 1014.59,-133.6 1004.13,-135.27 1007.45,-141.43"/>
</g>
<!-- Node4 -->
<g id="node4" class="node">
<title>Node4</title>
<g id="a_node4"><a xlink:href="group__as__iic__user.html#gacf3e3b915e1f15ed8bdc60ab4c129996" target="_top" xlink:title=" ">
<polygon fill="none" stroke="black" points="669.5,-38.5 669.5,-57.5 761.5,-57.5 761.5,-38.5 669.5,-38.5"/>
<text text-anchor="middle" x="715.5" y="-45.5" font-family="Helvetica,sans-Serif" font-size="10.00">as_iic_get_byte</text>
</a>
</g>
</g>
<!-- Node3&#45;&gt;Node4 -->
<g id="edge3" class="edge">
<title>Node3&#45;&gt;Node4</title>
<path fill="none" stroke="midnightblue" d="M796.18,-48C784.56,-48 772.77,-48 761.94,-48"/>
<polygon fill="midnightblue" stroke="midnightblue" points="796.31,-51.5 806.31,-48 796.31,-44.5 796.31,-51.5"/>
</g>
<!-- Node5 -->
<g id="node5" class="node">
<title>Node5</title>
<g id="a_node5"><a xlink:href="group__as__iic__user.html#ga812d9e16a61b39777a5fbffc7eccbc8d" target="_top" xlink:title=" ">
<polygon fill="none" stroke="black" points="534,-76.5 534,-95.5 626,-95.5 626,-76.5 534,-76.5"/>
<text text-anchor="middle" x="580" y="-83.5" font-family="Helvetica,sans-Serif" font-size="10.00">as_iic_read_reg</text>
</a>
</g>
</g>
<!-- Node4&#45;&gt;Node5 -->
<g id="edge4" class="edge">
<title>Node4&#45;&gt;Node5</title>
<path fill="none" stroke="midnightblue" d="M670.97,-60.39C652.69,-65.59 631.75,-71.55 614.68,-76.41"/>
<polygon fill="midnightblue" stroke="midnightblue" points="672.15,-63.69 680.81,-57.59 670.24,-56.96 672.15,-63.69"/>
</g>
<!-- Node6 -->
<g id="node6" class="node">
<title>Node6</title>
<g id="a_node6"><a xlink:href="as__sensor__ov7670_8c.html#acb25afaea3e81940c50e327c45921f08" target="_top" xlink:title=" ">
<polygon fill="none" stroke="black" points="384,-76.5 384,-95.5 495,-95.5 495,-76.5 384,-76.5"/>
<text text-anchor="middle" x="439.5" y="-83.5" font-family="Helvetica,sans-Serif" font-size="10.00">ov7670_iic_reg_get</text>
</a>
</g>
</g>
<!-- Node5&#45;&gt;Node6 -->
<g id="edge5" class="edge">
<title>Node5&#45;&gt;Node6</title>
<path fill="none" stroke="midnightblue" d="M523.63,-86C514.24,-86 504.5,-86 495.13,-86"/>
<polygon fill="midnightblue" stroke="midnightblue" points="523.65,-89.5 533.65,-86 523.65,-82.5 523.65,-89.5"/>
</g>
<!-- Node7 -->
<g id="node7" class="node">
<title>Node7</title>
<g id="a_node7"><a xlink:href="group__as__sensor__ov7670.html#ga55b52e2499f96009197bfe90af6c7a41" target="_top" xlink:title=" ">
<polygon fill="none" stroke="black" points="164,-114.5 164,-133.5 348,-133.5 348,-114.5 164,-114.5"/>
<text text-anchor="middle" x="256" y="-121.5" font-family="Helvetica,sans-Serif" font-size="10.00">as_sensor_ov7670_exposure_auto</text>
</a>
</g>
</g>
<!-- Node6&#45;&gt;Node7 -->
<g id="edge6" class="edge">
<title>Node6&#45;&gt;Node7</title>
<path fill="none" stroke="midnightblue" d="M382.95,-97.67C371.4,-100.1 359.3,-102.63 348,-105 333.31,-108.08 317.28,-111.42 302.83,-114.44"/>
<polygon fill="midnightblue" stroke="midnightblue" points="383.86,-101.06 392.93,-95.58 382.42,-94.21 383.86,-101.06"/>
</g>
<!-- Node9 -->
<g id="node9" class="node">
<title>Node9</title>
<g id="a_node9"><a xlink:href="group__as__sensor__ov7670.html#gae1b977db2733432317fee8f0497eb67a" target="_top" xlink:title=" ">
<polygon fill="none" stroke="black" points="167,-0.5 167,-19.5 345,-19.5 345,-0.5 167,-0.5"/>
<text text-anchor="middle" x="256" y="-7.5" font-family="Helvetica,sans-Serif" font-size="10.00">as_sensor_ov7670_exposure_get</text>
</a>
</g>
</g>
<!-- Node6&#45;&gt;Node9 -->
<g id="edge8" class="edge">
<title>Node6&#45;&gt;Node9</title>
<path fill="none" stroke="midnightblue" d="M418.04,-70.11C400.41,-57.18 373.8,-39.42 348,-29 338.42,-25.13 327.95,-22.01 317.62,-19.5"/>
<polygon fill="midnightblue" stroke="midnightblue" points="416.29,-73.17 426.39,-76.37 420.48,-67.57 416.29,-73.17"/>
</g>
<!-- Node10 -->
<g id="node10" class="node">
<title>Node10</title>
<g id="a_node10"><a xlink:href="group__as__sensor__ov7670.html#gadd11863e70497418c9d31c922945cbec" target="_top" xlink:title=" ">
<polygon fill="none" stroke="black" points="176,-152.5 176,-171.5 336,-171.5 336,-152.5 176,-152.5"/>
<text text-anchor="middle" x="256" y="-159.5" font-family="Helvetica,sans-Serif" font-size="10.00">as_sensor_ov7670_gain_auto</text>
</a>
</g>
</g>
<!-- Node6&#45;&gt;Node10 -->
<g id="edge9" class="edge">
<title>Node6&#45;&gt;Node10</title>
<path fill="none" stroke="midnightblue" d="M418.04,-101.89C400.41,-114.82 373.8,-132.58 348,-143 338.42,-146.87 327.95,-149.99 317.62,-152.5"/>
<polygon fill="midnightblue" stroke="midnightblue" points="420.48,-104.43 426.39,-95.63 416.29,-98.83 420.48,-104.43"/>
</g>
<!-- Node11 -->
<g id="node11" class="node">
<title>Node11</title>
<g id="a_node11"><a xlink:href="group__as__sensor__ov7670.html#ga75ee4d998c858b26adae16b8140e8637" target="_top" xlink:title=" ">
<polygon fill="none" stroke="black" points="179,-38.5 179,-57.5 333,-57.5 333,-38.5 179,-38.5"/>
<text text-anchor="middle" x="256" y="-45.5" font-family="Helvetica,sans-Serif" font-size="10.00">as_sensor_ov7670_gain_get</text>
</a>
</g>
</g>
<!-- Node6&#45;&gt;Node11 -->
<g id="edge11" class="edge">
<title>Node6&#45;&gt;Node11</title>
<path fill="none" stroke="midnightblue" d="M382.95,-74.33C371.4,-71.9 359.3,-69.37 348,-67 333.31,-63.92 317.28,-60.58 302.83,-57.56"/>
<polygon fill="midnightblue" stroke="midnightblue" points="382.42,-77.79 392.93,-76.42 383.86,-70.94 382.42,-77.79"/>
</g>
<!-- Node12 -->
<g id="node12" class="node">
<title>Node12</title>
<g id="a_node12"><a xlink:href="as__sensor__ov7670_8c.html#ab5de18dc5dd74817505126a51487b8b1" target="_top" xlink:title=" ">
<polygon fill="none" stroke="black" points="181.5,-76.5 181.5,-95.5 330.5,-95.5 330.5,-76.5 181.5,-76.5"/>
<text text-anchor="middle" x="256" y="-83.5" font-family="Helvetica,sans-Serif" font-size="10.00">as_sensor_ov7670_identify</text>
</a>
</g>
</g>
<!-- Node6&#45;&gt;Node12 -->
<g id="edge12" class="edge">
<title>Node6&#45;&gt;Node12</title>
<path fill="none" stroke="midnightblue" d="M373.16,-86C359.33,-86 344.64,-86 330.53,-86"/>
<polygon fill="midnightblue" stroke="midnightblue" points="373.55,-89.5 383.55,-86 373.55,-82.5 373.55,-89.5"/>
</g>
<!-- Node8 -->
<g id="node8" class="node">
<title>Node8</title>
<g id="a_node8"><a xlink:href="group__as__sensor__ov7670.html#ga419a3339eac0f6abb8eafe24e468ae49" target="_top" xlink:title=" ">
<polygon fill="none" stroke="black" points="0,-114.5 0,-133.5 128,-133.5 128,-114.5 0,-114.5"/>
<text text-anchor="middle" x="64" y="-121.5" font-family="Helvetica,sans-Serif" font-size="10.00">as_sensor_ov7670_init</text>
</a>
</g>
</g>
<!-- Node7&#45;&gt;Node8 -->
<g id="edge7" class="edge">
<title>Node7&#45;&gt;Node8</title>
<path fill="none" stroke="midnightblue" d="M153.69,-124C145,-124 136.39,-124 128.14,-124"/>
<polygon fill="midnightblue" stroke="midnightblue" points="153.9,-127.5 163.9,-124 153.9,-120.5 153.9,-127.5"/>
</g>
<!-- Node10&#45;&gt;Node8 -->
<g id="edge10" class="edge">
<title>Node10&#45;&gt;Node8</title>
<path fill="none" stroke="midnightblue" d="M196.95,-150.39C169.93,-144.99 138.18,-138.64 112.6,-133.52"/>
<polygon fill="midnightblue" stroke="midnightblue" points="196.56,-153.88 207.05,-152.41 197.94,-147.02 196.56,-153.88"/>
</g>
<!-- Node12&#45;&gt;Node8 -->
<g id="edge13" class="edge">
<title>Node12&#45;&gt;Node8</title>
<path fill="none" stroke="midnightblue" d="M196.95,-97.61C169.93,-103.01 138.18,-109.36 112.6,-114.48"/>
<polygon fill="midnightblue" stroke="midnightblue" points="197.94,-100.98 207.05,-95.59 196.56,-94.12 197.94,-100.98"/>
</g>
<!-- Node17 -->
<g id="node17" class="node">
<title>Node17</title>
<g id="a_node17"><a xlink:href="group__as__iic__user.html#ga35cd65c29b1f4abd1ca87ca51605e5cc" target="_top" xlink:title=" ">
<polygon fill="none" stroke="black" points="665,-76.5 665,-95.5 766,-95.5 766,-76.5 665,-76.5"/>
<text text-anchor="middle" x="715.5" y="-83.5" font-family="Helvetica,sans-Serif" font-size="10.00">as_iic_write_byte</text>
</a>
</g>
</g>
<!-- Node16&#45;&gt;Node17 -->
<g id="edge18" class="edge">
<title>Node16&#45;&gt;Node17</title>
<path fill="none" stroke="midnightblue" d="M791.55,-86C782.97,-86 774.38,-86 766.23,-86"/>
<polygon fill="midnightblue" stroke="midnightblue" points="791.59,-89.5 801.59,-86 791.59,-82.5 791.59,-89.5"/>
</g>
<!-- Node17&#45;&gt;Node5 -->
<g id="edge19" class="edge">
<title>Node17&#45;&gt;Node5</title>
<path fill="none" stroke="midnightblue" d="M654.6,-86C645.11,-86 635.43,-86 626.34,-86"/>
<polygon fill="midnightblue" stroke="midnightblue" points="654.79,-89.5 664.79,-86 654.79,-82.5 654.79,-89.5"/>
</g>
<!-- Node17&#45;&gt;Node14 -->
<g id="edge20" class="edge">
<title>Node17&#45;&gt;Node14</title>
<path fill="none" stroke="midnightblue" d="M682.93,-99.48C658.47,-109.92 625.2,-124.13 603.42,-133.43"/>
<polygon fill="midnightblue" stroke="midnightblue" points="684.33,-102.69 692.16,-95.54 681.58,-96.25 684.33,-102.69"/>
</g>
<!-- Node19 -->
<g id="node19" class="node">
<title>Node19</title>
<g id="a_node19"><a xlink:href="group__as__iic__user.html#ga5ae8936ee892843eda5df7b9a418bd52" target="_top" xlink:title=" ">
<polygon fill="none" stroke="black" points="668,-190.5 668,-209.5 763,-209.5 763,-190.5 668,-190.5"/>
<text text-anchor="middle" x="715.5" y="-197.5" font-family="Helvetica,sans-Serif" font-size="10.00">as_iic_write_reg</text>
</a>
</g>
</g>
<!-- Node18&#45;&gt;Node19 -->
<g id="edge22" class="edge">
<title>Node18&#45;&gt;Node19</title>
<path fill="none" stroke="midnightblue" d="M801.93,-200C788.94,-200 775.47,-200 763.18,-200"/>
<polygon fill="midnightblue" stroke="midnightblue" points="802.23,-203.5 812.23,-200 802.23,-196.5 802.23,-203.5"/>
</g>
<!-- Node20 -->
<g id="node20" class="node">
<title>Node20</title>
<g id="a_node20"><a xlink:href="as__sensor__ov7670_8c.html#ad5b49e677d2124f73482764e3270bb42" target="_top" xlink:title=" ">
<polygon fill="none" stroke="black" points="384.5,-190.5 384.5,-209.5 494.5,-209.5 494.5,-190.5 384.5,-190.5"/>
<text text-anchor="middle" x="439.5" y="-197.5" font-family="Helvetica,sans-Serif" font-size="10.00">ov7670_iic_reg_set</text>
</a>
</g>
</g>
<!-- Node19&#45;&gt;Node20 -->
<g id="edge23" class="edge">
<title>Node19&#45;&gt;Node20</title>
<path fill="none" stroke="midnightblue" d="M657.51,-200C609.63,-200 541.68,-200 494.62,-200"/>
<polygon fill="midnightblue" stroke="midnightblue" points="657.71,-203.5 667.71,-200 657.71,-196.5 657.71,-203.5"/>
</g>
<!-- Node20&#45;&gt;Node7 -->
<g id="edge24" class="edge">
<title>Node20&#45;&gt;Node7</title>
<path fill="none" stroke="midnightblue" d="M418.04,-184.11C400.41,-171.18 373.8,-153.42 348,-143 338.42,-139.13 327.95,-136.01 317.62,-133.5"/>
<polygon fill="midnightblue" stroke="midnightblue" points="416.29,-187.17 426.39,-190.37 420.48,-181.57 416.29,-187.17"/>
</g>
<!-- Node20&#45;&gt;Node10 -->
<g id="edge26" class="edge">
<title>Node20&#45;&gt;Node10</title>
<path fill="none" stroke="midnightblue" d="M382.95,-188.33C371.4,-185.9 359.3,-183.37 348,-181 333.31,-177.92 317.28,-174.58 302.83,-171.56"/>
<polygon fill="midnightblue" stroke="midnightblue" points="382.42,-191.79 392.93,-190.42 383.86,-184.94 382.42,-191.79"/>
</g>
<!-- Node21 -->
<g id="node21" class="node">
<title>Node21</title>
<g id="a_node21"><a xlink:href="group__as__sensor__ov7670.html#ga673b948f323ea0a23896c7dc4b0e05e3" target="_top" xlink:title=" ">
<polygon fill="none" stroke="black" points="167.5,-190.5 167.5,-209.5 344.5,-209.5 344.5,-190.5 167.5,-190.5"/>
<text text-anchor="middle" x="256" y="-197.5" font-family="Helvetica,sans-Serif" font-size="10.00">as_sensor_ov7670_exposure_set</text>
</a>
</g>
</g>
<!-- Node20&#45;&gt;Node21 -->
<g id="edge25" class="edge">
<title>Node20&#45;&gt;Node21</title>
<path fill="none" stroke="midnightblue" d="M373.93,-200C364.45,-200 354.54,-200 344.68,-200"/>
<polygon fill="midnightblue" stroke="midnightblue" points="374.04,-203.5 384.04,-200 374.04,-196.5 374.04,-203.5"/>
</g>
<!-- Node22 -->
<g id="node22" class="node">
<title>Node22</title>
<g id="a_node22"><a xlink:href="group__as__sensor__ov7670.html#ga45e866e9958d1c7d8e0b0dd206f01a9e" target="_top" xlink:title=" ">
<polygon fill="none" stroke="black" points="179.5,-228.5 179.5,-247.5 332.5,-247.5 332.5,-228.5 179.5,-228.5"/>
<text text-anchor="middle" x="256" y="-235.5" font-family="Helvetica,sans-Serif" font-size="10.00">as_sensor_ov7670_gain_set</text>
</a>
</g>
</g>
<!-- Node20&#45;&gt;Node22 -->
<g id="edge27" class="edge">
<title>Node20&#45;&gt;Node22</title>
<path fill="none" stroke="midnightblue" d="M382.95,-211.67C371.4,-214.1 359.3,-216.63 348,-219 333.31,-222.08 317.28,-225.42 302.83,-228.44"/>
<polygon fill="midnightblue" stroke="midnightblue" points="383.86,-215.06 392.93,-209.58 382.42,-208.21 383.86,-215.06"/>
</g>
<!-- Node23&#45;&gt;Node18 -->
<g id="edge29" class="edge">
<title>Node23&#45;&gt;Node18</title>
<path fill="none" stroke="midnightblue" d="M955.69,-189.79C943.53,-191.19 931.18,-192.61 919.73,-193.93"/>
<polygon fill="midnightblue" stroke="midnightblue" points="956.3,-193.24 965.84,-188.62 955.5,-186.29 956.3,-193.24"/>
</g>
</g>
</svg>
