<?xml version="1.0" encoding="UTF-8" standalone="no"?>
<!DOCTYPE svg PUBLIC "-//W3C//DTD SVG 1.1//EN"
 "http://www.w3.org/Graphics/SVG/1.1/DTD/svg11.dtd">
<!-- Generated by graphviz version 2.43.0 (0)
 -->
<!-- Title: as_iic_set_initialized Pages: 1 -->
<svg width="337pt" height="47pt"
 viewBox="0.00 0.00 337.00 47.00" xmlns="http://www.w3.org/2000/svg" xmlns:xlink="http://www.w3.org/1999/xlink">
<g id="graph0" class="graph" transform="scale(1 1) rotate(0) translate(4 43)">
<title>as_iic_set_initialized</title>
<!-- Node1 -->
<g id="node1" class="node">
<title>Node1</title>
<g id="a_node1"><a xlink:title=" ">
<polygon fill="#bfbfbf" stroke="black" points="211,-19.5 211,-38.5 329,-38.5 329,-19.5 211,-19.5"/>
<text text-anchor="middle" x="270" y="-26.5" font-family="Helvetica,sans-Serif" font-size="10.00">as_iic_set_initialized</text>
</a>
</g>
</g>
<!-- Node2 -->
<g id="node2" class="node">
<title>Node2</title>
<g id="a_node2"><a xlink:href="group__as__iic__user.html#ga77245afd24eadd52f5845e23d82e777a" target="_top" xlink:title=" ">
<polygon fill="none" stroke="black" points="0,-19.5 0,-38.5 65,-38.5 65,-19.5 0,-19.5"/>
<text text-anchor="middle" x="32.5" y="-26.5" font-family="Helvetica,sans-Serif" font-size="10.00">as_iic_init</text>
</a>
</g>
</g>
<!-- Node1&#45;&gt;Node2 -->
<g id="edge1" class="edge">
<title>Node1&#45;&gt;Node2</title>
<path fill="none" stroke="midnightblue" d="M200.56,-29C155.85,-29 99.55,-29 65.06,-29"/>
<polygon fill="midnightblue" stroke="midnightblue" points="200.79,-32.5 210.79,-29 200.79,-25.5 200.79,-32.5"/>
</g>
<!-- Node3 -->
<g id="node3" class="node">
<title>Node3</title>
<g id="a_node3"><a xlink:href="group__as__iic__bitsetters.html#ga9ad6dd95074bf372355b39032fce62b7" target="_top" xlink:title=" ">
<polygon fill="none" stroke="black" points="101,-0.5 101,-19.5 175,-19.5 175,-0.5 101,-0.5"/>
<text text-anchor="middle" x="138" y="-7.5" font-family="Helvetica,sans-Serif" font-size="10.00">as_iic_reset</text>
</a>
</g>
</g>
<!-- Node1&#45;&gt;Node3 -->
<g id="edge2" class="edge">
<title>Node1&#45;&gt;Node3</title>
<path fill="none" stroke="midnightblue" d="M200.82,-19.04C191.95,-17.74 183.15,-16.45 175.1,-15.28"/>
<polygon fill="midnightblue" stroke="midnightblue" points="200.44,-22.52 210.84,-20.5 201.46,-15.59 200.44,-22.52"/>
</g>
<!-- Node3&#45;&gt;Node2 -->
<g id="edge3" class="edge">
<title>Node3&#45;&gt;Node2</title>
<path fill="none" stroke="midnightblue" d="M90.75,-18.49C82.05,-20.09 73.15,-21.72 65.03,-23.21"/>
<polygon fill="midnightblue" stroke="midnightblue" points="91.6,-21.89 100.8,-16.65 90.33,-15.01 91.6,-21.89"/>
</g>
</g>
</svg>
