<?xml version="1.0" encoding="UTF-8" standalone="no"?>
<!DOCTYPE svg PUBLIC "-//W3C//DTD SVG 1.1//EN"
 "http://www.w3.org/Graphics/SVG/1.1/DTD/svg11.dtd">
<!-- Generated by graphviz version 2.43.0 (0)
 -->
<!-- Title: as_free Pages: 1 -->
<svg width="524pt" height="165pt"
 viewBox="0.00 0.00 524.00 165.00" xmlns="http://www.w3.org/2000/svg" xmlns:xlink="http://www.w3.org/1999/xlink">
<g id="graph0" class="graph" transform="scale(1 1) rotate(0) translate(4 161)">
<title>as_free</title>
<!-- Node1 -->
<g id="node1" class="node">
<title>Node1</title>
<g id="a_node1"><a xlink:title=" ">
<polygon fill="#bfbfbf" stroke="black" points="463,-66.5 463,-85.5 516,-85.5 516,-66.5 463,-66.5"/>
<text text-anchor="middle" x="489.5" y="-73.5" font-family="Helvetica,sans-Serif" font-size="10.00">as_free</text>
</a>
</g>
</g>
<!-- Node2 -->
<g id="node2" class="node">
<title>Node2</title>
<g id="a_node2"><a xlink:href="group__as__buffer.html#ga24266b1c24e9679a68088a917f78ecf8" target="_top" xlink:title=" ">
<polygon fill="none" stroke="black" points="302,-66.5 302,-85.5 427,-85.5 427,-66.5 302,-66.5"/>
<text text-anchor="middle" x="364.5" y="-73.5" font-family="Helvetica,sans-Serif" font-size="10.00">as_buffer_obj_destroy</text>
</a>
</g>
</g>
<!-- Node1&#45;&gt;Node2 -->
<g id="edge1" class="edge">
<title>Node1&#45;&gt;Node2</title>
<path fill="none" stroke="midnightblue" d="M452.66,-76C444.66,-76 435.95,-76 427.23,-76"/>
<polygon fill="midnightblue" stroke="midnightblue" points="452.72,-79.5 462.72,-76 452.72,-72.5 452.72,-79.5"/>
</g>
<!-- Node3 -->
<g id="node3" class="node">
<title>Node3</title>
<g id="a_node3"><a xlink:href="group__ctrl__file__ops.html#gae869fa3bd595179fcf2a22ff931aee9c" target="_top" xlink:title=" ">
<polygon fill="none" stroke="black" points="170.5,-137.5 170.5,-156.5 263.5,-156.5 263.5,-137.5 170.5,-137.5"/>
<text text-anchor="middle" x="217" y="-144.5" font-family="Helvetica,sans-Serif" font-size="10.00">as_control_ioctl</text>
</a>
</g>
</g>
<!-- Node1&#45;&gt;Node3 -->
<g id="edge8" class="edge">
<title>Node1&#45;&gt;Node3</title>
<path fill="none" stroke="midnightblue" d="M467.18,-91.59C455.79,-99.19 441.22,-107.79 427,-113 372.98,-132.81 306.9,-141.1 263.7,-144.56"/>
<polygon fill="midnightblue" stroke="midnightblue" points="469.33,-94.36 475.57,-85.79 465.35,-88.6 469.33,-94.36"/>
</g>
<!-- Node4 -->
<g id="node4" class="node">
<title>Node4</title>
<g id="a_node4"><a xlink:href="as__memio_8h.html#a80ef9367a40bd09868b8faea1884a5a8" target="_top" xlink:title=" ">
<polygon fill="none" stroke="black" points="168,-90.5 168,-109.5 266,-109.5 266,-90.5 168,-90.5"/>
<text text-anchor="middle" x="217" y="-97.5" font-family="Helvetica,sans-Serif" font-size="10.00">as_memio_close</text>
</a>
</g>
</g>
<!-- Node1&#45;&gt;Node4 -->
<g id="edge9" class="edge">
<title>Node1&#45;&gt;Node4</title>
<path fill="none" stroke="midnightblue" d="M453.47,-88.64C444.92,-91.22 435.72,-93.58 427,-95 372.37,-103.92 308.66,-103.98 266.08,-102.58"/>
<polygon fill="midnightblue" stroke="midnightblue" points="454.68,-91.93 463.14,-85.56 452.55,-85.26 454.68,-91.93"/>
</g>
<!-- Node6 -->
<g id="node6" class="node">
<title>Node6</title>
<g id="a_node6"><a xlink:href="as__memio_8h.html#acb0c0a633ce7890008c6f6f1f2eca285" target="_top" xlink:title=" ">
<polygon fill="none" stroke="black" points="168.5,-47.5 168.5,-66.5 265.5,-66.5 265.5,-47.5 168.5,-47.5"/>
<text text-anchor="middle" x="217" y="-54.5" font-family="Helvetica,sans-Serif" font-size="10.00">as_memio_open</text>
</a>
</g>
</g>
<!-- Node1&#45;&gt;Node6 -->
<g id="edge10" class="edge">
<title>Node1&#45;&gt;Node6</title>
<path fill="none" stroke="midnightblue" d="M453.73,-63.28C445.11,-60.68 435.82,-58.33 427,-57 372.11,-48.71 308.17,-50.33 265.62,-52.98"/>
<polygon fill="midnightblue" stroke="midnightblue" points="452.87,-66.68 463.46,-66.4 455.01,-60.01 452.87,-66.68"/>
</g>
<!-- Node8 -->
<g id="node8" class="node">
<title>Node8</title>
<g id="a_node8"><a xlink:href="group__as__driver.html#ga3091544216659d5fd39db7f976a8840d" target="_top" xlink:title=" ">
<polygon fill="none" stroke="black" points="168,-0.5 168,-19.5 266,-19.5 266,-0.5 168,-0.5"/>
<text text-anchor="middle" x="217" y="-7.5" font-family="Helvetica,sans-Serif" font-size="10.00">asterics_remove</text>
</a>
</g>
</g>
<!-- Node1&#45;&gt;Node8 -->
<g id="edge11" class="edge">
<title>Node1&#45;&gt;Node8</title>
<path fill="none" stroke="midnightblue" d="M463.16,-61.63C452.31,-56.01 439.33,-49.98 427,-46 373.39,-28.7 309.21,-19.22 266.24,-14.39"/>
<polygon fill="midnightblue" stroke="midnightblue" points="461.6,-64.76 472.07,-66.39 464.9,-58.59 461.6,-64.76"/>
</g>
<!-- Node2&#45;&gt;Node3 -->
<g id="edge2" class="edge">
<title>Node2&#45;&gt;Node3</title>
<path fill="none" stroke="midnightblue" d="M334.76,-90.02C306.09,-104.02 262.8,-125.14 237.78,-137.35"/>
<polygon fill="midnightblue" stroke="midnightblue" points="336.43,-93.11 343.88,-85.58 333.36,-86.82 336.43,-93.11"/>
</g>
<!-- Node2&#45;&gt;Node4 -->
<g id="edge3" class="edge">
<title>Node2&#45;&gt;Node4</title>
<path fill="none" stroke="midnightblue" d="M295.42,-87.23C285.61,-88.85 275.69,-90.48 266.36,-92.02"/>
<polygon fill="midnightblue" stroke="midnightblue" points="296.28,-90.64 305.58,-85.55 295.14,-83.73 296.28,-90.64"/>
</g>
<!-- Node2&#45;&gt;Node6 -->
<g id="edge5" class="edge">
<title>Node2&#45;&gt;Node6</title>
<path fill="none" stroke="midnightblue" d="M291.82,-66.64C282.95,-65.48 274.06,-64.32 265.67,-63.23"/>
<polygon fill="midnightblue" stroke="midnightblue" points="291.43,-70.12 301.79,-67.94 292.33,-63.18 291.43,-70.12"/>
</g>
<!-- Node2&#45;&gt;Node8 -->
<g id="edge7" class="edge">
<title>Node2&#45;&gt;Node8</title>
<path fill="none" stroke="midnightblue" d="M332.98,-62.16C304.86,-49.4 263.87,-30.81 239.18,-19.61"/>
<polygon fill="midnightblue" stroke="midnightblue" points="331.79,-65.46 342.34,-66.4 334.68,-59.08 331.79,-65.46"/>
</g>
<!-- Node5 -->
<g id="node5" class="node">
<title>Node5</title>
<g id="a_node5"><a xlink:href="group__memio__file__ops.html#gacbc077ab5c70f951062f1a7bbd311957" target="_top" xlink:title=" ">
<polygon fill="none" stroke="black" points="0,-90.5 0,-109.5 132,-109.5 132,-90.5 0,-90.5"/>
<text text-anchor="middle" x="66" y="-97.5" font-family="Helvetica,sans-Serif" font-size="10.00">driver_as_memio_close</text>
</a>
</g>
</g>
<!-- Node4&#45;&gt;Node5 -->
<g id="edge4" class="edge">
<title>Node4&#45;&gt;Node5</title>
<path fill="none" stroke="midnightblue" d="M157.62,-100C149.28,-100 140.66,-100 132.2,-100"/>
<polygon fill="midnightblue" stroke="midnightblue" points="157.62,-103.5 167.62,-100 157.62,-96.5 157.62,-103.5"/>
</g>
<!-- Node7 -->
<g id="node7" class="node">
<title>Node7</title>
<g id="a_node7"><a xlink:href="group__memio__file__ops.html#ga6a581341bc6e2a1ed45c56c0fc7bcece" target="_top" xlink:title=" ">
<polygon fill="none" stroke="black" points="0.5,-47.5 0.5,-66.5 131.5,-66.5 131.5,-47.5 0.5,-47.5"/>
<text text-anchor="middle" x="66" y="-54.5" font-family="Helvetica,sans-Serif" font-size="10.00">driver_as_memio_open</text>
</a>
</g>
</g>
<!-- Node6&#45;&gt;Node7 -->
<g id="edge6" class="edge">
<title>Node6&#45;&gt;Node7</title>
<path fill="none" stroke="midnightblue" d="M158.39,-57C149.67,-57 140.62,-57 131.77,-57"/>
<polygon fill="midnightblue" stroke="midnightblue" points="158.45,-60.5 168.45,-57 158.45,-53.5 158.45,-60.5"/>
</g>
</g>
</svg>
