<?xml version="1.0" encoding="UTF-8" standalone="no"?>
<!DOCTYPE svg PUBLIC "-//W3C//DTD SVG 1.1//EN"
 "http://www.w3.org/Graphics/SVG/1.1/DTD/svg11.dtd">
<!-- Generated by graphviz version 2.43.0 (0)
 -->
<!-- Title: as_reader_writer_is_busy Pages: 1 -->
<svg width="551pt" height="66pt"
 viewBox="0.00 0.00 551.00 66.00" xmlns="http://www.w3.org/2000/svg" xmlns:xlink="http://www.w3.org/1999/xlink">
<g id="graph0" class="graph" transform="scale(1 1) rotate(0) translate(4 62)">
<title>as_reader_writer_is_busy</title>
<!-- Node1 -->
<g id="node1" class="node">
<title>Node1</title>
<g id="a_node1"><a xlink:title="Checks if module is busy.">
<polygon fill="#bfbfbf" stroke="black" points="0,-19.5 0,-38.5 140,-38.5 140,-19.5 0,-19.5"/>
<text text-anchor="middle" x="70" y="-26.5" font-family="Helvetica,sans-Serif" font-size="10.00">as_reader_writer_is_busy</text>
</a>
</g>
</g>
<!-- Node2 -->
<g id="node2" class="node">
<title>Node2</title>
<g id="a_node2"><a xlink:href="group__asterics__support.html#gaa7520f5b717e163da743500adb2eb0b9" target="_top" xlink:title=" ">
<polygon fill="none" stroke="black" points="190,-38.5 190,-57.5 281,-57.5 281,-38.5 190,-38.5"/>
<text text-anchor="middle" x="235.5" y="-45.5" font-family="Helvetica,sans-Serif" font-size="10.00">as_module_reg</text>
</a>
</g>
</g>
<!-- Node1&#45;&gt;Node2 -->
<g id="edge1" class="edge">
<title>Node1&#45;&gt;Node2</title>
<path fill="none" stroke="midnightblue" d="M140.34,-37.06C153.39,-38.57 166.88,-40.14 179.43,-41.6"/>
<polygon fill="midnightblue" stroke="midnightblue" points="179.38,-45.12 189.71,-42.8 180.19,-38.16 179.38,-45.12"/>
</g>
<!-- Node3 -->
<g id="node3" class="node">
<title>Node3</title>
<g id="a_node3"><a xlink:href="group__asterics__support.html#ga36a2ed59c59831bee59daaae3cb6cb35" target="_top" xlink:title=" ">
<polygon fill="none" stroke="black" points="176,-0.5 176,-19.5 295,-19.5 295,-0.5 176,-0.5"/>
<text text-anchor="middle" x="235.5" y="-7.5" font-family="Helvetica,sans-Serif" font-size="10.00">as_reg_read_masked</text>
</a>
</g>
</g>
<!-- Node1&#45;&gt;Node3 -->
<g id="edge2" class="edge">
<title>Node1&#45;&gt;Node3</title>
<path fill="none" stroke="midnightblue" d="M140.34,-20.94C148.75,-19.96 157.35,-18.97 165.76,-17.99"/>
<polygon fill="midnightblue" stroke="midnightblue" points="166.36,-21.44 175.89,-16.81 165.55,-14.49 166.36,-21.44"/>
</g>
<!-- Node4 -->
<g id="node4" class="node">
<title>Node4</title>
<g id="a_node4"><a xlink:href="group__asterics__support.html#ga8e5c2bfd2e4498d10289377bd94cef07" target="_top" xlink:title=" ">
<polygon fill="none" stroke="black" points="331,-0.5 331,-19.5 407,-19.5 407,-0.5 331,-0.5"/>
<text text-anchor="middle" x="369" y="-7.5" font-family="Helvetica,sans-Serif" font-size="10.00">as_reg_read</text>
</a>
</g>
</g>
<!-- Node3&#45;&gt;Node4 -->
<g id="edge3" class="edge">
<title>Node3&#45;&gt;Node4</title>
<path fill="none" stroke="midnightblue" d="M295.33,-10C303.79,-10 312.41,-10 320.61,-10"/>
<polygon fill="midnightblue" stroke="midnightblue" points="320.74,-13.5 330.73,-10 320.73,-6.5 320.74,-13.5"/>
</g>
<!-- Node5 -->
<g id="node5" class="node">
<title>Node5</title>
<g id="a_node5"><a xlink:href="group__asterics__support.html#ga4c6d688b840a6e2edc9bc0b8ed961677" target="_top" xlink:title=" ">
<polygon fill="none" stroke="black" points="443,-0.5 443,-19.5 543,-19.5 543,-0.5 443,-0.5"/>
<text text-anchor="middle" x="493" y="-7.5" font-family="Helvetica,sans-Serif" font-size="10.00">as_reg_to_uint32</text>
</a>
</g>
</g>
<!-- Node4&#45;&gt;Node5 -->
<g id="edge4" class="edge">
<title>Node4&#45;&gt;Node5</title>
<path fill="none" stroke="midnightblue" d="M407.27,-10C415.33,-10 424.04,-10 432.71,-10"/>
<polygon fill="midnightblue" stroke="midnightblue" points="432.82,-13.5 442.82,-10 432.82,-6.5 432.82,-13.5"/>
</g>
</g>
</svg>
