<?xml version="1.0" encoding="UTF-8" standalone="no"?>
<!DOCTYPE svg PUBLIC "-//W3C//DTD SVG 1.1//EN"
 "http://www.w3.org/Graphics/SVG/1.1/DTD/svg11.dtd">
<!-- Generated by graphviz version 2.43.0 (0)
 -->
<!-- Title: flush_cache_for_overlay Pages: 1 -->
<svg width="472pt" height="332pt"
 viewBox="0.00 0.00 472.00 332.00" xmlns="http://www.w3.org/2000/svg" xmlns:xlink="http://www.w3.org/1999/xlink">
<g id="graph0" class="graph" transform="scale(1 1) rotate(0) translate(4 328)">
<title>flush_cache_for_overlay</title>
<!-- Node1 -->
<g id="node1" class="node">
<title>Node1</title>
<g id="a_node1"><a xlink:title=" ">
<polygon fill="#bfbfbf" stroke="black" points="329,-152.5 329,-171.5 464,-171.5 464,-152.5 329,-152.5"/>
<text text-anchor="middle" x="396.5" y="-159.5" font-family="Helvetica,sans-Serif" font-size="10.00">flush_cache_for_overlay</text>
</a>
</g>
</g>
<!-- Node2 -->
<g id="node2" class="node">
<title>Node2</title>
<g id="a_node2"><a xlink:href="group__vears__overlay.html#ga15c553979a63e96c70fe61774e97e30e" target="_top" xlink:title="Draw a circle of radius r around (x, y).">
<polygon fill="none" stroke="black" points="164,-304.5 164,-323.5 268,-323.5 268,-304.5 164,-304.5"/>
<text text-anchor="middle" x="216" y="-311.5" font-family="Helvetica,sans-Serif" font-size="10.00">vears_draw_circle</text>
</a>
</g>
</g>
<!-- Node1&#45;&gt;Node2 -->
<g id="edge1" class="edge">
<title>Node1&#45;&gt;Node2</title>
<path fill="none" stroke="midnightblue" d="M386.23,-180.97C370.97,-210.14 337.73,-265.72 293,-295 285.49,-299.92 276.8,-303.56 268.04,-306.26"/>
<polygon fill="midnightblue" stroke="midnightblue" points="389.46,-182.34 390.87,-171.84 383.22,-179.17 389.46,-182.34"/>
</g>
<!-- Node3 -->
<g id="node3" class="node">
<title>Node3</title>
<g id="a_node3"><a xlink:href="group__vears__overlay.html#ga9ae919e4ba1dbc284c2c950956d90f77" target="_top" xlink:title="Draw a filled circle of radius r around (x, y).">
<polygon fill="none" stroke="black" points="149,-266.5 149,-285.5 283,-285.5 283,-266.5 149,-266.5"/>
<text text-anchor="middle" x="216" y="-273.5" font-family="Helvetica,sans-Serif" font-size="10.00">vears_draw_filled_circle</text>
</a>
</g>
</g>
<!-- Node1&#45;&gt;Node3 -->
<g id="edge2" class="edge">
<title>Node1&#45;&gt;Node3</title>
<path fill="none" stroke="midnightblue" d="M381.54,-179.5C363.41,-201.01 329.73,-237.11 293,-257 285.82,-260.89 277.84,-263.99 269.81,-266.47"/>
<polygon fill="midnightblue" stroke="midnightblue" points="384.24,-181.72 387.9,-171.77 378.84,-177.27 384.24,-181.72"/>
</g>
<!-- Node4 -->
<g id="node4" class="node">
<title>Node4</title>
<g id="a_node4"><a xlink:href="group__vears__overlay.html#ga54e4da81a207af560f9c93aa38d2b5e2" target="_top" xlink:title="Draw a filled rectangle. (x0, y0) is the upper&#45;left, (x1, y1) is the lower&#45;right corner,...">
<polygon fill="none" stroke="black" points="139,-228.5 139,-247.5 293,-247.5 293,-228.5 139,-228.5"/>
<text text-anchor="middle" x="216" y="-235.5" font-family="Helvetica,sans-Serif" font-size="10.00">vears_draw_filled_rectangle</text>
</a>
</g>
</g>
<!-- Node1&#45;&gt;Node4 -->
<g id="edge3" class="edge">
<title>Node1&#45;&gt;Node4</title>
<path fill="none" stroke="midnightblue" d="M372.65,-177.01C352.42,-189.72 321.74,-207.65 293,-219 283.64,-222.7 273.34,-225.85 263.43,-228.45"/>
<polygon fill="midnightblue" stroke="midnightblue" points="374.62,-179.91 381.16,-171.58 370.85,-174.01 374.62,-179.91"/>
</g>
<!-- Node5 -->
<g id="node5" class="node">
<title>Node5</title>
<g id="a_node5"><a xlink:href="group__vears__overlay.html#ga62fecfe47def2effb3232a01175d40f4" target="_top" xlink:title="Draw an icon (sprite) which is defined in a two dimensional char array (experimental!...">
<polygon fill="none" stroke="black" points="167,-190.5 167,-209.5 265,-209.5 265,-190.5 167,-190.5"/>
<text text-anchor="middle" x="216" y="-197.5" font-family="Helvetica,sans-Serif" font-size="10.00">vears_draw_icon</text>
</a>
</g>
</g>
<!-- Node1&#45;&gt;Node5 -->
<g id="edge4" class="edge">
<title>Node1&#45;&gt;Node5</title>
<path fill="none" stroke="midnightblue" d="M340.63,-173.68C315.32,-179.07 285.65,-185.39 261.72,-190.48"/>
<polygon fill="midnightblue" stroke="midnightblue" points="341.4,-177.09 350.46,-171.59 339.95,-170.25 341.4,-177.09"/>
</g>
<!-- Node6 -->
<g id="node6" class="node">
<title>Node6</title>
<g id="a_node6"><a xlink:href="group__vears__overlay.html#gac6917c882481994db3dd32e3a40f0326" target="_top" xlink:title="Draw a line from (x0, y0) to (x1, y1).">
<polygon fill="none" stroke="black" points="168,-152.5 168,-171.5 264,-171.5 264,-152.5 168,-152.5"/>
<text text-anchor="middle" x="216" y="-159.5" font-family="Helvetica,sans-Serif" font-size="10.00">vears_draw_line</text>
</a>
</g>
</g>
<!-- Node1&#45;&gt;Node6 -->
<g id="edge5" class="edge">
<title>Node1&#45;&gt;Node6</title>
<path fill="none" stroke="midnightblue" d="M318.59,-162C300.08,-162 280.85,-162 264.16,-162"/>
<polygon fill="midnightblue" stroke="midnightblue" points="318.78,-165.5 328.78,-162 318.78,-158.5 318.78,-165.5"/>
</g>
<!-- Node7 -->
<g id="node7" class="node">
<title>Node7</title>
<g id="a_node7"><a xlink:href="group__vears__overlay.html#gae246c7c9e713947ee5086eccc7d15075" target="_top" xlink:title="Draw a single pixel. &#39;color&#39; is an index to the color table (0, 1, 2). A value of 3 means &quot;transparen...">
<polygon fill="none" stroke="black" points="165,-114.5 165,-133.5 267,-133.5 267,-114.5 165,-114.5"/>
<text text-anchor="middle" x="216" y="-121.5" font-family="Helvetica,sans-Serif" font-size="10.00">vears_draw_pixel</text>
</a>
</g>
</g>
<!-- Node1&#45;&gt;Node7 -->
<g id="edge6" class="edge">
<title>Node1&#45;&gt;Node7</title>
<path fill="none" stroke="midnightblue" d="M340.63,-150.32C315.32,-144.93 285.65,-138.61 261.72,-133.52"/>
<polygon fill="midnightblue" stroke="midnightblue" points="339.95,-153.75 350.46,-152.41 341.4,-146.91 339.95,-153.75"/>
</g>
<!-- Node8 -->
<g id="node8" class="node">
<title>Node8</title>
<g id="a_node8"><a xlink:href="group__vears__overlay.html#ga8b400f489bc9781ef111507a9265a3cf" target="_top" xlink:title="Draw a rectangle. (x0, y0) is the upper&#45;left, (x1, y1) is the lower&#45;right corner, respectively.">
<polygon fill="none" stroke="black" points="154,-76.5 154,-95.5 278,-95.5 278,-76.5 154,-76.5"/>
<text text-anchor="middle" x="216" y="-83.5" font-family="Helvetica,sans-Serif" font-size="10.00">vears_draw_rectangle</text>
</a>
</g>
</g>
<!-- Node1&#45;&gt;Node8 -->
<g id="edge7" class="edge">
<title>Node1&#45;&gt;Node8</title>
<path fill="none" stroke="midnightblue" d="M372.65,-146.99C352.42,-134.28 321.74,-116.35 293,-105 283.64,-101.3 273.34,-98.15 263.43,-95.55"/>
<polygon fill="midnightblue" stroke="midnightblue" points="370.85,-149.99 381.16,-152.42 374.62,-144.09 370.85,-149.99"/>
</g>
<!-- Node9 -->
<g id="node9" class="node">
<title>Node9</title>
<g id="a_node9"><a xlink:href="group__vears__overlay.html#ga8b0b54001ab7c14d763be8ac65ed3150" target="_top" xlink:title="Draw a text string.">
<polygon fill="none" stroke="black" points="163,-38.5 163,-57.5 269,-57.5 269,-38.5 163,-38.5"/>
<text text-anchor="middle" x="216" y="-45.5" font-family="Helvetica,sans-Serif" font-size="10.00">vears_draw_string</text>
</a>
</g>
</g>
<!-- Node1&#45;&gt;Node9 -->
<g id="edge8" class="edge">
<title>Node1&#45;&gt;Node9</title>
<path fill="none" stroke="midnightblue" d="M381.54,-144.5C363.41,-122.99 329.73,-86.89 293,-67 285.58,-62.99 277.3,-59.8 269.01,-57.28"/>
<polygon fill="midnightblue" stroke="midnightblue" points="378.84,-146.73 387.9,-152.23 384.24,-142.28 378.84,-146.73"/>
</g>
<!-- Node10 -->
<g id="node10" class="node">
<title>Node10</title>
<g id="a_node10"><a xlink:href="group__vears__overlay.html#ga0694011d30f43e2c4c614119c81c74a0" target="_top" xlink:title="Clear the current draw overlay.">
<polygon fill="none" stroke="black" points="158.5,-0.5 158.5,-19.5 273.5,-19.5 273.5,-0.5 158.5,-0.5"/>
<text text-anchor="middle" x="216" y="-7.5" font-family="Helvetica,sans-Serif" font-size="10.00">vears_overlay_clear</text>
</a>
</g>
</g>
<!-- Node1&#45;&gt;Node10 -->
<g id="edge9" class="edge">
<title>Node1&#45;&gt;Node10</title>
<path fill="none" stroke="midnightblue" d="M386.23,-143.03C370.97,-113.86 337.73,-58.28 293,-29 287.08,-25.13 280.43,-22.04 273.59,-19.59"/>
<polygon fill="midnightblue" stroke="midnightblue" points="383.22,-144.83 390.87,-152.16 389.46,-141.66 383.22,-144.83"/>
</g>
<!-- Node11 -->
<g id="node11" class="node">
<title>Node11</title>
<g id="a_node11"><a xlink:href="group__vears__driver.html#ga20c8ad70484fc5d6ad1d06b1d8330b49" target="_top" xlink:title="Enable the VEARS modules overlay operation.">
<polygon fill="none" stroke="black" points="0,-0.5 0,-19.5 103,-19.5 103,-0.5 0,-0.5"/>
<text text-anchor="middle" x="51.5" y="-7.5" font-family="Helvetica,sans-Serif" font-size="10.00">vears_overlay_on</text>
</a>
</g>
</g>
<!-- Node10&#45;&gt;Node11 -->
<g id="edge10" class="edge">
<title>Node10&#45;&gt;Node11</title>
<path fill="none" stroke="midnightblue" d="M147.92,-10C132.92,-10 117.26,-10 103.07,-10"/>
<polygon fill="midnightblue" stroke="midnightblue" points="148.17,-13.5 158.17,-10 148.17,-6.5 148.17,-13.5"/>
</g>
</g>
</svg>
