<?xml version="1.0" encoding="UTF-8" standalone="no"?>
<!DOCTYPE svg PUBLIC "-//W3C//DTD SVG 1.1//EN"
 "http://www.w3.org/Graphics/SVG/1.1/DTD/svg11.dtd">
<!-- Generated by graphviz version 2.43.0 (0)
 -->
<!-- Title: flush_cache_for_image Pages: 1 -->
<svg width="384pt" height="47pt"
 viewBox="0.00 0.00 384.00 47.00" xmlns="http://www.w3.org/2000/svg" xmlns:xlink="http://www.w3.org/1999/xlink">
<g id="graph0" class="graph" transform="scale(1 1) rotate(0) translate(4 43)">
<title>flush_cache_for_image</title>
<!-- Node1 -->
<g id="node1" class="node">
<title>Node1</title>
<g id="a_node1"><a xlink:title=" ">
<polygon fill="#bfbfbf" stroke="black" points="247,-0.5 247,-19.5 376,-19.5 376,-0.5 247,-0.5"/>
<text text-anchor="middle" x="311.5" y="-7.5" font-family="Helvetica,sans-Serif" font-size="10.00">flush_cache_for_image</text>
</a>
</g>
</g>
<!-- Node2 -->
<g id="node2" class="node">
<title>Node2</title>
<g id="a_node2"><a xlink:href="group__vears__driver.html#gae1d4683ae547789a47454da0151c20d1" target="_top" xlink:title="Set the main image data base address.">
<polygon fill="none" stroke="black" points="101,-19.5 101,-38.5 211,-38.5 211,-19.5 101,-19.5"/>
<text text-anchor="middle" x="156" y="-26.5" font-family="Helvetica,sans-Serif" font-size="10.00">vears_image_show</text>
</a>
</g>
</g>
<!-- Node1&#45;&gt;Node2 -->
<g id="edge1" class="edge">
<title>Node1&#45;&gt;Node2</title>
<path fill="none" stroke="midnightblue" d="M236.65,-19.14C228.02,-20.21 219.34,-21.28 211.05,-22.31"/>
<polygon fill="midnightblue" stroke="midnightblue" points="237.24,-22.59 246.74,-17.89 236.38,-15.65 237.24,-22.59"/>
</g>
<!-- Node3 -->
<g id="node3" class="node">
<title>Node3</title>
<g id="a_node3"><a xlink:href="group__vears__driver.html#ga37c9f106f54f6984a44897e5db7674a4" target="_top" xlink:title="Initialize and reset the VEARS module.">
<polygon fill="none" stroke="black" points="0,-0.5 0,-19.5 65,-19.5 65,-0.5 0,-0.5"/>
<text text-anchor="middle" x="32.5" y="-7.5" font-family="Helvetica,sans-Serif" font-size="10.00">vears_init</text>
</a>
</g>
</g>
<!-- Node1&#45;&gt;Node3 -->
<g id="edge3" class="edge">
<title>Node1&#45;&gt;Node3</title>
<path fill="none" stroke="midnightblue" d="M236.72,-10C180.72,-10 106.52,-10 65.04,-10"/>
<polygon fill="midnightblue" stroke="midnightblue" points="236.95,-13.5 246.95,-10 236.95,-6.5 236.95,-13.5"/>
</g>
<!-- Node2&#45;&gt;Node3 -->
<g id="edge2" class="edge">
<title>Node2&#45;&gt;Node3</title>
<path fill="none" stroke="midnightblue" d="M90.66,-18.94C81.81,-17.56 73.07,-16.19 65.18,-14.95"/>
<polygon fill="midnightblue" stroke="midnightblue" points="90.23,-22.41 100.65,-20.5 91.31,-15.5 90.23,-22.41"/>
</g>
</g>
</svg>
