<?xml version="1.0" encoding="UTF-8" standalone="no"?>
<!DOCTYPE svg PUBLIC "-//W3C//DTD SVG 1.1//EN"
 "http://www.w3.org/Graphics/SVG/1.1/DTD/svg11.dtd">
<!-- Generated by graphviz version 2.43.0 (0)
 -->
<!-- Title: vears.c Pages: 1 -->
<svg width="462pt" height="162pt"
 viewBox="0.00 0.00 462.00 162.00" xmlns="http://www.w3.org/2000/svg" xmlns:xlink="http://www.w3.org/1999/xlink">
<g id="graph0" class="graph" transform="scale(1 1) rotate(0) translate(4 158)">
<title>vears.c</title>
<!-- Node1 -->
<g id="node1" class="node">
<title>Node1</title>
<g id="a_node1"><a xlink:title=" ">
<polygon fill="#bfbfbf" stroke="black" points="176.5,-134.5 176.5,-153.5 228.5,-153.5 228.5,-134.5 176.5,-134.5"/>
<text text-anchor="middle" x="202.5" y="-141.5" font-family="Helvetica,sans-Serif" font-size="10.00">vears.c</text>
</a>
</g>
</g>
<!-- Node2 -->
<g id="node2" class="node">
<title>Node2</title>
<g id="a_node2"><a xlink:href="vears_8h.html" target="_top" xlink:title="VEARS API for hardware configuration.">
<polygon fill="none" stroke="black" points="25,-73 25,-92 78,-92 78,-73 25,-73"/>
<text text-anchor="middle" x="51.5" y="-80" font-family="Helvetica,sans-Serif" font-size="10.00">vears.h</text>
</a>
</g>
</g>
<!-- Node1&#45;&gt;Node2 -->
<g id="edge1" class="edge">
<title>Node1&#45;&gt;Node2</title>
<path fill="none" stroke="midnightblue" d="M180.43,-134.44C157.26,-125.43 119.78,-110.82 87.5,-98 85.86,-97.35 84.19,-96.68 82.49,-96.01"/>
<polygon fill="midnightblue" stroke="midnightblue" points="83.39,-92.6 72.81,-92.12 80.79,-99.09 83.39,-92.6"/>
</g>
<!-- Node5 -->
<g id="node5" class="node">
<title>Node5</title>
<g id="a_node5"><a xlink:title=" ">
<polygon fill="none" stroke="#bfbfbf" points="96.5,-73 96.5,-92 148.5,-92 148.5,-73 96.5,-73"/>
<text text-anchor="middle" x="122.5" y="-80" font-family="Helvetica,sans-Serif" font-size="10.00">xil_io.h</text>
</a>
</g>
</g>
<!-- Node1&#45;&gt;Node5 -->
<g id="edge4" class="edge">
<title>Node1&#45;&gt;Node5</title>
<path fill="none" stroke="midnightblue" d="M191.04,-134.48C178.33,-125.02 157.59,-109.6 142.25,-98.19"/>
<polygon fill="midnightblue" stroke="midnightblue" points="144.05,-95.17 133.94,-92.01 139.88,-100.79 144.05,-95.17"/>
</g>
<!-- Node6 -->
<g id="node6" class="node">
<title>Node6</title>
<g id="a_node6"><a xlink:title=" ">
<polygon fill="none" stroke="#bfbfbf" points="167,-73 167,-92 238,-92 238,-73 167,-73"/>
<text text-anchor="middle" x="202.5" y="-80" font-family="Helvetica,sans-Serif" font-size="10.00">xil_cache.h</text>
</a>
</g>
</g>
<!-- Node1&#45;&gt;Node6 -->
<g id="edge5" class="edge">
<title>Node1&#45;&gt;Node6</title>
<path fill="none" stroke="midnightblue" d="M202.5,-134.48C202.5,-126.08 202.5,-112.98 202.5,-102.16"/>
<polygon fill="midnightblue" stroke="midnightblue" points="206,-102.01 202.5,-92.01 199,-102.01 206,-102.01"/>
</g>
<!-- Node7 -->
<g id="node7" class="node">
<title>Node7</title>
<g id="a_node7"><a xlink:title=" ">
<polygon fill="none" stroke="#bfbfbf" points="256,-73 256,-92 309,-92 309,-73 256,-73"/>
<text text-anchor="middle" x="282.5" y="-80" font-family="Helvetica,sans-Serif" font-size="10.00">stdlib.h</text>
</a>
</g>
</g>
<!-- Node1&#45;&gt;Node7 -->
<g id="edge6" class="edge">
<title>Node1&#45;&gt;Node7</title>
<path fill="none" stroke="midnightblue" d="M213.96,-134.48C226.67,-125.02 247.41,-109.6 262.75,-98.19"/>
<polygon fill="midnightblue" stroke="midnightblue" points="265.12,-100.79 271.06,-92.01 260.95,-95.17 265.12,-100.79"/>
</g>
<!-- Node8 -->
<g id="node8" class="node">
<title>Node8</title>
<g id="a_node8"><a xlink:href="embedded__augmenter__lib_8h.html" target="_top" xlink:title=" ">
<polygon fill="none" stroke="black" points="327,-67.5 327,-97.5 454,-97.5 454,-67.5 327,-67.5"/>
<text text-anchor="start" x="335" y="-85.5" font-family="Helvetica,sans-Serif" font-size="10.00">embedded_augmenter</text>
<text text-anchor="middle" x="390.5" y="-74.5" font-family="Helvetica,sans-Serif" font-size="10.00">_lib.h</text>
</a>
</g>
</g>
<!-- Node1&#45;&gt;Node8 -->
<g id="edge7" class="edge">
<title>Node1&#45;&gt;Node8</title>
<path fill="none" stroke="midnightblue" d="M228.64,-134.73C256.4,-125.94 301.06,-111.81 336.45,-100.61"/>
<polygon fill="midnightblue" stroke="midnightblue" points="337.68,-103.89 346.16,-97.53 335.57,-97.21 337.68,-103.89"/>
</g>
<!-- Node3 -->
<g id="node3" class="node">
<title>Node3</title>
<g id="a_node3"><a xlink:href="vears__baseaddr_8h.html" target="_top" xlink:title=" ">
<polygon fill="none" stroke="black" points="0,-6 0,-25 103,-25 103,-6 0,-6"/>
<text text-anchor="middle" x="51.5" y="-13" font-family="Helvetica,sans-Serif" font-size="10.00">vears_baseaddr.h</text>
</a>
</g>
</g>
<!-- Node2&#45;&gt;Node3 -->
<g id="edge2" class="edge">
<title>Node2&#45;&gt;Node3</title>
<path fill="none" stroke="midnightblue" d="M51.5,-72.73C51.5,-63.18 51.5,-47.62 51.5,-35.28"/>
<polygon fill="midnightblue" stroke="midnightblue" points="55,-35.13 51.5,-25.13 48,-35.13 55,-35.13"/>
</g>
<!-- Node4 -->
<g id="node4" class="node">
<title>Node4</title>
<g id="a_node4"><a xlink:title=" ">
<polygon fill="none" stroke="#bfbfbf" points="189,-6 189,-25 242,-25 242,-6 189,-6"/>
<text text-anchor="middle" x="215.5" y="-13" font-family="Helvetica,sans-Serif" font-size="10.00">stdint.h</text>
</a>
</g>
</g>
<!-- Node2&#45;&gt;Node4 -->
<g id="edge3" class="edge">
<title>Node2&#45;&gt;Node4</title>
<path fill="none" stroke="midnightblue" d="M72.81,-72.89C77.64,-70.94 82.74,-68.9 87.5,-67 120.56,-53.82 158.49,-38.88 184.42,-28.69"/>
<polygon fill="midnightblue" stroke="midnightblue" points="185.71,-31.94 193.74,-25.03 183.15,-25.43 185.71,-31.94"/>
</g>
<!-- Node8&#45;&gt;Node4 -->
<g id="edge8" class="edge">
<title>Node8&#45;&gt;Node4</title>
<path fill="none" stroke="midnightblue" d="M352.53,-67.4C321.28,-55.79 277.46,-39.51 247.86,-28.52"/>
<polygon fill="midnightblue" stroke="midnightblue" points="249,-25.21 238.4,-25.01 246.56,-31.77 249,-25.21"/>
</g>
<!-- Node9 -->
<g id="node9" class="node">
<title>Node9</title>
<g id="a_node9"><a xlink:href="embedded__augmenter__font_8h.html" target="_top" xlink:title=" ">
<polygon fill="none" stroke="black" points="327,-0.5 327,-30.5 454,-30.5 454,-0.5 327,-0.5"/>
<text text-anchor="start" x="335" y="-18.5" font-family="Helvetica,sans-Serif" font-size="10.00">embedded_augmenter</text>
<text text-anchor="middle" x="390.5" y="-7.5" font-family="Helvetica,sans-Serif" font-size="10.00">_font.h</text>
</a>
</g>
</g>
<!-- Node8&#45;&gt;Node9 -->
<g id="edge9" class="edge">
<title>Node8&#45;&gt;Node9</title>
<path fill="none" stroke="midnightblue" d="M390.5,-67.4C390.5,-59.64 390.5,-49.81 390.5,-40.86"/>
<polygon fill="midnightblue" stroke="midnightblue" points="394,-40.58 390.5,-30.58 387,-40.58 394,-40.58"/>
</g>
</g>
</svg>
