<?xml version="1.0" encoding="UTF-8" standalone="no"?>
<!DOCTYPE svg PUBLIC "-//W3C//DTD SVG 1.1//EN"
 "http://www.w3.org/Graphics/SVG/1.1/DTD/svg11.dtd">
<!-- Generated by graphviz version 2.43.0 (0)
 -->
<!-- Title: Graphical Class Hierarchy Pages: 1 -->
<svg width="655pt" height="176pt"
 viewBox="0.00 0.00 655.00 176.00" xmlns="http://www.w3.org/2000/svg" xmlns:xlink="http://www.w3.org/1999/xlink">
<g id="graph0" class="graph" transform="scale(1 1) rotate(0) translate(4 172)">
<title>Graphical Class Hierarchy</title>
<!-- Node102 -->
<g id="node1" class="node">
<title>Node102</title>
<g id="a_node1"><a xlink:href="classas__carry__safe__operator.html" target="_top" xlink:title=" ">
<polygon fill="none" stroke="black" points="0,-94 0,-113 131,-113 131,-94 0,-94"/>
<text text-anchor="middle" x="65.5" y="-101" font-family="Helvetica,sans-Serif" font-size="10.00">as_carry_safe_operator</text>
</a>
</g>
</g>
<!-- Node103 -->
<g id="node2" class="node">
<title>Node103</title>
<g id="a_node2"><a xlink:href="classas__carry__safe__adder.html" target="_top" xlink:title=" ">
<polygon fill="none" stroke="black" points="167,-94 167,-113 284,-113 284,-94 167,-94"/>
<text text-anchor="middle" x="225.5" y="-101" font-family="Helvetica,sans-Serif" font-size="10.00">as_carry_safe_adder</text>
</a>
</g>
</g>
<!-- Node102&#45;&gt;Node103 -->
<g id="edge1" class="edge">
<title>Node102&#45;&gt;Node103</title>
<path fill="none" stroke="midnightblue" d="M141.3,-103.5C149.93,-103.5 158.62,-103.5 166.97,-103.5"/>
<polygon fill="midnightblue" stroke="midnightblue" points="141.22,-100 131.22,-103.5 141.22,-107 141.22,-100"/>
</g>
<!-- Node104 -->
<g id="node3" class="node">
<title>Node104</title>
<g id="a_node3"><a xlink:href="classas__wallace__adder__tree__generic.html" target="_top" xlink:title=" ">
<polygon fill="none" stroke="black" points="329,-88.5 329,-118.5 457,-118.5 457,-88.5 329,-88.5"/>
<text text-anchor="start" x="337" y="-106.5" font-family="Helvetica,sans-Serif" font-size="10.00">as_wallace_adder_tree</text>
<text text-anchor="middle" x="393" y="-95.5" font-family="Helvetica,sans-Serif" font-size="10.00">_generic</text>
</a>
</g>
</g>
<!-- Node103&#45;&gt;Node104 -->
<g id="edge2" class="edge">
<title>Node103&#45;&gt;Node104</title>
<path fill="none" stroke="midnightblue" d="M294.63,-103.5C305.94,-103.5 317.62,-103.5 328.79,-103.5"/>
<polygon fill="midnightblue" stroke="midnightblue" points="294.38,-100 284.38,-103.5 294.38,-107 294.38,-100"/>
</g>
<!-- Node45 -->
<g id="node4" class="node">
<title>Node45</title>
<g id="a_node4"><a xlink:href="classas__cnn__serial__convolution.html" target="_top" xlink:title=" ">
<polygon fill="none" stroke="black" points="502,-94 502,-113 647,-113 647,-94 502,-94"/>
<text text-anchor="middle" x="574.5" y="-101" font-family="Helvetica,sans-Serif" font-size="10.00">as_cnn_serial_convolution</text>
</a>
</g>
</g>
<!-- Node104&#45;&gt;Node45 -->
<g id="edge3" class="edge">
<title>Node104&#45;&gt;Node45</title>
<path fill="none" stroke="midnightblue" d="M467.34,-103.5C478.69,-103.5 490.4,-103.5 501.72,-103.5"/>
<polygon fill="midnightblue" stroke="midnightblue" points="467.03,-100 457.03,-103.5 467.03,-107 467.03,-100"/>
</g>
<!-- Node1 -->
<g id="node5" class="node">
<title>Node1</title>
<g id="a_node5"><a xlink:href="classas__cnn__serial__convolution__one__summand.html" target="_top" xlink:title=" ">
<polygon fill="none" stroke="black" points="502,-44.5 502,-74.5 647,-74.5 647,-44.5 502,-44.5"/>
<text text-anchor="start" x="510" y="-62.5" font-family="Helvetica,sans-Serif" font-size="10.00">as_cnn_serial_convolution</text>
<text text-anchor="middle" x="574.5" y="-51.5" font-family="Helvetica,sans-Serif" font-size="10.00">_one_summand</text>
</a>
</g>
</g>
<!-- Node104&#45;&gt;Node1 -->
<g id="edge4" class="edge">
<title>Node104&#45;&gt;Node1</title>
<path fill="none" stroke="midnightblue" d="M465.33,-86.01C480.84,-82.21 497.12,-78.22 512.2,-74.53"/>
<polygon fill="midnightblue" stroke="midnightblue" points="464.15,-82.7 455.27,-88.48 465.82,-89.5 464.15,-82.7"/>
</g>
<!-- Node98 -->
<g id="node6" class="node">
<title>Node98</title>
<g id="a_node6"><a xlink:href="classas__cnn__quantizer.html" target="_top" xlink:title=" ">
<polygon fill="none" stroke="black" points="342.5,-50 342.5,-69 443.5,-69 443.5,-50 342.5,-50"/>
<text text-anchor="middle" x="393" y="-57" font-family="Helvetica,sans-Serif" font-size="10.00">as_cnn_quantizer</text>
</a>
</g>
</g>
<!-- Node98&#45;&gt;Node45 -->
<g id="edge5" class="edge">
<title>Node98&#45;&gt;Node45</title>
<path fill="none" stroke="midnightblue" d="M442.83,-71.47C471.68,-78.54 507.71,-87.37 534.63,-93.97"/>
<polygon fill="midnightblue" stroke="midnightblue" points="443.49,-68.03 432.95,-69.05 441.83,-74.83 443.49,-68.03"/>
</g>
<!-- Node98&#45;&gt;Node1 -->
<g id="edge6" class="edge">
<title>Node98&#45;&gt;Node1</title>
<path fill="none" stroke="midnightblue" d="M453.94,-59.5C469.34,-59.5 486.05,-59.5 501.96,-59.5"/>
<polygon fill="midnightblue" stroke="midnightblue" points="453.52,-56 443.52,-59.5 453.52,-63 453.52,-56"/>
</g>
<!-- Node44 -->
<g id="node7" class="node">
<title>Node44</title>
<g id="a_node7"><a xlink:href="classas__weighted__summand__generator.html" target="_top" xlink:title=" ">
<polygon fill="none" stroke="black" points="327,-137.5 327,-167.5 459,-167.5 459,-137.5 327,-137.5"/>
<text text-anchor="start" x="335" y="-155.5" font-family="Helvetica,sans-Serif" font-size="10.00">as_weighted_summand</text>
<text text-anchor="middle" x="393" y="-144.5" font-family="Helvetica,sans-Serif" font-size="10.00">_generator</text>
</a>
</g>
</g>
<!-- Node44&#45;&gt;Node45 -->
<g id="edge7" class="edge">
<title>Node44&#45;&gt;Node45</title>
<path fill="none" stroke="midnightblue" d="M459.07,-134.74C485.99,-127.39 516.11,-119.17 538.69,-113"/>
<polygon fill="midnightblue" stroke="midnightblue" points="458.05,-131.39 449.32,-137.4 459.89,-138.14 458.05,-131.39"/>
</g>
<!-- Node0 -->
<g id="node8" class="node">
<title>Node0</title>
<g id="a_node8"><a xlink:href="classas__weighted__summand__generator__one__summand.html" target="_top" xlink:title=" ">
<polygon fill="none" stroke="black" points="320,-0.5 320,-30.5 466,-30.5 466,-0.5 320,-0.5"/>
<text text-anchor="start" x="328" y="-18.5" font-family="Helvetica,sans-Serif" font-size="10.00">as_weighted_summand</text>
<text text-anchor="middle" x="393" y="-7.5" font-family="Helvetica,sans-Serif" font-size="10.00">_generator_one_summand</text>
</a>
</g>
</g>
<!-- Node0&#45;&gt;Node1 -->
<g id="edge8" class="edge">
<title>Node0&#45;&gt;Node1</title>
<path fill="none" stroke="midnightblue" d="M465.33,-32.99C480.84,-36.79 497.12,-40.78 512.2,-44.47"/>
<polygon fill="midnightblue" stroke="midnightblue" points="465.82,-29.5 455.27,-30.52 464.15,-36.3 465.82,-29.5"/>
</g>
</g>
</svg>
