<?xml version="1.0" encoding="UTF-8" standalone="no"?>
<!DOCTYPE svg PUBLIC "-//W3C//DTD SVG 1.1//EN"
 "http://www.w3.org/Graphics/SVG/1.1/DTD/svg11.dtd">
<!-- Generated by graphviz version 2.43.0 (0)
 -->
<!-- Title: Graphical Class Hierarchy Pages: 1 -->
<svg width="529pt" height="370pt"
 viewBox="0.00 0.00 529.00 370.00" xmlns="http://www.w3.org/2000/svg" xmlns:xlink="http://www.w3.org/1999/xlink">
<g id="graph0" class="graph" transform="scale(1 1) rotate(0) translate(4 366)">
<title>Graphical Class Hierarchy</title>
<!-- Node41 -->
<g id="node1" class="node">
<title>Node41</title>
<g id="a_node1"><a xlink:href="classAXI__Master.html" target="_top" xlink:title=" ">
<polygon fill="none" stroke="black" points="368,-247.5 368,-266.5 440,-266.5 440,-247.5 368,-247.5"/>
<text text-anchor="middle" x="404" y="-254.5" font-family="Helvetica,sans-Serif" font-size="10.00">AXI_Master</text>
</a>
</g>
</g>
<!-- Node2 -->
<g id="node2" class="node">
<title>Node2</title>
<g id="a_node2"><a xlink:href="classvears.html" target="_top" xlink:title=" ">
<polygon fill="none" stroke="black" points="477,-209.5 477,-228.5 521,-228.5 521,-209.5 477,-209.5"/>
<text text-anchor="middle" x="499" y="-216.5" font-family="Helvetica,sans-Serif" font-size="10.00">vears</text>
</a>
</g>
</g>
<!-- Node41&#45;&gt;Node2 -->
<g id="edge1" class="edge">
<title>Node41&#45;&gt;Node2</title>
<path fill="none" stroke="midnightblue" d="M437.96,-243.53C450.86,-238.26 465.29,-232.37 476.77,-227.68"/>
<polygon fill="midnightblue" stroke="midnightblue" points="436.4,-240.39 428.47,-247.41 439.05,-246.87 436.4,-240.39"/>
</g>
<!-- Node40 -->
<g id="node3" class="node">
<title>Node40</title>
<g id="a_node3"><a xlink:href="classAXI__Slave.html" target="_top" xlink:title=" ">
<polygon fill="none" stroke="black" points="371.5,-209.5 371.5,-228.5 436.5,-228.5 436.5,-209.5 371.5,-209.5"/>
<text text-anchor="middle" x="404" y="-216.5" font-family="Helvetica,sans-Serif" font-size="10.00">AXI_Slave</text>
</a>
</g>
</g>
<!-- Node40&#45;&gt;Node2 -->
<g id="edge2" class="edge">
<title>Node40&#45;&gt;Node2</title>
<path fill="none" stroke="midnightblue" d="M446.95,-219C457.33,-219 468.02,-219 476.91,-219"/>
<polygon fill="midnightblue" stroke="midnightblue" points="446.75,-215.5 436.75,-219 446.75,-222.5 446.75,-215.5"/>
</g>
<!-- Node37 -->
<g id="node4" class="node">
<title>Node37</title>
<g id="a_node4"><a xlink:href="classCH7301C__out.html" target="_top" xlink:title=" ">
<polygon fill="none" stroke="black" points="239,-342.5 239,-361.5 322,-361.5 322,-342.5 239,-342.5"/>
<text text-anchor="middle" x="280.5" y="-349.5" font-family="Helvetica,sans-Serif" font-size="10.00">CH7301C_out</text>
</a>
</g>
</g>
<!-- Node1 -->
<g id="node5" class="node">
<title>Node1</title>
<g id="a_node5"><a xlink:href="classvears__main.html" target="_top" xlink:title=" ">
<polygon fill="none" stroke="black" points="367,-171.5 367,-190.5 441,-190.5 441,-171.5 367,-171.5"/>
<text text-anchor="middle" x="404" y="-178.5" font-family="Helvetica,sans-Serif" font-size="10.00">vears_main</text>
</a>
</g>
</g>
<!-- Node37&#45;&gt;Node1 -->
<g id="edge3" class="edge">
<title>Node37&#45;&gt;Node1</title>
<path fill="none" stroke="midnightblue" d="M327.16,-336.68C328.52,-335.54 329.81,-334.32 331,-333 372.03,-287.54 328.74,-247.82 367,-200 370,-196.25 373.95,-193.15 378.13,-190.62"/>
<polygon fill="midnightblue" stroke="midnightblue" points="325.02,-333.9 318.61,-342.34 328.88,-339.74 325.02,-333.9"/>
</g>
<!-- Node1&#45;&gt;Node2 -->
<g id="edge4" class="edge">
<title>Node1&#45;&gt;Node2</title>
<path fill="none" stroke="midnightblue" d="M437.96,-194.47C450.86,-199.74 465.29,-205.63 476.77,-210.32"/>
<polygon fill="midnightblue" stroke="midnightblue" points="439.05,-191.13 428.47,-190.59 436.4,-197.61 439.05,-191.13"/>
</g>
<!-- Node36 -->
<g id="node6" class="node">
<title>Node36</title>
<g id="a_node6"><a xlink:href="classclocking.html" target="_top" xlink:title=" ">
<polygon fill="none" stroke="black" points="252,-304.5 252,-323.5 309,-323.5 309,-304.5 252,-304.5"/>
<text text-anchor="middle" x="280.5" y="-311.5" font-family="Helvetica,sans-Serif" font-size="10.00">clocking</text>
</a>
</g>
</g>
<!-- Node36&#45;&gt;Node1 -->
<g id="edge5" class="edge">
<title>Node36&#45;&gt;Node1</title>
<path fill="none" stroke="midnightblue" d="M318.25,-304.03C322.94,-301.62 327.36,-298.66 331,-295 362.86,-263 337.1,-233.84 367,-200 370.28,-196.29 374.45,-193.19 378.79,-190.64"/>
<polygon fill="midnightblue" stroke="midnightblue" points="316.86,-300.82 309.06,-307.99 319.63,-307.25 316.86,-300.82"/>
</g>
<!-- Node35 -->
<g id="node7" class="node">
<title>Node35</title>
<g id="a_node7"><a xlink:href="classclut.html" target="_top" xlink:title=" ">
<polygon fill="none" stroke="black" points="263,-266.5 263,-285.5 298,-285.5 298,-266.5 263,-266.5"/>
<text text-anchor="middle" x="280.5" y="-273.5" font-family="Helvetica,sans-Serif" font-size="10.00">clut</text>
</a>
</g>
</g>
<!-- Node35&#45;&gt;Node1 -->
<g id="edge6" class="edge">
<title>Node35&#45;&gt;Node1</title>
<path fill="none" stroke="midnightblue" d="M307.79,-269.42C315.82,-266.53 324.29,-262.5 331,-257 354.17,-238 345.01,-220.35 367,-200 370.94,-196.35 375.72,-193.2 380.48,-190.56"/>
<polygon fill="midnightblue" stroke="midnightblue" points="306.5,-266.15 298.01,-272.5 308.6,-272.83 306.5,-266.15"/>
</g>
<!-- Node22 -->
<g id="node8" class="node">
<title>Node22</title>
<g id="a_node8"><a xlink:href="classlinebuffer.html" target="_top" xlink:title=" ">
<polygon fill="none" stroke="black" points="248.5,-228.5 248.5,-247.5 312.5,-247.5 312.5,-228.5 248.5,-228.5"/>
<text text-anchor="middle" x="280.5" y="-235.5" font-family="Helvetica,sans-Serif" font-size="10.00">linebuffer</text>
</a>
</g>
</g>
<!-- Node22&#45;&gt;Node1 -->
<g id="edge7" class="edge">
<title>Node22&#45;&gt;Node1</title>
<path fill="none" stroke="midnightblue" d="M317.85,-224.62C322.31,-222.81 326.78,-220.91 331,-219 331.35,-218.84 363.73,-201.74 384.94,-190.54"/>
<polygon fill="midnightblue" stroke="midnightblue" points="316.22,-221.5 308.2,-228.42 318.79,-228.01 316.22,-221.5"/>
</g>
<!-- Node21 -->
<g id="node9" class="node">
<title>Node21</title>
<g id="a_node9"><a xlink:href="classmux__1of16__32bit.html" target="_top" xlink:title=" ">
<polygon fill="none" stroke="black" points="230,-190.5 230,-209.5 331,-209.5 331,-190.5 230,-190.5"/>
<text text-anchor="middle" x="280.5" y="-197.5" font-family="Helvetica,sans-Serif" font-size="10.00">mux_1of16_32bit</text>
</a>
</g>
</g>
<!-- Node21&#45;&gt;Node1 -->
<g id="edge8" class="edge">
<title>Node21&#45;&gt;Node1</title>
<path fill="none" stroke="midnightblue" d="M341.43,-190.63C350.13,-189.27 358.85,-187.9 366.88,-186.65"/>
<polygon fill="midnightblue" stroke="midnightblue" points="340.61,-187.21 331.27,-192.22 341.69,-194.13 340.61,-187.21"/>
</g>
<!-- Node20 -->
<g id="node10" class="node">
<title>Node20</title>
<g id="a_node10"><a xlink:href="classmux__1of4__32bit.html" target="_top" xlink:title=" ">
<polygon fill="none" stroke="black" points="233,-152.5 233,-171.5 328,-171.5 328,-152.5 233,-152.5"/>
<text text-anchor="middle" x="280.5" y="-159.5" font-family="Helvetica,sans-Serif" font-size="10.00">mux_1of4_32bit</text>
</a>
</g>
</g>
<!-- Node20&#45;&gt;Node1 -->
<g id="edge9" class="edge">
<title>Node20&#45;&gt;Node1</title>
<path fill="none" stroke="midnightblue" d="M338.2,-170.87C347.96,-172.39 357.85,-173.94 366.87,-175.35"/>
<polygon fill="midnightblue" stroke="midnightblue" points="338.55,-167.38 328.13,-169.29 337.47,-174.29 338.55,-167.38"/>
</g>
<!-- Node19 -->
<g id="node11" class="node">
<title>Node19</title>
<g id="a_node11"><a xlink:href="classmux__pic__ovl.html" target="_top" xlink:title=" ">
<polygon fill="none" stroke="black" points="241.5,-114.5 241.5,-133.5 319.5,-133.5 319.5,-114.5 241.5,-114.5"/>
<text text-anchor="middle" x="280.5" y="-121.5" font-family="Helvetica,sans-Serif" font-size="10.00">mux_pic_ovl</text>
</a>
</g>
</g>
<!-- Node19&#45;&gt;Node1 -->
<g id="edge10" class="edge">
<title>Node19&#45;&gt;Node1</title>
<path fill="none" stroke="midnightblue" d="M317.85,-137.38C322.31,-139.19 326.78,-141.09 331,-143 350.31,-151.76 371.71,-163.3 386.12,-171.36"/>
<polygon fill="midnightblue" stroke="midnightblue" points="318.79,-133.99 308.2,-133.58 316.22,-140.5 318.79,-133.99"/>
</g>
<!-- Node18 -->
<g id="node12" class="node">
<title>Node18</title>
<g id="a_node12"><a xlink:href="classOutputSERDES.html" target="_top" xlink:title=" ">
<polygon fill="none" stroke="black" points="105.5,-114.5 105.5,-133.5 193.5,-133.5 193.5,-114.5 105.5,-114.5"/>
<text text-anchor="middle" x="149.5" y="-121.5" font-family="Helvetica,sans-Serif" font-size="10.00">OutputSERDES</text>
</a>
</g>
</g>
<!-- Node6 -->
<g id="node13" class="node">
<title>Node6</title>
<g id="a_node13"><a xlink:href="classrgb2dvi.html" target="_top" xlink:title=" ">
<polygon fill="none" stroke="black" points="254,-76.5 254,-95.5 307,-95.5 307,-76.5 254,-76.5"/>
<text text-anchor="middle" x="280.5" y="-83.5" font-family="Helvetica,sans-Serif" font-size="10.00">rgb2dvi</text>
</a>
</g>
</g>
<!-- Node18&#45;&gt;Node6 -->
<g id="edge11" class="edge">
<title>Node18&#45;&gt;Node6</title>
<path fill="none" stroke="midnightblue" d="M192.66,-111.58C212.86,-105.63 236.4,-98.7 253.87,-93.55"/>
<polygon fill="midnightblue" stroke="midnightblue" points="191.66,-108.23 183.05,-114.41 193.63,-114.94 191.66,-108.23"/>
</g>
<!-- Node6&#45;&gt;Node1 -->
<g id="edge12" class="edge">
<title>Node6&#45;&gt;Node1</title>
<path fill="none" stroke="midnightblue" d="M316.75,-97.27C321.72,-99.5 326.62,-102.07 331,-105 359.1,-123.79 384.38,-155.4 396.1,-171.28"/>
<polygon fill="midnightblue" stroke="midnightblue" points="317.82,-93.93 307.24,-93.42 315.19,-100.42 317.82,-93.93"/>
</g>
<!-- Node7 -->
<g id="node14" class="node">
<title>Node7</title>
<g id="a_node14"><a xlink:href="classSyncAsync.html" target="_top" xlink:title=" ">
<polygon fill="none" stroke="black" points="0,-76.5 0,-95.5 69,-95.5 69,-76.5 0,-76.5"/>
<text text-anchor="middle" x="34.5" y="-83.5" font-family="Helvetica,sans-Serif" font-size="10.00">SyncAsync</text>
</a>
</g>
</g>
<!-- Node8 -->
<g id="node15" class="node">
<title>Node8</title>
<g id="a_node15"><a xlink:href="classClockGen.html" target="_top" xlink:title=" ">
<polygon fill="none" stroke="black" points="118,-76.5 118,-95.5 181,-95.5 181,-76.5 118,-76.5"/>
<text text-anchor="middle" x="149.5" y="-83.5" font-family="Helvetica,sans-Serif" font-size="10.00">ClockGen</text>
</a>
</g>
</g>
<!-- Node7&#45;&gt;Node8 -->
<g id="edge13" class="edge">
<title>Node7&#45;&gt;Node8</title>
<path fill="none" stroke="midnightblue" d="M79.21,-86C92.14,-86 106.01,-86 117.92,-86"/>
<polygon fill="midnightblue" stroke="midnightblue" points="79.1,-82.5 69.1,-86 79.1,-89.5 79.1,-82.5"/>
</g>
<!-- Node8&#45;&gt;Node6 -->
<g id="edge14" class="edge">
<title>Node8&#45;&gt;Node6</title>
<path fill="none" stroke="midnightblue" d="M191.12,-86C211.68,-86 236,-86 253.92,-86"/>
<polygon fill="midnightblue" stroke="midnightblue" points="191.07,-82.5 181.07,-86 191.07,-89.5 191.07,-82.5"/>
</g>
<!-- Node5 -->
<g id="node16" class="node">
<title>Node5</title>
<g id="a_node16"><a xlink:href="classTMDS__Encoder.html" target="_top" xlink:title=" ">
<polygon fill="none" stroke="black" points="105,-38.5 105,-57.5 194,-57.5 194,-38.5 105,-38.5"/>
<text text-anchor="middle" x="149.5" y="-45.5" font-family="Helvetica,sans-Serif" font-size="10.00">TMDS_Encoder</text>
</a>
</g>
</g>
<!-- Node5&#45;&gt;Node6 -->
<g id="edge15" class="edge">
<title>Node5&#45;&gt;Node6</title>
<path fill="none" stroke="midnightblue" d="M192.66,-60.42C212.86,-66.37 236.4,-73.3 253.87,-78.45"/>
<polygon fill="midnightblue" stroke="midnightblue" points="193.63,-57.06 183.05,-57.59 191.66,-63.77 193.63,-57.06"/>
</g>
<!-- Node4 -->
<g id="node17" class="node">
<title>Node4</title>
<g id="a_node17"><a xlink:href="classvears__mc.html" target="_top" xlink:title=" ">
<polygon fill="none" stroke="black" points="248.5,-38.5 248.5,-57.5 312.5,-57.5 312.5,-38.5 248.5,-38.5"/>
<text text-anchor="middle" x="280.5" y="-45.5" font-family="Helvetica,sans-Serif" font-size="10.00">vears_mc</text>
</a>
</g>
</g>
<!-- Node4&#45;&gt;Node1 -->
<g id="edge16" class="edge">
<title>Node4&#45;&gt;Node1</title>
<path fill="none" stroke="midnightblue" d="M322,-60.95C325.2,-62.73 328.25,-64.74 331,-67 367.2,-96.69 390.78,-149.57 399.37,-171.28"/>
<polygon fill="midnightblue" stroke="midnightblue" points="323.27,-57.67 312.74,-56.5 320.24,-63.98 323.27,-57.67"/>
</g>
<!-- Node0 -->
<g id="node18" class="node">
<title>Node0</title>
<g id="a_node18"><a xlink:href="classvideo__timing.html" target="_top" xlink:title=" ">
<polygon fill="none" stroke="black" points="240.5,-0.5 240.5,-19.5 320.5,-19.5 320.5,-0.5 240.5,-0.5"/>
<text text-anchor="middle" x="280.5" y="-7.5" font-family="Helvetica,sans-Serif" font-size="10.00">video_timing</text>
</a>
</g>
</g>
<!-- Node0&#45;&gt;Node1 -->
<g id="edge17" class="edge">
<title>Node0&#45;&gt;Node1</title>
<path fill="none" stroke="midnightblue" d="M325.51,-24.64C327.45,-25.97 329.3,-27.42 331,-29 375.54,-70.29 395.24,-144.83 401.05,-171.33"/>
<polygon fill="midnightblue" stroke="midnightblue" points="326.91,-21.41 316.48,-19.51 323.45,-27.5 326.91,-21.41"/>
</g>
</g>
</svg>
