<?xml version="1.0" encoding="UTF-8" standalone="no"?>
<!DOCTYPE svg PUBLIC "-//W3C//DTD SVG 1.1//EN"
 "http://www.w3.org/Graphics/SVG/1.1/DTD/svg11.dtd">
<!-- Generated by graphviz version 2.43.0 (0)
 -->
<!-- Title: Graphical Class Hierarchy Pages: 1 -->
<svg width="536pt" height="180pt"
 viewBox="0.00 0.00 536.00 180.00" xmlns="http://www.w3.org/2000/svg" xmlns:xlink="http://www.w3.org/1999/xlink">
<g id="graph0" class="graph" transform="scale(1 1) rotate(0) translate(4 176)">
<title>Graphical Class Hierarchy</title>
<!-- Node73 -->
<g id="node1" class="node">
<title>Node73</title>
<g id="a_node1"><a xlink:href="classAS__MEM__ADDRESS__GENERATOR.html" target="_top" xlink:title=" ">
<polygon fill="none" stroke="black" points="72,-133.5 72,-152.5 248,-152.5 248,-133.5 72,-133.5"/>
<text text-anchor="middle" x="160" y="-140.5" font-family="Helvetica,sans-Serif" font-size="10.00">AS_MEM_ADDRESS_GENERATOR</text>
</a>
</g>
</g>
<!-- Node4 -->
<g id="node2" class="node">
<title>Node4</title>
<g id="a_node2"><a xlink:href="classAS__MEMREADER.html" target="_top" xlink:title=" ">
<polygon fill="none" stroke="black" points="284,-114.5 284,-133.5 382,-133.5 382,-114.5 284,-114.5"/>
<text text-anchor="middle" x="333" y="-121.5" font-family="Helvetica,sans-Serif" font-size="10.00">AS_MEMREADER</text>
</a>
</g>
</g>
<!-- Node73&#45;&gt;Node4 -->
<g id="edge1" class="edge">
<title>Node73&#45;&gt;Node4</title>
<path fill="none" stroke="midnightblue" d="M256.82,-132.35C266.06,-131.33 275.14,-130.32 283.62,-129.38"/>
<polygon fill="midnightblue" stroke="midnightblue" points="256.3,-128.89 246.75,-133.47 257.08,-135.85 256.3,-128.89"/>
</g>
<!-- Node5 -->
<g id="node3" class="node">
<title>Node5</title>
<g id="a_node3"><a xlink:href="classAS__MEMWRITER.html" target="_top" xlink:title=" ">
<polygon fill="none" stroke="black" points="284.5,-152.5 284.5,-171.5 381.5,-171.5 381.5,-152.5 284.5,-152.5"/>
<text text-anchor="middle" x="333" y="-159.5" font-family="Helvetica,sans-Serif" font-size="10.00">AS_MEMWRITER</text>
</a>
</g>
</g>
<!-- Node73&#45;&gt;Node5 -->
<g id="edge2" class="edge">
<title>Node73&#45;&gt;Node5</title>
<path fill="none" stroke="midnightblue" d="M256.95,-153.66C266.32,-154.7 275.51,-155.72 284.07,-156.67"/>
<polygon fill="midnightblue" stroke="midnightblue" points="257.08,-150.15 246.75,-152.53 256.3,-157.11 257.08,-150.15"/>
</g>
<!-- Node0 -->
<g id="node4" class="node">
<title>Node0</title>
<g id="a_node4"><a xlink:href="classram.html" target="_top" xlink:title=" ">
<polygon fill="none" stroke="black" points="0,-76.5 0,-95.5 36,-95.5 36,-76.5 0,-76.5"/>
<text text-anchor="middle" x="18" y="-83.5" font-family="Helvetica,sans-Serif" font-size="10.00">ram</text>
</a>
</g>
</g>
<!-- Node1 -->
<g id="node5" class="node">
<title>Node1</title>
<g id="a_node5"><a xlink:href="classfifo__fwft.html" target="_top" xlink:title=" ">
<polygon fill="none" stroke="black" points="131,-76.5 131,-95.5 189,-95.5 189,-76.5 131,-76.5"/>
<text text-anchor="middle" x="160" y="-83.5" font-family="Helvetica,sans-Serif" font-size="10.00">fifo_fwft</text>
</a>
</g>
</g>
<!-- Node0&#45;&gt;Node1 -->
<g id="edge3" class="edge">
<title>Node0&#45;&gt;Node1</title>
<path fill="none" stroke="midnightblue" d="M46.17,-86C70.52,-86 106.11,-86 130.78,-86"/>
<polygon fill="midnightblue" stroke="midnightblue" points="46.17,-82.5 36.17,-86 46.17,-89.5 46.17,-82.5"/>
</g>
<!-- Node1&#45;&gt;Node4 -->
<g id="edge6" class="edge">
<title>Node1&#45;&gt;Node4</title>
<path fill="none" stroke="midnightblue" d="M199.32,-94.52C225.92,-100.43 261.39,-108.31 288.97,-114.44"/>
<polygon fill="midnightblue" stroke="midnightblue" points="199.76,-91.03 189.24,-92.27 198.24,-97.86 199.76,-91.03"/>
</g>
<!-- Node1&#45;&gt;Node5 -->
<g id="edge7" class="edge">
<title>Node1&#45;&gt;Node5</title>
<path fill="none" stroke="midnightblue" d="M193.33,-99.45C209.82,-106.48 230.12,-115.39 248,-124 264.3,-131.85 267.56,-135.44 284,-143 291.16,-146.3 299.08,-149.57 306.37,-152.45"/>
<polygon fill="midnightblue" stroke="midnightblue" points="194.68,-96.22 184.11,-95.54 191.95,-102.67 194.68,-96.22"/>
</g>
<!-- Node2 -->
<g id="node6" class="node">
<title>Node2</title>
<g id="a_node6"><a xlink:href="classas__disperse.html" target="_top" xlink:title=" ">
<polygon fill="none" stroke="black" points="296,-76.5 296,-95.5 370,-95.5 370,-76.5 296,-76.5"/>
<text text-anchor="middle" x="333" y="-83.5" font-family="Helvetica,sans-Serif" font-size="10.00">as_disperse</text>
</a>
</g>
</g>
<!-- Node1&#45;&gt;Node2 -->
<g id="edge4" class="edge">
<title>Node1&#45;&gt;Node2</title>
<path fill="none" stroke="midnightblue" d="M199.38,-86C228.29,-86 267.66,-86 295.98,-86"/>
<polygon fill="midnightblue" stroke="midnightblue" points="199.24,-82.5 189.24,-86 199.24,-89.5 199.24,-82.5"/>
</g>
<!-- Node6 -->
<g id="node8" class="node">
<title>Node6</title>
<g id="a_node8"><a xlink:href="classas__stream__sync.html" target="_top" xlink:title=" ">
<polygon fill="none" stroke="black" points="285.5,-38.5 285.5,-57.5 380.5,-57.5 380.5,-38.5 285.5,-38.5"/>
<text text-anchor="middle" x="333" y="-45.5" font-family="Helvetica,sans-Serif" font-size="10.00">as_stream_sync</text>
</a>
</g>
</g>
<!-- Node1&#45;&gt;Node6 -->
<g id="edge8" class="edge">
<title>Node1&#45;&gt;Node6</title>
<path fill="none" stroke="midnightblue" d="M199.32,-77.48C225.92,-71.57 261.39,-63.69 288.97,-57.56"/>
<polygon fill="midnightblue" stroke="midnightblue" points="198.24,-74.14 189.24,-79.73 199.76,-80.97 198.24,-74.14"/>
</g>
<!-- Node8 -->
<g id="node10" class="node">
<title>Node8</title>
<g id="a_node10"><a xlink:href="classfifo__fwft__tb.html" target="_top" xlink:title=" ">
<polygon fill="none" stroke="black" points="296.5,-0.5 296.5,-19.5 369.5,-19.5 369.5,-0.5 296.5,-0.5"/>
<text text-anchor="middle" x="333" y="-7.5" font-family="Helvetica,sans-Serif" font-size="10.00">fifo_fwft_tb</text>
</a>
</g>
</g>
<!-- Node1&#45;&gt;Node8 -->
<g id="edge10" class="edge">
<title>Node1&#45;&gt;Node8</title>
<path fill="none" stroke="midnightblue" d="M190.08,-71.96C214.87,-60.12 251.54,-42.93 284,-29 291.41,-25.82 299.55,-22.53 306.98,-19.59"/>
<polygon fill="midnightblue" stroke="midnightblue" points="188.37,-68.89 180.87,-76.37 191.4,-75.2 188.37,-68.89"/>
</g>
<!-- Node3 -->
<g id="node7" class="node">
<title>Node3</title>
<g id="a_node7"><a xlink:href="classas__disperse__tb.html" target="_top" xlink:title=" ">
<polygon fill="none" stroke="black" points="428.5,-76.5 428.5,-95.5 517.5,-95.5 517.5,-76.5 428.5,-76.5"/>
<text text-anchor="middle" x="473" y="-83.5" font-family="Helvetica,sans-Serif" font-size="10.00">as_disperse_tb</text>
</a>
</g>
</g>
<!-- Node2&#45;&gt;Node3 -->
<g id="edge5" class="edge">
<title>Node2&#45;&gt;Node3</title>
<path fill="none" stroke="midnightblue" d="M380.63,-86C396.06,-86 413.17,-86 428.37,-86"/>
<polygon fill="midnightblue" stroke="midnightblue" points="380.26,-82.5 370.26,-86 380.26,-89.5 380.26,-82.5"/>
</g>
<!-- Node7 -->
<g id="node9" class="node">
<title>Node7</title>
<g id="a_node9"><a xlink:href="classas__stream__sync__tb.html" target="_top" xlink:title=" ">
<polygon fill="none" stroke="black" points="418,-38.5 418,-57.5 528,-57.5 528,-38.5 418,-38.5"/>
<text text-anchor="middle" x="473" y="-45.5" font-family="Helvetica,sans-Serif" font-size="10.00">as_stream_sync_tb</text>
</a>
</g>
</g>
<!-- Node6&#45;&gt;Node7 -->
<g id="edge9" class="edge">
<title>Node6&#45;&gt;Node7</title>
<path fill="none" stroke="midnightblue" d="M390.95,-48C399.8,-48 408.92,-48 417.71,-48"/>
<polygon fill="midnightblue" stroke="midnightblue" points="390.72,-44.5 380.72,-48 390.72,-51.5 390.72,-44.5"/>
</g>
</g>
</svg>
