<?xml version="1.0" encoding="UTF-8" standalone="no"?>
<!DOCTYPE svg PUBLIC "-//W3C//DTD SVG 1.1//EN"
 "http://www.w3.org/Graphics/SVG/1.1/DTD/svg11.dtd">
<!-- Generated by graphviz version 2.43.0 (0)
 -->
<!-- Title: Graphical Class Hierarchy Pages: 1 -->
<svg width="1090pt" height="180pt"
 viewBox="0.00 0.00 1090.00 180.00" xmlns="http://www.w3.org/2000/svg" xmlns:xlink="http://www.w3.org/1999/xlink">
<g id="graph0" class="graph" transform="scale(1 1) rotate(0) translate(4 176)">
<title>Graphical Class Hierarchy</title>
<!-- Node99 -->
<g id="node1" class="node">
<title>Node99</title>
<g id="a_node1"><a xlink:href="classas__cnn__pooling__operator.html" target="_top" xlink:title=" ">
<polygon fill="none" stroke="black" points="416,-152.5 416,-171.5 554,-171.5 554,-152.5 416,-152.5"/>
<text text-anchor="middle" x="485" y="-159.5" font-family="Helvetica,sans-Serif" font-size="10.00">as_cnn_pooling_operator</text>
</a>
</g>
</g>
<!-- Node100 -->
<g id="node2" class="node">
<title>Node100</title>
<g id="a_node2"><a xlink:href="classas__cnn__pooling__filter.html" target="_top" xlink:title=" ">
<polygon fill="none" stroke="black" points="605,-152.5 605,-171.5 725,-171.5 725,-152.5 605,-152.5"/>
<text text-anchor="middle" x="665" y="-159.5" font-family="Helvetica,sans-Serif" font-size="10.00">as_cnn_pooling_filter</text>
</a>
</g>
</g>
<!-- Node99&#45;&gt;Node100 -->
<g id="edge1" class="edge">
<title>Node99&#45;&gt;Node100</title>
<path fill="none" stroke="midnightblue" d="M564.39,-162C578.02,-162 591.99,-162 604.99,-162"/>
<polygon fill="midnightblue" stroke="midnightblue" points="564.06,-158.5 554.06,-162 564.06,-165.5 564.06,-158.5"/>
</g>
<!-- Node6 -->
<g id="node3" class="node">
<title>Node6</title>
<g id="a_node3"><a xlink:href="classas__cnn__conv__filter__tb.html" target="_top" xlink:title=" ">
<polygon fill="none" stroke="black" points="782.5,-152.5 782.5,-171.5 904.5,-171.5 904.5,-152.5 782.5,-152.5"/>
<text text-anchor="middle" x="843.5" y="-159.5" font-family="Helvetica,sans-Serif" font-size="10.00">as_cnn_conv_filter_tb</text>
</a>
</g>
</g>
<!-- Node100&#45;&gt;Node6 -->
<g id="edge2" class="edge">
<title>Node100&#45;&gt;Node6</title>
<path fill="none" stroke="midnightblue" d="M735.36,-162C750.93,-162 767.33,-162 782.49,-162"/>
<polygon fill="midnightblue" stroke="midnightblue" points="735.26,-158.5 725.26,-162 735.26,-165.5 735.26,-158.5"/>
</g>
<!-- Node84 -->
<g id="node4" class="node">
<title>Node84</title>
<g id="a_node4"><a xlink:href="classas__generic__filter__module.html" target="_top" xlink:title=" ">
<polygon fill="none" stroke="black" points="415,-38.5 415,-57.5 555,-57.5 555,-38.5 415,-38.5"/>
<text text-anchor="middle" x="485" y="-45.5" font-family="Helvetica,sans-Serif" font-size="10.00">as_generic_filter_module</text>
</a>
</g>
</g>
<!-- Node85 -->
<g id="node5" class="node">
<title>Node85</title>
<g id="a_node5"><a xlink:href="classas__2d__conv__filter__external.html" target="_top" xlink:title=" ">
<polygon fill="none" stroke="black" points="591,-0.5 591,-19.5 739,-19.5 739,-0.5 591,-0.5"/>
<text text-anchor="middle" x="665" y="-7.5" font-family="Helvetica,sans-Serif" font-size="10.00">as_2d_conv_filter_external</text>
</a>
</g>
</g>
<!-- Node84&#45;&gt;Node85 -->
<g id="edge3" class="edge">
<title>Node84&#45;&gt;Node85</title>
<path fill="none" stroke="midnightblue" d="M540.72,-36.32C565.96,-30.93 595.55,-24.61 619.41,-19.52"/>
<polygon fill="midnightblue" stroke="midnightblue" points="539.97,-32.9 530.92,-38.41 541.43,-39.75 539.97,-32.9"/>
</g>
<!-- Node87 -->
<g id="node7" class="node">
<title>Node87</title>
<g id="a_node7"><a xlink:href="classas__2d__conv__filter__internal.html" target="_top" xlink:title=" ">
<polygon fill="none" stroke="black" points="592.5,-76.5 592.5,-95.5 737.5,-95.5 737.5,-76.5 592.5,-76.5"/>
<text text-anchor="middle" x="665" y="-83.5" font-family="Helvetica,sans-Serif" font-size="10.00">as_2d_conv_filter_internal</text>
</a>
</g>
</g>
<!-- Node84&#45;&gt;Node87 -->
<g id="edge5" class="edge">
<title>Node84&#45;&gt;Node87</title>
<path fill="none" stroke="midnightblue" d="M540.72,-59.68C565.96,-65.07 595.55,-71.39 619.41,-76.48"/>
<polygon fill="midnightblue" stroke="midnightblue" points="541.43,-56.25 530.92,-57.59 539.97,-63.1 541.43,-56.25"/>
</g>
<!-- Node86 -->
<g id="node6" class="node">
<title>Node86</title>
<g id="a_node6"><a xlink:href="classas__cnn__conv__filter.html" target="_top" xlink:title=" ">
<polygon fill="none" stroke="black" points="790,-0.5 790,-19.5 897,-19.5 897,-0.5 790,-0.5"/>
<text text-anchor="middle" x="843.5" y="-7.5" font-family="Helvetica,sans-Serif" font-size="10.00">as_cnn_conv_filter</text>
</a>
</g>
</g>
<!-- Node85&#45;&gt;Node86 -->
<g id="edge4" class="edge">
<title>Node85&#45;&gt;Node86</title>
<path fill="none" stroke="midnightblue" d="M749.14,-10C763.04,-10 777.11,-10 789.96,-10"/>
<polygon fill="midnightblue" stroke="midnightblue" points="749.06,-6.5 739.06,-10 749.06,-13.5 749.06,-6.5"/>
</g>
<!-- Node7 -->
<g id="node8" class="node">
<title>Node7</title>
<g id="a_node8"><a xlink:href="classas__single__conv__filter.html" target="_top" xlink:title=" ">
<polygon fill="none" stroke="black" points="784,-76.5 784,-95.5 903,-95.5 903,-76.5 784,-76.5"/>
<text text-anchor="middle" x="843.5" y="-83.5" font-family="Helvetica,sans-Serif" font-size="10.00">as_single_conv_filter</text>
</a>
</g>
</g>
<!-- Node87&#45;&gt;Node7 -->
<g id="edge6" class="edge">
<title>Node87&#45;&gt;Node7</title>
<path fill="none" stroke="midnightblue" d="M747.71,-86C759.9,-86 772.25,-86 783.84,-86"/>
<polygon fill="midnightblue" stroke="midnightblue" points="747.53,-82.5 737.53,-86 747.53,-89.5 747.53,-82.5"/>
</g>
<!-- Node8 -->
<g id="node9" class="node">
<title>Node8</title>
<g id="a_node9"><a xlink:href="classas__single__conv__filter__tb.html" target="_top" xlink:title=" ">
<polygon fill="none" stroke="black" points="948,-76.5 948,-95.5 1082,-95.5 1082,-76.5 948,-76.5"/>
<text text-anchor="middle" x="1015" y="-83.5" font-family="Helvetica,sans-Serif" font-size="10.00">as_single_conv_filter_tb</text>
</a>
</g>
</g>
<!-- Node7&#45;&gt;Node8 -->
<g id="edge7" class="edge">
<title>Node7&#45;&gt;Node8</title>
<path fill="none" stroke="midnightblue" d="M913.55,-86C924.84,-86 936.53,-86 947.75,-86"/>
<polygon fill="midnightblue" stroke="midnightblue" points="913.31,-82.5 903.31,-86 913.31,-89.5 913.31,-82.5"/>
</g>
<!-- Node69 -->
<g id="node10" class="node">
<title>Node69</title>
<g id="a_node10"><a xlink:href="classas__pipeline__flush.html" target="_top" xlink:title=" ">
<polygon fill="none" stroke="black" points="614.5,-38.5 614.5,-57.5 715.5,-57.5 715.5,-38.5 614.5,-38.5"/>
<text text-anchor="middle" x="665" y="-45.5" font-family="Helvetica,sans-Serif" font-size="10.00">as_pipeline_flush</text>
</a>
</g>
</g>
<!-- Node69&#45;&gt;Node7 -->
<g id="edge8" class="edge">
<title>Node69&#45;&gt;Node7</title>
<path fill="none" stroke="midnightblue" d="M720.59,-59.75C745.54,-65.13 774.73,-71.41 798.28,-76.48"/>
<polygon fill="midnightblue" stroke="midnightblue" points="721.05,-56.27 710.54,-57.59 719.58,-63.12 721.05,-56.27"/>
</g>
<!-- Node63 -->
<g id="node11" class="node">
<title>Node63</title>
<g id="a_node11"><a xlink:href="classas__shift__line.html" target="_top" xlink:title=" ">
<polygon fill="none" stroke="black" points="179,-114.5 179,-133.5 257,-133.5 257,-114.5 179,-114.5"/>
<text text-anchor="middle" x="218" y="-121.5" font-family="Helvetica,sans-Serif" font-size="10.00">as_shift_line</text>
</a>
</g>
</g>
<!-- Node3 -->
<g id="node12" class="node">
<title>Node3</title>
<g id="a_node12"><a xlink:href="classas__line__buffer.html" target="_top" xlink:title=" ">
<polygon fill="none" stroke="black" points="293,-114.5 293,-133.5 379,-133.5 379,-114.5 293,-114.5"/>
<text text-anchor="middle" x="336" y="-121.5" font-family="Helvetica,sans-Serif" font-size="10.00">as_line_buffer</text>
</a>
</g>
</g>
<!-- Node63&#45;&gt;Node3 -->
<g id="edge9" class="edge">
<title>Node63&#45;&gt;Node3</title>
<path fill="none" stroke="midnightblue" d="M267.38,-124C275.8,-124 284.5,-124 292.73,-124"/>
<polygon fill="midnightblue" stroke="midnightblue" points="267.3,-120.5 257.3,-124 267.3,-127.5 267.3,-120.5"/>
</g>
<!-- Node4 -->
<g id="node13" class="node">
<title>Node4</title>
<g id="a_node13"><a xlink:href="classas__pipeline__row.html" target="_top" xlink:title=" ">
<polygon fill="none" stroke="black" points="437.5,-114.5 437.5,-133.5 532.5,-133.5 532.5,-114.5 437.5,-114.5"/>
<text text-anchor="middle" x="485" y="-121.5" font-family="Helvetica,sans-Serif" font-size="10.00">as_pipeline_row</text>
</a>
</g>
</g>
<!-- Node3&#45;&gt;Node4 -->
<g id="edge10" class="edge">
<title>Node3&#45;&gt;Node4</title>
<path fill="none" stroke="midnightblue" d="M389.23,-124C404.97,-124 422.14,-124 437.49,-124"/>
<polygon fill="midnightblue" stroke="midnightblue" points="389.12,-120.5 379.12,-124 389.12,-127.5 389.12,-120.5"/>
</g>
<!-- Node5 -->
<g id="node14" class="node">
<title>Node5</title>
<g id="a_node14"><a xlink:href="classas__window__buff__nxm.html" target="_top" xlink:title=" ">
<polygon fill="none" stroke="black" points="604,-114.5 604,-133.5 726,-133.5 726,-114.5 604,-114.5"/>
<text text-anchor="middle" x="665" y="-121.5" font-family="Helvetica,sans-Serif" font-size="10.00">as_window_buff_nxm</text>
</a>
</g>
</g>
<!-- Node4&#45;&gt;Node5 -->
<g id="edge11" class="edge">
<title>Node4&#45;&gt;Node5</title>
<path fill="none" stroke="midnightblue" d="M542.98,-124C562.39,-124 584.14,-124 603.8,-124"/>
<polygon fill="midnightblue" stroke="midnightblue" points="542.77,-120.5 532.77,-124 542.77,-127.5 542.77,-120.5"/>
</g>
<!-- Node5&#45;&gt;Node6 -->
<g id="edge12" class="edge">
<title>Node5&#45;&gt;Node6</title>
<path fill="none" stroke="midnightblue" d="M720.59,-135.75C745.54,-141.13 774.73,-147.41 798.28,-152.48"/>
<polygon fill="midnightblue" stroke="midnightblue" points="721.05,-132.27 710.54,-133.59 719.58,-139.12 721.05,-132.27"/>
</g>
<!-- Node5&#45;&gt;Node7 -->
<g id="edge13" class="edge">
<title>Node5&#45;&gt;Node7</title>
<path fill="none" stroke="midnightblue" d="M720.59,-112.25C745.54,-106.87 774.73,-100.59 798.28,-95.52"/>
<polygon fill="midnightblue" stroke="midnightblue" points="719.58,-108.88 710.54,-114.41 721.05,-115.73 719.58,-108.88"/>
</g>
<!-- Node9 -->
<g id="node15" class="node">
<title>Node9</title>
<g id="a_node15"><a xlink:href="classas__window__buff__nxm__tb.html" target="_top" xlink:title=" ">
<polygon fill="none" stroke="black" points="775,-114.5 775,-133.5 912,-133.5 912,-114.5 775,-114.5"/>
<text text-anchor="middle" x="843.5" y="-121.5" font-family="Helvetica,sans-Serif" font-size="10.00">as_window_buff_nxm_tb</text>
</a>
</g>
</g>
<!-- Node5&#45;&gt;Node9 -->
<g id="edge14" class="edge">
<title>Node5&#45;&gt;Node9</title>
<path fill="none" stroke="midnightblue" d="M736.32,-124C749.05,-124 762.3,-124 774.95,-124"/>
<polygon fill="midnightblue" stroke="midnightblue" points="736.25,-120.5 726.25,-124 736.25,-127.5 736.25,-120.5"/>
</g>
<!-- Node0 -->
<g id="node16" class="node">
<title>Node0</title>
<g id="a_node16"><a xlink:href="classDUAL__BRAM__READ__FIRST.html" target="_top" xlink:title=" ">
<polygon fill="none" stroke="black" points="0,-76.5 0,-95.5 143,-95.5 143,-76.5 0,-76.5"/>
<text text-anchor="middle" x="71.5" y="-83.5" font-family="Helvetica,sans-Serif" font-size="10.00">DUAL_BRAM_READ_FIRST</text>
</a>
</g>
</g>
<!-- Node1 -->
<g id="node17" class="node">
<title>Node1</title>
<g id="a_node17"><a xlink:href="classas__fifo.html" target="_top" xlink:title=" ">
<polygon fill="none" stroke="black" points="193,-76.5 193,-95.5 243,-95.5 243,-76.5 193,-76.5"/>
<text text-anchor="middle" x="218" y="-83.5" font-family="Helvetica,sans-Serif" font-size="10.00">as_fifo</text>
</a>
</g>
</g>
<!-- Node0&#45;&gt;Node1 -->
<g id="edge15" class="edge">
<title>Node0&#45;&gt;Node1</title>
<path fill="none" stroke="midnightblue" d="M153.12,-86C167.59,-86 181.6,-86 192.8,-86"/>
<polygon fill="midnightblue" stroke="midnightblue" points="153.06,-82.5 143.06,-86 153.06,-89.5 153.06,-82.5"/>
</g>
<!-- Node1&#45;&gt;Node3 -->
<g id="edge17" class="edge">
<title>Node1&#45;&gt;Node3</title>
<path fill="none" stroke="midnightblue" d="M252.96,-97.12C269.66,-102.6 289.61,-109.13 305.65,-114.38"/>
<polygon fill="midnightblue" stroke="midnightblue" points="253.63,-93.66 243.04,-93.87 251.45,-100.31 253.63,-93.66"/>
</g>
<!-- Node2 -->
<g id="node18" class="node">
<title>Node2</title>
<g id="a_node18"><a xlink:href="classas__fifo__tb.html" target="_top" xlink:title=" ">
<polygon fill="none" stroke="black" points="303.5,-76.5 303.5,-95.5 368.5,-95.5 368.5,-76.5 303.5,-76.5"/>
<text text-anchor="middle" x="336" y="-83.5" font-family="Helvetica,sans-Serif" font-size="10.00">as_fifo_tb</text>
</a>
</g>
</g>
<!-- Node1&#45;&gt;Node2 -->
<g id="edge16" class="edge">
<title>Node1&#45;&gt;Node2</title>
<path fill="none" stroke="midnightblue" d="M253.41,-86C269.13,-86 287.65,-86 303.07,-86"/>
<polygon fill="midnightblue" stroke="midnightblue" points="253.04,-82.5 243.04,-86 253.04,-89.5 253.04,-82.5"/>
</g>
</g>
</svg>
